<?xml version="1.0" encoding="utf-8" standalone="no"?>
<!DOCTYPE svg PUBLIC "-//W3C//DTD SVG 1.1//EN"
  "http://www.w3.org/Graphics/SVG/1.1/DTD/svg11.dtd">
<!-- Created with matplotlib (https://matplotlib.org/) -->
<svg height="286.56pt" version="1.1" viewBox="0 0 432 286.56" width="432pt" xmlns="http://www.w3.org/2000/svg" xmlns:xlink="http://www.w3.org/1999/xlink">
 <defs>
  <style type="text/css">
*{stroke-linecap:butt;stroke-linejoin:round;}
  </style>
 </defs>
 <g id="figure_1">
  <g id="patch_1">
   <path d="M 0 286.56 
L 432 286.56 
L 432 0 
L 0 0 
z
" style="fill:#ffffff;"/>
  </g>
  <g id="axes_1">
   <g id="patch_2">
    <path d="M 54 255.0384 
L 388.8 255.0384 
L 388.8 34.3872 
L 54 34.3872 
z
" style="fill:#ffffff;"/>
   </g>
   <g id="matplotlib.axis_1">
    <g id="xtick_1">
     <g id="line2d_1">
      <defs>
       <path d="M 0 0 
L 0 3.5 
" id="m0d74258211" style="stroke:#000000;stroke-width:0.8;"/>
      </defs>
      <g>
       <use style="stroke:#000000;stroke-width:0.8;" x="69.218182" xlink:href="#m0d74258211" y="255.0384"/>
      </g>
     </g>
     <g id="text_1">
      <!-- 0 -->
      <defs>
       <path d="M 31.78125 66.40625 
Q 24.171875 66.40625 20.328125 58.90625 
Q 16.5 51.421875 16.5 36.375 
Q 16.5 21.390625 20.328125 13.890625 
Q 24.171875 6.390625 31.78125 6.390625 
Q 39.453125 6.390625 43.28125 13.890625 
Q 47.125 21.390625 47.125 36.375 
Q 47.125 51.421875 43.28125 58.90625 
Q 39.453125 66.40625 31.78125 66.40625 
z
M 31.78125 74.21875 
Q 44.046875 74.21875 50.515625 64.515625 
Q 56.984375 54.828125 56.984375 36.375 
Q 56.984375 17.96875 50.515625 8.265625 
Q 44.046875 -1.421875 31.78125 -1.421875 
Q 19.53125 -1.421875 13.0625 8.265625 
Q 6.59375 17.96875 6.59375 36.375 
Q 6.59375 54.828125 13.0625 64.515625 
Q 19.53125 74.21875 31.78125 74.21875 
z
" id="DejaVuSans-48"/>
      </defs>
      <g transform="translate(66.036932 269.636838)scale(0.1 -0.1)">
       <use xlink:href="#DejaVuSans-48"/>
      </g>
     </g>
    </g>
    <g id="xtick_2">
     <g id="line2d_2">
      <g>
       <use style="stroke:#000000;stroke-width:0.8;" x="130.103086" xlink:href="#m0d74258211" y="255.0384"/>
      </g>
     </g>
     <g id="text_2">
      <!-- 2000 -->
      <defs>
       <path d="M 19.1875 8.296875 
L 53.609375 8.296875 
L 53.609375 0 
L 7.328125 0 
L 7.328125 8.296875 
Q 12.9375 14.109375 22.625 23.890625 
Q 32.328125 33.6875 34.8125 36.53125 
Q 39.546875 41.84375 41.421875 45.53125 
Q 43.3125 49.21875 43.3125 52.78125 
Q 43.3125 58.59375 39.234375 62.25 
Q 35.15625 65.921875 28.609375 65.921875 
Q 23.96875 65.921875 18.8125 64.3125 
Q 13.671875 62.703125 7.8125 59.421875 
L 7.8125 69.390625 
Q 13.765625 71.78125 18.9375 73 
Q 24.125 74.21875 28.421875 74.21875 
Q 39.75 74.21875 46.484375 68.546875 
Q 53.21875 62.890625 53.21875 53.421875 
Q 53.21875 48.921875 51.53125 44.890625 
Q 49.859375 40.875 45.40625 35.40625 
Q 44.1875 33.984375 37.640625 27.21875 
Q 31.109375 20.453125 19.1875 8.296875 
z
" id="DejaVuSans-50"/>
      </defs>
      <g transform="translate(117.378086 269.636838)scale(0.1 -0.1)">
       <use xlink:href="#DejaVuSans-50"/>
       <use x="63.623047" xlink:href="#DejaVuSans-48"/>
       <use x="127.246094" xlink:href="#DejaVuSans-48"/>
       <use x="190.869141" xlink:href="#DejaVuSans-48"/>
      </g>
     </g>
    </g>
    <g id="xtick_3">
     <g id="line2d_3">
      <g>
       <use style="stroke:#000000;stroke-width:0.8;" x="190.98799" xlink:href="#m0d74258211" y="255.0384"/>
      </g>
     </g>
     <g id="text_3">
      <!-- 4000 -->
      <defs>
       <path d="M 37.796875 64.3125 
L 12.890625 25.390625 
L 37.796875 25.390625 
z
M 35.203125 72.90625 
L 47.609375 72.90625 
L 47.609375 25.390625 
L 58.015625 25.390625 
L 58.015625 17.1875 
L 47.609375 17.1875 
L 47.609375 0 
L 37.796875 0 
L 37.796875 17.1875 
L 4.890625 17.1875 
L 4.890625 26.703125 
z
" id="DejaVuSans-52"/>
      </defs>
      <g transform="translate(178.26299 269.636838)scale(0.1 -0.1)">
       <use xlink:href="#DejaVuSans-52"/>
       <use x="63.623047" xlink:href="#DejaVuSans-48"/>
       <use x="127.246094" xlink:href="#DejaVuSans-48"/>
       <use x="190.869141" xlink:href="#DejaVuSans-48"/>
      </g>
     </g>
    </g>
    <g id="xtick_4">
     <g id="line2d_4">
      <g>
       <use style="stroke:#000000;stroke-width:0.8;" x="251.872895" xlink:href="#m0d74258211" y="255.0384"/>
      </g>
     </g>
     <g id="text_4">
      <!-- 6000 -->
      <defs>
       <path d="M 33.015625 40.375 
Q 26.375 40.375 22.484375 35.828125 
Q 18.609375 31.296875 18.609375 23.390625 
Q 18.609375 15.53125 22.484375 10.953125 
Q 26.375 6.390625 33.015625 6.390625 
Q 39.65625 6.390625 43.53125 10.953125 
Q 47.40625 15.53125 47.40625 23.390625 
Q 47.40625 31.296875 43.53125 35.828125 
Q 39.65625 40.375 33.015625 40.375 
z
M 52.59375 71.296875 
L 52.59375 62.3125 
Q 48.875 64.0625 45.09375 64.984375 
Q 41.3125 65.921875 37.59375 65.921875 
Q 27.828125 65.921875 22.671875 59.328125 
Q 17.53125 52.734375 16.796875 39.40625 
Q 19.671875 43.65625 24.015625 45.921875 
Q 28.375 48.1875 33.59375 48.1875 
Q 44.578125 48.1875 50.953125 41.515625 
Q 57.328125 34.859375 57.328125 23.390625 
Q 57.328125 12.15625 50.6875 5.359375 
Q 44.046875 -1.421875 33.015625 -1.421875 
Q 20.359375 -1.421875 13.671875 8.265625 
Q 6.984375 17.96875 6.984375 36.375 
Q 6.984375 53.65625 15.1875 63.9375 
Q 23.390625 74.21875 37.203125 74.21875 
Q 40.921875 74.21875 44.703125 73.484375 
Q 48.484375 72.75 52.59375 71.296875 
z
" id="DejaVuSans-54"/>
      </defs>
      <g transform="translate(239.147895 269.636838)scale(0.1 -0.1)">
       <use xlink:href="#DejaVuSans-54"/>
       <use x="63.623047" xlink:href="#DejaVuSans-48"/>
       <use x="127.246094" xlink:href="#DejaVuSans-48"/>
       <use x="190.869141" xlink:href="#DejaVuSans-48"/>
      </g>
     </g>
    </g>
    <g id="xtick_5">
     <g id="line2d_5">
      <g>
       <use style="stroke:#000000;stroke-width:0.8;" x="312.757799" xlink:href="#m0d74258211" y="255.0384"/>
      </g>
     </g>
     <g id="text_5">
      <!-- 8000 -->
      <defs>
       <path d="M 31.78125 34.625 
Q 24.75 34.625 20.71875 30.859375 
Q 16.703125 27.09375 16.703125 20.515625 
Q 16.703125 13.921875 20.71875 10.15625 
Q 24.75 6.390625 31.78125 6.390625 
Q 38.8125 6.390625 42.859375 10.171875 
Q 46.921875 13.96875 46.921875 20.515625 
Q 46.921875 27.09375 42.890625 30.859375 
Q 38.875 34.625 31.78125 34.625 
z
M 21.921875 38.8125 
Q 15.578125 40.375 12.03125 44.71875 
Q 8.5 49.078125 8.5 55.328125 
Q 8.5 64.0625 14.71875 69.140625 
Q 20.953125 74.21875 31.78125 74.21875 
Q 42.671875 74.21875 48.875 69.140625 
Q 55.078125 64.0625 55.078125 55.328125 
Q 55.078125 49.078125 51.53125 44.71875 
Q 48 40.375 41.703125 38.8125 
Q 48.828125 37.15625 52.796875 32.3125 
Q 56.78125 27.484375 56.78125 20.515625 
Q 56.78125 9.90625 50.3125 4.234375 
Q 43.84375 -1.421875 31.78125 -1.421875 
Q 19.734375 -1.421875 13.25 4.234375 
Q 6.78125 9.90625 6.78125 20.515625 
Q 6.78125 27.484375 10.78125 32.3125 
Q 14.796875 37.15625 21.921875 38.8125 
z
M 18.3125 54.390625 
Q 18.3125 48.734375 21.84375 45.5625 
Q 25.390625 42.390625 31.78125 42.390625 
Q 38.140625 42.390625 41.71875 45.5625 
Q 45.3125 48.734375 45.3125 54.390625 
Q 45.3125 60.0625 41.71875 63.234375 
Q 38.140625 66.40625 31.78125 66.40625 
Q 25.390625 66.40625 21.84375 63.234375 
Q 18.3125 60.0625 18.3125 54.390625 
z
" id="DejaVuSans-56"/>
      </defs>
      <g transform="translate(300.032799 269.636838)scale(0.1 -0.1)">
       <use xlink:href="#DejaVuSans-56"/>
       <use x="63.623047" xlink:href="#DejaVuSans-48"/>
       <use x="127.246094" xlink:href="#DejaVuSans-48"/>
       <use x="190.869141" xlink:href="#DejaVuSans-48"/>
      </g>
     </g>
    </g>
    <g id="xtick_6">
     <g id="line2d_6">
      <g>
       <use style="stroke:#000000;stroke-width:0.8;" x="373.642703" xlink:href="#m0d74258211" y="255.0384"/>
      </g>
     </g>
     <g id="text_6">
      <!-- 10000 -->
      <defs>
       <path d="M 12.40625 8.296875 
L 28.515625 8.296875 
L 28.515625 63.921875 
L 10.984375 60.40625 
L 10.984375 69.390625 
L 28.421875 72.90625 
L 38.28125 72.90625 
L 38.28125 8.296875 
L 54.390625 8.296875 
L 54.390625 0 
L 12.40625 0 
z
" id="DejaVuSans-49"/>
      </defs>
      <g transform="translate(357.736453 269.636838)scale(0.1 -0.1)">
       <use xlink:href="#DejaVuSans-49"/>
       <use x="63.623047" xlink:href="#DejaVuSans-48"/>
       <use x="127.246094" xlink:href="#DejaVuSans-48"/>
       <use x="190.869141" xlink:href="#DejaVuSans-48"/>
       <use x="254.492188" xlink:href="#DejaVuSans-48"/>
      </g>
     </g>
    </g>
   </g>
   <g id="matplotlib.axis_2">
    <g id="ytick_1">
     <g id="line2d_7">
      <defs>
       <path d="M 0 0 
L -3.5 0 
" id="mb1dd1ef685" style="stroke:#000000;stroke-width:0.8;"/>
      </defs>
      <g>
       <use style="stroke:#000000;stroke-width:0.8;" x="54" xlink:href="#mb1dd1ef685" y="247.920619"/>
      </g>
     </g>
     <g id="text_7">
      <!-- 0.00 -->
      <defs>
       <path d="M 10.6875 12.40625 
L 21 12.40625 
L 21 0 
L 10.6875 0 
z
" id="DejaVuSans-46"/>
      </defs>
      <g transform="translate(24.734375 251.719838)scale(0.1 -0.1)">
       <use xlink:href="#DejaVuSans-48"/>
       <use x="63.623047" xlink:href="#DejaVuSans-46"/>
       <use x="95.410156" xlink:href="#DejaVuSans-48"/>
       <use x="159.033203" xlink:href="#DejaVuSans-48"/>
      </g>
     </g>
    </g>
    <g id="ytick_2">
     <g id="line2d_8">
      <g>
       <use style="stroke:#000000;stroke-width:0.8;" x="54" xlink:href="#mb1dd1ef685" y="212.331716"/>
      </g>
     </g>
     <g id="text_8">
      <!-- 0.05 -->
      <defs>
       <path d="M 10.796875 72.90625 
L 49.515625 72.90625 
L 49.515625 64.59375 
L 19.828125 64.59375 
L 19.828125 46.734375 
Q 21.96875 47.46875 24.109375 47.828125 
Q 26.265625 48.1875 28.421875 48.1875 
Q 40.625 48.1875 47.75 41.5 
Q 54.890625 34.8125 54.890625 23.390625 
Q 54.890625 11.625 47.5625 5.09375 
Q 40.234375 -1.421875 26.90625 -1.421875 
Q 22.3125 -1.421875 17.546875 -0.640625 
Q 12.796875 0.140625 7.71875 1.703125 
L 7.71875 11.625 
Q 12.109375 9.234375 16.796875 8.0625 
Q 21.484375 6.890625 26.703125 6.890625 
Q 35.15625 6.890625 40.078125 11.328125 
Q 45.015625 15.765625 45.015625 23.390625 
Q 45.015625 31 40.078125 35.4375 
Q 35.15625 39.890625 26.703125 39.890625 
Q 22.75 39.890625 18.8125 39.015625 
Q 14.890625 38.140625 10.796875 36.28125 
z
" id="DejaVuSans-53"/>
      </defs>
      <g transform="translate(24.734375 216.130935)scale(0.1 -0.1)">
       <use xlink:href="#DejaVuSans-48"/>
       <use x="63.623047" xlink:href="#DejaVuSans-46"/>
       <use x="95.410156" xlink:href="#DejaVuSans-48"/>
       <use x="159.033203" xlink:href="#DejaVuSans-53"/>
      </g>
     </g>
    </g>
    <g id="ytick_3">
     <g id="line2d_9">
      <g>
       <use style="stroke:#000000;stroke-width:0.8;" x="54" xlink:href="#mb1dd1ef685" y="176.742813"/>
      </g>
     </g>
     <g id="text_9">
      <!-- 0.10 -->
      <g transform="translate(24.734375 180.542032)scale(0.1 -0.1)">
       <use xlink:href="#DejaVuSans-48"/>
       <use x="63.623047" xlink:href="#DejaVuSans-46"/>
       <use x="95.410156" xlink:href="#DejaVuSans-49"/>
       <use x="159.033203" xlink:href="#DejaVuSans-48"/>
      </g>
     </g>
    </g>
    <g id="ytick_4">
     <g id="line2d_10">
      <g>
       <use style="stroke:#000000;stroke-width:0.8;" x="54" xlink:href="#mb1dd1ef685" y="141.15391"/>
      </g>
     </g>
     <g id="text_10">
      <!-- 0.15 -->
      <g transform="translate(24.734375 144.953128)scale(0.1 -0.1)">
       <use xlink:href="#DejaVuSans-48"/>
       <use x="63.623047" xlink:href="#DejaVuSans-46"/>
       <use x="95.410156" xlink:href="#DejaVuSans-49"/>
       <use x="159.033203" xlink:href="#DejaVuSans-53"/>
      </g>
     </g>
    </g>
    <g id="ytick_5">
     <g id="line2d_11">
      <g>
       <use style="stroke:#000000;stroke-width:0.8;" x="54" xlink:href="#mb1dd1ef685" y="105.565006"/>
      </g>
     </g>
     <g id="text_11">
      <!-- 0.20 -->
      <g transform="translate(24.734375 109.364225)scale(0.1 -0.1)">
       <use xlink:href="#DejaVuSans-48"/>
       <use x="63.623047" xlink:href="#DejaVuSans-46"/>
       <use x="95.410156" xlink:href="#DejaVuSans-50"/>
       <use x="159.033203" xlink:href="#DejaVuSans-48"/>
      </g>
     </g>
    </g>
    <g id="ytick_6">
     <g id="line2d_12">
      <g>
       <use style="stroke:#000000;stroke-width:0.8;" x="54" xlink:href="#mb1dd1ef685" y="69.976103"/>
      </g>
     </g>
     <g id="text_12">
      <!-- 0.25 -->
      <g transform="translate(24.734375 73.775322)scale(0.1 -0.1)">
       <use xlink:href="#DejaVuSans-48"/>
       <use x="63.623047" xlink:href="#DejaVuSans-46"/>
       <use x="95.410156" xlink:href="#DejaVuSans-50"/>
       <use x="159.033203" xlink:href="#DejaVuSans-53"/>
      </g>
     </g>
    </g>
    <g id="ytick_7">
     <g id="line2d_13">
      <g>
       <use style="stroke:#000000;stroke-width:0.8;" x="54" xlink:href="#mb1dd1ef685" y="34.3872"/>
      </g>
     </g>
     <g id="text_13">
      <!-- 0.30 -->
      <defs>
       <path d="M 40.578125 39.3125 
Q 47.65625 37.796875 51.625 33 
Q 55.609375 28.21875 55.609375 21.1875 
Q 55.609375 10.40625 48.1875 4.484375 
Q 40.765625 -1.421875 27.09375 -1.421875 
Q 22.515625 -1.421875 17.65625 -0.515625 
Q 12.796875 0.390625 7.625 2.203125 
L 7.625 11.71875 
Q 11.71875 9.328125 16.59375 8.109375 
Q 21.484375 6.890625 26.8125 6.890625 
Q 36.078125 6.890625 40.9375 10.546875 
Q 45.796875 14.203125 45.796875 21.1875 
Q 45.796875 27.640625 41.28125 31.265625 
Q 36.765625 34.90625 28.71875 34.90625 
L 20.21875 34.90625 
L 20.21875 43.015625 
L 29.109375 43.015625 
Q 36.375 43.015625 40.234375 45.921875 
Q 44.09375 48.828125 44.09375 54.296875 
Q 44.09375 59.90625 40.109375 62.90625 
Q 36.140625 65.921875 28.71875 65.921875 
Q 24.65625 65.921875 20.015625 65.03125 
Q 15.375 64.15625 9.8125 62.3125 
L 9.8125 71.09375 
Q 15.4375 72.65625 20.34375 73.4375 
Q 25.25 74.21875 29.59375 74.21875 
Q 40.828125 74.21875 47.359375 69.109375 
Q 53.90625 64.015625 53.90625 55.328125 
Q 53.90625 49.265625 50.4375 45.09375 
Q 46.96875 40.921875 40.578125 39.3125 
z
" id="DejaVuSans-51"/>
      </defs>
      <g transform="translate(24.734375 38.186419)scale(0.1 -0.1)">
       <use xlink:href="#DejaVuSans-48"/>
       <use x="63.623047" xlink:href="#DejaVuSans-46"/>
       <use x="95.410156" xlink:href="#DejaVuSans-51"/>
       <use x="159.033203" xlink:href="#DejaVuSans-48"/>
      </g>
     </g>
    </g>
   </g>
   <g id="line2d_14">
    <path clip-path="url(#pd11701cb32)" d="M 69.248865 -1 
L 69.461721 199.562337 
L 69.613934 212.830128 
L 69.796588 225.081011 
L 69.827031 225.00085 
L 69.857473 223.607355 
L 69.948801 224.001068 
L 70.344553 234.129663 
L 70.588092 235.910435 
L 70.618535 235.780431 
L 70.770747 236.952529 
L 70.801189 236.820322 
L 71.227384 239.627598 
L 71.257826 239.03583 
L 71.318711 239.392811 
L 71.379596 239.610833 
L 71.410038 239.537483 
L 71.440481 239.065299 
L 71.531808 239.364128 
L 71.80579 240.655834 
L 71.866675 240.656593 
L 72.231985 241.708532 
L 72.292869 241.835393 
L 72.323312 241.714149 
L 72.475524 241.067247 
L 72.505967 241.029984 
L 72.536409 241.138657 
L 72.901719 241.962121 
L 72.962603 241.880951 
L 72.993046 241.974382 
L 73.206143 242.293933 
L 73.693222 242.978785 
L 73.845435 243.145928 
L 74.149859 243.454067 
L 74.271629 243.5577 
L 74.545611 243.857394 
L 74.576053 243.823765 
L 74.789151 244.04773 
L 75.124018 244.283023 
L 75.945964 244.775635 
L 76.920122 245.259028 
L 77.437644 245.482358 
L 78.046493 245.695649 
L 79.020651 245.945407 
L 80.177465 246.184955 
L 80.329677 246.194229 
L 80.755871 246.21471 
L 82.399764 246.442162 
L 82.704188 246.451479 
L 84.287196 246.638626 
L 84.500293 246.641283 
L 86.600822 246.723223 
L 88.305599 246.813289 
L 90.375686 246.938031 
L 90.984535 246.947648 
L 95.52046 247.125303 
L 100.330368 247.245631 
L 100.939217 247.247591 
L 108.762927 247.39145 
L 162.737395 247.689352 
L 362.074571 247.847799 
L 373.581818 247.85073 
L 373.581818 247.85073 
" style="fill:none;stroke:#1f77b4;stroke-linecap:square;stroke-width:1.5;"/>
   </g>
   <g id="line2d_15">
    <path clip-path="url(#pd11701cb32)" d="M 69.218182 235.843705 
L 69.229459 -1 
M 69.296936 -1 
L 69.309509 39.24176 
L 69.320932 -1 
M 69.358963 -1 
L 69.492164 169.554247 
L 69.918358 226.162298 
L 69.948801 216.769694 
L 70.040128 222.399911 
L 70.07057 216.4333 
L 70.131455 220.420914 
L 70.55765 232.232733 
L 70.618535 228.169378 
L 70.67942 229.758994 
L 70.770747 231.653998 
L 70.831632 230.944209 
L 70.892517 231.705767 
L 71.044729 232.835333 
L 71.105614 230.779529 
L 71.196941 231.324396 
L 71.592693 236.498601 
L 71.623136 236.749098 
L 71.653578 236.29909 
L 71.68402 236.155465 
L 71.714463 236.440329 
L 72.018887 238.182716 
L 72.231985 238.902346 
L 72.445082 239.608926 
L 72.505967 239.571066 
L 72.536409 239.383239 
L 72.566852 239.554968 
L 72.597294 239.724971 
L 72.658179 239.702377 
L 72.688621 239.55154 
L 72.749506 239.656651 
L 73.145258 241.017003 
L 73.175701 240.981054 
L 73.206143 241.084415 
L 73.236585 241.187174 
L 73.267028 241.173234 
L 73.29747 239.521028 
L 73.388798 239.974251 
L 73.449683 239.834127 
L 73.480125 239.968786 
L 73.814992 241.031263 
L 74.088974 241.595063 
L 74.576053 242.640624 
L 74.880478 243.026551 
L 74.91092 242.982948 
L 74.971805 243.088605 
L 75.15446 243.292016 
L 75.184902 243.254005 
L 75.245787 243.285345 
L 75.702424 243.793613 
L 75.885079 243.870891 
L 76.098176 243.895883 
L 76.64614 244.355836 
L 77.163662 244.699712 
L 77.346317 244.708243 
L 77.772511 244.888552 
L 78.076935 244.986638 
L 78.290033 245.01376 
L 78.564015 245.060866 
L 79.385961 245.400952 
L 80.055695 245.589518 
L 80.268792 245.653636 
L 80.755871 245.724451 
L 81.090738 245.813809 
L 82.308436 246.078973 
L 82.673746 246.127685 
L 84.287196 246.378824 
L 84.682947 246.423653 
L 86.753034 246.64069 
L 88.640466 246.759807 
L 89.3102 246.808639 
L 91.745596 246.948063 
L 95.155151 247.102023 
L 98.595148 247.181073 
L 103.526825 247.297432 
L 106.053549 247.334693 
L 111.959385 247.409893 
L 121.061678 247.495212 
L 127.241496 247.536375 
L 142.919358 247.613748 
L 165.751198 247.695443 
L 291.204543 247.816908 
L 373.581818 247.846085 
L 373.581818 247.846085 
" style="fill:none;stroke:#ff7f0e;stroke-linecap:square;stroke-width:1.5;"/>
   </g>
   <g id="line2d_16">
    <path clip-path="url(#pd11701cb32)" d="M 69.218182 246.335416 
L 69.225475 -1 
M 69.820957 -1 
L 69.918358 52.524275 
L 69.933329 -1 
M 70.036961 -1 
L 70.040128 1.085732 
L 70.040891 -1 
M 70.217437 -1 
L 70.496765 84.780249 
L 70.55765 85.9192 
L 70.618535 23.223123 
L 70.67942 42.163868 
L 70.770747 61.129652 
L 70.801189 36.934806 
L 70.892517 46.494772 
L 70.953402 58.914399 
L 71.105614 13.181211 
L 71.166499 27.107744 
L 71.196941 9.594809 
L 71.623136 80.962216 
L 71.68402 64.456893 
L 71.744905 72.1127 
L 71.92756 95.276299 
L 71.958003 86.756696 
L 72.018887 92.235008 
L 72.110215 99.197065 
L 72.140657 90.98894 
L 72.201542 96.674206 
L 72.231985 96.432875 
L 72.353754 106.094371 
L 72.384197 98.932587 
L 72.475524 99.237744 
L 72.536409 95.522546 
L 72.597294 103.150219 
L 72.749506 92.767476 
L 73.084373 116.699511 
L 73.114816 115.848371 
L 73.145258 117.315026 
L 73.175701 116.003619 
L 73.236585 120.010264 
L 73.267028 119.069911 
L 73.29747 87.86159 
L 73.388798 97.487039 
L 73.449683 89.083677 
L 73.510568 94.353375 
L 73.54101 93.97563 
L 73.754107 110.32602 
L 73.78455 106.791876 
L 73.845435 111.610604 
L 73.875877 113.46122 
L 73.906319 110.122757 
L 73.936762 106.895135 
L 73.997647 110.294225 
L 74.606496 136.392641 
L 74.636938 134.289954 
L 74.697823 136.717553 
L 74.880478 141.063207 
L 74.91092 138.777518 
L 74.971805 140.726035 
L 75.15446 144.013228 
L 75.215345 140.806577 
L 75.27623 142.780491 
L 75.611097 150.249787 
L 75.641539 149.321726 
L 75.671982 150.462221 
L 75.732867 151.714177 
L 75.793751 148.457003 
L 75.854636 150.127828 
L 75.885079 150.52582 
L 75.915521 149.64242 
L 75.976406 146.348775 
L 76.067734 146.697739 
L 76.250388 152.452555 
L 76.615698 159.522654 
L 76.64614 158.169731 
L 76.707025 159.361175 
L 76.981007 166.999461 
L 77.041892 166.915822 
L 77.072334 165.722683 
L 77.133219 166.904637 
L 77.163662 166.921806 
L 77.194104 165.753867 
L 77.254989 166.929288 
L 77.285432 165.784427 
L 77.468086 167.831369 
L 77.346317 165.178642 
L 77.498529 167.633552 
L 77.681184 169.751827 
L 77.772511 168.412321 
L 77.802953 168.873928 
L 77.863838 168.664501 
L 77.985608 171.049925 
L 78.168263 167.58162 
L 78.25959 169.691787 
L 78.290033 169.082136 
L 78.38136 167.960374 
L 78.411802 168.590696 
L 78.442245 168.993236 
L 78.472687 168.139333 
L 78.50313 167.549283 
L 78.564015 168.032468 
L 78.6249 169.197514 
L 78.685784 168.925956 
L 78.716227 168.116559 
L 78.777112 169.205561 
L 79.172864 175.278173 
L 79.203306 174.98846 
L 79.233749 174.294439 
L 79.264191 174.918974 
L 79.507731 179.10587 
L 79.538173 179.007508 
L 79.568616 178.648698 
L 79.599058 179.219415 
L 79.6295 179.654736 
L 79.659943 179.520537 
L 79.690385 178.87502 
L 79.720828 179.451663 
L 79.87304 181.444797 
L 79.903483 180.827077 
L 79.99481 181.807673 
L 80.055695 181.424603 
L 80.086137 180.859428 
L 80.147022 181.627456 
L 80.238349 182.532828 
L 80.329677 183.697842 
L 80.360119 183.191051 
L 80.451447 182.472188 
L 80.481889 182.870596 
L 80.573216 184.17218 
L 80.634101 183.733624 
L 80.725429 183.158111 
L 80.786314 183.248964 
L 81.182066 187.487092 
L 81.212508 186.993054 
L 81.273393 187.717212 
L 81.303835 187.230763 
L 81.36472 186.975873 
L 82.308436 194.360496 
L 82.369321 193.54058 
L 82.430206 194.097353 
L 82.491091 194.078052 
L 82.582418 194.552517 
L 82.704188 195.453966 
L 82.97817 197.288631 
L 83.069498 196.749975 
L 83.09994 197.010358 
L 83.191267 197.735266 
L 83.34348 198.995229 
L 83.404365 198.812246 
L 83.647904 199.921109 
L 84.926487 205.204541 
L 84.95693 204.994124 
L 84.987372 205.138796 
L 85.261354 206.461458 
L 85.596221 207.930888 
L 85.778876 208.275658 
L 85.809318 208.077183 
L 85.870203 208.340206 
L 85.96153 208.884666 
L 86.052858 208.819182 
L 86.996574 211.359263 
L 87.087901 211.136854 
L 87.118344 211.188278 
L 87.270556 211.885903 
L 87.300998 211.675287 
L 87.605423 212.558113 
L 87.635865 212.412657 
L 87.666308 212.573931 
L 87.727193 212.919571 
L 87.788078 212.640757 
L 87.909847 213.043391 
L 87.94029 212.843051 
L 88.153387 213.275369 
L 88.275157 212.76344 
L 88.305599 212.89584 
L 88.518696 213.81332 
L 88.640466 213.664361 
L 88.670909 213.477943 
L 88.731794 213.778319 
L 88.823121 214.102804 
L 88.884006 214.019418 
L 89.340643 215.328279 
L 89.462412 215.615049 
L 89.492855 215.453558 
L 89.55374 215.611547 
L 90.101704 216.973038 
L 90.132146 216.813742 
L 90.193031 216.972544 
L 90.527898 217.529271 
L 90.558341 217.510517 
L 90.588783 217.620345 
L 90.832323 218.185327 
L 90.893208 218.121757 
L 91.04542 217.8566 
L 92.110906 220.434789 
L 92.811082 221.442575 
L 92.841525 221.321568 
L 92.871967 221.254085 
L 92.932852 221.356864 
L 93.115507 221.562877 
L 93.145949 221.439426 
L 93.206834 221.559696 
L 93.267719 221.48886 
L 93.511259 221.954221 
L 93.633028 221.684215 
L 93.663471 221.718443 
L 94.15055 222.634522 
L 94.211435 222.691488 
L 94.698514 223.759802 
L 94.911611 224.015563 
L 95.216036 224.274776 
L 95.246478 223.439992 
L 95.337806 223.616762 
L 95.52046 223.972221 
L 95.550903 223.869506 
L 95.611788 223.984216 
L 96.464176 225.338146 
L 96.494619 225.289376 
L 96.585946 225.192542 
L 96.616389 225.242826 
L 96.859928 225.48363 
L 97.468777 226.353689 
L 97.529662 226.29701 
L 97.590547 226.156513 
L 97.651432 226.220317 
L 97.834087 226.365796 
L 97.925414 226.513935 
L 97.955857 226.368119 
L 98.382051 226.884715 
L 98.412493 226.746386 
L 98.503821 226.840061 
L 98.899573 227.31225 
L 99.417094 227.994289 
L 99.569307 228.061291 
L 99.599749 227.984371 
L 99.660634 228.090498 
L 99.904174 228.383139 
L 99.995501 228.244855 
L 100.025943 228.278267 
L 100.239041 228.597271 
L 100.299925 228.563572 
L 100.330368 228.603801 
L 100.391253 228.507425 
L 100.513023 228.621111 
L 100.543465 228.54896 
L 100.634792 228.464073 
L 100.665235 228.490117 
L 100.756562 228.500696 
L 100.787005 228.459547 
L 101.091429 228.552042 
L 101.365411 228.913831 
L 101.426296 228.838265 
L 101.456739 228.887095 
L 101.97426 229.25965 
L 103.344171 230.342025 
L 103.374613 230.1958 
L 103.435498 230.278651 
L 103.526825 230.401745 
L 103.557268 230.352854 
L 103.618153 230.23484 
L 103.679038 230.287004 
L 104.227002 230.797164 
L 104.257444 230.840344 
L 104.287887 230.782207 
L 104.318329 230.724099 
L 104.379214 230.771011 
L 104.653196 230.989691 
L 105.292488 231.3716 
L 105.414257 231.192371 
L 105.475142 231.269227 
L 105.718682 231.401518 
L 105.962222 231.516436 
L 105.992664 231.463831 
L 106.114434 231.454908 
L 106.662398 231.777403 
L 106.784168 231.749579 
L 106.81461 231.772956 
L 106.845053 231.723375 
L 106.997265 231.636929 
L 107.636556 232.03948 
L 108.062751 232.168534 
L 108.214963 232.127169 
L 108.702042 232.293437 
L 108.762927 232.27152 
L 108.79337 232.307548 
L 109.706643 232.893959 
L 109.797971 232.886573 
L 109.828413 232.909751 
L 110.315492 233.171851 
L 110.40682 233.121036 
L 110.437262 233.15018 
L 110.619917 233.15776 
L 110.802571 233.224191 
L 111.320093 233.476582 
L 111.472305 233.424864 
L 111.624518 233.424885 
L 111.746287 233.41558 
L 112.355136 233.688445 
L 112.476906 233.741153 
L 112.781331 233.934095 
L 112.811773 233.896938 
L 112.963986 233.865114 
L 113.51195 234.078578 
L 113.633719 234.08269 
L 114.029471 234.169355 
L 114.181684 234.204575 
L 114.333896 234.193192 
L 114.455666 234.191101 
L 114.607878 234.206743 
L 115.064515 234.397947 
L 115.186285 234.413414 
L 116.25177 234.697738 
L 116.403983 234.702085 
L 116.73885 234.853219 
L 117.317256 234.973914 
L 117.652123 234.996598 
L 118.260972 235.279279 
L 118.656724 235.417773 
L 118.808936 235.393485 
L 119.052476 235.405487 
L 119.174246 235.420049 
L 119.47867 235.519265 
L 121.183448 235.683702 
L 121.487872 235.780513 
L 121.670527 235.798714 
L 121.974951 235.911139 
L 122.127164 235.918134 
L 122.553358 236.002483 
L 122.736013 235.987422 
L 123.131765 236.107081 
L 123.923268 236.252092 
L 124.258135 236.359182 
L 124.410348 236.369395 
L 124.775657 236.469409 
L 125.019197 236.498054 
L 125.688931 236.617912 
L 125.871585 236.617326 
L 126.236895 236.628413 
L 126.419549 236.603927 
L 126.693531 236.620593 
L 126.967514 236.638983 
L 128.824503 236.831074 
L 129.007158 236.829521 
L 129.372467 236.917078 
L 131.564324 237.387618 
L 132.020961 237.483929 
L 132.234058 237.487759 
L 132.873349 237.585648 
L 133.086446 237.57944 
L 133.451756 237.643217 
L 133.603968 237.601238 
L 135.521843 238.055416 
L 135.826267 238.074314 
L 136.709098 238.148349 
L 139.905556 238.627086 
L 140.57529 238.708068 
L 140.849272 238.690783 
L 141.275466 238.745419 
L 141.397236 238.679238 
L 142.249624 238.793497 
L 142.645376 238.804436 
L 143.31511 238.908728 
L 143.984844 239.04184 
L 144.197941 239.074127 
L 144.685021 239.0683 
L 145.080773 239.159024 
L 146.724665 239.39149 
L 147.059532 239.445624 
L 147.546611 239.50996 
L 148.52077 239.610421 
L 148.886079 239.628962 
L 149.586255 239.703365 
L 149.921122 239.699989 
L 150.956166 239.834128 
L 151.199705 239.856243 
L 151.899882 239.949258 
L 153.543774 240.164996 
L 154.396163 240.230714 
L 154.791915 240.244651 
L 159.601822 240.771967 
L 160.606423 240.895133 
L 163.224474 241.157476 
L 163.528899 241.194869 
L 170.74376 241.749412 
L 171.657033 241.803614 
L 177.989063 242.145825 
L 180.485344 242.293144 
L 203.225856 243.170444 
L 204.01736 243.181983 
L 206.970278 243.278808 
L 207.640012 243.312482 
L 215.06797 243.639484 
L 216.011686 243.652395 
L 227.884242 243.946444 
L 228.736631 243.983853 
L 230.319638 244.016315 
L 233.272556 244.101669 
L 240.548302 244.21411 
L 240.670072 243.960531 
L 241.796443 243.984866 
L 245.814847 244.074441 
L 247.306527 244.104405 
L 248.767764 244.072957 
L 249.985463 244.106717 
L 319.698678 245.240767 
L 322.438499 245.256106 
L 334.554595 245.394006 
L 337.903264 245.401594 
L 344.631046 245.466493 
L 347.797061 245.506925 
L 373.581818 245.6788 
L 373.581818 245.6788 
" style="fill:none;stroke:#2ca02c;stroke-linecap:square;stroke-width:1.5;"/>
   </g>
   <g id="patch_3">
    <path d="M 54 255.0384 
L 54 34.3872 
" style="fill:none;stroke:#000000;stroke-linecap:square;stroke-linejoin:miter;stroke-width:0.8;"/>
   </g>
   <g id="patch_4">
    <path d="M 388.8 255.0384 
L 388.8 34.3872 
" style="fill:none;stroke:#000000;stroke-linecap:square;stroke-linejoin:miter;stroke-width:0.8;"/>
   </g>
   <g id="patch_5">
    <path d="M 54 255.0384 
L 388.8 255.0384 
" style="fill:none;stroke:#000000;stroke-linecap:square;stroke-linejoin:miter;stroke-width:0.8;"/>
   </g>
   <g id="patch_6">
    <path d="M 54 34.3872 
L 388.8 34.3872 
" style="fill:none;stroke:#000000;stroke-linecap:square;stroke-linejoin:miter;stroke-width:0.8;"/>
   </g>
   <g id="legend_1">
    <g id="patch_7">
     <path d="M 189.9 89.5872 
L 381.8 89.5872 
Q 383.8 89.5872 383.8 87.5872 
L 383.8 41.3872 
Q 383.8 39.3872 381.8 39.3872 
L 189.9 39.3872 
Q 187.9 39.3872 187.9 41.3872 
L 187.9 87.5872 
Q 187.9 89.5872 189.9 89.5872 
z
" style="fill:#ffffff;opacity:0.8;stroke:#cccccc;stroke-linejoin:miter;"/>
    </g>
    <g id="line2d_17">
     <path d="M 191.9 48.307513 
L 211.9 48.307513 
" style="fill:none;stroke:#1f77b4;stroke-linecap:square;stroke-width:1.5;"/>
    </g>
    <g id="line2d_18"/>
    <g id="text_14">
     <!-- estimation for $SE^2[f(x)]$ -->
     <defs>
      <path d="M 56.203125 29.59375 
L 56.203125 25.203125 
L 14.890625 25.203125 
Q 15.484375 15.921875 20.484375 11.0625 
Q 25.484375 6.203125 34.421875 6.203125 
Q 39.59375 6.203125 44.453125 7.46875 
Q 49.3125 8.734375 54.109375 11.28125 
L 54.109375 2.78125 
Q 49.265625 0.734375 44.1875 -0.34375 
Q 39.109375 -1.421875 33.890625 -1.421875 
Q 20.796875 -1.421875 13.15625 6.1875 
Q 5.515625 13.8125 5.515625 26.8125 
Q 5.515625 40.234375 12.765625 48.109375 
Q 20.015625 56 32.328125 56 
Q 43.359375 56 49.78125 48.890625 
Q 56.203125 41.796875 56.203125 29.59375 
z
M 47.21875 32.234375 
Q 47.125 39.59375 43.09375 43.984375 
Q 39.0625 48.390625 32.421875 48.390625 
Q 24.90625 48.390625 20.390625 44.140625 
Q 15.875 39.890625 15.1875 32.171875 
z
" id="DejaVuSans-101"/>
      <path d="M 44.28125 53.078125 
L 44.28125 44.578125 
Q 40.484375 46.53125 36.375 47.5 
Q 32.28125 48.484375 27.875 48.484375 
Q 21.1875 48.484375 17.84375 46.4375 
Q 14.5 44.390625 14.5 40.28125 
Q 14.5 37.15625 16.890625 35.375 
Q 19.28125 33.59375 26.515625 31.984375 
L 29.59375 31.296875 
Q 39.15625 29.25 43.1875 25.515625 
Q 47.21875 21.78125 47.21875 15.09375 
Q 47.21875 7.46875 41.1875 3.015625 
Q 35.15625 -1.421875 24.609375 -1.421875 
Q 20.21875 -1.421875 15.453125 -0.5625 
Q 10.6875 0.296875 5.421875 2 
L 5.421875 11.28125 
Q 10.40625 8.6875 15.234375 7.390625 
Q 20.0625 6.109375 24.8125 6.109375 
Q 31.15625 6.109375 34.5625 8.28125 
Q 37.984375 10.453125 37.984375 14.40625 
Q 37.984375 18.0625 35.515625 20.015625 
Q 33.0625 21.96875 24.703125 23.78125 
L 21.578125 24.515625 
Q 13.234375 26.265625 9.515625 29.90625 
Q 5.8125 33.546875 5.8125 39.890625 
Q 5.8125 47.609375 11.28125 51.796875 
Q 16.75 56 26.8125 56 
Q 31.78125 56 36.171875 55.265625 
Q 40.578125 54.546875 44.28125 53.078125 
z
" id="DejaVuSans-115"/>
      <path d="M 18.3125 70.21875 
L 18.3125 54.6875 
L 36.8125 54.6875 
L 36.8125 47.703125 
L 18.3125 47.703125 
L 18.3125 18.015625 
Q 18.3125 11.328125 20.140625 9.421875 
Q 21.96875 7.515625 27.59375 7.515625 
L 36.8125 7.515625 
L 36.8125 0 
L 27.59375 0 
Q 17.1875 0 13.234375 3.875 
Q 9.28125 7.765625 9.28125 18.015625 
L 9.28125 47.703125 
L 2.6875 47.703125 
L 2.6875 54.6875 
L 9.28125 54.6875 
L 9.28125 70.21875 
z
" id="DejaVuSans-116"/>
      <path d="M 9.421875 54.6875 
L 18.40625 54.6875 
L 18.40625 0 
L 9.421875 0 
z
M 9.421875 75.984375 
L 18.40625 75.984375 
L 18.40625 64.59375 
L 9.421875 64.59375 
z
" id="DejaVuSans-105"/>
      <path d="M 52 44.1875 
Q 55.375 50.25 60.0625 53.125 
Q 64.75 56 71.09375 56 
Q 79.640625 56 84.28125 50.015625 
Q 88.921875 44.046875 88.921875 33.015625 
L 88.921875 0 
L 79.890625 0 
L 79.890625 32.71875 
Q 79.890625 40.578125 77.09375 44.375 
Q 74.3125 48.1875 68.609375 48.1875 
Q 61.625 48.1875 57.5625 43.546875 
Q 53.515625 38.921875 53.515625 30.90625 
L 53.515625 0 
L 44.484375 0 
L 44.484375 32.71875 
Q 44.484375 40.625 41.703125 44.40625 
Q 38.921875 48.1875 33.109375 48.1875 
Q 26.21875 48.1875 22.15625 43.53125 
Q 18.109375 38.875 18.109375 30.90625 
L 18.109375 0 
L 9.078125 0 
L 9.078125 54.6875 
L 18.109375 54.6875 
L 18.109375 46.1875 
Q 21.1875 51.21875 25.484375 53.609375 
Q 29.78125 56 35.6875 56 
Q 41.65625 56 45.828125 52.96875 
Q 50 49.953125 52 44.1875 
z
" id="DejaVuSans-109"/>
      <path d="M 34.28125 27.484375 
Q 23.390625 27.484375 19.1875 25 
Q 14.984375 22.515625 14.984375 16.5 
Q 14.984375 11.71875 18.140625 8.90625 
Q 21.296875 6.109375 26.703125 6.109375 
Q 34.1875 6.109375 38.703125 11.40625 
Q 43.21875 16.703125 43.21875 25.484375 
L 43.21875 27.484375 
z
M 52.203125 31.203125 
L 52.203125 0 
L 43.21875 0 
L 43.21875 8.296875 
Q 40.140625 3.328125 35.546875 0.953125 
Q 30.953125 -1.421875 24.3125 -1.421875 
Q 15.921875 -1.421875 10.953125 3.296875 
Q 6 8.015625 6 15.921875 
Q 6 25.140625 12.171875 29.828125 
Q 18.359375 34.515625 30.609375 34.515625 
L 43.21875 34.515625 
L 43.21875 35.40625 
Q 43.21875 41.609375 39.140625 45 
Q 35.0625 48.390625 27.6875 48.390625 
Q 23 48.390625 18.546875 47.265625 
Q 14.109375 46.140625 10.015625 43.890625 
L 10.015625 52.203125 
Q 14.9375 54.109375 19.578125 55.046875 
Q 24.21875 56 28.609375 56 
Q 40.484375 56 46.34375 49.84375 
Q 52.203125 43.703125 52.203125 31.203125 
z
" id="DejaVuSans-97"/>
      <path d="M 30.609375 48.390625 
Q 23.390625 48.390625 19.1875 42.75 
Q 14.984375 37.109375 14.984375 27.296875 
Q 14.984375 17.484375 19.15625 11.84375 
Q 23.34375 6.203125 30.609375 6.203125 
Q 37.796875 6.203125 41.984375 11.859375 
Q 46.1875 17.53125 46.1875 27.296875 
Q 46.1875 37.015625 41.984375 42.703125 
Q 37.796875 48.390625 30.609375 48.390625 
z
M 30.609375 56 
Q 42.328125 56 49.015625 48.375 
Q 55.71875 40.765625 55.71875 27.296875 
Q 55.71875 13.875 49.015625 6.21875 
Q 42.328125 -1.421875 30.609375 -1.421875 
Q 18.84375 -1.421875 12.171875 6.21875 
Q 5.515625 13.875 5.515625 27.296875 
Q 5.515625 40.765625 12.171875 48.375 
Q 18.84375 56 30.609375 56 
z
" id="DejaVuSans-111"/>
      <path d="M 54.890625 33.015625 
L 54.890625 0 
L 45.90625 0 
L 45.90625 32.71875 
Q 45.90625 40.484375 42.875 44.328125 
Q 39.84375 48.1875 33.796875 48.1875 
Q 26.515625 48.1875 22.3125 43.546875 
Q 18.109375 38.921875 18.109375 30.90625 
L 18.109375 0 
L 9.078125 0 
L 9.078125 54.6875 
L 18.109375 54.6875 
L 18.109375 46.1875 
Q 21.34375 51.125 25.703125 53.5625 
Q 30.078125 56 35.796875 56 
Q 45.21875 56 50.046875 50.171875 
Q 54.890625 44.34375 54.890625 33.015625 
z
" id="DejaVuSans-110"/>
      <path id="DejaVuSans-32"/>
      <path d="M 37.109375 75.984375 
L 37.109375 68.5 
L 28.515625 68.5 
Q 23.6875 68.5 21.796875 66.546875 
Q 19.921875 64.59375 19.921875 59.515625 
L 19.921875 54.6875 
L 34.71875 54.6875 
L 34.71875 47.703125 
L 19.921875 47.703125 
L 19.921875 0 
L 10.890625 0 
L 10.890625 47.703125 
L 2.296875 47.703125 
L 2.296875 54.6875 
L 10.890625 54.6875 
L 10.890625 58.5 
Q 10.890625 67.625 15.140625 71.796875 
Q 19.390625 75.984375 28.609375 75.984375 
z
" id="DejaVuSans-102"/>
      <path d="M 41.109375 46.296875 
Q 39.59375 47.171875 37.8125 47.578125 
Q 36.03125 48 33.890625 48 
Q 26.265625 48 22.1875 43.046875 
Q 18.109375 38.09375 18.109375 28.8125 
L 18.109375 0 
L 9.078125 0 
L 9.078125 54.6875 
L 18.109375 54.6875 
L 18.109375 46.1875 
Q 20.953125 51.171875 25.484375 53.578125 
Q 30.03125 56 36.53125 56 
Q 37.453125 56 38.578125 55.875 
Q 39.703125 55.765625 41.0625 55.515625 
z
" id="DejaVuSans-114"/>
      <path d="M 60.296875 70.515625 
L 58.40625 60.890625 
Q 53.46875 63.53125 48.609375 64.875 
Q 43.75 66.21875 39.203125 66.21875 
Q 30.375 66.21875 25.140625 62.359375 
Q 19.921875 58.5 19.921875 52.09375 
Q 19.921875 48.578125 21.84375 46.703125 
Q 23.78125 44.828125 31.78125 42.671875 
L 37.703125 41.21875 
Q 47.703125 38.625 51.609375 34.640625 
Q 55.515625 30.671875 55.515625 23.484375 
Q 55.515625 12.453125 46.84375 5.515625 
Q 38.1875 -1.421875 24.03125 -1.421875 
Q 18.21875 -1.421875 12.359375 -0.265625 
Q 6.5 0.875 0.59375 3.21875 
L 2.59375 13.375 
Q 8.015625 10.015625 13.453125 8.296875 
Q 18.890625 6.59375 24.3125 6.59375 
Q 33.546875 6.59375 39.109375 10.6875 
Q 44.671875 14.796875 44.671875 21.390625 
Q 44.671875 25.78125 42.453125 28.046875 
Q 40.234375 30.328125 32.90625 32.171875 
L 27 33.6875 
Q 16.890625 36.328125 13.203125 39.765625 
Q 9.515625 43.21875 9.515625 49.421875 
Q 9.515625 60.296875 17.890625 67.25 
Q 26.265625 74.21875 39.703125 74.21875 
Q 44.921875 74.21875 50.046875 73.28125 
Q 55.171875 72.359375 60.296875 70.515625 
z
" id="DejaVuSans-Oblique-83"/>
      <path d="M 16.890625 72.90625 
L 62.984375 72.90625 
L 61.375 64.59375 
L 25.09375 64.59375 
L 20.90625 43.015625 
L 55.71875 43.015625 
L 54.109375 34.71875 
L 19.28125 34.71875 
L 14.203125 8.296875 
L 51.3125 8.296875 
L 49.703125 0 
L 2.6875 0 
z
" id="DejaVuSans-Oblique-69"/>
      <path d="M 8.59375 75.984375 
L 29.296875 75.984375 
L 29.296875 69 
L 17.578125 69 
L 17.578125 -6.203125 
L 29.296875 -6.203125 
L 29.296875 -13.1875 
L 8.59375 -13.1875 
z
" id="DejaVuSans-91"/>
      <path d="M 47.796875 75.984375 
L 46.390625 68.5 
L 37.796875 68.5 
Q 32.90625 68.5 30.6875 66.578125 
Q 28.46875 64.65625 27.390625 59.515625 
L 26.421875 54.6875 
L 41.21875 54.6875 
L 39.890625 47.703125 
L 25.09375 47.703125 
L 15.828125 0 
L 6.78125 0 
L 16.109375 47.703125 
L 7.515625 47.703125 
L 8.796875 54.6875 
L 17.390625 54.6875 
L 18.109375 58.5 
Q 19.96875 68.171875 24.625 72.078125 
Q 29.296875 75.984375 39.3125 75.984375 
z
" id="DejaVuSans-Oblique-102"/>
      <path d="M 31 75.875 
Q 24.46875 64.65625 21.28125 53.65625 
Q 18.109375 42.671875 18.109375 31.390625 
Q 18.109375 20.125 21.3125 9.0625 
Q 24.515625 -2 31 -13.1875 
L 23.1875 -13.1875 
Q 15.875 -1.703125 12.234375 9.375 
Q 8.59375 20.453125 8.59375 31.390625 
Q 8.59375 42.28125 12.203125 53.3125 
Q 15.828125 64.359375 23.1875 75.875 
z
" id="DejaVuSans-40"/>
      <path d="M 60.015625 54.6875 
L 34.90625 27.875 
L 50.296875 0 
L 39.984375 0 
L 28.421875 21.6875 
L 8.296875 0 
L -2.59375 0 
L 24.3125 28.8125 
L 10.015625 54.6875 
L 20.3125 54.6875 
L 30.8125 34.90625 
L 49.125 54.6875 
z
" id="DejaVuSans-Oblique-120"/>
      <path d="M 8.015625 75.875 
L 15.828125 75.875 
Q 23.140625 64.359375 26.78125 53.3125 
Q 30.421875 42.28125 30.421875 31.390625 
Q 30.421875 20.453125 26.78125 9.375 
Q 23.140625 -1.703125 15.828125 -13.1875 
L 8.015625 -13.1875 
Q 14.5 -2 17.703125 9.0625 
Q 20.90625 20.125 20.90625 31.390625 
Q 20.90625 42.671875 17.703125 53.65625 
Q 14.5 64.65625 8.015625 75.875 
z
" id="DejaVuSans-41"/>
      <path d="M 30.421875 75.984375 
L 30.421875 -13.1875 
L 9.71875 -13.1875 
L 9.71875 -6.203125 
L 21.390625 -6.203125 
L 21.390625 69 
L 9.71875 69 
L 9.71875 75.984375 
z
" id="DejaVuSans-93"/>
     </defs>
     <g transform="translate(219.9 51.807513)scale(0.1 -0.1)">
      <use transform="translate(0 0.765625)" xlink:href="#DejaVuSans-101"/>
      <use transform="translate(61.523438 0.765625)" xlink:href="#DejaVuSans-115"/>
      <use transform="translate(113.623047 0.765625)" xlink:href="#DejaVuSans-116"/>
      <use transform="translate(152.832031 0.765625)" xlink:href="#DejaVuSans-105"/>
      <use transform="translate(180.615234 0.765625)" xlink:href="#DejaVuSans-109"/>
      <use transform="translate(278.027344 0.765625)" xlink:href="#DejaVuSans-97"/>
      <use transform="translate(339.306641 0.765625)" xlink:href="#DejaVuSans-116"/>
      <use transform="translate(378.515625 0.765625)" xlink:href="#DejaVuSans-105"/>
      <use transform="translate(406.298828 0.765625)" xlink:href="#DejaVuSans-111"/>
      <use transform="translate(467.480469 0.765625)" xlink:href="#DejaVuSans-110"/>
      <use transform="translate(530.859375 0.765625)" xlink:href="#DejaVuSans-32"/>
      <use transform="translate(562.646484 0.765625)" xlink:href="#DejaVuSans-102"/>
      <use transform="translate(597.851562 0.765625)" xlink:href="#DejaVuSans-111"/>
      <use transform="translate(659.033203 0.765625)" xlink:href="#DejaVuSans-114"/>
      <use transform="translate(700.146484 0.765625)" xlink:href="#DejaVuSans-32"/>
      <use transform="translate(731.933594 0.765625)" xlink:href="#DejaVuSans-Oblique-83"/>
      <use transform="translate(795.410156 0.765625)" xlink:href="#DejaVuSans-Oblique-69"/>
      <use transform="translate(865.610521 39.046875)scale(0.7)" xlink:href="#DejaVuSans-50"/>
      <use transform="translate(912.881029 0.765625)" xlink:href="#DejaVuSans-91"/>
      <use transform="translate(951.894701 0.765625)" xlink:href="#DejaVuSans-Oblique-102"/>
      <use transform="translate(987.099779 0.765625)" xlink:href="#DejaVuSans-40"/>
      <use transform="translate(1026.113451 0.765625)" xlink:href="#DejaVuSans-Oblique-120"/>
      <use transform="translate(1085.293138 0.765625)" xlink:href="#DejaVuSans-41"/>
      <use transform="translate(1124.30681 0.765625)" xlink:href="#DejaVuSans-93"/>
     </g>
    </g>
    <g id="line2d_19">
     <path d="M 191.9 64.4872 
L 211.9 64.4872 
" style="fill:none;stroke:#ff7f0e;stroke-linecap:square;stroke-width:1.5;"/>
    </g>
    <g id="line2d_20"/>
    <g id="text_15">
     <!-- estimation for $SE^2[f(x)q(x)/p(x)]$ -->
     <defs>
      <path d="M 41.703125 8.203125 
Q 38.09375 3.46875 33.171875 1.015625 
Q 28.265625 -1.421875 22.3125 -1.421875 
Q 14.015625 -1.421875 9.296875 4.171875 
Q 4.59375 9.765625 4.59375 19.578125 
Q 4.59375 27.484375 7.5 34.859375 
Q 10.40625 42.234375 15.828125 48.09375 
Q 19.34375 51.90625 23.90625 53.953125 
Q 28.46875 56 33.5 56 
Q 39.546875 56 43.453125 53.609375 
Q 47.359375 51.21875 49.125 46.390625 
L 50.6875 54.59375 
L 59.71875 54.59375 
L 45.125 -20.609375 
L 36.078125 -20.609375 
z
M 13.921875 20.90625 
Q 13.921875 13.671875 16.9375 9.890625 
Q 19.96875 6.109375 25.6875 6.109375 
Q 34.1875 6.109375 40.1875 14.234375 
Q 46.1875 22.359375 46.1875 33.984375 
Q 46.1875 41.015625 43.078125 44.75 
Q 39.984375 48.484375 34.1875 48.484375 
Q 29.9375 48.484375 26.3125 46.5 
Q 22.703125 44.53125 20.015625 40.71875 
Q 17.1875 36.71875 15.546875 31.34375 
Q 13.921875 25.984375 13.921875 20.90625 
z
" id="DejaVuSans-Oblique-113"/>
      <path d="M 25.390625 72.90625 
L 33.6875 72.90625 
L 8.296875 -9.28125 
L 0 -9.28125 
z
" id="DejaVuSans-47"/>
      <path d="M 49.609375 33.6875 
Q 49.609375 40.875 46.484375 44.671875 
Q 43.359375 48.484375 37.5 48.484375 
Q 33.5 48.484375 29.859375 46.4375 
Q 26.21875 44.390625 23.390625 40.484375 
Q 20.609375 36.625 18.9375 31.15625 
Q 17.28125 25.6875 17.28125 20.3125 
Q 17.28125 13.484375 20.40625 9.796875 
Q 23.53125 6.109375 29.296875 6.109375 
Q 33.546875 6.109375 37.1875 8.109375 
Q 40.828125 10.109375 43.40625 13.921875 
Q 46.1875 17.921875 47.890625 23.34375 
Q 49.609375 28.765625 49.609375 33.6875 
z
M 21.78125 46.390625 
Q 25.390625 51.125 30.296875 53.5625 
Q 35.203125 56 41.21875 56 
Q 49.609375 56 54.25 50.5 
Q 58.890625 45.015625 58.890625 35.109375 
Q 58.890625 27 56 19.65625 
Q 53.125 12.3125 47.703125 6.5 
Q 44.09375 2.640625 39.546875 0.609375 
Q 35.015625 -1.421875 29.984375 -1.421875 
Q 24.171875 -1.421875 20.21875 1 
Q 16.265625 3.421875 14.3125 8.203125 
L 8.6875 -20.796875 
L -0.296875 -20.796875 
L 14.40625 54.6875 
L 23.390625 54.6875 
z
" id="DejaVuSans-Oblique-112"/>
     </defs>
     <g transform="translate(219.9 67.9872)scale(0.1 -0.1)">
      <use transform="translate(0 0.765625)" xlink:href="#DejaVuSans-101"/>
      <use transform="translate(61.523438 0.765625)" xlink:href="#DejaVuSans-115"/>
      <use transform="translate(113.623047 0.765625)" xlink:href="#DejaVuSans-116"/>
      <use transform="translate(152.832031 0.765625)" xlink:href="#DejaVuSans-105"/>
      <use transform="translate(180.615234 0.765625)" xlink:href="#DejaVuSans-109"/>
      <use transform="translate(278.027344 0.765625)" xlink:href="#DejaVuSans-97"/>
      <use transform="translate(339.306641 0.765625)" xlink:href="#DejaVuSans-116"/>
      <use transform="translate(378.515625 0.765625)" xlink:href="#DejaVuSans-105"/>
      <use transform="translate(406.298828 0.765625)" xlink:href="#DejaVuSans-111"/>
      <use transform="translate(467.480469 0.765625)" xlink:href="#DejaVuSans-110"/>
      <use transform="translate(530.859375 0.765625)" xlink:href="#DejaVuSans-32"/>
      <use transform="translate(562.646484 0.765625)" xlink:href="#DejaVuSans-102"/>
      <use transform="translate(597.851562 0.765625)" xlink:href="#DejaVuSans-111"/>
      <use transform="translate(659.033203 0.765625)" xlink:href="#DejaVuSans-114"/>
      <use transform="translate(700.146484 0.765625)" xlink:href="#DejaVuSans-32"/>
      <use transform="translate(731.933594 0.765625)" xlink:href="#DejaVuSans-Oblique-83"/>
      <use transform="translate(795.410156 0.765625)" xlink:href="#DejaVuSans-Oblique-69"/>
      <use transform="translate(865.610521 39.046875)scale(0.7)" xlink:href="#DejaVuSans-50"/>
      <use transform="translate(912.881029 0.765625)" xlink:href="#DejaVuSans-91"/>
      <use transform="translate(951.894701 0.765625)" xlink:href="#DejaVuSans-Oblique-102"/>
      <use transform="translate(987.099779 0.765625)" xlink:href="#DejaVuSans-40"/>
      <use transform="translate(1026.113451 0.765625)" xlink:href="#DejaVuSans-Oblique-120"/>
      <use transform="translate(1085.293138 0.765625)" xlink:href="#DejaVuSans-41"/>
      <use transform="translate(1124.30681 0.765625)" xlink:href="#DejaVuSans-Oblique-113"/>
      <use transform="translate(1187.783372 0.765625)" xlink:href="#DejaVuSans-40"/>
      <use transform="translate(1226.797044 0.765625)" xlink:href="#DejaVuSans-Oblique-120"/>
      <use transform="translate(1285.976732 0.765625)" xlink:href="#DejaVuSans-41"/>
      <use transform="translate(1324.990404 0.765625)" xlink:href="#DejaVuSans-47"/>
      <use transform="translate(1358.68181 0.765625)" xlink:href="#DejaVuSans-Oblique-112"/>
      <use transform="translate(1422.158372 0.765625)" xlink:href="#DejaVuSans-40"/>
      <use transform="translate(1461.172044 0.765625)" xlink:href="#DejaVuSans-Oblique-120"/>
      <use transform="translate(1520.351732 0.765625)" xlink:href="#DejaVuSans-41"/>
      <use transform="translate(1559.365404 0.765625)" xlink:href="#DejaVuSans-93"/>
     </g>
    </g>
    <g id="line2d_21">
     <path d="M 191.9 80.007513 
L 211.9 80.007513 
" style="fill:none;stroke:#2ca02c;stroke-linecap:square;stroke-width:1.5;"/>
    </g>
    <g id="line2d_22"/>
    <g id="text_16">
     <!-- estimation for $SE^2$ (biased) -->
     <defs>
      <path d="M 48.6875 27.296875 
Q 48.6875 37.203125 44.609375 42.84375 
Q 40.53125 48.484375 33.40625 48.484375 
Q 26.265625 48.484375 22.1875 42.84375 
Q 18.109375 37.203125 18.109375 27.296875 
Q 18.109375 17.390625 22.1875 11.75 
Q 26.265625 6.109375 33.40625 6.109375 
Q 40.53125 6.109375 44.609375 11.75 
Q 48.6875 17.390625 48.6875 27.296875 
z
M 18.109375 46.390625 
Q 20.953125 51.265625 25.265625 53.625 
Q 29.59375 56 35.59375 56 
Q 45.5625 56 51.78125 48.09375 
Q 58.015625 40.1875 58.015625 27.296875 
Q 58.015625 14.40625 51.78125 6.484375 
Q 45.5625 -1.421875 35.59375 -1.421875 
Q 29.59375 -1.421875 25.265625 0.953125 
Q 20.953125 3.328125 18.109375 8.203125 
L 18.109375 0 
L 9.078125 0 
L 9.078125 75.984375 
L 18.109375 75.984375 
z
" id="DejaVuSans-98"/>
      <path d="M 45.40625 46.390625 
L 45.40625 75.984375 
L 54.390625 75.984375 
L 54.390625 0 
L 45.40625 0 
L 45.40625 8.203125 
Q 42.578125 3.328125 38.25 0.953125 
Q 33.9375 -1.421875 27.875 -1.421875 
Q 17.96875 -1.421875 11.734375 6.484375 
Q 5.515625 14.40625 5.515625 27.296875 
Q 5.515625 40.1875 11.734375 48.09375 
Q 17.96875 56 27.875 56 
Q 33.9375 56 38.25 53.625 
Q 42.578125 51.265625 45.40625 46.390625 
z
M 14.796875 27.296875 
Q 14.796875 17.390625 18.875 11.75 
Q 22.953125 6.109375 30.078125 6.109375 
Q 37.203125 6.109375 41.296875 11.75 
Q 45.40625 17.390625 45.40625 27.296875 
Q 45.40625 37.203125 41.296875 42.84375 
Q 37.203125 48.484375 30.078125 48.484375 
Q 22.953125 48.484375 18.875 42.84375 
Q 14.796875 37.203125 14.796875 27.296875 
z
" id="DejaVuSans-100"/>
     </defs>
     <g transform="translate(219.9 83.507513)scale(0.1 -0.1)">
      <use transform="translate(0 0.765625)" xlink:href="#DejaVuSans-101"/>
      <use transform="translate(61.523438 0.765625)" xlink:href="#DejaVuSans-115"/>
      <use transform="translate(113.623047 0.765625)" xlink:href="#DejaVuSans-116"/>
      <use transform="translate(152.832031 0.765625)" xlink:href="#DejaVuSans-105"/>
      <use transform="translate(180.615234 0.765625)" xlink:href="#DejaVuSans-109"/>
      <use transform="translate(278.027344 0.765625)" xlink:href="#DejaVuSans-97"/>
      <use transform="translate(339.306641 0.765625)" xlink:href="#DejaVuSans-116"/>
      <use transform="translate(378.515625 0.765625)" xlink:href="#DejaVuSans-105"/>
      <use transform="translate(406.298828 0.765625)" xlink:href="#DejaVuSans-111"/>
      <use transform="translate(467.480469 0.765625)" xlink:href="#DejaVuSans-110"/>
      <use transform="translate(530.859375 0.765625)" xlink:href="#DejaVuSans-32"/>
      <use transform="translate(562.646484 0.765625)" xlink:href="#DejaVuSans-102"/>
      <use transform="translate(597.851562 0.765625)" xlink:href="#DejaVuSans-111"/>
      <use transform="translate(659.033203 0.765625)" xlink:href="#DejaVuSans-114"/>
      <use transform="translate(700.146484 0.765625)" xlink:href="#DejaVuSans-32"/>
      <use transform="translate(731.933594 0.765625)" xlink:href="#DejaVuSans-Oblique-83"/>
      <use transform="translate(795.410156 0.765625)" xlink:href="#DejaVuSans-Oblique-69"/>
      <use transform="translate(865.610521 39.046875)scale(0.7)" xlink:href="#DejaVuSans-50"/>
      <use transform="translate(912.881029 0.765625)" xlink:href="#DejaVuSans-32"/>
      <use transform="translate(944.668138 0.765625)" xlink:href="#DejaVuSans-40"/>
      <use transform="translate(983.68181 0.765625)" xlink:href="#DejaVuSans-98"/>
      <use transform="translate(1047.158372 0.765625)" xlink:href="#DejaVuSans-105"/>
      <use transform="translate(1074.941576 0.765625)" xlink:href="#DejaVuSans-97"/>
      <use transform="translate(1136.220872 0.765625)" xlink:href="#DejaVuSans-115"/>
      <use transform="translate(1188.320482 0.765625)" xlink:href="#DejaVuSans-101"/>
      <use transform="translate(1249.843919 0.765625)" xlink:href="#DejaVuSans-100"/>
      <use transform="translate(1313.320482 0.765625)" xlink:href="#DejaVuSans-41"/>
     </g>
    </g>
   </g>
  </g>
 </g>
 <defs>
  <clipPath id="pd11701cb32">
   <rect height="220.6512" width="334.8" x="54" y="34.3872"/>
  </clipPath>
 </defs>
</svg>
