<?xml version="1.0" encoding="utf-8" standalone="no"?>
<!DOCTYPE svg PUBLIC "-//W3C//DTD SVG 1.1//EN"
  "http://www.w3.org/Graphics/SVG/1.1/DTD/svg11.dtd">
<!-- Created with matplotlib (https://matplotlib.org/) -->
<svg height="286.56pt" version="1.1" viewBox="0 0 432 286.56" width="432pt" xmlns="http://www.w3.org/2000/svg" xmlns:xlink="http://www.w3.org/1999/xlink">
 <defs>
  <style type="text/css">
*{stroke-linecap:butt;stroke-linejoin:round;}
  </style>
 </defs>
 <g id="figure_1">
  <g id="patch_1">
   <path d="M 0 286.56 
L 432 286.56 
L 432 0 
L 0 0 
z
" style="fill:#ffffff;"/>
  </g>
  <g id="axes_1">
   <g id="patch_2">
    <path d="M 54 255.0384 
L 388.8 255.0384 
L 388.8 34.3872 
L 54 34.3872 
z
" style="fill:#ffffff;"/>
   </g>
   <g id="matplotlib.axis_1">
    <g id="xtick_1">
     <g id="line2d_1">
      <defs>
       <path d="M 0 0 
L 0 3.5 
" id="m8866e80496" style="stroke:#000000;stroke-width:0.8;"/>
      </defs>
      <g>
       <use style="stroke:#000000;stroke-width:0.8;" x="69.218182" xlink:href="#m8866e80496" y="255.0384"/>
      </g>
     </g>
     <g id="text_1">
      <!-- 0 -->
      <defs>
       <path d="M 31.78125 66.40625 
Q 24.171875 66.40625 20.328125 58.90625 
Q 16.5 51.421875 16.5 36.375 
Q 16.5 21.390625 20.328125 13.890625 
Q 24.171875 6.390625 31.78125 6.390625 
Q 39.453125 6.390625 43.28125 13.890625 
Q 47.125 21.390625 47.125 36.375 
Q 47.125 51.421875 43.28125 58.90625 
Q 39.453125 66.40625 31.78125 66.40625 
z
M 31.78125 74.21875 
Q 44.046875 74.21875 50.515625 64.515625 
Q 56.984375 54.828125 56.984375 36.375 
Q 56.984375 17.96875 50.515625 8.265625 
Q 44.046875 -1.421875 31.78125 -1.421875 
Q 19.53125 -1.421875 13.0625 8.265625 
Q 6.59375 17.96875 6.59375 36.375 
Q 6.59375 54.828125 13.0625 64.515625 
Q 19.53125 74.21875 31.78125 74.21875 
z
" id="DejaVuSans-48"/>
      </defs>
      <g transform="translate(66.036932 269.636838)scale(0.1 -0.1)">
       <use xlink:href="#DejaVuSans-48"/>
      </g>
     </g>
    </g>
    <g id="xtick_2">
     <g id="line2d_2">
      <g>
       <use style="stroke:#000000;stroke-width:0.8;" x="130.103086" xlink:href="#m8866e80496" y="255.0384"/>
      </g>
     </g>
     <g id="text_2">
      <!-- 2000 -->
      <defs>
       <path d="M 19.1875 8.296875 
L 53.609375 8.296875 
L 53.609375 0 
L 7.328125 0 
L 7.328125 8.296875 
Q 12.9375 14.109375 22.625 23.890625 
Q 32.328125 33.6875 34.8125 36.53125 
Q 39.546875 41.84375 41.421875 45.53125 
Q 43.3125 49.21875 43.3125 52.78125 
Q 43.3125 58.59375 39.234375 62.25 
Q 35.15625 65.921875 28.609375 65.921875 
Q 23.96875 65.921875 18.8125 64.3125 
Q 13.671875 62.703125 7.8125 59.421875 
L 7.8125 69.390625 
Q 13.765625 71.78125 18.9375 73 
Q 24.125 74.21875 28.421875 74.21875 
Q 39.75 74.21875 46.484375 68.546875 
Q 53.21875 62.890625 53.21875 53.421875 
Q 53.21875 48.921875 51.53125 44.890625 
Q 49.859375 40.875 45.40625 35.40625 
Q 44.1875 33.984375 37.640625 27.21875 
Q 31.109375 20.453125 19.1875 8.296875 
z
" id="DejaVuSans-50"/>
      </defs>
      <g transform="translate(117.378086 269.636838)scale(0.1 -0.1)">
       <use xlink:href="#DejaVuSans-50"/>
       <use x="63.623047" xlink:href="#DejaVuSans-48"/>
       <use x="127.246094" xlink:href="#DejaVuSans-48"/>
       <use x="190.869141" xlink:href="#DejaVuSans-48"/>
      </g>
     </g>
    </g>
    <g id="xtick_3">
     <g id="line2d_3">
      <g>
       <use style="stroke:#000000;stroke-width:0.8;" x="190.98799" xlink:href="#m8866e80496" y="255.0384"/>
      </g>
     </g>
     <g id="text_3">
      <!-- 4000 -->
      <defs>
       <path d="M 37.796875 64.3125 
L 12.890625 25.390625 
L 37.796875 25.390625 
z
M 35.203125 72.90625 
L 47.609375 72.90625 
L 47.609375 25.390625 
L 58.015625 25.390625 
L 58.015625 17.1875 
L 47.609375 17.1875 
L 47.609375 0 
L 37.796875 0 
L 37.796875 17.1875 
L 4.890625 17.1875 
L 4.890625 26.703125 
z
" id="DejaVuSans-52"/>
      </defs>
      <g transform="translate(178.26299 269.636838)scale(0.1 -0.1)">
       <use xlink:href="#DejaVuSans-52"/>
       <use x="63.623047" xlink:href="#DejaVuSans-48"/>
       <use x="127.246094" xlink:href="#DejaVuSans-48"/>
       <use x="190.869141" xlink:href="#DejaVuSans-48"/>
      </g>
     </g>
    </g>
    <g id="xtick_4">
     <g id="line2d_4">
      <g>
       <use style="stroke:#000000;stroke-width:0.8;" x="251.872895" xlink:href="#m8866e80496" y="255.0384"/>
      </g>
     </g>
     <g id="text_4">
      <!-- 6000 -->
      <defs>
       <path d="M 33.015625 40.375 
Q 26.375 40.375 22.484375 35.828125 
Q 18.609375 31.296875 18.609375 23.390625 
Q 18.609375 15.53125 22.484375 10.953125 
Q 26.375 6.390625 33.015625 6.390625 
Q 39.65625 6.390625 43.53125 10.953125 
Q 47.40625 15.53125 47.40625 23.390625 
Q 47.40625 31.296875 43.53125 35.828125 
Q 39.65625 40.375 33.015625 40.375 
z
M 52.59375 71.296875 
L 52.59375 62.3125 
Q 48.875 64.0625 45.09375 64.984375 
Q 41.3125 65.921875 37.59375 65.921875 
Q 27.828125 65.921875 22.671875 59.328125 
Q 17.53125 52.734375 16.796875 39.40625 
Q 19.671875 43.65625 24.015625 45.921875 
Q 28.375 48.1875 33.59375 48.1875 
Q 44.578125 48.1875 50.953125 41.515625 
Q 57.328125 34.859375 57.328125 23.390625 
Q 57.328125 12.15625 50.6875 5.359375 
Q 44.046875 -1.421875 33.015625 -1.421875 
Q 20.359375 -1.421875 13.671875 8.265625 
Q 6.984375 17.96875 6.984375 36.375 
Q 6.984375 53.65625 15.1875 63.9375 
Q 23.390625 74.21875 37.203125 74.21875 
Q 40.921875 74.21875 44.703125 73.484375 
Q 48.484375 72.75 52.59375 71.296875 
z
" id="DejaVuSans-54"/>
      </defs>
      <g transform="translate(239.147895 269.636838)scale(0.1 -0.1)">
       <use xlink:href="#DejaVuSans-54"/>
       <use x="63.623047" xlink:href="#DejaVuSans-48"/>
       <use x="127.246094" xlink:href="#DejaVuSans-48"/>
       <use x="190.869141" xlink:href="#DejaVuSans-48"/>
      </g>
     </g>
    </g>
    <g id="xtick_5">
     <g id="line2d_5">
      <g>
       <use style="stroke:#000000;stroke-width:0.8;" x="312.757799" xlink:href="#m8866e80496" y="255.0384"/>
      </g>
     </g>
     <g id="text_5">
      <!-- 8000 -->
      <defs>
       <path d="M 31.78125 34.625 
Q 24.75 34.625 20.71875 30.859375 
Q 16.703125 27.09375 16.703125 20.515625 
Q 16.703125 13.921875 20.71875 10.15625 
Q 24.75 6.390625 31.78125 6.390625 
Q 38.8125 6.390625 42.859375 10.171875 
Q 46.921875 13.96875 46.921875 20.515625 
Q 46.921875 27.09375 42.890625 30.859375 
Q 38.875 34.625 31.78125 34.625 
z
M 21.921875 38.8125 
Q 15.578125 40.375 12.03125 44.71875 
Q 8.5 49.078125 8.5 55.328125 
Q 8.5 64.0625 14.71875 69.140625 
Q 20.953125 74.21875 31.78125 74.21875 
Q 42.671875 74.21875 48.875 69.140625 
Q 55.078125 64.0625 55.078125 55.328125 
Q 55.078125 49.078125 51.53125 44.71875 
Q 48 40.375 41.703125 38.8125 
Q 48.828125 37.15625 52.796875 32.3125 
Q 56.78125 27.484375 56.78125 20.515625 
Q 56.78125 9.90625 50.3125 4.234375 
Q 43.84375 -1.421875 31.78125 -1.421875 
Q 19.734375 -1.421875 13.25 4.234375 
Q 6.78125 9.90625 6.78125 20.515625 
Q 6.78125 27.484375 10.78125 32.3125 
Q 14.796875 37.15625 21.921875 38.8125 
z
M 18.3125 54.390625 
Q 18.3125 48.734375 21.84375 45.5625 
Q 25.390625 42.390625 31.78125 42.390625 
Q 38.140625 42.390625 41.71875 45.5625 
Q 45.3125 48.734375 45.3125 54.390625 
Q 45.3125 60.0625 41.71875 63.234375 
Q 38.140625 66.40625 31.78125 66.40625 
Q 25.390625 66.40625 21.84375 63.234375 
Q 18.3125 60.0625 18.3125 54.390625 
z
" id="DejaVuSans-56"/>
      </defs>
      <g transform="translate(300.032799 269.636838)scale(0.1 -0.1)">
       <use xlink:href="#DejaVuSans-56"/>
       <use x="63.623047" xlink:href="#DejaVuSans-48"/>
       <use x="127.246094" xlink:href="#DejaVuSans-48"/>
       <use x="190.869141" xlink:href="#DejaVuSans-48"/>
      </g>
     </g>
    </g>
    <g id="xtick_6">
     <g id="line2d_6">
      <g>
       <use style="stroke:#000000;stroke-width:0.8;" x="373.642703" xlink:href="#m8866e80496" y="255.0384"/>
      </g>
     </g>
     <g id="text_6">
      <!-- 10000 -->
      <defs>
       <path d="M 12.40625 8.296875 
L 28.515625 8.296875 
L 28.515625 63.921875 
L 10.984375 60.40625 
L 10.984375 69.390625 
L 28.421875 72.90625 
L 38.28125 72.90625 
L 38.28125 8.296875 
L 54.390625 8.296875 
L 54.390625 0 
L 12.40625 0 
z
" id="DejaVuSans-49"/>
      </defs>
      <g transform="translate(357.736453 269.636838)scale(0.1 -0.1)">
       <use xlink:href="#DejaVuSans-49"/>
       <use x="63.623047" xlink:href="#DejaVuSans-48"/>
       <use x="127.246094" xlink:href="#DejaVuSans-48"/>
       <use x="190.869141" xlink:href="#DejaVuSans-48"/>
       <use x="254.492188" xlink:href="#DejaVuSans-48"/>
      </g>
     </g>
    </g>
   </g>
   <g id="matplotlib.axis_2">
    <g id="ytick_1">
     <g id="line2d_7">
      <defs>
       <path d="M 0 0 
L -3.5 0 
" id="ma8424cc2a4" style="stroke:#000000;stroke-width:0.8;"/>
      </defs>
      <g>
       <use style="stroke:#000000;stroke-width:0.8;" x="54" xlink:href="#ma8424cc2a4" y="254.752137"/>
      </g>
     </g>
     <g id="text_7">
      <!-- 0 -->
      <g transform="translate(40.6375 258.551356)scale(0.1 -0.1)">
       <use xlink:href="#DejaVuSans-48"/>
      </g>
     </g>
    </g>
    <g id="ytick_2">
     <g id="line2d_8">
      <g>
       <use style="stroke:#000000;stroke-width:0.8;" x="54" xlink:href="#ma8424cc2a4" y="226.125843"/>
      </g>
     </g>
     <g id="text_8">
      <!-- 1 -->
      <g transform="translate(40.6375 229.925062)scale(0.1 -0.1)">
       <use xlink:href="#DejaVuSans-49"/>
      </g>
     </g>
    </g>
    <g id="ytick_3">
     <g id="line2d_9">
      <g>
       <use style="stroke:#000000;stroke-width:0.8;" x="54" xlink:href="#ma8424cc2a4" y="197.499549"/>
      </g>
     </g>
     <g id="text_9">
      <!-- 2 -->
      <g transform="translate(40.6375 201.298768)scale(0.1 -0.1)">
       <use xlink:href="#DejaVuSans-50"/>
      </g>
     </g>
    </g>
    <g id="ytick_4">
     <g id="line2d_10">
      <g>
       <use style="stroke:#000000;stroke-width:0.8;" x="54" xlink:href="#ma8424cc2a4" y="168.873255"/>
      </g>
     </g>
     <g id="text_10">
      <!-- 3 -->
      <defs>
       <path d="M 40.578125 39.3125 
Q 47.65625 37.796875 51.625 33 
Q 55.609375 28.21875 55.609375 21.1875 
Q 55.609375 10.40625 48.1875 4.484375 
Q 40.765625 -1.421875 27.09375 -1.421875 
Q 22.515625 -1.421875 17.65625 -0.515625 
Q 12.796875 0.390625 7.625 2.203125 
L 7.625 11.71875 
Q 11.71875 9.328125 16.59375 8.109375 
Q 21.484375 6.890625 26.8125 6.890625 
Q 36.078125 6.890625 40.9375 10.546875 
Q 45.796875 14.203125 45.796875 21.1875 
Q 45.796875 27.640625 41.28125 31.265625 
Q 36.765625 34.90625 28.71875 34.90625 
L 20.21875 34.90625 
L 20.21875 43.015625 
L 29.109375 43.015625 
Q 36.375 43.015625 40.234375 45.921875 
Q 44.09375 48.828125 44.09375 54.296875 
Q 44.09375 59.90625 40.109375 62.90625 
Q 36.140625 65.921875 28.71875 65.921875 
Q 24.65625 65.921875 20.015625 65.03125 
Q 15.375 64.15625 9.8125 62.3125 
L 9.8125 71.09375 
Q 15.4375 72.65625 20.34375 73.4375 
Q 25.25 74.21875 29.59375 74.21875 
Q 40.828125 74.21875 47.359375 69.109375 
Q 53.90625 64.015625 53.90625 55.328125 
Q 53.90625 49.265625 50.4375 45.09375 
Q 46.96875 40.921875 40.578125 39.3125 
z
" id="DejaVuSans-51"/>
      </defs>
      <g transform="translate(40.6375 172.672473)scale(0.1 -0.1)">
       <use xlink:href="#DejaVuSans-51"/>
      </g>
     </g>
    </g>
    <g id="ytick_5">
     <g id="line2d_11">
      <g>
       <use style="stroke:#000000;stroke-width:0.8;" x="54" xlink:href="#ma8424cc2a4" y="140.246961"/>
      </g>
     </g>
     <g id="text_11">
      <!-- 4 -->
      <g transform="translate(40.6375 144.046179)scale(0.1 -0.1)">
       <use xlink:href="#DejaVuSans-52"/>
      </g>
     </g>
    </g>
    <g id="ytick_6">
     <g id="line2d_12">
      <g>
       <use style="stroke:#000000;stroke-width:0.8;" x="54" xlink:href="#ma8424cc2a4" y="111.620666"/>
      </g>
     </g>
     <g id="text_12">
      <!-- 5 -->
      <defs>
       <path d="M 10.796875 72.90625 
L 49.515625 72.90625 
L 49.515625 64.59375 
L 19.828125 64.59375 
L 19.828125 46.734375 
Q 21.96875 47.46875 24.109375 47.828125 
Q 26.265625 48.1875 28.421875 48.1875 
Q 40.625 48.1875 47.75 41.5 
Q 54.890625 34.8125 54.890625 23.390625 
Q 54.890625 11.625 47.5625 5.09375 
Q 40.234375 -1.421875 26.90625 -1.421875 
Q 22.3125 -1.421875 17.546875 -0.640625 
Q 12.796875 0.140625 7.71875 1.703125 
L 7.71875 11.625 
Q 12.109375 9.234375 16.796875 8.0625 
Q 21.484375 6.890625 26.703125 6.890625 
Q 35.15625 6.890625 40.078125 11.328125 
Q 45.015625 15.765625 45.015625 23.390625 
Q 45.015625 31 40.078125 35.4375 
Q 35.15625 39.890625 26.703125 39.890625 
Q 22.75 39.890625 18.8125 39.015625 
Q 14.890625 38.140625 10.796875 36.28125 
z
" id="DejaVuSans-53"/>
      </defs>
      <g transform="translate(40.6375 115.419885)scale(0.1 -0.1)">
       <use xlink:href="#DejaVuSans-53"/>
      </g>
     </g>
    </g>
    <g id="ytick_7">
     <g id="line2d_13">
      <g>
       <use style="stroke:#000000;stroke-width:0.8;" x="54" xlink:href="#ma8424cc2a4" y="82.994372"/>
      </g>
     </g>
     <g id="text_13">
      <!-- 6 -->
      <g transform="translate(40.6375 86.793591)scale(0.1 -0.1)">
       <use xlink:href="#DejaVuSans-54"/>
      </g>
     </g>
    </g>
    <g id="ytick_8">
     <g id="line2d_14">
      <g>
       <use style="stroke:#000000;stroke-width:0.8;" x="54" xlink:href="#ma8424cc2a4" y="54.368078"/>
      </g>
     </g>
     <g id="text_14">
      <!-- 7 -->
      <defs>
       <path d="M 8.203125 72.90625 
L 55.078125 72.90625 
L 55.078125 68.703125 
L 28.609375 0 
L 18.3125 0 
L 43.21875 64.59375 
L 8.203125 64.59375 
z
" id="DejaVuSans-55"/>
      </defs>
      <g transform="translate(40.6375 58.167297)scale(0.1 -0.1)">
       <use xlink:href="#DejaVuSans-55"/>
      </g>
     </g>
    </g>
   </g>
   <g id="line2d_15">
    <path clip-path="url(#p848752e0f5)" d="M 69.218182 252.220586 
L 69.279067 253.165698 
L 69.309509 231.09265 
L 69.400837 242.831055 
L 69.553049 251.73811 
L 69.735704 253.284591 
L 69.766146 226.440576 
L 69.827031 245.699028 
L 70.009686 252.059695 
L 70.253225 253.48324 
L 70.55765 254.029609 
L 70.983844 254.326857 
L 71.714463 254.517469 
L 73.175701 254.631532 
L 77.285432 254.70881 
L 95.216036 254.729907 
L 141.671218 254.745588 
L 141.792988 254.630411 
L 151.808554 254.705745 
L 199.237895 254.738155 
L 373.581818 254.74941 
L 373.581818 254.74941 
" style="fill:none;stroke:#1f77b4;stroke-linecap:square;stroke-width:1.5;"/>
   </g>
   <g id="line2d_16">
    <path clip-path="url(#p848752e0f5)" d="M 69.218182 252.220586 
L 69.279067 253.165698 
L 69.309509 231.09265 
L 69.400837 242.831055 
L 69.553049 251.73811 
L 69.735704 253.284591 
L 69.766146 226.440576 
L 69.827031 245.699028 
L 70.009686 252.059695 
L 70.253225 253.48324 
L 70.55765 254.029609 
L 70.983844 254.326857 
L 71.714463 254.517469 
L 73.175701 254.631532 
L 77.285432 254.70881 
L 95.216036 254.729907 
L 141.671218 254.745588 
L 141.792988 254.630411 
L 151.808554 254.705745 
L 199.237895 254.738155 
L 373.581818 254.74941 
L 373.581818 254.74941 
" style="fill:none;stroke:#ff7f0e;stroke-linecap:square;stroke-width:1.5;"/>
   </g>
   <g id="line2d_17">
    <path clip-path="url(#p848752e0f5)" d="M 69.218182 73.132064 
L 69.279067 164.036749 
L 69.282566 -1 
M 85.767004 -1 
L 85.870203 5.115272 
L 86.357282 10.476483 
L 86.905247 12.320851 
L 87.118344 13.630399 
L 87.331441 15.228577 
L 87.514096 16.748256 
L 87.69675 18.061577 
L 87.81852 19.818998 
L 87.909847 20.128641 
L 88.122945 24.484966 
L 88.549139 28.214297 
L 88.670909 31.067768 
L 88.731794 31.288127 
L 88.853563 43.86919 
L 88.975333 44.650951 
L 89.097103 48.065551 
L 89.340643 49.045368 
L 89.584182 52.503198 
L 89.919049 53.192953 
L 90.162589 54.128214 
L 90.253916 54.415538 
L 90.284359 41.182746 
L 90.375686 41.354889 
L 90.619226 41.842011 
L 90.893208 43.085972 
L 90.92365 43.167972 
L 91.075862 45.181564 
L 91.197632 45.378519 
L 91.380287 52.767242 
L 91.441172 52.853505 
L 91.593384 53.517615 
L 91.836924 54.210316 
L 92.050021 55.568898 
L 92.5371 56.552387 
L 92.65887 58.313622 
L 92.689312 58.352794 
L 92.932852 60.204924 
L 93.085064 60.639026 
L 93.267719 61.100438 
L 93.359046 61.348889 
L 93.724356 62.946494 
L 93.876568 66.082251 
L 93.937453 66.159619 
L 94.089665 67.128448 
L 94.333205 67.521282 
L 94.485417 68.300192 
L 94.911611 69.277515 
L 95.063824 71.599554 
L 95.124709 71.694293 
L 95.276921 72.45613 
L 95.459576 73.014382 
L 95.64223 73.353737 
L 95.764 74.460335 
L 95.88577 74.685227 
L 96.037982 76.995772 
L 96.251079 77.634888 
L 96.372849 80.012292 
L 96.525061 80.41425 
L 96.768601 80.994051 
L 96.799043 81.062932 
L 96.920813 81.640072 
L 96.981698 81.714408 
L 97.073026 82.446282 
L 97.194795 90.223728 
L 97.316565 90.907801 
L 97.347008 90.951561 
L 97.468777 92.302791 
L 97.49922 92.329497 
L 97.62099 95.379971 
L 97.773202 95.566226 
L 97.986299 96.469263 
L 98.016742 96.495136 
L 98.168954 96.872734 
L 98.382051 97.173453 
L 98.686475 98.213024 
L 98.838688 98.386997 
L 98.960458 98.890976 
L 99.021342 98.942439 
L 99.143112 101.288716 
L 99.295325 101.504221 
L 99.447537 102.769216 
L 99.843289 103.374515 
L 99.965058 103.936328 
L 100.086828 104.157893 
L 100.239041 104.41353 
L 100.48258 106.193016 
L 100.756562 106.728625 
L 100.908774 107.693465 
L 101.152314 107.981509 
L 101.182757 108.020583 
L 101.304526 108.654568 
L 101.365411 108.715459 
L 101.517624 109.206501 
L 101.608951 109.335941 
L 101.730721 111.636271 
L 101.791606 111.818559 
L 101.97426 112.110194 
L 102.156915 112.447638 
L 102.370012 112.799262 
L 102.491782 113.854196 
L 102.613552 114.035339 
L 102.735322 116.472764 
L 103.222401 117.212762 
L 103.374613 117.777461 
L 103.739923 118.358274 
L 104.013905 118.789613 
L 104.287887 119.7007 
L 104.409656 122.929358 
L 104.500984 123.021605 
L 104.622754 123.755914 
L 104.957621 124.223937 
L 105.07939 126.87207 
L 105.627355 127.828696 
L 105.779567 129.184694 
L 105.992664 129.566626 
L 106.236204 129.816278 
L 106.388416 130.200458 
L 106.418858 130.267946 
L 106.571071 130.992942 
L 106.753725 131.223902 
L 106.93638 131.539953 
L 107.027707 131.690003 
L 107.393017 132.529432 
L 107.484344 132.600046 
L 107.606114 133.260995 
L 107.697441 133.361067 
L 107.880096 133.658172 
L 108.184521 134.181091 
L 108.519388 136.231723 
L 108.915139 136.940371 
L 108.976024 137.315556 
L 109.097794 140.201309 
L 109.645758 141.004972 
L 109.737086 141.116049 
L 109.858855 141.726662 
L 110.28505 142.072115 
L 110.437262 143.403576 
L 110.498147 143.441832 
L 110.619917 144.161824 
L 110.680802 144.209069 
L 110.924341 145.133765 
L 111.076553 145.237762 
L 111.259208 145.573102 
L 111.624518 145.83968 
L 111.746287 146.240976 
L 112.050712 146.480148 
L 112.111597 146.513099 
L 112.263809 146.926187 
L 112.294252 146.944783 
L 112.446464 147.217083 
L 112.842216 147.644449 
L 112.963986 148.389355 
L 113.116198 148.582889 
L 113.298852 151.374224 
L 113.51195 151.585226 
L 113.725047 151.827246 
L 113.877259 151.980392 
L 114.181684 153.657122 
L 114.486108 153.900231 
L 114.699205 154.120379 
L 115.277612 154.653732 
L 115.490709 155.828687 
L 115.734249 156.020457 
L 116.008231 156.322849 
L 116.221328 156.427322 
L 116.282213 156.60492 
L 116.403983 158.493581 
L 116.525752 158.646965 
L 116.647522 159.037801 
L 116.951947 159.427255 
L 117.134601 160.024828 
L 117.286814 160.119469 
L 117.439026 161.424806 
L 117.743451 161.667566 
L 118.169645 162.2194 
L 118.413184 164.784948 
L 118.595839 164.957147 
L 118.869821 165.695978 
L 119.052476 165.797201 
L 119.204688 166.000846 
L 119.47867 166.18095 
L 119.661325 166.33364 
L 119.813537 166.601446 
L 119.996192 166.751492 
L 120.178847 166.872393 
L 120.270174 166.909776 
L 120.391944 168.267525 
L 120.818138 168.614384 
L 120.879023 168.726711 
L 121.061678 169.210738 
L 121.426987 169.549545 
L 121.700969 169.70705 
L 121.914066 170.397642 
L 122.340261 172.083703 
L 122.857782 172.523183 
L 123.009995 172.639465 
L 123.162207 173.172088 
L 123.497074 173.335459 
L 123.649286 174.22153 
L 123.831941 174.650878 
L 123.953711 176.254488 
L 124.166808 176.41862 
L 124.653887 176.850158 
L 124.775657 177.840293 
L 125.171409 178.090483 
L 125.384506 178.320057 
L 125.628046 178.457284 
L 125.749815 179.720876 
L 125.93247 179.948777 
L 125.962913 179.956988 
L 126.084682 180.282104 
L 126.358664 180.564702 
L 126.571762 181.520506 
L 126.815301 181.69308 
L 126.967514 181.834521 
L 127.150168 182.113953 
L 127.66769 182.718925 
L 127.819902 183.284609 
L 127.941672 183.359464 
L 128.063442 183.648476 
L 128.337424 183.827054 
L 128.459194 183.992382 
L 128.580963 184.048648 
L 128.794061 185.840457 
L 129.128928 186.12012 
L 129.28114 186.201475 
L 129.433352 186.462007 
L 129.555122 186.544512 
L 129.676892 187.216964 
L 129.829104 187.402166 
L 130.133529 187.587781 
L 130.742378 188.039606 
L 130.864147 188.197481 
L 130.985917 188.247313 
L 131.107687 189.025466 
L 131.442554 189.241391 
L 131.594766 189.421785 
L 131.838306 189.55824 
L 132.051403 189.670626 
L 132.173173 189.728833 
L 132.325385 189.913615 
L 132.538482 190.20553 
L 132.751579 191.205636 
L 133.116889 191.353665 
L 133.360428 191.543734 
L 133.87795 191.758521 
L 133.938835 191.785183 
L 134.060605 192.780596 
L 134.334587 192.883362 
L 134.456357 192.919914 
L 134.486799 191.726327 
L 134.578127 191.805556 
L 134.699896 192.591522 
L 134.943436 192.754876 
L 135.034763 192.781932 
L 135.186976 193.774908 
L 135.460958 193.951256 
L 135.887152 194.213951 
L 136.039364 194.363682 
L 136.374231 194.510381 
L 136.496001 194.812553 
L 136.617771 194.897337 
L 136.769983 195.054 
L 137.074408 195.158913 
L 137.22662 195.301393 
L 137.591929 195.425732 
L 137.744142 195.549751 
L 138.048566 195.713522 
L 139.144494 196.474729 
L 139.266264 196.700322 
L 140.33175 197.457267 
L 140.788387 197.614151 
L 140.910157 197.849644 
L 141.092811 197.939761 
L 141.214581 198.524122 
L 141.610333 198.670278 
L 141.671218 198.820747 
L 141.689807 -1 
M 162.805505 -1 
L 162.920049 15.857073 
L 163.833323 16.573916 
L 163.955093 17.01942 
L 164.198632 17.15432 
L 164.320402 17.507199 
L 164.503057 17.630181 
L 164.624827 18.268722 
L 164.685712 18.326799 
L 164.807481 19.582993 
L 165.294561 19.816053 
L 165.416331 33.631407 
L 165.690313 33.8571 
L 165.842525 34.184937 
L 166.086064 34.277728 
L 166.238277 34.718126 
L 166.329604 34.760524 
L 166.481816 34.960234 
L 166.573144 34.994271 
L 166.725356 35.256555 
L 166.999338 35.423064 
L 167.181993 35.499252 
L 167.303763 36.129978 
L 167.364647 36.207574 
L 167.486417 37.142279 
L 167.882169 37.454748 
L 168.034381 37.863701 
L 168.491018 38.518819 
L 168.612788 39.191821 
L 168.765 39.30804 
L 169.038982 39.755602 
L 169.221637 39.839527 
L 169.343407 40.561001 
L 170.013141 41.01568 
L 170.165353 41.34459 
L 170.195796 41.356736 
L 170.317565 41.693717 
L 170.652432 41.905522 
L 170.804645 42.267393 
L 170.926414 42.375253 
L 171.078627 42.616378 
L 171.200396 42.709506 
L 171.535263 43.25591 
L 171.748361 43.45818 
L 172.174555 43.69519 
L 172.570307 43.991781 
L 172.722519 44.813089 
L 172.783404 44.831221 
L 172.935616 45.053508 
L 173.057386 45.195996 
L 173.209598 45.367812 
L 173.514023 45.603384 
L 173.909775 46.006136 
L 174.092429 46.148479 
L 174.122872 46.320297 
L 174.244642 47.407567 
L 174.305527 47.43795 
L 174.457739 47.635484 
L 174.609951 47.798813 
L 174.975261 48.081574 
L 175.09703 49.424932 
L 175.58411 50.014985 
L 175.888534 50.137939 
L 176.132074 51.122321 
L 176.284286 51.170278 
L 176.406056 51.523279 
L 176.436498 51.542703 
L 176.58871 51.833109 
L 177.07579 52.067904 
L 177.258444 52.229058 
L 177.380214 52.274155 
L 177.501984 52.429474 
L 177.715081 52.580936 
L 178.293488 53.093318 
L 178.4457 53.145456 
L 178.597912 53.358184 
L 178.750125 53.447014 
L 178.871894 53.709014 
L 179.358974 53.930818 
L 179.480743 55.057413 
L 179.693841 55.137601 
L 179.846053 55.478404 
L 179.93738 55.530376 
L 180.089592 55.694056 
L 180.120035 55.720687 
L 180.241805 56.304735 
L 180.394017 56.46136 
L 180.546229 56.53755 
L 180.667999 57.942223 
L 180.698442 57.950032 
L 180.820211 60.342937 
L 181.094193 60.514064 
L 181.489945 60.721439 
L 181.642158 61.081772 
L 181.6726 61.103661 
L 181.79437 63.140129 
L 181.855255 63.182561 
L 181.977024 63.455211 
L 182.129237 63.639449 
L 182.311891 63.811164 
L 182.798971 64.158375 
L 182.951183 64.373548 
L 183.194723 64.542984 
L 183.316492 64.578539 
L 183.468705 64.963595 
L 183.590474 65.163814 
L 183.742687 65.376196 
L 183.894899 68.102645 
L 183.986226 68.23617 
L 184.138439 68.322494 
L 184.564633 68.516688 
L 185.234367 69.035671 
L 185.264809 69.042363 
L 185.417022 69.285529 
L 185.630119 69.397225 
L 185.721446 69.591927 
L 185.843216 71.996153 
L 186.056313 72.073415 
L 186.178083 72.502362 
L 186.665162 72.737126 
L 186.726047 72.796667 
L 186.847817 73.624738 
L 186.969587 73.694424 
L 187.121799 74.03536 
L 187.243569 74.065195 
L 187.395781 75.612304 
L 187.578436 75.7048 
L 187.730648 75.869163 
L 188.00463 76.02654 
L 188.278612 76.28284 
L 189.070116 76.700742 
L 189.161443 76.738725 
L 189.344098 77.090215 
L 189.648522 77.261294 
L 190.896663 78.235228 
L 191.261972 79.326141 
L 191.718609 79.522234 
L 191.901264 79.649818 
L 192.662325 79.965326 
L 192.784095 80.278381 
L 193.514714 80.620521 
L 193.788696 80.71739 
L 193.910466 80.863679 
L 194.032236 80.91716 
L 194.154005 91.060263 
L 194.275775 91.098885 
L 194.397545 91.38762 
L 194.701969 91.468344 
L 194.854182 91.822309 
L 195.280376 91.987544 
L 196.010995 92.591424 
L 196.19365 92.824518 
L 196.558959 92.997502 
L 196.680729 93.158418 
L 197.046038 93.314397 
L 197.167808 93.809706 
L 197.198251 93.814804 
L 197.32002 94.542933 
L 197.411348 94.556669 
L 197.56356 95.025656 
L 198.629046 95.306811 
L 198.872585 95.450433 
L 198.994355 96.800167 
L 199.268337 96.898116 
L 199.390107 97.264 
L 200.029399 97.439436 
L 200.181611 97.699736 
L 200.881787 97.952733 
L 201.673291 98.491881 
L 201.825503 99.741923 
L 202.099485 99.87014 
L 202.221255 100.03523 
L 202.586565 100.175371 
L 202.708334 100.428114 
L 203.134529 100.646885 
L 203.317183 100.747397 
L 203.469396 100.799195 
L 203.621608 100.926527 
L 203.682493 100.943154 
L 203.804263 101.295469 
L 204.047802 101.376114 
L 204.169572 101.575649 
L 204.717536 101.77749 
L 205.356828 102.07148 
L 205.50904 102.240715 
L 205.569925 102.267377 
L 205.691695 102.42971 
L 206.148331 102.622631 
L 206.391871 102.766602 
L 206.635411 102.886358 
L 206.787623 102.957528 
L 207.457357 103.271704 
L 207.731339 103.405528 
L 208.187976 103.592337 
L 208.309746 103.627685 
L 208.461958 104.295794 
L 208.583728 104.36792 
L 208.705497 104.578155 
L 209.070807 104.734263 
L 209.557886 104.981474 
L 209.710098 105.224533 
L 210.318947 105.543802 
L 210.714699 105.643449 
L 210.927796 105.915022 
L 211.384433 106.082725 
L 211.506203 106.486317 
L 211.688858 106.538486 
L 211.84107 107.215177 
L 212.571689 107.429815 
L 212.754344 107.542164 
L 213.150095 107.656687 
L 213.302308 107.807303 
L 213.45452 107.848761 
L 213.57629 108.03832 
L 213.941599 108.120897 
L 214.063369 109.839121 
L 214.337351 110.115785 
L 214.489563 110.349442 
L 214.702661 110.417402 
L 214.854873 110.682714 
L 215.524607 110.914802 
L 215.737704 111.083184 
L 215.768146 111.127863 
L 215.889916 112.169095 
L 216.011686 112.399935 
L 216.194341 112.521788 
L 216.31611 112.803695 
L 216.772747 112.913111 
L 216.894517 113.396023 
L 217.412039 113.589487 
L 217.533809 113.683398 
L 217.655578 114.373024 
L 218.142658 114.539704 
L 218.29487 114.852536 
L 219.208143 115.129841 
L 219.329913 115.358331 
L 219.938762 115.572577 
L 220.121417 116.206255 
L 220.151859 116.21011 
L 220.304072 116.355629 
L 220.699824 116.453308 
L 220.852036 116.716094 
L 221.4 116.95117 
L 221.491327 116.975824 
L 221.64354 117.204456 
L 221.734867 117.219767 
L 221.856637 117.395783 
L 222.221946 117.592351 
L 222.374158 117.727189 
L 222.678583 117.81332 
L 222.739468 117.834338 
L 222.861238 118.24968 
L 223.074335 118.317632 
L 223.561414 118.446982 
L 223.683184 118.827038 
L 223.774511 118.858143 
L 223.926724 119.063061 
L 224.170263 119.200186 
L 224.596457 119.410971 
L 224.718227 120.03983 
L 225.570616 120.263517 
L 225.935925 120.522557 
L 226.149023 120.653353 
L 226.48389 120.786361 
L 226.666544 120.854438 
L 226.727429 120.86617 
L 226.879641 121.455218 
L 227.884242 121.752275 
L 227.914685 105.228464 
L 228.006012 105.358547 
L 228.462649 105.506013 
L 228.675746 105.565039 
L 229.10194 105.748656 
L 229.22371 105.975745 
L 229.436807 106.102668 
L 229.558577 106.265715 
L 230.136984 106.453028 
L 230.410966 106.505974 
L 230.532736 106.533452 
L 230.684948 106.770222 
L 231.141585 106.905009 
L 231.263354 107.057454 
L 231.415567 107.11166 
L 231.537337 107.385895 
L 231.902646 107.49778 
L 232.115743 107.650103 
L 232.69415 107.888991 
L 232.846362 107.960134 
L 233.302999 108.076328 
L 233.455211 108.382466 
L 233.607423 108.460536 
L 233.972733 108.644946 
L 234.094503 110.669113 
L 234.459812 110.769671 
L 234.764236 111.314485 
L 235.829722 111.68249 
L 235.951492 111.963642 
L 236.895208 112.353033 
L 237.260518 112.840385 
L 237.564942 112.951633 
L 237.686712 113.207782 
L 238.204234 113.38095 
L 238.356446 113.532399 
L 238.934852 113.714357 
L 239.208834 113.75361 
L 239.330604 114.119276 
L 240.091666 114.345752 
L 241.857328 115.021705 
L 241.979098 119.740904 
L 242.161752 119.846648 
L 242.557504 119.992395 
L 242.770601 120.080913 
L 243.470778 120.200122 
L 243.653433 120.371185 
L 244.444936 120.544011 
L 244.597149 120.692314 
L 245.053785 120.843344 
L 245.419095 121.047787 
L 245.510422 121.14449 
L 245.693077 121.2696 
L 246.180156 121.404599 
L 246.301926 122.16576 
L 246.667235 122.311843 
L 247.09343 122.573633 
L 247.306527 122.900237 
L 248.280685 123.270004 
L 248.402455 123.709655 
L 248.798207 123.852456 
L 249.163516 123.96052 
L 249.559268 124.097893 
L 249.772365 124.16771 
L 250.32033 124.32177 
L 250.685639 124.405362 
L 250.959621 124.494792 
L 251.081391 124.691451 
L 252.299089 124.951442 
L 252.451301 125.15209 
L 252.603513 125.22001 
L 252.877495 125.357674 
L 253.121035 125.483834 
L 253.242805 125.90059 
L 253.334132 125.909947 
L 253.486345 126.135966 
L 254.095194 126.329206 
L 254.825812 126.697517 
L 255.434661 126.915935 
L 255.617316 127.070044 
L 255.921741 127.153662 
L 256.073953 127.254021 
L 256.561032 127.364231 
L 256.713244 127.489034 
L 256.926342 127.578633 
L 257.078554 127.711595 
L 257.77873 127.853623 
L 257.9005 128.117524 
L 257.961385 128.133397 
L 258.083155 128.67181 
L 258.418022 128.797594 
L 258.570234 128.852377 
L 258.783331 128.894783 
L 258.905101 129.102893 
L 259.51395 129.257962 
L 259.787932 129.705632 
L 260.244569 129.856046 
L 261.00563 130.187718 
L 261.066515 130.205782 
L 261.188285 130.610925 
L 262.101558 130.811149 
L 262.649523 130.981938 
L 262.771292 131.15984 
L 262.923505 131.257991 
L 263.045275 131.524133 
L 264.202088 131.907594 
L 264.323857 132.0593 
L 264.59784 132.121869 
L 264.810937 132.247295 
L 264.963149 132.501538 
L 265.389343 132.721731 
L 265.511113 133.189593 
L 265.937307 133.289095 
L 266.059077 133.454085 
L 266.241732 133.520661 
L 267.063678 133.694004 
L 267.794297 133.998664 
L 268.007394 134.081165 
L 268.646686 134.209554 
L 268.768456 134.761929 
L 268.859783 134.823499 
L 268.981553 135.405177 
L 269.255535 135.518291 
L 269.377305 137.777306 
L 269.742614 137.915287 
L 269.986154 138.047786 
L 270.777657 138.348279 
L 270.899427 138.498027 
L 271.203852 138.598498 
L 271.447391 138.762896 
L 271.690931 138.823793 
L 271.843143 139.006705 
L 272.725974 139.265511 
L 272.847744 141.465316 
L 273.152169 141.565941 
L 273.334823 141.64651 
L 273.578363 141.673615 
L 273.730575 141.973802 
L 274.643849 142.145703 
L 276.744378 142.770958 
L 276.866148 142.997582 
L 277.2619 143.113877 
L 277.414112 143.183971 
L 277.505439 143.20381 
L 277.627209 143.411273 
L 283.746142 145.177054 
L 284.172336 145.242475 
L 284.294106 146.405958 
L 284.598531 146.465286 
L 284.750743 146.625149 
L 284.96384 146.705417 
L 285.08561 147.643239 
L 285.907556 147.828985 
L 286.059768 147.925746 
L 286.546848 148.038903 
L 286.69906 148.246897 
L 286.729502 148.248905 
L 286.851272 148.719291 
L 287.338351 148.811655 
L 287.460121 148.955194 
L 287.794988 149.082589 
L 288.06897 149.172929 
L 288.464722 149.285155 
L 288.616934 149.444332 
L 290.291269 149.882144 
L 290.443481 149.962043 
L 291.752507 150.201881 
L 291.874277 150.91607 
L 291.996046 150.934702 
L 292.148259 151.194085 
L 292.544011 151.330465 
L 293.457284 151.598595 
L 293.579054 151.904353 
L 294.492328 152.039803 
L 294.705425 152.274375 
L 295.405601 152.532367 
L 295.740468 152.667258 
L 296.197105 152.913026 
L 296.471087 152.937277 
L 296.592857 155.291571 
L 296.805954 155.3556 
L 297.201706 155.40799 
L 297.323476 155.559729 
L 297.6279 155.687382 
L 297.780112 155.740084 
L 300.063296 156.177016 
L 300.185066 156.850811 
L 300.276393 156.927597 
L 300.428606 156.994997 
L 301.037455 157.136331 
L 301.311437 157.197294 
L 301.433207 157.824915 
L 302.011613 157.936287 
L 302.163825 158.000375 
L 302.194268 158.002153 
L 302.316038 158.158624 
L 302.864002 158.295044 
L 302.985772 158.466226 
L 303.290196 158.549104 
L 303.685948 158.647001 
L 303.83816 158.772 
L 304.538337 159.218113 
L 305.116743 159.355075 
L 305.360283 159.426612 
L 306.303999 159.642173 
L 306.456211 159.697612 
L 307.247715 159.802208 
L 307.399927 159.8757 
L 308.008776 160.012363 
L 308.160989 160.095508 
L 308.617625 160.147114 
L 308.739395 160.611209 
L 308.92205 160.629509 
L 309.04382 160.870793 
L 309.439572 161.000563 
L 309.683111 161.145994 
L 310.748597 161.349372 
L 312.057622 161.724458 
L 312.209835 161.826747 
L 313.092666 162.026599 
L 313.214436 162.143407 
L 313.579745 162.238635 
L 313.731957 162.380081 
L 314.188594 162.539154 
L 314.371249 162.613825 
L 315.406292 162.777069 
L 316.471778 162.969854 
L 316.593548 162.988301 
L 316.715318 163.115062 
L 319.120271 163.553399 
L 319.272484 163.633753 
L 324.417258 164.573008 
L 329.166281 165.382401 
L 329.28805 165.629794 
L 329.562032 165.668996 
L 329.927342 165.758256 
L 330.231766 166.08992 
L 331.693004 166.538276 
L 331.814774 166.889211 
L 332.63672 166.998134 
L 332.75849 167.376339 
L 334.280612 167.603863 
L 334.402382 167.780465 
L 335.193886 167.92427 
L 337.933707 168.546558 
L 338.085919 168.790633 
L 338.755653 168.923731 
L 338.907865 168.985386 
L 339.729811 169.102991 
L 339.851581 169.505298 
L 339.912466 169.508818 
L 340.034236 169.871334 
L 340.734412 169.952865 
L 340.886625 170.126005 
L 341.617243 170.278793 
L 342.500075 170.462238 
L 342.621844 170.720522 
L 343.626445 170.896608 
L 343.748215 171.251801 
L 345.574762 171.643368 
L 345.726974 171.765201 
L 348.52768 172.300354 
L 348.64945 172.422882 
L 348.984317 172.442316 
L 349.106087 172.627775 
L 350.293342 172.763104 
L 350.445555 172.896124 
L 350.658652 173.02114 
L 352.515641 173.351834 
L 352.637411 173.448002 
L 353.581127 173.590451 
L 355.011922 174.149121 
L 355.986081 174.275003 
L 356.199178 174.330083 
L 357.386434 174.488949 
L 358.056168 174.678573 
L 358.177937 175.287628 
L 359.304308 175.44236 
L 359.426078 175.577937 
L 360.278467 175.705518 
L 360.491564 175.799533 
L 362.318111 176.022779 
L 362.470323 176.10624 
L 362.835633 176.146865 
L 362.957402 176.697766 
L 362.987845 176.698999 
L 363.109615 177.108692 
L 363.992446 177.257438 
L 364.66218 177.380324 
L 365.362356 177.48103 
L 365.514568 177.573733 
L 365.605896 177.579568 
L 365.727666 178.031468 
L 366.701824 178.166717 
L 366.914921 178.244172 
L 368.680583 178.504623 
L 368.832796 178.5571 
L 369.989609 178.940232 
L 370.141821 180.493597 
L 372.820757 181.01613 
L 373.368721 181.132676 
L 373.490491 181.279996 
L 373.581818 181.310599 
L 373.581818 181.310599 
" style="fill:none;stroke:#2ca02c;stroke-linecap:square;stroke-width:1.5;"/>
   </g>
   <g id="patch_3">
    <path d="M 54 255.0384 
L 54 34.3872 
" style="fill:none;stroke:#000000;stroke-linecap:square;stroke-linejoin:miter;stroke-width:0.8;"/>
   </g>
   <g id="patch_4">
    <path d="M 388.8 255.0384 
L 388.8 34.3872 
" style="fill:none;stroke:#000000;stroke-linecap:square;stroke-linejoin:miter;stroke-width:0.8;"/>
   </g>
   <g id="patch_5">
    <path d="M 54 255.0384 
L 388.8 255.0384 
" style="fill:none;stroke:#000000;stroke-linecap:square;stroke-linejoin:miter;stroke-width:0.8;"/>
   </g>
   <g id="patch_6">
    <path d="M 54 34.3872 
L 388.8 34.3872 
" style="fill:none;stroke:#000000;stroke-linecap:square;stroke-linejoin:miter;stroke-width:0.8;"/>
   </g>
   <g id="legend_1">
    <g id="patch_7">
     <path d="M 189.9 250.0384 
L 381.8 250.0384 
Q 383.8 250.0384 383.8 248.0384 
L 383.8 201.8384 
Q 383.8 199.8384 381.8 199.8384 
L 189.9 199.8384 
Q 187.9 199.8384 187.9 201.8384 
L 187.9 248.0384 
Q 187.9 250.0384 189.9 250.0384 
z
" style="fill:#ffffff;opacity:0.8;stroke:#cccccc;stroke-linejoin:miter;"/>
    </g>
    <g id="line2d_18">
     <path d="M 191.9 208.758713 
L 211.9 208.758713 
" style="fill:none;stroke:#1f77b4;stroke-linecap:square;stroke-width:1.5;"/>
    </g>
    <g id="line2d_19"/>
    <g id="text_15">
     <!-- estimation for $SE^2[f(x)]$ -->
     <defs>
      <path d="M 56.203125 29.59375 
L 56.203125 25.203125 
L 14.890625 25.203125 
Q 15.484375 15.921875 20.484375 11.0625 
Q 25.484375 6.203125 34.421875 6.203125 
Q 39.59375 6.203125 44.453125 7.46875 
Q 49.3125 8.734375 54.109375 11.28125 
L 54.109375 2.78125 
Q 49.265625 0.734375 44.1875 -0.34375 
Q 39.109375 -1.421875 33.890625 -1.421875 
Q 20.796875 -1.421875 13.15625 6.1875 
Q 5.515625 13.8125 5.515625 26.8125 
Q 5.515625 40.234375 12.765625 48.109375 
Q 20.015625 56 32.328125 56 
Q 43.359375 56 49.78125 48.890625 
Q 56.203125 41.796875 56.203125 29.59375 
z
M 47.21875 32.234375 
Q 47.125 39.59375 43.09375 43.984375 
Q 39.0625 48.390625 32.421875 48.390625 
Q 24.90625 48.390625 20.390625 44.140625 
Q 15.875 39.890625 15.1875 32.171875 
z
" id="DejaVuSans-101"/>
      <path d="M 44.28125 53.078125 
L 44.28125 44.578125 
Q 40.484375 46.53125 36.375 47.5 
Q 32.28125 48.484375 27.875 48.484375 
Q 21.1875 48.484375 17.84375 46.4375 
Q 14.5 44.390625 14.5 40.28125 
Q 14.5 37.15625 16.890625 35.375 
Q 19.28125 33.59375 26.515625 31.984375 
L 29.59375 31.296875 
Q 39.15625 29.25 43.1875 25.515625 
Q 47.21875 21.78125 47.21875 15.09375 
Q 47.21875 7.46875 41.1875 3.015625 
Q 35.15625 -1.421875 24.609375 -1.421875 
Q 20.21875 -1.421875 15.453125 -0.5625 
Q 10.6875 0.296875 5.421875 2 
L 5.421875 11.28125 
Q 10.40625 8.6875 15.234375 7.390625 
Q 20.0625 6.109375 24.8125 6.109375 
Q 31.15625 6.109375 34.5625 8.28125 
Q 37.984375 10.453125 37.984375 14.40625 
Q 37.984375 18.0625 35.515625 20.015625 
Q 33.0625 21.96875 24.703125 23.78125 
L 21.578125 24.515625 
Q 13.234375 26.265625 9.515625 29.90625 
Q 5.8125 33.546875 5.8125 39.890625 
Q 5.8125 47.609375 11.28125 51.796875 
Q 16.75 56 26.8125 56 
Q 31.78125 56 36.171875 55.265625 
Q 40.578125 54.546875 44.28125 53.078125 
z
" id="DejaVuSans-115"/>
      <path d="M 18.3125 70.21875 
L 18.3125 54.6875 
L 36.8125 54.6875 
L 36.8125 47.703125 
L 18.3125 47.703125 
L 18.3125 18.015625 
Q 18.3125 11.328125 20.140625 9.421875 
Q 21.96875 7.515625 27.59375 7.515625 
L 36.8125 7.515625 
L 36.8125 0 
L 27.59375 0 
Q 17.1875 0 13.234375 3.875 
Q 9.28125 7.765625 9.28125 18.015625 
L 9.28125 47.703125 
L 2.6875 47.703125 
L 2.6875 54.6875 
L 9.28125 54.6875 
L 9.28125 70.21875 
z
" id="DejaVuSans-116"/>
      <path d="M 9.421875 54.6875 
L 18.40625 54.6875 
L 18.40625 0 
L 9.421875 0 
z
M 9.421875 75.984375 
L 18.40625 75.984375 
L 18.40625 64.59375 
L 9.421875 64.59375 
z
" id="DejaVuSans-105"/>
      <path d="M 52 44.1875 
Q 55.375 50.25 60.0625 53.125 
Q 64.75 56 71.09375 56 
Q 79.640625 56 84.28125 50.015625 
Q 88.921875 44.046875 88.921875 33.015625 
L 88.921875 0 
L 79.890625 0 
L 79.890625 32.71875 
Q 79.890625 40.578125 77.09375 44.375 
Q 74.3125 48.1875 68.609375 48.1875 
Q 61.625 48.1875 57.5625 43.546875 
Q 53.515625 38.921875 53.515625 30.90625 
L 53.515625 0 
L 44.484375 0 
L 44.484375 32.71875 
Q 44.484375 40.625 41.703125 44.40625 
Q 38.921875 48.1875 33.109375 48.1875 
Q 26.21875 48.1875 22.15625 43.53125 
Q 18.109375 38.875 18.109375 30.90625 
L 18.109375 0 
L 9.078125 0 
L 9.078125 54.6875 
L 18.109375 54.6875 
L 18.109375 46.1875 
Q 21.1875 51.21875 25.484375 53.609375 
Q 29.78125 56 35.6875 56 
Q 41.65625 56 45.828125 52.96875 
Q 50 49.953125 52 44.1875 
z
" id="DejaVuSans-109"/>
      <path d="M 34.28125 27.484375 
Q 23.390625 27.484375 19.1875 25 
Q 14.984375 22.515625 14.984375 16.5 
Q 14.984375 11.71875 18.140625 8.90625 
Q 21.296875 6.109375 26.703125 6.109375 
Q 34.1875 6.109375 38.703125 11.40625 
Q 43.21875 16.703125 43.21875 25.484375 
L 43.21875 27.484375 
z
M 52.203125 31.203125 
L 52.203125 0 
L 43.21875 0 
L 43.21875 8.296875 
Q 40.140625 3.328125 35.546875 0.953125 
Q 30.953125 -1.421875 24.3125 -1.421875 
Q 15.921875 -1.421875 10.953125 3.296875 
Q 6 8.015625 6 15.921875 
Q 6 25.140625 12.171875 29.828125 
Q 18.359375 34.515625 30.609375 34.515625 
L 43.21875 34.515625 
L 43.21875 35.40625 
Q 43.21875 41.609375 39.140625 45 
Q 35.0625 48.390625 27.6875 48.390625 
Q 23 48.390625 18.546875 47.265625 
Q 14.109375 46.140625 10.015625 43.890625 
L 10.015625 52.203125 
Q 14.9375 54.109375 19.578125 55.046875 
Q 24.21875 56 28.609375 56 
Q 40.484375 56 46.34375 49.84375 
Q 52.203125 43.703125 52.203125 31.203125 
z
" id="DejaVuSans-97"/>
      <path d="M 30.609375 48.390625 
Q 23.390625 48.390625 19.1875 42.75 
Q 14.984375 37.109375 14.984375 27.296875 
Q 14.984375 17.484375 19.15625 11.84375 
Q 23.34375 6.203125 30.609375 6.203125 
Q 37.796875 6.203125 41.984375 11.859375 
Q 46.1875 17.53125 46.1875 27.296875 
Q 46.1875 37.015625 41.984375 42.703125 
Q 37.796875 48.390625 30.609375 48.390625 
z
M 30.609375 56 
Q 42.328125 56 49.015625 48.375 
Q 55.71875 40.765625 55.71875 27.296875 
Q 55.71875 13.875 49.015625 6.21875 
Q 42.328125 -1.421875 30.609375 -1.421875 
Q 18.84375 -1.421875 12.171875 6.21875 
Q 5.515625 13.875 5.515625 27.296875 
Q 5.515625 40.765625 12.171875 48.375 
Q 18.84375 56 30.609375 56 
z
" id="DejaVuSans-111"/>
      <path d="M 54.890625 33.015625 
L 54.890625 0 
L 45.90625 0 
L 45.90625 32.71875 
Q 45.90625 40.484375 42.875 44.328125 
Q 39.84375 48.1875 33.796875 48.1875 
Q 26.515625 48.1875 22.3125 43.546875 
Q 18.109375 38.921875 18.109375 30.90625 
L 18.109375 0 
L 9.078125 0 
L 9.078125 54.6875 
L 18.109375 54.6875 
L 18.109375 46.1875 
Q 21.34375 51.125 25.703125 53.5625 
Q 30.078125 56 35.796875 56 
Q 45.21875 56 50.046875 50.171875 
Q 54.890625 44.34375 54.890625 33.015625 
z
" id="DejaVuSans-110"/>
      <path id="DejaVuSans-32"/>
      <path d="M 37.109375 75.984375 
L 37.109375 68.5 
L 28.515625 68.5 
Q 23.6875 68.5 21.796875 66.546875 
Q 19.921875 64.59375 19.921875 59.515625 
L 19.921875 54.6875 
L 34.71875 54.6875 
L 34.71875 47.703125 
L 19.921875 47.703125 
L 19.921875 0 
L 10.890625 0 
L 10.890625 47.703125 
L 2.296875 47.703125 
L 2.296875 54.6875 
L 10.890625 54.6875 
L 10.890625 58.5 
Q 10.890625 67.625 15.140625 71.796875 
Q 19.390625 75.984375 28.609375 75.984375 
z
" id="DejaVuSans-102"/>
      <path d="M 41.109375 46.296875 
Q 39.59375 47.171875 37.8125 47.578125 
Q 36.03125 48 33.890625 48 
Q 26.265625 48 22.1875 43.046875 
Q 18.109375 38.09375 18.109375 28.8125 
L 18.109375 0 
L 9.078125 0 
L 9.078125 54.6875 
L 18.109375 54.6875 
L 18.109375 46.1875 
Q 20.953125 51.171875 25.484375 53.578125 
Q 30.03125 56 36.53125 56 
Q 37.453125 56 38.578125 55.875 
Q 39.703125 55.765625 41.0625 55.515625 
z
" id="DejaVuSans-114"/>
      <path d="M 60.296875 70.515625 
L 58.40625 60.890625 
Q 53.46875 63.53125 48.609375 64.875 
Q 43.75 66.21875 39.203125 66.21875 
Q 30.375 66.21875 25.140625 62.359375 
Q 19.921875 58.5 19.921875 52.09375 
Q 19.921875 48.578125 21.84375 46.703125 
Q 23.78125 44.828125 31.78125 42.671875 
L 37.703125 41.21875 
Q 47.703125 38.625 51.609375 34.640625 
Q 55.515625 30.671875 55.515625 23.484375 
Q 55.515625 12.453125 46.84375 5.515625 
Q 38.1875 -1.421875 24.03125 -1.421875 
Q 18.21875 -1.421875 12.359375 -0.265625 
Q 6.5 0.875 0.59375 3.21875 
L 2.59375 13.375 
Q 8.015625 10.015625 13.453125 8.296875 
Q 18.890625 6.59375 24.3125 6.59375 
Q 33.546875 6.59375 39.109375 10.6875 
Q 44.671875 14.796875 44.671875 21.390625 
Q 44.671875 25.78125 42.453125 28.046875 
Q 40.234375 30.328125 32.90625 32.171875 
L 27 33.6875 
Q 16.890625 36.328125 13.203125 39.765625 
Q 9.515625 43.21875 9.515625 49.421875 
Q 9.515625 60.296875 17.890625 67.25 
Q 26.265625 74.21875 39.703125 74.21875 
Q 44.921875 74.21875 50.046875 73.28125 
Q 55.171875 72.359375 60.296875 70.515625 
z
" id="DejaVuSans-Oblique-83"/>
      <path d="M 16.890625 72.90625 
L 62.984375 72.90625 
L 61.375 64.59375 
L 25.09375 64.59375 
L 20.90625 43.015625 
L 55.71875 43.015625 
L 54.109375 34.71875 
L 19.28125 34.71875 
L 14.203125 8.296875 
L 51.3125 8.296875 
L 49.703125 0 
L 2.6875 0 
z
" id="DejaVuSans-Oblique-69"/>
      <path d="M 8.59375 75.984375 
L 29.296875 75.984375 
L 29.296875 69 
L 17.578125 69 
L 17.578125 -6.203125 
L 29.296875 -6.203125 
L 29.296875 -13.1875 
L 8.59375 -13.1875 
z
" id="DejaVuSans-91"/>
      <path d="M 47.796875 75.984375 
L 46.390625 68.5 
L 37.796875 68.5 
Q 32.90625 68.5 30.6875 66.578125 
Q 28.46875 64.65625 27.390625 59.515625 
L 26.421875 54.6875 
L 41.21875 54.6875 
L 39.890625 47.703125 
L 25.09375 47.703125 
L 15.828125 0 
L 6.78125 0 
L 16.109375 47.703125 
L 7.515625 47.703125 
L 8.796875 54.6875 
L 17.390625 54.6875 
L 18.109375 58.5 
Q 19.96875 68.171875 24.625 72.078125 
Q 29.296875 75.984375 39.3125 75.984375 
z
" id="DejaVuSans-Oblique-102"/>
      <path d="M 31 75.875 
Q 24.46875 64.65625 21.28125 53.65625 
Q 18.109375 42.671875 18.109375 31.390625 
Q 18.109375 20.125 21.3125 9.0625 
Q 24.515625 -2 31 -13.1875 
L 23.1875 -13.1875 
Q 15.875 -1.703125 12.234375 9.375 
Q 8.59375 20.453125 8.59375 31.390625 
Q 8.59375 42.28125 12.203125 53.3125 
Q 15.828125 64.359375 23.1875 75.875 
z
" id="DejaVuSans-40"/>
      <path d="M 60.015625 54.6875 
L 34.90625 27.875 
L 50.296875 0 
L 39.984375 0 
L 28.421875 21.6875 
L 8.296875 0 
L -2.59375 0 
L 24.3125 28.8125 
L 10.015625 54.6875 
L 20.3125 54.6875 
L 30.8125 34.90625 
L 49.125 54.6875 
z
" id="DejaVuSans-Oblique-120"/>
      <path d="M 8.015625 75.875 
L 15.828125 75.875 
Q 23.140625 64.359375 26.78125 53.3125 
Q 30.421875 42.28125 30.421875 31.390625 
Q 30.421875 20.453125 26.78125 9.375 
Q 23.140625 -1.703125 15.828125 -13.1875 
L 8.015625 -13.1875 
Q 14.5 -2 17.703125 9.0625 
Q 20.90625 20.125 20.90625 31.390625 
Q 20.90625 42.671875 17.703125 53.65625 
Q 14.5 64.65625 8.015625 75.875 
z
" id="DejaVuSans-41"/>
      <path d="M 30.421875 75.984375 
L 30.421875 -13.1875 
L 9.71875 -13.1875 
L 9.71875 -6.203125 
L 21.390625 -6.203125 
L 21.390625 69 
L 9.71875 69 
L 9.71875 75.984375 
z
" id="DejaVuSans-93"/>
     </defs>
     <g transform="translate(219.9 212.258713)scale(0.1 -0.1)">
      <use transform="translate(0 0.765625)" xlink:href="#DejaVuSans-101"/>
      <use transform="translate(61.523438 0.765625)" xlink:href="#DejaVuSans-115"/>
      <use transform="translate(113.623047 0.765625)" xlink:href="#DejaVuSans-116"/>
      <use transform="translate(152.832031 0.765625)" xlink:href="#DejaVuSans-105"/>
      <use transform="translate(180.615234 0.765625)" xlink:href="#DejaVuSans-109"/>
      <use transform="translate(278.027344 0.765625)" xlink:href="#DejaVuSans-97"/>
      <use transform="translate(339.306641 0.765625)" xlink:href="#DejaVuSans-116"/>
      <use transform="translate(378.515625 0.765625)" xlink:href="#DejaVuSans-105"/>
      <use transform="translate(406.298828 0.765625)" xlink:href="#DejaVuSans-111"/>
      <use transform="translate(467.480469 0.765625)" xlink:href="#DejaVuSans-110"/>
      <use transform="translate(530.859375 0.765625)" xlink:href="#DejaVuSans-32"/>
      <use transform="translate(562.646484 0.765625)" xlink:href="#DejaVuSans-102"/>
      <use transform="translate(597.851562 0.765625)" xlink:href="#DejaVuSans-111"/>
      <use transform="translate(659.033203 0.765625)" xlink:href="#DejaVuSans-114"/>
      <use transform="translate(700.146484 0.765625)" xlink:href="#DejaVuSans-32"/>
      <use transform="translate(731.933594 0.765625)" xlink:href="#DejaVuSans-Oblique-83"/>
      <use transform="translate(795.410156 0.765625)" xlink:href="#DejaVuSans-Oblique-69"/>
      <use transform="translate(865.610521 39.046875)scale(0.7)" xlink:href="#DejaVuSans-50"/>
      <use transform="translate(912.881029 0.765625)" xlink:href="#DejaVuSans-91"/>
      <use transform="translate(951.894701 0.765625)" xlink:href="#DejaVuSans-Oblique-102"/>
      <use transform="translate(987.099779 0.765625)" xlink:href="#DejaVuSans-40"/>
      <use transform="translate(1026.113451 0.765625)" xlink:href="#DejaVuSans-Oblique-120"/>
      <use transform="translate(1085.293138 0.765625)" xlink:href="#DejaVuSans-41"/>
      <use transform="translate(1124.30681 0.765625)" xlink:href="#DejaVuSans-93"/>
     </g>
    </g>
    <g id="line2d_20">
     <path d="M 191.9 224.9384 
L 211.9 224.9384 
" style="fill:none;stroke:#ff7f0e;stroke-linecap:square;stroke-width:1.5;"/>
    </g>
    <g id="line2d_21"/>
    <g id="text_16">
     <!-- estimation for $SE^2[f(x)q(x)/p(x)]$ -->
     <defs>
      <path d="M 41.703125 8.203125 
Q 38.09375 3.46875 33.171875 1.015625 
Q 28.265625 -1.421875 22.3125 -1.421875 
Q 14.015625 -1.421875 9.296875 4.171875 
Q 4.59375 9.765625 4.59375 19.578125 
Q 4.59375 27.484375 7.5 34.859375 
Q 10.40625 42.234375 15.828125 48.09375 
Q 19.34375 51.90625 23.90625 53.953125 
Q 28.46875 56 33.5 56 
Q 39.546875 56 43.453125 53.609375 
Q 47.359375 51.21875 49.125 46.390625 
L 50.6875 54.59375 
L 59.71875 54.59375 
L 45.125 -20.609375 
L 36.078125 -20.609375 
z
M 13.921875 20.90625 
Q 13.921875 13.671875 16.9375 9.890625 
Q 19.96875 6.109375 25.6875 6.109375 
Q 34.1875 6.109375 40.1875 14.234375 
Q 46.1875 22.359375 46.1875 33.984375 
Q 46.1875 41.015625 43.078125 44.75 
Q 39.984375 48.484375 34.1875 48.484375 
Q 29.9375 48.484375 26.3125 46.5 
Q 22.703125 44.53125 20.015625 40.71875 
Q 17.1875 36.71875 15.546875 31.34375 
Q 13.921875 25.984375 13.921875 20.90625 
z
" id="DejaVuSans-Oblique-113"/>
      <path d="M 25.390625 72.90625 
L 33.6875 72.90625 
L 8.296875 -9.28125 
L 0 -9.28125 
z
" id="DejaVuSans-47"/>
      <path d="M 49.609375 33.6875 
Q 49.609375 40.875 46.484375 44.671875 
Q 43.359375 48.484375 37.5 48.484375 
Q 33.5 48.484375 29.859375 46.4375 
Q 26.21875 44.390625 23.390625 40.484375 
Q 20.609375 36.625 18.9375 31.15625 
Q 17.28125 25.6875 17.28125 20.3125 
Q 17.28125 13.484375 20.40625 9.796875 
Q 23.53125 6.109375 29.296875 6.109375 
Q 33.546875 6.109375 37.1875 8.109375 
Q 40.828125 10.109375 43.40625 13.921875 
Q 46.1875 17.921875 47.890625 23.34375 
Q 49.609375 28.765625 49.609375 33.6875 
z
M 21.78125 46.390625 
Q 25.390625 51.125 30.296875 53.5625 
Q 35.203125 56 41.21875 56 
Q 49.609375 56 54.25 50.5 
Q 58.890625 45.015625 58.890625 35.109375 
Q 58.890625 27 56 19.65625 
Q 53.125 12.3125 47.703125 6.5 
Q 44.09375 2.640625 39.546875 0.609375 
Q 35.015625 -1.421875 29.984375 -1.421875 
Q 24.171875 -1.421875 20.21875 1 
Q 16.265625 3.421875 14.3125 8.203125 
L 8.6875 -20.796875 
L -0.296875 -20.796875 
L 14.40625 54.6875 
L 23.390625 54.6875 
z
" id="DejaVuSans-Oblique-112"/>
     </defs>
     <g transform="translate(219.9 228.4384)scale(0.1 -0.1)">
      <use transform="translate(0 0.765625)" xlink:href="#DejaVuSans-101"/>
      <use transform="translate(61.523438 0.765625)" xlink:href="#DejaVuSans-115"/>
      <use transform="translate(113.623047 0.765625)" xlink:href="#DejaVuSans-116"/>
      <use transform="translate(152.832031 0.765625)" xlink:href="#DejaVuSans-105"/>
      <use transform="translate(180.615234 0.765625)" xlink:href="#DejaVuSans-109"/>
      <use transform="translate(278.027344 0.765625)" xlink:href="#DejaVuSans-97"/>
      <use transform="translate(339.306641 0.765625)" xlink:href="#DejaVuSans-116"/>
      <use transform="translate(378.515625 0.765625)" xlink:href="#DejaVuSans-105"/>
      <use transform="translate(406.298828 0.765625)" xlink:href="#DejaVuSans-111"/>
      <use transform="translate(467.480469 0.765625)" xlink:href="#DejaVuSans-110"/>
      <use transform="translate(530.859375 0.765625)" xlink:href="#DejaVuSans-32"/>
      <use transform="translate(562.646484 0.765625)" xlink:href="#DejaVuSans-102"/>
      <use transform="translate(597.851562 0.765625)" xlink:href="#DejaVuSans-111"/>
      <use transform="translate(659.033203 0.765625)" xlink:href="#DejaVuSans-114"/>
      <use transform="translate(700.146484 0.765625)" xlink:href="#DejaVuSans-32"/>
      <use transform="translate(731.933594 0.765625)" xlink:href="#DejaVuSans-Oblique-83"/>
      <use transform="translate(795.410156 0.765625)" xlink:href="#DejaVuSans-Oblique-69"/>
      <use transform="translate(865.610521 39.046875)scale(0.7)" xlink:href="#DejaVuSans-50"/>
      <use transform="translate(912.881029 0.765625)" xlink:href="#DejaVuSans-91"/>
      <use transform="translate(951.894701 0.765625)" xlink:href="#DejaVuSans-Oblique-102"/>
      <use transform="translate(987.099779 0.765625)" xlink:href="#DejaVuSans-40"/>
      <use transform="translate(1026.113451 0.765625)" xlink:href="#DejaVuSans-Oblique-120"/>
      <use transform="translate(1085.293138 0.765625)" xlink:href="#DejaVuSans-41"/>
      <use transform="translate(1124.30681 0.765625)" xlink:href="#DejaVuSans-Oblique-113"/>
      <use transform="translate(1187.783372 0.765625)" xlink:href="#DejaVuSans-40"/>
      <use transform="translate(1226.797044 0.765625)" xlink:href="#DejaVuSans-Oblique-120"/>
      <use transform="translate(1285.976732 0.765625)" xlink:href="#DejaVuSans-41"/>
      <use transform="translate(1324.990404 0.765625)" xlink:href="#DejaVuSans-47"/>
      <use transform="translate(1358.68181 0.765625)" xlink:href="#DejaVuSans-Oblique-112"/>
      <use transform="translate(1422.158372 0.765625)" xlink:href="#DejaVuSans-40"/>
      <use transform="translate(1461.172044 0.765625)" xlink:href="#DejaVuSans-Oblique-120"/>
      <use transform="translate(1520.351732 0.765625)" xlink:href="#DejaVuSans-41"/>
      <use transform="translate(1559.365404 0.765625)" xlink:href="#DejaVuSans-93"/>
     </g>
    </g>
    <g id="line2d_22">
     <path d="M 191.9 240.458712 
L 211.9 240.458712 
" style="fill:none;stroke:#2ca02c;stroke-linecap:square;stroke-width:1.5;"/>
    </g>
    <g id="line2d_23"/>
    <g id="text_17">
     <!-- estimation for $SE^2$ (biased) -->
     <defs>
      <path d="M 48.6875 27.296875 
Q 48.6875 37.203125 44.609375 42.84375 
Q 40.53125 48.484375 33.40625 48.484375 
Q 26.265625 48.484375 22.1875 42.84375 
Q 18.109375 37.203125 18.109375 27.296875 
Q 18.109375 17.390625 22.1875 11.75 
Q 26.265625 6.109375 33.40625 6.109375 
Q 40.53125 6.109375 44.609375 11.75 
Q 48.6875 17.390625 48.6875 27.296875 
z
M 18.109375 46.390625 
Q 20.953125 51.265625 25.265625 53.625 
Q 29.59375 56 35.59375 56 
Q 45.5625 56 51.78125 48.09375 
Q 58.015625 40.1875 58.015625 27.296875 
Q 58.015625 14.40625 51.78125 6.484375 
Q 45.5625 -1.421875 35.59375 -1.421875 
Q 29.59375 -1.421875 25.265625 0.953125 
Q 20.953125 3.328125 18.109375 8.203125 
L 18.109375 0 
L 9.078125 0 
L 9.078125 75.984375 
L 18.109375 75.984375 
z
" id="DejaVuSans-98"/>
      <path d="M 45.40625 46.390625 
L 45.40625 75.984375 
L 54.390625 75.984375 
L 54.390625 0 
L 45.40625 0 
L 45.40625 8.203125 
Q 42.578125 3.328125 38.25 0.953125 
Q 33.9375 -1.421875 27.875 -1.421875 
Q 17.96875 -1.421875 11.734375 6.484375 
Q 5.515625 14.40625 5.515625 27.296875 
Q 5.515625 40.1875 11.734375 48.09375 
Q 17.96875 56 27.875 56 
Q 33.9375 56 38.25 53.625 
Q 42.578125 51.265625 45.40625 46.390625 
z
M 14.796875 27.296875 
Q 14.796875 17.390625 18.875 11.75 
Q 22.953125 6.109375 30.078125 6.109375 
Q 37.203125 6.109375 41.296875 11.75 
Q 45.40625 17.390625 45.40625 27.296875 
Q 45.40625 37.203125 41.296875 42.84375 
Q 37.203125 48.484375 30.078125 48.484375 
Q 22.953125 48.484375 18.875 42.84375 
Q 14.796875 37.203125 14.796875 27.296875 
z
" id="DejaVuSans-100"/>
     </defs>
     <g transform="translate(219.9 243.958712)scale(0.1 -0.1)">
      <use transform="translate(0 0.765625)" xlink:href="#DejaVuSans-101"/>
      <use transform="translate(61.523438 0.765625)" xlink:href="#DejaVuSans-115"/>
      <use transform="translate(113.623047 0.765625)" xlink:href="#DejaVuSans-116"/>
      <use transform="translate(152.832031 0.765625)" xlink:href="#DejaVuSans-105"/>
      <use transform="translate(180.615234 0.765625)" xlink:href="#DejaVuSans-109"/>
      <use transform="translate(278.027344 0.765625)" xlink:href="#DejaVuSans-97"/>
      <use transform="translate(339.306641 0.765625)" xlink:href="#DejaVuSans-116"/>
      <use transform="translate(378.515625 0.765625)" xlink:href="#DejaVuSans-105"/>
      <use transform="translate(406.298828 0.765625)" xlink:href="#DejaVuSans-111"/>
      <use transform="translate(467.480469 0.765625)" xlink:href="#DejaVuSans-110"/>
      <use transform="translate(530.859375 0.765625)" xlink:href="#DejaVuSans-32"/>
      <use transform="translate(562.646484 0.765625)" xlink:href="#DejaVuSans-102"/>
      <use transform="translate(597.851562 0.765625)" xlink:href="#DejaVuSans-111"/>
      <use transform="translate(659.033203 0.765625)" xlink:href="#DejaVuSans-114"/>
      <use transform="translate(700.146484 0.765625)" xlink:href="#DejaVuSans-32"/>
      <use transform="translate(731.933594 0.765625)" xlink:href="#DejaVuSans-Oblique-83"/>
      <use transform="translate(795.410156 0.765625)" xlink:href="#DejaVuSans-Oblique-69"/>
      <use transform="translate(865.610521 39.046875)scale(0.7)" xlink:href="#DejaVuSans-50"/>
      <use transform="translate(912.881029 0.765625)" xlink:href="#DejaVuSans-32"/>
      <use transform="translate(944.668138 0.765625)" xlink:href="#DejaVuSans-40"/>
      <use transform="translate(983.68181 0.765625)" xlink:href="#DejaVuSans-98"/>
      <use transform="translate(1047.158372 0.765625)" xlink:href="#DejaVuSans-105"/>
      <use transform="translate(1074.941576 0.765625)" xlink:href="#DejaVuSans-97"/>
      <use transform="translate(1136.220872 0.765625)" xlink:href="#DejaVuSans-115"/>
      <use transform="translate(1188.320482 0.765625)" xlink:href="#DejaVuSans-101"/>
      <use transform="translate(1249.843919 0.765625)" xlink:href="#DejaVuSans-100"/>
      <use transform="translate(1313.320482 0.765625)" xlink:href="#DejaVuSans-41"/>
     </g>
    </g>
   </g>
  </g>
 </g>
 <defs>
  <clipPath id="p848752e0f5">
   <rect height="220.6512" width="334.8" x="54" y="34.3872"/>
  </clipPath>
 </defs>
</svg>
