<?xml version="1.0" encoding="utf-8" standalone="no"?>
<!DOCTYPE svg PUBLIC "-//W3C//DTD SVG 1.1//EN"
  "http://www.w3.org/Graphics/SVG/1.1/DTD/svg11.dtd">
<!-- Created with matplotlib (https://matplotlib.org/) -->
<svg height="286.56pt" version="1.1" viewBox="0 0 432 286.56" width="432pt" xmlns="http://www.w3.org/2000/svg" xmlns:xlink="http://www.w3.org/1999/xlink">
 <defs>
  <style type="text/css">
*{stroke-linecap:butt;stroke-linejoin:round;}
  </style>
 </defs>
 <g id="figure_1">
  <g id="patch_1">
   <path d="M 0 286.56 
L 432 286.56 
L 432 0 
L 0 0 
z
" style="fill:#ffffff;"/>
  </g>
  <g id="axes_1">
   <g id="patch_2">
    <path d="M 54 255.0384 
L 388.8 255.0384 
L 388.8 34.3872 
L 54 34.3872 
z
" style="fill:#ffffff;"/>
   </g>
   <g id="matplotlib.axis_1">
    <g id="xtick_1">
     <g id="line2d_1">
      <defs>
       <path d="M 0 0 
L 0 3.5 
" id="m8267851cc0" style="stroke:#000000;stroke-width:0.8;"/>
      </defs>
      <g>
       <use style="stroke:#000000;stroke-width:0.8;" x="69.218182" xlink:href="#m8267851cc0" y="255.0384"/>
      </g>
     </g>
     <g id="text_1">
      <!-- 0 -->
      <defs>
       <path d="M 31.78125 66.40625 
Q 24.171875 66.40625 20.328125 58.90625 
Q 16.5 51.421875 16.5 36.375 
Q 16.5 21.390625 20.328125 13.890625 
Q 24.171875 6.390625 31.78125 6.390625 
Q 39.453125 6.390625 43.28125 13.890625 
Q 47.125 21.390625 47.125 36.375 
Q 47.125 51.421875 43.28125 58.90625 
Q 39.453125 66.40625 31.78125 66.40625 
z
M 31.78125 74.21875 
Q 44.046875 74.21875 50.515625 64.515625 
Q 56.984375 54.828125 56.984375 36.375 
Q 56.984375 17.96875 50.515625 8.265625 
Q 44.046875 -1.421875 31.78125 -1.421875 
Q 19.53125 -1.421875 13.0625 8.265625 
Q 6.59375 17.96875 6.59375 36.375 
Q 6.59375 54.828125 13.0625 64.515625 
Q 19.53125 74.21875 31.78125 74.21875 
z
" id="DejaVuSans-48"/>
      </defs>
      <g transform="translate(66.036932 269.636838)scale(0.1 -0.1)">
       <use xlink:href="#DejaVuSans-48"/>
      </g>
     </g>
    </g>
    <g id="xtick_2">
     <g id="line2d_2">
      <g>
       <use style="stroke:#000000;stroke-width:0.8;" x="130.103086" xlink:href="#m8267851cc0" y="255.0384"/>
      </g>
     </g>
     <g id="text_2">
      <!-- 2000 -->
      <defs>
       <path d="M 19.1875 8.296875 
L 53.609375 8.296875 
L 53.609375 0 
L 7.328125 0 
L 7.328125 8.296875 
Q 12.9375 14.109375 22.625 23.890625 
Q 32.328125 33.6875 34.8125 36.53125 
Q 39.546875 41.84375 41.421875 45.53125 
Q 43.3125 49.21875 43.3125 52.78125 
Q 43.3125 58.59375 39.234375 62.25 
Q 35.15625 65.921875 28.609375 65.921875 
Q 23.96875 65.921875 18.8125 64.3125 
Q 13.671875 62.703125 7.8125 59.421875 
L 7.8125 69.390625 
Q 13.765625 71.78125 18.9375 73 
Q 24.125 74.21875 28.421875 74.21875 
Q 39.75 74.21875 46.484375 68.546875 
Q 53.21875 62.890625 53.21875 53.421875 
Q 53.21875 48.921875 51.53125 44.890625 
Q 49.859375 40.875 45.40625 35.40625 
Q 44.1875 33.984375 37.640625 27.21875 
Q 31.109375 20.453125 19.1875 8.296875 
z
" id="DejaVuSans-50"/>
      </defs>
      <g transform="translate(117.378086 269.636838)scale(0.1 -0.1)">
       <use xlink:href="#DejaVuSans-50"/>
       <use x="63.623047" xlink:href="#DejaVuSans-48"/>
       <use x="127.246094" xlink:href="#DejaVuSans-48"/>
       <use x="190.869141" xlink:href="#DejaVuSans-48"/>
      </g>
     </g>
    </g>
    <g id="xtick_3">
     <g id="line2d_3">
      <g>
       <use style="stroke:#000000;stroke-width:0.8;" x="190.98799" xlink:href="#m8267851cc0" y="255.0384"/>
      </g>
     </g>
     <g id="text_3">
      <!-- 4000 -->
      <defs>
       <path d="M 37.796875 64.3125 
L 12.890625 25.390625 
L 37.796875 25.390625 
z
M 35.203125 72.90625 
L 47.609375 72.90625 
L 47.609375 25.390625 
L 58.015625 25.390625 
L 58.015625 17.1875 
L 47.609375 17.1875 
L 47.609375 0 
L 37.796875 0 
L 37.796875 17.1875 
L 4.890625 17.1875 
L 4.890625 26.703125 
z
" id="DejaVuSans-52"/>
      </defs>
      <g transform="translate(178.26299 269.636838)scale(0.1 -0.1)">
       <use xlink:href="#DejaVuSans-52"/>
       <use x="63.623047" xlink:href="#DejaVuSans-48"/>
       <use x="127.246094" xlink:href="#DejaVuSans-48"/>
       <use x="190.869141" xlink:href="#DejaVuSans-48"/>
      </g>
     </g>
    </g>
    <g id="xtick_4">
     <g id="line2d_4">
      <g>
       <use style="stroke:#000000;stroke-width:0.8;" x="251.872895" xlink:href="#m8267851cc0" y="255.0384"/>
      </g>
     </g>
     <g id="text_4">
      <!-- 6000 -->
      <defs>
       <path d="M 33.015625 40.375 
Q 26.375 40.375 22.484375 35.828125 
Q 18.609375 31.296875 18.609375 23.390625 
Q 18.609375 15.53125 22.484375 10.953125 
Q 26.375 6.390625 33.015625 6.390625 
Q 39.65625 6.390625 43.53125 10.953125 
Q 47.40625 15.53125 47.40625 23.390625 
Q 47.40625 31.296875 43.53125 35.828125 
Q 39.65625 40.375 33.015625 40.375 
z
M 52.59375 71.296875 
L 52.59375 62.3125 
Q 48.875 64.0625 45.09375 64.984375 
Q 41.3125 65.921875 37.59375 65.921875 
Q 27.828125 65.921875 22.671875 59.328125 
Q 17.53125 52.734375 16.796875 39.40625 
Q 19.671875 43.65625 24.015625 45.921875 
Q 28.375 48.1875 33.59375 48.1875 
Q 44.578125 48.1875 50.953125 41.515625 
Q 57.328125 34.859375 57.328125 23.390625 
Q 57.328125 12.15625 50.6875 5.359375 
Q 44.046875 -1.421875 33.015625 -1.421875 
Q 20.359375 -1.421875 13.671875 8.265625 
Q 6.984375 17.96875 6.984375 36.375 
Q 6.984375 53.65625 15.1875 63.9375 
Q 23.390625 74.21875 37.203125 74.21875 
Q 40.921875 74.21875 44.703125 73.484375 
Q 48.484375 72.75 52.59375 71.296875 
z
" id="DejaVuSans-54"/>
      </defs>
      <g transform="translate(239.147895 269.636838)scale(0.1 -0.1)">
       <use xlink:href="#DejaVuSans-54"/>
       <use x="63.623047" xlink:href="#DejaVuSans-48"/>
       <use x="127.246094" xlink:href="#DejaVuSans-48"/>
       <use x="190.869141" xlink:href="#DejaVuSans-48"/>
      </g>
     </g>
    </g>
    <g id="xtick_5">
     <g id="line2d_5">
      <g>
       <use style="stroke:#000000;stroke-width:0.8;" x="312.757799" xlink:href="#m8267851cc0" y="255.0384"/>
      </g>
     </g>
     <g id="text_5">
      <!-- 8000 -->
      <defs>
       <path d="M 31.78125 34.625 
Q 24.75 34.625 20.71875 30.859375 
Q 16.703125 27.09375 16.703125 20.515625 
Q 16.703125 13.921875 20.71875 10.15625 
Q 24.75 6.390625 31.78125 6.390625 
Q 38.8125 6.390625 42.859375 10.171875 
Q 46.921875 13.96875 46.921875 20.515625 
Q 46.921875 27.09375 42.890625 30.859375 
Q 38.875 34.625 31.78125 34.625 
z
M 21.921875 38.8125 
Q 15.578125 40.375 12.03125 44.71875 
Q 8.5 49.078125 8.5 55.328125 
Q 8.5 64.0625 14.71875 69.140625 
Q 20.953125 74.21875 31.78125 74.21875 
Q 42.671875 74.21875 48.875 69.140625 
Q 55.078125 64.0625 55.078125 55.328125 
Q 55.078125 49.078125 51.53125 44.71875 
Q 48 40.375 41.703125 38.8125 
Q 48.828125 37.15625 52.796875 32.3125 
Q 56.78125 27.484375 56.78125 20.515625 
Q 56.78125 9.90625 50.3125 4.234375 
Q 43.84375 -1.421875 31.78125 -1.421875 
Q 19.734375 -1.421875 13.25 4.234375 
Q 6.78125 9.90625 6.78125 20.515625 
Q 6.78125 27.484375 10.78125 32.3125 
Q 14.796875 37.15625 21.921875 38.8125 
z
M 18.3125 54.390625 
Q 18.3125 48.734375 21.84375 45.5625 
Q 25.390625 42.390625 31.78125 42.390625 
Q 38.140625 42.390625 41.71875 45.5625 
Q 45.3125 48.734375 45.3125 54.390625 
Q 45.3125 60.0625 41.71875 63.234375 
Q 38.140625 66.40625 31.78125 66.40625 
Q 25.390625 66.40625 21.84375 63.234375 
Q 18.3125 60.0625 18.3125 54.390625 
z
" id="DejaVuSans-56"/>
      </defs>
      <g transform="translate(300.032799 269.636838)scale(0.1 -0.1)">
       <use xlink:href="#DejaVuSans-56"/>
       <use x="63.623047" xlink:href="#DejaVuSans-48"/>
       <use x="127.246094" xlink:href="#DejaVuSans-48"/>
       <use x="190.869141" xlink:href="#DejaVuSans-48"/>
      </g>
     </g>
    </g>
    <g id="xtick_6">
     <g id="line2d_6">
      <g>
       <use style="stroke:#000000;stroke-width:0.8;" x="373.642703" xlink:href="#m8267851cc0" y="255.0384"/>
      </g>
     </g>
     <g id="text_6">
      <!-- 10000 -->
      <defs>
       <path d="M 12.40625 8.296875 
L 28.515625 8.296875 
L 28.515625 63.921875 
L 10.984375 60.40625 
L 10.984375 69.390625 
L 28.421875 72.90625 
L 38.28125 72.90625 
L 38.28125 8.296875 
L 54.390625 8.296875 
L 54.390625 0 
L 12.40625 0 
z
" id="DejaVuSans-49"/>
      </defs>
      <g transform="translate(357.736453 269.636838)scale(0.1 -0.1)">
       <use xlink:href="#DejaVuSans-49"/>
       <use x="63.623047" xlink:href="#DejaVuSans-48"/>
       <use x="127.246094" xlink:href="#DejaVuSans-48"/>
       <use x="190.869141" xlink:href="#DejaVuSans-48"/>
       <use x="254.492188" xlink:href="#DejaVuSans-48"/>
      </g>
     </g>
    </g>
   </g>
   <g id="matplotlib.axis_2">
    <g id="ytick_1">
     <g id="line2d_7">
      <defs>
       <path d="M 0 0 
L -3.5 0 
" id="m034149fb1c" style="stroke:#000000;stroke-width:0.8;"/>
      </defs>
      <g>
       <use style="stroke:#000000;stroke-width:0.8;" x="54" xlink:href="#m034149fb1c" y="247.920619"/>
      </g>
     </g>
     <g id="text_7">
      <!-- 0.00 -->
      <defs>
       <path d="M 10.6875 12.40625 
L 21 12.40625 
L 21 0 
L 10.6875 0 
z
" id="DejaVuSans-46"/>
      </defs>
      <g transform="translate(24.734375 251.719838)scale(0.1 -0.1)">
       <use xlink:href="#DejaVuSans-48"/>
       <use x="63.623047" xlink:href="#DejaVuSans-46"/>
       <use x="95.410156" xlink:href="#DejaVuSans-48"/>
       <use x="159.033203" xlink:href="#DejaVuSans-48"/>
      </g>
     </g>
    </g>
    <g id="ytick_2">
     <g id="line2d_8">
      <g>
       <use style="stroke:#000000;stroke-width:0.8;" x="54" xlink:href="#m034149fb1c" y="212.331716"/>
      </g>
     </g>
     <g id="text_8">
      <!-- 0.05 -->
      <defs>
       <path d="M 10.796875 72.90625 
L 49.515625 72.90625 
L 49.515625 64.59375 
L 19.828125 64.59375 
L 19.828125 46.734375 
Q 21.96875 47.46875 24.109375 47.828125 
Q 26.265625 48.1875 28.421875 48.1875 
Q 40.625 48.1875 47.75 41.5 
Q 54.890625 34.8125 54.890625 23.390625 
Q 54.890625 11.625 47.5625 5.09375 
Q 40.234375 -1.421875 26.90625 -1.421875 
Q 22.3125 -1.421875 17.546875 -0.640625 
Q 12.796875 0.140625 7.71875 1.703125 
L 7.71875 11.625 
Q 12.109375 9.234375 16.796875 8.0625 
Q 21.484375 6.890625 26.703125 6.890625 
Q 35.15625 6.890625 40.078125 11.328125 
Q 45.015625 15.765625 45.015625 23.390625 
Q 45.015625 31 40.078125 35.4375 
Q 35.15625 39.890625 26.703125 39.890625 
Q 22.75 39.890625 18.8125 39.015625 
Q 14.890625 38.140625 10.796875 36.28125 
z
" id="DejaVuSans-53"/>
      </defs>
      <g transform="translate(24.734375 216.130935)scale(0.1 -0.1)">
       <use xlink:href="#DejaVuSans-48"/>
       <use x="63.623047" xlink:href="#DejaVuSans-46"/>
       <use x="95.410156" xlink:href="#DejaVuSans-48"/>
       <use x="159.033203" xlink:href="#DejaVuSans-53"/>
      </g>
     </g>
    </g>
    <g id="ytick_3">
     <g id="line2d_9">
      <g>
       <use style="stroke:#000000;stroke-width:0.8;" x="54" xlink:href="#m034149fb1c" y="176.742813"/>
      </g>
     </g>
     <g id="text_9">
      <!-- 0.10 -->
      <g transform="translate(24.734375 180.542032)scale(0.1 -0.1)">
       <use xlink:href="#DejaVuSans-48"/>
       <use x="63.623047" xlink:href="#DejaVuSans-46"/>
       <use x="95.410156" xlink:href="#DejaVuSans-49"/>
       <use x="159.033203" xlink:href="#DejaVuSans-48"/>
      </g>
     </g>
    </g>
    <g id="ytick_4">
     <g id="line2d_10">
      <g>
       <use style="stroke:#000000;stroke-width:0.8;" x="54" xlink:href="#m034149fb1c" y="141.15391"/>
      </g>
     </g>
     <g id="text_10">
      <!-- 0.15 -->
      <g transform="translate(24.734375 144.953128)scale(0.1 -0.1)">
       <use xlink:href="#DejaVuSans-48"/>
       <use x="63.623047" xlink:href="#DejaVuSans-46"/>
       <use x="95.410156" xlink:href="#DejaVuSans-49"/>
       <use x="159.033203" xlink:href="#DejaVuSans-53"/>
      </g>
     </g>
    </g>
    <g id="ytick_5">
     <g id="line2d_11">
      <g>
       <use style="stroke:#000000;stroke-width:0.8;" x="54" xlink:href="#m034149fb1c" y="105.565006"/>
      </g>
     </g>
     <g id="text_11">
      <!-- 0.20 -->
      <g transform="translate(24.734375 109.364225)scale(0.1 -0.1)">
       <use xlink:href="#DejaVuSans-48"/>
       <use x="63.623047" xlink:href="#DejaVuSans-46"/>
       <use x="95.410156" xlink:href="#DejaVuSans-50"/>
       <use x="159.033203" xlink:href="#DejaVuSans-48"/>
      </g>
     </g>
    </g>
    <g id="ytick_6">
     <g id="line2d_12">
      <g>
       <use style="stroke:#000000;stroke-width:0.8;" x="54" xlink:href="#m034149fb1c" y="69.976103"/>
      </g>
     </g>
     <g id="text_12">
      <!-- 0.25 -->
      <g transform="translate(24.734375 73.775322)scale(0.1 -0.1)">
       <use xlink:href="#DejaVuSans-48"/>
       <use x="63.623047" xlink:href="#DejaVuSans-46"/>
       <use x="95.410156" xlink:href="#DejaVuSans-50"/>
       <use x="159.033203" xlink:href="#DejaVuSans-53"/>
      </g>
     </g>
    </g>
    <g id="ytick_7">
     <g id="line2d_13">
      <g>
       <use style="stroke:#000000;stroke-width:0.8;" x="54" xlink:href="#m034149fb1c" y="34.3872"/>
      </g>
     </g>
     <g id="text_13">
      <!-- 0.30 -->
      <defs>
       <path d="M 40.578125 39.3125 
Q 47.65625 37.796875 51.625 33 
Q 55.609375 28.21875 55.609375 21.1875 
Q 55.609375 10.40625 48.1875 4.484375 
Q 40.765625 -1.421875 27.09375 -1.421875 
Q 22.515625 -1.421875 17.65625 -0.515625 
Q 12.796875 0.390625 7.625 2.203125 
L 7.625 11.71875 
Q 11.71875 9.328125 16.59375 8.109375 
Q 21.484375 6.890625 26.8125 6.890625 
Q 36.078125 6.890625 40.9375 10.546875 
Q 45.796875 14.203125 45.796875 21.1875 
Q 45.796875 27.640625 41.28125 31.265625 
Q 36.765625 34.90625 28.71875 34.90625 
L 20.21875 34.90625 
L 20.21875 43.015625 
L 29.109375 43.015625 
Q 36.375 43.015625 40.234375 45.921875 
Q 44.09375 48.828125 44.09375 54.296875 
Q 44.09375 59.90625 40.109375 62.90625 
Q 36.140625 65.921875 28.71875 65.921875 
Q 24.65625 65.921875 20.015625 65.03125 
Q 15.375 64.15625 9.8125 62.3125 
L 9.8125 71.09375 
Q 15.4375 72.65625 20.34375 73.4375 
Q 25.25 74.21875 29.59375 74.21875 
Q 40.828125 74.21875 47.359375 69.109375 
Q 53.90625 64.015625 53.90625 55.328125 
Q 53.90625 49.265625 50.4375 45.09375 
Q 46.96875 40.921875 40.578125 39.3125 
z
" id="DejaVuSans-51"/>
      </defs>
      <g transform="translate(24.734375 38.186419)scale(0.1 -0.1)">
       <use xlink:href="#DejaVuSans-48"/>
       <use x="63.623047" xlink:href="#DejaVuSans-46"/>
       <use x="95.410156" xlink:href="#DejaVuSans-51"/>
       <use x="159.033203" xlink:href="#DejaVuSans-48"/>
      </g>
     </g>
    </g>
   </g>
   <g id="line2d_14">
    <path clip-path="url(#p6b5c8389a1)" d="M 69.218182 130.117525 
L 69.248624 138.861016 
L 69.256783 -1 
M 69.319881 -1 
L 69.461721 160.3113 
L 69.492164 116.113582 
L 69.553049 163.483905 
L 69.583491 163.691551 
L 69.674819 189.209823 
L 69.705261 158.112277 
L 69.766146 174.858542 
L 69.918358 198.301463 
L 69.948801 193.126172 
L 70.009686 198.988459 
L 70.222783 212.765081 
L 70.527207 227.897687 
L 70.55765 226.832898 
L 70.618535 228.219132 
L 70.892517 233.556019 
L 71.105614 235.051275 
L 71.166499 235.838793 
L 71.196941 234.164373 
L 71.288269 235.239423 
L 71.653578 238.25502 
L 71.897118 239.093542 
L 71.92756 239.03715 
L 71.958003 239.126354 
L 72.140657 239.94736 
L 72.566852 241.739761 
L 72.597294 241.672239 
L 72.658179 241.753684 
L 73.754107 243.536638 
L 73.967204 243.669509 
L 74.332514 244.006561 
L 74.484726 244.112885 
L 74.850035 244.43577 
L 75.15446 244.609897 
L 75.184902 244.305832 
L 75.27623 244.410319 
L 75.580654 244.529423 
L 76.037291 244.750063 
L 76.250388 244.801508 
L 76.52437 244.916285 
L 76.950565 245.040159 
L 77.437644 245.26386 
L 77.863838 245.439816 
L 77.894281 245.338748 
L 77.985608 245.366972 
L 78.472687 245.495584 
L 81.334278 246.173968 
L 82.064897 246.236647 
L 82.217109 246.218887 
L 86.783477 246.702896 
L 89.036218 246.831574 
L 91.441172 246.973007 
L 92.202233 247.009637 
L 95.185593 247.127713 
L 95.733558 247.143253 
L 99.660634 247.242682 
L 106.357973 247.340765 
L 108.823812 247.374602 
L 116.221328 247.467598 
L 119.052476 247.501033 
L 142.614934 247.632297 
L 219.147259 247.781205 
L 350.354227 247.845729 
L 373.581818 247.851632 
L 373.581818 247.851632 
" style="fill:none;stroke:#1f77b4;stroke-linecap:square;stroke-width:1.5;"/>
   </g>
   <g id="line2d_15">
    <path clip-path="url(#p6b5c8389a1)" d="M 69.258796 -1 
L 69.400837 180.219352 
L 69.583491 208.504717 
L 69.857473 229.56697 
L 69.918358 228.359402 
L 70.009686 231.232237 
L 70.040128 229.567467 
L 70.101013 230.945755 
L 70.405437 235.819809 
L 70.801189 239.694213 
L 70.892517 240.239991 
L 70.922959 239.845608 
L 70.953402 239.054935 
L 71.014286 239.434148 
L 71.136056 239.944505 
L 71.257826 239.28967 
L 71.562251 240.660108 
L 71.653578 240.76516 
L 71.68402 240.542319 
L 71.744905 240.80801 
L 71.775348 240.558978 
L 72.04933 241.392522 
L 72.140657 241.17497 
L 72.1711 241.262897 
L 72.231985 241.396786 
L 72.292869 241.297999 
L 72.688621 242.335409 
L 72.901719 242.810227 
L 72.932161 242.675357 
L 73.053931 242.46078 
L 73.66278 243.559851 
L 73.875877 243.815616 
L 73.906319 243.765144 
L 74.149859 243.920561 
L 75.124018 244.733932 
L 75.702424 245.058277 
L 76.189503 245.304207 
L 76.341716 245.282514 
L 76.676583 245.407312 
L 76.798352 245.410617 
L 76.920122 245.424166 
L 77.924723 245.764147 
L 78.046493 245.763746 
L 78.411802 245.788952 
L 78.564015 245.815729 
L 79.081536 245.880267 
L 79.325076 245.912008 
L 80.542774 246.122234 
L 80.786314 246.143481 
L 81.547375 246.201159 
L 81.73003 246.21981 
L 82.643303 246.345059 
L 82.917285 246.371549 
L 83.952329 246.498375 
L 84.195868 246.509962 
L 85.261354 246.583621 
L 85.687548 246.603361 
L 88.214272 246.805244 
L 88.670909 246.80883 
L 92.476215 247.000396 
L 97.25568 247.174395 
L 101.334969 247.255238 
L 109.341334 247.386211 
L 112.294252 247.420328 
L 120.97035 247.50798 
L 137.22662 247.60674 
L 146.42024 247.642233 
L 186.63472 247.737211 
L 271.508276 247.812701 
L 373.581818 247.848676 
L 373.581818 247.848676 
" style="fill:none;stroke:#ff7f0e;stroke-linecap:square;stroke-width:1.5;"/>
   </g>
   <g id="line2d_16">
    <path clip-path="url(#p6b5c8389a1)" d="M 84.395599 -1 
L 84.71339 8.054352 
L 84.774275 7.72085 
L 84.804717 7.540638 
L 84.896045 10.967112 
L 84.95693 10.656277 
L 85.017814 10.340774 
L 85.413566 19.887153 
L 85.504894 23.039963 
L 85.535336 22.79526 
L 85.565779 22.951526 
L 85.778876 27.404562 
L 85.809318 27.158038 
L 85.839761 27.081822 
L 86.052858 29.267798 
L 86.0833 29.076842 
L 86.235513 31.979919 
L 86.265955 31.859675 
L 86.32684 31.507906 
L 86.357282 31.532461 
L 86.387725 35.0299 
L 86.479052 34.917637 
L 86.600822 34.322326 
L 86.631264 34.503339 
L 87.240113 47.794928 
L 87.270556 47.691387 
L 87.300998 47.496692 
L 87.544538 50.982416 
L 87.57498 50.785565 
L 87.635865 51.933887 
L 87.727193 51.49141 
L 87.81852 52.973841 
L 87.94029 52.452628 
L 88.06206 52.07273 
L 88.244714 54.772405 
L 88.336042 54.34934 
L 88.640466 61.24606 
L 88.823121 60.512659 
L 89.036218 64.191111 
L 89.066661 64.179326 
L 89.218873 66.806423 
L 89.249315 66.708941 
L 89.279758 66.752523 
L 89.340643 67.338256 
L 89.401528 67.128631 
L 89.43197 67.078313 
L 89.584182 68.513172 
L 89.67551 68.296058 
L 89.858164 67.765914 
L 89.888607 67.765816 
L 89.979934 68.523576 
L 90.040819 68.301887 
L 90.071262 68.187793 
L 90.223474 73.434697 
L 90.253916 73.379863 
L 90.314801 74.077666 
L 90.375686 73.891177 
L 90.771438 80.204915 
L 90.832323 81.336004 
L 90.893208 81.149553 
L 90.92365 81.01533 
L 90.954093 81.469845 
L 91.014978 81.262905 
L 91.04542 81.150183 
L 91.228075 84.741495 
L 91.258517 84.631611 
L 91.349845 85.987064 
L 91.380287 85.890367 
L 91.502057 85.467601 
L 91.623827 88.91918 
L 91.654269 88.816384 
L 91.745596 91.612665 
L 91.806481 91.598495 
L 91.958694 93.253964 
L 91.989136 93.159987 
L 92.080463 93.612437 
L 92.171791 93.474569 
L 92.324003 96.011433 
L 92.384888 96.213866 
L 92.445773 96.14489 
L 92.597985 97.783305 
L 92.719755 98.473483 
L 92.750197 98.407317 
L 92.811082 98.24977 
L 92.932852 99.167087 
L 92.993737 98.94084 
L 93.054622 98.73218 
L 93.328604 102.212292 
L 93.359046 102.107396 
L 93.572144 103.125657 
L 93.693913 104.345659 
L 93.754798 104.152822 
L 93.90701 106.254067 
L 93.998338 105.972541 
L 94.120108 108.302991 
L 94.15055 108.200186 
L 94.241877 108.137356 
L 94.39409 109.257598 
L 94.424532 109.185663 
L 94.485417 108.986861 
L 94.51586 109.024986 
L 94.637629 109.706914 
L 94.789842 111.782699 
L 95.002939 112.618019 
L 95.033381 112.521519 
L 95.246478 113.801386 
L 95.307363 113.663561 
L 95.337806 113.703211 
L 95.429133 115.864242 
L 95.581345 115.781126 
L 95.703115 115.512367 
L 95.733558 115.605498 
L 95.764 115.63291 
L 95.794443 115.584455 
L 95.946655 116.443253 
L 95.977097 116.528006 
L 96.037982 116.383913 
L 96.159752 118.100586 
L 96.190194 118.086588 
L 96.342407 118.405595 
L 96.433734 118.644625 
L 96.890371 123.594778 
L 96.920813 123.540286 
L 97.13391 123.271225 
L 97.316565 122.970464 
L 97.529662 123.665396 
L 97.560105 123.584249 
L 97.712317 124.446332 
L 97.742759 124.376285 
L 97.803644 125.056808 
L 97.864529 124.981563 
L 97.925414 125.271698 
L 97.955857 125.204591 
L 98.108069 126.48076 
L 98.138511 126.43307 
L 98.260281 129.077142 
L 98.290724 129.001076 
L 98.382051 128.965483 
L 98.412493 129.01203 
L 98.656033 131.225328 
L 98.716918 131.176156 
L 98.899573 130.998484 
L 99.11267 132.550095 
L 99.143112 132.487769 
L 99.173555 132.422089 
L 99.356209 134.204785 
L 99.386652 134.143754 
L 99.417094 134.108566 
L 99.599749 136.561272 
L 99.691076 136.383488 
L 99.873731 137.206522 
L 99.965058 137.14372 
L 100.299925 139.429032 
L 100.36081 139.506403 
L 100.48258 139.569845 
L 100.543465 139.440146 
L 100.72612 140.631982 
L 100.817447 140.509773 
L 101.213199 142.499665 
L 101.243641 143.337083 
L 101.334969 143.272577 
L 101.365411 143.226764 
L 101.487181 143.969287 
L 101.548066 143.873526 
L 101.822048 145.117092 
L 101.943818 145.017823 
L 102.126473 145.583476 
L 102.156915 145.573146 
L 102.309127 146.368626 
L 102.33957 146.329291 
L 102.370012 146.383059 
L 102.46134 146.677793 
L 102.522224 146.567749 
L 102.613552 146.553512 
L 102.643994 146.792085 
L 102.735322 146.736977 
L 102.826649 146.632659 
L 103.009304 149.024074 
L 103.039746 148.976138 
L 103.222401 149.800034 
L 103.252843 149.778687 
L 103.344171 149.771521 
L 103.405056 149.725725 
L 103.46594 151.130148 
L 103.557268 151.010337 
L 103.648595 150.906614 
L 103.739923 151.745375 
L 103.770365 151.713624 
L 103.922577 151.517342 
L 103.95302 151.553043 
L 104.135674 152.223173 
L 104.227002 152.091581 
L 104.379214 152.709393 
L 104.409656 152.663141 
L 104.653196 152.489198 
L 104.774966 152.827361 
L 104.805408 152.789107 
L 104.866293 152.742291 
L 104.957621 152.995659 
L 104.988063 152.972022 
L 105.018506 152.930282 
L 105.048948 153.026959 
L 105.292488 153.800697 
L 105.4447 153.64289 
L 105.56647 154.146553 
L 105.596912 154.137791 
L 105.657797 154.072244 
L 105.779567 154.48845 
L 105.810009 154.44106 
L 105.962222 154.237488 
L 105.992664 154.30971 
L 106.053549 154.502591 
L 106.114434 154.434505 
L 106.205761 154.310592 
L 106.236204 154.37405 
L 106.723283 156.398926 
L 106.753725 156.357638 
L 106.784168 156.386707 
L 106.875495 157.212453 
L 106.93638 157.128518 
L 107.119035 157.546131 
L 107.149477 157.564392 
L 107.332132 158.044676 
L 107.362574 158.045248 
L 107.545229 158.569176 
L 107.575671 158.595664 
L 107.940981 160.280357 
L 108.001866 160.198945 
L 108.032308 160.23829 
L 108.062751 160.412932 
L 108.154078 160.312635 
L 108.184521 160.270799 
L 108.214963 160.395328 
L 108.367175 160.93179 
L 108.397618 160.893586 
L 108.488945 160.77985 
L 108.54983 160.832759 
L 109.006467 162.781324 
L 109.036909 162.744133 
L 109.189121 162.680046 
L 109.310891 162.647838 
L 109.341334 162.614445 
L 109.463104 162.978148 
L 109.493546 162.966456 
L 109.523988 162.958284 
L 109.676201 163.206815 
L 109.706643 163.207827 
L 109.737086 163.69541 
L 109.828413 163.677128 
L 109.889298 163.627411 
L 110.04151 164.037938 
L 110.132837 164.033432 
L 110.16328 164.519514 
L 110.254607 164.422292 
L 110.376377 164.79566 
L 110.40682 164.760056 
L 110.559032 164.68285 
L 110.833014 165.89082 
L 110.863456 165.853243 
L 110.893899 166.010027 
L 110.985226 165.94683 
L 111.046111 165.877526 
L 111.076553 166.00763 
L 111.228766 167.085367 
L 111.380978 166.978832 
L 111.441863 167.421288 
L 111.502748 167.377891 
L 111.53319 167.344335 
L 111.563633 167.42803 
L 112.02027 168.158633 
L 112.172482 168.860375 
L 112.720446 170.472263 
L 112.750888 170.443394 
L 112.903101 170.319174 
L 113.237968 171.472556 
L 113.359737 171.445781 
L 113.51195 172.19506 
L 113.633719 172.126045 
L 113.664162 172.26655 
L 113.755489 172.192687 
L 113.999029 172.982204 
L 114.059914 172.941903 
L 114.151241 172.963052 
L 114.242569 173.434536 
L 114.273011 173.4258 
L 114.303453 173.417261 
L 114.333896 173.551091 
L 114.425223 173.485506 
L 114.516551 173.394473 
L 114.546993 173.50959 
L 114.607878 173.771242 
L 114.699205 173.699964 
L 115.429824 175.539592 
L 115.551594 175.491904 
L 115.612479 175.444742 
L 115.795134 175.780081 
L 115.825576 175.761509 
L 115.977788 175.97148 
L 116.069116 176.177302 
L 116.221328 176.622801 
L 116.25177 176.602628 
L 116.343098 176.547975 
L 116.525752 177.048886 
L 116.647522 177.082929 
L 116.677965 177.18337 
L 116.769292 177.155529 
L 116.830177 177.207905 
L 117.012832 177.45791 
L 117.134601 177.455161 
L 117.317256 177.692895 
L 117.347699 177.668442 
L 117.378141 177.64239 
L 117.408584 177.757586 
L 117.439026 177.735386 
L 117.560796 177.748747 
L 117.743451 177.988731 
L 117.773893 177.968465 
L 117.895663 177.886091 
L 118.169645 178.542585 
L 118.23053 178.490273 
L 118.260972 178.587643 
L 118.595839 178.721235 
L 118.687167 178.678282 
L 118.717609 178.79521 
L 118.808936 178.726876 
L 118.900264 178.738472 
L 119.022033 178.939427 
L 119.296016 178.894383 
L 119.3569 178.848466 
L 119.509113 179.319432 
L 119.60044 179.308712 
L 119.72221 179.266404 
L 119.752652 179.324708 
L 119.813537 179.413655 
L 119.874422 179.374133 
L 120.057077 179.362048 
L 120.178847 179.446139 
L 120.209289 179.421879 
L 120.239732 179.423487 
L 120.331059 179.94067 
L 120.391944 179.909432 
L 120.605041 179.87927 
L 120.665926 180.106453 
L 120.726811 180.067834 
L 120.757253 180.043243 
L 120.787696 180.152805 
L 120.818138 180.128392 
L 120.909466 180.197815 
L 121.061678 180.599982 
L 121.21389 181.149284 
L 121.244333 181.125965 
L 121.33566 181.221452 
L 121.487872 181.917752 
L 121.640084 181.943588 
L 122.066279 183.025824 
L 122.218491 183.098956 
L 122.492473 183.309693 
L 122.614243 183.332371 
L 122.94911 184.111468 
L 123.07088 184.06735 
L 123.223092 184.355799 
L 123.253534 184.334697 
L 123.344862 184.292385 
L 123.497074 184.726914 
L 123.618844 184.713595 
L 123.740614 184.854573 
L 123.771056 184.833271 
L 123.801498 184.812722 
L 123.953711 185.148842 
L 124.045038 185.245833 
L 124.19725 185.412744 
L 124.227693 185.398817 
L 124.258135 185.486795 
L 124.836542 186.00717 
L 125.080081 185.993804 
L 125.140966 186.001395 
L 125.293179 186.44782 
L 125.506276 186.406302 
L 125.658488 186.559912 
L 125.688931 186.54017 
L 125.749815 186.515942 
L 125.780258 186.606899 
L 125.962913 187.354977 
L 126.17601 187.34864 
L 126.723974 187.902656 
L 127.058841 187.945993 
L 127.180611 188.252054 
L 127.211053 188.238227 
L 127.454593 188.284581 
L 127.576363 188.23603 
L 127.759017 188.453439 
L 127.91123 188.516843 
L 128.032999 188.969714 
L 128.063442 188.958216 
L 128.246096 189.264637 
L 128.367866 189.361904 
L 128.459194 189.418274 
L 128.641848 189.506863 
L 128.946273 189.68872 
L 128.976715 189.670546 
L 129.007158 189.744824 
L 129.433352 189.921254 
L 129.524679 189.894936 
L 129.555122 189.953981 
L 129.616007 190.05485 
L 129.707334 190.65436 
L 129.798662 190.621326 
L 129.829104 190.627406 
L 130.072644 191.430474 
L 130.103086 191.412708 
L 130.285741 191.339924 
L 130.468395 191.598577 
L 130.955475 191.765037 
L 131.107687 192.272323 
L 131.290342 192.319702 
L 131.412112 192.423278 
L 131.442554 192.407928 
L 131.746978 192.415861 
L 132.051403 192.851716 
L 132.173173 192.897198 
L 132.234058 192.953697 
L 132.294943 192.921577 
L 132.477597 192.952014 
L 132.62981 192.962914 
L 132.782022 193.236493 
L 132.934234 193.30935 
L 133.086446 193.441707 
L 133.208216 193.489039 
L 133.299544 193.479507 
L 133.329986 193.680088 
L 133.421313 193.64341 
L 133.664853 193.754851 
L 134.456357 194.605475 
L 134.608569 194.647728 
L 134.639011 194.802429 
L 134.730339 194.771831 
L 135.004321 194.982425 
L 135.095648 195.031597 
L 135.73494 195.572347 
L 135.887152 196.139198 
L 135.978479 196.096554 
L 136.008922 196.108083 
L 136.161134 196.478827 
L 136.191576 196.465392 
L 136.282904 196.527722 
L 136.435116 196.678918 
L 136.709098 196.682459 
L 136.98308 196.732011 
L 137.439717 197.29785 
L 137.591929 197.341572 
L 137.987681 197.756603 
L 138.383433 197.836394 
L 138.505203 197.922042 
L 138.535645 197.909763 
L 138.687858 198.251386 
L 138.931397 198.500041 
L 139.235822 198.462539 
L 139.570689 198.903416 
L 139.722901 198.939339 
L 140.027325 199.078234 
L 140.20998 199.162838 
L 140.362192 199.151663 
L 140.483962 199.190659 
L 140.605732 199.238201 
L 141.092811 199.307934 
L 141.397236 199.624528 
L 141.519006 199.58452 
L 141.671218 199.949014 
L 141.82343 199.918348 
L 141.975642 200.169907 
L 142.18874 200.159242 
L 142.340952 200.239104 
L 142.432279 200.320855 
L 142.584491 200.528305 
L 142.888916 200.497969 
L 143.041128 200.605035 
L 143.254225 200.62332 
L 143.375995 200.811001 
L 143.619535 200.906123 
L 143.863074 200.946938 
L 144.106614 201.366336 
L 144.289269 201.517861 
L 144.441481 201.575319 
L 145.1721 202.325539 
L 145.385197 202.539158 
L 145.598294 202.78428 
L 145.841834 202.923906 
L 146.024489 203.012831 
L 146.328913 203.012519 
L 146.481125 203.066569 
L 146.511568 203.058674 
L 146.633338 203.259302 
L 146.66378 203.251384 
L 146.876877 203.471766 
L 147.181302 203.495086 
L 147.333514 203.705221 
L 148.612097 204.205098 
L 148.764309 204.31091 
L 150.225547 204.706076 
L 150.712626 205.101349 
L 151.108378 205.158084 
L 151.38236 205.172453 
L 151.565015 205.337947 
L 151.808554 205.342805 
L 152.052094 205.466856 
L 152.295634 205.506782 
L 152.508731 205.657153 
L 152.660943 205.69504 
L 152.934925 205.848087 
L 153.208907 205.848241 
L 153.361119 205.869524 
L 153.756871 206.013301 
L 153.969969 206.068709 
L 154.670145 206.722187 
L 155.005012 206.756835 
L 156.34448 207.245102 
L 156.801117 207.553673 
L 157.014214 207.602094 
L 157.288196 207.864837 
L 157.623063 207.896255 
L 158.201469 208.299361 
L 158.475451 208.294243 
L 158.627664 208.500081 
L 158.840761 208.715097 
L 159.023416 208.731233 
L 159.266955 208.776727 
L 159.601822 209.025651 
L 159.814919 209.066156 
L 160.028017 209.184142 
L 160.271556 209.224607 
L 160.484653 209.315486 
L 160.789078 209.388652 
L 160.910848 209.482951 
L 161.002175 209.486667 
L 161.154387 209.650444 
L 161.276157 209.851679 
L 161.397927 209.990791 
L 161.702351 210.03692 
L 161.885006 210.087582 
L 162.615625 210.358305 
L 162.767837 210.475241 
L 162.920049 210.461417 
L 163.041819 210.558575 
L 163.163589 210.560607 
L 163.315801 210.782668 
L 163.376686 210.879324 
L 163.589783 210.932608 
L 163.772438 211.008931 
L 164.015978 211.156171 
L 164.229075 211.482315 
L 164.472615 211.744207 
L 164.837924 211.860253 
L 165.081464 211.957034 
L 165.812082 212.263149 
L 166.086064 212.310544 
L 166.268719 212.508356 
L 166.634029 212.850588 
L 166.755798 212.932049 
L 166.877568 213.017787 
L 167.15155 213.105334 
L 167.699514 213.495829 
L 167.912612 213.549088 
L 168.095266 213.747993 
L 168.308363 213.810296 
L 168.704115 213.895378 
L 168.947655 213.965288 
L 169.099867 214.051931 
L 169.282522 214.141544 
L 169.434734 214.251486 
L 169.617389 214.328734 
L 169.800044 214.390447 
L 170.165353 214.425593 
L 170.317565 214.541211 
L 170.469778 214.713705 
L 170.652432 214.795509 
L 170.865529 214.839547 
L 171.048184 214.914865 
L 171.413494 214.972677 
L 171.931015 215.099232 
L 172.265882 215.251492 
L 173.422695 215.312708 
L 173.574908 215.436588 
L 173.940217 215.517712 
L 174.275084 215.634227 
L 174.823048 215.956104 
L 175.157915 215.948279 
L 175.371012 216.226847 
L 175.492782 216.264028 
L 175.614552 216.33856 
L 175.766764 216.396349 
L 175.888534 216.463689 
L 179.754725 217.385599 
L 179.967823 217.449001 
L 180.120035 217.519095 
L 180.454902 217.577534 
L 181.063751 217.706834 
L 181.337733 217.767699 
L 181.733485 217.85582 
L 181.91614 217.991904 
L 182.646758 218.207704 
L 182.859856 218.284731 
L 183.103395 218.366872 
L 184.290651 218.716357 
L 184.442863 218.793335 
L 185.873658 219.137397 
L 186.025871 219.210799 
L 186.51295 219.263059 
L 186.695605 219.39882 
L 187.030472 219.479019 
L 187.182684 219.533225 
L 187.456666 219.603494 
L 191.10976 220.479957 
L 191.566397 220.543965 
L 191.840379 220.585765 
L 192.266573 220.636272 
L 193.027635 220.952973 
L 193.240732 221.036895 
L 193.392944 221.127956 
L 193.697369 221.201682 
L 194.09312 221.239393 
L 194.275775 221.304695 
L 194.519315 221.40851 
L 194.884624 221.506651 
L 195.523916 221.539483 
L 195.858783 221.586425 
L 196.832941 221.65317 
L 196.985153 221.720551 
L 197.137366 221.816404 
L 199.390107 222.301574 
L 199.877186 222.379722 
L 200.242496 222.504253 
L 200.729575 222.554346 
L 201.216654 222.685761 
L 201.977716 222.769451 
L 202.40391 222.824524 
L 202.647449 222.901287 
L 205.021961 223.366762 
L 205.600367 223.413676 
L 206.117889 223.596859 
L 206.270101 223.636745 
L 206.483198 223.688054 
L 206.635411 223.751203 
L 207.092048 223.80258 
L 207.670454 223.877599 
L 208.035764 223.920971 
L 208.187976 223.964653 
L 208.4924 224.031213 
L 208.796825 224.144218 
L 209.923196 224.317313 
L 210.075408 224.36895 
L 210.592929 224.420455 
L 210.775584 224.497368 
L 211.110451 224.580254 
L 211.293106 224.654142 
L 213.150095 224.847974 
L 213.484962 224.92201 
L 215.798589 225.268843 
L 215.981244 225.357037 
L 216.650977 225.476911 
L 218.781949 225.830736 
L 219.177701 225.871781 
L 219.390798 225.971007 
L 220.151859 226.087885 
L 221.004248 226.284257 
L 222.039291 226.345363 
L 222.221946 226.412245 
L 222.739468 226.474265 
L 223.25699 226.547933 
L 228.675746 227.269194 
L 228.858401 227.31582 
L 229.406365 227.396519 
L 230.624063 227.5661 
L 231.598221 227.674184 
L 231.811319 227.708792 
L 232.237513 227.784349 
L 234.581582 227.979896 
L 234.764236 228.034417 
L 235.616625 228.084393 
L 236.073262 228.116185 
L 236.803881 228.177777 
L 237.778039 228.306022 
L 238.78264 228.476609 
L 241.431133 228.773171 
L 241.644231 228.823064 
L 243.714317 228.97043 
L 244.201397 228.993036 
L 247.915376 229.4319 
L 248.615552 229.494893 
L 249.285286 229.564427 
L 250.07679 229.609001 
L 250.289887 229.622644 
L 252.238204 229.811609 
L 252.542629 229.867598 
L 253.608114 229.959081 
L 253.912539 229.990752 
L 254.6736 230.076056 
L 254.886697 230.104592 
L 255.465104 230.194853 
L 256.195723 230.311187 
L 256.835014 230.397609 
L 257.048111 230.434348 
L 257.809173 230.519579 
L 258.052712 230.545407 
L 258.692004 230.619741 
L 259.51395 230.686004 
L 265.206689 231.095828 
L 265.480671 231.131159 
L 266.119962 231.164528 
L 266.911466 231.227508 
L 267.246333 231.25799 
L 268.433589 231.330334 
L 268.646686 231.35652 
L 269.651287 231.419851 
L 270.168808 231.500919 
L 271.447391 231.626861 
L 272.330222 231.686128 
L 272.786859 231.739723 
L 274.095885 231.819514 
L 274.369867 231.876909 
L 275.557122 231.94426 
L 280.580127 232.256746 
L 281.097649 232.290981 
L 282.498001 232.342358 
L 288.282067 232.722728 
L 289.256226 232.783025 
L 290.961003 232.924186 
L 291.204543 232.946047 
L 293.944363 233.134205 
L 296.836396 233.252312 
L 298.023652 233.315484 
L 306.364884 233.839707 
L 308.313201 233.925303 
L 311.357446 234.085258 
L 311.661871 234.125352 
L 313.244878 234.184615 
L 313.671072 234.218505 
L 316.197796 234.333172 
L 317.171954 234.384149 
L 318.267883 234.458515 
L 319.820448 234.521342 
L 321.525225 234.603604 
L 338.177246 235.55734 
L 340.612643 235.698279 
L 341.008394 235.737411 
L 342.956711 235.798269 
L 343.626445 235.838357 
L 350.049803 236.122666 
L 350.567324 236.160428 
L 353.033163 236.230484 
L 354.555286 236.304256 
L 355.042365 236.32011 
L 357.173336 236.416242 
L 373.581818 237.115601 
L 373.581818 237.115601 
" style="fill:none;stroke:#2ca02c;stroke-linecap:square;stroke-width:1.5;"/>
   </g>
   <g id="patch_3">
    <path d="M 54 255.0384 
L 54 34.3872 
" style="fill:none;stroke:#000000;stroke-linecap:square;stroke-linejoin:miter;stroke-width:0.8;"/>
   </g>
   <g id="patch_4">
    <path d="M 388.8 255.0384 
L 388.8 34.3872 
" style="fill:none;stroke:#000000;stroke-linecap:square;stroke-linejoin:miter;stroke-width:0.8;"/>
   </g>
   <g id="patch_5">
    <path d="M 54 255.0384 
L 388.8 255.0384 
" style="fill:none;stroke:#000000;stroke-linecap:square;stroke-linejoin:miter;stroke-width:0.8;"/>
   </g>
   <g id="patch_6">
    <path d="M 54 34.3872 
L 388.8 34.3872 
" style="fill:none;stroke:#000000;stroke-linecap:square;stroke-linejoin:miter;stroke-width:0.8;"/>
   </g>
   <g id="legend_1">
    <g id="patch_7">
     <path d="M 189.9 89.5872 
L 381.8 89.5872 
Q 383.8 89.5872 383.8 87.5872 
L 383.8 41.3872 
Q 383.8 39.3872 381.8 39.3872 
L 189.9 39.3872 
Q 187.9 39.3872 187.9 41.3872 
L 187.9 87.5872 
Q 187.9 89.5872 189.9 89.5872 
z
" style="fill:#ffffff;opacity:0.8;stroke:#cccccc;stroke-linejoin:miter;"/>
    </g>
    <g id="line2d_17">
     <path d="M 191.9 48.307513 
L 211.9 48.307513 
" style="fill:none;stroke:#1f77b4;stroke-linecap:square;stroke-width:1.5;"/>
    </g>
    <g id="line2d_18"/>
    <g id="text_14">
     <!-- estimation for $SE^2[f(x)]$ -->
     <defs>
      <path d="M 56.203125 29.59375 
L 56.203125 25.203125 
L 14.890625 25.203125 
Q 15.484375 15.921875 20.484375 11.0625 
Q 25.484375 6.203125 34.421875 6.203125 
Q 39.59375 6.203125 44.453125 7.46875 
Q 49.3125 8.734375 54.109375 11.28125 
L 54.109375 2.78125 
Q 49.265625 0.734375 44.1875 -0.34375 
Q 39.109375 -1.421875 33.890625 -1.421875 
Q 20.796875 -1.421875 13.15625 6.1875 
Q 5.515625 13.8125 5.515625 26.8125 
Q 5.515625 40.234375 12.765625 48.109375 
Q 20.015625 56 32.328125 56 
Q 43.359375 56 49.78125 48.890625 
Q 56.203125 41.796875 56.203125 29.59375 
z
M 47.21875 32.234375 
Q 47.125 39.59375 43.09375 43.984375 
Q 39.0625 48.390625 32.421875 48.390625 
Q 24.90625 48.390625 20.390625 44.140625 
Q 15.875 39.890625 15.1875 32.171875 
z
" id="DejaVuSans-101"/>
      <path d="M 44.28125 53.078125 
L 44.28125 44.578125 
Q 40.484375 46.53125 36.375 47.5 
Q 32.28125 48.484375 27.875 48.484375 
Q 21.1875 48.484375 17.84375 46.4375 
Q 14.5 44.390625 14.5 40.28125 
Q 14.5 37.15625 16.890625 35.375 
Q 19.28125 33.59375 26.515625 31.984375 
L 29.59375 31.296875 
Q 39.15625 29.25 43.1875 25.515625 
Q 47.21875 21.78125 47.21875 15.09375 
Q 47.21875 7.46875 41.1875 3.015625 
Q 35.15625 -1.421875 24.609375 -1.421875 
Q 20.21875 -1.421875 15.453125 -0.5625 
Q 10.6875 0.296875 5.421875 2 
L 5.421875 11.28125 
Q 10.40625 8.6875 15.234375 7.390625 
Q 20.0625 6.109375 24.8125 6.109375 
Q 31.15625 6.109375 34.5625 8.28125 
Q 37.984375 10.453125 37.984375 14.40625 
Q 37.984375 18.0625 35.515625 20.015625 
Q 33.0625 21.96875 24.703125 23.78125 
L 21.578125 24.515625 
Q 13.234375 26.265625 9.515625 29.90625 
Q 5.8125 33.546875 5.8125 39.890625 
Q 5.8125 47.609375 11.28125 51.796875 
Q 16.75 56 26.8125 56 
Q 31.78125 56 36.171875 55.265625 
Q 40.578125 54.546875 44.28125 53.078125 
z
" id="DejaVuSans-115"/>
      <path d="M 18.3125 70.21875 
L 18.3125 54.6875 
L 36.8125 54.6875 
L 36.8125 47.703125 
L 18.3125 47.703125 
L 18.3125 18.015625 
Q 18.3125 11.328125 20.140625 9.421875 
Q 21.96875 7.515625 27.59375 7.515625 
L 36.8125 7.515625 
L 36.8125 0 
L 27.59375 0 
Q 17.1875 0 13.234375 3.875 
Q 9.28125 7.765625 9.28125 18.015625 
L 9.28125 47.703125 
L 2.6875 47.703125 
L 2.6875 54.6875 
L 9.28125 54.6875 
L 9.28125 70.21875 
z
" id="DejaVuSans-116"/>
      <path d="M 9.421875 54.6875 
L 18.40625 54.6875 
L 18.40625 0 
L 9.421875 0 
z
M 9.421875 75.984375 
L 18.40625 75.984375 
L 18.40625 64.59375 
L 9.421875 64.59375 
z
" id="DejaVuSans-105"/>
      <path d="M 52 44.1875 
Q 55.375 50.25 60.0625 53.125 
Q 64.75 56 71.09375 56 
Q 79.640625 56 84.28125 50.015625 
Q 88.921875 44.046875 88.921875 33.015625 
L 88.921875 0 
L 79.890625 0 
L 79.890625 32.71875 
Q 79.890625 40.578125 77.09375 44.375 
Q 74.3125 48.1875 68.609375 48.1875 
Q 61.625 48.1875 57.5625 43.546875 
Q 53.515625 38.921875 53.515625 30.90625 
L 53.515625 0 
L 44.484375 0 
L 44.484375 32.71875 
Q 44.484375 40.625 41.703125 44.40625 
Q 38.921875 48.1875 33.109375 48.1875 
Q 26.21875 48.1875 22.15625 43.53125 
Q 18.109375 38.875 18.109375 30.90625 
L 18.109375 0 
L 9.078125 0 
L 9.078125 54.6875 
L 18.109375 54.6875 
L 18.109375 46.1875 
Q 21.1875 51.21875 25.484375 53.609375 
Q 29.78125 56 35.6875 56 
Q 41.65625 56 45.828125 52.96875 
Q 50 49.953125 52 44.1875 
z
" id="DejaVuSans-109"/>
      <path d="M 34.28125 27.484375 
Q 23.390625 27.484375 19.1875 25 
Q 14.984375 22.515625 14.984375 16.5 
Q 14.984375 11.71875 18.140625 8.90625 
Q 21.296875 6.109375 26.703125 6.109375 
Q 34.1875 6.109375 38.703125 11.40625 
Q 43.21875 16.703125 43.21875 25.484375 
L 43.21875 27.484375 
z
M 52.203125 31.203125 
L 52.203125 0 
L 43.21875 0 
L 43.21875 8.296875 
Q 40.140625 3.328125 35.546875 0.953125 
Q 30.953125 -1.421875 24.3125 -1.421875 
Q 15.921875 -1.421875 10.953125 3.296875 
Q 6 8.015625 6 15.921875 
Q 6 25.140625 12.171875 29.828125 
Q 18.359375 34.515625 30.609375 34.515625 
L 43.21875 34.515625 
L 43.21875 35.40625 
Q 43.21875 41.609375 39.140625 45 
Q 35.0625 48.390625 27.6875 48.390625 
Q 23 48.390625 18.546875 47.265625 
Q 14.109375 46.140625 10.015625 43.890625 
L 10.015625 52.203125 
Q 14.9375 54.109375 19.578125 55.046875 
Q 24.21875 56 28.609375 56 
Q 40.484375 56 46.34375 49.84375 
Q 52.203125 43.703125 52.203125 31.203125 
z
" id="DejaVuSans-97"/>
      <path d="M 30.609375 48.390625 
Q 23.390625 48.390625 19.1875 42.75 
Q 14.984375 37.109375 14.984375 27.296875 
Q 14.984375 17.484375 19.15625 11.84375 
Q 23.34375 6.203125 30.609375 6.203125 
Q 37.796875 6.203125 41.984375 11.859375 
Q 46.1875 17.53125 46.1875 27.296875 
Q 46.1875 37.015625 41.984375 42.703125 
Q 37.796875 48.390625 30.609375 48.390625 
z
M 30.609375 56 
Q 42.328125 56 49.015625 48.375 
Q 55.71875 40.765625 55.71875 27.296875 
Q 55.71875 13.875 49.015625 6.21875 
Q 42.328125 -1.421875 30.609375 -1.421875 
Q 18.84375 -1.421875 12.171875 6.21875 
Q 5.515625 13.875 5.515625 27.296875 
Q 5.515625 40.765625 12.171875 48.375 
Q 18.84375 56 30.609375 56 
z
" id="DejaVuSans-111"/>
      <path d="M 54.890625 33.015625 
L 54.890625 0 
L 45.90625 0 
L 45.90625 32.71875 
Q 45.90625 40.484375 42.875 44.328125 
Q 39.84375 48.1875 33.796875 48.1875 
Q 26.515625 48.1875 22.3125 43.546875 
Q 18.109375 38.921875 18.109375 30.90625 
L 18.109375 0 
L 9.078125 0 
L 9.078125 54.6875 
L 18.109375 54.6875 
L 18.109375 46.1875 
Q 21.34375 51.125 25.703125 53.5625 
Q 30.078125 56 35.796875 56 
Q 45.21875 56 50.046875 50.171875 
Q 54.890625 44.34375 54.890625 33.015625 
z
" id="DejaVuSans-110"/>
      <path id="DejaVuSans-32"/>
      <path d="M 37.109375 75.984375 
L 37.109375 68.5 
L 28.515625 68.5 
Q 23.6875 68.5 21.796875 66.546875 
Q 19.921875 64.59375 19.921875 59.515625 
L 19.921875 54.6875 
L 34.71875 54.6875 
L 34.71875 47.703125 
L 19.921875 47.703125 
L 19.921875 0 
L 10.890625 0 
L 10.890625 47.703125 
L 2.296875 47.703125 
L 2.296875 54.6875 
L 10.890625 54.6875 
L 10.890625 58.5 
Q 10.890625 67.625 15.140625 71.796875 
Q 19.390625 75.984375 28.609375 75.984375 
z
" id="DejaVuSans-102"/>
      <path d="M 41.109375 46.296875 
Q 39.59375 47.171875 37.8125 47.578125 
Q 36.03125 48 33.890625 48 
Q 26.265625 48 22.1875 43.046875 
Q 18.109375 38.09375 18.109375 28.8125 
L 18.109375 0 
L 9.078125 0 
L 9.078125 54.6875 
L 18.109375 54.6875 
L 18.109375 46.1875 
Q 20.953125 51.171875 25.484375 53.578125 
Q 30.03125 56 36.53125 56 
Q 37.453125 56 38.578125 55.875 
Q 39.703125 55.765625 41.0625 55.515625 
z
" id="DejaVuSans-114"/>
      <path d="M 60.296875 70.515625 
L 58.40625 60.890625 
Q 53.46875 63.53125 48.609375 64.875 
Q 43.75 66.21875 39.203125 66.21875 
Q 30.375 66.21875 25.140625 62.359375 
Q 19.921875 58.5 19.921875 52.09375 
Q 19.921875 48.578125 21.84375 46.703125 
Q 23.78125 44.828125 31.78125 42.671875 
L 37.703125 41.21875 
Q 47.703125 38.625 51.609375 34.640625 
Q 55.515625 30.671875 55.515625 23.484375 
Q 55.515625 12.453125 46.84375 5.515625 
Q 38.1875 -1.421875 24.03125 -1.421875 
Q 18.21875 -1.421875 12.359375 -0.265625 
Q 6.5 0.875 0.59375 3.21875 
L 2.59375 13.375 
Q 8.015625 10.015625 13.453125 8.296875 
Q 18.890625 6.59375 24.3125 6.59375 
Q 33.546875 6.59375 39.109375 10.6875 
Q 44.671875 14.796875 44.671875 21.390625 
Q 44.671875 25.78125 42.453125 28.046875 
Q 40.234375 30.328125 32.90625 32.171875 
L 27 33.6875 
Q 16.890625 36.328125 13.203125 39.765625 
Q 9.515625 43.21875 9.515625 49.421875 
Q 9.515625 60.296875 17.890625 67.25 
Q 26.265625 74.21875 39.703125 74.21875 
Q 44.921875 74.21875 50.046875 73.28125 
Q 55.171875 72.359375 60.296875 70.515625 
z
" id="DejaVuSans-Oblique-83"/>
      <path d="M 16.890625 72.90625 
L 62.984375 72.90625 
L 61.375 64.59375 
L 25.09375 64.59375 
L 20.90625 43.015625 
L 55.71875 43.015625 
L 54.109375 34.71875 
L 19.28125 34.71875 
L 14.203125 8.296875 
L 51.3125 8.296875 
L 49.703125 0 
L 2.6875 0 
z
" id="DejaVuSans-Oblique-69"/>
      <path d="M 8.59375 75.984375 
L 29.296875 75.984375 
L 29.296875 69 
L 17.578125 69 
L 17.578125 -6.203125 
L 29.296875 -6.203125 
L 29.296875 -13.1875 
L 8.59375 -13.1875 
z
" id="DejaVuSans-91"/>
      <path d="M 47.796875 75.984375 
L 46.390625 68.5 
L 37.796875 68.5 
Q 32.90625 68.5 30.6875 66.578125 
Q 28.46875 64.65625 27.390625 59.515625 
L 26.421875 54.6875 
L 41.21875 54.6875 
L 39.890625 47.703125 
L 25.09375 47.703125 
L 15.828125 0 
L 6.78125 0 
L 16.109375 47.703125 
L 7.515625 47.703125 
L 8.796875 54.6875 
L 17.390625 54.6875 
L 18.109375 58.5 
Q 19.96875 68.171875 24.625 72.078125 
Q 29.296875 75.984375 39.3125 75.984375 
z
" id="DejaVuSans-Oblique-102"/>
      <path d="M 31 75.875 
Q 24.46875 64.65625 21.28125 53.65625 
Q 18.109375 42.671875 18.109375 31.390625 
Q 18.109375 20.125 21.3125 9.0625 
Q 24.515625 -2 31 -13.1875 
L 23.1875 -13.1875 
Q 15.875 -1.703125 12.234375 9.375 
Q 8.59375 20.453125 8.59375 31.390625 
Q 8.59375 42.28125 12.203125 53.3125 
Q 15.828125 64.359375 23.1875 75.875 
z
" id="DejaVuSans-40"/>
      <path d="M 60.015625 54.6875 
L 34.90625 27.875 
L 50.296875 0 
L 39.984375 0 
L 28.421875 21.6875 
L 8.296875 0 
L -2.59375 0 
L 24.3125 28.8125 
L 10.015625 54.6875 
L 20.3125 54.6875 
L 30.8125 34.90625 
L 49.125 54.6875 
z
" id="DejaVuSans-Oblique-120"/>
      <path d="M 8.015625 75.875 
L 15.828125 75.875 
Q 23.140625 64.359375 26.78125 53.3125 
Q 30.421875 42.28125 30.421875 31.390625 
Q 30.421875 20.453125 26.78125 9.375 
Q 23.140625 -1.703125 15.828125 -13.1875 
L 8.015625 -13.1875 
Q 14.5 -2 17.703125 9.0625 
Q 20.90625 20.125 20.90625 31.390625 
Q 20.90625 42.671875 17.703125 53.65625 
Q 14.5 64.65625 8.015625 75.875 
z
" id="DejaVuSans-41"/>
      <path d="M 30.421875 75.984375 
L 30.421875 -13.1875 
L 9.71875 -13.1875 
L 9.71875 -6.203125 
L 21.390625 -6.203125 
L 21.390625 69 
L 9.71875 69 
L 9.71875 75.984375 
z
" id="DejaVuSans-93"/>
     </defs>
     <g transform="translate(219.9 51.807513)scale(0.1 -0.1)">
      <use transform="translate(0 0.765625)" xlink:href="#DejaVuSans-101"/>
      <use transform="translate(61.523438 0.765625)" xlink:href="#DejaVuSans-115"/>
      <use transform="translate(113.623047 0.765625)" xlink:href="#DejaVuSans-116"/>
      <use transform="translate(152.832031 0.765625)" xlink:href="#DejaVuSans-105"/>
      <use transform="translate(180.615234 0.765625)" xlink:href="#DejaVuSans-109"/>
      <use transform="translate(278.027344 0.765625)" xlink:href="#DejaVuSans-97"/>
      <use transform="translate(339.306641 0.765625)" xlink:href="#DejaVuSans-116"/>
      <use transform="translate(378.515625 0.765625)" xlink:href="#DejaVuSans-105"/>
      <use transform="translate(406.298828 0.765625)" xlink:href="#DejaVuSans-111"/>
      <use transform="translate(467.480469 0.765625)" xlink:href="#DejaVuSans-110"/>
      <use transform="translate(530.859375 0.765625)" xlink:href="#DejaVuSans-32"/>
      <use transform="translate(562.646484 0.765625)" xlink:href="#DejaVuSans-102"/>
      <use transform="translate(597.851562 0.765625)" xlink:href="#DejaVuSans-111"/>
      <use transform="translate(659.033203 0.765625)" xlink:href="#DejaVuSans-114"/>
      <use transform="translate(700.146484 0.765625)" xlink:href="#DejaVuSans-32"/>
      <use transform="translate(731.933594 0.765625)" xlink:href="#DejaVuSans-Oblique-83"/>
      <use transform="translate(795.410156 0.765625)" xlink:href="#DejaVuSans-Oblique-69"/>
      <use transform="translate(865.610521 39.046875)scale(0.7)" xlink:href="#DejaVuSans-50"/>
      <use transform="translate(912.881029 0.765625)" xlink:href="#DejaVuSans-91"/>
      <use transform="translate(951.894701 0.765625)" xlink:href="#DejaVuSans-Oblique-102"/>
      <use transform="translate(987.099779 0.765625)" xlink:href="#DejaVuSans-40"/>
      <use transform="translate(1026.113451 0.765625)" xlink:href="#DejaVuSans-Oblique-120"/>
      <use transform="translate(1085.293138 0.765625)" xlink:href="#DejaVuSans-41"/>
      <use transform="translate(1124.30681 0.765625)" xlink:href="#DejaVuSans-93"/>
     </g>
    </g>
    <g id="line2d_19">
     <path d="M 191.9 64.4872 
L 211.9 64.4872 
" style="fill:none;stroke:#ff7f0e;stroke-linecap:square;stroke-width:1.5;"/>
    </g>
    <g id="line2d_20"/>
    <g id="text_15">
     <!-- estimation for $SE^2[f(x)q(x)/p(x)]$ -->
     <defs>
      <path d="M 41.703125 8.203125 
Q 38.09375 3.46875 33.171875 1.015625 
Q 28.265625 -1.421875 22.3125 -1.421875 
Q 14.015625 -1.421875 9.296875 4.171875 
Q 4.59375 9.765625 4.59375 19.578125 
Q 4.59375 27.484375 7.5 34.859375 
Q 10.40625 42.234375 15.828125 48.09375 
Q 19.34375 51.90625 23.90625 53.953125 
Q 28.46875 56 33.5 56 
Q 39.546875 56 43.453125 53.609375 
Q 47.359375 51.21875 49.125 46.390625 
L 50.6875 54.59375 
L 59.71875 54.59375 
L 45.125 -20.609375 
L 36.078125 -20.609375 
z
M 13.921875 20.90625 
Q 13.921875 13.671875 16.9375 9.890625 
Q 19.96875 6.109375 25.6875 6.109375 
Q 34.1875 6.109375 40.1875 14.234375 
Q 46.1875 22.359375 46.1875 33.984375 
Q 46.1875 41.015625 43.078125 44.75 
Q 39.984375 48.484375 34.1875 48.484375 
Q 29.9375 48.484375 26.3125 46.5 
Q 22.703125 44.53125 20.015625 40.71875 
Q 17.1875 36.71875 15.546875 31.34375 
Q 13.921875 25.984375 13.921875 20.90625 
z
" id="DejaVuSans-Oblique-113"/>
      <path d="M 25.390625 72.90625 
L 33.6875 72.90625 
L 8.296875 -9.28125 
L 0 -9.28125 
z
" id="DejaVuSans-47"/>
      <path d="M 49.609375 33.6875 
Q 49.609375 40.875 46.484375 44.671875 
Q 43.359375 48.484375 37.5 48.484375 
Q 33.5 48.484375 29.859375 46.4375 
Q 26.21875 44.390625 23.390625 40.484375 
Q 20.609375 36.625 18.9375 31.15625 
Q 17.28125 25.6875 17.28125 20.3125 
Q 17.28125 13.484375 20.40625 9.796875 
Q 23.53125 6.109375 29.296875 6.109375 
Q 33.546875 6.109375 37.1875 8.109375 
Q 40.828125 10.109375 43.40625 13.921875 
Q 46.1875 17.921875 47.890625 23.34375 
Q 49.609375 28.765625 49.609375 33.6875 
z
M 21.78125 46.390625 
Q 25.390625 51.125 30.296875 53.5625 
Q 35.203125 56 41.21875 56 
Q 49.609375 56 54.25 50.5 
Q 58.890625 45.015625 58.890625 35.109375 
Q 58.890625 27 56 19.65625 
Q 53.125 12.3125 47.703125 6.5 
Q 44.09375 2.640625 39.546875 0.609375 
Q 35.015625 -1.421875 29.984375 -1.421875 
Q 24.171875 -1.421875 20.21875 1 
Q 16.265625 3.421875 14.3125 8.203125 
L 8.6875 -20.796875 
L -0.296875 -20.796875 
L 14.40625 54.6875 
L 23.390625 54.6875 
z
" id="DejaVuSans-Oblique-112"/>
     </defs>
     <g transform="translate(219.9 67.9872)scale(0.1 -0.1)">
      <use transform="translate(0 0.765625)" xlink:href="#DejaVuSans-101"/>
      <use transform="translate(61.523438 0.765625)" xlink:href="#DejaVuSans-115"/>
      <use transform="translate(113.623047 0.765625)" xlink:href="#DejaVuSans-116"/>
      <use transform="translate(152.832031 0.765625)" xlink:href="#DejaVuSans-105"/>
      <use transform="translate(180.615234 0.765625)" xlink:href="#DejaVuSans-109"/>
      <use transform="translate(278.027344 0.765625)" xlink:href="#DejaVuSans-97"/>
      <use transform="translate(339.306641 0.765625)" xlink:href="#DejaVuSans-116"/>
      <use transform="translate(378.515625 0.765625)" xlink:href="#DejaVuSans-105"/>
      <use transform="translate(406.298828 0.765625)" xlink:href="#DejaVuSans-111"/>
      <use transform="translate(467.480469 0.765625)" xlink:href="#DejaVuSans-110"/>
      <use transform="translate(530.859375 0.765625)" xlink:href="#DejaVuSans-32"/>
      <use transform="translate(562.646484 0.765625)" xlink:href="#DejaVuSans-102"/>
      <use transform="translate(597.851562 0.765625)" xlink:href="#DejaVuSans-111"/>
      <use transform="translate(659.033203 0.765625)" xlink:href="#DejaVuSans-114"/>
      <use transform="translate(700.146484 0.765625)" xlink:href="#DejaVuSans-32"/>
      <use transform="translate(731.933594 0.765625)" xlink:href="#DejaVuSans-Oblique-83"/>
      <use transform="translate(795.410156 0.765625)" xlink:href="#DejaVuSans-Oblique-69"/>
      <use transform="translate(865.610521 39.046875)scale(0.7)" xlink:href="#DejaVuSans-50"/>
      <use transform="translate(912.881029 0.765625)" xlink:href="#DejaVuSans-91"/>
      <use transform="translate(951.894701 0.765625)" xlink:href="#DejaVuSans-Oblique-102"/>
      <use transform="translate(987.099779 0.765625)" xlink:href="#DejaVuSans-40"/>
      <use transform="translate(1026.113451 0.765625)" xlink:href="#DejaVuSans-Oblique-120"/>
      <use transform="translate(1085.293138 0.765625)" xlink:href="#DejaVuSans-41"/>
      <use transform="translate(1124.30681 0.765625)" xlink:href="#DejaVuSans-Oblique-113"/>
      <use transform="translate(1187.783372 0.765625)" xlink:href="#DejaVuSans-40"/>
      <use transform="translate(1226.797044 0.765625)" xlink:href="#DejaVuSans-Oblique-120"/>
      <use transform="translate(1285.976732 0.765625)" xlink:href="#DejaVuSans-41"/>
      <use transform="translate(1324.990404 0.765625)" xlink:href="#DejaVuSans-47"/>
      <use transform="translate(1358.68181 0.765625)" xlink:href="#DejaVuSans-Oblique-112"/>
      <use transform="translate(1422.158372 0.765625)" xlink:href="#DejaVuSans-40"/>
      <use transform="translate(1461.172044 0.765625)" xlink:href="#DejaVuSans-Oblique-120"/>
      <use transform="translate(1520.351732 0.765625)" xlink:href="#DejaVuSans-41"/>
      <use transform="translate(1559.365404 0.765625)" xlink:href="#DejaVuSans-93"/>
     </g>
    </g>
    <g id="line2d_21">
     <path d="M 191.9 80.007513 
L 211.9 80.007513 
" style="fill:none;stroke:#2ca02c;stroke-linecap:square;stroke-width:1.5;"/>
    </g>
    <g id="line2d_22"/>
    <g id="text_16">
     <!-- estimation for $SE^2$ (biased) -->
     <defs>
      <path d="M 48.6875 27.296875 
Q 48.6875 37.203125 44.609375 42.84375 
Q 40.53125 48.484375 33.40625 48.484375 
Q 26.265625 48.484375 22.1875 42.84375 
Q 18.109375 37.203125 18.109375 27.296875 
Q 18.109375 17.390625 22.1875 11.75 
Q 26.265625 6.109375 33.40625 6.109375 
Q 40.53125 6.109375 44.609375 11.75 
Q 48.6875 17.390625 48.6875 27.296875 
z
M 18.109375 46.390625 
Q 20.953125 51.265625 25.265625 53.625 
Q 29.59375 56 35.59375 56 
Q 45.5625 56 51.78125 48.09375 
Q 58.015625 40.1875 58.015625 27.296875 
Q 58.015625 14.40625 51.78125 6.484375 
Q 45.5625 -1.421875 35.59375 -1.421875 
Q 29.59375 -1.421875 25.265625 0.953125 
Q 20.953125 3.328125 18.109375 8.203125 
L 18.109375 0 
L 9.078125 0 
L 9.078125 75.984375 
L 18.109375 75.984375 
z
" id="DejaVuSans-98"/>
      <path d="M 45.40625 46.390625 
L 45.40625 75.984375 
L 54.390625 75.984375 
L 54.390625 0 
L 45.40625 0 
L 45.40625 8.203125 
Q 42.578125 3.328125 38.25 0.953125 
Q 33.9375 -1.421875 27.875 -1.421875 
Q 17.96875 -1.421875 11.734375 6.484375 
Q 5.515625 14.40625 5.515625 27.296875 
Q 5.515625 40.1875 11.734375 48.09375 
Q 17.96875 56 27.875 56 
Q 33.9375 56 38.25 53.625 
Q 42.578125 51.265625 45.40625 46.390625 
z
M 14.796875 27.296875 
Q 14.796875 17.390625 18.875 11.75 
Q 22.953125 6.109375 30.078125 6.109375 
Q 37.203125 6.109375 41.296875 11.75 
Q 45.40625 17.390625 45.40625 27.296875 
Q 45.40625 37.203125 41.296875 42.84375 
Q 37.203125 48.484375 30.078125 48.484375 
Q 22.953125 48.484375 18.875 42.84375 
Q 14.796875 37.203125 14.796875 27.296875 
z
" id="DejaVuSans-100"/>
     </defs>
     <g transform="translate(219.9 83.507513)scale(0.1 -0.1)">
      <use transform="translate(0 0.765625)" xlink:href="#DejaVuSans-101"/>
      <use transform="translate(61.523438 0.765625)" xlink:href="#DejaVuSans-115"/>
      <use transform="translate(113.623047 0.765625)" xlink:href="#DejaVuSans-116"/>
      <use transform="translate(152.832031 0.765625)" xlink:href="#DejaVuSans-105"/>
      <use transform="translate(180.615234 0.765625)" xlink:href="#DejaVuSans-109"/>
      <use transform="translate(278.027344 0.765625)" xlink:href="#DejaVuSans-97"/>
      <use transform="translate(339.306641 0.765625)" xlink:href="#DejaVuSans-116"/>
      <use transform="translate(378.515625 0.765625)" xlink:href="#DejaVuSans-105"/>
      <use transform="translate(406.298828 0.765625)" xlink:href="#DejaVuSans-111"/>
      <use transform="translate(467.480469 0.765625)" xlink:href="#DejaVuSans-110"/>
      <use transform="translate(530.859375 0.765625)" xlink:href="#DejaVuSans-32"/>
      <use transform="translate(562.646484 0.765625)" xlink:href="#DejaVuSans-102"/>
      <use transform="translate(597.851562 0.765625)" xlink:href="#DejaVuSans-111"/>
      <use transform="translate(659.033203 0.765625)" xlink:href="#DejaVuSans-114"/>
      <use transform="translate(700.146484 0.765625)" xlink:href="#DejaVuSans-32"/>
      <use transform="translate(731.933594 0.765625)" xlink:href="#DejaVuSans-Oblique-83"/>
      <use transform="translate(795.410156 0.765625)" xlink:href="#DejaVuSans-Oblique-69"/>
      <use transform="translate(865.610521 39.046875)scale(0.7)" xlink:href="#DejaVuSans-50"/>
      <use transform="translate(912.881029 0.765625)" xlink:href="#DejaVuSans-32"/>
      <use transform="translate(944.668138 0.765625)" xlink:href="#DejaVuSans-40"/>
      <use transform="translate(983.68181 0.765625)" xlink:href="#DejaVuSans-98"/>
      <use transform="translate(1047.158372 0.765625)" xlink:href="#DejaVuSans-105"/>
      <use transform="translate(1074.941576 0.765625)" xlink:href="#DejaVuSans-97"/>
      <use transform="translate(1136.220872 0.765625)" xlink:href="#DejaVuSans-115"/>
      <use transform="translate(1188.320482 0.765625)" xlink:href="#DejaVuSans-101"/>
      <use transform="translate(1249.843919 0.765625)" xlink:href="#DejaVuSans-100"/>
      <use transform="translate(1313.320482 0.765625)" xlink:href="#DejaVuSans-41"/>
     </g>
    </g>
   </g>
  </g>
 </g>
 <defs>
  <clipPath id="p6b5c8389a1">
   <rect height="220.6512" width="334.8" x="54" y="34.3872"/>
  </clipPath>
 </defs>
</svg>
