<?xml version="1.0" encoding="UTF-8" standalone="no"?>
<svg
   xmlns:dc="http://purl.org/dc/elements/1.1/"
   xmlns:cc="http://creativecommons.org/ns#"
   xmlns:rdf="http://www.w3.org/1999/02/22-rdf-syntax-ns#"
   xmlns:svg="http://www.w3.org/2000/svg"
   xmlns="http://www.w3.org/2000/svg"
   viewBox="0 0 833.33331 697.33331"
   height="697.33331"
   width="833.33331"
   xml:space="preserve"
   id="svg2"
   version="1.1"><metadata
     id="metadata8"><rdf:RDF><cc:Work
         rdf:about=""><dc:format>image/svg+xml</dc:format><dc:type
           rdf:resource="http://purl.org/dc/dcmitype/StillImage" /></cc:Work></rdf:RDF></metadata><defs
     id="defs6"><clipPath
       id="clipPath14"
       clipPathUnits="userSpaceOnUse"><path
         id="path12"
         d="M 0,0 H 1012 V 595 H 0 Z" /></clipPath><clipPath
       id="clipPath22"
       clipPathUnits="userSpaceOnUse"><path
         style="clip-rule:evenodd"
         id="path20"
         d="M -84.06,-691.544 H 2177.622 V 638.647 H -84.06 Z" /></clipPath><clipPath
       id="clipPath34"
       clipPathUnits="userSpaceOnUse"><path
         style="clip-rule:evenodd"
         id="path32"
         d="M -84.06,-691.544 H 2177.622 V 638.647 H -84.06 Z" /></clipPath><clipPath
       id="clipPath58"
       clipPathUnits="userSpaceOnUse"><path
         style="clip-rule:evenodd"
         id="path56"
         d="M -84.06,-691.544 H 2177.622 V 638.647 H -84.06 Z" /></clipPath><clipPath
       id="clipPath70"
       clipPathUnits="userSpaceOnUse"><path
         style="clip-rule:evenodd"
         id="path68"
         d="M -84.06,-691.544 H 2177.622 V 638.647 H -84.06 Z" /></clipPath><clipPath
       id="clipPath94"
       clipPathUnits="userSpaceOnUse"><path
         style="clip-rule:evenodd"
         id="path92"
         d="M -84.06,-691.544 H 2177.622 V 638.647 H -84.06 Z" /></clipPath><clipPath
       id="clipPath106"
       clipPathUnits="userSpaceOnUse"><path
         style="clip-rule:evenodd"
         id="path104"
         d="M -84.06,-691.544 H 2177.622 V 638.647 H -84.06 Z" /></clipPath><clipPath
       id="clipPath130"
       clipPathUnits="userSpaceOnUse"><path
         style="clip-rule:evenodd"
         id="path128"
         d="M -84.06,-691.544 H 2177.622 V 638.647 H -84.06 Z" /></clipPath><clipPath
       id="clipPath142"
       clipPathUnits="userSpaceOnUse"><path
         style="clip-rule:evenodd"
         id="path140"
         d="M -84.06,-691.544 H 2177.622 V 638.647 H -84.06 Z" /></clipPath><clipPath
       id="clipPath166"
       clipPathUnits="userSpaceOnUse"><path
         style="clip-rule:evenodd"
         id="path164"
         d="M -84.06,-691.544 H 2177.622 V 638.647 H -84.06 Z" /></clipPath><clipPath
       id="clipPath178"
       clipPathUnits="userSpaceOnUse"><path
         style="clip-rule:evenodd"
         id="path176"
         d="M -84.06,-691.544 H 2177.622 V 638.647 H -84.06 Z" /></clipPath><clipPath
       id="clipPath202"
       clipPathUnits="userSpaceOnUse"><path
         style="clip-rule:evenodd"
         id="path200"
         d="M -84.06,-691.544 H 2177.622 V 638.647 H -84.06 Z" /></clipPath><clipPath
       id="clipPath214"
       clipPathUnits="userSpaceOnUse"><path
         style="clip-rule:evenodd"
         id="path212"
         d="M -84.06,-691.544 H 2177.622 V 638.647 H -84.06 Z" /></clipPath><clipPath
       id="clipPath226"
       clipPathUnits="userSpaceOnUse"><path
         style="clip-rule:evenodd"
         id="path224"
         d="M -84.06,-691.544 H 2177.622 V 638.647 H -84.06 Z" /></clipPath><clipPath
       id="clipPath238"
       clipPathUnits="userSpaceOnUse"><path
         style="clip-rule:evenodd"
         id="path236"
         d="M -84.06,-691.544 H 2177.622 V 638.647 H -84.06 Z" /></clipPath><clipPath
       id="clipPath250"
       clipPathUnits="userSpaceOnUse"><path
         style="clip-rule:evenodd"
         id="path248"
         d="M -84.06,-691.544 H 2177.622 V 638.647 H -84.06 Z" /></clipPath><clipPath
       id="clipPath262"
       clipPathUnits="userSpaceOnUse"><path
         style="clip-rule:evenodd"
         id="path260"
         d="M -84.06,-691.544 H 2177.622 V 638.647 H -84.06 Z" /></clipPath><clipPath
       id="clipPath274"
       clipPathUnits="userSpaceOnUse"><path
         style="clip-rule:evenodd"
         id="path272"
         d="M -84.06,-691.544 H 2177.622 V 638.647 H -84.06 Z" /></clipPath><clipPath
       id="clipPath286"
       clipPathUnits="userSpaceOnUse"><path
         style="clip-rule:evenodd"
         id="path284"
         d="M -84.06,-691.544 H 2177.622 V 638.647 H -84.06 Z" /></clipPath><clipPath
       id="clipPath298"
       clipPathUnits="userSpaceOnUse"><path
         style="clip-rule:evenodd"
         id="path296"
         d="M -84.06,-691.544 H 2177.622 V 638.647 H -84.06 Z" /></clipPath><clipPath
       id="clipPath310"
       clipPathUnits="userSpaceOnUse"><path
         style="clip-rule:evenodd"
         id="path308"
         d="M -84.06,-691.544 H 2177.622 V 638.647 H -84.06 Z" /></clipPath><clipPath
       id="clipPath322"
       clipPathUnits="userSpaceOnUse"><path
         style="clip-rule:evenodd"
         id="path320"
         d="M -84.06,-691.544 H 2177.622 V 638.647 H -84.06 Z" /></clipPath><clipPath
       id="clipPath334"
       clipPathUnits="userSpaceOnUse"><path
         style="clip-rule:evenodd"
         id="path332"
         d="M -84.06,-691.544 H 2177.622 V 638.647 H -84.06 Z" /></clipPath><clipPath
       id="clipPath346"
       clipPathUnits="userSpaceOnUse"><path
         style="clip-rule:evenodd"
         id="path344"
         d="M -84.06,-691.544 H 2177.622 V 638.647 H -84.06 Z" /></clipPath><clipPath
       id="clipPath358"
       clipPathUnits="userSpaceOnUse"><path
         style="clip-rule:evenodd"
         id="path356"
         d="M -84.06,-691.544 H 2177.622 V 638.647 H -84.06 Z" /></clipPath><clipPath
       id="clipPath370"
       clipPathUnits="userSpaceOnUse"><path
         style="clip-rule:evenodd"
         id="path368"
         d="M -84.06,-691.544 H 2177.622 V 638.647 H -84.06 Z" /></clipPath><clipPath
       id="clipPath382"
       clipPathUnits="userSpaceOnUse"><path
         style="clip-rule:evenodd"
         id="path380"
         d="M -84.06,-691.544 H 2177.622 V 638.647 H -84.06 Z" /></clipPath></defs><g
     clip-path="url(#clipPath14)"
     transform="matrix(1.3333333,0,0,-1.3333333,-72,757.33333)"
     id="g10"><g
       transform="translate(0,-14)"
       id="g16"><g
         clip-path="url(#clipPath22)"
         id="g18"><g
           transform="translate(169.3734,347.2202)"
           id="g24"><path
             id="path26"
             style="fill:#333366;fill-opacity:1;fill-rule:evenodd;stroke:none"
             d="m 0,0 c -6.928,0 -12.962,1.564 -18.996,5.14 -6.034,3.576 -10.504,7.822 -14.08,13.856 -3.352,6.035 -4.917,12.069 -4.917,18.997 0,6.928 1.565,12.962 4.917,18.996 3.576,6.034 8.046,10.504 14.08,14.08 6.034,3.352 12.068,4.916 18.996,4.916 6.928,0 12.962,-1.564 18.996,-4.916 6.034,-3.576 10.281,-8.046 13.857,-14.08 3.575,-6.034 5.14,-12.068 5.14,-18.996 0,-6.928 -1.565,-12.962 -5.14,-18.997 C 29.277,12.962 25.03,8.716 18.996,5.14 12.962,1.564 6.928,0 0,0" /></g></g></g><g
       transform="translate(0,-14)"
       id="g28"><g
         clip-path="url(#clipPath34)"
         id="g30"><g
           transform="translate(169.3734,347.2202)"
           id="g36"><path
             id="path38"
             style="fill:#ffffff;fill-opacity:1;fill-rule:nonzero;stroke:none"
             d="m 0,0 v -2.561 c -7.311,-0.013 -13.911,1.695 -20.302,5.498 -3.16,1.872 -5.962,3.953 -8.445,6.376 -2.483,2.423 -4.641,5.185 -6.532,8.378 l -0.036,0.062 c -3.549,6.366 -5.25,12.927 -5.239,20.24 -0.011,7.313 1.69,13.874 5.239,20.24 l 0.036,0.062 c 3.76,6.367 8.61,11.216 14.977,14.977 l 0.062,0.035 c 6.366,3.55 12.927,5.25 20.24,5.24 7.313,0.01 13.874,-1.69 20.24,-5.24 l 0.062,-0.035 c 3.193,-1.891 5.955,-4.049 8.377,-6.532 2.424,-2.483 4.505,-5.285 6.377,-8.445 3.802,-6.391 5.511,-12.992 5.498,-20.302 C 40.567,30.682 38.858,24.082 35.056,17.691 33.177,14.518 31.085,11.762 28.657,9.335 26.23,6.907 23.474,4.816 20.302,2.937 13.911,-0.866 7.311,-2.574 0,-2.561 V 0 2.561 c 6.546,0.013 12.013,1.434 17.691,4.783 2.861,1.696 5.246,3.516 7.344,5.613 2.098,2.099 3.917,4.483 5.614,7.345 3.349,5.677 4.769,11.145 4.783,17.691 -0.014,6.545 -1.434,12.013 -4.783,17.69 -1.703,2.874 -3.534,5.325 -5.636,7.479 -2.103,2.154 -4.481,4.019 -7.322,5.703 l 1.305,2.204 -1.243,-2.239 C 12.05,71.985 6.543,73.413 0,73.424 -6.543,73.413 -12.05,71.985 -17.753,68.83 l -1.243,2.239 1.305,-2.204 c -5.701,-3.391 -9.791,-7.48 -13.182,-13.182 l -2.203,1.306 2.239,-1.244 c -3.155,-5.702 -4.584,-11.209 -4.595,-17.752 0.011,-6.544 1.44,-12.051 4.595,-17.753 l -2.239,-1.244 2.203,1.306 c 1.685,-2.841 3.55,-5.22 5.704,-7.323 2.154,-2.102 4.605,-3.932 7.478,-5.635 C -12.013,3.995 -6.546,2.574 0,2.561 Z" /></g></g></g><g
       transform="translate(0,-14)"
       id="g40"><g
         transform="translate(158.6683,375.7008)"
         id="g42"><path
           id="path44"
           style="fill:#ffffff;fill-opacity:1;fill-rule:nonzero;stroke:none"
           d="m 0,0 c 0.252,-0.212 0.543,-0.319 0.875,-0.319 0.675,0 1.205,0.361 1.59,1.082 0.437,0.862 1.729,5.517 3.876,13.965 h 4.432 C 10.19,12.333 9.766,10.437 9.501,9.04 9.236,7.642 9.103,6.191 9.103,4.684 c 0,-1.069 0.133,-2.17 0.398,-3.303 0.265,-1.133 0.755,-1.7 1.471,-1.7 0.304,0 0.593,0.078 0.864,0.232 0.272,0.155 0.494,0.354 0.666,0.599 0.172,0.244 0.259,0.508 0.259,0.792 0,0.167 -0.04,0.328 -0.12,0.483 -0.914,2.047 -1.371,4.339 -1.371,6.876 0.04,1.97 0.278,3.992 0.715,6.065 h 5.188 c 0.398,0 0.739,0.145 1.024,0.435 0.284,0.289 0.427,0.627 0.427,1.014 0,0.309 -0.099,0.553 -0.298,0.734 -0.199,0.18 -0.437,0.27 -0.716,0.27 H 2.842 c -1.272,0 -2.415,-0.499 -3.428,-1.497 -1.014,-0.998 -1.965,-2.231 -2.853,-3.699 -0.053,-0.103 -0.079,-0.18 -0.079,-0.232 0,-0.257 0.126,-0.386 0.378,-0.386 h 0.477 c 0.105,0 0.185,0.051 0.238,0.155 0.57,0.927 1.285,1.693 2.147,2.298 0.861,0.605 1.789,0.908 2.782,0.908 H 5.108 C 4.671,13.144 4.19,11.653 3.667,10.256 3.144,8.859 2.554,7.423 1.898,5.949 1.242,4.475 0.537,2.971 -0.219,1.439 -0.325,1.156 -0.378,0.943 -0.378,0.802 -0.378,0.48 -0.252,0.212 0,0" /></g></g><g
       transform="translate(0,-14)"
       id="g46"><g
         transform="translate(190.1851,370.2392)"
         id="g48"><path
           id="path50"
           style="fill:#ffffff;fill-opacity:1;fill-rule:nonzero;stroke:none"
           d="m 0,0 v 1.11 c -2.605,0 -3.908,0.275 -3.908,0.825 v 16.13 c -0.046,0.18 -0.157,0.293 -0.332,0.338 h -0.51 c -0.691,-0.65 -1.526,-1.107 -2.507,-1.373 -0.98,-0.267 -2.032,-0.4 -3.155,-0.4 v -1.109 c 1.675,0 3.042,0.248 4.101,0.744 V 1.935 c 0,-0.55 -1.303,-0.825 -3.908,-0.825 V 0 Z" /></g></g><g
       transform="translate(0,-14)"
       id="g52"><g
         clip-path="url(#clipPath58)"
         id="g54"><g
           transform="translate(346.8215,467.6793)"
           id="g60"><path
             id="path62"
             style="fill:#333366;fill-opacity:1;fill-rule:evenodd;stroke:none"
             d="m 0,0 c -7.152,0 -12.962,1.564 -18.996,4.917 -6.258,3.575 -10.504,7.822 -14.08,14.079 -3.352,6.035 -5.14,12.069 -5.14,18.997 0,6.928 1.788,12.962 5.14,18.996 3.576,6.034 7.822,10.28 14.08,13.856 6.034,3.576 11.844,5.14 18.996,5.14 6.928,0 12.739,-1.564 18.996,-5.14 6.034,-3.576 10.281,-7.822 13.856,-13.856 3.576,-6.034 5.141,-12.068 5.141,-18.996 0,-6.928 -1.565,-12.962 -5.141,-18.997 C 29.277,12.739 25.03,8.492 18.996,4.917 12.739,1.564 6.928,0 0,0" /></g></g></g><g
       transform="translate(0,-14)"
       id="g64"><g
         clip-path="url(#clipPath70)"
         id="g66"><g
           transform="translate(346.8215,467.6793)"
           id="g72"><path
             id="path74"
             style="fill:#ffffff;fill-opacity:1;fill-rule:nonzero;stroke:none"
             d="m 0,0 v -2.561 c -3.761,-10e-4 -7.236,0.414 -10.565,1.284 -3.329,0.869 -6.502,2.191 -9.675,3.955 l -0.027,0.015 c -3.29,1.879 -6.118,3.978 -8.586,6.447 -2.469,2.468 -4.567,5.295 -6.447,8.586 l -0.015,0.027 c -3.522,6.319 -5.472,12.866 -5.462,20.24 -0.01,7.374 1.94,13.92 5.462,20.24 l 0.036,0.062 c 1.879,3.172 3.974,5.934 6.437,8.366 2.463,2.434 5.284,4.528 8.575,6.408 l 1.271,-2.224 -1.306,2.204 c 3.185,1.888 6.374,3.277 9.717,4.18 3.342,0.904 6.824,1.318 10.585,1.318 3.656,0 7.084,-0.416 10.418,-1.318 3.335,-0.901 6.565,-2.283 9.849,-4.16 l 0.035,-0.02 c 3.172,-1.88 5.928,-3.971 8.355,-6.399 2.428,-2.427 4.52,-5.183 6.399,-8.355 3.802,-6.391 5.511,-12.992 5.498,-20.302 0.013,-7.311 -1.696,-13.911 -5.498,-20.302 l -2.204,1.305 2.224,-1.27 C 33.197,14.435 31.102,11.613 28.668,9.151 26.236,6.687 23.474,4.592 20.302,2.713 L 20.206,2.659 C 16.934,0.906 13.719,-0.409 10.397,-1.277 7.076,-2.145 3.656,-2.562 0,-2.561 V 0 2.561 c 3.272,10e-4 6.222,0.366 9.102,1.118 2.88,0.753 5.7,1.897 8.685,3.495 L 18.996,4.917 17.691,7.12 c 2.862,1.697 5.24,3.513 7.333,5.631 2.092,2.119 3.908,4.549 5.605,7.516 l 0.02,0.035 c 3.349,5.677 4.769,11.145 4.783,17.691 -0.014,6.545 -1.434,12.013 -4.783,17.69 -1.697,2.862 -3.516,5.246 -5.614,7.345 -2.098,2.098 -4.483,3.917 -7.344,5.614 l 1.305,2.203 -1.27,-2.223 c -2.974,1.698 -5.778,2.886 -8.645,3.662 -2.867,0.774 -5.809,1.139 -9.081,1.14 -3.39,-0.001 -6.389,-0.368 -9.249,-1.14 -2.859,-0.774 -5.592,-1.955 -8.442,-3.642 l -0.035,-0.02 c -2.967,-1.697 -5.397,-3.513 -7.516,-5.605 -2.118,-2.093 -3.934,-4.472 -5.631,-7.334 l -2.203,1.306 2.239,-1.244 c -3.183,-5.749 -4.808,-11.27 -4.818,-17.752 0.01,-6.482 1.635,-12.004 4.818,-17.753 l -2.239,-1.244 2.224,1.271 c 1.696,-2.967 3.509,-5.392 5.621,-7.505 2.114,-2.113 4.538,-3.925 7.505,-5.622 l -1.27,-2.223 1.243,2.239 C -14.891,5.567 -12.142,4.43 -9.27,3.679 -6.397,2.929 -3.39,2.562 0,2.561 Z" /></g></g></g><g
       transform="translate(0,-14)"
       id="g76"><g
         transform="translate(335.9071,495.9365)"
         id="g78"><path
           id="path80"
           style="fill:#ffffff;fill-opacity:1;fill-rule:nonzero;stroke:none"
           d="m 0,0 c 0.252,-0.212 0.545,-0.319 0.877,-0.319 0.678,0 1.21,0.361 1.595,1.082 0.439,0.862 1.735,5.517 3.888,13.965 h 4.447 C 10.222,12.333 9.796,10.437 9.531,9.04 9.265,7.642 9.132,6.191 9.132,4.684 c 0,-1.069 0.133,-2.17 0.399,-3.303 0.265,-1.133 0.757,-1.7 1.475,-1.7 0.306,0 0.595,0.078 0.867,0.232 0.273,0.155 0.495,0.354 0.668,0.599 0.173,0.244 0.259,0.508 0.259,0.792 0,0.167 -0.039,0.328 -0.119,0.483 -0.917,2.047 -1.376,4.339 -1.376,6.876 0.04,1.97 0.279,3.992 0.718,6.065 h 5.204 c 0.399,0 0.741,0.145 1.027,0.435 0.285,0.289 0.428,0.627 0.428,1.014 0,0.309 -0.099,0.553 -0.299,0.734 -0.199,0.18 -0.438,0.27 -0.718,0.27 H 2.851 c -1.276,0 -2.422,-0.499 -3.439,-1.497 -1.017,-0.998 -1.971,-2.231 -2.861,-3.699 -0.054,-0.103 -0.08,-0.18 -0.08,-0.232 0,-0.257 0.126,-0.386 0.379,-0.386 h 0.478 c 0.107,0 0.186,0.051 0.24,0.155 0.571,0.927 1.289,1.693 2.153,2.298 0.864,0.605 1.794,0.908 2.791,0.908 H 5.124 C 4.686,13.144 4.204,11.653 3.679,10.256 3.153,8.859 2.562,7.423 1.904,5.949 1.246,4.475 0.538,2.971 -0.219,1.439 -0.326,1.156 -0.379,0.943 -0.379,0.802 -0.379,0.48 -0.253,0.212 0,0" /></g></g><g
       transform="translate(0,-14)"
       id="g82"><g
         transform="translate(367.911,490.6983)"
         id="g84"><path
           id="path86"
           style="fill:#ffffff;fill-opacity:1;fill-rule:nonzero;stroke:none"
           d="M 0,0 0.846,5.156 H -0.236 C -0.338,4.515 -0.439,3.974 -0.541,3.532 -0.643,3.09 -0.776,2.783 -0.943,2.612 -0.989,2.566 -1.308,2.533 -1.9,2.51 -2.491,2.487 -3.178,2.474 -3.959,2.47 -4.74,2.465 -5.486,2.463 -6.198,2.463 h -2.606 l 3.466,2.882 c 0.296,0.252 0.933,0.751 1.913,1.495 0.98,0.744 1.747,1.387 2.302,1.928 0.555,0.542 1.021,1.166 1.4,1.875 0.379,0.708 0.569,1.472 0.569,2.293 0,1.137 -0.317,2.122 -0.95,2.957 -0.633,0.834 -1.463,1.461 -2.489,1.881 -1.026,0.419 -2.112,0.629 -3.258,0.629 -0.962,0 -1.895,-0.205 -2.801,-0.616 -0.906,-0.41 -1.641,-0.994 -2.204,-1.752 -0.564,-0.758 -0.846,-1.633 -0.846,-2.625 0,-0.415 0.152,-0.771 0.457,-1.069 0.305,-0.298 0.675,-0.447 1.11,-0.447 0.443,0 0.813,0.149 1.109,0.447 0.295,0.298 0.443,0.654 0.443,1.069 0,0.433 -0.145,0.796 -0.436,1.089 -0.292,0.293 -0.664,0.44 -1.116,0.44 h -0.084 c 0.352,0.731 0.876,1.306 1.574,1.725 0.698,0.42 1.467,0.629 2.309,0.629 0.628,0 1.206,-0.106 1.733,-0.318 0.527,-0.212 0.982,-0.516 1.365,-0.913 0.384,-0.397 0.682,-0.864 0.895,-1.401 0.212,-0.536 0.319,-1.111 0.319,-1.725 0,-1.118 -0.312,-2.149 -0.936,-3.092 C -3.584,8.901 -4.456,7.884 -5.574,6.793 -5.787,6.585 -5.951,6.425 -6.066,6.312 -6.182,6.2 -6.336,6.044 -6.531,5.846 l -5.06,-4.818 -0.111,-0.23 V 0 Z" /></g></g><g
       transform="translate(0,-14)"
       id="g88"><g
         clip-path="url(#clipPath94)"
         id="g90"><g
           transform="translate(479.7959,195.2495)"
           id="g96"><path
             id="path98"
             style="fill:#333366;fill-opacity:1;fill-rule:evenodd;stroke:none"
             d="m 0,0 c -6.928,0 -12.962,1.564 -18.996,4.917 -6.034,3.575 -10.504,8.045 -14.08,14.079 -3.352,6.034 -4.917,12.069 -4.917,18.997 0,6.928 1.565,12.962 4.917,18.996 3.576,6.034 8.046,10.28 14.08,13.856 6.034,3.576 12.068,5.14 18.996,5.14 6.928,0 12.962,-1.564 18.996,-5.14 6.034,-3.576 10.281,-7.822 13.856,-13.856 3.576,-6.034 5.141,-12.068 5.141,-18.996 0,-6.928 -1.565,-12.963 -5.141,-18.997 C 29.277,12.962 25.03,8.492 18.996,4.917 12.962,1.564 6.928,0 0,0" /></g></g></g><g
       transform="translate(0,-14)"
       id="g100"><g
         clip-path="url(#clipPath106)"
         id="g102"><g
           transform="translate(479.7959,195.2495)"
           id="g108"><path
             id="path110"
             style="fill:#ffffff;fill-opacity:1;fill-rule:nonzero;stroke:none"
             d="m 0,0 v -2.561 c -7.313,-0.011 -13.874,1.689 -20.24,5.239 l -0.062,0.035 c -6.367,3.761 -11.217,8.611 -14.977,14.978 l -0.036,0.062 c -3.549,6.366 -5.25,12.927 -5.239,20.24 -0.011,7.312 1.69,13.874 5.239,20.24 l 0.036,0.062 c 1.891,3.193 4.049,5.954 6.532,8.377 2.483,2.424 5.285,4.504 8.445,6.376 6.391,3.803 12.991,5.512 20.302,5.499 7.311,0.013 13.911,-1.696 20.302,-5.499 3.172,-1.879 5.928,-3.97 8.355,-6.398 2.428,-2.427 4.52,-5.183 6.399,-8.355 3.802,-6.391 5.511,-12.992 5.498,-20.302 C 40.567,30.682 38.858,24.082 35.056,17.691 33.184,14.53 31.103,11.729 28.679,9.246 26.257,6.762 23.495,4.604 20.302,2.713 L 20.24,2.678 C 13.874,-0.872 7.313,-2.572 0,-2.561 V 0 2.561 C 6.543,2.572 12.05,4 17.753,7.155 L 18.996,4.917 17.691,7.12 c 2.841,1.685 5.219,3.55 7.322,5.703 2.102,2.155 3.933,4.605 5.636,7.479 3.349,5.677 4.769,11.145 4.783,17.691 -0.014,6.545 -1.434,12.013 -4.783,17.69 -1.697,2.862 -3.516,5.246 -5.614,7.345 -2.098,2.097 -4.483,3.917 -7.344,5.614 C 12.013,71.991 6.546,73.411 0,73.424 c -6.546,-0.013 -12.013,-1.433 -17.691,-4.782 -2.873,-1.704 -5.324,-3.534 -7.478,-5.636 -2.154,-2.103 -4.019,-4.482 -5.704,-7.323 l -2.203,1.306 2.239,-1.244 c -3.155,-5.702 -4.583,-11.209 -4.595,-17.752 0.012,-6.544 1.44,-12.051 4.595,-17.753 l -2.239,-1.244 2.203,1.306 c 3.391,-5.701 7.481,-9.791 13.182,-13.182 l -1.305,-2.203 1.243,2.238 C -12.05,4 -6.543,2.572 0,2.561 Z" /></g></g></g><g
       transform="translate(0,-14)"
       id="g112"><g
         transform="translate(469.1049,223.5067)"
         id="g114"><path
           id="path116"
           style="fill:#ffffff;fill-opacity:1;fill-rule:nonzero;stroke:none"
           d="m 0,0 c 0.252,-0.212 0.545,-0.319 0.877,-0.319 0.678,0 1.21,0.361 1.595,1.082 0.439,0.863 1.735,5.517 3.888,13.965 h 4.447 C 10.222,12.333 9.796,10.437 9.531,9.04 9.265,7.642 9.132,6.191 9.132,4.684 c 0,-1.069 0.133,-2.17 0.399,-3.303 0.265,-1.133 0.757,-1.7 1.475,-1.7 0.306,0 0.595,0.078 0.867,0.232 0.273,0.155 0.495,0.354 0.668,0.599 0.173,0.244 0.259,0.508 0.259,0.792 0,0.167 -0.039,0.328 -0.119,0.483 -0.917,2.047 -1.376,4.339 -1.376,6.876 0.04,1.97 0.279,3.992 0.718,6.065 h 5.204 c 0.399,0 0.741,0.145 1.027,0.435 0.285,0.289 0.428,0.627 0.428,1.014 0,0.309 -0.099,0.553 -0.299,0.734 -0.199,0.18 -0.438,0.27 -0.718,0.27 H 2.851 c -1.276,0 -2.422,-0.499 -3.439,-1.497 -1.017,-0.998 -1.971,-2.231 -2.861,-3.699 -0.054,-0.103 -0.08,-0.18 -0.08,-0.232 0,-0.257 0.126,-0.386 0.379,-0.386 h 0.478 c 0.107,0 0.186,0.051 0.24,0.155 0.571,0.927 1.289,1.693 2.153,2.298 0.864,0.605 1.794,0.908 2.791,0.908 H 5.124 C 4.686,13.144 4.204,11.653 3.679,10.256 3.153,8.859 2.562,7.423 1.904,5.949 1.246,4.475 0.538,2.971 -0.219,1.439 -0.326,1.156 -0.379,0.943 -0.379,0.802 -0.379,0.48 -0.253,0.212 0,0" /></g></g><g
       transform="translate(0,-14)"
       id="g118"><g
         transform="translate(496.795,222.8151)"
         id="g120"><path
           id="path122"
           style="fill:#ffffff;fill-opacity:1;fill-rule:nonzero;stroke:none"
           d="m 0,0 v -2.612 c 0,-0.55 -1.021,-0.825 -3.064,-0.825 v -1.11 h 8.652 v 1.11 c -2.043,0 -3.065,0.275 -3.065,0.825 V 0 H 5.615 V 1.11 H 2.523 v 12.354 c 0,0.117 -0.037,0.212 -0.11,0.284 -0.075,0.072 -0.172,0.108 -0.292,0.108 H 1.567 c -0.176,0 -0.31,-0.063 -0.402,-0.189 L -8.291,1.11 V 0 Z M 0.194,10.785 V 1.11 h -7.265 z" /></g></g><g
       transform="translate(0,-14)"
       id="g124"><g
         clip-path="url(#clipPath130)"
         id="g126"><g
           transform="translate(283.3514,144.518)"
           id="g132"><path
             id="path134"
             style="fill:#333366;fill-opacity:1;fill-rule:evenodd;stroke:none"
             d="m 0,0 c -6.928,0 -12.962,1.564 -18.996,5.14 -6.034,3.576 -10.281,7.822 -13.856,13.856 -3.576,6.035 -5.141,12.069 -5.141,18.997 0,6.928 1.565,12.962 5.141,18.996 3.575,6.034 7.822,10.504 13.856,13.856 6.034,3.576 12.068,5.14 18.996,5.14 6.928,0 12.962,-1.564 18.996,-5.14 6.035,-3.352 10.504,-7.822 13.857,-13.856 3.575,-6.034 5.14,-12.068 5.14,-18.996 0,-6.928 -1.565,-12.962 -5.14,-18.997 C 29.5,12.962 25.031,8.716 18.996,5.14 12.962,1.564 6.928,0 0,0" /></g></g></g><g
       transform="translate(0,-14)"
       id="g136"><g
         clip-path="url(#clipPath142)"
         id="g138"><g
           transform="translate(283.3514,144.518)"
           id="g144"><path
             id="path146"
             style="fill:#ffffff;fill-opacity:1;fill-rule:nonzero;stroke:none"
             d="m 0,0 v -2.561 c -7.311,-0.013 -13.911,1.695 -20.302,5.498 -3.172,1.879 -5.928,3.97 -8.355,6.398 -2.428,2.427 -4.52,5.183 -6.399,8.356 -3.802,6.391 -5.511,12.991 -5.498,20.302 -0.013,7.31 1.696,13.911 5.498,20.302 1.873,3.16 3.955,5.965 6.388,8.428 2.431,2.463 5.211,4.575 8.428,6.361 l 1.244,-2.239 -1.306,2.204 C -13.911,76.851 -7.311,78.56 0,78.547 7.311,78.56 13.911,76.851 20.302,73.049 l -1.306,-2.204 1.244,2.239 c 6.415,-3.55 11.301,-8.436 14.851,-14.851 l -2.238,-1.244 2.203,1.306 c 3.802,-6.391 5.511,-12.992 5.498,-20.302 0.013,-7.311 -1.696,-13.911 -5.498,-20.302 l -2.203,1.305 2.238,-1.243 C 33.306,14.536 31.193,11.756 28.73,9.324 26.267,6.891 23.462,4.809 20.302,2.937 13.911,-0.866 7.311,-2.574 0,-2.561 V 0 2.561 c 6.546,0.013 12.013,1.434 17.691,4.783 2.874,1.703 5.32,3.532 7.439,5.624 2.119,2.095 3.917,4.455 5.484,7.272 l 0.035,0.062 c 3.349,5.677 4.769,11.145 4.783,17.691 -0.014,6.545 -1.434,12.013 -4.783,17.69 l -0.035,0.062 c -3.155,5.653 -7.208,9.707 -12.861,12.861 l -0.062,0.036 C 12.013,71.991 6.546,73.411 0,73.424 -6.545,73.411 -12.013,71.991 -17.691,68.642 l -0.062,-0.036 c -2.817,-1.566 -5.177,-3.365 -7.271,-5.483 -2.093,-2.119 -3.922,-4.566 -5.625,-7.44 -3.349,-5.677 -4.769,-11.145 -4.783,-17.69 0.014,-6.546 1.434,-12.014 4.783,-17.691 1.697,-2.862 3.516,-5.246 5.614,-7.345 2.098,-2.097 4.483,-3.917 7.344,-5.613 C -12.013,3.995 -6.545,2.574 0,2.561 Z" /></g></g></g><g
       transform="translate(0,-14)"
       id="g148"><g
         transform="translate(272.6605,172.9987)"
         id="g150"><path
           id="path152"
           style="fill:#ffffff;fill-opacity:1;fill-rule:nonzero;stroke:none"
           d="m 0,0 c 0.252,-0.212 0.545,-0.319 0.877,-0.319 0.678,0 1.21,0.361 1.595,1.082 0.439,0.863 1.735,5.517 3.888,13.965 h 4.447 C 10.222,12.333 9.796,10.437 9.531,9.04 9.265,7.642 9.132,6.191 9.132,4.684 c 0,-1.069 0.133,-2.17 0.399,-3.303 0.265,-1.133 0.757,-1.7 1.475,-1.7 0.306,0 0.595,0.078 0.867,0.232 0.273,0.155 0.495,0.354 0.668,0.599 0.173,0.244 0.259,0.508 0.259,0.792 0,0.167 -0.039,0.328 -0.119,0.483 -0.917,2.047 -1.376,4.339 -1.376,6.876 0.04,1.97 0.279,3.992 0.718,6.065 h 5.204 c 0.399,0 0.741,0.145 1.027,0.435 0.285,0.289 0.428,0.627 0.428,1.014 0,0.309 -0.099,0.553 -0.299,0.734 -0.199,0.18 -0.438,0.27 -0.718,0.27 H 2.851 c -1.276,0 -2.422,-0.499 -3.439,-1.497 -1.017,-0.998 -1.971,-2.231 -2.861,-3.699 -0.054,-0.103 -0.08,-0.18 -0.08,-0.232 0,-0.257 0.126,-0.386 0.379,-0.386 h 0.478 c 0.107,0 0.186,0.051 0.24,0.155 0.571,0.927 1.289,1.693 2.153,2.298 0.864,0.605 1.794,0.908 2.791,0.908 H 5.124 C 4.686,13.144 4.204,11.653 3.679,10.256 3.153,8.859 2.562,7.423 1.904,5.949 1.246,4.475 0.538,2.971 -0.219,1.439 -0.326,1.156 -0.379,0.943 -0.379,0.802 -0.379,0.48 -0.253,0.212 0,0" /></g></g><g
       transform="translate(0,-14)"
       id="g154"><g
         transform="translate(294.2222,170.5513)"
         id="g156"><path
           id="path158"
           style="fill:#ffffff;fill-opacity:1;fill-rule:nonzero;stroke:none"
           d="M 0,0 C 0.416,0 0.765,0.142 1.047,0.426 1.329,0.709 1.47,1.059 1.47,1.473 1.47,1.878 1.329,2.218 1.047,2.493 0.765,2.768 0.416,2.905 0,2.905 c -0.416,0 -0.767,-0.139 -1.054,-0.419 -0.286,-0.279 -0.43,-0.617 -0.43,-1.013 0,-0.955 0.264,-1.818 0.791,-2.589 0.527,-0.77 1.231,-1.372 2.114,-1.804 0.883,-0.433 1.81,-0.649 2.78,-0.649 0.86,0 1.699,0.144 2.517,0.433 0.818,0.289 1.557,0.71 2.218,1.265 0.661,0.555 1.181,1.209 1.56,1.962 0.379,0.753 0.568,1.568 0.568,2.443 0,1.055 -0.261,2.047 -0.783,2.977 C 9.759,6.44 9.042,7.182 8.132,7.737 7.221,8.291 6.221,8.569 5.13,8.569 3.577,8.569 2.265,8.122 1.192,7.229 v 5.088 c 0.86,-0.225 1.747,-0.338 2.663,-0.338 1.118,0 2.197,0.232 3.237,0.697 1.04,0.464 1.93,1.111 2.669,1.942 l 0.083,0.189 v 0.271 L 9.747,15.294 C 9.682,15.357 9.604,15.389 9.512,15.389 H 9.414 C 8.656,15.082 7.912,14.856 7.182,14.712 6.452,14.568 5.712,14.496 4.964,14.496 c -0.749,0 -1.486,0.072 -2.212,0.216 -0.726,0.144 -1.476,0.37 -2.253,0.677 H 0.388 c -0.092,0 -0.171,-0.03 -0.235,-0.088 C 0.088,15.242 0.055,15.167 0.055,15.077 V 5.892 C 0.102,5.701 0.222,5.583 0.416,5.538 H 0.735 C 0.855,5.565 1.044,5.723 1.303,6.011 1.562,6.3 1.832,6.562 2.114,6.796 2.396,7.031 2.785,7.236 3.279,7.412 3.774,7.588 4.391,7.676 5.13,7.676 5.98,7.676 6.639,7.405 7.106,6.865 7.573,6.324 7.88,5.678 8.028,4.926 8.176,4.173 8.25,3.383 8.25,2.554 8.25,1.599 8.123,0.741 7.869,-0.02 7.614,-0.782 7.18,-1.397 6.565,-1.865 5.95,-2.334 5.153,-2.568 4.173,-2.568 3.286,-2.568 2.44,-2.336 1.636,-1.872 0.832,-1.408 0.245,-0.784 -0.125,0 Z" /></g></g><g
       transform="translate(0,-14)"
       id="g160"><g
         clip-path="url(#clipPath166)"
         id="g162"><g
           transform="translate(505.0499,353.4777)"
           id="g168"><path
             id="path170"
             style="fill:#333366;fill-opacity:1;fill-rule:evenodd;stroke:none"
             d="m 0,0 c -6.928,0 -12.962,1.564 -18.996,5.14 -6.034,3.576 -10.281,7.822 -13.856,13.856 -3.576,6.258 -5.141,12.069 -5.141,18.997 0,7.151 1.565,12.962 5.141,19.22 3.575,6.034 7.822,10.28 13.856,13.856 6.034,3.352 12.068,5.14 18.996,5.14 6.928,0 12.962,-1.788 18.996,-5.14 6.034,-3.576 10.504,-7.822 14.08,-13.856 3.352,-6.258 4.917,-12.069 4.917,-19.22 0,-6.928 -1.565,-12.739 -4.917,-18.997 C 29.5,12.962 25.03,8.716 18.996,5.14 12.962,1.564 6.928,0 0,0" /></g></g></g><g
       transform="translate(0,-14)"
       id="g172"><g
         clip-path="url(#clipPath178)"
         id="g174"><g
           transform="translate(505.0499,353.4777)"
           id="g180"><path
             id="path182"
             style="fill:#ffffff;fill-opacity:1;fill-rule:nonzero;stroke:none"
             d="m 0,0 v -2.561 c -7.311,-0.013 -13.911,1.695 -20.302,5.498 -3.172,1.879 -5.928,3.97 -8.355,6.398 -2.428,2.427 -4.52,5.183 -6.399,8.356 l -0.02,0.035 c -1.878,3.284 -3.259,6.514 -4.16,9.849 -0.902,3.334 -1.319,6.762 -1.318,10.418 -10e-4,3.761 0.414,7.243 1.317,10.607 0.9,3.365 2.283,6.599 4.161,9.883 l 0.02,0.035 c 1.879,3.173 3.971,5.929 6.399,8.356 2.427,2.428 5.183,4.519 8.355,6.398 l 0.062,0.035 C -13.921,76.83 -7.374,78.78 0,78.77 7.374,78.78 13.921,76.83 20.24,73.307 l 0.062,-0.035 c 3.16,-1.872 5.962,-3.953 8.445,-6.376 2.483,-2.423 4.641,-5.185 6.532,-8.378 l 0.055,-0.096 c 1.753,-3.272 3.07,-6.49 3.937,-9.842 0.868,-3.351 1.284,-6.826 1.283,-10.587 10e-4,-3.656 -0.416,-7.076 -1.285,-10.397 -0.867,-3.322 -2.182,-6.537 -3.936,-9.809 L 35.279,17.691 C 33.388,14.498 31.23,11.736 28.747,9.313 26.264,6.89 23.462,4.809 20.302,2.937 13.911,-0.866 7.311,-2.574 0,-2.561 V 0 2.561 c 6.546,0.013 12.013,1.434 17.691,4.783 2.873,1.703 5.324,3.534 7.478,5.635 2.154,2.103 4.019,4.482 5.704,7.323 l 2.203,-1.306 -2.258,1.21 c 1.599,2.985 2.743,5.805 3.495,8.685 0.752,2.88 1.118,5.83 1.119,9.102 -0.001,3.39 -0.368,6.397 -1.12,9.303 -0.753,2.906 -1.895,5.722 -3.494,8.707 l 2.258,1.21 -2.203,-1.306 c -1.685,2.841 -3.55,5.219 -5.704,7.323 -2.154,2.101 -4.605,3.932 -7.478,5.635 l 1.305,2.204 -1.243,-2.239 C 12.004,72.012 6.482,73.638 0,73.648 -6.482,73.638 -12.004,72.012 -17.753,68.83 l -1.243,2.239 1.305,-2.204 c -2.861,-1.696 -5.246,-3.516 -7.344,-5.614 -2.098,-2.098 -3.917,-4.482 -5.614,-7.344 l -2.203,1.306 2.223,-1.271 c -1.698,-2.974 -2.885,-5.774 -3.661,-8.667 -0.774,-2.893 -1.141,-5.892 -1.142,-9.282 0.001,-3.273 0.367,-6.214 1.141,-9.082 0.775,-2.867 1.964,-5.671 3.662,-8.644 l -2.223,-1.271 2.203,1.306 c 1.697,-2.862 3.516,-5.246 5.614,-7.345 2.098,-2.097 4.483,-3.917 7.344,-5.613 C -12.013,3.995 -6.546,2.574 0,2.561 Z" /></g></g></g><g
       transform="translate(0,-14)"
       id="g184"><g
         transform="translate(494.3334,382.1826)"
         id="g186"><path
           id="path188"
           style="fill:#ffffff;fill-opacity:1;fill-rule:nonzero;stroke:none"
           d="m 0,0 c 0.251,-0.211 0.542,-0.317 0.872,-0.317 0.674,0 1.203,0.359 1.586,1.076 0.437,0.857 1.725,5.486 3.866,13.886 h 4.422 C 10.164,12.263 9.741,10.378 9.477,8.988 9.212,7.599 9.08,6.156 9.08,4.658 9.08,3.595 9.212,2.5 9.477,1.373 c 0.264,-1.127 0.753,-1.69 1.467,-1.69 0.304,0 0.591,0.077 0.862,0.231 0.271,0.153 0.492,0.352 0.664,0.595 0.172,0.243 0.258,0.506 0.258,0.787 0,0.167 -0.039,0.327 -0.119,0.481 -0.912,2.035 -1.368,4.314 -1.368,6.837 0.04,1.959 0.278,3.969 0.714,6.031 h 5.174 c 0.397,0 0.737,0.144 1.022,0.432 0.284,0.288 0.426,0.624 0.426,1.008 0,0.307 -0.099,0.551 -0.298,0.73 -0.198,0.179 -0.436,0.269 -0.713,0.269 H 2.835 c -1.269,0 -2.409,-0.496 -3.42,-1.489 -1.011,-0.992 -1.96,-2.218 -2.845,-3.678 -0.053,-0.102 -0.079,-0.179 -0.079,-0.23 0,-0.256 0.125,-0.384 0.377,-0.384 h 0.475 c 0.106,0 0.185,0.051 0.238,0.153 0.568,0.922 1.282,1.684 2.141,2.286 0.859,0.602 1.785,0.903 2.776,0.903 H 5.095 C 4.659,13.07 4.18,11.588 3.658,10.198 3.136,8.809 2.548,7.381 1.893,5.915 1.239,4.449 0.535,2.954 -0.218,1.431 -0.324,1.149 -0.377,0.938 -0.377,0.797 -0.377,0.477 -0.251,0.211 0,0" /></g></g><g
       transform="translate(0,-14)"
       id="g190"><g
         transform="translate(517.0071,379.3377)"
         id="g192"><path
           id="path194"
           style="fill:#ffffff;fill-opacity:1;fill-rule:nonzero;stroke:none"
           d="m 0,0 c 0.306,0.313 0.46,0.689 0.46,1.127 0,0.287 -0.075,0.551 -0.224,0.792 -0.15,0.242 -0.348,0.43 -0.595,0.564 -0.247,0.134 -0.519,0.201 -0.818,0.201 -0.466,0 -0.857,-0.147 -1.175,-0.442 -0.317,-0.296 -0.475,-0.667 -0.475,-1.115 0,-0.966 0.332,-1.776 0.997,-2.429 0.664,-0.653 1.482,-1.127 2.453,-1.423 0.971,-0.295 1.959,-0.443 2.963,-0.443 1.078,0 2.135,0.215 3.171,0.645 1.036,0.429 1.887,1.049 2.551,1.859 0.665,0.809 0.997,1.751 0.997,2.825 0,0.841 -0.241,1.599 -0.724,2.275 C 9.098,5.112 8.476,5.666 7.715,6.1 6.954,6.534 6.15,6.836 5.306,7.007 c 1.179,0.384 2.158,1.002 2.938,1.852 0.78,0.85 1.17,1.843 1.17,2.98 0,0.823 -0.309,1.525 -0.926,2.107 -0.618,0.582 -1.372,1.009 -2.263,1.282 -0.891,0.273 -1.769,0.409 -2.632,0.409 -0.836,0 -1.683,-0.134 -2.542,-0.402 -0.858,-0.269 -1.571,-0.69 -2.137,-1.262 -0.567,-0.573 -0.85,-1.284 -0.85,-2.134 0,-0.394 0.149,-0.734 0.446,-1.02 0.297,-0.287 0.664,-0.43 1.1,-0.43 0.427,0 0.784,0.143 1.072,0.43 0.288,0.286 0.432,0.626 0.432,1.02 0,0.393 -0.137,0.74 -0.411,1.04 -0.274,0.3 -0.61,0.45 -1.009,0.45 0.445,0.492 1.011,0.847 1.699,1.067 0.687,0.219 1.42,0.328 2.2,0.328 0.9,0 1.615,-0.266 2.144,-0.798 0.53,-0.533 0.794,-1.228 0.794,-2.087 0,-1.02 -0.299,-1.998 -0.898,-2.933 C 5.034,7.971 4.243,7.503 3.259,7.503 L 1.462,7.382 1.246,7.295 1.142,7.087 V 6.805 L 1.246,6.611 1.462,6.51 H 3.559 C 4.356,6.51 5.023,6.306 5.56,5.899 6.097,5.492 6.491,4.96 6.741,4.302 6.991,3.644 7.116,2.93 7.116,2.161 7.116,1.418 6.993,0.713 6.748,0.047 6.502,-0.62 6.115,-1.157 5.587,-1.564 5.059,-1.971 4.391,-2.174 3.585,-2.174 c -0.603,0 -1.196,0.051 -1.78,0.154 -0.584,0.103 -1.135,0.284 -1.654,0.543 -0.519,0.26 -0.941,0.595 -1.265,1.007 0.436,0 0.808,0.157 1.114,0.47" /></g></g><g
       transform="translate(0,-14)"
       id="g196"><g
         clip-path="url(#clipPath202)"
         id="g198"><g
           transform="translate(167.6973,423.2055)"
           id="g204"><path
             id="path206"
             style="fill:#ffffff;fill-opacity:1;fill-rule:nonzero;stroke:none"
             d="m 0,0 c 0,13.919 2.207,25.703 6.689,35.644 3.359,7.453 8,13.856 13.887,19.302 8.832,8.173 20.43,14.189 34.72,18.608 14.294,4.419 31.299,7.25 51.046,9.017 l 0.299,-3.338 C 89.218,77.675 74.014,75.282 61.045,71.736 51.318,69.077 42.85,65.77 35.633,61.695 24.807,55.577 16.799,47.768 11.434,37.707 6.074,27.645 3.353,15.268 3.352,0 Z" /></g></g></g><g
       transform="translate(0,-14)"
       id="g208"><g
         clip-path="url(#clipPath214)"
         id="g210"><g
           transform="translate(308.6053,505.6719)"
           id="g216"><path
             id="path218"
             style="fill:#ffffff;fill-opacity:1;fill-rule:evenodd;stroke:none"
             d="m 0,0 -36.428,10.28 1.117,-23.913 z" /></g></g></g><g
       transform="translate(0,-14)"
       id="g220"><g
         clip-path="url(#clipPath226)"
         id="g222"><g
           transform="translate(207.366,386.889)"
           id="g228"><path
             id="path230"
             style="fill:#ffffff;fill-opacity:1;fill-rule:nonzero;stroke:none"
             d="m 0,0 c 22.088,0 39.877,-2.04 54.358,-5.677 12.668,-3.182 22.806,-7.593 31.033,-12.929 14.408,-9.335 22.89,-21.502 28.924,-34.526 4.531,-9.772 7.72,-20.038 11.083,-30.076 5.041,-15.067 10.471,-29.576 21.148,-41.307 5.341,-5.871 11.998,-11.073 20.654,-15.343 8.655,-4.269 19.315,-7.602 32.631,-9.674 l -0.515,-3.313 c -15.772,2.455 -28.059,6.669 -37.801,12.206 -8.523,4.843 -15.086,10.7 -20.298,17.205 -9.126,11.39 -14.126,24.7 -18.652,38.133 -3.393,10.08 -6.52,20.243 -10.846,29.786 -3.244,7.159 -7.156,13.967 -12.348,20.164 -7.793,9.29 -18.46,17.244 -34.286,22.934 C 49.262,-6.733 28.273,-3.351 0,-3.352 Z" /></g></g></g><g
       transform="translate(0,-14)"
       id="g232"><g
         clip-path="url(#clipPath238)"
         id="g234"><g
           transform="translate(441.8032,233.2421)"
           id="g240"><path
             id="path242"
             style="fill:#ffffff;fill-opacity:1;fill-rule:evenodd;stroke:none"
             d="M 0,0 -35.087,14.527 -36.875,-9.386 Z" /></g></g></g><g
       transform="translate(0,-14)"
       id="g244"><g
         clip-path="url(#clipPath250)"
         id="g246"><g
           transform="translate(245.3587,180.8345)"
           id="g252"><path
             id="path254"
             style="fill:#ffffff;fill-opacity:1;fill-rule:nonzero;stroke:none"
             d="m 0,0 c -12.917,-0.003 -23.979,2.769 -33.307,8.372 -6.995,4.198 -12.995,9.973 -18.089,17.258 -7.643,10.933 -13.273,25.251 -17.36,42.946 -4.085,17.697 -6.622,38.786 -8.009,63.298 l 3.347,0.189 c 2.442,-43.36 8.554,-75.747 20.164,-97.04 5.802,-10.653 12.936,-18.53 21.673,-23.777 C -22.842,6.003 -12.449,3.356 0,3.352 Z" /></g></g></g><g
       transform="translate(0,-14)"
       id="g256"><g
         clip-path="url(#clipPath262)"
         id="g258"><g
           transform="translate(169.3734,347.2202)"
           id="g264"><path
             id="path266"
             style="fill:#ffffff;fill-opacity:1;fill-rule:evenodd;stroke:none"
             d="m 0,0 -10.951,-36.428 23.913,0.67 z" /></g></g></g><g
       transform="translate(0,-14)"
       id="g268"><g
         clip-path="url(#clipPath274)"
         id="g270"><g
           transform="translate(281.6752,220.5034)"
           id="g276"><path
             id="path278"
             style="fill:#ffffff;fill-opacity:1;fill-rule:nonzero;stroke:none"
             d="m 0,0 c 0.001,28.616 3.126,52.984 9.417,73.628 9.425,30.963 26.049,53.545 49.737,69.206 23.685,15.668 54.327,24.447 91.866,28.236 l 0.337,-3.335 c -24.808,-2.502 -46.462,-7.2 -64.96,-14.573 C 58.648,142.09 38.001,125.074 24.166,100.222 10.338,75.367 3.351,42.565 3.352,0 Z" /></g></g></g><g
       transform="translate(0,-14)"
       id="g280"><g
         clip-path="url(#clipPath286)"
         id="g282"><g
           transform="translate(467.0572,391.4704)"
           id="g288"><path
             id="path290"
             style="fill:#ffffff;fill-opacity:1;fill-rule:evenodd;stroke:none"
             d="m 0,0 -36.428,10.28 1.117,-23.913 z" /></g></g></g><g
       transform="translate(0,-14)"
       id="g292"><g
         clip-path="url(#clipPath298)"
         id="g294"><g
           transform="translate(481.472,195.2495)"
           id="g300"><path
             id="path302"
             style="fill:#ffffff;fill-opacity:1;fill-rule:nonzero;stroke:none"
             d="m 0,0 c 0,-19.169 -2.879,-35.076 -7.99,-48.162 -7.657,-19.632 -20.381,-32.874 -35.655,-41.104 -15.276,-8.238 -33.055,-11.515 -50.988,-11.517 -16.166,0.001 -32.471,2.665 -47.25,6.827 -14.78,4.164 -28.029,9.82 -38.104,15.863 l 1.725,2.874 c 9.755,-5.855 22.771,-11.424 37.288,-15.511 14.519,-4.089 30.544,-6.702 46.341,-6.701 11.685,0 23.243,1.429 33.981,4.723 16.113,4.949 30.363,14.051 40.653,28.902 C -9.714,-48.952 -3.355,-28.259 -3.352,0 Z" /></g></g></g><g
       transform="translate(0,-14)"
       id="g304"><g
         clip-path="url(#clipPath310)"
         id="g306"><g
           transform="translate(283.3514,144.518)"
           id="g312"><path
             id="path314"
             style="fill:#ffffff;fill-opacity:1;fill-rule:evenodd;stroke:none"
             d="m 0,0 12.515,-35.758 18.997,14.527 z" /></g></g></g><g
       transform="translate(0,-14)"
       id="g316"><g
         clip-path="url(#clipPath322)"
         id="g318"><g
           transform="translate(517.7885,234.9183)"
           id="g324"><path
             id="path326"
             style="fill:#ffffff;fill-opacity:1;fill-rule:nonzero;stroke:none"
             d="m 0,0 c 13.101,0 23.918,2.15 32.777,5.898 13.283,5.629 22.219,14.825 27.93,26.078 5.702,11.25 8.118,24.582 8.116,38.277 0.001,12.461 -1.997,25.211 -5.275,36.914 -3.276,11.703 -7.836,22.363 -12.905,30.63 l 2.858,1.752 c 5.267,-8.595 9.921,-19.506 13.275,-31.478 C 70.127,96.1 72.175,83.072 72.176,70.253 72.173,51.485 67.787,33.108 56.468,19.335 50.812,12.456 43.423,6.76 34.083,2.811 24.742,-1.141 13.465,-3.353 0,-3.352 Z" /></g></g></g><g
       transform="translate(0,-14)"
       id="g328"><g
         clip-path="url(#clipPath334)"
         id="g330"><g
           transform="translate(543.0425,391.4704)"
           id="g336"><path
             id="path338"
             style="fill:#ffffff;fill-opacity:1;fill-rule:evenodd;stroke:none"
             d="m 0,0 22.572,-30.394 13.856,19.443 z" /></g></g></g><g
       transform="translate(0,-14)"
       id="g340"><g
         clip-path="url(#clipPath346)"
         id="g342"><g
           transform="translate(503.3737,429.6867)"
           id="g348"><path
             id="path350"
             style="fill:#ffffff;fill-opacity:1;fill-rule:nonzero;stroke:none"
             d="m 0,0 c 0,12.471 -1.767,22.782 -5.24,31.327 -2.607,6.411 -6.167,11.839 -10.709,16.49 -6.81,6.972 -15.863,12.213 -27.26,16.184 -11.393,3.97 -25.111,6.656 -41.129,8.532 l 0.391,3.329 c 14.368,-1.684 26.977,-4.015 37.846,-7.383 8.151,-2.526 15.326,-5.637 21.513,-9.51 9.28,-5.804 16.327,-13.355 20.987,-23.065 C 1.063,26.194 3.352,14.379 3.352,0 Z" /></g></g></g><g
       transform="translate(0,-14)"
       id="g352"><g
         clip-path="url(#clipPath358)"
         id="g354"><g
           transform="translate(384.8142,505.6719)"
           id="g360"><path
             id="path362"
             style="fill:#ffffff;fill-opacity:1;fill-rule:evenodd;stroke:none"
             d="M 0,0 35.311,-14.08 36.428,9.833 Z" /></g></g></g><g
       transform="translate(0,-14)"
       id="g364"><g
         clip-path="url(#clipPath370)"
         id="g366"><g
           transform="translate(345.1454,467.6793)"
           id="g372"><path
             id="path374"
             style="fill:#ffffff;fill-opacity:1;fill-rule:nonzero;stroke:none"
             d="M 0,0 C 0.005,0.369 0.029,0.719 0.178,1.158 0.26,1.377 0.37,1.635 0.641,1.929 0.778,2.073 0.962,2.224 1.201,2.338 1.437,2.452 1.725,2.52 1.999,2.519 2.358,2.519 2.668,2.414 2.893,2.294 3.331,2.052 3.537,1.791 3.728,1.542 4.065,1.07 4.308,0.544 4.593,-0.202 5.08,-1.5 5.63,-3.449 6.275,-6.431 c 1.926,-8.929 4.663,-27.118 8.021,-63.141 v -0.005 c 2.903,-32.231 5.451,-66.723 5.451,-98.75 0,-19.763 -0.97,-38.587 -3.436,-55.382 -2.469,-16.796 -6.425,-31.565 -12.477,-43.235 l -2.975,1.544 c 5.799,11.168 9.706,25.614 12.136,42.178 2.433,16.564 3.4,35.243 3.4,54.895 0,31.851 -2.538,66.258 -5.437,98.449 v -0.005 C 8.148,-39.722 5.77,-22.111 3.969,-12.097 3.07,-7.093 2.311,-3.982 1.74,-2.205 1.458,-1.321 1.214,-0.764 1.083,-0.536 L 1.021,-0.435 1.02,-0.434 1.68,0.095 1.21,-0.6 C 1.071,-0.504 1.03,-0.445 1.02,-0.434 L 1.68,0.095 1.21,-0.6 1.999,0.566 v -1.4 C 1.613,-0.832 1.343,-0.691 1.21,-0.6 l 0.789,1.166 v -1.4 1.503 L 2.647,-0.687 C 2.458,-0.779 2.219,-0.835 1.999,-0.834 V 0.669 L 2.647,-0.687 2.042,0.579 3.235,-0.171 C 3.152,-0.301 2.986,-0.521 2.647,-0.687 L 2.042,0.579 3.235,-0.171 2.546,0.262 3.358,0.108 C 3.352,0.099 3.357,0.033 3.235,-0.171 L 2.546,0.262 3.358,0.108 3.355,0.082 3.352,0 Z" /></g></g></g><g
       transform="translate(0,-14)"
       id="g376"><g
         clip-path="url(#clipPath382)"
         id="g378"><g
           transform="translate(321.3441,182.5107)"
           id="g384"><path
             id="path386"
             style="fill:#ffffff;fill-opacity:1;fill-rule:evenodd;stroke:none"
             d="M 0,0 35.981,12.068 21.455,31.288 Z" /></g></g></g><g
       transform="translate(0,-14)"
       id="g388"><g
         transform="translate(87.5165,450.4011)"
         id="g390"><path
           id="path392"
           style="fill:#ffffff;fill-opacity:1;fill-rule:nonzero;stroke:none"
           d="m 0,0 h 8.733 c 0.252,0 0.409,0.059 0.469,0.176 0.059,0.118 0.136,0.353 0.229,0.706 0,0.13 -0.037,0.248 -0.11,0.352 C 9.248,1.339 9.145,1.391 9.012,1.391 7.218,1.391 6.32,1.564 6.32,1.91 6.334,1.975 6.373,2.2 6.44,2.586 l 5.722,22.06 c 0,0.335 -0.153,0.503 -0.459,0.503 -0.293,0 -0.802,-0.358 -1.527,-1.072 C 9.451,23.362 9.008,22.85 8.849,22.541 8.503,23.326 7.997,23.957 7.332,24.434 6.666,24.91 5.921,25.149 5.096,25.149 c -1.783,0 -3.444,-0.603 -4.981,-1.806 -1.537,-1.205 -2.754,-2.714 -3.653,-4.53 -0.898,-1.816 -1.347,-3.567 -1.347,-5.254 0,-1.712 0.49,-3.196 1.468,-4.452 0.979,-1.255 2.328,-1.883 4.046,-1.883 1.558,0 3.116,0.747 4.675,2.241 L 3.549,2.738 C 3.376,2.148 3.007,1.776 2.442,1.622 1.877,1.468 1.103,1.391 0.12,1.391 -0.146,1.391 -0.326,1.097 -0.419,0.509 -0.419,0.17 -0.279,0 0,0 m -1.206,9.376 c -0.406,0.727 -0.608,1.547 -0.608,2.46 0,1.016 0.242,2.443 0.727,4.283 0.485,1.839 0.994,3.286 1.526,4.34 0.545,0.991 1.212,1.849 2.003,2.576 0.791,0.726 1.645,1.09 2.563,1.09 0.89,0 1.605,-0.335 2.143,-1.003 0.538,-0.669 0.887,-1.467 1.047,-2.392 L 5.902,11.836 C 5.224,10.871 4.429,10.039 3.519,9.338 2.609,8.637 1.675,8.286 0.718,8.286 c -0.878,0 -1.519,0.363 -1.924,1.09" /></g></g><g
       transform="translate(0,-14)"
       id="g394"><g
         transform="translate(112.7438,452.4822)"
         id="g396"><path
           id="path398"
           style="fill:#ffffff;fill-opacity:1;fill-rule:nonzero;stroke:none"
           d="m 0,0 v 1.11 c -2.626,0 -3.94,0.275 -3.94,0.825 v 16.13 c -0.046,0.18 -0.158,0.293 -0.334,0.338 h -0.515 c -0.696,-0.65 -1.538,-1.107 -2.526,-1.373 -0.989,-0.267 -2.049,-0.4 -3.181,-0.4 v -1.109 c 1.689,0 3.067,0.248 4.134,0.744 V 1.935 c 0,-0.55 -1.313,-0.825 -3.939,-0.825 l 0,-1.11 z" /></g></g><g
       transform="translate(0,-14)"
       id="g400"><g
         transform="translate(141.7852,458.7203)"
         id="g402"><path
           id="path404"
           style="fill:#ffffff;fill-opacity:1;fill-rule:nonzero;stroke:none"
           d="M 0,0 C -1.07,-0.758 -1.964,-1.673 -2.682,-2.747 -3.4,-3.821 -3.89,-4.975 -4.153,-6.211 c 0,-0.244 0.127,-0.383 0.38,-0.419 h 0.69 c 0.206,0.027 0.324,0.139 0.352,0.338 0.216,1.037 0.631,2.011 1.246,2.923 0.614,0.911 1.382,1.686 2.302,2.327 0.919,0.641 1.923,1.096 3.012,1.367 L 4.005,0.453 4.069,0.69 c 0,0.19 -0.08,0.311 -0.24,0.365 -1.098,0.271 -2.102,0.72 -3.012,1.347 -0.911,0.627 -1.674,1.394 -2.288,2.3 -0.615,0.907 -1.035,1.888 -1.26,2.943 -0.028,0.199 -0.146,0.312 -0.352,0.339 h -0.69 C -4.026,7.948 -4.153,7.808 -4.153,7.564 -3.984,6.743 -3.707,5.952 -3.322,5.189 -2.938,4.427 -2.459,3.719 -1.886,3.065 -1.314,2.411 -0.685,1.84 0,1.353 h -23.581 c -0.179,0 -0.334,-0.067 -0.465,-0.203 -0.131,-0.135 -0.197,-0.289 -0.197,-0.46 0,-0.18 0.066,-0.34 0.197,-0.48 C -23.915,0.07 -23.76,0 -23.581,0 Z" /></g></g><g
       transform="translate(0,-14)"
       id="g406"><g
         transform="translate(161.0168,452.4822)"
         id="g408"><path
           id="path410"
           style="fill:#ffffff;fill-opacity:1;fill-rule:nonzero;stroke:none"
           d="M 0,0 0.849,5.156 H -0.237 C -0.339,4.515 -0.441,3.974 -0.543,3.532 -0.645,3.09 -0.78,2.783 -0.947,2.612 -0.993,2.566 -1.313,2.533 -1.907,2.51 -2.501,2.487 -3.19,2.474 -3.974,2.47 -4.759,2.465 -5.508,2.463 -6.223,2.463 H -8.84 l 3.48,2.882 c 0.297,0.252 0.938,0.751 1.922,1.495 0.983,0.744 1.754,1.387 2.31,1.928 0.557,0.542 1.026,1.166 1.406,1.875 0.381,0.708 0.571,1.472 0.571,2.293 0,1.137 -0.318,2.122 -0.953,2.957 -0.636,0.834 -1.469,1.461 -2.499,1.881 -1.03,0.419 -2.121,0.629 -3.272,0.629 -0.965,0 -1.902,-0.205 -2.812,-0.616 -0.909,-0.41 -1.647,-0.994 -2.213,-1.752 -0.566,-0.758 -0.849,-1.633 -0.849,-2.625 0,-0.415 0.153,-0.771 0.459,-1.069 0.306,-0.298 0.677,-0.447 1.114,-0.447 0.445,0 0.816,0.149 1.113,0.447 0.297,0.298 0.446,0.654 0.446,1.069 0,0.433 -0.146,0.796 -0.439,1.089 -0.292,0.293 -0.666,0.44 -1.12,0.44 h -0.084 c 0.353,0.731 0.879,1.306 1.58,1.725 0.701,0.42 1.474,0.629 2.318,0.629 0.631,0 1.211,-0.106 1.74,-0.318 0.529,-0.212 0.986,-0.516 1.371,-0.913 0.385,-0.397 0.685,-0.864 0.898,-1.401 0.214,-0.536 0.321,-1.111 0.321,-1.725 0,-1.118 -0.314,-2.149 -0.94,-3.092 C -3.599,8.901 -4.473,7.884 -5.596,6.793 -5.81,6.585 -5.974,6.425 -6.09,6.312 -6.207,6.2 -6.362,6.044 -6.557,5.846 l -5.081,-4.818 -0.111,-0.23 V 0 Z" /></g></g><g
       transform="translate(0,-14)"
       id="g412"><g
         transform="translate(520.186,456.6588)"
         id="g414"><path
           id="path416"
           style="fill:#ffffff;fill-opacity:1;fill-rule:nonzero;stroke:none"
           d="m 0,0 h 8.733 c 0.252,0 0.409,0.059 0.469,0.176 0.059,0.118 0.136,0.353 0.229,0.706 0,0.13 -0.037,0.248 -0.11,0.352 C 9.248,1.339 9.145,1.391 9.012,1.391 7.218,1.391 6.32,1.564 6.32,1.91 6.334,1.975 6.373,2.2 6.44,2.586 l 5.722,22.06 c 0,0.335 -0.153,0.503 -0.459,0.503 -0.293,0 -0.802,-0.358 -1.527,-1.072 C 9.451,23.362 9.008,22.85 8.849,22.541 8.503,23.326 7.997,23.957 7.332,24.434 6.666,24.91 5.921,25.149 5.096,25.149 c -1.783,0 -3.444,-0.603 -4.981,-1.806 -1.537,-1.205 -2.754,-2.714 -3.652,-4.53 -0.899,-1.816 -1.348,-3.567 -1.348,-5.254 0,-1.712 0.489,-3.196 1.468,-4.452 0.979,-1.255 2.328,-1.883 4.046,-1.883 1.558,0 3.116,0.747 4.675,2.241 L 3.549,2.738 C 3.376,2.148 3.007,1.776 2.442,1.622 1.877,1.468 1.103,1.391 0.12,1.391 -0.146,1.391 -0.326,1.097 -0.419,0.509 -0.419,0.17 -0.279,0 0,0 m -1.206,9.376 c -0.406,0.727 -0.608,1.547 -0.608,2.46 0,1.016 0.242,2.443 0.727,4.283 0.485,1.839 0.994,3.286 1.526,4.34 0.545,0.991 1.212,1.849 2.003,2.576 0.791,0.726 1.645,1.09 2.563,1.09 0.89,0 1.605,-0.335 2.143,-1.003 0.538,-0.669 0.887,-1.467 1.047,-2.392 L 5.902,11.836 C 5.224,10.871 4.429,10.039 3.519,9.338 2.609,8.637 1.675,8.286 0.718,8.286 c -0.877,0 -1.519,0.363 -1.924,1.09" /></g></g><g
       transform="translate(0,-14)"
       id="g418"><g
         transform="translate(536.2255,461.602)"
         id="g420"><path
           id="path422"
           style="fill:#ffffff;fill-opacity:1;fill-rule:nonzero;stroke:none"
           d="m 0,0 c 0.306,0.316 0.459,0.695 0.459,1.137 0,0.288 -0.074,0.554 -0.223,0.798 -0.15,0.244 -0.348,0.433 -0.594,0.568 -0.248,0.136 -0.52,0.203 -0.818,0.203 -0.466,0 -0.858,-0.149 -1.175,-0.446 -0.317,-0.298 -0.475,-0.672 -0.475,-1.123 0,-0.975 0.332,-1.791 0.996,-2.45 0.665,-0.658 1.482,-1.136 2.453,-1.434 0.971,-0.298 1.958,-0.446 2.961,-0.446 1.078,0 2.135,0.216 3.171,0.649 1.036,0.433 1.886,1.058 2.55,1.874 0.664,0.817 0.997,1.766 0.997,2.849 0,0.847 -0.242,1.612 -0.724,2.293 C 9.095,5.153 8.473,5.712 7.712,6.15 6.951,6.588 6.148,6.892 5.304,7.064 c 1.178,0.387 2.158,1.01 2.937,1.867 0.78,0.857 1.17,1.858 1.17,3.004 0,0.83 -0.309,1.538 -0.926,2.124 -0.618,0.587 -1.371,1.017 -2.262,1.293 -0.891,0.275 -1.768,0.412 -2.631,0.412 -0.836,0 -1.683,-0.135 -2.541,-0.406 -0.858,-0.27 -1.571,-0.694 -2.137,-1.272 -0.566,-0.577 -0.849,-1.294 -0.849,-2.151 0,-0.397 0.148,-0.74 0.445,-1.029 0.297,-0.288 0.664,-0.433 1.1,-0.433 0.427,0 0.784,0.145 1.072,0.433 0.288,0.289 0.432,0.632 0.432,1.029 0,0.397 -0.137,0.746 -0.411,1.049 -0.274,0.302 -0.61,0.453 -1.009,0.453 0.445,0.496 1.011,0.855 1.698,1.076 0.687,0.221 1.42,0.331 2.2,0.331 0.9,0 1.614,-0.268 2.143,-0.805 C 6.264,13.502 6.529,12.801 6.529,11.935 6.529,10.906 6.23,9.921 5.631,8.978 5.032,8.035 4.241,7.564 3.258,7.564 L 1.462,7.442 1.246,7.354 1.142,7.145 V 6.861 L 1.246,6.664 1.461,6.563 h 2.097 c 0.796,0 1.463,-0.205 2,-0.616 C 6.095,5.537 6.488,5 6.739,4.337 6.989,3.674 7.114,2.954 7.114,2.179 7.114,1.43 6.991,0.719 6.745,0.047 6.5,-0.625 6.113,-1.166 5.585,-1.576 5.057,-1.987 4.39,-2.192 3.584,-2.192 c -0.603,0 -1.196,0.052 -1.779,0.155 -0.584,0.104 -1.135,0.287 -1.654,0.549 -0.519,0.261 -0.941,0.599 -1.265,1.014 0.436,0 0.808,0.158 1.114,0.474" /></g></g><g
       transform="translate(0,-14)"
       id="g424"><g
         transform="translate(574.4547,465.2014)"
         id="g426"><path
           id="path428"
           style="fill:#ffffff;fill-opacity:1;fill-rule:nonzero;stroke:none"
           d="m 0,0 c -1.07,-0.758 -1.964,-1.673 -2.682,-2.747 -0.718,-1.074 -1.209,-2.228 -1.471,-3.464 0,-0.244 0.127,-0.383 0.38,-0.419 h 0.69 c 0.206,0.027 0.324,0.139 0.352,0.338 0.216,1.037 0.631,2.011 1.246,2.923 0.614,0.911 1.382,1.686 2.302,2.327 0.919,0.641 1.923,1.096 3.012,1.367 L 4.005,0.453 4.069,0.69 c 0,0.19 -0.08,0.311 -0.24,0.365 -1.098,0.271 -2.102,0.72 -3.012,1.347 -0.911,0.627 -1.674,1.394 -2.288,2.3 -0.615,0.907 -1.035,1.888 -1.26,2.943 -0.028,0.199 -0.146,0.312 -0.352,0.339 h -0.69 C -4.026,7.948 -4.153,7.808 -4.153,7.564 -3.984,6.743 -3.707,5.952 -3.323,5.189 -2.938,4.427 -2.459,3.719 -1.887,3.065 -1.314,2.411 -0.685,1.84 0,1.353 h -23.581 c -0.179,0 -0.334,-0.067 -0.465,-0.203 -0.131,-0.135 -0.197,-0.289 -0.197,-0.46 0,-0.18 0.066,-0.34 0.197,-0.48 C -23.915,0.07 -23.76,0 -23.581,0 Z" /></g></g><g
       transform="translate(0,-14)"
       id="g430"><g
         transform="translate(593.6863,458.9633)"
         id="g432"><path
           id="path434"
           style="fill:#ffffff;fill-opacity:1;fill-rule:nonzero;stroke:none"
           d="M 0,0 0.849,5.156 H -0.237 C -0.339,4.515 -0.441,3.974 -0.543,3.532 -0.645,3.09 -0.78,2.783 -0.947,2.612 -0.993,2.566 -1.313,2.533 -1.907,2.51 -2.501,2.487 -3.19,2.474 -3.974,2.47 -4.759,2.465 -5.508,2.463 -6.223,2.463 H -8.84 l 3.48,2.882 c 0.297,0.252 0.938,0.751 1.922,1.495 0.983,0.744 1.754,1.387 2.31,1.928 0.557,0.542 1.026,1.166 1.406,1.875 0.381,0.708 0.571,1.472 0.571,2.293 0,1.137 -0.318,2.122 -0.953,2.957 -0.636,0.834 -1.469,1.461 -2.499,1.881 -1.03,0.419 -2.121,0.629 -3.272,0.629 -0.965,0 -1.902,-0.205 -2.812,-0.616 -0.909,-0.41 -1.647,-0.994 -2.213,-1.752 -0.566,-0.758 -0.849,-1.633 -0.849,-2.625 0,-0.415 0.153,-0.771 0.459,-1.069 0.306,-0.298 0.678,-0.447 1.114,-0.447 0.445,0 0.816,0.149 1.113,0.447 0.297,0.298 0.446,0.654 0.446,1.069 0,0.433 -0.146,0.796 -0.439,1.089 -0.292,0.293 -0.666,0.44 -1.12,0.44 h -0.084 c 0.353,0.731 0.88,1.306 1.58,1.725 0.701,0.42 1.474,0.629 2.318,0.629 0.631,0 1.211,-0.106 1.74,-0.318 0.529,-0.212 0.986,-0.516 1.372,-0.913 0.384,-0.397 0.684,-0.864 0.897,-1.401 0.214,-0.536 0.321,-1.111 0.321,-1.725 0,-1.118 -0.314,-2.149 -0.94,-3.092 C -3.599,8.901 -4.473,7.884 -5.596,6.793 -5.81,6.585 -5.974,6.425 -6.09,6.312 -6.207,6.2 -6.362,6.044 -6.557,5.846 l -5.081,-4.818 -0.111,-0.23 V 0 Z" /></g></g><g
       transform="translate(0,-14)"
       id="g436"><g
         transform="translate(239.7107,399.6697)"
         id="g438"><path
           id="path440"
           style="fill:#ffffff;fill-opacity:1;fill-rule:nonzero;stroke:none"
           d="m 0,0 h 8.733 c 0.252,0 0.409,0.059 0.469,0.176 0.059,0.118 0.136,0.353 0.229,0.706 0,0.13 -0.037,0.248 -0.11,0.352 C 9.248,1.339 9.145,1.391 9.012,1.391 7.218,1.391 6.32,1.564 6.32,1.91 6.334,1.975 6.373,2.2 6.44,2.586 l 5.722,22.06 c 0,0.335 -0.153,0.503 -0.459,0.503 -0.293,0 -0.802,-0.358 -1.527,-1.072 C 9.451,23.362 9.008,22.85 8.849,22.541 8.503,23.326 7.997,23.957 7.332,24.434 6.666,24.91 5.921,25.149 5.096,25.149 c -1.783,0 -3.444,-0.603 -4.981,-1.806 -1.537,-1.205 -2.754,-2.714 -3.653,-4.53 -0.898,-1.816 -1.347,-3.567 -1.347,-5.254 0,-1.712 0.49,-3.196 1.468,-4.452 0.979,-1.255 2.328,-1.883 4.046,-1.883 1.558,0 3.116,0.747 4.675,2.241 L 3.549,2.738 C 3.376,2.148 3.007,1.776 2.442,1.622 1.877,1.468 1.103,1.391 0.12,1.391 -0.146,1.391 -0.326,1.097 -0.419,0.509 -0.419,0.17 -0.279,0 0,0 m -1.206,9.376 c -0.406,0.727 -0.608,1.547 -0.608,2.46 0,1.016 0.242,2.443 0.727,4.283 0.485,1.839 0.994,3.286 1.526,4.34 0.545,0.991 1.212,1.849 2.003,2.576 0.791,0.726 1.645,1.09 2.563,1.09 0.89,0 1.605,-0.335 2.143,-1.003 0.538,-0.669 0.887,-1.467 1.047,-2.392 L 5.902,11.836 C 5.224,10.871 4.429,10.039 3.519,9.338 2.609,8.637 1.675,8.286 0.718,8.286 c -0.878,0 -1.519,0.363 -1.924,1.09" /></g></g><g
       transform="translate(0,-14)"
       id="g442"><g
         transform="translate(264.7145,401.9743)"
         id="g444"><path
           id="path446"
           style="fill:#ffffff;fill-opacity:1;fill-rule:nonzero;stroke:none"
           d="m 0,0 v 1.11 c -2.626,0 -3.94,0.275 -3.94,0.825 v 16.13 c -0.046,0.18 -0.158,0.293 -0.334,0.338 h -0.515 c -0.696,-0.65 -1.538,-1.107 -2.526,-1.373 -0.989,-0.267 -2.049,-0.4 -3.181,-0.4 v -1.109 c 1.689,0 3.067,0.248 4.134,0.744 V 1.935 c 0,-0.55 -1.313,-0.825 -3.939,-0.825 l 0,-1.11 z" /></g></g><g
       transform="translate(0,-14)"
       id="g448"><g
         transform="translate(293.9794,408.2124)"
         id="g450"><path
           id="path452"
           style="fill:#ffffff;fill-opacity:1;fill-rule:nonzero;stroke:none"
           d="M 0,0 C -1.07,-0.758 -1.964,-1.673 -2.682,-2.747 -3.4,-3.821 -3.89,-4.975 -4.153,-6.211 c 0,-0.244 0.127,-0.383 0.38,-0.419 h 0.69 c 0.206,0.027 0.324,0.139 0.352,0.338 0.216,1.037 0.631,2.011 1.246,2.923 0.614,0.911 1.382,1.686 2.302,2.327 0.919,0.641 1.923,1.096 3.012,1.367 L 4.005,0.453 4.069,0.69 c 0,0.19 -0.08,0.311 -0.24,0.365 -1.098,0.271 -2.102,0.72 -3.012,1.347 -0.911,0.627 -1.674,1.394 -2.288,2.3 -0.615,0.907 -1.035,1.888 -1.26,2.943 -0.028,0.199 -0.146,0.312 -0.352,0.339 h -0.69 C -4.026,7.948 -4.153,7.808 -4.153,7.564 -3.984,6.743 -3.707,5.952 -3.323,5.189 -2.938,4.427 -2.459,3.719 -1.887,3.065 -1.314,2.411 -0.685,1.84 0,1.353 h -23.581 c -0.179,0 -0.334,-0.067 -0.465,-0.203 -0.131,-0.135 -0.197,-0.289 -0.197,-0.46 0,-0.18 0.066,-0.34 0.197,-0.48 C -23.915,0.07 -23.76,0 -23.581,0 Z" /></g></g><g
       transform="translate(0,-14)"
       id="g454"><g
         transform="translate(308.8808,406.5209)"
         id="g456"><path
           id="path458"
           style="fill:#ffffff;fill-opacity:1;fill-rule:nonzero;stroke:none"
           d="m 0,0 v -2.612 c 0,-0.55 -1.026,-0.825 -3.077,-0.825 v -1.11 H 5.61 v 1.11 c -2.051,0 -3.076,0.275 -3.076,0.825 V 0 H 5.638 V 1.11 H 2.534 v 12.354 c 0,0.117 -0.038,0.212 -0.112,0.284 C 2.348,13.82 2.25,13.856 2.13,13.856 H 1.573 c -0.176,0 -0.311,-0.063 -0.404,-0.189 L -8.325,1.11 V 0 Z M 0.195,10.785 V 1.11 H -7.1 Z" /></g></g><g
       transform="translate(0,-14)"
       id="g460"><g
         transform="translate(121.0394,158.975)"
         id="g462"><path
           id="path464"
           style="fill:#ffffff;fill-opacity:1;fill-rule:nonzero;stroke:none"
           d="m 0,0 h 8.733 c 0.252,0 0.409,0.059 0.469,0.176 0.059,0.118 0.136,0.353 0.229,0.706 0,0.13 -0.037,0.248 -0.11,0.352 C 9.248,1.338 9.145,1.391 9.012,1.391 7.218,1.391 6.32,1.564 6.32,1.91 6.334,1.975 6.373,2.2 6.44,2.586 l 5.722,22.06 c 0,0.335 -0.153,0.503 -0.459,0.503 -0.293,0 -0.802,-0.358 -1.527,-1.072 C 9.451,23.362 9.008,22.85 8.849,22.541 8.503,23.326 7.997,23.957 7.332,24.434 6.666,24.91 5.921,25.149 5.096,25.149 c -1.783,0 -3.444,-0.603 -4.981,-1.806 -1.537,-1.205 -2.754,-2.714 -3.653,-4.53 -0.898,-1.816 -1.347,-3.567 -1.347,-5.254 0,-1.712 0.49,-3.196 1.468,-4.452 0.979,-1.255 2.328,-1.883 4.046,-1.883 1.558,0 3.116,0.747 4.675,2.24 L 3.549,2.738 C 3.376,2.148 3.007,1.776 2.442,1.622 1.877,1.468 1.103,1.391 0.12,1.391 -0.146,1.391 -0.326,1.097 -0.419,0.509 -0.419,0.17 -0.279,0 0,0 m -1.206,9.376 c -0.406,0.727 -0.608,1.547 -0.608,2.46 0,1.016 0.242,2.443 0.727,4.283 0.485,1.839 0.994,3.286 1.526,4.34 0.545,0.991 1.212,1.849 2.003,2.576 0.791,0.726 1.645,1.09 2.563,1.09 0.89,0 1.605,-0.335 2.143,-1.003 0.538,-0.669 0.887,-1.467 1.047,-2.392 L 5.902,11.836 C 5.224,10.871 4.429,10.039 3.519,9.338 2.609,8.637 1.675,8.286 0.718,8.286 c -0.878,0 -1.519,0.363 -1.924,1.09" /></g></g><g
       transform="translate(0,-14)"
       id="g466"><g
         transform="translate(136.0069,164.2937)"
         id="g468"><path
           id="path470"
           style="fill:#ffffff;fill-opacity:1;fill-rule:nonzero;stroke:none"
           d="m 0,0 c 0.418,0 0.768,0.142 1.051,0.426 0.283,0.283 0.425,0.633 0.425,1.047 0,0.405 -0.142,0.745 -0.425,1.02 C 0.768,2.768 0.418,2.905 0,2.905 -0.418,2.905 -0.77,2.766 -1.058,2.486 -1.346,2.207 -1.49,1.869 -1.49,1.473 c 0,-0.955 0.265,-1.818 0.794,-2.589 0.529,-0.77 1.237,-1.372 2.123,-1.804 0.886,-0.433 1.817,-0.649 2.791,-0.649 0.863,0 1.705,0.144 2.527,0.433 0.821,0.289 1.563,0.71 2.227,1.265 0.663,0.555 1.186,1.209 1.566,1.962 0.381,0.753 0.571,1.568 0.571,2.443 0,1.055 -0.262,2.047 -0.787,2.977 C 9.798,6.44 9.079,7.182 8.165,7.737 7.25,8.291 6.246,8.569 5.151,8.569 3.592,8.569 2.274,8.122 1.197,7.229 v 5.088 c 0.863,-0.225 1.754,-0.338 2.673,-0.338 1.123,0 2.206,0.232 3.251,0.697 1.044,0.464 1.937,1.111 2.679,1.942 l 0.084,0.189 v 0.271 L 9.786,15.294 C 9.721,15.357 9.642,15.389 9.55,15.389 H 9.452 C 8.691,15.082 7.944,14.856 7.211,14.712 6.478,14.568 5.735,14.496 4.984,14.496 c -0.752,0 -1.492,0.072 -2.221,0.216 -0.728,0.144 -1.482,0.37 -2.262,0.677 H 0.39 c -0.093,0 -0.172,-0.03 -0.237,-0.088 C 0.088,15.242 0.056,15.167 0.056,15.077 V 5.892 C 0.102,5.701 0.223,5.583 0.418,5.538 h 0.32 C 0.858,5.565 1.049,5.723 1.309,6.011 1.568,6.3 1.84,6.562 2.123,6.796 2.406,7.031 2.796,7.236 3.292,7.412 3.789,7.588 4.408,7.676 5.151,7.676 6.004,7.676 6.666,7.405 7.134,6.865 7.603,6.324 7.912,5.678 8.06,4.926 8.209,4.173 8.283,3.383 8.283,2.554 8.283,1.599 8.155,0.741 7.9,-0.02 7.645,-0.782 7.209,-1.397 6.592,-1.865 5.974,-2.334 5.174,-2.568 4.19,-2.568 3.299,-2.568 2.45,-2.336 1.643,-1.872 0.835,-1.408 0.246,-0.784 -0.125,0 Z" /></g></g><g
       transform="translate(0,-14)"
       id="g472"><g
         transform="translate(175.3081,167.5176)"
         id="g474"><path
           id="path476"
           style="fill:#ffffff;fill-opacity:1;fill-rule:nonzero;stroke:none"
           d="M 0,0 C -1.07,-0.758 -1.964,-1.673 -2.682,-2.747 -3.4,-3.821 -3.89,-4.975 -4.153,-6.211 c 0,-0.244 0.127,-0.383 0.38,-0.419 h 0.69 c 0.206,0.027 0.324,0.139 0.352,0.338 0.216,1.037 0.631,2.011 1.246,2.923 0.614,0.911 1.382,1.686 2.302,2.327 0.919,0.64 1.923,1.096 3.012,1.367 L 4.005,0.453 4.069,0.69 c 0,0.19 -0.08,0.311 -0.24,0.365 -1.098,0.271 -2.102,0.72 -3.012,1.347 -0.911,0.627 -1.674,1.394 -2.288,2.3 -0.615,0.907 -1.035,1.888 -1.26,2.943 -0.028,0.199 -0.146,0.312 -0.352,0.339 h -0.69 C -4.026,7.947 -4.153,7.808 -4.153,7.564 -3.984,6.743 -3.707,5.952 -3.322,5.189 -2.938,4.427 -2.459,3.719 -1.886,3.065 -1.314,2.411 -0.685,1.84 0,1.353 h -23.581 c -0.179,0 -0.334,-0.068 -0.465,-0.203 -0.131,-0.135 -0.197,-0.289 -0.197,-0.46 0,-0.18 0.066,-0.341 0.197,-0.48 C -23.915,0.07 -23.76,0 -23.581,0 Z" /></g></g><g
       transform="translate(0,-14)"
       id="g478"><g
         transform="translate(194.5398,161.2795)"
         id="g480"><path
           id="path482"
           style="fill:#ffffff;fill-opacity:1;fill-rule:nonzero;stroke:none"
           d="m 0,0 v 1.11 c -2.626,0 -3.94,0.275 -3.94,0.825 v 16.13 c -0.046,0.18 -0.158,0.293 -0.334,0.338 h -0.515 c -0.696,-0.65 -1.538,-1.107 -2.526,-1.373 -0.989,-0.267 -2.049,-0.4 -3.181,-0.4 v -1.109 c 1.689,0 3.067,0.248 4.134,0.744 V 1.935 c 0,-0.55 -1.313,-0.825 -3.939,-0.825 l 0,-1.11 z" /></g></g><g
       transform="translate(0,-14)"
       id="g484"><g
         transform="translate(492.9207,146.2362)"
         id="g486"><path
           id="path488"
           style="fill:#ffffff;fill-opacity:1;fill-rule:nonzero;stroke:none"
           d="m 0,0 h 8.733 c 0.252,0 0.409,0.059 0.469,0.176 0.059,0.118 0.136,0.353 0.229,0.706 0,0.13 -0.037,0.248 -0.11,0.352 C 9.248,1.338 9.145,1.391 9.012,1.391 7.218,1.391 6.32,1.564 6.32,1.91 6.334,1.975 6.373,2.2 6.44,2.586 l 5.722,22.06 c 0,0.335 -0.153,0.503 -0.459,0.503 -0.293,0 -0.802,-0.358 -1.527,-1.072 C 9.451,23.362 9.008,22.85 8.849,22.541 8.503,23.326 7.997,23.957 7.332,24.434 6.666,24.91 5.921,25.149 5.096,25.149 c -1.783,0 -3.444,-0.603 -4.981,-1.806 -1.537,-1.205 -2.754,-2.714 -3.653,-4.53 -0.898,-1.816 -1.347,-3.567 -1.347,-5.254 0,-1.712 0.49,-3.196 1.468,-4.452 0.979,-1.255 2.328,-1.883 4.046,-1.883 1.558,0 3.116,0.747 4.675,2.24 L 3.549,2.738 C 3.376,2.148 3.007,1.776 2.442,1.622 1.877,1.468 1.103,1.391 0.12,1.391 -0.146,1.391 -0.326,1.097 -0.419,0.509 -0.419,0.17 -0.279,0 0,0 m -1.206,9.376 c -0.406,0.727 -0.608,1.547 -0.608,2.46 0,1.016 0.242,2.443 0.727,4.283 0.485,1.839 0.994,3.286 1.526,4.34 0.545,0.991 1.212,1.849 2.003,2.576 0.791,0.726 1.645,1.09 2.563,1.09 0.89,0 1.605,-0.335 2.143,-1.003 0.538,-0.669 0.887,-1.467 1.047,-2.392 L 5.902,11.836 C 5.224,10.871 4.429,10.039 3.519,9.338 2.609,8.637 1.675,8.286 0.718,8.286 c -0.877,0 -1.519,0.363 -1.924,1.09" /></g></g><g
       transform="translate(0,-14)"
       id="g490"><g
         transform="translate(514.0413,153.0874)"
         id="g492"><path
           id="path494"
           style="fill:#ffffff;fill-opacity:1;fill-rule:nonzero;stroke:none"
           d="m 0,0 v -2.612 c 0,-0.55 -1.026,-0.825 -3.077,-0.825 v -1.11 H 5.61 v 1.11 c -2.051,0 -3.076,0.275 -3.076,0.825 V 0 H 5.638 V 1.11 H 2.534 v 12.354 c 0,0.117 -0.038,0.212 -0.112,0.284 C 2.348,13.82 2.25,13.856 2.13,13.856 H 1.573 c -0.176,0 -0.311,-0.063 -0.404,-0.189 L -8.325,1.11 V 0 Z M 0.195,10.785 V 1.11 H -7.1 Z" /></g></g><g
       transform="translate(0,-14)"
       id="g496"><g
         transform="translate(547.4129,154.7789)"
         id="g498"><path
           id="path500"
           style="fill:#ffffff;fill-opacity:1;fill-rule:nonzero;stroke:none"
           d="m 0,0 c -1.07,-0.758 -1.964,-1.673 -2.682,-2.747 -0.718,-1.074 -1.209,-2.228 -1.471,-3.464 0,-0.244 0.127,-0.383 0.38,-0.419 h 0.69 c 0.206,0.027 0.324,0.139 0.352,0.338 0.216,1.037 0.631,2.011 1.246,2.923 0.614,0.911 1.382,1.686 2.302,2.327 0.919,0.64 1.923,1.096 3.012,1.367 L 4.005,0.453 4.069,0.69 c 0,0.19 -0.08,0.311 -0.24,0.365 -1.098,0.271 -2.102,0.72 -3.012,1.347 -0.911,0.627 -1.674,1.394 -2.288,2.3 -0.615,0.907 -1.035,1.888 -1.26,2.943 -0.028,0.199 -0.146,0.312 -0.352,0.339 h -0.69 C -4.026,7.947 -4.153,7.808 -4.153,7.564 -3.984,6.743 -3.707,5.952 -3.323,5.189 -2.938,4.427 -2.459,3.719 -1.887,3.065 -1.314,2.411 -0.685,1.84 0,1.353 h -23.581 c -0.179,0 -0.334,-0.068 -0.465,-0.203 -0.131,-0.135 -0.197,-0.289 -0.197,-0.46 0,-0.18 0.066,-0.341 0.197,-0.48 C -23.915,0.07 -23.76,0 -23.581,0 Z" /></g></g><g
       transform="translate(0,-14)"
       id="g502"><g
         transform="translate(556.1613,151.555)"
         id="g504"><path
           id="path506"
           style="fill:#ffffff;fill-opacity:1;fill-rule:nonzero;stroke:none"
           d="m 0,0 c 0.418,0 0.768,0.142 1.051,0.426 0.283,0.283 0.425,0.633 0.425,1.047 0,0.405 -0.142,0.745 -0.425,1.02 C 0.768,2.768 0.418,2.905 0,2.905 -0.418,2.905 -0.77,2.766 -1.058,2.486 -1.346,2.207 -1.49,1.869 -1.49,1.473 c 0,-0.955 0.265,-1.818 0.794,-2.589 0.529,-0.77 1.237,-1.372 2.123,-1.804 0.886,-0.433 1.817,-0.649 2.791,-0.649 0.863,0 1.705,0.144 2.527,0.433 0.821,0.289 1.563,0.71 2.227,1.265 0.663,0.555 1.186,1.209 1.566,1.962 0.381,0.753 0.571,1.568 0.571,2.443 0,1.055 -0.262,2.047 -0.787,2.977 C 9.798,6.44 9.079,7.182 8.165,7.737 7.25,8.291 6.246,8.569 5.151,8.569 3.592,8.569 2.274,8.122 1.197,7.229 v 5.088 c 0.863,-0.225 1.754,-0.338 2.673,-0.338 1.123,0 2.206,0.232 3.251,0.697 1.044,0.464 1.937,1.111 2.679,1.942 l 0.084,0.189 v 0.271 L 9.786,15.294 C 9.721,15.357 9.642,15.389 9.55,15.389 H 9.452 C 8.691,15.082 7.944,14.856 7.211,14.712 6.478,14.568 5.735,14.496 4.984,14.496 c -0.752,0 -1.492,0.072 -2.221,0.216 -0.728,0.144 -1.482,0.37 -2.262,0.677 H 0.39 c -0.093,0 -0.172,-0.03 -0.237,-0.088 C 0.088,15.242 0.056,15.167 0.056,15.077 V 5.892 C 0.102,5.701 0.223,5.583 0.418,5.538 h 0.32 C 0.858,5.565 1.049,5.723 1.309,6.011 1.568,6.3 1.84,6.562 2.123,6.796 2.406,7.031 2.796,7.236 3.292,7.412 3.789,7.588 4.408,7.676 5.151,7.676 6.005,7.676 6.666,7.405 7.134,6.865 7.603,6.324 7.912,5.678 8.06,4.926 8.209,4.173 8.283,3.383 8.283,2.554 8.283,1.599 8.155,0.741 7.9,-0.02 7.645,-0.782 7.209,-1.397 6.592,-1.865 5.974,-2.334 5.174,-2.568 4.19,-2.568 3.299,-2.568 2.45,-2.336 1.643,-1.872 0.835,-1.408 0.246,-0.784 -0.125,0 Z" /></g></g><g
       transform="translate(0,-14)"
       id="g508"><g
         transform="translate(581.6448,215.964)"
         id="g510"><path
           id="path512"
           style="fill:#ffffff;fill-opacity:1;fill-rule:nonzero;stroke:none"
           d="m 0,0 h 8.733 c 0.252,0 0.409,0.059 0.469,0.176 0.059,0.118 0.136,0.353 0.229,0.706 0,0.13 -0.037,0.248 -0.11,0.352 C 9.248,1.338 9.145,1.391 9.012,1.391 7.218,1.391 6.32,1.564 6.32,1.91 6.334,1.975 6.373,2.2 6.44,2.586 l 5.722,22.06 c 0,0.335 -0.153,0.503 -0.459,0.503 -0.293,0 -0.802,-0.358 -1.527,-1.072 C 9.451,23.362 9.008,22.85 8.849,22.541 8.503,23.326 7.997,23.957 7.332,24.434 6.666,24.91 5.921,25.149 5.096,25.149 c -1.783,0 -3.444,-0.603 -4.981,-1.806 -1.537,-1.205 -2.754,-2.714 -3.652,-4.53 -0.899,-1.816 -1.348,-3.567 -1.348,-5.254 0,-1.712 0.489,-3.196 1.468,-4.452 0.979,-1.255 2.328,-1.883 4.046,-1.883 1.558,0 3.116,0.747 4.675,2.24 L 3.549,2.738 C 3.376,2.148 3.007,1.776 2.442,1.622 1.877,1.468 1.103,1.391 0.12,1.391 -0.146,1.391 -0.326,1.097 -0.419,0.509 -0.419,0.17 -0.279,0 0,0 m -1.206,9.376 c -0.406,0.727 -0.608,1.547 -0.608,2.46 0,1.016 0.242,2.443 0.727,4.283 0.485,1.839 0.994,3.286 1.526,4.34 0.545,0.991 1.212,1.849 2.003,2.576 0.791,0.726 1.645,1.09 2.563,1.09 0.89,0 1.605,-0.335 2.143,-1.003 0.538,-0.669 0.887,-1.467 1.047,-2.392 L 5.902,11.836 C 5.224,10.871 4.429,10.039 3.519,9.338 2.609,8.637 1.675,8.286 0.718,8.286 c -0.877,0 -1.519,0.363 -1.924,1.09" /></g></g><g
       transform="translate(0,-14)"
       id="g514"><g
         transform="translate(602.7654,222.8151)"
         id="g516"><path
           id="path518"
           style="fill:#ffffff;fill-opacity:1;fill-rule:nonzero;stroke:none"
           d="m 0,0 v -2.612 c 0,-0.55 -1.026,-0.825 -3.077,-0.825 v -1.11 H 5.61 v 1.11 c -2.051,0 -3.076,0.275 -3.076,0.825 V 0 H 5.638 V 1.11 H 2.534 v 12.354 c 0,0.117 -0.038,0.212 -0.112,0.284 C 2.348,13.82 2.25,13.856 2.13,13.856 H 1.573 c -0.176,0 -0.311,-0.063 -0.404,-0.189 L -8.325,1.11 V 0 Z M 0.195,10.785 V 1.11 H -7.1 Z" /></g></g><g
       transform="translate(0,-14)"
       id="g520"><g
         transform="translate(635.9135,224.5066)"
         id="g522"><path
           id="path524"
           style="fill:#ffffff;fill-opacity:1;fill-rule:nonzero;stroke:none"
           d="m 0,0 c -1.07,-0.758 -1.964,-1.673 -2.682,-2.747 -0.718,-1.074 -1.209,-2.228 -1.471,-3.464 0,-0.244 0.127,-0.383 0.38,-0.419 h 0.69 c 0.206,0.027 0.324,0.139 0.352,0.338 0.216,1.037 0.631,2.011 1.246,2.923 0.614,0.911 1.382,1.686 2.302,2.327 0.919,0.64 1.923,1.096 3.012,1.367 L 4.005,0.453 4.069,0.69 c 0,0.19 -0.08,0.311 -0.24,0.365 -1.098,0.271 -2.102,0.72 -3.012,1.347 -0.911,0.627 -1.674,1.394 -2.288,2.3 -0.615,0.907 -1.035,1.888 -1.26,2.943 -0.028,0.199 -0.146,0.312 -0.352,0.339 h -0.69 C -4.026,7.947 -4.153,7.808 -4.153,7.564 -3.984,6.743 -3.707,5.952 -3.323,5.189 -2.938,4.427 -2.459,3.719 -1.887,3.065 -1.314,2.411 -0.685,1.84 0,1.353 h -23.581 c -0.179,0 -0.334,-0.068 -0.465,-0.203 -0.131,-0.135 -0.197,-0.289 -0.197,-0.46 0,-0.18 0.066,-0.341 0.197,-0.48 C -23.915,0.07 -23.76,0 -23.581,0 Z" /></g></g><g
       transform="translate(0,-14)"
       id="g526"><g
         transform="translate(645.9572,220.9072)"
         id="g528"><path
           id="path530"
           style="fill:#ffffff;fill-opacity:1;fill-rule:nonzero;stroke:none"
           d="m 0,0 c 0.306,0.316 0.459,0.695 0.459,1.137 0,0.288 -0.074,0.554 -0.223,0.798 -0.15,0.244 -0.348,0.433 -0.594,0.568 -0.248,0.136 -0.52,0.203 -0.818,0.203 -0.466,0 -0.858,-0.149 -1.175,-0.446 -0.317,-0.298 -0.475,-0.672 -0.475,-1.123 0,-0.975 0.332,-1.791 0.996,-2.45 0.665,-0.658 1.482,-1.136 2.453,-1.434 0.971,-0.298 1.958,-0.446 2.961,-0.446 1.078,0 2.135,0.216 3.171,0.649 1.036,0.433 1.886,1.058 2.55,1.874 0.664,0.817 0.997,1.766 0.997,2.849 0,0.847 -0.242,1.612 -0.724,2.293 C 9.095,5.153 8.473,5.712 7.712,6.15 6.951,6.588 6.148,6.892 5.304,7.064 c 1.178,0.387 2.158,1.01 2.937,1.867 0.78,0.857 1.17,1.858 1.17,3.004 0,0.83 -0.309,1.538 -0.926,2.124 -0.618,0.587 -1.371,1.017 -2.262,1.293 -0.891,0.275 -1.768,0.412 -2.631,0.412 -0.836,0 -1.683,-0.135 -2.541,-0.406 -0.858,-0.27 -1.571,-0.694 -2.137,-1.272 -0.566,-0.577 -0.849,-1.294 -0.849,-2.151 0,-0.397 0.148,-0.74 0.445,-1.029 0.297,-0.288 0.664,-0.433 1.1,-0.433 0.427,0 0.784,0.145 1.072,0.433 0.288,0.289 0.432,0.632 0.432,1.029 0,0.397 -0.137,0.746 -0.411,1.049 -0.274,0.302 -0.61,0.453 -1.009,0.453 0.445,0.496 1.011,0.855 1.698,1.076 0.687,0.221 1.42,0.331 2.2,0.331 0.9,0 1.614,-0.268 2.143,-0.805 C 6.264,13.502 6.529,12.801 6.529,11.935 6.529,10.906 6.23,9.921 5.631,8.978 5.032,8.035 4.241,7.564 3.258,7.564 L 1.462,7.442 1.246,7.354 1.142,7.145 V 6.861 L 1.246,6.664 1.461,6.563 h 2.097 c 0.796,0 1.463,-0.205 2,-0.616 C 6.095,5.537 6.488,5 6.739,4.337 6.989,3.674 7.114,2.954 7.114,2.179 7.114,1.43 6.991,0.719 6.745,0.047 6.5,-0.625 6.113,-1.166 5.585,-1.576 5.057,-1.987 4.39,-2.192 3.584,-2.192 c -0.603,0 -1.196,0.052 -1.779,0.155 -0.584,0.104 -1.135,0.287 -1.654,0.549 -0.519,0.261 -0.941,0.599 -1.265,1.014 0.436,0 0.808,0.158 1.114,0.474" /></g></g><g
       transform="translate(0,-14)"
       id="g532"><g
         transform="translate(380.7306,424.9237)"
         id="g534"><path
           id="path536"
           style="fill:#ffffff;fill-opacity:1;fill-rule:nonzero;stroke:none"
           d="m 0,0 h 8.733 c 0.252,0 0.409,0.059 0.469,0.176 0.059,0.118 0.136,0.353 0.229,0.706 0,0.13 -0.037,0.248 -0.11,0.352 C 9.248,1.339 9.145,1.391 9.012,1.391 7.218,1.391 6.32,1.564 6.32,1.91 6.334,1.975 6.373,2.2 6.44,2.586 l 5.722,22.06 c 0,0.335 -0.153,0.503 -0.459,0.503 -0.293,0 -0.802,-0.358 -1.527,-1.072 C 9.451,23.362 9.008,22.85 8.849,22.541 8.503,23.326 7.997,23.957 7.332,24.434 6.666,24.91 5.921,25.149 5.096,25.149 c -1.783,0 -3.444,-0.603 -4.981,-1.806 -1.537,-1.205 -2.754,-2.714 -3.653,-4.53 -0.898,-1.816 -1.347,-3.567 -1.347,-5.254 0,-1.712 0.49,-3.196 1.468,-4.452 0.979,-1.255 2.328,-1.883 4.046,-1.883 1.558,0 3.116,0.747 4.675,2.241 L 3.549,2.738 C 3.376,2.148 3.007,1.776 2.442,1.622 1.877,1.468 1.103,1.391 0.12,1.391 -0.146,1.391 -0.326,1.097 -0.419,0.509 -0.419,0.17 -0.279,0 0,0 m -1.206,9.376 c -0.406,0.727 -0.608,1.547 -0.608,2.46 0,1.016 0.242,2.443 0.727,4.283 0.485,1.839 0.994,3.286 1.526,4.34 0.545,0.991 1.212,1.849 2.003,2.576 0.791,0.726 1.645,1.09 2.563,1.09 0.89,0 1.605,-0.335 2.143,-1.003 0.538,-0.669 0.887,-1.467 1.047,-2.392 L 5.902,11.836 C 5.224,10.871 4.429,10.039 3.519,9.338 2.609,8.637 1.675,8.286 0.718,8.286 c -0.877,0 -1.519,0.363 -1.924,1.09" /></g></g><g
       transform="translate(0,-14)"
       id="g538"><g
         transform="translate(405.9578,427.2282)"
         id="g540"><path
           id="path542"
           style="fill:#ffffff;fill-opacity:1;fill-rule:nonzero;stroke:none"
           d="M 0,0 0.849,5.156 H -0.237 C -0.339,4.515 -0.441,3.974 -0.543,3.532 -0.645,3.09 -0.78,2.783 -0.947,2.612 -0.993,2.566 -1.313,2.533 -1.907,2.51 -2.501,2.487 -3.19,2.474 -3.974,2.47 -4.759,2.465 -5.508,2.463 -6.223,2.463 H -8.84 l 3.48,2.882 c 0.297,0.252 0.938,0.751 1.922,1.495 0.983,0.744 1.754,1.387 2.31,1.928 0.557,0.542 1.026,1.166 1.406,1.875 0.381,0.708 0.571,1.472 0.571,2.293 0,1.137 -0.318,2.122 -0.953,2.957 -0.636,0.834 -1.469,1.461 -2.499,1.881 -1.03,0.419 -2.121,0.629 -3.272,0.629 -0.965,0 -1.902,-0.205 -2.812,-0.616 -0.909,-0.41 -1.647,-0.994 -2.213,-1.752 -0.566,-0.758 -0.849,-1.633 -0.849,-2.625 0,-0.415 0.153,-0.771 0.459,-1.069 0.306,-0.298 0.677,-0.447 1.114,-0.447 0.445,0 0.816,0.149 1.113,0.447 0.297,0.298 0.446,0.654 0.446,1.069 0,0.433 -0.146,0.796 -0.439,1.089 -0.292,0.293 -0.666,0.44 -1.12,0.44 h -0.084 c 0.353,0.731 0.879,1.306 1.58,1.725 0.701,0.42 1.474,0.629 2.318,0.629 0.631,0 1.211,-0.106 1.74,-0.318 0.529,-0.212 0.986,-0.516 1.371,-0.913 0.385,-0.397 0.685,-0.864 0.898,-1.401 0.214,-0.536 0.321,-1.111 0.321,-1.725 0,-1.118 -0.314,-2.149 -0.94,-3.092 C -3.599,8.901 -4.473,7.884 -5.596,6.793 -5.81,6.585 -5.974,6.425 -6.09,6.312 -6.207,6.2 -6.362,6.044 -6.557,5.846 l -5.081,-4.818 -0.111,-0.23 V 0 Z" /></g></g><g
       transform="translate(0,-14)"
       id="g544"><g
         transform="translate(435.2227,433.4663)"
         id="g546"><path
           id="path548"
           style="fill:#ffffff;fill-opacity:1;fill-rule:nonzero;stroke:none"
           d="M 0,0 C -1.07,-0.758 -1.964,-1.673 -2.682,-2.747 -3.4,-3.821 -3.89,-4.975 -4.153,-6.211 c 0,-0.244 0.127,-0.383 0.38,-0.419 h 0.69 c 0.206,0.027 0.324,0.139 0.352,0.338 0.216,1.037 0.631,2.011 1.246,2.923 0.614,0.911 1.382,1.686 2.302,2.327 0.919,0.641 1.923,1.096 3.012,1.367 L 4.005,0.453 4.069,0.69 c 0,0.19 -0.08,0.311 -0.24,0.365 -1.098,0.271 -2.102,0.72 -3.012,1.347 -0.911,0.627 -1.674,1.394 -2.288,2.3 -0.615,0.907 -1.035,1.888 -1.26,2.943 -0.028,0.199 -0.146,0.312 -0.352,0.339 h -0.69 C -4.026,7.948 -4.153,7.808 -4.153,7.564 -3.984,6.743 -3.707,5.952 -3.323,5.189 -2.938,4.427 -2.459,3.719 -1.887,3.065 -1.314,2.411 -0.685,1.84 0,1.353 h -23.581 c -0.179,0 -0.334,-0.067 -0.465,-0.203 -0.131,-0.135 -0.197,-0.289 -0.197,-0.46 0,-0.18 0.066,-0.34 0.197,-0.48 C -23.915,0.07 -23.76,0 -23.581,0 Z" /></g></g><g
       transform="translate(0,-14)"
       id="g550"><g
         transform="translate(443.9711,430.2424)"
         id="g552"><path
           id="path554"
           style="fill:#ffffff;fill-opacity:1;fill-rule:nonzero;stroke:none"
           d="m 0,0 c 0.418,0 0.768,0.142 1.051,0.426 0.283,0.283 0.425,0.633 0.425,1.047 0,0.405 -0.142,0.745 -0.425,1.02 C 0.768,2.768 0.418,2.905 0,2.905 -0.418,2.905 -0.77,2.766 -1.058,2.486 -1.346,2.207 -1.49,1.869 -1.49,1.473 c 0,-0.955 0.265,-1.818 0.794,-2.589 0.529,-0.77 1.237,-1.372 2.123,-1.804 0.886,-0.433 1.817,-0.649 2.791,-0.649 0.863,0 1.705,0.144 2.527,0.433 0.821,0.289 1.563,0.71 2.227,1.265 0.663,0.555 1.186,1.209 1.566,1.962 0.381,0.753 0.571,1.568 0.571,2.443 0,1.055 -0.262,2.048 -0.787,2.977 C 9.798,6.44 9.079,7.182 8.165,7.737 7.25,8.292 6.246,8.569 5.151,8.569 3.592,8.569 2.274,8.122 1.197,7.229 v 5.088 c 0.863,-0.225 1.754,-0.338 2.673,-0.338 1.123,0 2.206,0.232 3.251,0.697 1.044,0.464 1.937,1.111 2.679,1.942 l 0.084,0.189 v 0.271 L 9.786,15.294 C 9.721,15.357 9.642,15.389 9.55,15.389 H 9.452 C 8.691,15.082 7.944,14.856 7.211,14.712 6.478,14.568 5.735,14.496 4.984,14.496 c -0.752,0 -1.492,0.072 -2.221,0.216 -0.728,0.144 -1.482,0.37 -2.262,0.677 H 0.39 c -0.093,0 -0.172,-0.03 -0.237,-0.088 C 0.088,15.242 0.056,15.167 0.056,15.077 V 5.892 C 0.102,5.701 0.223,5.583 0.418,5.538 h 0.32 C 0.858,5.565 1.049,5.723 1.309,6.011 1.568,6.3 1.84,6.562 2.123,6.796 2.406,7.031 2.796,7.236 3.292,7.412 3.789,7.588 4.408,7.676 5.151,7.676 6.004,7.676 6.666,7.405 7.134,6.865 7.603,6.324 7.912,5.678 8.06,4.926 8.209,4.173 8.283,3.383 8.283,2.554 8.283,1.599 8.155,0.741 7.9,-0.02 7.645,-0.782 7.209,-1.396 6.592,-1.865 5.974,-2.334 5.174,-2.568 4.19,-2.568 3.299,-2.568 2.45,-2.336 1.643,-1.872 0.835,-1.408 0.246,-0.784 -0.125,0 Z" /></g></g><g
       transform="translate(0,-14)"
       id="g556"><g
         transform="translate(203.5059,272.953)"
         id="g558"><path
           id="path560"
           style="fill:#ffffff;fill-opacity:1;fill-rule:nonzero;stroke:none"
           d="m 0,0 h 8.733 c 0.252,0 0.409,0.059 0.469,0.176 0.059,0.118 0.136,0.353 0.229,0.706 0,0.13 -0.037,0.248 -0.11,0.352 C 9.248,1.339 9.145,1.391 9.012,1.391 7.218,1.391 6.32,1.564 6.32,1.91 6.334,1.975 6.373,2.2 6.44,2.586 l 5.722,22.06 c 0,0.335 -0.153,0.503 -0.459,0.503 -0.293,0 -0.802,-0.358 -1.527,-1.072 C 9.451,23.362 9.008,22.85 8.849,22.541 8.503,23.326 7.997,23.957 7.332,24.434 6.666,24.91 5.921,25.149 5.096,25.149 c -1.783,0 -3.444,-0.603 -4.981,-1.806 -1.537,-1.205 -2.754,-2.714 -3.653,-4.53 -0.898,-1.816 -1.347,-3.567 -1.347,-5.254 0,-1.712 0.49,-3.196 1.468,-4.452 0.979,-1.255 2.328,-1.883 4.046,-1.883 1.558,0 3.116,0.747 4.675,2.241 L 3.549,2.738 C 3.376,2.148 3.007,1.776 2.442,1.622 1.877,1.468 1.103,1.391 0.12,1.391 -0.146,1.391 -0.326,1.097 -0.419,0.509 -0.419,0.17 -0.279,0 0,0 m -1.206,9.376 c -0.406,0.727 -0.608,1.547 -0.608,2.46 0,1.016 0.242,2.443 0.727,4.283 0.485,1.839 0.994,3.286 1.526,4.34 0.545,0.991 1.212,1.849 2.003,2.576 0.791,0.726 1.645,1.09 2.563,1.09 0.89,0 1.605,-0.335 2.143,-1.003 0.538,-0.669 0.887,-1.467 1.047,-2.392 L 5.902,11.836 C 5.224,10.871 4.429,10.039 3.519,9.338 2.609,8.637 1.675,8.286 0.718,8.286 c -0.878,0 -1.519,0.363 -1.924,1.09" /></g></g><g
       transform="translate(0,-14)"
       id="g562"><g
         transform="translate(218.2499,278.2717)"
         id="g564"><path
           id="path566"
           style="fill:#ffffff;fill-opacity:1;fill-rule:nonzero;stroke:none"
           d="m 0,0 c 0.418,0 0.768,0.142 1.051,0.426 0.283,0.283 0.425,0.633 0.425,1.047 0,0.405 -0.142,0.745 -0.425,1.02 C 0.768,2.768 0.418,2.905 0,2.905 -0.418,2.905 -0.77,2.766 -1.058,2.486 -1.346,2.207 -1.49,1.869 -1.49,1.473 c 0,-0.955 0.265,-1.818 0.794,-2.589 0.529,-0.77 1.237,-1.372 2.123,-1.804 0.886,-0.433 1.817,-0.649 2.791,-0.649 0.863,0 1.705,0.144 2.527,0.433 0.821,0.289 1.563,0.71 2.227,1.265 0.663,0.555 1.186,1.209 1.566,1.962 0.381,0.753 0.571,1.568 0.571,2.443 0,1.055 -0.262,2.048 -0.787,2.977 C 9.798,6.44 9.079,7.182 8.165,7.737 7.25,8.292 6.246,8.569 5.151,8.569 3.592,8.569 2.274,8.122 1.197,7.229 v 5.088 c 0.863,-0.225 1.754,-0.338 2.673,-0.338 1.123,0 2.206,0.232 3.251,0.697 1.044,0.464 1.937,1.111 2.679,1.942 l 0.084,0.189 v 0.271 L 9.786,15.294 C 9.721,15.357 9.642,15.389 9.55,15.389 H 9.452 C 8.691,15.082 7.944,14.856 7.211,14.712 6.478,14.568 5.735,14.496 4.984,14.496 c -0.752,0 -1.492,0.072 -2.221,0.216 -0.728,0.144 -1.482,0.37 -2.262,0.677 H 0.39 c -0.093,0 -0.172,-0.03 -0.237,-0.088 C 0.088,15.242 0.056,15.167 0.056,15.077 V 5.892 C 0.102,5.701 0.223,5.583 0.418,5.538 h 0.32 C 0.858,5.565 1.049,5.723 1.309,6.011 1.568,6.3 1.84,6.562 2.123,6.796 2.406,7.031 2.796,7.236 3.292,7.412 3.789,7.588 4.408,7.676 5.151,7.676 6.004,7.676 6.666,7.405 7.134,6.865 7.603,6.324 7.912,5.678 8.06,4.926 8.209,4.173 8.283,3.383 8.283,2.554 8.283,1.599 8.155,0.741 7.9,-0.02 7.645,-0.782 7.209,-1.396 6.592,-1.865 5.974,-2.334 5.174,-2.568 4.19,-2.568 3.299,-2.568 2.45,-2.336 1.643,-1.872 0.835,-1.408 0.246,-0.784 -0.125,0 Z" /></g></g><g
       transform="translate(0,-14)"
       id="g568"><g
         transform="translate(257.7746,281.4956)"
         id="g570"><path
           id="path572"
           style="fill:#ffffff;fill-opacity:1;fill-rule:nonzero;stroke:none"
           d="M 0,0 C -1.07,-0.758 -1.964,-1.673 -2.682,-2.747 -3.4,-3.821 -3.89,-4.975 -4.153,-6.211 c 0,-0.244 0.127,-0.383 0.38,-0.419 h 0.69 c 0.206,0.027 0.324,0.139 0.352,0.338 0.216,1.037 0.631,2.011 1.246,2.923 0.614,0.911 1.382,1.686 2.302,2.327 0.919,0.641 1.923,1.096 3.012,1.367 L 4.005,0.453 4.069,0.69 c 0,0.19 -0.08,0.311 -0.24,0.365 -1.098,0.271 -2.102,0.72 -3.012,1.347 -0.911,0.627 -1.674,1.394 -2.288,2.3 -0.615,0.907 -1.035,1.888 -1.26,2.943 -0.028,0.199 -0.146,0.312 -0.352,0.339 h -0.69 C -4.026,7.948 -4.153,7.808 -4.153,7.564 -3.984,6.743 -3.707,5.952 -3.323,5.189 -2.938,4.427 -2.459,3.719 -1.887,3.065 -1.314,2.411 -0.685,1.84 0,1.353 h -23.581 c -0.179,0 -0.334,-0.067 -0.465,-0.203 -0.131,-0.135 -0.197,-0.289 -0.197,-0.46 0,-0.18 0.066,-0.34 0.197,-0.48 C -23.915,0.07 -23.76,0 -23.581,0 Z" /></g></g><g
       transform="translate(0,-14)"
       id="g574"><g
         transform="translate(267.5948,277.8962)"
         id="g576"><path
           id="path578"
           style="fill:#ffffff;fill-opacity:1;fill-rule:nonzero;stroke:none"
           d="m 0,0 c 0.306,0.316 0.459,0.695 0.459,1.137 0,0.288 -0.074,0.554 -0.223,0.798 -0.15,0.244 -0.348,0.433 -0.594,0.568 -0.248,0.136 -0.52,0.203 -0.818,0.203 -0.466,0 -0.858,-0.149 -1.175,-0.446 -0.317,-0.298 -0.475,-0.672 -0.475,-1.123 0,-0.975 0.332,-1.791 0.997,-2.45 0.664,-0.658 1.481,-1.136 2.452,-1.434 0.971,-0.298 1.958,-0.446 2.961,-0.446 1.078,0 2.135,0.216 3.171,0.649 1.036,0.433 1.886,1.058 2.55,1.874 0.664,0.817 0.997,1.766 0.997,2.849 0,0.847 -0.242,1.612 -0.724,2.293 C 9.095,5.153 8.473,5.712 7.712,6.15 6.951,6.588 6.148,6.892 5.304,7.064 c 1.178,0.387 2.158,1.01 2.937,1.867 0.78,0.857 1.17,1.858 1.17,3.004 0,0.83 -0.309,1.538 -0.926,2.124 -0.617,0.587 -1.371,1.017 -2.262,1.293 -0.891,0.275 -1.768,0.412 -2.631,0.412 -0.836,0 -1.683,-0.135 -2.541,-0.406 -0.858,-0.27 -1.571,-0.694 -2.137,-1.272 -0.566,-0.577 -0.849,-1.294 -0.849,-2.151 0,-0.397 0.148,-0.74 0.445,-1.029 0.297,-0.288 0.664,-0.433 1.1,-0.433 0.427,0 0.784,0.145 1.072,0.433 0.288,0.289 0.432,0.632 0.432,1.029 0,0.397 -0.137,0.746 -0.411,1.049 -0.274,0.302 -0.61,0.453 -1.009,0.453 0.445,0.496 1.011,0.855 1.698,1.076 0.687,0.221 1.42,0.331 2.2,0.331 0.9,0 1.614,-0.268 2.143,-0.805 C 6.264,13.502 6.529,12.801 6.529,11.935 6.529,10.906 6.23,9.921 5.631,8.978 5.032,8.035 4.241,7.564 3.258,7.564 L 1.462,7.442 1.246,7.354 1.142,7.145 V 6.861 L 1.246,6.664 1.461,6.563 h 2.097 c 0.796,0 1.463,-0.205 2,-0.616 C 6.095,5.537 6.488,5 6.739,4.337 6.989,3.674 7.114,2.954 7.114,2.179 7.114,1.43 6.991,0.719 6.745,0.047 6.5,-0.625 6.113,-1.166 5.585,-1.576 5.057,-1.987 4.39,-2.192 3.584,-2.192 c -0.603,0 -1.196,0.052 -1.779,0.155 -0.584,0.104 -1.135,0.287 -1.654,0.549 -0.519,0.261 -0.941,0.599 -1.265,1.014 0.436,0 0.808,0.158 1.114,0.474" /></g></g></g></svg>