<?xml version="1.0" encoding="UTF-8" standalone="no"?>
<svg
   xmlns:dc="http://purl.org/dc/elements/1.1/"
   xmlns:cc="http://creativecommons.org/ns#"
   xmlns:rdf="http://www.w3.org/1999/02/22-rdf-syntax-ns#"
   xmlns:svg="http://www.w3.org/2000/svg"
   xmlns="http://www.w3.org/2000/svg"
   viewBox="0 0 689.33331 517.33331"
   height="517.33331"
   width="689.33331"
   xml:space="preserve"
   id="svg2"
   version="1.1"><metadata
     id="metadata8"><rdf:RDF><cc:Work
         rdf:about=""><dc:format>image/svg+xml</dc:format><dc:type
           rdf:resource="http://purl.org/dc/dcmitype/StillImage" /></cc:Work></rdf:RDF></metadata><defs
     id="defs6"><clipPath
       id="clipPath14"
       clipPathUnits="userSpaceOnUse"><path
         id="path12"
         d="M 0,0 H 1012 V 595 H 0 Z" /></clipPath><clipPath
       id="clipPath24"
       clipPathUnits="userSpaceOnUse"><path
         id="path22"
         d="M 45,180 H 562 V 568 H 45 Z" /></clipPath><clipPath
       id="clipPath38"
       clipPathUnits="userSpaceOnUse"><path
         id="path36"
         d="M 74.642,239.397 H 422.029 V 526.631 H 74.642 Z" /></clipPath><clipPath
       id="clipPath78"
       clipPathUnits="userSpaceOnUse"><path
         id="path76"
         d="M 116.211,322.536 H 528.315 V 522.068 H 116.211 Z" /></clipPath><clipPath
       id="clipPath90"
       clipPathUnits="userSpaceOnUse"><path
         id="path88"
         d="M 116.211,322.536 H 528.315 V 522.068 H 116.211 Z" /></clipPath><clipPath
       id="clipPath102"
       clipPathUnits="userSpaceOnUse"><path
         id="path100"
         d="M 116.211,322.536 H 528.315 V 522.068 H 116.211 Z" /></clipPath><clipPath
       id="clipPath114"
       clipPathUnits="userSpaceOnUse"><path
         id="path112"
         d="M 116.211,322.536 H 528.315 V 522.068 H 116.211 Z" /></clipPath><clipPath
       id="clipPath126"
       clipPathUnits="userSpaceOnUse"><path
         id="path124"
         d="M 130.066,368.67 H 334.162 V 475.771 H 130.066 Z" /></clipPath></defs><g
     clip-path="url(#clipPath14)"
     transform="matrix(1.3333333,0,0,-1.3333333,-60,757.33333)"
     id="g10"><g
       id="g16"><g
         id="g18"><g
           clip-path="url(#clipPath24)"
           id="g20"><g
             id="g26"><path
               id="path28"
               style="fill:#ffffff;fill-opacity:1;fill-rule:nonzero;stroke:none"
               d="M 45,180 H 562 V 568 H 45 Z" /></g></g></g></g><path
       id="path30"
       style="fill:#ffffff;fill-opacity:1;fill-rule:nonzero;stroke:none"
       d="M 58.838,329.084 H 340.525 V 557.428 H 58.838 Z" /><g
       id="g32"><g
         clip-path="url(#clipPath38)"
         id="g34"><g
           transform="translate(410.7119,332.4691)"
           id="g40"><path
             id="path42"
             style="fill:#ff9898;fill-opacity:1;fill-rule:nonzero;stroke:none"
             d="m 0,0 c -27.939,-6.554 -56.094,-9.526 -88.531,-9.526 -26.093,0 -49.469,1.94 -72.218,6.141 h -162.437 c 2.985,-5.925 6.533,-11.803 10.671,-17.715 15.975,-22.822 35.863,-39.287 63.413,-52.491 27.713,-13.204 54.773,-19.073 86.724,-19.073 31.952,0 59.012,5.869 86.562,19.073 27.712,13.204 47.6,29.669 63.576,52.491 C -7.365,-14.064 -3.297,-7.077 0,0" /></g><g
           transform="translate(248.3343,526.2236)"
           id="g44"><path
             id="path46"
             style="fill:#ff9999;fill-opacity:1;fill-rule:nonzero;stroke:none"
             d="m 0,0 c -31.951,0 -59.012,-6.032 -86.724,-19.236 -27.55,-13.204 -47.438,-29.506 -63.414,-52.328 -15.975,-22.822 -23.148,-45.318 -23.148,-71.727 0,-19.568 3.939,-36.899 12.478,-53.848 H 1.629 c -10.224,1.888 -20.323,4.233 -30.482,7.063 -32.767,9.292 -56.404,20.54 -75.314,36.516 -18.909,15.812 -27.549,31.299 -27.549,49.557 0,18.42 8.64,33.907 27.549,49.719 18.91,15.813 42.547,27.224 75.314,36.353 24.948,6.951 49.52,11.066 76.519,12.634 C 32.622,-1.708 17.003,0 0,0" /></g></g></g><g
       transform="translate(218.6205,260.1312)"
       id="g48"><path
         id="path50"
         style="fill:#000000;fill-opacity:1;fill-rule:nonzero;stroke:none"
         d="M 0,0 H 6.37 C 6.554,0 6.668,0.043 6.712,0.129 6.755,0.214 6.811,0.386 6.879,0.643 6.879,0.738 6.852,0.824 6.799,0.9 6.745,0.976 6.67,1.014 6.573,1.014 5.265,1.014 4.61,1.141 4.61,1.393 4.62,1.441 4.649,1.605 4.697,1.886 l 4.174,16.092 c 0,0.244 -0.112,0.366 -0.335,0.366 -0.213,0 -0.585,-0.261 -1.114,-0.782 -0.529,-0.521 -0.851,-0.895 -0.968,-1.12 -0.252,0.573 -0.621,1.033 -1.106,1.381 -0.486,0.347 -1.029,0.521 -1.631,0.521 -1.301,0 -2.512,-0.439 -3.633,-1.317 -1.121,-0.879 -2.009,-1.98 -2.664,-3.304 -0.656,-1.325 -0.983,-2.602 -0.983,-3.832 0,-1.25 0.357,-2.332 1.071,-3.248 0.714,-0.916 1.697,-1.374 2.951,-1.374 1.136,0 2.273,0.545 3.409,1.635 L 2.589,1.997 C 2.463,1.567 2.193,1.295 1.782,1.183 1.369,1.071 0.805,1.014 0.087,1.014 -0.107,1.014 -0.238,0.8 -0.305,0.371 -0.305,0.124 -0.204,0 0,0 m -0.88,6.839 c -0.296,0.53 -0.443,1.128 -0.443,1.795 0,0.741 0.176,1.782 0.53,3.123 0.354,1.342 0.725,2.397 1.113,3.167 0.397,0.722 0.885,1.348 1.462,1.878 0.576,0.53 1.199,0.795 1.868,0.795 0.65,0 1.171,-0.244 1.564,-0.731 0.392,-0.488 0.647,-1.07 0.763,-1.745 L 4.305,8.634 C 3.81,7.93 3.231,7.322 2.567,6.811 1.903,6.3 1.222,6.044 0.524,6.044 c -0.64,0 -1.108,0.265 -1.404,0.795" /></g><g
       transform="translate(237.6706,258.511)"
       id="g52"><path
         id="path54"
         style="fill:#000000;fill-opacity:1;fill-rule:nonzero;stroke:none"
         d="m 0,0 h 0.277 l 0.152,0.092 0.08,0.162 c 0,0.103 -0.029,0.183 -0.087,0.239 -3.376,3.175 -5.065,7.82 -5.065,13.934 0,1.381 0.088,2.708 0.262,3.98 0.175,1.273 0.459,2.503 0.852,3.692 0.393,1.188 0.912,2.308 1.557,3.36 0.645,1.052 1.453,2.038 2.423,2.959 l 0.058,0.183 -0.072,0.176 -0.16,0.078 H 0 c -0.097,0 -0.146,-0.019 -0.146,-0.057 -1.077,-0.817 -2.018,-1.77 -2.823,-2.86 -0.806,-1.09 -1.468,-2.259 -1.987,-3.508 -0.519,-1.249 -0.905,-2.55 -1.157,-3.903 -0.252,-1.352 -0.378,-2.719 -0.378,-4.1 0,-1.362 0.126,-2.719 0.378,-4.072 0.252,-1.352 0.633,-2.648 1.143,-3.888 0.509,-1.24 1.164,-2.407 1.965,-3.501 0.8,-1.094 1.753,-2.064 2.859,-2.91 C -0.146,0.019 -0.097,0 0,0" /></g><g
       transform="translate(242.8981,267.1322)"
       id="g56"><path
         id="path58"
         style="fill:#000000;fill-opacity:1;fill-rule:nonzero;stroke:none"
         d="m 0,0 c 0.276,0.3 0.414,0.652 0.414,1.056 0,0.309 -0.111,0.56 -0.334,0.752 -0.223,0.193 -0.499,0.289 -0.829,0.289 -0.485,0 -0.89,-0.186 -1.214,-0.558 C -2.288,1.167 -2.45,0.755 -2.45,0.303 c 0,-0.462 0.14,-0.843 0.421,-1.145 0.281,-0.301 0.647,-0.525 1.097,-0.671 0.45,-0.146 0.889,-0.219 1.315,-0.219 0.62,0 1.204,0.213 1.751,0.639 0.547,0.425 0.976,0.921 1.286,1.489 0.242,-0.653 0.657,-1.17 1.243,-1.553 0.587,-0.383 1.244,-0.575 1.971,-0.575 1.135,0 2.153,0.447 3.054,1.342 0.902,0.894 1.493,1.915 1.775,3.064 L 11.492,2.758 11.419,2.934 11.23,3.012 H 10.866 C 10.75,3.012 10.672,2.955 10.634,2.843 10.401,1.895 9.918,1.025 9.186,0.232 8.453,-0.56 7.622,-0.957 6.69,-0.957 c -0.475,0 -0.856,0.176 -1.142,0.528 -0.286,0.352 -0.429,0.772 -0.429,1.259 0,0.497 0.106,1.131 0.32,1.9 l 1.309,5.094 c 0.194,0.704 0.526,1.342 0.996,1.914 0.47,0.572 1.025,0.858 1.665,0.858 0.631,0 1.125,-0.136 1.484,-0.408 C 10.493,10.132 10.15,9.951 9.862,9.646 9.575,9.342 9.431,8.987 9.431,8.584 c 0,-0.3 0.107,-0.549 0.322,-0.746 0.214,-0.197 0.482,-0.295 0.804,-0.295 0.506,0 0.923,0.176 1.249,0.527 0.327,0.352 0.49,0.772 0.49,1.26 0,0.451 -0.141,0.826 -0.422,1.126 -0.282,0.301 -0.646,0.523 -1.093,0.669 -0.447,0.145 -0.884,0.218 -1.311,0.218 -0.631,0 -1.212,-0.202 -1.741,-0.606 C 7.2,10.333 6.765,9.836 6.425,9.244 6.183,9.892 5.769,10.404 5.183,10.78 4.598,11.155 3.942,11.343 3.215,11.343 2.45,11.343 1.731,11.132 1.058,10.71 0.385,10.287 -0.184,9.736 -0.649,9.056 -1.113,8.376 -1.442,7.679 -1.636,6.966 V 6.881 c 0,-0.178 0.077,-0.267 0.232,-0.267 h 0.364 c 0.116,0 0.193,0.061 0.232,0.183 0.155,0.6 0.421,1.194 0.799,1.78 0.378,0.586 0.842,1.069 1.394,1.449 0.552,0.38 1.143,0.57 1.773,0.57 0.494,0 0.879,-0.178 1.155,-0.534 C 4.589,9.705 4.727,9.288 4.727,8.809 4.727,8.472 4.62,7.838 4.407,6.909 L 3.056,1.801 C 2.882,1.116 2.558,0.485 2.083,-0.091 1.609,-0.668 1.061,-0.957 0.442,-0.957 c -0.639,0 -1.133,0.131 -1.482,0.394 C -0.623,-0.488 -0.276,-0.3 0,0" /></g><g
       transform="translate(258.5343,258.511)"
       id="g60"><path
         id="path62"
         style="fill:#000000;fill-opacity:1;fill-rule:nonzero;stroke:none"
         d="m 0,0 0.146,0.056 c 1.106,0.846 2.056,1.811 2.852,2.896 0.796,1.085 1.453,2.268 1.972,3.55 0.519,1.282 0.898,2.583 1.135,3.903 0.238,1.319 0.357,2.66 0.357,4.022 0,1.841 -0.221,3.645 -0.662,5.41 -0.442,1.766 -1.138,3.429 -2.089,4.988 -0.951,1.559 -2.139,2.883 -3.565,3.973 L 0,28.855 h -0.277 l -0.181,-0.078 -0.08,-0.176 c 0,-0.113 0.038,-0.193 0.116,-0.24 C 2.935,25.187 4.614,20.542 4.614,14.427 4.614,8.313 2.916,3.649 -0.48,0.437 L -0.538,0.254 C -0.538,0.085 -0.451,0 -0.277,0 Z" /></g><g
       transform="translate(278.8497,264.7595)"
       id="g64"><path
         id="path66"
         style="fill:#000000;fill-opacity:1;fill-rule:nonzero;stroke:none"
         d="m 0,0 c 0.111,-0.127 0.255,-0.19 0.429,-0.19 0.039,0 0.116,0.019 0.233,0.056 l 17.015,7.791 c 0.233,0.094 0.349,0.268 0.349,0.522 0,0.244 -0.087,0.408 -0.262,0.493 L 0.662,16.491 C 0.545,16.529 0.468,16.548 0.429,16.548 0.255,16.548 0.111,16.484 0,16.357 -0.112,16.231 -0.167,16.101 -0.167,15.97 c 0,-0.272 0.097,-0.437 0.291,-0.493 L 16.034,8.179 0.225,0.937 C -0.036,0.815 -0.167,0.632 -0.167,0.387 -0.167,0.256 -0.112,0.127 0,0" /></g><g
       transform="translate(318.7276,266.6052)"
       id="g68"><path
         id="path70"
         style="fill:#000000;fill-opacity:1;fill-rule:nonzero;stroke:none"
         d="m 0,0 c 0.922,1.01 1.54,2.235 1.856,3.677 0.315,1.442 0.473,2.989 0.473,4.643 0,1.23 -0.08,2.406 -0.24,3.529 -0.161,1.122 -0.459,2.174 -0.896,3.156 -0.436,0.981 -1.072,1.782 -1.906,2.402 -0.835,0.62 -1.907,0.93 -3.217,0.93 -1.688,0 -3,-0.514 -3.937,-1.543 -0.936,-1.028 -1.562,-2.28 -1.877,-3.755 -0.315,-1.474 -0.473,-3.048 -0.473,-4.719 0,-2.677 0.439,-4.986 1.317,-6.925 0.878,-1.94 2.535,-2.91 4.97,-2.91 1.698,0 3.008,0.505 3.93,1.515 m -5.989,0.268 c -0.519,0.69 -0.895,1.54 -1.128,2.55 -0.233,1.009 -0.376,1.989 -0.429,2.937 -0.054,0.949 -0.08,1.959 -0.08,3.03 0,1.446 0.063,2.777 0.189,3.994 0.126,1.216 0.461,2.322 1.004,3.318 0.543,0.995 1.378,1.493 2.503,1.493 1.116,0 1.943,-0.495 2.482,-1.486 0.538,-0.991 0.871,-2.097 0.997,-3.318 0.126,-1.221 0.189,-2.555 0.189,-4.001 0,-1.503 -0.063,-2.922 -0.189,-4.255 -0.126,-1.334 -0.461,-2.55 -1.004,-3.649 -0.544,-1.099 -1.369,-1.649 -2.475,-1.649 -0.854,0 -1.54,0.345 -2.059,1.036" /></g><g
       transform="translate(0,7.63e-5)"
       id="g72"><g
         clip-path="url(#clipPath78)"
         id="g74"><g
           transform="translate(340.52582,521.312)"
           id="g80"><path
             id="path82"
             style="fill:#ffff7f;fill-opacity:1;fill-rule:nonzero;stroke:none"
             d="m 0,0 v -17.104 c 24.811,-12.706 43.073,-28.3 57.946,-49.547 15.812,-22.822 23.148,-45.318 23.148,-71.727 0,-18.267 -3.51,-34.586 -10.908,-50.464 4.776,1.121 9.548,2.346 14.332,3.679 32.766,9.292 56.403,20.54 75.313,36.516 18.91,15.812 27.55,31.298 27.55,49.556 0,18.421 -8.64,33.908 -27.55,49.72 -18.91,15.813 -42.547,27.224 -75.313,36.353 C 57.155,-5.395 30.25,-1.182 0,0" /></g></g></g><g
       id="g84"><g
         clip-path="url(#clipPath90)"
         id="g86"><g
           transform="translate(322.1809,521.6597)"
           id="g92"><path
             id="path94"
             style="fill:#ffff7f;fill-opacity:1;fill-rule:nonzero;stroke:none"
             d="m 0,0 c -9.023,0 -17.72,-0.241 -26.18,-0.733 13.225,-3.154 26.006,-7.762 38.895,-13.939 1.913,-0.911 3.79,-1.838 5.63,-2.781 V -0.349 C 12.371,-0.115 6.264,0 0,0" /></g></g></g><g
       transform="translate(0,6.409e-4)"
       id="g96"><g
         clip-path="url(#clipPath102)"
         id="g98"><g
           transform="translate(340.52582,504.20322)"
           id="g104"><path
             id="path106"
             style="fill:#ffcc4c;fill-opacity:1;fill-rule:nonzero;stroke:none"
             d="m 0,0 v -175.123 h -90.563 c 22.75,-4.201 46.125,-6.141 72.218,-6.141 32.437,0 60.593,2.972 88.531,9.526 7.398,15.878 10.908,32.197 10.908,50.464 0,26.408 -7.336,48.905 -23.148,71.727 C 43.073,-28.3 24.811,-12.706 0,0" /></g></g></g><g
       id="g108"><g
         clip-path="url(#clipPath114)"
         id="g110"><g
           transform="translate(296.0005,520.9271)"
           id="g116"><path
             id="path118"
             style="fill:#ffcc4c;fill-opacity:1;fill-rule:nonzero;stroke:none"
             d="m 0,0 c -26.999,-1.568 -51.571,-5.684 -76.52,-12.635 -32.766,-9.129 -56.403,-20.54 -75.313,-36.352 -18.91,-15.813 -27.549,-31.299 -27.549,-49.72 0,-18.258 8.639,-33.744 27.549,-49.557 18.91,-15.975 42.547,-27.223 75.313,-36.515 10.16,-2.831 20.259,-5.176 30.482,-7.064 H 44.525 V -16.72 c -1.839,0.942 -3.717,1.869 -5.63,2.781 C 26.007,-7.762 13.225,-3.154 0,0 m -63.805,-151.85 c -18.747,0 -34.722,2.282 -50.861,7.173 -16.301,4.89 -27.875,10.922 -37.167,19.399 -9.455,8.477 -13.694,16.79 -13.694,26.571 0,9.781 4.239,18.095 13.694,26.572 9.292,8.477 20.866,14.671 37.167,19.562 16.139,4.89 32.114,7.009 50.861,7.009 18.747,0 34.559,-2.119 50.861,-7.009 16.139,-4.891 27.713,-11.085 37.168,-19.562 9.291,-8.477 13.53,-16.791 13.53,-26.572 0,-9.781 -4.239,-18.094 -13.53,-26.571 -9.455,-8.477 -21.029,-14.509 -37.168,-19.399 -16.302,-4.891 -32.114,-7.173 -50.861,-7.173" /></g></g></g><g
       id="g120"><g
         clip-path="url(#clipPath126)"
         id="g122"><g
           transform="translate(232.1958,475.3634)"
           id="g128"><path
             id="path130"
             style="fill:#7fcc26;fill-opacity:1;fill-rule:nonzero;stroke:none"
             d="m 0,0 c -18.747,0 -34.723,-2.119 -50.861,-7.01 -16.302,-4.89 -27.876,-11.085 -37.168,-19.561 -9.455,-8.477 -13.693,-16.791 -13.693,-26.572 0,-9.781 4.238,-18.095 13.693,-26.572 9.292,-8.476 20.866,-14.508 37.168,-19.398 16.138,-4.891 32.114,-7.173 50.861,-7.173 18.747,0 34.559,2.282 50.861,7.173 16.138,4.89 27.713,10.922 37.167,19.398 9.292,8.477 13.531,16.791 13.531,26.572 0,9.781 -4.239,18.095 -13.531,26.572 C 78.574,-18.095 66.999,-11.9 50.861,-7.01 34.559,-2.119 18.747,0 0,0" /></g></g></g><g
       transform="translate(156.4699,409.3329)"
       id="g132"><path
         id="path134"
         style="fill:#000000;fill-opacity:1;fill-rule:nonzero;stroke:none"
         d="m 0,0 c 0.317,0.343 0.475,0.721 0.475,1.134 0,0.31 -0.112,0.562 -0.336,0.754 -0.224,0.193 -0.502,0.289 -0.833,0.289 -0.497,0 -0.909,-0.181 -1.235,-0.543 -0.327,-0.361 -0.49,-0.786 -0.49,-1.275 0,-0.61 0.264,-1.101 0.793,-1.472 0.528,-0.371 1.127,-0.557 1.797,-0.557 0.873,0 1.629,0.376 2.269,1.128 0.641,0.751 1.167,1.683 1.579,2.796 0.412,1.113 0.732,2.198 0.96,3.255 0.228,1.057 0.43,2.097 0.604,3.121 l 1.382,7.044 h 3.186 l 0.196,0.106 c 0.054,0.07 0.095,0.164 0.124,0.282 0.029,0.117 0.048,0.199 0.058,0.246 0,0.254 -0.097,0.381 -0.291,0.381 H 7.165 l 0.364,1.902 c 0.428,2.161 0.704,3.486 0.831,3.975 0.077,0.31 0.25,0.601 0.517,0.874 0.267,0.272 0.551,0.408 0.852,0.408 0.544,0 1.001,-0.135 1.37,-0.407 C 10.661,23.395 10.293,23.214 9.996,22.901 9.699,22.588 9.55,22.22 9.55,21.799 c 0,-0.309 0.114,-0.559 0.343,-0.751 0.229,-0.192 0.504,-0.288 0.826,-0.288 0.478,0 0.884,0.18 1.221,0.541 0.336,0.36 0.504,0.783 0.504,1.27 0,0.421 -0.131,0.786 -0.393,1.095 -0.262,0.309 -0.599,0.54 -1.012,0.695 -0.412,0.154 -0.837,0.232 -1.274,0.232 -0.669,0 -1.293,-0.205 -1.87,-0.613 C 7.317,23.571 6.859,23.052 6.519,22.423 6.296,21.981 6.128,21.582 6.017,21.225 5.905,20.868 5.801,20.481 5.704,20.063 5.607,19.645 5.5,19.145 5.384,18.562 L 5.034,16.689 H 2.379 c -0.174,0 -0.3,-0.212 -0.377,-0.634 0,-0.254 0.097,-0.381 0.29,-0.381 H 4.846 L 3.478,8.601 C 2.654,4.506 2.15,2.092 1.966,1.36 1.52,-0.162 0.943,-0.923 0.235,-0.923 c -0.524,0 -0.97,0.136 -1.338,0.409 0.419,0 0.786,0.171 1.103,0.514" /></g><g
       transform="translate(179.6367,406.3672)"
       id="g136"><path
         id="path138"
         style="fill:#000000;fill-opacity:1;fill-rule:nonzero;stroke:none"
         d="m 0,0 h 0.277 l 0.152,0.092 0.08,0.162 c 0,0.103 -0.029,0.183 -0.087,0.239 -3.376,3.175 -5.065,7.82 -5.065,13.934 0,1.381 0.088,2.708 0.262,3.98 0.175,1.273 0.459,2.503 0.852,3.692 0.393,1.188 0.912,2.308 1.557,3.36 0.645,1.052 1.453,2.038 2.423,2.959 l 0.058,0.183 -0.072,0.176 -0.16,0.078 H 0 c -0.097,0 -0.146,-0.019 -0.146,-0.057 -1.077,-0.817 -2.018,-1.77 -2.823,-2.86 -0.806,-1.09 -1.468,-2.259 -1.987,-3.508 -0.519,-1.249 -0.905,-2.55 -1.157,-3.903 -0.252,-1.352 -0.378,-2.719 -0.378,-4.1 0,-1.362 0.126,-2.719 0.378,-4.072 0.252,-1.352 0.633,-2.648 1.143,-3.888 0.509,-1.24 1.164,-2.407 1.965,-3.501 0.8,-1.094 1.753,-2.064 2.859,-2.91 C -0.146,0.019 -0.097,0 0,0" /></g><g
       transform="translate(184.8641,414.9884)"
       id="g140"><path
         id="path142"
         style="fill:#000000;fill-opacity:1;fill-rule:nonzero;stroke:none"
         d="m 0,0 c 0.276,0.3 0.414,0.652 0.414,1.056 0,0.309 -0.111,0.56 -0.334,0.752 -0.223,0.193 -0.499,0.289 -0.829,0.289 -0.485,0 -0.89,-0.186 -1.214,-0.558 C -2.288,1.167 -2.45,0.755 -2.45,0.303 c 0,-0.462 0.14,-0.843 0.421,-1.145 0.281,-0.301 0.647,-0.525 1.097,-0.671 0.45,-0.146 0.889,-0.219 1.315,-0.219 0.62,0 1.204,0.213 1.751,0.639 0.547,0.425 0.976,0.921 1.286,1.489 0.242,-0.653 0.657,-1.17 1.243,-1.553 0.587,-0.383 1.244,-0.575 1.971,-0.575 1.135,0 2.153,0.447 3.054,1.342 0.902,0.894 1.493,1.915 1.775,3.064 L 11.492,2.758 11.419,2.934 11.23,3.012 H 10.866 C 10.75,3.012 10.672,2.955 10.634,2.843 10.401,1.895 9.918,1.025 9.186,0.232 8.453,-0.56 7.622,-0.957 6.69,-0.957 c -0.475,0 -0.856,0.176 -1.142,0.528 -0.286,0.352 -0.429,0.772 -0.429,1.259 0,0.497 0.106,1.131 0.32,1.9 l 1.309,5.094 c 0.194,0.704 0.526,1.342 0.996,1.914 0.47,0.572 1.025,0.858 1.665,0.858 0.631,0 1.125,-0.136 1.484,-0.408 C 10.493,10.132 10.15,9.951 9.862,9.646 9.575,9.342 9.431,8.987 9.431,8.584 c 0,-0.3 0.107,-0.549 0.322,-0.746 0.214,-0.197 0.482,-0.295 0.804,-0.295 0.506,0 0.923,0.176 1.249,0.527 0.327,0.352 0.49,0.772 0.49,1.26 0,0.451 -0.141,0.826 -0.422,1.126 -0.282,0.301 -0.646,0.523 -1.093,0.669 -0.447,0.145 -0.884,0.218 -1.311,0.218 -0.631,0 -1.212,-0.202 -1.741,-0.606 C 7.2,10.333 6.765,9.836 6.425,9.244 6.183,9.892 5.769,10.404 5.183,10.78 4.598,11.155 3.942,11.343 3.215,11.343 2.45,11.343 1.731,11.132 1.058,10.71 0.385,10.287 -0.184,9.736 -0.649,9.056 -1.113,8.376 -1.442,7.679 -1.636,6.966 V 6.881 c 0,-0.178 0.077,-0.267 0.232,-0.267 h 0.364 c 0.116,0 0.193,0.061 0.232,0.183 0.155,0.6 0.421,1.194 0.799,1.78 0.378,0.586 0.842,1.069 1.394,1.449 0.552,0.38 1.143,0.57 1.773,0.57 0.494,0 0.879,-0.178 1.155,-0.534 C 4.589,9.705 4.727,9.288 4.727,8.809 4.727,8.472 4.62,7.838 4.407,6.909 L 3.056,1.801 C 2.882,1.116 2.558,0.485 2.083,-0.091 1.609,-0.668 1.061,-0.957 0.442,-0.957 c -0.639,0 -1.133,0.131 -1.482,0.394 C -0.623,-0.488 -0.276,-0.3 0,0" /></g><g
       transform="translate(200.6633,406.3672)"
       id="g144"><path
         id="path146"
         style="fill:#000000;fill-opacity:1;fill-rule:nonzero;stroke:none"
         d="m 0,0 0.146,0.056 c 1.106,0.846 2.056,1.811 2.852,2.896 0.796,1.085 1.453,2.268 1.972,3.55 0.519,1.282 0.898,2.583 1.135,3.903 0.238,1.319 0.357,2.66 0.357,4.022 0,1.841 -0.221,3.645 -0.662,5.41 -0.442,1.766 -1.138,3.429 -2.089,4.988 -0.951,1.559 -2.139,2.883 -3.565,3.973 L 0,28.855 h -0.277 l -0.181,-0.078 -0.08,-0.176 c 0,-0.113 0.038,-0.193 0.116,-0.24 C 2.935,25.187 4.614,20.542 4.614,14.427 4.614,8.313 2.916,3.649 -0.48,0.437 L -0.538,0.254 C -0.538,0.085 -0.451,0 -0.277,0 Z" /></g><g
       transform="translate(214.3821,407.9874)"
       id="g148"><path
         id="path150"
         style="fill:#000000;fill-opacity:1;fill-rule:nonzero;stroke:none"
         d="M 0,0 H 6.37 C 6.554,0 6.668,0.043 6.712,0.129 6.755,0.214 6.811,0.386 6.879,0.643 6.879,0.738 6.852,0.824 6.799,0.9 6.745,0.976 6.67,1.014 6.573,1.014 5.265,1.014 4.61,1.141 4.61,1.393 4.62,1.441 4.649,1.605 4.697,1.886 l 4.174,16.092 c 0,0.244 -0.112,0.366 -0.335,0.366 -0.213,0 -0.585,-0.261 -1.114,-0.782 -0.529,-0.521 -0.851,-0.895 -0.968,-1.12 -0.252,0.573 -0.621,1.033 -1.106,1.381 -0.486,0.347 -1.029,0.521 -1.631,0.521 -1.301,0 -2.512,-0.439 -3.633,-1.317 -1.121,-0.879 -2.009,-1.98 -2.664,-3.304 -0.656,-1.325 -0.983,-2.602 -0.983,-3.832 0,-1.25 0.357,-2.332 1.071,-3.248 0.714,-0.916 1.697,-1.374 2.951,-1.374 1.136,0 2.273,0.545 3.409,1.635 L 2.589,1.997 C 2.463,1.567 2.193,1.295 1.782,1.183 1.369,1.071 0.805,1.014 0.087,1.014 -0.107,1.014 -0.238,0.8 -0.305,0.371 -0.305,0.124 -0.204,0 0,0 m -0.88,6.839 c -0.296,0.53 -0.443,1.128 -0.443,1.795 0,0.741 0.176,1.782 0.53,3.123 0.354,1.342 0.725,2.397 1.113,3.167 0.397,0.722 0.885,1.348 1.462,1.878 0.576,0.53 1.199,0.795 1.868,0.795 0.65,0 1.171,-0.244 1.564,-0.731 0.392,-0.488 0.647,-1.07 0.763,-1.745 L 4.305,8.634 C 3.81,7.93 3.231,7.322 2.567,6.811 1.903,6.3 1.222,6.044 0.524,6.044 c -0.64,0 -1.108,0.265 -1.404,0.795" /></g><g
       transform="translate(233.2692,406.3672)"
       id="g152"><path
         id="path154"
         style="fill:#000000;fill-opacity:1;fill-rule:nonzero;stroke:none"
         d="m 0,0 h 0.277 l 0.152,0.092 0.08,0.162 c 0,0.103 -0.029,0.183 -0.087,0.239 -3.376,3.175 -5.065,7.82 -5.065,13.934 0,1.381 0.088,2.708 0.262,3.98 0.175,1.273 0.459,2.503 0.852,3.692 0.393,1.188 0.912,2.308 1.557,3.36 0.645,1.052 1.453,2.038 2.423,2.959 l 0.058,0.183 -0.072,0.176 -0.16,0.078 H 0 c -0.097,0 -0.146,-0.019 -0.146,-0.057 -1.077,-0.817 -2.018,-1.77 -2.823,-2.86 -0.806,-1.09 -1.468,-2.259 -1.987,-3.508 -0.519,-1.249 -0.905,-2.55 -1.157,-3.903 -0.252,-1.352 -0.378,-2.719 -0.378,-4.1 0,-1.362 0.126,-2.719 0.378,-4.072 0.252,-1.352 0.633,-2.648 1.143,-3.888 0.509,-1.24 1.164,-2.407 1.965,-3.501 0.8,-1.094 1.753,-2.064 2.859,-2.91 C -0.146,0.019 -0.097,0 0,0" /></g><g
       transform="translate(238.4966,414.9884)"
       id="g156"><path
         id="path158"
         style="fill:#000000;fill-opacity:1;fill-rule:nonzero;stroke:none"
         d="m 0,0 c 0.276,0.3 0.414,0.652 0.414,1.056 0,0.309 -0.111,0.56 -0.334,0.752 -0.223,0.193 -0.499,0.289 -0.829,0.289 -0.485,0 -0.89,-0.186 -1.214,-0.558 C -2.288,1.167 -2.45,0.755 -2.45,0.303 c 0,-0.462 0.14,-0.843 0.421,-1.145 0.281,-0.301 0.647,-0.525 1.097,-0.671 0.45,-0.146 0.889,-0.219 1.315,-0.219 0.62,0 1.204,0.213 1.751,0.639 0.547,0.425 0.976,0.921 1.286,1.489 0.242,-0.653 0.657,-1.17 1.243,-1.553 0.587,-0.383 1.244,-0.575 1.971,-0.575 1.135,0 2.153,0.447 3.054,1.342 0.902,0.894 1.493,1.915 1.775,3.064 L 11.492,2.758 11.419,2.934 11.23,3.012 H 10.866 C 10.75,3.012 10.672,2.955 10.634,2.843 10.401,1.895 9.918,1.025 9.186,0.232 8.453,-0.56 7.622,-0.957 6.69,-0.957 c -0.475,0 -0.856,0.176 -1.142,0.528 -0.286,0.352 -0.429,0.772 -0.429,1.259 0,0.497 0.106,1.131 0.32,1.9 l 1.309,5.094 c 0.194,0.704 0.526,1.342 0.996,1.914 0.47,0.572 1.025,0.858 1.665,0.858 0.631,0 1.125,-0.136 1.484,-0.408 C 10.493,10.132 10.15,9.951 9.862,9.646 9.575,9.342 9.431,8.987 9.431,8.584 c 0,-0.3 0.107,-0.549 0.322,-0.746 0.214,-0.197 0.482,-0.295 0.804,-0.295 0.506,0 0.923,0.176 1.249,0.527 0.327,0.352 0.49,0.772 0.49,1.26 0,0.451 -0.141,0.826 -0.422,1.126 -0.282,0.301 -0.646,0.523 -1.093,0.669 -0.447,0.145 -0.884,0.218 -1.311,0.218 -0.631,0 -1.212,-0.202 -1.741,-0.606 C 7.2,10.333 6.765,9.836 6.425,9.244 6.183,9.892 5.769,10.404 5.183,10.78 4.598,11.155 3.942,11.343 3.215,11.343 2.45,11.343 1.731,11.132 1.058,10.71 0.385,10.287 -0.184,9.736 -0.649,9.056 -1.113,8.376 -1.442,7.679 -1.636,6.966 V 6.881 c 0,-0.178 0.077,-0.267 0.232,-0.267 h 0.364 c 0.116,0 0.193,0.061 0.232,0.183 0.155,0.6 0.421,1.194 0.799,1.78 0.378,0.586 0.842,1.069 1.394,1.449 0.552,0.38 1.143,0.57 1.773,0.57 0.494,0 0.879,-0.178 1.155,-0.534 C 4.589,9.705 4.727,9.288 4.727,8.809 4.727,8.472 4.62,7.838 4.407,6.909 L 3.056,1.801 C 2.882,1.116 2.558,0.485 2.083,-0.091 1.609,-0.668 1.061,-0.957 0.442,-0.957 c -0.639,0 -1.133,0.131 -1.482,0.394 C -0.623,-0.488 -0.276,-0.3 0,0" /></g><g
       transform="translate(254.2959,406.3672)"
       id="g160"><path
         id="path162"
         style="fill:#000000;fill-opacity:1;fill-rule:nonzero;stroke:none"
         d="m 0,0 0.146,0.056 c 1.106,0.846 2.056,1.811 2.852,2.896 0.796,1.085 1.453,2.268 1.972,3.55 0.519,1.282 0.898,2.583 1.135,3.903 0.238,1.319 0.357,2.66 0.357,4.022 0,1.841 -0.221,3.645 -0.662,5.41 -0.442,1.766 -1.138,3.429 -2.089,4.988 -0.951,1.559 -2.139,2.883 -3.565,3.973 L 0,28.855 h -0.277 l -0.181,-0.078 -0.08,-0.176 c 0,-0.113 0.038,-0.193 0.116,-0.24 C 2.935,25.187 4.614,20.542 4.614,14.427 4.614,8.313 2.916,3.649 -0.48,0.437 L -0.538,0.254 C -0.538,0.085 -0.451,0 -0.277,0 Z" /></g><g
       transform="translate(276.5443,407.5225)"
       id="g164"><path
         id="path166"
         style="fill:#000000;fill-opacity:1;fill-rule:nonzero;stroke:none"
         d="m 0,0 c 0.114,-0.113 0.252,-0.169 0.415,-0.169 0.219,0 0.381,0.084 0.486,0.254 l 13.512,25.853 c 0.019,0.037 0.028,0.103 0.028,0.197 0,0.16 -0.057,0.296 -0.171,0.409 -0.115,0.113 -0.253,0.169 -0.415,0.169 -0.095,0 -0.191,-0.024 -0.286,-0.07 -0.095,-0.048 -0.167,-0.109 -0.214,-0.184 L -0.114,0.606 C -0.153,0.568 -0.172,0.503 -0.172,0.409 -0.172,0.249 -0.114,0.113 0,0" /></g><g
       transform="translate(293.2556,417.4131)"
       id="g168"><path
         id="path170"
         style="fill:#000000;fill-opacity:1;fill-rule:nonzero;stroke:none"
         d="m 0,0 c 0.146,0 0.272,0.061 0.378,0.183 0.107,0.122 0.16,0.254 0.16,0.395 0,0.159 -0.053,0.296 -0.16,0.408 C 0.272,1.099 0.146,1.155 0,1.155 h -18.717 c -0.165,0 -0.3,-0.056 -0.407,-0.169 -0.107,-0.112 -0.16,-0.249 -0.16,-0.408 0,-0.141 0.053,-0.273 0.16,-0.395 C -19.017,0.061 -18.882,0 -18.717,0 Z m 0,5.607 c 0.146,0 0.272,0.057 0.378,0.17 0.107,0.112 0.16,0.248 0.16,0.408 0,0.141 -0.053,0.272 -0.16,0.395 C 0.272,6.702 0.146,6.763 0,6.763 h -18.717 c -0.165,0 -0.3,-0.061 -0.407,-0.183 -0.107,-0.123 -0.16,-0.254 -0.16,-0.395 0,-0.16 0.053,-0.296 0.16,-0.408 0.107,-0.113 0.242,-0.17 0.407,-0.17 z m 21.885,-8.559 c 0.922,1.01 1.541,2.236 1.856,3.678 0.315,1.441 0.473,2.989 0.473,4.642 0,1.23 -0.08,2.407 -0.24,3.529 -0.16,1.123 -0.459,2.175 -0.895,3.156 -0.437,0.982 -1.072,1.783 -1.907,2.402 -0.834,0.62 -1.906,0.93 -3.216,0.93 -1.688,0 -3.001,-0.514 -3.937,-1.542 -0.937,-1.029 -1.562,-2.281 -1.878,-3.755 -0.315,-1.475 -0.473,-3.048 -0.473,-4.72 0,-2.677 0.439,-4.985 1.318,-6.925 0.878,-1.94 2.534,-2.909 4.97,-2.909 1.698,0 3.008,0.505 3.929,1.514 m -5.989,0.268 c -0.519,0.69 -0.895,1.54 -1.128,2.55 -0.232,1.01 -0.376,1.989 -0.429,2.938 -0.053,0.948 -0.08,1.958 -0.08,3.029 0,1.446 0.063,2.778 0.189,3.994 0.126,1.216 0.461,2.322 1.005,3.318 0.543,0.996 1.377,1.494 2.503,1.494 1.115,0 1.943,-0.496 2.481,-1.487 0.539,-0.991 0.871,-2.097 0.997,-3.318 C 21.56,8.613 21.623,7.279 21.623,5.833 21.623,4.33 21.56,2.912 21.434,1.578 21.308,0.244 20.973,-0.972 20.43,-2.071 19.887,-3.17 19.062,-3.72 17.956,-3.72 c -0.854,0 -1.541,0.346 -2.06,1.036" /></g><g
       transform="translate(387.5289,407.9874)"
       id="g172"><path
         id="path174"
         style="fill:#000000;fill-opacity:1;fill-rule:nonzero;stroke:none"
         d="m 0,0 c 0.184,0 0.298,0.043 0.342,0.129 0.043,0.085 0.099,0.257 0.167,0.514 0,0.248 -0.102,0.371 -0.305,0.371 -1.309,0 -1.964,0.127 -1.964,0.379 0.01,0.048 0.039,0.212 0.088,0.494 L -0.32,7.016 C -0.058,6.496 0.308,6.074 0.778,5.752 1.248,5.43 1.774,5.269 2.356,5.269 c 1.28,0 2.48,0.439 3.599,1.318 1.12,0.878 2.007,1.979 2.662,3.304 0.654,1.324 0.981,2.606 0.981,3.846 0,0.808 -0.155,1.561 -0.465,2.261 -0.31,0.7 -0.773,1.266 -1.389,1.698 -0.616,0.432 -1.34,0.648 -2.174,0.648 -0.698,0 -1.377,-0.193 -2.036,-0.578 -0.66,-0.385 -1.261,-0.883 -1.803,-1.493 -0.146,0.639 -0.476,1.143 -0.989,1.515 -0.514,0.37 -1.111,0.556 -1.789,0.556 -0.63,0 -1.156,-0.239 -1.578,-0.718 -0.422,-0.478 -0.732,-1.009 -0.931,-1.59 -0.199,-0.582 -0.405,-1.291 -0.618,-2.126 l 0.087,-0.19 0.16,-0.105 h 0.349 c 0.165,0 0.248,0.061 0.248,0.183 0.281,1.098 0.572,2.005 0.872,2.723 0.301,0.717 0.761,1.076 1.382,1.076 0.582,0 0.872,-0.413 0.872,-1.239 0,-0.563 -0.072,-1.023 -0.218,-1.379 L -3.781,1.997 C -3.917,1.557 -4.108,1.284 -4.356,1.176 -4.603,1.068 -5.037,1.014 -5.657,1.014 -5.851,1.014 -5.982,0.8 -6.05,0.371 -6.05,0.124 -5.958,0 -5.774,0 Z M 0.843,6.769 C 0.456,7.252 0.194,7.836 0.058,8.521 l 1.644,6.36 v 0.099 c 0.523,0.741 1.107,1.362 1.752,1.864 0.645,0.502 1.331,0.753 2.058,0.753 0.455,0 0.821,-0.129 1.098,-0.387 0.276,-0.258 0.475,-0.579 0.596,-0.964 0.121,-0.384 0.182,-0.797 0.182,-1.238 0,-0.497 -0.087,-1.168 -0.262,-2.012 C 6.952,12.151 6.745,11.357 6.508,10.611 6.27,9.865 6.016,9.234 5.744,8.718 5.376,8.033 4.896,7.416 4.305,6.867 3.713,6.319 3.073,6.044 2.385,6.044 c -0.64,0 -1.154,0.242 -1.542,0.725" /></g><g
       transform="translate(406.8821,406.3672)"
       id="g176"><path
         id="path178"
         style="fill:#000000;fill-opacity:1;fill-rule:nonzero;stroke:none"
         d="m 0,0 h 0.277 l 0.152,0.092 0.08,0.162 c 0,0.103 -0.029,0.183 -0.087,0.239 -3.376,3.175 -5.065,7.82 -5.065,13.934 0,1.381 0.088,2.708 0.262,3.98 0.175,1.273 0.459,2.503 0.852,3.692 0.393,1.188 0.912,2.308 1.557,3.36 0.645,1.052 1.453,2.038 2.423,2.959 l 0.058,0.183 -0.072,0.176 -0.16,0.078 H 0 c -0.097,0 -0.146,-0.019 -0.146,-0.057 -1.077,-0.817 -2.018,-1.77 -2.823,-2.86 -0.806,-1.09 -1.468,-2.259 -1.987,-3.508 -0.519,-1.249 -0.905,-2.55 -1.157,-3.903 -0.252,-1.352 -0.378,-2.719 -0.378,-4.1 0,-1.362 0.126,-2.719 0.378,-4.072 0.252,-1.352 0.633,-2.648 1.143,-3.888 0.509,-1.24 1.164,-2.407 1.965,-3.501 0.8,-1.094 1.753,-2.064 2.859,-2.91 C -0.146,0.019 -0.097,0 0,0" /></g><g
       transform="translate(412.4355,414.9884)"
       id="g180"><path
         id="path182"
         style="fill:#000000;fill-opacity:1;fill-rule:nonzero;stroke:none"
         d="m 0,0 c 0.276,0.3 0.414,0.652 0.414,1.056 0,0.309 -0.111,0.56 -0.334,0.752 -0.223,0.193 -0.499,0.289 -0.829,0.289 -0.485,0 -0.89,-0.186 -1.214,-0.558 C -2.288,1.167 -2.45,0.755 -2.45,0.303 c 0,-0.462 0.14,-0.843 0.421,-1.145 0.281,-0.301 0.647,-0.525 1.097,-0.671 0.45,-0.146 0.889,-0.219 1.315,-0.219 0.62,0 1.204,0.213 1.751,0.639 0.547,0.425 0.976,0.921 1.286,1.489 0.242,-0.653 0.657,-1.17 1.243,-1.553 0.587,-0.383 1.244,-0.575 1.971,-0.575 1.135,0 2.153,0.447 3.054,1.342 0.902,0.894 1.493,1.915 1.775,3.064 L 11.492,2.758 11.419,2.934 11.23,3.012 H 10.866 C 10.75,3.012 10.672,2.955 10.634,2.843 10.401,1.895 9.918,1.025 9.186,0.232 8.453,-0.56 7.622,-0.957 6.69,-0.957 c -0.475,0 -0.856,0.176 -1.142,0.528 -0.286,0.352 -0.429,0.772 -0.429,1.259 0,0.497 0.106,1.131 0.32,1.9 l 1.309,5.094 c 0.194,0.704 0.526,1.342 0.996,1.914 0.47,0.572 1.025,0.858 1.665,0.858 0.631,0 1.125,-0.136 1.484,-0.408 C 10.493,10.132 10.15,9.951 9.862,9.646 9.575,9.342 9.431,8.987 9.431,8.584 c 0,-0.3 0.107,-0.549 0.322,-0.746 0.214,-0.197 0.482,-0.295 0.804,-0.295 0.506,0 0.923,0.176 1.249,0.527 0.327,0.352 0.49,0.772 0.49,1.26 0,0.451 -0.141,0.826 -0.422,1.126 -0.282,0.301 -0.646,0.523 -1.093,0.669 -0.447,0.145 -0.884,0.218 -1.311,0.218 -0.631,0 -1.212,-0.202 -1.741,-0.606 C 7.2,10.333 6.765,9.836 6.425,9.244 6.183,9.892 5.769,10.404 5.183,10.78 4.598,11.155 3.942,11.343 3.215,11.343 2.45,11.343 1.731,11.132 1.058,10.71 0.385,10.287 -0.184,9.736 -0.649,9.056 -1.113,8.376 -1.442,7.679 -1.636,6.966 V 6.881 c 0,-0.178 0.077,-0.267 0.232,-0.267 h 0.364 c 0.116,0 0.193,0.061 0.232,0.183 0.155,0.6 0.421,1.194 0.799,1.78 0.378,0.586 0.842,1.069 1.394,1.449 0.552,0.38 1.143,0.57 1.773,0.57 0.494,0 0.879,-0.178 1.155,-0.534 C 4.589,9.705 4.727,9.288 4.727,8.809 4.727,8.472 4.62,7.838 4.407,6.909 L 3.056,1.801 C 2.882,1.116 2.557,0.485 2.083,-0.091 1.609,-0.668 1.061,-0.957 0.442,-0.957 c -0.639,0 -1.133,0.131 -1.482,0.394 C -0.623,-0.488 -0.276,-0.3 0,0" /></g><g
       transform="translate(427.9087,406.3672)"
       id="g184"><path
         id="path186"
         style="fill:#000000;fill-opacity:1;fill-rule:nonzero;stroke:none"
         d="m 0,0 0.146,0.056 c 1.106,0.846 2.056,1.811 2.852,2.896 0.796,1.085 1.453,2.268 1.972,3.55 0.519,1.282 0.898,2.583 1.135,3.903 0.238,1.319 0.357,2.66 0.357,4.022 0,1.841 -0.221,3.645 -0.662,5.41 -0.442,1.766 -1.138,3.429 -2.089,4.988 -0.951,1.559 -2.139,2.883 -3.565,3.973 L 0,28.855 h -0.277 l -0.181,-0.078 -0.08,-0.176 c 0,-0.113 0.038,-0.193 0.116,-0.24 C 2.935,25.187 4.614,20.542 4.614,14.427 4.614,8.313 2.916,3.649 -0.48,0.437 L -0.538,0.254 C -0.538,0.085 -0.451,0 -0.277,0 Z" /></g><g
       transform="translate(448.0611,412.6157)"
       id="g188"><path
         id="path190"
         style="fill:#000000;fill-opacity:1;fill-rule:nonzero;stroke:none"
         d="m 0,0 c 0.111,-0.127 0.255,-0.19 0.429,-0.19 0.039,0 0.116,0.019 0.233,0.056 l 17.015,7.791 c 0.233,0.094 0.349,0.268 0.349,0.522 0,0.244 -0.087,0.408 -0.262,0.493 L 0.662,16.491 C 0.545,16.529 0.468,16.548 0.429,16.548 0.255,16.548 0.111,16.484 0,16.357 -0.112,16.231 -0.167,16.101 -0.167,15.97 c 0,-0.272 0.097,-0.437 0.291,-0.493 L 16.034,8.179 0.225,0.937 C -0.036,0.815 -0.167,0.632 -0.167,0.387 -0.167,0.256 -0.112,0.127 0,0" /></g><g
       transform="translate(488.1021,414.4614)"
       id="g192"><path
         id="path194"
         style="fill:#000000;fill-opacity:1;fill-rule:nonzero;stroke:none"
         d="m 0,0 c 0.922,1.01 1.54,2.235 1.856,3.677 0.315,1.442 0.473,2.989 0.473,4.643 0,1.23 -0.08,2.406 -0.24,3.529 -0.161,1.122 -0.459,2.174 -0.896,3.156 -0.436,0.981 -1.072,1.782 -1.906,2.402 -0.835,0.62 -1.907,0.93 -3.217,0.93 -1.688,0 -3,-0.514 -3.937,-1.543 -0.936,-1.028 -1.562,-2.28 -1.877,-3.755 -0.315,-1.474 -0.473,-3.048 -0.473,-4.719 0,-2.677 0.439,-4.986 1.317,-6.925 0.878,-1.94 2.535,-2.91 4.97,-2.91 1.698,0 3.008,0.505 3.93,1.515 m -5.989,0.268 c -0.519,0.69 -0.895,1.54 -1.128,2.55 -0.233,1.009 -0.376,1.989 -0.429,2.937 -0.054,0.949 -0.08,1.959 -0.08,3.03 0,1.446 0.063,2.777 0.189,3.994 0.126,1.216 0.461,2.322 1.004,3.318 0.543,0.995 1.378,1.493 2.503,1.493 1.116,0 1.943,-0.495 2.482,-1.486 0.538,-0.991 0.871,-2.097 0.997,-3.318 0.126,-1.221 0.189,-2.555 0.189,-4.001 0,-1.503 -0.063,-2.922 -0.189,-4.255 -0.126,-1.334 -0.461,-2.55 -1.004,-3.649 -0.544,-1.099 -1.369,-1.649 -2.475,-1.649 -0.854,0 -1.54,0.345 -2.059,1.036" /></g></g></svg>