<?xml version="1.0" encoding="UTF-8" standalone="no"?>
<svg
   xmlns:dc="http://purl.org/dc/elements/1.1/"
   xmlns:cc="http://creativecommons.org/ns#"
   xmlns:rdf="http://www.w3.org/1999/02/22-rdf-syntax-ns#"
   xmlns:svg="http://www.w3.org/2000/svg"
   xmlns="http://www.w3.org/2000/svg"
   viewBox="0 0 689.33331 517.33331"
   height="517.33331"
   width="689.33331"
   xml:space="preserve"
   id="svg2"
   version="1.1"><metadata
     id="metadata8"><rdf:RDF><cc:Work
         rdf:about=""><dc:format>image/svg+xml</dc:format><dc:type
           rdf:resource="http://purl.org/dc/dcmitype/StillImage" /></cc:Work></rdf:RDF></metadata><defs
     id="defs6"><clipPath
       id="clipPath14"
       clipPathUnits="userSpaceOnUse"><path
         id="path12"
         d="M 0,0 H 1012 V 595 H 0 Z" /></clipPath><clipPath
       id="clipPath24"
       clipPathUnits="userSpaceOnUse"><path
         id="path22"
         d="M 45,180 H 562 V 568 H 45 Z" /></clipPath><clipPath
       id="clipPath38"
       clipPathUnits="userSpaceOnUse"><path
         id="path36"
         d="M 53.421,192.91 H 543.513 V 560.712 H 53.421 Z" /></clipPath><clipPath
       id="clipPath54"
       clipPathUnits="userSpaceOnUse"><path
         id="path52"
         d="M 67.946,238.865 H 432.099 V 523.98 H 67.946 Z" /></clipPath><clipPath
       id="clipPath66"
       clipPathUnits="userSpaceOnUse"><path
         id="path64"
         d="M 67.946,238.865 H 432.099 V 523.98 H 67.946 Z" /></clipPath><clipPath
       id="clipPath102"
       clipPathUnits="userSpaceOnUse"><path
         id="path100"
         d="M 126.046,367.185 H 339.992 V 473.496 H 126.046 Z" /></clipPath></defs><g
     clip-path="url(#clipPath14)"
     transform="matrix(1.3333333,0,0,-1.3333333,-60,757.33333)"
     id="g10"><g
       id="g16"><g
         id="g18"><g
           clip-path="url(#clipPath24)"
           id="g20"><g
             id="g26"><path
               id="path28"
               style="fill:#ffffff;fill-opacity:1;fill-rule:nonzero;stroke:none"
               d="M 45,180 H 562 V 568 H 45 Z" /></g></g></g></g><path
       id="path30"
       style="fill:#ffffff;fill-opacity:1;fill-rule:nonzero;stroke:none"
       d="M 45,324 H 346 V 568 H 45 Z" /><g
       id="g32"><g
         clip-path="url(#clipPath38)"
         id="g34"><g
           transform="translate(346,557.0557)"
           id="g40"><path
             id="path42"
             style="fill:#ffff7f;fill-opacity:1;fill-rule:nonzero;stroke:none"
             d="m 0,0 v -55.014 c 26.346,-12.671 45.683,-28.234 61.405,-49.502 16.576,-22.654 24.266,-44.984 24.266,-71.198 0,-26.214 -7.69,-48.382 -24.266,-71.036 -16.746,-22.654 -37.594,-38.997 -66.644,-52.104 -28.88,-13.107 -57.246,-18.932 -90.739,-18.932 -33.493,0 -61.86,5.825 -90.91,18.932 -28.879,13.107 -49.727,29.45 -66.474,52.104 -3.38,4.572 -6.383,9.124 -9.026,13.694 h -19.821 c 5.339,-13.188 12.902,-25.999 22.867,-38.937 22.385,-29.289 50.41,-50.324 89.542,-67.153 38.962,-16.829 77.24,-24.596 122.182,-24.596 45.113,0 83.391,7.767 122.352,24.596 38.962,16.829 66.986,37.864 89.543,67.153 22.557,29.288 32.81,57.929 32.81,91.748 0,33.819 -10.253,62.46 -32.81,91.748 -22.557,29.288 -50.581,50.324 -89.543,67.152 C 50.179,-10.738 25.895,-3.732 0,0" /></g><g
           transform="translate(298.382,560.3067)"
           id="g44"><path
             id="path46"
             style="fill:#ffff7f;fill-opacity:1;fill-rule:nonzero;stroke:none"
             d="m 0,0 c -44.942,0 -83.22,-7.767 -122.182,-24.596 -39.132,-16.828 -67.157,-37.864 -89.542,-67.152 -22.557,-29.288 -32.81,-57.929 -32.81,-91.748 0,-18.879 3.196,-36.146 9.943,-52.811 h 19.821 c -10.448,18.072 -15.239,36.419 -15.239,57.342 0,26.214 7.519,48.544 24.265,71.198 16.747,22.654 37.595,38.835 66.474,51.942 29.05,13.107 57.417,19.094 90.91,19.094 33.493,0 61.859,-5.987 90.739,-19.094 1.776,-0.802 3.523,-1.615 5.239,-2.44 V -3.251 C 32.426,-1.062 16.681,0 0,0" /></g></g></g><g
       transform="translate(0,0.0049896)"
       id="g48"><g
         clip-path="url(#clipPath54)"
         id="g50"><g
           transform="translate(346,502.03676)"
           id="g56"><path
             id="path58"
             style="fill:#ff9858;fill-opacity:1;fill-rule:nonzero;stroke:none"
             d="m 0,0 v -178.041 h -262.388 c 2.643,-4.571 5.646,-9.122 9.026,-13.695 16.747,-22.654 37.595,-38.997 66.474,-52.104 29.05,-13.107 57.417,-18.932 90.91,-18.932 33.493,0 61.859,5.825 90.739,18.932 29.05,13.107 49.898,29.45 66.644,52.104 16.576,22.654 24.266,44.823 24.266,71.036 0,26.214 -7.69,48.544 -24.266,71.198 C 45.683,-28.233 26.346,-12.67 0,0" /></g></g></g><g
       transform="translate(-2.747e-4)"
       id="g60"><g
         clip-path="url(#clipPath66)"
         id="g62"><g
           transform="translate(250.02118,523.57568)"
           id="g68"><path
             id="path70"
             style="fill:#ff9959;fill-opacity:1;fill-rule:nonzero;stroke:none"
             d="m 0,0 c -33.493,0 -61.86,-5.987 -90.91,-19.094 -28.879,-13.107 -49.727,-29.288 -66.473,-51.942 -16.747,-22.654 -24.266,-44.984 -24.266,-71.198 0,-20.923 4.791,-39.27 15.24,-57.342 H 95.978 v 178.042 c -1.716,0.825 -3.463,1.638 -5.239,2.44 C 61.86,-5.987 33.493,0 0,0 m -16.918,-155.987 c -19.651,0 -36.398,2.265 -53.315,7.12 -17.088,4.854 -29.221,10.841 -38.961,19.256 -9.912,8.414 -14.355,16.666 -14.355,26.375 0,9.709 4.443,17.962 14.355,26.376 9.74,8.414 21.873,14.563 38.961,19.417 16.917,4.855 33.664,6.958 53.315,6.958 19.652,0 36.228,-2.103 53.316,-6.958 16.917,-4.854 29.05,-11.003 38.961,-19.417 9.741,-8.414 14.184,-16.667 14.184,-26.376 0,-9.709 -4.443,-17.961 -14.184,-26.375 -9.911,-8.415 -22.044,-14.402 -38.961,-19.256 -17.088,-4.855 -33.664,-7.12 -53.316,-7.12" /></g></g></g><g
       transform="translate(211.5259,286.9548)"
       id="g72"><path
         id="path74"
         style="fill:#000000;fill-opacity:1;fill-rule:nonzero;stroke:none"
         d="m 0,0 h 6.677 c 0.193,0 0.313,0.043 0.358,0.128 0.046,0.085 0.104,0.255 0.176,0.51 0,0.095 -0.028,0.18 -0.084,0.255 -0.056,0.076 -0.135,0.114 -0.236,0.114 -1.372,0 -2.058,0.125 -2.058,0.376 0.01,0.047 0.04,0.21 0.091,0.489 l 4.375,15.972 c 0,0.243 -0.117,0.364 -0.351,0.364 -0.224,0 -0.613,-0.259 -1.168,-0.776 -0.554,-0.518 -0.892,-0.888 -1.014,-1.112 -0.265,0.569 -0.651,1.025 -1.16,1.37 -0.509,0.345 -1.079,0.518 -1.71,0.518 -1.363,0 -2.633,-0.436 -3.808,-1.308 -1.175,-0.871 -2.106,-1.964 -2.793,-3.279 -0.687,-1.315 -1.03,-2.583 -1.03,-3.804 0,-1.24 0.374,-2.314 1.123,-3.223 0.748,-0.909 1.779,-1.364 3.093,-1.364 1.191,0 2.383,0.541 3.574,1.622 L 2.714,1.983 C 2.581,1.555 2.299,1.286 1.867,1.174 1.435,1.063 0.843,1.007 0.091,1.007 -0.112,1.007 -0.249,0.794 -0.32,0.369 -0.32,0.123 -0.213,0 0,0 m -0.922,6.788 c -0.31,0.527 -0.465,1.12 -0.465,1.781 0,0.736 0.185,1.77 0.556,3.101 0.371,1.332 0.76,2.379 1.166,3.143 0.417,0.717 0.928,1.338 1.532,1.864 0.605,0.527 1.258,0.79 1.959,0.79 0.681,0 1.228,-0.242 1.639,-0.727 0.412,-0.484 0.679,-1.061 0.801,-1.732 L 4.512,8.569 C 3.994,7.871 3.387,7.268 2.691,6.761 1.994,6.253 1.281,5.999 0.549,5.999 c -0.671,0 -1.161,0.263 -1.471,0.789" /></g><g
       transform="translate(231.495,285.3466)"
       id="g76"><path
         id="path78"
         style="fill:#000000;fill-opacity:1;fill-rule:nonzero;stroke:none"
         d="m 0,0 h 0.29 l 0.16,0.091 0.084,0.161 c 0,0.102 -0.031,0.182 -0.092,0.237 -3.539,3.152 -5.309,7.762 -5.309,13.831 0,1.371 0.092,2.687 0.275,3.951 0.183,1.263 0.481,2.484 0.892,3.664 0.412,1.179 0.956,2.291 1.633,3.335 0.676,1.044 1.523,2.023 2.54,2.937 L 0.534,28.389 0.458,28.563 0.29,28.64 H 0 c -0.102,0 -0.153,-0.018 -0.153,-0.056 -1.128,-0.811 -2.115,-1.757 -2.959,-2.838 -0.845,-1.082 -1.539,-2.243 -2.083,-3.483 -0.544,-1.24 -0.948,-2.531 -1.212,-3.873 -0.265,-1.343 -0.397,-2.699 -0.397,-4.07 0,-1.352 0.132,-2.699 0.397,-4.041 C -6.143,8.936 -5.744,7.65 -5.21,6.419 -4.676,5.188 -3.989,4.03 -3.15,2.944 -2.311,1.858 -1.312,0.895 -0.153,0.056 -0.153,0.019 -0.102,0 0,0" /></g><g
       transform="translate(236.9751,293.9039)"
       id="g80"><path
         id="path82"
         style="fill:#000000;fill-opacity:1;fill-rule:nonzero;stroke:none"
         d="m 0,0 c 0.29,0.298 0.434,0.647 0.434,1.048 0,0.307 -0.116,0.556 -0.35,0.747 C -0.15,1.986 -0.44,2.081 -0.785,2.081 -1.293,2.081 -1.718,1.897 -2.058,1.527 -2.399,1.158 -2.569,0.749 -2.569,0.3 c 0,-0.458 0.147,-0.836 0.442,-1.136 0.294,-0.299 0.678,-0.521 1.15,-0.666 0.472,-0.144 0.932,-0.217 1.379,-0.217 0.649,0 1.261,0.211 1.835,0.634 0.574,0.422 1.023,0.915 1.348,1.478 0.254,-0.648 0.689,-1.161 1.304,-1.542 0.615,-0.38 1.303,-0.57 2.065,-0.57 1.19,0 2.257,0.444 3.202,1.332 0.945,0.887 1.565,1.901 1.86,3.041 L 12.047,2.738 11.97,2.912 11.772,2.989 H 11.391 C 11.269,2.989 11.187,2.933 11.147,2.822 10.903,1.881 10.397,1.017 9.629,0.231 8.861,-0.556 7.989,-0.95 7.013,-0.95 c -0.498,0 -0.897,0.175 -1.197,0.524 -0.3,0.349 -0.45,0.766 -0.45,1.25 0,0.494 0.112,1.122 0.335,1.886 l 1.373,5.056 c 0.203,0.698 0.551,1.332 1.044,1.9 0.493,0.568 1.075,0.852 1.745,0.852 0.661,0 1.179,-0.135 1.555,-0.405 C 10.999,10.057 10.639,9.877 10.338,9.575 10.037,9.272 9.886,8.921 9.886,8.52 c 0,-0.298 0.112,-0.544 0.337,-0.74 0.225,-0.196 0.506,-0.293 0.843,-0.293 0.531,0 0.968,0.174 1.31,0.524 0.342,0.349 0.513,0.766 0.513,1.25 0,0.447 -0.147,0.82 -0.442,1.118 -0.296,0.298 -0.677,0.519 -1.146,0.663 -0.468,0.145 -0.926,0.217 -1.374,0.217 -0.662,0 -1.27,-0.201 -1.825,-0.601 C 7.547,10.257 7.092,9.763 6.736,9.175 6.482,9.818 6.048,10.326 5.434,10.699 4.819,11.072 4.132,11.259 3.37,11.259 2.568,11.259 1.815,11.049 1.109,10.63 0.404,10.211 -0.192,9.664 -0.68,8.989 -1.167,8.313 -1.512,7.622 -1.715,6.914 V 6.83 c 0,-0.177 0.081,-0.265 0.244,-0.265 h 0.38 c 0.122,0 0.203,0.06 0.244,0.181 0.162,0.596 0.442,1.185 0.837,1.767 0.396,0.582 0.883,1.062 1.462,1.439 0.579,0.377 1.198,0.566 1.858,0.566 0.518,0 0.921,-0.177 1.211,-0.531 C 4.81,9.633 4.955,9.219 4.955,8.744 4.955,8.409 4.843,7.78 4.62,6.858 L 3.204,1.788 C 3.021,1.108 2.681,0.482 2.184,-0.091 1.686,-0.663 1.113,-0.95 0.463,-0.95 c -0.67,0 -1.188,0.131 -1.553,0.391 0.437,0.075 0.8,0.261 1.09,0.559" /></g><g
       transform="translate(253.366,285.3466)"
       id="g84"><path
         id="path86"
         style="fill:#000000;fill-opacity:1;fill-rule:nonzero;stroke:none"
         d="m 0,0 0.153,0.056 c 1.159,0.839 2.156,1.797 2.99,2.874 0.834,1.077 1.523,2.251 2.067,3.524 0.544,1.272 0.94,2.564 1.19,3.874 0.249,1.309 0.374,2.64 0.374,3.992 0,1.827 -0.232,3.617 -0.695,5.37 -0.462,1.753 -1.192,3.403 -2.189,4.951 -0.997,1.547 -2.242,2.862 -3.737,3.943 L 0,28.64 h -0.29 l -0.191,-0.077 -0.083,-0.174 c 0,-0.112 0.04,-0.192 0.122,-0.238 C 3.076,25 4.836,20.389 4.836,14.32 4.836,8.251 3.056,3.622 -0.503,0.434 L -0.564,0.252 C -0.564,0.084 -0.473,0 -0.29,0 Z" /></g><g
       transform="translate(274.6618,291.5488)"
       id="g88"><path
         id="path90"
         style="fill:#000000;fill-opacity:1;fill-rule:nonzero;stroke:none"
         d="m 0,0 c 0.117,-0.126 0.267,-0.189 0.45,-0.189 0.04,0 0.122,0.019 0.244,0.056 L 18.53,7.601 c 0.244,0.093 0.366,0.265 0.366,0.517 0,0.242 -0.092,0.406 -0.275,0.49 L 0.694,16.369 C 0.572,16.406 0.49,16.425 0.45,16.425 0.267,16.425 0.117,16.362 0,16.236 -0.117,16.11 -0.175,15.982 -0.175,15.852 c 0,-0.271 0.101,-0.434 0.305,-0.49 L 16.807,8.118 0.236,0.93 C -0.038,0.809 -0.175,0.627 -0.175,0.385 -0.175,0.254 -0.117,0.126 0,0" /></g><g
       transform="translate(316.4639,293.3807)"
       id="g92"><path
         id="path94"
         style="fill:#000000;fill-opacity:1;fill-rule:nonzero;stroke:none"
         d="m 0,0 c 0.966,1.002 1.615,2.219 1.945,3.65 0.331,1.431 0.496,2.967 0.496,4.608 0,1.221 -0.084,2.389 -0.252,3.503 -0.168,1.114 -0.48,2.158 -0.938,3.133 -0.458,0.974 -1.124,1.769 -1.999,2.384 -0.874,0.615 -1.998,0.923 -3.371,0.923 -1.77,0 -3.145,-0.511 -4.127,-1.531 -0.981,-1.021 -1.637,-2.264 -1.968,-3.727 -0.33,-1.464 -0.496,-3.026 -0.496,-4.685 0,-2.657 0.46,-4.948 1.381,-6.874 0.92,-1.925 2.657,-2.887 5.21,-2.887 1.78,0 3.153,0.501 4.119,1.503 m -6.278,0.266 c -0.544,0.685 -0.938,1.529 -1.182,2.531 -0.244,1.002 -0.394,1.974 -0.45,2.916 -0.056,0.941 -0.084,1.944 -0.084,3.006 0,1.436 0.066,2.758 0.198,3.965 0.132,1.207 0.483,2.305 1.053,3.293 0.569,0.988 1.444,1.483 2.624,1.483 1.169,0 2.037,-0.492 2.601,-1.476 0.565,-0.983 0.913,-2.081 1.045,-3.293 0.132,-1.212 0.198,-2.536 0.198,-3.972 0,-1.491 -0.066,-2.899 -0.198,-4.223 -0.132,-1.324 -0.483,-2.531 -1.053,-3.622 -0.569,-1.091 -1.434,-1.636 -2.593,-1.636 -0.895,0 -1.615,0.342 -2.159,1.028" /></g><g
       transform="translate(-1.373e-4,3.815e-4)"
       id="g96"><g
         clip-path="url(#clipPath102)"
         id="g98"><g
           transform="translate(233.10445,473.08925)"
           id="g104"><path
             id="path106"
             style="fill:#7fb32c;fill-opacity:1;fill-rule:nonzero;stroke:none"
             d="m 0,0 c -19.652,0 -36.398,-2.104 -53.316,-6.958 -17.088,-4.854 -29.221,-11.003 -38.961,-19.418 -9.911,-8.414 -14.354,-16.666 -14.354,-26.375 0,-9.709 4.443,-17.961 14.354,-26.376 9.74,-8.414 21.873,-14.401 38.961,-19.255 16.918,-4.855 33.664,-7.12 53.316,-7.12 19.652,0 36.227,2.265 53.315,7.12 16.918,4.854 29.051,10.841 38.962,19.255 9.74,8.415 14.183,16.667 14.183,26.376 0,9.709 -4.443,17.961 -14.183,26.375 -9.911,8.415 -22.044,14.564 -38.962,19.418 C 36.227,-2.104 19.652,0 0,0" /></g></g></g><g
       transform="translate(153.7238,407.548)"
       id="g108"><path
         id="path110"
         style="fill:#000000;fill-opacity:1;fill-rule:nonzero;stroke:none"
         d="m 0,0 c 0.332,0.34 0.498,0.716 0.498,1.126 0,0.307 -0.118,0.557 -0.352,0.748 -0.235,0.191 -0.526,0.287 -0.874,0.287 -0.521,0 -0.952,-0.18 -1.294,-0.539 -0.343,-0.359 -0.514,-0.781 -0.514,-1.265 0,-0.606 0.277,-1.093 0.831,-1.462 0.555,-0.368 1.182,-0.552 1.884,-0.552 0.915,0 1.708,0.373 2.379,1.119 0.671,0.746 1.223,1.671 1.655,2.776 0.432,1.104 0.768,2.181 1.007,3.23 0.239,1.049 0.45,2.081 0.633,3.098 l 1.448,6.992 h 3.34 l 0.206,0.105 c 0.056,0.07 0.099,0.163 0.129,0.279 0.031,0.117 0.051,0.198 0.061,0.245 0,0.252 -0.102,0.378 -0.305,0.378 H 7.511 l 0.381,1.888 c 0.448,2.145 0.739,3.46 0.871,3.945 0.082,0.308 0.262,0.597 0.542,0.868 0.28,0.27 0.578,0.405 0.894,0.405 0.57,0 1.049,-0.134 1.436,-0.404 -0.46,-0.046 -0.845,-0.225 -1.157,-0.536 -0.311,-0.311 -0.467,-0.676 -0.467,-1.094 0,-0.306 0.12,-0.555 0.36,-0.745 0.24,-0.191 0.528,-0.286 0.865,-0.286 0.501,0 0.927,0.179 1.28,0.537 0.352,0.357 0.528,0.778 0.528,1.261 0,0.417 -0.137,0.78 -0.412,1.086 -0.274,0.307 -0.628,0.537 -1.06,0.69 -0.433,0.153 -0.878,0.23 -1.335,0.23 -0.702,0 -1.356,-0.203 -1.961,-0.608 C 7.67,23.396 7.19,22.881 6.834,22.256 6.6,21.818 6.424,21.422 6.307,21.068 6.19,20.713 6.081,20.329 5.979,19.914 5.877,19.499 5.766,19.003 5.644,18.425 L 5.277,16.565 H 2.494 c -0.182,0 -0.314,-0.21 -0.395,-0.63 0,-0.251 0.101,-0.377 0.304,-0.377 H 5.079 L 3.646,8.538 C 2.782,4.473 2.253,2.077 2.06,1.35 1.593,-0.161 0.988,-0.916 0.246,-0.916 c -0.549,0 -1.017,0.135 -1.403,0.406 0.44,0 0.825,0.17 1.157,0.51" /></g><g
       transform="translate(178.0082,404.6042)"
       id="g112"><path
         id="path114"
         style="fill:#000000;fill-opacity:1;fill-rule:nonzero;stroke:none"
         d="m 0,0 h 0.29 l 0.16,0.091 0.084,0.161 c 0,0.102 -0.031,0.182 -0.092,0.237 -3.539,3.152 -5.309,7.762 -5.309,13.831 0,1.371 0.092,2.687 0.275,3.951 0.183,1.263 0.481,2.484 0.892,3.664 0.412,1.179 0.956,2.291 1.633,3.335 0.676,1.044 1.523,2.023 2.54,2.937 L 0.534,28.389 0.458,28.563 0.29,28.64 H 0 c -0.102,0 -0.153,-0.018 -0.153,-0.056 -1.128,-0.811 -2.115,-1.757 -2.959,-2.838 -0.845,-1.082 -1.539,-2.243 -2.083,-3.483 -0.544,-1.24 -0.948,-2.531 -1.212,-3.873 -0.265,-1.343 -0.397,-2.699 -0.397,-4.07 0,-1.352 0.132,-2.699 0.397,-4.041 C -6.143,8.936 -5.744,7.65 -5.21,6.419 -4.676,5.188 -3.989,4.03 -3.15,2.944 -2.311,1.858 -1.312,0.895 -0.153,0.056 -0.153,0.019 -0.102,0 0,0" /></g><g
       transform="translate(183.4883,413.1615)"
       id="g116"><path
         id="path118"
         style="fill:#000000;fill-opacity:1;fill-rule:nonzero;stroke:none"
         d="m 0,0 c 0.29,0.298 0.434,0.647 0.434,1.048 0,0.307 -0.116,0.556 -0.35,0.747 C -0.15,1.986 -0.44,2.081 -0.785,2.081 -1.293,2.081 -1.718,1.897 -2.058,1.527 -2.399,1.158 -2.569,0.749 -2.569,0.3 c 0,-0.458 0.147,-0.836 0.442,-1.136 0.294,-0.299 0.678,-0.521 1.15,-0.666 0.472,-0.144 0.932,-0.217 1.379,-0.217 0.649,0 1.261,0.211 1.835,0.634 0.574,0.422 1.023,0.915 1.348,1.478 0.254,-0.648 0.689,-1.161 1.304,-1.542 0.615,-0.38 1.303,-0.57 2.065,-0.57 1.19,0 2.257,0.444 3.202,1.332 0.945,0.887 1.565,1.901 1.86,3.041 L 12.047,2.738 11.97,2.912 11.772,2.989 H 11.391 C 11.269,2.989 11.187,2.933 11.147,2.822 10.903,1.881 10.397,1.017 9.629,0.231 8.861,-0.556 7.989,-0.95 7.013,-0.95 c -0.498,0 -0.897,0.175 -1.197,0.524 -0.3,0.349 -0.45,0.766 -0.45,1.25 0,0.494 0.112,1.122 0.335,1.886 l 1.373,5.056 c 0.203,0.698 0.551,1.332 1.044,1.9 0.493,0.568 1.075,0.852 1.745,0.852 0.661,0 1.179,-0.135 1.555,-0.405 C 10.999,10.057 10.639,9.877 10.338,9.575 10.037,9.272 9.886,8.921 9.886,8.52 c 0,-0.298 0.112,-0.544 0.337,-0.74 0.225,-0.196 0.506,-0.293 0.843,-0.293 0.531,0 0.968,0.174 1.31,0.524 0.342,0.349 0.513,0.766 0.513,1.25 0,0.447 -0.147,0.82 -0.442,1.118 -0.296,0.298 -0.677,0.519 -1.146,0.663 -0.468,0.145 -0.926,0.217 -1.374,0.217 -0.662,0 -1.27,-0.201 -1.825,-0.601 C 7.547,10.257 7.092,9.763 6.736,9.175 6.482,9.818 6.048,10.326 5.434,10.699 4.819,11.072 4.132,11.259 3.37,11.259 2.568,11.259 1.815,11.049 1.109,10.63 0.404,10.211 -0.192,9.664 -0.68,8.989 -1.167,8.313 -1.512,7.622 -1.715,6.914 V 6.83 c 0,-0.177 0.081,-0.265 0.244,-0.265 h 0.38 c 0.122,0 0.203,0.06 0.244,0.181 0.162,0.596 0.442,1.185 0.837,1.767 0.396,0.582 0.883,1.062 1.462,1.439 0.579,0.377 1.198,0.566 1.858,0.566 0.518,0 0.921,-0.177 1.211,-0.531 C 4.81,9.633 4.955,9.219 4.955,8.744 4.955,8.409 4.843,7.78 4.62,6.858 L 3.204,1.788 C 3.021,1.108 2.681,0.482 2.184,-0.091 1.686,-0.663 1.113,-0.95 0.463,-0.95 c -0.67,0 -1.188,0.131 -1.553,0.391 0.437,0.075 0.8,0.261 1.09,0.559" /></g><g
       transform="translate(200.0501,404.6042)"
       id="g120"><path
         id="path122"
         style="fill:#000000;fill-opacity:1;fill-rule:nonzero;stroke:none"
         d="m 0,0 0.153,0.056 c 1.159,0.839 2.156,1.797 2.99,2.874 0.834,1.077 1.523,2.251 2.067,3.524 0.544,1.272 0.94,2.564 1.19,3.874 0.249,1.309 0.374,2.64 0.374,3.992 0,1.827 -0.232,3.617 -0.695,5.37 -0.462,1.753 -1.192,3.403 -2.189,4.951 -0.997,1.547 -2.242,2.862 -3.737,3.943 L 0,28.64 h -0.29 l -0.191,-0.077 -0.083,-0.174 c 0,-0.112 0.04,-0.192 0.122,-0.238 C 3.076,25 4.836,20.389 4.836,14.32 4.836,8.251 3.056,3.622 -0.503,0.434 L -0.564,0.252 C -0.564,0.084 -0.473,0 -0.29,0 Z" /></g><g
       transform="translate(214.431,406.2124)"
       id="g124"><path
         id="path126"
         style="fill:#000000;fill-opacity:1;fill-rule:nonzero;stroke:none"
         d="m 0,0 h 6.677 c 0.193,0 0.313,0.043 0.358,0.128 0.046,0.085 0.104,0.255 0.176,0.51 0,0.095 -0.028,0.18 -0.084,0.255 -0.056,0.076 -0.135,0.114 -0.236,0.114 -1.372,0 -2.058,0.125 -2.058,0.376 0.01,0.047 0.04,0.21 0.091,0.489 l 4.375,15.972 c 0,0.243 -0.117,0.364 -0.351,0.364 -0.224,0 -0.613,-0.259 -1.168,-0.776 -0.554,-0.518 -0.892,-0.888 -1.014,-1.112 -0.265,0.569 -0.651,1.025 -1.16,1.37 -0.509,0.345 -1.079,0.518 -1.71,0.518 -1.363,0 -2.633,-0.436 -3.808,-1.308 -1.175,-0.871 -2.106,-1.964 -2.793,-3.279 -0.687,-1.315 -1.03,-2.583 -1.03,-3.804 0,-1.24 0.374,-2.314 1.123,-3.223 0.748,-0.909 1.779,-1.364 3.093,-1.364 1.191,0 2.383,0.541 3.574,1.622 L 2.714,1.983 C 2.581,1.555 2.299,1.286 1.867,1.174 1.435,1.063 0.843,1.007 0.091,1.007 -0.112,1.007 -0.249,0.794 -0.32,0.369 -0.32,0.123 -0.213,0 0,0 m -0.922,6.788 c -0.31,0.527 -0.465,1.12 -0.465,1.781 0,0.736 0.185,1.77 0.556,3.101 0.371,1.332 0.76,2.379 1.166,3.143 0.417,0.717 0.928,1.338 1.532,1.864 0.605,0.527 1.258,0.79 1.959,0.79 0.681,0 1.228,-0.242 1.639,-0.727 0.412,-0.484 0.679,-1.061 0.801,-1.732 L 4.512,8.569 C 3.994,7.871 3.387,7.268 2.691,6.761 1.994,6.253 1.281,5.999 0.549,5.999 c -0.671,0 -1.161,0.263 -1.471,0.789" /></g><g
       transform="translate(234.2291,404.6042)"
       id="g128"><path
         id="path130"
         style="fill:#000000;fill-opacity:1;fill-rule:nonzero;stroke:none"
         d="m 0,0 h 0.29 l 0.16,0.091 0.084,0.161 c 0,0.102 -0.031,0.182 -0.092,0.237 -3.539,3.152 -5.309,7.762 -5.309,13.831 0,1.371 0.092,2.687 0.275,3.951 0.183,1.263 0.481,2.484 0.892,3.664 0.412,1.179 0.956,2.291 1.633,3.335 0.676,1.044 1.523,2.023 2.54,2.937 L 0.534,28.389 0.458,28.563 0.29,28.64 H 0 c -0.102,0 -0.153,-0.018 -0.153,-0.056 -1.128,-0.811 -2.115,-1.757 -2.959,-2.838 -0.845,-1.082 -1.539,-2.243 -2.083,-3.483 -0.544,-1.24 -0.948,-2.531 -1.212,-3.873 -0.265,-1.343 -0.397,-2.699 -0.397,-4.07 0,-1.352 0.132,-2.699 0.397,-4.041 C -6.143,8.936 -5.744,7.65 -5.21,6.419 -4.676,5.188 -3.989,4.03 -3.15,2.944 -2.311,1.858 -1.312,0.895 -0.153,0.056 -0.153,0.019 -0.102,0 0,0" /></g><g
       transform="translate(239.7092,413.1615)"
       id="g132"><path
         id="path134"
         style="fill:#000000;fill-opacity:1;fill-rule:nonzero;stroke:none"
         d="m 0,0 c 0.29,0.298 0.434,0.647 0.434,1.048 0,0.307 -0.116,0.556 -0.35,0.747 C -0.15,1.986 -0.44,2.081 -0.785,2.081 -1.293,2.081 -1.718,1.897 -2.058,1.527 -2.399,1.158 -2.569,0.749 -2.569,0.3 c 0,-0.458 0.147,-0.836 0.442,-1.136 0.294,-0.299 0.678,-0.521 1.15,-0.666 0.472,-0.144 0.932,-0.217 1.379,-0.217 0.649,0 1.261,0.211 1.835,0.634 0.574,0.422 1.023,0.915 1.348,1.478 0.254,-0.648 0.689,-1.161 1.304,-1.542 0.615,-0.38 1.303,-0.57 2.065,-0.57 1.19,0 2.257,0.444 3.202,1.332 0.945,0.887 1.565,1.901 1.86,3.041 L 12.047,2.738 11.97,2.912 11.772,2.989 H 11.391 C 11.269,2.989 11.187,2.933 11.147,2.822 10.903,1.881 10.397,1.017 9.629,0.231 8.861,-0.556 7.989,-0.95 7.013,-0.95 c -0.498,0 -0.897,0.175 -1.197,0.524 -0.3,0.349 -0.45,0.766 -0.45,1.25 0,0.494 0.112,1.122 0.335,1.886 l 1.373,5.056 c 0.203,0.698 0.551,1.332 1.044,1.9 0.493,0.568 1.075,0.852 1.745,0.852 0.661,0 1.179,-0.135 1.555,-0.405 C 10.999,10.057 10.639,9.877 10.338,9.575 10.037,9.272 9.886,8.921 9.886,8.52 c 0,-0.298 0.112,-0.544 0.337,-0.74 0.225,-0.196 0.506,-0.293 0.843,-0.293 0.531,0 0.968,0.174 1.31,0.524 0.342,0.349 0.513,0.766 0.513,1.25 0,0.447 -0.147,0.82 -0.442,1.118 -0.296,0.298 -0.677,0.519 -1.146,0.663 -0.468,0.145 -0.926,0.217 -1.374,0.217 -0.662,0 -1.27,-0.201 -1.825,-0.601 C 7.547,10.257 7.092,9.763 6.736,9.175 6.482,9.818 6.048,10.326 5.434,10.699 4.819,11.072 4.132,11.259 3.37,11.259 2.568,11.259 1.815,11.049 1.109,10.63 0.404,10.211 -0.192,9.664 -0.68,8.989 -1.167,8.313 -1.512,7.622 -1.715,6.914 V 6.83 c 0,-0.177 0.081,-0.265 0.244,-0.265 h 0.38 c 0.122,0 0.203,0.06 0.244,0.181 0.162,0.596 0.442,1.185 0.837,1.767 0.396,0.582 0.883,1.062 1.462,1.439 0.579,0.377 1.198,0.566 1.858,0.566 0.518,0 0.921,-0.177 1.211,-0.531 C 4.81,9.633 4.955,9.219 4.955,8.744 4.955,8.409 4.843,7.78 4.62,6.858 L 3.204,1.788 C 3.021,1.108 2.681,0.482 2.184,-0.091 1.686,-0.663 1.113,-0.95 0.463,-0.95 c -0.67,0 -1.188,0.131 -1.553,0.391 0.437,0.075 0.8,0.261 1.09,0.559" /></g><g
       transform="translate(256.271,404.6042)"
       id="g136"><path
         id="path138"
         style="fill:#000000;fill-opacity:1;fill-rule:nonzero;stroke:none"
         d="m 0,0 0.153,0.056 c 1.159,0.839 2.156,1.797 2.99,2.874 0.834,1.077 1.523,2.251 2.067,3.524 0.544,1.272 0.941,2.564 1.19,3.874 0.249,1.309 0.374,2.64 0.374,3.992 0,1.827 -0.232,3.617 -0.695,5.37 -0.462,1.753 -1.192,3.403 -2.189,4.951 -0.997,1.547 -2.242,2.862 -3.737,3.943 L 0,28.64 h -0.29 l -0.191,-0.077 -0.083,-0.174 c 0,-0.112 0.04,-0.192 0.122,-0.238 C 3.076,25 4.836,20.389 4.836,14.32 4.836,8.251 3.056,3.622 -0.503,0.434 L -0.564,0.252 C -0.564,0.084 -0.473,0 -0.29,0 Z" /></g><g
       transform="translate(279.5934,405.7509)"
       id="g140"><path
         id="path142"
         style="fill:#000000;fill-opacity:1;fill-rule:nonzero;stroke:none"
         d="m 0,0 c 0.12,-0.112 0.265,-0.168 0.435,-0.168 0.229,0 0.399,0.084 0.509,0.252 l 14.165,25.662 c 0.02,0.037 0.03,0.102 0.03,0.195 0,0.159 -0.06,0.294 -0.18,0.406 -0.12,0.112 -0.265,0.168 -0.435,0.168 -0.1,0 -0.2,-0.024 -0.3,-0.07 C 14.124,26.398 14.049,26.338 14,26.263 L -0.12,0.601 C -0.16,0.564 -0.18,0.499 -0.18,0.406 -0.18,0.247 -0.12,0.112 0,0" /></g><g
       transform="translate(297.1102,415.5681)"
       id="g144"><path
         id="path146"
         style="fill:#000000;fill-opacity:1;fill-rule:nonzero;stroke:none"
         d="M 0,0 C 0.153,0 0.285,0.061 0.397,0.182 0.508,0.303 0.564,0.434 0.564,0.573 0.564,0.732 0.508,0.867 0.397,0.979 0.285,1.091 0.153,1.147 0,1.147 h -19.619 c -0.173,0 -0.315,-0.056 -0.427,-0.168 -0.112,-0.112 -0.168,-0.247 -0.168,-0.406 0,-0.139 0.056,-0.27 0.168,-0.391 C -19.934,0.061 -19.792,0 -19.619,0 Z m 0,5.566 c 0.153,0 0.285,0.056 0.397,0.168 0.111,0.112 0.167,0.247 0.167,0.405 0,0.14 -0.056,0.271 -0.167,0.392 C 0.285,6.652 0.153,6.713 0,6.713 h -19.619 c -0.173,0 -0.315,-0.061 -0.427,-0.182 -0.112,-0.121 -0.168,-0.252 -0.168,-0.392 0,-0.158 0.056,-0.293 0.168,-0.405 0.112,-0.112 0.254,-0.168 0.427,-0.168 z M 22.941,-2.93 c 0.966,1.002 1.614,2.219 1.945,3.65 0.33,1.431 0.496,2.967 0.496,4.608 0,1.221 -0.084,2.389 -0.252,3.503 -0.168,1.114 -0.481,2.158 -0.938,3.133 -0.458,0.974 -1.124,1.769 -1.999,2.384 -0.875,0.615 -1.998,0.923 -3.371,0.923 -1.77,0 -3.146,-0.51 -4.127,-1.531 -0.982,-1.021 -1.638,-2.263 -1.968,-3.727 -0.331,-1.464 -0.496,-3.026 -0.496,-4.685 0,-2.657 0.46,-4.948 1.381,-6.873 0.92,-1.926 2.657,-2.888 5.21,-2.888 1.779,0 3.152,0.501 4.119,1.503 m -6.278,0.266 c -0.544,0.685 -0.938,1.529 -1.182,2.531 -0.244,1.002 -0.395,1.974 -0.45,2.916 -0.056,0.941 -0.084,1.944 -0.084,3.007 0,1.435 0.066,2.757 0.198,3.964 0.132,1.207 0.483,2.305 1.053,3.294 0.569,0.988 1.444,1.482 2.624,1.482 1.169,0 2.036,-0.492 2.601,-1.475 0.564,-0.984 0.912,-2.082 1.045,-3.294 0.132,-1.212 0.198,-2.536 0.198,-3.971 0,-1.492 -0.066,-2.9 -0.198,-4.224 -0.133,-1.324 -0.483,-2.531 -1.053,-3.622 -0.57,-1.091 -1.434,-1.636 -2.593,-1.636 -0.895,0 -1.615,0.343 -2.159,1.028" /></g><g
       transform="translate(410.4593,275.6277)"
       id="g148"><path
         id="path150"
         style="fill:#000000;fill-opacity:1;fill-rule:nonzero;stroke:none"
         d="m 0,0 c 0.193,0 0.312,0.043 0.358,0.128 0.046,0.085 0.104,0.255 0.176,0.51 0,0.246 -0.107,0.369 -0.321,0.369 -1.372,0 -2.058,0.125 -2.058,0.376 0.01,0.047 0.041,0.21 0.092,0.49 l 1.418,5.091 C -0.061,6.447 0.323,6.029 0.816,5.709 1.308,5.39 1.86,5.23 2.47,5.23 c 1.341,0 2.599,0.436 3.773,1.308 1.174,0.871 2.103,1.965 2.789,3.279 0.686,1.315 1.029,2.587 1.029,3.818 0,0.802 -0.162,1.55 -0.487,2.244 -0.326,0.695 -0.811,1.257 -1.456,1.686 -0.646,0.428 -1.405,0.643 -2.279,0.643 -0.732,0 -1.444,-0.191 -2.135,-0.573 -0.691,-0.383 -1.321,-0.877 -1.89,-1.483 -0.152,0.634 -0.498,1.135 -1.037,1.504 -0.538,0.368 -1.163,0.552 -1.875,0.552 -0.66,0 -1.212,-0.238 -1.654,-0.713 -0.442,-0.475 -0.767,-1.001 -0.975,-1.578 -0.209,-0.578 -0.425,-1.281 -0.648,-2.11 l 0.091,-0.188 0.168,-0.105 h 0.366 c 0.172,0 0.259,0.06 0.259,0.181 0.295,1.09 0.6,1.991 0.915,2.703 0.315,0.713 0.797,1.069 1.448,1.069 0.61,0 0.915,-0.41 0.915,-1.23 0,-0.559 -0.077,-1.016 -0.229,-1.37 L -3.964,1.983 C -4.106,1.546 -4.307,1.274 -4.566,1.167 -4.825,1.06 -5.28,1.007 -5.93,1.007 -6.133,1.007 -6.271,0.794 -6.342,0.369 -6.342,0.123 -6.245,0 -6.052,0 Z M 0.884,6.719 C 0.478,7.198 0.203,7.778 0.061,8.458 l 1.723,6.313 v 0.098 c 0.548,0.735 1.161,1.352 1.837,1.85 0.675,0.499 1.394,0.748 2.157,0.748 0.477,0 0.861,-0.128 1.151,-0.384 0.289,-0.257 0.498,-0.576 0.625,-0.957 0.127,-0.382 0.19,-0.792 0.19,-1.229 0,-0.494 -0.091,-1.16 -0.274,-1.998 C 7.287,12.061 7.071,11.272 6.822,10.532 6.573,9.792 6.306,9.165 6.022,8.653 5.635,7.973 5.132,7.361 4.512,6.816 3.892,6.272 3.222,5.999 2.5,5.999 c -0.671,0 -1.209,0.24 -1.616,0.72" /></g><g
       transform="translate(430.7459,274.0195)"
       id="g152"><path
         id="path154"
         style="fill:#000000;fill-opacity:1;fill-rule:nonzero;stroke:none"
         d="m 0,0 h 0.29 l 0.16,0.091 0.084,0.161 c 0,0.102 -0.031,0.182 -0.092,0.237 -3.539,3.152 -5.309,7.762 -5.309,13.831 0,1.371 0.092,2.687 0.275,3.951 0.183,1.263 0.481,2.484 0.892,3.664 0.412,1.179 0.956,2.291 1.633,3.335 0.676,1.044 1.523,2.023 2.54,2.937 L 0.534,28.389 0.458,28.563 0.29,28.64 H 0 c -0.102,0 -0.153,-0.018 -0.153,-0.056 -1.128,-0.811 -2.115,-1.757 -2.959,-2.838 -0.845,-1.082 -1.539,-2.243 -2.083,-3.483 -0.544,-1.24 -0.948,-2.531 -1.212,-3.873 -0.265,-1.343 -0.397,-2.699 -0.397,-4.07 0,-1.352 0.132,-2.699 0.397,-4.041 C -6.143,8.936 -5.744,7.65 -5.21,6.419 -4.676,5.188 -3.989,4.03 -3.15,2.944 -2.311,1.858 -1.312,0.895 -0.153,0.056 -0.153,0.019 -0.102,0 0,0" /></g><g
       transform="translate(436.5678,282.5768)"
       id="g156"><path
         id="path158"
         style="fill:#000000;fill-opacity:1;fill-rule:nonzero;stroke:none"
         d="m 0,0 c 0.29,0.298 0.434,0.647 0.434,1.048 0,0.307 -0.116,0.556 -0.35,0.747 C -0.15,1.986 -0.44,2.081 -0.785,2.081 -1.293,2.081 -1.718,1.897 -2.058,1.527 -2.399,1.158 -2.569,0.749 -2.569,0.3 c 0,-0.458 0.147,-0.836 0.442,-1.136 0.294,-0.299 0.678,-0.521 1.15,-0.666 0.472,-0.144 0.932,-0.217 1.379,-0.217 0.649,0 1.261,0.211 1.835,0.634 0.574,0.422 1.023,0.915 1.348,1.478 0.254,-0.648 0.688,-1.161 1.304,-1.542 0.615,-0.38 1.303,-0.57 2.065,-0.57 1.189,0 2.257,0.444 3.202,1.332 0.945,0.887 1.565,1.901 1.86,3.041 L 12.047,2.738 11.97,2.912 11.772,2.989 H 11.391 C 11.269,2.989 11.187,2.933 11.147,2.822 10.903,1.881 10.397,1.017 9.629,0.231 8.861,-0.556 7.989,-0.95 7.013,-0.95 c -0.498,0 -0.897,0.175 -1.197,0.524 -0.3,0.349 -0.45,0.766 -0.45,1.25 0,0.494 0.112,1.122 0.335,1.886 l 1.373,5.056 c 0.203,0.698 0.551,1.332 1.044,1.9 0.493,0.568 1.075,0.852 1.745,0.852 0.661,0 1.179,-0.135 1.555,-0.405 C 10.999,10.057 10.639,9.877 10.338,9.575 10.037,9.272 9.886,8.921 9.886,8.52 c 0,-0.298 0.112,-0.544 0.337,-0.74 0.225,-0.196 0.506,-0.293 0.843,-0.293 0.531,0 0.968,0.174 1.31,0.524 0.342,0.349 0.513,0.766 0.513,1.25 0,0.447 -0.147,0.82 -0.442,1.118 -0.296,0.298 -0.677,0.519 -1.146,0.663 -0.468,0.145 -0.926,0.217 -1.374,0.217 -0.662,0 -1.27,-0.201 -1.825,-0.601 C 7.547,10.257 7.092,9.763 6.736,9.175 6.482,9.818 6.048,10.326 5.434,10.699 4.819,11.072 4.132,11.259 3.37,11.259 2.568,11.259 1.815,11.049 1.109,10.63 0.404,10.211 -0.192,9.664 -0.68,8.989 -1.167,8.313 -1.512,7.622 -1.715,6.914 V 6.83 c 0,-0.177 0.081,-0.265 0.244,-0.265 h 0.38 c 0.122,0 0.203,0.06 0.244,0.181 0.162,0.596 0.442,1.185 0.837,1.767 0.396,0.582 0.883,1.062 1.462,1.439 0.579,0.377 1.198,0.566 1.858,0.566 0.518,0 0.921,-0.177 1.211,-0.531 C 4.81,9.633 4.955,9.219 4.955,8.744 4.955,8.409 4.843,7.78 4.62,6.858 L 3.204,1.788 C 3.021,1.108 2.681,0.482 2.184,-0.091 1.686,-0.663 1.113,-0.95 0.463,-0.95 c -0.67,0 -1.188,0.131 -1.553,0.391 0.437,0.075 0.8,0.261 1.09,0.559" /></g><g
       transform="translate(452.7878,274.0195)"
       id="g160"><path
         id="path162"
         style="fill:#000000;fill-opacity:1;fill-rule:nonzero;stroke:none"
         d="m 0,0 0.153,0.056 c 1.159,0.839 2.156,1.797 2.99,2.874 0.834,1.077 1.523,2.251 2.067,3.524 0.544,1.272 0.94,2.564 1.19,3.874 0.249,1.309 0.374,2.64 0.374,3.992 0,1.827 -0.232,3.617 -0.695,5.37 -0.462,1.753 -1.192,3.403 -2.189,4.951 -0.997,1.547 -2.242,2.862 -3.737,3.943 L 0,28.64 h -0.29 l -0.191,-0.077 -0.083,-0.174 c 0,-0.112 0.04,-0.192 0.122,-0.238 C 3.076,25 4.836,20.389 4.836,14.32 4.836,8.251 3.056,3.622 -0.503,0.434 L -0.564,0.252 C -0.564,0.084 -0.473,0 -0.29,0 Z" /></g><g
       transform="translate(473.9128,280.2216)"
       id="g164"><path
         id="path166"
         style="fill:#000000;fill-opacity:1;fill-rule:nonzero;stroke:none"
         d="m 0,0 c 0.117,-0.126 0.267,-0.189 0.45,-0.189 0.04,0 0.122,0.019 0.244,0.056 L 18.53,7.601 c 0.244,0.093 0.366,0.265 0.366,0.517 0,0.242 -0.092,0.406 -0.275,0.49 L 0.694,16.369 C 0.572,16.406 0.49,16.425 0.45,16.425 0.267,16.425 0.117,16.362 0,16.236 -0.117,16.11 -0.175,15.982 -0.175,15.852 c 0,-0.271 0.101,-0.434 0.305,-0.49 L 16.807,8.118 0.236,0.93 C -0.038,0.809 -0.175,0.627 -0.175,0.385 -0.175,0.254 -0.117,0.126 0,0" /></g><g
       transform="translate(515.8858,282.0536)"
       id="g168"><path
         id="path170"
         style="fill:#000000;fill-opacity:1;fill-rule:nonzero;stroke:none"
         d="m 0,0 c 0.966,1.002 1.615,2.219 1.945,3.65 0.331,1.431 0.496,2.967 0.496,4.608 0,1.221 -0.084,2.389 -0.252,3.503 -0.168,1.114 -0.48,2.158 -0.938,3.133 -0.458,0.974 -1.124,1.769 -1.999,2.384 -0.874,0.615 -1.998,0.923 -3.371,0.923 -1.77,0 -3.145,-0.511 -4.127,-1.531 -0.981,-1.021 -1.637,-2.264 -1.968,-3.727 -0.33,-1.464 -0.496,-3.026 -0.496,-4.685 0,-2.657 0.46,-4.948 1.381,-6.874 0.92,-1.925 2.657,-2.887 5.21,-2.887 1.78,0 3.153,0.501 4.119,1.503 m -6.278,0.266 c -0.544,0.685 -0.938,1.529 -1.182,2.531 -0.244,1.002 -0.394,1.974 -0.45,2.916 -0.056,0.941 -0.084,1.944 -0.084,3.006 0,1.436 0.066,2.758 0.198,3.965 0.132,1.207 0.483,2.305 1.053,3.293 0.569,0.988 1.444,1.483 2.624,1.483 1.169,0 2.037,-0.492 2.601,-1.476 0.565,-0.983 0.913,-2.081 1.045,-3.293 0.132,-1.212 0.198,-2.536 0.198,-3.972 0,-1.491 -0.066,-2.899 -0.198,-4.223 -0.132,-1.324 -0.483,-2.531 -1.053,-3.622 -0.569,-1.091 -1.434,-1.636 -2.593,-1.636 -0.895,0 -1.615,0.342 -2.159,1.028" /></g></g></svg>