<?xml version="1.0" encoding="utf-8" standalone="no"?>
<!DOCTYPE svg PUBLIC "-//W3C//DTD SVG 1.1//EN"
  "http://www.w3.org/Graphics/SVG/1.1/DTD/svg11.dtd">
<!-- Created with matplotlib (https://matplotlib.org/) -->
<svg height="214.56pt" version="1.1" viewBox="0 0 720 214.56" width="720pt" xmlns="http://www.w3.org/2000/svg" xmlns:xlink="http://www.w3.org/1999/xlink">
 <defs>
  <style type="text/css">
*{stroke-linecap:butt;stroke-linejoin:round;}
  </style>
 </defs>
 <g id="figure_1">
  <g id="patch_1">
   <path d="M 0 214.56 
L 720 214.56 
L 720 0 
L 0 0 
z
" style="fill:#ffffff;"/>
  </g>
  <g id="axes_1">
   <g id="patch_2">
    <path d="M 90 190.9584 
L 648 190.9584 
L 648 25.7472 
L 90 25.7472 
z
" style="fill:#ffffff;"/>
   </g>
   <g id="matplotlib.axis_1">
    <g id="xtick_1">
     <g id="line2d_1">
      <defs>
       <path d="M 0 0 
L 0 3.5 
" id="mbd94411da9" style="stroke:#000000;stroke-width:0.8;"/>
      </defs>
      <g>
       <use style="stroke:#000000;stroke-width:0.8;" x="155.386891" xlink:href="#mbd94411da9" y="190.9584"/>
      </g>
     </g>
     <g id="text_1">
      <!-- 2500 -->
      <defs>
       <path d="M 19.1875 8.296875 
L 53.609375 8.296875 
L 53.609375 0 
L 7.328125 0 
L 7.328125 8.296875 
Q 12.9375 14.109375 22.625 23.890625 
Q 32.328125 33.6875 34.8125 36.53125 
Q 39.546875 41.84375 41.421875 45.53125 
Q 43.3125 49.21875 43.3125 52.78125 
Q 43.3125 58.59375 39.234375 62.25 
Q 35.15625 65.921875 28.609375 65.921875 
Q 23.96875 65.921875 18.8125 64.3125 
Q 13.671875 62.703125 7.8125 59.421875 
L 7.8125 69.390625 
Q 13.765625 71.78125 18.9375 73 
Q 24.125 74.21875 28.421875 74.21875 
Q 39.75 74.21875 46.484375 68.546875 
Q 53.21875 62.890625 53.21875 53.421875 
Q 53.21875 48.921875 51.53125 44.890625 
Q 49.859375 40.875 45.40625 35.40625 
Q 44.1875 33.984375 37.640625 27.21875 
Q 31.109375 20.453125 19.1875 8.296875 
z
" id="DejaVuSans-50"/>
       <path d="M 10.796875 72.90625 
L 49.515625 72.90625 
L 49.515625 64.59375 
L 19.828125 64.59375 
L 19.828125 46.734375 
Q 21.96875 47.46875 24.109375 47.828125 
Q 26.265625 48.1875 28.421875 48.1875 
Q 40.625 48.1875 47.75 41.5 
Q 54.890625 34.8125 54.890625 23.390625 
Q 54.890625 11.625 47.5625 5.09375 
Q 40.234375 -1.421875 26.90625 -1.421875 
Q 22.3125 -1.421875 17.546875 -0.640625 
Q 12.796875 0.140625 7.71875 1.703125 
L 7.71875 11.625 
Q 12.109375 9.234375 16.796875 8.0625 
Q 21.484375 6.890625 26.703125 6.890625 
Q 35.15625 6.890625 40.078125 11.328125 
Q 45.015625 15.765625 45.015625 23.390625 
Q 45.015625 31 40.078125 35.4375 
Q 35.15625 39.890625 26.703125 39.890625 
Q 22.75 39.890625 18.8125 39.015625 
Q 14.890625 38.140625 10.796875 36.28125 
z
" id="DejaVuSans-53"/>
       <path d="M 31.78125 66.40625 
Q 24.171875 66.40625 20.328125 58.90625 
Q 16.5 51.421875 16.5 36.375 
Q 16.5 21.390625 20.328125 13.890625 
Q 24.171875 6.390625 31.78125 6.390625 
Q 39.453125 6.390625 43.28125 13.890625 
Q 47.125 21.390625 47.125 36.375 
Q 47.125 51.421875 43.28125 58.90625 
Q 39.453125 66.40625 31.78125 66.40625 
z
M 31.78125 74.21875 
Q 44.046875 74.21875 50.515625 64.515625 
Q 56.984375 54.828125 56.984375 36.375 
Q 56.984375 17.96875 50.515625 8.265625 
Q 44.046875 -1.421875 31.78125 -1.421875 
Q 19.53125 -1.421875 13.0625 8.265625 
Q 6.59375 17.96875 6.59375 36.375 
Q 6.59375 54.828125 13.0625 64.515625 
Q 19.53125 74.21875 31.78125 74.21875 
z
" id="DejaVuSans-48"/>
      </defs>
      <g transform="translate(142.661891 205.556838)scale(0.1 -0.1)">
       <use xlink:href="#DejaVuSans-50"/>
       <use x="63.623047" xlink:href="#DejaVuSans-53"/>
       <use x="127.246094" xlink:href="#DejaVuSans-48"/>
       <use x="190.869141" xlink:href="#DejaVuSans-48"/>
      </g>
     </g>
    </g>
    <g id="xtick_2">
     <g id="line2d_2">
      <g>
       <use style="stroke:#000000;stroke-width:0.8;" x="222.136816" xlink:href="#mbd94411da9" y="190.9584"/>
      </g>
     </g>
     <g id="text_2">
      <!-- 5000 -->
      <g transform="translate(209.411816 205.556838)scale(0.1 -0.1)">
       <use xlink:href="#DejaVuSans-53"/>
       <use x="63.623047" xlink:href="#DejaVuSans-48"/>
       <use x="127.246094" xlink:href="#DejaVuSans-48"/>
       <use x="190.869141" xlink:href="#DejaVuSans-48"/>
      </g>
     </g>
    </g>
    <g id="xtick_3">
     <g id="line2d_3">
      <g>
       <use style="stroke:#000000;stroke-width:0.8;" x="288.88674" xlink:href="#mbd94411da9" y="190.9584"/>
      </g>
     </g>
     <g id="text_3">
      <!-- 7500 -->
      <defs>
       <path d="M 8.203125 72.90625 
L 55.078125 72.90625 
L 55.078125 68.703125 
L 28.609375 0 
L 18.3125 0 
L 43.21875 64.59375 
L 8.203125 64.59375 
z
" id="DejaVuSans-55"/>
      </defs>
      <g transform="translate(276.16174 205.556838)scale(0.1 -0.1)">
       <use xlink:href="#DejaVuSans-55"/>
       <use x="63.623047" xlink:href="#DejaVuSans-53"/>
       <use x="127.246094" xlink:href="#DejaVuSans-48"/>
       <use x="190.869141" xlink:href="#DejaVuSans-48"/>
      </g>
     </g>
    </g>
    <g id="xtick_4">
     <g id="line2d_4">
      <g>
       <use style="stroke:#000000;stroke-width:0.8;" x="355.636665" xlink:href="#mbd94411da9" y="190.9584"/>
      </g>
     </g>
     <g id="text_4">
      <!-- 10000 -->
      <defs>
       <path d="M 12.40625 8.296875 
L 28.515625 8.296875 
L 28.515625 63.921875 
L 10.984375 60.40625 
L 10.984375 69.390625 
L 28.421875 72.90625 
L 38.28125 72.90625 
L 38.28125 8.296875 
L 54.390625 8.296875 
L 54.390625 0 
L 12.40625 0 
z
" id="DejaVuSans-49"/>
      </defs>
      <g transform="translate(339.730415 205.556838)scale(0.1 -0.1)">
       <use xlink:href="#DejaVuSans-49"/>
       <use x="63.623047" xlink:href="#DejaVuSans-48"/>
       <use x="127.246094" xlink:href="#DejaVuSans-48"/>
       <use x="190.869141" xlink:href="#DejaVuSans-48"/>
       <use x="254.492188" xlink:href="#DejaVuSans-48"/>
      </g>
     </g>
    </g>
    <g id="xtick_5">
     <g id="line2d_5">
      <g>
       <use style="stroke:#000000;stroke-width:0.8;" x="422.38659" xlink:href="#mbd94411da9" y="190.9584"/>
      </g>
     </g>
     <g id="text_5">
      <!-- 12500 -->
      <g transform="translate(406.48034 205.556838)scale(0.1 -0.1)">
       <use xlink:href="#DejaVuSans-49"/>
       <use x="63.623047" xlink:href="#DejaVuSans-50"/>
       <use x="127.246094" xlink:href="#DejaVuSans-53"/>
       <use x="190.869141" xlink:href="#DejaVuSans-48"/>
       <use x="254.492188" xlink:href="#DejaVuSans-48"/>
      </g>
     </g>
    </g>
    <g id="xtick_6">
     <g id="line2d_6">
      <g>
       <use style="stroke:#000000;stroke-width:0.8;" x="489.136514" xlink:href="#mbd94411da9" y="190.9584"/>
      </g>
     </g>
     <g id="text_6">
      <!-- 15000 -->
      <g transform="translate(473.230264 205.556838)scale(0.1 -0.1)">
       <use xlink:href="#DejaVuSans-49"/>
       <use x="63.623047" xlink:href="#DejaVuSans-53"/>
       <use x="127.246094" xlink:href="#DejaVuSans-48"/>
       <use x="190.869141" xlink:href="#DejaVuSans-48"/>
       <use x="254.492188" xlink:href="#DejaVuSans-48"/>
      </g>
     </g>
    </g>
    <g id="xtick_7">
     <g id="line2d_7">
      <g>
       <use style="stroke:#000000;stroke-width:0.8;" x="555.886439" xlink:href="#mbd94411da9" y="190.9584"/>
      </g>
     </g>
     <g id="text_7">
      <!-- 17500 -->
      <g transform="translate(539.980189 205.556838)scale(0.1 -0.1)">
       <use xlink:href="#DejaVuSans-49"/>
       <use x="63.623047" xlink:href="#DejaVuSans-55"/>
       <use x="127.246094" xlink:href="#DejaVuSans-53"/>
       <use x="190.869141" xlink:href="#DejaVuSans-48"/>
       <use x="254.492188" xlink:href="#DejaVuSans-48"/>
      </g>
     </g>
    </g>
    <g id="xtick_8">
     <g id="line2d_8">
      <g>
       <use style="stroke:#000000;stroke-width:0.8;" x="622.636364" xlink:href="#mbd94411da9" y="190.9584"/>
      </g>
     </g>
     <g id="text_8">
      <!-- 20000 -->
      <g transform="translate(606.730114 205.556838)scale(0.1 -0.1)">
       <use xlink:href="#DejaVuSans-50"/>
       <use x="63.623047" xlink:href="#DejaVuSans-48"/>
       <use x="127.246094" xlink:href="#DejaVuSans-48"/>
       <use x="190.869141" xlink:href="#DejaVuSans-48"/>
       <use x="254.492188" xlink:href="#DejaVuSans-48"/>
      </g>
     </g>
    </g>
   </g>
   <g id="matplotlib.axis_2">
    <g id="ytick_1">
     <g id="line2d_9">
      <defs>
       <path d="M 0 0 
L -3.5 0 
" id="mcf440ae735" style="stroke:#000000;stroke-width:0.8;"/>
      </defs>
      <g>
       <use style="stroke:#000000;stroke-width:0.8;" x="90" xlink:href="#mcf440ae735" y="170.725962"/>
      </g>
     </g>
     <g id="text_9">
      <!-- 0.2 -->
      <defs>
       <path d="M 10.6875 12.40625 
L 21 12.40625 
L 21 0 
L 10.6875 0 
z
" id="DejaVuSans-46"/>
      </defs>
      <g transform="translate(67.096875 174.525181)scale(0.1 -0.1)">
       <use xlink:href="#DejaVuSans-48"/>
       <use x="63.623047" xlink:href="#DejaVuSans-46"/>
       <use x="95.410156" xlink:href="#DejaVuSans-50"/>
      </g>
     </g>
    </g>
    <g id="ytick_2">
     <g id="line2d_10">
      <g>
       <use style="stroke:#000000;stroke-width:0.8;" x="90" xlink:href="#mcf440ae735" y="133.921583"/>
      </g>
     </g>
     <g id="text_10">
      <!-- 0.4 -->
      <defs>
       <path d="M 37.796875 64.3125 
L 12.890625 25.390625 
L 37.796875 25.390625 
z
M 35.203125 72.90625 
L 47.609375 72.90625 
L 47.609375 25.390625 
L 58.015625 25.390625 
L 58.015625 17.1875 
L 47.609375 17.1875 
L 47.609375 0 
L 37.796875 0 
L 37.796875 17.1875 
L 4.890625 17.1875 
L 4.890625 26.703125 
z
" id="DejaVuSans-52"/>
      </defs>
      <g transform="translate(67.096875 137.720802)scale(0.1 -0.1)">
       <use xlink:href="#DejaVuSans-48"/>
       <use x="63.623047" xlink:href="#DejaVuSans-46"/>
       <use x="95.410156" xlink:href="#DejaVuSans-52"/>
      </g>
     </g>
    </g>
    <g id="ytick_3">
     <g id="line2d_11">
      <g>
       <use style="stroke:#000000;stroke-width:0.8;" x="90" xlink:href="#mcf440ae735" y="97.117204"/>
      </g>
     </g>
     <g id="text_11">
      <!-- 0.6 -->
      <defs>
       <path d="M 33.015625 40.375 
Q 26.375 40.375 22.484375 35.828125 
Q 18.609375 31.296875 18.609375 23.390625 
Q 18.609375 15.53125 22.484375 10.953125 
Q 26.375 6.390625 33.015625 6.390625 
Q 39.65625 6.390625 43.53125 10.953125 
Q 47.40625 15.53125 47.40625 23.390625 
Q 47.40625 31.296875 43.53125 35.828125 
Q 39.65625 40.375 33.015625 40.375 
z
M 52.59375 71.296875 
L 52.59375 62.3125 
Q 48.875 64.0625 45.09375 64.984375 
Q 41.3125 65.921875 37.59375 65.921875 
Q 27.828125 65.921875 22.671875 59.328125 
Q 17.53125 52.734375 16.796875 39.40625 
Q 19.671875 43.65625 24.015625 45.921875 
Q 28.375 48.1875 33.59375 48.1875 
Q 44.578125 48.1875 50.953125 41.515625 
Q 57.328125 34.859375 57.328125 23.390625 
Q 57.328125 12.15625 50.6875 5.359375 
Q 44.046875 -1.421875 33.015625 -1.421875 
Q 20.359375 -1.421875 13.671875 8.265625 
Q 6.984375 17.96875 6.984375 36.375 
Q 6.984375 53.65625 15.1875 63.9375 
Q 23.390625 74.21875 37.203125 74.21875 
Q 40.921875 74.21875 44.703125 73.484375 
Q 48.484375 72.75 52.59375 71.296875 
z
" id="DejaVuSans-54"/>
      </defs>
      <g transform="translate(67.096875 100.916423)scale(0.1 -0.1)">
       <use xlink:href="#DejaVuSans-48"/>
       <use x="63.623047" xlink:href="#DejaVuSans-46"/>
       <use x="95.410156" xlink:href="#DejaVuSans-54"/>
      </g>
     </g>
    </g>
    <g id="ytick_4">
     <g id="line2d_12">
      <g>
       <use style="stroke:#000000;stroke-width:0.8;" x="90" xlink:href="#mcf440ae735" y="60.312825"/>
      </g>
     </g>
     <g id="text_12">
      <!-- 0.8 -->
      <defs>
       <path d="M 31.78125 34.625 
Q 24.75 34.625 20.71875 30.859375 
Q 16.703125 27.09375 16.703125 20.515625 
Q 16.703125 13.921875 20.71875 10.15625 
Q 24.75 6.390625 31.78125 6.390625 
Q 38.8125 6.390625 42.859375 10.171875 
Q 46.921875 13.96875 46.921875 20.515625 
Q 46.921875 27.09375 42.890625 30.859375 
Q 38.875 34.625 31.78125 34.625 
z
M 21.921875 38.8125 
Q 15.578125 40.375 12.03125 44.71875 
Q 8.5 49.078125 8.5 55.328125 
Q 8.5 64.0625 14.71875 69.140625 
Q 20.953125 74.21875 31.78125 74.21875 
Q 42.671875 74.21875 48.875 69.140625 
Q 55.078125 64.0625 55.078125 55.328125 
Q 55.078125 49.078125 51.53125 44.71875 
Q 48 40.375 41.703125 38.8125 
Q 48.828125 37.15625 52.796875 32.3125 
Q 56.78125 27.484375 56.78125 20.515625 
Q 56.78125 9.90625 50.3125 4.234375 
Q 43.84375 -1.421875 31.78125 -1.421875 
Q 19.734375 -1.421875 13.25 4.234375 
Q 6.78125 9.90625 6.78125 20.515625 
Q 6.78125 27.484375 10.78125 32.3125 
Q 14.796875 37.15625 21.921875 38.8125 
z
M 18.3125 54.390625 
Q 18.3125 48.734375 21.84375 45.5625 
Q 25.390625 42.390625 31.78125 42.390625 
Q 38.140625 42.390625 41.71875 45.5625 
Q 45.3125 48.734375 45.3125 54.390625 
Q 45.3125 60.0625 41.71875 63.234375 
Q 38.140625 66.40625 31.78125 66.40625 
Q 25.390625 66.40625 21.84375 63.234375 
Q 18.3125 60.0625 18.3125 54.390625 
z
" id="DejaVuSans-56"/>
      </defs>
      <g transform="translate(67.096875 64.112044)scale(0.1 -0.1)">
       <use xlink:href="#DejaVuSans-48"/>
       <use x="63.623047" xlink:href="#DejaVuSans-46"/>
       <use x="95.410156" xlink:href="#DejaVuSans-56"/>
      </g>
     </g>
    </g>
   </g>
   <g id="line2d_13">
    <path clip-path="url(#p9ee974025f)" d="M 115.363636 54.380007 
L 116.351535 50.578394 
L 116.618535 49.665615 
L 116.912235 48.584674 
L 117.099134 48.272077 
L 117.259334 47.456993 
L 117.766634 44.456153 
L 119.261832 37.2742 
L 120.036131 34.926749 
L 120.62353 33.945368 
L 121.18423 33.267532 
L 121.23763 33.328914 
L 121.42453 33.744627 
L 122.626028 37.065776 
L 122.652728 37.049444 
L 122.893028 37.033898 
L 123.079928 37.333459 
L 123.533827 38.492758 
L 124.735326 44.550447 
L 126.577624 57.297802 
L 128.473322 72.658002 
L 129.034021 74.702768 
L 130.04862 77.50121 
L 130.315619 77.675534 
L 130.502519 77.844861 
L 131.063219 78.597881 
L 131.623918 80.782101 
L 132.611817 88.185197 
L 133.039016 91.549366 
L 134.827914 100.906583 
L 135.361914 102.02543 
L 135.495414 102.278644 
L 136.056113 104.207108 
L 136.723612 107.680287 
L 137.257612 110.904173 
L 137.524611 113.23859 
L 139.473709 134.691997 
L 141.182507 154.864923 
L 141.689807 156.711901 
L 141.823306 156.965823 
L 142.303906 158.74793 
L 142.757805 160.125047 
L 143.291805 161.104205 
L 143.986004 163.676714 
L 144.840403 169.15503 
L 145.454502 171.22457 
L 146.068602 170.558848 
L 146.415701 170.44283 
L 146.549201 170.281554 
L 147.3502 167.20564 
L 147.5638 166.992774 
L 147.5905 167.023013 
L 147.9376 167.190223 
L 148.524999 168.209656 
L 148.791999 168.563808 
L 148.818699 168.543459 
L 149.085698 168.467867 
L 149.325998 168.71315 
L 149.539598 168.852108 
L 149.699798 168.771186 
L 150.020197 168.482461 
L 150.741096 168.061147 
L 150.901296 168.487795 
L 151.275096 169.689657 
L 151.595495 169.997174 
L 152.610094 170.739346 
L 152.796994 170.654231 
L 153.037294 169.896102 
L 153.597993 167.768657 
L 153.998493 167.534788 
L 154.612592 167.400215 
L 155.707291 166.213453 
L 156.42819 164.35672 
L 156.882089 163.245961 
L 157.309289 162.630318 
L 157.576289 162.529154 
L 157.816588 162.470507 
L 157.923388 162.330671 
L 158.136988 162.188416 
L 159.258387 161.493518 
L 159.445287 161.416106 
L 159.845786 161.495531 
L 160.086086 161.787824 
L 160.700185 161.890899 
L 160.887085 161.82293 
L 161.073985 161.541243 
L 162.061884 158.336023 
L 162.248783 157.990282 
L 162.889583 156.673865 
L 163.103182 156.766052 
L 163.557082 157.126091 
L 164.144481 156.918291 
L 164.464881 156.652647 
L 164.678481 156.637993 
L 164.89208 156.631834 
L 165.42608 157.341244 
L 165.879979 158.182939 
L 165.906679 158.163025 
L 166.013479 157.963189 
L 166.387279 157.18932 
L 167.588777 154.995647 
L 168.149477 154.797935 
L 168.763576 155.174951 
L 169.244176 155.384233 
L 169.431075 155.521333 
L 169.831575 156.325016 
L 170.392274 157.463141 
L 170.872874 157.777144 
L 170.899574 157.733311 
L 171.406873 157.068873 
L 171.567073 157.081792 
L 171.673873 157.171854 
L 171.967572 157.474099 
L 172.101072 157.594579 
L 172.688472 159.128868 
L 173.382671 161.62833 
L 173.86327 164.032736 
L 174.31717 165.158851 
L 174.717669 165.531973 
L 175.518668 165.857531 
L 176.186168 166.566567 
L 176.479867 166.612657 
L 177.467766 167.278662 
L 177.788166 166.9926 
L 178.081866 166.848362 
L 178.695965 167.047113 
L 179.149864 167.385829 
L 179.363464 167.88234 
L 179.603764 168.967898 
L 180.137763 171.616578 
L 180.431463 171.939471 
L 180.805262 171.999394 
L 181.606262 171.823955 
L 181.980061 171.870884 
L 182.166961 171.922641 
L 182.86116 172.662621 
L 183.448559 174.163429 
L 183.742259 174.797296 
L 184.062659 175.178096 
L 184.436458 175.53231 
L 184.623358 175.722669 
L 184.917058 176.019403 
L 185.290857 176.176682 
L 185.531157 176.350536 
L 185.904957 176.824922 
L 186.145256 177.044327 
L 186.332156 177.015219 
L 186.492356 176.987393 
L 186.892856 176.963213 
L 187.266655 177.033118 
L 187.640455 177.24508 
L 187.854055 177.730602 
L 188.067654 178.509558 
L 188.761853 180.48913 
L 188.922053 180.735493 
L 189.803152 182.248526 
L 190.497352 181.986417 
L 190.710951 181.942779 
L 190.897851 181.98001 
L 191.111451 181.950268 
L 191.53865 181.637578 
L 191.88575 181.456214 
L 192.09935 181.21022 
L 192.579949 180.686774 
L 192.766849 180.735643 
L 192.900349 180.70632 
L 193.140649 180.566067 
L 193.407648 180.573331 
L 193.728048 180.306775 
L 193.914948 180.223151 
L 194.155247 180.435654 
L 194.582447 180.867728 
L 194.742647 180.827542 
L 195.330046 180.670566 
L 195.516946 180.586639 
L 195.677146 180.559968 
L 195.917445 180.713929 
L 196.131045 180.778826 
L 196.745144 180.549829 
L 197.546144 179.659385 
L 197.866543 179.049199 
L 198.026743 178.852492 
L 198.160243 178.3757 
L 198.614142 175.955493 
L 199.068042 175.144117 
L 199.308342 175.200057 
L 199.708841 175.186344 
L 199.975841 175.663141 
L 200.189441 175.759698 
L 200.88364 176.479909 
L 201.204039 176.488855 
L 201.497739 176.264067 
L 201.978339 175.694084 
L 202.245338 175.185955 
L 203.206537 172.447309 
L 203.607037 171.716307 
L 203.954136 171.281201 
L 204.274536 171.092922 
L 204.594936 171.111557 
L 205.422635 170.371537 
L 206.063434 169.351449 
L 206.811033 167.952293 
L 206.944533 167.868576 
L 207.104733 167.764715 
L 207.318333 167.652323 
L 207.825632 167.19777 
L 208.386331 165.945876 
L 208.680031 165.578301 
L 208.973731 165.356494 
L 211.216528 164.98929 
L 211.670428 164.966072 
L 212.284527 164.898367 
L 212.471427 164.890007 
L 212.711726 164.817881 
L 213.005426 165.081366 
L 213.219026 165.320744 
L 213.432626 165.249286 
L 213.993325 164.93191 
L 214.767624 164.699883 
L 215.141424 164.515839 
L 215.595323 164.054496 
L 215.862323 163.572505 
L 217.010422 161.926627 
L 217.731321 161.953788 
L 217.944921 161.55448 
L 218.37212 160.144992 
L 218.986219 158.214566 
L 219.733819 156.328793 
L 220.267818 155.640967 
L 220.374618 155.609192 
L 220.401318 155.637285 
L 220.721717 155.682719 
L 221.042117 155.345019 
L 221.415917 154.57607 
L 221.656216 154.254613 
L 222.163516 153.389971 
L 222.537315 152.792218 
L 223.418414 150.973741 
L 224.112614 150.398957 
L 224.272813 150.272435 
L 224.459713 150.300888 
L 224.593213 150.168435 
L 224.806813 149.692212 
L 224.833513 149.736014 
L 224.940313 150.150292 
L 225.581112 153.014065 
L 226.488911 153.780688 
L 226.88941 152.778499 
L 227.26321 151.290298 
L 227.823909 149.121407 
L 228.224409 148.526799 
L 228.544809 148.540872 
L 228.945308 148.458152 
L 229.185608 148.418657 
L 229.372508 148.437285 
L 229.586107 148.101076 
L 229.799707 147.413878 
L 230.841006 144.662712 
L 231.108006 144.062671 
L 231.508505 143.079576 
L 232.176004 142.449036 
L 232.443004 142.031535 
L 232.603204 142.26254 
L 232.816804 142.424815 
L 232.977004 142.580024 
L 233.244003 142.874232 
L 233.404203 142.968201 
L 233.430903 142.934943 
L 233.564403 142.586531 
L 234.498902 139.578166 
L 234.819301 139.179559 
L 234.899401 139.062385 
L 235.7538 136.918385 
L 237.382499 133.066183 
L 237.596098 132.512377 
L 237.889798 131.767539 
L 238.503897 131.083257 
L 238.824297 131.032515 
L 239.117997 131.068107 
L 239.491796 131.089871 
L 240.132595 130.615396 
L 240.746695 130.791928 
L 241.093794 130.840472 
L 241.547694 130.716315 
L 241.761294 130.684738 
L 242.081693 130.363822 
L 242.295293 130.347686 
L 242.508893 130.541359 
L 242.669093 130.648079 
L 242.989492 130.954723 
L 243.203092 131.105546 
L 243.630292 131.658491 
L 244.110891 132.16922 
L 244.351191 132.333066 
L 244.56479 132.792563 
L 247.394987 142.758095 
L 248.009087 143.992442 
L 250.225184 147.745878 
L 250.865983 148.954834 
L 251.106283 149.40472 
L 251.293183 149.701212 
L 251.693682 150.878266 
L 251.720382 150.865753 
L 251.880582 150.752362 
L 251.907282 150.772057 
L 252.494682 151.314218 
L 252.921881 151.042403 
L 253.77628 151.804643 
L 254.04328 152.618149 
L 254.603979 154.726566 
L 254.764179 154.950748 
L 255.191378 155.589529 
L 255.538478 156.171376 
L 255.778778 156.98867 
L 256.526377 160.414976 
L 257.540976 165.248198 
L 258.635675 168.013876 
L 258.929374 168.708482 
L 259.570174 170.203043 
L 259.890573 170.792748 
L 260.130873 171.289842 
L 260.718272 173.181884 
L 261.038672 173.488866 
L 261.545971 174.807751 
L 262.29357 177.807333 
L 262.72077 178.73153 
L 262.90767 178.855118 
L 263.174669 179.218285 
L 263.948969 181.166084 
L 265.123767 183.343935 
L 265.390767 183.421253 
L 265.631067 183.410128 
L 266.004866 183.087974 
L 266.218466 182.889129 
L 266.752465 182.930896 
L 267.126265 183.072086 
L 267.446665 182.99835 
L 268.060764 182.317326 
L 268.354464 181.783945 
L 268.514663 181.918212 
L 268.674863 181.945734 
L 268.888463 181.941794 
L 269.102063 181.423692 
L 270.463761 175.386897 
L 270.890961 171.520357 
L 271.42496 166.650914 
L 271.90556 161.569076 
L 273.107058 147.543603 
L 273.347358 145.277227 
L 273.801257 142.115306 
L 274.175057 140.792572 
L 275.056156 138.051193 
L 275.536756 136.693816 
L 276.044055 136.100682 
L 276.311055 136.128744 
L 276.551354 136.265139 
L 276.791654 136.069549 
L 277.352353 135.559645 
L 277.752853 135.523193 
L 278.233452 136.020799 
L 278.553852 135.789458 
L 278.740752 135.386271 
L 279.221351 134.541062 
L 279.248051 134.559414 
L 279.461651 134.465047 
L 280.18255 133.371796 
L 280.23595 133.456397 
L 280.44955 133.771607 
L 280.68985 133.777042 
L 280.876749 133.385002 
L 281.143749 132.892471 
L 281.410749 132.771724 
L 281.651049 132.709214 
L 282.024848 132.333102 
L 282.719047 130.738555 
L 283.146247 129.133133 
L 283.733646 126.447595 
L 285.068645 121.674512 
L 285.709444 120.320342 
L 286.216743 119.518128 
L 286.510443 119.357968 
L 287.124542 119.325463 
L 287.391542 119.998895 
L 288.085741 121.972652 
L 288.272641 122.163973 
L 289.20714 122.18526 
L 289.68774 121.932647 
L 289.954739 121.230639 
L 291.102838 117.35603 
L 291.610137 115.522044 
L 292.144137 114.136354 
L 292.491236 114.002156 
L 292.704836 114.152267 
L 292.971836 114.338426 
L 293.238836 114.331558 
L 294.093235 113.192021 
L 294.333534 113.171958 
L 294.493734 113.184125 
L 294.707334 113.254051 
L 295.107833 113.547904 
L 295.134533 113.495055 
L 295.241333 113.404482 
L 295.268033 113.422858 
L 295.721933 114.182883 
L 296.069032 115.501547 
L 296.336032 116.733493 
L 297.056931 120.41435 
L 297.297231 121.988961 
L 298.31183 130.694338 
L 298.925929 138.187102 
L 299.673528 147.538029 
L 300.100728 150.619747 
L 300.394427 152.099033 
L 300.768227 152.753234 
L 301.248826 153.297317 
L 302.316825 155.647113 
L 302.797425 155.70521 
L 303.144524 155.653105 
L 303.411524 155.836265 
L 304.799922 158.141721 
L 305.013522 158.349536 
L 305.414022 158.74796 
L 305.574222 158.788597 
L 305.734421 159.009189 
L 305.894621 159.204097 
L 305.921321 159.18639 
L 306.268421 159.045903 
L 306.80242 159.407294 
L 307.01602 159.32849 
L 307.790319 159.656208 
L 308.003919 159.159414 
L 309.045218 157.219909 
L 309.312217 156.932831 
L 309.579217 156.885837 
L 309.766117 156.918196 
L 309.953017 156.911636 
L 310.300116 157.381478 
L 310.567116 157.837338 
L 310.754016 158.055295 
L 310.914216 158.469356 
L 311.394815 159.7519 
L 311.661815 160.133094 
L 311.848715 160.268428 
L 313.183713 161.928613 
L 313.851212 161.910658 
L 314.785711 160.650925 
L 315.42651 160.671737 
L 315.82701 160.828486 
L 316.334309 161.449172 
L 316.494509 161.893951 
L 316.814909 162.689872 
L 317.081909 162.833079 
L 317.268808 162.847141 
L 317.402308 162.934745 
L 317.562508 163.207332 
L 317.936308 163.701015 
L 318.497007 163.143806 
L 318.844107 162.761487 
L 319.671806 160.241472 
L 320.072305 159.739879 
L 320.766504 159.231632 
L 320.953404 159.176154 
L 321.434004 159.567499 
L 321.620903 159.465062 
L 321.887903 159.313307 
L 322.048103 159.298518 
L 322.181603 159.230859 
L 322.341803 158.994574 
L 323.917101 154.553714 
L 324.2909 154.681253 
L 325.171999 155.629352 
L 325.305499 155.698469 
L 325.599199 155.789434 
L 325.919599 155.753136 
L 326.213298 155.702528 
L 326.667198 156.008891 
L 326.880798 156.463142 
L 327.254597 156.965453 
L 327.414797 157.074245 
L 328.616296 158.123343 
L 329.123595 158.782872 
L 329.657594 159.119327 
L 330.058094 158.574329 
L 330.271694 157.986207 
L 330.618793 156.752515 
L 331.393092 155.879795 
L 331.606692 155.908065 
L 332.033892 156.370475 
L 332.380991 156.86133 
L 332.808191 156.96337 
L 332.968391 157.032738 
L 333.15529 156.778092 
L 333.34219 156.616423 
L 333.55579 156.610168 
L 333.87619 156.405106 
L 334.036389 156.452692 
L 334.410189 157.055543 
L 336.599587 163.64732 
L 336.946686 164.793851 
L 337.507386 165.876832 
L 337.774385 166.474199 
L 338.308385 167.358257 
L 338.922484 168.089108 
L 339.082684 168.028708 
L 340.017183 166.990535 
L 340.310882 166.600582 
L 340.551182 166.485657 
L 340.951682 166.78593 
L 341.645881 167.500571 
L 342.07308 167.543672 
L 342.31338 167.328191 
L 342.63378 167.051965 
L 342.900779 167.260319 
L 343.942078 169.17275 
L 345.223677 172.823577 
L 345.437277 172.79516 
L 345.597476 173.140396 
L 346.158176 174.957156 
L 346.531975 175.898846 
L 347.332974 177.579245 
L 347.466474 177.716773 
L 347.680074 177.832754 
L 347.920374 177.86069 
L 348.214073 177.687375 
L 348.641273 177.907043 
L 348.801473 177.924095 
L 349.121872 178.463115 
L 350.456871 182.47465 
L 350.563671 182.398017 
L 351.33797 181.490636 
L 351.55157 181.294454 
L 351.68507 181.211621 
L 351.925369 181.044681 
L 352.619568 181.305527 
L 352.939968 181.445491 
L 353.473968 181.406157 
L 353.660867 181.422616 
L 354.088067 181.632301 
L 354.381767 181.538072 
L 354.889066 181.224878 
L 355.663365 181.108441 
L 356.250764 180.968023 
L 356.544464 181.024001 
L 356.838164 181.215176 
L 356.944964 181.377701 
L 357.372163 182.268424 
L 358.119762 181.814063 
L 358.360062 181.83109 
L 358.894061 181.440414 
L 359.054261 181.419767 
L 359.347961 181.457728 
L 359.588261 181.532761 
L 359.72176 181.492488 
L 360.33586 182.345371 
L 360.57616 182.117333 
L 360.763059 181.58763 
L 361.457259 179.251409 
L 361.884458 178.396508 
L 362.204858 177.837144 
L 362.605357 177.235754 
L 362.925757 176.900797 
L 363.059257 176.661649 
L 363.833556 175.086598 
L 364.340855 174.519886 
L 365.248654 174.19324 
L 365.462254 173.727075 
L 365.836054 172.885214 
L 366.049653 172.589325 
L 366.343353 171.526682 
L 367.251152 164.391431 
L 368.61285 149.033068 
L 368.93325 147.697217 
L 369.22695 147.098432 
L 369.787649 146.266369 
L 370.828948 143.951022 
L 371.069248 143.913534 
L 371.576547 143.907074 
L 372.484346 145.123271 
L 372.938246 144.73027 
L 373.392145 144.255239 
L 373.952844 144.309165 
L 374.353344 144.29075 
L 374.593644 144.082046 
L 374.620344 144.10972 
L 375.181043 144.344427 
L 375.634943 144.34897 
L 377.023341 144.597984 
L 377.183541 144.61785 
L 377.343741 144.617027 
L 377.66414 144.18638 
L 377.74424 144.259624 
L 378.11804 144.036035 
L 378.518539 143.271286 
L 380.013738 139.423411 
L 380.414237 139.286014 
L 380.814737 139.505234 
L 381.669136 140.301319 
L 382.470135 139.929303 
L 382.683735 139.782599 
L 383.404634 139.932071 
L 384.339133 141.45084 
L 384.793032 142.386898 
L 385.300332 142.743356 
L 386.261531 143.911391 
L 386.90233 145.116527 
L 387.169329 145.674456 
L 387.783429 147.732539 
L 388.103828 148.604295 
L 388.130528 148.593093 
L 388.477628 148.390392 
L 388.744628 148.346709 
L 389.518927 149.261164 
L 390.667026 151.659261 
L 390.853925 151.615048 
L 390.987425 151.440525 
L 391.254425 150.840651 
L 392.055424 149.071931 
L 392.188924 149.03486 
L 392.349124 149.240894 
L 392.509323 149.373567 
L 392.856423 149.28072 
L 393.070023 149.731092 
L 393.523922 152.825443 
L 393.764222 155.105109 
L 395.31282 172.525836 
L 395.65992 174.00964 
L 395.95362 174.579485 
L 396.247319 174.690283 
L 396.514319 174.583212 
L 396.541019 174.630251 
L 397.448818 176.53095 
L 397.662418 176.574441 
L 398.516817 176.564255 
L 399.077516 176.964936 
L 399.211016 177.080083 
L 399.825115 177.66649 
L 400.225615 177.25791 
L 400.519314 176.818637 
L 401.293614 175.442353 
L 402.014513 172.601913 
L 402.495112 168.567552 
L 404.65781 148.291223 
L 404.924809 147.579935 
L 405.298609 146.710697 
L 405.752509 145.217987 
L 406.179708 145.326616 
L 406.313208 145.451299 
L 406.526808 145.53693 
L 407.007407 144.773211 
L 407.327807 144.17944 
L 407.541406 143.858895 
L 407.835106 142.863503 
L 408.182206 141.90076 
L 408.903105 140.288913 
L 410.905603 134.382537 
L 411.573102 133.751268 
L 412.400801 133.918528 
L 412.721201 133.997517 
L 413.0149 133.438847 
L 413.5489 132.263601 
L 413.922699 131.947899 
L 414.269799 131.740969 
L 415.257698 129.591479 
L 415.444598 129.679531 
L 415.738297 129.421712 
L 416.005297 128.810064 
L 416.485896 127.112644 
L 416.913096 125.543302 
L 417.126696 124.913922 
L 417.420395 124.343014 
L 417.714095 123.900131 
L 418.061195 123.365435 
L 418.328194 123.280159 
L 418.515094 123.735946 
L 418.995694 125.0148 
L 419.262693 125.224878 
L 419.663193 126.19138 
L 419.983592 126.632285 
L 420.357392 126.531567 
L 420.570992 126.420635 
L 421.051591 126.094299 
L 422.27979 126.345533 
L 422.49339 126.280221 
L 422.706989 126.321078 
L 423.134189 125.919877 
L 423.374489 125.348915 
L 424.068688 123.755296 
L 425.350286 117.26744 
L 425.804186 114.311137 
L 426.471685 111.435453 
L 427.673184 108.948213 
L 427.726584 108.992183 
L 427.966883 109.18863 
L 428.287283 109.997546 
L 428.607683 111.243183 
L 429.942681 120.304612 
L 430.530081 124.295016 
L 431.571379 131.66551 
L 431.971879 133.756537 
L 432.612678 136.450769 
L 433.013178 137.306094 
L 433.734077 138.291309 
L 433.867577 138.156821 
L 434.054477 137.598223 
L 434.481676 136.138829 
L 434.828776 135.42174 
L 435.175875 134.830459 
L 435.442875 134.85658 
L 435.896774 135.586518 
L 437.151673 140.430352 
L 437.872572 141.764017 
L 438.166272 141.942041 
L 438.566771 141.852923 
L 438.780371 141.870777 
L 439.50127 142.169394 
L 439.87507 142.883455 
L 440.22217 143.479591 
L 440.943069 143.757124 
L 441.396968 144.95169 
L 441.824168 146.474663 
L 441.984368 146.70962 
L 442.011068 146.69773 
L 442.197967 146.711784 
L 442.545067 147.063961 
L 442.758667 147.238021 
L 443.079066 147.157912 
L 443.212566 147.142188 
L 443.426166 146.972307 
L 443.586366 146.823486 
L 443.613066 146.842105 
L 443.773266 147.021127 
L 444.013565 147.442736 
L 444.467465 147.618962 
L 444.681065 147.824062 
L 444.867964 147.688026 
L 445.268464 146.875181 
L 445.588864 145.947727 
L 445.855863 145.680887 
L 446.336463 145.545815 
L 446.523362 145.575842 
L 447.511261 144.575643 
L 447.724861 144.494785 
L 448.33896 143.844542 
L 448.95306 144.050923 
L 449.166659 144.194632 
L 449.406959 143.959302 
L 449.620559 143.844081 
L 449.807459 144.133051 
L 450.288058 145.005021 
L 450.768658 145.248298 
L 451.115757 145.701426 
L 451.195857 145.686674 
L 451.222557 145.720004 
L 451.409457 145.969051 
L 452.130356 148.40311 
L 452.557556 150.295692 
L 452.771155 150.595521 
L 452.824555 150.552734 
L 452.931355 150.411604 
L 453.144955 150.172317 
L 453.385255 149.412712 
L 453.652254 149.286468 
L 454.346454 149.813039 
L 454.479953 149.829242 
L 454.640153 149.858325 
L 454.880453 149.429514 
L 455.094053 149.096076 
L 455.467852 148.826062 
L 456.001852 148.081009 
L 456.268851 148.490315 
L 456.402351 149.03475 
L 457.016451 150.986896 
L 457.41695 151.595758 
L 457.87085 152.980742 
L 458.057749 153.140426 
L 458.458249 153.166848 
L 458.858749 153.265683 
L 459.125748 153.493813 
L 459.873347 153.585595 
L 460.167047 153.823805 
L 460.460747 154.388608 
L 460.727746 155.290213 
L 461.608845 159.337139 
L 461.849145 159.823362 
L 461.982645 159.826106 
L 462.329745 159.341254 
L 462.543344 159.292342 
L 463.931743 156.715866 
L 464.545842 154.829999 
L 465.186641 153.598133 
L 465.373541 153.427169 
L 466.01434 152.415964 
L 466.922139 150.281768 
L 467.429439 149.899683 
L 467.616339 149.586314 
L 468.016838 149.117034 
L 468.230438 148.862364 
L 468.604238 148.293216 
L 468.764437 148.372639 
L 468.897937 148.314962 
L 469.325137 147.941619 
L 469.458637 148.107488 
L 469.885836 149.360063 
L 470.393136 151.271184 
L 470.766935 151.77483 
L 471.701434 154.690517 
L 471.995134 155.469203 
L 472.449033 156.614529 
L 472.689333 156.868503 
L 473.116532 157.007914 
L 473.356832 157.11684 
L 473.597132 157.465579 
L 473.917532 157.999615 
L 474.184531 158.470754 
L 474.531631 158.867385 
L 474.90543 159.281751 
L 475.09233 159.130402 
L 475.65303 158.220193 
L 475.786529 158.095689 
L 476.080229 157.572856 
L 476.427329 157.442259 
L 477.041428 156.27003 
L 477.308428 155.886128 
L 477.602127 155.805921 
L 478.136127 156.351449 
L 478.429826 156.869285 
L 478.803626 157.837412 
L 478.857026 157.894247 
L 478.910426 157.845359 
L 479.204126 157.534186 
L 479.471125 157.957182 
L 479.818225 159.312502 
L 480.192024 161.214546 
L 480.592524 162.744404 
L 481.713923 165.003127 
L 482.247922 165.138198 
L 482.354722 165.257568 
L 482.915421 166.138562 
L 483.449421 166.563221 
L 483.93002 166.519521 
L 484.17032 166.23942 
L 484.731019 164.786721 
L 485.398519 163.000579 
L 485.612118 162.636871 
L 486.386417 161.134761 
L 486.653417 161.032747 
L 487.107317 161.118372 
L 487.534516 161.418438 
L 487.988416 161.961931 
L 488.202015 162.138084 
L 488.469015 162.462554 
L 488.842815 163.525851 
L 489.537014 165.244911 
L 490.071013 165.902401 
L 490.418113 166.099928 
L 490.578313 166.575135 
L 491.325912 168.94966 
L 492.020111 170.159582 
L 492.313811 170.210567 
L 492.527411 170.195679 
L 492.63421 170.343769 
L 493.38181 171.974343 
L 493.809009 172.302144 
L 494.102709 172.545228 
L 494.823608 173.243246 
L 495.037208 173.60244 
L 496.212006 175.468188 
L 496.398906 175.561316 
L 496.692606 175.694342 
L 496.906206 175.641882 
L 497.066405 175.652868 
L 497.386805 175.749417 
L 498.027604 175.546264 
L 498.267904 175.445525 
L 498.988803 175.109344 
L 499.309203 174.255781 
L 499.950002 172.219511 
L 500.537401 169.799708 
L 501.8457 163.677431 
L 502.1928 162.631804 
L 502.566599 161.642219 
L 502.619999 161.694909 
L 503.020499 162.13382 
L 503.207398 162.51281 
L 503.928298 164.320563 
L 504.275397 165.253312 
L 504.515697 165.773264 
L 504.889497 166.332956 
L 505.530296 166.615027 
L 506.411395 167.610123 
L 506.624995 167.592977 
L 506.918694 167.725845 
L 507.185694 167.445937 
L 508.253693 165.720437 
L 508.654192 165.523093 
L 508.814392 165.458488 
L 509.348392 165.6841 
L 509.588691 165.781095 
L 509.882391 165.737589 
L 510.069291 165.720895 
L 510.202791 165.69035 
L 510.44309 165.348884 
L 511.350889 164.113591 
L 511.697989 163.815154 
L 511.938289 163.030999 
L 512.979587 158.901438 
L 513.246587 158.023363 
L 513.566987 157.085839 
L 513.807287 156.604603 
L 514.287886 155.618419 
L 514.634986 154.451302 
L 516.130184 146.697122 
L 517.011283 140.670623 
L 517.972482 135.931202 
L 519.44098 132.137557 
L 519.97498 130.489499 
L 520.669179 129.719102 
L 521.149778 128.717014 
L 522.217777 124.768545 
L 523.125576 118.430435 
L 523.445976 115.258711 
L 523.793075 112.608287 
L 524.166875 111.376176 
L 525.314974 109.757765 
L 525.528573 109.725336 
L 525.742173 109.956985 
L 526.703372 112.981843 
L 527.210671 115.216533 
L 527.984971 118.83285 
L 529.346669 124.008426 
L 529.533569 124.046005 
L 529.907368 122.850296 
L 530.334568 121.045285 
L 530.788467 119.0488 
L 531.295767 118.406274 
L 531.989966 117.521038 
L 532.337066 116.810267 
L 533.111365 116.27727 
L 533.298265 115.890468 
L 533.912364 114.593336 
L 534.099264 114.551457 
L 534.553163 114.951023 
L 534.740063 114.927032 
L 535.007063 114.89448 
L 535.541062 114.755687 
L 535.674562 114.521784 
L 536.822661 109.741191 
L 537.03626 109.460075 
L 537.06296 109.476033 
L 537.46346 109.842224 
L 537.65036 110.426272 
L 538.771758 115.878907 
L 539.652857 121.354348 
L 540.400456 123.386019 
L 540.854356 123.876599 
L 541.041256 123.894615 
L 541.281555 124.034305 
L 541.495155 124.289296 
L 541.628655 124.353637 
L 542.029155 125.754789 
L 542.536454 127.852867 
L 543.017054 130.236421 
L 543.764653 134.520165 
L 544.725852 137.490666 
L 546.56815 140.676033 
L 546.701649 140.657404 
L 547.716248 139.112155 
L 547.742948 139.143889 
L 547.929848 139.499341 
L 548.170148 139.971217 
L 548.303648 139.802903 
L 548.784247 138.359963 
L 549.051247 137.697928 
L 549.211447 137.274158 
L 549.878946 135.516924 
L 549.932346 135.620683 
L 550.359545 136.79672 
L 550.439645 136.709626 
L 551.267344 134.927292 
L 551.534344 134.243884 
L 551.667844 134.119706 
L 551.694544 134.152125 
L 551.934843 134.283175 
L 552.068343 134.133566 
L 552.308643 133.506991 
L 552.815942 132.143101 
L 553.002842 131.90483 
L 553.430042 130.83197 
L 554.124241 130.334983 
L 554.444641 130.401155 
L 555.19224 131.050693 
L 555.833039 131.086091 
L 556.233539 131.411185 
L 556.820938 132.335083 
L 557.087938 132.85161 
L 557.408337 133.253054 
L 557.862237 132.941402 
L 558.743336 131.105592 
L 558.876836 130.88655 
L 559.757935 128.67244 
L 560.051634 128.804254 
L 560.665734 129.589114 
L 560.772533 129.45075 
L 561.039533 128.900725 
L 561.573533 128.869628 
L 561.947332 129.316786 
L 562.401232 130.606355 
L 563.068731 132.55667 
L 563.46923 133.046298 
L 563.84303 133.525579 
L 564.29693 133.560766 
L 564.403729 133.480777 
L 565.979028 130.208917 
L 566.459627 129.207332 
L 566.886827 129.17507 
L 567.207226 129.131237 
L 567.687826 129.592082 
L 568.195125 130.941153 
L 568.488825 131.687567 
L 568.809224 132.122517 
L 569.049524 132.153761 
L 569.450024 132.173998 
L 569.636923 132.267533 
L 570.491323 133.650891 
L 570.838422 134.126689 
L 571.292322 134.606095 
L 571.853021 134.326691 
L 572.013221 134.335565 
L 572.173421 134.289 
L 572.38702 134.463823 
L 572.60062 134.897868 
L 573.00112 135.72229 
L 573.508419 137.015287 
L 574.496318 139.797421 
L 574.709918 139.719556 
L 574.923518 140.009165 
L 575.377417 141.362718 
L 575.804617 144.364358 
L 576.765815 151.413789 
L 577.086215 152.158444 
L 577.406615 152.454323 
L 577.433315 152.426077 
L 577.540115 152.195592 
L 578.074114 150.91018 
L 578.180914 150.956036 
L 578.287714 151.101583 
L 578.341114 151.033542 
L 578.875113 149.1981 
L 579.142113 147.386656 
L 579.863012 142.979745 
L 580.637311 140.344741 
L 581.011111 139.045821 
L 581.67861 137.652703 
L 582.025709 137.45748 
L 582.960208 137.473325 
L 583.654408 138.880233 
L 583.921407 139.335866 
L 584.669007 141.210202 
L 586.377805 147.585171 
L 586.751604 148.485713 
L 586.778304 148.464917 
L 587.018604 148.369395 
L 587.258904 148.077491 
L 587.419103 148.069493 
L 587.552603 148.304548 
L 587.846303 148.780196 
L 588.059903 149.160668 
L 588.407002 149.617368 
L 588.967702 150.113702 
L 589.127901 150.103306 
L 589.394901 150.705166 
L 589.982301 152.321106 
L 590.943499 153.806405 
L 591.530899 154.150677 
L 591.877998 154.695365 
L 592.545498 155.594129 
L 592.678997 155.675701 
L 592.705697 155.639429 
L 592.945997 155.478985 
L 593.132897 155.416493 
L 593.560096 154.625635 
L 593.987296 154.196139 
L 594.227596 154.01502 
L 594.441195 153.914766 
L 594.681495 153.560106 
L 595.268895 152.935118 
L 595.936394 152.761892 
L 596.550493 151.572543 
L 596.924293 151.297487 
L 597.217992 151.113458 
L 598.312691 151.243707 
L 599.72779 149.67373 
L 600.368589 148.226395 
L 600.608889 148.068224 
L 600.955988 147.488124 
L 601.516687 146.407238 
L 601.703587 146.311274 
L 602.023987 146.602881 
L 602.290987 146.867202 
L 603.278885 147.46939 
L 603.892985 149.829992 
L 604.987684 154.032107 
L 605.494983 154.85321 
L 605.708583 156.608169 
L 606.456182 163.796408 
L 606.963481 165.899361 
L 607.81788 168.321587 
L 608.29848 168.914803 
L 608.618879 169.063499 
L 610.167478 169.714346 
L 611.075277 171.004875 
L 612.196675 170.904485 
L 612.730675 171.591063 
L 613.077774 172.099179 
L 613.264674 172.020384 
L 613.504974 171.979413 
L 613.745274 172.036297 
L 614.145773 172.382453 
L 614.386073 172.052301 
L 614.920072 171.123565 
L 615.160372 171.000393 
L 615.667672 170.574489 
L 616.014771 170.649702 
L 616.148271 170.418554 
L 616.92257 168.170788 
L 617.509969 166.384614 
L 617.963869 166.547501 
L 618.230869 166.747038 
L 618.684768 166.71196 
L 618.871668 166.842916 
L 619.031868 166.835354 
L 619.512467 166.395863 
L 619.672667 166.484141 
L 619.912967 166.647178 
L 620.099867 166.780011 
L 620.126566 166.749013 
L 620.900866 165.297417 
L 621.167865 165.139076 
L 621.274665 165.098102 
L 621.301365 165.133033 
L 621.488265 165.243127 
L 621.808665 165.372152 
L 622.209164 164.9753 
L 622.529564 164.588196 
L 622.636364 164.579888 
L 622.636364 164.579888 
" style="fill:none;stroke:#1f77b4;stroke-linecap:square;stroke-width:1.5;"/>
   </g>
   <g id="patch_3">
    <path d="M 90 190.9584 
L 90 25.7472 
" style="fill:none;stroke:#000000;stroke-linecap:square;stroke-linejoin:miter;stroke-width:0.8;"/>
   </g>
   <g id="patch_4">
    <path d="M 648 190.9584 
L 648 25.7472 
" style="fill:none;stroke:#000000;stroke-linecap:square;stroke-linejoin:miter;stroke-width:0.8;"/>
   </g>
   <g id="patch_5">
    <path d="M 90 190.9584 
L 648 190.9584 
" style="fill:none;stroke:#000000;stroke-linecap:square;stroke-linejoin:miter;stroke-width:0.8;"/>
   </g>
   <g id="patch_6">
    <path d="M 90 25.7472 
L 648 25.7472 
" style="fill:none;stroke:#000000;stroke-linecap:square;stroke-linejoin:miter;stroke-width:0.8;"/>
   </g>
  </g>
 </g>
 <defs>
  <clipPath id="p9ee974025f">
   <rect height="165.2112" width="558" x="90" y="25.7472"/>
  </clipPath>
 </defs>
</svg>
