<?xml version="1.0" encoding="UTF-8" standalone="no"?>
<svg
   xmlns:dc="http://purl.org/dc/elements/1.1/"
   xmlns:cc="http://creativecommons.org/ns#"
   xmlns:rdf="http://www.w3.org/1999/02/22-rdf-syntax-ns#"
   xmlns:svg="http://www.w3.org/2000/svg"
   xmlns="http://www.w3.org/2000/svg"
   viewBox="0 0 709.33331 553.33331"
   height="553.33331"
   width="709.33331"
   xml:space="preserve"
   id="svg2"
   version="1.1"><metadata
     id="metadata8"><rdf:RDF><cc:Work
         rdf:about=""><dc:format>image/svg+xml</dc:format><dc:type
           rdf:resource="http://purl.org/dc/dcmitype/StillImage" /></cc:Work></rdf:RDF></metadata><defs
     id="defs6"><clipPath
       id="clipPath14"
       clipPathUnits="userSpaceOnUse"><path
         id="path12"
         d="M 0,0 H 1684 V 595 H 0 Z" /></clipPath><clipPath
       id="clipPath22"
       clipPathUnits="userSpaceOnUse"><path
         style="clip-rule:evenodd"
         id="path20"
         d="M 0,-0.2 H 1683.7 V 595 H 0 Z" /></clipPath><clipPath
       id="clipPath34"
       clipPathUnits="userSpaceOnUse"><path
         style="clip-rule:evenodd"
         id="path32"
         d="M 0,-0.2 H 1683.7 V 595 H 0 Z" /></clipPath><clipPath
       id="clipPath50"
       clipPathUnits="userSpaceOnUse"><path
         style="clip-rule:evenodd"
         id="path48"
         d="M 0,-0.2 H 1683.7 V 595 H 0 Z" /></clipPath><clipPath
       id="clipPath62"
       clipPathUnits="userSpaceOnUse"><path
         style="clip-rule:evenodd"
         id="path60"
         d="M 0,-0.2 H 1683.7 V 595 H 0 Z" /></clipPath><clipPath
       id="clipPath78"
       clipPathUnits="userSpaceOnUse"><path
         style="clip-rule:evenodd"
         id="path76"
         d="M 0,-0.2 H 1683.7 V 595 H 0 Z" /></clipPath><clipPath
       id="clipPath90"
       clipPathUnits="userSpaceOnUse"><path
         style="clip-rule:evenodd"
         id="path88"
         d="M 0,-0.2 H 1683.7 V 595 H 0 Z" /></clipPath><clipPath
       id="clipPath106"
       clipPathUnits="userSpaceOnUse"><path
         style="clip-rule:evenodd"
         id="path104"
         d="M 0,-0.2 H 1683.7 V 595 H 0 Z" /></clipPath><clipPath
       id="clipPath118"
       clipPathUnits="userSpaceOnUse"><path
         style="clip-rule:evenodd"
         id="path116"
         d="M 0,-0.2 H 1683.7 V 595 H 0 Z" /></clipPath><clipPath
       id="clipPath134"
       clipPathUnits="userSpaceOnUse"><path
         style="clip-rule:evenodd"
         id="path132"
         d="M 0,-0.2 H 1683.7 V 595 H 0 Z" /></clipPath><clipPath
       id="clipPath146"
       clipPathUnits="userSpaceOnUse"><path
         style="clip-rule:evenodd"
         id="path144"
         d="M 0,-0.2 H 1683.7 V 595 H 0 Z" /></clipPath><clipPath
       id="clipPath158"
       clipPathUnits="userSpaceOnUse"><path
         style="clip-rule:evenodd"
         id="path156"
         d="M 0,-0.2 H 1683.7 V 595 H 0 Z" /></clipPath><clipPath
       id="clipPath170"
       clipPathUnits="userSpaceOnUse"><path
         style="clip-rule:evenodd"
         id="path168"
         d="M 0,-0.2 H 1683.7 V 595 H 0 Z" /></clipPath><clipPath
       id="clipPath182"
       clipPathUnits="userSpaceOnUse"><path
         style="clip-rule:evenodd"
         id="path180"
         d="M 0,-0.2 H 1683.7 V 595 H 0 Z" /></clipPath><clipPath
       id="clipPath194"
       clipPathUnits="userSpaceOnUse"><path
         style="clip-rule:evenodd"
         id="path192"
         d="M 0,-0.2 H 1683.7 V 595 H 0 Z" /></clipPath><clipPath
       id="clipPath206"
       clipPathUnits="userSpaceOnUse"><path
         style="clip-rule:evenodd"
         id="path204"
         d="M 0,-0.2 H 1683.7 V 595 H 0 Z" /></clipPath><clipPath
       id="clipPath218"
       clipPathUnits="userSpaceOnUse"><path
         style="clip-rule:evenodd"
         id="path216"
         d="M 0,-0.2 H 1683.7 V 595 H 0 Z" /></clipPath><clipPath
       id="clipPath230"
       clipPathUnits="userSpaceOnUse"><path
         style="clip-rule:evenodd"
         id="path228"
         d="M 0,-0.2 H 1683.7 V 595 H 0 Z" /></clipPath><clipPath
       id="clipPath242"
       clipPathUnits="userSpaceOnUse"><path
         style="clip-rule:evenodd"
         id="path240"
         d="M 0,-0.2 H 1683.7 V 595 H 0 Z" /></clipPath><clipPath
       id="clipPath262"
       clipPathUnits="userSpaceOnUse"><path
         style="clip-rule:evenodd"
         id="path260"
         d="M 0,-0.2 H 1683.7 V 595 H 0 Z" /></clipPath><clipPath
       id="clipPath274"
       clipPathUnits="userSpaceOnUse"><path
         style="clip-rule:evenodd"
         id="path272"
         d="M 0,-0.2 H 1683.7 V 595 H 0 Z" /></clipPath><clipPath
       id="clipPath294"
       clipPathUnits="userSpaceOnUse"><path
         style="clip-rule:evenodd"
         id="path292"
         d="M 0,-0.2 H 1683.7 V 595 H 0 Z" /></clipPath><clipPath
       id="clipPath306"
       clipPathUnits="userSpaceOnUse"><path
         style="clip-rule:evenodd"
         id="path304"
         d="M 0,-0.2 H 1683.7 V 595 H 0 Z" /></clipPath><clipPath
       id="clipPath318"
       clipPathUnits="userSpaceOnUse"><path
         style="clip-rule:evenodd"
         id="path316"
         d="M 0,-0.2 H 1683.7 V 595 H 0 Z" /></clipPath><clipPath
       id="clipPath330"
       clipPathUnits="userSpaceOnUse"><path
         style="clip-rule:evenodd"
         id="path328"
         d="M 0,-0.2 H 1683.7 V 595 H 0 Z" /></clipPath></defs><g
     clip-path="url(#clipPath14)"
     transform="matrix(1.3333333,0,0,-1.3333333,-48,745.33333)"
     id="g10"><g
       transform="matrix(1.6959076,0,0,1.6959076,-34.599365,-379.46576)"
       id="g16"><g
         clip-path="url(#clipPath22)"
         id="g18"><g
           transform="translate(85,439.1)"
           id="g24"><path
             id="path26"
             style="fill:#ccff99;fill-opacity:1;fill-rule:evenodd;stroke:none"
             d="M 0,0 V -99.2 H -28.3 V 99.2 H 0 Z" /></g></g></g><g
       transform="matrix(1.6959076,0,0,1.6959076,-34.599365,-379.46576)"
       id="g28"><g
         clip-path="url(#clipPath34)"
         id="g30"><g
           transform="translate(85,439.1)"
           id="g36"><path
             id="path38"
             style="fill:none;stroke:#000000;stroke-width:2.29200006;stroke-linecap:butt;stroke-linejoin:round;stroke-miterlimit:10;stroke-dasharray:none;stroke-opacity:1"
             d="M 0,0 V -99.2 H -28.3 V 99.2 H 0 Z" /></g></g></g><text
       id="text42"
       style="font-variant:normal;font-weight:normal;font-size:30.52619934px;font-family:'Palatino Linotype';-inkscape-font-specification:'Palatino Linotype'-Roman;writing-mode:lr-tb;fill:#000000;fill-opacity:1;fill-rule:nonzero;stroke:none"
       transform="matrix(0,1,1,0,97.1727,294.1487)"><tspan
         id="tspan40"
         y="0"
         x="0 20.360975 35.624077 61.052399 68.683952 77.672203 95.30957 113.62529 131.94101">Raw input</tspan></text>
<g
       transform="matrix(1.6959076,0,0,1.6959076,-34.599365,-379.46576)"
       id="g44"><g
         clip-path="url(#clipPath50)"
         id="g46"><g
           transform="translate(340.2,495.8)"
           id="g52"><path
             id="path54"
             style="fill:#eeeeee;fill-opacity:1;fill-rule:evenodd;stroke:none"
             d="m 0,0 v -42.5 h -28.4 v 85 H 0 Z" /></g></g></g><g
       transform="matrix(1.6959076,0,0,1.6959076,-34.599365,-379.46576)"
       id="g56"><g
         clip-path="url(#clipPath62)"
         id="g58"><g
           transform="translate(340.2,495.8)"
           id="g64"><path
             id="path66"
             style="fill:none;stroke:#000000;stroke-width:2.29200006;stroke-linecap:butt;stroke-linejoin:round;stroke-miterlimit:10;stroke-dasharray:none;stroke-opacity:1"
             d="m 0,0 v -42.5 h -28.4 v 85 H 0 Z" /></g></g></g><text
       id="text70"
       style="font-variant:normal;font-weight:normal;font-size:30.52619934px;font-family:'Palatino Linotype';-inkscape-font-specification:'Palatino Linotype'-Roman;writing-mode:lr-tb;fill:#000000;fill-opacity:1;fill-rule:nonzero;stroke:none"
       transform="matrix(0,1,1,0,529.7987,430.4997)"><tspan
         id="tspan68"
         y="0"
         x="0 18.654896 35.444305 48.502743">Loss</tspan></text>
<g
       transform="matrix(1.6959076,0,0,1.6959076,-34.599365,-379.46576)"
       id="g72"><g
         clip-path="url(#clipPath78)"
         id="g74"><g
           transform="translate(255.1,439.1)"
           id="g80"><path
             id="path82"
             style="fill:#ccffcc;fill-opacity:1;fill-rule:evenodd;stroke:none"
             d="M 0,0 V -99.2 H -28.3 V 99.2 H 0 Z" /></g></g></g><g
       transform="matrix(1.6959076,0,0,1.6959076,-34.599365,-379.46576)"
       id="g84"><g
         clip-path="url(#clipPath90)"
         id="g86"><g
           transform="translate(255.1,439.1)"
           id="g92"><path
             id="path94"
             style="fill:none;stroke:#000000;stroke-width:2.29200006;stroke-linecap:butt;stroke-linejoin:round;stroke-miterlimit:10;stroke-dasharray:none;stroke-opacity:1"
             d="M 0,0 V -99.2 H -28.3 V 99.2 H 0 Z" /></g></g></g><text
       id="text98"
       style="font-variant:normal;font-weight:normal;font-size:30.52619934px;font-family:'Palatino Linotype';-inkscape-font-specification:'Palatino Linotype'-Roman;writing-mode:lr-tb;fill:#000000;fill-opacity:1;fill-rule:nonzero;stroke:none"
       transform="matrix(0,1,1,0,385.4769,266.5054)"><tspan
         id="tspan96"
         y="0"
         x="0 20.360975 35.115295 52.07431 60.892994 76.15609 89.214531 103.79928 122.62378 130.25533 139.24358 154.50668 170.78731 185.54163">Rebiased layer</tspan></text>
<g
       transform="matrix(1.6959076,0,0,1.6959076,-34.599365,-379.46576)"
       id="g100"><g
         clip-path="url(#clipPath106)"
         id="g102"><g
           transform="translate(340.2,382.4)"
           id="g108"><path
             id="path110"
             style="fill:#ccff99;fill-opacity:1;fill-rule:evenodd;stroke:none"
             d="m 0,0 v -42.5 h -28.4 v 85 H 0 Z" /></g></g></g><g
       transform="matrix(1.6959076,0,0,1.6959076,-34.599365,-379.46576)"
       id="g112"><g
         clip-path="url(#clipPath118)"
         id="g114"><g
           transform="translate(340.2,382.4)"
           id="g120"><path
             id="path122"
             style="fill:none;stroke:#000000;stroke-width:2.29200006;stroke-linecap:butt;stroke-linejoin:round;stroke-miterlimit:10;stroke-dasharray:none;stroke-opacity:1"
             d="m 0,0 v -42.5 h -28.4 v 85 H 0 Z" /></g></g></g><text
       id="text126"
       style="font-variant:normal;font-weight:normal;font-size:30.52619934px;font-family:'Palatino Linotype';-inkscape-font-specification:'Palatino Linotype'-Roman;writing-mode:lr-tb;fill:#000000;fill-opacity:1;fill-rule:nonzero;stroke:none"
       transform="matrix(0,1,1,0,529.7987,223.2598)"><tspan
         id="tspan124"
         y="0"
         x="0 16.619806 34.935528 44.941341 63.257065 81.572784">output</tspan></text>
<g
       transform="matrix(1.6959076,0,0,1.6959076,-34.599365,-379.46576)"
       id="g128"><g
         clip-path="url(#clipPath134)"
         id="g130"><g
           transform="translate(85,439.1)"
           id="g136"><path
             id="path138"
             style="fill:none;stroke:#ffffff;stroke-width:1.5;stroke-linecap:butt;stroke-linejoin:round;stroke-miterlimit:10;stroke-dasharray:none;stroke-opacity:1"
             d="M 0,0 H 17" /></g></g></g><g
       transform="matrix(1.6959076,0,0,1.6959076,-34.599365,-379.46576)"
       id="g140"><g
         clip-path="url(#clipPath146)"
         id="g142"><g
           transform="translate(113.4,439.1)"
           id="g148"><path
             id="path150"
             style="fill:#ffffff;fill-opacity:1;fill-rule:evenodd;stroke:none"
             d="M 0,0 -11.9,3.9 V -4 Z" /></g></g></g><g
       transform="matrix(1.6959076,0,0,1.6959076,-34.599365,-379.46576)"
       id="g152"><g
         clip-path="url(#clipPath158)"
         id="g154"><g
           transform="translate(198.4,439.1)"
           id="g160"><path
             id="path162"
             style="fill:none;stroke:#ffffff;stroke-width:1.5;stroke-linecap:butt;stroke-linejoin:round;stroke-miterlimit:10;stroke-dasharray:none;stroke-opacity:1"
             d="M 0,0 H 17" /></g></g></g><g
       transform="matrix(1.6959076,0,0,1.6959076,-34.599365,-379.46576)"
       id="g164"><g
         clip-path="url(#clipPath170)"
         id="g166"><g
           transform="translate(226.8,439.1)"
           id="g172"><path
             id="path174"
             style="fill:#ffffff;fill-opacity:1;fill-rule:evenodd;stroke:none"
             d="M 0,0 -11.9,3.9 V -4 Z" /></g></g></g><g
       transform="matrix(1.6959076,0,0,1.6959076,-34.599365,-379.46576)"
       id="g176"><g
         clip-path="url(#clipPath182)"
         id="g178"><g
           transform="translate(283.5,439.1)"
           id="g184"><path
             id="path186"
             style="fill:none;stroke:#ffffff;stroke-width:1.5;stroke-linecap:butt;stroke-linejoin:round;stroke-miterlimit:10;stroke-dasharray:none;stroke-opacity:1"
             d="M 0,0 H 14.1 V 56.7 H 17" /></g></g></g><g
       transform="matrix(1.6959076,0,0,1.6959076,-34.599365,-379.46576)"
       id="g188"><g
         clip-path="url(#clipPath194)"
         id="g190"><g
           transform="translate(311.8,495.8)"
           id="g196"><path
             id="path198"
             style="fill:#ffffff;fill-opacity:1;fill-rule:evenodd;stroke:none"
             d="M 0,0 -11.8,3.9 V -4 Z" /></g></g></g><g
       transform="matrix(1.6959076,0,0,1.6959076,-34.599365,-379.46576)"
       id="g200"><g
         clip-path="url(#clipPath206)"
         id="g202"><g
           transform="translate(326,424.9)"
           id="g208"><path
             id="path210"
             style="fill:none;stroke:#ffffff;stroke-width:1.5;stroke-linecap:butt;stroke-linejoin:round;stroke-miterlimit:10;stroke-dasharray:none;stroke-opacity:1"
             d="M 0,0 V 17" /></g></g></g><g
       transform="matrix(1.6959076,0,0,1.6959076,-34.599365,-379.46576)"
       id="g212"><g
         clip-path="url(#clipPath218)"
         id="g214"><g
           transform="translate(326,453.3)"
           id="g220"><path
             id="path222"
             style="fill:#ffffff;fill-opacity:1;fill-rule:evenodd;stroke:none"
             d="M 0,0 -4,-11.9 H 4 Z" /></g></g></g><g
       transform="matrix(1.6959076,0,0,1.6959076,-34.599365,-379.46576)"
       id="g224"><g
         clip-path="url(#clipPath230)"
         id="g226"><g
           transform="translate(141.7,439.1)"
           id="g232"><path
             id="path234"
             style="fill:#ffcc99;fill-opacity:1;fill-rule:evenodd;stroke:none"
             d="M 0,0 V -99.2 H -28.3 V 99.2 H 0 Z" /></g></g></g><g
       transform="matrix(1.6959076,0,0,1.6959076,-34.599365,-379.46576)"
       id="g236"><g
         clip-path="url(#clipPath242)"
         id="g238"><g
           transform="translate(141.7,439.1)"
           id="g244"><path
             id="path246"
             style="fill:none;stroke:#000000;stroke-width:2.29200006;stroke-linecap:butt;stroke-linejoin:round;stroke-miterlimit:10;stroke-dasharray:none;stroke-opacity:1"
             d="M 0,0 V -99.2 H -28.3 V 99.2 H 0 Z" /></g></g></g><text
       id="text250"
       style="font-variant:normal;font-weight:normal;font-size:30.52619934px;font-family:'Palatino Linotype';-inkscape-font-specification:'Palatino Linotype'-Roman;writing-mode:lr-tb;fill:#000000;fill-opacity:1;fill-rule:nonzero;stroke:none"
       transform="matrix(0,1,1,0,193.3306,211.2189)"><tspan
         id="tspan248"
         y="0"
         x="0 16.78941 35.105129 44.093388 53.081642 69.871056 77.672203 91.239395 108.0288 125.66617 143.47311 158.05786 171.62505 181.63086 196.38518 215.04007 222.84123 238.10432">Fully connected 92</tspan></text>
<text
       id="text254"
       style="font-variant:normal;font-weight:normal;font-size:27.13439941px;font-family:'Palatino Linotype';-inkscape-font-specification:'Palatino Linotype'-Roman;writing-mode:lr-tb;fill:#000000;fill-opacity:1;fill-rule:nonzero;stroke:none"
       transform="matrix(0,1,1,0,193.3306,464.58633)"><tspan
         id="tspan252"
         y="0"
         x="0 13.5672 27.134399 40.871189">×256</tspan></text>
<g
       transform="matrix(1.6959076,0,0,1.6959076,-34.599365,-379.46576)"
       id="g256"><g
         clip-path="url(#clipPath262)"
         id="g258"><g
           transform="translate(198.4,439.1)"
           id="g264"><path
             id="path266"
             style="fill:#ffcc99;fill-opacity:1;fill-rule:evenodd;stroke:none"
             d="M 0,0 V -99.2 H -28.3 V 99.2 H 0 Z" /></g></g></g><g
       transform="matrix(1.6959076,0,0,1.6959076,-34.599365,-379.46576)"
       id="g268"><g
         clip-path="url(#clipPath274)"
         id="g270"><g
           transform="translate(198.4,439.1)"
           id="g276"><path
             id="path278"
             style="fill:none;stroke:#000000;stroke-width:2.29200006;stroke-linecap:butt;stroke-linejoin:round;stroke-miterlimit:10;stroke-dasharray:none;stroke-opacity:1"
             d="M 0,0 V -99.2 H -28.3 V 99.2 H 0 Z" /></g></g></g><text
       id="text282"
       style="font-variant:normal;font-weight:normal;font-size:30.52619934px;font-family:'Palatino Linotype';-inkscape-font-specification:'Palatino Linotype'-Roman;writing-mode:lr-tb;fill:#000000;fill-opacity:1;fill-rule:nonzero;stroke:none"
       transform="matrix(0,1,1,0,289.4886,217.1546)"><tspan
         id="tspan280"
         y="0"
         x="0 16.78941 35.105129 44.093388 53.081642 69.871056 77.672203 91.239395 108.0288 125.66617 143.47311 158.05786 171.62505 181.63086 196.38518 215.04007 222.84123 238.10432 253.36743">Fully connected 256</tspan></text>
<text
       id="text286"
       style="font-variant:normal;font-weight:normal;font-size:27.13439941px;font-family:'Palatino Linotype';-inkscape-font-specification:'Palatino Linotype'-Roman;writing-mode:lr-tb;fill:#000000;fill-opacity:1;fill-rule:nonzero;stroke:none"
       transform="matrix(0,1,1,0,289.4886,485.78513)"><tspan
         id="tspan284"
         y="0"
         x="0 13.5672">×5</tspan></text>
<g
       transform="matrix(1.6959076,0,0,1.6959076,-34.599365,-379.46576)"
       id="g288"><g
         clip-path="url(#clipPath294)"
         id="g290"><g
           transform="translate(141.7,439.1)"
           id="g296"><path
             id="path298"
             style="fill:none;stroke:#ffffff;stroke-width:1.5;stroke-linecap:butt;stroke-linejoin:round;stroke-miterlimit:10;stroke-dasharray:none;stroke-opacity:1"
             d="M 0,0 H 17" /></g></g></g><g
       transform="matrix(1.6959076,0,0,1.6959076,-34.599365,-379.46576)"
       id="g300"><g
         clip-path="url(#clipPath306)"
         id="g302"><g
           transform="translate(170.1,439.1)"
           id="g308"><path
             id="path310"
             style="fill:#ffffff;fill-opacity:1;fill-rule:evenodd;stroke:none"
             d="M 0,0 -11.9,3.9 V -4 Z" /></g></g></g><g
       transform="matrix(1.6959076,0,0,1.6959076,-34.599365,-379.46576)"
       id="g312"><g
         clip-path="url(#clipPath318)"
         id="g314"><g
           transform="translate(283.5,439.1)"
           id="g320"><path
             id="path322"
             style="fill:#ccffcc;fill-opacity:1;fill-rule:evenodd;stroke:none"
             d="M 0,0 V -99.2 H -28.4 V 99.2 H 0 Z" /></g></g></g><g
       transform="matrix(1.6959076,0,0,1.6959076,-34.599365,-379.46576)"
       id="g324"><g
         clip-path="url(#clipPath330)"
         id="g326"><g
           transform="translate(283.5,439.1)"
           id="g332"><path
             id="path334"
             style="fill:none;stroke:#000000;stroke-width:2.29200006;stroke-linecap:butt;stroke-linejoin:round;stroke-miterlimit:10;stroke-dasharray:none;stroke-opacity:1"
             d="M 0,0 V -99.2 H -28.4 V 99.2 H 0 Z" /></g></g></g><text
       id="text338"
       style="font-variant:normal;font-weight:normal;font-size:30.52619934px;font-family:'Palatino Linotype';-inkscape-font-specification:'Palatino Linotype'-Roman;writing-mode:lr-tb;fill:#000000;fill-opacity:1;fill-rule:nonzero;stroke:none"
       transform="matrix(0,1,1,0,433.6407,248.1897)"><tspan
         id="tspan336"
         y="0"
         x="0 20.360975 34.945721 48.004158 56.992416 70.05085 80.056671 88.875351 106.17355 115.1618 125.16762 142.14018 149.77173 162.83017 176.39735 191.66046 200.64871 215.40303">Resistivity scaled</tspan></text>
<text
       id="text342"
       style="font-variant:normal;font-weight:normal;font-size:27.13439941px;font-family:Arial;-inkscape-font-specification:ArialMT;writing-mode:lr-tb;fill:#ffffff;fill-opacity:1;fill-rule:nonzero;stroke:none"
       transform="matrix(1,0,0,-1,68.6814,166.7861)"><tspan
         id="tspan340"
         y="0"
         x="0 15.086726 91.409012 106.49574 121.58247 201.98169 346.13318">9225655</tspan></text>
</g></svg>