<?xml version="1.0" encoding="UTF-8" standalone="no"?>
<svg
   xmlns:dc="http://purl.org/dc/elements/1.1/"
   xmlns:cc="http://creativecommons.org/ns#"
   xmlns:rdf="http://www.w3.org/1999/02/22-rdf-syntax-ns#"
   xmlns:svg="http://www.w3.org/2000/svg"
   xmlns="http://www.w3.org/2000/svg"
   viewBox="0 0 1152 332"
   height="332"
   width="1152"
   xml:space="preserve"
   id="svg2"
   version="1.1"><metadata
     id="metadata8"><rdf:RDF><cc:Work
         rdf:about=""><dc:format>image/svg+xml</dc:format><dc:type
           rdf:resource="http://purl.org/dc/dcmitype/StillImage" /></cc:Work></rdf:RDF></metadata><defs
     id="defs6"><clipPath
       id="clipPath348"
       clipPathUnits="userSpaceOnUse"><path
         id="path346"
         d="m 760.699,416.801 h 7487 v 1950 h -7487 z" /></clipPath></defs><g
     transform="matrix(1.3333333,0,0,-1.3333333,0,332)"
     id="g10"><g
       transform="scale(0.1)"
       id="g12"><path
         id="path14"
         style="fill:#ffffff;fill-opacity:1;fill-rule:nonzero;stroke:none"
         d="M 0,0.800781 H 8640 V 2499.2008 H 0 Z" /><path
         id="path16"
         style="fill:#ffffff;fill-opacity:1;fill-rule:nonzero;stroke:none"
         d="m 760.703,416.805 h 7486.9 v 1950.34 h -7486.9 z" /><path
         id="path18"
         style="fill:#000000;fill-opacity:1;fill-rule:nonzero;stroke:none"
         d="m 1093.35,416.805 v -35" /><path
         id="path20"
         style="fill:none;stroke:#000000;stroke-width:8;stroke-linecap:butt;stroke-linejoin:round;stroke-miterlimit:10;stroke-dasharray:none;stroke-opacity:1"
         d="m 1093.35,416.805 v -35" /><g
         transform="scale(10)"
         id="g22"><text
           id="text26"
           style="font-variant:normal;font-weight:normal;font-size:10px;font-family:Arial;-inkscape-font-specification:Arial;writing-mode:lr-tb;fill:#000000;fill-opacity:1;fill-rule:nonzero;stroke:none"
           transform="matrix(1,0,0,-1,106.155,27.0867)"><tspan
             id="tspan24"
             y="0"
             x="0">0</tspan></text>
</g><path
         id="path28"
         style="fill:#000000;fill-opacity:1;fill-rule:nonzero;stroke:none"
         d="m 1945.14,416.805 v -35" /><path
         id="path30"
         style="fill:none;stroke:#000000;stroke-width:8;stroke-linecap:butt;stroke-linejoin:round;stroke-miterlimit:10;stroke-dasharray:none;stroke-opacity:1"
         d="m 1945.14,416.805 v -35" /><g
         transform="scale(10)"
         id="g32"><text
           id="text36"
           style="font-variant:normal;font-weight:normal;font-size:10px;font-family:Arial;-inkscape-font-specification:Arial;writing-mode:lr-tb;fill:#000000;fill-opacity:1;fill-rule:nonzero;stroke:none"
           transform="matrix(1,0,0,-1,178.616,27.0867)"><tspan
             id="tspan34"
             y="0"
             x="0 6.3625026 12.724614 19.087116 25.449228">10000</tspan></text>
</g><path
         id="path38"
         style="fill:#000000;fill-opacity:1;fill-rule:nonzero;stroke:none"
         d="m 2796.94,416.805 v -35" /><path
         id="path40"
         style="fill:none;stroke:#000000;stroke-width:8;stroke-linecap:butt;stroke-linejoin:round;stroke-miterlimit:10;stroke-dasharray:none;stroke-opacity:1"
         d="m 2796.94,416.805 v -35" /><g
         transform="scale(10)"
         id="g42"><text
           id="text46"
           style="font-variant:normal;font-weight:normal;font-size:10px;font-family:Arial;-inkscape-font-specification:Arial;writing-mode:lr-tb;fill:#000000;fill-opacity:1;fill-rule:nonzero;stroke:none"
           transform="matrix(1,0,0,-1,263.796,27.0867)"><tspan
             id="tspan44"
             y="0"
             x="0 6.3620996 12.72459 19.086689 25.449181">20000</tspan></text>
</g><path
         id="path48"
         style="fill:#000000;fill-opacity:1;fill-rule:nonzero;stroke:none"
         d="m 3648.74,416.805 v -35" /><path
         id="path50"
         style="fill:none;stroke:#000000;stroke-width:8;stroke-linecap:butt;stroke-linejoin:round;stroke-miterlimit:10;stroke-dasharray:none;stroke-opacity:1"
         d="m 3648.74,416.805 v -35" /><g
         transform="scale(10)"
         id="g52"><text
           id="text56"
           style="font-variant:normal;font-weight:normal;font-size:10px;font-family:Arial;-inkscape-font-specification:Arial;writing-mode:lr-tb;fill:#000000;fill-opacity:1;fill-rule:nonzero;stroke:none"
           transform="matrix(1,0,0,-1,348.975,27.0867)"><tspan
             id="tspan54"
             y="0"
             x="0 6.3624902 12.72459 19.08708 25.449181">30000</tspan></text>
</g><path
         id="path58"
         style="fill:#000000;fill-opacity:1;fill-rule:nonzero;stroke:none"
         d="m 4500.53,416.805 v -35" /><path
         id="path60"
         style="fill:none;stroke:#000000;stroke-width:8;stroke-linecap:butt;stroke-linejoin:round;stroke-miterlimit:10;stroke-dasharray:none;stroke-opacity:1"
         d="m 4500.53,416.805 v -35" /><g
         transform="scale(10)"
         id="g62"><text
           id="text66"
           style="font-variant:normal;font-weight:normal;font-size:10px;font-family:Arial;-inkscape-font-specification:Arial;writing-mode:lr-tb;fill:#000000;fill-opacity:1;fill-rule:nonzero;stroke:none"
           transform="matrix(1,0,0,-1,434.155,27.0867)"><tspan
             id="tspan64"
             y="0"
             x="0 6.3624902 12.72459 19.08708 25.449181">40000</tspan></text>
</g><path
         id="path68"
         style="fill:#000000;fill-opacity:1;fill-rule:nonzero;stroke:none"
         d="m 5352.33,416.805 v -35" /><path
         id="path70"
         style="fill:none;stroke:#000000;stroke-width:8;stroke-linecap:butt;stroke-linejoin:round;stroke-miterlimit:10;stroke-dasharray:none;stroke-opacity:1"
         d="m 5352.33,416.805 v -35" /><g
         transform="scale(10)"
         id="g72"><text
           id="text76"
           style="font-variant:normal;font-weight:normal;font-size:10px;font-family:Arial;-inkscape-font-specification:Arial;writing-mode:lr-tb;fill:#000000;fill-opacity:1;fill-rule:nonzero;stroke:none"
           transform="matrix(1,0,0,-1,519.334,27.0867)"><tspan
             id="tspan74"
             y="0"
             x="0 6.3620996 12.72459 19.086689 25.449181">50000</tspan></text>
</g><path
         id="path78"
         style="fill:#000000;fill-opacity:1;fill-rule:nonzero;stroke:none"
         d="m 6204.12,416.805 v -35" /><path
         id="path80"
         style="fill:none;stroke:#000000;stroke-width:8;stroke-linecap:butt;stroke-linejoin:round;stroke-miterlimit:10;stroke-dasharray:none;stroke-opacity:1"
         d="m 6204.12,416.805 v -35" /><g
         transform="scale(10)"
         id="g82"><text
           id="text86"
           style="font-variant:normal;font-weight:normal;font-size:10px;font-family:Arial;-inkscape-font-specification:Arial;writing-mode:lr-tb;fill:#000000;fill-opacity:1;fill-rule:nonzero;stroke:none"
           transform="matrix(1,0,0,-1,604.514,27.0867)"><tspan
             id="tspan84"
             y="0"
             x="0 6.3624902 12.72459 19.08708 25.449181">60000</tspan></text>
</g><path
         id="path88"
         style="fill:#000000;fill-opacity:1;fill-rule:nonzero;stroke:none"
         d="m 7055.92,416.805 v -35" /><path
         id="path90"
         style="fill:none;stroke:#000000;stroke-width:8;stroke-linecap:butt;stroke-linejoin:round;stroke-miterlimit:10;stroke-dasharray:none;stroke-opacity:1"
         d="m 7055.92,416.805 v -35" /><g
         transform="scale(10)"
         id="g92"><text
           id="text96"
           style="font-variant:normal;font-weight:normal;font-size:10px;font-family:Arial;-inkscape-font-specification:Arial;writing-mode:lr-tb;fill:#000000;fill-opacity:1;fill-rule:nonzero;stroke:none"
           transform="matrix(1,0,0,-1,689.693,27.0867)"><tspan
             id="tspan94"
             y="0"
             x="0 6.3620996 12.72459 19.086689 25.449181">70000</tspan></text>
</g><path
         id="path98"
         style="fill:#000000;fill-opacity:1;fill-rule:nonzero;stroke:none"
         d="m 7907.71,416.805 v -35" /><path
         id="path100"
         style="fill:none;stroke:#000000;stroke-width:8;stroke-linecap:butt;stroke-linejoin:round;stroke-miterlimit:10;stroke-dasharray:none;stroke-opacity:1"
         d="m 7907.71,416.805 v -35" /><g
         transform="scale(10)"
         id="g102"><text
           id="text108"
           style="font-variant:normal;font-weight:normal;font-size:10px;font-family:Arial;-inkscape-font-specification:Arial;writing-mode:lr-tb;fill:#000000;fill-opacity:1;fill-rule:nonzero;stroke:none"
           transform="matrix(1,0,0,-1,774.873,27.0867)"><tspan
             id="tspan104"
             y="0"
             x="0 6.3624902 12.72459 19.08708 25.449181">80000</tspan><tspan
             id="tspan106"
             y="13.6719"
             x="-335.84 -329.49234 -325.57166 -319.41931">Step</tspan></text>
</g><path
         id="path110"
         style="fill:#000000;fill-opacity:1;fill-rule:nonzero;stroke:none"
         d="m 760.703,590.758 h -35" /><path
         id="path112"
         style="fill:none;stroke:#000000;stroke-width:8;stroke-linecap:butt;stroke-linejoin:round;stroke-miterlimit:10;stroke-dasharray:none;stroke-opacity:1"
         d="m 760.703,590.758 h -35" /><g
         transform="scale(10)"
         id="g114"><text
           id="text118"
           style="font-variant:normal;font-weight:normal;font-size:10px;font-family:Arial;-inkscape-font-specification:Arial;writing-mode:lr-tb;fill:#000000;fill-opacity:1;fill-rule:nonzero;stroke:none"
           transform="matrix(1,0,0,-1,51.0703,55.5914)"><tspan
             id="tspan116"
             y="0"
             x="0 6.362112">10</tspan></text>
<text
           id="text122"
           style="font-variant:normal;font-weight:normal;font-size:7px;font-family:Arial;-inkscape-font-specification:Arial;writing-mode:lr-tb;fill:#000000;fill-opacity:1;fill-rule:nonzero;stroke:none"
           transform="matrix(1,0,0,-1,63.8906,59.41953)"><tspan
             id="tspan120"
             y="0"
             x="0">0</tspan></text>
</g><path
         id="path124"
         style="fill:#000000;fill-opacity:1;fill-rule:nonzero;stroke:none"
         d="m 760.703,992.738 h -35" /><path
         id="path126"
         style="fill:none;stroke:#000000;stroke-width:8;stroke-linecap:butt;stroke-linejoin:round;stroke-miterlimit:10;stroke-dasharray:none;stroke-opacity:1"
         d="m 760.703,992.738 h -35" /><g
         transform="scale(10)"
         id="g128"><text
           id="text132"
           style="font-variant:normal;font-weight:normal;font-size:10px;font-family:Arial;-inkscape-font-specification:Arial;writing-mode:lr-tb;fill:#000000;fill-opacity:1;fill-rule:nonzero;stroke:none"
           transform="matrix(1,0,0,-1,51.0703,95.377)"><tspan
             id="tspan130"
             y="0"
             x="0 6.362112">10</tspan></text>
<text
           id="text136"
           style="font-variant:normal;font-weight:normal;font-size:7px;font-family:Arial;-inkscape-font-specification:Arial;writing-mode:lr-tb;fill:#000000;fill-opacity:1;fill-rule:nonzero;stroke:none"
           transform="matrix(1,0,0,-1,63.8906,99.20513)"><tspan
             id="tspan134"
             y="0"
             x="0">1</tspan></text>
</g><path
         id="path138"
         style="fill:#000000;fill-opacity:1;fill-rule:nonzero;stroke:none"
         d="m 760.703,1394.72 h -35" /><path
         id="path140"
         style="fill:none;stroke:#000000;stroke-width:8;stroke-linecap:butt;stroke-linejoin:round;stroke-miterlimit:10;stroke-dasharray:none;stroke-opacity:1"
         d="m 760.703,1394.72 h -35" /><g
         transform="scale(10)"
         id="g142"><text
           id="text146"
           style="font-variant:normal;font-weight:normal;font-size:10px;font-family:Arial;-inkscape-font-specification:Arial;writing-mode:lr-tb;fill:#000000;fill-opacity:1;fill-rule:nonzero;stroke:none"
           transform="matrix(1,0,0,-1,51.0703,135.987)"><tspan
             id="tspan144"
             y="0"
             x="0 6.362112">10</tspan></text>
<text
           id="text150"
           style="font-variant:normal;font-weight:normal;font-size:7px;font-family:Arial;-inkscape-font-specification:Arial;writing-mode:lr-tb;fill:#000000;fill-opacity:1;fill-rule:nonzero;stroke:none"
           transform="matrix(1,0,0,-1,63.8906,139.81513)"><tspan
             id="tspan148"
             y="0"
             x="0">2</tspan></text>
</g><path
         id="path152"
         style="fill:#000000;fill-opacity:1;fill-rule:nonzero;stroke:none"
         d="m 760.703,1796.69 h -35" /><path
         id="path154"
         style="fill:none;stroke:#000000;stroke-width:8;stroke-linecap:butt;stroke-linejoin:round;stroke-miterlimit:10;stroke-dasharray:none;stroke-opacity:1"
         d="m 760.703,1796.69 h -35" /><g
         transform="scale(10)"
         id="g156"><text
           id="text160"
           style="font-variant:normal;font-weight:normal;font-size:10px;font-family:Arial;-inkscape-font-specification:Arial;writing-mode:lr-tb;fill:#000000;fill-opacity:1;fill-rule:nonzero;stroke:none"
           transform="matrix(1,0,0,-1,51.0703,176.185)"><tspan
             id="tspan158"
             y="0"
             x="0 6.362112">10</tspan></text>
<text
           id="text164"
           style="font-variant:normal;font-weight:normal;font-size:7px;font-family:Arial;-inkscape-font-specification:Arial;writing-mode:lr-tb;fill:#000000;fill-opacity:1;fill-rule:nonzero;stroke:none"
           transform="matrix(1,0,0,-1,63.8906,180.01313)"><tspan
             id="tspan162"
             y="0"
             x="0">3</tspan></text>
</g><path
         id="path166"
         style="fill:#000000;fill-opacity:1;fill-rule:nonzero;stroke:none"
         d="m 760.703,2198.67 h -35" /><path
         id="path168"
         style="fill:none;stroke:#000000;stroke-width:8;stroke-linecap:butt;stroke-linejoin:round;stroke-miterlimit:10;stroke-dasharray:none;stroke-opacity:1"
         d="m 760.703,2198.67 h -35" /><g
         transform="scale(10)"
         id="g170"><text
           id="text174"
           style="font-variant:normal;font-weight:normal;font-size:10px;font-family:Arial;-inkscape-font-specification:Arial;writing-mode:lr-tb;fill:#000000;fill-opacity:1;fill-rule:nonzero;stroke:none"
           transform="matrix(1,0,0,-1,51.0703,215.97)"><tspan
             id="tspan172"
             y="0"
             x="0 6.362112">10</tspan></text>
<text
           id="text178"
           style="font-variant:normal;font-weight:normal;font-size:7px;font-family:Arial;-inkscape-font-specification:Arial;writing-mode:lr-tb;fill:#000000;fill-opacity:1;fill-rule:nonzero;stroke:none"
           transform="matrix(1,0,0,-1,63.8906,219.79813)"><tspan
             id="tspan176"
             y="0"
             x="0">4</tspan></text>
</g><path
         id="path180"
         style="fill:#000000;fill-opacity:1;fill-rule:nonzero;stroke:none"
         d="m 760.703,430.793 h -20" /><path
         id="path182"
         style="fill:none;stroke:#000000;stroke-width:6;stroke-linecap:butt;stroke-linejoin:round;stroke-miterlimit:10;stroke-dasharray:none;stroke-opacity:1"
         d="m 760.703,430.793 h -20" /><path
         id="path184"
         style="fill:#000000;fill-opacity:1;fill-rule:nonzero;stroke:none"
         d="m 760.703,469.75 h -20" /><path
         id="path186"
         style="fill:none;stroke:#000000;stroke-width:6;stroke-linecap:butt;stroke-linejoin:round;stroke-miterlimit:10;stroke-dasharray:none;stroke-opacity:1"
         d="m 760.703,469.75 h -20" /><path
         id="path188"
         style="fill:#000000;fill-opacity:1;fill-rule:nonzero;stroke:none"
         d="m 760.703,501.578 h -20" /><path
         id="path190"
         style="fill:none;stroke:#000000;stroke-width:6;stroke-linecap:butt;stroke-linejoin:round;stroke-miterlimit:10;stroke-dasharray:none;stroke-opacity:1"
         d="m 760.703,501.578 h -20" /><path
         id="path192"
         style="fill:#000000;fill-opacity:1;fill-rule:nonzero;stroke:none"
         d="m 760.703,528.488 h -20" /><path
         id="path194"
         style="fill:none;stroke:#000000;stroke-width:6;stroke-linecap:butt;stroke-linejoin:round;stroke-miterlimit:10;stroke-dasharray:none;stroke-opacity:1"
         d="m 760.703,528.488 h -20" /><path
         id="path196"
         style="fill:#000000;fill-opacity:1;fill-rule:nonzero;stroke:none"
         d="m 760.703,551.801 h -20" /><path
         id="path198"
         style="fill:none;stroke:#000000;stroke-width:6;stroke-linecap:butt;stroke-linejoin:round;stroke-miterlimit:10;stroke-dasharray:none;stroke-opacity:1"
         d="m 760.703,551.801 h -20" /><path
         id="path200"
         style="fill:#000000;fill-opacity:1;fill-rule:nonzero;stroke:none"
         d="m 760.703,572.363 h -20" /><path
         id="path202"
         style="fill:none;stroke:#000000;stroke-width:6;stroke-linecap:butt;stroke-linejoin:round;stroke-miterlimit:10;stroke-dasharray:none;stroke-opacity:1"
         d="m 760.703,572.363 h -20" /><path
         id="path204"
         style="fill:#000000;fill-opacity:1;fill-rule:nonzero;stroke:none"
         d="m 760.703,711.766 h -20" /><path
         id="path206"
         style="fill:none;stroke:#000000;stroke-width:6;stroke-linecap:butt;stroke-linejoin:round;stroke-miterlimit:10;stroke-dasharray:none;stroke-opacity:1"
         d="m 760.703,711.766 h -20" /><path
         id="path208"
         style="fill:#000000;fill-opacity:1;fill-rule:nonzero;stroke:none"
         d="m 760.703,782.551 h -20" /><path
         id="path210"
         style="fill:none;stroke:#000000;stroke-width:6;stroke-linecap:butt;stroke-linejoin:round;stroke-miterlimit:10;stroke-dasharray:none;stroke-opacity:1"
         d="m 760.703,782.551 h -20" /><path
         id="path212"
         style="fill:#000000;fill-opacity:1;fill-rule:nonzero;stroke:none"
         d="m 760.703,832.773 h -20" /><path
         id="path214"
         style="fill:none;stroke:#000000;stroke-width:6;stroke-linecap:butt;stroke-linejoin:round;stroke-miterlimit:10;stroke-dasharray:none;stroke-opacity:1"
         d="m 760.703,832.773 h -20" /><path
         id="path216"
         style="fill:#000000;fill-opacity:1;fill-rule:nonzero;stroke:none"
         d="m 760.703,871.73 h -20" /><path
         id="path218"
         style="fill:none;stroke:#000000;stroke-width:6;stroke-linecap:butt;stroke-linejoin:round;stroke-miterlimit:10;stroke-dasharray:none;stroke-opacity:1"
         d="m 760.703,871.73 h -20" /><path
         id="path220"
         style="fill:#000000;fill-opacity:1;fill-rule:nonzero;stroke:none"
         d="m 760.703,903.559 h -20" /><path
         id="path222"
         style="fill:none;stroke:#000000;stroke-width:6;stroke-linecap:butt;stroke-linejoin:round;stroke-miterlimit:10;stroke-dasharray:none;stroke-opacity:1"
         d="m 760.703,903.559 h -20" /><path
         id="path224"
         style="fill:#000000;fill-opacity:1;fill-rule:nonzero;stroke:none"
         d="m 760.703,930.469 h -20" /><path
         id="path226"
         style="fill:none;stroke:#000000;stroke-width:6;stroke-linecap:butt;stroke-linejoin:round;stroke-miterlimit:10;stroke-dasharray:none;stroke-opacity:1"
         d="m 760.703,930.469 h -20" /><path
         id="path228"
         style="fill:#000000;fill-opacity:1;fill-rule:nonzero;stroke:none"
         d="m 760.703,953.781 h -20" /><path
         id="path230"
         style="fill:none;stroke:#000000;stroke-width:6;stroke-linecap:butt;stroke-linejoin:round;stroke-miterlimit:10;stroke-dasharray:none;stroke-opacity:1"
         d="m 760.703,953.781 h -20" /><path
         id="path232"
         style="fill:#000000;fill-opacity:1;fill-rule:nonzero;stroke:none"
         d="m 760.703,974.344 h -20" /><path
         id="path234"
         style="fill:none;stroke:#000000;stroke-width:6;stroke-linecap:butt;stroke-linejoin:round;stroke-miterlimit:10;stroke-dasharray:none;stroke-opacity:1"
         d="m 760.703,974.344 h -20" /><path
         id="path236"
         style="fill:#000000;fill-opacity:1;fill-rule:nonzero;stroke:none"
         d="m 760.703,1113.74 h -20" /><path
         id="path238"
         style="fill:none;stroke:#000000;stroke-width:6;stroke-linecap:butt;stroke-linejoin:round;stroke-miterlimit:10;stroke-dasharray:none;stroke-opacity:1"
         d="m 760.703,1113.74 h -20" /><path
         id="path240"
         style="fill:#000000;fill-opacity:1;fill-rule:nonzero;stroke:none"
         d="m 760.703,1184.53 h -20" /><path
         id="path242"
         style="fill:none;stroke:#000000;stroke-width:6;stroke-linecap:butt;stroke-linejoin:round;stroke-miterlimit:10;stroke-dasharray:none;stroke-opacity:1"
         d="m 760.703,1184.53 h -20" /><path
         id="path244"
         style="fill:#000000;fill-opacity:1;fill-rule:nonzero;stroke:none"
         d="m 760.703,1234.75 h -20" /><path
         id="path246"
         style="fill:none;stroke:#000000;stroke-width:6;stroke-linecap:butt;stroke-linejoin:round;stroke-miterlimit:10;stroke-dasharray:none;stroke-opacity:1"
         d="m 760.703,1234.75 h -20" /><path
         id="path248"
         style="fill:#000000;fill-opacity:1;fill-rule:nonzero;stroke:none"
         d="m 760.703,1273.71 h -20" /><path
         id="path250"
         style="fill:none;stroke:#000000;stroke-width:6;stroke-linecap:butt;stroke-linejoin:round;stroke-miterlimit:10;stroke-dasharray:none;stroke-opacity:1"
         d="m 760.703,1273.71 h -20" /><path
         id="path252"
         style="fill:#000000;fill-opacity:1;fill-rule:nonzero;stroke:none"
         d="m 760.703,1305.54 h -20" /><path
         id="path254"
         style="fill:none;stroke:#000000;stroke-width:6;stroke-linecap:butt;stroke-linejoin:round;stroke-miterlimit:10;stroke-dasharray:none;stroke-opacity:1"
         d="m 760.703,1305.54 h -20" /><path
         id="path256"
         style="fill:#000000;fill-opacity:1;fill-rule:nonzero;stroke:none"
         d="m 760.703,1332.45 h -20" /><path
         id="path258"
         style="fill:none;stroke:#000000;stroke-width:6;stroke-linecap:butt;stroke-linejoin:round;stroke-miterlimit:10;stroke-dasharray:none;stroke-opacity:1"
         d="m 760.703,1332.45 h -20" /><path
         id="path260"
         style="fill:#000000;fill-opacity:1;fill-rule:nonzero;stroke:none"
         d="m 760.703,1355.76 h -20" /><path
         id="path262"
         style="fill:none;stroke:#000000;stroke-width:6;stroke-linecap:butt;stroke-linejoin:round;stroke-miterlimit:10;stroke-dasharray:none;stroke-opacity:1"
         d="m 760.703,1355.76 h -20" /><path
         id="path264"
         style="fill:#000000;fill-opacity:1;fill-rule:nonzero;stroke:none"
         d="m 760.703,1376.32 h -20" /><path
         id="path266"
         style="fill:none;stroke:#000000;stroke-width:6;stroke-linecap:butt;stroke-linejoin:round;stroke-miterlimit:10;stroke-dasharray:none;stroke-opacity:1"
         d="m 760.703,1376.32 h -20" /><path
         id="path268"
         style="fill:#000000;fill-opacity:1;fill-rule:nonzero;stroke:none"
         d="m 760.703,1515.72 h -20" /><path
         id="path270"
         style="fill:none;stroke:#000000;stroke-width:6;stroke-linecap:butt;stroke-linejoin:round;stroke-miterlimit:10;stroke-dasharray:none;stroke-opacity:1"
         d="m 760.703,1515.72 h -20" /><path
         id="path272"
         style="fill:#000000;fill-opacity:1;fill-rule:nonzero;stroke:none"
         d="m 760.703,1586.51 h -20" /><path
         id="path274"
         style="fill:none;stroke:#000000;stroke-width:6;stroke-linecap:butt;stroke-linejoin:round;stroke-miterlimit:10;stroke-dasharray:none;stroke-opacity:1"
         d="m 760.703,1586.51 h -20" /><path
         id="path276"
         style="fill:#000000;fill-opacity:1;fill-rule:nonzero;stroke:none"
         d="m 760.703,1636.73 h -20" /><path
         id="path278"
         style="fill:none;stroke:#000000;stroke-width:6;stroke-linecap:butt;stroke-linejoin:round;stroke-miterlimit:10;stroke-dasharray:none;stroke-opacity:1"
         d="m 760.703,1636.73 h -20" /><path
         id="path280"
         style="fill:#000000;fill-opacity:1;fill-rule:nonzero;stroke:none"
         d="m 760.703,1675.69 h -20" /><path
         id="path282"
         style="fill:none;stroke:#000000;stroke-width:6;stroke-linecap:butt;stroke-linejoin:round;stroke-miterlimit:10;stroke-dasharray:none;stroke-opacity:1"
         d="m 760.703,1675.69 h -20" /><path
         id="path284"
         style="fill:#000000;fill-opacity:1;fill-rule:nonzero;stroke:none"
         d="m 760.703,1707.52 h -20" /><path
         id="path286"
         style="fill:none;stroke:#000000;stroke-width:6;stroke-linecap:butt;stroke-linejoin:round;stroke-miterlimit:10;stroke-dasharray:none;stroke-opacity:1"
         d="m 760.703,1707.52 h -20" /><path
         id="path288"
         style="fill:#000000;fill-opacity:1;fill-rule:nonzero;stroke:none"
         d="m 760.703,1734.43 h -20" /><path
         id="path290"
         style="fill:none;stroke:#000000;stroke-width:6;stroke-linecap:butt;stroke-linejoin:round;stroke-miterlimit:10;stroke-dasharray:none;stroke-opacity:1"
         d="m 760.703,1734.43 h -20" /><path
         id="path292"
         style="fill:#000000;fill-opacity:1;fill-rule:nonzero;stroke:none"
         d="m 760.703,1757.74 h -20" /><path
         id="path294"
         style="fill:none;stroke:#000000;stroke-width:6;stroke-linecap:butt;stroke-linejoin:round;stroke-miterlimit:10;stroke-dasharray:none;stroke-opacity:1"
         d="m 760.703,1757.74 h -20" /><path
         id="path296"
         style="fill:#000000;fill-opacity:1;fill-rule:nonzero;stroke:none"
         d="m 760.703,1778.3 h -20" /><path
         id="path298"
         style="fill:none;stroke:#000000;stroke-width:6;stroke-linecap:butt;stroke-linejoin:round;stroke-miterlimit:10;stroke-dasharray:none;stroke-opacity:1"
         d="m 760.703,1778.3 h -20" /><path
         id="path300"
         style="fill:#000000;fill-opacity:1;fill-rule:nonzero;stroke:none"
         d="m 760.703,1917.7 h -20" /><path
         id="path302"
         style="fill:none;stroke:#000000;stroke-width:6;stroke-linecap:butt;stroke-linejoin:round;stroke-miterlimit:10;stroke-dasharray:none;stroke-opacity:1"
         d="m 760.703,1917.7 h -20" /><path
         id="path304"
         style="fill:#000000;fill-opacity:1;fill-rule:nonzero;stroke:none"
         d="m 760.703,1988.49 h -20" /><path
         id="path306"
         style="fill:none;stroke:#000000;stroke-width:6;stroke-linecap:butt;stroke-linejoin:round;stroke-miterlimit:10;stroke-dasharray:none;stroke-opacity:1"
         d="m 760.703,1988.49 h -20" /><path
         id="path308"
         style="fill:#000000;fill-opacity:1;fill-rule:nonzero;stroke:none"
         d="m 760.703,2038.71 h -20" /><path
         id="path310"
         style="fill:none;stroke:#000000;stroke-width:6;stroke-linecap:butt;stroke-linejoin:round;stroke-miterlimit:10;stroke-dasharray:none;stroke-opacity:1"
         d="m 760.703,2038.71 h -20" /><path
         id="path312"
         style="fill:#000000;fill-opacity:1;fill-rule:nonzero;stroke:none"
         d="m 760.703,2077.67 h -20" /><path
         id="path314"
         style="fill:none;stroke:#000000;stroke-width:6;stroke-linecap:butt;stroke-linejoin:round;stroke-miterlimit:10;stroke-dasharray:none;stroke-opacity:1"
         d="m 760.703,2077.67 h -20" /><path
         id="path316"
         style="fill:#000000;fill-opacity:1;fill-rule:nonzero;stroke:none"
         d="m 760.703,2109.49 h -20" /><path
         id="path318"
         style="fill:none;stroke:#000000;stroke-width:6;stroke-linecap:butt;stroke-linejoin:round;stroke-miterlimit:10;stroke-dasharray:none;stroke-opacity:1"
         d="m 760.703,2109.49 h -20" /><path
         id="path320"
         style="fill:#000000;fill-opacity:1;fill-rule:nonzero;stroke:none"
         d="m 760.703,2136.41 h -20" /><path
         id="path322"
         style="fill:none;stroke:#000000;stroke-width:6;stroke-linecap:butt;stroke-linejoin:round;stroke-miterlimit:10;stroke-dasharray:none;stroke-opacity:1"
         d="m 760.703,2136.41 h -20" /><path
         id="path324"
         style="fill:#000000;fill-opacity:1;fill-rule:nonzero;stroke:none"
         d="m 760.703,2159.72 h -20" /><path
         id="path326"
         style="fill:none;stroke:#000000;stroke-width:6;stroke-linecap:butt;stroke-linejoin:round;stroke-miterlimit:10;stroke-dasharray:none;stroke-opacity:1"
         d="m 760.703,2159.72 h -20" /><path
         id="path328"
         style="fill:#000000;fill-opacity:1;fill-rule:nonzero;stroke:none"
         d="m 760.703,2180.28 h -20" /><path
         id="path330"
         style="fill:none;stroke:#000000;stroke-width:6;stroke-linecap:butt;stroke-linejoin:round;stroke-miterlimit:10;stroke-dasharray:none;stroke-opacity:1"
         d="m 760.703,2180.28 h -20" /><path
         id="path332"
         style="fill:#000000;fill-opacity:1;fill-rule:nonzero;stroke:none"
         d="m 760.703,2319.68 h -20" /><path
         id="path334"
         style="fill:none;stroke:#000000;stroke-width:6;stroke-linecap:butt;stroke-linejoin:round;stroke-miterlimit:10;stroke-dasharray:none;stroke-opacity:1"
         d="m 760.703,2319.68 h -20" /><g
         transform="scale(10)"
         id="g336"><text
           id="text340"
           style="font-variant:normal;font-weight:normal;font-size:10px;font-family:Arial;-inkscape-font-specification:Arial;writing-mode:lr-tb;fill:#000000;fill-opacity:1;fill-rule:nonzero;stroke:none"
           transform="matrix(0,1,1,0,44.9922,111.416)"><tspan
             id="tspan338"
             y="0"
             x="0 8.6277294 14.975386 21.293751 24.472651 28.373823 32.294922 36.406254 42.533981 45.312492 51.650379">MSE (train)</tspan></text>
</g><g
         id="g342"><g
           clip-path="url(#clipPath348)"
           id="g344"><path
             id="path350"
             style="fill:none;stroke:#1f77b4;stroke-width:10;stroke-linecap:square;stroke-linejoin:round;stroke-miterlimit:10;stroke-dasharray:none;stroke-opacity:1"
             d="m 1101.02,2278.49 10.22,-320.35 1.28,106.78 4.68,-153.08 6.39,-94.41 9.79,-24.74 25.98,-77.99 1.28,-65.11 3.83,69.52 26.41,-236.23 2.13,61.87 8.94,-38.3 2.13,-20.27 2.98,-105.29 2.56,134.81 14.91,-125.82 0.85,17.28 3.41,41.7 12.35,-75.98 8.51,-44.42 23,-52.41 0.43,155.56 8.52,-198.12 7.66,68.27 5.97,35.33 26.4,-61.04 11.5,-57.6 6.82,2.44 2.98,-14.44 0.42,2.8 14.06,37.65 5.96,-53.95 3.41,-4.9 2.13,17.51 0.85,-18.67 5.11,30.24 4.26,-48.08 18.31,39.14 3.41,32.42 3.4,-101.52 11.08,-39.22 3.83,19.6 1.7,45.16 0.85,59.27 5.97,-57.52 0.85,8.3 2.98,-50.04 3.41,16.59 2.56,-6.14 11.92,17.75 31.09,-49.18 14.06,46.01 1.27,-48.1 7.24,86.43 3.83,-129.08 0.43,35.22 2.56,5.7 2.55,-24.23 7.67,-30.56 1.28,56.68 3.83,12.58 20.87,9.28 1.28,47.45 2.55,-63.5 2.56,-2.38 6.39,-98.36 2.55,135.82 2.13,-48.97 22.15,-15.59 2.13,1.34 0.42,33.67 7.67,7.44 5.54,-78.23 5.53,47.01 16.19,-20.6 7.24,6.58 8.52,-7.79 14.9,30.09 1.28,-35.72 5.96,39.96 1.7,-79.33 20.45,34.06 2.98,43.76 9.37,-30.74 5.11,27.65 4.26,10.49 12.77,-54.52 4.69,-5.51 3.41,38.85 2.55,-18.9 13.63,-10.61 12.35,-16.38 6.82,41.07 8.52,-58.27 7.23,8.03 14.91,36.01 17.89,3.74 3.83,-2.74 2.56,-22.25 2.13,-5.67 2.98,-14.37 3.83,20 5.96,73.84 2.13,-115.49 3.84,31.2 14.91,40.5 10.21,-7.04 16.61,-33.89 3.84,-17.66 5.53,21.98 1.28,-32.25 3.41,18.94 17.04,-8.95 11.49,37.87 1.28,-60.207 8.52,18.447 6.82,20.24 7.66,-26.63 5.11,50.72 7.24,-64.632 2.56,-8.383 15.75,34.305 1.28,-15.79 0.43,40.79 5.11,-30.42 2.98,59.76 22.58,-28.2 2.98,24.48 3.83,-69.866 9.37,40.396 1.7,32.85 3.41,-15.29 3.4,-0.43 1.71,-61.765 8.52,36.955 2.13,0.72 0.42,-54.26 2.13,48.05 5.11,40.81 1.28,-40.83 2.13,-23.14 8.09,25.74 6.82,-7.64 4.25,13.17 5.12,-56.102 11.07,68.842 3.83,-55.045 14.91,13.625 1.28,11.64 18.74,36.82 3.4,1.27 3.84,-42.55 0.85,-24.403 2.13,51.643 10.65,-32.22 0.42,36.58 4.26,34.79 0.85,-86.285 2.13,45.275 8.52,-14.4 3.83,0.34 6.39,-21.93 2.56,18.83 22.57,-45.15 7.24,-4.031 26.41,57.481 2.13,8.78 5.53,-77.792 15.76,60.262 5.96,10.1 14.91,-19.47 35.35,22.04 7.67,9.38 2.55,-28.59 10.22,-21.523 20.02,16.783 3.4,-8.63 15.34,-55.892 8.09,92.202 3.41,-36.97 1.27,1.15 11.93,12.79 12.78,-29.019 23.85,-7.871 2.55,24.68 6.82,-11.805 8.09,41.595 14.48,-18.15 4.26,-7.44 1.28,49.8 0.42,-72.52 0.85,35.1 0.43,-1.56 10.65,4.62 14.05,-87.23 17.04,107.77 13.2,-52.376 11.5,13.806 2.13,9.78 9.37,27.72 8.09,-71.907 6.39,49.547 6.81,-30.102 13.63,25.802 10.65,-42.255 18.31,-22.61 8.52,85.705 7.67,-10.91 1.7,-42.826 2.56,25.076 11.92,-1.91 5.96,-25.127 23.86,30.867 1.7,-8.34 4.68,-16.941 13.21,17.651 3.4,-31.788 5.54,24.286 2.13,38.932 6.81,-9.62 2.13,12.65 0.85,-1.7 4.26,-27.71 1.71,-33.377 12.35,55.467 5.11,-30.67 22.15,14.24 4.68,-11.55 7.24,24.25 11.93,-47.26 11.07,19.082 5.11,44.658 4.69,-0.06 1.27,-7.98 24.28,-5.38 2.13,-36.707 4.68,-5.074 35.78,20.731 0.42,5.69 0.86,-44.972 2.13,19.672 0.42,49.16 10.65,-68.722 2.13,47.652 1.28,-2.58 3.4,5.01 8.52,-32.411 1.28,-30.98 0.43,52.431 6.38,-26.357 9.37,-11.426 5.54,4.399 0.85,46.334 5.54,-26.705 15.76,-31.047 10.22,50.682 2.98,5.52 2.56,-36.296 10.22,64.256 1.28,-56.143 25.12,-37.289 7.24,45.672 8.95,0.81 1.28,-51.259 19.16,61.609 1.28,-46.062 6.81,13.394 13.2,-9.945 11.93,6.234 3.41,25.469 1.7,-17.379 3.41,2.153 4.68,-12.676 11.08,30.352 2.12,-26.255 6.82,-40.863 6.81,32.598 3.41,5.879 3.84,-2.922 3.83,-27.125 4.68,10.867 0.43,39.324 5.11,26.807 0.85,-28.033 16.19,6.386 5.1,9.747 8.1,-25.165 9.79,-7.062 8.52,34.867 24.28,-61.246 1.28,37.578 22.57,49.878 1.27,-39.792 8.52,30.102 0.85,-5.45 0.43,-62.296 22.57,7.351 8.52,40.875 3.41,-65.082 13.2,4.399 7.24,71.273 7.67,-85.766 3.41,41.27 13.2,27.586 21.29,-43.145 12.35,0.688 4.69,14.086 6.81,1.844 5.96,-11.641 8.95,26.703 17.03,45.155 9.38,-86.233 2.12,-5.473 15.76,49.774 4.69,-12.789 8.52,-0.559 0.85,29.82 13.63,-24.57 10.22,32.99 5.96,-43.056 2.55,1.398 15.76,-9.57 11.93,25.531 0.85,-27.246 1.7,35.563 6.39,-28.106 17.46,29.206 1.28,20.59 22.58,-36.788 1.27,-25.446 4.26,15.493 7.67,-14 0.42,24.675 7.24,14.156 1.28,-56.101 14.48,0.367 0.85,21.16 2.99,6.497 15.33,22.628 8.94,-7.32 10.22,-29.629 2.13,18.289 2.56,-24.34 11.5,-5.863 8.52,26.641 2.13,28.911 6.38,-81.868 2.13,61.488 18.32,-25.77 10.64,35.329 0.85,-85.543 6.82,70.199 0.85,-7.492 2.56,2.957 8.52,-10.446 9.79,46.176 3.83,-15.09 8.09,-53.164 4.69,47.754 0.85,-36.472 2.56,-7.336 5.53,42.246 7.67,-24.825 16.61,13.575 9.8,-10.7 2.13,32.981 10.22,-25.766 4.68,29.547 4.69,4.63 2.98,-34.099 2.56,20.579 10.21,14.41 25.13,-16.516 15.33,-27.047 0.43,-16.637 1.7,-5.675 8.52,71.785 0.85,-59.887 3.41,29.113 18.74,67.364 2.98,-51.676 1.28,-74.664 8.09,65.785 23,-43.344 3.83,3.926 2.56,34.691 2.56,-28.453 1.27,20.582 2.98,19.547 3.41,5.506 1.28,-82.916 5.11,64.609 13.2,-40.753 4.69,16.976 4.68,7.625 28.96,-20.094 5.97,-0.847 3.4,68.96 5.96,-6.62 0.43,-43.379 11.07,0.453 5.97,36.136 10.64,-8.042 12.36,-76.266 1.27,35.762 11.08,61.796 7.66,-19.656 1.71,-19.215 10.64,30.211 22.15,-65.246 6.39,34.551 3.41,-26.461 0.42,48.332 9.37,-9.449 7.67,-24.016 17.03,0.657 8.95,22.535 13.2,-17.348 22.57,14.027 4.69,-15.64 7.66,22.484 4.26,-23.027 0.43,37.481 8.09,-79.958 9.8,40.613 8.09,-31.265 12.78,69.05 3.83,-6.238 1.27,-14.445 2.99,-16.937 4.26,3.945 1.27,-9.07 2.13,7.75 4.26,-1.157 10.22,69.812 3.84,-60.249 8.09,9.406 7.24,6.57 26.4,-13.531 14.91,7.328 7.24,-38.023 4.26,-14.594 2.13,41.273 4.69,-7.492 2.55,39.482 2.98,-77.997 7.67,55.5 2.13,-9.95 2.13,2.153 7.66,-17.348 4.69,11.895 1.28,28.472 8.51,-49.992 3.41,22.078 4.26,15.582 14.91,26.087 2.13,-58.747 25.98,-35.875 0.42,37.156 13.63,20 18.31,32.686 3.41,-92.17 3.41,67.531 0.43,-30.164 14.48,-57.66 4.68,62.102 5.11,-32.934 7.24,87.775 25.56,-64.529 10.21,23.676 12.78,22.633 1.7,-35.739 5.97,5.207 7.24,0.805 2.56,22.992 17.88,-22.218 6.82,43.183 4.68,-77.07 3.84,30.515 3.4,-13.472 8.52,29.5 2.98,-52.028 2.56,44.688 8.52,-36.043 3.4,74.51 3.83,-42.451 29.82,-27.219 8.52,12.449 0.42,-11.887 0.85,38.356 5.96,-70.344 1.71,54.824 3.83,-22.922 0.43,40.164 2.13,-39.785 2.13,33.16 6.39,-14.859 13.2,7.473 5.11,38.421 2.98,-59.296 2.13,63.566 5.96,-73.039 3.84,39.129 11.07,2.191 2.98,-25.402 0.43,-18.723 3.83,40.274 16.18,4.058 3.41,-2.261 2.13,-22.285 13.63,23.507 20.02,-6.531 1.7,-23.008 9.8,12.512 7.66,18.844 1.28,20.387 8.94,-38.43 4.69,38.269 13.2,-45.648 7.24,-26.965 0.85,84.701 1.28,-14.146 8.95,-41.707 0.85,-9.657 2.13,18.551 4.68,11.207 5.11,23.188 7.24,-15.696 7.67,-8.394 2.55,-34.809 4.26,32.547 7.67,-60.871 0.43,74.016 11.49,-20.184 3.41,-68.301 4.26,26.887 4.68,40.039 8.95,2.754 7.66,-8.945 13.63,34.215 2.99,-48.782 22.14,0.094 0.85,77.314 4.26,-53.462 2.98,57.952 11.5,-41.995 8.95,-46.481 4.25,17.539 6.82,34.547 0.85,25.69 2.98,-64.787 13.63,-7.43 2.13,25.594 4.69,29.269 2.13,-18.359 18.31,-28.852 1.28,37.942 8.52,15.953 2.55,-29.707 0.43,-64.735 11.07,76.907 2.98,-28.063 26.83,19.996 3.83,-3.98 2.99,-16.137 4.26,15.336 1.27,-23.352 9.37,19.473 4.69,-48.617 4.68,45.051 5.11,-24.567 0.43,8.094 1.27,64.471 10.23,-84.311 2.55,56.879 9.8,20.342 4.26,-69.971 3.41,46.168 25.97,-54.789 3.84,53.344 3.83,-3.055 14.91,-7.449 11.92,24.133 1.28,-41.207 17.04,27.867 10.22,-0.93 27.68,13.27 17.89,-31.262 15.33,-2.414 2.13,-15.164 0.43,6.574 0.85,-12.035 5.96,-22.313 5.11,81.239 9.8,-60.911 2.55,61.387 6.39,-56.539 2.56,8.457 4.26,0.899 10.22,18.73 7.24,-7.867 22.57,15.332 2.98,-7.293 4.69,-0.391 8.52,-7.797 2.98,24.008 2.12,4.586 17.89,0.156 15.34,-88.765 11.92,41.871 0.85,-17.27 0.43,21.25 0.85,-35.195 6.39,30.418 2.55,3.195 2.13,37.09 12.35,-16.062 5.96,-23.418 4.69,20.023 4.26,-23.762 1.7,24.993 0.43,-10.071 11.92,37.969 3.84,-54.652 9.79,-15.711 0.43,53.926 5.11,-45.086 13.2,48.039 3.84,-21.094 7.24,-24.387 2.12,-14.015 3.84,33.25 3.41,41.57 3.4,-15.953 7.25,-14.586 12.77,3.223 4.26,-40.118 15.76,-11.773 4.26,60.527 2.55,-26.043 6.82,15.594 2.98,-26.184 11.92,-36.605 0.43,78.746 3.83,-8.285 2.13,-56.453 4.69,38.566 3.83,-25.863 5.96,74.908 16.19,-15.791 1.28,-54.715 3.83,44.449 10.65,-6.488 1.7,-14 3.83,-16.094 5.96,22.231 2.56,1.891 0.85,-5.563 14.48,-31.609 2.56,13.222 2.55,44.004 0.85,-8.429 0.43,-32.735 4.26,20.332 2.13,35.775 5.96,-69.767 3.83,44.023 6.82,-14.964 10.64,15.738 8.1,-25.645 3.83,43.164 7.67,-3.011 11.5,-34.938 9.79,-5.652 0.85,41.254 0.43,-1.817 21.72,-21.332 3.41,7.164 1.27,-21.589 3.84,23.015 16.18,-45.152 13.21,-4.524 8.51,37.075 8.1,-22.45 13.2,21.743 3.41,-35.258 0.85,29.664 14.48,34.797 7.24,-79.633 5.96,35.515 2.56,-0.222 11.92,-19.035 1.28,88.377 0.42,-40.358 2.56,0.785 0.85,-20.062 7.24,13.226 7.24,-32.769 6.39,34.148 6.81,-7.734 16.61,-24.949 5.12,31.715 0.85,-5.348 4.26,-15.715 4.68,10.934 2.98,-9.008 2.98,52.895 0.86,-30.547 7.23,-32.668 8.1,7.191 15.33,7.523 11.5,-25.097 2.56,32.66 3.83,0.156 12.77,15.149 9.8,3.855 0.43,-44.742 7.66,33.539 11.93,5.687 7.67,-52.597 5.96,49.722 3.4,-18.414 2.14,12.856 1.27,25.426 8.52,-25.004 2.13,-11.297 5.96,-5.926 4.26,9.918 2.13,42.6 2.98,-74.311 8.09,62.984 5.11,-10.031 14.91,-13.265 3.83,3.242 20.45,-44.52 2.12,-29.613 6.4,57.105 4.68,52.399 1.7,-46.477 6.82,-17.715 5.53,-20.062 8.52,17.266 3.84,-7.196 3.4,54.098 15.33,25.096 8.52,-65.987 1.28,-54.226 6.81,69.582 6.82,15.48 30.24,-8.152 3.83,-28.711 0.43,4.562 12.77,16.649 8.1,-68.363 1.27,80.398 9.37,-30.687 18.74,-10.145 8.94,20.648 2.56,-53.773 0.85,33.973 8.95,17.734 9.37,-26.246 12.35,29.047 19.59,-35.945 6.81,34.085 5.11,50.827 25.13,-60.623 6.82,26.043 13.2,22.554 3.41,-59.5 8.94,36.496 10.65,-6.879 2.13,-4.586 5.53,-4.265 5.54,-7.578 2.56,19.039 17.88,22.883 0.43,30.586 2.13,-85.168 6.39,46.144 24.7,-53.441 7.24,35.355 11.5,19.68 0.43,-9.36 3.4,8.489 5.11,-28.465 1.28,21.777 3.83,21.582 6.39,-33.605 1.7,-19.809 7.25,32.715 7.66,13.293 7.67,-44.043 6.39,36.035 5.53,-63.195 5.11,1.996 0.43,18.195 1.7,-23.058 11.93,54.004 11.07,-20.641 14.06,-14 6.38,37.145 15.34,-0.508 2.13,-35.168 20.44,8.469 1.7,18.359 8.52,-22.899 20.87,29.481 11.07,-14.844 1.28,-74.762 17.89,66.602 6.82,20.043 14.9,2.473 6.39,-29.504 3.41,42.226 2.55,-64.48 14.06,64.133 7.24,-78.129 1.27,50.179 1.28,-14.476 5.54,32.453 11.5,-58.109 7.66,10.089 2.98,70.418 2.99,-110.007 9.37,46.843 8.94,33.11 5.54,-19.321 14.9,0.778 9.8,47.242 1.28,-1.848 5.53,-30.66 1.71,-36.07 2.55,36.406 18.32,-66.336 0.42,31.606 8.09,9.269 1.28,10.637 3.41,17.906 0.42,-1.5 0.43,12.352 2.56,19.187 9.37,-66.308 7.66,14.718 21.3,16.344 5.96,16.535 2.55,-76.769 14.48,45.437 17.47,11.356 23.42,-37.703 2.13,0.66 2.56,58.988 9.79,-7.633 15.76,18.403 0.42,-50.891 2.56,25.687 3.83,-46.211 7.24,23.793 5.12,22.45 2.55,-41.02 8.52,16.567 1.7,20.132 10.22,-38.582 0.85,78.711 3.84,-6.597 21.29,-26.422 10.23,-9.414 9.79,-27.789 14.91,79.233 0.42,-13.565 10.22,-54.625 0.85,2.531 0.43,-11.125 12.78,65.508 10.65,-148.75 2.13,98.789 6.39,31.851 2.55,-29.328 12.78,-4.969 0.42,33.625 3.41,-70.312 1.7,62.109 2.56,-29.933 6.81,-33.832 18.32,41.39 5.11,-38.691 4.68,12.055 4.26,29.402 0.43,67.74 1.7,-135.896 3.41,99.328 7.24,-54.211 2.55,50.875 2.56,-18.43 10.65,-38.469 8.09,55.582 2.98,-31.632 0.43,-26.911 6.81,46.075 1.28,-55.485 13.63,47.407 0.42,-12.579 0.43,43.61 10.22,-19.844 5.96,-43.992 21.72,-30.414 5.12,75.367 26.82,15.473 4.27,21.336 13.63,-34.7 1.7,-41.957 8.51,-1.875 10.23,42.16 0.85,26.817 7.24,-73.797 15.76,-20.574 5.11,23.504 7.67,14.535 2.12,17.918 5.11,-23.328 7.67,71.377 3.41,-69.889 3.4,66.609 2.98,-86.41 7.25,68.465 2.55,-31.895 2.98,-64.632 20.02,42.379 2.13,42.914 6.81,-4.571 2.56,-28.55 4.26,25.293 3.41,-27.454 4.25,-25.265 2.98,79.152 4.27,-58.949 0.42,74.463 0.43,-40.393 5.53,-45.566 8.1,99.399 8.51,-59.192 4.69,-67.028 17.03,30.465 2.98,42.766 5.11,15.187 4.69,-7.793 13.63,-30.46 13.63,-3.586 13.2,42.504 15.76,-58.872 10.22,49.957 3.84,-49.597 2.55,-13.063 6.39,64.606 7.24,-51.68 5.96,10.27 1.28,30.046 8.09,41.65 8.09,-77.587 3.41,21.047 30.66,9.492 14.06,-49.25 3.41,72.473 2.55,-30.051 2.56,36.719 v 0" /><path
             id="path352"
             style="fill:none;stroke:#ff7f0e;stroke-width:10;stroke-linecap:square;stroke-linejoin:round;stroke-miterlimit:10;stroke-dasharray:none;stroke-opacity:1"
             d="m 1101.02,1086.34 10.22,-46.82 1.28,-53.106 4.68,1.668 6.39,-44.078 9.79,19.336 25.98,-12.766 1.28,-35.754 3.83,-1.367 26.41,-20.41 2.13,39.16 8.94,37.938 2.13,-121.004 2.98,80.5 2.56,-13.094 14.91,49.445 0.85,-62.332 3.41,-61.711 12.35,72.012 8.51,18.496 23,-12.449 0.43,1.312 8.52,-49.921 7.66,-143.418 5.97,121.875 26.4,46.125 11.5,-27.743 6.82,-105.324 3.4,85.067 14.06,-10.274 5.96,19.027 6.39,-29.203 5.11,11.43 4.26,-85.598 18.31,105.61 3.41,-1.969 3.4,-56.629 11.08,5.895 3.83,14.039 1.7,-6.43 0.85,51.809 5.97,-114.262 0.85,131.523 2.98,-99.965 3.41,58.934 2.56,-33.016 11.92,-39.722 31.09,55.949 15.33,-69.566 7.24,59.105 3.83,-0.707 0.43,6.891 2.56,65.203 2.55,-46.524 7.67,-8.386 1.28,26.425 3.83,-109.851 20.87,49.203 1.28,-27.477 5.11,101.711 6.39,-60.863 4.68,63.457 22.15,-43.508 2.13,14.453 0.42,-16.601 7.67,-43.34 5.54,36.141 5.53,63.89 16.19,-56.461 7.24,-15.05 8.52,-98.18 16.18,164.57 5.96,-32.433 1.7,-23.122 20.45,13.727 2.98,-0.625 9.37,57.984 5.11,-39.523 4.26,54.625 12.77,-164.863 4.69,58.59 3.41,87.89 2.55,-108.137 13.63,-0.148 12.35,75.926 6.82,-96.383 6.81,145.473 1.71,-98.762 7.23,-57.461 14.91,-14.422 17.89,147.395 3.83,-109.914 2.56,64.046 2.13,-2.945 6.81,-83.254 5.96,29.957 0.86,70.301 1.27,-73.148 3.84,66.121 14.91,-73.895 10.21,18.508 8.95,-82.066 7.66,94.488 3.84,-4.985 5.53,18.758 4.69,-110.816 17.04,107.805 7.24,-107.868 4.25,156.149 1.28,-118.227 8.52,-106.133 6.82,216.704 7.66,-16.704 5.11,-64.726 7.24,-69.918 2.56,43.805 15.75,15.996 1.28,38.543 0.43,-23.25 5.11,-28.235 2.98,2.141 22.58,100.094 2.98,-73.266 3.83,-34.598 9.37,99.371 1.7,-103.457 3.41,73.395 5.11,37.273 8.52,-97.636 2.13,16.457 0.42,31.019 2.13,-6.437 5.11,10.875 1.28,-80.028 2.13,93.461 8.09,-18.429 6.82,-124.758 4.25,97.949 5.12,-60.84 11.07,190.328 3.83,-92.144 14.91,35.14 0.43,-58.144 0.85,91.164 18.74,-73.473 3.4,85.719 4.69,-123.453 2.13,-88.203 10.65,163.515 0.42,-115.992 4.26,-21.621 0.85,68.711 2.13,-18.617 5.97,13.074 2.55,-22.492 3.83,70.629 6.39,14.219 2.56,-108.457 22.57,29.566 7.24,-23.137 26.41,64.063 2.13,-8.406 5.53,36.75 15.76,-78.309 5.96,101.082 14.91,-43.547 35.35,-72.418 10.22,28.586 10.22,13.164 20.02,66.699 3.4,3.996 15.34,12.864 6.81,-44.075 1.28,-119.41 3.41,132.977 1.27,-37.863 11.93,-34.418 12.78,25.097 23.85,32.399 2.55,-22.274 6.82,-14.715 7.66,-55.914 0.43,36.207 14.48,50.356 4.26,-50.168 1.28,-78.305 0.42,153.746 0.85,-33.062 0.43,-9.02 10.65,-104.968 14.05,29.55 17.04,65.352 13.2,-134.977 11.5,150.754 2.13,-38.519 9.37,-26.481 8.09,69.461 6.39,-31.078 6.81,34.688 12.35,-87.79 1.28,-107.785 28.96,265.543 8.52,-103.804 7.67,26.882 0.85,34.075 0.85,-71.039 2.56,-79.09 11.92,154.136 5.96,-51.078 23.86,-93.074 1.7,56.738 4.68,77.454 16.61,-98.958 5.54,-77.445 2.13,138.723 6.81,-245.11 2.13,260.567 0.85,-78.953 4.26,76.722 1.71,-130.074 12.35,74.422 5.11,127.281 22.15,-109.601 4.68,-48.258 7.24,131.391 11.93,-18.258 11.07,-125.028 5.11,42.274 4.69,74.031 1.27,-79.031 24.28,-143.242 2.13,150.793 4.68,-1.727 31.09,50.449 4.69,-132.531 0.42,154.625 0.86,-38.895 2.13,-34.023 0.42,13.227 10.65,37.199 3.41,44.094 3.4,-99.383 9.8,-109.973 0.43,91.531 6.38,85.203 9.37,28.633 6.39,-153.941 5.54,193.551 15.76,-150.684 10.22,-1.816 2.98,-56.383 2.56,162.453 10.22,-92.961 1.28,104.672 25.12,-66.059 7.24,-63.179 8.95,-36.403 1.28,88.399 19.16,63.547 1.28,-68.012 6.81,-47.703 13.2,130.101 11.93,-114.507 3.41,-69.852 1.7,153.074 3.41,27.477 4.68,4.293 11.08,-224.766 2.12,196.066 6.82,45.852 6.81,-26.738 3.41,-55.981 3.84,-23.125 3.83,1.977 4.68,-155.422 0.43,74.047 5.11,-98.41 0.85,143.722 16.19,17.864 5.1,50.32 8.1,-103.457 9.79,108.07 8.52,-22.691 20.44,70.422 3.84,-152.153 1.28,67.618 22.57,-28.383 1.27,-25.77 8.52,12.692 0.85,33.589 0.43,-13.777 22.57,-43.07 8.52,156.457 3.41,-113.973 13.2,83.383 7.24,-135.828 7.67,-1.453 3.41,-28.09 13.2,126.762 21.29,-77.821 12.35,13.297 4.69,-18.152 6.81,-109.875 5.96,131.312 8.95,56.375 17.03,23.836 9.38,-20.269 2.12,-52.766 15.76,-72.371 4.69,79.602 8.52,35.652 0.85,-50.809 13.63,53.2 10.22,-87.817 5.11,54.41 0.85,99.692 2.55,-294.246 15.76,155.152 11.93,65.484 0.85,61.258 1.7,-73.098 6.39,-8.242 17.46,-0.629 1.28,-26.8 22.58,67.824 1.27,-49.164 4.26,64.074 7.67,-111.02 0.42,-32.523 7.24,116.809 1.28,-137.86 14.48,104.231 3.84,-34.383 15.33,-77.852 8.94,171.43 10.22,-110.687 2.13,124.75 2.56,-101.102 11.5,-1.121 8.52,-10.789 2.13,22.394 6.38,-66.5 2.13,144.676 18.32,-158.348 10.64,61.727 0.85,53.832 6.82,16.371 0.85,-88.683 2.56,6.382 8.52,130.778 9.79,-221.024 3.83,146.465 8.09,-57.074 4.69,91.762 0.85,-122.942 2.56,77.895 5.53,27.25 7.67,-55.664 16.61,0.281 9.8,2.426 2.13,67.793 10.22,-36.727 4.68,99.961 4.69,-223.723 2.98,206.754 2.56,-99.808 10.21,41.672 25.13,-18.766 15.33,9.914 0.43,67.996 1.7,-73.187 8.52,-10.207 0.43,105.531 0.42,-89.828 3.41,-28.617 18.74,-92.911 2.98,-3.105 1.28,194.101 8.09,-103.531 23,-79.605 4.68,207.832 1.71,-209.68 2.56,86.211 1.27,-54.504 2.98,57.129 3.41,114.926 1.28,-106.207 5.11,-82.395 11.5,197.992 1.7,-120.48 4.69,81.258 4.68,-184.918 28.96,97.23 5.97,-32.211 3.4,19.621 6.39,66.969 11.07,80.36 5.97,-97.094 10.64,-101.028 12.36,73.442 1.27,-50.125 11.08,178.976 9.37,-96.269 10.64,-8.067 22.15,62.313 6.39,-149.191 3.41,-23.797 0.42,194.175 17.04,-136.91 17.03,167.86 8.95,-158.387 13.2,-31.234 22.57,81.109 4.69,48.984 11.92,-91.156 0.43,2.102 8.09,10.261 9.8,42.004 8.09,-35.09 12.78,126.579 8.09,-198.231 4.26,-10.035 1.27,90.406 2.13,55.024 4.26,-131.657 10.22,122.403 3.84,-20.989 8.09,-98.257 7.24,36.187 26.4,21.703 14.91,-5.176 7.24,13.981 4.26,-75.328 2.13,-3.863 4.69,141.687 2.55,-129.387 2.98,131.84 7.67,-172.183 2.13,11.73 2.13,51.488 7.66,-3.617 4.69,26.656 1.28,-33.742 8.51,32.883 3.41,129.168 4.26,-100.59 14.91,-0.945 2.13,-60.778 25.98,139.192 0.42,-46.309 13.63,-43.972 18.31,-28.036 3.41,4.872 3.41,-51.965 0.43,44.457 14.48,38.258 4.68,-36.641 5.11,-8.102 7.24,118.219 25.56,-200.336 10.21,74.324 12.78,55.973 1.7,-70.297 5.97,106.641 7.24,-18.793 2.56,-34.543 17.88,-52.09 6.82,74.867 4.68,-7.281 3.84,44.934 3.4,-11.539 8.52,-85.172 0.85,133.246 2.13,-137.047 2.56,21.84 8.52,-34.582 1.27,-59.606 2.13,101.028 3.83,34.886 29.82,-113.398 8.52,-56.5 0.42,288.894 0.85,-75.73 5.96,-199.59 1.71,192.59 3.83,-34.852 0.43,-15.129 2.13,46.539 2.13,-91.613 6.39,0.582 13.2,98.024 5.11,-62.285 2.98,-149.79 2.13,124.188 5.96,9.297 3.84,21.152 11.07,-39.566 2.98,-21.535 0.43,-57.477 3.83,36.531 16.18,5.028 5.54,133.519 13.63,-126.726 20.02,71.086 1.7,-202.305 9.8,225.969 7.66,-97.18 1.28,80.668 8.94,21.984 4.69,-83.515 10.22,-73.02 2.98,141.192 7.24,17 0.85,-17.415 1.28,-49.687 8.95,99.973 0.85,-176.141 2.13,90.094 4.68,46.578 5.11,-123.414 7.24,121.82 7.67,18.688 2.55,-32.258 4.26,-38.211 7.67,-33.051 0.43,83.461 11.49,-4.02 3.41,-211.457 4.26,141.016 4.68,27.254 8.95,19.176 7.66,26.031 13.63,-92.148 2.99,166.328 22.14,-85.617 0.85,40.511 4.26,-103.726 2.98,98.875 11.5,-59.188 8.95,-35.105 4.25,-29.051 6.82,31.109 0.85,-83.105 2.98,-17.504 15.76,185.484 6.82,-70.758 18.31,-17.105 1.28,112.02 8.52,-42.957 2.55,-61.387 0.43,76.824 11.07,-77.57 2.98,107.043 26.83,51.105 3.83,-91.555 2.99,-134.16 5.53,144.617 9.37,-22.753 4.69,67.66 4.68,-18.059 5.11,12.848 0.43,-129.606 1.27,63.16 10.23,14.618 2.55,26.312 9.8,-96.066 4.26,-56.594 3.41,54.52 25.97,48.003 3.84,-96.257 3.83,160.132 14.91,-154.617 11.92,97.555 1.28,38.012 17.04,32.515 10.22,-107.273 27.68,1.871 17.89,-79.234 15.33,176.5 2.13,-88.461 0.43,5.644 0.85,28.418 5.96,2.297 5.11,-203.797 9.8,163.223 2.55,-56.813 6.39,64.403 2.56,-51.133 4.26,132.281 10.22,-64.781 7.24,-22.293 9.37,20.129 13.2,-13.332 2.98,109.66 4.69,-73.027 8.52,46.976 2.98,-187.769 2.12,187.324 17.89,-112.563 15.34,45.754 11.92,7.477 0.85,-30.555 0.43,101.727 0.85,-183.477 6.39,109.43 2.55,-72.434 2.13,58.981 12.35,-9.996 5.96,76.046 4.69,18.36 4.26,-223.246 1.7,113.195 0.43,-14.145 11.92,-15 3.84,70.008 9.79,-24.625 0.43,-69.965 5.11,64.09 13.2,6.547 3.84,-8.308 7.24,44.812 2.12,-123.113 3.84,154.039 3.41,23.918 3.4,-155.363 7.25,69.566 17.03,35.328 15.76,-28.543 3.83,66.543 0.43,-159.5 2.55,158.336 6.82,-46.293 2.98,62.227 11.92,-11.938 0.43,-69.258 3.83,34.899 2.13,-69.387 4.69,53.855 3.83,-17.078 22.15,76.957 1.28,-99.546 3.83,29.136 10.65,-124.39 1.7,82.41 3.83,58.629 5.96,-41.141 3.41,73.227 14.48,-145.336 2.56,47.652 2.55,129.215 1.28,-84.75 6.39,-28.363 5.96,35.191 3.83,-74.426 6.82,80.36 10.64,-184.418 8.1,137.433 3.83,-107.828 7.67,87.672 11.5,56.754 9.79,-26.844 0.85,75.117 0.43,-41.758 21.72,-6.265 3.41,-7.75 1.27,51.328 3.84,1.812 16.18,-65.246 13.21,-45.254 8.51,53.313 8.1,-13.676 13.2,35.422 3.41,-6.641 0.85,-35.875 14.48,78.969 7.24,-94.453 5.96,21.867 2.56,55.594 11.92,-7.273 1.28,-74.848 0.42,87.844 3.41,-101.5 7.24,134.582 3.41,-68.071 3.83,-162.851 6.39,154.863 6.81,-37.891 16.61,137.891 5.12,-64.746 0.85,-93.297 4.26,64.949 4.68,9.164 2.98,1.707 2.98,37.774 0.86,-126.293 7.23,100.101 8.1,55.778 15.33,-150.805 11.5,60.871 2.56,0.821 3.83,-58.688 12.77,-83.625 9.8,141.148 0.43,-12.539 7.66,50.563 11.93,-10.117 2.13,-98.242 5.54,10.91 5.96,124.418 3.4,-152.008 2.99,114.238 0.42,-103.16 8.52,35.73 2.13,154.497 10.22,-156.809 2.13,56.215 2.98,-105.957 8.09,100.648 5.11,19.93 14.91,-200.188 3.83,282.43 20.45,-139.871 2.12,41.73 6.4,-67.554 4.68,70.48 1.7,-94.953 6.82,82.817 5.53,51.667 8.52,-81.054 3.84,-8.106 3.4,49.946 15.33,25.23 8.52,-23.484 1.28,-116.914 6.81,73.144 6.82,-130.152 30.24,234.199 3.83,-0.594 0.43,-26.3 12.77,-38.555 8.1,30.949 1.27,-148.976 9.37,98.785 18.74,-78.364 8.94,95.043 3.41,120.387 8.95,-218.703 9.37,64.707 12.35,6.605 19.59,-95.488 6.81,44.024 5.11,-0.977 25.13,123.481 6.82,-91.29 13.2,-64.476 3.41,-87.469 8.94,317.582 18.31,-239.183 5.54,173.8 2.56,21.332 17.88,-187.453 0.43,96.711 2.13,67.266 6.39,-47.219 24.7,-30.211 7.24,-50.777 11.5,128.711 0.43,22.332 3.4,-73.27 5.11,-16.859 1.28,-53.875 3.83,87.613 6.39,-105.055 1.7,-139.195 7.25,185.258 7.66,-101.449 7.67,51.277 6.39,204.949 4.26,-139.851 1.27,4.918 5.11,-27.313 0.43,0.86 1.7,14.55 11.93,38.942 11.07,7.281 14.06,-22.164 6.38,-102.496 15.34,84.601 2.13,-18.101 20.44,-21.41 1.7,80.078 8.52,8.113 20.87,-135.344 11.07,99.868 1.28,112.39 17.89,-50.047 6.82,-102.824 14.9,-4.976 6.39,-42.622 3.41,4.786 2.55,102.503 14.06,-76.519 7.24,-114.914 1.27,221.277 1.28,-117.613 5.54,58.094 11.5,-24.957 7.66,57.3 2.98,53.204 2.99,18.421 9.37,-56.308 8.94,-124.789 5.54,27.785 14.9,36.742 9.8,119.524 1.28,-50.961 5.53,-115.84 1.71,-93.668 2.55,221.043 18.32,-30.203 0.42,8.285 8.09,-156.426 1.28,182.477 4.26,-113.973 2.56,18.676 8.51,16.004 0.86,98.121 7.66,-89.821 21.3,-29.234 5.96,-57.863 2.55,174.722 14.48,70.122 17.47,-59.989 11.92,-45.539 11.5,-22.109 2.13,47.367 2.56,-91.895 9.79,10.332 10.65,-22.882 5.11,118.773 0.42,-180.867 2.56,52.082 3.83,-9.039 7.24,-74.356 5.12,140 2.55,-19.128 8.52,-137.93 1.7,116.121 10.22,60.254 0.85,-44.906 3.84,-15.711 21.29,78.843 20.02,-120.925 14.91,9.515 0.42,90.965 10.22,-138.762 0.85,138.575 0.43,-56.465 12.78,-28.555 10.65,165.551 2.13,-205.899 6.39,98.211 2.55,-52.621 12.78,-17.957 0.42,78.735 3.41,-7.504 1.7,161.605 2.56,-94.898 6.81,-211.121 23.43,226.222 4.68,-71.484 4.26,-4.031 0.43,-162.946 3.4,169.868 1.71,-130.059 7.24,141.121 2.55,8.887 1.71,-10.903 0.85,28.496 10.65,-78.238 8.09,70.672 2.98,-0.703 0.43,10.402 6.81,-104.965 1.28,35.993 13.63,24.339 0.42,-54.937 0.43,87.309 10.22,-23.039 5.96,126.269 21.72,-92.582 5.12,-167.629 26.82,99.277 4.27,8.176 13.63,-46.933 1.7,27.933 8.51,21.461 10.23,59.336 0.85,-198.703 7.24,59.227 15.76,-10.247 5.11,170.493 9.79,-104.532 0.86,-114.597 4.25,145.836 7.67,122.152 3.41,-14.312 3.4,-193.043 2.98,31.019 7.25,51.137 2.55,-11.785 2.98,0.777 20.02,21.961 2.13,-37.781 6.81,-85.414 2.56,55.531 4.26,34.387 3.41,71.183 7.23,-143.094 4.27,126.184 0.42,-161.984 0.43,101.867 5.53,24.976 8.1,-112.855 8.51,160.726 4.69,-152.093 17.03,234.914 2.98,-67.449 5.11,-154.2 4.69,110.418 13.63,29.102 13.63,-19.664 13.2,2.765 15.76,12.508 10.22,13.52 3.84,-48.93 2.55,39.965 6.39,-39.191 7.24,16.175 5.96,-164.222 1.28,152.277 8.09,-21.348 8.09,33.993 3.41,-88.946 30.66,17.531 14.06,-34.621 3.41,96.582 2.55,-68.671 2.56,108.855 v 0" /><path
             id="path354"
             style="fill:none;stroke:#2ca02c;stroke-width:10;stroke-linecap:square;stroke-linejoin:round;stroke-miterlimit:10;stroke-dasharray:none;stroke-opacity:1"
             d="m 1101.02,1074.07 11.5,-47.38 4.68,-39.655 6.39,40.035 9.79,-64.656 25.98,-33.836 1.28,58.637 3.83,34.645 26.41,-77.247 2.13,-9.843 8.94,21.546 2.13,-15.191 2.98,-10.953 2.56,72.328 15.76,-39.406 3.41,-32.102 12.35,22.703 8.51,22.496 23,-43.148 0.43,18.242 8.52,-78.472 7.66,31.14 5.97,8.332 26.4,16.211 11.5,5.715 6.82,-14.992 2.98,-33.332 0.42,22.152 14.06,-34.34 5.96,-0.75 3.41,-45.406 2.98,79.434 5.11,26.109 4.26,-11.102 18.31,-32.793 3.41,-14.183 3.4,29.363 11.08,-53.269 3.83,32.339 1.7,0.012 0.85,12.527 5.97,-13.07 0.85,-19.472 2.98,22.335 3.41,-8.293 2.56,-30.125 11.92,84.633 31.09,-56.609 14.06,63.59 1.27,-99.992 7.24,40.539 3.83,-37.899 0.43,45.317 2.56,-13.829 2.55,-7.398 7.67,82.816 1.28,-29.726 3.83,2.223 20.87,-12.551 1.28,24.937 2.55,18.024 2.56,-36.551 6.39,11.297 4.68,-67.93 22.15,103.797 2.55,-88.191 7.67,19.332 5.54,-12.368 5.53,22.344 16.19,-11.172 7.24,-16.66 8.52,-46.711 14.9,31.414 1.28,27.153 5.96,11.011 1.7,33.301 20.45,15.426 2.98,-69.039 9.37,-16.578 5.11,57.664 17.03,-59.039 4.69,23.968 3.41,-118.828 2.55,126.793 13.63,-6.695 12.35,15.871 6.82,-28.105 6.81,-14.477 1.71,19.148 7.23,-54.148 14.91,3.164 17.89,28.25 3.83,40.965 2.56,-20.895 2.13,-86.484 2.98,41.348 3.83,-40.09 5.96,73.496 0.86,45.539 1.27,-88.039 3.84,23.496 14.91,33.504 10.21,-69.352 8.95,88.274 7.66,-85.375 3.84,83.41 5.53,-76.695 4.69,52.433 17.04,40.637 7.24,-104.176 4.25,29.805 1.28,18.851 8.52,-37.972 6.82,94.719 12.77,-89.067 7.24,60.317 2.56,-56.809 15.75,12.269 1.71,-35.734 3.41,37.984 1.7,-46.73 25.56,108.086 2.98,-69.719 3.83,-48.39 9.37,111.339 1.7,-96.836 3.41,1.93 3.4,27.211 1.71,-6.555 8.52,-44.277 2.13,114.356 0.42,-31.735 2.13,-17.355 5.11,3.836 1.28,-18.989 2.13,53.485 8.09,-16.082 6.82,-29.207 4.25,2.394 5.12,-25.719 11.07,7.211 3.83,7.797 14.91,21.106 1.28,-52.789 18.74,-77.239 3.4,181.75 3.84,-123.621 0.85,65.453 2.13,32.289 10.65,-8.335 0.42,5.339 4.26,-56.476 0.85,46.855 2.13,-96.879 5.97,51.118 2.55,-37.286 3.83,63.047 6.39,-43.804 2.56,-44 29.81,146.468 26.41,-47.339 2.13,-31.821 5.53,11.738 15.76,-2.515 5.96,-76.211 14.91,25.281 35.35,-37.754 7.67,-5.066 2.55,31.355 10.22,149.977 20.02,-66.719 3.4,-2.324 15.34,-18.871 6.81,9.738 1.28,-7.074 3.41,-7.008 1.27,-66.746 11.93,88.293 12.78,21.473 23.85,-84.004 2.55,108.035 14.48,-88.649 0.43,-11.093 14.48,52.136 4.26,-29.168 1.7,-64.144 0.85,111.062 0.43,-57.906 10.65,56.707 14.05,-56.515 17.04,33.531 13.2,-15.574 13.63,-30.95 9.37,60.524 8.09,-11.481 6.39,-39.738 6.81,-57.957 12.35,-18.289 1.28,114.223 10.65,-5.243 18.31,-47.308 8.52,-29.348 7.67,10.348 1.7,69.211 2.56,2.711 11.92,-16.258 5.96,1.023 23.86,42.137 1.7,-15.012 4.68,-151.035 13.21,108.43 3.4,76.965 5.54,-144.813 2.13,94.477 6.81,37.156 2.13,-109.379 0.85,43.391 4.26,24.445 1.71,-51.684 12.35,48.317 5.11,96.984 22.15,-181.918 4.68,99.344 7.24,-12.559 11.93,-65.097 11.07,72.863 5.11,-94.887 4.69,42.875 1.27,41.262 24.28,-80.762 2.13,64.657 4.68,-44.868 31.09,-5.796 4.69,-47.868 0.42,3.848 0.86,70.75 2.55,-64.395 10.65,-9.304 2.13,78.316 1.28,-17.633 3.4,-29.922 8.52,8.184 1.28,43.996 0.43,-54.847 6.38,62.335 9.37,7.399 5.54,-52.379 0.85,99.824 5.54,-64.074 25.98,-31.063 2.98,-48.199 2.56,49.199 10.22,6.852 1.28,51.586 25.12,72.625 7.24,-176.711 8.95,32.27 1.28,12.781 19.16,-10.293 1.28,62.801 6.81,-15.965 13.2,-59.477 11.93,19.367 3.41,32.125 1.7,-117.601 3.41,74.601 4.68,5.329 11.08,-79.43 2.12,89.195 6.82,-11.121 6.81,-64.332 3.41,94.758 3.84,37.894 3.83,-80.886 4.68,77.34 0.43,84.531 5.11,-105.231 0.85,35.825 16.19,-75.965 5.1,79.367 8.1,-47.957 9.79,-0.156 8.52,30.503 20.44,-49.593 3.84,10.656 1.28,8.82 22.57,-32.558 1.27,22.55 8.52,78.106 1.28,-146.496 22.57,124.691 8.52,-60.367 3.41,52.383 13.2,-148.375 7.24,118.98 7.67,-21.386 3.41,54.894 13.2,-213.461 21.29,145.035 12.35,-49.707 4.69,55.973 6.81,-31.437 5.96,49.671 8.95,-89.343 26.41,77.386 2.12,57.594 15.76,-95.437 4.69,100.203 8.52,-56.782 0.85,42.426 13.63,-51.343 10.22,-32.165 5.11,50.7 0.85,-52.164 2.55,29 15.76,-36.176 11.93,80.277 0.85,28.656 1.7,-13.261 6.39,-66.918 17.46,-58.051 1.28,12.348 22.58,84.593 1.27,-105.82 4.26,91.387 7.67,-70.235 0.42,45.567 7.24,-12.672 1.28,69.152 14.48,-153.07 0.85,40.887 2.99,54.539 15.33,-28.004 8.94,-67.766 10.22,153.664 2.13,-90.699 2.56,-8.809 11.5,58.457 8.52,-61.89 2.13,53.515 6.38,-77.433 2.13,32.707 18.32,22.973 10.64,63.816 0.85,-60.074 6.82,20.972 0.85,-6.789 2.56,24.282 0.85,-19.957 7.67,7.671 9.79,64.739 3.83,-40.395 8.09,-46.238 4.69,47.726 0.85,-58.433 2.56,-8.637 5.53,-34.773 7.67,76.144 16.61,35.102 9.8,-83.684 2.13,84.946 10.22,25.902 4.68,-59.949 4.69,-37.637 2.98,25.129 2.56,53.605 10.21,-20.246 25.13,-146.574 15.33,142.949 0.43,-84.597 1.7,47.734 8.52,64.465 0.85,-75.918 3.41,82.32 18.74,4.164 2.98,-45.754 1.28,-119.871 8.09,68.11 23,12.75 3.83,-7.305 0.85,97.058 4.27,-85.675 1.27,5.129 2.98,37.207 3.41,-34.375 1.28,21.699 5.11,-58.164 11.5,-2.754 1.7,52.269 4.69,-33.914 4.68,-14.562 28.96,65.066 5.97,46.707 3.4,-88.531 5.96,34.707 0.43,-42.992 11.07,-42.281 5.97,171.265 10.64,-107.297 12.36,-44.16 1.27,6.953 11.08,105.082 7.66,-75.961 1.71,24.274 10.64,57.851 22.15,-21.113 6.39,-43.09 3.41,-48.019 0.42,-50.621 9.37,90.265 7.67,3.118 17.03,1.316 8.95,9.551 13.2,0.062 22.57,61.121 4.69,-83.543 7.66,-14.66 4.26,19.766 0.43,-23.938 8.09,35.446 9.8,10.304 8.09,65.66 12.78,-42.085 3.83,89.171 1.27,-101.355 2.99,7.137 4.26,-50.133 3.4,57.578 4.26,-203.109 10.22,51.523 3.84,114.508 8.09,-85.371 7.24,96.593 26.4,88.278 14.91,-29.817 7.24,-181.273 6.39,68.301 4.69,47.429 2.55,-18.668 2.98,31.672 7.67,12.942 2.13,42.371 2.13,-51.352 7.66,-77.808 4.69,9.246 1.28,112.922 8.51,-77.387 3.41,39.527 4.26,-74.39 14.91,65.937 2.13,-19.496 26.4,-45.68 13.63,7.594 18.31,36.356 3.41,-51.637 3.41,87.637 0.43,-74.364 14.48,-16.242 4.68,52.067 5.11,-69.504 7.24,83.277 25.56,46.41 10.21,-25.699 12.78,-161.941 1.7,105.144 5.97,5.074 7.24,93.996 2.56,-131.476 17.88,14.113 6.82,118.844 4.68,22.273 3.84,-111.086 3.4,19.25 8.52,29.387 0.85,42.676 1.28,-140.461 0.85,70.5 2.56,6.152 8.52,16.668 1.27,-59.679 2.13,42.992 3.83,52.047 29.82,-163.84 8.52,55.297 1.27,24.203 5.96,-5.157 1.71,-39 3.83,94.211 0.43,43.579 4.26,-142.508 6.39,84.906 13.2,-23.582 5.11,0.469 2.98,5.691 2.13,-50.703 5.96,26.699 3.84,35.34 11.07,-57.66 2.98,99.621 0.43,-22.98 3.83,-29.668 16.18,-187.11 3.41,210.215 0.43,-24.32 1.7,16.418 13.63,10.351 20.02,-62.484 1.7,12.637 9.8,42.222 7.66,-72.937 1.28,-65.082 8.94,207.914 4.69,-168.332 10.22,86.566 2.98,-44.211 7.24,77.516 0.85,30.547 1.28,-85.7 8.95,94.958 0.85,-116.333 2.13,-16.648 4.68,27.309 5.11,-35.926 7.24,55.605 7.67,40.34 6.81,14.387 8.1,-97.043 11.49,-5.762 3.41,-8.34 4.26,117.883 4.68,-42.707 8.95,45.223 7.66,-165.977 13.63,67.84 2.99,-103.004 22.14,51.844 0.85,24.402 4.26,29.867 2.98,-50.05 11.5,124.101 8.95,-119.422 4.25,85.739 6.82,-33.125 0.85,38.875 2.98,23.363 13.63,-0.617 2.13,-54.879 4.69,81.847 2.13,-96.285 18.31,75.887 1.28,-64.941 8.52,15.261 2.55,-119.461 0.43,152.903 11.07,-109.559 2.98,63.367 26.83,41.032 3.83,-71.84 2.99,-1.336 4.26,-11.356 1.27,30.871 9.37,44.399 4.69,-44.563 4.68,4.618 5.11,-59.758 0.43,5.304 1.27,-7.699 10.23,50.231 2.55,-28.352 9.8,140.145 4.26,-73.028 3.41,-14.3 25.97,35.449 3.84,0.433 3.83,54.27 14.91,-184.434 11.92,49.555 1.28,66.738 17.04,-58.656 10.22,52.898 27.68,12.415 17.89,18.156 15.33,-35.793 2.13,-24.426 1.28,-71.465 5.96,55.863 5.11,-73.492 9.8,97.789 2.55,45.707 6.39,-29.562 2.56,-0.809 4.26,69.442 10.22,-143.879 7.24,128.058 9.37,-22.57 13.2,-28.238 2.98,45.59 4.69,-92.668 8.52,30.804 2.98,40.938 2.12,13.199 17.89,-135.164 15.34,68.73 11.92,0.938 0.85,-61.324 0.43,203.797 0.85,-160.77 6.39,8.613 2.55,-25.324 2.13,120.777 12.35,-80.765 5.96,-18.707 4.69,72.847 4.26,-75.433 1.7,58.293 0.43,116.859 11.92,-176.914 3.84,20.113 9.79,11.075 0.43,-109.457 5.11,39.339 13.2,46.411 3.84,-42.473 7.24,14.898 2.12,7.2 3.84,50.289 3.41,10.164 3.4,62.011 7.25,-188.191 12.77,5.512 4.26,88.156 15.76,-37.144 3.83,48.183 0.43,76.57 2.55,2.477 6.82,-92.332 2.98,-103.242 11.92,217.926 0.43,-167.559 3.83,89.836 2.13,-41.762 4.69,16.5 3.83,56.352 5.96,-35.203 17.47,58.152 3.83,-10.609 10.65,-116.204 1.7,92.25 3.83,13.063 5.96,-85.977 2.56,-13.097 0.85,123.406 14.48,-103.883 5.11,108.774 0.85,-58.571 0.43,17.899 4.26,-80.348 2.13,-95.703 5.96,190.008 3.83,-79.516 6.82,8.606 10.64,68.359 8.1,-79.391 3.83,46.207 7.67,-15.054 11.5,82.277 9.79,-49.336 0.85,-81.926 0.43,49.36 21.72,2.859 4.68,-64.707 3.84,140.34 16.18,-124.902 13.21,115.906 8.51,-109.563 8.1,27.664 13.2,-87.746 3.41,-81.679 0.85,189.16 14.48,-29.297 7.24,23.461 5.96,-77.637 2.56,120.633 11.92,90.211 1.28,-195.164 0.42,77.402 2.56,-101.254 0.85,46.004 7.24,13.645 3.41,92.418 3.83,-53.684 6.39,31.586 6.81,-52.316 16.61,-9.282 5.12,-17.722 0.85,101.429 4.26,-45.304 4.68,30.3 2.98,-29.699 2.98,8.156 0.86,-39.074 7.23,-36.988 8.1,114.926 15.33,-65.977 11.5,-13.312 2.56,-14.039 3.83,37.214 12.77,-75.812 10.23,106 7.66,-36.223 11.93,-18.207 2.13,-89.836 5.54,104.235 5.96,64.199 3.4,-80.328 2.14,80.418 1.27,-54.102 8.52,-41.019 2.13,12.222 5.96,-45.906 4.26,110.352 2.13,-37.473 2.98,86.641 8.09,-21.813 5.11,-93.664 14.91,82.617 3.83,67.973 20.45,-142.817 2.12,36.555 6.4,48.176 4.68,-230.094 1.7,68.77 6.82,66.019 5.53,66.383 8.52,26.246 7.24,-189.918 15.33,157.047 8.52,-100.152 1.28,80.172 6.81,61.918 6.82,-87.512 30.24,111.254 3.83,-91.84 0.43,-100.371 12.77,4.277 8.1,55.137 1.27,83.062 9.37,-87.789 18.74,74.922 8.94,22.18 3.41,-121.457 8.95,39.91 9.37,19.441 12.35,46.297 19.59,-91.765 6.81,-10.328 5.11,63.085 25.13,-93.687 6.82,95.789 13.2,-73.453 3.41,-27.125 8.94,148.226 10.65,-98.91 2.13,46.368 5.53,-101.985 5.54,-1.851 2.56,62.988 17.88,-13.914 0.43,26.301 2.13,-0.036 6.39,106.914 31.94,-121.05 11.5,46.738 0.43,52.785 3.4,-259.523 5.11,259.363 1.28,-43.586 3.83,-79.832 6.39,88.984 1.7,-5.863 7.25,32.957 7.66,-87.461 7.67,5.75 6.39,-66.273 4.26,108.5 1.27,-18.965 5.11,78.07 0.43,-126.386 1.7,48.105 11.93,-20.363 11.07,-55.832 14.06,-16.18 6.38,1.328 15.34,7.977 2.13,96.855 20.44,-118.687 1.7,241.695 8.52,-150.52 20.87,-12.328 11.07,-54.773 1.28,63.965 17.89,52.894 6.82,-34.285 14.9,8.137 6.39,-29.242 3.41,103.679 2.55,-113.871 14.06,-28.273 7.24,72.172 1.27,-32.973 1.28,55.34 5.54,-131.02 11.5,165.953 7.66,-70.941 2.98,15.168 2.99,60.422 9.37,-128.809 8.94,76.352 5.54,-11.996 14.9,73.058 9.8,-156.703 1.28,131.949 5.53,-122.316 1.71,27.113 2.55,-7.273 18.32,82.336 0.42,40.117 8.09,3.953 4.69,-133.644 0.85,115.343 2.56,-89.636 8.51,87.691 0.86,-118.578 7.66,83.41 21.3,67.863 5.96,-204.507 2.55,156.792 14.48,25.481 17.47,-68.77 11.92,-107.039 11.5,166.024 2.13,-69.895 2.56,12.735 9.79,-27.133 10.65,87.726 5.11,-141.527 0.42,-74.301 2.56,92.528 3.83,88.808 7.24,-160.512 5.12,147.848 2.55,-124.773 8.52,109.363 1.7,63.715 10.22,-68.953 0.85,-46.641 3.84,98.703 21.29,-47.84 10.23,52.442 9.79,-65.285 14.91,21 0.42,24.07 10.22,-171.883 1.28,143.559 12.78,-2.813 10.65,31.305 2.13,38.781 6.39,33.129 2.55,-176.687 12.78,40.699 0.42,23.676 3.41,7.8 4.26,-214.843 6.81,277.195 18.32,-52.43 5.11,-30.695 8.94,-2.328 0.43,15.898 1.7,-59.332 1.7,36.856 1.71,-1.414 7.24,-40.633 2.55,92.48 1.71,-62.824 0.85,142.105 10.65,-117.839 8.09,36.254 2.98,7.136 0.43,-4.871 8.09,-6.441 13.63,-54.254 0.42,-68.735 0.43,111.567 10.22,16.82 5.96,-19.133 21.72,73.532 5.12,-94.907 26.82,34.981 4.27,3.082 13.63,-76.641 1.7,30.735 8.51,-162.809 10.23,223.152 0.85,45.145 7.24,-22.785 15.76,-9.817 5.11,-71.367 9.79,120.711 0.86,-175.637 4.25,121.379 7.67,-37.011 3.41,5.285 3.4,-9.91 2.98,-29.946 7.25,10.055 2.55,16.461 2.98,-32.543 20.02,17.976 2.13,-22.347 6.81,28.41 2.56,-99.539 4.26,81.851 3.41,11.856 4.25,-94.301 2.98,72.375 4.27,1.61 0.42,-6.762 0.43,41.305 5.53,-69.965 8.1,107.64 8.51,-20.66 4.69,23.723 17.03,-69.485 2.98,77.27 5.11,24.34 4.69,-87.742 13.63,26.226 13.63,-83.941 13.2,125.328 15.76,-42.141 10.22,33.364 3.84,-23.84 2.55,84.168 6.39,-168.399 7.24,-8.094 5.96,0.145 1.28,22.602 8.09,7.386 8.09,114.024 3.41,-61.41 30.66,70.636 14.06,-179.957 3.41,100.145 2.55,-53.93 2.56,109.961 v 0" /><path
             id="path356"
             style="fill:none;stroke:#d62728;stroke-width:10;stroke-linecap:square;stroke-linejoin:round;stroke-miterlimit:10;stroke-dasharray:none;stroke-opacity:1"
             d="m 1101.02,1132.3 10.22,-106.59 1.28,30.13 4.68,15.22 6.39,-0.82 9.79,-15.27 25.98,-65.693 1.28,-25.902 3.83,70.675 26.41,-26.25 2.13,-19.484 8.94,27.504 2.13,-12.37 2.98,-44.989 2.56,95.399 14.91,-46.81 0.85,-50.097 3.41,42.02 12.35,-63.766 8.51,39.469 23,-25.035 0.43,16.691 8.52,2.672 7.66,9.137 5.97,-43.239 26.4,-5.246 11.5,-18.379 6.82,23 2.98,3.918 0.42,12.547 14.06,-60.867 5.96,51.039 3.41,13.039 2.13,-13.871 0.85,-42.684 5.11,63.52 4.26,-40.133 18.31,0.625 3.41,29.922 3.4,-21.32 11.08,7.109 3.83,-35.898 1.7,74.793 0.85,-5.618 5.97,-76.73 0.85,-87.133 2.98,67.918 3.41,119.516 2.56,-36.188 11.92,-46.539 31.09,-18.754 14.06,-53.265 1.27,69.031 7.24,-33.649 3.83,63.668 0.43,-33.972 2.56,7.41 2.55,15.457 7.67,-38.539 1.28,-14.375 3.83,34.672 20.87,-27.848 1.28,-19.742 2.55,15.613 2.56,-12.187 6.39,70.73 2.55,-11.687 2.13,-16.614 22.15,-54.933 2.13,4.914 0.42,34.402 7.67,-78.48 5.54,81.539 5.53,11.664 16.19,-9.633 7.24,44.582 8.52,-75.453 14.9,6.566 1.28,26.582 5.96,-53.101 1.7,86.969 20.45,-85.141 2.98,-30.16 9.37,84.074 5.11,-12.711 4.26,-20.398 12.77,1.457 4.69,-108.051 3.41,120.184 2.55,-3.614 13.63,17.836 12.35,0.551 6.82,-129.711 6.81,106.023 1.71,2.891 7.23,5.848 14.91,-6.008 17.89,-13.383 3.83,33.516 2.56,-16.61 2.13,17.672 2.98,43.766 3.83,-89.66 5.96,0.144 0.86,13.871 1.27,-26.824 3.84,74.867 14.91,-24.285 10.21,12.645 8.95,-110.125 7.66,52.711 3.84,-64.786 6.81,65.848 3.41,9.27 17.04,-24.707 7.24,-53.243 4.25,50.493 1.28,51.496 8.52,-43.762 6.82,55.43 7.66,51.847 5.11,-57.636 7.24,11.296 2.56,-69.988 15.75,-78.769 1.28,118.371 0.43,-65.739 3.41,57.297 1.7,-33.988 2.98,-1.547 22.58,120.176 6.81,-124.73 9.37,-5.493 5.11,85.801 3.4,-59.285 1.71,8.535 8.52,28.527 2.13,21.227 0.42,-76.512 2.13,35.375 5.11,-17.363 1.28,3.168 2.13,-10.754 8.09,58.641 6.82,-79.442 4.25,-7.328 5.12,63.906 11.07,-24.558 3.83,31.93 14.91,21.671 0.43,-1.898 0.85,5.516 18.74,-76.813 7.24,86.203 0.85,-64.738 2.13,-77.176 10.65,134.621 0.42,-109.097 4.26,34.625 0.85,42.269 2.13,-66.992 5.97,13.266 2.55,31.429 3.83,28.715 6.39,7.691 2.56,-122.015 22.57,67.89 7.24,40.594 26.41,-52.176 7.66,-69.98 15.76,86.359 5.96,-6.363 14.91,4.352 35.35,51.156 7.67,-111.481 2.55,45.61 10.22,19.113 20.02,15.973 3.4,-30.262 15.34,34.746 6.81,-124.453 1.28,177.742 3.41,8.922 1.27,-123.445 24.71,15.468 23.85,-19.816 2.55,79.156 6.82,4.137 7.66,-128.84 0.43,77.028 14.48,67.066 4.26,-30.332 1.28,-28.164 0.42,-56.965 0.85,33.195 0.43,60.696 10.65,-41.145 14.05,-15.035 17.04,15.418 13.2,48.293 11.5,-45.422 2.13,-19.48 9.37,39.761 8.09,4.047 6.39,-115.699 6.81,59.766 12.35,32.539 1.28,-60.079 10.65,146.215 18.31,-71.84 8.52,46.325 7.67,-48.328 0.85,-109.149 0.85,97.945 2.56,78.368 11.92,-79.032 5.96,58.696 23.86,-71.418 1.7,72.332 4.68,-31.141 13.21,-31.277 3.4,-92.395 5.54,72.211 2.13,43.36 6.81,26.082 2.13,-58.129 0.85,61.804 4.26,-20.781 1.71,-82.316 12.35,7.789 5.11,49.801 22.15,-29.258 4.68,20.933 7.24,79.426 11.93,-98.055 11.07,-3.664 5.11,-92.699 4.69,82.969 1.27,-32.309 24.28,24.817 2.13,60.726 4.68,-75.812 31.09,25.719 4.69,35.371 0.42,14.328 0.86,-68.93 2.13,40.734 0.42,-2.683 10.65,21.265 2.13,-78.289 1.28,-4.898 3.4,82.762 8.52,-51.313 1.28,66.121 0.43,-93.375 6.38,53.524 9.37,-77.563 5.54,109.586 0.85,-70.531 5.54,13.176 15.76,-29.801 10.22,97.984 5.54,-114.398 10.22,-7.133 1.28,29.574 25.12,38.86 7.24,-0.188 8.95,51.328 1.28,-12.906 19.16,-4.203 1.28,19.41 6.81,-46.941 13.2,78.336 11.93,-187.102 3.41,101.711 1.7,15.516 3.41,-3.106 4.68,48.117 11.08,-35.136 2.12,-45.914 6.82,2.855 6.81,60.574 3.41,-7.812 3.84,-33.996 3.83,-70.641 4.68,53.152 0.43,-1.531 5.11,79.598 0.85,-51.145 16.19,-10.406 5.1,-95.047 8.1,103.574 9.79,-3.695 8.52,-37.395 20.44,93.465 3.84,-43.726 1.28,3.476 22.57,-25.574 1.27,48.387 8.52,31.246 0.85,-59.055 0.43,46.707 22.57,-207.746 8.52,232.649 3.41,-49.536 13.2,16.133 7.24,-88.062 7.67,7.429 3.41,-15.23 13.2,-41.301 21.29,129.508 12.35,1.359 4.69,-108 6.81,90.192 5.96,50.191 8.95,-120.074 26.41,110.715 2.12,-47.063 15.76,3.992 4.69,21.688 8.52,-58.883 0.85,-37.574 13.63,42.066 10.22,-95.234 5.11,26.926 0.85,106.89 2.55,71.364 15.76,-139.996 11.93,37.855 0.85,-18.711 1.7,13.059 6.39,26.652 17.46,-75.336 1.28,81.606 22.58,-24.184 1.27,-27.707 4.26,-44.945 7.67,88.425 0.42,22.383 7.24,-77.926 1.28,60.332 14.48,49.083 0.85,-84.161 2.99,14.153 15.33,-12.645 8.94,-125.371 10.22,101.004 2.13,-75.855 2.56,121.589 11.5,-19.39 8.52,9.054 2.13,-73.953 6.38,23.867 2.13,91.875 18.32,-89.773 11.49,65.906 6.82,-48.64 0.85,-25.953 2.56,134.25 0.85,-71.918 7.67,-39.067 9.79,96.875 3.83,-65.215 8.09,20.207 4.69,-81.148 0.85,81.652 2.56,-81.051 5.53,-2.246 7.67,-91.3 16.61,153.925 9.8,-27.648 2.13,-60.945 10.22,78.468 4.68,67.551 4.69,17.16 2.98,-155.578 2.56,113.313 10.21,-124.559 25.13,65.176 15.33,17.539 0.43,-36.309 1.7,55.746 8.52,-26.621 0.43,-112.742 0.42,93.547 3.41,12.156 18.74,-14.191 2.98,49.848 1.28,-63.434 8.09,-55.07 23,63.461 3.83,105.937 2.56,-148.254 3.83,76.016 2.98,-24.403 3.41,71.047 1.28,-112.281 5.11,84.082 11.5,-40.34 1.7,-37.461 4.69,-3.336 4.68,93.024 28.96,-84.297 5.97,72.758 3.4,21.488 5.96,-181.117 0.43,33.633 11.07,60.379 5.97,11.222 10.64,-119.683 12.36,70.007 1.27,-33.582 11.08,7.45 7.66,56.562 1.71,121.063 10.64,-79.344 22.15,59.793 6.39,-49.219 3.41,-244.859 0.42,224.41 9.37,-100.844 7.67,145.637 17.03,-247.328 8.95,119.89 13.2,39.625 22.57,46.348 4.69,-178.164 7.66,201.324 4.26,-124.82 0.43,166.117 8.09,-9.117 9.8,3.887 8.09,-104.368 12.78,50.469 3.83,7.633 1.27,-61.473 2.99,14.828 4.26,35.469 1.27,60.356 2.13,-72.977 4.26,153.902 10.22,-216.714 3.84,33.406 8.09,-76.11 7.24,50.598 26.4,121.793 14.91,-128.09 7.24,41.688 4.26,-72 2.13,106.617 4.69,5.402 2.55,39.657 2.98,-46.18 7.67,-26.793 2.13,86.742 2.13,-96.289 7.66,36.922 4.69,16.887 1.28,-37.809 8.51,-30.676 3.41,165.625 4.26,-123.504 14.91,-22.437 2.13,50.25 25.98,-111.457 0.42,-12.231 13.63,94.793 18.31,-82.902 3.41,71.687 3.41,-29.273 0.43,130.539 14.48,-102.977 4.68,18.672 5.11,32.625 7.24,-17.531 25.56,-40.859 10.21,67.418 12.78,-76.293 1.7,100.519 5.97,-25.722 7.24,-73.305 2.56,45.824 17.88,-29.656 6.82,-51.063 4.68,-147.75 3.84,142.7 3.4,59.066 8.52,-118.125 0.85,128.238 4.69,-120.988 8.52,7.43 1.27,186.875 2.13,-84.617 3.83,-48.438 29.82,19.719 8.52,18.226 0.42,-89.988 0.85,153.219 5.96,-42.856 1.71,-51.699 3.83,81.086 0.43,-47.82 2.13,-30.594 2.13,81.559 6.39,-97.25 13.2,5.57 5.11,10.746 5.11,46.496 5.96,-45.762 3.84,177.157 11.07,-146.68 2.98,22.359 0.43,-81.765 3.83,27.597 16.18,-25.812 3.41,112.726 0.43,-58.144 1.7,64.715 13.63,-12.856 20.02,-52.207 1.7,35.09 9.8,-2.469 7.66,-22.07 1.28,-61.773 8.94,15.113 4.69,-13.91 10.22,138.226 2.98,-73.457 7.24,-9.203 0.85,36.52 1.28,-132.473 8.95,46.762 0.85,142.957 2.13,-129.989 4.68,-3.726 5.11,79.105 7.24,-50.218 7.67,105.347 2.55,-111.437 4.26,-30.074 7.67,74.613 0.43,-7.559 11.49,29.262 3.41,31.516 4.26,-125.766 4.68,7.527 8.95,42.141 7.66,-102.07 13.63,-5.454 2.99,44.129 22.14,36.399 0.85,81.687 4.26,-87.554 2.98,-112.278 11.5,107.149 8.95,54.531 4.25,36.891 6.82,-40.016 0.85,53.375 2.98,-21.445 13.63,-42.168 2.13,-69.746 4.69,44.296 2.13,-68.277 18.31,166.149 1.28,-22.36 8.52,-48.48 2.55,-73.645 0.43,27.496 11.07,121.485 2.98,-94.856 26.83,-49.82 3.83,89.711 2.99,-21.383 5.53,-99.859 9.37,74.515 4.69,-16.234 4.68,100.363 5.11,-92.215 0.43,31.215 1.27,3.996 10.23,54.481 2.55,-107.344 9.8,77.891 4.26,-93.637 3.41,126.723 25.97,-81.844 3.84,39.39 3.83,-38.937 14.91,32.418 11.92,-66.047 1.28,98.527 17.04,-19.699 10.22,52.531 27.68,72 17.89,-254.101 15.33,122.554 2.13,-11.089 0.43,31.664 0.85,-44.321 5.96,21.145 5.11,25.269 9.8,-46.39 2.55,-66.512 6.39,22.277 2.56,33.176 4.26,-55.847 10.22,12.164 7.24,-33.864 9.37,6.465 13.2,-9.687 2.98,107.656 4.69,-0.492 8.52,-67.918 2.98,-46.703 2.12,70.437 17.89,-58.238 15.34,80.387 11.92,3.941 0.85,-20.699 0.43,-73.981 0.85,142.289 6.39,-17.781 2.55,3.906 2.13,-192.769 12.35,100.223 5.96,219.871 4.69,-185.926 4.26,-19.356 1.7,-17.023 0.43,33.875 15.76,-29.098 9.79,106.953 0.43,-45.441 5.11,-21.891 17.04,29.547 7.24,41.895 2.12,-15.555 3.84,-83.176 3.41,76.438 3.4,-98.285 7.25,-38.301 12.77,26.906 4.26,4.195 15.76,82.797 3.83,6.293 0.43,41.133 2.55,-22.617 6.82,37.223 2.98,38.41 11.92,-111.91 0.43,-148.176 5.96,169.918 4.69,10.394 3.83,-31.793 5.96,-61.324 16.19,103.094 1.28,-37.852 3.83,-50.218 10.65,27.929 1.7,140.242 3.83,-119.726 5.96,14.66 2.56,-4.551 0.85,-62.297 14.48,105.379 2.56,-27.91 2.55,-142.062 0.85,42.988 0.43,229.867 4.26,-148.809 8.09,-108.328 3.83,193.762 6.82,-20.019 10.64,-221.688 8.1,159.711 3.83,-87.828 7.67,81.691 11.5,76.11 9.79,20.707 0.85,-156.75 0.43,40.39 21.72,56.77 3.41,12.914 1.27,-122.219 3.84,36.91 16.18,49.821 13.21,62.406 8.51,-36.719 8.1,-12.309 13.2,-111.75 3.41,15.563 0.85,109.344 14.48,-86.074 7.24,-128.192 5.96,142.734 2.56,-197.472 11.92,156.816 1.28,-78.785 0.42,75.621 2.56,152.742 0.85,-188.609 7.24,69.543 3.41,73.844 3.83,-158.559 6.39,73.899 6.81,13.957 16.61,1.3 5.12,58.313 0.85,-50.809 8.94,77.539 2.98,-98.445 2.98,121.473 0.86,-58.051 7.23,51.371 8.1,-53.738 15.33,-68.742 11.5,24.519 2.56,-15.051 3.83,18.09 12.77,-65.91 9.8,3.285 0.43,137.621 7.66,-11.984 11.93,1.972 2.13,-6.015 5.54,-32.363 5.96,50.046 5.54,-88.761 0.85,10.168 0.42,-37.899 8.52,69.598 2.13,74.262 5.96,-142.848 4.26,101.922 2.13,-99.211 2.98,101.539 8.09,-61.199 5.11,97.972 14.91,-45.054 3.83,-64.969 20.45,-186.832 2.12,189.48 6.4,112.571 4.68,-16.879 1.7,-167.125 6.82,57.707 5.53,-142.949 8.52,159.828 3.84,-80.676 3.4,-38.543 15.33,161.875 8.52,-36.887 1.28,-34.797 6.81,32.493 6.82,55.539 30.24,22.164 4.26,-150.367 12.77,-44.473 8.1,158.574 1.27,-40.695 9.37,22.551 18.74,-25.059 8.94,-85.871 2.56,22.926 0.85,104.136 8.95,-64.121 9.37,3.957 12.35,23.469 19.59,32.66 6.81,-135.031 5.11,3.43 25.13,183.656 6.82,-4.574 13.2,79.179 3.41,-61.949 8.94,5.18 10.65,-70.078 2.13,-23.805 5.53,8.32 5.54,33.203 2.56,-71.128 17.88,56.511 0.43,-13.742 2.13,64.719 6.39,-147.86 24.7,155.239 7.24,0.035 11.5,-64.129 0.43,-36.465 3.4,80.695 6.39,-25.671 3.83,-144.239 6.39,152.547 1.7,-11.929 7.25,70.035 7.66,-101.7 7.67,53.024 6.39,-19.844 4.26,60.797 1.27,-159.566 5.11,18.027 2.13,78.293 11.93,-82.168 11.07,60.172 14.06,-25.606 6.38,90.832 15.34,-150.777 2.13,149.934 20.44,-43.262 10.22,-138.168 20.87,167.551 11.07,-5.391 1.28,-82.074 17.89,-19.777 6.82,12.144 14.9,0.309 6.39,-69.766 3.41,91.191 2.55,20.938 14.06,31.473 7.24,-18.309 1.27,-65.832 1.28,8.066 5.54,117.207 11.5,-101.39 7.66,-50.547 2.98,148.324 2.99,-144.515 9.37,74.714 8.94,-159.273 5.54,161.266 14.9,-17.832 9.8,57.937 1.28,-192.559 5.53,213.282 1.71,-47.703 2.55,27.668 18.32,-31.004 0.42,-113.911 8.09,61.34 1.28,-9.539 3.41,-48.57 0.42,173.34 0.43,-62.422 2.56,-36.449 8.51,136.754 0.86,-111.102 7.66,-34.223 21.3,63.43 5.96,-133.113 2.55,52.898 14.48,-46.711 17.47,40.407 23.42,-24.165 2.13,53.434 2.56,92.988 9.79,23.825 10.65,-42.852 5.11,-2.352 0.42,-37.648 2.56,-53.703 3.83,-40.981 7.24,-24.738 5.12,175.621 2.55,25.36 8.52,-144.918 1.7,-111.868 10.22,204.657 0.85,-28.075 3.84,25.254 31.52,-104.386 9.79,30.613 14.91,2.996 0.42,-121.098 10.22,168.879 0.85,81.321 0.43,-80.786 12.78,27.122 10.65,-17.454 2.13,-55.375 6.39,-40.347 2.55,126.617 12.78,-105.41 0.42,28.363 3.41,-76.242 1.7,10.242 2.56,-84.547 6.81,100.699 18.32,104.633 5.11,-52.859 4.68,-14.293 4.26,90.254 0.43,-256.899 1.7,191.86 1.7,-180.871 1.71,246.785 7.24,1.719 2.55,-62.719 1.71,-12.75 0.85,-75.11 10.65,38.723 8.09,51.77 2.98,-32.524 0.43,-28.801 6.81,-89.168 1.28,50.934 13.63,105.363 0.85,68.133 10.22,-139.254 5.96,150.875 21.72,-39.441 5.12,-78.957 26.82,104.191 4.27,-34.785 13.63,-72.82 1.7,53.027 8.51,67.516 10.23,-102.254 0.85,152.886 7.24,-227.867 15.76,3.055 5.11,99.215 7.67,-83.555 2.12,118.75 0.86,-4.621 4.25,110.035 7.67,-164.379 3.41,65.114 3.4,-26.114 2.98,-34.461 7.25,-52.312 2.55,47.742 2.98,1.898 20.02,137.18 8.94,-256.48 2.56,11.941 4.26,108.68 3.41,1.273 4.25,-89.937 2.98,159.328 4.27,-203.379 0.85,191.219 5.53,-37.172 8.1,-72.863 8.51,-19.805 4.69,30.613 17.03,81.988 2.98,-52.941 5.11,1.727 4.69,-1.747 13.63,43.93 13.63,-138.586 13.2,77.442 15.76,35.222 10.22,9.5 3.84,-10.789 2.55,80.664 6.39,-241.136 7.24,154.097 7.24,-128.488 8.09,112.996 8.09,-70.434 3.41,80.789 30.66,-87 14.06,143.012 3.41,-4.629 2.55,-0.004 2.56,-103.109 v 0" /><path
             id="path358"
             style="fill:none;stroke:#9467bd;stroke-width:10;stroke-linecap:square;stroke-linejoin:round;stroke-miterlimit:10;stroke-dasharray:none;stroke-opacity:1"
             d="m 1101.02,1126.6 10.22,-16.92 1.28,13.72 4.68,-42.7 16.18,-9.79 25.98,-9.47 1.28,-15.74 3.83,-7.99 26.41,10.57 2.13,55.22 11.07,-50.22 2.98,7.23 2.56,-45.24 14.91,44.66 0.85,-43.34 3.41,40.34 20.86,-35.44 23,0.16 0.43,20.06 8.52,6.31 7.66,-31.37 5.97,19.43 26.4,-11.75 11.5,-11.28 10.22,-5.6 14.06,4.59 5.96,-4.33 3.41,-6.16 2.13,34.74 0.85,-24.22 5.11,17.01 4.26,-47.787 18.31,9.18 3.41,31.237 3.4,-54.101 11.08,38.671 3.83,-8.561 1.7,-18.125 6.82,37.036 0.85,-7.34 2.98,-13.954 3.41,7.184 2.56,-13.786 11.92,-16 31.09,-32.765 14.06,5.597 1.27,31.5 7.24,-16.496 3.83,16.559 0.43,-25.832 2.56,22.59 2.55,33.403 7.67,-43.138 1.28,10.008 3.83,-21.031 20.87,36.047 1.28,-37.59 2.55,44.277 2.56,-56.64 6.39,42.918 2.55,-24.016 2.13,18.438 22.15,9.699 2.13,-34.985 0.42,72.393 7.67,-7.88 5.54,-2.63 5.53,-15.613 16.19,-35.555 7.24,50.368 8.52,-53.532 14.9,0.098 1.28,-18.035 5.96,48.14 1.7,-4.129 20.45,-9.371 2.98,24.799 9.37,-56.521 5.11,38.839 4.26,1.032 12.77,-28.309 4.69,23.344 5.96,-28.863 13.63,3.886 12.35,-27.308 6.82,33.492 6.81,11.351 1.71,-33.48 7.23,24.871 14.91,-7.543 17.89,-31.316 6.39,48.398 2.13,-19.816 2.98,14.019 3.83,10.078 5.96,-6.839 0.86,2.589 1.27,-21.257 3.84,3.621 14.91,-20.118 10.21,-11.664 8.95,26.836 7.66,1.618 3.84,-10.895 5.53,38.086 1.28,-57.496 3.41,29.758 17.04,41.765 7.24,-3.144 5.53,-17.926 8.52,-19.102 6.82,39.301 7.66,-30.179 5.11,-45.7 7.24,59.864 2.56,-8.766 15.75,-42.824 1.28,40.535 0.43,-20.231 3.41,-9.253 4.68,30.433 22.58,-5.785 2.98,-21.117 3.83,16.789 9.37,-40.457 1.7,28.324 3.41,-34.844 3.4,51.742 1.71,-4.019 8.52,2.449 2.13,-49.281 0.42,4.543 2.13,8.199 5.11,8.106 1.28,42.933 2.13,-52.715 8.09,32.727 6.82,-9.77 4.25,25.075 5.12,-42.707 11.07,1.121 3.83,42.504 14.91,-16.094 0.43,-5.817 0.85,-30.789 18.74,-11.472 3.4,69.359 3.84,-13.48 0.85,14.824 2.13,-61.52 10.65,-2.926 0.42,34.719 4.26,-28.047 0.85,50.332 2.13,-69.273 5.97,-7.574 2.55,63.093 3.83,-47.351 8.95,69.668 22.57,-63.66 7.24,-31.024 26.41,57.141 2.13,-27.535 5.53,24.824 15.76,-45.895 5.96,17.5 14.91,26.649 35.35,-32.188 7.67,21.606 2.55,-4.778 10.22,48.653 20.02,-30.781 3.4,23.683 15.34,-68.406 6.81,18.719 1.28,11.289 3.41,5.113 1.27,18.133 11.93,-13.754 12.78,-6.637 23.85,18.328 9.37,-17.418 7.66,15.063 0.43,-8.219 14.48,-88.656 4.26,32.437 1.28,60.832 0.42,-37.644 0.85,23.816 0.43,53.086 10.65,-49.801 14.05,6.618 17.04,31.117 13.2,-102.613 11.5,33.484 2.13,-23.547 9.37,47.43 8.09,12.746 6.39,-16.235 6.81,-9.828 12.35,28.082 1.28,-13.636 10.65,-35.036 18.31,20.43 8.52,29.188 7.67,-26.953 0.85,-36.77 3.41,55.738 11.92,-22.605 5.96,2.508 23.86,-10.86 1.7,91.949 4.68,-92.367 13.21,-17.941 3.4,-13.84 5.54,43.32 2.13,-23.234 6.81,-39.078 2.13,73.211 0.85,-12.797 4.26,30.836 1.71,-14.387 12.35,-3.098 5.11,-3.261 22.15,1.808 4.68,-35.394 7.24,-2.602 11.93,30.477 11.07,-42.672 5.11,14.469 4.69,-63.989 1.27,122.61 24.28,-56.668 2.13,-1.551 4.68,-31.973 31.09,50.996 4.69,-27.367 0.42,-49.551 0.86,13.801 2.55,68.985 12.78,-28.239 1.28,-110.785 3.4,130.528 8.52,-91.403 1.71,87.41 6.38,-7.711 9.37,16.317 5.54,-28.211 0.85,51.875 5.54,-49.336 15.76,-11.641 10.22,19.254 2.98,-16.656 2.56,22.289 10.22,-25.738 1.28,17.39 25.12,-22.394 7.24,2.129 8.95,22.441 1.28,-22.324 19.16,35.039 1.28,-36.82 6.81,-4.649 13.2,11.922 11.93,0.707 3.41,-23.558 1.7,-29.797 3.41,73.707 4.68,37.734 11.08,-118.414 2.12,96.738 6.82,-21.742 6.81,-8.164 3.41,-60.691 3.84,34.605 3.83,50.184 4.68,4.183 0.43,18.153 5.11,-15.196 0.85,17.563 16.19,-105.996 5.1,52.367 8.1,2.039 9.79,-73.527 8.52,3.379 20.44,119.679 3.84,-97.136 1.28,19.886 22.57,-63.347 1.27,-11.731 9.37,36.16 0.43,34.864 22.57,-39.934 8.52,28.703 3.41,39.16 13.2,-14.945 7.24,-74.188 7.67,17.266 3.41,68.969 13.2,80.574 21.29,-129.926 12.35,-18.574 4.69,137.926 6.81,-117.184 5.96,34.004 8.95,-35.676 17.03,16.926 11.5,-32.523 15.76,130.113 4.69,-114.703 8.52,102.086 0.85,-63.02 13.63,4.301 10.22,-4.898 5.96,19.925 2.55,-31.214 15.76,-65.887 12.78,106.008 1.7,-17.114 6.39,-2.3 17.46,16.449 1.28,-47.317 22.58,14.715 1.27,-14.531 4.26,-76.051 7.67,38.02 0.42,32.375 7.24,-1.641 1.28,-69.84 14.48,119.563 0.85,-86.981 2.99,36.539 15.33,80.766 8.94,-85.883 10.22,-46.484 2.13,67.344 2.56,-4.957 11.5,9.234 8.52,-74.524 2.13,39.864 6.38,50.558 2.13,-84.222 18.32,36.492 10.64,-45.11 0.85,117.176 6.82,-99.578 0.85,33.137 3.41,52.941 7.67,-18.543 9.79,-98.675 3.83,100.859 8.09,-85.211 4.69,33.594 0.85,42.98 2.56,-87.722 5.53,107.39 7.67,-18.59 16.61,-28.265 9.8,-13.473 2.13,62.16 10.22,-60.75 4.68,-3.508 4.69,19.575 2.98,30.851 2.56,-15.164 10.21,-38.82 25.13,70.551 15.33,-37.086 0.43,-89.172 1.7,169.472 8.52,-83.851 0.43,4.582 0.42,-127.043 3.41,91.504 18.74,31.316 2.98,14.285 1.28,-19.519 8.09,-67.945 23,34.652 3.83,38.379 0.85,32.773 1.71,-30.387 3.83,-24.679 2.98,4.199 3.41,1.574 1.28,21.856 5.11,34.472 11.5,-43.734 1.7,-30.23 4.69,26.128 4.68,-4.578 28.96,-104.156 5.97,76.957 3.4,10.602 5.96,23.414 0.43,-45.133 11.07,-40.242 5.97,77.226 10.64,-8.289 12.36,36.586 1.27,-31.816 11.08,-50.114 9.37,79.422 10.64,2.493 22.15,-72.543 6.39,103.949 3.41,-15.797 0.42,-63.57 9.37,-6.278 7.67,19.457 17.03,14.403 8.95,-75.989 13.2,132.207 22.57,-132.886 12.35,96.015 4.26,-59.281 0.43,90.117 8.09,-63.316 9.8,-19.192 8.09,71.34 12.78,-69.211 3.83,9.629 1.27,-67.336 2.99,98.414 4.26,21.121 1.27,-83.617 2.13,34.531 4.26,-8.785 10.22,36.582 3.84,-11.617 8.09,-11.668 7.24,-21.238 26.4,-7.356 14.91,-36.554 7.24,27.597 4.26,48.262 2.13,-27.367 4.69,-82.379 2.55,136.363 2.98,-110.207 7.67,109.293 2.13,-82.093 2.13,107.582 7.66,-11.012 4.69,-104.465 1.28,78.727 8.51,-172.254 3.41,135.425 4.26,-15.382 14.91,-16.746 2.13,118.003 25.98,-136.734 0.42,75.453 13.63,-10.715 18.31,-3.394 3.41,-42.465 3.41,69.262 0.43,-32.496 19.16,0.3 5.11,-79.3 7.24,94.121 25.56,-7.379 10.21,106.246 12.78,-74.988 1.7,-33.797 5.97,-29.973 7.24,11.188 2.56,41.738 17.88,-45.305 6.82,4.055 4.68,-34.34 3.84,33.242 3.4,42.574 8.52,43.02 0.85,-12.402 1.28,-138.641 0.85,6.437 2.56,5.079 8.52,-58.434 3.4,163.512 3.83,-52.41 29.82,6.453 8.52,8.433 0.42,-40.933 0.85,39.328 5.96,-83.891 1.71,101.969 3.83,-34.199 0.43,-64.016 2.13,128.934 2.13,-86.805 6.39,50.941 13.2,-186.332 5.11,216.778 5.11,-54.215 5.96,11.461 3.84,10.062 11.07,-80.199 2.98,9.883 0.43,46.582 3.83,52.215 16.18,-7.164 3.41,-68.848 0.43,-85.879 1.7,124.445 13.63,22.934 20.02,-27.187 1.7,53.894 9.8,-105.496 7.66,46.414 1.28,16.871 8.94,-70.937 14.91,83.621 2.98,-206.953 8.09,239.738 1.28,-73.371 8.95,45.09 0.85,-35.418 2.13,8.218 4.68,48.352 5.11,-87.836 7.24,22.375 7.67,-17.664 2.55,46.105 4.26,-27.523 7.67,81.535 0.43,-58.039 11.49,-35.105 3.41,0.718 4.26,-49.808 4.68,63.797 8.95,22.343 7.66,-68.218 13.63,85.558 2.99,-63.07 22.14,28.543 0.85,-65.777 4.26,83.179 2.98,-46.058 11.5,30.355 8.95,-63.555 4.25,75.086 6.82,-108.617 0.85,92.598 2.98,16.621 13.63,59.437 2.13,-64.851 4.69,31.383 2.13,-3.688 18.31,-93.051 1.28,42.133 8.52,-8.988 2.55,-72.441 0.43,78.726 11.07,-49.93 2.98,17.043 26.83,-1.75 3.83,67.696 2.99,-64.285 4.26,13.878 1.27,8.129 9.37,90.489 4.69,-139.078 4.68,132.21 5.54,-53.562 1.27,-48.266 10.23,87.442 2.55,-98.614 9.8,49.207 7.67,-108.468 25.97,181.058 3.84,-19.324 3.83,-93.547 14.91,110.996 11.92,-105.425 1.28,84 17.04,-72.684 10.22,-21.449 27.68,38.359 17.89,-17.199 15.33,3.484 2.13,-3.949 0.43,-64.211 0.85,46.035 5.96,14.328 5.11,-68.742 9.8,137.246 2.55,-21.609 6.39,-86.902 2.56,-10.782 14.48,237.61 7.24,-199.305 9.37,-0.039 13.2,118.066 7.67,-162.246 8.52,59.871 2.98,-37.355 2.12,118.437 17.89,-8.136 15.34,-26.856 11.92,-29.734 0.85,14.711 0.43,-3.211 0.85,-51.395 6.39,57.703 2.55,60.86 2.13,-40.098 18.31,-165.605 4.69,58.648 5.96,115.75 0.43,42.266 11.92,-50.324 3.84,15.195 9.79,-89.059 0.43,87.457 5.11,-3.914 13.2,-46.054 3.84,-36.543 7.24,93.64 2.12,-85.34 3.84,54.766 3.41,-104.34 3.4,136.563 7.25,-30.469 12.77,-69.285 4.26,-12.989 15.76,0.606 3.83,70.781 0.43,29.555 2.55,-150.453 6.82,60.504 2.98,75.257 11.92,-39.062 0.43,-63.949 3.83,98.765 2.13,13.285 4.69,-69.027 3.83,16.074 5.96,-24.328 16.19,-73.398 1.28,126.976 3.83,-10.379 10.65,56.426 1.7,-120.48 3.83,64.441 5.96,40.164 2.56,-108.179 0.85,12.257 14.48,67.653 5.11,-43.442 1.28,38.485 4.26,-17.727 8.09,-71.027 3.83,26.226 6.82,-6.328 10.64,99.477 8.1,-72.731 3.83,40.84 7.67,-41.265 11.5,16.902 9.79,-21.094 0.85,38.664 0.43,-5.109 21.72,70.816 3.41,-199.515 1.27,144.582 3.84,-50.008 16.18,51.867 13.21,-18.254 8.51,-36.543 8.1,65.871 13.2,-14.222 3.41,-27.293 0.85,-103.508 14.48,90.566 7.24,110.18 5.96,-85 2.56,-7.774 11.92,-32.277 1.28,82.781 0.42,-33.617 2.56,-29.441 0.85,14.234 7.24,87.242 3.41,-74.215 3.83,37.184 6.39,-157.773 6.81,138.527 16.61,26.289 5.97,-85.359 4.26,55.011 4.68,-4.164 2.98,-81.468 2.98,18.625 0.86,115 15.33,-187.754 15.33,55.847 11.5,120.52 2.56,-63.293 3.83,0.789 12.77,-88.262 9.8,77.328 0.43,32.473 7.66,-52.281 11.93,141.691 2.13,-144.855 5.54,14.429 5.96,-22.777 3.4,76.145 2.14,-44.036 0.85,48.555 0.42,-87.426 8.52,-38.617 2.13,-1.605 5.96,63.933 4.26,-3.472 2.13,37.328 2.98,-78.766 8.09,1.133 5.11,61.691 14.91,-25.226 3.83,54.426 20.45,29.484 2.12,-128.926 6.4,74.152 4.68,-58.187 1.7,99.734 6.82,-70.757 5.53,4.589 8.52,3.043 3.84,-33.562 3.4,-3.492 15.33,-3.981 8.52,-26.871 1.28,90.902 6.81,70.555 6.82,-127.016 30.24,43.543 3.83,-31.449 0.43,82.867 12.77,-46.699 8.1,-22.441 1.27,25.691 9.37,-1.344 18.74,-114.683 8.94,47.015 3.41,50.094 8.95,-117.527 9.37,124.808 12.35,52.356 19.59,-6.191 6.81,-81.778 5.11,-78.582 25.13,105.688 6.82,35.422 13.2,48.136 3.41,-75.367 8.94,28.527 10.65,-10.312 2.13,-23.266 5.53,44.012 5.54,-37.059 2.56,-3.14 17.88,15.504 0.43,-30.414 2.13,79.16 6.39,-31.988 24.7,-13.793 18.74,-18.579 0.43,48.547 3.4,-37.914 6.39,-52.961 3.83,115.434 6.39,-14.137 1.7,20.774 7.25,-61.219 7.66,-107.485 14.06,142.211 4.26,-44.234 1.27,77.715 5.11,-130.641 0.43,179.403 1.7,-216.715 11.93,155.57 11.07,-43.437 14.06,-116.918 6.38,21.617 15.34,68.031 2.13,62.703 20.44,14.86 1.7,-92.231 8.52,74.332 20.87,15.051 12.35,-70.817 17.89,-4.695 6.82,71.61 14.9,-57.641 6.39,-5.277 3.41,5.406 2.55,30.207 14.06,-142.336 7.24,120.488 1.27,-48.398 1.28,-1.34 5.54,58.879 11.5,-2.254 7.66,-52.676 2.98,-54.234 2.99,101.609 9.37,-36.855 8.94,-51.981 5.54,69.688 14.9,131.054 9.8,-87.996 1.28,9.778 5.53,-14.446 4.26,-75.793 18.32,90.461 0.42,-15.832 8.09,-167.625 1.28,67.024 3.41,33 0.85,79.601 2.56,-84.394 8.51,31.301 0.86,-48.336 7.66,93.671 21.3,-73.242 5.96,59.125 2.55,51.848 14.48,-106.977 17.47,139.774 11.92,-58.672 11.5,-76.055 2.13,63.199 2.56,-71.828 9.79,89.934 10.65,-41.816 5.53,32.886 2.56,-16.765 3.83,-36.161 7.24,-28.335 5.12,30.558 2.55,29.586 8.52,-45.883 1.7,0.473 10.22,-15.817 0.85,115.043 3.84,-185.031 21.29,12.938 10.23,61.445 9.79,-73.465 14.91,123.672 0.42,34.211 10.22,-62.613 0.85,15.98 0.43,69.653 12.78,-172.063 10.65,137.664 2.13,-27.051 6.39,-2.398 2.55,-27.043 12.78,14.859 3.83,-55.301 1.7,-19.82 2.56,-63.89 6.81,117.64 18.32,-53.699 5.11,48.625 4.68,5.57 4.69,-5.34 1.7,-24.988 1.7,40.328 1.71,99.586 7.24,-51.32 2.55,36.859 2.56,-112.593 10.65,65.695 8.09,-12.91 2.98,21.113 0.43,-62.117 6.81,-63.528 1.28,44.481 13.63,103.613 0.85,-85.637 10.22,-16.878 5.96,14.988 21.72,-24.422 5.12,58.187 26.82,-97.746 4.27,92.336 13.63,46.524 1.7,-25.758 8.51,-60.281 10.23,40.304 0.85,-30.972 7.24,92.336 15.76,-153.02 5.11,88.711 7.67,59.188 2.12,-93.606 0.86,95.449 4.25,-102.992 7.67,43.684 3.41,-56.696 3.4,71.235 2.98,14.629 7.25,-123.289 2.55,104.484 2.98,-76.77 20.02,29.54 2.13,109.945 6.81,-64.317 2.56,59.27 7.67,-34 4.25,47.269 2.98,-144.996 4.27,85.829 0.42,52.082 0.43,-175.555 5.53,26.129 8.1,24.64 8.51,141.899 4.69,-66.953 17.03,-68.762 2.98,5.82 5.11,40.735 4.69,-139.903 13.63,44.309 13.63,-9.375 13.2,125.473 15.76,13.328 10.22,3.843 3.84,-65.375 2.55,7.758 6.39,-43.574 7.24,62.492 5.96,-71.664 1.28,71.524 8.09,-2.09 8.09,-220.16 3.41,166.738 30.66,97.105 14.06,16.825 3.41,-8.594 2.55,-115.473 2.56,27.012 v 0" /></g></g><path
         id="path360"
         style="fill:none;stroke:#000000;stroke-width:8;stroke-linecap:square;stroke-linejoin:miter;stroke-miterlimit:10;stroke-dasharray:none;stroke-opacity:1"
         d="M 760.703,416.805 V 2367.14" /><path
         id="path362"
         style="fill:none;stroke:#000000;stroke-width:8;stroke-linecap:square;stroke-linejoin:miter;stroke-miterlimit:10;stroke-dasharray:none;stroke-opacity:1"
         d="M 8247.6,416.805 V 2367.14" /><path
         id="path364"
         style="fill:none;stroke:#000000;stroke-width:8;stroke-linecap:square;stroke-linejoin:miter;stroke-miterlimit:10;stroke-dasharray:none;stroke-opacity:1"
         d="M 760.703,416.805 H 8247.6" /><path
         id="path366"
         style="fill:none;stroke:#000000;stroke-width:8;stroke-linecap:square;stroke-linejoin:miter;stroke-miterlimit:10;stroke-dasharray:none;stroke-opacity:1"
         d="M 760.703,2367.14 H 8247.6" /><path
         id="path368"
         style="fill:#ffffff;fill-opacity:1;fill-rule:nonzero;stroke:none"
         d="M 5389.95,1946.98 H 8177.6 c 13.33,0 20,6.67 20,20 v 330.16 c 0,13.34 -6.67,20 -20,20 H 5389.95 c -13.34,0 -20,-6.66 -20,-20 v -330.16 c 0,-13.33 6.66,-20 20,-20" /><path
         id="path370"
         style="fill:none;stroke:#cccccc;stroke-width:10;stroke-linecap:butt;stroke-linejoin:miter;stroke-miterlimit:10;stroke-dasharray:none;stroke-opacity:1"
         d="M 5389.95,1946.98 H 8177.6 c 13.33,0 20,6.67 20,20 v 330.16 c 0,13.34 -6.67,20 -20,20 H 5389.95 c -13.34,0 -20,-6.66 -20,-20 v -330.16 c 0,-13.33 6.66,-20 20,-20 z" /><path
         id="path372"
         style="fill:none;stroke:#1f77b4;stroke-width:10;stroke-linecap:square;stroke-linejoin:round;stroke-miterlimit:10;stroke-dasharray:none;stroke-opacity:1"
         d="m 5409.95,2236.2 h 200" /><g
         transform="scale(10)"
         id="g374"><text
           id="text378"
           style="font-variant:normal;font-weight:normal;font-size:10px;font-family:Arial;-inkscape-font-specification:Arial;writing-mode:lr-tb;fill:#000000;fill-opacity:1;fill-rule:nonzero;stroke:none"
           transform="matrix(1,0,0,-1,568.995,220.12)"><tspan
             id="tspan376"
             y="0"
             x="0 6.0300002 8.8085356 14.936289 17.714825">Plain</tspan></text>
</g><path
         id="path380"
         style="fill:none;stroke:#ff7f0e;stroke-width:10;stroke-linecap:square;stroke-linejoin:round;stroke-miterlimit:10;stroke-dasharray:none;stroke-opacity:1"
         d="m 5409.95,2139.48 h 200" /><g
         transform="scale(10)"
         id="g382"><text
           id="text386"
           style="font-variant:normal;font-weight:normal;font-size:10px;font-family:Arial;-inkscape-font-specification:Arial;writing-mode:lr-tb;fill:#000000;fill-opacity:1;fill-rule:nonzero;stroke:none"
           transform="matrix(1,0,0,-1,568.995,210.448)"><tspan
             id="tspan384"
             y="0"
             x="0 6.9824414 13.10039 19.438292 25.356239 28.535166 31.713701 35.615265 43.7938 46.572334 50.493019 56.830917 60.009842 65.580917 71.943405">Conv. (with L2)</tspan></text>
</g><path
         id="path388"
         style="fill:none;stroke:#2ca02c;stroke-width:10;stroke-linecap:square;stroke-linejoin:round;stroke-miterlimit:10;stroke-dasharray:none;stroke-opacity:1"
         d="m 5409.95,2042.77 h 200" /><g
         transform="scale(10)"
         id="g390"><text
           id="text394"
           style="font-variant:normal;font-weight:normal;font-size:10px;font-family:Arial;-inkscape-font-specification:Arial;writing-mode:lr-tb;fill:#000000;fill-opacity:1;fill-rule:nonzero;stroke:none"
           transform="matrix(1,0,0,-1,568.995,200.777)"><tspan
             id="tspan392"
             y="0"
             x="0 6.9824414 13.10039 19.438292 25.356239 28.535166 31.713701 35.615265 43.7938 46.572334 50.493019 56.830917 62.949257 69.287155 73.20784 76.386765 81.95784 88.320335">Conv. (without L2)</tspan></text>
</g><path
         id="path396"
         style="fill:none;stroke:#d62728;stroke-width:10;stroke-linecap:square;stroke-linejoin:round;stroke-miterlimit:10;stroke-dasharray:none;stroke-opacity:1"
         d="m 6813.07,2236.2 h 200" /><g
         transform="scale(10)"
         id="g398"><text
           id="text402"
           style="font-variant:normal;font-weight:normal;font-size:10px;font-family:Arial;-inkscape-font-specification:Arial;writing-mode:lr-tb;fill:#000000;fill-opacity:1;fill-rule:nonzero;stroke:none"
           transform="matrix(1,0,0,-1,709.307,220.12)"><tspan
             id="tspan400"
             y="0"
             x="0 6.9480467 13.10039 18.31039 21.088535 27.436192 33.774094 39.902237 42.680382 45.859306 49.760479 57.939404 60.717548 64.638626 70.976524 74.15506 79.726524 86.088623">Residual (with L2)</tspan></text>
</g><path
         id="path404"
         style="fill:none;stroke:#9467bd;stroke-width:10;stroke-linecap:square;stroke-linejoin:round;stroke-miterlimit:10;stroke-dasharray:none;stroke-opacity:1"
         d="m 6813.07,2139.48 h 200" /><g
         transform="scale(10)"
         id="g406"><text
           id="text410"
           style="font-variant:normal;font-weight:normal;font-size:10px;font-family:Arial;-inkscape-font-specification:Arial;writing-mode:lr-tb;fill:#000000;fill-opacity:1;fill-rule:nonzero;stroke:none"
           transform="matrix(1,0,0,-1,709.307,210.448)"><tspan
             id="tspan408"
             y="0"
             x="0 6.9480467 13.10039 18.31039 21.088535 27.436192 33.774094 39.902237 42.680382 45.859306 49.760479 57.939404 60.717548 64.638626 70.976524 77.094475 83.432373 87.353447 90.531982 96.103447 102.46555">Residual (without L2)</tspan></text>
</g></g></g></svg>