<?xml version="1.0" encoding="UTF-8" standalone="no"?>
<svg
   xmlns:dc="http://purl.org/dc/elements/1.1/"
   xmlns:cc="http://creativecommons.org/ns#"
   xmlns:rdf="http://www.w3.org/1999/02/22-rdf-syntax-ns#"
   xmlns:svg="http://www.w3.org/2000/svg"
   xmlns="http://www.w3.org/2000/svg"
   viewBox="0 0 937.33331 529.33331"
   height="529.33331"
   width="937.33331"
   xml:space="preserve"
   id="svg2"
   version="1.1"><metadata
     id="metadata8"><rdf:RDF><cc:Work
         rdf:about=""><dc:format>image/svg+xml</dc:format><dc:type
           rdf:resource="http://purl.org/dc/dcmitype/StillImage" /></cc:Work></rdf:RDF></metadata><defs
     id="defs6"><clipPath
       id="clipPath14"
       clipPathUnits="userSpaceOnUse"><path
         id="path12"
         d="M 0,0 H 1684 V 595 H 0 Z" /></clipPath><clipPath
       id="clipPath22"
       clipPathUnits="userSpaceOnUse"><path
         style="clip-rule:evenodd"
         id="path20"
         d="M 0,-0.2 H 1683.7 V 595 H 0 Z" /></clipPath><clipPath
       id="clipPath34"
       clipPathUnits="userSpaceOnUse"><path
         style="clip-rule:evenodd"
         id="path32"
         d="M 0,-0.2 H 1683.7 V 595 H 0 Z" /></clipPath><clipPath
       id="clipPath52"
       clipPathUnits="userSpaceOnUse"><path
         style="clip-rule:evenodd"
         id="path50"
         d="M 0,-0.2 H 1683.7 V 595 H 0 Z" /></clipPath><clipPath
       id="clipPath64"
       clipPathUnits="userSpaceOnUse"><path
         style="clip-rule:evenodd"
         id="path62"
         d="M 0,-0.2 H 1683.7 V 595 H 0 Z" /></clipPath><clipPath
       id="clipPath76"
       clipPathUnits="userSpaceOnUse"><path
         style="clip-rule:evenodd"
         id="path74"
         d="M 0,-0.2 H 1683.7 V 595 H 0 Z" /></clipPath><clipPath
       id="clipPath88"
       clipPathUnits="userSpaceOnUse"><path
         style="clip-rule:evenodd"
         id="path86"
         d="M 0,-0.2 H 1683.7 V 595 H 0 Z" /></clipPath><clipPath
       id="clipPath100"
       clipPathUnits="userSpaceOnUse"><path
         style="clip-rule:evenodd"
         id="path98"
         d="M 0,-0.2 H 1683.7 V 595 H 0 Z" /></clipPath><clipPath
       id="clipPath112"
       clipPathUnits="userSpaceOnUse"><path
         style="clip-rule:evenodd"
         id="path110"
         d="M 0,-0.2 H 1683.7 V 595 H 0 Z" /></clipPath><clipPath
       id="clipPath124"
       clipPathUnits="userSpaceOnUse"><path
         style="clip-rule:evenodd"
         id="path122"
         d="M 0,-0.2 H 1683.7 V 595 H 0 Z" /></clipPath><clipPath
       id="clipPath136"
       clipPathUnits="userSpaceOnUse"><path
         style="clip-rule:evenodd"
         id="path134"
         d="M 0,-0.2 H 1683.7 V 595 H 0 Z" /></clipPath><clipPath
       id="clipPath148"
       clipPathUnits="userSpaceOnUse"><path
         style="clip-rule:evenodd"
         id="path146"
         d="M 0,-0.2 H 1683.7 V 595 H 0 Z" /></clipPath><clipPath
       id="clipPath160"
       clipPathUnits="userSpaceOnUse"><path
         style="clip-rule:evenodd"
         id="path158"
         d="M 0,-0.2 H 1683.7 V 595 H 0 Z" /></clipPath><clipPath
       id="clipPath172"
       clipPathUnits="userSpaceOnUse"><path
         style="clip-rule:evenodd"
         id="path170"
         d="M 0,-0.2 H 1683.7 V 595 H 0 Z" /></clipPath><clipPath
       id="clipPath184"
       clipPathUnits="userSpaceOnUse"><path
         style="clip-rule:evenodd"
         id="path182"
         d="M 0,-0.2 H 1683.7 V 595 H 0 Z" /></clipPath><clipPath
       id="clipPath196"
       clipPathUnits="userSpaceOnUse"><path
         style="clip-rule:evenodd"
         id="path194"
         d="M 0,-0.2 H 1683.7 V 595 H 0 Z" /></clipPath><clipPath
       id="clipPath208"
       clipPathUnits="userSpaceOnUse"><path
         style="clip-rule:evenodd"
         id="path206"
         d="M 0,-0.2 H 1683.7 V 595 H 0 Z" /></clipPath><clipPath
       id="clipPath220"
       clipPathUnits="userSpaceOnUse"><path
         style="clip-rule:evenodd"
         id="path218"
         d="M 0,-0.2 H 1683.7 V 595 H 0 Z" /></clipPath><clipPath
       id="clipPath232"
       clipPathUnits="userSpaceOnUse"><path
         style="clip-rule:evenodd"
         id="path230"
         d="M 0,-0.2 H 1683.7 V 595 H 0 Z" /></clipPath><clipPath
       id="clipPath244"
       clipPathUnits="userSpaceOnUse"><path
         style="clip-rule:evenodd"
         id="path242"
         d="M 0,-0.2 H 1683.7 V 595 H 0 Z" /></clipPath><clipPath
       id="clipPath256"
       clipPathUnits="userSpaceOnUse"><path
         style="clip-rule:evenodd"
         id="path254"
         d="M 0,-0.2 H 1683.7 V 595 H 0 Z" /></clipPath><clipPath
       id="clipPath268"
       clipPathUnits="userSpaceOnUse"><path
         style="clip-rule:evenodd"
         id="path266"
         d="M 0,-0.2 H 1683.7 V 595 H 0 Z" /></clipPath><clipPath
       id="clipPath280"
       clipPathUnits="userSpaceOnUse"><path
         style="clip-rule:evenodd"
         id="path278"
         d="M 0,-0.2 H 1683.7 V 595 H 0 Z" /></clipPath><clipPath
       id="clipPath292"
       clipPathUnits="userSpaceOnUse"><path
         style="clip-rule:evenodd"
         id="path290"
         d="M 0,-0.2 H 1683.7 V 595 H 0 Z" /></clipPath><clipPath
       id="clipPath304"
       clipPathUnits="userSpaceOnUse"><path
         style="clip-rule:evenodd"
         id="path302"
         d="M 0,-0.2 H 1683.7 V 595 H 0 Z" /></clipPath><clipPath
       id="clipPath316"
       clipPathUnits="userSpaceOnUse"><path
         style="clip-rule:evenodd"
         id="path314"
         d="M 0,-0.2 H 1683.7 V 595 H 0 Z" /></clipPath><clipPath
       id="clipPath328"
       clipPathUnits="userSpaceOnUse"><path
         style="clip-rule:evenodd"
         id="path326"
         d="M 0,-0.2 H 1683.7 V 595 H 0 Z" /></clipPath><clipPath
       id="clipPath340"
       clipPathUnits="userSpaceOnUse"><path
         style="clip-rule:evenodd"
         id="path338"
         d="M 0,-0.2 H 1683.7 V 595 H 0 Z" /></clipPath><clipPath
       id="clipPath352"
       clipPathUnits="userSpaceOnUse"><path
         style="clip-rule:evenodd"
         id="path350"
         d="M 0,-0.2 H 1683.7 V 595 H 0 Z" /></clipPath><clipPath
       id="clipPath364"
       clipPathUnits="userSpaceOnUse"><path
         style="clip-rule:evenodd"
         id="path362"
         d="M 0,-0.2 H 1683.7 V 595 H 0 Z" /></clipPath><clipPath
       id="clipPath376"
       clipPathUnits="userSpaceOnUse"><path
         style="clip-rule:evenodd"
         id="path374"
         d="M 0,-0.2 H 1683.7 V 595 H 0 Z" /></clipPath><clipPath
       id="clipPath388"
       clipPathUnits="userSpaceOnUse"><path
         style="clip-rule:evenodd"
         id="path386"
         d="M 0,-0.2 H 1683.7 V 595 H 0 Z" /></clipPath><clipPath
       id="clipPath400"
       clipPathUnits="userSpaceOnUse"><path
         style="clip-rule:evenodd"
         id="path398"
         d="M 0,-0.2 H 1683.7 V 595 H 0 Z" /></clipPath><clipPath
       id="clipPath412"
       clipPathUnits="userSpaceOnUse"><path
         style="clip-rule:evenodd"
         id="path410"
         d="M 0,-0.2 H 1683.7 V 595 H 0 Z" /></clipPath><clipPath
       id="clipPath424"
       clipPathUnits="userSpaceOnUse"><path
         style="clip-rule:evenodd"
         id="path422"
         d="M 0,-0.2 H 1683.7 V 595 H 0 Z" /></clipPath><clipPath
       id="clipPath436"
       clipPathUnits="userSpaceOnUse"><path
         style="clip-rule:evenodd"
         id="path434"
         d="M 0,-0.2 H 1683.7 V 595 H 0 Z" /></clipPath><clipPath
       id="clipPath448"
       clipPathUnits="userSpaceOnUse"><path
         style="clip-rule:evenodd"
         id="path446"
         d="M 0,-0.2 H 1683.7 V 595 H 0 Z" /></clipPath><clipPath
       id="clipPath460"
       clipPathUnits="userSpaceOnUse"><path
         style="clip-rule:evenodd"
         id="path458"
         d="M 0,-0.2 H 1683.7 V 595 H 0 Z" /></clipPath><clipPath
       id="clipPath472"
       clipPathUnits="userSpaceOnUse"><path
         style="clip-rule:evenodd"
         id="path470"
         d="M 0,-0.2 H 1683.7 V 595 H 0 Z" /></clipPath><clipPath
       id="clipPath484"
       clipPathUnits="userSpaceOnUse"><path
         style="clip-rule:evenodd"
         id="path482"
         d="M 0,-0.2 H 1683.7 V 595 H 0 Z" /></clipPath><clipPath
       id="clipPath496"
       clipPathUnits="userSpaceOnUse"><path
         style="clip-rule:evenodd"
         id="path494"
         d="M 0,-0.2 H 1683.7 V 595 H 0 Z" /></clipPath><clipPath
       id="clipPath508"
       clipPathUnits="userSpaceOnUse"><path
         style="clip-rule:evenodd"
         id="path506"
         d="M 0,-0.2 H 1683.7 V 595 H 0 Z" /></clipPath><clipPath
       id="clipPath520"
       clipPathUnits="userSpaceOnUse"><path
         style="clip-rule:evenodd"
         id="path518"
         d="M 0,-0.2 H 1683.7 V 595 H 0 Z" /></clipPath><clipPath
       id="clipPath538"
       clipPathUnits="userSpaceOnUse"><path
         style="clip-rule:evenodd"
         id="path536"
         d="M 0,-0.2 H 1683.7 V 595 H 0 Z" /></clipPath><clipPath
       id="clipPath550"
       clipPathUnits="userSpaceOnUse"><path
         style="clip-rule:evenodd"
         id="path548"
         d="M 0,-0.2 H 1683.7 V 595 H 0 Z" /></clipPath><clipPath
       id="clipPath566"
       clipPathUnits="userSpaceOnUse"><path
         style="clip-rule:evenodd"
         id="path564"
         d="M 0,-0.2 H 1683.7 V 595 H 0 Z" /></clipPath><clipPath
       id="clipPath578"
       clipPathUnits="userSpaceOnUse"><path
         style="clip-rule:evenodd"
         id="path576"
         d="M 0,-0.2 H 1683.7 V 595 H 0 Z" /></clipPath><clipPath
       id="clipPath598"
       clipPathUnits="userSpaceOnUse"><path
         style="clip-rule:evenodd"
         id="path596"
         d="M 0,-0.2 H 1683.7 V 595 H 0 Z" /></clipPath><clipPath
       id="clipPath610"
       clipPathUnits="userSpaceOnUse"><path
         style="clip-rule:evenodd"
         id="path608"
         d="M 0,-0.2 H 1683.7 V 595 H 0 Z" /></clipPath><clipPath
       id="clipPath622"
       clipPathUnits="userSpaceOnUse"><path
         style="clip-rule:evenodd"
         id="path620"
         d="M 0,-0.2 H 1683.7 V 595 H 0 Z" /></clipPath><clipPath
       id="clipPath634"
       clipPathUnits="userSpaceOnUse"><path
         style="clip-rule:evenodd"
         id="path632"
         d="M 0,-0.2 H 1683.7 V 595 H 0 Z" /></clipPath><clipPath
       id="clipPath654"
       clipPathUnits="userSpaceOnUse"><path
         style="clip-rule:evenodd"
         id="path652"
         d="M 0,-0.2 H 1683.7 V 595 H 0 Z" /></clipPath><clipPath
       id="clipPath666"
       clipPathUnits="userSpaceOnUse"><path
         style="clip-rule:evenodd"
         id="path664"
         d="M 0,-0.2 H 1683.7 V 595 H 0 Z" /></clipPath><clipPath
       id="clipPath702"
       clipPathUnits="userSpaceOnUse"><path
         style="clip-rule:evenodd"
         id="path700"
         d="M 0,-0.2 H 1683.7 V 595 H 0 Z" /></clipPath><clipPath
       id="clipPath714"
       clipPathUnits="userSpaceOnUse"><path
         style="clip-rule:evenodd"
         id="path712"
         d="M 0,-0.2 H 1683.7 V 595 H 0 Z" /></clipPath><clipPath
       id="clipPath726"
       clipPathUnits="userSpaceOnUse"><path
         style="clip-rule:evenodd"
         id="path724"
         d="M 0,-0.2 H 1683.7 V 595 H 0 Z" /></clipPath><clipPath
       id="clipPath738"
       clipPathUnits="userSpaceOnUse"><path
         style="clip-rule:evenodd"
         id="path736"
         d="M 0,-0.2 H 1683.7 V 595 H 0 Z" /></clipPath></defs><g
     clip-path="url(#clipPath14)"
     transform="matrix(1.3333333,0,0,-1.3333333,-48,709.33333)"
     id="g10"><g
       transform="matrix(1.5303497,0,0,1.5303497,-26.368149,-275.58093)"
       id="g16"><g
         clip-path="url(#clipPath22)"
         id="g18"><g
           transform="translate(116.2,411.3)"
           id="g24"><path
             id="path26"
             style="fill:#ffffff;fill-opacity:1;fill-rule:evenodd;stroke:none"
             d="M 0,0 V -99.2 H -59.5 V 99.2 H 0 Z" /></g></g></g><g
       transform="matrix(1.5303497,0,0,1.5303497,-26.368149,-275.58093)"
       id="g28"><g
         clip-path="url(#clipPath34)"
         id="g30"><g
           transform="translate(116.2,411.3)"
           id="g36"><path
             id="path38"
             style="fill:none;stroke:#000000;stroke-width:2.29200006;stroke-linecap:butt;stroke-linejoin:round;stroke-miterlimit:10;stroke-dasharray:none;stroke-opacity:1"
             d="M 0,0 V -99.2 H -59.5 V 99.2 H 0 Z" /></g></g></g><text
       id="text44"
       style="font-variant:normal;font-weight:normal;font-size:27.54540062px;font-family:'Palatino Linotype';-inkscape-font-specification:'Palatino Linotype'-Roman;writing-mode:lr-tb;fill:#000000;fill-opacity:1;fill-rule:nonzero;stroke:none"
       transform="matrix(0,1,1,0,97.8962,327.2238)"><tspan
         id="tspan40"
         y="0"
         x="0 18.372782 31.533367 45.306068">Real</tspan><tspan
         id="tspan42"
         y="36.88023"
         x="-31.218121 -12.845338 0.31524792 12.098564 28.625805 43.775776 59.690899 71.474213">Response</tspan></text>
<g
       transform="matrix(1.5303497,0,0,1.5303497,-26.368149,-275.58093)"
       id="g46"><g
         clip-path="url(#clipPath52)"
         id="g48"><g
           transform="translate(163.8,482.2)"
           id="g54"><path
             id="path56"
             style="fill:#ffff99;fill-opacity:1;fill-rule:evenodd;stroke:none"
             d="m 0,0 c -5.4,0 -10.7,-5.3 -10.7,-10.7 v -120.4 c 0,-5.3 5.3,-10.7 10.7,-10.7 h 92 c 5.3,0 10.7,5.4 10.7,10.7 V -10.7 C 102.7,-5.3 97.3,0 92,0 Z" /></g></g></g><g
       transform="matrix(1.5303497,0,0,1.5303497,-26.368149,-275.58093)"
       id="g58"><g
         clip-path="url(#clipPath64)"
         id="g60"><g
           transform="translate(163.8,482.2)"
           id="g66"><path
             id="path68"
             style="fill:none;stroke:#000000;stroke-width:2.29200006;stroke-linecap:butt;stroke-linejoin:round;stroke-miterlimit:10;stroke-dasharray:none;stroke-opacity:1"
             d="m 0,0 c -5.4,0 -10.7,-5.3 -10.7,-10.7 v -120.4 c 0,-5.3 5.3,-10.7 10.7,-10.7 h 92 c 5.3,0 10.7,5.4 10.7,10.7 V -10.7 C 102.7,-5.3 97.3,0 92,0 Z" /></g></g></g><g
       transform="matrix(1.5303497,0,0,1.5303497,-26.368149,-275.58093)"
       id="g70"><g
         clip-path="url(#clipPath76)"
         id="g72"><g
           transform="translate(174.3,448.2)"
           id="g78"><path
             id="path80"
             style="fill:#ffffff;fill-opacity:1;fill-rule:evenodd;stroke:none"
             d="m 0,0 c 4.1,0 7.1,-3.1 7.1,-7.1 0,-4 -3,-7.1 -7.1,-7.1 -4,0 -7.1,3.1 -7.1,7.1 0,4 3.1,7.1 7.1,7.1 z" /></g></g></g><g
       transform="matrix(1.5303497,0,0,1.5303497,-26.368149,-275.58093)"
       id="g82"><g
         clip-path="url(#clipPath88)"
         id="g84"><g
           transform="translate(174.3,448.2)"
           id="g90"><path
             id="path92"
             style="fill:none;stroke:#000000;stroke-width:3;stroke-linecap:butt;stroke-linejoin:round;stroke-miterlimit:10;stroke-dasharray:none;stroke-opacity:1"
             d="m 0,0 c 4.1,0 7.1,-3.1 7.1,-7.1 0,-4 -3,-7.1 -7.1,-7.1 -4,0 -7.1,3.1 -7.1,7.1 0,4 3.1,7.1 7.1,7.1 z" /></g></g></g><g
       transform="matrix(1.5303497,0,0,1.5303497,-26.368149,-275.58093)"
       id="g94"><g
         clip-path="url(#clipPath100)"
         id="g96"><g
           transform="translate(174.3,419.8)"
           id="g102"><path
             id="path104"
             style="fill:#ffffff;fill-opacity:1;fill-rule:evenodd;stroke:none"
             d="m 0,0 c 4.1,0 7.1,-3 7.1,-7.1 0,-4 -3,-7.1 -7.1,-7.1 -4,0 -7.1,3.1 -7.1,7.1 C -7.1,-3 -4,0 0,0 Z" /></g></g></g><g
       transform="matrix(1.5303497,0,0,1.5303497,-26.368149,-275.58093)"
       id="g106"><g
         clip-path="url(#clipPath112)"
         id="g108"><g
           transform="translate(174.3,419.8)"
           id="g114"><path
             id="path116"
             style="fill:none;stroke:#000000;stroke-width:3;stroke-linecap:butt;stroke-linejoin:round;stroke-miterlimit:10;stroke-dasharray:none;stroke-opacity:1"
             d="m 0,0 c 4.1,0 7.1,-3 7.1,-7.1 0,-4 -3,-7.1 -7.1,-7.1 -4,0 -7.1,3.1 -7.1,7.1 C -7.1,-3 -4,0 0,0 Z" /></g></g></g><g
       transform="matrix(1.5303497,0,0,1.5303497,-26.368149,-275.58093)"
       id="g118"><g
         clip-path="url(#clipPath124)"
         id="g120"><g
           transform="translate(174.3,391.5)"
           id="g126"><path
             id="path128"
             style="fill:#ffffff;fill-opacity:1;fill-rule:evenodd;stroke:none"
             d="m 0,0 c 4.1,0 7.1,-3.1 7.1,-7.1 0,-4 -3,-7.1 -7.1,-7.1 -4,0 -7.1,3.1 -7.1,7.1 0,4 3.1,7.1 7.1,7.1 z" /></g></g></g><g
       transform="matrix(1.5303497,0,0,1.5303497,-26.368149,-275.58093)"
       id="g130"><g
         clip-path="url(#clipPath136)"
         id="g132"><g
           transform="translate(174.3,391.5)"
           id="g138"><path
             id="path140"
             style="fill:none;stroke:#000000;stroke-width:3;stroke-linecap:butt;stroke-linejoin:round;stroke-miterlimit:10;stroke-dasharray:none;stroke-opacity:1"
             d="m 0,0 c 4.1,0 7.1,-3.1 7.1,-7.1 0,-4 -3,-7.1 -7.1,-7.1 -4,0 -7.1,3.1 -7.1,7.1 0,4 3.1,7.1 7.1,7.1 z" /></g></g></g><g
       transform="matrix(1.5303497,0,0,1.5303497,-26.368149,-275.58093)"
       id="g142"><g
         clip-path="url(#clipPath148)"
         id="g144"><g
           transform="translate(211.2,462.3)"
           id="g150"><path
             id="path152"
             style="fill:#ffffff;fill-opacity:1;fill-rule:evenodd;stroke:none"
             d="m 0,0 c 4,0 7.1,-3 7.1,-7 0,-4.1 -3.1,-7.1 -7.1,-7.1 -4,0 -7.1,3 -7.1,7.1 0,4 3.1,7 7.1,7 z" /></g></g></g><g
       transform="matrix(1.5303497,0,0,1.5303497,-26.368149,-275.58093)"
       id="g154"><g
         clip-path="url(#clipPath160)"
         id="g156"><g
           transform="translate(211.2,462.3)"
           id="g162"><path
             id="path164"
             style="fill:none;stroke:#000000;stroke-width:3;stroke-linecap:butt;stroke-linejoin:round;stroke-miterlimit:10;stroke-dasharray:none;stroke-opacity:1"
             d="m 0,0 c 4,0 7.1,-3 7.1,-7 0,-4.1 -3.1,-7.1 -7.1,-7.1 -4,0 -7.1,3 -7.1,7.1 0,4 3.1,7 7.1,7 z" /></g></g></g><g
       transform="matrix(1.5303497,0,0,1.5303497,-26.368149,-275.58093)"
       id="g166"><g
         clip-path="url(#clipPath172)"
         id="g168"><g
           transform="translate(211.2,434)"
           id="g174"><path
             id="path176"
             style="fill:#ffffff;fill-opacity:1;fill-rule:evenodd;stroke:none"
             d="m 0,0 c 4,0 7.1,-3.1 7.1,-7.1 0,-4 -3.1,-7.1 -7.1,-7.1 -4,0 -7.1,3.1 -7.1,7.1 0,4 3.1,7.1 7.1,7.1 z" /></g></g></g><g
       transform="matrix(1.5303497,0,0,1.5303497,-26.368149,-275.58093)"
       id="g178"><g
         clip-path="url(#clipPath184)"
         id="g180"><g
           transform="translate(211.2,434)"
           id="g186"><path
             id="path188"
             style="fill:none;stroke:#000000;stroke-width:3;stroke-linecap:butt;stroke-linejoin:round;stroke-miterlimit:10;stroke-dasharray:none;stroke-opacity:1"
             d="m 0,0 c 4,0 7.1,-3.1 7.1,-7.1 0,-4 -3.1,-7.1 -7.1,-7.1 -4,0 -7.1,3.1 -7.1,7.1 0,4 3.1,7.1 7.1,7.1 z" /></g></g></g><g
       transform="matrix(1.5303497,0,0,1.5303497,-26.368149,-275.58093)"
       id="g190"><g
         clip-path="url(#clipPath196)"
         id="g192"><g
           transform="translate(211.2,405.6)"
           id="g198"><path
             id="path200"
             style="fill:#ffffff;fill-opacity:1;fill-rule:evenodd;stroke:none"
             d="m 0,0 c 4,0 7.1,-3 7.1,-7 0,-4.1 -3.1,-7.1 -7.1,-7.1 -4,0 -7.1,3 -7.1,7.1 0,4 3.1,7 7.1,7 z" /></g></g></g><g
       transform="matrix(1.5303497,0,0,1.5303497,-26.368149,-275.58093)"
       id="g202"><g
         clip-path="url(#clipPath208)"
         id="g204"><g
           transform="translate(211.2,405.6)"
           id="g210"><path
             id="path212"
             style="fill:none;stroke:#000000;stroke-width:3;stroke-linecap:butt;stroke-linejoin:round;stroke-miterlimit:10;stroke-dasharray:none;stroke-opacity:1"
             d="m 0,0 c 4,0 7.1,-3 7.1,-7 0,-4.1 -3.1,-7.1 -7.1,-7.1 -4,0 -7.1,3 -7.1,7.1 0,4 3.1,7 7.1,7 z" /></g></g></g><g
       transform="matrix(1.5303497,0,0,1.5303497,-26.368149,-275.58093)"
       id="g214"><g
         clip-path="url(#clipPath220)"
         id="g216"><g
           transform="translate(211.2,377.3)"
           id="g222"><path
             id="path224"
             style="fill:#ffffff;fill-opacity:1;fill-rule:evenodd;stroke:none"
             d="m 0,0 c 4,0 7.1,-3.1 7.1,-7.1 0,-4 -3.1,-7.1 -7.1,-7.1 -4,0 -7.1,3.1 -7.1,7.1 0,4 3.1,7.1 7.1,7.1 z" /></g></g></g><g
       transform="matrix(1.5303497,0,0,1.5303497,-26.368149,-275.58093)"
       id="g226"><g
         clip-path="url(#clipPath232)"
         id="g228"><g
           transform="translate(211.2,377.3)"
           id="g234"><path
             id="path236"
             style="fill:none;stroke:#000000;stroke-width:3;stroke-linecap:butt;stroke-linejoin:round;stroke-miterlimit:10;stroke-dasharray:none;stroke-opacity:1"
             d="m 0,0 c 4,0 7.1,-3.1 7.1,-7.1 0,-4 -3.1,-7.1 -7.1,-7.1 -4,0 -7.1,3.1 -7.1,7.1 0,4 3.1,7.1 7.1,7.1 z" /></g></g></g><g
       transform="matrix(1.5303497,0,0,1.5303497,-26.368149,-275.58093)"
       id="g238"><g
         clip-path="url(#clipPath244)"
         id="g240"><g
           transform="translate(245.2,434)"
           id="g246"><path
             id="path248"
             style="fill:#ffffff;fill-opacity:1;fill-rule:evenodd;stroke:none"
             d="m 0,0 c 4,0 7.1,-3.1 7.1,-7.1 0,-4 -3.1,-7.1 -7.1,-7.1 -4,0 -7.1,3.1 -7.1,7.1 0,4 3.1,7.1 7.1,7.1 z" /></g></g></g><g
       transform="matrix(1.5303497,0,0,1.5303497,-26.368149,-275.58093)"
       id="g250"><g
         clip-path="url(#clipPath256)"
         id="g252"><g
           transform="translate(245.2,434)"
           id="g258"><path
             id="path260"
             style="fill:none;stroke:#000000;stroke-width:3;stroke-linecap:butt;stroke-linejoin:round;stroke-miterlimit:10;stroke-dasharray:none;stroke-opacity:1"
             d="m 0,0 c 4,0 7.1,-3.1 7.1,-7.1 0,-4 -3.1,-7.1 -7.1,-7.1 -4,0 -7.1,3.1 -7.1,7.1 0,4 3.1,7.1 7.1,7.1 z" /></g></g></g><g
       transform="matrix(1.5303497,0,0,1.5303497,-26.368149,-275.58093)"
       id="g262"><g
         clip-path="url(#clipPath268)"
         id="g264"><g
           transform="translate(245.2,405.6)"
           id="g270"><path
             id="path272"
             style="fill:#ffffff;fill-opacity:1;fill-rule:evenodd;stroke:none"
             d="m 0,0 c 4,0 7.1,-3 7.1,-7 0,-4.1 -3.1,-7.1 -7.1,-7.1 -4,0 -7.1,3 -7.1,7.1 0,4 3.1,7 7.1,7 z" /></g></g></g><g
       transform="matrix(1.5303497,0,0,1.5303497,-26.368149,-275.58093)"
       id="g274"><g
         clip-path="url(#clipPath280)"
         id="g276"><g
           transform="translate(245.2,405.6)"
           id="g282"><path
             id="path284"
             style="fill:none;stroke:#000000;stroke-width:3;stroke-linecap:butt;stroke-linejoin:round;stroke-miterlimit:10;stroke-dasharray:none;stroke-opacity:1"
             d="m 0,0 c 4,0 7.1,-3 7.1,-7 0,-4.1 -3.1,-7.1 -7.1,-7.1 -4,0 -7.1,3 -7.1,7.1 0,4 3.1,7 7.1,7 z" /></g></g></g><g
       transform="matrix(1.5303497,0,0,1.5303497,-26.368149,-275.58093)"
       id="g286"><g
         clip-path="url(#clipPath292)"
         id="g288"><g
           transform="translate(181.4,441.1)"
           id="g294"><path
             id="path296"
             style="fill:none;stroke:#000000;stroke-width:0.99000001;stroke-linecap:butt;stroke-linejoin:round;stroke-miterlimit:10;stroke-dasharray:none;stroke-opacity:1"
             d="M 0,0 22.7,14.2" /></g></g></g><g
       transform="matrix(1.5303497,0,0,1.5303497,-26.368149,-275.58093)"
       id="g298"><g
         clip-path="url(#clipPath304)"
         id="g300"><g
           transform="translate(181.4,441.1)"
           id="g306"><path
             id="path308"
             style="fill:none;stroke:#000000;stroke-width:2.29200006;stroke-linecap:butt;stroke-linejoin:round;stroke-miterlimit:10;stroke-dasharray:none;stroke-opacity:1"
             d="M 0,0 22.7,-14.2" /></g></g></g><g
       transform="matrix(1.5303497,0,0,1.5303497,-26.368149,-275.58093)"
       id="g310"><g
         clip-path="url(#clipPath316)"
         id="g312"><g
           transform="translate(181.4,441.1)"
           id="g318"><path
             id="path320"
             style="fill:none;stroke:#000000;stroke-width:0.49008405;stroke-linecap:butt;stroke-linejoin:round;stroke-miterlimit:10;stroke-dasharray:none;stroke-opacity:1"
             d="M 0,0 22.7,-42.5" /></g></g></g><g
       transform="matrix(1.5303497,0,0,1.5303497,-26.368149,-275.58093)"
       id="g322"><g
         clip-path="url(#clipPath328)"
         id="g324"><g
           transform="translate(181.4,441.1)"
           id="g330"><path
             id="path332"
             style="fill:none;stroke:#000000;stroke-width:0.49008405;stroke-linecap:butt;stroke-linejoin:round;stroke-miterlimit:10;stroke-dasharray:none;stroke-opacity:1"
             d="M 0,0 22.7,-70.9" /></g></g></g><g
       transform="matrix(1.5303497,0,0,1.5303497,-26.368149,-275.58093)"
       id="g334"><g
         clip-path="url(#clipPath340)"
         id="g336"><g
           transform="translate(181.4,412.7)"
           id="g342"><path
             id="path344"
             style="fill:none;stroke:#000000;stroke-width:1.5;stroke-linecap:butt;stroke-linejoin:round;stroke-miterlimit:10;stroke-dasharray:none;stroke-opacity:1"
             d="M 0,0 22.7,42.6" /></g></g></g><g
       transform="matrix(1.5303497,0,0,1.5303497,-26.368149,-275.58093)"
       id="g346"><g
         clip-path="url(#clipPath352)"
         id="g348"><g
           transform="translate(181.4,412.7)"
           id="g354"><path
             id="path356"
             style="fill:none;stroke:#000000;stroke-width:2.29200006;stroke-linecap:butt;stroke-linejoin:round;stroke-miterlimit:10;stroke-dasharray:none;stroke-opacity:1"
             d="M 0,0 22.7,14.2" /></g></g></g><g
       transform="matrix(1.5303497,0,0,1.5303497,-26.368149,-275.58093)"
       id="g358"><g
         clip-path="url(#clipPath364)"
         id="g360"><g
           transform="translate(179.3,407.7)"
           id="g366"><path
             id="path368"
             style="fill:none;stroke:#000000;stroke-width:2.29200006;stroke-linecap:butt;stroke-linejoin:round;stroke-miterlimit:10;stroke-dasharray:none;stroke-opacity:1"
             d="M 0,0 24.8,-9.1" /></g></g></g><g
       transform="matrix(1.5303497,0,0,1.5303497,-26.368149,-275.58093)"
       id="g370"><g
         clip-path="url(#clipPath376)"
         id="g372"><g
           transform="translate(181.4,412.7)"
           id="g378"><path
             id="path380"
             style="fill:none;stroke:#000000;stroke-width:2.29200006;stroke-linecap:butt;stroke-linejoin:round;stroke-miterlimit:10;stroke-dasharray:none;stroke-opacity:1"
             d="M 0,0 22.7,-42.5" /></g></g></g><g
       transform="matrix(1.5303497,0,0,1.5303497,-26.368149,-275.58093)"
       id="g382"><g
         clip-path="url(#clipPath388)"
         id="g384"><g
           transform="translate(181.4,384.4)"
           id="g390"><path
             id="path392"
             style="fill:none;stroke:#000000;stroke-width:1.5;stroke-linecap:butt;stroke-linejoin:round;stroke-miterlimit:10;stroke-dasharray:none;stroke-opacity:1"
             d="M 0,0 22.7,70.9" /></g></g></g><g
       transform="matrix(1.5303497,0,0,1.5303497,-26.368149,-275.58093)"
       id="g394"><g
         clip-path="url(#clipPath400)"
         id="g396"><g
           transform="translate(181.4,384.4)"
           id="g402"><path
             id="path404"
             style="fill:none;stroke:#000000;stroke-width:0.49008405;stroke-linecap:butt;stroke-linejoin:round;stroke-miterlimit:10;stroke-dasharray:none;stroke-opacity:1"
             d="M 0,0 22.7,42.5" /></g></g></g><g
       transform="matrix(1.5303497,0,0,1.5303497,-26.368149,-275.58093)"
       id="g406"><g
         clip-path="url(#clipPath412)"
         id="g408"><g
           transform="translate(181.4,384.4)"
           id="g414"><path
             id="path416"
             style="fill:none;stroke:#000000;stroke-width:0.49008405;stroke-linecap:butt;stroke-linejoin:round;stroke-miterlimit:10;stroke-dasharray:none;stroke-opacity:1"
             d="M 0,0 22.7,14.2" /></g></g></g><g
       transform="matrix(1.5303497,0,0,1.5303497,-26.368149,-275.58093)"
       id="g418"><g
         clip-path="url(#clipPath424)"
         id="g420"><g
           transform="translate(181.4,384.4)"
           id="g426"><path
             id="path428"
             style="fill:none;stroke:#000000;stroke-width:0.49008405;stroke-linecap:butt;stroke-linejoin:round;stroke-miterlimit:10;stroke-dasharray:none;stroke-opacity:1"
             d="M 0,0 22.7,-14.2" /></g></g></g><g
       transform="matrix(1.5303497,0,0,1.5303497,-26.368149,-275.58093)"
       id="g430"><g
         clip-path="url(#clipPath436)"
         id="g432"><g
           transform="translate(218.3,455.3)"
           id="g438"><path
             id="path440"
             style="fill:none;stroke:#000000;stroke-width:1.5;stroke-linecap:butt;stroke-linejoin:round;stroke-miterlimit:10;stroke-dasharray:none;stroke-opacity:1"
             d="M 0,0 19.8,-28.4" /></g></g></g><g
       transform="matrix(1.5303497,0,0,1.5303497,-26.368149,-275.58093)"
       id="g442"><g
         clip-path="url(#clipPath448)"
         id="g444"><g
           transform="translate(218.3,426.9)"
           id="g450"><path
             id="path452"
             style="fill:none;stroke:#000000;stroke-width:0.99000001;stroke-linecap:butt;stroke-linejoin:round;stroke-miterlimit:10;stroke-dasharray:none;stroke-opacity:1"
             d="M 0,0 H 19.8" /></g></g></g><g
       transform="matrix(1.5303497,0,0,1.5303497,-26.368149,-275.58093)"
       id="g454"><g
         clip-path="url(#clipPath460)"
         id="g456"><g
           transform="translate(218.3,398.6)"
           id="g462"><path
             id="path464"
             style="fill:none;stroke:#000000;stroke-width:0.49008405;stroke-linecap:butt;stroke-linejoin:round;stroke-miterlimit:10;stroke-dasharray:none;stroke-opacity:1"
             d="M 0,0 19.8,28.3" /></g></g></g><g
       transform="matrix(1.5303497,0,0,1.5303497,-26.368149,-275.58093)"
       id="g466"><g
         clip-path="url(#clipPath472)"
         id="g468"><g
           transform="translate(218.3,370.2)"
           id="g474"><path
             id="path476"
             style="fill:none;stroke:#000000;stroke-width:0.99000001;stroke-linecap:butt;stroke-linejoin:round;stroke-miterlimit:10;stroke-dasharray:none;stroke-opacity:1"
             d="M 0,0 19.8,56.7" /></g></g></g><g
       transform="matrix(1.5303497,0,0,1.5303497,-26.368149,-275.58093)"
       id="g478"><g
         clip-path="url(#clipPath484)"
         id="g480"><g
           transform="translate(218.3,398.6)"
           id="g486"><path
             id="path488"
             style="fill:none;stroke:#000000;stroke-width:1.5;stroke-linecap:butt;stroke-linejoin:round;stroke-miterlimit:10;stroke-dasharray:none;stroke-opacity:1"
             d="M 0,0 H 19.8" /></g></g></g><g
       transform="matrix(1.5303497,0,0,1.5303497,-26.368149,-275.58093)"
       id="g490"><g
         clip-path="url(#clipPath496)"
         id="g492"><g
           transform="translate(218.3,370.2)"
           id="g498"><path
             id="path500"
             style="fill:none;stroke:#000000;stroke-width:0.49008405;stroke-linecap:butt;stroke-linejoin:round;stroke-miterlimit:10;stroke-dasharray:none;stroke-opacity:1"
             d="M 0,0 19.8,28.4" /></g></g></g><g
       transform="matrix(1.5303497,0,0,1.5303497,-26.368149,-275.58093)"
       id="g502"><g
         clip-path="url(#clipPath508)"
         id="g504"><g
           transform="translate(218.3,426.9)"
           id="g510"><path
             id="path512"
             style="fill:none;stroke:#000000;stroke-width:0.49008405;stroke-linecap:butt;stroke-linejoin:round;stroke-miterlimit:10;stroke-dasharray:none;stroke-opacity:1"
             d="M 0,0 19.8,-28.3" /></g></g></g><g
       transform="matrix(1.5303497,0,0,1.5303497,-26.368149,-275.58093)"
       id="g514"><g
         clip-path="url(#clipPath520)"
         id="g516"><g
           transform="translate(218.3,455.3)"
           id="g522"><path
             id="path524"
             style="fill:none;stroke:#000000;stroke-width:2.29200006;stroke-linecap:butt;stroke-linejoin:round;stroke-miterlimit:10;stroke-dasharray:none;stroke-opacity:1"
             d="M 0,0 19.8,-56.7" /></g></g></g><text
       id="text530"
       style="font-variant:normal;font-weight:normal;font-size:27.54540062px;font-family:'Palatino Linotype';-inkscape-font-specification:'Palatino Linotype'-Roman;writing-mode:lr-tb;fill:#ffffff;fill-opacity:1;fill-rule:nonzero;stroke:none"
       transform="matrix(1,0,0,-1,205.7859,206.9384)"><tspan
         id="tspan526"
         y="0"
         x="0 21.265049 34.431751 47.708633 64.23587 71.122223 94.039993 107.31688 116.1865 138.69109 153.67578 164.52867">Deep Network</tspan><tspan
         id="tspan528"
         y="36.88023"
         x="30.14691 39.319527 56.122223 72.153648 84.356255 99.478683 116.28137 129.44807 140.30096">(Encoder)</tspan></text>
<g
       transform="matrix(1.5303497,0,0,1.5303497,-26.368149,-275.58093)"
       id="g532"><g
         clip-path="url(#clipPath538)"
         id="g534"><g
           transform="translate(116.2,411.3)"
           id="g540"><path
             id="path542"
             style="fill:none;stroke:#ffffff;stroke-width:2.29200006;stroke-linecap:butt;stroke-linejoin:round;stroke-miterlimit:10;stroke-dasharray:none;stroke-opacity:1"
             d="M 0,0 H 19.8" /></g></g></g><g
       transform="matrix(1.5303497,0,0,1.5303497,-26.368149,-275.58093)"
       id="g544"><g
         clip-path="url(#clipPath550)"
         id="g546"><g
           transform="translate(153.1,411.3)"
           id="g552"><path
             id="path554"
             style="fill:#ffffff;fill-opacity:1;fill-rule:evenodd;stroke:none"
             d="M 0,0 -17.9,6 V -6 Z" /></g></g></g><text
       id="text558"
       style="font-variant:normal;font-weight:normal;font-size:28.01910019px;font-family:Cmbx10;-inkscape-font-specification:Cmbx10;writing-mode:lr-tb;fill:#ffffff;fill-opacity:1;fill-rule:nonzero;stroke:none"
       transform="matrix(1,0,0,-0.96670878,96.978,173.7298)"><tspan
         id="tspan556"
         y="0"
         x="0">y</tspan></text>
<g
       transform="matrix(1.5303497,0,0,1.5303497,-26.368149,-275.58093)"
       id="g560"><g
         clip-path="url(#clipPath566)"
         id="g562"><g
           transform="translate(371.4,461.7)"
           id="g568"><path
             id="path570"
             style="fill:#ffffff;fill-opacity:1;fill-rule:evenodd;stroke:none"
             d="M 0,0 V -50.4 H -59.6 V 50.5 l 59.6,0 z" /></g></g></g><g
       transform="matrix(1.5303497,0,0,1.5303497,-26.368149,-275.58093)"
       id="g572"><g
         clip-path="url(#clipPath578)"
         id="g574"><g
           transform="translate(371.4,461.7)"
           id="g580"><path
             id="path582"
             style="fill:none;stroke:#000000;stroke-width:2.29200006;stroke-linecap:butt;stroke-linejoin:round;stroke-miterlimit:10;stroke-dasharray:none;stroke-opacity:1"
             d="M 0,0 V -50.4 H -59.6 V 50.5 l 59.6,0 z" /></g></g></g><text
       id="text590"
       style="font-variant:normal;font-weight:normal;font-size:19.89389992px;font-family:'Palatino Linotype';-inkscape-font-specification:'Palatino Linotype'-Roman;writing-mode:lr-tb;fill:#000000;fill-opacity:1;fill-rule:nonzero;stroke:none"
       transform="matrix(0,1,1,0,477.423,389.05)"><tspan
         id="tspan584"
         y="0"
         x="0 11.93634 19.8939 29.381758 41.471123 47.28627 56.008987 62.436249 71.92411">Predicted</tspan><tspan
         id="tspan586"
         y="26.47419"
         x="-12.2424 2.7545369 12.395419 23.260551 35.196892 46.674141 57.692299 66.261971 71.924072 80.646797 90.593742">Geophysical</tspan><tspan
         id="tspan588"
         y="52.94838"
         x="-7.19241 4.1318145 14.078765 22.036325 31.983274 49.428692 58.91655 65.343811 74.831673 82.78923">Parameters</tspan></text>
<g
       transform="matrix(1.5303497,0,0,1.5303497,-26.368149,-275.58093)"
       id="g592"><g
         clip-path="url(#clipPath598)"
         id="g594"><g
           transform="translate(266.5,411.3)"
           id="g600"><path
             id="path602"
             style="fill:none;stroke:#ffffff;stroke-width:2.29200006;stroke-linecap:butt;stroke-linejoin:round;stroke-miterlimit:10;stroke-dasharray:none;stroke-opacity:1"
             d="m 0,0 h 22.7 v 50.4 h 5.5" /></g></g></g><g
       transform="matrix(1.5303497,0,0,1.5303497,-26.368149,-275.58093)"
       id="g604"><g
         clip-path="url(#clipPath610)"
         id="g606"><g
           transform="translate(311.8,461.7)"
           id="g612"><path
             id="path614"
             style="fill:#ffffff;fill-opacity:1;fill-rule:evenodd;stroke:none"
             d="M 0,0 -17.8,6 V -5.9 Z" /></g></g></g><g
       transform="matrix(1.5303497,0,0,1.5303497,-26.368149,-275.58093)"
       id="g616"><g
         clip-path="url(#clipPath622)"
         id="g618"><g
           transform="translate(371.4,348.4)"
           id="g624"><path
             id="path626"
             style="fill:#ffffff;fill-opacity:1;fill-rule:evenodd;stroke:none"
             d="M 0,0 V -50.5 H -59.6 V 50.4 l 59.6,0 z" /></g></g></g><g
       transform="matrix(1.5303497,0,0,1.5303497,-26.368149,-275.58093)"
       id="g628"><g
         clip-path="url(#clipPath634)"
         id="g630"><g
           transform="translate(371.4,348.4)"
           id="g636"><path
             id="path638"
             style="fill:none;stroke:#000000;stroke-width:2.29200006;stroke-linecap:butt;stroke-linejoin:round;stroke-miterlimit:10;stroke-dasharray:none;stroke-opacity:1"
             d="M 0,0 V -50.5 H -59.6 V 50.4 l 59.6,0 z" /></g></g></g><text
       id="text646"
       style="font-variant:normal;font-weight:normal;font-size:19.89389992px;font-family:'Palatino Linotype';-inkscape-font-specification:'Palatino Linotype'-Roman;writing-mode:lr-tb;fill:#000000;fill-opacity:1;fill-rule:nonzero;stroke:none"
       transform="matrix(0,1,1,0,477.423,238.3105)"><tspan
         id="tspan640"
         y="0"
         x="0 13.313615 22.801474 32.748425">Real</tspan><tspan
         id="tspan642"
         y="26.47419"
         x="-35.043869 -20.046932 -10.406051 0.45908234 12.395422 23.872671 34.890827 43.460503 49.122604 57.845325 67.792274">Geophysical</tspan><tspan
         id="tspan644"
         y="52.94838"
         x="-29.993879 -18.669655 -8.7227058 -0.76514542 9.1818047 26.627224 36.115082 42.542343 52.030201 59.987762">Parameters</tspan></text>
<g
       transform="matrix(1.5303497,0,0,1.5303497,-26.368149,-275.58093)"
       id="g648"><g
         clip-path="url(#clipPath654)"
         id="g650"><g
           transform="translate(430.8,476.5)"
           id="g656"><path
             id="path658"
             style="fill:#ccff99;fill-opacity:1;fill-rule:evenodd;stroke:none"
             d="m 0,0 c -2.8,0 -5.6,-2.8 -5.6,-5.6 v -130.5 c 0,-2.8 2.8,-5.6 5.6,-5.6 h 48.3 c 2.8,0 5.7,2.8 5.7,5.6 V -5.6 C 54,-2.8 51.1,0 48.3,0 Z" /></g></g></g><g
       transform="matrix(1.5303497,0,0,1.5303497,-26.368149,-275.58093)"
       id="g660"><g
         clip-path="url(#clipPath666)"
         id="g662"><g
           transform="translate(430.8,476.5)"
           id="g668"><path
             id="path670"
             style="fill:none;stroke:#000000;stroke-width:2.29200006;stroke-linecap:butt;stroke-linejoin:round;stroke-miterlimit:10;stroke-dasharray:none;stroke-opacity:1"
             d="m 0,0 c -2.8,0 -5.6,-2.8 -5.6,-5.6 v -130.5 c 0,-2.8 2.8,-5.6 5.6,-5.6 h 48.3 c 2.8,0 5.7,2.8 5.7,5.6 V -5.6 C 54,-2.8 51.1,0 48.3,0 Z" /></g></g></g><text
       id="text674"
       style="font-variant:normal;font-weight:normal;font-size:27.86055946px;font-family:Cmr10;-inkscape-font-specification:Cmr10;writing-mode:lr-tb;fill:#000000;fill-opacity:1;fill-rule:nonzero;stroke:none"
       transform="matrix(0,1,0.97770253,0,678.664,268.1523)"><tspan
         id="tspan672"
         y="0"
         x="0 25.403196 40.706158 64.426765">MSE(</tspan></text>
<text
       id="text678"
       style="font-variant:normal;font-weight:normal;font-size:27.85700035px;font-family:Cmbx10;-inkscape-font-specification:Cmbx10;writing-mode:lr-tb;fill:#000000;fill-opacity:1;fill-rule:nonzero;stroke:none"
       transform="matrix(0,1,0.97782748,0,678.664,343.4456)"><tspan
         id="tspan676"
         y="0"
         x="0">x</tspan></text>
<text
       id="text682"
       style="font-variant:normal;font-weight:normal;font-size:20px;font-family:'Cambria Math';-inkscape-font-specification:'Cambria Math Regular';writing-mode:lr-tb;fill:#000000;fill-opacity:1;fill-rule:nonzero;stroke:none"
       transform="matrix(0,1,0.98525625,0,678.664,366.5538)"><tspan
         id="tspan680"
         y="0"
         x="0">－</tspan></text>
<text
       id="text686"
       style="font-variant:normal;font-weight:normal;font-size:27.86055946px;font-family:Cmr10;-inkscape-font-specification:Cmr10;writing-mode:lr-tb;fill:#000000;fill-opacity:1;fill-rule:nonzero;stroke:none"
       transform="matrix(0,1,0.97770253,0,678.3579,395.6305)"><tspan
         id="tspan684"
         y="0"
         x="0">^</tspan></text>
<text
       id="text690"
       style="font-variant:normal;font-weight:normal;font-size:27.85700035px;font-family:Cmbx10;-inkscape-font-specification:Cmbx10;writing-mode:lr-tb;fill:#000000;fill-opacity:1;fill-rule:nonzero;stroke:none"
       transform="matrix(0,1,0.97782748,0,678.664,394.2532)"><tspan
         id="tspan688"
         y="0"
         x="0">x</tspan></text>
<text
       id="text694"
       style="font-variant:normal;font-weight:normal;font-size:27.86055946px;font-family:Cmr10;-inkscape-font-specification:Cmr10;writing-mode:lr-tb;fill:#000000;fill-opacity:1;fill-rule:nonzero;stroke:none"
       transform="matrix(0,1,0.97770253,0,678.664,410.7809)"><tspan
         id="tspan692"
         y="0"
         x="0">)</tspan></text>
<g
       transform="matrix(1.5303497,0,0,1.5303497,-26.368149,-275.58093)"
       id="g696"><g
         clip-path="url(#clipPath702)"
         id="g698"><g
           transform="translate(371.4,461.7)"
           id="g704"><path
             id="path706"
             style="fill:none;stroke:#ffffff;stroke-width:2.29200006;stroke-linecap:butt;stroke-linejoin:round;stroke-miterlimit:10;stroke-dasharray:none;stroke-opacity:1"
             d="m 0,0 h 26.9 v -56.1 h 9.8" /></g></g></g><g
       transform="matrix(1.5303497,0,0,1.5303497,-26.368149,-275.58093)"
       id="g708"><g
         clip-path="url(#clipPath714)"
         id="g710"><g
           transform="translate(425.2,405.6)"
           id="g716"><path
             id="path718"
             style="fill:#ffffff;fill-opacity:1;fill-rule:evenodd;stroke:none"
             d="M 0,0 -17.9,6 V -5.9 Z" /></g></g></g><g
       transform="matrix(1.5303497,0,0,1.5303497,-26.368149,-275.58093)"
       id="g720"><g
         clip-path="url(#clipPath726)"
         id="g722"><g
           transform="translate(371.4,348.4)"
           id="g728"><path
             id="path730"
             style="fill:none;stroke:#ffffff;stroke-width:2.29200006;stroke-linecap:butt;stroke-linejoin:round;stroke-miterlimit:10;stroke-dasharray:none;stroke-opacity:1"
             d="m 0,0 h 26.9 v 57.2 h 9.8" /></g></g></g><g
       transform="matrix(1.5303497,0,0,1.5303497,-26.368149,-275.58093)"
       id="g732"><g
         clip-path="url(#clipPath738)"
         id="g734"><g
           transform="translate(425.2,405.6)"
           id="g740"><path
             id="path742"
             style="fill:#ffffff;fill-opacity:1;fill-rule:evenodd;stroke:none"
             d="M 0,0 -17.9,6 V -5.9 Z" /></g></g></g><text
       id="text746"
       style="font-variant:normal;font-weight:normal;font-size:28.07043076px;font-family:Cmr10;-inkscape-font-specification:Cmr10;writing-mode:lr-tb;fill:#ffffff;fill-opacity:1;fill-rule:nonzero;stroke:none"
       transform="matrix(1,0,0,-0.96494104,549.9616,361.9628)"><tspan
         id="tspan744"
         y="0"
         x="0">^</tspan></text>
<text
       id="text750"
       style="font-variant:normal;font-weight:normal;font-size:28.01910019px;font-family:Cmbx10;-inkscape-font-specification:Cmbx10;writing-mode:lr-tb;fill:#ffffff;fill-opacity:1;fill-rule:nonzero;stroke:none"
       transform="matrix(1,0,0,-0.96670878,548.5842,361.8098)"><tspan
         id="tspan748"
         y="0"
         x="0">x</tspan></text>
<text
       id="text754"
       style="font-variant:normal;font-weight:normal;font-size:28.09697914px;font-family:Cmbx10;-inkscape-font-specification:Cmbx10;writing-mode:lr-tb;fill:#ffffff;fill-opacity:1;fill-rule:nonzero;stroke:none"
       transform="matrix(1,0,0,-0.96402923,548.5842,180.6163)"><tspan
         id="tspan752"
         y="0"
         x="0">x</tspan></text>
</g></svg>