<?xml version="1.0" encoding="UTF-8" standalone="no"?>
<svg
   xmlns:dc="http://purl.org/dc/elements/1.1/"
   xmlns:cc="http://creativecommons.org/ns#"
   xmlns:rdf="http://www.w3.org/1999/02/22-rdf-syntax-ns#"
   xmlns:svg="http://www.w3.org/2000/svg"
   xmlns="http://www.w3.org/2000/svg"
   viewBox="0 0 1152 332"
   height="332"
   width="1152"
   xml:space="preserve"
   id="svg2"
   version="1.1"><metadata
     id="metadata8"><rdf:RDF><cc:Work
         rdf:about=""><dc:format>image/svg+xml</dc:format><dc:type
           rdf:resource="http://purl.org/dc/dcmitype/StillImage" /></cc:Work></rdf:RDF></metadata><defs
     id="defs6"><clipPath
       id="clipPath264"
       clipPathUnits="userSpaceOnUse"><path
         id="path262"
         d="m 760.301,416.801 h 7487 v 1950 h -7487 z" /></clipPath></defs><g
     transform="matrix(1.3333333,0,0,-1.3333333,0,332)"
     id="g10"><g
       transform="scale(0.1)"
       id="g12"><path
         id="path14"
         style="fill:#ffffff;fill-opacity:1;fill-rule:nonzero;stroke:none"
         d="M 0,0.800781 H 8640 V 2499.2008 H 0 Z" /><path
         id="path16"
         style="fill:#ffffff;fill-opacity:1;fill-rule:nonzero;stroke:none"
         d="m 760.254,416.805 h 7487.35 v 1950.34 H 760.254 Z" /><path
         id="path18"
         style="fill:#000000;fill-opacity:1;fill-rule:nonzero;stroke:none"
         d="m 1092.92,416.805 v -35" /><path
         id="path20"
         style="fill:none;stroke:#000000;stroke-width:8;stroke-linecap:butt;stroke-linejoin:round;stroke-miterlimit:10;stroke-dasharray:none;stroke-opacity:1"
         d="m 1092.92,416.805 v -35" /><g
         transform="scale(10)"
         id="g22"><text
           id="text26"
           style="font-variant:normal;font-weight:normal;font-size:10px;font-family:Arial;-inkscape-font-specification:Arial;writing-mode:lr-tb;fill:#000000;fill-opacity:1;fill-rule:nonzero;stroke:none"
           transform="matrix(1,0,0,-1,106.112,27.0867)"><tspan
             id="tspan24"
             y="0"
             x="0">0</tspan></text>
</g><path
         id="path28"
         style="fill:#000000;fill-opacity:1;fill-rule:nonzero;stroke:none"
         d="m 1944.77,416.805 v -35" /><path
         id="path30"
         style="fill:none;stroke:#000000;stroke-width:8;stroke-linecap:butt;stroke-linejoin:round;stroke-miterlimit:10;stroke-dasharray:none;stroke-opacity:1"
         d="m 1944.77,416.805 v -35" /><g
         transform="scale(10)"
         id="g32"><text
           id="text36"
           style="font-variant:normal;font-weight:normal;font-size:10px;font-family:Arial;-inkscape-font-specification:Arial;writing-mode:lr-tb;fill:#000000;fill-opacity:1;fill-rule:nonzero;stroke:none"
           transform="matrix(1,0,0,-1,178.578,27.0867)"><tspan
             id="tspan34"
             y="0"
             x="0 6.3625026 12.724614 19.087116 25.449228">10000</tspan></text>
</g><path
         id="path38"
         style="fill:#000000;fill-opacity:1;fill-rule:nonzero;stroke:none"
         d="m 2796.61,416.805 v -35" /><path
         id="path40"
         style="fill:none;stroke:#000000;stroke-width:8;stroke-linecap:butt;stroke-linejoin:round;stroke-miterlimit:10;stroke-dasharray:none;stroke-opacity:1"
         d="m 2796.61,416.805 v -35" /><g
         transform="scale(10)"
         id="g42"><text
           id="text46"
           style="font-variant:normal;font-weight:normal;font-size:10px;font-family:Arial;-inkscape-font-specification:Arial;writing-mode:lr-tb;fill:#000000;fill-opacity:1;fill-rule:nonzero;stroke:none"
           transform="matrix(1,0,0,-1,263.763,27.0867)"><tspan
             id="tspan44"
             y="0"
             x="0 6.3620996 12.72459 19.086689 25.449181">20000</tspan></text>
</g><path
         id="path48"
         style="fill:#000000;fill-opacity:1;fill-rule:nonzero;stroke:none"
         d="m 3648.46,416.805 v -35" /><path
         id="path50"
         style="fill:none;stroke:#000000;stroke-width:8;stroke-linecap:butt;stroke-linejoin:round;stroke-miterlimit:10;stroke-dasharray:none;stroke-opacity:1"
         d="m 3648.46,416.805 v -35" /><g
         transform="scale(10)"
         id="g52"><text
           id="text56"
           style="font-variant:normal;font-weight:normal;font-size:10px;font-family:Arial;-inkscape-font-specification:Arial;writing-mode:lr-tb;fill:#000000;fill-opacity:1;fill-rule:nonzero;stroke:none"
           transform="matrix(1,0,0,-1,348.948,27.0867)"><tspan
             id="tspan54"
             y="0"
             x="0 6.3620996 12.72459 19.086689 25.449181">30000</tspan></text>
</g><path
         id="path58"
         style="fill:#000000;fill-opacity:1;fill-rule:nonzero;stroke:none"
         d="m 4500.31,416.805 v -35" /><path
         id="path60"
         style="fill:none;stroke:#000000;stroke-width:8;stroke-linecap:butt;stroke-linejoin:round;stroke-miterlimit:10;stroke-dasharray:none;stroke-opacity:1"
         d="m 4500.31,416.805 v -35" /><g
         transform="scale(10)"
         id="g62"><text
           id="text66"
           style="font-variant:normal;font-weight:normal;font-size:10px;font-family:Arial;-inkscape-font-specification:Arial;writing-mode:lr-tb;fill:#000000;fill-opacity:1;fill-rule:nonzero;stroke:none"
           transform="matrix(1,0,0,-1,434.132,27.0867)"><tspan
             id="tspan64"
             y="0"
             x="0 6.3624902 12.72459 19.08708 25.449181">40000</tspan></text>
</g><path
         id="path68"
         style="fill:#000000;fill-opacity:1;fill-rule:nonzero;stroke:none"
         d="m 5352.15,416.805 v -35" /><path
         id="path70"
         style="fill:none;stroke:#000000;stroke-width:8;stroke-linecap:butt;stroke-linejoin:round;stroke-miterlimit:10;stroke-dasharray:none;stroke-opacity:1"
         d="m 5352.15,416.805 v -35" /><g
         transform="scale(10)"
         id="g72"><text
           id="text76"
           style="font-variant:normal;font-weight:normal;font-size:10px;font-family:Arial;-inkscape-font-specification:Arial;writing-mode:lr-tb;fill:#000000;fill-opacity:1;fill-rule:nonzero;stroke:none"
           transform="matrix(1,0,0,-1,519.317,27.0867)"><tspan
             id="tspan74"
             y="0"
             x="0 6.3624902 12.72459 19.08708 25.449181">50000</tspan></text>
</g><path
         id="path78"
         style="fill:#000000;fill-opacity:1;fill-rule:nonzero;stroke:none"
         d="m 6204,416.805 v -35" /><path
         id="path80"
         style="fill:none;stroke:#000000;stroke-width:8;stroke-linecap:butt;stroke-linejoin:round;stroke-miterlimit:10;stroke-dasharray:none;stroke-opacity:1"
         d="m 6204,416.805 v -35" /><g
         transform="scale(10)"
         id="g82"><text
           id="text86"
           style="font-variant:normal;font-weight:normal;font-size:10px;font-family:Arial;-inkscape-font-specification:Arial;writing-mode:lr-tb;fill:#000000;fill-opacity:1;fill-rule:nonzero;stroke:none"
           transform="matrix(1,0,0,-1,604.502,27.0867)"><tspan
             id="tspan84"
             y="0"
             x="0 6.3620996 12.72459 19.086689 25.449181">60000</tspan></text>
</g><path
         id="path88"
         style="fill:#000000;fill-opacity:1;fill-rule:nonzero;stroke:none"
         d="m 7055.85,416.805 v -35" /><path
         id="path90"
         style="fill:none;stroke:#000000;stroke-width:8;stroke-linecap:butt;stroke-linejoin:round;stroke-miterlimit:10;stroke-dasharray:none;stroke-opacity:1"
         d="m 7055.85,416.805 v -35" /><g
         transform="scale(10)"
         id="g92"><text
           id="text96"
           style="font-variant:normal;font-weight:normal;font-size:10px;font-family:Arial;-inkscape-font-specification:Arial;writing-mode:lr-tb;fill:#000000;fill-opacity:1;fill-rule:nonzero;stroke:none"
           transform="matrix(1,0,0,-1,689.686,27.0867)"><tspan
             id="tspan94"
             y="0"
             x="0 6.3624902 12.72459 19.08708 25.449181">70000</tspan></text>
</g><path
         id="path98"
         style="fill:#000000;fill-opacity:1;fill-rule:nonzero;stroke:none"
         d="m 7907.69,416.805 v -35" /><path
         id="path100"
         style="fill:none;stroke:#000000;stroke-width:8;stroke-linecap:butt;stroke-linejoin:round;stroke-miterlimit:10;stroke-dasharray:none;stroke-opacity:1"
         d="m 7907.69,416.805 v -35" /><g
         transform="scale(10)"
         id="g102"><text
           id="text108"
           style="font-variant:normal;font-weight:normal;font-size:10px;font-family:Arial;-inkscape-font-specification:Arial;writing-mode:lr-tb;fill:#000000;fill-opacity:1;fill-rule:nonzero;stroke:none"
           transform="matrix(1,0,0,-1,774.871,27.0867)"><tspan
             id="tspan104"
             y="0"
             x="0 6.3624902 12.72459 19.08708 25.449181">80000</tspan><tspan
             id="tspan106"
             y="13.6719"
             x="-335.86099 -329.51334 -325.59225 -319.43991">Step</tspan></text>
</g><path
         id="path110"
         style="fill:#000000;fill-opacity:1;fill-rule:nonzero;stroke:none"
         d="m 760.254,804.844 h -35" /><path
         id="path112"
         style="fill:none;stroke:#000000;stroke-width:8;stroke-linecap:butt;stroke-linejoin:round;stroke-miterlimit:10;stroke-dasharray:none;stroke-opacity:1"
         d="m 760.254,804.844 h -35" /><g
         transform="scale(10)"
         id="g114"><text
           id="text118"
           style="font-variant:normal;font-weight:normal;font-size:10px;font-family:Arial;-inkscape-font-specification:Arial;writing-mode:lr-tb;fill:#000000;fill-opacity:1;fill-rule:nonzero;stroke:none"
           transform="matrix(1,0,0,-1,51.0254,77)"><tspan
             id="tspan116"
             y="0"
             x="0 6.362112">10</tspan></text>
<text
           id="text122"
           style="font-variant:normal;font-weight:normal;font-size:7px;font-family:Arial;-inkscape-font-specification:Arial;writing-mode:lr-tb;fill:#000000;fill-opacity:1;fill-rule:nonzero;stroke:none"
           transform="matrix(1,0,0,-1,63.8457,80.82813)"><tspan
             id="tspan120"
             y="0"
             x="0">0</tspan></text>
</g><path
         id="path124"
         style="fill:#000000;fill-opacity:1;fill-rule:nonzero;stroke:none"
         d="m 760.254,1421.08 h -35" /><path
         id="path126"
         style="fill:none;stroke:#000000;stroke-width:8;stroke-linecap:butt;stroke-linejoin:round;stroke-miterlimit:10;stroke-dasharray:none;stroke-opacity:1"
         d="m 760.254,1421.08 h -35" /><g
         transform="scale(10)"
         id="g128"><text
           id="text132"
           style="font-variant:normal;font-weight:normal;font-size:10px;font-family:Arial;-inkscape-font-specification:Arial;writing-mode:lr-tb;fill:#000000;fill-opacity:1;fill-rule:nonzero;stroke:none"
           transform="matrix(1,0,0,-1,51.0254,138.212)"><tspan
             id="tspan130"
             y="0"
             x="0 6.362112">10</tspan></text>
<text
           id="text136"
           style="font-variant:normal;font-weight:normal;font-size:7px;font-family:Arial;-inkscape-font-specification:Arial;writing-mode:lr-tb;fill:#000000;fill-opacity:1;fill-rule:nonzero;stroke:none"
           transform="matrix(1,0,0,-1,63.8457,142.04013)"><tspan
             id="tspan134"
             y="0"
             x="0">1</tspan></text>
</g><path
         id="path138"
         style="fill:#000000;fill-opacity:1;fill-rule:nonzero;stroke:none"
         d="m 760.254,2037.33 h -35" /><path
         id="path140"
         style="fill:none;stroke:#000000;stroke-width:8;stroke-linecap:butt;stroke-linejoin:round;stroke-miterlimit:10;stroke-dasharray:none;stroke-opacity:1"
         d="m 760.254,2037.33 h -35" /><g
         transform="scale(10)"
         id="g142"><text
           id="text146"
           style="font-variant:normal;font-weight:normal;font-size:10px;font-family:Arial;-inkscape-font-specification:Arial;writing-mode:lr-tb;fill:#000000;fill-opacity:1;fill-rule:nonzero;stroke:none"
           transform="matrix(1,0,0,-1,51.0254,200.248)"><tspan
             id="tspan144"
             y="0"
             x="0 6.362112">10</tspan></text>
<text
           id="text150"
           style="font-variant:normal;font-weight:normal;font-size:7px;font-family:Arial;-inkscape-font-specification:Arial;writing-mode:lr-tb;fill:#000000;fill-opacity:1;fill-rule:nonzero;stroke:none"
           transform="matrix(1,0,0,-1,63.8457,204.07613)"><tspan
             id="tspan148"
             y="0"
             x="0">2</tspan></text>
</g><path
         id="path152"
         style="fill:#000000;fill-opacity:1;fill-rule:nonzero;stroke:none"
         d="m 760.254,482.621 h -20" /><path
         id="path154"
         style="fill:none;stroke:#000000;stroke-width:6;stroke-linecap:butt;stroke-linejoin:round;stroke-miterlimit:10;stroke-dasharray:none;stroke-opacity:1"
         d="m 760.254,482.621 h -20" /><path
         id="path156"
         style="fill:#000000;fill-opacity:1;fill-rule:nonzero;stroke:none"
         d="m 760.254,559.617 h -20" /><path
         id="path158"
         style="fill:none;stroke:#000000;stroke-width:6;stroke-linecap:butt;stroke-linejoin:round;stroke-miterlimit:10;stroke-dasharray:none;stroke-opacity:1"
         d="m 760.254,559.617 h -20" /><path
         id="path160"
         style="fill:#000000;fill-opacity:1;fill-rule:nonzero;stroke:none"
         d="m 760.254,619.336 h -20" /><path
         id="path162"
         style="fill:none;stroke:#000000;stroke-width:6;stroke-linecap:butt;stroke-linejoin:round;stroke-miterlimit:10;stroke-dasharray:none;stroke-opacity:1"
         d="m 760.254,619.336 h -20" /><path
         id="path164"
         style="fill:#000000;fill-opacity:1;fill-rule:nonzero;stroke:none"
         d="m 760.254,668.129 h -20" /><path
         id="path166"
         style="fill:none;stroke:#000000;stroke-width:6;stroke-linecap:butt;stroke-linejoin:round;stroke-miterlimit:10;stroke-dasharray:none;stroke-opacity:1"
         d="m 760.254,668.129 h -20" /><path
         id="path168"
         style="fill:#000000;fill-opacity:1;fill-rule:nonzero;stroke:none"
         d="m 760.254,709.387 h -20" /><path
         id="path170"
         style="fill:none;stroke:#000000;stroke-width:6;stroke-linecap:butt;stroke-linejoin:round;stroke-miterlimit:10;stroke-dasharray:none;stroke-opacity:1"
         d="m 760.254,709.387 h -20" /><path
         id="path172"
         style="fill:#000000;fill-opacity:1;fill-rule:nonzero;stroke:none"
         d="m 760.254,745.121 h -20" /><path
         id="path174"
         style="fill:none;stroke:#000000;stroke-width:6;stroke-linecap:butt;stroke-linejoin:round;stroke-miterlimit:10;stroke-dasharray:none;stroke-opacity:1"
         d="m 760.254,745.121 h -20" /><path
         id="path176"
         style="fill:#000000;fill-opacity:1;fill-rule:nonzero;stroke:none"
         d="m 760.254,776.645 h -20" /><path
         id="path178"
         style="fill:none;stroke:#000000;stroke-width:6;stroke-linecap:butt;stroke-linejoin:round;stroke-miterlimit:10;stroke-dasharray:none;stroke-opacity:1"
         d="m 760.254,776.645 h -20" /><path
         id="path180"
         style="fill:#000000;fill-opacity:1;fill-rule:nonzero;stroke:none"
         d="m 760.254,990.352 h -20" /><path
         id="path182"
         style="fill:none;stroke:#000000;stroke-width:6;stroke-linecap:butt;stroke-linejoin:round;stroke-miterlimit:10;stroke-dasharray:none;stroke-opacity:1"
         d="m 760.254,990.352 h -20" /><path
         id="path184"
         style="fill:#000000;fill-opacity:1;fill-rule:nonzero;stroke:none"
         d="m 760.254,1098.87 h -20" /><path
         id="path186"
         style="fill:none;stroke:#000000;stroke-width:6;stroke-linecap:butt;stroke-linejoin:round;stroke-miterlimit:10;stroke-dasharray:none;stroke-opacity:1"
         d="m 760.254,1098.87 h -20" /><path
         id="path188"
         style="fill:#000000;fill-opacity:1;fill-rule:nonzero;stroke:none"
         d="m 760.254,1175.86 h -20" /><path
         id="path190"
         style="fill:none;stroke:#000000;stroke-width:6;stroke-linecap:butt;stroke-linejoin:round;stroke-miterlimit:10;stroke-dasharray:none;stroke-opacity:1"
         d="m 760.254,1175.86 h -20" /><path
         id="path192"
         style="fill:#000000;fill-opacity:1;fill-rule:nonzero;stroke:none"
         d="m 760.254,1235.58 h -20" /><path
         id="path194"
         style="fill:none;stroke:#000000;stroke-width:6;stroke-linecap:butt;stroke-linejoin:round;stroke-miterlimit:10;stroke-dasharray:none;stroke-opacity:1"
         d="m 760.254,1235.58 h -20" /><path
         id="path196"
         style="fill:#000000;fill-opacity:1;fill-rule:nonzero;stroke:none"
         d="m 760.254,1284.37 h -20" /><path
         id="path198"
         style="fill:none;stroke:#000000;stroke-width:6;stroke-linecap:butt;stroke-linejoin:round;stroke-miterlimit:10;stroke-dasharray:none;stroke-opacity:1"
         d="m 760.254,1284.37 h -20" /><path
         id="path200"
         style="fill:#000000;fill-opacity:1;fill-rule:nonzero;stroke:none"
         d="m 760.254,1325.63 h -20" /><path
         id="path202"
         style="fill:none;stroke:#000000;stroke-width:6;stroke-linecap:butt;stroke-linejoin:round;stroke-miterlimit:10;stroke-dasharray:none;stroke-opacity:1"
         d="m 760.254,1325.63 h -20" /><path
         id="path204"
         style="fill:#000000;fill-opacity:1;fill-rule:nonzero;stroke:none"
         d="m 760.254,1361.36 h -20" /><path
         id="path206"
         style="fill:none;stroke:#000000;stroke-width:6;stroke-linecap:butt;stroke-linejoin:round;stroke-miterlimit:10;stroke-dasharray:none;stroke-opacity:1"
         d="m 760.254,1361.36 h -20" /><path
         id="path208"
         style="fill:#000000;fill-opacity:1;fill-rule:nonzero;stroke:none"
         d="m 760.254,1392.89 h -20" /><path
         id="path210"
         style="fill:none;stroke:#000000;stroke-width:6;stroke-linecap:butt;stroke-linejoin:round;stroke-miterlimit:10;stroke-dasharray:none;stroke-opacity:1"
         d="m 760.254,1392.89 h -20" /><path
         id="path212"
         style="fill:#000000;fill-opacity:1;fill-rule:nonzero;stroke:none"
         d="m 760.254,1606.59 h -20" /><path
         id="path214"
         style="fill:none;stroke:#000000;stroke-width:6;stroke-linecap:butt;stroke-linejoin:round;stroke-miterlimit:10;stroke-dasharray:none;stroke-opacity:1"
         d="m 760.254,1606.59 h -20" /><path
         id="path216"
         style="fill:#000000;fill-opacity:1;fill-rule:nonzero;stroke:none"
         d="m 760.254,1715.11 h -20" /><path
         id="path218"
         style="fill:none;stroke:#000000;stroke-width:6;stroke-linecap:butt;stroke-linejoin:round;stroke-miterlimit:10;stroke-dasharray:none;stroke-opacity:1"
         d="m 760.254,1715.11 h -20" /><path
         id="path220"
         style="fill:#000000;fill-opacity:1;fill-rule:nonzero;stroke:none"
         d="m 760.254,1792.1 h -20" /><path
         id="path222"
         style="fill:none;stroke:#000000;stroke-width:6;stroke-linecap:butt;stroke-linejoin:round;stroke-miterlimit:10;stroke-dasharray:none;stroke-opacity:1"
         d="m 760.254,1792.1 h -20" /><path
         id="path224"
         style="fill:#000000;fill-opacity:1;fill-rule:nonzero;stroke:none"
         d="m 760.254,1851.82 h -20" /><path
         id="path226"
         style="fill:none;stroke:#000000;stroke-width:6;stroke-linecap:butt;stroke-linejoin:round;stroke-miterlimit:10;stroke-dasharray:none;stroke-opacity:1"
         d="m 760.254,1851.82 h -20" /><path
         id="path228"
         style="fill:#000000;fill-opacity:1;fill-rule:nonzero;stroke:none"
         d="m 760.254,1900.61 h -20" /><path
         id="path230"
         style="fill:none;stroke:#000000;stroke-width:6;stroke-linecap:butt;stroke-linejoin:round;stroke-miterlimit:10;stroke-dasharray:none;stroke-opacity:1"
         d="m 760.254,1900.61 h -20" /><path
         id="path232"
         style="fill:#000000;fill-opacity:1;fill-rule:nonzero;stroke:none"
         d="m 760.254,1941.87 h -20" /><path
         id="path234"
         style="fill:none;stroke:#000000;stroke-width:6;stroke-linecap:butt;stroke-linejoin:round;stroke-miterlimit:10;stroke-dasharray:none;stroke-opacity:1"
         d="m 760.254,1941.87 h -20" /><path
         id="path236"
         style="fill:#000000;fill-opacity:1;fill-rule:nonzero;stroke:none"
         d="m 760.254,1977.61 h -20" /><path
         id="path238"
         style="fill:none;stroke:#000000;stroke-width:6;stroke-linecap:butt;stroke-linejoin:round;stroke-miterlimit:10;stroke-dasharray:none;stroke-opacity:1"
         d="m 760.254,1977.61 h -20" /><path
         id="path240"
         style="fill:#000000;fill-opacity:1;fill-rule:nonzero;stroke:none"
         d="m 760.254,2009.13 h -20" /><path
         id="path242"
         style="fill:none;stroke:#000000;stroke-width:6;stroke-linecap:butt;stroke-linejoin:round;stroke-miterlimit:10;stroke-dasharray:none;stroke-opacity:1"
         d="m 760.254,2009.13 h -20" /><path
         id="path244"
         style="fill:#000000;fill-opacity:1;fill-rule:nonzero;stroke:none"
         d="m 760.254,2222.83 h -20" /><path
         id="path246"
         style="fill:none;stroke:#000000;stroke-width:6;stroke-linecap:butt;stroke-linejoin:round;stroke-miterlimit:10;stroke-dasharray:none;stroke-opacity:1"
         d="m 760.254,2222.83 h -20" /><path
         id="path248"
         style="fill:#000000;fill-opacity:1;fill-rule:nonzero;stroke:none"
         d="m 760.254,2331.35 h -20" /><path
         id="path250"
         style="fill:none;stroke:#000000;stroke-width:6;stroke-linecap:butt;stroke-linejoin:round;stroke-miterlimit:10;stroke-dasharray:none;stroke-opacity:1"
         d="m 760.254,2331.35 h -20" /><g
         transform="scale(10)"
         id="g252"><text
           id="text256"
           style="font-variant:normal;font-weight:normal;font-size:10px;font-family:Arial;-inkscape-font-specification:Arial;writing-mode:lr-tb;fill:#000000;fill-opacity:1;fill-rule:nonzero;stroke:none"
           transform="matrix(0,1,1,0,44.9473,111.416)"><tspan
             id="tspan254"
             y="0"
             x="0 8.6277294 14.975386 21.293751 24.472651 28.373823 32.294922 36.406254 42.533981 45.312492 51.650379">MSE (train)</tspan></text>
</g><g
         id="g258"><g
           clip-path="url(#clipPath264)"
           id="g260"><path
             id="path266"
             style="fill:none;stroke:#1f77b4;stroke-width:10;stroke-linecap:square;stroke-linejoin:round;stroke-miterlimit:10;stroke-dasharray:none;stroke-opacity:1"
             d="m 1100.59,2278.49 10.22,-347.92 1.28,44.92 4.68,-12.87 16.19,-207.84 25.98,-54.7 1.27,18.65 3.84,-12.76 26.41,43.11 2.13,-32.01 8.94,-28.21 2.13,-32.54 2.98,-13.9 2.56,8.3 14.91,138.8 0.85,-240.82 3.4,132.03 12.35,14.59 8.52,-127.19 23,-2.49 0.43,70.94 8.52,164.48 7.66,-179.99 5.97,143.38 26.4,-12.12 11.5,-39.46 6.82,-90.64 2.98,138.26 0.43,-142.56 14.05,7.45 9.37,62.1 2.13,-8.06 0.85,-92.05 5.11,49.22 4.26,92.59 18.32,-111.15 3.41,60 3.4,-139.03 11.08,205.95 3.83,-163.7 1.7,85.79 0.85,115.04 5.97,-228.66 0.85,133.72 2.98,7.54 3.41,-54.72 2.56,77.83 11.92,-79.99 31.09,32.13 14.06,-110.38 1.28,116.7 7.24,-113.5 3.83,146.25 0.43,-204.45 2.55,154.14 2.56,-70.04 7.67,-88.47 1.27,94.36 3.83,6.12 20.88,-78.7 1.27,67.47 2.56,-38.36 2.56,17.63 6.38,131.78 2.56,-164.27 2.13,85.81 22.15,-116.31 2.13,-20.8 0.42,205.15 7.67,-43.22 5.54,27.39 5.53,-80.05 16.19,3.94 7.24,167.34 8.52,-192.65 14.9,76.99 1.28,-63.42 5.97,149.78 1.7,-161.09 20.44,-30.97 2.98,14.33 9.38,10.32 5.11,21.25 4.26,78.35 12.77,-235.45 4.69,194.94 3.4,30.56 2.56,-160.11 13.63,96.33 12.35,122.05 6.82,-252.91 8.52,47.42 7.24,16.76 14.9,29.09 17.89,-55.1 3.84,189.98 2.55,-138.85 2.13,-46.59 2.98,25.18 3.84,84.66 5.96,16.91 2.13,-178.52 3.83,0.23 14.91,-22.56 10.22,25.7 8.95,5.38 7.66,32.97 3.84,188.98 5.53,-116.3 4.69,48.32 17.03,14.76 7.25,-64.61 4.25,34.83 1.28,-199.24 8.52,89.3 6.82,88.07 7.66,-165.65 5.11,52.43 7.24,-34.12 2.56,72.56 15.76,23.68 1.28,-34.76 0.42,52.71 3.41,-15.19 1.7,31.6 2.99,-157.04 25.55,201.4 3.83,-73.77 11.08,83 3.4,-124.75 3.41,51.05 1.71,-77.8 8.52,68.21 2.13,-39.79 0.42,162.04 2.13,-160.24 6.39,-28.78 2.13,140.77 8.09,-33.34 6.82,-118.55 4.25,154.06 5.12,-4.3 11.07,-4.71 3.83,-81.49 14.91,25.6 1.28,-73.67 18.74,-65.28 3.41,118.45 3.83,88.66 0.85,-124.79 2.13,82.41 10.65,-107.24 0.43,25.9 4.25,117.13 0.86,-68.99 2.12,43.61 5.97,-75.14 2.55,-53.31 3.84,149.18 6.39,69.79 2.55,-136.05 22.58,-8.61 33.64,-117.49 2.13,82.95 5.54,-36.41 15.76,26.81 5.96,27.94 14.91,-16.32 35.35,10.29 7.67,-11.59 2.55,42.03 10.23,-5.87 20.01,-62.16 3.41,-18.73 15.34,-40.78 6.81,141.03 1.28,-31.88 3.41,-27.66 1.27,99.42 24.71,-116.08 23.85,33.73 2.55,-16.51 6.82,47.92 7.67,-47.87 0.42,-41.25 14.48,284.67 5.96,-242.82 0.85,41.83 0.43,-155.51 10.65,144.06 14.06,-62.45 17.03,120.37 13.21,-144.62 11.5,53.33 2.12,85.96 9.38,-67.72 8.09,-8.41 6.39,91.05 6.81,-111.87 12.35,90.88 1.28,0.87 10.65,-79.12 18.32,-29.11 8.51,142.97 7.67,-115.84 0.85,-37.04 0.85,19.96 2.56,-4.66 11.92,-80.86 5.97,61.78 23.85,-15.76 1.7,-48.85 17.89,179.25 3.41,-230.09 5.54,161.5 2.13,95.59 6.81,-204.54 2.13,66.34 0.85,95.27 4.26,-62.27 1.71,61.69 12.35,-17.24 5.11,178.71 22.15,-56.08 4.68,-157.32 7.24,139.13 11.93,-119.99 11.07,-79.94 5.11,168.48 4.69,-67.94 1.28,-80.89 24.27,45.82 2.13,-107.75 4.69,100.62 31.09,85.86 4.69,-149.21 1.27,164.94 2.56,-287.42 10.65,119.74 3.4,144.58 3.41,-163.11 8.52,-11.36 1.28,92 0.43,-94.07 6.38,178.68 9.37,-120.68 5.54,23.03 0.85,-87.41 5.54,64.11 15.76,156.68 10.22,-99.59 2.98,10.33 2.56,-65.18 10.22,-48 1.28,168.19 25.13,-115.87 7.24,-126.39 8.94,233.29 1.28,-37.12 19.17,20.32 1.27,-87.6 6.82,15.52 13.2,48.23 15.34,-191.22 1.7,190 3.41,-59.84 4.68,97.37 11.08,-191.29 2.13,109.45 6.81,84.27 6.81,-11.79 3.41,110.71 3.84,-164.59 3.83,-1.97 4.68,-26.97 0.43,50.54 5.11,-127.06 0.85,111.55 16.19,195.83 5.11,-180.14 8.09,-127.46 9.8,32.58 8.52,66.47 20.44,19.95 3.83,17.11 1.28,-30.09 22.58,203.62 1.27,-125 8.52,48.36 1.28,-82.72 22.57,-120.15 8.52,49.27 3.41,-14.38 13.2,-21.81 7.24,-66.8 7.67,169.5 3.41,-130.03 13.2,103.83 21.3,-147.79 12.35,150.26 4.68,11.04 6.82,-196.09 5.96,191.19 8.95,20.53 17.03,-66.33 9.37,15.85 2.13,91.86 15.76,-219.39 4.69,120.76 8.52,128.99 0.85,-81.09 13.63,-106.98 10.22,9.94 5.11,-72.45 0.85,148.51 2.56,-12.2 15.76,-63.33 11.92,43.92 0.85,20.97 1.71,-27.75 6.39,1.33 17.46,-5.3 1.28,-94.29 22.57,51.7 1.28,52.92 4.26,-9.9 7.67,99.2 0.42,-57.79 7.24,-5.18 1.28,-99.36 14.48,60.09 0.86,-11.78 2.98,41.98 15.33,-22.87 8.94,56.82 10.23,-104.88 2.12,78.03 2.56,-18.42 11.5,-55.11 8.52,62.95 2.13,-40.73 6.39,6.37 2.13,32.75 18.31,-20.9 10.65,17.14 0.85,-21.7 6.82,64.47 0.85,-196.28 2.55,230.99 0.85,-38.91 7.67,116.77 9.8,-234.01 3.83,194.26 8.09,-68.04 4.69,7.03 0.85,6.83 2.56,-25.74 5.53,-107.87 7.67,26.28 16.61,101.82 9.8,-69.06 2.13,-34.71 10.22,-65.75 4.68,77.62 4.69,53.41 2.98,69.33 2.56,-130.9 10.22,24.96 25.13,49.98 15.33,-123.87 0.43,160.93 1.7,-30.06 8.52,-34.75 0.43,28.54 0.42,-65.65 3.41,12.87 18.74,-59.86 2.98,74.25 1.28,-58.91 8.09,12.08 23,231.66 3.84,-88.52 2.55,-90.69 2.55,4.9 1.28,-56.45 2.99,-46.73 3.4,60.21 1.28,91.79 5.11,-28.16 13.21,-54.44 4.68,6.36 4.68,65.43 28.97,-44.53 5.96,10.13 3.41,179.48 5.96,-124.92 0.43,-138.3 11.07,6.36 5.97,81.88 10.64,88 12.36,-46.95 1.27,-91.09 11.08,-27.22 7.66,126.54 1.7,-86.22 10.65,-131.56 22.15,221.74 6.39,34.37 3.41,-146.83 0.42,70.67 9.37,-100.04 7.67,98.36 17.04,30.31 8.94,-182.04 13.21,8.08 22.57,75.01 4.68,172.98 7.67,-198.38 4.26,155.99 0.43,-181.42 8.09,152.81 9.8,-43.3 8.09,-155.98 12.78,23.73 3.83,-8.92 1.28,248.98 7.24,-179.13 1.28,118.4 2.12,-167.37 4.26,8.03 10.23,-12.63 3.83,15.46 8.09,61.82 7.24,-30.42 26.41,-72.72 14.91,48.45 7.24,92.7 4.26,89.12 2.13,21.11 4.68,-151.24 2.56,-8.28 2.98,-47.67 7.67,69.25 2.12,-35.12 2.13,137.06 7.67,-106.71 4.68,43.24 1.29,-34.11 8.51,45.84 3.41,-44.15 4.26,32.4 14.91,-17.11 2.12,-62.78 25.99,101.18 0.42,-27.52 13.63,21.16 18.32,-131.5 3.41,120.3 3.4,21.48 0.43,-158.51 14.48,167.33 4.69,-116.45 5.11,75.33 7.24,55.19 25.55,-2.28 10.23,19.45 12.77,-139.02 1.71,53.63 5.96,116.22 7.24,-35.76 2.55,-40.5 17.89,-89.13 6.82,76.31 4.68,-156.65 7.24,239.98 8.52,-179.18 2.13,174.97 0.85,-28.97 2.56,31.71 8.52,-31.47 3.41,-112.63 3.83,55.52 29.82,-69.22 8.51,-13.79 0.43,124.5 0.85,-29.66 5.96,-91.52 1.71,0.31 3.83,7.63 0.42,87.99 2.14,-80.72 2.13,38.96 6.38,-96.37 13.21,51.08 5.11,29.33 2.98,55.88 2.13,-80.07 5.96,78.4 3.84,-33.48 14.05,83.38 0.43,-154.23 3.83,53.54 16.19,-18.22 3.4,75.28 0.43,81.9 1.7,-201.41 13.63,164.7 20.02,-23.62 1.71,19.69 9.79,34.72 7.67,-7.21 1.27,-159.17 8.95,129.5 4.68,-126.09 10.23,48.96 2.98,71.89 7.24,-29.81 0.85,150.81 1.28,-168.15 8.94,81.18 0.85,-191.65 2.13,30.78 4.69,12.14 5.11,-25.36 7.24,47.94 7.67,78.46 2.55,-117.35 4.26,100.84 7.67,-57.07 0.43,15.56 11.5,-41.31 3.4,77.42 4.26,-56.64 4.69,30.57 8.94,84.2 7.67,-209.93 13.63,130.17 2.98,-95.32 22.15,63.65 0.85,13.97 4.26,95.53 2.98,-192.64 11.5,37.01 8.94,22.22 4.26,-89.6 6.82,183.53 0.85,-30.61 2.98,-17.81 13.63,33.77 2.13,-135.73 4.69,225.18 2.12,39.68 18.32,-175.2 1.28,19.76 8.52,-188.79 2.55,276.06 0.43,-83.39 14.05,23.16 26.84,135.41 3.83,-51.26 2.98,-235.3 4.26,117.66 1.28,-1.95 9.37,6.98 4.68,-107.65 4.69,39.02 5.11,83.93 0.42,-19.81 1.29,49.79 10.21,-14.64 2.56,48.36 9.8,-9.41 4.26,-220.77 3.4,196.17 25.98,-69.83 3.84,-37.79 3.83,143.54 14.91,-59.22 11.92,-73.83 1.28,51.59 17.04,-59.18 10.22,66.02 27.69,-48.15 17.89,21.66 15.33,-117.28 2.13,199.22 0.42,-202.42 0.86,125.23 5.96,-80.04 5.11,182.03 9.8,-106.49 2.55,-71.63 6.39,-28.97 2.56,44.64 4.25,54.78 10.23,55.41 7.24,-22.08 9.37,-136.23 13.2,67.73 2.98,117.05 13.21,-10.34 2.98,35.07 2.13,-108.73 17.89,167.16 15.33,-179.06 11.92,2.25 2.13,150.79 6.39,-52.42 4.69,-122.27 18.31,119.67 4.69,-7.26 4.26,-15.69 1.7,-54.46 0.43,189.32 11.92,-187.98 3.84,-42.36 9.79,107.64 0.43,-0.86 5.11,-118.97 13.21,94.5 3.83,-188.81 7.24,156.74 2.13,-31.82 3.83,-29.23 3.41,27.34 3.41,-81.73 20.02,195.63 4.25,24.87 15.76,-126.18 3.84,-62.97 0.42,141.16 2.56,-0.73 6.81,64.5 2.99,-156.94 11.92,120.62 0.43,-73.9 3.83,16.37 2.13,-33.58 4.69,37.3 3.83,80 5.96,-132.91 16.19,-22.08 1.27,-70.1 3.84,11.79 10.64,228.28 1.71,-194.94 3.83,45.51 5.96,117.15 2.56,-172.6 0.85,206.57 14.48,-109.41 2.56,-104.64 2.55,185.23 0.86,-7.59 0.42,19.06 4.26,105.41 2.13,-249.09 5.96,63.22 10.65,-53.5 10.65,31.66 8.09,123.25 3.84,-133 7.66,-16.26 11.5,26.89 9.8,112.71 0.85,-30.29 0.43,-64.65 21.72,-62.35 3.41,90.13 1.27,-62.69 3.84,-29.2 16.18,-57.5 13.21,64.6 8.52,56.23 8.09,81.07 13.2,-112.76 3.41,-3.2 0.85,-68.6 14.48,22.88 7.24,7.86 5.96,28.76 2.56,-53.99 11.92,203.48 1.28,-73.11 0.43,-139.04 2.56,51.79 0.85,-58.86 7.24,148.83 3.41,93.41 3.83,-306.62 6.39,149.22 6.81,256.93 16.61,-337.37 5.11,74.74 0.86,-12.91 4.25,78.98 4.69,-70.87 2.98,-22.01 2.98,97.33 0.85,-83.41 7.25,48.83 8.09,-93.45 15.33,97.06 11.5,29.24 2.56,-34.93 3.83,72.39 12.78,-265.24 17.89,134.36 11.92,59.11 2.13,-33.17 5.54,73.77 5.96,18.8 5.54,-76.17 0.85,66.82 0.43,-123.37 8.52,-12.7 2.13,215.46 5.96,-62.21 4.26,-74.08 2.13,-2.08 2.98,-25.4 8.09,-31.32 5.11,33.26 14.91,-17.48 3.83,116.71 20.45,-72.98 2.13,-41.81 6.38,59.16 6.39,-91.23 6.82,-86.18 5.54,89.63 8.52,84.71 3.83,19.16 3.4,-17.5 23.86,-80.3 1.27,48.92 6.82,-38.29 6.82,32.4 30.23,-99.13 3.84,48.47 0.43,103.43 12.77,-120.09 8.09,-17.25 1.28,139.04 9.37,-105.36 18.74,26.37 11.5,138.36 0.86,-235.73 8.94,170.43 9.37,-43.08 12.35,16.37 19.59,80.25 6.82,-97.08 5.11,46.59 25.13,35.82 6.81,-143.52 13.21,52.17 3.4,1.45 19.6,-69.64 2.13,67.16 11.07,4.88 2.56,-5.18 17.89,-57.22 0.42,116.74 2.13,-172.91 6.39,139.05 24.7,9.15 7.24,-36.13 11.5,-1.68 0.43,-85.29 3.41,180.44 5.11,-162.28 1.28,154.16 3.83,-115 6.39,195.02 1.7,-253.52 7.24,88.02 7.67,-28.66 7.67,-66.23 6.39,155.68 4.25,-66.48 1.28,68.72 5.11,27.06 0.43,60.26 1.7,-121.99 11.93,35.25 11.07,-83.69 14.06,43.71 6.39,-118.23 15.33,26.27 2.13,49.64 20.44,18.9 1.71,90.32 8.52,-24.48 20.86,-100.17 12.36,-50.08 17.89,6.43 6.81,-21.92 14.91,40.93 6.39,-19.37 3.41,62.75 2.55,89.34 14.06,82.93 7.24,-108.42 1.28,-38.17 1.27,234.98 5.54,-274.66 11.5,18.62 7.67,2.3 2.98,4.11 2.98,35.27 9.37,-199.54 8.94,202.15 5.54,-113.03 14.91,164.22 9.8,-29.89 1.27,-0.11 5.54,56.64 1.7,-189.66 2.56,50.91 18.31,79.45 0.43,-87.62 8.09,73.54 1.28,-25.33 3.4,39.79 0.43,-55.59 0.43,105.92 2.56,-70.73 8.51,56.77 8.52,-104.89 21.3,-3.25 5.96,158.44 2.56,-149.24 14.48,90.81 17.46,18.9 11.92,-182.4 11.5,12.15 2.14,51.36 2.55,10.16 9.8,82.52 10.64,-26.81 5.54,-91.96 2.56,148.87 3.83,-174.61 7.24,132.49 5.11,15.61 2.56,-125.82 8.51,36.94 1.71,73.41 10.22,-25.01 0.86,57.96 3.83,-123.51 21.29,-79.34 10.23,163.56 9.79,-107.9 14.91,48.09 0.43,6.28 10.22,-45.53 0.85,14.76 0.43,-25.61 12.77,183.74 10.65,-128.82 2.13,-64.98 6.39,69.47 2.56,0.29 12.77,-18.47 0.43,31.53 3.41,-10.34 1.7,-18.78 2.55,168.05 6.82,-210.85 18.32,192.81 5.11,-245.42 4.68,16.81 4.69,167.18 1.7,-21.1 1.7,-57.47 1.71,51.22 7.24,-112.38 2.55,260.57 1.71,-209.92 0.85,58.65 10.65,18.29 8.09,-4.32 2.98,3.8 0.43,-23.37 6.81,10.3 1.28,-20.81 13.63,-58.25 0.42,71.94 0.43,-31.28 10.22,-31.3 5.97,83.91 21.72,-43.43 5.11,-116.36 26.83,154.21 4.26,-96.33 13.63,-20.65 1.71,95.88 8.51,-60.48 10.22,-121.67 0.86,165.09 7.24,31.71 15.76,-42.06 5.11,31.12 7.66,-11.09 2.14,-5.21 0.85,-73 4.25,24.07 7.67,-64.48 3.41,14.38 3.41,-0.47 2.98,-7.15 9.8,153.53 2.98,-62.07 20.01,105.98 2.14,-147.76 9.36,122.66 4.26,15.63 7.67,-77.49 2.98,-21.88 4.26,-73.96 0.85,198.56 5.54,-75.87 8.09,-4.29 8.52,-70.6 4.68,131.41 17.04,-180.56 2.98,228.75 5.12,-215.3 4.68,31.73 13.63,-50.32 13.63,165.31 13.2,-144.93 15.76,82.26 10.23,-56.1 3.83,-166.06 2.55,222.94 6.39,34.79 7.24,8.04 5.97,-112 1.27,40.98 8.1,-50.74 8.09,13.52 3.41,124.29 30.66,86.07 14.06,-234.79 3.41,1.72 5.11,96.97 v 0" /><path
             id="path268"
             style="fill:none;stroke:#ff7f0e;stroke-width:10;stroke-linecap:square;stroke-linejoin:round;stroke-miterlimit:10;stroke-dasharray:none;stroke-opacity:1"
             d="m 1100.59,2107.33 16.18,-359.36 6.39,-27.06 9.8,191.66 25.98,-208.43 1.27,-108.98 3.84,44.18 26.41,3.2 2.13,8.06 8.94,-73.3 2.13,51.1 5.54,43.31 14.91,33.79 0.85,-223.18 3.4,-47.59 12.35,91.51 8.52,2.41 23,-1.06 0.43,57.9 8.52,-78.74 7.66,-2.24 5.97,99.15 26.4,-63.12 11.5,-100 6.82,-41.09 3.41,175.19 14.05,-92.14 5.96,46.09 3.41,6.69 2.13,-125.84 0.85,85.68 5.11,-113.21 4.26,49.97 18.32,-80.91 3.41,125.49 3.4,68.04 11.08,35.76 6.38,-91.6 5.97,74.27 0.85,-70.05 2.98,112.33 3.41,85.93 2.56,-312.01 11.92,-36.02 31.09,84.2 14.06,-23.12 1.28,83.76 7.24,-74.39 3.83,7.68 0.43,-80.04 5.11,163.52 7.67,-13.42 1.27,-37.99 3.83,-69.85 20.88,80.69 1.27,-100.54 2.56,-12.73 2.56,73.91 6.38,-111.78 2.56,66.7 2.13,-77.49 22.15,65.07 2.13,42.36 0.42,187.89 7.67,-195.91 5.54,0.15 5.53,-18.78 16.19,31.34 7.24,-101.1 8.52,46.53 14.9,-38.78 1.28,-40.35 5.97,30.9 1.7,119.47 20.44,-60.5 2.98,-58.68 9.38,-73.79 5.11,-22.72 4.26,83.03 12.77,79.63 4.69,-137.8 3.4,68.11 2.56,-60.77 13.63,199.58 12.35,-194.57 6.82,68.06 6.81,16.52 1.71,-105.95 7.24,25.22 14.9,231.5 17.89,-261.59 3.84,62.95 2.55,-44.75 2.13,-14.28 2.98,74.5 3.84,-30.73 5.96,-27.83 0.85,-165.49 1.28,311.22 3.83,-185.74 14.91,56.75 10.22,-25.25 8.95,-29.56 7.66,220.71 3.84,-281.37 6.81,312.2 3.41,-213.05 17.03,152.64 7.25,-204.42 4.25,75.89 1.28,-64.22 8.52,266.3 6.82,-424.95 7.66,440.55 5.11,-305.8 7.24,102.42 2.56,-27.41 15.76,-16.13 1.28,-90.62 0.42,184.98 3.41,-278.06 4.69,210.65 22.57,-85.15 2.98,87.66 3.83,-57.42 9.37,-78.13 1.71,117 3.4,12.03 3.41,-13.86 1.71,-114.58 8.52,-26.56 2.13,80.01 0.42,-94.23 2.13,56.88 5.11,-61.76 1.28,131.85 2.13,17.7 8.09,-109.84 11.07,312.28 5.12,-367.38 11.07,39.46 3.83,-5.02 14.91,50.39 0.43,225.25 0.85,-253.88 18.74,169.33 3.41,-199.1 3.83,125.8 0.85,137.33 2.13,-93.62 10.65,-19.1 0.43,-105.91 4.25,129.2 0.86,-113.09 2.12,75.04 5.97,-140 2.55,137.73 3.84,-116.93 6.39,-42.87 2.55,115.41 29.82,-219.966 26.4,73.476 2.13,307.82 5.54,-252.39 15.76,169.96 5.96,-116.26 14.91,25.36 35.35,33.99 7.67,-101.8 2.55,346.41 10.23,-302.27 20.01,14.34 3.41,-31.44 15.34,465.46 6.81,-481.62 1.28,20.62 3.41,20.11 1.27,21.1 11.93,27.11 12.78,-115.67 23.85,181.47 2.55,-55.12 6.82,132.74 7.67,-321.78 0.42,121.21 14.48,-87.46 5.54,101.82 0.42,-81.36 0.85,57.83 0.43,105.68 10.65,-160.88 14.06,-1.04 17.03,36.85 13.21,-34.94 11.5,-7.17 2.12,161.35 9.38,-107.1 8.09,-67.81 6.39,223.46 6.81,-199.8 12.35,75.05 1.28,-20.17 10.65,-94.97 18.32,-21.85 8.51,118.39 7.67,-7.14 0.85,-10.84 0.85,18.04 2.56,-190.434 11.92,151.084 5.97,-81.21 23.85,70.08 1.7,-151.485 4.69,155.235 13.2,333.91 3.41,-421.77 5.54,88.46 2.13,-8.32 6.81,-158.461 2.98,159.361 4.26,-65.22 1.71,24.78 12.35,127.8 5.11,-165.88 22.15,3.62 4.68,28.12 7.24,7.42 11.93,-9.15 11.07,92.65 5.11,4.87 4.69,-19.4 1.28,-30.14 24.27,-26.57 2.13,-41.51 4.69,96.01 31.09,-101.58 4.69,16.38 0.42,102.03 0.85,-129.12 2.13,-86.889 0.43,127.369 14.05,-143.302 3.41,104.702 8.52,53.6 1.28,-41.77 0.43,8.95 6.38,-15.96 9.37,-84.436 5.54,168.856 0.85,-90.02 5.54,382.06 15.76,-358.92 10.22,-50.101 2.98,-124.336 2.56,196.787 10.22,184.04 1.28,-191.6 25.13,-158.72 7.24,386.9 10.22,-203.17 19.17,-196.136 1.27,106.297 6.82,129.639 25.13,-236.143 3.41,109.895 1.7,-107.262 3.41,81.508 4.68,65.642 11.08,23.14 2.13,103.32 6.81,-27.8 6.81,-179.919 3.41,86.569 3.84,-60.401 3.83,93.871 4.68,-99.27 0.43,-46.629 5.11,73.93 0.85,33.929 16.19,-8.77 5.11,103.37 8.09,-209.666 9.8,-27.933 8.52,115.149 20.44,-116.638 3.83,85.293 1.28,-46.472 22.58,97.397 1.27,166.52 8.52,-333.968 0.85,212.148 0.43,-143.699 22.57,5.453 8.52,-35.629 3.41,11.946 13.2,117.809 7.24,-26.72 7.67,33.76 3.41,0.03 13.2,83.81 21.3,-261.838 12.35,77.778 4.68,-20.641 6.82,245.631 5.96,-304.092 8.95,121.145 17.03,22.871 9.37,-107.004 2.13,7.812 15.76,138.508 4.69,332.67 8.52,-293.16 0.85,-203.494 13.63,124.754 10.22,106.27 5.11,16.68 0.85,-59.6 2.56,3.37 15.76,-149.771 11.92,35.375 0.85,11.281 1.71,-32.324 6.39,4.504 17.46,82.845 1.28,-79.994 22.57,37.391 1.28,60.493 4.26,-74.977 7.67,78.087 0.42,-58.72 7.24,6.574 1.28,-80.211 14.48,-21.93 0.86,185.197 2.98,-187.345 15.33,34.723 8.94,-17.95 10.23,3.438 2.12,160.344 2.56,15.57 11.5,-83.742 8.52,-127.063 2.13,74.328 6.39,92.667 2.13,-128.647 18.31,10.48 10.65,3.633 0.85,-47.902 6.82,102.254 0.85,-124.418 3.4,99.23 7.67,-18.441 9.8,68.676 3.83,-36.84 12.78,-14.442 0.85,176.607 2.56,-136.103 5.53,-180.316 7.67,499.869 16.61,-278.47 9.8,65.21 2.13,90.46 10.22,-428.925 4.68,163.489 4.69,0.367 2.98,-79.324 2.56,179.023 10.22,-142.645 25.13,-50.281 15.33,226.306 2.13,-243.739 8.52,170.984 0.85,-206.121 3.41,136.66 18.74,-41.469 2.98,277.435 1.28,-295.642 8.09,137.739 23,-14.688 3.84,40.401 0.85,-157.053 5.53,101.09 2.99,17.406 3.4,160.167 1.28,-87.46 5.11,-124.457 11.5,-27.75 1.71,37.859 4.68,-55.875 4.68,54.781 28.97,-48.695 5.96,85.192 3.41,171.395 5.96,-204.872 0.43,-91.66 11.07,132.191 5.97,234.121 10.64,-378.297 12.36,10.743 1.27,167.194 11.08,-63.472 9.36,-131.582 10.65,220.124 22.15,-61.335 6.39,80.955 3.41,-162.521 0.42,62.476 17.04,-148.05 17.04,334.945 8.94,-230.957 13.21,39.98 22.57,-121.308 4.68,64.512 11.93,-104.106 0.43,-29.75 8.09,76.328 9.8,78.059 8.09,-58.754 12.78,15.625 3.83,-52.289 1.28,49.258 2.98,4.117 4.26,-10.906 1.28,90.796 2.12,-14.855 4.26,63.523 10.23,7.037 3.83,-153.353 8.09,26.414 7.24,123.414 26.41,-5.39 14.91,-178.098 7.24,105.387 4.26,-34.106 2.13,-131.73 4.68,222.183 2.56,-80.742 2.98,-47.434 9.79,-66.765 2.13,50.394 7.67,40.688 4.68,-42.176 1.29,-108.996 8.51,255.145 3.41,-164.696 4.26,98.02 14.91,-22.77 2.12,4.043 25.99,-65.644 0.42,-104.903 13.63,296.465 18.32,-162.672 3.41,-112.707 3.4,15.91 0.43,324.169 14.48,-136.641 4.69,78.281 5.11,50.82 7.24,-70.88 25.55,-204.588 10.23,32.464 12.77,347.044 1.71,-337.672 5.96,8.046 7.24,347.916 2.55,-287.513 17.89,121.763 6.82,-79.181 4.68,15.625 3.84,4.39 3.4,336.376 8.52,-313.411 2.13,-210.336 0.85,113.41 2.56,52.512 9.8,-74.488 2.13,-143.438 3.83,173.457 29.82,-29.207 8.51,-71.82 0.43,128.418 0.85,-154.062 5.96,-33.348 1.71,67.465 3.83,-55.324 0.42,97.289 2.14,26.113 2.13,134.72 6.38,-379.412 13.21,154.106 5.11,-75.973 2.98,123.594 2.13,-25.945 5.96,-93.649 3.84,46.66 11.07,-26.363 2.98,228.383 0.43,-89.578 3.83,25.183 16.19,20.747 3.83,-270.09 1.7,192.09 13.63,18.882 20.02,-38.543 1.71,-71.621 9.79,98.278 7.67,138.082 1.27,-183.004 8.95,-63.52 4.68,65.961 10.23,-137.199 2.98,-2.074 7.24,406.345 2.13,-431.798 8.94,500.938 0.85,-396.747 2.13,50.16 4.69,44.07 5.11,-58.64 7.24,206.414 7.67,-208.91 2.55,137.863 4.26,-184.359 7.67,236.562 0.43,-224.055 11.5,65.61 3.4,11.41 4.26,20.273 4.69,33.684 8.94,-54.176 7.67,60.699 13.63,-147.531 2.98,50.703 22.15,112.493 0.85,-49.579 4.26,-75.875 2.98,256.071 11.5,-70.805 8.94,36.879 4.26,-228.016 6.82,125.547 0.85,-187.051 2.98,252.09 15.76,-233.445 4.69,9.644 2.12,214.204 19.6,-184.965 8.52,-33.414 2.55,-17.953 0.43,76.554 11.07,219.691 2.98,-250.445 26.84,60.864 3.83,153.941 2.98,-308.961 4.26,83.676 1.28,69.004 9.37,120.172 4.68,-132.875 4.69,15.132 5.11,149.243 0.42,-148.145 1.29,16.063 10.21,-32.426 2.56,-79.742 9.8,40.312 4.26,221.641 3.4,-200.531 25.98,-128.735 3.84,157.387 3.83,-29.031 14.91,34.046 13.2,-178.492 17.04,151.453 10.22,125.118 27.69,-195.637 17.89,146.101 15.33,-208.273 2.13,16.25 1.28,222.516 5.96,223.864 5.11,-305.677 9.8,252.457 2.55,-143.894 6.39,-181.008 6.81,156.988 10.23,-52.066 7.24,-239.805 9.37,311.5 13.2,-209.082 2.98,-71.566 4.69,121.457 8.52,10.929 2.98,139.032 2.13,-30.832 17.89,-291.735 15.33,35.086 12.78,207.883 0.43,47.051 0.84,-10.114 6.39,-1.461 2.56,-57.804 2.13,140.808 12.35,-144.375 5.96,-86.074 4.69,18.692 4.26,49.242 1.7,-28.028 0.43,98.293 11.92,-292.89 3.84,408.476 9.79,-200.078 0.43,427.715 5.11,-341.855 13.21,-139.692 3.83,-20.59 7.24,75.227 2.13,-33.887 3.83,50.68 3.41,-3.258 10.65,119.328 12.78,-18.945 4.25,-143.356 15.76,-7.75 3.84,188.942 0.42,107.036 2.56,-264.341 6.81,38.508 2.99,-62.332 11.92,187.18 0.43,-136.622 3.83,49.731 2.13,-66.527 4.69,59.945 3.83,-91.703 5.96,527.571 16.19,-350.915 1.27,-235.367 3.84,234.055 10.64,-70.254 1.71,85.812 3.83,-108.391 8.52,-84.785 0.85,-59.722 14.48,70.918 2.56,-64.918 2.55,191.289 1.28,-120.969 4.26,190.137 2.13,-311.059 5.96,119.801 3.84,122.941 6.81,-107.984 10.65,-40.383 8.09,215.473 3.84,-210.766 7.66,-50.355 11.5,104.586 9.8,-142.434 1.28,198.027 21.72,-42.75 3.41,-88.179 1.27,270.336 3.84,-354.555 16.18,64.301 13.21,-105.942 8.52,234.403 8.09,-49.086 13.2,-98.637 3.41,133.098 0.85,-35.332 14.48,53.761 7.24,-134.285 5.96,38.918 2.56,69.598 11.92,-172.824 1.28,300.867 0.43,-162.946 2.56,-109.867 0.85,23.567 7.24,288.273 3.41,-160.008 3.83,125.325 6.39,30.816 6.81,-336.649 16.61,28.469 5.11,118.934 0.86,-93.27 4.25,44.297 4.69,112.738 2.98,-195.16 3.83,141.364 7.25,150.418 8.09,86.9 15.33,-199.424 11.5,23.766 6.39,148.918 12.78,-317.11 9.79,-20.812 0.43,47.875 7.67,124.851 11.92,-36.789 2.13,-58.632 5.54,29.945 5.96,40.387 3.41,-27.438 2.13,158.816 0.85,-127.589 0.43,55.601 8.52,-182.18 2.13,150.309 10.22,-57.855 2.13,-177.051 2.98,221.621 8.09,63.031 5.11,-150.617 14.91,-93.945 3.83,106.586 20.45,175.789 2.13,-121.703 6.38,-71.977 4.69,25.941 1.7,26.766 6.82,-0.73 5.54,-60.731 8.52,154.215 3.83,-191.406 3.4,228.136 15.34,-232.769 8.52,258.625 1.27,-287.352 6.82,12.317 6.82,111.601 30.23,-59.984 3.84,-70.82 0.43,114.136 12.77,-34.093 8.09,93.906 1.28,59.832 9.37,-277.149 18.74,50.118 8.95,148.339 2.55,274.969 0.86,-472.32 8.94,227.625 9.37,-82.953 12.35,-164.762 19.59,372.988 11.93,-301.386 25.13,55.027 6.81,4.504 13.21,56.64 3.4,-47.707 8.95,96.903 10.65,-166.762 2.13,81.395 5.54,36.785 5.53,152.551 2.56,-221.278 17.89,-34.457 0.42,-100.254 2.13,131.082 6.39,-4.676 24.7,-150.347 7.24,182.543 11.5,129.863 0.43,-152.098 3.41,57.606 5.11,0.84 1.28,102.965 3.83,58.351 6.39,-68.344 1.7,-97.207 7.24,108.407 7.67,-140.985 7.67,19.774 6.39,-46.864 4.25,-53.023 1.28,185.797 5.11,-162.082 0.43,112.929 1.7,109.016 11.93,56.008 11.07,-211.707 14.06,-72.578 6.39,21.094 15.33,90.769 2.13,-32.934 20.44,152.239 1.71,-73.739 8.52,100.821 20.86,-409.93 11.08,168.195 1.28,649.266 17.89,-651.996 6.81,1.789 14.91,-61.762 6.39,-8.816 3.41,159.113 2.55,-169.39 14.06,63.984 7.24,-45.945 2.55,144.218 5.54,-133.05 11.5,91.761 7.67,31.778 5.96,-30.832 9.37,-182.754 8.94,173.672 5.54,-157.196 14.91,385.801 11.07,-340.594 5.54,239.301 1.7,-115.644 2.56,65.996 18.31,-181.485 0.43,118.594 8.09,53.988 1.28,64.211 3.4,56.426 0.86,-270.34 2.56,154.981 8.51,-31.762 0.85,-58.891 7.67,-31.926 21.3,118.946 5.96,-106.262 2.56,30.774 14.48,105.382 17.46,-241.945 11.92,94.742 11.5,23.965 2.14,-53.281 2.55,23.84 9.8,-92.344 10.64,140.879 5.12,-31.215 0.42,13.055 2.56,142.851 3.83,-71.461 7.24,684.204 5.11,-614.774 2.56,-167.84 8.51,199.223 1.71,-159.594 10.22,97.461 0.86,107.266 3.83,-152.754 21.29,309.152 10.23,-228.906 9.79,127.031 14.91,-212.789 0.43,-51.723 10.22,-5.379 1.28,-70.64 12.77,20.988 10.65,81.719 2.13,-77.996 6.39,359.735 2.56,-371.431 12.77,115.243 0.43,-75.524 3.41,29.664 1.7,26.028 2.55,-154.465 6.82,62.367 18.32,23.016 9.79,165.14 4.26,85.797 0.43,-219.52 1.7,146.317 1.7,-250.496 1.71,115.625 7.24,357.199 2.55,-222.008 1.71,106.012 0.85,-92.266 10.65,-163.476 8.09,-96.981 2.98,92.715 0.43,-29.344 6.81,-45.386 1.28,-24.153 13.63,64.676 0.42,150.215 0.43,-136.649 10.22,17.793 5.97,13.715 21.72,107.719 5.11,280.678 26.83,-32.49 4.26,-332.254 13.63,-9.711 1.71,-94.395 8.51,41.078 10.22,155.774 0.86,326.418 7.24,-452.657 15.76,75.098 5.11,60.473 7.66,-31.5 2.14,-190.512 0.85,133.102 4.25,-24.645 7.67,201.27 6.82,-307.407 2.98,-9.511 7.24,16.484 2.56,203.93 2.98,-160.153 20.01,73.516 2.14,-8.57 6.81,-80.852 2.55,112.481 4.26,2.507 3.41,-161.781 4.26,-62.621 2.98,165.809 4.26,105.078 0.43,-220.059 0.42,101.727 5.54,-63.188 8.09,202.688 8.52,-98.606 4.68,-92.652 17.04,157.152 2.98,-158.324 5.12,36.148 4.68,148.399 13.63,-251.727 13.63,265.207 13.2,-91.351 15.76,-79.563 10.23,138.985 3.83,-73.426 2.55,-126.891 6.39,101.907 7.24,-120.7 5.97,29.25 1.27,-99.242 8.1,213.156 8.09,65.012 3.41,-33.363 30.66,73.883 14.06,-91.27 3.41,26.348 5.11,-151.813 v 0" /><path
             id="path270"
             style="fill:none;stroke:#2ca02c;stroke-width:10;stroke-linecap:square;stroke-linejoin:round;stroke-miterlimit:10;stroke-dasharray:none;stroke-opacity:1"
             d="m 1100.59,1993.8 11.5,-93.94 4.68,-136.93 6.39,61.74 9.8,-93.79 25.98,37.27 1.27,-102.97 3.84,35.05 26.41,-141.52 2.13,123.55 8.94,76.13 2.13,-118.15 2.98,47.09 2.56,-20.11 14.91,20.93 0.85,68.15 3.4,-77.03 12.35,-98.7 8.52,-42.6 23,32.6 0.43,14.7 8.52,69.02 7.66,-10.5 5.97,-51.68 26.4,31.94 11.5,-43.84 6.82,86.09 3.41,-48.03 14.05,-28.8 5.96,-35.32 3.41,-12.6 2.13,91.52 0.85,-16.56 5.11,18.29 4.26,-90.44 18.32,-14.94 3.41,-5.02 3.4,-79.38 11.08,50.05 3.83,24.09 1.7,21.8 0.85,-33.05 5.97,95.63 0.85,-98.7 2.98,-46.03 3.41,68.47 2.56,-27.66 11.92,-39.39 31.09,48.76 14.06,30.13 1.28,-114.28 7.24,167.51 3.83,-68.75 0.43,28.09 2.55,-117.28 2.56,171.32 7.67,-38.71 1.27,59.15 3.83,-43.83 20.88,-202.29 1.27,128.77 2.56,58.23 2.56,-250.01 6.38,181.12 2.56,-91.22 2.13,81.92 22.15,-155.28 2.55,180.18 7.67,-29.14 5.54,-62.07 5.53,46.13 16.19,-101.21 7.24,15.78 8.52,65.97 14.9,42.16 1.28,-140.43 5.97,21.74 1.7,21.15 20.44,-5.82 2.98,6.99 9.38,-9.69 5.11,15.23 4.26,-95.92 12.77,108.57 4.69,-13 3.4,-25.97 2.56,9.71 13.63,20.24 12.35,-35.77 6.82,119.13 6.81,-113.31 1.71,154.05 7.24,-166.78 32.79,33.02 3.84,-26.32 2.55,7.08 2.13,-49.42 2.98,100.56 3.84,-123.25 8.09,108.22 3.83,-32.07 14.91,57.59 10.22,15.02 8.95,-124.47 7.66,-10.78 3.84,218.27 5.53,-145.53 1.28,-0.86 3.41,-72.27 17.03,70.24 7.25,-114.86 4.25,97.65 1.28,108.23 8.52,58.35 6.82,-79.59 7.66,-64.3 5.11,-126.02 7.24,75.58 2.56,46.71 15.76,-97.51 1.7,36.6 5.11,-56.63 2.99,110.79 22.57,-96.53 2.98,75.38 3.83,14.66 9.37,-62.11 1.71,26.63 3.4,-111.33 5.12,79.02 8.52,21.21 2.13,-14.05 0.42,6.47 2.13,147.99 6.39,-268.94 2.13,158.24 8.09,12.92 6.82,-11.4 4.25,-90.39 5.12,64.2 11.07,3.91 3.83,127.98 14.91,-101.06 0.43,-115.19 0.85,39.59 18.74,91.82 3.41,-59.76 4.68,114.88 2.13,-101.92 10.65,65.68 0.43,164.63 5.11,-310.98 2.12,134.21 5.97,-112.08 2.55,124.31 3.84,-129.44 6.39,-9.21 2.55,60.78 22.58,-111.06 7.24,46.23 26.4,-33.11 2.13,62.97 5.54,68.82 15.76,-81.21 5.96,-12.52 14.91,51.46 35.35,-36.92 7.67,-13.39 2.55,61.36 10.23,-55.52 20.01,-20.89 3.41,-21.82 15.34,84.02 6.81,50.9 1.28,-115.14 3.41,72.63 1.27,-32.08 11.93,-50.47 12.78,372.11 23.85,-259.24 2.55,-115.66 6.82,-10.51 7.67,-40.54 0.42,112.89 14.48,-39.56 5.54,-107.12 0.42,39.74 0.85,-63.2 0.43,86.11 10.65,65.6 14.06,19.67 17.03,2.24 13.21,225.01 11.5,-274 2.12,14.21 9.38,-52.03 8.09,101.13 6.39,-96.03 6.81,-56.83 12.35,25.28 1.28,38.48 10.65,33.26 18.32,4.44 8.51,-103.19 8.52,188.44 0.85,-17.11 2.56,-160 11.92,84.19 5.97,-34.83 23.85,53.66 1.7,-90.41 4.69,64.81 13.2,47.91 3.41,-39.97 5.54,-106.41 2.13,82.07 6.81,47.97 2.13,-69.95 0.85,74.29 4.26,-70.88 1.71,113.78 12.35,-56.34 5.11,21.45 22.15,-169.95 4.68,57.31 7.24,123.81 11.93,-29.48 11.07,-147.29 5.11,137.89 5.97,-110.67 24.27,168.99 2.13,-124.21 4.69,-26.51 31.09,97.72 4.69,-125.08 0.42,87.27 0.85,-49.43 2.13,-51.92 0.43,70.42 10.65,-60.32 2.13,18.13 1.27,-61.84 3.41,103.84 8.52,73.72 1.28,-84.17 0.43,20.48 6.38,-76.2 9.37,71.02 5.54,-80.05 0.85,61.59 5.54,10.6 15.76,222.53 10.22,-197.53 2.98,-6.47 2.56,-52.35 10.22,-47.17 1.28,54.58 25.13,-85.16 7.24,52.72 8.94,-2.52 1.28,-17.24 19.17,78.32 1.27,-105.04 6.82,38.28 13.2,92.42 11.93,-41.91 3.41,75.19 5.11,-137.07 4.68,34.09 11.08,1.84 2.13,-16.03 6.81,-11.49 6.81,-36.5 7.25,178.79 3.83,-86.06 4.68,217.31 0.43,-215.63 5.11,108.84 0.85,-49.48 16.19,-106.93 5.11,68.02 8.09,32.39 9.8,-54.23 8.52,-70.86 20.44,50.36 3.83,64.28 1.28,-122.96 22.58,62.33 1.27,-40.07 8.52,-4.56 0.85,26.45 0.43,-20.72 22.57,33.63 8.52,-9.7 3.41,374.43 13.2,-435.54 7.24,96.67 7.67,7.99 3.41,-76.85 13.2,3.04 21.3,91.97 12.35,-91.98 4.68,77.41 6.82,87.86 5.96,-22.96 8.95,-2.42 17.03,-102.73 9.37,-76.58 2.13,327.24 15.76,-317.5 4.69,0.74 8.52,-28.48 0.85,18.81 13.63,42.53 10.22,41.21 5.11,50.97 0.85,-59.53 2.56,-47.29 15.76,92.48 14.48,-107.3 6.39,47.71 18.74,-55.65 22.57,-51.98 1.28,87.84 4.26,11.87 7.67,-66.68 0.42,55.24 7.24,-7.64 1.28,-60.05 14.48,93.21 0.86,-28.87 2.98,-48.82 15.33,88.81 8.94,-96.56 10.23,43.38 2.12,18.35 2.56,-18.22 11.5,162.66 8.52,-60.03 2.13,-81.04 6.39,26.68 2.13,-83.19 18.31,30.82 10.65,139.82 0.85,-195.41 6.82,36.87 0.85,-4.55 2.55,46.41 0.85,-62.3 7.67,-2.92 9.8,-30.79 3.83,18.78 8.09,21.31 4.69,84.89 0.85,-50.57 2.56,-12.68 13.2,115.96 16.61,-38.39 9.8,-40.34 2.13,79.76 10.22,-132.12 4.68,89.13 4.69,-23.03 2.98,-84.27 2.56,-12.58 10.22,201.67 25.13,-217.21 15.33,37.89 0.43,-10.93 1.7,29.21 8.52,38.06 0.43,9.62 0.42,-82.93 3.41,-13.32 18.74,64.15 2.98,98.24 1.28,-71.83 8.09,-87.52 23,40.44 4.69,95.91 4.25,-147.59 1.28,70 2.99,10.41 3.4,-61.47 1.28,57.92 5.11,129.09 11.5,-147.36 1.71,40.1 4.68,-57.81 4.68,1.32 34.93,-21.38 3.41,32.06 5.96,-4.33 0.43,72.26 11.07,-7.21 5.97,-90.51 23,25.2 1.27,-33.12 11.08,0.1 7.66,60.28 1.7,68.77 10.65,79.64 22.15,-85.44 6.39,-57.38 3.41,172.89 0.42,-163.02 9.37,-71.04 7.67,75.71 25.98,-128.414 13.21,61.064 22.57,-32.44 4.68,20.86 7.67,-16.64 4.26,-1.16 0.43,89.69 8.09,26.14 9.8,-108.3 8.09,123.02 12.78,-113.05 3.83,77.17 1.28,-58.44 2.98,-4.94 5.54,-48.36 2.12,55.7 4.26,-22.83 10.23,47.88 3.83,-7.94 8.09,1.67 7.24,-25.88 26.41,11.96 14.91,116.55 7.24,-127.57 4.26,-42.14 2.13,51.1 4.68,31.65 2.56,45.55 2.98,-51.9 7.67,-31.85 2.12,8.76 2.13,16.06 7.67,105.28 4.68,-215.879 1.29,188.559 8.51,-107.9 3.41,-4.48 4.26,46.61 14.91,-74.95 2.12,142.42 25.99,-135.29 0.42,41.67 13.63,-52.83 18.32,68.02 3.41,70.44 3.4,-58.78 0.43,-61.16 14.48,54.39 4.69,-65.83 5.11,103.01 7.24,-95.4 25.55,-20.03 10.23,208.14 12.77,-56.78 1.71,-184.325 5.96,186.715 7.24,-114.72 2.55,29.92 17.89,-35.41 6.82,78.56 4.68,-51.8 3.84,-102.242 11.92,402.392 0.85,-277.99 1.28,42.76 0.85,-71.51 2.56,-39.86 8.52,-10.67 1.28,27.91 2.13,0.9 3.83,-9.35 29.82,-34.35 8.51,81.33 0.43,-78.32 0.85,60.3 5.96,7.9 1.71,-25.27 3.83,13.02 0.42,-21.95 2.14,-26.34 2.13,32.22 6.38,-16.37 13.21,25.97 8.09,35.9 2.13,198.09 5.96,-282.35 3.84,-12.756 11.07,140.156 2.98,-98.35 0.43,51.48 3.83,135.64 16.19,-25.35 3.4,-130.58 0.43,79.58 1.7,-85.36 13.63,67.21 20.02,-19.39 1.71,-117.649 9.79,211.819 8.94,-186.32 8.95,-14.81 4.68,73.01 10.23,75.65 2.98,-95.66 7.24,-57.15 0.85,52.51 1.28,-1.47 8.94,-20.05 0.85,65.92 2.13,-95.39 4.69,37.57 5.11,-27.48 7.24,129.39 7.67,-147.317 2.55,76.467 4.26,-63.4 7.67,9.76 0.43,-50.881 11.5,141.341 3.4,-89.42 8.95,-34.578 8.94,24.658 7.67,156.96 13.63,-135.27 2.98,10.54 22.15,37.49 0.85,262.57 7.24,-267.24 11.5,-45.03 8.94,-28.392 4.26,92.662 6.82,-49.17 0.85,13.64 2.98,-52.06 13.63,-21.994 2.13,60.904 4.69,22.41 2.12,-96.1 18.32,145.51 1.28,64.62 8.52,-83.07 2.98,-95.08 11.07,23.77 2.98,88.35 26.84,-34.48 3.83,-15.76 2.98,-28.29 4.26,-12.46 1.28,-38.274 14.05,50.824 4.69,12.69 5.11,-17.64 0.42,-29.48 1.29,65.83 10.21,81.76 2.56,-110.42 14.06,-26.45 3.4,-59.18 25.98,263.2 3.84,-224.884 3.83,59.434 14.91,-19.8 11.92,102.08 1.28,-160.327 17.04,26.086 10.22,-9.965 27.69,121.946 17.89,-41.71 15.33,84.55 2.13,-57.51 0.42,-123.108 0.86,64.378 5.96,25.46 5.11,-93.935 9.8,100.745 2.55,8.3 6.39,-82.042 2.56,-9.832 4.25,89.274 10.23,-57.98 7.24,-5.41 22.57,41.48 2.98,-29.75 4.69,7.12 8.52,-12.71 2.98,88.11 2.13,-120.114 17.89,16.424 15.33,-32.123 11.92,184.373 0.86,-127.2 0.43,51.03 0.84,-45.06 6.39,-46.178 4.69,107.838 12.35,-124.073 5.96,147.823 4.69,362.2 6.39,-510.335 11.92,18.367 3.84,17.808 9.79,-89.828 0.43,156.108 5.11,-81.065 13.21,114.725 3.83,-28.83 7.24,-32.02 2.13,61.88 3.83,25.39 3.41,-128.07 3.41,-65.7 7.24,24.989 12.78,30.578 4.25,134.123 15.76,-80.25 3.84,-10.17 0.42,-46.375 2.56,0.301 6.81,38.534 2.99,-2.07 11.92,-56.746 0.43,57.306 3.83,-57.774 2.13,-1.11 4.69,140.224 3.83,-175.583 5.96,66.543 16.19,41.07 1.27,-120.293 3.84,159.733 10.64,-135.088 1.71,50.695 3.83,28.403 5.96,-27.692 2.56,38.562 0.85,-57.91 14.48,118.82 2.56,-25.91 3.41,-93.093 0.42,82.823 4.26,29.52 2.13,50.86 5.96,20.27 3.84,-130.89 6.81,-47.556 10.65,65.106 8.09,13.02 3.84,-89.216 7.66,178.296 11.5,-208.151 9.8,78.451 1.28,-42.69 21.72,-9.945 3.41,124.785 1.27,-107.086 3.84,55.916 16.18,-25.92 13.21,10.4 8.52,-45.247 8.09,72.527 13.2,-39.25 3.41,-14.57 0.85,18.76 14.48,-76.452 7.24,14.942 5.96,79.72 2.56,-15.26 11.92,-63.921 1.28,-16.891 0.43,187.742 3.41,-194.91 7.24,23.68 3.41,116.05 3.83,-116.362 6.39,36.171 6.81,-61.308 16.61,56.39 5.11,-17.711 0.86,8.356 4.25,26.954 4.69,-45.075 2.98,99.345 2.98,-103.548 0.85,142.548 7.25,-167.716 8.09,-26.879 15.33,115.255 11.5,-0.64 2.56,-65.693 3.83,24.922 12.78,-88.61 9.79,82.664 0.43,-6.406 19.59,97.283 2.13,-86.529 5.54,84.149 5.96,-10.47 3.41,-17.13 2.13,33.86 0.85,84.7 0.43,-148.07 10.65,210.82 5.96,-93.33 4.26,-134.193 2.13,-13.996 2.98,272.309 8.09,-173.13 5.11,-64.77 18.74,-48.987 20.45,15.89 2.13,29.227 6.38,-14.899 4.69,78.429 1.7,-51.92 6.82,-37.032 5.54,31.472 8.52,-11.097 3.83,-10.102 3.4,-19.054 15.34,68.003 8.52,-41.527 1.27,-67.558 6.82,172.495 6.82,-184.433 30.23,16.09 3.84,10.816 0.43,12.934 12.77,-9.117 8.09,34.762 1.28,23.728 9.37,4.28 18.74,-125.7 8.95,142.7 2.55,-40.555 0.86,-40.664 8.94,53.664 9.37,11.265 12.35,-25.363 19.59,-69.785 6.82,302.098 5.11,-178.47 25.13,-61.023 6.81,117.713 13.21,-91.33 3.4,-103.074 8.95,231.614 10.65,-146.884 2.13,134.234 5.54,-190.214 5.53,93.824 2.56,-32.515 17.89,66.855 0.42,90.57 2.13,-182.511 6.39,-18.981 24.7,56.512 7.24,-9.184 11.5,-52.668 0.43,-27.39 3.41,27.34 5.11,209.012 1.28,-174.309 3.83,328.059 6.39,-322.805 1.7,67.995 7.24,-147.804 7.67,12.285 7.67,6.199 6.39,119.29 4.25,-17.56 1.28,-98.57 5.11,120.66 0.43,-60.285 1.7,74.255 11.93,-127.309 11.07,32.008 14.06,11.515 6.39,-42.625 15.33,50.364 2.13,-47.829 20.44,29.969 1.71,-69.195 8.52,135.792 20.86,111.46 11.08,-175.787 1.28,-73.301 17.89,262.528 6.81,-208.528 14.91,-48.676 6.39,45.965 3.41,54.799 2.55,-24.385 14.06,18.305 7.24,121.77 1.28,-37.57 1.27,-117.708 5.54,14.512 11.5,52.356 7.67,-3 2.98,166.12 2.98,-124.95 9.37,-174.206 14.48,168.666 14.91,-25.05 9.8,-46.835 1.27,-30.566 5.54,70.811 1.7,-37.077 2.56,-27.582 18.31,-0.492 0.43,-28.992 8.09,-14.789 1.28,35.007 3.4,-48.265 0.86,36.473 2.56,-31.036 8.51,-11.281 0.85,2.996 7.67,2.613 21.3,27.5 5.96,25.204 2.56,50.851 14.48,17.88 17.46,-34.497 11.92,-82.297 11.5,2.805 2.14,-33.348 2.55,130.507 9.8,169.32 10.64,-144.11 5.12,-52.932 0.42,-29.394 2.56,71.536 3.83,-75.622 7.24,-29.305 16.18,290.827 1.71,-72.69 10.22,-84.45 0.86,-50.15 3.83,36.35 21.29,-31.96 10.23,-90.208 9.79,62.504 14.91,22.074 0.43,-111.113 10.22,39.062 0.85,133.471 0.43,257.4 12.77,-359.484 10.65,-9.223 2.13,105.307 6.39,-10.66 2.56,-34.89 12.77,-37.87 0.43,-59.816 3.41,-41.504 1.7,175.39 2.55,-76.738 6.82,-46.055 18.32,27.985 5.11,73.478 4.68,-68.236 4.26,2.305 0.43,-31.45 5.11,63.61 7.24,-29.145 2.55,-38.269 1.71,60.429 0.85,-8.984 10.65,-12.996 8.09,-2.336 2.98,-34.266 0.43,36.098 6.81,154.74 1.28,-156.92 13.63,-11.515 0.85,57.295 10.22,-61.373 5.97,9.351 21.72,10.633 5.11,26.055 26.83,-74.703 4.26,10.074 13.63,102.933 1.71,69.75 8.51,-168.629 10.22,-42.336 0.86,102.622 7.24,-60.567 15.76,-9.199 5.11,86.889 7.66,9.17 2.14,-6.41 0.85,42.25 4.25,-100.27 7.67,3.887 3.41,-9.055 3.41,7.676 2.98,-89.082 7.24,96.617 2.56,-38.559 2.98,-15.582 20.01,156.548 2.14,-121.325 6.81,-12.309 2.55,86.954 7.67,-77.149 4.26,-9.148 2.98,-10.309 4.26,135.306 0.43,-184.474 0.42,51.207 5.54,-5.402 8.09,87.899 8.52,-15.352 4.68,-101.129 17.04,35.48 2.98,30.996 5.12,2.914 4.68,4.766 13.63,70.215 13.63,-38.52 13.2,42.61 15.76,-111.157 10.23,48.602 3.83,-25.371 2.55,-35.043 6.39,41.176 7.24,-40.164 5.97,-17.184 1.27,19.41 8.1,-2.496 8.09,-35.512 3.41,108.922 30.66,78.987 14.06,-109.952 3.41,58.672 2.55,-56.769 2.56,38.605 v 0" /><path
             id="path272"
             style="fill:none;stroke:#d62728;stroke-width:10;stroke-linecap:square;stroke-linejoin:round;stroke-miterlimit:10;stroke-dasharray:none;stroke-opacity:1"
             d="m 1100.59,2088.79 10.22,-194.04 1.28,21.33 4.68,-3.14 6.39,9.54 9.8,-154.26 25.98,80.24 1.27,9.43 3.84,125.79 26.41,-314.85 2.13,42 8.94,77.17 2.13,47.21 2.98,-93.03 2.56,73 14.91,-59.18 0.85,-31.69 3.4,-24.92 12.35,127.2 8.52,-71.7 23,33.25 0.43,-37.23 8.52,5.23 7.66,-103.08 5.97,50.42 26.4,-31.69 11.5,57.76 9.8,-121.82 0.43,185.01 14.05,-110.67 5.96,-0.2 3.41,-58.46 2.13,25.14 0.85,52.63 5.11,44.76 4.26,-27.18 18.32,-83.24 3.41,57.02 3.4,-133.57 11.08,158.94 3.83,-117.09 1.7,45.82 0.85,-96.23 5.97,39.57 0.85,-76.32 2.98,76.54 3.41,40.54 2.56,2.85 11.92,1.9 31.09,42.03 14.06,-181.18 1.28,98.87 7.24,40.1 3.83,-133.74 0.43,21.48 2.55,32.85 2.56,55.9 7.67,26.4 1.27,-90.96 3.83,113.51 20.88,-46.26 1.27,-44.38 2.56,41.86 2.56,19.33 6.38,-14.75 2.56,-55.64 2.13,20.63 22.15,-43.95 2.13,-86.13 0.42,90.73 7.67,30.9 5.54,-8.85 5.53,-95.94 16.19,118.77 7.24,-163.03 8.52,19.67 14.9,20.22 1.28,141.98 5.97,-268.1 1.7,278.65 20.44,11.01 2.98,-57.83 9.38,32.97 5.11,-100.97 4.26,-15.56 12.77,-12.63 4.69,-23.47 5.96,147.06 13.63,-70.38 12.35,6.17 6.82,65.81 6.81,-249.75 8.95,124.54 14.9,27.11 17.89,-63.03 3.84,-48.87 2.55,227.89 2.13,-278.44 2.98,-4.23 3.84,125.64 5.96,-87.41 2.13,245.97 3.83,-24.7 25.13,-134.3 8.95,-124.19 7.66,147.51 3.84,192.78 5.53,-390.28 1.28,86.86 3.41,-33.82 17.03,-54.27 7.25,117.16 4.25,-54.19 1.28,10.55 8.52,-2.82 6.82,98.86 7.66,-126.12 5.11,-11.44 7.24,15.09 2.56,-115.13 17.04,226.12 0.42,-96.26 3.41,-89.12 1.7,10.89 2.99,53.97 22.57,23.2 2.98,-12.53 3.83,59.28 9.37,-137.26 1.71,340.91 3.4,-232.83 3.41,25.19 1.71,-50.79 8.52,-56.11 2.13,-0.48 0.42,60.53 2.13,-58.75 5.11,122.13 1.28,-143.87 2.13,136.69 8.09,59.66 6.82,-193.36 4.25,-71.21 5.12,107.81 11.07,41.76 3.83,-7.56 14.91,-9.39 0.43,16.95 0.85,-77.48 18.74,21.98 7.24,96.66 0.85,-140.27 2.13,-38.83 10.65,81.91 0.43,56.35 4.25,5.23 0.86,-81.61 2.12,36.97 5.97,-35.02 2.55,86.22 3.84,31.14 8.94,-121.13 22.58,90.55 7.24,-180.26 26.4,24.62 2.13,207.56 5.54,-136.27 15.76,61.11 5.96,-47.94 14.91,-72.99 35.35,-32.22 7.67,150.25 2.55,-151.83 10.23,236.6 20.01,-41.14 3.41,-98.45 15.34,4.46 6.81,6.94 1.28,-106.55 3.41,69.03 1.27,-110.07 11.93,-77.59 12.78,339.81 26.4,-257.34 6.82,191.41 7.67,-38.6 0.42,-37.54 14.48,-77.2 4.26,117.8 1.28,-77.13 0.42,281.83 1.28,-312.63 10.65,-83.75 14.06,103.05 17.03,77.13 13.21,-13.48 11.5,-19.22 2.12,-20.95 9.38,-63.3 8.09,-105.07 6.39,40.05 6.81,264.84 12.35,-269.89 1.28,50.3 10.65,22.32 18.32,-5.25 8.51,-35.64 7.67,37.97 0.85,-48.69 0.85,4.88 2.56,28.77 11.92,250.23 5.97,-408.789 23.85,322.699 1.7,-112.29 4.69,-102.13 13.2,49.23 3.41,210.39 7.67,-238.98 6.81,-0.73 2.13,93.96 0.85,-145 4.26,140.97 1.71,-27.26 12.35,-14.01 5.11,-14.09 22.15,67.97 4.68,-115.82 7.24,118.41 11.93,-12.76 11.07,7.82 5.11,-136.95 4.69,45.14 1.28,122.72 24.27,-6.3 2.13,-125.13 4.69,119.72 31.09,-133.36 4.69,4.61 0.42,-22.07 0.85,111.87 2.13,-127.55 0.43,67.55 10.65,-94.96 3.4,185.75 3.41,-129.99 8.52,74.62 1.28,201.5 0.43,-182.29 6.38,-0.11 9.37,-279.594 5.54,213.104 0.85,77.25 5.54,-71.76 15.76,-76.54 10.22,7.52 2.98,-17.97 2.56,264.32 10.22,-182.65 1.28,163.65 25.13,-135.25 7.24,33.21 8.94,-158.86 1.28,49.5 19.17,90.61 1.27,-79.75 6.82,-10.56 13.2,-17.98 11.93,19 3.41,-1.51 1.7,-3.5 3.41,-27.3 4.68,27.57 11.08,42.19 2.13,-122.68 6.81,53.22 6.81,32.95 3.41,58.69 3.84,-1.87 3.83,-175.667 4.68,15.684 0.43,273.313 5.96,-141.99 16.19,-139.87 5.11,268.96 8.09,-220.68 9.8,46.74 8.52,11.33 20.44,186.33 3.83,-88.82 1.28,-128.02 22.58,155.29 1.27,-86.15 8.52,-66.18 0.85,-34.83 0.43,24.43 22.57,201.66 8.52,-243.79 3.41,65.7 13.2,-114.329 7.24,209.879 7.67,-91.07 3.41,107.06 13.2,-39.77 21.3,16.41 12.35,-49.17 4.68,66.08 6.82,-146.56 5.96,-35.508 8.95,57.258 17.03,180.67 9.37,-271.99 2.13,124.07 15.76,-204.73 4.69,169.18 8.52,105.76 0.85,-215.89 13.63,84.64 10.22,81.73 5.11,30.87 0.85,29.53 2.56,-158.83 15.76,101.19 11.92,-13.38 0.85,-72.08 1.71,87.53 6.39,-91.7 17.46,16.69 1.28,5.25 22.57,-13.04 1.28,131.42 4.26,-94.66 7.67,-99.226 0.42,132.246 7.24,-7.55 1.28,-188.297 14.48,61.101 0.86,-28.535 2.98,13.164 15.33,-44.398 8.94,171.405 10.23,26.16 2.12,-215.847 2.56,151.527 11.5,-25.99 8.52,17.74 2.13,87.41 6.39,328.3 2.13,-368.09 18.31,-62.57 10.65,-48.088 0.85,-26.551 6.82,35.39 0.85,-141.191 2.55,133.727 0.85,-15.473 7.67,111.636 9.8,196.68 3.83,-256.019 8.09,-48.219 4.69,98.398 0.85,148.39 2.56,-218.831 5.53,239.141 7.67,-97.72 16.61,-154.964 9.8,-50.59 2.13,38.324 10.22,1.758 4.68,-111.504 4.69,178.586 5.54,-152.093 10.22,193.853 25.13,-90.725 15.33,-34.757 0.43,243.212 1.7,-108.93 8.52,334.58 0.85,-466.694 3.41,-81.325 18.74,175.389 2.98,-62.666 1.28,38.166 8.09,36.96 23,-93.173 3.84,-108.039 0.85,76.68 1.7,10.726 3.83,-54.66 2.99,46.856 3.4,-38.848 1.28,87.395 5.11,13.281 11.5,-15.824 1.71,-66.211 4.68,124.437 4.68,-78.562 28.97,13.074 5.96,125.258 3.41,-147.313 5.96,201.543 0.43,-116.5 11.07,-174.562 5.97,183.752 10.64,256.05 12.36,-396.56 1.27,112.82 11.08,-43.277 7.66,-181.09 1.7,264.367 10.65,-64.414 22.15,-101.738 6.39,32.398 3.41,200.164 0.42,-9.78 9.37,-190.286 7.67,63.527 17.04,-192.968 8.94,481.687 13.21,-372.723 22.57,28.715 4.68,52.481 7.67,-43.02 4.26,109.617 0.43,-147.632 8.09,91.566 9.8,-54.57 8.09,-93.477 12.78,66.356 3.83,36.535 1.28,-98.836 2.98,134.597 4.26,-131.429 3.4,173.46 4.26,-52.089 10.23,-161.504 3.83,253.153 8.09,-229.38 7.24,23.262 26.41,100.746 14.91,122.472 7.24,-200.663 4.26,188.603 2.13,-129.545 4.68,114.665 2.56,-142.829 2.98,20.946 7.67,37.527 2.12,45.126 2.13,21.33 7.67,-53.812 4.68,96.012 1.29,-42.23 8.51,-146.992 3.41,1.414 4.26,-35.567 14.91,15.649 2.12,140.656 25.99,-145.723 0.42,-24.691 13.63,189.034 18.32,-26.362 3.41,-83.606 3.4,-19.73 0.43,93.816 14.48,-92.449 4.69,64.43 5.11,165.351 7.24,-232.125 25.55,37.465 10.23,81.12 12.77,-180.753 1.71,-65.461 5.96,121.571 7.24,28.476 2.55,109.787 17.89,-233.603 6.82,122.582 4.68,272.901 3.84,-256.882 3.4,-16.918 8.52,-2.215 2.13,-51.738 0.85,28.481 2.56,44.91 8.52,-94.512 1.28,163.674 2.13,110.67 3.83,-272.59 29.82,-19.863 8.51,160.019 1.28,-288.328 5.96,223.086 1.71,106.266 3.83,-219.578 0.42,30.683 2.14,282.375 2.13,-249.332 6.38,-30.609 13.21,25.547 5.11,13.48 2.98,-110.336 2.13,69.352 5.96,101.742 3.84,102.126 11.07,-142.083 2.98,-63.285 0.43,199.298 3.83,-185.669 16.19,193.539 3.4,-207.348 0.43,204.238 1.7,143.96 13.63,-393.21 20.02,587.52 1.71,-459.402 9.79,-70.649 7.67,-8.082 1.27,57.387 8.95,19.41 4.68,-66.481 10.23,153.977 2.98,9.48 7.24,-199.613 0.85,158.348 1.28,-65.379 8.94,-13.641 0.85,124.445 2.13,-178.679 4.69,225.469 5.11,-232.2 7.24,144.36 7.67,-38.149 2.55,-101.32 4.26,-7.008 7.67,-38.359 0.43,279.756 11.5,-198.729 3.4,58.168 4.26,-67.367 4.69,-49.012 8.94,196.05 7.67,32.89 13.63,-165.104 2.98,155.524 22.15,276.17 0.85,-378.514 4.26,69.769 2.98,74.305 11.5,-242.531 8.94,202.821 4.26,-215.716 7.67,118.133 2.98,-38.14 13.63,9.687 2.13,61.426 4.69,30.953 2.12,43.997 18.32,-229.763 1.28,140.063 11.07,-100.715 0.43,67.047 11.07,-31.492 2.98,-139.364 26.84,92.758 6.81,-100.738 5.54,60.195 9.37,24.719 4.68,-58.25 4.69,21.547 5.11,99.933 0.42,-176.609 1.29,95.949 10.21,72.243 2.56,-96.313 9.8,33.785 4.26,-46.902 3.4,42.68 25.98,28.261 3.84,273.526 3.83,-405.877 14.91,18.558 11.92,129.949 1.28,79.829 17.04,-20.657 10.22,-102.629 27.69,-32.339 17.89,100.886 15.33,246.89 2.13,-344.671 0.42,30.102 0.86,235.439 5.96,-259.307 5.11,-56.418 9.8,309.455 2.55,-185.794 6.39,-50.52 2.56,23.942 4.25,460.882 10.23,-506.922 7.24,138.844 9.37,-178.332 13.2,28.672 2.98,-24.367 4.69,171.137 8.52,-235.524 2.98,246.918 2.13,-45.867 17.89,79.207 15.33,-10.898 11.92,31.25 0.86,-65.758 0.43,-123.907 0.84,189.071 6.39,-140.227 2.56,9.875 2.13,67.367 12.35,-191.488 5.96,163.918 8.95,-106.078 1.7,53.992 0.43,229.937 11.92,-282.781 3.84,122.485 9.79,-152.297 0.43,288.193 5.11,-221.267 13.21,-111.45 3.83,30.602 7.24,35.352 2.13,168.257 3.83,-255.195 3.41,153.871 3.41,-195.43 7.24,217.86 12.78,-69.137 4.25,-38.328 15.76,199.723 3.84,-230.61 0.42,151.946 9.37,-92.707 2.99,161.16 11.92,-166.758 0.43,-66.719 3.83,-48.523 2.13,12.043 4.69,-44.039 3.83,34.211 5.96,133.894 16.19,-102.726 1.27,248.918 3.84,-242.219 10.64,43.25 1.71,246.581 3.83,-68.484 5.96,-137.757 2.56,40.421 0.85,-120.855 14.48,116.004 2.56,7.121 2.55,-81.414 1.28,377.734 4.26,-310.711 2.13,175.172 5.96,-174.898 3.84,-152.203 6.81,131.488 10.65,255.182 8.09,-284.373 3.84,197.023 7.66,-153.711 11.5,-111.871 9.8,188.965 1.28,-171.317 21.72,71.594 3.41,411.3 1.27,-476.987 3.84,18.82 16.18,126.961 13.21,-2.215 8.52,-109.922 8.09,120.567 13.2,-152.121 3.41,9.57 0.85,20.555 14.48,646.092 7.24,-712.003 5.96,115.911 2.56,-4.063 11.92,-25.898 1.71,72.445 2.56,-60.777 0.85,-117.055 7.24,188.062 3.41,8.106 3.83,42.094 6.39,-222.985 6.81,483.273 16.61,-381.109 5.11,164.614 0.86,-159.477 4.25,217.392 4.69,-332.24 2.98,256.313 2.98,-75.856 0.85,113.575 7.25,-156.403 8.09,-89.094 15.33,98.86 11.5,-67.156 2.56,90.32 3.83,-145.477 12.78,55.575 9.79,-49.633 0.43,257.328 7.67,-148.379 11.92,-96.727 2.13,126.36 5.54,220.744 5.96,-411.803 3.41,66.633 2.13,-18.578 0.85,201.898 0.43,-181.672 8.52,-135.894 2.13,548.596 5.96,-257.912 4.26,11.906 2.13,-134.055 2.98,74.383 8.09,-19.68 5.11,105.582 14.91,-251.871 3.83,126.852 20.45,-14.164 2.13,-34.231 6.38,429.27 4.69,-254.106 1.7,538.766 6.82,-656.914 5.54,215.424 8.52,-236.733 3.83,110.082 3.4,-227.851 15.34,231.5 8.52,-128.215 1.27,5.351 6.82,-97.593 6.82,71.386 30.23,2.914 3.84,264.829 0.43,-79.762 12.77,-205.945 8.09,94.597 1.28,-212.441 9.37,135.027 18.74,-79.754 8.95,227.176 2.55,96.355 0.86,-142.871 8.94,-70.769 9.37,109.933 12.35,109.903 19.59,-159.5 6.82,130.531 5.11,-199.305 25.13,-194.027 6.81,60.441 13.21,225.821 3.4,116.425 8.95,-96.765 10.65,-234.172 2.13,117.629 5.54,41.168 5.53,-162.735 2.56,175.821 17.89,-133.594 0.42,180.422 2.13,-269 6.39,179.965 24.7,-11.235 7.24,-85.086 11.5,168.579 0.43,-41.45 3.41,-149.379 5.11,10.211 1.28,29.762 3.83,240.356 6.39,-219.696 1.7,43.176 7.24,56.07 7.67,-113.027 7.67,282.816 6.39,-119.003 4.25,-28.708 1.28,-83.07 5.11,-3.367 0.43,-109.156 1.7,74.761 11.93,10.247 11.07,-21.192 14.06,563.227 6.39,-294.715 15.33,-293.582 2.13,207.226 20.44,-131.949 1.71,123.641 8.52,245.869 20.86,-76.28 11.08,-316.656 1.28,91.938 17.89,-62.793 6.81,-89.172 14.91,-108.066 6.39,428.273 3.41,76.796 2.55,-184.956 14.06,-112.195 7.24,-6.043 2.55,-126.008 5.54,-78.442 11.5,340.043 7.67,-261.316 2.98,12.703 2.98,347.934 9.37,-331.528 8.94,-19.808 5.54,-64.633 14.91,307.59 9.8,-180.52 1.27,97.227 5.54,-95.75 1.7,-168.832 2.56,170.824 18.31,373.32 0.43,-283.707 8.09,-73.691 1.28,-112.883 3.4,137.375 0.43,104.086 0.43,-59.062 2.56,-120.793 8.51,60.843 0.85,80.18 7.67,-25.672 21.3,-22.812 5.96,-1.528 2.56,34.414 14.48,33.489 17.46,-90.395 11.92,-34.988 11.5,25.293 2.14,215.121 2.55,-351.149 9.8,200.653 10.64,16.922 5.12,143.375 2.98,377.989 3.83,-543.282 7.24,199.962 7.67,-166.669 8.51,-151.637 1.71,14.203 10.22,-4.262 0.86,385.595 3.83,-460.028 21.29,110.351 10.23,116.387 9.79,-194.711 14.91,88.352 0.43,102.832 10.22,330.107 0.85,-666.865 0.43,193.723 12.77,41.265 10.65,-59.973 2.13,105.555 6.39,120.426 2.56,-135.723 12.77,46.114 0.43,-29.954 3.41,-64.46 1.7,156.121 2.55,25.578 6.82,-91.114 18.32,63.723 5.11,-152.242 4.68,-95.805 6.39,180.766 1.7,-202.02 1.71,297.657 7.24,-261.375 2.55,-44.438 1.71,92.629 0.85,-40.625 10.65,179.992 11.07,-146.781 0.43,28.582 6.81,-128.828 1.28,45.137 13.63,97.425 0.42,-95.097 0.43,66.554 10.22,-47.984 5.97,25.859 21.72,238.801 5.11,-189.359 26.83,-45.824 4.26,22.207 13.63,-54.883 1.71,69.386 8.51,-94.585 11.08,234.234 7.24,86.633 15.76,-249.418 5.11,-59.969 7.66,239.18 2.14,-167.93 0.85,64.254 4.25,564.301 7.67,-355.575 3.41,-237.281 3.41,45.551 2.98,-223.082 7.24,95.48 2.56,152.856 2.98,-127.93 20.01,-24.035 2.14,129.953 6.81,-120.004 2.55,185.379 4.26,-103.941 3.41,-10.086 4.26,104.203 2.98,263.512 4.26,-232.852 0.43,-97.582 0.42,34.426 5.54,84.152 8.09,-305.765 8.52,225.015 4.68,-65.953 17.04,-132.871 2.98,234.676 5.12,-160.227 4.68,-12.336 13.63,-100.558 13.63,11.883 13.2,372.66 15.76,-83.809 10.23,-257.133 3.83,61.223 2.55,99.16 6.39,-118.805 7.24,-2.246 5.97,113.184 1.27,-69.168 8.1,68.019 8.09,47.813 3.41,-206.074 30.66,72.59 14.06,45.554 3.41,231.239 2.55,-177.352 2.56,-51.594 v 0" /><path
             id="path274"
             style="fill:none;stroke:#9467bd;stroke-width:10;stroke-linecap:square;stroke-linejoin:round;stroke-miterlimit:10;stroke-dasharray:none;stroke-opacity:1"
             d="m 1100.59,2009.21 10.22,-62.96 1.28,-14.91 4.68,53.44 6.39,-56.75 9.8,36.62 25.98,-177.31 1.27,31.25 3.84,-39.64 26.41,-14.97 2.13,-51.48 8.94,16.52 2.13,69.41 2.98,-28.43 2.56,2.55 14.91,28.6 0.85,49.28 3.4,-51.25 12.35,-1.23 8.52,-39.47 23,-44.03 0.43,47.18 8.52,-0.11 7.66,13.87 5.97,-86.84 26.4,85.76 11.5,-5.07 6.82,-74.7 2.98,-5.41 0.43,-83.9 14.05,122.13 5.96,-101.08 3.41,9.35 2.13,63.24 5.96,-86.48 4.26,165.6 18.32,21.74 3.41,-127.76 3.4,-22.58 11.08,14.52 3.83,33.94 1.7,-145.29 0.85,149.28 5.97,11.87 0.85,-120.05 2.98,-0.47 3.41,170.44 2.56,-54.06 11.92,-123.82 31.09,100.52 14.06,-16.59 1.28,-95.61 7.24,-11.89 6.81,155.83 2.56,-65.92 7.67,-18.7 1.27,133.22 3.83,-206.65 20.88,48.31 1.27,-129.32 2.56,194.4 2.56,19.34 6.38,81.33 2.56,-204.33 2.13,47.27 22.15,-51.98 2.13,110.6 0.42,-188.53 13.21,80.88 5.53,-11.47 16.19,-70.24 7.24,-23.93 8.52,126.1 16.18,-43.58 5.97,-72.24 1.7,8.55 20.44,33.51 2.98,84.37 9.38,-45.28 5.11,-72.2 4.26,36.47 12.77,-97.63 4.69,78.05 3.4,100.28 2.56,-85.77 13.63,-34.83 12.35,97.97 6.82,-160.68 6.81,52.74 1.71,-37.18 7.24,23.74 14.9,39.48 17.89,37.43 3.84,-1.41 2.55,-85.09 2.13,62.09 2.98,-11.66 3.84,-87.19 5.96,108.45 0.85,91.41 1.28,-133.14 3.83,36.66 14.91,131.57 10.22,-303.33 8.95,149.33 7.66,-39.14 3.84,-44.87 5.53,197.84 1.28,-102.21 3.41,-78.28 17.03,34.16 7.25,-80.39 4.25,82.62 1.28,67.31 8.52,-166.62 6.82,17.3 7.66,45.03 5.11,56.58 7.24,9.84 2.56,-5.14 15.76,-4.42 1.28,-38.21 0.42,106.73 3.41,-101.17 1.7,4.35 2.99,132.58 22.57,-164.11 2.98,14.89 3.83,72.71 11.08,-103.64 3.4,19.32 3.41,-38.15 1.71,113.29 8.52,-79.77 2.13,0.57 0.42,-41.53 2.13,35.71 5.11,124.83 1.28,-131.11 2.13,58.95 8.09,12.95 6.82,-100.69 4.25,106.8 5.12,-138.37 11.07,-54.74 3.83,148.1 14.91,-63.65 0.43,80.09 0.85,-23.85 18.74,-133.96 3.41,105.83 3.83,2.97 0.85,-31.4 2.13,100.51 10.65,-32.55 0.43,-11.13 4.25,123.69 0.86,-233.09 2.12,70.03 5.97,-51.19 2.55,5.3 3.84,67.9 6.39,-87.64 2.55,204.6 22.58,-152.14 7.24,120.14 26.4,-11.76 2.13,15.53 5.54,-22.36 15.76,-51.7 5.96,-50.01 14.91,-1.21 35.35,-114.77 7.67,-20.52 2.55,166.25 10.23,1.99 20.01,-62.78 3.41,36.86 15.34,63.3 6.81,-82.88 1.28,-100.11 3.41,14.03 1.27,-0.65 11.93,27.7 12.78,199.61 26.4,-180.32 6.82,89.61 7.67,-108.47 0.42,253.01 14.48,-221.6 4.26,-38.35 1.28,10.23 0.42,57.15 0.85,-25.01 0.43,-9.82 10.65,119.6 14.06,-159.4 17.03,286.95 13.21,-284.13 11.5,-88.45 2.12,137.23 9.38,-43.05 8.09,-6.89 6.39,14.32 6.81,-25.35 12.35,169.01 1.28,-80.25 10.65,-129.21 18.32,3.46 8.51,107.1 7.67,-3.36 1.7,-76.17 2.56,113.34 11.92,-162.06 5.97,97.82 23.85,76.47 1.7,-146.72 4.69,-33.83 13.2,136.71 3.41,-124.31 5.54,-13.4 2.13,106.09 6.81,-1.31 2.13,15.11 0.85,-59.03 4.26,-93.24 1.71,201.99 12.35,-94.57 5.11,-6.07 22.15,-66.55 4.68,49.41 7.24,38.5 11.93,-11.19 11.07,-57.59 5.11,109.39 4.69,-73.26 1.28,16.43 24.27,-55.81 2.13,124.91 4.69,-179.51 31.09,27.72 4.69,6.72 0.42,100.17 0.85,-50.2 2.13,-16.89 0.43,-36.26 10.65,-1.25 2.13,10.5 1.27,46.98 3.41,-84.82 8.52,63.48 1.28,88.37 0.43,-105.57 6.38,84.14 9.37,11.42 5.54,-57.4 0.85,-37.43 5.54,42.98 15.76,42.39 10.22,-27.15 2.98,-106.44 2.56,65.53 10.22,-36.37 1.28,140.11 25.13,-112.41 7.24,-7.74 8.94,-52.59 1.28,43.09 19.17,45.83 1.27,-65.05 6.82,59.44 13.2,-69.29 11.93,209.62 3.41,-249.54 1.7,170.13 3.41,30.89 4.68,-193.19 11.08,68.09 2.13,2.13 6.81,3.17 6.81,345.18 3.41,-266.57 3.84,-112.6 3.83,-27.34 4.68,84.23 0.43,-27.97 5.11,-18.45 0.85,-47.35 16.19,87.56 5.11,15.35 8.09,-154.52 9.8,110.33 8.52,-32.4 20.44,38.68 3.83,-43.07 1.28,27.62 22.58,-36.88 1.27,156.11 8.52,-150.96 0.85,-54.52 0.43,33.88 22.57,104.64 8.52,-58.31 3.41,124.03 13.2,-182.39 7.24,133.02 7.67,-178.39 3.41,45.78 13.2,18.8 21.3,-25.08 12.35,53.3 4.68,-63.25 6.82,23.54 5.96,42.15 8.95,-68 17.03,20.19 9.37,27.65 2.13,11.89 15.76,-78.81 4.69,34.01 9.37,86.2 13.63,2.14 10.22,-80.65 5.11,-6.17 0.85,3.2 2.56,15.86 15.76,-3.93 11.92,-98.01 0.85,99.99 1.71,59.1 6.39,-53.71 17.46,-9.63 1.28,19.06 22.57,21.54 1.28,-39.65 4.26,-8.16 7.67,98.5 0.42,-102.88 8.52,45.75 14.48,150.49 0.86,-75.46 2.98,-62.07 15.33,-44.07 8.94,43.18 10.23,-45.22 2.12,-0.3 2.56,-55.4 11.5,50.12 8.52,9.24 2.13,-55.43 6.39,12.06 2.13,45.75 18.31,-65.11 10.65,142.91 0.85,-117.9 6.82,59.98 0.85,-68.37 2.55,16.9 0.85,120.35 7.67,-126.95 9.8,47.14 11.92,-87.38 5.54,78.01 2.56,-36.04 5.53,75.36 7.67,-130.52 16.61,58.55 9.8,6.36 2.13,20.68 10.22,-1.05 9.37,-77.13 2.98,66.59 2.56,-73.78 10.22,34.37 25.13,-8.36 15.33,117.63 0.43,-40.93 1.7,-38.6 8.52,48.21 0.85,-95.84 3.41,-24.5 18.74,51.88 2.98,54.37 1.28,-72.82 8.09,15.64 23,60.58 3.84,26.76 0.85,-65.5 1.7,62.56 2.55,-10.88 1.28,149.01 2.99,-42.31 4.68,-184.12 16.61,125.37 1.71,-26.85 4.68,-33.08 4.68,-79.85 28.97,48.67 5.96,-50.83 3.41,122.77 5.96,-195.63 0.43,98.31 11.07,99.69 5.97,-107.96 10.64,31.77 12.36,-87.32 1.27,58.48 11.08,119.37 7.66,-178.95 1.7,58.58 10.65,-53.64 22.15,100.96 6.39,-19.05 3.41,-92.61 0.42,19.42 9.37,29.88 7.67,-35.52 17.04,9.13 8.94,86.74 13.21,-46.4 22.57,46.72 4.68,275.72 7.67,-258.79 4.26,-18.86 0.43,0.48 8.09,-74.39 9.8,-69.41 8.09,26.68 12.78,87.22 3.83,-27.46 1.28,-17.63 2.98,-1.21 4.26,109.61 1.28,95.89 6.38,-197.58 10.23,7.03 3.83,-44.94 8.09,436.72 7.24,-176.53 26.41,-327.254 14.91,187.284 7.24,-102.31 4.26,231.02 2.13,-279.42 7.24,102.67 2.98,74.71 7.67,-163.23 4.25,67.8 7.67,182.86 4.68,-136.53 1.29,24.38 11.92,-168.45 4.26,213.7 14.91,-33.52 2.12,-74.22 25.99,-60.01 0.42,6.93 13.63,33.48 18.32,4.7 3.41,48.64 3.4,-7.58 0.43,32.21 14.48,-101.55 4.69,258.71 5.11,-276.03 7.24,176.58 25.55,-66.48 10.23,-118.43 12.77,17 1.71,56.05 5.96,-40.1 7.24,-34.34 2.55,50.91 17.89,-61.16 6.82,-46.165 4.68,3.645 3.84,58.75 3.4,73.25 8.52,-44.94 0.85,139.4 2.13,-150.31 2.56,-3.31 8.52,1.92 1.28,-20.6 2.13,12.89 3.83,69.37 29.82,-97.56 8.51,118.68 0.43,-21.6 0.85,6.25 5.96,-53.14 1.71,4.89 3.83,46.99 0.42,57.98 2.14,-95.5 2.13,11.65 6.38,-46.9 13.21,14.93 5.11,-11.56 2.98,32.66 2.13,-51.33 5.96,256.01 3.84,-242.52 11.07,4.04 2.98,78.13 0.43,107.39 3.83,9.59 16.19,-252.84 3.4,84.01 0.43,-124.823 1.7,140.813 13.63,-84.11 20.02,-2.94 1.71,27.19 9.79,93.47 7.67,-41 1.27,138.41 8.95,86.23 4.68,-308.09 10.23,49.09 2.98,58.56 7.24,-117.16 0.85,12.47 1.28,93.76 8.94,45.56 0.85,-37.5 2.13,-18.08 4.69,-10.82 5.11,-102.115 7.24,17.475 7.67,82.93 2.55,-38.71 4.26,11.27 7.67,-17.5 0.43,-11.49 11.5,-11.5 3.4,20.61 4.26,-43.502 4.69,81.702 8.94,-10.93 7.67,24.07 13.63,-64.54 2.98,95.83 22.15,-80.17 0.85,-28.46 4.26,128.84 2.98,-54.67 20.44,93.68 4.26,-103.86 6.82,-83.477 0.85,23.437 2.98,6.54 13.63,67.67 2.13,-45.66 4.69,31.07 2.12,-70.5 18.32,35.6 1.28,92.34 8.52,-46.53 2.55,-68.87 0.43,149.85 11.07,-143.45 2.98,4.19 26.84,-40.382 3.83,6.222 2.98,68.25 4.26,-54.6 1.28,55.32 9.37,-23.15 4.68,111.52 4.69,-56.66 5.11,-140.176 0.42,37.473 1.29,-29.148 10.21,-3.954 2.56,11.399 9.8,107.626 4.26,102.77 3.4,-147.11 25.98,-32.38 3.84,4.78 3.83,61.36 14.91,20.94 11.92,-41.51 1.28,-57.16 17.04,10.55 10.22,12.06 27.69,-50.348 17.89,57.858 15.33,-6.92 2.13,-28.508 0.42,47.978 0.86,-5.28 5.96,56.73 5.11,-83.03 9.8,6.41 2.55,60.52 6.39,-59.14 2.56,11.55 4.25,11.55 10.23,37.96 7.24,-114.862 9.37,-12.39 16.18,155.332 4.69,267.25 8.52,-323.22 2.98,-54.499 2.13,-1.351 17.89,30.14 15.33,90.52 11.92,-54.55 1.29,-45.81 0.84,132.04 6.39,-51.93 2.56,48.48 2.13,-117.24 12.35,105.42 10.65,-176.141 4.26,98.901 1.7,-69.584 0.43,33.934 11.92,73.7 3.84,-22.14 9.79,18.3 0.43,25.45 5.11,-106.5 13.21,-11.963 3.83,-17.149 7.24,24.215 2.13,-34.398 3.83,60.315 3.41,-30.057 3.41,45.297 7.24,-49.317 12.78,120.567 4.25,-53.34 15.76,-64.629 3.84,33.039 0.42,-50.75 2.56,292.12 6.81,-284.468 2.99,70.278 11.92,-111.418 0.43,73.228 3.83,-63.217 2.13,26.254 4.69,-12.058 9.79,91.111 16.19,-87.299 1.27,-19.891 3.84,69.38 10.64,-38.215 1.71,20.988 3.83,8.057 5.96,88.94 2.56,-145.571 0.85,47.988 14.48,-46.039 2.56,64.532 2.55,-25.419 0.86,203.099 0.42,-198.673 4.26,233.933 2.13,-292.097 9.8,59.722 6.81,-49.199 18.74,147.554 3.84,-83.02 7.66,-80.592 11.5,37.738 9.8,96.144 0.85,195.55 0.43,-143.47 25.13,-183.009 1.27,-24.949 3.84,256.698 16.18,-187.105 13.21,118.725 8.52,45.93 8.09,-62.33 13.2,-68.71 3.41,65.47 0.85,105.02 14.48,-176.15 7.24,-52.943 5.96,30.805 2.56,55.268 11.92,2.33 1.71,-47.29 2.56,42.22 0.85,-23.95 7.24,9.27 3.41,-32.266 3.83,136.846 6.39,-72.84 6.81,10.52 16.61,259.83 5.97,-398.087 4.25,59.633 4.69,35.524 2.98,-73.11 2.98,-36.152 0.85,122.542 7.25,-86.648 8.09,50.891 15.33,53.057 11.5,92.33 2.56,-152.715 3.83,-17.801 22.57,-19.676 0.43,-19.082 7.67,110.524 11.92,-90.207 2.13,20.953 5.54,225.964 5.96,-214.476 3.41,177.626 2.13,203.71 0.85,-236.33 0.43,182.25 8.52,-350.815 2.13,46.535 5.96,8.86 4.26,-85.703 2.13,38.633 2.98,-5.801 8.09,123.781 5.11,-159.621 14.91,36.914 3.83,-35.715 20.45,-16.355 2.13,53.785 6.38,68.442 4.69,-58.469 1.7,38.409 6.82,97.6 5.54,-204.212 8.52,135.382 3.83,-20.44 3.4,-24.53 15.34,74.5 8.52,-141.756 1.27,222.706 6.82,-35.86 6.82,-170.042 30.23,107.352 3.84,302.83 0.43,-258.03 12.77,-148.933 8.09,-26.023 1.28,1.476 9.37,15.688 18.74,49.84 8.95,40.232 2.55,-118.435 0.86,28.98 8.94,18.285 9.37,-31.926 12.35,28.133 19.59,-8.883 6.82,113.446 5.11,439.8 25.13,-545.789 6.81,59.649 13.21,-71.449 3.4,153.129 8.95,30.34 10.65,-96.61 2.13,224.86 5.54,-205.06 5.53,2.66 2.56,141.94 17.89,-191.05 0.42,121.6 2.13,-7.12 6.39,-106.45 24.7,-35.669 7.24,99.149 11.93,-45.11 3.41,129.31 5.11,-73.18 1.28,1.71 3.83,44.57 6.39,-122.65 1.7,177.65 7.24,-151.5 7.67,293.43 7.67,-294.45 6.39,-72.171 4.25,78.861 1.28,-4.95 5.11,-135.724 0.43,0.426 1.7,59.527 11.93,29.493 11.07,-37.129 14.06,-34.106 6.39,126.183 15.33,-22.18 2.13,80.32 22.15,-143.424 8.52,46.754 20.86,-62.196 11.08,80.566 1.28,-91.273 17.89,468.993 6.81,-452.419 14.91,10.313 6.39,195.246 3.41,-115.16 2.55,173.54 14.06,-258.657 7.24,-26.7 1.28,92.087 1.27,224.68 5.54,-321.231 11.5,63.343 7.67,1.61 5.96,-111.907 9.37,104.731 8.94,31.414 5.54,-26.066 14.91,73.306 9.8,-143.361 1.27,51.684 5.54,-42.321 1.7,44.098 2.56,-54.395 18.31,20.782 0.43,-11.293 8.09,151.436 1.28,-97.495 3.4,-28.891 0.43,-63.211 0.43,101.067 2.56,-97.035 8.51,112.125 0.85,-148.914 7.67,136.492 21.3,60.782 5.96,117.69 2.56,-242.378 14.48,8.867 17.46,-52.856 11.92,159.227 11.5,-163.176 2.14,222.746 2.55,-158.738 9.8,19.812 10.64,-36.742 5.12,36.211 0.42,-39.269 2.56,13.804 3.83,-4.746 7.24,-41.578 5.11,1.305 2.56,164.661 8.51,-71.294 1.71,-90.106 10.22,59.239 0.86,-9.778 3.83,-8 21.29,-3.207 10.23,-38.211 9.79,20.227 14.91,81.69 0.43,179.02 11.07,-250.585 0.43,63.344 12.77,-61.633 10.65,-31.91 2.13,-9.922 6.39,124.116 2.56,-100.975 12.77,-42.84 0.43,45.543 5.11,120.732 2.55,-128.221 6.82,-35.953 18.32,111.117 5.11,-32.011 4.68,34.781 4.26,488.747 0.43,-487.915 1.7,68.475 1.7,-88.569 1.71,-11.058 7.24,8.074 2.55,-71.641 1.71,229.934 0.85,-79.04 10.65,-57.448 8.09,7.429 2.98,66.459 0.43,-161.431 6.81,-32.551 1.28,68.691 13.63,62.805 0.42,-106.574 0.43,46.261 10.22,78.049 5.97,-70.33 21.72,75.73 5.11,-28.144 26.83,1.516 4.26,-2.828 13.63,-33.766 1.71,42.282 8.51,-24.184 10.22,293.134 0.86,-295.275 7.24,-19 15.76,-31.805 5.11,-28.765 7.66,-10.832 2.14,74.492 0.85,-0.652 4.25,-53.942 7.67,261.389 3.41,-36.06 3.41,-171.559 2.98,35.695 7.24,-25.695 2.56,58.039 2.98,20.18 20.01,-119.715 2.14,-28.43 6.81,4.496 2.55,21.551 4.26,4.652 7.67,166.426 2.98,-188.442 4.26,24.665 0.43,51.171 0.42,-23.957 22.15,-97.234 4.68,3.27 17.04,150.177 2.98,-81.732 5.12,-50.61 4.68,9.907 13.63,104.207 13.63,-110.039 13.2,39.98 15.76,62.93 14.06,-120.524 2.55,59.211 6.39,478.31 7.24,-422.814 5.97,-49.14 1.27,184.354 8.1,-219.628 8.09,18.102 3.41,47.226 30.66,-134.062 14.06,68.133 3.41,10.254 2.55,43.328 2.56,179.587 v 0" /></g></g><path
         id="path276"
         style="fill:none;stroke:#000000;stroke-width:8;stroke-linecap:square;stroke-linejoin:miter;stroke-miterlimit:10;stroke-dasharray:none;stroke-opacity:1"
         d="M 760.254,416.805 V 2367.14" /><path
         id="path278"
         style="fill:none;stroke:#000000;stroke-width:8;stroke-linecap:square;stroke-linejoin:miter;stroke-miterlimit:10;stroke-dasharray:none;stroke-opacity:1"
         d="M 8247.6,416.805 V 2367.14" /><path
         id="path280"
         style="fill:none;stroke:#000000;stroke-width:8;stroke-linecap:square;stroke-linejoin:miter;stroke-miterlimit:10;stroke-dasharray:none;stroke-opacity:1"
         d="M 760.254,416.805 H 8247.6" /><path
         id="path282"
         style="fill:none;stroke:#000000;stroke-width:8;stroke-linecap:square;stroke-linejoin:miter;stroke-miterlimit:10;stroke-dasharray:none;stroke-opacity:1"
         d="M 760.254,2367.14 H 8247.6" /><path
         id="path284"
         style="fill:#ffffff;fill-opacity:1;fill-rule:nonzero;stroke:none"
         d="M 5389.95,1946.98 H 8177.6 c 13.33,0 20,6.67 20,20 v 330.16 c 0,13.34 -6.67,20 -20,20 H 5389.95 c -13.34,0 -20,-6.66 -20,-20 v -330.16 c 0,-13.33 6.66,-20 20,-20" /><path
         id="path286"
         style="fill:none;stroke:#cccccc;stroke-width:10;stroke-linecap:butt;stroke-linejoin:miter;stroke-miterlimit:10;stroke-dasharray:none;stroke-opacity:1"
         d="M 5389.95,1946.98 H 8177.6 c 13.33,0 20,6.67 20,20 v 330.16 c 0,13.34 -6.67,20 -20,20 H 5389.95 c -13.34,0 -20,-6.66 -20,-20 v -330.16 c 0,-13.33 6.66,-20 20,-20 z" /><path
         id="path288"
         style="fill:none;stroke:#1f77b4;stroke-width:10;stroke-linecap:square;stroke-linejoin:round;stroke-miterlimit:10;stroke-dasharray:none;stroke-opacity:1"
         d="m 5409.95,2236.2 h 200" /><g
         transform="scale(10)"
         id="g290"><text
           id="text294"
           style="font-variant:normal;font-weight:normal;font-size:10px;font-family:Arial;-inkscape-font-specification:Arial;writing-mode:lr-tb;fill:#000000;fill-opacity:1;fill-rule:nonzero;stroke:none"
           transform="matrix(1,0,0,-1,568.995,220.12)"><tspan
             id="tspan292"
             y="0"
             x="0 6.0300002 8.8085356 14.936289 17.714825">Plain</tspan></text>
</g><path
         id="path296"
         style="fill:none;stroke:#ff7f0e;stroke-width:10;stroke-linecap:square;stroke-linejoin:round;stroke-miterlimit:10;stroke-dasharray:none;stroke-opacity:1"
         d="m 5409.95,2139.48 h 200" /><g
         transform="scale(10)"
         id="g298"><text
           id="text302"
           style="font-variant:normal;font-weight:normal;font-size:10px;font-family:Arial;-inkscape-font-specification:Arial;writing-mode:lr-tb;fill:#000000;fill-opacity:1;fill-rule:nonzero;stroke:none"
           transform="matrix(1,0,0,-1,568.995,210.448)"><tspan
             id="tspan300"
             y="0"
             x="0 6.9824414 13.10039 19.438292 25.356239 28.535166 31.713701 35.615265 43.7938 46.572334 50.493019 56.830917 60.009842 65.580917 71.943405">Conv. (with L2)</tspan></text>
</g><path
         id="path304"
         style="fill:none;stroke:#2ca02c;stroke-width:10;stroke-linecap:square;stroke-linejoin:round;stroke-miterlimit:10;stroke-dasharray:none;stroke-opacity:1"
         d="m 5409.95,2042.77 h 200" /><g
         transform="scale(10)"
         id="g306"><text
           id="text310"
           style="font-variant:normal;font-weight:normal;font-size:10px;font-family:Arial;-inkscape-font-specification:Arial;writing-mode:lr-tb;fill:#000000;fill-opacity:1;fill-rule:nonzero;stroke:none"
           transform="matrix(1,0,0,-1,568.995,200.777)"><tspan
             id="tspan308"
             y="0"
             x="0 6.9824414 13.10039 19.438292 25.356239 28.535166 31.713701 35.615265 43.7938 46.572334 50.493019 56.830917 62.949257 69.287155 73.20784 76.386765 81.95784 88.320335">Conv. (without L2)</tspan></text>
</g><path
         id="path312"
         style="fill:none;stroke:#d62728;stroke-width:10;stroke-linecap:square;stroke-linejoin:round;stroke-miterlimit:10;stroke-dasharray:none;stroke-opacity:1"
         d="m 6813.07,2236.2 h 200" /><g
         transform="scale(10)"
         id="g314"><text
           id="text318"
           style="font-variant:normal;font-weight:normal;font-size:10px;font-family:Arial;-inkscape-font-specification:Arial;writing-mode:lr-tb;fill:#000000;fill-opacity:1;fill-rule:nonzero;stroke:none"
           transform="matrix(1,0,0,-1,709.307,220.12)"><tspan
             id="tspan316"
             y="0"
             x="0 6.9480467 13.10039 18.31039 21.088535 27.436192 33.774094 39.902237 42.680382 45.859306 49.760479 57.939404 60.717548 64.638626 70.976524 74.15506 79.726524 86.088623">Residual (with L2)</tspan></text>
</g><path
         id="path320"
         style="fill:none;stroke:#9467bd;stroke-width:10;stroke-linecap:square;stroke-linejoin:round;stroke-miterlimit:10;stroke-dasharray:none;stroke-opacity:1"
         d="m 6813.07,2139.48 h 200" /><g
         transform="scale(10)"
         id="g322"><text
           id="text326"
           style="font-variant:normal;font-weight:normal;font-size:10px;font-family:Arial;-inkscape-font-specification:Arial;writing-mode:lr-tb;fill:#000000;fill-opacity:1;fill-rule:nonzero;stroke:none"
           transform="matrix(1,0,0,-1,709.307,210.448)"><tspan
             id="tspan324"
             y="0"
             x="0 6.9480467 13.10039 18.31039 21.088535 27.436192 33.774094 39.902237 42.680382 45.859306 49.760479 57.939404 60.717548 64.638626 70.976524 77.094475 83.432373 87.353447 90.531982 96.103447 102.46555">Residual (without L2)</tspan></text>
</g></g></g></svg>