<?xml version="1.0" encoding="utf-8" standalone="no"?>
<!DOCTYPE svg PUBLIC "-//W3C//DTD SVG 1.1//EN"
  "http://www.w3.org/Graphics/SVG/1.1/DTD/svg11.dtd">
<!-- Created with matplotlib (http://matplotlib.org/) -->
<svg height="353pt" version="1.1" viewBox="0 0 576 353" width="576pt" xmlns="http://www.w3.org/2000/svg" xmlns:xlink="http://www.w3.org/1999/xlink">
 <defs>
  <style type="text/css">
*{stroke-linecap:butt;stroke-linejoin:round;}
  </style>
 </defs>
 <g id="figure_1">
  <g id="patch_1">
   <path d="M 0 353.52 
L 576 353.52 
L 576 0 
L 0 0 
z
" style="fill:#ffffff;"/>
  </g>
  <g id="axes_1">
   <g id="patch_2">
    <path d="M 72 75.65328 
L 518.4 75.65328 
L 518.4 17.676 
L 72 17.676 
z
" style="fill:#ffffff;"/>
   </g>
   <g id="matplotlib.axis_1">
    <g id="xtick_1">
     <g id="line2d_1">
      <defs>
       <path d="M 0 0 
L 0 3.5 
" id="m99ab19513b" style="stroke:#000000;stroke-width:0.8;"/>
      </defs>
      <g>
       <use style="stroke:#000000;stroke-width:0.8;" x="92.290909" xlink:href="#m99ab19513b" y="75.65328"/>
      </g>
     </g>
    </g>
    <g id="xtick_2">
     <g id="line2d_2">
      <g>
       <use style="stroke:#000000;stroke-width:0.8;" x="143.660299" xlink:href="#m99ab19513b" y="75.65328"/>
      </g>
     </g>
    </g>
    <g id="xtick_3">
     <g id="line2d_3">
      <g>
       <use style="stroke:#000000;stroke-width:0.8;" x="195.029689" xlink:href="#m99ab19513b" y="75.65328"/>
      </g>
     </g>
    </g>
    <g id="xtick_4">
     <g id="line2d_4">
      <g>
       <use style="stroke:#000000;stroke-width:0.8;" x="246.399079" xlink:href="#m99ab19513b" y="75.65328"/>
      </g>
     </g>
    </g>
    <g id="xtick_5">
     <g id="line2d_5">
      <g>
       <use style="stroke:#000000;stroke-width:0.8;" x="297.76847" xlink:href="#m99ab19513b" y="75.65328"/>
      </g>
     </g>
    </g>
    <g id="xtick_6">
     <g id="line2d_6">
      <g>
       <use style="stroke:#000000;stroke-width:0.8;" x="349.13786" xlink:href="#m99ab19513b" y="75.65328"/>
      </g>
     </g>
    </g>
    <g id="xtick_7">
     <g id="line2d_7">
      <g>
       <use style="stroke:#000000;stroke-width:0.8;" x="400.50725" xlink:href="#m99ab19513b" y="75.65328"/>
      </g>
     </g>
    </g>
    <g id="xtick_8">
     <g id="line2d_8">
      <g>
       <use style="stroke:#000000;stroke-width:0.8;" x="451.87664" xlink:href="#m99ab19513b" y="75.65328"/>
      </g>
     </g>
    </g>
    <g id="xtick_9">
     <g id="line2d_9">
      <g>
       <use style="stroke:#000000;stroke-width:0.8;" x="503.24603" xlink:href="#m99ab19513b" y="75.65328"/>
      </g>
     </g>
    </g>
   </g>
   <g id="matplotlib.axis_2">
    <g id="ytick_1">
     <g id="line2d_10">
      <defs>
       <path d="M 0 0 
L -3.5 0 
" id="me57bd68b92" style="stroke:#000000;stroke-width:0.8;"/>
      </defs>
      <g>
       <use style="stroke:#000000;stroke-width:0.8;" x="72" xlink:href="#me57bd68b92" y="68.963594"/>
      </g>
     </g>
     <g id="text_1">
      <!-- -0.71 -->
      <defs>
       <path d="M 4.890625 31.390625 
L 31.203125 31.390625 
L 31.203125 23.390625 
L 4.890625 23.390625 
z
" id="DejaVuSans-2d"/>
       <path d="M 31.78125 66.40625 
Q 24.171875 66.40625 20.328125 58.90625 
Q 16.5 51.421875 16.5 36.375 
Q 16.5 21.390625 20.328125 13.890625 
Q 24.171875 6.390625 31.78125 6.390625 
Q 39.453125 6.390625 43.28125 13.890625 
Q 47.125 21.390625 47.125 36.375 
Q 47.125 51.421875 43.28125 58.90625 
Q 39.453125 66.40625 31.78125 66.40625 
z
M 31.78125 74.21875 
Q 44.046875 74.21875 50.515625 64.515625 
Q 56.984375 54.828125 56.984375 36.375 
Q 56.984375 17.96875 50.515625 8.265625 
Q 44.046875 -1.421875 31.78125 -1.421875 
Q 19.53125 -1.421875 13.0625 8.265625 
Q 6.59375 17.96875 6.59375 36.375 
Q 6.59375 54.828125 13.0625 64.515625 
Q 19.53125 74.21875 31.78125 74.21875 
z
" id="DejaVuSans-30"/>
       <path d="M 10.6875 12.40625 
L 21 12.40625 
L 21 0 
L 10.6875 0 
z
" id="DejaVuSans-2e"/>
       <path d="M 8.203125 72.90625 
L 55.078125 72.90625 
L 55.078125 68.703125 
L 28.609375 0 
L 18.3125 0 
L 43.21875 64.59375 
L 8.203125 64.59375 
z
" id="DejaVuSans-37"/>
       <path d="M 12.40625 8.296875 
L 28.515625 8.296875 
L 28.515625 63.921875 
L 10.984375 60.40625 
L 10.984375 69.390625 
L 28.421875 72.90625 
L 38.28125 72.90625 
L 38.28125 8.296875 
L 54.390625 8.296875 
L 54.390625 0 
L 12.40625 0 
z
" id="DejaVuSans-31"/>
      </defs>
      <g transform="translate(39.126562 72.762813)scale(0.1 -0.1)">
       <use xlink:href="#DejaVuSans-2d"/>
       <use x="36.083984" xlink:href="#DejaVuSans-30"/>
       <use x="99.707031" xlink:href="#DejaVuSans-2e"/>
       <use x="131.494141" xlink:href="#DejaVuSans-37"/>
       <use x="195.117188" xlink:href="#DejaVuSans-31"/>
      </g>
     </g>
    </g>
    <g id="ytick_2">
     <g id="line2d_11">
      <g>
       <use style="stroke:#000000;stroke-width:0.8;" x="72" xlink:href="#me57bd68b92" y="54.097625"/>
      </g>
     </g>
     <g id="text_2">
      <!-- -0.51 -->
      <defs>
       <path d="M 10.796875 72.90625 
L 49.515625 72.90625 
L 49.515625 64.59375 
L 19.828125 64.59375 
L 19.828125 46.734375 
Q 21.96875 47.46875 24.109375 47.828125 
Q 26.265625 48.1875 28.421875 48.1875 
Q 40.625 48.1875 47.75 41.5 
Q 54.890625 34.8125 54.890625 23.390625 
Q 54.890625 11.625 47.5625 5.09375 
Q 40.234375 -1.421875 26.90625 -1.421875 
Q 22.3125 -1.421875 17.546875 -0.640625 
Q 12.796875 0.140625 7.71875 1.703125 
L 7.71875 11.625 
Q 12.109375 9.234375 16.796875 8.0625 
Q 21.484375 6.890625 26.703125 6.890625 
Q 35.15625 6.890625 40.078125 11.328125 
Q 45.015625 15.765625 45.015625 23.390625 
Q 45.015625 31 40.078125 35.4375 
Q 35.15625 39.890625 26.703125 39.890625 
Q 22.75 39.890625 18.8125 39.015625 
Q 14.890625 38.140625 10.796875 36.28125 
z
" id="DejaVuSans-35"/>
      </defs>
      <g transform="translate(39.126562 57.896843)scale(0.1 -0.1)">
       <use xlink:href="#DejaVuSans-2d"/>
       <use x="36.083984" xlink:href="#DejaVuSans-30"/>
       <use x="99.707031" xlink:href="#DejaVuSans-2e"/>
       <use x="131.494141" xlink:href="#DejaVuSans-35"/>
       <use x="195.117188" xlink:href="#DejaVuSans-31"/>
      </g>
     </g>
    </g>
    <g id="ytick_3">
     <g id="line2d_12">
      <g>
       <use style="stroke:#000000;stroke-width:0.8;" x="72" xlink:href="#me57bd68b92" y="39.231655"/>
      </g>
     </g>
     <g id="text_3">
      <!-- -0.31 -->
      <defs>
       <path d="M 40.578125 39.3125 
Q 47.65625 37.796875 51.625 33 
Q 55.609375 28.21875 55.609375 21.1875 
Q 55.609375 10.40625 48.1875 4.484375 
Q 40.765625 -1.421875 27.09375 -1.421875 
Q 22.515625 -1.421875 17.65625 -0.515625 
Q 12.796875 0.390625 7.625 2.203125 
L 7.625 11.71875 
Q 11.71875 9.328125 16.59375 8.109375 
Q 21.484375 6.890625 26.8125 6.890625 
Q 36.078125 6.890625 40.9375 10.546875 
Q 45.796875 14.203125 45.796875 21.1875 
Q 45.796875 27.640625 41.28125 31.265625 
Q 36.765625 34.90625 28.71875 34.90625 
L 20.21875 34.90625 
L 20.21875 43.015625 
L 29.109375 43.015625 
Q 36.375 43.015625 40.234375 45.921875 
Q 44.09375 48.828125 44.09375 54.296875 
Q 44.09375 59.90625 40.109375 62.90625 
Q 36.140625 65.921875 28.71875 65.921875 
Q 24.65625 65.921875 20.015625 65.03125 
Q 15.375 64.15625 9.8125 62.3125 
L 9.8125 71.09375 
Q 15.4375 72.65625 20.34375 73.4375 
Q 25.25 74.21875 29.59375 74.21875 
Q 40.828125 74.21875 47.359375 69.109375 
Q 53.90625 64.015625 53.90625 55.328125 
Q 53.90625 49.265625 50.4375 45.09375 
Q 46.96875 40.921875 40.578125 39.3125 
z
" id="DejaVuSans-33"/>
      </defs>
      <g transform="translate(39.126562 43.030874)scale(0.1 -0.1)">
       <use xlink:href="#DejaVuSans-2d"/>
       <use x="36.083984" xlink:href="#DejaVuSans-30"/>
       <use x="99.707031" xlink:href="#DejaVuSans-2e"/>
       <use x="131.494141" xlink:href="#DejaVuSans-33"/>
       <use x="195.117188" xlink:href="#DejaVuSans-31"/>
      </g>
     </g>
    </g>
    <g id="ytick_4">
     <g id="line2d_13">
      <g>
       <use style="stroke:#000000;stroke-width:0.8;" x="72" xlink:href="#me57bd68b92" y="24.365686"/>
      </g>
     </g>
     <g id="text_4">
      <!-- -0.11 -->
      <g transform="translate(39.126562 28.164905)scale(0.1 -0.1)">
       <use xlink:href="#DejaVuSans-2d"/>
       <use x="36.083984" xlink:href="#DejaVuSans-30"/>
       <use x="99.707031" xlink:href="#DejaVuSans-2e"/>
       <use x="131.494141" xlink:href="#DejaVuSans-31"/>
       <use x="195.117188" xlink:href="#DejaVuSans-31"/>
      </g>
     </g>
    </g>
    <g id="text_5">
     <!-- $s_{1}$ -->
     <defs>
      <path d="M 50 53.078125 
L 48.296875 44.578125 
Q 44.734375 46.53125 40.765625 47.5 
Q 36.8125 48.484375 32.625 48.484375 
Q 25.53125 48.484375 21.453125 46.0625 
Q 17.390625 43.65625 17.390625 39.5 
Q 17.390625 34.671875 26.859375 32.078125 
Q 27.59375 31.890625 27.9375 31.78125 
L 30.8125 30.90625 
Q 39.796875 28.421875 42.796875 25.6875 
Q 45.796875 22.953125 45.796875 18.21875 
Q 45.796875 9.515625 38.890625 4.046875 
Q 31.984375 -1.421875 20.796875 -1.421875 
Q 16.453125 -1.421875 11.671875 -0.578125 
Q 6.890625 0.25 1.125 2 
L 2.875 11.28125 
Q 7.8125 8.734375 12.59375 7.421875 
Q 17.390625 6.109375 21.78125 6.109375 
Q 28.375 6.109375 32.5 8.9375 
Q 36.625 11.765625 36.625 16.109375 
Q 36.625 20.796875 25.78125 23.6875 
L 24.859375 23.921875 
L 21.78125 24.703125 
Q 14.9375 26.515625 11.765625 29.46875 
Q 8.59375 32.421875 8.59375 37.015625 
Q 8.59375 45.75 15.15625 50.875 
Q 21.734375 56 33.015625 56 
Q 37.453125 56 41.671875 55.265625 
Q 45.90625 54.546875 50 53.078125 
z
" id="DejaVuSans-Oblique-73"/>
     </defs>
     <g transform="translate(33.046875 51.66464)rotate(-90)scale(0.1 -0.1)">
      <use xlink:href="#DejaVuSans-Oblique-73"/>
      <use transform="translate(52.099609 -16.40625)scale(0.7)" xlink:href="#DejaVuSans-31"/>
     </g>
    </g>
   </g>
   <g id="line2d_14">
    <path clip-path="url(#p867ed6b7b3)" d="M 92.290909 37.460487 
L 97.427848 37.460487 
L 102.564787 37.449487 
L 107.701726 37.449487 
L 112.838665 33.717668 
L 117.975604 33.717668 
L 123.112543 31.418965 
L 128.249482 31.418965 
L 133.386421 30.034071 
L 138.52336 29.225189 
L 143.660299 28.775819 
L 148.797238 28.767907 
L 153.934177 28.538721 
L 159.071116 28.439625 
L 164.208055 28.413293 
L 169.344994 28.423976 
L 174.481933 28.418374 
L 179.618872 28.444581 
L 184.755811 28.444581 
L 189.89275 28.445118 
L 195.029689 28.445118 
L 200.166628 28.445118 
L 205.303567 28.445118 
L 210.440506 28.458008 
L 215.577445 28.458008 
L 220.714384 28.431821 
L 225.851323 28.4659 
L 230.988262 28.4659 
L 236.125201 28.454857 
L 241.26214 28.521605 
L 246.399079 28.546211 
L 251.536018 28.546211 
L 256.672957 28.6592 
L 261.809896 28.6592 
L 266.946835 28.926705 
L 272.083774 28.926705 
L 277.220713 28.926705 
L 282.357652 29.172837 
L 287.494591 29.172837 
L 292.63153 29.390129 
L 297.76847 29.703987 
L 302.905409 29.703987 
L 308.042348 30.139809 
L 313.179287 30.139809 
L 318.316226 31.301616 
L 323.453165 31.301616 
L 328.590104 32.71444 
L 333.727043 35.510633 
L 338.863982 35.510633 
L 344.000921 39.539672 
L 349.13786 45.973893 
L 354.274799 46.699146 
L 359.411738 56.660039 
L 364.548677 56.660039 
L 369.685616 66.401308 
L 374.822555 66.401308 
L 379.959494 66.401308 
L 385.096433 68.963594 
L 390.233372 57.837909 
L 395.370311 57.837909 
L 400.50725 47.040579 
L 405.644189 47.040579 
L 410.781128 39.779483 
L 415.918067 35.253384 
L 421.055006 35.253384 
L 426.191945 32.496434 
L 431.328884 30.851179 
L 436.465823 30.851179 
L 441.602762 29.902279 
L 446.739701 29.902279 
L 451.87664 29.386371 
L 457.013579 29.386371 
L 462.150518 29.386371 
L 467.287457 29.134096 
L 472.424396 30.009591 
L 477.561335 30.009591 
L 482.698274 30.009591 
L 487.835213 30.009591 
L 492.972152 29.921058 
L 498.109091 29.921058 
" style="fill:none;stroke:#1f77b4;stroke-linecap:square;stroke-width:1.5;"/>
   </g>
   <g id="line2d_15">
    <path clip-path="url(#p867ed6b7b3)" d="M 92.290909 30.674296 
L 97.427848 30.462804 
L 102.564787 30.030383 
L 107.701726 29.397054 
L 112.838665 28.630553 
L 117.975604 27.830081 
L 123.112543 27.095917 
L 128.249482 26.500029 
L 133.386421 26.071964 
L 138.52336 25.802937 
L 143.660299 25.660722 
L 148.797238 25.605693 
L 153.934177 25.602131 
L 159.071116 25.623436 
L 164.208055 25.652678 
L 169.344994 25.680673 
L 174.481933 25.703387 
L 179.618872 25.719694 
L 184.755811 25.729826 
L 189.89275 25.734466 
L 195.029689 25.734305 
L 200.166628 25.729876 
L 205.303567 25.721543 
L 210.440506 25.709575 
L 215.577445 25.69426 
L 220.714384 25.676033 
L 225.851323 25.655586 
L 230.988262 25.633899 
L 236.125201 25.612184 
L 241.26214 25.591709 
L 246.399079 25.573572 
L 251.536018 25.558511 
L 256.672957 25.546813 
L 261.809896 25.53837 
L 266.946835 25.532816 
L 272.083774 25.529702 
L 277.220713 25.528629 
L 282.357652 25.529372 
L 287.494591 25.532038 
L 292.63153 25.53737 
L 297.76847 25.547313 
L 302.905409 25.566047 
L 308.042348 25.601779 
L 313.179287 25.669672 
L 318.316226 25.79644 
L 323.453165 26.026945 
L 328.590104 26.432552 
L 333.727043 27.118986 
L 338.863982 28.227009 
L 344.000921 29.911147 
L 349.13786 32.273844 
L 354.274799 35.244764 
L 359.411738 38.465727 
L 364.548677 41.346141 
L 369.685616 43.375469 
L 374.822555 44.410479 
L 379.959494 44.546473 
L 385.096433 43.750309 
L 390.233372 41.8543 
L 395.370311 38.936689 
L 400.50725 35.497274 
L 405.644189 32.187602 
L 410.781128 29.456084 
L 415.918067 27.443714 
L 421.055006 26.083507 
L 426.191945 25.228971 
L 431.328884 24.732393 
L 436.465823 24.475175 
L 441.602762 24.372111 
L 446.739701 24.365686 
L 451.87664 24.418377 
L 457.013579 24.506035 
L 462.150518 24.613066 
L 467.287457 24.729238 
L 472.424396 24.847685 
L 477.561335 24.963728 
L 482.698274 25.074188 
L 487.835213 25.177003 
L 492.972152 25.270987 
L 498.109091 25.355626 
" style="fill:none;stroke:#ff7f0e;stroke-linecap:square;stroke-width:1.5;"/>
   </g>
   <g id="patch_3">
    <path d="M 72 75.65328 
L 72 17.676 
" style="fill:none;stroke:#000000;stroke-linecap:square;stroke-linejoin:miter;stroke-width:0.8;"/>
   </g>
   <g id="patch_4">
    <path d="M 518.4 75.65328 
L 518.4 17.676 
" style="fill:none;stroke:#000000;stroke-linecap:square;stroke-linejoin:miter;stroke-width:0.8;"/>
   </g>
   <g id="patch_5">
    <path d="M 72 75.65328 
L 518.4 75.65328 
" style="fill:none;stroke:#000000;stroke-linecap:square;stroke-linejoin:miter;stroke-width:0.8;"/>
   </g>
   <g id="patch_6">
    <path d="M 72 17.676 
L 518.4 17.676 
" style="fill:none;stroke:#000000;stroke-linecap:square;stroke-linejoin:miter;stroke-width:0.8;"/>
   </g>
  </g>
  <g id="axes_2">
   <g id="patch_7">
    <path d="M 72 133.63056 
L 518.4 133.63056 
L 518.4 75.65328 
L 72 75.65328 
z
" style="fill:#ffffff;"/>
   </g>
   <g id="matplotlib.axis_3">
    <g id="xtick_10">
     <g id="line2d_16">
      <g>
       <use style="stroke:#000000;stroke-width:0.8;" x="92.290909" xlink:href="#m99ab19513b" y="133.63056"/>
      </g>
     </g>
    </g>
    <g id="xtick_11">
     <g id="line2d_17">
      <g>
       <use style="stroke:#000000;stroke-width:0.8;" x="143.660299" xlink:href="#m99ab19513b" y="133.63056"/>
      </g>
     </g>
    </g>
    <g id="xtick_12">
     <g id="line2d_18">
      <g>
       <use style="stroke:#000000;stroke-width:0.8;" x="195.029689" xlink:href="#m99ab19513b" y="133.63056"/>
      </g>
     </g>
    </g>
    <g id="xtick_13">
     <g id="line2d_19">
      <g>
       <use style="stroke:#000000;stroke-width:0.8;" x="246.399079" xlink:href="#m99ab19513b" y="133.63056"/>
      </g>
     </g>
    </g>
    <g id="xtick_14">
     <g id="line2d_20">
      <g>
       <use style="stroke:#000000;stroke-width:0.8;" x="297.76847" xlink:href="#m99ab19513b" y="133.63056"/>
      </g>
     </g>
    </g>
    <g id="xtick_15">
     <g id="line2d_21">
      <g>
       <use style="stroke:#000000;stroke-width:0.8;" x="349.13786" xlink:href="#m99ab19513b" y="133.63056"/>
      </g>
     </g>
    </g>
    <g id="xtick_16">
     <g id="line2d_22">
      <g>
       <use style="stroke:#000000;stroke-width:0.8;" x="400.50725" xlink:href="#m99ab19513b" y="133.63056"/>
      </g>
     </g>
    </g>
    <g id="xtick_17">
     <g id="line2d_23">
      <g>
       <use style="stroke:#000000;stroke-width:0.8;" x="451.87664" xlink:href="#m99ab19513b" y="133.63056"/>
      </g>
     </g>
    </g>
    <g id="xtick_18">
     <g id="line2d_24">
      <g>
       <use style="stroke:#000000;stroke-width:0.8;" x="503.24603" xlink:href="#m99ab19513b" y="133.63056"/>
      </g>
     </g>
    </g>
   </g>
   <g id="matplotlib.axis_4">
    <g id="ytick_5">
     <g id="line2d_25">
      <g>
       <use style="stroke:#000000;stroke-width:0.8;" x="72" xlink:href="#me57bd68b92" y="126.940874"/>
      </g>
     </g>
     <g id="text_6">
      <!-- 1.06 -->
      <defs>
       <path d="M 33.015625 40.375 
Q 26.375 40.375 22.484375 35.828125 
Q 18.609375 31.296875 18.609375 23.390625 
Q 18.609375 15.53125 22.484375 10.953125 
Q 26.375 6.390625 33.015625 6.390625 
Q 39.65625 6.390625 43.53125 10.953125 
Q 47.40625 15.53125 47.40625 23.390625 
Q 47.40625 31.296875 43.53125 35.828125 
Q 39.65625 40.375 33.015625 40.375 
z
M 52.59375 71.296875 
L 52.59375 62.3125 
Q 48.875 64.0625 45.09375 64.984375 
Q 41.3125 65.921875 37.59375 65.921875 
Q 27.828125 65.921875 22.671875 59.328125 
Q 17.53125 52.734375 16.796875 39.40625 
Q 19.671875 43.65625 24.015625 45.921875 
Q 28.375 48.1875 33.59375 48.1875 
Q 44.578125 48.1875 50.953125 41.515625 
Q 57.328125 34.859375 57.328125 23.390625 
Q 57.328125 12.15625 50.6875 5.359375 
Q 44.046875 -1.421875 33.015625 -1.421875 
Q 20.359375 -1.421875 13.671875 8.265625 
Q 6.984375 17.96875 6.984375 36.375 
Q 6.984375 53.65625 15.1875 63.9375 
Q 23.390625 74.21875 37.203125 74.21875 
Q 40.921875 74.21875 44.703125 73.484375 
Q 48.484375 72.75 52.59375 71.296875 
z
" id="DejaVuSans-36"/>
      </defs>
      <g transform="translate(42.734375 130.740093)scale(0.1 -0.1)">
       <use xlink:href="#DejaVuSans-31"/>
       <use x="63.623047" xlink:href="#DejaVuSans-2e"/>
       <use x="95.410156" xlink:href="#DejaVuSans-30"/>
       <use x="159.033203" xlink:href="#DejaVuSans-36"/>
      </g>
     </g>
    </g>
    <g id="ytick_6">
     <g id="line2d_26">
      <g>
       <use style="stroke:#000000;stroke-width:0.8;" x="72" xlink:href="#me57bd68b92" y="112.074905"/>
      </g>
     </g>
     <g id="text_7">
      <!-- 2.36 -->
      <defs>
       <path d="M 19.1875 8.296875 
L 53.609375 8.296875 
L 53.609375 0 
L 7.328125 0 
L 7.328125 8.296875 
Q 12.9375 14.109375 22.625 23.890625 
Q 32.328125 33.6875 34.8125 36.53125 
Q 39.546875 41.84375 41.421875 45.53125 
Q 43.3125 49.21875 43.3125 52.78125 
Q 43.3125 58.59375 39.234375 62.25 
Q 35.15625 65.921875 28.609375 65.921875 
Q 23.96875 65.921875 18.8125 64.3125 
Q 13.671875 62.703125 7.8125 59.421875 
L 7.8125 69.390625 
Q 13.765625 71.78125 18.9375 73 
Q 24.125 74.21875 28.421875 74.21875 
Q 39.75 74.21875 46.484375 68.546875 
Q 53.21875 62.890625 53.21875 53.421875 
Q 53.21875 48.921875 51.53125 44.890625 
Q 49.859375 40.875 45.40625 35.40625 
Q 44.1875 33.984375 37.640625 27.21875 
Q 31.109375 20.453125 19.1875 8.296875 
z
" id="DejaVuSans-32"/>
      </defs>
      <g transform="translate(42.734375 115.874123)scale(0.1 -0.1)">
       <use xlink:href="#DejaVuSans-32"/>
       <use x="63.623047" xlink:href="#DejaVuSans-2e"/>
       <use x="95.410156" xlink:href="#DejaVuSans-33"/>
       <use x="159.033203" xlink:href="#DejaVuSans-36"/>
      </g>
     </g>
    </g>
    <g id="ytick_7">
     <g id="line2d_27">
      <g>
       <use style="stroke:#000000;stroke-width:0.8;" x="72" xlink:href="#me57bd68b92" y="97.208935"/>
      </g>
     </g>
     <g id="text_8">
      <!-- 3.66 -->
      <g transform="translate(42.734375 101.008154)scale(0.1 -0.1)">
       <use xlink:href="#DejaVuSans-33"/>
       <use x="63.623047" xlink:href="#DejaVuSans-2e"/>
       <use x="95.410156" xlink:href="#DejaVuSans-36"/>
       <use x="159.033203" xlink:href="#DejaVuSans-36"/>
      </g>
     </g>
    </g>
    <g id="ytick_8">
     <g id="line2d_28">
      <g>
       <use style="stroke:#000000;stroke-width:0.8;" x="72" xlink:href="#me57bd68b92" y="82.342966"/>
      </g>
     </g>
     <g id="text_9">
      <!-- 4.96 -->
      <defs>
       <path d="M 37.796875 64.3125 
L 12.890625 25.390625 
L 37.796875 25.390625 
z
M 35.203125 72.90625 
L 47.609375 72.90625 
L 47.609375 25.390625 
L 58.015625 25.390625 
L 58.015625 17.1875 
L 47.609375 17.1875 
L 47.609375 0 
L 37.796875 0 
L 37.796875 17.1875 
L 4.890625 17.1875 
L 4.890625 26.703125 
z
" id="DejaVuSans-34"/>
       <path d="M 10.984375 1.515625 
L 10.984375 10.5 
Q 14.703125 8.734375 18.5 7.8125 
Q 22.3125 6.890625 25.984375 6.890625 
Q 35.75 6.890625 40.890625 13.453125 
Q 46.046875 20.015625 46.78125 33.40625 
Q 43.953125 29.203125 39.59375 26.953125 
Q 35.25 24.703125 29.984375 24.703125 
Q 19.046875 24.703125 12.671875 31.3125 
Q 6.296875 37.9375 6.296875 49.421875 
Q 6.296875 60.640625 12.9375 67.421875 
Q 19.578125 74.21875 30.609375 74.21875 
Q 43.265625 74.21875 49.921875 64.515625 
Q 56.59375 54.828125 56.59375 36.375 
Q 56.59375 19.140625 48.40625 8.859375 
Q 40.234375 -1.421875 26.421875 -1.421875 
Q 22.703125 -1.421875 18.890625 -0.6875 
Q 15.09375 0.046875 10.984375 1.515625 
z
M 30.609375 32.421875 
Q 37.25 32.421875 41.125 36.953125 
Q 45.015625 41.5 45.015625 49.421875 
Q 45.015625 57.28125 41.125 61.84375 
Q 37.25 66.40625 30.609375 66.40625 
Q 23.96875 66.40625 20.09375 61.84375 
Q 16.21875 57.28125 16.21875 49.421875 
Q 16.21875 41.5 20.09375 36.953125 
Q 23.96875 32.421875 30.609375 32.421875 
z
" id="DejaVuSans-39"/>
      </defs>
      <g transform="translate(42.734375 86.142185)scale(0.1 -0.1)">
       <use xlink:href="#DejaVuSans-34"/>
       <use x="63.623047" xlink:href="#DejaVuSans-2e"/>
       <use x="95.410156" xlink:href="#DejaVuSans-39"/>
       <use x="159.033203" xlink:href="#DejaVuSans-36"/>
      </g>
     </g>
    </g>
    <g id="text_10">
     <!-- $s_{25}$ -->
     <g transform="translate(36.654688 111.84192)rotate(-90)scale(0.1 -0.1)">
      <use xlink:href="#DejaVuSans-Oblique-73"/>
      <use transform="translate(52.099609 -16.40625)scale(0.7)" xlink:href="#DejaVuSans-32"/>
      <use transform="translate(96.635742 -16.40625)scale(0.7)" xlink:href="#DejaVuSans-35"/>
     </g>
    </g>
   </g>
   <g id="line2d_29">
    <path clip-path="url(#pf6a714a163)" d="M 92.290909 110.464214 
L 97.427848 110.464214 
L 102.564787 110.373687 
L 107.701726 110.373687 
L 112.838665 114.967116 
L 117.975604 114.967116 
L 123.112543 118.245521 
L 128.249482 118.245521 
L 133.386421 120.561862 
L 138.52336 122.205751 
L 143.660299 123.384147 
L 148.797238 123.320419 
L 153.934177 124.178896 
L 159.071116 124.808777 
L 164.208055 125.27565 
L 169.344994 125.624641 
L 174.481933 125.560982 
L 179.618872 125.825346 
L 184.755811 125.825346 
L 189.89275 125.751202 
L 195.029689 125.751202 
L 200.166628 125.751202 
L 205.303567 125.751202 
L 210.440506 125.663147 
L 215.577445 125.663147 
L 220.714384 125.393747 
L 225.851323 125.286902 
L 230.988262 125.286902 
L 236.125201 124.924962 
L 241.26214 124.795916 
L 246.399079 124.30615 
L 251.536018 124.30615 
L 256.672957 124.151586 
L 261.809896 124.151586 
L 266.946835 123.300561 
L 272.083774 123.300561 
L 277.220713 123.300561 
L 282.357652 123.110821 
L 287.494591 123.110821 
L 292.63153 122.168963 
L 297.76847 121.973758 
L 302.905409 121.973758 
L 308.042348 120.655019 
L 313.179287 120.655019 
L 318.316226 118.620811 
L 323.453165 118.620811 
L 328.590104 116.00878 
L 333.727043 112.110795 
L 338.863982 112.110795 
L 344.000921 106.846607 
L 349.13786 99.778255 
L 354.274799 99.417259 
L 359.411738 90.653745 
L 364.548677 90.653745 
L 369.685616 83.784027 
L 374.822555 83.784027 
L 379.959494 83.784027 
L 385.096433 82.342966 
L 390.233372 90.158247 
L 395.370311 90.158247 
L 400.50725 99.495685 
L 405.644189 99.495685 
L 410.781128 107.202481 
L 415.918067 112.900953 
L 421.055006 112.900953 
L 426.191945 116.980518 
L 431.328884 119.891625 
L 436.465823 119.891625 
L 441.602762 121.985726 
L 446.739701 121.985726 
L 451.87664 123.510308 
L 457.013579 123.510308 
L 462.150518 123.510308 
L 467.287457 124.634477 
L 472.424396 123.428707 
L 477.561335 123.428707 
L 482.698274 123.428707 
L 487.835213 123.428707 
L 492.972152 124.226776 
L 498.109091 124.226776 
" style="fill:none;stroke:#1f77b4;stroke-linecap:square;stroke-width:1.5;"/>
   </g>
   <g id="line2d_30">
    <path clip-path="url(#pf6a714a163)" d="M 92.290909 109.841281 
L 97.427848 110.209884 
L 102.564787 110.987496 
L 107.701726 112.188109 
L 112.838665 113.758349 
L 117.975604 115.579628 
L 123.112543 117.493805 
L 128.249482 119.344215 
L 133.386421 121.01223 
L 138.52336 122.433594 
L 143.660299 123.59351 
L 148.797238 124.510344 
L 153.934177 125.218505 
L 159.071116 125.756049 
L 164.208055 126.157833 
L 169.344994 126.452786 
L 174.481933 126.663529 
L 179.618872 126.807061 
L 184.755811 126.895761 
L 189.89275 126.938378 
L 195.029689 126.940874 
L 200.166628 126.907137 
L 205.303567 126.839581 
L 210.440506 126.739698 
L 215.577445 126.608604 
L 220.714384 126.447594 
L 225.851323 126.258713 
L 230.988262 126.045261 
L 236.125201 125.812124 
L 241.26214 125.565767 
L 246.399079 125.313755 
L 251.536018 125.063773 
L 256.672957 124.822284 
L 261.809896 124.593124 
L 266.946835 124.376403 
L 272.083774 124.167944 
L 277.220713 123.959278 
L 282.357652 123.73798 
L 287.494591 123.487979 
L 292.63153 123.18949 
L 297.76847 122.818275 
L 302.905409 122.34405 
L 308.042348 121.72792 
L 313.179287 120.918832 
L 318.316226 119.849319 
L 323.453165 118.431496 
L 328.590104 116.555983 
L 333.727043 114.099683 
L 338.863982 110.953088 
L 344.000921 107.080382 
L 349.13786 102.613656 
L 354.274799 97.937376 
L 359.411738 93.653658 
L 364.548677 90.341899 
L 369.685616 88.247617 
L 374.822555 87.230886 
L 379.959494 87.074493 
L 385.096433 87.820194 
L 390.233372 89.762188 
L 395.370311 93.095914 
L 400.50725 97.590018 
L 405.644189 102.627017 
L 410.781128 107.532101 
L 415.918067 111.847025 
L 421.055006 115.38682 
L 426.191945 118.158643 
L 431.328884 120.261309 
L 436.465823 121.817924 
L 441.602762 122.943468 
L 446.739701 123.73415 
L 451.87664 124.267077 
L 457.013579 124.603623 
L 462.150518 124.793422 
L 467.287457 124.877733 
L 472.424396 124.891803 
L 477.561335 124.866164 
L 482.698274 124.826989 
L 487.835213 124.795711 
L 492.972152 124.788278 
L 498.109091 124.814477 
" style="fill:none;stroke:#ff7f0e;stroke-linecap:square;stroke-width:1.5;"/>
   </g>
   <g id="patch_8">
    <path d="M 72 133.63056 
L 72 75.65328 
" style="fill:none;stroke:#000000;stroke-linecap:square;stroke-linejoin:miter;stroke-width:0.8;"/>
   </g>
   <g id="patch_9">
    <path d="M 518.4 133.63056 
L 518.4 75.65328 
" style="fill:none;stroke:#000000;stroke-linecap:square;stroke-linejoin:miter;stroke-width:0.8;"/>
   </g>
   <g id="patch_10">
    <path d="M 72 133.63056 
L 518.4 133.63056 
" style="fill:none;stroke:#000000;stroke-linecap:square;stroke-linejoin:miter;stroke-width:0.8;"/>
   </g>
   <g id="patch_11">
    <path d="M 72 75.65328 
L 518.4 75.65328 
" style="fill:none;stroke:#000000;stroke-linecap:square;stroke-linejoin:miter;stroke-width:0.8;"/>
   </g>
  </g>
  <g id="axes_3">
   <g id="patch_12">
    <path d="M 72 191.60784 
L 518.4 191.60784 
L 518.4 133.63056 
L 72 133.63056 
z
" style="fill:#ffffff;"/>
   </g>
   <g id="matplotlib.axis_5">
    <g id="xtick_19">
     <g id="line2d_31">
      <g>
       <use style="stroke:#000000;stroke-width:0.8;" x="92.290909" xlink:href="#m99ab19513b" y="191.60784"/>
      </g>
     </g>
    </g>
    <g id="xtick_20">
     <g id="line2d_32">
      <g>
       <use style="stroke:#000000;stroke-width:0.8;" x="143.660299" xlink:href="#m99ab19513b" y="191.60784"/>
      </g>
     </g>
    </g>
    <g id="xtick_21">
     <g id="line2d_33">
      <g>
       <use style="stroke:#000000;stroke-width:0.8;" x="195.029689" xlink:href="#m99ab19513b" y="191.60784"/>
      </g>
     </g>
    </g>
    <g id="xtick_22">
     <g id="line2d_34">
      <g>
       <use style="stroke:#000000;stroke-width:0.8;" x="246.399079" xlink:href="#m99ab19513b" y="191.60784"/>
      </g>
     </g>
    </g>
    <g id="xtick_23">
     <g id="line2d_35">
      <g>
       <use style="stroke:#000000;stroke-width:0.8;" x="297.76847" xlink:href="#m99ab19513b" y="191.60784"/>
      </g>
     </g>
    </g>
    <g id="xtick_24">
     <g id="line2d_36">
      <g>
       <use style="stroke:#000000;stroke-width:0.8;" x="349.13786" xlink:href="#m99ab19513b" y="191.60784"/>
      </g>
     </g>
    </g>
    <g id="xtick_25">
     <g id="line2d_37">
      <g>
       <use style="stroke:#000000;stroke-width:0.8;" x="400.50725" xlink:href="#m99ab19513b" y="191.60784"/>
      </g>
     </g>
    </g>
    <g id="xtick_26">
     <g id="line2d_38">
      <g>
       <use style="stroke:#000000;stroke-width:0.8;" x="451.87664" xlink:href="#m99ab19513b" y="191.60784"/>
      </g>
     </g>
    </g>
    <g id="xtick_27">
     <g id="line2d_39">
      <g>
       <use style="stroke:#000000;stroke-width:0.8;" x="503.24603" xlink:href="#m99ab19513b" y="191.60784"/>
      </g>
     </g>
    </g>
   </g>
   <g id="matplotlib.axis_6">
    <g id="ytick_9">
     <g id="line2d_40">
      <g>
       <use style="stroke:#000000;stroke-width:0.8;" x="72" xlink:href="#me57bd68b92" y="184.918154"/>
      </g>
     </g>
     <g id="text_11">
      <!-- 0.67 -->
      <g transform="translate(42.734375 188.717373)scale(0.1 -0.1)">
       <use xlink:href="#DejaVuSans-30"/>
       <use x="63.623047" xlink:href="#DejaVuSans-2e"/>
       <use x="95.410156" xlink:href="#DejaVuSans-36"/>
       <use x="159.033203" xlink:href="#DejaVuSans-37"/>
      </g>
     </g>
    </g>
    <g id="ytick_10">
     <g id="line2d_41">
      <g>
       <use style="stroke:#000000;stroke-width:0.8;" x="72" xlink:href="#me57bd68b92" y="170.052185"/>
      </g>
     </g>
     <g id="text_12">
      <!-- 0.75 -->
      <g transform="translate(42.734375 173.851403)scale(0.1 -0.1)">
       <use xlink:href="#DejaVuSans-30"/>
       <use x="63.623047" xlink:href="#DejaVuSans-2e"/>
       <use x="95.410156" xlink:href="#DejaVuSans-37"/>
       <use x="159.033203" xlink:href="#DejaVuSans-35"/>
      </g>
     </g>
    </g>
    <g id="ytick_11">
     <g id="line2d_42">
      <g>
       <use style="stroke:#000000;stroke-width:0.8;" x="72" xlink:href="#me57bd68b92" y="155.186215"/>
      </g>
     </g>
     <g id="text_13">
      <!-- 0.83 -->
      <defs>
       <path d="M 31.78125 34.625 
Q 24.75 34.625 20.71875 30.859375 
Q 16.703125 27.09375 16.703125 20.515625 
Q 16.703125 13.921875 20.71875 10.15625 
Q 24.75 6.390625 31.78125 6.390625 
Q 38.8125 6.390625 42.859375 10.171875 
Q 46.921875 13.96875 46.921875 20.515625 
Q 46.921875 27.09375 42.890625 30.859375 
Q 38.875 34.625 31.78125 34.625 
z
M 21.921875 38.8125 
Q 15.578125 40.375 12.03125 44.71875 
Q 8.5 49.078125 8.5 55.328125 
Q 8.5 64.0625 14.71875 69.140625 
Q 20.953125 74.21875 31.78125 74.21875 
Q 42.671875 74.21875 48.875 69.140625 
Q 55.078125 64.0625 55.078125 55.328125 
Q 55.078125 49.078125 51.53125 44.71875 
Q 48 40.375 41.703125 38.8125 
Q 48.828125 37.15625 52.796875 32.3125 
Q 56.78125 27.484375 56.78125 20.515625 
Q 56.78125 9.90625 50.3125 4.234375 
Q 43.84375 -1.421875 31.78125 -1.421875 
Q 19.734375 -1.421875 13.25 4.234375 
Q 6.78125 9.90625 6.78125 20.515625 
Q 6.78125 27.484375 10.78125 32.3125 
Q 14.796875 37.15625 21.921875 38.8125 
z
M 18.3125 54.390625 
Q 18.3125 48.734375 21.84375 45.5625 
Q 25.390625 42.390625 31.78125 42.390625 
Q 38.140625 42.390625 41.71875 45.5625 
Q 45.3125 48.734375 45.3125 54.390625 
Q 45.3125 60.0625 41.71875 63.234375 
Q 38.140625 66.40625 31.78125 66.40625 
Q 25.390625 66.40625 21.84375 63.234375 
Q 18.3125 60.0625 18.3125 54.390625 
z
" id="DejaVuSans-38"/>
      </defs>
      <g transform="translate(42.734375 158.985434)scale(0.1 -0.1)">
       <use xlink:href="#DejaVuSans-30"/>
       <use x="63.623047" xlink:href="#DejaVuSans-2e"/>
       <use x="95.410156" xlink:href="#DejaVuSans-38"/>
       <use x="159.033203" xlink:href="#DejaVuSans-33"/>
      </g>
     </g>
    </g>
    <g id="ytick_12">
     <g id="line2d_43">
      <g>
       <use style="stroke:#000000;stroke-width:0.8;" x="72" xlink:href="#me57bd68b92" y="140.320246"/>
      </g>
     </g>
     <g id="text_14">
      <!-- 0.91 -->
      <g transform="translate(42.734375 144.119465)scale(0.1 -0.1)">
       <use xlink:href="#DejaVuSans-30"/>
       <use x="63.623047" xlink:href="#DejaVuSans-2e"/>
       <use x="95.410156" xlink:href="#DejaVuSans-39"/>
       <use x="159.033203" xlink:href="#DejaVuSans-31"/>
      </g>
     </g>
    </g>
    <g id="text_15">
     <!-- $s_{50}$ -->
     <g transform="translate(36.654688 169.8192)rotate(-90)scale(0.1 -0.1)">
      <use xlink:href="#DejaVuSans-Oblique-73"/>
      <use transform="translate(52.099609 -16.40625)scale(0.7)" xlink:href="#DejaVuSans-35"/>
      <use transform="translate(96.635742 -16.40625)scale(0.7)" xlink:href="#DejaVuSans-30"/>
     </g>
    </g>
   </g>
   <g id="line2d_44">
    <path clip-path="url(#pe54c1a7a3a)" d="M 92.290909 146.62051 
L 97.427848 146.62051 
L 102.564787 146.122919 
L 107.701726 146.122919 
L 112.838665 148.122068 
L 117.975604 148.122068 
L 123.112543 150.565934 
L 128.249482 150.565934 
L 133.386421 153.404849 
L 138.52336 156.58161 
L 143.660299 160.034788 
L 148.797238 159.470634 
L 153.934177 163.132241 
L 159.071116 166.949824 
L 164.208055 170.867789 
L 169.344994 174.836613 
L 174.481933 174.247499 
L 179.618872 178.223582 
L 184.755811 178.223582 
L 189.89275 177.623775 
L 195.029689 177.623775 
L 200.166628 177.623775 
L 205.303567 177.623775 
L 210.440506 177.016012 
L 215.577445 177.016012 
L 220.714384 173.043327 
L 225.851323 172.432524 
L 230.988262 172.432524 
L 236.125201 168.475915 
L 241.26214 167.867939 
L 246.399079 163.975699 
L 251.536018 163.975699 
L 256.672957 163.37806 
L 261.809896 163.37806 
L 266.946835 159.029675 
L 272.083774 159.029675 
L 277.220713 159.029675 
L 282.357652 158.464486 
L 287.494591 158.464486 
L 292.63153 154.901247 
L 297.76847 154.376106 
L 302.905409 154.376106 
L 308.042348 151.083621 
L 313.179287 151.083621 
L 318.316226 147.681188 
L 323.453165 147.681188 
L 328.590104 145.135453 
L 333.727043 142.795962 
L 338.863982 142.795962 
L 344.000921 141.305835 
L 349.13786 140.395873 
L 354.274799 140.456694 
L 359.411738 140.320246 
L 364.548677 140.320246 
L 369.685616 140.867084 
L 374.822555 140.867084 
L 379.959494 140.867084 
L 385.096433 141.504308 
L 390.233372 140.726733 
L 395.370311 140.726733 
L 400.50725 140.672499 
L 405.644189 140.672499 
L 410.781128 141.300794 
L 415.918067 142.559714 
L 421.055006 142.559714 
L 426.191945 144.388448 
L 431.328884 146.718932 
L 436.465823 146.718932 
L 441.602762 149.478208 
L 446.739701 149.478208 
L 451.87664 152.591368 
L 457.013579 152.591368 
L 462.150518 152.591368 
L 467.287457 155.984628 
L 472.424396 156.416314 
L 477.561335 156.416314 
L 482.698274 156.416314 
L 487.835213 156.416314 
L 492.972152 160.058064 
L 498.109091 160.058064 
" style="fill:none;stroke:#1f77b4;stroke-linecap:square;stroke-width:1.5;"/>
   </g>
   <g id="line2d_45">
    <path clip-path="url(#pe54c1a7a3a)" d="M 92.290909 149.210994 
L 97.427848 149.325788 
L 102.564787 149.58904 
L 107.701726 150.044911 
L 112.838665 150.744758 
L 117.975604 151.745393 
L 123.112543 153.103114 
L 128.249482 154.863389 
L 133.386421 157.047773 
L 138.52336 159.641497 
L 143.660299 162.586154 
L 148.797238 165.780866 
L 153.934177 169.092491 
L 159.071116 172.371972 
L 164.208055 175.472062 
L 169.344994 178.262026 
L 174.481933 180.637006 
L 179.618872 182.521983 
L 184.755811 183.871692 
L 189.89275 184.668274 
L 195.029689 184.918154 
L 200.166628 184.649015 
L 205.303567 183.907128 
L 210.440506 182.754852 
L 215.577445 181.267836 
L 220.714384 179.531443 
L 225.851323 177.636099 
L 230.988262 175.671629 
L 236.125201 173.721066 
L 241.26214 171.854737 
L 246.399079 170.125485 
L 251.536018 168.565678 
L 256.672957 167.186223 
L 261.809896 165.977432 
L 266.946835 164.91133 
L 272.083774 163.94503 
L 277.220713 163.024867 
L 282.357652 162.091195 
L 287.494591 161.08376 
L 292.63153 159.947557 
L 297.76847 158.638971 
L 302.905409 157.131861 
L 308.042348 155.423045 
L 313.179287 153.536427 
L 318.316226 151.524653 
L 323.453165 149.467004 
L 328.590104 147.462407 
L 333.727043 145.617236 
L 338.863982 144.029219 
L 344.000921 142.77052 
L 349.13786 141.87426 
L 354.274799 141.328179 
L 359.411738 141.077361 
L 364.548677 141.03569 
L 369.685616 141.103923 
L 374.822555 141.191078 
L 379.959494 141.234813 
L 385.096433 141.216023 
L 390.233372 141.163627 
L 395.370311 141.147683 
L 400.50725 141.262096 
L 405.644189 141.601327 
L 410.781128 142.237315 
L 415.918067 143.202553 
L 421.055006 144.483109 
L 426.191945 146.022421 
L 431.328884 147.733769 
L 436.465823 149.517233 
L 441.602762 151.276505 
L 446.739701 152.932093 
L 451.87664 154.42933 
L 457.013579 155.741342 
L 462.150518 156.868019 
L 467.287457 157.832331 
L 472.424396 158.675109 
L 477.561335 159.449166 
L 482.698274 160.213298 
L 487.835213 161.026559 
L 492.972152 161.94299 
L 498.109091 163.006875 
" style="fill:none;stroke:#ff7f0e;stroke-linecap:square;stroke-width:1.5;"/>
   </g>
   <g id="patch_13">
    <path d="M 72 191.60784 
L 72 133.63056 
" style="fill:none;stroke:#000000;stroke-linecap:square;stroke-linejoin:miter;stroke-width:0.8;"/>
   </g>
   <g id="patch_14">
    <path d="M 518.4 191.60784 
L 518.4 133.63056 
" style="fill:none;stroke:#000000;stroke-linecap:square;stroke-linejoin:miter;stroke-width:0.8;"/>
   </g>
   <g id="patch_15">
    <path d="M 72 191.60784 
L 518.4 191.60784 
" style="fill:none;stroke:#000000;stroke-linecap:square;stroke-linejoin:miter;stroke-width:0.8;"/>
   </g>
   <g id="patch_16">
    <path d="M 72 133.63056 
L 518.4 133.63056 
" style="fill:none;stroke:#000000;stroke-linecap:square;stroke-linejoin:miter;stroke-width:0.8;"/>
   </g>
  </g>
  <g id="axes_4">
   <g id="patch_17">
    <path d="M 72 249.58512 
L 518.4 249.58512 
L 518.4 191.60784 
L 72 191.60784 
z
" style="fill:#ffffff;"/>
   </g>
   <g id="matplotlib.axis_7">
    <g id="xtick_28">
     <g id="line2d_46">
      <g>
       <use style="stroke:#000000;stroke-width:0.8;" x="92.290909" xlink:href="#m99ab19513b" y="249.58512"/>
      </g>
     </g>
    </g>
    <g id="xtick_29">
     <g id="line2d_47">
      <g>
       <use style="stroke:#000000;stroke-width:0.8;" x="143.660299" xlink:href="#m99ab19513b" y="249.58512"/>
      </g>
     </g>
    </g>
    <g id="xtick_30">
     <g id="line2d_48">
      <g>
       <use style="stroke:#000000;stroke-width:0.8;" x="195.029689" xlink:href="#m99ab19513b" y="249.58512"/>
      </g>
     </g>
    </g>
    <g id="xtick_31">
     <g id="line2d_49">
      <g>
       <use style="stroke:#000000;stroke-width:0.8;" x="246.399079" xlink:href="#m99ab19513b" y="249.58512"/>
      </g>
     </g>
    </g>
    <g id="xtick_32">
     <g id="line2d_50">
      <g>
       <use style="stroke:#000000;stroke-width:0.8;" x="297.76847" xlink:href="#m99ab19513b" y="249.58512"/>
      </g>
     </g>
    </g>
    <g id="xtick_33">
     <g id="line2d_51">
      <g>
       <use style="stroke:#000000;stroke-width:0.8;" x="349.13786" xlink:href="#m99ab19513b" y="249.58512"/>
      </g>
     </g>
    </g>
    <g id="xtick_34">
     <g id="line2d_52">
      <g>
       <use style="stroke:#000000;stroke-width:0.8;" x="400.50725" xlink:href="#m99ab19513b" y="249.58512"/>
      </g>
     </g>
    </g>
    <g id="xtick_35">
     <g id="line2d_53">
      <g>
       <use style="stroke:#000000;stroke-width:0.8;" x="451.87664" xlink:href="#m99ab19513b" y="249.58512"/>
      </g>
     </g>
    </g>
    <g id="xtick_36">
     <g id="line2d_54">
      <g>
       <use style="stroke:#000000;stroke-width:0.8;" x="503.24603" xlink:href="#m99ab19513b" y="249.58512"/>
      </g>
     </g>
    </g>
   </g>
   <g id="matplotlib.axis_8">
    <g id="ytick_13">
     <g id="line2d_55">
      <g>
       <use style="stroke:#000000;stroke-width:0.8;" x="72" xlink:href="#me57bd68b92" y="242.895434"/>
      </g>
     </g>
     <g id="text_16">
      <!-- 3.56 -->
      <g transform="translate(42.734375 246.694653)scale(0.1 -0.1)">
       <use xlink:href="#DejaVuSans-33"/>
       <use x="63.623047" xlink:href="#DejaVuSans-2e"/>
       <use x="95.410156" xlink:href="#DejaVuSans-35"/>
       <use x="159.033203" xlink:href="#DejaVuSans-36"/>
      </g>
     </g>
    </g>
    <g id="ytick_14">
     <g id="line2d_56">
      <g>
       <use style="stroke:#000000;stroke-width:0.8;" x="72" xlink:href="#me57bd68b92" y="228.029465"/>
      </g>
     </g>
     <g id="text_17">
      <!-- 4.30 -->
      <g transform="translate(42.734375 231.828683)scale(0.1 -0.1)">
       <use xlink:href="#DejaVuSans-34"/>
       <use x="63.623047" xlink:href="#DejaVuSans-2e"/>
       <use x="95.410156" xlink:href="#DejaVuSans-33"/>
       <use x="159.033203" xlink:href="#DejaVuSans-30"/>
      </g>
     </g>
    </g>
    <g id="ytick_15">
     <g id="line2d_57">
      <g>
       <use style="stroke:#000000;stroke-width:0.8;" x="72" xlink:href="#me57bd68b92" y="213.163495"/>
      </g>
     </g>
     <g id="text_18">
      <!-- 5.04 -->
      <g transform="translate(42.734375 216.962714)scale(0.1 -0.1)">
       <use xlink:href="#DejaVuSans-35"/>
       <use x="63.623047" xlink:href="#DejaVuSans-2e"/>
       <use x="95.410156" xlink:href="#DejaVuSans-30"/>
       <use x="159.033203" xlink:href="#DejaVuSans-34"/>
      </g>
     </g>
    </g>
    <g id="ytick_16">
     <g id="line2d_58">
      <g>
       <use style="stroke:#000000;stroke-width:0.8;" x="72" xlink:href="#me57bd68b92" y="198.297526"/>
      </g>
     </g>
     <g id="text_19">
      <!-- 5.78 -->
      <g transform="translate(42.734375 202.096745)scale(0.1 -0.1)">
       <use xlink:href="#DejaVuSans-35"/>
       <use x="63.623047" xlink:href="#DejaVuSans-2e"/>
       <use x="95.410156" xlink:href="#DejaVuSans-37"/>
       <use x="159.033203" xlink:href="#DejaVuSans-38"/>
      </g>
     </g>
    </g>
    <g id="text_20">
     <!-- $s_{75}$ -->
     <g transform="translate(36.654688 227.79648)rotate(-90)scale(0.1 -0.1)">
      <use xlink:href="#DejaVuSans-Oblique-73"/>
      <use transform="translate(52.099609 -16.40625)scale(0.7)" xlink:href="#DejaVuSans-37"/>
      <use transform="translate(96.635742 -16.40625)scale(0.7)" xlink:href="#DejaVuSans-35"/>
     </g>
    </g>
   </g>
   <g id="line2d_59">
    <path clip-path="url(#pf408d14c24)" d="M 92.290909 233.505768 
L 97.427848 233.505768 
L 102.564787 232.229961 
L 107.701726 232.229961 
L 112.838665 228.910619 
L 117.975604 228.910619 
L 123.112543 225.895038 
L 128.249482 225.895038 
L 133.386421 223.187326 
L 138.52336 220.790041 
L 143.660299 218.703738 
L 148.797238 217.816453 
L 153.934177 216.111324 
L 159.071116 214.705506 
L 164.208055 213.592623 
L 169.344994 212.763769 
L 174.481933 212.096254 
L 179.618872 211.596524 
L 184.755811 211.596524 
L 189.89275 210.946616 
L 195.029689 210.946616 
L 200.166628 210.946616 
L 205.303567 210.946616 
L 210.440506 210.253059 
L 215.577445 210.253059 
L 220.714384 210.629229 
L 225.851323 209.818755 
L 230.988262 209.818755 
L 236.125201 210.380159 
L 241.26214 209.431824 
L 246.399079 210.17026 
L 251.536018 210.17026 
L 256.672957 209.059091 
L 261.809896 209.059091 
L 266.946835 208.655241 
L 272.083774 208.655241 
L 277.220713 208.655241 
L 282.357652 207.248446 
L 287.494591 207.248446 
L 292.63153 208.159918 
L 297.76847 206.503564 
L 302.905409 206.503564 
L 308.042348 207.494118 
L 313.179287 207.494118 
L 318.316226 206.555742 
L 323.453165 206.555742 
L 328.590104 207.744765 
L 333.727043 206.314187 
L 338.863982 206.314187 
L 344.000921 207.515838 
L 349.13786 208.789265 
L 354.274799 205.162275 
L 359.411738 206.11606 
L 364.548677 206.11606 
L 369.685616 207.043241 
L 374.822555 207.043241 
L 379.959494 207.043241 
L 385.096433 202.309129 
L 390.233372 201.795723 
L 395.370311 201.795723 
L 400.50725 201.226635 
L 405.644189 201.226635 
L 410.781128 200.630293 
L 415.918067 200.040666 
L 421.055006 200.040666 
L 426.191945 199.492321 
L 431.328884 199.017608 
L 436.465823 199.017608 
L 441.602762 198.645091 
L 446.739701 198.645091 
L 451.87664 198.398729 
L 457.013579 198.398729 
L 462.150518 198.398729 
L 467.287457 198.297526 
L 472.424396 200.382392 
L 477.561335 200.382392 
L 482.698274 200.382392 
L 487.835213 200.382392 
L 492.972152 200.268304 
L 498.109091 200.268304 
" style="fill:none;stroke:#1f77b4;stroke-linecap:square;stroke-width:1.5;"/>
   </g>
   <g id="line2d_60">
    <path clip-path="url(#pf408d14c24)" d="M 92.290909 242.895434 
L 97.427848 242.601488 
L 102.564787 241.986206 
L 107.701726 241.012948 
L 112.838665 239.671923 
L 117.975604 237.984235 
L 123.112543 236.002308 
L 128.249482 233.806162 
L 133.386421 231.495678 
L 138.52336 229.179646 
L 143.660299 226.963193 
L 148.797238 224.935647 
L 153.934177 223.161105 
L 159.071116 221.673458 
L 164.208055 220.476606 
L 169.344994 219.549312 
L 174.481933 218.853109 
L 179.618872 218.34127 
L 184.755811 217.967007 
L 189.89275 217.689694 
L 195.029689 217.478528 
L 200.166628 217.313632 
L 205.303567 217.184947 
L 210.440506 217.089494 
L 215.577445 217.027728 
L 220.714384 216.999782 
L 225.851323 217.002397 
L 230.988262 217.027197 
L 236.125201 217.060668 
L 241.26214 217.085773 
L 246.399079 217.084721 
L 251.536018 217.042115 
L 256.672957 216.947665 
L 261.809896 216.797813 
L 266.946835 216.59605 
L 272.083774 216.352007 
L 277.220713 216.079772 
L 282.357652 215.795918 
L 287.494591 215.517765 
L 292.63153 215.262093 
L 297.76847 215.044289 
L 302.905409 214.877662 
L 308.042348 214.772491 
L 313.179287 214.734443 
L 318.316226 214.76221 
L 323.453165 214.84469 
L 328.590104 214.958552 
L 333.727043 215.06751 
L 338.863982 215.124682 
L 344.000921 215.078893 
L 349.13786 214.884486 
L 354.274799 214.512619 
L 359.411738 213.960405 
L 364.548677 213.254154 
L 369.685616 212.444512 
L 374.822555 211.594506 
L 379.959494 210.764637 
L 385.096433 210.000185 
L 390.233372 209.324456 
L 395.370311 208.73921 
L 400.50725 208.231185 
L 405.644189 207.781931 
L 410.781128 207.377058 
L 415.918067 207.011591 
L 421.055006 206.690179 
L 426.191945 206.423333 
L 431.328884 206.222249 
L 436.465823 206.094601 
L 441.602762 206.042538 
L 446.739701 206.06293 
L 451.87664 206.148979 
L 457.013579 206.292226 
L 462.150518 206.484152 
L 467.287457 206.717009 
L 472.424396 206.983885 
L 477.561335 207.27834 
L 482.698274 207.593952 
L 487.835213 207.924143 
L 492.972152 208.262449 
L 498.109091 208.603217 
" style="fill:none;stroke:#ff7f0e;stroke-linecap:square;stroke-width:1.5;"/>
   </g>
   <g id="patch_18">
    <path d="M 72 249.58512 
L 72 191.60784 
" style="fill:none;stroke:#000000;stroke-linecap:square;stroke-linejoin:miter;stroke-width:0.8;"/>
   </g>
   <g id="patch_19">
    <path d="M 518.4 249.58512 
L 518.4 191.60784 
" style="fill:none;stroke:#000000;stroke-linecap:square;stroke-linejoin:miter;stroke-width:0.8;"/>
   </g>
   <g id="patch_20">
    <path d="M 72 249.58512 
L 518.4 249.58512 
" style="fill:none;stroke:#000000;stroke-linecap:square;stroke-linejoin:miter;stroke-width:0.8;"/>
   </g>
   <g id="patch_21">
    <path d="M 72 191.60784 
L 518.4 191.60784 
" style="fill:none;stroke:#000000;stroke-linecap:square;stroke-linejoin:miter;stroke-width:0.8;"/>
   </g>
  </g>
  <g id="axes_5">
   <g id="patch_22">
    <path d="M 72 307.5624 
L 518.4 307.5624 
L 518.4 249.58512 
L 72 249.58512 
z
" style="fill:#ffffff;"/>
   </g>
   <g id="matplotlib.axis_9">
    <g id="xtick_37">
     <g id="line2d_61">
      <g>
       <use style="stroke:#000000;stroke-width:0.8;" x="92.290909" xlink:href="#m99ab19513b" y="307.5624"/>
      </g>
     </g>
     <g id="text_21">
      <!-- 0 -->
      <g transform="translate(89.109659 322.160837)scale(0.1 -0.1)">
       <use xlink:href="#DejaVuSans-30"/>
      </g>
     </g>
    </g>
    <g id="xtick_38">
     <g id="line2d_62">
      <g>
       <use style="stroke:#000000;stroke-width:0.8;" x="143.660299" xlink:href="#m99ab19513b" y="307.5624"/>
      </g>
     </g>
     <g id="text_22">
      <!-- 10 -->
      <g transform="translate(137.297799 322.160837)scale(0.1 -0.1)">
       <use xlink:href="#DejaVuSans-31"/>
       <use x="63.623047" xlink:href="#DejaVuSans-30"/>
      </g>
     </g>
    </g>
    <g id="xtick_39">
     <g id="line2d_63">
      <g>
       <use style="stroke:#000000;stroke-width:0.8;" x="195.029689" xlink:href="#m99ab19513b" y="307.5624"/>
      </g>
     </g>
     <g id="text_23">
      <!-- 20 -->
      <g transform="translate(188.667189 322.160837)scale(0.1 -0.1)">
       <use xlink:href="#DejaVuSans-32"/>
       <use x="63.623047" xlink:href="#DejaVuSans-30"/>
      </g>
     </g>
    </g>
    <g id="xtick_40">
     <g id="line2d_64">
      <g>
       <use style="stroke:#000000;stroke-width:0.8;" x="246.399079" xlink:href="#m99ab19513b" y="307.5624"/>
      </g>
     </g>
     <g id="text_24">
      <!-- 30 -->
      <g transform="translate(240.036579 322.160837)scale(0.1 -0.1)">
       <use xlink:href="#DejaVuSans-33"/>
       <use x="63.623047" xlink:href="#DejaVuSans-30"/>
      </g>
     </g>
    </g>
    <g id="xtick_41">
     <g id="line2d_65">
      <g>
       <use style="stroke:#000000;stroke-width:0.8;" x="297.76847" xlink:href="#m99ab19513b" y="307.5624"/>
      </g>
     </g>
     <g id="text_25">
      <!-- 40 -->
      <g transform="translate(291.40597 322.160837)scale(0.1 -0.1)">
       <use xlink:href="#DejaVuSans-34"/>
       <use x="63.623047" xlink:href="#DejaVuSans-30"/>
      </g>
     </g>
    </g>
    <g id="xtick_42">
     <g id="line2d_66">
      <g>
       <use style="stroke:#000000;stroke-width:0.8;" x="349.13786" xlink:href="#m99ab19513b" y="307.5624"/>
      </g>
     </g>
     <g id="text_26">
      <!-- 50 -->
      <g transform="translate(342.77536 322.160837)scale(0.1 -0.1)">
       <use xlink:href="#DejaVuSans-35"/>
       <use x="63.623047" xlink:href="#DejaVuSans-30"/>
      </g>
     </g>
    </g>
    <g id="xtick_43">
     <g id="line2d_67">
      <g>
       <use style="stroke:#000000;stroke-width:0.8;" x="400.50725" xlink:href="#m99ab19513b" y="307.5624"/>
      </g>
     </g>
     <g id="text_27">
      <!-- 60 -->
      <g transform="translate(394.14475 322.160837)scale(0.1 -0.1)">
       <use xlink:href="#DejaVuSans-36"/>
       <use x="63.623047" xlink:href="#DejaVuSans-30"/>
      </g>
     </g>
    </g>
    <g id="xtick_44">
     <g id="line2d_68">
      <g>
       <use style="stroke:#000000;stroke-width:0.8;" x="451.87664" xlink:href="#m99ab19513b" y="307.5624"/>
      </g>
     </g>
     <g id="text_28">
      <!-- 70 -->
      <g transform="translate(445.51414 322.160837)scale(0.1 -0.1)">
       <use xlink:href="#DejaVuSans-37"/>
       <use x="63.623047" xlink:href="#DejaVuSans-30"/>
      </g>
     </g>
    </g>
    <g id="xtick_45">
     <g id="line2d_69">
      <g>
       <use style="stroke:#000000;stroke-width:0.8;" x="503.24603" xlink:href="#m99ab19513b" y="307.5624"/>
      </g>
     </g>
     <g id="text_29">
      <!-- 80 -->
      <g transform="translate(496.88353 322.160837)scale(0.1 -0.1)">
       <use xlink:href="#DejaVuSans-38"/>
       <use x="63.623047" xlink:href="#DejaVuSans-30"/>
      </g>
     </g>
    </g>
   </g>
   <g id="matplotlib.axis_10">
    <g id="ytick_17">
     <g id="line2d_70">
      <g>
       <use style="stroke:#000000;stroke-width:0.8;" x="72" xlink:href="#me57bd68b92" y="300.872714"/>
      </g>
     </g>
     <g id="text_30">
      <!-- -10.47 -->
      <g transform="translate(32.764063 304.671933)scale(0.1 -0.1)">
       <use xlink:href="#DejaVuSans-2d"/>
       <use x="36.083984" xlink:href="#DejaVuSans-31"/>
       <use x="99.707031" xlink:href="#DejaVuSans-30"/>
       <use x="163.330078" xlink:href="#DejaVuSans-2e"/>
       <use x="195.117188" xlink:href="#DejaVuSans-34"/>
       <use x="258.740234" xlink:href="#DejaVuSans-37"/>
      </g>
     </g>
    </g>
    <g id="ytick_18">
     <g id="line2d_71">
      <g>
       <use style="stroke:#000000;stroke-width:0.8;" x="72" xlink:href="#me57bd68b92" y="286.006745"/>
      </g>
     </g>
     <g id="text_31">
      <!-- -9.71 -->
      <g transform="translate(39.126562 289.805963)scale(0.1 -0.1)">
       <use xlink:href="#DejaVuSans-2d"/>
       <use x="36.083984" xlink:href="#DejaVuSans-39"/>
       <use x="99.707031" xlink:href="#DejaVuSans-2e"/>
       <use x="131.494141" xlink:href="#DejaVuSans-37"/>
       <use x="195.117188" xlink:href="#DejaVuSans-31"/>
      </g>
     </g>
    </g>
    <g id="ytick_19">
     <g id="line2d_72">
      <g>
       <use style="stroke:#000000;stroke-width:0.8;" x="72" xlink:href="#me57bd68b92" y="271.140775"/>
      </g>
     </g>
     <g id="text_32">
      <!-- -8.96 -->
      <g transform="translate(39.126562 274.939994)scale(0.1 -0.1)">
       <use xlink:href="#DejaVuSans-2d"/>
       <use x="36.083984" xlink:href="#DejaVuSans-38"/>
       <use x="99.707031" xlink:href="#DejaVuSans-2e"/>
       <use x="131.494141" xlink:href="#DejaVuSans-39"/>
       <use x="195.117188" xlink:href="#DejaVuSans-36"/>
      </g>
     </g>
    </g>
    <g id="ytick_20">
     <g id="line2d_73">
      <g>
       <use style="stroke:#000000;stroke-width:0.8;" x="72" xlink:href="#me57bd68b92" y="256.274806"/>
      </g>
     </g>
     <g id="text_33">
      <!-- -8.20 -->
      <g transform="translate(39.126562 260.074025)scale(0.1 -0.1)">
       <use xlink:href="#DejaVuSans-2d"/>
       <use x="36.083984" xlink:href="#DejaVuSans-38"/>
       <use x="99.707031" xlink:href="#DejaVuSans-2e"/>
       <use x="131.494141" xlink:href="#DejaVuSans-32"/>
       <use x="195.117188" xlink:href="#DejaVuSans-30"/>
      </g>
     </g>
    </g>
    <g id="text_34">
     <!-- $s_{92}$ -->
     <g transform="translate(26.684375 285.77376)rotate(-90)scale(0.1 -0.1)">
      <use xlink:href="#DejaVuSans-Oblique-73"/>
      <use transform="translate(52.099609 -16.40625)scale(0.7)" xlink:href="#DejaVuSans-39"/>
      <use transform="translate(96.624805 -16.40625)scale(0.7)" xlink:href="#DejaVuSans-32"/>
     </g>
    </g>
   </g>
   <g id="line2d_74">
    <path clip-path="url(#p39ad31cb74)" d="M 92.290909 299.513033 
L 97.427848 299.513033 
L 102.564787 298.615679 
L 107.701726 298.615679 
L 112.838665 295.72671 
L 117.975604 295.72671 
L 123.112543 292.614915 
L 128.249482 292.614915 
L 133.386421 289.274147 
L 138.52336 285.7039 
L 143.660299 281.908718 
L 148.797238 280.97934 
L 153.934177 276.96072 
L 159.071116 272.739199 
L 164.208055 268.330108 
L 169.344994 263.750977 
L 174.481933 262.815787 
L 179.618872 258.080188 
L 184.755811 258.080188 
L 189.89275 257.163642 
L 195.029689 257.163642 
L 200.166628 257.163642 
L 205.303567 257.163642 
L 210.440506 256.274806 
L 215.577445 256.274806 
L 220.714384 261.021622 
L 225.851323 260.169365 
L 230.988262 260.169365 
L 236.125201 264.772181 
L 241.26214 263.959549 
L 246.399079 268.400175 
L 251.536018 268.400175 
L 256.672957 267.629597 
L 261.809896 267.629597 
L 266.946835 271.16475 
L 272.083774 271.16475 
L 277.220713 271.16475 
L 282.357652 270.475864 
L 287.494591 270.475864 
L 292.63153 274.551809 
L 297.76847 273.90744 
L 302.905409 273.90744 
L 308.042348 277.779773 
L 313.179287 277.779773 
L 318.316226 280.840528 
L 323.453165 280.840528 
L 328.590104 284.280376 
L 333.727043 286.95738 
L 338.863982 286.95738 
L 344.000921 289.972373 
L 349.13786 292.787304 
L 354.274799 292.294318 
L 359.411738 294.937822 
L 364.548677 294.937822 
L 369.685616 297.425471 
L 374.822555 297.425471 
L 379.959494 297.425471 
L 385.096433 296.980397 
L 390.233372 294.482621 
L 395.370311 294.482621 
L 400.50725 291.829701 
L 405.644189 291.829701 
L 410.781128 288.996883 
L 415.918067 285.965298 
L 421.055006 285.965298 
L 426.191945 282.722092 
L 431.328884 279.260266 
L 436.465823 279.260266 
L 441.602762 275.578302 
L 446.739701 275.578302 
L 451.87664 271.679621 
L 457.013579 271.679621 
L 462.150518 271.679621 
L 467.287457 267.571942 
L 472.424396 268.087131 
L 477.561335 268.087131 
L 482.698274 268.087131 
L 487.835213 268.087131 
L 492.972152 263.787745 
L 498.109091 263.787745 
" style="fill:none;stroke:#1f77b4;stroke-linecap:square;stroke-width:1.5;"/>
   </g>
   <g id="line2d_75">
    <path clip-path="url(#p39ad31cb74)" d="M 92.290909 300.872714 
L 97.427848 300.674661 
L 102.564787 300.254205 
L 107.701726 299.569179 
L 112.838665 298.58069 
L 117.975604 297.254103 
L 123.112543 295.560835 
L 128.249482 293.481535 
L 133.386421 291.010839 
L 138.52336 288.163258 
L 143.660299 284.978833 
L 148.797238 281.526698 
L 153.934177 277.904764 
L 159.071116 274.234687 
L 164.208055 270.652625 
L 169.344994 267.297385 
L 174.481933 264.298135 
L 179.618872 261.763594 
L 184.755811 259.773969 
L 189.89275 258.376154 
L 195.029689 257.582096 
L 200.166628 257.369954 
L 205.303567 257.687618 
L 210.440506 258.458141 
L 215.577445 259.586673 
L 220.714384 260.968395 
L 225.851323 262.496801 
L 230.988262 264.071582 
L 236.125201 265.605355 
L 241.26214 267.028681 
L 246.399079 268.293095 
L 251.536018 269.372229 
L 256.672957 270.261327 
L 261.809896 270.975596 
L 266.946835 271.547669 
L 272.083774 272.024405 
L 277.220713 272.46303 
L 282.357652 272.926617 
L 287.494591 273.478901 
L 292.63153 274.178641 
L 297.76847 275.07387 
L 302.905409 276.196635 
L 308.042348 277.558902 
L 313.179287 279.150349 
L 318.316226 280.938623 
L 323.453165 282.872311 
L 328.590104 284.886374 
L 333.727043 286.909198 
L 338.863982 288.869868 
L 344.000921 290.704142 
L 349.13786 292.357971 
L 354.274799 293.788169 
L 359.411738 294.961153 
L 364.548677 295.8509 
L 369.685616 296.43748 
L 374.822555 296.70672 
L 379.959494 296.650705 
L 385.096433 296.268398 
L 390.233372 295.565753 
L 395.370311 294.555277 
L 400.50725 293.255589 
L 405.644189 291.691711 
L 410.781128 289.896409 
L 415.918067 287.91214 
L 421.055006 285.7924 
L 426.191945 283.601155 
L 431.328884 281.409533 
L 436.465823 279.290015 
L 441.602762 277.309185 
L 446.739701 275.520586 
L 451.87664 273.959068 
L 457.013579 272.637551 
L 462.150518 271.54649 
L 467.287457 270.655869 
L 472.424396 269.919144 
L 477.561335 269.278444 
L 482.698274 268.670328 
L 487.835213 268.031505 
L 492.972152 267.304119 
L 498.109091 266.440396 
" style="fill:none;stroke:#ff7f0e;stroke-linecap:square;stroke-width:1.5;"/>
   </g>
   <g id="patch_23">
    <path d="M 72 307.5624 
L 72 249.58512 
" style="fill:none;stroke:#000000;stroke-linecap:square;stroke-linejoin:miter;stroke-width:0.8;"/>
   </g>
   <g id="patch_24">
    <path d="M 518.4 307.5624 
L 518.4 249.58512 
" style="fill:none;stroke:#000000;stroke-linecap:square;stroke-linejoin:miter;stroke-width:0.8;"/>
   </g>
   <g id="patch_25">
    <path d="M 72 307.5624 
L 518.4 307.5624 
" style="fill:none;stroke:#000000;stroke-linecap:square;stroke-linejoin:miter;stroke-width:0.8;"/>
   </g>
   <g id="patch_26">
    <path d="M 72 249.58512 
L 518.4 249.58512 
" style="fill:none;stroke:#000000;stroke-linecap:square;stroke-linejoin:miter;stroke-width:0.8;"/>
   </g>
  </g>
  <g id="legend_1">
   <g id="patch_27">
    <path d="M 190.564063 348.52 
L 385.435938 348.52 
Q 387.435938 348.52 387.435938 346.52 
L 387.435938 332.841875 
Q 387.435938 330.841875 385.435938 330.841875 
L 190.564063 330.841875 
Q 188.564063 330.841875 188.564063 332.841875 
L 188.564063 346.52 
Q 188.564063 348.52 190.564063 348.52 
z
" style="fill:#ffffff;opacity:0.8;stroke:#cccccc;stroke-linejoin:miter;"/>
   </g>
   <g id="line2d_76">
    <path d="M 192.564063 338.940313 
L 212.564063 338.940313 
" style="fill:none;stroke:#1f77b4;stroke-linecap:square;stroke-width:1.5;"/>
   </g>
   <g id="line2d_77"/>
   <g id="text_35">
    <!-- Prediction -->
    <defs>
     <path d="M 19.671875 64.796875 
L 19.671875 37.40625 
L 32.078125 37.40625 
Q 38.96875 37.40625 42.71875 40.96875 
Q 46.484375 44.53125 46.484375 51.125 
Q 46.484375 57.671875 42.71875 61.234375 
Q 38.96875 64.796875 32.078125 64.796875 
z
M 9.8125 72.90625 
L 32.078125 72.90625 
Q 44.34375 72.90625 50.609375 67.359375 
Q 56.890625 61.8125 56.890625 51.125 
Q 56.890625 40.328125 50.609375 34.8125 
Q 44.34375 29.296875 32.078125 29.296875 
L 19.671875 29.296875 
L 19.671875 0 
L 9.8125 0 
z
" id="DejaVuSans-50"/>
     <path d="M 41.109375 46.296875 
Q 39.59375 47.171875 37.8125 47.578125 
Q 36.03125 48 33.890625 48 
Q 26.265625 48 22.1875 43.046875 
Q 18.109375 38.09375 18.109375 28.8125 
L 18.109375 0 
L 9.078125 0 
L 9.078125 54.6875 
L 18.109375 54.6875 
L 18.109375 46.1875 
Q 20.953125 51.171875 25.484375 53.578125 
Q 30.03125 56 36.53125 56 
Q 37.453125 56 38.578125 55.875 
Q 39.703125 55.765625 41.0625 55.515625 
z
" id="DejaVuSans-72"/>
     <path d="M 56.203125 29.59375 
L 56.203125 25.203125 
L 14.890625 25.203125 
Q 15.484375 15.921875 20.484375 11.0625 
Q 25.484375 6.203125 34.421875 6.203125 
Q 39.59375 6.203125 44.453125 7.46875 
Q 49.3125 8.734375 54.109375 11.28125 
L 54.109375 2.78125 
Q 49.265625 0.734375 44.1875 -0.34375 
Q 39.109375 -1.421875 33.890625 -1.421875 
Q 20.796875 -1.421875 13.15625 6.1875 
Q 5.515625 13.8125 5.515625 26.8125 
Q 5.515625 40.234375 12.765625 48.109375 
Q 20.015625 56 32.328125 56 
Q 43.359375 56 49.78125 48.890625 
Q 56.203125 41.796875 56.203125 29.59375 
z
M 47.21875 32.234375 
Q 47.125 39.59375 43.09375 43.984375 
Q 39.0625 48.390625 32.421875 48.390625 
Q 24.90625 48.390625 20.390625 44.140625 
Q 15.875 39.890625 15.1875 32.171875 
z
" id="DejaVuSans-65"/>
     <path d="M 45.40625 46.390625 
L 45.40625 75.984375 
L 54.390625 75.984375 
L 54.390625 0 
L 45.40625 0 
L 45.40625 8.203125 
Q 42.578125 3.328125 38.25 0.953125 
Q 33.9375 -1.421875 27.875 -1.421875 
Q 17.96875 -1.421875 11.734375 6.484375 
Q 5.515625 14.40625 5.515625 27.296875 
Q 5.515625 40.1875 11.734375 48.09375 
Q 17.96875 56 27.875 56 
Q 33.9375 56 38.25 53.625 
Q 42.578125 51.265625 45.40625 46.390625 
z
M 14.796875 27.296875 
Q 14.796875 17.390625 18.875 11.75 
Q 22.953125 6.109375 30.078125 6.109375 
Q 37.203125 6.109375 41.296875 11.75 
Q 45.40625 17.390625 45.40625 27.296875 
Q 45.40625 37.203125 41.296875 42.84375 
Q 37.203125 48.484375 30.078125 48.484375 
Q 22.953125 48.484375 18.875 42.84375 
Q 14.796875 37.203125 14.796875 27.296875 
z
" id="DejaVuSans-64"/>
     <path d="M 9.421875 54.6875 
L 18.40625 54.6875 
L 18.40625 0 
L 9.421875 0 
z
M 9.421875 75.984375 
L 18.40625 75.984375 
L 18.40625 64.59375 
L 9.421875 64.59375 
z
" id="DejaVuSans-69"/>
     <path d="M 48.78125 52.59375 
L 48.78125 44.1875 
Q 44.96875 46.296875 41.140625 47.34375 
Q 37.3125 48.390625 33.40625 48.390625 
Q 24.65625 48.390625 19.8125 42.84375 
Q 14.984375 37.3125 14.984375 27.296875 
Q 14.984375 17.28125 19.8125 11.734375 
Q 24.65625 6.203125 33.40625 6.203125 
Q 37.3125 6.203125 41.140625 7.25 
Q 44.96875 8.296875 48.78125 10.40625 
L 48.78125 2.09375 
Q 45.015625 0.34375 40.984375 -0.53125 
Q 36.96875 -1.421875 32.421875 -1.421875 
Q 20.0625 -1.421875 12.78125 6.34375 
Q 5.515625 14.109375 5.515625 27.296875 
Q 5.515625 40.671875 12.859375 48.328125 
Q 20.21875 56 33.015625 56 
Q 37.15625 56 41.109375 55.140625 
Q 45.0625 54.296875 48.78125 52.59375 
z
" id="DejaVuSans-63"/>
     <path d="M 18.3125 70.21875 
L 18.3125 54.6875 
L 36.8125 54.6875 
L 36.8125 47.703125 
L 18.3125 47.703125 
L 18.3125 18.015625 
Q 18.3125 11.328125 20.140625 9.421875 
Q 21.96875 7.515625 27.59375 7.515625 
L 36.8125 7.515625 
L 36.8125 0 
L 27.59375 0 
Q 17.1875 0 13.234375 3.875 
Q 9.28125 7.765625 9.28125 18.015625 
L 9.28125 47.703125 
L 2.6875 47.703125 
L 2.6875 54.6875 
L 9.28125 54.6875 
L 9.28125 70.21875 
z
" id="DejaVuSans-74"/>
     <path d="M 30.609375 48.390625 
Q 23.390625 48.390625 19.1875 42.75 
Q 14.984375 37.109375 14.984375 27.296875 
Q 14.984375 17.484375 19.15625 11.84375 
Q 23.34375 6.203125 30.609375 6.203125 
Q 37.796875 6.203125 41.984375 11.859375 
Q 46.1875 17.53125 46.1875 27.296875 
Q 46.1875 37.015625 41.984375 42.703125 
Q 37.796875 48.390625 30.609375 48.390625 
z
M 30.609375 56 
Q 42.328125 56 49.015625 48.375 
Q 55.71875 40.765625 55.71875 27.296875 
Q 55.71875 13.875 49.015625 6.21875 
Q 42.328125 -1.421875 30.609375 -1.421875 
Q 18.84375 -1.421875 12.171875 6.21875 
Q 5.515625 13.875 5.515625 27.296875 
Q 5.515625 40.765625 12.171875 48.375 
Q 18.84375 56 30.609375 56 
z
" id="DejaVuSans-6f"/>
     <path d="M 54.890625 33.015625 
L 54.890625 0 
L 45.90625 0 
L 45.90625 32.71875 
Q 45.90625 40.484375 42.875 44.328125 
Q 39.84375 48.1875 33.796875 48.1875 
Q 26.515625 48.1875 22.3125 43.546875 
Q 18.109375 38.921875 18.109375 30.90625 
L 18.109375 0 
L 9.078125 0 
L 9.078125 54.6875 
L 18.109375 54.6875 
L 18.109375 46.1875 
Q 21.34375 51.125 25.703125 53.5625 
Q 30.078125 56 35.796875 56 
Q 45.21875 56 50.046875 50.171875 
Q 54.890625 44.34375 54.890625 33.015625 
z
" id="DejaVuSans-6e"/>
    </defs>
    <g transform="translate(220.564063 342.440313)scale(0.1 -0.1)">
     <use xlink:href="#DejaVuSans-50"/>
     <use x="60.287109" xlink:href="#DejaVuSans-72"/>
     <use x="101.369141" xlink:href="#DejaVuSans-65"/>
     <use x="162.892578" xlink:href="#DejaVuSans-64"/>
     <use x="226.369141" xlink:href="#DejaVuSans-69"/>
     <use x="254.152344" xlink:href="#DejaVuSans-63"/>
     <use x="309.132812" xlink:href="#DejaVuSans-74"/>
     <use x="348.341797" xlink:href="#DejaVuSans-69"/>
     <use x="376.125" xlink:href="#DejaVuSans-6f"/>
     <use x="437.306641" xlink:href="#DejaVuSans-6e"/>
    </g>
   </g>
   <g id="line2d_78">
    <path d="M 290.632812 338.940313 
L 310.632812 338.940313 
" style="fill:none;stroke:#ff7f0e;stroke-linecap:square;stroke-width:1.5;"/>
   </g>
   <g id="line2d_79"/>
   <g id="text_36">
    <!-- Ground truth -->
    <defs>
     <path d="M 59.515625 10.40625 
L 59.515625 29.984375 
L 43.40625 29.984375 
L 43.40625 38.09375 
L 69.28125 38.09375 
L 69.28125 6.78125 
Q 63.578125 2.734375 56.6875 0.65625 
Q 49.8125 -1.421875 42 -1.421875 
Q 24.90625 -1.421875 15.25 8.5625 
Q 5.609375 18.5625 5.609375 36.375 
Q 5.609375 54.25 15.25 64.234375 
Q 24.90625 74.21875 42 74.21875 
Q 49.125 74.21875 55.546875 72.453125 
Q 61.96875 70.703125 67.390625 67.28125 
L 67.390625 56.78125 
Q 61.921875 61.421875 55.765625 63.765625 
Q 49.609375 66.109375 42.828125 66.109375 
Q 29.4375 66.109375 22.71875 58.640625 
Q 16.015625 51.171875 16.015625 36.375 
Q 16.015625 21.625 22.71875 14.15625 
Q 29.4375 6.6875 42.828125 6.6875 
Q 48.046875 6.6875 52.140625 7.59375 
Q 56.25 8.5 59.515625 10.40625 
z
" id="DejaVuSans-47"/>
     <path d="M 8.5 21.578125 
L 8.5 54.6875 
L 17.484375 54.6875 
L 17.484375 21.921875 
Q 17.484375 14.15625 20.5 10.265625 
Q 23.53125 6.390625 29.59375 6.390625 
Q 36.859375 6.390625 41.078125 11.03125 
Q 45.3125 15.671875 45.3125 23.6875 
L 45.3125 54.6875 
L 54.296875 54.6875 
L 54.296875 0 
L 45.3125 0 
L 45.3125 8.40625 
Q 42.046875 3.421875 37.71875 1 
Q 33.40625 -1.421875 27.6875 -1.421875 
Q 18.265625 -1.421875 13.375 4.4375 
Q 8.5 10.296875 8.5 21.578125 
z
M 31.109375 56 
z
" id="DejaVuSans-75"/>
     <path id="DejaVuSans-20"/>
     <path d="M 54.890625 33.015625 
L 54.890625 0 
L 45.90625 0 
L 45.90625 32.71875 
Q 45.90625 40.484375 42.875 44.328125 
Q 39.84375 48.1875 33.796875 48.1875 
Q 26.515625 48.1875 22.3125 43.546875 
Q 18.109375 38.921875 18.109375 30.90625 
L 18.109375 0 
L 9.078125 0 
L 9.078125 75.984375 
L 18.109375 75.984375 
L 18.109375 46.1875 
Q 21.34375 51.125 25.703125 53.5625 
Q 30.078125 56 35.796875 56 
Q 45.21875 56 50.046875 50.171875 
Q 54.890625 44.34375 54.890625 33.015625 
z
" id="DejaVuSans-68"/>
    </defs>
    <g transform="translate(318.632812 342.440313)scale(0.1 -0.1)">
     <use xlink:href="#DejaVuSans-47"/>
     <use x="77.490234" xlink:href="#DejaVuSans-72"/>
     <use x="118.572266" xlink:href="#DejaVuSans-6f"/>
     <use x="179.753906" xlink:href="#DejaVuSans-75"/>
     <use x="243.132812" xlink:href="#DejaVuSans-6e"/>
     <use x="306.511719" xlink:href="#DejaVuSans-64"/>
     <use x="369.988281" xlink:href="#DejaVuSans-20"/>
     <use x="401.775391" xlink:href="#DejaVuSans-74"/>
     <use x="440.984375" xlink:href="#DejaVuSans-72"/>
     <use x="482.097656" xlink:href="#DejaVuSans-75"/>
     <use x="545.476562" xlink:href="#DejaVuSans-74"/>
     <use x="584.685547" xlink:href="#DejaVuSans-68"/>
    </g>
   </g>
  </g>
 </g>
 <defs>
  <clipPath id="p867ed6b7b3">
   <rect height="57.97728" width="446.4" x="72" y="17.676"/>
  </clipPath>
  <clipPath id="pf6a714a163">
   <rect height="57.97728" width="446.4" x="72" y="75.65328"/>
  </clipPath>
  <clipPath id="pe54c1a7a3a">
   <rect height="57.97728" width="446.4" x="72" y="133.63056"/>
  </clipPath>
  <clipPath id="pf408d14c24">
   <rect height="57.97728" width="446.4" x="72" y="191.60784"/>
  </clipPath>
  <clipPath id="p39ad31cb74">
   <rect height="57.97728" width="446.4" x="72" y="249.58512"/>
  </clipPath>
 </defs>
</svg>
