<?xml version="1.0" encoding="UTF-8" standalone="no"?>
<svg
   xmlns:dc="http://purl.org/dc/elements/1.1/"
   xmlns:cc="http://creativecommons.org/ns#"
   xmlns:rdf="http://www.w3.org/1999/02/22-rdf-syntax-ns#"
   xmlns:svg="http://www.w3.org/2000/svg"
   xmlns="http://www.w3.org/2000/svg"
   viewBox="0 0 414.66666 421.33334"
   height="421.33334"
   width="414.66666"
   xml:space="preserve"
   id="svg2"
   version="1.1"><metadata
     id="metadata8"><rdf:RDF><cc:Work
         rdf:about=""><dc:format>image/svg+xml</dc:format><dc:type
           rdf:resource="http://purl.org/dc/dcmitype/StillImage" /></cc:Work></rdf:RDF></metadata><defs
     id="defs6"><clipPath
       id="clipPath14"
       clipPathUnits="userSpaceOnUse"><path
         id="path12"
         d="M 0,0 H 842 V 595 H 0 Z" /></clipPath><clipPath
       id="clipPath22"
       clipPathUnits="userSpaceOnUse"><path
         style="clip-rule:evenodd"
         id="path20"
         d="M 0,-0.2 H 841.8 V 595 H 0 Z" /></clipPath></defs><g
     clip-path="url(#clipPath14)"
     transform="matrix(1.3333333,0,0,-1.3333333,-60,733.33333)"
     id="g10"><g
       id="g16"><g
         clip-path="url(#clipPath22)"
         id="g18"><g
           transform="translate(198.5,510)"
           id="g24"><path
             id="path26"
             style="fill:#333333;fill-opacity:1;fill-rule:evenodd;stroke:none"
             d="M 0,0 H -141.8 V 28.3 H 141.7 V 0 Z" /></g><g
           transform="translate(198.5,510)"
           id="g28"><path
             id="path30"
             style="fill:none;stroke:#000000;stroke-width:1.5;stroke-linecap:butt;stroke-linejoin:round;stroke-miterlimit:10;stroke-dasharray:none;stroke-opacity:1"
             d="M 0,0 H -141.8 V 28.3 H 141.7 V 0 Z" /></g><text
           id="text34"
           style="font-variant:normal;font-weight:normal;font-size:18px;font-family:'Courier New';-inkscape-font-specification:CourierNewPSMT;writing-mode:lr-tb;fill:#ffffff;fill-opacity:1;fill-rule:nonzero;stroke:none"
           transform="matrix(1,0,0,-1,64.5,519.5)"><tspan
             id="tspan32"
             y="0"
             x="0 10.8 21.6 32.400002 43.200001 54 64.800003 75.599998 86.400002 97.199997 108 118.8 129.60001 140.39999 151.2 162 172.8 183.60001 194.39999 205.2 216 226.8 237.60001 248.39999">0x1F3F: A=19, B=19, C=19</tspan></text>
<g
           transform="translate(171.5,439.1)"
           id="g36"><path
             id="path38"
             style="fill:#ffffff;fill-opacity:1;fill-rule:evenodd;stroke:none"
             d="M 0,0 H -29.8 V 28.3 H 29.8 V 0 Z" /></g><g
           transform="translate(171.5,439.1)"
           id="g40"><path
             id="path42"
             style="fill:none;stroke:#000000;stroke-width:1.5;stroke-linecap:butt;stroke-linejoin:round;stroke-miterlimit:10;stroke-dasharray:none;stroke-opacity:1"
             d="M 0,0 H -29.8 V 28.3 H 29.8 V 0 Z" /></g><text
           id="text46"
           style="font-variant:normal;font-weight:normal;font-size:13px;font-family:'Courier New';-inkscape-font-specification:CourierNewPSMT;writing-mode:lr-tb;fill:#000000;fill-opacity:1;fill-rule:nonzero;stroke:none"
           transform="matrix(1,0,0,-1,149.5,449.9)"><tspan
             id="tspan44"
             y="0"
             x="0 7.8000002 15.6 23.4">A=19</tspan></text>
<g
           transform="translate(236.7,439.1)"
           id="g48"><path
             id="path50"
             style="fill:#ffffff;fill-opacity:1;fill-rule:evenodd;stroke:none"
             d="M 0,0 H -29.8 V 28.3 H 29.8 V 0 Z" /></g><g
           transform="translate(236.7,439.1)"
           id="g52"><path
             id="path54"
             style="fill:none;stroke:#000000;stroke-width:1.5;stroke-linecap:butt;stroke-linejoin:round;stroke-miterlimit:10;stroke-dasharray:none;stroke-opacity:1"
             d="M 0,0 H -29.8 V 28.3 H 29.8 V 0 Z" /></g><text
           id="text58"
           style="font-variant:normal;font-weight:normal;font-size:14px;font-family:'Courier New';-inkscape-font-specification:CourierNewPSMT;writing-mode:lr-tb;fill:#000000;fill-opacity:1;fill-rule:nonzero;stroke:none"
           transform="matrix(1,0,0,-1,211.5,449.7)"><tspan
             id="tspan56"
             y="0"
             x="0 8.3999996 16.799999 25.200001 33.599998 42">B=0x13</tspan></text>
<g
           transform="translate(301.9,439.1)"
           id="g60"><path
             id="path62"
             style="fill:#ffffff;fill-opacity:1;fill-rule:evenodd;stroke:none"
             d="M 0,0 H -29.8 V 28.3 H 29.8 V 0 Z" /></g><g
           transform="translate(301.9,439.1)"
           id="g64"><path
             id="path66"
             style="fill:none;stroke:#000000;stroke-width:1.5;stroke-linecap:butt;stroke-linejoin:round;stroke-miterlimit:10;stroke-dasharray:none;stroke-opacity:1"
             d="M 0,0 H -29.8 V 28.3 H 29.8 V 0 Z" /></g><text
           id="text70"
           style="font-variant:normal;font-weight:normal;font-size:14px;font-family:'Courier New';-inkscape-font-specification:CourierNewPSMT;writing-mode:lr-tb;fill:#000000;fill-opacity:1;fill-rule:nonzero;stroke:none"
           transform="matrix(1,0,0,-1,276.7,449.7)"><tspan
             id="tspan68"
             y="0"
             x="0 8.3999996 16.799999 25.200001 33.599998 42">C=0x13</tspan></text>
<g
           transform="translate(171.5,382.4)"
           id="g72"><path
             id="path74"
             style="fill:#ffff66;fill-opacity:1;fill-rule:evenodd;stroke:none"
             d="m 0,0 c -2.4,0 -4.3,0.5 -6.4,1.7 -2,1.2 -3.5,2.6 -4.7,4.7 -1.1,2 -1.7,4 -1.7,6.4 0,2.3 0.6,4.3 1.7,6.3 1.2,2.1 2.7,3.5 4.7,4.7 2.1,1.2 4,1.7 6.4,1.7 2.3,0 4.3,-0.5 6.4,-1.7 2,-1.2 3.5,-2.6 4.7,-4.7 1.1,-2 1.7,-4 1.7,-6.3 0,-2.4 -0.6,-4.4 -1.7,-6.4 C 9.9,4.3 8.4,2.9 6.4,1.7 4.3,0.5 2.3,0 0,0 Z" /></g><g
           transform="translate(171.5,382.4)"
           id="g76"><path
             id="path78"
             style="fill:none;stroke:#000000;stroke-width:1.5;stroke-linecap:butt;stroke-linejoin:round;stroke-miterlimit:10;stroke-dasharray:none;stroke-opacity:1"
             d="m 0,0 c -2.4,0 -4.3,0.5 -6.4,1.7 -2,1.2 -3.5,2.6 -4.7,4.7 -1.1,2 -1.7,4 -1.7,6.4 0,2.3 0.6,4.3 1.7,6.3 1.2,2.1 2.7,3.5 4.7,4.7 2.1,1.2 4,1.7 6.4,1.7 2.3,0 4.3,-0.5 6.4,-1.7 2,-1.2 3.5,-2.6 4.7,-4.7 1.1,-2 1.7,-4 1.7,-6.3 0,-2.4 -0.6,-4.4 -1.7,-6.4 C 9.9,4.3 8.4,2.9 6.4,1.7 4.3,0.5 2.3,0 0,0 Z" /></g><text
           id="text82"
           style="font-variant:normal;font-weight:normal;font-size:22px;font-family:Arial;-inkscape-font-specification:ArialMT;writing-mode:lr-tb;fill:#000000;fill-opacity:1;fill-rule:nonzero;stroke:none"
           transform="matrix(1,0,0,-1,165.1,387.7)"><tspan
             id="tspan80"
             y="0"
             x="0">×</tspan></text>
<g
           transform="translate(171.5,439.1)"
           id="g84"><path
             id="path86"
             style="fill:#ffffff;fill-opacity:1;fill-rule:evenodd;stroke:none"
             d="M 0,0 H -29.8 V 28.3 H 29.8 V 0 Z" /></g><g
           transform="translate(171.5,439.1)"
           id="g88"><path
             id="path90"
             style="fill:none;stroke:#000000;stroke-width:1.5;stroke-linecap:butt;stroke-linejoin:round;stroke-miterlimit:10;stroke-dasharray:none;stroke-opacity:1"
             d="M 0,0 H -29.8 V 28.3 H 29.8 V 0 Z" /></g><text
           id="text94"
           style="font-variant:normal;font-weight:normal;font-size:14px;font-family:'Courier New';-inkscape-font-specification:CourierNewPSMT;writing-mode:lr-tb;fill:#000000;fill-opacity:1;fill-rule:nonzero;stroke:none"
           transform="matrix(1,0,0,-1,146.3,449.7)"><tspan
             id="tspan92"
             y="0"
             x="0 8.3999996 16.799999 25.200001 33.599998 42">A=0x13</tspan></text>
<g
           transform="translate(236.7,382.4)"
           id="g96"><path
             id="path98"
             style="fill:#ffff66;fill-opacity:1;fill-rule:evenodd;stroke:none"
             d="m 0,0 c -2.4,0 -4.3,0.5 -6.4,1.7 -2,1.2 -3.5,2.6 -4.7,4.7 -1.1,2 -1.7,4 -1.7,6.4 0,2.3 0.6,4.3 1.7,6.3 1.2,2.1 2.7,3.5 4.7,4.7 2.1,1.2 4,1.7 6.4,1.7 2.3,0 4.3,-0.5 6.4,-1.7 2,-1.2 3.5,-2.6 4.6,-4.7 1.2,-2 1.7,-4 1.7,-6.3 C 12.7,10.4 12.2,8.4 11,6.4 9.9,4.3 8.4,2.9 6.4,1.7 4.3,0.5 2.3,0 0,0 Z" /></g><g
           transform="translate(236.7,382.4)"
           id="g100"><path
             id="path102"
             style="fill:none;stroke:#000000;stroke-width:1.5;stroke-linecap:butt;stroke-linejoin:round;stroke-miterlimit:10;stroke-dasharray:none;stroke-opacity:1"
             d="m 0,0 c -2.4,0 -4.3,0.5 -6.4,1.7 -2,1.2 -3.5,2.6 -4.7,4.7 -1.1,2 -1.7,4 -1.7,6.4 0,2.3 0.6,4.3 1.7,6.3 1.2,2.1 2.7,3.5 4.7,4.7 2.1,1.2 4,1.7 6.4,1.7 2.3,0 4.3,-0.5 6.4,-1.7 2,-1.2 3.5,-2.6 4.6,-4.7 1.2,-2 1.7,-4 1.7,-6.3 C 12.7,10.4 12.2,8.4 11,6.4 9.9,4.3 8.4,2.9 6.4,1.7 4.3,0.5 2.3,0 0,0 Z" /></g><text
           id="text106"
           style="font-variant:normal;font-weight:normal;font-size:22px;font-family:Arial;-inkscape-font-specification:ArialMT;writing-mode:lr-tb;fill:#000000;fill-opacity:1;fill-rule:nonzero;stroke:none"
           transform="matrix(1,0,0,-1,230.3,387.7)"><tspan
             id="tspan104"
             y="0"
             x="0">×</tspan></text>
<g
           transform="translate(301.9,382.4)"
           id="g108"><path
             id="path110"
             style="fill:#ffff66;fill-opacity:1;fill-rule:evenodd;stroke:none"
             d="m 0,0 c -2.4,0 -4.3,0.5 -6.4,1.7 -2,1.2 -3.5,2.6 -4.7,4.7 -1.1,2 -1.7,4 -1.7,6.4 0,2.3 0.6,4.3 1.7,6.3 1.2,2.1 2.7,3.5 4.7,4.7 2.1,1.2 4,1.7 6.4,1.7 2.3,0 4.3,-0.5 6.4,-1.7 2,-1.2 3.5,-2.6 4.6,-4.7 1.2,-2 1.7,-4 1.7,-6.3 C 12.7,10.4 12.2,8.4 11,6.4 9.9,4.3 8.4,2.9 6.4,1.7 4.3,0.5 2.3,0 0,0 Z" /></g><g
           transform="translate(301.9,382.4)"
           id="g112"><path
             id="path114"
             style="fill:none;stroke:#000000;stroke-width:1.5;stroke-linecap:butt;stroke-linejoin:round;stroke-miterlimit:10;stroke-dasharray:none;stroke-opacity:1"
             d="m 0,0 c -2.4,0 -4.3,0.5 -6.4,1.7 -2,1.2 -3.5,2.6 -4.7,4.7 -1.1,2 -1.7,4 -1.7,6.4 0,2.3 0.6,4.3 1.7,6.3 1.2,2.1 2.7,3.5 4.7,4.7 2.1,1.2 4,1.7 6.4,1.7 2.3,0 4.3,-0.5 6.4,-1.7 2,-1.2 3.5,-2.6 4.6,-4.7 1.2,-2 1.7,-4 1.7,-6.3 C 12.7,10.4 12.2,8.4 11,6.4 9.9,4.3 8.4,2.9 6.4,1.7 4.3,0.5 2.3,0 0,0 Z" /></g><text
           id="text118"
           style="font-variant:normal;font-weight:normal;font-size:22px;font-family:Arial;-inkscape-font-specification:ArialMT;writing-mode:lr-tb;fill:#000000;fill-opacity:1;fill-rule:nonzero;stroke:none"
           transform="matrix(1,0,0,-1,295.5,387.7)"><tspan
             id="tspan116"
             y="0"
             x="0">×</tspan></text>
<g
           transform="translate(235.3,249.2)"
           id="g120"><path
             id="path122"
             style="fill:#ffff66;fill-opacity:1;fill-rule:evenodd;stroke:none"
             d="m 0,0 c -3.7,0 -6.8,0.8 -9.9,2.6 -3.2,1.9 -5.5,4.1 -7.3,7.3 -1.8,3.2 -2.7,6.3 -2.7,9.9 0,3.7 0.9,6.8 2.7,9.9 1.8,3.2 4.1,5.5 7.3,7.3 3.1,1.8 6.2,2.7 9.9,2.7 3.6,0 6.7,-0.9 9.9,-2.7 3.2,-1.8 5.4,-4.1 7.3,-7.3 1.8,-3.1 2.6,-6.2 2.6,-9.9 C 19.8,16.2 19,13.1 17.2,9.9 15.3,6.7 13.1,4.5 9.9,2.6 6.7,0.8 3.6,0 0,0 Z" /></g><g
           transform="translate(235.3,249.2)"
           id="g124"><path
             id="path126"
             style="fill:none;stroke:#000000;stroke-width:1.5;stroke-linecap:butt;stroke-linejoin:round;stroke-miterlimit:10;stroke-dasharray:none;stroke-opacity:1"
             d="m 0,0 c -3.7,0 -6.8,0.8 -9.9,2.6 -3.2,1.9 -5.5,4.1 -7.3,7.3 -1.8,3.2 -2.7,6.3 -2.7,9.9 0,3.7 0.9,6.8 2.7,9.9 1.8,3.2 4.1,5.5 7.3,7.3 3.1,1.8 6.2,2.7 9.9,2.7 3.6,0 6.7,-0.9 9.9,-2.7 3.2,-1.8 5.4,-4.1 7.3,-7.3 1.8,-3.1 2.6,-6.2 2.6,-9.9 C 19.8,16.2 19,13.1 17.2,9.9 15.3,6.7 13.1,4.5 9.9,2.6 6.7,0.8 3.6,0 0,0 Z" /></g><text
           id="text130"
           style="font-variant:normal;font-weight:normal;font-size:22px;font-family:MicrosoftYaHei;-inkscape-font-specification:MicrosoftYaHei;writing-mode:lr-tb;fill:#000000;fill-opacity:1;fill-rule:nonzero;stroke:none"
           transform="matrix(1,0,0,-1,228,260.5)"><tspan
             id="tspan128"
             y="0"
             x="0">∑</tspan></text>
<g
           transform="translate(97.8,254.8)"
           id="g132"><path
             id="path134"
             style="fill:#ffffff;fill-opacity:1;fill-rule:evenodd;stroke:none"
             d="M 0,0 H -35.4 V 28.4 H 35.4 V 0 Z" /></g><g
           transform="translate(97.8,254.8)"
           id="g136"><path
             id="path138"
             style="fill:none;stroke:#000000;stroke-width:1.5;stroke-linecap:butt;stroke-linejoin:round;stroke-miterlimit:10;stroke-dasharray:none;stroke-opacity:1"
             d="M 0,0 H -35.4 V 28.4 H 35.4 V 0 Z" /></g><text
           id="text142"
           style="font-variant:normal;font-weight:normal;font-size:16px;font-family:'Courier New';-inkscape-font-specification:CourierNewPSMT;writing-mode:lr-tb;fill:#000000;fill-opacity:1;fill-rule:nonzero;stroke:none"
           transform="matrix(1,0,0,-1,69,264.7)"><tspan
             id="tspan140"
             y="0"
             x="0 9.6000004 19.200001 28.799999 38.400002 48">0x1F3F</tspan></text>
<g
           transform="translate(171.5,439.1)"
           id="g144"><path
             id="path146"
             style="fill:none;stroke:#ffffff;stroke-width:2.29200006;stroke-linecap:butt;stroke-linejoin:round;stroke-miterlimit:10;stroke-dasharray:none;stroke-opacity:1"
             d="M 0,0 V -14.1" /></g><g
           transform="translate(171.5,407.9)"
           id="g148"><path
             id="path150"
             style="fill:#ffffff;fill-opacity:1;fill-rule:evenodd;stroke:none"
             d="M 0,0 6,17.9 H -6 Z" /></g><g
           transform="translate(236.7,439.1)"
           id="g152"><path
             id="path154"
             style="fill:none;stroke:#ffffff;stroke-width:2.29200006;stroke-linecap:butt;stroke-linejoin:round;stroke-miterlimit:10;stroke-dasharray:none;stroke-opacity:1"
             d="M 0,0 V -14.1" /></g><g
           transform="translate(236.7,407.9)"
           id="g156"><path
             id="path158"
             style="fill:#ffffff;fill-opacity:1;fill-rule:evenodd;stroke:none"
             d="M 0,0 5.9,17.9 H -6 Z" /></g><g
           transform="translate(301.9,354.1)"
           id="g160"><path
             id="path162"
             style="fill:none;stroke:#ffffff;stroke-width:2.29200006;stroke-linecap:butt;stroke-linejoin:round;stroke-miterlimit:10;stroke-dasharray:none;stroke-opacity:1"
             d="M 0,0 V 11.2" /></g><g
           transform="translate(301.9,382.4)"
           id="g164"><path
             id="path166"
             style="fill:#ffffff;fill-opacity:1;fill-rule:evenodd;stroke:none"
             d="M 0,0 -6,-17.9 H 5.9 Z" /></g><g
           transform="translate(301.9,439.1)"
           id="g168"><path
             id="path170"
             style="fill:none;stroke:#ffffff;stroke-width:2.29200006;stroke-linecap:butt;stroke-linejoin:round;stroke-miterlimit:10;stroke-dasharray:none;stroke-opacity:1"
             d="M 0,0 V -14.1" /></g><g
           transform="translate(301.9,407.9)"
           id="g172"><path
             id="path174"
             style="fill:#ffffff;fill-opacity:1;fill-rule:evenodd;stroke:none"
             d="M 0,0 5.9,17.9 H -6 Z" /></g><g
           transform="translate(236.7,354.1)"
           id="g176"><path
             id="path178"
             style="fill:none;stroke:#ffffff;stroke-width:2.29200006;stroke-linecap:butt;stroke-linejoin:round;stroke-miterlimit:10;stroke-dasharray:none;stroke-opacity:1"
             d="M 0,0 V 11.2" /></g><g
           transform="translate(236.7,382.4)"
           id="g180"><path
             id="path182"
             style="fill:#ffffff;fill-opacity:1;fill-rule:evenodd;stroke:none"
             d="M 0,0 -6,-17.9 H 5.9 Z" /></g><g
           transform="translate(171.5,354.1)"
           id="g184"><path
             id="path186"
             style="fill:none;stroke:#ffffff;stroke-width:2.29200006;stroke-linecap:butt;stroke-linejoin:round;stroke-miterlimit:10;stroke-dasharray:none;stroke-opacity:1"
             d="M 0,0 V 11.2" /></g><g
           transform="translate(171.5,382.4)"
           id="g188"><path
             id="path190"
             style="fill:#ffffff;fill-opacity:1;fill-rule:evenodd;stroke:none"
             d="M 0,0 -6,-17.9 H 6 Z" /></g><g
           transform="translate(314.6,395.2)"
           id="g192"><path
             id="path194"
             style="fill:none;stroke:#ffffff;stroke-width:1.5;stroke-linecap:butt;stroke-linejoin:round;stroke-miterlimit:10;stroke-dasharray:none;stroke-opacity:1"
             d="M 0,0 H 25.6 V -126.2 H -44.1" /></g><g
           transform="translate(255.1,269)"
           id="g196"><path
             id="path198"
             style="fill:#ffffff;fill-opacity:1;fill-rule:evenodd;stroke:none"
             d="M 0,0 16.1,-5.4 V 5.4 Z" /></g><g
           transform="translate(249.4,395.2)"
           id="g200"><path
             id="path202"
             style="fill:none;stroke:#ffffff;stroke-width:1.5;stroke-linecap:butt;stroke-linejoin:round;stroke-miterlimit:10;stroke-dasharray:none;stroke-opacity:1"
             d="M 0,0 H 19.9 V -94.6 H 90.8" /></g><g
           transform="translate(184.3,395.2)"
           id="g204"><path
             id="path206"
             style="fill:none;stroke:#ffffff;stroke-width:1.5;stroke-linecap:butt;stroke-linejoin:round;stroke-miterlimit:10;stroke-dasharray:none;stroke-opacity:1"
             d="M 0,0 H 19.8 V -94.6 H 155.9" /></g><g
           transform="translate(171.5,325.7)"
           id="g208"><path
             id="path210"
             style="fill:#ffffff;fill-opacity:1;fill-rule:evenodd;stroke:none"
             d="M 0,0 H -29.8 V 28.4 H 29.8 V 0 Z" /></g><g
           transform="translate(171.5,325.7)"
           id="g212"><path
             id="path214"
             style="fill:none;stroke:#000000;stroke-width:1.5;stroke-linecap:butt;stroke-linejoin:round;stroke-miterlimit:10;stroke-dasharray:none;stroke-opacity:1"
             d="M 0,0 H -29.8 V 28.4 H 29.8 V 0 Z" /></g><text
           id="text218"
           style="font-variant:normal;font-weight:normal;font-size:13px;font-family:'Courier New';-inkscape-font-specification:CourierNewPSMT;writing-mode:lr-tb;fill:#000000;fill-opacity:1;fill-rule:nonzero;stroke:none"
           transform="matrix(1,0,0,-1,145.8,336.5)"><tspan
             id="tspan216"
             y="0"
             x="0 7.8000002 15.6 23.4 31.200001 39">(0x14)</tspan></text>
<text
           id="text222"
           style="font-variant:normal;font-weight:normal;font-size:7.5px;font-family:'Courier New';-inkscape-font-specification:CourierNewPSMT;writing-mode:lr-tb;fill:#000000;fill-opacity:1;fill-rule:nonzero;stroke:none"
           transform="matrix(1,0,0,-1,192.6,340.8)"><tspan
             id="tspan220"
             y="0"
             x="0">2</tspan></text>
<g
           transform="translate(236.7,325.7)"
           id="g224"><path
             id="path226"
             style="fill:#ffffff;fill-opacity:1;fill-rule:evenodd;stroke:none"
             d="M 0,0 H -29.8 V 28.4 H 29.8 V 0 Z" /></g><g
           transform="translate(236.7,325.7)"
           id="g228"><path
             id="path230"
             style="fill:none;stroke:#000000;stroke-width:1.5;stroke-linecap:butt;stroke-linejoin:round;stroke-miterlimit:10;stroke-dasharray:none;stroke-opacity:1"
             d="M 0,0 H -29.8 V 28.4 H 29.8 V 0 Z" /></g><text
           id="text234"
           style="font-variant:normal;font-weight:normal;font-size:13px;font-family:'Courier New';-inkscape-font-specification:CourierNewPSMT;writing-mode:lr-tb;fill:#000000;fill-opacity:1;fill-rule:nonzero;stroke:none"
           transform="matrix(1,0,0,-1,211,336.5)"><tspan
             id="tspan232"
             y="0"
             x="0 7.8000002 15.6 23.4 31.200001 39">(0x14)</tspan></text>
<text
           id="text238"
           style="font-variant:normal;font-weight:normal;font-size:7.5px;font-family:'Courier New';-inkscape-font-specification:CourierNewPSMT;writing-mode:lr-tb;fill:#000000;fill-opacity:1;fill-rule:nonzero;stroke:none"
           transform="matrix(1,0,0,-1,257.8,340.8)"><tspan
             id="tspan236"
             y="0"
             x="0">1</tspan></text>
<g
           transform="translate(301.9,325.7)"
           id="g240"><path
             id="path242"
             style="fill:#ffffff;fill-opacity:1;fill-rule:evenodd;stroke:none"
             d="M 0,0 H -29.8 V 28.4 H 29.8 V 0 Z" /></g><g
           transform="translate(301.9,325.7)"
           id="g244"><path
             id="path246"
             style="fill:none;stroke:#000000;stroke-width:1.5;stroke-linecap:butt;stroke-linejoin:round;stroke-miterlimit:10;stroke-dasharray:none;stroke-opacity:1"
             d="M 0,0 H -29.8 V 28.4 H 29.8 V 0 Z" /></g><text
           id="text250"
           style="font-variant:normal;font-weight:normal;font-size:13px;font-family:'Courier New';-inkscape-font-specification:CourierNewPSMT;writing-mode:lr-tb;fill:#000000;fill-opacity:1;fill-rule:nonzero;stroke:none"
           transform="matrix(1,0,0,-1,276.2,336.5)"><tspan
             id="tspan248"
             y="0"
             x="0 7.8000002 15.6 23.4 31.200001 39">(0x14)</tspan></text>
<text
           id="text254"
           style="font-variant:normal;font-weight:normal;font-size:7.5px;font-family:'Courier New';-inkscape-font-specification:CourierNewPSMT;writing-mode:lr-tb;fill:#000000;fill-opacity:1;fill-rule:nonzero;stroke:none"
           transform="matrix(1,0,0,-1,323,340.8)"><tspan
             id="tspan252"
             y="0"
             x="0">0</tspan></text>
<g
           transform="translate(215.4,269)"
           id="g256"><path
             id="path258"
             style="fill:none;stroke:#ffffff;stroke-width:2.29200006;stroke-linecap:butt;stroke-linejoin:round;stroke-miterlimit:10;stroke-dasharray:none;stroke-opacity:1"
             d="M 0,0 H -65.1" /></g><g
           transform="translate(133.2,269)"
           id="g260"><path
             id="path262"
             style="fill:#ffffff;fill-opacity:1;fill-rule:evenodd;stroke:none"
             d="M 0,0 17.9,-6 V 6 Z" /></g><g
           transform="translate(99.1,494.6)"
           id="g264"><path
             id="path266"
             style="fill:none;stroke:#ffffff;stroke-width:1.5;stroke-linecap:butt;stroke-linejoin:round;stroke-miterlimit:10;stroke-dasharray:none;stroke-opacity:1"
             d="M 0,0 -1.2,-196" /></g><g
           transform="translate(99.2,510)"
           id="g268"><path
             id="path270"
             style="fill:#ffffff;fill-opacity:1;fill-rule:evenodd;stroke:none"
             d="M 0,0 -5.5,-16.1 5.3,-16.2 Z" /></g><g
           transform="translate(97.8,283.2)"
           id="g272"><path
             id="path274"
             style="fill:#ffffff;fill-opacity:1;fill-rule:evenodd;stroke:none"
             d="M 0,0 5.5,16.1 H -5.3 Z" /></g><g
           transform="translate(171.1,494.6)"
           id="g276"><path
             id="path278"
             style="fill:none;stroke:#ffffff;stroke-width:1.5;stroke-linecap:butt;stroke-linejoin:round;stroke-miterlimit:10;stroke-dasharray:none;stroke-opacity:1"
             d="M 0,0 0.1,-11.8" /></g><g
           transform="translate(170.8,510)"
           id="g280"><path
             id="path282"
             style="fill:#ffffff;fill-opacity:1;fill-rule:evenodd;stroke:none"
             d="m 0,0 -5.1,-16.2 10.8,0.1 z" /></g><g
           transform="translate(171.5,467.4)"
           id="g284"><path
             id="path286"
             style="fill:#ffffff;fill-opacity:1;fill-rule:evenodd;stroke:none"
             d="M 0,0 5.1,16.2 -5.6,16.1 Z" /></g><g
           transform="translate(236.6,494.6)"
           id="g288"><path
             id="path290"
             style="fill:none;stroke:#ffffff;stroke-width:1.5;stroke-linecap:butt;stroke-linejoin:round;stroke-miterlimit:10;stroke-dasharray:none;stroke-opacity:1"
             d="M 0,0 V -11.8" /></g><g
           transform="translate(236.6,510)"
           id="g292"><path
             id="path294"
             style="fill:#ffffff;fill-opacity:1;fill-rule:evenodd;stroke:none"
             d="m 0,0 -5.3,-16.2 10.7,0.1 z" /></g><g
           transform="translate(236.7,467.4)"
           id="g296"><path
             id="path298"
             style="fill:#ffffff;fill-opacity:1;fill-rule:evenodd;stroke:none"
             d="M 0,0 5.3,16.2 -5.4,16.1 Z" /></g><g
           transform="translate(301.8,494.6)"
           id="g300"><path
             id="path302"
             style="fill:none;stroke:#ffffff;stroke-width:1.5;stroke-linecap:butt;stroke-linejoin:round;stroke-miterlimit:10;stroke-dasharray:none;stroke-opacity:1"
             d="M 0,0 V -11.8" /></g><g
           transform="translate(301.8,510)"
           id="g304"><path
             id="path306"
             style="fill:#ffffff;fill-opacity:1;fill-rule:evenodd;stroke:none"
             d="m 0,0 -5.4,-16.2 10.8,0.1 z" /></g><g
           transform="translate(301.9,467.4)"
           id="g308"><path
             id="path310"
             style="fill:#ffffff;fill-opacity:1;fill-rule:evenodd;stroke:none"
             d="M 0,0 5.3,16.2 -5.5,16.1 Z" /></g></g></g></g></svg>