<?xml version="1.0" encoding="utf-8" standalone="no"?>
<!DOCTYPE svg PUBLIC "-//W3C//DTD SVG 1.1//EN"
  "http://www.w3.org/Graphics/SVG/1.1/DTD/svg11.dtd">
<!-- Created with matplotlib (http://matplotlib.org/) -->
<svg height="357pt" version="1.1" viewBox="0 0 576 357" width="576pt" xmlns="http://www.w3.org/2000/svg" xmlns:xlink="http://www.w3.org/1999/xlink">
 <defs>
  <style type="text/css">
*{stroke-linecap:butt;stroke-linejoin:round;}
  </style>
 </defs>
 <g id="figure_1">
  <g id="patch_1">
   <path d="M 0 357.84 
L 576 357.84 
L 576 0 
L 0 0 
z
" style="fill:#ffffff;"/>
  </g>
  <g id="axes_1">
   <g id="patch_2">
    <path d="M 72 76.57776 
L 518.4 76.57776 
L 518.4 17.892 
L 72 17.892 
z
" style="fill:#ffffff;"/>
   </g>
   <g id="matplotlib.axis_1">
    <g id="xtick_1">
     <g id="line2d_1">
      <defs>
       <path d="M 0 0 
L 0 3.5 
" id="mc616c5cb65" style="stroke:#000000;stroke-width:0.8;"/>
      </defs>
      <g>
       <use style="stroke:#000000;stroke-width:0.8;" x="92.290909" xlink:href="#mc616c5cb65" y="76.57776"/>
      </g>
     </g>
    </g>
    <g id="xtick_2">
     <g id="line2d_2">
      <g>
       <use style="stroke:#000000;stroke-width:0.8;" x="143.660299" xlink:href="#mc616c5cb65" y="76.57776"/>
      </g>
     </g>
    </g>
    <g id="xtick_3">
     <g id="line2d_3">
      <g>
       <use style="stroke:#000000;stroke-width:0.8;" x="195.029689" xlink:href="#mc616c5cb65" y="76.57776"/>
      </g>
     </g>
    </g>
    <g id="xtick_4">
     <g id="line2d_4">
      <g>
       <use style="stroke:#000000;stroke-width:0.8;" x="246.399079" xlink:href="#mc616c5cb65" y="76.57776"/>
      </g>
     </g>
    </g>
    <g id="xtick_5">
     <g id="line2d_5">
      <g>
       <use style="stroke:#000000;stroke-width:0.8;" x="297.76847" xlink:href="#mc616c5cb65" y="76.57776"/>
      </g>
     </g>
    </g>
    <g id="xtick_6">
     <g id="line2d_6">
      <g>
       <use style="stroke:#000000;stroke-width:0.8;" x="349.13786" xlink:href="#mc616c5cb65" y="76.57776"/>
      </g>
     </g>
    </g>
    <g id="xtick_7">
     <g id="line2d_7">
      <g>
       <use style="stroke:#000000;stroke-width:0.8;" x="400.50725" xlink:href="#mc616c5cb65" y="76.57776"/>
      </g>
     </g>
    </g>
    <g id="xtick_8">
     <g id="line2d_8">
      <g>
       <use style="stroke:#000000;stroke-width:0.8;" x="451.87664" xlink:href="#mc616c5cb65" y="76.57776"/>
      </g>
     </g>
    </g>
    <g id="xtick_9">
     <g id="line2d_9">
      <g>
       <use style="stroke:#000000;stroke-width:0.8;" x="503.24603" xlink:href="#mc616c5cb65" y="76.57776"/>
      </g>
     </g>
    </g>
   </g>
   <g id="matplotlib.axis_2">
    <g id="ytick_1">
     <g id="line2d_10">
      <defs>
       <path d="M 0 0 
L -3.5 0 
" id="m8169841db5" style="stroke:#000000;stroke-width:0.8;"/>
      </defs>
      <g>
       <use style="stroke:#000000;stroke-width:0.8;" x="72" xlink:href="#m8169841db5" y="69.806326"/>
      </g>
     </g>
     <g id="text_1">
      <!-- -0.71 -->
      <defs>
       <path d="M 4.890625 31.390625 
L 31.203125 31.390625 
L 31.203125 23.390625 
L 4.890625 23.390625 
z
" id="DejaVuSans-2d"/>
       <path d="M 31.78125 66.40625 
Q 24.171875 66.40625 20.328125 58.90625 
Q 16.5 51.421875 16.5 36.375 
Q 16.5 21.390625 20.328125 13.890625 
Q 24.171875 6.390625 31.78125 6.390625 
Q 39.453125 6.390625 43.28125 13.890625 
Q 47.125 21.390625 47.125 36.375 
Q 47.125 51.421875 43.28125 58.90625 
Q 39.453125 66.40625 31.78125 66.40625 
z
M 31.78125 74.21875 
Q 44.046875 74.21875 50.515625 64.515625 
Q 56.984375 54.828125 56.984375 36.375 
Q 56.984375 17.96875 50.515625 8.265625 
Q 44.046875 -1.421875 31.78125 -1.421875 
Q 19.53125 -1.421875 13.0625 8.265625 
Q 6.59375 17.96875 6.59375 36.375 
Q 6.59375 54.828125 13.0625 64.515625 
Q 19.53125 74.21875 31.78125 74.21875 
z
" id="DejaVuSans-30"/>
       <path d="M 10.6875 12.40625 
L 21 12.40625 
L 21 0 
L 10.6875 0 
z
" id="DejaVuSans-2e"/>
       <path d="M 8.203125 72.90625 
L 55.078125 72.90625 
L 55.078125 68.703125 
L 28.609375 0 
L 18.3125 0 
L 43.21875 64.59375 
L 8.203125 64.59375 
z
" id="DejaVuSans-37"/>
       <path d="M 12.40625 8.296875 
L 28.515625 8.296875 
L 28.515625 63.921875 
L 10.984375 60.40625 
L 10.984375 69.390625 
L 28.421875 72.90625 
L 38.28125 72.90625 
L 38.28125 8.296875 
L 54.390625 8.296875 
L 54.390625 0 
L 12.40625 0 
z
" id="DejaVuSans-31"/>
      </defs>
      <g transform="translate(39.126562 73.605545)scale(0.1 -0.1)">
       <use xlink:href="#DejaVuSans-2d"/>
       <use x="36.083984" xlink:href="#DejaVuSans-30"/>
       <use x="99.707031" xlink:href="#DejaVuSans-2e"/>
       <use x="131.494141" xlink:href="#DejaVuSans-37"/>
       <use x="195.117188" xlink:href="#DejaVuSans-31"/>
      </g>
     </g>
    </g>
    <g id="ytick_2">
     <g id="line2d_11">
      <g>
       <use style="stroke:#000000;stroke-width:0.8;" x="72" xlink:href="#m8169841db5" y="54.758695"/>
      </g>
     </g>
     <g id="text_2">
      <!-- -0.51 -->
      <defs>
       <path d="M 10.796875 72.90625 
L 49.515625 72.90625 
L 49.515625 64.59375 
L 19.828125 64.59375 
L 19.828125 46.734375 
Q 21.96875 47.46875 24.109375 47.828125 
Q 26.265625 48.1875 28.421875 48.1875 
Q 40.625 48.1875 47.75 41.5 
Q 54.890625 34.8125 54.890625 23.390625 
Q 54.890625 11.625 47.5625 5.09375 
Q 40.234375 -1.421875 26.90625 -1.421875 
Q 22.3125 -1.421875 17.546875 -0.640625 
Q 12.796875 0.140625 7.71875 1.703125 
L 7.71875 11.625 
Q 12.109375 9.234375 16.796875 8.0625 
Q 21.484375 6.890625 26.703125 6.890625 
Q 35.15625 6.890625 40.078125 11.328125 
Q 45.015625 15.765625 45.015625 23.390625 
Q 45.015625 31 40.078125 35.4375 
Q 35.15625 39.890625 26.703125 39.890625 
Q 22.75 39.890625 18.8125 39.015625 
Q 14.890625 38.140625 10.796875 36.28125 
z
" id="DejaVuSans-35"/>
      </defs>
      <g transform="translate(39.126562 58.557914)scale(0.1 -0.1)">
       <use xlink:href="#DejaVuSans-2d"/>
       <use x="36.083984" xlink:href="#DejaVuSans-30"/>
       <use x="99.707031" xlink:href="#DejaVuSans-2e"/>
       <use x="131.494141" xlink:href="#DejaVuSans-35"/>
       <use x="195.117188" xlink:href="#DejaVuSans-31"/>
      </g>
     </g>
    </g>
    <g id="ytick_3">
     <g id="line2d_12">
      <g>
       <use style="stroke:#000000;stroke-width:0.8;" x="72" xlink:href="#m8169841db5" y="39.711065"/>
      </g>
     </g>
     <g id="text_3">
      <!-- -0.32 -->
      <defs>
       <path d="M 40.578125 39.3125 
Q 47.65625 37.796875 51.625 33 
Q 55.609375 28.21875 55.609375 21.1875 
Q 55.609375 10.40625 48.1875 4.484375 
Q 40.765625 -1.421875 27.09375 -1.421875 
Q 22.515625 -1.421875 17.65625 -0.515625 
Q 12.796875 0.390625 7.625 2.203125 
L 7.625 11.71875 
Q 11.71875 9.328125 16.59375 8.109375 
Q 21.484375 6.890625 26.8125 6.890625 
Q 36.078125 6.890625 40.9375 10.546875 
Q 45.796875 14.203125 45.796875 21.1875 
Q 45.796875 27.640625 41.28125 31.265625 
Q 36.765625 34.90625 28.71875 34.90625 
L 20.21875 34.90625 
L 20.21875 43.015625 
L 29.109375 43.015625 
Q 36.375 43.015625 40.234375 45.921875 
Q 44.09375 48.828125 44.09375 54.296875 
Q 44.09375 59.90625 40.109375 62.90625 
Q 36.140625 65.921875 28.71875 65.921875 
Q 24.65625 65.921875 20.015625 65.03125 
Q 15.375 64.15625 9.8125 62.3125 
L 9.8125 71.09375 
Q 15.4375 72.65625 20.34375 73.4375 
Q 25.25 74.21875 29.59375 74.21875 
Q 40.828125 74.21875 47.359375 69.109375 
Q 53.90625 64.015625 53.90625 55.328125 
Q 53.90625 49.265625 50.4375 45.09375 
Q 46.96875 40.921875 40.578125 39.3125 
z
" id="DejaVuSans-33"/>
       <path d="M 19.1875 8.296875 
L 53.609375 8.296875 
L 53.609375 0 
L 7.328125 0 
L 7.328125 8.296875 
Q 12.9375 14.109375 22.625 23.890625 
Q 32.328125 33.6875 34.8125 36.53125 
Q 39.546875 41.84375 41.421875 45.53125 
Q 43.3125 49.21875 43.3125 52.78125 
Q 43.3125 58.59375 39.234375 62.25 
Q 35.15625 65.921875 28.609375 65.921875 
Q 23.96875 65.921875 18.8125 64.3125 
Q 13.671875 62.703125 7.8125 59.421875 
L 7.8125 69.390625 
Q 13.765625 71.78125 18.9375 73 
Q 24.125 74.21875 28.421875 74.21875 
Q 39.75 74.21875 46.484375 68.546875 
Q 53.21875 62.890625 53.21875 53.421875 
Q 53.21875 48.921875 51.53125 44.890625 
Q 49.859375 40.875 45.40625 35.40625 
Q 44.1875 33.984375 37.640625 27.21875 
Q 31.109375 20.453125 19.1875 8.296875 
z
" id="DejaVuSans-32"/>
      </defs>
      <g transform="translate(39.126562 43.510283)scale(0.1 -0.1)">
       <use xlink:href="#DejaVuSans-2d"/>
       <use x="36.083984" xlink:href="#DejaVuSans-30"/>
       <use x="99.707031" xlink:href="#DejaVuSans-2e"/>
       <use x="131.494141" xlink:href="#DejaVuSans-33"/>
       <use x="195.117188" xlink:href="#DejaVuSans-32"/>
      </g>
     </g>
    </g>
    <g id="ytick_4">
     <g id="line2d_13">
      <g>
       <use style="stroke:#000000;stroke-width:0.8;" x="72" xlink:href="#m8169841db5" y="24.663434"/>
      </g>
     </g>
     <g id="text_4">
      <!-- -0.13 -->
      <g transform="translate(39.126562 28.462653)scale(0.1 -0.1)">
       <use xlink:href="#DejaVuSans-2d"/>
       <use x="36.083984" xlink:href="#DejaVuSans-30"/>
       <use x="99.707031" xlink:href="#DejaVuSans-2e"/>
       <use x="131.494141" xlink:href="#DejaVuSans-31"/>
       <use x="195.117188" xlink:href="#DejaVuSans-33"/>
      </g>
     </g>
    </g>
    <g id="text_5">
     <!-- $s_{1}$ -->
     <defs>
      <path d="M 50 53.078125 
L 48.296875 44.578125 
Q 44.734375 46.53125 40.765625 47.5 
Q 36.8125 48.484375 32.625 48.484375 
Q 25.53125 48.484375 21.453125 46.0625 
Q 17.390625 43.65625 17.390625 39.5 
Q 17.390625 34.671875 26.859375 32.078125 
Q 27.59375 31.890625 27.9375 31.78125 
L 30.8125 30.90625 
Q 39.796875 28.421875 42.796875 25.6875 
Q 45.796875 22.953125 45.796875 18.21875 
Q 45.796875 9.515625 38.890625 4.046875 
Q 31.984375 -1.421875 20.796875 -1.421875 
Q 16.453125 -1.421875 11.671875 -0.578125 
Q 6.890625 0.25 1.125 2 
L 2.875 11.28125 
Q 7.8125 8.734375 12.59375 7.421875 
Q 17.390625 6.109375 21.78125 6.109375 
Q 28.375 6.109375 32.5 8.9375 
Q 36.625 11.765625 36.625 16.109375 
Q 36.625 20.796875 25.78125 23.6875 
L 24.859375 23.921875 
L 21.78125 24.703125 
Q 14.9375 26.515625 11.765625 29.46875 
Q 8.59375 32.421875 8.59375 37.015625 
Q 8.59375 45.75 15.15625 50.875 
Q 21.734375 56 33.015625 56 
Q 37.453125 56 41.671875 55.265625 
Q 45.90625 54.546875 50 53.078125 
z
" id="DejaVuSans-Oblique-73"/>
     </defs>
     <g transform="translate(33.046875 52.23488)rotate(-90)scale(0.1 -0.1)">
      <use xlink:href="#DejaVuSans-Oblique-73"/>
      <use transform="translate(52.099609 -16.40625)scale(0.7)" xlink:href="#DejaVuSans-31"/>
     </g>
    </g>
   </g>
   <g id="line2d_14">
    <path clip-path="url(#p6be3d48cc5)" d="M 92.290909 36.928458 
L 97.427848 36.928458 
L 102.564787 36.916977 
L 107.701726 36.916977 
L 112.838665 33.022306 
L 117.975604 33.022306 
L 123.112543 30.62329 
L 128.249482 30.62329 
L 133.386421 29.177961 
L 138.52336 28.33378 
L 143.660299 27.8648 
L 148.797238 27.856543 
L 153.934177 27.617355 
L 159.071116 27.513935 
L 164.208055 27.486454 
L 169.344994 27.497603 
L 174.481933 27.491756 
L 179.618872 27.519107 
L 184.755811 27.519107 
L 189.89275 27.519668 
L 195.029689 27.519668 
L 200.166628 27.519668 
L 205.303567 27.519668 
L 210.440506 27.53312 
L 215.577445 27.53312 
L 220.714384 27.505791 
L 225.851323 27.541356 
L 230.988262 27.541356 
L 236.125201 27.529832 
L 241.26214 27.599493 
L 246.399079 27.625172 
L 251.536018 27.625172 
L 256.672957 27.743092 
L 261.809896 27.743092 
L 266.946835 28.02227 
L 272.083774 28.02227 
L 277.220713 28.02227 
L 282.357652 28.279144 
L 287.494591 28.279144 
L 292.63153 28.505918 
L 297.76847 28.833473 
L 302.905409 28.833473 
L 308.042348 29.288314 
L 313.179287 29.288314 
L 318.316226 30.50082 
L 323.453165 30.50082 
L 328.590104 31.975298 
L 333.727043 34.893514 
L 338.863982 34.893514 
L 344.000921 39.098376 
L 349.13786 45.81338 
L 354.274799 46.570282 
L 359.411738 56.965858 
L 364.548677 56.965858 
L 369.685616 67.132225 
L 374.822555 67.132225 
L 379.959494 67.132225 
L 385.096433 69.806326 
L 390.233372 58.195128 
L 395.370311 58.195128 
L 400.50725 46.926614 
L 405.644189 46.926614 
L 410.781128 39.348653 
L 415.918067 34.625039 
L 421.055006 34.625039 
L 426.191945 31.747779 
L 431.328884 30.030727 
L 436.465823 30.030727 
L 441.602762 29.040418 
L 446.739701 29.040418 
L 451.87664 28.501996 
L 457.013579 28.501996 
L 462.150518 28.501996 
L 467.287457 28.238712 
L 472.424396 29.152412 
L 477.561335 29.152412 
L 482.698274 29.152412 
L 487.835213 29.152412 
L 492.972152 29.060016 
L 498.109091 29.060016 
" style="fill:none;stroke:#1f77b4;stroke-linecap:square;stroke-width:1.5;"/>
   </g>
   <g id="line2d_15">
    <path clip-path="url(#p6be3d48cc5)" d="M 92.290909 35.482804 
L 97.427848 35.143048 
L 102.564787 34.440407 
L 107.701726 33.389089 
L 112.838665 32.072519 
L 117.975604 30.626336 
L 123.112543 29.201425 
L 128.249482 27.924205 
L 133.386421 26.872035 
L 138.52336 26.069672 
L 143.660299 25.500876 
L 148.797238 25.125599 
L 153.934177 24.895731 
L 159.071116 24.766105 
L 164.208055 24.700227 
L 169.344994 24.671763 
L 174.481933 24.663434 
L 179.618872 24.664833 
L 184.755811 24.670214 
L 189.89275 24.676736 
L 195.029689 24.683265 
L 200.166628 24.689673 
L 205.303567 24.696474 
L 210.440506 24.704675 
L 215.577445 24.715735 
L 220.714384 24.731505 
L 225.851323 24.754101 
L 230.988262 24.785629 
L 236.125201 24.827803 
L 241.26214 24.881553 
L 246.399079 24.946792 
L 251.536018 25.022483 
L 256.672957 25.107039 
L 261.809896 25.198952 
L 266.946835 25.297407 
L 272.083774 25.402724 
L 277.220713 25.516562 
L 282.357652 25.641995 
L 287.494591 25.783686 
L 292.63153 25.948406 
L 297.76847 26.146151 
L 302.905409 26.392095 
L 308.042348 26.709644 
L 313.179287 27.134855 
L 318.316226 27.72237 
L 323.453165 28.552671 
L 328.590104 29.739522 
L 333.727043 31.434429 
L 338.863982 33.820337 
L 344.000921 37.078092 
L 349.13786 41.299319 
L 354.274799 46.331301 
L 359.411738 51.625796 
L 364.548677 56.311763 
L 369.685616 59.637833 
L 374.822555 61.401424 
L 379.959494 61.752352 
L 385.096433 60.619482 
L 390.233372 57.706064 
L 395.370311 53.101382 
L 400.50725 47.555845 
L 405.644189 42.055274 
L 410.781128 37.295409 
L 415.918067 33.539484 
L 421.055006 30.754794 
L 426.191945 28.781641 
L 431.328884 27.436616 
L 436.465823 26.556816 
L 441.602762 26.012169 
L 446.739701 25.704268 
L 451.87664 25.560724 
L 457.013579 25.528852 
L 462.150518 25.570164 
L 467.287457 25.656105 
L 472.424396 25.765051 
L 477.561335 25.880382 
L 482.698274 25.989413 
L 487.835213 26.082913 
L 492.972152 26.15492 
L 498.109091 26.202573 
" style="fill:none;stroke:#ff7f0e;stroke-linecap:square;stroke-width:1.5;"/>
   </g>
   <g id="patch_3">
    <path d="M 72 76.57776 
L 72 17.892 
" style="fill:none;stroke:#000000;stroke-linecap:square;stroke-linejoin:miter;stroke-width:0.8;"/>
   </g>
   <g id="patch_4">
    <path d="M 518.4 76.57776 
L 518.4 17.892 
" style="fill:none;stroke:#000000;stroke-linecap:square;stroke-linejoin:miter;stroke-width:0.8;"/>
   </g>
   <g id="patch_5">
    <path d="M 72 76.57776 
L 518.4 76.57776 
" style="fill:none;stroke:#000000;stroke-linecap:square;stroke-linejoin:miter;stroke-width:0.8;"/>
   </g>
   <g id="patch_6">
    <path d="M 72 17.892 
L 518.4 17.892 
" style="fill:none;stroke:#000000;stroke-linecap:square;stroke-linejoin:miter;stroke-width:0.8;"/>
   </g>
  </g>
  <g id="axes_2">
   <g id="patch_7">
    <path d="M 72 135.26352 
L 518.4 135.26352 
L 518.4 76.57776 
L 72 76.57776 
z
" style="fill:#ffffff;"/>
   </g>
   <g id="matplotlib.axis_3">
    <g id="xtick_10">
     <g id="line2d_16">
      <g>
       <use style="stroke:#000000;stroke-width:0.8;" x="92.290909" xlink:href="#mc616c5cb65" y="135.26352"/>
      </g>
     </g>
    </g>
    <g id="xtick_11">
     <g id="line2d_17">
      <g>
       <use style="stroke:#000000;stroke-width:0.8;" x="143.660299" xlink:href="#mc616c5cb65" y="135.26352"/>
      </g>
     </g>
    </g>
    <g id="xtick_12">
     <g id="line2d_18">
      <g>
       <use style="stroke:#000000;stroke-width:0.8;" x="195.029689" xlink:href="#mc616c5cb65" y="135.26352"/>
      </g>
     </g>
    </g>
    <g id="xtick_13">
     <g id="line2d_19">
      <g>
       <use style="stroke:#000000;stroke-width:0.8;" x="246.399079" xlink:href="#mc616c5cb65" y="135.26352"/>
      </g>
     </g>
    </g>
    <g id="xtick_14">
     <g id="line2d_20">
      <g>
       <use style="stroke:#000000;stroke-width:0.8;" x="297.76847" xlink:href="#mc616c5cb65" y="135.26352"/>
      </g>
     </g>
    </g>
    <g id="xtick_15">
     <g id="line2d_21">
      <g>
       <use style="stroke:#000000;stroke-width:0.8;" x="349.13786" xlink:href="#mc616c5cb65" y="135.26352"/>
      </g>
     </g>
    </g>
    <g id="xtick_16">
     <g id="line2d_22">
      <g>
       <use style="stroke:#000000;stroke-width:0.8;" x="400.50725" xlink:href="#mc616c5cb65" y="135.26352"/>
      </g>
     </g>
    </g>
    <g id="xtick_17">
     <g id="line2d_23">
      <g>
       <use style="stroke:#000000;stroke-width:0.8;" x="451.87664" xlink:href="#mc616c5cb65" y="135.26352"/>
      </g>
     </g>
    </g>
    <g id="xtick_18">
     <g id="line2d_24">
      <g>
       <use style="stroke:#000000;stroke-width:0.8;" x="503.24603" xlink:href="#mc616c5cb65" y="135.26352"/>
      </g>
     </g>
    </g>
   </g>
   <g id="matplotlib.axis_4">
    <g id="ytick_5">
     <g id="line2d_25">
      <g>
       <use style="stroke:#000000;stroke-width:0.8;" x="72" xlink:href="#m8169841db5" y="128.492086"/>
      </g>
     </g>
     <g id="text_6">
      <!-- 0.97 -->
      <defs>
       <path d="M 10.984375 1.515625 
L 10.984375 10.5 
Q 14.703125 8.734375 18.5 7.8125 
Q 22.3125 6.890625 25.984375 6.890625 
Q 35.75 6.890625 40.890625 13.453125 
Q 46.046875 20.015625 46.78125 33.40625 
Q 43.953125 29.203125 39.59375 26.953125 
Q 35.25 24.703125 29.984375 24.703125 
Q 19.046875 24.703125 12.671875 31.3125 
Q 6.296875 37.9375 6.296875 49.421875 
Q 6.296875 60.640625 12.9375 67.421875 
Q 19.578125 74.21875 30.609375 74.21875 
Q 43.265625 74.21875 49.921875 64.515625 
Q 56.59375 54.828125 56.59375 36.375 
Q 56.59375 19.140625 48.40625 8.859375 
Q 40.234375 -1.421875 26.421875 -1.421875 
Q 22.703125 -1.421875 18.890625 -0.6875 
Q 15.09375 0.046875 10.984375 1.515625 
z
M 30.609375 32.421875 
Q 37.25 32.421875 41.125 36.953125 
Q 45.015625 41.5 45.015625 49.421875 
Q 45.015625 57.28125 41.125 61.84375 
Q 37.25 66.40625 30.609375 66.40625 
Q 23.96875 66.40625 20.09375 61.84375 
Q 16.21875 57.28125 16.21875 49.421875 
Q 16.21875 41.5 20.09375 36.953125 
Q 23.96875 32.421875 30.609375 32.421875 
z
" id="DejaVuSans-39"/>
      </defs>
      <g transform="translate(42.734375 132.291305)scale(0.1 -0.1)">
       <use xlink:href="#DejaVuSans-30"/>
       <use x="63.623047" xlink:href="#DejaVuSans-2e"/>
       <use x="95.410156" xlink:href="#DejaVuSans-39"/>
       <use x="159.033203" xlink:href="#DejaVuSans-37"/>
      </g>
     </g>
    </g>
    <g id="ytick_6">
     <g id="line2d_26">
      <g>
       <use style="stroke:#000000;stroke-width:0.8;" x="72" xlink:href="#m8169841db5" y="113.444455"/>
      </g>
     </g>
     <g id="text_7">
      <!-- 2.30 -->
      <g transform="translate(42.734375 117.243674)scale(0.1 -0.1)">
       <use xlink:href="#DejaVuSans-32"/>
       <use x="63.623047" xlink:href="#DejaVuSans-2e"/>
       <use x="95.410156" xlink:href="#DejaVuSans-33"/>
       <use x="159.033203" xlink:href="#DejaVuSans-30"/>
      </g>
     </g>
    </g>
    <g id="ytick_7">
     <g id="line2d_27">
      <g>
       <use style="stroke:#000000;stroke-width:0.8;" x="72" xlink:href="#m8169841db5" y="98.396825"/>
      </g>
     </g>
     <g id="text_8">
      <!-- 3.63 -->
      <defs>
       <path d="M 33.015625 40.375 
Q 26.375 40.375 22.484375 35.828125 
Q 18.609375 31.296875 18.609375 23.390625 
Q 18.609375 15.53125 22.484375 10.953125 
Q 26.375 6.390625 33.015625 6.390625 
Q 39.65625 6.390625 43.53125 10.953125 
Q 47.40625 15.53125 47.40625 23.390625 
Q 47.40625 31.296875 43.53125 35.828125 
Q 39.65625 40.375 33.015625 40.375 
z
M 52.59375 71.296875 
L 52.59375 62.3125 
Q 48.875 64.0625 45.09375 64.984375 
Q 41.3125 65.921875 37.59375 65.921875 
Q 27.828125 65.921875 22.671875 59.328125 
Q 17.53125 52.734375 16.796875 39.40625 
Q 19.671875 43.65625 24.015625 45.921875 
Q 28.375 48.1875 33.59375 48.1875 
Q 44.578125 48.1875 50.953125 41.515625 
Q 57.328125 34.859375 57.328125 23.390625 
Q 57.328125 12.15625 50.6875 5.359375 
Q 44.046875 -1.421875 33.015625 -1.421875 
Q 20.359375 -1.421875 13.671875 8.265625 
Q 6.984375 17.96875 6.984375 36.375 
Q 6.984375 53.65625 15.1875 63.9375 
Q 23.390625 74.21875 37.203125 74.21875 
Q 40.921875 74.21875 44.703125 73.484375 
Q 48.484375 72.75 52.59375 71.296875 
z
" id="DejaVuSans-36"/>
      </defs>
      <g transform="translate(42.734375 102.196043)scale(0.1 -0.1)">
       <use xlink:href="#DejaVuSans-33"/>
       <use x="63.623047" xlink:href="#DejaVuSans-2e"/>
       <use x="95.410156" xlink:href="#DejaVuSans-36"/>
       <use x="159.033203" xlink:href="#DejaVuSans-33"/>
      </g>
     </g>
    </g>
    <g id="ytick_8">
     <g id="line2d_28">
      <g>
       <use style="stroke:#000000;stroke-width:0.8;" x="72" xlink:href="#m8169841db5" y="83.349194"/>
      </g>
     </g>
     <g id="text_9">
      <!-- 4.96 -->
      <defs>
       <path d="M 37.796875 64.3125 
L 12.890625 25.390625 
L 37.796875 25.390625 
z
M 35.203125 72.90625 
L 47.609375 72.90625 
L 47.609375 25.390625 
L 58.015625 25.390625 
L 58.015625 17.1875 
L 47.609375 17.1875 
L 47.609375 0 
L 37.796875 0 
L 37.796875 17.1875 
L 4.890625 17.1875 
L 4.890625 26.703125 
z
" id="DejaVuSans-34"/>
      </defs>
      <g transform="translate(42.734375 87.148413)scale(0.1 -0.1)">
       <use xlink:href="#DejaVuSans-34"/>
       <use x="63.623047" xlink:href="#DejaVuSans-2e"/>
       <use x="95.410156" xlink:href="#DejaVuSans-39"/>
       <use x="159.033203" xlink:href="#DejaVuSans-36"/>
      </g>
     </g>
    </g>
    <g id="text_10">
     <!-- $s_{25}$ -->
     <g transform="translate(36.654688 113.12064)rotate(-90)scale(0.1 -0.1)">
      <use xlink:href="#DejaVuSans-Oblique-73"/>
      <use transform="translate(52.099609 -16.40625)scale(0.7)" xlink:href="#DejaVuSans-32"/>
      <use transform="translate(96.635742 -16.40625)scale(0.7)" xlink:href="#DejaVuSans-35"/>
     </g>
    </g>
   </g>
   <g id="line2d_29">
    <path clip-path="url(#p682c33b4f8)" d="M 92.290909 111.162375 
L 97.427848 111.162375 
L 102.564787 111.07284 
L 107.701726 111.07284 
L 112.838665 115.615949 
L 117.975604 115.615949 
L 123.112543 118.858439 
L 128.249482 118.858439 
L 133.386421 121.149404 
L 138.52336 122.775284 
L 143.660299 123.940771 
L 148.797238 123.877741 
L 153.934177 124.726813 
L 159.071116 125.349794 
L 164.208055 125.811553 
L 169.344994 126.156721 
L 174.481933 126.093759 
L 179.618872 126.355227 
L 184.755811 126.355227 
L 189.89275 126.281896 
L 195.029689 126.281896 
L 200.166628 126.281896 
L 205.303567 126.281896 
L 210.440506 126.194804 
L 215.577445 126.194804 
L 220.714384 125.928356 
L 225.851323 125.822682 
L 230.988262 125.822682 
L 236.125201 125.464707 
L 241.26214 125.337074 
L 246.399079 124.852674 
L 251.536018 124.852674 
L 256.672957 124.699803 
L 261.809896 124.699803 
L 266.946835 123.858101 
L 272.083774 123.858101 
L 277.220713 123.858101 
L 282.357652 123.670439 
L 287.494591 123.670439 
L 292.63153 122.738899 
L 297.76847 122.545833 
L 302.905409 122.545833 
L 308.042348 121.24154 
L 313.179287 121.24154 
L 318.316226 119.229617 
L 323.453165 119.229617 
L 328.590104 116.646201 
L 333.727043 112.790918 
L 338.863982 112.790918 
L 344.000921 107.584399 
L 349.13786 100.59348 
L 354.274799 100.236439 
L 359.411738 91.568928 
L 364.548677 91.568928 
L 369.685616 84.774468 
L 374.822555 84.774468 
L 379.959494 84.774468 
L 385.096433 83.349194 
L 390.233372 91.078859 
L 395.370311 91.078859 
L 400.50725 100.314006 
L 405.644189 100.314006 
L 410.781128 107.936374 
L 415.918067 113.57242 
L 421.055006 113.57242 
L 426.191945 117.607294 
L 431.328884 120.48651 
L 436.465823 120.48651 
L 441.602762 122.557669 
L 446.739701 122.557669 
L 451.87664 124.06555 
L 457.013579 124.06555 
L 462.150518 124.06555 
L 467.287457 125.177403 
L 472.424396 123.984843 
L 477.561335 123.984843 
L 482.698274 123.984843 
L 487.835213 123.984843 
L 492.972152 124.774169 
L 498.109091 124.774169 
" style="fill:none;stroke:#1f77b4;stroke-linecap:square;stroke-width:1.5;"/>
   </g>
   <g id="line2d_30">
    <path clip-path="url(#p682c33b4f8)" d="M 92.290909 112.227691 
L 97.427848 112.592661 
L 102.564787 113.361576 
L 107.701726 114.546434 
L 112.838665 116.091652 
L 117.975604 117.876802 
L 123.112543 119.74298 
L 128.249482 121.534251 
L 133.386421 123.134157 
L 138.52336 124.481583 
L 143.660299 125.565238 
L 148.797238 126.406843 
L 153.934177 127.043669 
L 159.071116 127.516007 
L 164.208055 127.860315 
L 169.344994 128.106557 
L 174.481933 128.277932 
L 179.618872 128.391659 
L 184.755811 128.460075 
L 189.89275 128.491693 
L 195.029689 128.492086 
L 200.166628 128.46462 
L 205.303567 128.411055 
L 210.440506 128.332086 
L 215.577445 128.22787 
L 220.714384 128.098585 
L 225.851323 127.945008 
L 230.988262 127.769062 
L 236.125201 127.574216 
L 241.26214 127.365582 
L 246.399079 127.149545 
L 251.536018 126.932899 
L 256.672957 126.721593 
L 261.809896 126.519385 
L 266.946835 126.326752 
L 272.083774 126.14029 
L 277.220713 125.952639 
L 282.357652 125.752723 
L 287.494591 125.525946 
L 292.63153 125.254007 
L 297.76847 124.914047 
L 302.905409 124.476928 
L 308.042348 123.904537 
L 313.179287 123.146076 
L 318.316226 122.133603 
L 323.453165 120.777777 
L 328.590104 118.966493 
L 333.727043 116.572359 
L 338.863982 113.479879 
L 344.000921 109.645868 
L 349.13786 105.194931 
L 354.274799 100.506583 
L 359.411738 96.184074 
L 364.548677 92.816438 
L 369.685616 90.665931 
L 374.822555 89.610754 
L 379.959494 89.445849 
L 385.096433 90.214025 
L 390.233372 92.199205 
L 395.370311 95.579889 
L 400.50725 100.108185 
L 405.644189 105.156277 
L 410.781128 110.047102 
L 415.918067 114.326314 
L 421.055006 117.815675 
L 426.191945 120.529283 
L 431.328884 122.571766 
L 436.465823 124.070508 
L 441.602762 125.143306 
L 446.739701 125.887951 
L 451.87664 126.382151 
L 457.013579 126.687128 
L 462.150518 126.851792 
L 467.287457 126.916269 
L 472.424396 126.914389 
L 477.561335 126.875117 
L 482.698274 126.823023 
L 487.835213 126.778032 
L 492.972152 126.754792 
L 498.109091 126.762109 
" style="fill:none;stroke:#ff7f0e;stroke-linecap:square;stroke-width:1.5;"/>
   </g>
   <g id="patch_8">
    <path d="M 72 135.26352 
L 72 76.57776 
" style="fill:none;stroke:#000000;stroke-linecap:square;stroke-linejoin:miter;stroke-width:0.8;"/>
   </g>
   <g id="patch_9">
    <path d="M 518.4 135.26352 
L 518.4 76.57776 
" style="fill:none;stroke:#000000;stroke-linecap:square;stroke-linejoin:miter;stroke-width:0.8;"/>
   </g>
   <g id="patch_10">
    <path d="M 72 135.26352 
L 518.4 135.26352 
" style="fill:none;stroke:#000000;stroke-linecap:square;stroke-linejoin:miter;stroke-width:0.8;"/>
   </g>
   <g id="patch_11">
    <path d="M 72 76.57776 
L 518.4 76.57776 
" style="fill:none;stroke:#000000;stroke-linecap:square;stroke-linejoin:miter;stroke-width:0.8;"/>
   </g>
  </g>
  <g id="axes_3">
   <g id="patch_12">
    <path d="M 72 193.94928 
L 518.4 193.94928 
L 518.4 135.26352 
L 72 135.26352 
z
" style="fill:#ffffff;"/>
   </g>
   <g id="matplotlib.axis_5">
    <g id="xtick_19">
     <g id="line2d_31">
      <g>
       <use style="stroke:#000000;stroke-width:0.8;" x="92.290909" xlink:href="#mc616c5cb65" y="193.94928"/>
      </g>
     </g>
    </g>
    <g id="xtick_20">
     <g id="line2d_32">
      <g>
       <use style="stroke:#000000;stroke-width:0.8;" x="143.660299" xlink:href="#mc616c5cb65" y="193.94928"/>
      </g>
     </g>
    </g>
    <g id="xtick_21">
     <g id="line2d_33">
      <g>
       <use style="stroke:#000000;stroke-width:0.8;" x="195.029689" xlink:href="#mc616c5cb65" y="193.94928"/>
      </g>
     </g>
    </g>
    <g id="xtick_22">
     <g id="line2d_34">
      <g>
       <use style="stroke:#000000;stroke-width:0.8;" x="246.399079" xlink:href="#mc616c5cb65" y="193.94928"/>
      </g>
     </g>
    </g>
    <g id="xtick_23">
     <g id="line2d_35">
      <g>
       <use style="stroke:#000000;stroke-width:0.8;" x="297.76847" xlink:href="#mc616c5cb65" y="193.94928"/>
      </g>
     </g>
    </g>
    <g id="xtick_24">
     <g id="line2d_36">
      <g>
       <use style="stroke:#000000;stroke-width:0.8;" x="349.13786" xlink:href="#mc616c5cb65" y="193.94928"/>
      </g>
     </g>
    </g>
    <g id="xtick_25">
     <g id="line2d_37">
      <g>
       <use style="stroke:#000000;stroke-width:0.8;" x="400.50725" xlink:href="#mc616c5cb65" y="193.94928"/>
      </g>
     </g>
    </g>
    <g id="xtick_26">
     <g id="line2d_38">
      <g>
       <use style="stroke:#000000;stroke-width:0.8;" x="451.87664" xlink:href="#mc616c5cb65" y="193.94928"/>
      </g>
     </g>
    </g>
    <g id="xtick_27">
     <g id="line2d_39">
      <g>
       <use style="stroke:#000000;stroke-width:0.8;" x="503.24603" xlink:href="#mc616c5cb65" y="193.94928"/>
      </g>
     </g>
    </g>
   </g>
   <g id="matplotlib.axis_6">
    <g id="ytick_9">
     <g id="line2d_40">
      <g>
       <use style="stroke:#000000;stroke-width:0.8;" x="72" xlink:href="#m8169841db5" y="187.177846"/>
      </g>
     </g>
     <g id="text_11">
      <!-- 0.68 -->
      <defs>
       <path d="M 31.78125 34.625 
Q 24.75 34.625 20.71875 30.859375 
Q 16.703125 27.09375 16.703125 20.515625 
Q 16.703125 13.921875 20.71875 10.15625 
Q 24.75 6.390625 31.78125 6.390625 
Q 38.8125 6.390625 42.859375 10.171875 
Q 46.921875 13.96875 46.921875 20.515625 
Q 46.921875 27.09375 42.890625 30.859375 
Q 38.875 34.625 31.78125 34.625 
z
M 21.921875 38.8125 
Q 15.578125 40.375 12.03125 44.71875 
Q 8.5 49.078125 8.5 55.328125 
Q 8.5 64.0625 14.71875 69.140625 
Q 20.953125 74.21875 31.78125 74.21875 
Q 42.671875 74.21875 48.875 69.140625 
Q 55.078125 64.0625 55.078125 55.328125 
Q 55.078125 49.078125 51.53125 44.71875 
Q 48 40.375 41.703125 38.8125 
Q 48.828125 37.15625 52.796875 32.3125 
Q 56.78125 27.484375 56.78125 20.515625 
Q 56.78125 9.90625 50.3125 4.234375 
Q 43.84375 -1.421875 31.78125 -1.421875 
Q 19.734375 -1.421875 13.25 4.234375 
Q 6.78125 9.90625 6.78125 20.515625 
Q 6.78125 27.484375 10.78125 32.3125 
Q 14.796875 37.15625 21.921875 38.8125 
z
M 18.3125 54.390625 
Q 18.3125 48.734375 21.84375 45.5625 
Q 25.390625 42.390625 31.78125 42.390625 
Q 38.140625 42.390625 41.71875 45.5625 
Q 45.3125 48.734375 45.3125 54.390625 
Q 45.3125 60.0625 41.71875 63.234375 
Q 38.140625 66.40625 31.78125 66.40625 
Q 25.390625 66.40625 21.84375 63.234375 
Q 18.3125 60.0625 18.3125 54.390625 
z
" id="DejaVuSans-38"/>
      </defs>
      <g transform="translate(42.734375 190.977065)scale(0.1 -0.1)">
       <use xlink:href="#DejaVuSans-30"/>
       <use x="63.623047" xlink:href="#DejaVuSans-2e"/>
       <use x="95.410156" xlink:href="#DejaVuSans-36"/>
       <use x="159.033203" xlink:href="#DejaVuSans-38"/>
      </g>
     </g>
    </g>
    <g id="ytick_10">
     <g id="line2d_41">
      <g>
       <use style="stroke:#000000;stroke-width:0.8;" x="72" xlink:href="#m8169841db5" y="172.130215"/>
      </g>
     </g>
     <g id="text_12">
      <!-- 0.76 -->
      <g transform="translate(42.734375 175.929434)scale(0.1 -0.1)">
       <use xlink:href="#DejaVuSans-30"/>
       <use x="63.623047" xlink:href="#DejaVuSans-2e"/>
       <use x="95.410156" xlink:href="#DejaVuSans-37"/>
       <use x="159.033203" xlink:href="#DejaVuSans-36"/>
      </g>
     </g>
    </g>
    <g id="ytick_11">
     <g id="line2d_42">
      <g>
       <use style="stroke:#000000;stroke-width:0.8;" x="72" xlink:href="#m8169841db5" y="157.082585"/>
      </g>
     </g>
     <g id="text_13">
      <!-- 0.83 -->
      <g transform="translate(42.734375 160.881803)scale(0.1 -0.1)">
       <use xlink:href="#DejaVuSans-30"/>
       <use x="63.623047" xlink:href="#DejaVuSans-2e"/>
       <use x="95.410156" xlink:href="#DejaVuSans-38"/>
       <use x="159.033203" xlink:href="#DejaVuSans-33"/>
      </g>
     </g>
    </g>
    <g id="ytick_12">
     <g id="line2d_43">
      <g>
       <use style="stroke:#000000;stroke-width:0.8;" x="72" xlink:href="#m8169841db5" y="142.034954"/>
      </g>
     </g>
     <g id="text_14">
      <!-- 0.91 -->
      <g transform="translate(42.734375 145.834173)scale(0.1 -0.1)">
       <use xlink:href="#DejaVuSans-30"/>
       <use x="63.623047" xlink:href="#DejaVuSans-2e"/>
       <use x="95.410156" xlink:href="#DejaVuSans-39"/>
       <use x="159.033203" xlink:href="#DejaVuSans-31"/>
      </g>
     </g>
    </g>
    <g id="text_15">
     <!-- $s_{50}$ -->
     <g transform="translate(36.654688 171.8064)rotate(-90)scale(0.1 -0.1)">
      <use xlink:href="#DejaVuSans-Oblique-73"/>
      <use transform="translate(52.099609 -16.40625)scale(0.7)" xlink:href="#DejaVuSans-35"/>
      <use transform="translate(96.635742 -16.40625)scale(0.7)" xlink:href="#DejaVuSans-30"/>
     </g>
    </g>
   </g>
   <g id="line2d_44">
    <path clip-path="url(#pa4a173655b)" d="M 92.290909 148.986505 
L 97.427848 148.986505 
L 102.564787 148.444724 
L 107.701726 148.444724 
L 112.838665 150.621413 
L 117.975604 150.621413 
L 123.112543 153.282312 
L 128.249482 153.282312 
L 133.386421 156.373343 
L 138.52336 159.832224 
L 143.660299 163.59207 
L 148.797238 162.977815 
L 153.934177 166.964599 
L 159.071116 171.121212 
L 164.208055 175.387121 
L 169.344994 179.708406 
L 174.481933 179.066974 
L 179.618872 183.396163 
L 184.755811 183.396163 
L 189.89275 182.743089 
L 195.029689 182.743089 
L 200.166628 182.743089 
L 205.303567 182.743089 
L 210.440506 182.081352 
L 215.577445 182.081352 
L 220.714384 177.755863 
L 225.851323 177.090816 
L 230.988262 177.090816 
L 236.125201 172.782831 
L 241.26214 172.120862 
L 246.399079 167.882963 
L 251.536018 167.882963 
L 256.672957 167.23225 
L 261.809896 167.23225 
L 266.946835 162.497696 
L 272.083774 162.497696 
L 277.220713 162.497696 
L 282.357652 161.882313 
L 287.494591 161.882313 
L 292.63153 158.002632 
L 297.76847 157.430855 
L 302.905409 157.430855 
L 308.042348 153.845973 
L 313.179287 153.845973 
L 318.316226 150.141378 
L 323.453165 150.141378 
L 328.590104 147.369563 
L 333.727043 144.822308 
L 338.863982 144.822308 
L 344.000921 143.199847 
L 349.13786 142.209074 
L 354.274799 142.275297 
L 359.411738 142.126731 
L 364.548677 142.126731 
L 369.685616 142.722132 
L 374.822555 142.722132 
L 379.959494 142.722132 
L 385.096433 143.415947 
L 390.233372 142.569317 
L 395.370311 142.569317 
L 400.50725 142.510266 
L 405.644189 142.510266 
L 410.781128 143.194358 
L 415.918067 144.56508 
L 421.055006 144.56508 
L 426.191945 146.556219 
L 431.328884 149.093667 
L 436.465823 149.093667 
L 441.602762 152.097987 
L 446.739701 152.097987 
L 451.87664 155.487619 
L 457.013579 155.487619 
L 462.150518 155.487619 
L 467.287457 159.182226 
L 472.424396 159.652248 
L 477.561335 159.652248 
L 482.698274 159.652248 
L 487.835213 159.652248 
L 492.972152 163.617413 
L 498.109091 163.617413 
" style="fill:none;stroke:#1f77b4;stroke-linecap:square;stroke-width:1.5;"/>
   </g>
   <g id="line2d_45">
    <path clip-path="url(#pa4a173655b)" d="M 92.290909 149.633492 
L 97.427848 149.749825 
L 102.564787 150.017135 
L 107.701726 150.481486 
L 112.838665 151.197267 
L 117.975604 152.225434 
L 123.112543 153.627177 
L 128.249482 155.452842 
L 133.386421 157.727802 
L 138.52336 160.438978 
L 143.660299 163.526738 
L 148.797238 166.885859 
L 153.934177 170.376178 
L 159.071116 173.839879 
L 164.208055 177.120366 
L 169.344994 180.07802 
L 174.481933 182.600347 
L 179.618872 184.606411 
L 184.755811 186.046948 
L 189.89275 186.902032 
L 195.029689 187.177846 
L 200.166628 186.903495 
L 205.303567 186.128131 
L 210.440506 184.918209 
L 215.577445 183.35441 
L 220.714384 181.527718 
L 225.851323 179.534384 
L 230.988262 177.469835 
L 236.125201 175.42208 
L 241.26214 173.465461 
L 246.399079 171.655641 
L 251.536018 170.026517 
L 256.672957 168.589273 
L 261.809896 167.333362 
L 266.946835 166.229016 
L 272.083774 165.23083 
L 277.220713 164.282144 
L 282.357652 163.320111 
L 287.494591 162.281374 
L 292.63153 161.108264 
L 297.76847 159.755322 
L 302.905409 158.195748 
L 308.042348 156.427222 
L 313.179287 154.476247 
L 318.316226 152.39982 
L 323.453165 150.283066 
L 328.590104 148.231616 
L 333.727043 146.35842 
L 338.863982 144.7664 
L 344.000921 143.530286 
L 349.13786 142.682185 
L 354.274799 142.204879 
L 359.411738 142.034954 
L 364.548677 142.075367 
L 369.685616 142.215254 
L 374.822555 142.353378 
L 379.959494 142.420529 
L 385.096433 142.395591 
L 390.233372 142.310818 
L 395.370311 142.244252 
L 400.50725 142.300716 
L 405.644189 142.586253 
L 410.781128 143.182823 
L 415.918067 144.129717 
L 421.055006 145.415772 
L 426.191945 146.983284 
L 431.328884 148.74133 
L 436.465823 150.583981 
L 441.602762 152.408438 
L 446.739701 154.129314 
L 451.87664 155.687379 
L 457.013579 157.052862 
L 462.150518 158.22447 
L 467.287457 159.225518 
L 472.424396 160.098416 
L 477.561335 160.898419 
L 482.698274 161.687277 
L 487.835213 162.527173 
L 492.972152 163.475154 
L 498.109091 164.578124 
" style="fill:none;stroke:#ff7f0e;stroke-linecap:square;stroke-width:1.5;"/>
   </g>
   <g id="patch_13">
    <path d="M 72 193.94928 
L 72 135.26352 
" style="fill:none;stroke:#000000;stroke-linecap:square;stroke-linejoin:miter;stroke-width:0.8;"/>
   </g>
   <g id="patch_14">
    <path d="M 518.4 193.94928 
L 518.4 135.26352 
" style="fill:none;stroke:#000000;stroke-linecap:square;stroke-linejoin:miter;stroke-width:0.8;"/>
   </g>
   <g id="patch_15">
    <path d="M 72 193.94928 
L 518.4 193.94928 
" style="fill:none;stroke:#000000;stroke-linecap:square;stroke-linejoin:miter;stroke-width:0.8;"/>
   </g>
   <g id="patch_16">
    <path d="M 72 135.26352 
L 518.4 135.26352 
" style="fill:none;stroke:#000000;stroke-linecap:square;stroke-linejoin:miter;stroke-width:0.8;"/>
   </g>
  </g>
  <g id="axes_4">
   <g id="patch_17">
    <path d="M 72 252.63504 
L 518.4 252.63504 
L 518.4 193.94928 
L 72 193.94928 
z
" style="fill:#ffffff;"/>
   </g>
   <g id="matplotlib.axis_7">
    <g id="xtick_28">
     <g id="line2d_46">
      <g>
       <use style="stroke:#000000;stroke-width:0.8;" x="92.290909" xlink:href="#mc616c5cb65" y="252.63504"/>
      </g>
     </g>
    </g>
    <g id="xtick_29">
     <g id="line2d_47">
      <g>
       <use style="stroke:#000000;stroke-width:0.8;" x="143.660299" xlink:href="#mc616c5cb65" y="252.63504"/>
      </g>
     </g>
    </g>
    <g id="xtick_30">
     <g id="line2d_48">
      <g>
       <use style="stroke:#000000;stroke-width:0.8;" x="195.029689" xlink:href="#mc616c5cb65" y="252.63504"/>
      </g>
     </g>
    </g>
    <g id="xtick_31">
     <g id="line2d_49">
      <g>
       <use style="stroke:#000000;stroke-width:0.8;" x="246.399079" xlink:href="#mc616c5cb65" y="252.63504"/>
      </g>
     </g>
    </g>
    <g id="xtick_32">
     <g id="line2d_50">
      <g>
       <use style="stroke:#000000;stroke-width:0.8;" x="297.76847" xlink:href="#mc616c5cb65" y="252.63504"/>
      </g>
     </g>
    </g>
    <g id="xtick_33">
     <g id="line2d_51">
      <g>
       <use style="stroke:#000000;stroke-width:0.8;" x="349.13786" xlink:href="#mc616c5cb65" y="252.63504"/>
      </g>
     </g>
    </g>
    <g id="xtick_34">
     <g id="line2d_52">
      <g>
       <use style="stroke:#000000;stroke-width:0.8;" x="400.50725" xlink:href="#mc616c5cb65" y="252.63504"/>
      </g>
     </g>
    </g>
    <g id="xtick_35">
     <g id="line2d_53">
      <g>
       <use style="stroke:#000000;stroke-width:0.8;" x="451.87664" xlink:href="#mc616c5cb65" y="252.63504"/>
      </g>
     </g>
    </g>
    <g id="xtick_36">
     <g id="line2d_54">
      <g>
       <use style="stroke:#000000;stroke-width:0.8;" x="503.24603" xlink:href="#mc616c5cb65" y="252.63504"/>
      </g>
     </g>
    </g>
   </g>
   <g id="matplotlib.axis_8">
    <g id="ytick_13">
     <g id="line2d_55">
      <g>
       <use style="stroke:#000000;stroke-width:0.8;" x="72" xlink:href="#m8169841db5" y="245.863606"/>
      </g>
     </g>
     <g id="text_16">
      <!-- 3.50 -->
      <g transform="translate(42.734375 249.662825)scale(0.1 -0.1)">
       <use xlink:href="#DejaVuSans-33"/>
       <use x="63.623047" xlink:href="#DejaVuSans-2e"/>
       <use x="95.410156" xlink:href="#DejaVuSans-35"/>
       <use x="159.033203" xlink:href="#DejaVuSans-30"/>
      </g>
     </g>
    </g>
    <g id="ytick_14">
     <g id="line2d_56">
      <g>
       <use style="stroke:#000000;stroke-width:0.8;" x="72" xlink:href="#m8169841db5" y="230.815975"/>
      </g>
     </g>
     <g id="text_17">
      <!-- 4.26 -->
      <g transform="translate(42.734375 234.615194)scale(0.1 -0.1)">
       <use xlink:href="#DejaVuSans-34"/>
       <use x="63.623047" xlink:href="#DejaVuSans-2e"/>
       <use x="95.410156" xlink:href="#DejaVuSans-32"/>
       <use x="159.033203" xlink:href="#DejaVuSans-36"/>
      </g>
     </g>
    </g>
    <g id="ytick_15">
     <g id="line2d_57">
      <g>
       <use style="stroke:#000000;stroke-width:0.8;" x="72" xlink:href="#m8169841db5" y="215.768345"/>
      </g>
     </g>
     <g id="text_18">
      <!-- 5.02 -->
      <g transform="translate(42.734375 219.567563)scale(0.1 -0.1)">
       <use xlink:href="#DejaVuSans-35"/>
       <use x="63.623047" xlink:href="#DejaVuSans-2e"/>
       <use x="95.410156" xlink:href="#DejaVuSans-30"/>
       <use x="159.033203" xlink:href="#DejaVuSans-32"/>
      </g>
     </g>
    </g>
    <g id="ytick_16">
     <g id="line2d_58">
      <g>
       <use style="stroke:#000000;stroke-width:0.8;" x="72" xlink:href="#m8169841db5" y="200.720714"/>
      </g>
     </g>
     <g id="text_19">
      <!-- 5.78 -->
      <g transform="translate(42.734375 204.519933)scale(0.1 -0.1)">
       <use xlink:href="#DejaVuSans-35"/>
       <use x="63.623047" xlink:href="#DejaVuSans-2e"/>
       <use x="95.410156" xlink:href="#DejaVuSans-37"/>
       <use x="159.033203" xlink:href="#DejaVuSans-38"/>
      </g>
     </g>
    </g>
    <g id="text_20">
     <!-- $s_{75}$ -->
     <g transform="translate(36.654688 230.49216)rotate(-90)scale(0.1 -0.1)">
      <use xlink:href="#DejaVuSans-Oblique-73"/>
      <use transform="translate(52.099609 -16.40625)scale(0.7)" xlink:href="#DejaVuSans-37"/>
      <use transform="translate(96.635742 -16.40625)scale(0.7)" xlink:href="#DejaVuSans-35"/>
     </g>
    </g>
   </g>
   <g id="line2d_59">
    <path clip-path="url(#pa1effc9fe8)" d="M 92.290909 235.448087 
L 97.427848 235.448087 
L 102.564787 234.189705 
L 107.701726 234.189705 
L 112.838665 230.915698 
L 117.975604 230.915698 
L 123.112543 227.941303 
L 128.249482 227.941303 
L 133.386421 225.270573 
L 138.52336 222.906029 
L 143.660299 220.84822 
L 148.797238 219.973054 
L 153.934177 218.291213 
L 159.071116 216.904596 
L 164.208055 215.806913 
L 169.344994 214.989379 
L 174.481933 214.330981 
L 179.618872 213.838076 
L 184.755811 213.838076 
L 189.89275 213.197044 
L 195.029689 213.197044 
L 200.166628 213.197044 
L 205.303567 213.197044 
L 210.440506 212.51296 
L 215.577445 212.51296 
L 220.714384 212.883993 
L 225.851323 212.084588 
L 230.988262 212.084588 
L 236.125201 212.638324 
L 241.26214 211.702941 
L 246.399079 212.431291 
L 251.536018 212.431291 
L 256.672957 211.335299 
L 261.809896 211.335299 
L 266.946835 210.936964 
L 272.083774 210.936964 
L 277.220713 210.936964 
L 282.357652 209.549383 
L 287.494591 209.549383 
L 292.63153 210.448407 
L 297.76847 208.814675 
L 302.905409 208.814675 
L 308.042348 209.7917 
L 313.179287 209.7917 
L 318.316226 208.86614 
L 323.453165 208.86614 
L 328.590104 210.038924 
L 333.727043 208.627885 
L 338.863982 208.627885 
L 344.000921 209.813123 
L 349.13786 211.069158 
L 354.274799 207.491705 
L 359.411738 208.432463 
L 364.548677 208.432463 
L 369.685616 209.346981 
L 374.822555 209.346981 
L 379.959494 209.346981 
L 385.096433 204.677527 
L 390.233372 204.171132 
L 395.370311 204.171132 
L 400.50725 203.609817 
L 405.644189 203.609817 
L 410.781128 203.02162 
L 415.918067 202.440046 
L 421.055006 202.440046 
L 426.191945 201.899191 
L 431.328884 201.430961 
L 436.465823 201.430961 
L 441.602762 201.063531 
L 446.739701 201.063531 
L 451.87664 200.820534 
L 457.013579 200.820534 
L 462.150518 200.820534 
L 467.287457 200.720714 
L 472.424396 202.777104 
L 477.561335 202.777104 
L 482.698274 202.777104 
L 487.835213 202.777104 
L 492.972152 202.664575 
L 498.109091 202.664575 
" style="fill:none;stroke:#1f77b4;stroke-linecap:square;stroke-width:1.5;"/>
   </g>
   <g id="line2d_60">
    <path clip-path="url(#pa1effc9fe8)" d="M 92.290909 245.863606 
L 97.427848 245.58072 
L 102.564787 244.989278 
L 107.701726 244.054325 
L 112.838665 242.766705 
L 117.975604 241.146999 
L 123.112543 239.245981 
L 128.249482 237.141071 
L 133.386421 234.928906 
L 138.52336 232.714724 
L 143.660299 230.600111 
L 148.797238 228.671133 
L 153.934177 226.989086 
L 159.071116 225.58562 
L 164.208055 224.462981 
L 169.344994 223.598831 
L 174.481933 222.9541 
L 179.618872 222.481864 
L 184.755811 222.135464 
L 189.89275 221.874648 
L 195.029689 221.669186 
L 200.166628 221.499937 
L 205.303567 221.35774 
L 210.440506 221.240679 
L 215.577445 221.150446 
L 220.714384 221.088582 
L 225.851323 221.053383 
L 230.988262 221.038119 
L 236.125201 221.030926 
L 241.26214 221.016307 
L 246.399079 220.97778 
L 251.536018 220.900901 
L 256.672957 220.775883 
L 261.809896 220.599173 
L 266.946835 220.373768 
L 272.083774 220.108354 
L 277.220713 219.815693 
L 282.357652 219.510802 
L 287.494591 219.209305 
L 292.63153 218.926283 
L 297.76847 218.675527 
L 302.905409 218.468956 
L 308.042348 218.315758 
L 313.179287 218.220893 
L 318.316226 218.182827 
L 323.453165 218.190804 
L 328.590104 218.2225 
L 333.727043 218.243371 
L 338.863982 218.209041 
L 344.000921 218.071553 
L 349.13786 217.789047 
L 354.274799 217.336788 
L 359.411738 216.715937 
L 364.548677 215.95638 
L 369.685616 215.111489 
L 374.822555 214.245927 
L 379.959494 213.420644 
L 385.096433 212.680256 
L 390.233372 212.046443 
L 395.370311 211.518569 
L 400.50725 211.080406 
L 405.644189 210.710163 
L 410.781128 210.389954 
L 415.918067 210.11137 
L 421.055006 209.875906 
L 426.191945 209.691366 
L 431.328884 209.566805 
L 436.465823 209.508374 
L 441.602762 209.517323 
L 446.739701 209.590196 
L 451.87664 209.72039 
L 457.013579 209.900086 
L 462.150518 210.121772 
L 467.287457 210.37899 
L 472.424396 210.666326 
L 477.561335 210.978944 
L 482.698274 211.312041 
L 487.835213 211.660553 
L 492.972152 212.019313 
L 498.109091 212.383643 
" style="fill:none;stroke:#ff7f0e;stroke-linecap:square;stroke-width:1.5;"/>
   </g>
   <g id="patch_18">
    <path d="M 72 252.63504 
L 72 193.94928 
" style="fill:none;stroke:#000000;stroke-linecap:square;stroke-linejoin:miter;stroke-width:0.8;"/>
   </g>
   <g id="patch_19">
    <path d="M 518.4 252.63504 
L 518.4 193.94928 
" style="fill:none;stroke:#000000;stroke-linecap:square;stroke-linejoin:miter;stroke-width:0.8;"/>
   </g>
   <g id="patch_20">
    <path d="M 72 252.63504 
L 518.4 252.63504 
" style="fill:none;stroke:#000000;stroke-linecap:square;stroke-linejoin:miter;stroke-width:0.8;"/>
   </g>
   <g id="patch_21">
    <path d="M 72 193.94928 
L 518.4 193.94928 
" style="fill:none;stroke:#000000;stroke-linecap:square;stroke-linejoin:miter;stroke-width:0.8;"/>
   </g>
  </g>
  <g id="axes_5">
   <g id="patch_22">
    <path d="M 72 311.3208 
L 518.4 311.3208 
L 518.4 252.63504 
L 72 252.63504 
z
" style="fill:#ffffff;"/>
   </g>
   <g id="matplotlib.axis_9">
    <g id="xtick_37">
     <g id="line2d_61">
      <g>
       <use style="stroke:#000000;stroke-width:0.8;" x="92.290909" xlink:href="#mc616c5cb65" y="311.3208"/>
      </g>
     </g>
     <g id="text_21">
      <!-- 0 -->
      <g transform="translate(89.109659 325.919237)scale(0.1 -0.1)">
       <use xlink:href="#DejaVuSans-30"/>
      </g>
     </g>
    </g>
    <g id="xtick_38">
     <g id="line2d_62">
      <g>
       <use style="stroke:#000000;stroke-width:0.8;" x="143.660299" xlink:href="#mc616c5cb65" y="311.3208"/>
      </g>
     </g>
     <g id="text_22">
      <!-- 10 -->
      <g transform="translate(137.297799 325.919237)scale(0.1 -0.1)">
       <use xlink:href="#DejaVuSans-31"/>
       <use x="63.623047" xlink:href="#DejaVuSans-30"/>
      </g>
     </g>
    </g>
    <g id="xtick_39">
     <g id="line2d_63">
      <g>
       <use style="stroke:#000000;stroke-width:0.8;" x="195.029689" xlink:href="#mc616c5cb65" y="311.3208"/>
      </g>
     </g>
     <g id="text_23">
      <!-- 20 -->
      <g transform="translate(188.667189 325.919237)scale(0.1 -0.1)">
       <use xlink:href="#DejaVuSans-32"/>
       <use x="63.623047" xlink:href="#DejaVuSans-30"/>
      </g>
     </g>
    </g>
    <g id="xtick_40">
     <g id="line2d_64">
      <g>
       <use style="stroke:#000000;stroke-width:0.8;" x="246.399079" xlink:href="#mc616c5cb65" y="311.3208"/>
      </g>
     </g>
     <g id="text_24">
      <!-- 30 -->
      <g transform="translate(240.036579 325.919237)scale(0.1 -0.1)">
       <use xlink:href="#DejaVuSans-33"/>
       <use x="63.623047" xlink:href="#DejaVuSans-30"/>
      </g>
     </g>
    </g>
    <g id="xtick_41">
     <g id="line2d_65">
      <g>
       <use style="stroke:#000000;stroke-width:0.8;" x="297.76847" xlink:href="#mc616c5cb65" y="311.3208"/>
      </g>
     </g>
     <g id="text_25">
      <!-- 40 -->
      <g transform="translate(291.40597 325.919237)scale(0.1 -0.1)">
       <use xlink:href="#DejaVuSans-34"/>
       <use x="63.623047" xlink:href="#DejaVuSans-30"/>
      </g>
     </g>
    </g>
    <g id="xtick_42">
     <g id="line2d_66">
      <g>
       <use style="stroke:#000000;stroke-width:0.8;" x="349.13786" xlink:href="#mc616c5cb65" y="311.3208"/>
      </g>
     </g>
     <g id="text_26">
      <!-- 50 -->
      <g transform="translate(342.77536 325.919237)scale(0.1 -0.1)">
       <use xlink:href="#DejaVuSans-35"/>
       <use x="63.623047" xlink:href="#DejaVuSans-30"/>
      </g>
     </g>
    </g>
    <g id="xtick_43">
     <g id="line2d_67">
      <g>
       <use style="stroke:#000000;stroke-width:0.8;" x="400.50725" xlink:href="#mc616c5cb65" y="311.3208"/>
      </g>
     </g>
     <g id="text_27">
      <!-- 60 -->
      <g transform="translate(394.14475 325.919237)scale(0.1 -0.1)">
       <use xlink:href="#DejaVuSans-36"/>
       <use x="63.623047" xlink:href="#DejaVuSans-30"/>
      </g>
     </g>
    </g>
    <g id="xtick_44">
     <g id="line2d_68">
      <g>
       <use style="stroke:#000000;stroke-width:0.8;" x="451.87664" xlink:href="#mc616c5cb65" y="311.3208"/>
      </g>
     </g>
     <g id="text_28">
      <!-- 70 -->
      <g transform="translate(445.51414 325.919237)scale(0.1 -0.1)">
       <use xlink:href="#DejaVuSans-37"/>
       <use x="63.623047" xlink:href="#DejaVuSans-30"/>
      </g>
     </g>
    </g>
    <g id="xtick_45">
     <g id="line2d_69">
      <g>
       <use style="stroke:#000000;stroke-width:0.8;" x="503.24603" xlink:href="#mc616c5cb65" y="311.3208"/>
      </g>
     </g>
     <g id="text_29">
      <!-- 80 -->
      <g transform="translate(496.88353 325.919237)scale(0.1 -0.1)">
       <use xlink:href="#DejaVuSans-38"/>
       <use x="63.623047" xlink:href="#DejaVuSans-30"/>
      </g>
     </g>
    </g>
   </g>
   <g id="matplotlib.axis_10">
    <g id="ytick_17">
     <g id="line2d_70">
      <g>
       <use style="stroke:#000000;stroke-width:0.8;" x="72" xlink:href="#m8169841db5" y="304.549366"/>
      </g>
     </g>
     <g id="text_30">
      <!-- -10.45 -->
      <g transform="translate(32.764063 308.348585)scale(0.1 -0.1)">
       <use xlink:href="#DejaVuSans-2d"/>
       <use x="36.083984" xlink:href="#DejaVuSans-31"/>
       <use x="99.707031" xlink:href="#DejaVuSans-30"/>
       <use x="163.330078" xlink:href="#DejaVuSans-2e"/>
       <use x="195.117188" xlink:href="#DejaVuSans-34"/>
       <use x="258.740234" xlink:href="#DejaVuSans-35"/>
      </g>
     </g>
    </g>
    <g id="ytick_18">
     <g id="line2d_71">
      <g>
       <use style="stroke:#000000;stroke-width:0.8;" x="72" xlink:href="#m8169841db5" y="289.501735"/>
      </g>
     </g>
     <g id="text_31">
      <!-- -9.68 -->
      <g transform="translate(39.126562 293.300954)scale(0.1 -0.1)">
       <use xlink:href="#DejaVuSans-2d"/>
       <use x="36.083984" xlink:href="#DejaVuSans-39"/>
       <use x="99.707031" xlink:href="#DejaVuSans-2e"/>
       <use x="131.494141" xlink:href="#DejaVuSans-36"/>
       <use x="195.117188" xlink:href="#DejaVuSans-38"/>
      </g>
     </g>
    </g>
    <g id="ytick_19">
     <g id="line2d_72">
      <g>
       <use style="stroke:#000000;stroke-width:0.8;" x="72" xlink:href="#m8169841db5" y="274.454105"/>
      </g>
     </g>
     <g id="text_32">
      <!-- -8.92 -->
      <g transform="translate(39.126562 278.253323)scale(0.1 -0.1)">
       <use xlink:href="#DejaVuSans-2d"/>
       <use x="36.083984" xlink:href="#DejaVuSans-38"/>
       <use x="99.707031" xlink:href="#DejaVuSans-2e"/>
       <use x="131.494141" xlink:href="#DejaVuSans-39"/>
       <use x="195.117188" xlink:href="#DejaVuSans-32"/>
      </g>
     </g>
    </g>
    <g id="ytick_20">
     <g id="line2d_73">
      <g>
       <use style="stroke:#000000;stroke-width:0.8;" x="72" xlink:href="#m8169841db5" y="259.406474"/>
      </g>
     </g>
     <g id="text_33">
      <!-- -8.15 -->
      <g transform="translate(39.126562 263.205693)scale(0.1 -0.1)">
       <use xlink:href="#DejaVuSans-2d"/>
       <use x="36.083984" xlink:href="#DejaVuSans-38"/>
       <use x="99.707031" xlink:href="#DejaVuSans-2e"/>
       <use x="131.494141" xlink:href="#DejaVuSans-31"/>
       <use x="195.117188" xlink:href="#DejaVuSans-35"/>
      </g>
     </g>
    </g>
    <g id="text_34">
     <!-- $s_{92}$ -->
     <g transform="translate(26.684375 289.17792)rotate(-90)scale(0.1 -0.1)">
      <use xlink:href="#DejaVuSans-Oblique-73"/>
      <use transform="translate(52.099609 -16.40625)scale(0.7)" xlink:href="#DejaVuSans-39"/>
      <use transform="translate(96.624805 -16.40625)scale(0.7)" xlink:href="#DejaVuSans-32"/>
     </g>
    </g>
   </g>
   <g id="line2d_74">
    <path clip-path="url(#pfa122b027f)" d="M 92.290909 303.545822 
L 97.427848 303.545822 
L 102.564787 302.650339 
L 107.701726 302.650339 
L 112.838665 299.767396 
L 117.975604 299.767396 
L 123.112543 296.66209 
L 128.249482 296.66209 
L 133.386421 293.32829 
L 138.52336 289.765489 
L 143.660299 285.978222 
L 148.797238 285.050782 
L 153.934177 281.040543 
L 159.071116 276.827827 
L 164.208055 272.427932 
L 169.344994 267.858351 
L 174.481933 266.925111 
L 179.618872 262.199388 
L 184.755811 262.199388 
L 189.89275 261.284754 
L 195.029689 261.284754 
L 200.166628 261.284754 
L 205.303567 261.284754 
L 210.440506 260.397772 
L 215.577445 260.397772 
L 220.714384 265.134688 
L 225.851323 264.284208 
L 230.988262 264.284208 
L 236.125201 268.877425 
L 241.26214 268.066488 
L 246.399079 272.497852 
L 251.536018 272.497852 
L 256.672957 271.728881 
L 261.809896 271.728881 
L 266.946835 275.256661 
L 272.083774 275.256661 
L 277.220713 275.256661 
L 282.357652 274.569213 
L 287.494591 274.569213 
L 292.63153 278.636657 
L 297.76847 277.993632 
L 302.905409 277.993632 
L 308.042348 281.857889 
L 313.179287 281.857889 
L 318.316226 284.91226 
L 323.453165 284.91226 
L 328.590104 288.344934 
L 333.727043 291.016354 
L 338.863982 291.016354 
L 344.000921 294.025059 
L 349.13786 296.83412 
L 354.274799 296.342162 
L 359.411738 298.980153 
L 364.548677 298.980153 
L 369.685616 301.462613 
L 374.822555 301.462613 
L 379.959494 301.462613 
L 385.096433 301.018467 
L 390.233372 298.525901 
L 395.370311 298.525901 
L 400.50725 295.878514 
L 405.644189 295.878514 
L 410.781128 293.051604 
L 415.918067 290.026342 
L 421.055006 290.026342 
L 426.191945 286.789899 
L 431.328884 283.335293 
L 436.465823 283.335293 
L 441.602762 279.661009 
L 446.739701 279.661009 
L 451.87664 275.770459 
L 457.013579 275.770459 
L 462.150518 275.770459 
L 467.287457 271.671347 
L 472.424396 272.185461 
L 477.561335 272.185461 
L 482.698274 272.185461 
L 487.835213 272.185461 
L 492.972152 267.895042 
L 498.109091 267.895042 
" style="fill:none;stroke:#1f77b4;stroke-linecap:square;stroke-width:1.5;"/>
   </g>
   <g id="line2d_75">
    <path clip-path="url(#pfa122b027f)" d="M 92.290909 304.549366 
L 97.427848 304.34241 
L 102.564787 303.90257 
L 107.701726 303.18556 
L 112.838665 302.150606 
L 117.975604 300.761581 
L 123.112543 298.989052 
L 128.249482 296.813723 
L 133.386421 294.23145 
L 138.52336 291.259238 
L 143.660299 287.94083 
L 148.797238 284.349972 
L 153.934177 280.589648 
L 159.071116 276.786541 
L 164.208055 273.08133 
L 169.344994 269.616522 
L 174.481933 266.524002 
L 179.618872 263.914228 
L 184.755811 261.868257 
L 189.89275 260.433079 
L 195.029689 259.620112 
L 200.166628 259.406474 
L 205.303567 259.738546 
L 210.440506 260.537452 
L 215.577445 261.706024 
L 220.714384 263.136787 
L 225.851323 264.720343 
L 230.988262 266.353401 
L 236.125201 267.945701 
L 241.26214 269.425235 
L 246.399079 270.741484 
L 251.536018 271.866697 
L 256.672957 272.795505 
L 261.809896 273.543304 
L 266.946835 274.143681 
L 272.083774 274.645117 
L 277.220713 275.106986 
L 282.357652 275.594854 
L 287.494591 276.175101 
L 292.63153 276.909064 
L 297.76847 277.847073 
L 302.905409 279.022979 
L 308.042348 280.449855 
L 313.179287 282.117607 
L 318.316226 283.993094 
L 323.453165 286.023028 
L 328.590104 288.13946 
L 333.727043 290.267015 
L 338.863982 292.330514 
L 344.000921 294.261423 
L 349.13786 296.001882 
L 354.274799 297.505813 
L 359.411738 298.73788 
L 364.548677 299.671406 
L 369.685616 300.286603 
L 374.822555 300.569773 
L 379.959494 300.513368 
L 385.096433 300.116326 
L 390.233372 299.384169 
L 395.370311 298.328826 
L 400.50725 296.968635 
L 405.644189 295.329109 
L 410.781128 293.444605 
L 415.918067 291.360366 
L 421.055006 289.133661 
L 426.191945 286.832801 
L 431.328884 284.533317 
L 436.465823 282.311645 
L 441.602762 280.237509 
L 446.739701 278.366553 
L 451.87664 276.734617 
L 457.013579 275.354556 
L 462.150518 274.215834 
L 467.287457 273.286695 
L 472.424396 272.518313 
L 477.561335 271.850207 
L 482.698274 271.216234 
L 487.835213 270.550515 
L 492.972152 269.792944 
L 498.109091 268.894019 
" style="fill:none;stroke:#ff7f0e;stroke-linecap:square;stroke-width:1.5;"/>
   </g>
   <g id="patch_23">
    <path d="M 72 311.3208 
L 72 252.63504 
" style="fill:none;stroke:#000000;stroke-linecap:square;stroke-linejoin:miter;stroke-width:0.8;"/>
   </g>
   <g id="patch_24">
    <path d="M 518.4 311.3208 
L 518.4 252.63504 
" style="fill:none;stroke:#000000;stroke-linecap:square;stroke-linejoin:miter;stroke-width:0.8;"/>
   </g>
   <g id="patch_25">
    <path d="M 72 311.3208 
L 518.4 311.3208 
" style="fill:none;stroke:#000000;stroke-linecap:square;stroke-linejoin:miter;stroke-width:0.8;"/>
   </g>
   <g id="patch_26">
    <path d="M 72 252.63504 
L 518.4 252.63504 
" style="fill:none;stroke:#000000;stroke-linecap:square;stroke-linejoin:miter;stroke-width:0.8;"/>
   </g>
  </g>
  <g id="legend_1">
   <g id="patch_27">
    <path d="M 190.564063 352.84 
L 385.435938 352.84 
Q 387.435938 352.84 387.435938 350.84 
L 387.435938 337.161875 
Q 387.435938 335.161875 385.435938 335.161875 
L 190.564063 335.161875 
Q 188.564063 335.161875 188.564063 337.161875 
L 188.564063 350.84 
Q 188.564063 352.84 190.564063 352.84 
z
" style="fill:#ffffff;opacity:0.8;stroke:#cccccc;stroke-linejoin:miter;"/>
   </g>
   <g id="line2d_76">
    <path d="M 192.564063 343.260312 
L 212.564063 343.260312 
" style="fill:none;stroke:#1f77b4;stroke-linecap:square;stroke-width:1.5;"/>
   </g>
   <g id="line2d_77"/>
   <g id="text_35">
    <!-- Prediction -->
    <defs>
     <path d="M 19.671875 64.796875 
L 19.671875 37.40625 
L 32.078125 37.40625 
Q 38.96875 37.40625 42.71875 40.96875 
Q 46.484375 44.53125 46.484375 51.125 
Q 46.484375 57.671875 42.71875 61.234375 
Q 38.96875 64.796875 32.078125 64.796875 
z
M 9.8125 72.90625 
L 32.078125 72.90625 
Q 44.34375 72.90625 50.609375 67.359375 
Q 56.890625 61.8125 56.890625 51.125 
Q 56.890625 40.328125 50.609375 34.8125 
Q 44.34375 29.296875 32.078125 29.296875 
L 19.671875 29.296875 
L 19.671875 0 
L 9.8125 0 
z
" id="DejaVuSans-50"/>
     <path d="M 41.109375 46.296875 
Q 39.59375 47.171875 37.8125 47.578125 
Q 36.03125 48 33.890625 48 
Q 26.265625 48 22.1875 43.046875 
Q 18.109375 38.09375 18.109375 28.8125 
L 18.109375 0 
L 9.078125 0 
L 9.078125 54.6875 
L 18.109375 54.6875 
L 18.109375 46.1875 
Q 20.953125 51.171875 25.484375 53.578125 
Q 30.03125 56 36.53125 56 
Q 37.453125 56 38.578125 55.875 
Q 39.703125 55.765625 41.0625 55.515625 
z
" id="DejaVuSans-72"/>
     <path d="M 56.203125 29.59375 
L 56.203125 25.203125 
L 14.890625 25.203125 
Q 15.484375 15.921875 20.484375 11.0625 
Q 25.484375 6.203125 34.421875 6.203125 
Q 39.59375 6.203125 44.453125 7.46875 
Q 49.3125 8.734375 54.109375 11.28125 
L 54.109375 2.78125 
Q 49.265625 0.734375 44.1875 -0.34375 
Q 39.109375 -1.421875 33.890625 -1.421875 
Q 20.796875 -1.421875 13.15625 6.1875 
Q 5.515625 13.8125 5.515625 26.8125 
Q 5.515625 40.234375 12.765625 48.109375 
Q 20.015625 56 32.328125 56 
Q 43.359375 56 49.78125 48.890625 
Q 56.203125 41.796875 56.203125 29.59375 
z
M 47.21875 32.234375 
Q 47.125 39.59375 43.09375 43.984375 
Q 39.0625 48.390625 32.421875 48.390625 
Q 24.90625 48.390625 20.390625 44.140625 
Q 15.875 39.890625 15.1875 32.171875 
z
" id="DejaVuSans-65"/>
     <path d="M 45.40625 46.390625 
L 45.40625 75.984375 
L 54.390625 75.984375 
L 54.390625 0 
L 45.40625 0 
L 45.40625 8.203125 
Q 42.578125 3.328125 38.25 0.953125 
Q 33.9375 -1.421875 27.875 -1.421875 
Q 17.96875 -1.421875 11.734375 6.484375 
Q 5.515625 14.40625 5.515625 27.296875 
Q 5.515625 40.1875 11.734375 48.09375 
Q 17.96875 56 27.875 56 
Q 33.9375 56 38.25 53.625 
Q 42.578125 51.265625 45.40625 46.390625 
z
M 14.796875 27.296875 
Q 14.796875 17.390625 18.875 11.75 
Q 22.953125 6.109375 30.078125 6.109375 
Q 37.203125 6.109375 41.296875 11.75 
Q 45.40625 17.390625 45.40625 27.296875 
Q 45.40625 37.203125 41.296875 42.84375 
Q 37.203125 48.484375 30.078125 48.484375 
Q 22.953125 48.484375 18.875 42.84375 
Q 14.796875 37.203125 14.796875 27.296875 
z
" id="DejaVuSans-64"/>
     <path d="M 9.421875 54.6875 
L 18.40625 54.6875 
L 18.40625 0 
L 9.421875 0 
z
M 9.421875 75.984375 
L 18.40625 75.984375 
L 18.40625 64.59375 
L 9.421875 64.59375 
z
" id="DejaVuSans-69"/>
     <path d="M 48.78125 52.59375 
L 48.78125 44.1875 
Q 44.96875 46.296875 41.140625 47.34375 
Q 37.3125 48.390625 33.40625 48.390625 
Q 24.65625 48.390625 19.8125 42.84375 
Q 14.984375 37.3125 14.984375 27.296875 
Q 14.984375 17.28125 19.8125 11.734375 
Q 24.65625 6.203125 33.40625 6.203125 
Q 37.3125 6.203125 41.140625 7.25 
Q 44.96875 8.296875 48.78125 10.40625 
L 48.78125 2.09375 
Q 45.015625 0.34375 40.984375 -0.53125 
Q 36.96875 -1.421875 32.421875 -1.421875 
Q 20.0625 -1.421875 12.78125 6.34375 
Q 5.515625 14.109375 5.515625 27.296875 
Q 5.515625 40.671875 12.859375 48.328125 
Q 20.21875 56 33.015625 56 
Q 37.15625 56 41.109375 55.140625 
Q 45.0625 54.296875 48.78125 52.59375 
z
" id="DejaVuSans-63"/>
     <path d="M 18.3125 70.21875 
L 18.3125 54.6875 
L 36.8125 54.6875 
L 36.8125 47.703125 
L 18.3125 47.703125 
L 18.3125 18.015625 
Q 18.3125 11.328125 20.140625 9.421875 
Q 21.96875 7.515625 27.59375 7.515625 
L 36.8125 7.515625 
L 36.8125 0 
L 27.59375 0 
Q 17.1875 0 13.234375 3.875 
Q 9.28125 7.765625 9.28125 18.015625 
L 9.28125 47.703125 
L 2.6875 47.703125 
L 2.6875 54.6875 
L 9.28125 54.6875 
L 9.28125 70.21875 
z
" id="DejaVuSans-74"/>
     <path d="M 30.609375 48.390625 
Q 23.390625 48.390625 19.1875 42.75 
Q 14.984375 37.109375 14.984375 27.296875 
Q 14.984375 17.484375 19.15625 11.84375 
Q 23.34375 6.203125 30.609375 6.203125 
Q 37.796875 6.203125 41.984375 11.859375 
Q 46.1875 17.53125 46.1875 27.296875 
Q 46.1875 37.015625 41.984375 42.703125 
Q 37.796875 48.390625 30.609375 48.390625 
z
M 30.609375 56 
Q 42.328125 56 49.015625 48.375 
Q 55.71875 40.765625 55.71875 27.296875 
Q 55.71875 13.875 49.015625 6.21875 
Q 42.328125 -1.421875 30.609375 -1.421875 
Q 18.84375 -1.421875 12.171875 6.21875 
Q 5.515625 13.875 5.515625 27.296875 
Q 5.515625 40.765625 12.171875 48.375 
Q 18.84375 56 30.609375 56 
z
" id="DejaVuSans-6f"/>
     <path d="M 54.890625 33.015625 
L 54.890625 0 
L 45.90625 0 
L 45.90625 32.71875 
Q 45.90625 40.484375 42.875 44.328125 
Q 39.84375 48.1875 33.796875 48.1875 
Q 26.515625 48.1875 22.3125 43.546875 
Q 18.109375 38.921875 18.109375 30.90625 
L 18.109375 0 
L 9.078125 0 
L 9.078125 54.6875 
L 18.109375 54.6875 
L 18.109375 46.1875 
Q 21.34375 51.125 25.703125 53.5625 
Q 30.078125 56 35.796875 56 
Q 45.21875 56 50.046875 50.171875 
Q 54.890625 44.34375 54.890625 33.015625 
z
" id="DejaVuSans-6e"/>
    </defs>
    <g transform="translate(220.564063 346.760312)scale(0.1 -0.1)">
     <use xlink:href="#DejaVuSans-50"/>
     <use x="60.287109" xlink:href="#DejaVuSans-72"/>
     <use x="101.369141" xlink:href="#DejaVuSans-65"/>
     <use x="162.892578" xlink:href="#DejaVuSans-64"/>
     <use x="226.369141" xlink:href="#DejaVuSans-69"/>
     <use x="254.152344" xlink:href="#DejaVuSans-63"/>
     <use x="309.132812" xlink:href="#DejaVuSans-74"/>
     <use x="348.341797" xlink:href="#DejaVuSans-69"/>
     <use x="376.125" xlink:href="#DejaVuSans-6f"/>
     <use x="437.306641" xlink:href="#DejaVuSans-6e"/>
    </g>
   </g>
   <g id="line2d_78">
    <path d="M 290.632812 343.260312 
L 310.632812 343.260312 
" style="fill:none;stroke:#ff7f0e;stroke-linecap:square;stroke-width:1.5;"/>
   </g>
   <g id="line2d_79"/>
   <g id="text_36">
    <!-- Ground truth -->
    <defs>
     <path d="M 59.515625 10.40625 
L 59.515625 29.984375 
L 43.40625 29.984375 
L 43.40625 38.09375 
L 69.28125 38.09375 
L 69.28125 6.78125 
Q 63.578125 2.734375 56.6875 0.65625 
Q 49.8125 -1.421875 42 -1.421875 
Q 24.90625 -1.421875 15.25 8.5625 
Q 5.609375 18.5625 5.609375 36.375 
Q 5.609375 54.25 15.25 64.234375 
Q 24.90625 74.21875 42 74.21875 
Q 49.125 74.21875 55.546875 72.453125 
Q 61.96875 70.703125 67.390625 67.28125 
L 67.390625 56.78125 
Q 61.921875 61.421875 55.765625 63.765625 
Q 49.609375 66.109375 42.828125 66.109375 
Q 29.4375 66.109375 22.71875 58.640625 
Q 16.015625 51.171875 16.015625 36.375 
Q 16.015625 21.625 22.71875 14.15625 
Q 29.4375 6.6875 42.828125 6.6875 
Q 48.046875 6.6875 52.140625 7.59375 
Q 56.25 8.5 59.515625 10.40625 
z
" id="DejaVuSans-47"/>
     <path d="M 8.5 21.578125 
L 8.5 54.6875 
L 17.484375 54.6875 
L 17.484375 21.921875 
Q 17.484375 14.15625 20.5 10.265625 
Q 23.53125 6.390625 29.59375 6.390625 
Q 36.859375 6.390625 41.078125 11.03125 
Q 45.3125 15.671875 45.3125 23.6875 
L 45.3125 54.6875 
L 54.296875 54.6875 
L 54.296875 0 
L 45.3125 0 
L 45.3125 8.40625 
Q 42.046875 3.421875 37.71875 1 
Q 33.40625 -1.421875 27.6875 -1.421875 
Q 18.265625 -1.421875 13.375 4.4375 
Q 8.5 10.296875 8.5 21.578125 
z
M 31.109375 56 
z
" id="DejaVuSans-75"/>
     <path id="DejaVuSans-20"/>
     <path d="M 54.890625 33.015625 
L 54.890625 0 
L 45.90625 0 
L 45.90625 32.71875 
Q 45.90625 40.484375 42.875 44.328125 
Q 39.84375 48.1875 33.796875 48.1875 
Q 26.515625 48.1875 22.3125 43.546875 
Q 18.109375 38.921875 18.109375 30.90625 
L 18.109375 0 
L 9.078125 0 
L 9.078125 75.984375 
L 18.109375 75.984375 
L 18.109375 46.1875 
Q 21.34375 51.125 25.703125 53.5625 
Q 30.078125 56 35.796875 56 
Q 45.21875 56 50.046875 50.171875 
Q 54.890625 44.34375 54.890625 33.015625 
z
" id="DejaVuSans-68"/>
    </defs>
    <g transform="translate(318.632812 346.760312)scale(0.1 -0.1)">
     <use xlink:href="#DejaVuSans-47"/>
     <use x="77.490234" xlink:href="#DejaVuSans-72"/>
     <use x="118.572266" xlink:href="#DejaVuSans-6f"/>
     <use x="179.753906" xlink:href="#DejaVuSans-75"/>
     <use x="243.132812" xlink:href="#DejaVuSans-6e"/>
     <use x="306.511719" xlink:href="#DejaVuSans-64"/>
     <use x="369.988281" xlink:href="#DejaVuSans-20"/>
     <use x="401.775391" xlink:href="#DejaVuSans-74"/>
     <use x="440.984375" xlink:href="#DejaVuSans-72"/>
     <use x="482.097656" xlink:href="#DejaVuSans-75"/>
     <use x="545.476562" xlink:href="#DejaVuSans-74"/>
     <use x="584.685547" xlink:href="#DejaVuSans-68"/>
    </g>
   </g>
  </g>
 </g>
 <defs>
  <clipPath id="p6be3d48cc5">
   <rect height="58.68576" width="446.4" x="72" y="17.892"/>
  </clipPath>
  <clipPath id="p682c33b4f8">
   <rect height="58.68576" width="446.4" x="72" y="76.57776"/>
  </clipPath>
  <clipPath id="pa4a173655b">
   <rect height="58.68576" width="446.4" x="72" y="135.26352"/>
  </clipPath>
  <clipPath id="pa1effc9fe8">
   <rect height="58.68576" width="446.4" x="72" y="193.94928"/>
  </clipPath>
  <clipPath id="pfa122b027f">
   <rect height="58.68576" width="446.4" x="72" y="252.63504"/>
  </clipPath>
 </defs>
</svg>
