<?xml version="1.0" encoding="utf-8" standalone="no"?>
<!DOCTYPE svg PUBLIC "-//W3C//DTD SVG 1.1//EN"
  "http://www.w3.org/Graphics/SVG/1.1/DTD/svg11.dtd">
<!-- Created with matplotlib (http://matplotlib.org/) -->
<svg height="353pt" version="1.1" viewBox="0 0 576 353" width="576pt" xmlns="http://www.w3.org/2000/svg" xmlns:xlink="http://www.w3.org/1999/xlink">
 <defs>
  <style type="text/css">
*{stroke-linecap:butt;stroke-linejoin:round;}
  </style>
 </defs>
 <g id="figure_1">
  <g id="patch_1">
   <path d="M 0 353.52 
L 576 353.52 
L 576 0 
L 0 0 
z
" style="fill:#ffffff;"/>
  </g>
  <g id="axes_1">
   <g id="patch_2">
    <path d="M 72 75.65328 
L 518.4 75.65328 
L 518.4 17.676 
L 72 17.676 
z
" style="fill:#ffffff;"/>
   </g>
   <g id="matplotlib.axis_1">
    <g id="xtick_1">
     <g id="line2d_1">
      <defs>
       <path d="M 0 0 
L 0 3.5 
" id="m16035ad4d5" style="stroke:#000000;stroke-width:0.8;"/>
      </defs>
      <g>
       <use style="stroke:#000000;stroke-width:0.8;" x="92.290909" xlink:href="#m16035ad4d5" y="75.65328"/>
      </g>
     </g>
    </g>
    <g id="xtick_2">
     <g id="line2d_2">
      <g>
       <use style="stroke:#000000;stroke-width:0.8;" x="143.660299" xlink:href="#m16035ad4d5" y="75.65328"/>
      </g>
     </g>
    </g>
    <g id="xtick_3">
     <g id="line2d_3">
      <g>
       <use style="stroke:#000000;stroke-width:0.8;" x="195.029689" xlink:href="#m16035ad4d5" y="75.65328"/>
      </g>
     </g>
    </g>
    <g id="xtick_4">
     <g id="line2d_4">
      <g>
       <use style="stroke:#000000;stroke-width:0.8;" x="246.399079" xlink:href="#m16035ad4d5" y="75.65328"/>
      </g>
     </g>
    </g>
    <g id="xtick_5">
     <g id="line2d_5">
      <g>
       <use style="stroke:#000000;stroke-width:0.8;" x="297.76847" xlink:href="#m16035ad4d5" y="75.65328"/>
      </g>
     </g>
    </g>
    <g id="xtick_6">
     <g id="line2d_6">
      <g>
       <use style="stroke:#000000;stroke-width:0.8;" x="349.13786" xlink:href="#m16035ad4d5" y="75.65328"/>
      </g>
     </g>
    </g>
    <g id="xtick_7">
     <g id="line2d_7">
      <g>
       <use style="stroke:#000000;stroke-width:0.8;" x="400.50725" xlink:href="#m16035ad4d5" y="75.65328"/>
      </g>
     </g>
    </g>
    <g id="xtick_8">
     <g id="line2d_8">
      <g>
       <use style="stroke:#000000;stroke-width:0.8;" x="451.87664" xlink:href="#m16035ad4d5" y="75.65328"/>
      </g>
     </g>
    </g>
    <g id="xtick_9">
     <g id="line2d_9">
      <g>
       <use style="stroke:#000000;stroke-width:0.8;" x="503.24603" xlink:href="#m16035ad4d5" y="75.65328"/>
      </g>
     </g>
    </g>
   </g>
   <g id="matplotlib.axis_2">
    <g id="ytick_1">
     <g id="line2d_10">
      <defs>
       <path d="M 0 0 
L -3.5 0 
" id="mfa5f80a1a3" style="stroke:#000000;stroke-width:0.8;"/>
      </defs>
      <g>
       <use style="stroke:#000000;stroke-width:0.8;" x="72" xlink:href="#mfa5f80a1a3" y="68.963594"/>
      </g>
     </g>
     <g id="text_1">
      <!-- -0.59 -->
      <defs>
       <path d="M 4.890625 31.390625 
L 31.203125 31.390625 
L 31.203125 23.390625 
L 4.890625 23.390625 
z
" id="DejaVuSans-2d"/>
       <path d="M 31.78125 66.40625 
Q 24.171875 66.40625 20.328125 58.90625 
Q 16.5 51.421875 16.5 36.375 
Q 16.5 21.390625 20.328125 13.890625 
Q 24.171875 6.390625 31.78125 6.390625 
Q 39.453125 6.390625 43.28125 13.890625 
Q 47.125 21.390625 47.125 36.375 
Q 47.125 51.421875 43.28125 58.90625 
Q 39.453125 66.40625 31.78125 66.40625 
z
M 31.78125 74.21875 
Q 44.046875 74.21875 50.515625 64.515625 
Q 56.984375 54.828125 56.984375 36.375 
Q 56.984375 17.96875 50.515625 8.265625 
Q 44.046875 -1.421875 31.78125 -1.421875 
Q 19.53125 -1.421875 13.0625 8.265625 
Q 6.59375 17.96875 6.59375 36.375 
Q 6.59375 54.828125 13.0625 64.515625 
Q 19.53125 74.21875 31.78125 74.21875 
z
" id="DejaVuSans-30"/>
       <path d="M 10.6875 12.40625 
L 21 12.40625 
L 21 0 
L 10.6875 0 
z
" id="DejaVuSans-2e"/>
       <path d="M 10.796875 72.90625 
L 49.515625 72.90625 
L 49.515625 64.59375 
L 19.828125 64.59375 
L 19.828125 46.734375 
Q 21.96875 47.46875 24.109375 47.828125 
Q 26.265625 48.1875 28.421875 48.1875 
Q 40.625 48.1875 47.75 41.5 
Q 54.890625 34.8125 54.890625 23.390625 
Q 54.890625 11.625 47.5625 5.09375 
Q 40.234375 -1.421875 26.90625 -1.421875 
Q 22.3125 -1.421875 17.546875 -0.640625 
Q 12.796875 0.140625 7.71875 1.703125 
L 7.71875 11.625 
Q 12.109375 9.234375 16.796875 8.0625 
Q 21.484375 6.890625 26.703125 6.890625 
Q 35.15625 6.890625 40.078125 11.328125 
Q 45.015625 15.765625 45.015625 23.390625 
Q 45.015625 31 40.078125 35.4375 
Q 35.15625 39.890625 26.703125 39.890625 
Q 22.75 39.890625 18.8125 39.015625 
Q 14.890625 38.140625 10.796875 36.28125 
z
" id="DejaVuSans-35"/>
       <path d="M 10.984375 1.515625 
L 10.984375 10.5 
Q 14.703125 8.734375 18.5 7.8125 
Q 22.3125 6.890625 25.984375 6.890625 
Q 35.75 6.890625 40.890625 13.453125 
Q 46.046875 20.015625 46.78125 33.40625 
Q 43.953125 29.203125 39.59375 26.953125 
Q 35.25 24.703125 29.984375 24.703125 
Q 19.046875 24.703125 12.671875 31.3125 
Q 6.296875 37.9375 6.296875 49.421875 
Q 6.296875 60.640625 12.9375 67.421875 
Q 19.578125 74.21875 30.609375 74.21875 
Q 43.265625 74.21875 49.921875 64.515625 
Q 56.59375 54.828125 56.59375 36.375 
Q 56.59375 19.140625 48.40625 8.859375 
Q 40.234375 -1.421875 26.421875 -1.421875 
Q 22.703125 -1.421875 18.890625 -0.6875 
Q 15.09375 0.046875 10.984375 1.515625 
z
M 30.609375 32.421875 
Q 37.25 32.421875 41.125 36.953125 
Q 45.015625 41.5 45.015625 49.421875 
Q 45.015625 57.28125 41.125 61.84375 
Q 37.25 66.40625 30.609375 66.40625 
Q 23.96875 66.40625 20.09375 61.84375 
Q 16.21875 57.28125 16.21875 49.421875 
Q 16.21875 41.5 20.09375 36.953125 
Q 23.96875 32.421875 30.609375 32.421875 
z
" id="DejaVuSans-39"/>
      </defs>
      <g transform="translate(39.126562 72.762813)scale(0.1 -0.1)">
       <use xlink:href="#DejaVuSans-2d"/>
       <use x="36.083984" xlink:href="#DejaVuSans-30"/>
       <use x="99.707031" xlink:href="#DejaVuSans-2e"/>
       <use x="131.494141" xlink:href="#DejaVuSans-35"/>
       <use x="195.117188" xlink:href="#DejaVuSans-39"/>
      </g>
     </g>
    </g>
    <g id="ytick_2">
     <g id="line2d_11">
      <g>
       <use style="stroke:#000000;stroke-width:0.8;" x="72" xlink:href="#mfa5f80a1a3" y="54.097625"/>
      </g>
     </g>
     <g id="text_2">
      <!-- -0.43 -->
      <defs>
       <path d="M 37.796875 64.3125 
L 12.890625 25.390625 
L 37.796875 25.390625 
z
M 35.203125 72.90625 
L 47.609375 72.90625 
L 47.609375 25.390625 
L 58.015625 25.390625 
L 58.015625 17.1875 
L 47.609375 17.1875 
L 47.609375 0 
L 37.796875 0 
L 37.796875 17.1875 
L 4.890625 17.1875 
L 4.890625 26.703125 
z
" id="DejaVuSans-34"/>
       <path d="M 40.578125 39.3125 
Q 47.65625 37.796875 51.625 33 
Q 55.609375 28.21875 55.609375 21.1875 
Q 55.609375 10.40625 48.1875 4.484375 
Q 40.765625 -1.421875 27.09375 -1.421875 
Q 22.515625 -1.421875 17.65625 -0.515625 
Q 12.796875 0.390625 7.625 2.203125 
L 7.625 11.71875 
Q 11.71875 9.328125 16.59375 8.109375 
Q 21.484375 6.890625 26.8125 6.890625 
Q 36.078125 6.890625 40.9375 10.546875 
Q 45.796875 14.203125 45.796875 21.1875 
Q 45.796875 27.640625 41.28125 31.265625 
Q 36.765625 34.90625 28.71875 34.90625 
L 20.21875 34.90625 
L 20.21875 43.015625 
L 29.109375 43.015625 
Q 36.375 43.015625 40.234375 45.921875 
Q 44.09375 48.828125 44.09375 54.296875 
Q 44.09375 59.90625 40.109375 62.90625 
Q 36.140625 65.921875 28.71875 65.921875 
Q 24.65625 65.921875 20.015625 65.03125 
Q 15.375 64.15625 9.8125 62.3125 
L 9.8125 71.09375 
Q 15.4375 72.65625 20.34375 73.4375 
Q 25.25 74.21875 29.59375 74.21875 
Q 40.828125 74.21875 47.359375 69.109375 
Q 53.90625 64.015625 53.90625 55.328125 
Q 53.90625 49.265625 50.4375 45.09375 
Q 46.96875 40.921875 40.578125 39.3125 
z
" id="DejaVuSans-33"/>
      </defs>
      <g transform="translate(39.126562 57.896843)scale(0.1 -0.1)">
       <use xlink:href="#DejaVuSans-2d"/>
       <use x="36.083984" xlink:href="#DejaVuSans-30"/>
       <use x="99.707031" xlink:href="#DejaVuSans-2e"/>
       <use x="131.494141" xlink:href="#DejaVuSans-34"/>
       <use x="195.117188" xlink:href="#DejaVuSans-33"/>
      </g>
     </g>
    </g>
    <g id="ytick_3">
     <g id="line2d_12">
      <g>
       <use style="stroke:#000000;stroke-width:0.8;" x="72" xlink:href="#mfa5f80a1a3" y="39.231655"/>
      </g>
     </g>
     <g id="text_3">
      <!-- -0.27 -->
      <defs>
       <path d="M 19.1875 8.296875 
L 53.609375 8.296875 
L 53.609375 0 
L 7.328125 0 
L 7.328125 8.296875 
Q 12.9375 14.109375 22.625 23.890625 
Q 32.328125 33.6875 34.8125 36.53125 
Q 39.546875 41.84375 41.421875 45.53125 
Q 43.3125 49.21875 43.3125 52.78125 
Q 43.3125 58.59375 39.234375 62.25 
Q 35.15625 65.921875 28.609375 65.921875 
Q 23.96875 65.921875 18.8125 64.3125 
Q 13.671875 62.703125 7.8125 59.421875 
L 7.8125 69.390625 
Q 13.765625 71.78125 18.9375 73 
Q 24.125 74.21875 28.421875 74.21875 
Q 39.75 74.21875 46.484375 68.546875 
Q 53.21875 62.890625 53.21875 53.421875 
Q 53.21875 48.921875 51.53125 44.890625 
Q 49.859375 40.875 45.40625 35.40625 
Q 44.1875 33.984375 37.640625 27.21875 
Q 31.109375 20.453125 19.1875 8.296875 
z
" id="DejaVuSans-32"/>
       <path d="M 8.203125 72.90625 
L 55.078125 72.90625 
L 55.078125 68.703125 
L 28.609375 0 
L 18.3125 0 
L 43.21875 64.59375 
L 8.203125 64.59375 
z
" id="DejaVuSans-37"/>
      </defs>
      <g transform="translate(39.126562 43.030874)scale(0.1 -0.1)">
       <use xlink:href="#DejaVuSans-2d"/>
       <use x="36.083984" xlink:href="#DejaVuSans-30"/>
       <use x="99.707031" xlink:href="#DejaVuSans-2e"/>
       <use x="131.494141" xlink:href="#DejaVuSans-32"/>
       <use x="195.117188" xlink:href="#DejaVuSans-37"/>
      </g>
     </g>
    </g>
    <g id="ytick_4">
     <g id="line2d_13">
      <g>
       <use style="stroke:#000000;stroke-width:0.8;" x="72" xlink:href="#mfa5f80a1a3" y="24.365686"/>
      </g>
     </g>
     <g id="text_4">
      <!-- -0.11 -->
      <defs>
       <path d="M 12.40625 8.296875 
L 28.515625 8.296875 
L 28.515625 63.921875 
L 10.984375 60.40625 
L 10.984375 69.390625 
L 28.421875 72.90625 
L 38.28125 72.90625 
L 38.28125 8.296875 
L 54.390625 8.296875 
L 54.390625 0 
L 12.40625 0 
z
" id="DejaVuSans-31"/>
      </defs>
      <g transform="translate(39.126562 28.164905)scale(0.1 -0.1)">
       <use xlink:href="#DejaVuSans-2d"/>
       <use x="36.083984" xlink:href="#DejaVuSans-30"/>
       <use x="99.707031" xlink:href="#DejaVuSans-2e"/>
       <use x="131.494141" xlink:href="#DejaVuSans-31"/>
       <use x="195.117188" xlink:href="#DejaVuSans-31"/>
      </g>
     </g>
    </g>
    <g id="text_5">
     <!-- $s_{1}$ -->
     <defs>
      <path d="M 50 53.078125 
L 48.296875 44.578125 
Q 44.734375 46.53125 40.765625 47.5 
Q 36.8125 48.484375 32.625 48.484375 
Q 25.53125 48.484375 21.453125 46.0625 
Q 17.390625 43.65625 17.390625 39.5 
Q 17.390625 34.671875 26.859375 32.078125 
Q 27.59375 31.890625 27.9375 31.78125 
L 30.8125 30.90625 
Q 39.796875 28.421875 42.796875 25.6875 
Q 45.796875 22.953125 45.796875 18.21875 
Q 45.796875 9.515625 38.890625 4.046875 
Q 31.984375 -1.421875 20.796875 -1.421875 
Q 16.453125 -1.421875 11.671875 -0.578125 
Q 6.890625 0.25 1.125 2 
L 2.875 11.28125 
Q 7.8125 8.734375 12.59375 7.421875 
Q 17.390625 6.109375 21.78125 6.109375 
Q 28.375 6.109375 32.5 8.9375 
Q 36.625 11.765625 36.625 16.109375 
Q 36.625 20.796875 25.78125 23.6875 
L 24.859375 23.921875 
L 21.78125 24.703125 
Q 14.9375 26.515625 11.765625 29.46875 
Q 8.59375 32.421875 8.59375 37.015625 
Q 8.59375 45.75 15.15625 50.875 
Q 21.734375 56 33.015625 56 
Q 37.453125 56 41.671875 55.265625 
Q 45.90625 54.546875 50 53.078125 
z
" id="DejaVuSans-Oblique-73"/>
     </defs>
     <g transform="translate(33.046875 51.66464)rotate(-90)scale(0.1 -0.1)">
      <use xlink:href="#DejaVuSans-Oblique-73"/>
      <use transform="translate(52.099609 -16.40625)scale(0.7)" xlink:href="#DejaVuSans-31"/>
     </g>
    </g>
   </g>
   <g id="line2d_14">
    <path clip-path="url(#pe7de4a03f9)" d="M 92.290909 37.928463 
L 97.427848 37.928463 
L 102.564787 37.928463 
L 107.701726 37.928463 
L 112.838665 37.928463 
L 117.975604 37.928463 
L 123.112543 29.928821 
L 128.249482 29.928821 
L 133.386421 29.928821 
L 138.52336 29.928821 
L 143.660299 27.62226 
L 148.797238 27.62226 
L 153.934177 27.62226 
L 159.071116 27.107999 
L 164.208055 27.107999 
L 169.344994 27.107999 
L 174.481933 27.094952 
L 179.618872 27.11074 
L 184.755811 27.11074 
L 189.89275 27.11074 
L 195.029689 27.11074 
L 200.166628 27.11074 
L 205.303567 27.11074 
L 210.440506 27.11074 
L 215.577445 27.11074 
L 220.714384 27.11074 
L 225.851323 27.286372 
L 230.988262 27.286372 
L 236.125201 27.286372 
L 241.26214 27.286372 
L 246.399079 27.286372 
L 251.536018 27.286372 
L 256.672957 27.286372 
L 261.809896 27.804895 
L 266.946835 28.289277 
L 272.083774 28.289277 
L 277.220713 28.289277 
L 282.357652 28.289277 
L 287.494591 28.289277 
L 292.63153 28.289277 
L 297.76847 28.289277 
L 302.905409 29.207252 
L 308.042348 29.207252 
L 313.179287 31.5496 
L 318.316226 31.5496 
L 323.453165 31.5496 
L 328.590104 31.5496 
L 333.727043 39.950271 
L 338.863982 39.950271 
L 344.000921 39.950271 
L 349.13786 40.95208 
L 354.274799 68.963594 
L 359.411738 68.963594 
L 364.548677 68.963594 
L 369.685616 68.963594 
L 374.822555 68.963594 
L 379.959494 68.963594 
L 385.096433 68.963594 
L 390.233372 68.963594 
L 395.370311 68.963594 
L 400.50725 68.963594 
L 405.644189 40.95208 
L 410.781128 40.95208 
L 415.918067 40.95208 
L 421.055006 40.95208 
L 426.191945 31.469254 
L 431.328884 31.469254 
L 436.465823 31.469254 
L 441.602762 31.469254 
L 446.739701 28.808056 
L 451.87664 28.808056 
L 457.013579 28.808056 
L 462.150518 28.808056 
L 467.287457 28.808056 
L 472.424396 28.808056 
L 477.561335 28.808056 
L 482.698274 28.808056 
L 487.835213 28.808056 
L 492.972152 28.266575 
L 498.109091 28.266575 
" style="fill:none;stroke:#1f77b4;stroke-linecap:square;stroke-width:1.5;"/>
   </g>
   <g id="line2d_15">
    <path clip-path="url(#pe7de4a03f9)" d="M 92.290909 32.288626 
L 97.427848 32.023014 
L 102.564787 31.47994 
L 107.701726 30.684547 
L 112.838665 29.721902 
L 117.975604 28.716596 
L 123.112543 27.794564 
L 128.249482 27.046193 
L 133.386421 26.508589 
L 138.52336 26.170719 
L 143.660299 25.992112 
L 148.797238 25.923002 
L 153.934177 25.918528 
L 159.071116 25.945285 
L 164.208055 25.982011 
L 169.344994 26.01717 
L 174.481933 26.045696 
L 179.618872 26.066176 
L 184.755811 26.0789 
L 189.89275 26.084727 
L 195.029689 26.084525 
L 200.166628 26.078963 
L 205.303567 26.068498 
L 210.440506 26.053467 
L 215.577445 26.034233 
L 220.714384 26.011342 
L 225.851323 25.985662 
L 230.988262 25.958426 
L 236.125201 25.931154 
L 241.26214 25.905439 
L 246.399079 25.882662 
L 251.536018 25.863747 
L 256.672957 25.849056 
L 261.809896 25.838451 
L 266.946835 25.831477 
L 272.083774 25.827566 
L 277.220713 25.826218 
L 282.357652 25.827151 
L 287.494591 25.8305 
L 292.63153 25.837196 
L 297.76847 25.849683 
L 302.905409 25.873212 
L 308.042348 25.918086 
L 313.179287 26.003353 
L 318.316226 26.16256 
L 323.453165 26.45205 
L 328.590104 26.961449 
L 333.727043 27.823537 
L 338.863982 29.215095 
L 344.000921 31.330192 
L 349.13786 34.297487 
L 354.274799 38.028645 
L 359.411738 42.07383 
L 364.548677 45.691322 
L 369.685616 48.239941 
L 374.822555 49.539803 
L 379.959494 49.710597 
L 385.096433 48.7107 
L 390.233372 46.329515 
L 395.370311 42.665307 
L 400.50725 38.345771 
L 405.644189 34.189176 
L 410.781128 30.758681 
L 415.918067 28.231361 
L 421.055006 26.523086 
L 426.191945 25.44988 
L 431.328884 24.826231 
L 436.465823 24.503192 
L 441.602762 24.373755 
L 446.739701 24.365686 
L 451.87664 24.43186 
L 457.013579 24.541949 
L 462.150518 24.676369 
L 467.287457 24.822268 
L 472.424396 24.971026 
L 477.561335 25.116763 
L 482.698274 25.255488 
L 487.835213 25.384614 
L 492.972152 25.502648 
L 498.109091 25.608944 
" style="fill:none;stroke:#ff7f0e;stroke-linecap:square;stroke-width:1.5;"/>
   </g>
   <g id="patch_3">
    <path d="M 72 75.65328 
L 72 17.676 
" style="fill:none;stroke:#000000;stroke-linecap:square;stroke-linejoin:miter;stroke-width:0.8;"/>
   </g>
   <g id="patch_4">
    <path d="M 518.4 75.65328 
L 518.4 17.676 
" style="fill:none;stroke:#000000;stroke-linecap:square;stroke-linejoin:miter;stroke-width:0.8;"/>
   </g>
   <g id="patch_5">
    <path d="M 72 75.65328 
L 518.4 75.65328 
" style="fill:none;stroke:#000000;stroke-linecap:square;stroke-linejoin:miter;stroke-width:0.8;"/>
   </g>
   <g id="patch_6">
    <path d="M 72 17.676 
L 518.4 17.676 
" style="fill:none;stroke:#000000;stroke-linecap:square;stroke-linejoin:miter;stroke-width:0.8;"/>
   </g>
  </g>
  <g id="axes_2">
   <g id="patch_7">
    <path d="M 72 133.63056 
L 518.4 133.63056 
L 518.4 75.65328 
L 72 75.65328 
z
" style="fill:#ffffff;"/>
   </g>
   <g id="matplotlib.axis_3">
    <g id="xtick_10">
     <g id="line2d_16">
      <g>
       <use style="stroke:#000000;stroke-width:0.8;" x="92.290909" xlink:href="#m16035ad4d5" y="133.63056"/>
      </g>
     </g>
    </g>
    <g id="xtick_11">
     <g id="line2d_17">
      <g>
       <use style="stroke:#000000;stroke-width:0.8;" x="143.660299" xlink:href="#m16035ad4d5" y="133.63056"/>
      </g>
     </g>
    </g>
    <g id="xtick_12">
     <g id="line2d_18">
      <g>
       <use style="stroke:#000000;stroke-width:0.8;" x="195.029689" xlink:href="#m16035ad4d5" y="133.63056"/>
      </g>
     </g>
    </g>
    <g id="xtick_13">
     <g id="line2d_19">
      <g>
       <use style="stroke:#000000;stroke-width:0.8;" x="246.399079" xlink:href="#m16035ad4d5" y="133.63056"/>
      </g>
     </g>
    </g>
    <g id="xtick_14">
     <g id="line2d_20">
      <g>
       <use style="stroke:#000000;stroke-width:0.8;" x="297.76847" xlink:href="#m16035ad4d5" y="133.63056"/>
      </g>
     </g>
    </g>
    <g id="xtick_15">
     <g id="line2d_21">
      <g>
       <use style="stroke:#000000;stroke-width:0.8;" x="349.13786" xlink:href="#m16035ad4d5" y="133.63056"/>
      </g>
     </g>
    </g>
    <g id="xtick_16">
     <g id="line2d_22">
      <g>
       <use style="stroke:#000000;stroke-width:0.8;" x="400.50725" xlink:href="#m16035ad4d5" y="133.63056"/>
      </g>
     </g>
    </g>
    <g id="xtick_17">
     <g id="line2d_23">
      <g>
       <use style="stroke:#000000;stroke-width:0.8;" x="451.87664" xlink:href="#m16035ad4d5" y="133.63056"/>
      </g>
     </g>
    </g>
    <g id="xtick_18">
     <g id="line2d_24">
      <g>
       <use style="stroke:#000000;stroke-width:0.8;" x="503.24603" xlink:href="#m16035ad4d5" y="133.63056"/>
      </g>
     </g>
    </g>
   </g>
   <g id="matplotlib.axis_4">
    <g id="ytick_5">
     <g id="line2d_25">
      <g>
       <use style="stroke:#000000;stroke-width:0.8;" x="72" xlink:href="#mfa5f80a1a3" y="126.940874"/>
      </g>
     </g>
     <g id="text_6">
      <!-- 1.02 -->
      <g transform="translate(42.734375 130.740093)scale(0.1 -0.1)">
       <use xlink:href="#DejaVuSans-31"/>
       <use x="63.623047" xlink:href="#DejaVuSans-2e"/>
       <use x="95.410156" xlink:href="#DejaVuSans-30"/>
       <use x="159.033203" xlink:href="#DejaVuSans-32"/>
      </g>
     </g>
    </g>
    <g id="ytick_6">
     <g id="line2d_26">
      <g>
       <use style="stroke:#000000;stroke-width:0.8;" x="72" xlink:href="#mfa5f80a1a3" y="112.074905"/>
      </g>
     </g>
     <g id="text_7">
      <!-- 2.19 -->
      <g transform="translate(42.734375 115.874123)scale(0.1 -0.1)">
       <use xlink:href="#DejaVuSans-32"/>
       <use x="63.623047" xlink:href="#DejaVuSans-2e"/>
       <use x="95.410156" xlink:href="#DejaVuSans-31"/>
       <use x="159.033203" xlink:href="#DejaVuSans-39"/>
      </g>
     </g>
    </g>
    <g id="ytick_7">
     <g id="line2d_27">
      <g>
       <use style="stroke:#000000;stroke-width:0.8;" x="72" xlink:href="#mfa5f80a1a3" y="97.208935"/>
      </g>
     </g>
     <g id="text_8">
      <!-- 3.37 -->
      <g transform="translate(42.734375 101.008154)scale(0.1 -0.1)">
       <use xlink:href="#DejaVuSans-33"/>
       <use x="63.623047" xlink:href="#DejaVuSans-2e"/>
       <use x="95.410156" xlink:href="#DejaVuSans-33"/>
       <use x="159.033203" xlink:href="#DejaVuSans-37"/>
      </g>
     </g>
    </g>
    <g id="ytick_8">
     <g id="line2d_28">
      <g>
       <use style="stroke:#000000;stroke-width:0.8;" x="72" xlink:href="#mfa5f80a1a3" y="82.342966"/>
      </g>
     </g>
     <g id="text_9">
      <!-- 4.54 -->
      <g transform="translate(42.734375 86.142185)scale(0.1 -0.1)">
       <use xlink:href="#DejaVuSans-34"/>
       <use x="63.623047" xlink:href="#DejaVuSans-2e"/>
       <use x="95.410156" xlink:href="#DejaVuSans-35"/>
       <use x="159.033203" xlink:href="#DejaVuSans-34"/>
      </g>
     </g>
    </g>
    <g id="text_10">
     <!-- $s_{25}$ -->
     <g transform="translate(36.654688 111.84192)rotate(-90)scale(0.1 -0.1)">
      <use xlink:href="#DejaVuSans-Oblique-73"/>
      <use transform="translate(52.099609 -16.40625)scale(0.7)" xlink:href="#DejaVuSans-32"/>
      <use transform="translate(96.635742 -16.40625)scale(0.7)" xlink:href="#DejaVuSans-35"/>
     </g>
    </g>
   </g>
   <g id="line2d_29">
    <path clip-path="url(#pa2c37f9c64)" d="M 92.290909 110.54573 
L 97.427848 110.54573 
L 102.564787 110.54573 
L 107.701726 110.54573 
L 112.838665 110.54573 
L 117.975604 110.54573 
L 123.112543 120.223542 
L 128.249482 120.223542 
L 133.386421 120.223542 
L 138.52336 120.223542 
L 143.660299 124.278818 
L 148.797238 124.278818 
L 153.934177 124.278818 
L 159.071116 126.080231 
L 164.208055 126.080231 
L 169.344994 126.080231 
L 174.481933 126.940874 
L 179.618872 126.744852 
L 184.755811 126.744852 
L 189.89275 126.744852 
L 195.029689 126.744852 
L 200.166628 126.744852 
L 205.303567 126.744852 
L 210.440506 126.744852 
L 215.577445 126.744852 
L 220.714384 126.744852 
L 225.851323 125.544228 
L 230.988262 125.544228 
L 236.125201 125.544228 
L 241.26214 125.544228 
L 246.399079 125.544228 
L 251.536018 125.544228 
L 256.672957 125.544228 
L 261.809896 125.123678 
L 266.946835 123.145374 
L 272.083774 123.145374 
L 277.220713 123.145374 
L 282.357652 123.145374 
L 287.494591 123.145374 
L 292.63153 123.145374 
L 297.76847 123.145374 
L 302.905409 122.734104 
L 308.042348 122.734104 
L 313.179287 118.095571 
L 318.316226 118.095571 
L 323.453165 118.095571 
L 328.590104 118.095571 
L 333.727043 107.270635 
L 338.863982 107.270635 
L 344.000921 107.270635 
L 349.13786 107.170571 
L 354.274799 84.513814 
L 359.411738 84.513814 
L 364.548677 84.513814 
L 369.685616 84.513814 
L 374.822555 84.513814 
L 379.959494 84.513814 
L 385.096433 84.513814 
L 390.233372 84.513814 
L 395.370311 84.513814 
L 400.50725 84.513814 
L 405.644189 107.170571 
L 410.781128 107.170571 
L 415.918067 107.170571 
L 421.055006 107.170571 
L 426.191945 118.962117 
L 431.328884 118.962117 
L 436.465823 118.962117 
L 441.602762 118.962117 
L 446.739701 124.055867 
L 451.87664 124.055867 
L 457.013579 124.055867 
L 462.150518 124.055867 
L 467.287457 124.055867 
L 472.424396 124.055867 
L 477.561335 124.055867 
L 482.698274 124.055867 
L 487.835213 124.055867 
L 492.972152 126.41946 
L 498.109091 126.41946 
" style="fill:none;stroke:#1f77b4;stroke-linecap:square;stroke-width:1.5;"/>
   </g>
   <g id="line2d_30">
    <path clip-path="url(#pa2c37f9c64)" d="M 92.290909 107.485335 
L 97.427848 107.8924 
L 102.564787 108.751151 
L 107.701726 110.077041 
L 112.838665 111.811127 
L 117.975604 113.822445 
L 123.112543 115.936356 
L 128.249482 117.979845 
L 133.386421 119.821908 
L 138.52336 121.391583 
L 143.660299 122.672529 
L 148.797238 123.68503 
L 153.934177 124.467083 
L 159.071116 125.060716 
L 164.208055 125.504424 
L 169.344994 125.830154 
L 174.481933 126.062887 
L 179.618872 126.221396 
L 184.755811 126.319351 
L 189.89275 126.366415 
L 195.029689 126.369171 
L 200.166628 126.331914 
L 205.303567 126.257308 
L 210.440506 126.147004 
L 215.577445 126.002231 
L 220.714384 125.82442 
L 225.851323 125.615831 
L 230.988262 125.380106 
L 236.125201 125.122643 
L 241.26214 124.85058 
L 246.399079 124.572272 
L 251.536018 124.296206 
L 256.672957 124.029518 
L 261.809896 123.776447 
L 266.946835 123.537112 
L 272.083774 123.306902 
L 277.220713 123.076463 
L 282.357652 122.832074 
L 287.494591 122.555987 
L 292.63153 122.226352 
L 297.76847 121.816403 
L 302.905409 121.292695 
L 308.042348 120.612275 
L 313.179287 119.718764 
L 318.316226 118.537654 
L 323.453165 116.971889 
L 328.590104 114.900677 
L 333.727043 112.188076 
L 338.863982 108.713153 
L 344.000921 104.436353 
L 349.13786 99.50355 
L 354.274799 94.339327 
L 359.411738 89.608628 
L 364.548677 85.951307 
L 369.685616 83.638499 
L 374.822555 82.515677 
L 379.959494 82.342966 
L 385.096433 83.166476 
L 390.233372 85.311106 
L 395.370311 88.992687 
L 400.50725 93.955724 
L 405.644189 99.518305 
L 410.781128 104.935206 
L 415.918067 109.700367 
L 421.055006 113.609519 
L 426.191945 116.670565 
L 431.328884 118.992633 
L 436.465823 120.711671 
L 441.602762 121.954659 
L 446.739701 122.827845 
L 451.87664 123.416379 
L 457.013579 123.788041 
L 462.150518 123.997645 
L 467.287457 124.090754 
L 472.424396 124.106291 
L 477.561335 124.077978 
L 482.698274 124.034715 
L 487.835213 124.000173 
L 492.972152 123.991964 
L 498.109091 124.020897 
" style="fill:none;stroke:#ff7f0e;stroke-linecap:square;stroke-width:1.5;"/>
   </g>
   <g id="patch_8">
    <path d="M 72 133.63056 
L 72 75.65328 
" style="fill:none;stroke:#000000;stroke-linecap:square;stroke-linejoin:miter;stroke-width:0.8;"/>
   </g>
   <g id="patch_9">
    <path d="M 518.4 133.63056 
L 518.4 75.65328 
" style="fill:none;stroke:#000000;stroke-linecap:square;stroke-linejoin:miter;stroke-width:0.8;"/>
   </g>
   <g id="patch_10">
    <path d="M 72 133.63056 
L 518.4 133.63056 
" style="fill:none;stroke:#000000;stroke-linecap:square;stroke-linejoin:miter;stroke-width:0.8;"/>
   </g>
   <g id="patch_11">
    <path d="M 72 75.65328 
L 518.4 75.65328 
" style="fill:none;stroke:#000000;stroke-linecap:square;stroke-linejoin:miter;stroke-width:0.8;"/>
   </g>
  </g>
  <g id="axes_3">
   <g id="patch_12">
    <path d="M 72 191.60784 
L 518.4 191.60784 
L 518.4 133.63056 
L 72 133.63056 
z
" style="fill:#ffffff;"/>
   </g>
   <g id="matplotlib.axis_5">
    <g id="xtick_19">
     <g id="line2d_31">
      <g>
       <use style="stroke:#000000;stroke-width:0.8;" x="92.290909" xlink:href="#m16035ad4d5" y="191.60784"/>
      </g>
     </g>
    </g>
    <g id="xtick_20">
     <g id="line2d_32">
      <g>
       <use style="stroke:#000000;stroke-width:0.8;" x="143.660299" xlink:href="#m16035ad4d5" y="191.60784"/>
      </g>
     </g>
    </g>
    <g id="xtick_21">
     <g id="line2d_33">
      <g>
       <use style="stroke:#000000;stroke-width:0.8;" x="195.029689" xlink:href="#m16035ad4d5" y="191.60784"/>
      </g>
     </g>
    </g>
    <g id="xtick_22">
     <g id="line2d_34">
      <g>
       <use style="stroke:#000000;stroke-width:0.8;" x="246.399079" xlink:href="#m16035ad4d5" y="191.60784"/>
      </g>
     </g>
    </g>
    <g id="xtick_23">
     <g id="line2d_35">
      <g>
       <use style="stroke:#000000;stroke-width:0.8;" x="297.76847" xlink:href="#m16035ad4d5" y="191.60784"/>
      </g>
     </g>
    </g>
    <g id="xtick_24">
     <g id="line2d_36">
      <g>
       <use style="stroke:#000000;stroke-width:0.8;" x="349.13786" xlink:href="#m16035ad4d5" y="191.60784"/>
      </g>
     </g>
    </g>
    <g id="xtick_25">
     <g id="line2d_37">
      <g>
       <use style="stroke:#000000;stroke-width:0.8;" x="400.50725" xlink:href="#m16035ad4d5" y="191.60784"/>
      </g>
     </g>
    </g>
    <g id="xtick_26">
     <g id="line2d_38">
      <g>
       <use style="stroke:#000000;stroke-width:0.8;" x="451.87664" xlink:href="#m16035ad4d5" y="191.60784"/>
      </g>
     </g>
    </g>
    <g id="xtick_27">
     <g id="line2d_39">
      <g>
       <use style="stroke:#000000;stroke-width:0.8;" x="503.24603" xlink:href="#m16035ad4d5" y="191.60784"/>
      </g>
     </g>
    </g>
   </g>
   <g id="matplotlib.axis_6">
    <g id="ytick_9">
     <g id="line2d_40">
      <g>
       <use style="stroke:#000000;stroke-width:0.8;" x="72" xlink:href="#mfa5f80a1a3" y="184.918154"/>
      </g>
     </g>
     <g id="text_11">
      <!-- 0.67 -->
      <defs>
       <path d="M 33.015625 40.375 
Q 26.375 40.375 22.484375 35.828125 
Q 18.609375 31.296875 18.609375 23.390625 
Q 18.609375 15.53125 22.484375 10.953125 
Q 26.375 6.390625 33.015625 6.390625 
Q 39.65625 6.390625 43.53125 10.953125 
Q 47.40625 15.53125 47.40625 23.390625 
Q 47.40625 31.296875 43.53125 35.828125 
Q 39.65625 40.375 33.015625 40.375 
z
M 52.59375 71.296875 
L 52.59375 62.3125 
Q 48.875 64.0625 45.09375 64.984375 
Q 41.3125 65.921875 37.59375 65.921875 
Q 27.828125 65.921875 22.671875 59.328125 
Q 17.53125 52.734375 16.796875 39.40625 
Q 19.671875 43.65625 24.015625 45.921875 
Q 28.375 48.1875 33.59375 48.1875 
Q 44.578125 48.1875 50.953125 41.515625 
Q 57.328125 34.859375 57.328125 23.390625 
Q 57.328125 12.15625 50.6875 5.359375 
Q 44.046875 -1.421875 33.015625 -1.421875 
Q 20.359375 -1.421875 13.671875 8.265625 
Q 6.984375 17.96875 6.984375 36.375 
Q 6.984375 53.65625 15.1875 63.9375 
Q 23.390625 74.21875 37.203125 74.21875 
Q 40.921875 74.21875 44.703125 73.484375 
Q 48.484375 72.75 52.59375 71.296875 
z
" id="DejaVuSans-36"/>
      </defs>
      <g transform="translate(42.734375 188.717373)scale(0.1 -0.1)">
       <use xlink:href="#DejaVuSans-30"/>
       <use x="63.623047" xlink:href="#DejaVuSans-2e"/>
       <use x="95.410156" xlink:href="#DejaVuSans-36"/>
       <use x="159.033203" xlink:href="#DejaVuSans-37"/>
      </g>
     </g>
    </g>
    <g id="ytick_10">
     <g id="line2d_41">
      <g>
       <use style="stroke:#000000;stroke-width:0.8;" x="72" xlink:href="#mfa5f80a1a3" y="170.052185"/>
      </g>
     </g>
     <g id="text_12">
      <!-- 0.75 -->
      <g transform="translate(42.734375 173.851403)scale(0.1 -0.1)">
       <use xlink:href="#DejaVuSans-30"/>
       <use x="63.623047" xlink:href="#DejaVuSans-2e"/>
       <use x="95.410156" xlink:href="#DejaVuSans-37"/>
       <use x="159.033203" xlink:href="#DejaVuSans-35"/>
      </g>
     </g>
    </g>
    <g id="ytick_11">
     <g id="line2d_42">
      <g>
       <use style="stroke:#000000;stroke-width:0.8;" x="72" xlink:href="#mfa5f80a1a3" y="155.186215"/>
      </g>
     </g>
     <g id="text_13">
      <!-- 0.83 -->
      <defs>
       <path d="M 31.78125 34.625 
Q 24.75 34.625 20.71875 30.859375 
Q 16.703125 27.09375 16.703125 20.515625 
Q 16.703125 13.921875 20.71875 10.15625 
Q 24.75 6.390625 31.78125 6.390625 
Q 38.8125 6.390625 42.859375 10.171875 
Q 46.921875 13.96875 46.921875 20.515625 
Q 46.921875 27.09375 42.890625 30.859375 
Q 38.875 34.625 31.78125 34.625 
z
M 21.921875 38.8125 
Q 15.578125 40.375 12.03125 44.71875 
Q 8.5 49.078125 8.5 55.328125 
Q 8.5 64.0625 14.71875 69.140625 
Q 20.953125 74.21875 31.78125 74.21875 
Q 42.671875 74.21875 48.875 69.140625 
Q 55.078125 64.0625 55.078125 55.328125 
Q 55.078125 49.078125 51.53125 44.71875 
Q 48 40.375 41.703125 38.8125 
Q 48.828125 37.15625 52.796875 32.3125 
Q 56.78125 27.484375 56.78125 20.515625 
Q 56.78125 9.90625 50.3125 4.234375 
Q 43.84375 -1.421875 31.78125 -1.421875 
Q 19.734375 -1.421875 13.25 4.234375 
Q 6.78125 9.90625 6.78125 20.515625 
Q 6.78125 27.484375 10.78125 32.3125 
Q 14.796875 37.15625 21.921875 38.8125 
z
M 18.3125 54.390625 
Q 18.3125 48.734375 21.84375 45.5625 
Q 25.390625 42.390625 31.78125 42.390625 
Q 38.140625 42.390625 41.71875 45.5625 
Q 45.3125 48.734375 45.3125 54.390625 
Q 45.3125 60.0625 41.71875 63.234375 
Q 38.140625 66.40625 31.78125 66.40625 
Q 25.390625 66.40625 21.84375 63.234375 
Q 18.3125 60.0625 18.3125 54.390625 
z
" id="DejaVuSans-38"/>
      </defs>
      <g transform="translate(42.734375 158.985434)scale(0.1 -0.1)">
       <use xlink:href="#DejaVuSans-30"/>
       <use x="63.623047" xlink:href="#DejaVuSans-2e"/>
       <use x="95.410156" xlink:href="#DejaVuSans-38"/>
       <use x="159.033203" xlink:href="#DejaVuSans-33"/>
      </g>
     </g>
    </g>
    <g id="ytick_12">
     <g id="line2d_43">
      <g>
       <use style="stroke:#000000;stroke-width:0.8;" x="72" xlink:href="#mfa5f80a1a3" y="140.320246"/>
      </g>
     </g>
     <g id="text_14">
      <!-- 0.91 -->
      <g transform="translate(42.734375 144.119465)scale(0.1 -0.1)">
       <use xlink:href="#DejaVuSans-30"/>
       <use x="63.623047" xlink:href="#DejaVuSans-2e"/>
       <use x="95.410156" xlink:href="#DejaVuSans-39"/>
       <use x="159.033203" xlink:href="#DejaVuSans-31"/>
      </g>
     </g>
    </g>
    <g id="text_15">
     <!-- $s_{50}$ -->
     <g transform="translate(36.654688 169.8192)rotate(-90)scale(0.1 -0.1)">
      <use xlink:href="#DejaVuSans-Oblique-73"/>
      <use transform="translate(52.099609 -16.40625)scale(0.7)" xlink:href="#DejaVuSans-35"/>
      <use transform="translate(96.635742 -16.40625)scale(0.7)" xlink:href="#DejaVuSans-30"/>
     </g>
    </g>
   </g>
   <g id="line2d_44">
    <path clip-path="url(#p8afa27b838)" d="M 92.290909 146.685979 
L 97.427848 146.685979 
L 102.564787 146.685979 
L 107.701726 146.685979 
L 112.838665 146.685979 
L 117.975604 146.685979 
L 123.112543 152.997411 
L 128.249482 152.997411 
L 133.386421 152.997411 
L 138.52336 152.997411 
L 143.660299 161.626562 
L 148.797238 161.626562 
L 153.934177 161.626562 
L 159.071116 171.552643 
L 164.208055 171.552643 
L 169.344994 171.552643 
L 174.481933 181.860455 
L 179.618872 180.288077 
L 184.755811 180.288077 
L 189.89275 180.288077 
L 195.029689 180.288077 
L 200.166628 180.288077 
L 205.303567 180.288077 
L 210.440506 180.288077 
L 215.577445 180.288077 
L 220.714384 180.288077 
L 225.851323 168.369025 
L 230.988262 168.369025 
L 236.125201 168.369025 
L 241.26214 168.369025 
L 246.399079 168.369025 
L 251.536018 168.369025 
L 256.672957 168.369025 
L 261.809896 166.738216 
L 266.946835 156.965264 
L 272.083774 156.965264 
L 277.220713 156.965264 
L 282.357652 156.965264 
L 287.494591 156.965264 
L 292.63153 156.965264 
L 297.76847 156.965264 
L 302.905409 155.485774 
L 308.042348 155.485774 
L 313.179287 147.348093 
L 318.316226 147.348093 
L 323.453165 147.348093 
L 328.590104 147.348093 
L 333.727043 141.856238 
L 338.863982 141.856238 
L 344.000921 141.856238 
L 349.13786 141.349592 
L 354.274799 140.320246 
L 359.411738 140.320246 
L 364.548677 140.320246 
L 369.685616 140.320246 
L 374.822555 140.320246 
L 379.959494 140.320246 
L 385.096433 140.320246 
L 390.233372 140.320246 
L 395.370311 140.320246 
L 400.50725 140.320246 
L 405.644189 141.349592 
L 410.781128 141.349592 
L 415.918067 141.349592 
L 421.055006 141.349592 
L 426.191945 146.330388 
L 431.328884 146.330388 
L 436.465823 146.330388 
L 441.602762 146.330388 
L 446.739701 154.16331 
L 451.87664 154.16331 
L 457.013579 154.16331 
L 462.150518 154.16331 
L 467.287457 154.16331 
L 472.424396 154.16331 
L 477.561335 154.16331 
L 482.698274 154.16331 
L 487.835213 154.16331 
L 492.972152 163.645524 
L 498.109091 163.645524 
" style="fill:none;stroke:#1f77b4;stroke-linecap:square;stroke-width:1.5;"/>
   </g>
   <g id="line2d_45">
    <path clip-path="url(#p8afa27b838)" d="M 92.290909 149.074834 
L 97.427848 149.190066 
L 102.564787 149.454322 
L 107.701726 149.911931 
L 112.838665 150.614447 
L 117.975604 151.618897 
L 123.112543 152.981795 
L 128.249482 154.748783 
L 133.386421 156.941496 
L 138.52336 159.545111 
L 143.660299 162.500997 
L 148.797238 165.707891 
L 153.934177 169.032144 
L 159.071116 172.32413 
L 164.208055 175.436042 
L 169.344994 178.236644 
L 174.481933 180.620681 
L 179.618872 182.512846 
L 184.755811 183.867702 
L 189.89275 184.667321 
L 195.029689 184.918154 
L 200.166628 184.647988 
L 205.303567 183.903273 
L 210.440506 182.746603 
L 215.577445 181.253917 
L 220.714384 179.510902 
L 225.851323 177.60833 
L 230.988262 175.636369 
L 236.125201 173.678369 
L 241.26214 171.804923 
L 246.399079 170.069077 
L 251.536018 168.503322 
L 256.672957 167.118607 
L 261.809896 165.905206 
L 266.946835 164.835039 
L 272.083774 163.865055 
L 277.220713 162.941383 
L 282.357652 162.00415 
L 287.494591 160.992873 
L 292.63153 159.852338 
L 297.76847 158.538763 
L 302.905409 157.025905 
L 308.042348 155.310573 
L 313.179287 153.416761 
L 318.316226 151.397316 
L 323.453165 149.331821 
L 328.590104 147.319579 
L 333.727043 145.467372 
L 338.863982 143.873299 
L 344.000921 142.6098 
L 349.13786 141.710123 
L 354.274799 141.16196 
L 359.411738 140.910185 
L 364.548677 140.868355 
L 369.685616 140.936849 
L 374.822555 141.024336 
L 379.959494 141.068238 
L 385.096433 141.049376 
L 390.233372 140.99678 
L 395.370311 140.980775 
L 400.50725 141.095625 
L 405.644189 141.436149 
L 410.781128 142.074562 
L 415.918067 143.043481 
L 421.055006 144.32892 
L 426.191945 145.874102 
L 431.328884 147.591975 
L 436.465823 149.38224 
L 441.602762 151.148222 
L 446.739701 152.810122 
L 451.87664 154.313069 
L 457.013579 155.630084 
L 462.150518 156.761057 
L 467.287457 157.729046 
L 472.424396 158.575038 
L 477.561335 159.352047 
L 482.698274 160.119092 
L 487.835213 160.935454 
L 492.972152 161.85538 
L 498.109091 162.923322 
" style="fill:none;stroke:#ff7f0e;stroke-linecap:square;stroke-width:1.5;"/>
   </g>
   <g id="patch_13">
    <path d="M 72 191.60784 
L 72 133.63056 
" style="fill:none;stroke:#000000;stroke-linecap:square;stroke-linejoin:miter;stroke-width:0.8;"/>
   </g>
   <g id="patch_14">
    <path d="M 518.4 191.60784 
L 518.4 133.63056 
" style="fill:none;stroke:#000000;stroke-linecap:square;stroke-linejoin:miter;stroke-width:0.8;"/>
   </g>
   <g id="patch_15">
    <path d="M 72 191.60784 
L 518.4 191.60784 
" style="fill:none;stroke:#000000;stroke-linecap:square;stroke-linejoin:miter;stroke-width:0.8;"/>
   </g>
   <g id="patch_16">
    <path d="M 72 133.63056 
L 518.4 133.63056 
" style="fill:none;stroke:#000000;stroke-linecap:square;stroke-linejoin:miter;stroke-width:0.8;"/>
   </g>
  </g>
  <g id="axes_4">
   <g id="patch_17">
    <path d="M 72 249.58512 
L 518.4 249.58512 
L 518.4 191.60784 
L 72 191.60784 
z
" style="fill:#ffffff;"/>
   </g>
   <g id="matplotlib.axis_7">
    <g id="xtick_28">
     <g id="line2d_46">
      <g>
       <use style="stroke:#000000;stroke-width:0.8;" x="92.290909" xlink:href="#m16035ad4d5" y="249.58512"/>
      </g>
     </g>
    </g>
    <g id="xtick_29">
     <g id="line2d_47">
      <g>
       <use style="stroke:#000000;stroke-width:0.8;" x="143.660299" xlink:href="#m16035ad4d5" y="249.58512"/>
      </g>
     </g>
    </g>
    <g id="xtick_30">
     <g id="line2d_48">
      <g>
       <use style="stroke:#000000;stroke-width:0.8;" x="195.029689" xlink:href="#m16035ad4d5" y="249.58512"/>
      </g>
     </g>
    </g>
    <g id="xtick_31">
     <g id="line2d_49">
      <g>
       <use style="stroke:#000000;stroke-width:0.8;" x="246.399079" xlink:href="#m16035ad4d5" y="249.58512"/>
      </g>
     </g>
    </g>
    <g id="xtick_32">
     <g id="line2d_50">
      <g>
       <use style="stroke:#000000;stroke-width:0.8;" x="297.76847" xlink:href="#m16035ad4d5" y="249.58512"/>
      </g>
     </g>
    </g>
    <g id="xtick_33">
     <g id="line2d_51">
      <g>
       <use style="stroke:#000000;stroke-width:0.8;" x="349.13786" xlink:href="#m16035ad4d5" y="249.58512"/>
      </g>
     </g>
    </g>
    <g id="xtick_34">
     <g id="line2d_52">
      <g>
       <use style="stroke:#000000;stroke-width:0.8;" x="400.50725" xlink:href="#m16035ad4d5" y="249.58512"/>
      </g>
     </g>
    </g>
    <g id="xtick_35">
     <g id="line2d_53">
      <g>
       <use style="stroke:#000000;stroke-width:0.8;" x="451.87664" xlink:href="#m16035ad4d5" y="249.58512"/>
      </g>
     </g>
    </g>
    <g id="xtick_36">
     <g id="line2d_54">
      <g>
       <use style="stroke:#000000;stroke-width:0.8;" x="503.24603" xlink:href="#m16035ad4d5" y="249.58512"/>
      </g>
     </g>
    </g>
   </g>
   <g id="matplotlib.axis_8">
    <g id="ytick_13">
     <g id="line2d_55">
      <g>
       <use style="stroke:#000000;stroke-width:0.8;" x="72" xlink:href="#mfa5f80a1a3" y="242.895434"/>
      </g>
     </g>
     <g id="text_16">
      <!-- 3.56 -->
      <g transform="translate(42.734375 246.694653)scale(0.1 -0.1)">
       <use xlink:href="#DejaVuSans-33"/>
       <use x="63.623047" xlink:href="#DejaVuSans-2e"/>
       <use x="95.410156" xlink:href="#DejaVuSans-35"/>
       <use x="159.033203" xlink:href="#DejaVuSans-36"/>
      </g>
     </g>
    </g>
    <g id="ytick_14">
     <g id="line2d_56">
      <g>
       <use style="stroke:#000000;stroke-width:0.8;" x="72" xlink:href="#mfa5f80a1a3" y="228.029465"/>
      </g>
     </g>
     <g id="text_17">
      <!-- 4.18 -->
      <g transform="translate(42.734375 231.828683)scale(0.1 -0.1)">
       <use xlink:href="#DejaVuSans-34"/>
       <use x="63.623047" xlink:href="#DejaVuSans-2e"/>
       <use x="95.410156" xlink:href="#DejaVuSans-31"/>
       <use x="159.033203" xlink:href="#DejaVuSans-38"/>
      </g>
     </g>
    </g>
    <g id="ytick_15">
     <g id="line2d_57">
      <g>
       <use style="stroke:#000000;stroke-width:0.8;" x="72" xlink:href="#mfa5f80a1a3" y="213.163495"/>
      </g>
     </g>
     <g id="text_18">
      <!-- 4.80 -->
      <g transform="translate(42.734375 216.962714)scale(0.1 -0.1)">
       <use xlink:href="#DejaVuSans-34"/>
       <use x="63.623047" xlink:href="#DejaVuSans-2e"/>
       <use x="95.410156" xlink:href="#DejaVuSans-38"/>
       <use x="159.033203" xlink:href="#DejaVuSans-30"/>
      </g>
     </g>
    </g>
    <g id="ytick_16">
     <g id="line2d_58">
      <g>
       <use style="stroke:#000000;stroke-width:0.8;" x="72" xlink:href="#mfa5f80a1a3" y="198.297526"/>
      </g>
     </g>
     <g id="text_19">
      <!-- 5.41 -->
      <g transform="translate(42.734375 202.096745)scale(0.1 -0.1)">
       <use xlink:href="#DejaVuSans-35"/>
       <use x="63.623047" xlink:href="#DejaVuSans-2e"/>
       <use x="95.410156" xlink:href="#DejaVuSans-34"/>
       <use x="159.033203" xlink:href="#DejaVuSans-31"/>
      </g>
     </g>
    </g>
    <g id="text_20">
     <!-- $s_{75}$ -->
     <g transform="translate(36.654688 227.79648)rotate(-90)scale(0.1 -0.1)">
      <use xlink:href="#DejaVuSans-Oblique-73"/>
      <use transform="translate(52.099609 -16.40625)scale(0.7)" xlink:href="#DejaVuSans-37"/>
      <use transform="translate(96.635742 -16.40625)scale(0.7)" xlink:href="#DejaVuSans-35"/>
     </g>
    </g>
   </g>
   <g id="line2d_59">
    <path clip-path="url(#pb17f991a9a)" d="M 92.290909 236.818116 
L 97.427848 236.818116 
L 102.564787 236.818116 
L 107.701726 236.818116 
L 112.838665 236.818116 
L 117.975604 236.818116 
L 123.112543 227.365226 
L 128.249482 227.365226 
L 133.386421 227.365226 
L 138.52336 227.365226 
L 143.660299 220.297022 
L 148.797238 220.297022 
L 153.934177 220.297022 
L 159.071116 215.617755 
L 164.208055 215.617755 
L 169.344994 215.617755 
L 174.481933 213.200424 
L 179.618872 211.440544 
L 184.755811 211.440544 
L 189.89275 211.440544 
L 195.029689 211.440544 
L 200.166628 211.440544 
L 205.303567 211.440544 
L 210.440506 211.440544 
L 215.577445 211.440544 
L 220.714384 211.440544 
L 225.851323 210.681193 
L 230.988262 210.681193 
L 236.125201 210.681193 
L 241.26214 210.681193 
L 246.399079 210.681193 
L 251.536018 210.681193 
L 256.672957 210.681193 
L 261.809896 207.397244 
L 266.946835 209.893839 
L 272.083774 209.893839 
L 277.220713 209.893839 
L 282.357652 209.893839 
L 287.494591 209.893839 
L 292.63153 209.893839 
L 297.76847 209.893839 
L 302.905409 204.764577 
L 308.042348 204.764577 
L 313.179287 207.68007 
L 318.316226 207.68007 
L 323.453165 207.68007 
L 328.590104 207.68007 
L 333.727043 211.732914 
L 338.863982 211.732914 
L 344.000921 211.732914 
L 349.13786 201.197912 
L 354.274799 202.55053 
L 359.411738 202.55053 
L 364.548677 202.55053 
L 369.685616 202.55053 
L 374.822555 202.55053 
L 379.959494 202.55053 
L 385.096433 202.55053 
L 390.233372 202.55053 
L 395.370311 202.55053 
L 400.50725 202.55053 
L 405.644189 201.197912 
L 410.781128 201.197912 
L 415.918067 201.197912 
L 421.055006 201.197912 
L 426.191945 199.524674 
L 431.328884 199.524674 
L 436.465823 199.524674 
L 441.602762 199.524674 
L 446.739701 198.379155 
L 451.87664 198.379155 
L 457.013579 198.379155 
L 462.150518 198.379155 
L 467.287457 198.379155 
L 472.424396 198.379155 
L 477.561335 198.379155 
L 482.698274 198.379155 
L 487.835213 198.379155 
L 492.972152 198.297526 
L 498.109091 198.297526 
" style="fill:none;stroke:#1f77b4;stroke-linecap:square;stroke-width:1.5;"/>
   </g>
   <g id="line2d_60">
    <path clip-path="url(#pb17f991a9a)" d="M 92.290909 242.895434 
L 97.427848 242.544409 
L 102.564787 241.80965 
L 107.701726 240.647404 
L 112.838665 239.045976 
L 117.975604 237.03057 
L 123.112543 234.663789 
L 128.249482 232.041192 
L 133.386421 229.282054 
L 138.52336 226.51629 
L 143.660299 223.869443 
L 148.797238 221.448184 
L 153.934177 219.329057 
L 159.071116 217.552537 
L 164.208055 216.123279 
L 169.344994 215.01592 
L 174.481933 214.184528 
L 179.618872 213.573299 
L 184.755811 213.126361 
L 189.89275 212.795198 
L 195.029689 212.543028 
L 200.166628 212.346112 
L 205.303567 212.192439 
L 210.440506 212.07845 
L 215.577445 212.00469 
L 220.714384 211.971318 
L 225.851323 211.974441 
L 230.988262 212.004057 
L 236.125201 212.044027 
L 241.26214 212.074007 
L 246.399079 212.07275 
L 251.536018 212.021872 
L 256.672957 211.909081 
L 261.809896 211.73013 
L 266.946835 211.489189 
L 272.083774 211.197757 
L 277.220713 210.87266 
L 282.357652 210.533686 
L 287.494591 210.201521 
L 292.63153 209.896202 
L 297.76847 209.636105 
L 302.905409 209.437121 
L 308.042348 209.311528 
L 313.179287 209.266092 
L 318.316226 209.299251 
L 323.453165 209.397747 
L 328.590104 209.533719 
L 333.727043 209.663834 
L 338.863982 209.732108 
L 344.000921 209.677428 
L 349.13786 209.445271 
L 354.274799 209.001194 
L 359.411738 208.34175 
L 364.548677 207.498358 
L 369.685616 206.531497 
L 374.822555 205.516436 
L 379.959494 204.525422 
L 385.096433 203.612528 
L 390.233372 202.805584 
L 395.370311 202.106694 
L 400.50725 201.50002 
L 405.644189 200.963529 
L 410.781128 200.480036 
L 415.918067 200.043603 
L 421.055006 199.659779 
L 426.191945 199.341116 
L 431.328884 199.100985 
L 436.465823 198.94855 
L 441.602762 198.886377 
L 446.739701 198.91073 
L 451.87664 199.013487 
L 457.013579 199.18455 
L 462.150518 199.413745 
L 467.287457 199.691818 
L 472.424396 200.010517 
L 477.561335 200.36215 
L 482.698274 200.739047 
L 487.835213 201.133355 
L 492.972152 201.537354 
L 498.109091 201.944293 
" style="fill:none;stroke:#ff7f0e;stroke-linecap:square;stroke-width:1.5;"/>
   </g>
   <g id="patch_18">
    <path d="M 72 249.58512 
L 72 191.60784 
" style="fill:none;stroke:#000000;stroke-linecap:square;stroke-linejoin:miter;stroke-width:0.8;"/>
   </g>
   <g id="patch_19">
    <path d="M 518.4 249.58512 
L 518.4 191.60784 
" style="fill:none;stroke:#000000;stroke-linecap:square;stroke-linejoin:miter;stroke-width:0.8;"/>
   </g>
   <g id="patch_20">
    <path d="M 72 249.58512 
L 518.4 249.58512 
" style="fill:none;stroke:#000000;stroke-linecap:square;stroke-linejoin:miter;stroke-width:0.8;"/>
   </g>
   <g id="patch_21">
    <path d="M 72 191.60784 
L 518.4 191.60784 
" style="fill:none;stroke:#000000;stroke-linecap:square;stroke-linejoin:miter;stroke-width:0.8;"/>
   </g>
  </g>
  <g id="axes_5">
   <g id="patch_22">
    <path d="M 72 307.5624 
L 518.4 307.5624 
L 518.4 249.58512 
L 72 249.58512 
z
" style="fill:#ffffff;"/>
   </g>
   <g id="matplotlib.axis_9">
    <g id="xtick_37">
     <g id="line2d_61">
      <g>
       <use style="stroke:#000000;stroke-width:0.8;" x="92.290909" xlink:href="#m16035ad4d5" y="307.5624"/>
      </g>
     </g>
     <g id="text_21">
      <!-- 0 -->
      <g transform="translate(89.109659 322.160837)scale(0.1 -0.1)">
       <use xlink:href="#DejaVuSans-30"/>
      </g>
     </g>
    </g>
    <g id="xtick_38">
     <g id="line2d_62">
      <g>
       <use style="stroke:#000000;stroke-width:0.8;" x="143.660299" xlink:href="#m16035ad4d5" y="307.5624"/>
      </g>
     </g>
     <g id="text_22">
      <!-- 10 -->
      <g transform="translate(137.297799 322.160837)scale(0.1 -0.1)">
       <use xlink:href="#DejaVuSans-31"/>
       <use x="63.623047" xlink:href="#DejaVuSans-30"/>
      </g>
     </g>
    </g>
    <g id="xtick_39">
     <g id="line2d_63">
      <g>
       <use style="stroke:#000000;stroke-width:0.8;" x="195.029689" xlink:href="#m16035ad4d5" y="307.5624"/>
      </g>
     </g>
     <g id="text_23">
      <!-- 20 -->
      <g transform="translate(188.667189 322.160837)scale(0.1 -0.1)">
       <use xlink:href="#DejaVuSans-32"/>
       <use x="63.623047" xlink:href="#DejaVuSans-30"/>
      </g>
     </g>
    </g>
    <g id="xtick_40">
     <g id="line2d_64">
      <g>
       <use style="stroke:#000000;stroke-width:0.8;" x="246.399079" xlink:href="#m16035ad4d5" y="307.5624"/>
      </g>
     </g>
     <g id="text_24">
      <!-- 30 -->
      <g transform="translate(240.036579 322.160837)scale(0.1 -0.1)">
       <use xlink:href="#DejaVuSans-33"/>
       <use x="63.623047" xlink:href="#DejaVuSans-30"/>
      </g>
     </g>
    </g>
    <g id="xtick_41">
     <g id="line2d_65">
      <g>
       <use style="stroke:#000000;stroke-width:0.8;" x="297.76847" xlink:href="#m16035ad4d5" y="307.5624"/>
      </g>
     </g>
     <g id="text_25">
      <!-- 40 -->
      <g transform="translate(291.40597 322.160837)scale(0.1 -0.1)">
       <use xlink:href="#DejaVuSans-34"/>
       <use x="63.623047" xlink:href="#DejaVuSans-30"/>
      </g>
     </g>
    </g>
    <g id="xtick_42">
     <g id="line2d_66">
      <g>
       <use style="stroke:#000000;stroke-width:0.8;" x="349.13786" xlink:href="#m16035ad4d5" y="307.5624"/>
      </g>
     </g>
     <g id="text_26">
      <!-- 50 -->
      <g transform="translate(342.77536 322.160837)scale(0.1 -0.1)">
       <use xlink:href="#DejaVuSans-35"/>
       <use x="63.623047" xlink:href="#DejaVuSans-30"/>
      </g>
     </g>
    </g>
    <g id="xtick_43">
     <g id="line2d_67">
      <g>
       <use style="stroke:#000000;stroke-width:0.8;" x="400.50725" xlink:href="#m16035ad4d5" y="307.5624"/>
      </g>
     </g>
     <g id="text_27">
      <!-- 60 -->
      <g transform="translate(394.14475 322.160837)scale(0.1 -0.1)">
       <use xlink:href="#DejaVuSans-36"/>
       <use x="63.623047" xlink:href="#DejaVuSans-30"/>
      </g>
     </g>
    </g>
    <g id="xtick_44">
     <g id="line2d_68">
      <g>
       <use style="stroke:#000000;stroke-width:0.8;" x="451.87664" xlink:href="#m16035ad4d5" y="307.5624"/>
      </g>
     </g>
     <g id="text_28">
      <!-- 70 -->
      <g transform="translate(445.51414 322.160837)scale(0.1 -0.1)">
       <use xlink:href="#DejaVuSans-37"/>
       <use x="63.623047" xlink:href="#DejaVuSans-30"/>
      </g>
     </g>
    </g>
    <g id="xtick_45">
     <g id="line2d_69">
      <g>
       <use style="stroke:#000000;stroke-width:0.8;" x="503.24603" xlink:href="#m16035ad4d5" y="307.5624"/>
      </g>
     </g>
     <g id="text_29">
      <!-- 80 -->
      <g transform="translate(496.88353 322.160837)scale(0.1 -0.1)">
       <use xlink:href="#DejaVuSans-38"/>
       <use x="63.623047" xlink:href="#DejaVuSans-30"/>
      </g>
     </g>
    </g>
   </g>
   <g id="matplotlib.axis_10">
    <g id="ytick_17">
     <g id="line2d_70">
      <g>
       <use style="stroke:#000000;stroke-width:0.8;" x="72" xlink:href="#mfa5f80a1a3" y="300.872714"/>
      </g>
     </g>
     <g id="text_30">
      <!-- -10.47 -->
      <g transform="translate(32.764063 304.671933)scale(0.1 -0.1)">
       <use xlink:href="#DejaVuSans-2d"/>
       <use x="36.083984" xlink:href="#DejaVuSans-31"/>
       <use x="99.707031" xlink:href="#DejaVuSans-30"/>
       <use x="163.330078" xlink:href="#DejaVuSans-2e"/>
       <use x="195.117188" xlink:href="#DejaVuSans-34"/>
       <use x="258.740234" xlink:href="#DejaVuSans-37"/>
      </g>
     </g>
    </g>
    <g id="ytick_18">
     <g id="line2d_71">
      <g>
       <use style="stroke:#000000;stroke-width:0.8;" x="72" xlink:href="#mfa5f80a1a3" y="286.006745"/>
      </g>
     </g>
     <g id="text_31">
      <!-- -9.70 -->
      <g transform="translate(39.126562 289.805963)scale(0.1 -0.1)">
       <use xlink:href="#DejaVuSans-2d"/>
       <use x="36.083984" xlink:href="#DejaVuSans-39"/>
       <use x="99.707031" xlink:href="#DejaVuSans-2e"/>
       <use x="131.494141" xlink:href="#DejaVuSans-37"/>
       <use x="195.117188" xlink:href="#DejaVuSans-30"/>
      </g>
     </g>
    </g>
    <g id="ytick_19">
     <g id="line2d_72">
      <g>
       <use style="stroke:#000000;stroke-width:0.8;" x="72" xlink:href="#mfa5f80a1a3" y="271.140775"/>
      </g>
     </g>
     <g id="text_32">
      <!-- -8.93 -->
      <g transform="translate(39.126562 274.939994)scale(0.1 -0.1)">
       <use xlink:href="#DejaVuSans-2d"/>
       <use x="36.083984" xlink:href="#DejaVuSans-38"/>
       <use x="99.707031" xlink:href="#DejaVuSans-2e"/>
       <use x="131.494141" xlink:href="#DejaVuSans-39"/>
       <use x="195.117188" xlink:href="#DejaVuSans-33"/>
      </g>
     </g>
    </g>
    <g id="ytick_20">
     <g id="line2d_73">
      <g>
       <use style="stroke:#000000;stroke-width:0.8;" x="72" xlink:href="#mfa5f80a1a3" y="256.274806"/>
      </g>
     </g>
     <g id="text_33">
      <!-- -8.16 -->
      <g transform="translate(39.126562 260.074025)scale(0.1 -0.1)">
       <use xlink:href="#DejaVuSans-2d"/>
       <use x="36.083984" xlink:href="#DejaVuSans-38"/>
       <use x="99.707031" xlink:href="#DejaVuSans-2e"/>
       <use x="131.494141" xlink:href="#DejaVuSans-31"/>
       <use x="195.117188" xlink:href="#DejaVuSans-36"/>
      </g>
     </g>
    </g>
    <g id="text_34">
     <!-- $s_{92}$ -->
     <g transform="translate(26.684375 285.77376)rotate(-90)scale(0.1 -0.1)">
      <use xlink:href="#DejaVuSans-Oblique-73"/>
      <use transform="translate(52.099609 -16.40625)scale(0.7)" xlink:href="#DejaVuSans-39"/>
      <use transform="translate(96.624805 -16.40625)scale(0.7)" xlink:href="#DejaVuSans-32"/>
     </g>
    </g>
   </g>
   <g id="line2d_74">
    <path clip-path="url(#pe4ae8e90f4)" d="M 92.290909 298.189353 
L 97.427848 298.189353 
L 102.564787 298.189353 
L 107.701726 298.189353 
L 112.838665 298.189353 
L 117.975604 298.189353 
L 123.112543 290.391968 
L 128.249482 290.391968 
L 133.386421 290.391968 
L 138.52336 290.391968 
L 143.660299 281.126352 
L 148.797238 281.126352 
L 153.934177 281.126352 
L 159.071116 270.491747 
L 164.208055 270.491747 
L 169.344994 270.491747 
L 174.481933 258.732728 
L 179.618872 256.274806 
L 184.755811 256.274806 
L 189.89275 256.274806 
L 195.029689 256.274806 
L 200.166628 256.274806 
L 205.303567 256.274806 
L 210.440506 256.274806 
L 215.577445 256.274806 
L 220.714384 256.274806 
L 225.851323 265.845021 
L 230.988262 265.845021 
L 236.125201 265.845021 
L 241.26214 265.845021 
L 246.399079 265.845021 
L 251.536018 265.845021 
L 256.672957 265.845021 
L 261.809896 263.854092 
L 266.946835 274.625778 
L 272.083774 274.625778 
L 277.220713 274.625778 
L 282.357652 274.625778 
L 287.494591 274.625778 
L 292.63153 274.625778 
L 297.76847 274.625778 
L 302.905409 272.932475 
L 308.042348 272.932475 
L 313.179287 282.414978 
L 318.316226 282.414978 
L 323.453165 282.414978 
L 328.590104 282.414978 
L 333.727043 290.48043 
L 338.863982 290.48043 
L 344.000921 290.48043 
L 349.13786 289.125187 
L 354.274799 295.966043 
L 359.411738 295.966043 
L 364.548677 295.966043 
L 369.685616 295.966043 
L 374.822555 295.966043 
L 379.959494 295.966043 
L 385.096433 295.966043 
L 390.233372 295.966043 
L 395.370311 295.966043 
L 400.50725 295.966043 
L 405.644189 289.125187 
L 410.781128 289.125187 
L 415.918067 289.125187 
L 421.055006 289.125187 
L 426.191945 281.005236 
L 431.328884 281.005236 
L 436.465823 281.005236 
L 441.602762 281.005236 
L 446.739701 271.47688 
L 451.87664 271.47688 
L 457.013579 271.47688 
L 462.150518 271.47688 
L 467.287457 271.47688 
L 472.424396 271.47688 
L 477.561335 271.47688 
L 482.698274 271.47688 
L 487.835213 271.47688 
L 492.972152 260.621625 
L 498.109091 260.621625 
" style="fill:none;stroke:#1f77b4;stroke-linecap:square;stroke-width:1.5;"/>
   </g>
   <g id="line2d_75">
    <path clip-path="url(#pe4ae8e90f4)" d="M 92.290909 300.872714 
L 97.427848 300.677834 
L 102.564787 300.264115 
L 107.701726 299.590065 
L 112.838665 298.617415 
L 117.975604 297.312083 
L 123.112543 295.645947 
L 128.249482 293.599963 
L 133.386421 291.168855 
L 138.52336 288.3669 
L 143.660299 285.233499 
L 148.797238 281.836677 
L 153.934177 278.272777 
L 159.071116 274.661506 
L 164.208055 271.136838 
L 169.344994 267.835359 
L 174.481933 264.884166 
L 179.618872 262.390235 
L 184.755811 260.43249 
L 189.89275 259.057073 
L 195.029689 258.275737 
L 200.166628 258.066994 
L 205.303567 258.379569 
L 210.440506 259.137745 
L 215.577445 260.248195 
L 220.714384 261.607778 
L 225.851323 263.111695 
L 230.988262 264.661243 
L 236.125201 266.17044 
L 241.26214 267.57096 
L 246.399079 268.815115 
L 251.536018 269.876958 
L 256.672957 270.75181 
L 261.809896 271.454635 
L 266.946835 272.017541 
L 272.083774 272.486638 
L 277.220713 272.918236 
L 282.357652 273.374395 
L 287.494591 273.91783 
L 292.63153 274.606358 
L 297.76847 275.487242 
L 302.905409 276.592017 
L 308.042348 277.932457 
L 313.179287 279.498404 
L 318.316226 281.258025 
L 323.453165 283.16073 
L 328.590104 285.142521 
L 333.727043 287.132934 
L 338.863982 289.062189 
L 344.000921 290.867072 
L 349.13786 292.494402 
L 354.274799 293.901684 
L 359.411738 295.055874 
L 364.548677 295.931364 
L 369.685616 296.508545 
L 374.822555 296.773471 
L 379.959494 296.718354 
L 385.096433 296.342173 
L 390.233372 295.650786 
L 395.370311 294.656501 
L 400.50725 293.377637 
L 405.644189 291.838817 
L 410.781128 290.072281 
L 415.918067 288.119806 
L 421.055006 286.034031 
L 426.191945 283.877895 
L 431.328884 281.72139 
L 436.465823 279.635833 
L 441.602762 277.686741 
L 446.739701 275.926801 
L 451.87664 274.390303 
L 457.013579 273.08996 
L 462.150518 272.016381 
L 467.287457 271.140031 
L 472.424396 270.41511 
L 477.561335 269.784675 
L 482.698274 269.186304 
L 487.835213 268.557717 
L 492.972152 267.841985 
L 498.109091 266.992102 
" style="fill:none;stroke:#ff7f0e;stroke-linecap:square;stroke-width:1.5;"/>
   </g>
   <g id="patch_23">
    <path d="M 72 307.5624 
L 72 249.58512 
" style="fill:none;stroke:#000000;stroke-linecap:square;stroke-linejoin:miter;stroke-width:0.8;"/>
   </g>
   <g id="patch_24">
    <path d="M 518.4 307.5624 
L 518.4 249.58512 
" style="fill:none;stroke:#000000;stroke-linecap:square;stroke-linejoin:miter;stroke-width:0.8;"/>
   </g>
   <g id="patch_25">
    <path d="M 72 307.5624 
L 518.4 307.5624 
" style="fill:none;stroke:#000000;stroke-linecap:square;stroke-linejoin:miter;stroke-width:0.8;"/>
   </g>
   <g id="patch_26">
    <path d="M 72 249.58512 
L 518.4 249.58512 
" style="fill:none;stroke:#000000;stroke-linecap:square;stroke-linejoin:miter;stroke-width:0.8;"/>
   </g>
  </g>
  <g id="legend_1">
   <g id="patch_27">
    <path d="M 190.564063 348.52 
L 385.435938 348.52 
Q 387.435938 348.52 387.435938 346.52 
L 387.435938 332.841875 
Q 387.435938 330.841875 385.435938 330.841875 
L 190.564063 330.841875 
Q 188.564063 330.841875 188.564063 332.841875 
L 188.564063 346.52 
Q 188.564063 348.52 190.564063 348.52 
z
" style="fill:#ffffff;opacity:0.8;stroke:#cccccc;stroke-linejoin:miter;"/>
   </g>
   <g id="line2d_76">
    <path d="M 192.564063 338.940313 
L 212.564063 338.940313 
" style="fill:none;stroke:#1f77b4;stroke-linecap:square;stroke-width:1.5;"/>
   </g>
   <g id="line2d_77"/>
   <g id="text_35">
    <!-- Prediction -->
    <defs>
     <path d="M 19.671875 64.796875 
L 19.671875 37.40625 
L 32.078125 37.40625 
Q 38.96875 37.40625 42.71875 40.96875 
Q 46.484375 44.53125 46.484375 51.125 
Q 46.484375 57.671875 42.71875 61.234375 
Q 38.96875 64.796875 32.078125 64.796875 
z
M 9.8125 72.90625 
L 32.078125 72.90625 
Q 44.34375 72.90625 50.609375 67.359375 
Q 56.890625 61.8125 56.890625 51.125 
Q 56.890625 40.328125 50.609375 34.8125 
Q 44.34375 29.296875 32.078125 29.296875 
L 19.671875 29.296875 
L 19.671875 0 
L 9.8125 0 
z
" id="DejaVuSans-50"/>
     <path d="M 41.109375 46.296875 
Q 39.59375 47.171875 37.8125 47.578125 
Q 36.03125 48 33.890625 48 
Q 26.265625 48 22.1875 43.046875 
Q 18.109375 38.09375 18.109375 28.8125 
L 18.109375 0 
L 9.078125 0 
L 9.078125 54.6875 
L 18.109375 54.6875 
L 18.109375 46.1875 
Q 20.953125 51.171875 25.484375 53.578125 
Q 30.03125 56 36.53125 56 
Q 37.453125 56 38.578125 55.875 
Q 39.703125 55.765625 41.0625 55.515625 
z
" id="DejaVuSans-72"/>
     <path d="M 56.203125 29.59375 
L 56.203125 25.203125 
L 14.890625 25.203125 
Q 15.484375 15.921875 20.484375 11.0625 
Q 25.484375 6.203125 34.421875 6.203125 
Q 39.59375 6.203125 44.453125 7.46875 
Q 49.3125 8.734375 54.109375 11.28125 
L 54.109375 2.78125 
Q 49.265625 0.734375 44.1875 -0.34375 
Q 39.109375 -1.421875 33.890625 -1.421875 
Q 20.796875 -1.421875 13.15625 6.1875 
Q 5.515625 13.8125 5.515625 26.8125 
Q 5.515625 40.234375 12.765625 48.109375 
Q 20.015625 56 32.328125 56 
Q 43.359375 56 49.78125 48.890625 
Q 56.203125 41.796875 56.203125 29.59375 
z
M 47.21875 32.234375 
Q 47.125 39.59375 43.09375 43.984375 
Q 39.0625 48.390625 32.421875 48.390625 
Q 24.90625 48.390625 20.390625 44.140625 
Q 15.875 39.890625 15.1875 32.171875 
z
" id="DejaVuSans-65"/>
     <path d="M 45.40625 46.390625 
L 45.40625 75.984375 
L 54.390625 75.984375 
L 54.390625 0 
L 45.40625 0 
L 45.40625 8.203125 
Q 42.578125 3.328125 38.25 0.953125 
Q 33.9375 -1.421875 27.875 -1.421875 
Q 17.96875 -1.421875 11.734375 6.484375 
Q 5.515625 14.40625 5.515625 27.296875 
Q 5.515625 40.1875 11.734375 48.09375 
Q 17.96875 56 27.875 56 
Q 33.9375 56 38.25 53.625 
Q 42.578125 51.265625 45.40625 46.390625 
z
M 14.796875 27.296875 
Q 14.796875 17.390625 18.875 11.75 
Q 22.953125 6.109375 30.078125 6.109375 
Q 37.203125 6.109375 41.296875 11.75 
Q 45.40625 17.390625 45.40625 27.296875 
Q 45.40625 37.203125 41.296875 42.84375 
Q 37.203125 48.484375 30.078125 48.484375 
Q 22.953125 48.484375 18.875 42.84375 
Q 14.796875 37.203125 14.796875 27.296875 
z
" id="DejaVuSans-64"/>
     <path d="M 9.421875 54.6875 
L 18.40625 54.6875 
L 18.40625 0 
L 9.421875 0 
z
M 9.421875 75.984375 
L 18.40625 75.984375 
L 18.40625 64.59375 
L 9.421875 64.59375 
z
" id="DejaVuSans-69"/>
     <path d="M 48.78125 52.59375 
L 48.78125 44.1875 
Q 44.96875 46.296875 41.140625 47.34375 
Q 37.3125 48.390625 33.40625 48.390625 
Q 24.65625 48.390625 19.8125 42.84375 
Q 14.984375 37.3125 14.984375 27.296875 
Q 14.984375 17.28125 19.8125 11.734375 
Q 24.65625 6.203125 33.40625 6.203125 
Q 37.3125 6.203125 41.140625 7.25 
Q 44.96875 8.296875 48.78125 10.40625 
L 48.78125 2.09375 
Q 45.015625 0.34375 40.984375 -0.53125 
Q 36.96875 -1.421875 32.421875 -1.421875 
Q 20.0625 -1.421875 12.78125 6.34375 
Q 5.515625 14.109375 5.515625 27.296875 
Q 5.515625 40.671875 12.859375 48.328125 
Q 20.21875 56 33.015625 56 
Q 37.15625 56 41.109375 55.140625 
Q 45.0625 54.296875 48.78125 52.59375 
z
" id="DejaVuSans-63"/>
     <path d="M 18.3125 70.21875 
L 18.3125 54.6875 
L 36.8125 54.6875 
L 36.8125 47.703125 
L 18.3125 47.703125 
L 18.3125 18.015625 
Q 18.3125 11.328125 20.140625 9.421875 
Q 21.96875 7.515625 27.59375 7.515625 
L 36.8125 7.515625 
L 36.8125 0 
L 27.59375 0 
Q 17.1875 0 13.234375 3.875 
Q 9.28125 7.765625 9.28125 18.015625 
L 9.28125 47.703125 
L 2.6875 47.703125 
L 2.6875 54.6875 
L 9.28125 54.6875 
L 9.28125 70.21875 
z
" id="DejaVuSans-74"/>
     <path d="M 30.609375 48.390625 
Q 23.390625 48.390625 19.1875 42.75 
Q 14.984375 37.109375 14.984375 27.296875 
Q 14.984375 17.484375 19.15625 11.84375 
Q 23.34375 6.203125 30.609375 6.203125 
Q 37.796875 6.203125 41.984375 11.859375 
Q 46.1875 17.53125 46.1875 27.296875 
Q 46.1875 37.015625 41.984375 42.703125 
Q 37.796875 48.390625 30.609375 48.390625 
z
M 30.609375 56 
Q 42.328125 56 49.015625 48.375 
Q 55.71875 40.765625 55.71875 27.296875 
Q 55.71875 13.875 49.015625 6.21875 
Q 42.328125 -1.421875 30.609375 -1.421875 
Q 18.84375 -1.421875 12.171875 6.21875 
Q 5.515625 13.875 5.515625 27.296875 
Q 5.515625 40.765625 12.171875 48.375 
Q 18.84375 56 30.609375 56 
z
" id="DejaVuSans-6f"/>
     <path d="M 54.890625 33.015625 
L 54.890625 0 
L 45.90625 0 
L 45.90625 32.71875 
Q 45.90625 40.484375 42.875 44.328125 
Q 39.84375 48.1875 33.796875 48.1875 
Q 26.515625 48.1875 22.3125 43.546875 
Q 18.109375 38.921875 18.109375 30.90625 
L 18.109375 0 
L 9.078125 0 
L 9.078125 54.6875 
L 18.109375 54.6875 
L 18.109375 46.1875 
Q 21.34375 51.125 25.703125 53.5625 
Q 30.078125 56 35.796875 56 
Q 45.21875 56 50.046875 50.171875 
Q 54.890625 44.34375 54.890625 33.015625 
z
" id="DejaVuSans-6e"/>
    </defs>
    <g transform="translate(220.564063 342.440313)scale(0.1 -0.1)">
     <use xlink:href="#DejaVuSans-50"/>
     <use x="60.287109" xlink:href="#DejaVuSans-72"/>
     <use x="101.369141" xlink:href="#DejaVuSans-65"/>
     <use x="162.892578" xlink:href="#DejaVuSans-64"/>
     <use x="226.369141" xlink:href="#DejaVuSans-69"/>
     <use x="254.152344" xlink:href="#DejaVuSans-63"/>
     <use x="309.132812" xlink:href="#DejaVuSans-74"/>
     <use x="348.341797" xlink:href="#DejaVuSans-69"/>
     <use x="376.125" xlink:href="#DejaVuSans-6f"/>
     <use x="437.306641" xlink:href="#DejaVuSans-6e"/>
    </g>
   </g>
   <g id="line2d_78">
    <path d="M 290.632812 338.940313 
L 310.632812 338.940313 
" style="fill:none;stroke:#ff7f0e;stroke-linecap:square;stroke-width:1.5;"/>
   </g>
   <g id="line2d_79"/>
   <g id="text_36">
    <!-- Ground truth -->
    <defs>
     <path d="M 59.515625 10.40625 
L 59.515625 29.984375 
L 43.40625 29.984375 
L 43.40625 38.09375 
L 69.28125 38.09375 
L 69.28125 6.78125 
Q 63.578125 2.734375 56.6875 0.65625 
Q 49.8125 -1.421875 42 -1.421875 
Q 24.90625 -1.421875 15.25 8.5625 
Q 5.609375 18.5625 5.609375 36.375 
Q 5.609375 54.25 15.25 64.234375 
Q 24.90625 74.21875 42 74.21875 
Q 49.125 74.21875 55.546875 72.453125 
Q 61.96875 70.703125 67.390625 67.28125 
L 67.390625 56.78125 
Q 61.921875 61.421875 55.765625 63.765625 
Q 49.609375 66.109375 42.828125 66.109375 
Q 29.4375 66.109375 22.71875 58.640625 
Q 16.015625 51.171875 16.015625 36.375 
Q 16.015625 21.625 22.71875 14.15625 
Q 29.4375 6.6875 42.828125 6.6875 
Q 48.046875 6.6875 52.140625 7.59375 
Q 56.25 8.5 59.515625 10.40625 
z
" id="DejaVuSans-47"/>
     <path d="M 8.5 21.578125 
L 8.5 54.6875 
L 17.484375 54.6875 
L 17.484375 21.921875 
Q 17.484375 14.15625 20.5 10.265625 
Q 23.53125 6.390625 29.59375 6.390625 
Q 36.859375 6.390625 41.078125 11.03125 
Q 45.3125 15.671875 45.3125 23.6875 
L 45.3125 54.6875 
L 54.296875 54.6875 
L 54.296875 0 
L 45.3125 0 
L 45.3125 8.40625 
Q 42.046875 3.421875 37.71875 1 
Q 33.40625 -1.421875 27.6875 -1.421875 
Q 18.265625 -1.421875 13.375 4.4375 
Q 8.5 10.296875 8.5 21.578125 
z
M 31.109375 56 
z
" id="DejaVuSans-75"/>
     <path id="DejaVuSans-20"/>
     <path d="M 54.890625 33.015625 
L 54.890625 0 
L 45.90625 0 
L 45.90625 32.71875 
Q 45.90625 40.484375 42.875 44.328125 
Q 39.84375 48.1875 33.796875 48.1875 
Q 26.515625 48.1875 22.3125 43.546875 
Q 18.109375 38.921875 18.109375 30.90625 
L 18.109375 0 
L 9.078125 0 
L 9.078125 75.984375 
L 18.109375 75.984375 
L 18.109375 46.1875 
Q 21.34375 51.125 25.703125 53.5625 
Q 30.078125 56 35.796875 56 
Q 45.21875 56 50.046875 50.171875 
Q 54.890625 44.34375 54.890625 33.015625 
z
" id="DejaVuSans-68"/>
    </defs>
    <g transform="translate(318.632812 342.440313)scale(0.1 -0.1)">
     <use xlink:href="#DejaVuSans-47"/>
     <use x="77.490234" xlink:href="#DejaVuSans-72"/>
     <use x="118.572266" xlink:href="#DejaVuSans-6f"/>
     <use x="179.753906" xlink:href="#DejaVuSans-75"/>
     <use x="243.132812" xlink:href="#DejaVuSans-6e"/>
     <use x="306.511719" xlink:href="#DejaVuSans-64"/>
     <use x="369.988281" xlink:href="#DejaVuSans-20"/>
     <use x="401.775391" xlink:href="#DejaVuSans-74"/>
     <use x="440.984375" xlink:href="#DejaVuSans-72"/>
     <use x="482.097656" xlink:href="#DejaVuSans-75"/>
     <use x="545.476562" xlink:href="#DejaVuSans-74"/>
     <use x="584.685547" xlink:href="#DejaVuSans-68"/>
    </g>
   </g>
  </g>
 </g>
 <defs>
  <clipPath id="pe7de4a03f9">
   <rect height="57.97728" width="446.4" x="72" y="17.676"/>
  </clipPath>
  <clipPath id="pa2c37f9c64">
   <rect height="57.97728" width="446.4" x="72" y="75.65328"/>
  </clipPath>
  <clipPath id="p8afa27b838">
   <rect height="57.97728" width="446.4" x="72" y="133.63056"/>
  </clipPath>
  <clipPath id="pb17f991a9a">
   <rect height="57.97728" width="446.4" x="72" y="191.60784"/>
  </clipPath>
  <clipPath id="pe4ae8e90f4">
   <rect height="57.97728" width="446.4" x="72" y="249.58512"/>
  </clipPath>
 </defs>
</svg>
