<?xml version="1.0" encoding="utf-8" standalone="no"?>
<!DOCTYPE svg PUBLIC "-//W3C//DTD SVG 1.1//EN"
  "http://www.w3.org/Graphics/SVG/1.1/DTD/svg11.dtd">
<!-- Created with matplotlib (http://matplotlib.org/) -->
<svg height="357pt" version="1.1" viewBox="0 0 576 357" width="576pt" xmlns="http://www.w3.org/2000/svg" xmlns:xlink="http://www.w3.org/1999/xlink">
 <defs>
  <style type="text/css">
*{stroke-linecap:butt;stroke-linejoin:round;}
  </style>
 </defs>
 <g id="figure_1">
  <g id="patch_1">
   <path d="M 0 357.84 
L 576 357.84 
L 576 0 
L 0 0 
z
" style="fill:#ffffff;"/>
  </g>
  <g id="axes_1">
   <g id="patch_2">
    <path d="M 72 76.57776 
L 518.4 76.57776 
L 518.4 17.892 
L 72 17.892 
z
" style="fill:#ffffff;"/>
   </g>
   <g id="matplotlib.axis_1">
    <g id="xtick_1">
     <g id="line2d_1">
      <defs>
       <path d="M 0 0 
L 0 3.5 
" id="m9be13fb8cd" style="stroke:#000000;stroke-width:0.8;"/>
      </defs>
      <g>
       <use style="stroke:#000000;stroke-width:0.8;" x="92.290909" xlink:href="#m9be13fb8cd" y="76.57776"/>
      </g>
     </g>
    </g>
    <g id="xtick_2">
     <g id="line2d_2">
      <g>
       <use style="stroke:#000000;stroke-width:0.8;" x="143.660299" xlink:href="#m9be13fb8cd" y="76.57776"/>
      </g>
     </g>
    </g>
    <g id="xtick_3">
     <g id="line2d_3">
      <g>
       <use style="stroke:#000000;stroke-width:0.8;" x="195.029689" xlink:href="#m9be13fb8cd" y="76.57776"/>
      </g>
     </g>
    </g>
    <g id="xtick_4">
     <g id="line2d_4">
      <g>
       <use style="stroke:#000000;stroke-width:0.8;" x="246.399079" xlink:href="#m9be13fb8cd" y="76.57776"/>
      </g>
     </g>
    </g>
    <g id="xtick_5">
     <g id="line2d_5">
      <g>
       <use style="stroke:#000000;stroke-width:0.8;" x="297.76847" xlink:href="#m9be13fb8cd" y="76.57776"/>
      </g>
     </g>
    </g>
    <g id="xtick_6">
     <g id="line2d_6">
      <g>
       <use style="stroke:#000000;stroke-width:0.8;" x="349.13786" xlink:href="#m9be13fb8cd" y="76.57776"/>
      </g>
     </g>
    </g>
    <g id="xtick_7">
     <g id="line2d_7">
      <g>
       <use style="stroke:#000000;stroke-width:0.8;" x="400.50725" xlink:href="#m9be13fb8cd" y="76.57776"/>
      </g>
     </g>
    </g>
    <g id="xtick_8">
     <g id="line2d_8">
      <g>
       <use style="stroke:#000000;stroke-width:0.8;" x="451.87664" xlink:href="#m9be13fb8cd" y="76.57776"/>
      </g>
     </g>
    </g>
    <g id="xtick_9">
     <g id="line2d_9">
      <g>
       <use style="stroke:#000000;stroke-width:0.8;" x="503.24603" xlink:href="#m9be13fb8cd" y="76.57776"/>
      </g>
     </g>
    </g>
   </g>
   <g id="matplotlib.axis_2">
    <g id="ytick_1">
     <g id="line2d_10">
      <defs>
       <path d="M 0 0 
L -3.5 0 
" id="m1311592810" style="stroke:#000000;stroke-width:0.8;"/>
      </defs>
      <g>
       <use style="stroke:#000000;stroke-width:0.8;" x="72" xlink:href="#m1311592810" y="69.806326"/>
      </g>
     </g>
     <g id="text_1">
      <!-- -0.60 -->
      <defs>
       <path d="M 4.890625 31.390625 
L 31.203125 31.390625 
L 31.203125 23.390625 
L 4.890625 23.390625 
z
" id="DejaVuSans-2d"/>
       <path d="M 31.78125 66.40625 
Q 24.171875 66.40625 20.328125 58.90625 
Q 16.5 51.421875 16.5 36.375 
Q 16.5 21.390625 20.328125 13.890625 
Q 24.171875 6.390625 31.78125 6.390625 
Q 39.453125 6.390625 43.28125 13.890625 
Q 47.125 21.390625 47.125 36.375 
Q 47.125 51.421875 43.28125 58.90625 
Q 39.453125 66.40625 31.78125 66.40625 
z
M 31.78125 74.21875 
Q 44.046875 74.21875 50.515625 64.515625 
Q 56.984375 54.828125 56.984375 36.375 
Q 56.984375 17.96875 50.515625 8.265625 
Q 44.046875 -1.421875 31.78125 -1.421875 
Q 19.53125 -1.421875 13.0625 8.265625 
Q 6.59375 17.96875 6.59375 36.375 
Q 6.59375 54.828125 13.0625 64.515625 
Q 19.53125 74.21875 31.78125 74.21875 
z
" id="DejaVuSans-30"/>
       <path d="M 10.6875 12.40625 
L 21 12.40625 
L 21 0 
L 10.6875 0 
z
" id="DejaVuSans-2e"/>
       <path d="M 33.015625 40.375 
Q 26.375 40.375 22.484375 35.828125 
Q 18.609375 31.296875 18.609375 23.390625 
Q 18.609375 15.53125 22.484375 10.953125 
Q 26.375 6.390625 33.015625 6.390625 
Q 39.65625 6.390625 43.53125 10.953125 
Q 47.40625 15.53125 47.40625 23.390625 
Q 47.40625 31.296875 43.53125 35.828125 
Q 39.65625 40.375 33.015625 40.375 
z
M 52.59375 71.296875 
L 52.59375 62.3125 
Q 48.875 64.0625 45.09375 64.984375 
Q 41.3125 65.921875 37.59375 65.921875 
Q 27.828125 65.921875 22.671875 59.328125 
Q 17.53125 52.734375 16.796875 39.40625 
Q 19.671875 43.65625 24.015625 45.921875 
Q 28.375 48.1875 33.59375 48.1875 
Q 44.578125 48.1875 50.953125 41.515625 
Q 57.328125 34.859375 57.328125 23.390625 
Q 57.328125 12.15625 50.6875 5.359375 
Q 44.046875 -1.421875 33.015625 -1.421875 
Q 20.359375 -1.421875 13.671875 8.265625 
Q 6.984375 17.96875 6.984375 36.375 
Q 6.984375 53.65625 15.1875 63.9375 
Q 23.390625 74.21875 37.203125 74.21875 
Q 40.921875 74.21875 44.703125 73.484375 
Q 48.484375 72.75 52.59375 71.296875 
z
" id="DejaVuSans-36"/>
      </defs>
      <g transform="translate(39.126562 73.605545)scale(0.1 -0.1)">
       <use xlink:href="#DejaVuSans-2d"/>
       <use x="36.083984" xlink:href="#DejaVuSans-30"/>
       <use x="99.707031" xlink:href="#DejaVuSans-2e"/>
       <use x="131.494141" xlink:href="#DejaVuSans-36"/>
       <use x="195.117188" xlink:href="#DejaVuSans-30"/>
      </g>
     </g>
    </g>
    <g id="ytick_2">
     <g id="line2d_11">
      <g>
       <use style="stroke:#000000;stroke-width:0.8;" x="72" xlink:href="#m1311592810" y="54.758695"/>
      </g>
     </g>
     <g id="text_2">
      <!-- -0.45 -->
      <defs>
       <path d="M 37.796875 64.3125 
L 12.890625 25.390625 
L 37.796875 25.390625 
z
M 35.203125 72.90625 
L 47.609375 72.90625 
L 47.609375 25.390625 
L 58.015625 25.390625 
L 58.015625 17.1875 
L 47.609375 17.1875 
L 47.609375 0 
L 37.796875 0 
L 37.796875 17.1875 
L 4.890625 17.1875 
L 4.890625 26.703125 
z
" id="DejaVuSans-34"/>
       <path d="M 10.796875 72.90625 
L 49.515625 72.90625 
L 49.515625 64.59375 
L 19.828125 64.59375 
L 19.828125 46.734375 
Q 21.96875 47.46875 24.109375 47.828125 
Q 26.265625 48.1875 28.421875 48.1875 
Q 40.625 48.1875 47.75 41.5 
Q 54.890625 34.8125 54.890625 23.390625 
Q 54.890625 11.625 47.5625 5.09375 
Q 40.234375 -1.421875 26.90625 -1.421875 
Q 22.3125 -1.421875 17.546875 -0.640625 
Q 12.796875 0.140625 7.71875 1.703125 
L 7.71875 11.625 
Q 12.109375 9.234375 16.796875 8.0625 
Q 21.484375 6.890625 26.703125 6.890625 
Q 35.15625 6.890625 40.078125 11.328125 
Q 45.015625 15.765625 45.015625 23.390625 
Q 45.015625 31 40.078125 35.4375 
Q 35.15625 39.890625 26.703125 39.890625 
Q 22.75 39.890625 18.8125 39.015625 
Q 14.890625 38.140625 10.796875 36.28125 
z
" id="DejaVuSans-35"/>
      </defs>
      <g transform="translate(39.126562 58.557914)scale(0.1 -0.1)">
       <use xlink:href="#DejaVuSans-2d"/>
       <use x="36.083984" xlink:href="#DejaVuSans-30"/>
       <use x="99.707031" xlink:href="#DejaVuSans-2e"/>
       <use x="131.494141" xlink:href="#DejaVuSans-34"/>
       <use x="195.117188" xlink:href="#DejaVuSans-35"/>
      </g>
     </g>
    </g>
    <g id="ytick_3">
     <g id="line2d_12">
      <g>
       <use style="stroke:#000000;stroke-width:0.8;" x="72" xlink:href="#m1311592810" y="39.711065"/>
      </g>
     </g>
     <g id="text_3">
      <!-- -0.29 -->
      <defs>
       <path d="M 19.1875 8.296875 
L 53.609375 8.296875 
L 53.609375 0 
L 7.328125 0 
L 7.328125 8.296875 
Q 12.9375 14.109375 22.625 23.890625 
Q 32.328125 33.6875 34.8125 36.53125 
Q 39.546875 41.84375 41.421875 45.53125 
Q 43.3125 49.21875 43.3125 52.78125 
Q 43.3125 58.59375 39.234375 62.25 
Q 35.15625 65.921875 28.609375 65.921875 
Q 23.96875 65.921875 18.8125 64.3125 
Q 13.671875 62.703125 7.8125 59.421875 
L 7.8125 69.390625 
Q 13.765625 71.78125 18.9375 73 
Q 24.125 74.21875 28.421875 74.21875 
Q 39.75 74.21875 46.484375 68.546875 
Q 53.21875 62.890625 53.21875 53.421875 
Q 53.21875 48.921875 51.53125 44.890625 
Q 49.859375 40.875 45.40625 35.40625 
Q 44.1875 33.984375 37.640625 27.21875 
Q 31.109375 20.453125 19.1875 8.296875 
z
" id="DejaVuSans-32"/>
       <path d="M 10.984375 1.515625 
L 10.984375 10.5 
Q 14.703125 8.734375 18.5 7.8125 
Q 22.3125 6.890625 25.984375 6.890625 
Q 35.75 6.890625 40.890625 13.453125 
Q 46.046875 20.015625 46.78125 33.40625 
Q 43.953125 29.203125 39.59375 26.953125 
Q 35.25 24.703125 29.984375 24.703125 
Q 19.046875 24.703125 12.671875 31.3125 
Q 6.296875 37.9375 6.296875 49.421875 
Q 6.296875 60.640625 12.9375 67.421875 
Q 19.578125 74.21875 30.609375 74.21875 
Q 43.265625 74.21875 49.921875 64.515625 
Q 56.59375 54.828125 56.59375 36.375 
Q 56.59375 19.140625 48.40625 8.859375 
Q 40.234375 -1.421875 26.421875 -1.421875 
Q 22.703125 -1.421875 18.890625 -0.6875 
Q 15.09375 0.046875 10.984375 1.515625 
z
M 30.609375 32.421875 
Q 37.25 32.421875 41.125 36.953125 
Q 45.015625 41.5 45.015625 49.421875 
Q 45.015625 57.28125 41.125 61.84375 
Q 37.25 66.40625 30.609375 66.40625 
Q 23.96875 66.40625 20.09375 61.84375 
Q 16.21875 57.28125 16.21875 49.421875 
Q 16.21875 41.5 20.09375 36.953125 
Q 23.96875 32.421875 30.609375 32.421875 
z
" id="DejaVuSans-39"/>
      </defs>
      <g transform="translate(39.126562 43.510283)scale(0.1 -0.1)">
       <use xlink:href="#DejaVuSans-2d"/>
       <use x="36.083984" xlink:href="#DejaVuSans-30"/>
       <use x="99.707031" xlink:href="#DejaVuSans-2e"/>
       <use x="131.494141" xlink:href="#DejaVuSans-32"/>
       <use x="195.117188" xlink:href="#DejaVuSans-39"/>
      </g>
     </g>
    </g>
    <g id="ytick_4">
     <g id="line2d_13">
      <g>
       <use style="stroke:#000000;stroke-width:0.8;" x="72" xlink:href="#m1311592810" y="24.663434"/>
      </g>
     </g>
     <g id="text_4">
      <!-- -0.13 -->
      <defs>
       <path d="M 12.40625 8.296875 
L 28.515625 8.296875 
L 28.515625 63.921875 
L 10.984375 60.40625 
L 10.984375 69.390625 
L 28.421875 72.90625 
L 38.28125 72.90625 
L 38.28125 8.296875 
L 54.390625 8.296875 
L 54.390625 0 
L 12.40625 0 
z
" id="DejaVuSans-31"/>
       <path d="M 40.578125 39.3125 
Q 47.65625 37.796875 51.625 33 
Q 55.609375 28.21875 55.609375 21.1875 
Q 55.609375 10.40625 48.1875 4.484375 
Q 40.765625 -1.421875 27.09375 -1.421875 
Q 22.515625 -1.421875 17.65625 -0.515625 
Q 12.796875 0.390625 7.625 2.203125 
L 7.625 11.71875 
Q 11.71875 9.328125 16.59375 8.109375 
Q 21.484375 6.890625 26.8125 6.890625 
Q 36.078125 6.890625 40.9375 10.546875 
Q 45.796875 14.203125 45.796875 21.1875 
Q 45.796875 27.640625 41.28125 31.265625 
Q 36.765625 34.90625 28.71875 34.90625 
L 20.21875 34.90625 
L 20.21875 43.015625 
L 29.109375 43.015625 
Q 36.375 43.015625 40.234375 45.921875 
Q 44.09375 48.828125 44.09375 54.296875 
Q 44.09375 59.90625 40.109375 62.90625 
Q 36.140625 65.921875 28.71875 65.921875 
Q 24.65625 65.921875 20.015625 65.03125 
Q 15.375 64.15625 9.8125 62.3125 
L 9.8125 71.09375 
Q 15.4375 72.65625 20.34375 73.4375 
Q 25.25 74.21875 29.59375 74.21875 
Q 40.828125 74.21875 47.359375 69.109375 
Q 53.90625 64.015625 53.90625 55.328125 
Q 53.90625 49.265625 50.4375 45.09375 
Q 46.96875 40.921875 40.578125 39.3125 
z
" id="DejaVuSans-33"/>
      </defs>
      <g transform="translate(39.126562 28.462653)scale(0.1 -0.1)">
       <use xlink:href="#DejaVuSans-2d"/>
       <use x="36.083984" xlink:href="#DejaVuSans-30"/>
       <use x="99.707031" xlink:href="#DejaVuSans-2e"/>
       <use x="131.494141" xlink:href="#DejaVuSans-31"/>
       <use x="195.117188" xlink:href="#DejaVuSans-33"/>
      </g>
     </g>
    </g>
    <g id="text_5">
     <!-- $s_{1}$ -->
     <defs>
      <path d="M 50 53.078125 
L 48.296875 44.578125 
Q 44.734375 46.53125 40.765625 47.5 
Q 36.8125 48.484375 32.625 48.484375 
Q 25.53125 48.484375 21.453125 46.0625 
Q 17.390625 43.65625 17.390625 39.5 
Q 17.390625 34.671875 26.859375 32.078125 
Q 27.59375 31.890625 27.9375 31.78125 
L 30.8125 30.90625 
Q 39.796875 28.421875 42.796875 25.6875 
Q 45.796875 22.953125 45.796875 18.21875 
Q 45.796875 9.515625 38.890625 4.046875 
Q 31.984375 -1.421875 20.796875 -1.421875 
Q 16.453125 -1.421875 11.671875 -0.578125 
Q 6.890625 0.25 1.125 2 
L 2.875 11.28125 
Q 7.8125 8.734375 12.59375 7.421875 
Q 17.390625 6.109375 21.78125 6.109375 
Q 28.375 6.109375 32.5 8.9375 
Q 36.625 11.765625 36.625 16.109375 
Q 36.625 20.796875 25.78125 23.6875 
L 24.859375 23.921875 
L 21.78125 24.703125 
Q 14.9375 26.515625 11.765625 29.46875 
Q 8.59375 32.421875 8.59375 37.015625 
Q 8.59375 45.75 15.15625 50.875 
Q 21.734375 56 33.015625 56 
Q 37.453125 56 41.671875 55.265625 
Q 45.90625 54.546875 50 53.078125 
z
" id="DejaVuSans-Oblique-73"/>
     </defs>
     <g transform="translate(33.046875 52.23488)rotate(-90)scale(0.1 -0.1)">
      <use xlink:href="#DejaVuSans-Oblique-73"/>
      <use transform="translate(52.099609 -16.40625)scale(0.7)" xlink:href="#DejaVuSans-31"/>
     </g>
    </g>
   </g>
   <g id="line2d_14">
    <path clip-path="url(#pe04f871678)" d="M 92.290909 36.675955 
L 97.427848 36.675955 
L 102.564787 36.675955 
L 107.701726 36.675955 
L 112.838665 36.675955 
L 117.975604 36.675955 
L 123.112543 28.584746 
L 128.249482 28.584746 
L 133.386421 28.584746 
L 138.52336 28.584746 
L 143.660299 26.251784 
L 148.797238 26.251784 
L 153.934177 26.251784 
L 159.071116 25.731636 
L 164.208055 25.731636 
L 169.344994 25.731636 
L 174.481933 25.71844 
L 179.618872 25.734409 
L 184.755811 25.734409 
L 189.89275 25.734409 
L 195.029689 25.734409 
L 200.166628 25.734409 
L 205.303567 25.734409 
L 210.440506 25.734409 
L 215.577445 25.734409 
L 220.714384 25.734409 
L 225.851323 25.912052 
L 230.988262 25.912052 
L 236.125201 25.912052 
L 241.26214 25.912052 
L 246.399079 25.912052 
L 251.536018 25.912052 
L 256.672957 25.912052 
L 261.809896 26.43651 
L 266.946835 26.926435 
L 272.083774 26.926435 
L 277.220713 26.926435 
L 282.357652 26.926435 
L 287.494591 26.926435 
L 292.63153 26.926435 
L 297.76847 26.926435 
L 302.905409 27.854919 
L 308.042348 27.854919 
L 313.179287 30.224077 
L 318.316226 30.224077 
L 323.453165 30.224077 
L 328.590104 30.224077 
L 333.727043 38.720904 
L 338.863982 38.720904 
L 344.000921 38.720904 
L 349.13786 39.734181 
L 354.274799 68.066322 
L 359.411738 68.066322 
L 364.548677 68.066322 
L 369.685616 68.066322 
L 374.822555 68.066322 
L 379.959494 68.066322 
L 385.096433 68.066322 
L 390.233372 68.066322 
L 395.370311 68.066322 
L 400.50725 68.066322 
L 405.644189 39.734181 
L 410.781128 39.734181 
L 415.918067 39.734181 
L 421.055006 39.734181 
L 426.191945 30.142812 
L 431.328884 30.142812 
L 436.465823 30.142812 
L 441.602762 30.142812 
L 446.739701 27.451153 
L 451.87664 27.451153 
L 457.013579 27.451153 
L 462.150518 27.451153 
L 467.287457 27.451153 
L 472.424396 27.451153 
L 477.561335 27.451153 
L 482.698274 27.451153 
L 487.835213 27.451153 
L 492.972152 26.903474 
L 498.109091 26.903474 
" style="fill:none;stroke:#1f77b4;stroke-linecap:square;stroke-width:1.5;"/>
   </g>
   <g id="line2d_15">
    <path clip-path="url(#pe04f871678)" d="M 92.290909 37.832264 
L 97.427848 37.418729 
L 102.564787 36.563507 
L 107.701726 35.283892 
L 112.838665 33.681425 
L 117.975604 31.921199 
L 123.112543 30.186864 
L 128.249482 28.632292 
L 133.386421 27.351639 
L 138.52336 26.375041 
L 143.660299 25.682729 
L 148.797238 25.22596 
L 153.934177 24.946175 
L 159.071116 24.788401 
L 164.208055 24.708217 
L 169.344994 24.673572 
L 174.481933 24.663434 
L 179.618872 24.665136 
L 184.755811 24.671687 
L 189.89275 24.679624 
L 195.029689 24.687572 
L 200.166628 24.695371 
L 205.303567 24.703648 
L 210.440506 24.713631 
L 215.577445 24.727092 
L 220.714384 24.746287 
L 225.851323 24.773789 
L 230.988262 24.812164 
L 236.125201 24.863496 
L 241.26214 24.928919 
L 246.399079 25.008325 
L 251.536018 25.100451 
L 256.672957 25.20337 
L 261.809896 25.315242 
L 266.946835 25.435077 
L 272.083774 25.563263 
L 277.220713 25.701822 
L 282.357652 25.854493 
L 287.494591 26.026952 
L 292.63153 26.227442 
L 297.76847 26.468128 
L 302.905409 26.767479 
L 308.042348 27.153985 
L 313.179287 27.671532 
L 318.316226 28.386628 
L 323.453165 29.397231 
L 328.590104 30.84181 
L 333.727043 32.904772 
L 338.863982 35.808787 
L 344.000921 39.773974 
L 349.13786 44.911853 
L 354.274799 51.036546 
L 359.411738 57.480757 
L 364.548677 63.184296 
L 369.685616 67.232633 
L 374.822555 69.379193 
L 379.959494 69.806326 
L 385.096433 68.42745 
L 390.233372 64.881375 
L 395.370311 59.276771 
L 400.50725 52.527004 
L 405.644189 45.831966 
L 410.781128 40.038482 
L 415.918067 35.466946 
L 421.055006 32.077552 
L 426.191945 29.675923 
L 431.328884 28.038821 
L 436.465823 26.967969 
L 441.602762 26.305051 
L 446.739701 25.930288 
L 451.87664 25.755573 
L 457.013579 25.716781 
L 462.150518 25.767063 
L 467.287457 25.871667 
L 472.424396 26.004271 
L 477.561335 26.144646 
L 482.698274 26.277354 
L 487.835213 26.391157 
L 492.972152 26.478801 
L 498.109091 26.536802 
" style="fill:none;stroke:#ff7f0e;stroke-linecap:square;stroke-width:1.5;"/>
   </g>
   <g id="patch_3">
    <path d="M 72 76.57776 
L 72 17.892 
" style="fill:none;stroke:#000000;stroke-linecap:square;stroke-linejoin:miter;stroke-width:0.8;"/>
   </g>
   <g id="patch_4">
    <path d="M 518.4 76.57776 
L 518.4 17.892 
" style="fill:none;stroke:#000000;stroke-linecap:square;stroke-linejoin:miter;stroke-width:0.8;"/>
   </g>
   <g id="patch_5">
    <path d="M 72 76.57776 
L 518.4 76.57776 
" style="fill:none;stroke:#000000;stroke-linecap:square;stroke-linejoin:miter;stroke-width:0.8;"/>
   </g>
   <g id="patch_6">
    <path d="M 72 17.892 
L 518.4 17.892 
" style="fill:none;stroke:#000000;stroke-linecap:square;stroke-linejoin:miter;stroke-width:0.8;"/>
   </g>
  </g>
  <g id="axes_2">
   <g id="patch_7">
    <path d="M 72 135.26352 
L 518.4 135.26352 
L 518.4 76.57776 
L 72 76.57776 
z
" style="fill:#ffffff;"/>
   </g>
   <g id="matplotlib.axis_3">
    <g id="xtick_10">
     <g id="line2d_16">
      <g>
       <use style="stroke:#000000;stroke-width:0.8;" x="92.290909" xlink:href="#m9be13fb8cd" y="135.26352"/>
      </g>
     </g>
    </g>
    <g id="xtick_11">
     <g id="line2d_17">
      <g>
       <use style="stroke:#000000;stroke-width:0.8;" x="143.660299" xlink:href="#m9be13fb8cd" y="135.26352"/>
      </g>
     </g>
    </g>
    <g id="xtick_12">
     <g id="line2d_18">
      <g>
       <use style="stroke:#000000;stroke-width:0.8;" x="195.029689" xlink:href="#m9be13fb8cd" y="135.26352"/>
      </g>
     </g>
    </g>
    <g id="xtick_13">
     <g id="line2d_19">
      <g>
       <use style="stroke:#000000;stroke-width:0.8;" x="246.399079" xlink:href="#m9be13fb8cd" y="135.26352"/>
      </g>
     </g>
    </g>
    <g id="xtick_14">
     <g id="line2d_20">
      <g>
       <use style="stroke:#000000;stroke-width:0.8;" x="297.76847" xlink:href="#m9be13fb8cd" y="135.26352"/>
      </g>
     </g>
    </g>
    <g id="xtick_15">
     <g id="line2d_21">
      <g>
       <use style="stroke:#000000;stroke-width:0.8;" x="349.13786" xlink:href="#m9be13fb8cd" y="135.26352"/>
      </g>
     </g>
    </g>
    <g id="xtick_16">
     <g id="line2d_22">
      <g>
       <use style="stroke:#000000;stroke-width:0.8;" x="400.50725" xlink:href="#m9be13fb8cd" y="135.26352"/>
      </g>
     </g>
    </g>
    <g id="xtick_17">
     <g id="line2d_23">
      <g>
       <use style="stroke:#000000;stroke-width:0.8;" x="451.87664" xlink:href="#m9be13fb8cd" y="135.26352"/>
      </g>
     </g>
    </g>
    <g id="xtick_18">
     <g id="line2d_24">
      <g>
       <use style="stroke:#000000;stroke-width:0.8;" x="503.24603" xlink:href="#m9be13fb8cd" y="135.26352"/>
      </g>
     </g>
    </g>
   </g>
   <g id="matplotlib.axis_4">
    <g id="ytick_5">
     <g id="line2d_25">
      <g>
       <use style="stroke:#000000;stroke-width:0.8;" x="72" xlink:href="#m1311592810" y="128.492086"/>
      </g>
     </g>
     <g id="text_6">
      <!-- 0.97 -->
      <defs>
       <path d="M 8.203125 72.90625 
L 55.078125 72.90625 
L 55.078125 68.703125 
L 28.609375 0 
L 18.3125 0 
L 43.21875 64.59375 
L 8.203125 64.59375 
z
" id="DejaVuSans-37"/>
      </defs>
      <g transform="translate(42.734375 132.291305)scale(0.1 -0.1)">
       <use xlink:href="#DejaVuSans-30"/>
       <use x="63.623047" xlink:href="#DejaVuSans-2e"/>
       <use x="95.410156" xlink:href="#DejaVuSans-39"/>
       <use x="159.033203" xlink:href="#DejaVuSans-37"/>
      </g>
     </g>
    </g>
    <g id="ytick_6">
     <g id="line2d_26">
      <g>
       <use style="stroke:#000000;stroke-width:0.8;" x="72" xlink:href="#m1311592810" y="113.444455"/>
      </g>
     </g>
     <g id="text_7">
      <!-- 2.12 -->
      <g transform="translate(42.734375 117.243674)scale(0.1 -0.1)">
       <use xlink:href="#DejaVuSans-32"/>
       <use x="63.623047" xlink:href="#DejaVuSans-2e"/>
       <use x="95.410156" xlink:href="#DejaVuSans-31"/>
       <use x="159.033203" xlink:href="#DejaVuSans-32"/>
      </g>
     </g>
    </g>
    <g id="ytick_7">
     <g id="line2d_27">
      <g>
       <use style="stroke:#000000;stroke-width:0.8;" x="72" xlink:href="#m1311592810" y="98.396825"/>
      </g>
     </g>
     <g id="text_8">
      <!-- 3.27 -->
      <g transform="translate(42.734375 102.196043)scale(0.1 -0.1)">
       <use xlink:href="#DejaVuSans-33"/>
       <use x="63.623047" xlink:href="#DejaVuSans-2e"/>
       <use x="95.410156" xlink:href="#DejaVuSans-32"/>
       <use x="159.033203" xlink:href="#DejaVuSans-37"/>
      </g>
     </g>
    </g>
    <g id="ytick_8">
     <g id="line2d_28">
      <g>
       <use style="stroke:#000000;stroke-width:0.8;" x="72" xlink:href="#m1311592810" y="83.349194"/>
      </g>
     </g>
     <g id="text_9">
      <!-- 4.42 -->
      <g transform="translate(42.734375 87.148413)scale(0.1 -0.1)">
       <use xlink:href="#DejaVuSans-34"/>
       <use x="63.623047" xlink:href="#DejaVuSans-2e"/>
       <use x="95.410156" xlink:href="#DejaVuSans-34"/>
       <use x="159.033203" xlink:href="#DejaVuSans-32"/>
      </g>
     </g>
    </g>
    <g id="text_10">
     <!-- $s_{25}$ -->
     <g transform="translate(36.654688 113.12064)rotate(-90)scale(0.1 -0.1)">
      <use xlink:href="#DejaVuSans-Oblique-73"/>
      <use transform="translate(52.099609 -16.40625)scale(0.7)" xlink:href="#DejaVuSans-32"/>
      <use transform="translate(96.635742 -16.40625)scale(0.7)" xlink:href="#DejaVuSans-35"/>
     </g>
    </g>
   </g>
   <g id="line2d_29">
    <path clip-path="url(#pf6f5b7b020)" d="M 92.290909 110.91305 
L 97.427848 110.91305 
L 102.564787 110.91305 
L 107.701726 110.91305 
L 112.838665 110.91305 
L 117.975604 110.91305 
L 123.112543 120.933772 
L 128.249482 120.933772 
L 133.386421 120.933772 
L 138.52336 120.933772 
L 143.660299 125.132737 
L 148.797238 125.132737 
L 153.934177 125.132737 
L 159.071116 126.997978 
L 164.208055 126.997978 
L 169.344994 126.997978 
L 174.481933 127.889116 
L 179.618872 127.686149 
L 184.755811 127.686149 
L 189.89275 127.686149 
L 195.029689 127.686149 
L 200.166628 127.686149 
L 205.303567 127.686149 
L 210.440506 127.686149 
L 215.577445 127.686149 
L 220.714384 127.686149 
L 225.851323 126.442983 
L 230.988262 126.442983 
L 236.125201 126.442983 
L 241.26214 126.442983 
L 246.399079 126.442983 
L 251.536018 126.442983 
L 256.672957 126.442983 
L 261.809896 126.007532 
L 266.946835 123.959132 
L 272.083774 123.959132 
L 277.220713 123.959132 
L 282.357652 123.959132 
L 287.494591 123.959132 
L 292.63153 123.959132 
L 297.76847 123.959132 
L 302.905409 123.533289 
L 308.042348 123.533289 
L 313.179287 118.730401 
L 318.316226 118.730401 
L 323.453165 118.730401 
L 328.590104 118.730401 
L 333.727043 107.521909 
L 338.863982 107.521909 
L 344.000921 107.521909 
L 349.13786 107.4183 
L 354.274799 83.958756 
L 359.411738 83.958756 
L 364.548677 83.958756 
L 369.685616 83.958756 
L 374.822555 83.958756 
L 379.959494 83.958756 
L 385.096433 83.958756 
L 390.233372 83.958756 
L 395.370311 83.958756 
L 400.50725 83.958756 
L 405.644189 107.4183 
L 410.781128 107.4183 
L 415.918067 107.4183 
L 421.055006 107.4183 
L 426.191945 119.627651 
L 431.328884 119.627651 
L 436.465823 119.627651 
L 441.602762 119.627651 
L 446.739701 124.901886 
L 451.87664 124.901886 
L 457.013579 124.901886 
L 462.150518 124.901886 
L 467.287457 124.901886 
L 472.424396 124.901886 
L 477.561335 124.901886 
L 482.698274 124.901886 
L 487.835213 124.901886 
L 492.972152 127.349227 
L 498.109091 127.349227 
" style="fill:none;stroke:#1f77b4;stroke-linecap:square;stroke-width:1.5;"/>
   </g>
   <g id="line2d_30">
    <path clip-path="url(#pf6f5b7b020)" d="M 92.290909 109.688178 
L 97.427848 110.110135 
L 102.564787 110.999107 
L 107.701726 112.368969 
L 112.838665 114.155456 
L 117.975604 116.219338 
L 123.112543 118.3769 
L 128.249482 120.447859 
L 133.386421 122.297574 
L 138.52336 123.855385 
L 143.660299 125.108242 
L 148.797238 126.081254 
L 153.934177 126.817514 
L 159.071116 127.363602 
L 164.208055 127.761671 
L 169.344994 128.046361 
L 174.481933 128.244494 
L 179.618872 128.375978 
L 184.755811 128.455077 
L 189.89275 128.491632 
L 195.029689 128.492086 
L 200.166628 128.460332 
L 205.303567 128.398403 
L 210.440506 128.307103 
L 215.577445 128.186615 
L 220.714384 128.037144 
L 225.851323 127.859588 
L 230.988262 127.656169 
L 236.125201 127.4309 
L 241.26214 127.18969 
L 246.399079 126.939921 
L 251.536018 126.689448 
L 256.672957 126.445149 
L 261.809896 126.211369 
L 266.946835 125.988658 
L 272.083774 125.773082 
L 277.220713 125.556131 
L 282.357652 125.325001 
L 287.494591 125.062814 
L 292.63153 124.748415 
L 297.76847 124.355374 
L 302.905409 123.850004 
L 308.042348 123.18824 
L 313.179287 122.311353 
L 318.316226 121.140793 
L 323.453165 119.57327 
L 328.590104 117.479173 
L 333.727043 114.71122 
L 338.863982 111.135883 
L 344.000921 106.703231 
L 349.13786 101.557328 
L 354.274799 96.136944 
L 359.411738 91.139522 
L 364.548677 87.246065 
L 369.685616 84.759779 
L 374.822555 83.539847 
L 379.959494 83.349194 
L 385.096433 84.237313 
L 390.233372 86.532457 
L 395.370311 90.441 
L 400.50725 95.67634 
L 405.644189 101.512638 
L 410.781128 107.167113 
L 415.918067 112.114479 
L 421.055006 116.148666 
L 426.191945 119.285976 
L 431.328884 121.647371 
L 436.465823 123.380125 
L 441.602762 124.62043 
L 446.739701 125.481343 
L 451.87664 126.052707 
L 457.013579 126.405302 
L 462.150518 126.595678 
L 467.287457 126.670222 
L 472.424396 126.668048 
L 477.561335 126.622644 
L 482.698274 126.562417 
L 487.835213 126.510401 
L 492.972152 126.483532 
L 498.109091 126.491991 
" style="fill:none;stroke:#ff7f0e;stroke-linecap:square;stroke-width:1.5;"/>
   </g>
   <g id="patch_8">
    <path d="M 72 135.26352 
L 72 76.57776 
" style="fill:none;stroke:#000000;stroke-linecap:square;stroke-linejoin:miter;stroke-width:0.8;"/>
   </g>
   <g id="patch_9">
    <path d="M 518.4 135.26352 
L 518.4 76.57776 
" style="fill:none;stroke:#000000;stroke-linecap:square;stroke-linejoin:miter;stroke-width:0.8;"/>
   </g>
   <g id="patch_10">
    <path d="M 72 135.26352 
L 518.4 135.26352 
" style="fill:none;stroke:#000000;stroke-linecap:square;stroke-linejoin:miter;stroke-width:0.8;"/>
   </g>
   <g id="patch_11">
    <path d="M 72 76.57776 
L 518.4 76.57776 
" style="fill:none;stroke:#000000;stroke-linecap:square;stroke-linejoin:miter;stroke-width:0.8;"/>
   </g>
  </g>
  <g id="axes_3">
   <g id="patch_12">
    <path d="M 72 193.94928 
L 518.4 193.94928 
L 518.4 135.26352 
L 72 135.26352 
z
" style="fill:#ffffff;"/>
   </g>
   <g id="matplotlib.axis_5">
    <g id="xtick_19">
     <g id="line2d_31">
      <g>
       <use style="stroke:#000000;stroke-width:0.8;" x="92.290909" xlink:href="#m9be13fb8cd" y="193.94928"/>
      </g>
     </g>
    </g>
    <g id="xtick_20">
     <g id="line2d_32">
      <g>
       <use style="stroke:#000000;stroke-width:0.8;" x="143.660299" xlink:href="#m9be13fb8cd" y="193.94928"/>
      </g>
     </g>
    </g>
    <g id="xtick_21">
     <g id="line2d_33">
      <g>
       <use style="stroke:#000000;stroke-width:0.8;" x="195.029689" xlink:href="#m9be13fb8cd" y="193.94928"/>
      </g>
     </g>
    </g>
    <g id="xtick_22">
     <g id="line2d_34">
      <g>
       <use style="stroke:#000000;stroke-width:0.8;" x="246.399079" xlink:href="#m9be13fb8cd" y="193.94928"/>
      </g>
     </g>
    </g>
    <g id="xtick_23">
     <g id="line2d_35">
      <g>
       <use style="stroke:#000000;stroke-width:0.8;" x="297.76847" xlink:href="#m9be13fb8cd" y="193.94928"/>
      </g>
     </g>
    </g>
    <g id="xtick_24">
     <g id="line2d_36">
      <g>
       <use style="stroke:#000000;stroke-width:0.8;" x="349.13786" xlink:href="#m9be13fb8cd" y="193.94928"/>
      </g>
     </g>
    </g>
    <g id="xtick_25">
     <g id="line2d_37">
      <g>
       <use style="stroke:#000000;stroke-width:0.8;" x="400.50725" xlink:href="#m9be13fb8cd" y="193.94928"/>
      </g>
     </g>
    </g>
    <g id="xtick_26">
     <g id="line2d_38">
      <g>
       <use style="stroke:#000000;stroke-width:0.8;" x="451.87664" xlink:href="#m9be13fb8cd" y="193.94928"/>
      </g>
     </g>
    </g>
    <g id="xtick_27">
     <g id="line2d_39">
      <g>
       <use style="stroke:#000000;stroke-width:0.8;" x="503.24603" xlink:href="#m9be13fb8cd" y="193.94928"/>
      </g>
     </g>
    </g>
   </g>
   <g id="matplotlib.axis_6">
    <g id="ytick_9">
     <g id="line2d_40">
      <g>
       <use style="stroke:#000000;stroke-width:0.8;" x="72" xlink:href="#m1311592810" y="187.177846"/>
      </g>
     </g>
     <g id="text_11">
      <!-- 0.68 -->
      <defs>
       <path d="M 31.78125 34.625 
Q 24.75 34.625 20.71875 30.859375 
Q 16.703125 27.09375 16.703125 20.515625 
Q 16.703125 13.921875 20.71875 10.15625 
Q 24.75 6.390625 31.78125 6.390625 
Q 38.8125 6.390625 42.859375 10.171875 
Q 46.921875 13.96875 46.921875 20.515625 
Q 46.921875 27.09375 42.890625 30.859375 
Q 38.875 34.625 31.78125 34.625 
z
M 21.921875 38.8125 
Q 15.578125 40.375 12.03125 44.71875 
Q 8.5 49.078125 8.5 55.328125 
Q 8.5 64.0625 14.71875 69.140625 
Q 20.953125 74.21875 31.78125 74.21875 
Q 42.671875 74.21875 48.875 69.140625 
Q 55.078125 64.0625 55.078125 55.328125 
Q 55.078125 49.078125 51.53125 44.71875 
Q 48 40.375 41.703125 38.8125 
Q 48.828125 37.15625 52.796875 32.3125 
Q 56.78125 27.484375 56.78125 20.515625 
Q 56.78125 9.90625 50.3125 4.234375 
Q 43.84375 -1.421875 31.78125 -1.421875 
Q 19.734375 -1.421875 13.25 4.234375 
Q 6.78125 9.90625 6.78125 20.515625 
Q 6.78125 27.484375 10.78125 32.3125 
Q 14.796875 37.15625 21.921875 38.8125 
z
M 18.3125 54.390625 
Q 18.3125 48.734375 21.84375 45.5625 
Q 25.390625 42.390625 31.78125 42.390625 
Q 38.140625 42.390625 41.71875 45.5625 
Q 45.3125 48.734375 45.3125 54.390625 
Q 45.3125 60.0625 41.71875 63.234375 
Q 38.140625 66.40625 31.78125 66.40625 
Q 25.390625 66.40625 21.84375 63.234375 
Q 18.3125 60.0625 18.3125 54.390625 
z
" id="DejaVuSans-38"/>
      </defs>
      <g transform="translate(42.734375 190.977065)scale(0.1 -0.1)">
       <use xlink:href="#DejaVuSans-30"/>
       <use x="63.623047" xlink:href="#DejaVuSans-2e"/>
       <use x="95.410156" xlink:href="#DejaVuSans-36"/>
       <use x="159.033203" xlink:href="#DejaVuSans-38"/>
      </g>
     </g>
    </g>
    <g id="ytick_10">
     <g id="line2d_41">
      <g>
       <use style="stroke:#000000;stroke-width:0.8;" x="72" xlink:href="#m1311592810" y="172.130215"/>
      </g>
     </g>
     <g id="text_12">
      <!-- 0.76 -->
      <g transform="translate(42.734375 175.929434)scale(0.1 -0.1)">
       <use xlink:href="#DejaVuSans-30"/>
       <use x="63.623047" xlink:href="#DejaVuSans-2e"/>
       <use x="95.410156" xlink:href="#DejaVuSans-37"/>
       <use x="159.033203" xlink:href="#DejaVuSans-36"/>
      </g>
     </g>
    </g>
    <g id="ytick_11">
     <g id="line2d_42">
      <g>
       <use style="stroke:#000000;stroke-width:0.8;" x="72" xlink:href="#m1311592810" y="157.082585"/>
      </g>
     </g>
     <g id="text_13">
      <!-- 0.83 -->
      <g transform="translate(42.734375 160.881803)scale(0.1 -0.1)">
       <use xlink:href="#DejaVuSans-30"/>
       <use x="63.623047" xlink:href="#DejaVuSans-2e"/>
       <use x="95.410156" xlink:href="#DejaVuSans-38"/>
       <use x="159.033203" xlink:href="#DejaVuSans-33"/>
      </g>
     </g>
    </g>
    <g id="ytick_12">
     <g id="line2d_43">
      <g>
       <use style="stroke:#000000;stroke-width:0.8;" x="72" xlink:href="#m1311592810" y="142.034954"/>
      </g>
     </g>
     <g id="text_14">
      <!-- 0.91 -->
      <g transform="translate(42.734375 145.834173)scale(0.1 -0.1)">
       <use xlink:href="#DejaVuSans-30"/>
       <use x="63.623047" xlink:href="#DejaVuSans-2e"/>
       <use x="95.410156" xlink:href="#DejaVuSans-39"/>
       <use x="159.033203" xlink:href="#DejaVuSans-31"/>
      </g>
     </g>
    </g>
    <g id="text_15">
     <!-- $s_{50}$ -->
     <g transform="translate(36.654688 171.8064)rotate(-90)scale(0.1 -0.1)">
      <use xlink:href="#DejaVuSans-Oblique-73"/>
      <use transform="translate(52.099609 -16.40625)scale(0.7)" xlink:href="#DejaVuSans-35"/>
      <use transform="translate(96.635742 -16.40625)scale(0.7)" xlink:href="#DejaVuSans-30"/>
     </g>
    </g>
   </g>
   <g id="line2d_44">
    <path clip-path="url(#p8af04956a5)" d="M 92.290909 149.185695 
L 97.427848 149.185695 
L 102.564787 149.185695 
L 107.701726 149.185695 
L 112.838665 149.185695 
L 117.975604 149.185695 
L 123.112543 156.002708 
L 128.249482 156.002708 
L 133.386421 156.002708 
L 138.52336 156.002708 
L 143.660299 165.323103 
L 148.797238 165.323103 
L 153.934177 165.323103 
L 159.071116 176.044319 
L 164.208055 176.044319 
L 169.344994 176.044319 
L 174.481933 187.177846 
L 179.618872 185.479511 
L 184.755811 185.479511 
L 189.89275 185.479511 
L 195.029689 185.479511 
L 200.166628 185.479511 
L 205.303567 185.479511 
L 210.440506 185.479511 
L 215.577445 185.479511 
L 220.714384 185.479511 
L 225.851323 172.605676 
L 230.988262 172.605676 
L 236.125201 172.605676 
L 241.26214 172.605676 
L 246.399079 172.605676 
L 251.536018 172.605676 
L 256.672957 172.605676 
L 261.809896 170.84423 
L 266.946835 160.288409 
L 272.083774 160.288409 
L 277.220713 160.288409 
L 282.357652 160.288409 
L 287.494591 160.288409 
L 292.63153 160.288409 
L 297.76847 160.288409 
L 302.905409 158.690404 
L 308.042348 158.690404 
L 313.179287 149.900848 
L 318.316226 149.900848 
L 323.453165 149.900848 
L 328.590104 149.900848 
L 333.727043 143.969063 
L 338.863982 143.969063 
L 344.000921 143.969063 
L 349.13786 143.421832 
L 354.274799 142.31003 
L 359.411738 142.31003 
L 364.548677 142.31003 
L 369.685616 142.31003 
L 374.822555 142.31003 
L 379.959494 142.31003 
L 385.096433 142.31003 
L 390.233372 142.31003 
L 395.370311 142.31003 
L 400.50725 142.31003 
L 405.644189 143.421832 
L 410.781128 143.421832 
L 415.918067 143.421832 
L 421.055006 143.421832 
L 426.191945 148.801619 
L 431.328884 148.801619 
L 436.465823 148.801619 
L 441.602762 148.801619 
L 446.739701 157.262002 
L 451.87664 157.262002 
L 457.013579 157.262002 
L 462.150518 157.262002 
L 467.287457 157.262002 
L 472.424396 157.262002 
L 477.561335 157.262002 
L 482.698274 157.262002 
L 487.835213 157.262002 
L 492.972152 167.503795 
L 498.109091 167.503795 
" style="fill:none;stroke:#1f77b4;stroke-linecap:square;stroke-width:1.5;"/>
   </g>
   <g id="line2d_45">
    <path clip-path="url(#p8af04956a5)" d="M 92.290909 149.601509 
L 97.427848 149.717352 
L 102.564787 149.983536 
L 107.701726 150.445933 
L 112.838665 151.158701 
L 117.975604 152.18254 
L 123.112543 153.578383 
L 128.249482 155.396364 
L 133.386421 157.661748 
L 138.52336 160.361512 
L 143.660299 163.436275 
L 148.797238 166.781257 
L 153.934177 170.256884 
L 159.071116 173.706006 
L 164.208055 176.972685 
L 169.344994 179.91789 
L 174.481933 182.429599 
L 179.618872 184.42722 
L 184.755811 185.861693 
L 189.89275 186.713177 
L 195.029689 186.987831 
L 200.166628 186.714635 
L 205.303567 185.942534 
L 210.440506 184.737705 
L 215.577445 183.180488 
L 220.714384 181.361486 
L 225.851323 179.376542 
L 230.988262 177.320682 
L 236.125201 175.281548 
L 241.26214 173.333164 
L 246.399079 171.530962 
L 251.536018 169.908695 
L 256.672957 168.477501 
L 261.809896 167.226876 
L 266.946835 166.127179 
L 272.083774 165.133194 
L 277.220713 164.188501 
L 282.357652 163.230518 
L 287.494591 162.196153 
L 292.63153 161.027981 
L 297.76847 159.680734 
L 302.905409 158.127724 
L 308.042348 156.366643 
L 313.179287 154.423879 
L 318.316226 152.356192 
L 323.453165 150.248348 
L 328.590104 148.205533 
L 333.727043 146.340222 
L 338.863982 144.754902 
L 344.000921 143.523992 
L 349.13786 142.679461 
L 354.274799 142.204164 
L 359.411738 142.034954 
L 364.548677 142.075197 
L 369.685616 142.214495 
L 374.822555 142.352038 
L 379.959494 142.418906 
L 385.096433 142.394073 
L 390.233372 142.309657 
L 395.370311 142.243371 
L 400.50725 142.299597 
L 405.644189 142.583932 
L 410.781128 143.177991 
L 415.918067 144.120899 
L 421.055006 145.401542 
L 426.191945 146.962455 
L 431.328884 148.713101 
L 436.465823 150.547997 
L 441.602762 152.364774 
L 446.739701 154.078407 
L 451.87664 155.629913 
L 457.013579 156.989649 
L 462.150518 158.156325 
L 467.287457 159.15316 
L 472.424396 160.022384 
L 477.561335 160.819019 
L 482.698274 161.604556 
L 487.835213 162.440917 
L 492.972152 163.384908 
L 498.109091 164.483236 
" style="fill:none;stroke:#ff7f0e;stroke-linecap:square;stroke-width:1.5;"/>
   </g>
   <g id="patch_13">
    <path d="M 72 193.94928 
L 72 135.26352 
" style="fill:none;stroke:#000000;stroke-linecap:square;stroke-linejoin:miter;stroke-width:0.8;"/>
   </g>
   <g id="patch_14">
    <path d="M 518.4 193.94928 
L 518.4 135.26352 
" style="fill:none;stroke:#000000;stroke-linecap:square;stroke-linejoin:miter;stroke-width:0.8;"/>
   </g>
   <g id="patch_15">
    <path d="M 72 193.94928 
L 518.4 193.94928 
" style="fill:none;stroke:#000000;stroke-linecap:square;stroke-linejoin:miter;stroke-width:0.8;"/>
   </g>
   <g id="patch_16">
    <path d="M 72 135.26352 
L 518.4 135.26352 
" style="fill:none;stroke:#000000;stroke-linecap:square;stroke-linejoin:miter;stroke-width:0.8;"/>
   </g>
  </g>
  <g id="axes_4">
   <g id="patch_17">
    <path d="M 72 252.63504 
L 518.4 252.63504 
L 518.4 193.94928 
L 72 193.94928 
z
" style="fill:#ffffff;"/>
   </g>
   <g id="matplotlib.axis_7">
    <g id="xtick_28">
     <g id="line2d_46">
      <g>
       <use style="stroke:#000000;stroke-width:0.8;" x="92.290909" xlink:href="#m9be13fb8cd" y="252.63504"/>
      </g>
     </g>
    </g>
    <g id="xtick_29">
     <g id="line2d_47">
      <g>
       <use style="stroke:#000000;stroke-width:0.8;" x="143.660299" xlink:href="#m9be13fb8cd" y="252.63504"/>
      </g>
     </g>
    </g>
    <g id="xtick_30">
     <g id="line2d_48">
      <g>
       <use style="stroke:#000000;stroke-width:0.8;" x="195.029689" xlink:href="#m9be13fb8cd" y="252.63504"/>
      </g>
     </g>
    </g>
    <g id="xtick_31">
     <g id="line2d_49">
      <g>
       <use style="stroke:#000000;stroke-width:0.8;" x="246.399079" xlink:href="#m9be13fb8cd" y="252.63504"/>
      </g>
     </g>
    </g>
    <g id="xtick_32">
     <g id="line2d_50">
      <g>
       <use style="stroke:#000000;stroke-width:0.8;" x="297.76847" xlink:href="#m9be13fb8cd" y="252.63504"/>
      </g>
     </g>
    </g>
    <g id="xtick_33">
     <g id="line2d_51">
      <g>
       <use style="stroke:#000000;stroke-width:0.8;" x="349.13786" xlink:href="#m9be13fb8cd" y="252.63504"/>
      </g>
     </g>
    </g>
    <g id="xtick_34">
     <g id="line2d_52">
      <g>
       <use style="stroke:#000000;stroke-width:0.8;" x="400.50725" xlink:href="#m9be13fb8cd" y="252.63504"/>
      </g>
     </g>
    </g>
    <g id="xtick_35">
     <g id="line2d_53">
      <g>
       <use style="stroke:#000000;stroke-width:0.8;" x="451.87664" xlink:href="#m9be13fb8cd" y="252.63504"/>
      </g>
     </g>
    </g>
    <g id="xtick_36">
     <g id="line2d_54">
      <g>
       <use style="stroke:#000000;stroke-width:0.8;" x="503.24603" xlink:href="#m9be13fb8cd" y="252.63504"/>
      </g>
     </g>
    </g>
   </g>
   <g id="matplotlib.axis_8">
    <g id="ytick_13">
     <g id="line2d_55">
      <g>
       <use style="stroke:#000000;stroke-width:0.8;" x="72" xlink:href="#m1311592810" y="245.863606"/>
      </g>
     </g>
     <g id="text_16">
      <!-- 3.50 -->
      <g transform="translate(42.734375 249.662825)scale(0.1 -0.1)">
       <use xlink:href="#DejaVuSans-33"/>
       <use x="63.623047" xlink:href="#DejaVuSans-2e"/>
       <use x="95.410156" xlink:href="#DejaVuSans-35"/>
       <use x="159.033203" xlink:href="#DejaVuSans-30"/>
      </g>
     </g>
    </g>
    <g id="ytick_14">
     <g id="line2d_56">
      <g>
       <use style="stroke:#000000;stroke-width:0.8;" x="72" xlink:href="#m1311592810" y="230.815975"/>
      </g>
     </g>
     <g id="text_17">
      <!-- 4.14 -->
      <g transform="translate(42.734375 234.615194)scale(0.1 -0.1)">
       <use xlink:href="#DejaVuSans-34"/>
       <use x="63.623047" xlink:href="#DejaVuSans-2e"/>
       <use x="95.410156" xlink:href="#DejaVuSans-31"/>
       <use x="159.033203" xlink:href="#DejaVuSans-34"/>
      </g>
     </g>
    </g>
    <g id="ytick_15">
     <g id="line2d_57">
      <g>
       <use style="stroke:#000000;stroke-width:0.8;" x="72" xlink:href="#m1311592810" y="215.768345"/>
      </g>
     </g>
     <g id="text_18">
      <!-- 4.78 -->
      <g transform="translate(42.734375 219.567563)scale(0.1 -0.1)">
       <use xlink:href="#DejaVuSans-34"/>
       <use x="63.623047" xlink:href="#DejaVuSans-2e"/>
       <use x="95.410156" xlink:href="#DejaVuSans-37"/>
       <use x="159.033203" xlink:href="#DejaVuSans-38"/>
      </g>
     </g>
    </g>
    <g id="ytick_16">
     <g id="line2d_58">
      <g>
       <use style="stroke:#000000;stroke-width:0.8;" x="72" xlink:href="#m1311592810" y="200.720714"/>
      </g>
     </g>
     <g id="text_19">
      <!-- 5.41 -->
      <g transform="translate(42.734375 204.519933)scale(0.1 -0.1)">
       <use xlink:href="#DejaVuSans-35"/>
       <use x="63.623047" xlink:href="#DejaVuSans-2e"/>
       <use x="95.410156" xlink:href="#DejaVuSans-34"/>
       <use x="159.033203" xlink:href="#DejaVuSans-31"/>
      </g>
     </g>
    </g>
    <g id="text_20">
     <!-- $s_{75}$ -->
     <g transform="translate(36.654688 230.49216)rotate(-90)scale(0.1 -0.1)">
      <use xlink:href="#DejaVuSans-Oblique-73"/>
      <use transform="translate(52.099609 -16.40625)scale(0.7)" xlink:href="#DejaVuSans-37"/>
      <use transform="translate(96.635742 -16.40625)scale(0.7)" xlink:href="#DejaVuSans-35"/>
     </g>
    </g>
   </g>
   <g id="line2d_59">
    <path clip-path="url(#p7aef36b03d)" d="M 92.290909 238.52751 
L 97.427848 238.52751 
L 102.564787 238.52751 
L 107.701726 238.52751 
L 112.838665 238.52751 
L 117.975604 238.52751 
L 123.112543 229.249783 
L 128.249482 229.249783 
L 133.386421 229.249783 
L 138.52336 229.249783 
L 143.660299 222.312554 
L 148.797238 222.312554 
L 153.934177 222.312554 
L 159.071116 217.719995 
L 164.208055 217.719995 
L 169.344994 217.719995 
L 174.481933 215.347459 
L 179.618872 213.620189 
L 184.755811 213.620189 
L 189.89275 213.620189 
L 195.029689 213.620189 
L 200.166628 213.620189 
L 205.303567 213.620189 
L 210.440506 213.620189 
L 215.577445 213.620189 
L 220.714384 213.620189 
L 225.851323 212.874909 
L 230.988262 212.874909 
L 236.125201 212.874909 
L 241.26214 212.874909 
L 246.399079 212.874909 
L 251.536018 212.874909 
L 256.672957 212.874909 
L 261.809896 209.651812 
L 266.946835 212.102145 
L 272.083774 212.102145 
L 277.220713 212.102145 
L 282.357652 212.102145 
L 287.494591 212.102145 
L 292.63153 212.102145 
L 297.76847 212.102145 
L 302.905409 207.067929 
L 308.042348 207.067929 
L 313.179287 209.929397 
L 318.316226 209.929397 
L 323.453165 209.929397 
L 328.590104 209.929397 
L 333.727043 213.907141 
L 338.863982 213.907141 
L 344.000921 213.907141 
L 349.13786 203.567355 
L 354.274799 204.894909 
L 359.411738 204.894909 
L 364.548677 204.894909 
L 369.685616 204.894909 
L 374.822555 204.894909 
L 379.959494 204.894909 
L 385.096433 204.894909 
L 390.233372 204.894909 
L 395.370311 204.894909 
L 400.50725 204.894909 
L 405.644189 203.567355 
L 410.781128 203.567355 
L 415.918067 203.567355 
L 421.055006 203.567355 
L 426.191945 201.925122 
L 431.328884 201.925122 
L 436.465823 201.925122 
L 441.602762 201.925122 
L 446.739701 200.80083 
L 451.87664 200.80083 
L 457.013579 200.80083 
L 462.150518 200.80083 
L 467.287457 200.80083 
L 472.424396 200.80083 
L 477.561335 200.80083 
L 482.698274 200.80083 
L 487.835213 200.80083 
L 492.972152 200.720714 
L 498.109091 200.720714 
" style="fill:none;stroke:#1f77b4;stroke-linecap:square;stroke-width:1.5;"/>
   </g>
   <g id="line2d_60">
    <path clip-path="url(#p7aef36b03d)" d="M 92.290909 245.863606 
L 97.427848 245.527457 
L 102.564787 244.824658 
L 107.701726 243.713668 
L 112.838665 242.183612 
L 117.975604 240.258944 
L 123.112543 237.999996 
L 128.249482 235.498768 
L 133.386421 232.870091 
L 138.52336 230.239016 
L 143.660299 227.726258 
L 148.797238 225.434087 
L 153.934177 223.43534 
L 159.071116 221.767625 
L 164.208055 220.433613 
L 169.344994 219.406758 
L 174.481933 218.640636 
L 179.618872 218.079486 
L 184.755811 217.667864 
L 189.89275 217.357941 
L 195.029689 217.113794 
L 200.166628 216.912679 
L 205.303567 216.743708 
L 210.440506 216.604607 
L 215.577445 216.497385 
L 220.714384 216.423873 
L 225.851323 216.382046 
L 230.988262 216.363908 
L 236.125201 216.35536 
L 241.26214 216.33799 
L 246.399079 216.292209 
L 251.536018 216.200854 
L 256.672957 216.052297 
L 261.809896 215.842317 
L 266.946835 215.574472 
L 272.083774 215.259084 
L 277.220713 214.911321 
L 282.357652 214.549024 
L 287.494591 214.190761 
L 292.63153 213.854449 
L 297.76847 213.556481 
L 302.905409 213.311016 
L 308.042348 213.128974 
L 313.179287 213.016247 
L 318.316226 212.971014 
L 323.453165 212.980492 
L 328.590104 213.018157 
L 333.727043 213.042957 
L 338.863982 213.002163 
L 344.000921 212.838789 
L 349.13786 212.503092 
L 354.274799 211.96568 
L 359.411738 211.227934 
L 364.548677 210.325365 
L 369.685616 209.321397 
L 374.822555 208.292863 
L 379.959494 207.312194 
L 385.096433 206.432403 
L 390.233372 205.679255 
L 395.370311 205.051991 
L 400.50725 204.53133 
L 405.644189 204.091376 
L 410.781128 203.710877 
L 415.918067 203.379841 
L 421.055006 203.100043 
L 426.191945 202.880757 
L 431.328884 202.732743 
L 436.465823 202.663311 
L 441.602762 202.673945 
L 446.739701 202.760538 
L 451.87664 202.915246 
L 457.013579 203.128775 
L 462.150518 203.392202 
L 467.287457 203.697849 
L 472.424396 204.039286 
L 477.561335 204.410765 
L 482.698274 204.806577 
L 487.835213 205.220708 
L 492.972152 205.647017 
L 498.109091 206.079943 
" style="fill:none;stroke:#ff7f0e;stroke-linecap:square;stroke-width:1.5;"/>
   </g>
   <g id="patch_18">
    <path d="M 72 252.63504 
L 72 193.94928 
" style="fill:none;stroke:#000000;stroke-linecap:square;stroke-linejoin:miter;stroke-width:0.8;"/>
   </g>
   <g id="patch_19">
    <path d="M 518.4 252.63504 
L 518.4 193.94928 
" style="fill:none;stroke:#000000;stroke-linecap:square;stroke-linejoin:miter;stroke-width:0.8;"/>
   </g>
   <g id="patch_20">
    <path d="M 72 252.63504 
L 518.4 252.63504 
" style="fill:none;stroke:#000000;stroke-linecap:square;stroke-linejoin:miter;stroke-width:0.8;"/>
   </g>
   <g id="patch_21">
    <path d="M 72 193.94928 
L 518.4 193.94928 
" style="fill:none;stroke:#000000;stroke-linecap:square;stroke-linejoin:miter;stroke-width:0.8;"/>
   </g>
  </g>
  <g id="axes_5">
   <g id="patch_22">
    <path d="M 72 311.3208 
L 518.4 311.3208 
L 518.4 252.63504 
L 72 252.63504 
z
" style="fill:#ffffff;"/>
   </g>
   <g id="matplotlib.axis_9">
    <g id="xtick_37">
     <g id="line2d_61">
      <g>
       <use style="stroke:#000000;stroke-width:0.8;" x="92.290909" xlink:href="#m9be13fb8cd" y="311.3208"/>
      </g>
     </g>
     <g id="text_21">
      <!-- 0 -->
      <g transform="translate(89.109659 325.919237)scale(0.1 -0.1)">
       <use xlink:href="#DejaVuSans-30"/>
      </g>
     </g>
    </g>
    <g id="xtick_38">
     <g id="line2d_62">
      <g>
       <use style="stroke:#000000;stroke-width:0.8;" x="143.660299" xlink:href="#m9be13fb8cd" y="311.3208"/>
      </g>
     </g>
     <g id="text_22">
      <!-- 10 -->
      <g transform="translate(137.297799 325.919237)scale(0.1 -0.1)">
       <use xlink:href="#DejaVuSans-31"/>
       <use x="63.623047" xlink:href="#DejaVuSans-30"/>
      </g>
     </g>
    </g>
    <g id="xtick_39">
     <g id="line2d_63">
      <g>
       <use style="stroke:#000000;stroke-width:0.8;" x="195.029689" xlink:href="#m9be13fb8cd" y="311.3208"/>
      </g>
     </g>
     <g id="text_23">
      <!-- 20 -->
      <g transform="translate(188.667189 325.919237)scale(0.1 -0.1)">
       <use xlink:href="#DejaVuSans-32"/>
       <use x="63.623047" xlink:href="#DejaVuSans-30"/>
      </g>
     </g>
    </g>
    <g id="xtick_40">
     <g id="line2d_64">
      <g>
       <use style="stroke:#000000;stroke-width:0.8;" x="246.399079" xlink:href="#m9be13fb8cd" y="311.3208"/>
      </g>
     </g>
     <g id="text_24">
      <!-- 30 -->
      <g transform="translate(240.036579 325.919237)scale(0.1 -0.1)">
       <use xlink:href="#DejaVuSans-33"/>
       <use x="63.623047" xlink:href="#DejaVuSans-30"/>
      </g>
     </g>
    </g>
    <g id="xtick_41">
     <g id="line2d_65">
      <g>
       <use style="stroke:#000000;stroke-width:0.8;" x="297.76847" xlink:href="#m9be13fb8cd" y="311.3208"/>
      </g>
     </g>
     <g id="text_25">
      <!-- 40 -->
      <g transform="translate(291.40597 325.919237)scale(0.1 -0.1)">
       <use xlink:href="#DejaVuSans-34"/>
       <use x="63.623047" xlink:href="#DejaVuSans-30"/>
      </g>
     </g>
    </g>
    <g id="xtick_42">
     <g id="line2d_66">
      <g>
       <use style="stroke:#000000;stroke-width:0.8;" x="349.13786" xlink:href="#m9be13fb8cd" y="311.3208"/>
      </g>
     </g>
     <g id="text_26">
      <!-- 50 -->
      <g transform="translate(342.77536 325.919237)scale(0.1 -0.1)">
       <use xlink:href="#DejaVuSans-35"/>
       <use x="63.623047" xlink:href="#DejaVuSans-30"/>
      </g>
     </g>
    </g>
    <g id="xtick_43">
     <g id="line2d_67">
      <g>
       <use style="stroke:#000000;stroke-width:0.8;" x="400.50725" xlink:href="#m9be13fb8cd" y="311.3208"/>
      </g>
     </g>
     <g id="text_27">
      <!-- 60 -->
      <g transform="translate(394.14475 325.919237)scale(0.1 -0.1)">
       <use xlink:href="#DejaVuSans-36"/>
       <use x="63.623047" xlink:href="#DejaVuSans-30"/>
      </g>
     </g>
    </g>
    <g id="xtick_44">
     <g id="line2d_68">
      <g>
       <use style="stroke:#000000;stroke-width:0.8;" x="451.87664" xlink:href="#m9be13fb8cd" y="311.3208"/>
      </g>
     </g>
     <g id="text_28">
      <!-- 70 -->
      <g transform="translate(445.51414 325.919237)scale(0.1 -0.1)">
       <use xlink:href="#DejaVuSans-37"/>
       <use x="63.623047" xlink:href="#DejaVuSans-30"/>
      </g>
     </g>
    </g>
    <g id="xtick_45">
     <g id="line2d_69">
      <g>
       <use style="stroke:#000000;stroke-width:0.8;" x="503.24603" xlink:href="#m9be13fb8cd" y="311.3208"/>
      </g>
     </g>
     <g id="text_29">
      <!-- 80 -->
      <g transform="translate(496.88353 325.919237)scale(0.1 -0.1)">
       <use xlink:href="#DejaVuSans-38"/>
       <use x="63.623047" xlink:href="#DejaVuSans-30"/>
      </g>
     </g>
    </g>
   </g>
   <g id="matplotlib.axis_10">
    <g id="ytick_17">
     <g id="line2d_70">
      <g>
       <use style="stroke:#000000;stroke-width:0.8;" x="72" xlink:href="#m1311592810" y="304.549366"/>
      </g>
     </g>
     <g id="text_30">
      <!-- -10.45 -->
      <g transform="translate(32.764063 308.348585)scale(0.1 -0.1)">
       <use xlink:href="#DejaVuSans-2d"/>
       <use x="36.083984" xlink:href="#DejaVuSans-31"/>
       <use x="99.707031" xlink:href="#DejaVuSans-30"/>
       <use x="163.330078" xlink:href="#DejaVuSans-2e"/>
       <use x="195.117188" xlink:href="#DejaVuSans-34"/>
       <use x="258.740234" xlink:href="#DejaVuSans-35"/>
      </g>
     </g>
    </g>
    <g id="ytick_18">
     <g id="line2d_71">
      <g>
       <use style="stroke:#000000;stroke-width:0.8;" x="72" xlink:href="#m1311592810" y="289.501735"/>
      </g>
     </g>
     <g id="text_31">
      <!-- -9.68 -->
      <g transform="translate(39.126562 293.300954)scale(0.1 -0.1)">
       <use xlink:href="#DejaVuSans-2d"/>
       <use x="36.083984" xlink:href="#DejaVuSans-39"/>
       <use x="99.707031" xlink:href="#DejaVuSans-2e"/>
       <use x="131.494141" xlink:href="#DejaVuSans-36"/>
       <use x="195.117188" xlink:href="#DejaVuSans-38"/>
      </g>
     </g>
    </g>
    <g id="ytick_19">
     <g id="line2d_72">
      <g>
       <use style="stroke:#000000;stroke-width:0.8;" x="72" xlink:href="#m1311592810" y="274.454105"/>
      </g>
     </g>
     <g id="text_32">
      <!-- -8.92 -->
      <g transform="translate(39.126562 278.253323)scale(0.1 -0.1)">
       <use xlink:href="#DejaVuSans-2d"/>
       <use x="36.083984" xlink:href="#DejaVuSans-38"/>
       <use x="99.707031" xlink:href="#DejaVuSans-2e"/>
       <use x="131.494141" xlink:href="#DejaVuSans-39"/>
       <use x="195.117188" xlink:href="#DejaVuSans-32"/>
      </g>
     </g>
    </g>
    <g id="ytick_20">
     <g id="line2d_73">
      <g>
       <use style="stroke:#000000;stroke-width:0.8;" x="72" xlink:href="#m1311592810" y="259.406474"/>
      </g>
     </g>
     <g id="text_33">
      <!-- -8.15 -->
      <g transform="translate(39.126562 263.205693)scale(0.1 -0.1)">
       <use xlink:href="#DejaVuSans-2d"/>
       <use x="36.083984" xlink:href="#DejaVuSans-38"/>
       <use x="99.707031" xlink:href="#DejaVuSans-2e"/>
       <use x="131.494141" xlink:href="#DejaVuSans-31"/>
       <use x="195.117188" xlink:href="#DejaVuSans-35"/>
      </g>
     </g>
    </g>
    <g id="text_34">
     <!-- $s_{92}$ -->
     <g transform="translate(26.684375 289.17792)rotate(-90)scale(0.1 -0.1)">
      <use xlink:href="#DejaVuSans-Oblique-73"/>
      <use transform="translate(52.099609 -16.40625)scale(0.7)" xlink:href="#DejaVuSans-39"/>
      <use transform="translate(96.624805 -16.40625)scale(0.7)" xlink:href="#DejaVuSans-32"/>
     </g>
    </g>
   </g>
   <g id="line2d_74">
    <path clip-path="url(#p277150133d)" d="M 92.290909 302.181298 
L 97.427848 302.181298 
L 102.564787 302.181298 
L 107.701726 302.181298 
L 112.838665 302.181298 
L 117.975604 302.181298 
L 123.112543 294.273469 
L 128.249482 294.273469 
L 133.386421 294.273469 
L 138.52336 294.273469 
L 143.660299 284.876612 
L 148.797238 284.876612 
L 153.934177 284.876612 
L 159.071116 274.091376 
L 164.208055 274.091376 
L 169.344994 274.091376 
L 174.481933 262.1658 
L 179.618872 259.673063 
L 184.755811 259.673063 
L 189.89275 259.673063 
L 195.029689 259.673063 
L 200.166628 259.673063 
L 205.303567 259.673063 
L 210.440506 259.673063 
L 215.577445 259.673063 
L 220.714384 259.673063 
L 225.851323 269.378832 
L 230.988262 269.378832 
L 236.125201 269.378832 
L 241.26214 269.378832 
L 246.399079 269.378832 
L 251.536018 269.378832 
L 256.672957 269.378832 
L 261.809896 267.359703 
L 266.946835 278.283963 
L 272.083774 278.283963 
L 277.220713 278.283963 
L 282.357652 278.283963 
L 287.494591 278.283963 
L 292.63153 278.283963 
L 297.76847 278.283963 
L 302.905409 276.566675 
L 308.042348 276.566675 
L 313.179287 286.183491 
L 318.316226 286.183491 
L 323.453165 286.183491 
L 328.590104 286.183491 
L 333.727043 294.363184 
L 338.863982 294.363184 
L 344.000921 294.363184 
L 349.13786 292.988745 
L 354.274799 299.926497 
L 359.411738 299.926497 
L 364.548677 299.926497 
L 369.685616 299.926497 
L 374.822555 299.926497 
L 379.959494 299.926497 
L 385.096433 299.926497 
L 390.233372 299.926497 
L 395.370311 299.926497 
L 400.50725 299.926497 
L 405.644189 292.988745 
L 410.781128 292.988745 
L 415.918067 292.988745 
L 421.055006 292.988745 
L 426.191945 284.753781 
L 431.328884 284.753781 
L 436.465823 284.753781 
L 441.602762 284.753781 
L 446.739701 275.090463 
L 451.87664 275.090463 
L 457.013579 275.090463 
L 462.150518 275.090463 
L 467.287457 275.090463 
L 472.424396 275.090463 
L 477.561335 275.090463 
L 482.698274 275.090463 
L 487.835213 275.090463 
L 492.972152 264.081451 
L 498.109091 264.081451 
" style="fill:none;stroke:#1f77b4;stroke-linecap:square;stroke-width:1.5;"/>
   </g>
   <g id="line2d_75">
    <path clip-path="url(#p277150133d)" d="M 92.290909 304.549366 
L 97.427848 304.34241 
L 102.564787 303.90257 
L 107.701726 303.18556 
L 112.838665 302.150606 
L 117.975604 300.761581 
L 123.112543 298.989052 
L 128.249482 296.813723 
L 133.386421 294.23145 
L 138.52336 291.259238 
L 143.660299 287.94083 
L 148.797238 284.349972 
L 153.934177 280.589648 
L 159.071116 276.786541 
L 164.208055 273.08133 
L 169.344994 269.616522 
L 174.481933 266.524002 
L 179.618872 263.914228 
L 184.755811 261.868257 
L 189.89275 260.433079 
L 195.029689 259.620112 
L 200.166628 259.406474 
L 205.303567 259.738546 
L 210.440506 260.537452 
L 215.577445 261.706024 
L 220.714384 263.136787 
L 225.851323 264.720343 
L 230.988262 266.353401 
L 236.125201 267.945701 
L 241.26214 269.425235 
L 246.399079 270.741484 
L 251.536018 271.866697 
L 256.672957 272.795505 
L 261.809896 273.543304 
L 266.946835 274.143681 
L 272.083774 274.645117 
L 277.220713 275.106986 
L 282.357652 275.594854 
L 287.494591 276.175101 
L 292.63153 276.909064 
L 297.76847 277.847073 
L 302.905409 279.022979 
L 308.042348 280.449855 
L 313.179287 282.117607 
L 318.316226 283.993094 
L 323.453165 286.023028 
L 328.590104 288.13946 
L 333.727043 290.267015 
L 338.863982 292.330514 
L 344.000921 294.261423 
L 349.13786 296.001882 
L 354.274799 297.505813 
L 359.411738 298.73788 
L 364.548677 299.671406 
L 369.685616 300.286603 
L 374.822555 300.569773 
L 379.959494 300.513368 
L 385.096433 300.116326 
L 390.233372 299.384169 
L 395.370311 298.328826 
L 400.50725 296.968635 
L 405.644189 295.329109 
L 410.781128 293.444605 
L 415.918067 291.360366 
L 421.055006 289.133661 
L 426.191945 286.832801 
L 431.328884 284.533317 
L 436.465823 282.311645 
L 441.602762 280.237509 
L 446.739701 278.366553 
L 451.87664 276.734617 
L 457.013579 275.354556 
L 462.150518 274.215834 
L 467.287457 273.286695 
L 472.424396 272.518313 
L 477.561335 271.850207 
L 482.698274 271.216234 
L 487.835213 270.550515 
L 492.972152 269.792944 
L 498.109091 268.894019 
" style="fill:none;stroke:#ff7f0e;stroke-linecap:square;stroke-width:1.5;"/>
   </g>
   <g id="patch_23">
    <path d="M 72 311.3208 
L 72 252.63504 
" style="fill:none;stroke:#000000;stroke-linecap:square;stroke-linejoin:miter;stroke-width:0.8;"/>
   </g>
   <g id="patch_24">
    <path d="M 518.4 311.3208 
L 518.4 252.63504 
" style="fill:none;stroke:#000000;stroke-linecap:square;stroke-linejoin:miter;stroke-width:0.8;"/>
   </g>
   <g id="patch_25">
    <path d="M 72 311.3208 
L 518.4 311.3208 
" style="fill:none;stroke:#000000;stroke-linecap:square;stroke-linejoin:miter;stroke-width:0.8;"/>
   </g>
   <g id="patch_26">
    <path d="M 72 252.63504 
L 518.4 252.63504 
" style="fill:none;stroke:#000000;stroke-linecap:square;stroke-linejoin:miter;stroke-width:0.8;"/>
   </g>
  </g>
  <g id="legend_1">
   <g id="patch_27">
    <path d="M 190.564063 352.84 
L 385.435938 352.84 
Q 387.435938 352.84 387.435938 350.84 
L 387.435938 337.161875 
Q 387.435938 335.161875 385.435938 335.161875 
L 190.564063 335.161875 
Q 188.564063 335.161875 188.564063 337.161875 
L 188.564063 350.84 
Q 188.564063 352.84 190.564063 352.84 
z
" style="fill:#ffffff;opacity:0.8;stroke:#cccccc;stroke-linejoin:miter;"/>
   </g>
   <g id="line2d_76">
    <path d="M 192.564063 343.260312 
L 212.564063 343.260312 
" style="fill:none;stroke:#1f77b4;stroke-linecap:square;stroke-width:1.5;"/>
   </g>
   <g id="line2d_77"/>
   <g id="text_35">
    <!-- Prediction -->
    <defs>
     <path d="M 19.671875 64.796875 
L 19.671875 37.40625 
L 32.078125 37.40625 
Q 38.96875 37.40625 42.71875 40.96875 
Q 46.484375 44.53125 46.484375 51.125 
Q 46.484375 57.671875 42.71875 61.234375 
Q 38.96875 64.796875 32.078125 64.796875 
z
M 9.8125 72.90625 
L 32.078125 72.90625 
Q 44.34375 72.90625 50.609375 67.359375 
Q 56.890625 61.8125 56.890625 51.125 
Q 56.890625 40.328125 50.609375 34.8125 
Q 44.34375 29.296875 32.078125 29.296875 
L 19.671875 29.296875 
L 19.671875 0 
L 9.8125 0 
z
" id="DejaVuSans-50"/>
     <path d="M 41.109375 46.296875 
Q 39.59375 47.171875 37.8125 47.578125 
Q 36.03125 48 33.890625 48 
Q 26.265625 48 22.1875 43.046875 
Q 18.109375 38.09375 18.109375 28.8125 
L 18.109375 0 
L 9.078125 0 
L 9.078125 54.6875 
L 18.109375 54.6875 
L 18.109375 46.1875 
Q 20.953125 51.171875 25.484375 53.578125 
Q 30.03125 56 36.53125 56 
Q 37.453125 56 38.578125 55.875 
Q 39.703125 55.765625 41.0625 55.515625 
z
" id="DejaVuSans-72"/>
     <path d="M 56.203125 29.59375 
L 56.203125 25.203125 
L 14.890625 25.203125 
Q 15.484375 15.921875 20.484375 11.0625 
Q 25.484375 6.203125 34.421875 6.203125 
Q 39.59375 6.203125 44.453125 7.46875 
Q 49.3125 8.734375 54.109375 11.28125 
L 54.109375 2.78125 
Q 49.265625 0.734375 44.1875 -0.34375 
Q 39.109375 -1.421875 33.890625 -1.421875 
Q 20.796875 -1.421875 13.15625 6.1875 
Q 5.515625 13.8125 5.515625 26.8125 
Q 5.515625 40.234375 12.765625 48.109375 
Q 20.015625 56 32.328125 56 
Q 43.359375 56 49.78125 48.890625 
Q 56.203125 41.796875 56.203125 29.59375 
z
M 47.21875 32.234375 
Q 47.125 39.59375 43.09375 43.984375 
Q 39.0625 48.390625 32.421875 48.390625 
Q 24.90625 48.390625 20.390625 44.140625 
Q 15.875 39.890625 15.1875 32.171875 
z
" id="DejaVuSans-65"/>
     <path d="M 45.40625 46.390625 
L 45.40625 75.984375 
L 54.390625 75.984375 
L 54.390625 0 
L 45.40625 0 
L 45.40625 8.203125 
Q 42.578125 3.328125 38.25 0.953125 
Q 33.9375 -1.421875 27.875 -1.421875 
Q 17.96875 -1.421875 11.734375 6.484375 
Q 5.515625 14.40625 5.515625 27.296875 
Q 5.515625 40.1875 11.734375 48.09375 
Q 17.96875 56 27.875 56 
Q 33.9375 56 38.25 53.625 
Q 42.578125 51.265625 45.40625 46.390625 
z
M 14.796875 27.296875 
Q 14.796875 17.390625 18.875 11.75 
Q 22.953125 6.109375 30.078125 6.109375 
Q 37.203125 6.109375 41.296875 11.75 
Q 45.40625 17.390625 45.40625 27.296875 
Q 45.40625 37.203125 41.296875 42.84375 
Q 37.203125 48.484375 30.078125 48.484375 
Q 22.953125 48.484375 18.875 42.84375 
Q 14.796875 37.203125 14.796875 27.296875 
z
" id="DejaVuSans-64"/>
     <path d="M 9.421875 54.6875 
L 18.40625 54.6875 
L 18.40625 0 
L 9.421875 0 
z
M 9.421875 75.984375 
L 18.40625 75.984375 
L 18.40625 64.59375 
L 9.421875 64.59375 
z
" id="DejaVuSans-69"/>
     <path d="M 48.78125 52.59375 
L 48.78125 44.1875 
Q 44.96875 46.296875 41.140625 47.34375 
Q 37.3125 48.390625 33.40625 48.390625 
Q 24.65625 48.390625 19.8125 42.84375 
Q 14.984375 37.3125 14.984375 27.296875 
Q 14.984375 17.28125 19.8125 11.734375 
Q 24.65625 6.203125 33.40625 6.203125 
Q 37.3125 6.203125 41.140625 7.25 
Q 44.96875 8.296875 48.78125 10.40625 
L 48.78125 2.09375 
Q 45.015625 0.34375 40.984375 -0.53125 
Q 36.96875 -1.421875 32.421875 -1.421875 
Q 20.0625 -1.421875 12.78125 6.34375 
Q 5.515625 14.109375 5.515625 27.296875 
Q 5.515625 40.671875 12.859375 48.328125 
Q 20.21875 56 33.015625 56 
Q 37.15625 56 41.109375 55.140625 
Q 45.0625 54.296875 48.78125 52.59375 
z
" id="DejaVuSans-63"/>
     <path d="M 18.3125 70.21875 
L 18.3125 54.6875 
L 36.8125 54.6875 
L 36.8125 47.703125 
L 18.3125 47.703125 
L 18.3125 18.015625 
Q 18.3125 11.328125 20.140625 9.421875 
Q 21.96875 7.515625 27.59375 7.515625 
L 36.8125 7.515625 
L 36.8125 0 
L 27.59375 0 
Q 17.1875 0 13.234375 3.875 
Q 9.28125 7.765625 9.28125 18.015625 
L 9.28125 47.703125 
L 2.6875 47.703125 
L 2.6875 54.6875 
L 9.28125 54.6875 
L 9.28125 70.21875 
z
" id="DejaVuSans-74"/>
     <path d="M 30.609375 48.390625 
Q 23.390625 48.390625 19.1875 42.75 
Q 14.984375 37.109375 14.984375 27.296875 
Q 14.984375 17.484375 19.15625 11.84375 
Q 23.34375 6.203125 30.609375 6.203125 
Q 37.796875 6.203125 41.984375 11.859375 
Q 46.1875 17.53125 46.1875 27.296875 
Q 46.1875 37.015625 41.984375 42.703125 
Q 37.796875 48.390625 30.609375 48.390625 
z
M 30.609375 56 
Q 42.328125 56 49.015625 48.375 
Q 55.71875 40.765625 55.71875 27.296875 
Q 55.71875 13.875 49.015625 6.21875 
Q 42.328125 -1.421875 30.609375 -1.421875 
Q 18.84375 -1.421875 12.171875 6.21875 
Q 5.515625 13.875 5.515625 27.296875 
Q 5.515625 40.765625 12.171875 48.375 
Q 18.84375 56 30.609375 56 
z
" id="DejaVuSans-6f"/>
     <path d="M 54.890625 33.015625 
L 54.890625 0 
L 45.90625 0 
L 45.90625 32.71875 
Q 45.90625 40.484375 42.875 44.328125 
Q 39.84375 48.1875 33.796875 48.1875 
Q 26.515625 48.1875 22.3125 43.546875 
Q 18.109375 38.921875 18.109375 30.90625 
L 18.109375 0 
L 9.078125 0 
L 9.078125 54.6875 
L 18.109375 54.6875 
L 18.109375 46.1875 
Q 21.34375 51.125 25.703125 53.5625 
Q 30.078125 56 35.796875 56 
Q 45.21875 56 50.046875 50.171875 
Q 54.890625 44.34375 54.890625 33.015625 
z
" id="DejaVuSans-6e"/>
    </defs>
    <g transform="translate(220.564063 346.760312)scale(0.1 -0.1)">
     <use xlink:href="#DejaVuSans-50"/>
     <use x="60.287109" xlink:href="#DejaVuSans-72"/>
     <use x="101.369141" xlink:href="#DejaVuSans-65"/>
     <use x="162.892578" xlink:href="#DejaVuSans-64"/>
     <use x="226.369141" xlink:href="#DejaVuSans-69"/>
     <use x="254.152344" xlink:href="#DejaVuSans-63"/>
     <use x="309.132812" xlink:href="#DejaVuSans-74"/>
     <use x="348.341797" xlink:href="#DejaVuSans-69"/>
     <use x="376.125" xlink:href="#DejaVuSans-6f"/>
     <use x="437.306641" xlink:href="#DejaVuSans-6e"/>
    </g>
   </g>
   <g id="line2d_78">
    <path d="M 290.632812 343.260312 
L 310.632812 343.260312 
" style="fill:none;stroke:#ff7f0e;stroke-linecap:square;stroke-width:1.5;"/>
   </g>
   <g id="line2d_79"/>
   <g id="text_36">
    <!-- Ground truth -->
    <defs>
     <path d="M 59.515625 10.40625 
L 59.515625 29.984375 
L 43.40625 29.984375 
L 43.40625 38.09375 
L 69.28125 38.09375 
L 69.28125 6.78125 
Q 63.578125 2.734375 56.6875 0.65625 
Q 49.8125 -1.421875 42 -1.421875 
Q 24.90625 -1.421875 15.25 8.5625 
Q 5.609375 18.5625 5.609375 36.375 
Q 5.609375 54.25 15.25 64.234375 
Q 24.90625 74.21875 42 74.21875 
Q 49.125 74.21875 55.546875 72.453125 
Q 61.96875 70.703125 67.390625 67.28125 
L 67.390625 56.78125 
Q 61.921875 61.421875 55.765625 63.765625 
Q 49.609375 66.109375 42.828125 66.109375 
Q 29.4375 66.109375 22.71875 58.640625 
Q 16.015625 51.171875 16.015625 36.375 
Q 16.015625 21.625 22.71875 14.15625 
Q 29.4375 6.6875 42.828125 6.6875 
Q 48.046875 6.6875 52.140625 7.59375 
Q 56.25 8.5 59.515625 10.40625 
z
" id="DejaVuSans-47"/>
     <path d="M 8.5 21.578125 
L 8.5 54.6875 
L 17.484375 54.6875 
L 17.484375 21.921875 
Q 17.484375 14.15625 20.5 10.265625 
Q 23.53125 6.390625 29.59375 6.390625 
Q 36.859375 6.390625 41.078125 11.03125 
Q 45.3125 15.671875 45.3125 23.6875 
L 45.3125 54.6875 
L 54.296875 54.6875 
L 54.296875 0 
L 45.3125 0 
L 45.3125 8.40625 
Q 42.046875 3.421875 37.71875 1 
Q 33.40625 -1.421875 27.6875 -1.421875 
Q 18.265625 -1.421875 13.375 4.4375 
Q 8.5 10.296875 8.5 21.578125 
z
M 31.109375 56 
z
" id="DejaVuSans-75"/>
     <path id="DejaVuSans-20"/>
     <path d="M 54.890625 33.015625 
L 54.890625 0 
L 45.90625 0 
L 45.90625 32.71875 
Q 45.90625 40.484375 42.875 44.328125 
Q 39.84375 48.1875 33.796875 48.1875 
Q 26.515625 48.1875 22.3125 43.546875 
Q 18.109375 38.921875 18.109375 30.90625 
L 18.109375 0 
L 9.078125 0 
L 9.078125 75.984375 
L 18.109375 75.984375 
L 18.109375 46.1875 
Q 21.34375 51.125 25.703125 53.5625 
Q 30.078125 56 35.796875 56 
Q 45.21875 56 50.046875 50.171875 
Q 54.890625 44.34375 54.890625 33.015625 
z
" id="DejaVuSans-68"/>
    </defs>
    <g transform="translate(318.632812 346.760312)scale(0.1 -0.1)">
     <use xlink:href="#DejaVuSans-47"/>
     <use x="77.490234" xlink:href="#DejaVuSans-72"/>
     <use x="118.572266" xlink:href="#DejaVuSans-6f"/>
     <use x="179.753906" xlink:href="#DejaVuSans-75"/>
     <use x="243.132812" xlink:href="#DejaVuSans-6e"/>
     <use x="306.511719" xlink:href="#DejaVuSans-64"/>
     <use x="369.988281" xlink:href="#DejaVuSans-20"/>
     <use x="401.775391" xlink:href="#DejaVuSans-74"/>
     <use x="440.984375" xlink:href="#DejaVuSans-72"/>
     <use x="482.097656" xlink:href="#DejaVuSans-75"/>
     <use x="545.476562" xlink:href="#DejaVuSans-74"/>
     <use x="584.685547" xlink:href="#DejaVuSans-68"/>
    </g>
   </g>
  </g>
 </g>
 <defs>
  <clipPath id="pe04f871678">
   <rect height="58.68576" width="446.4" x="72" y="17.892"/>
  </clipPath>
  <clipPath id="pf6f5b7b020">
   <rect height="58.68576" width="446.4" x="72" y="76.57776"/>
  </clipPath>
  <clipPath id="p8af04956a5">
   <rect height="58.68576" width="446.4" x="72" y="135.26352"/>
  </clipPath>
  <clipPath id="p7aef36b03d">
   <rect height="58.68576" width="446.4" x="72" y="193.94928"/>
  </clipPath>
  <clipPath id="p277150133d">
   <rect height="58.68576" width="446.4" x="72" y="252.63504"/>
  </clipPath>
 </defs>
</svg>
