<?xml version="1.0" encoding="UTF-8" standalone="no"?>
<svg
   xmlns:dc="http://purl.org/dc/elements/1.1/"
   xmlns:cc="http://creativecommons.org/ns#"
   xmlns:rdf="http://www.w3.org/1999/02/22-rdf-syntax-ns#"
   xmlns:svg="http://www.w3.org/2000/svg"
   xmlns="http://www.w3.org/2000/svg"
   viewBox="0 0 1176 540"
   height="540"
   width="1176"
   xml:space="preserve"
   id="svg2"
   version="1.1"><metadata
     id="metadata8"><rdf:RDF><cc:Work
         rdf:about=""><dc:format>image/svg+xml</dc:format><dc:type
           rdf:resource="http://purl.org/dc/dcmitype/StillImage" /></cc:Work></rdf:RDF></metadata><defs
     id="defs6"><clipPath
       id="clipPath14"
       clipPathUnits="userSpaceOnUse"><path
         id="path12"
         d="M 0,0 H 1224 V 792 H 0 Z" /></clipPath><clipPath
       id="clipPath28"
       clipPathUnits="userSpaceOnUse"><path
         style="clip-rule:evenodd"
         id="path26"
         d="M 0,-0.2 H 841.8 V 595 H 0 Z" /></clipPath><clipPath
       id="clipPath40"
       clipPathUnits="userSpaceOnUse"><path
         style="clip-rule:evenodd"
         id="path38"
         d="M 0,-0.2 H 841.8 V 595 H 0 Z" /></clipPath><clipPath
       id="clipPath52"
       clipPathUnits="userSpaceOnUse"><path
         style="clip-rule:evenodd"
         id="path50"
         d="M 0,-0.2 H 841.8 V 595 H 0 Z" /></clipPath><clipPath
       id="clipPath64"
       clipPathUnits="userSpaceOnUse"><path
         style="clip-rule:evenodd"
         id="path62"
         d="M 0,-0.2 H 841.8 V 595 H 0 Z" /></clipPath><clipPath
       id="clipPath80"
       clipPathUnits="userSpaceOnUse"><path
         style="clip-rule:evenodd"
         id="path78"
         d="M 0,-0.2 H 841.8 V 595 H 0 Z" /></clipPath><clipPath
       id="clipPath92"
       clipPathUnits="userSpaceOnUse"><path
         style="clip-rule:evenodd"
         id="path90"
         d="M 0,-0.2 H 841.8 V 595 H 0 Z" /></clipPath><clipPath
       id="clipPath108"
       clipPathUnits="userSpaceOnUse"><path
         style="clip-rule:evenodd"
         id="path106"
         d="M 0,-0.2 H 841.8 V 595 H 0 Z" /></clipPath><clipPath
       id="clipPath120"
       clipPathUnits="userSpaceOnUse"><path
         style="clip-rule:evenodd"
         id="path118"
         d="M 0,-0.2 H 841.8 V 595 H 0 Z" /></clipPath><clipPath
       id="clipPath140"
       clipPathUnits="userSpaceOnUse"><path
         style="clip-rule:evenodd"
         id="path138"
         d="M 0,-0.2 H 841.8 V 595 H 0 Z" /></clipPath><clipPath
       id="clipPath152"
       clipPathUnits="userSpaceOnUse"><path
         style="clip-rule:evenodd"
         id="path150"
         d="M 0,-0.2 H 841.8 V 595 H 0 Z" /></clipPath><clipPath
       id="clipPath172"
       clipPathUnits="userSpaceOnUse"><path
         style="clip-rule:evenodd"
         id="path170"
         d="M 0,-0.2 H 841.8 V 595 H 0 Z" /></clipPath><clipPath
       id="clipPath184"
       clipPathUnits="userSpaceOnUse"><path
         style="clip-rule:evenodd"
         id="path182"
         d="M 0,-0.2 H 841.8 V 595 H 0 Z" /></clipPath><clipPath
       id="clipPath204"
       clipPathUnits="userSpaceOnUse"><path
         style="clip-rule:evenodd"
         id="path202"
         d="M 0,-0.2 H 841.8 V 595 H 0 Z" /></clipPath><clipPath
       id="clipPath216"
       clipPathUnits="userSpaceOnUse"><path
         style="clip-rule:evenodd"
         id="path214"
         d="M 0,-0.2 H 841.8 V 595 H 0 Z" /></clipPath><clipPath
       id="clipPath228"
       clipPathUnits="userSpaceOnUse"><path
         style="clip-rule:evenodd"
         id="path226"
         d="M 0,-0.2 H 841.8 V 595 H 0 Z" /></clipPath><clipPath
       id="clipPath240"
       clipPathUnits="userSpaceOnUse"><path
         style="clip-rule:evenodd"
         id="path238"
         d="M 0,-0.2 H 841.8 V 595 H 0 Z" /></clipPath><clipPath
       id="clipPath252"
       clipPathUnits="userSpaceOnUse"><path
         style="clip-rule:evenodd"
         id="path250"
         d="M 0,-0.2 H 841.8 V 595 H 0 Z" /></clipPath><clipPath
       id="clipPath264"
       clipPathUnits="userSpaceOnUse"><path
         style="clip-rule:evenodd"
         id="path262"
         d="M 0,-0.2 H 841.8 V 595 H 0 Z" /></clipPath><clipPath
       id="clipPath276"
       clipPathUnits="userSpaceOnUse"><path
         style="clip-rule:evenodd"
         id="path274"
         d="M 0,-0.2 H 841.8 V 595 H 0 Z" /></clipPath><clipPath
       id="clipPath288"
       clipPathUnits="userSpaceOnUse"><path
         style="clip-rule:evenodd"
         id="path286"
         d="M 0,-0.2 H 841.8 V 595 H 0 Z" /></clipPath><clipPath
       id="clipPath300"
       clipPathUnits="userSpaceOnUse"><path
         style="clip-rule:evenodd"
         id="path298"
         d="M 0,-0.2 H 841.8 V 595 H 0 Z" /></clipPath><clipPath
       id="clipPath312"
       clipPathUnits="userSpaceOnUse"><path
         style="clip-rule:evenodd"
         id="path310"
         d="M 0,-0.2 H 841.8 V 595 H 0 Z" /></clipPath><clipPath
       id="clipPath324"
       clipPathUnits="userSpaceOnUse"><path
         style="clip-rule:evenodd"
         id="path322"
         d="m 121.8,481.6 h 28.3 v 23.1 h -28.3 z" /></clipPath></defs><g
     clip-path="url(#clipPath14)"
     transform="matrix(1.3333333,0,0,-1.3333333,-48,924)"
     id="g10"><text
       id="text20"
       style="font-variant:normal;font-weight:normal;font-size:32.65380096px;font-family:'Palatino Linotype';-inkscape-font-specification:'Palatino Linotype'-Roman;writing-mode:lr-tb;fill:#ffffff;fill-opacity:1;fill-rule:nonzero;stroke:none"
       transform="matrix(1,0,0,-1,288.2563,371.092)"><tspan
         id="tspan16"
         y="0"
         x="0 19.755745 38.760258 56.720043 70.663216 80.230782 94.696411 111.02332 120.59107 128.75452 146.91003 164.83733 177.70293 204.02208 220.15306 233.01866 253.13359 261.29706 292.28571 310.04956 330.16431 345.77301">Physical Forward Model</tspan><tspan
         id="tspan18"
         y="43.71981"
         x="35.012131 45.885845 63.845631 81.772568 94.638359 120.95732 137.28423 149.98674 178.42841 203.99652 223.58881 239.32812 252.03046 268.35736 279.03534 296.96228 309.66479">(ForwardOperator)</tspan></text>
<g
       transform="matrix(1.8141327,0,0,1.8141327,-38.28923,-256.23828)"
       id="g22"><g
         clip-path="url(#clipPath28)"
         id="g24"><g
           transform="translate(126.80066,510.00257)"
           id="g30"><path
             id="path32"
             style="fill:#ccffcc;fill-opacity:1;fill-rule:evenodd;stroke:none"
             d="m 0,0 c -6.7,0 -13.4,-6.7 -13.4,-13.4 v -115 c 0,-6.7 6.7,-13.4 13.4,-13.4 h 313.4 c 6.7,0 13.4,6.7 13.4,13.4 v 115 c 0,6.7 -6.7,13.4 -13.4,13.4 z" /></g></g></g><g
       transform="matrix(1.8141327,0,0,1.8141327,-38.28923,-256.23828)"
       id="g34"><g
         clip-path="url(#clipPath40)"
         id="g36"><g
           transform="translate(126.80066,510.00257)"
           id="g42"><path
             id="path44"
             style="fill:none;stroke:#000000;stroke-width:2.29200006;stroke-linecap:butt;stroke-linejoin:round;stroke-miterlimit:10;stroke-dasharray:none;stroke-opacity:1"
             d="m 0,0 c -6.7,0 -13.4,-6.7 -13.4,-13.4 v -115 c 0,-6.7 6.7,-13.4 13.4,-13.4 h 313.4 c 6.7,0 13.4,6.7 13.4,13.4 v 115 c 0,6.7 -6.7,13.4 -13.4,13.4 z" /></g></g></g><g
       transform="matrix(1.8141327,0,0,1.8141327,-38.28923,-256.23828)"
       id="g46"><g
         clip-path="url(#clipPath52)"
         id="g48"><g
           transform="translate(85.000437,439.10224)"
           id="g54"><path
             id="path56"
             style="fill:#ffffff;fill-opacity:1;fill-rule:evenodd;stroke:none"
             d="M 0,0 V -70.9 H -31.1 V 70.9 H 0 Z" /></g></g></g><g
       transform="matrix(1.8141327,0,0,1.8141327,-38.28923,-256.23828)"
       id="g58"><g
         clip-path="url(#clipPath64)"
         id="g60"><g
           transform="translate(85.000437,439.10224)"
           id="g66"><path
             id="path68"
             style="fill:none;stroke:#000000;stroke-width:2.29200006;stroke-linecap:butt;stroke-linejoin:round;stroke-miterlimit:10;stroke-dasharray:none;stroke-opacity:1"
             d="M 0,0 V -70.9 H -31.1 V 70.9 H 0 Z" /></g></g></g><text
       id="text72"
       style="font-variant:normal;font-weight:normal;font-size:23.58329964px;font-family:'Palatino Linotype';-inkscape-font-specification:'Palatino Linotype'-Roman;writing-mode:lr-tb;fill:#000000;fill-opacity:1;fill-rule:nonzero;stroke:none"
       transform="matrix(0,1,1,0,96.6829,436.2197)"><tspan
         id="tspan70"
         y="0"
         x="0 7.8006244 21.406561 35.556541 49.70652 63.312458 75.829742 87.25856 100.8645 111.02345 123.72217 138.9608 146.94286 166.54057 178.15099 200.4646">InputTensor(N×M)</tspan></text>
<g
       transform="matrix(1.8141327,0,0,1.8141327,-38.28923,-256.23828)"
       id="g74"><g
         clip-path="url(#clipPath80)"
         id="g76"><g
           transform="translate(513.10258,439.10224)"
           id="g82"><path
             id="path84"
             style="fill:#ffffff;fill-opacity:1;fill-rule:evenodd;stroke:none"
             d="M 0,0 V -70.9 H -31.2 V 70.9 H 0 Z" /></g></g></g><g
       transform="matrix(1.8141327,0,0,1.8141327,-38.28923,-256.23828)"
       id="g86"><g
         clip-path="url(#clipPath92)"
         id="g88"><g
           transform="translate(513.10258,439.10224)"
           id="g94"><path
             id="path96"
             style="fill:none;stroke:#000000;stroke-width:2.29200006;stroke-linecap:butt;stroke-linejoin:round;stroke-miterlimit:10;stroke-dasharray:none;stroke-opacity:1"
             d="M 0,0 V -70.9 H -31.2 V 70.9 H 0 Z" /></g></g></g><text
       id="text100"
       style="font-variant:normal;font-weight:normal;font-size:23.58329964px;font-family:'Palatino Linotype';-inkscape-font-specification:'Palatino Linotype'-Roman;writing-mode:lr-tb;fill:#000000;fill-opacity:1;fill-rule:nonzero;stroke:none"
       transform="matrix(0,1,1,0,873.1356,426.0605)"><tspan
         id="tspan98"
         y="0"
         x="0 18.503811 32.65398 40.273201 54.42318 68.573349 76.192574 81.997696 94.696571 105.94399 119.73114 129.70688 142.58717 151.8391 157.82562 165.62625 185.22397 197.01562 208.80727 220.41788">Output Tensor (N×92)</tspan></text>
<g
       transform="matrix(1.8141327,0,0,1.8141327,-38.28923,-256.23828)"
       id="g102"><g
         clip-path="url(#clipPath108)"
         id="g104"><g
           transform="translate(165.10085,406.60208)"
           id="g110"><path
             id="path112"
             style="fill:#dddddd;fill-opacity:1;fill-rule:evenodd;stroke:none"
             d="m 0,0 h -30.5 v 65.2 h 61 V 0 Z" /></g></g></g><g
       transform="matrix(1.8141327,0,0,1.8141327,-38.28923,-256.23828)"
       id="g114"><g
         clip-path="url(#clipPath120)"
         id="g116"><g
           transform="translate(165.10085,406.60208)"
           id="g122"><path
             id="path124"
             style="fill:none;stroke:#000000;stroke-width:1.5;stroke-linecap:butt;stroke-linejoin:round;stroke-miterlimit:10;stroke-dasharray:none;stroke-opacity:1"
             d="m 0,0 h -30.5 v 65.2 h 61 V 0 Z" /></g></g></g><text
       id="text132"
       style="font-variant:normal;font-weight:normal;font-size:21.76919937px;font-family:'Palatino Linotype';-inkscape-font-specification:'Palatino Linotype'-Roman;writing-mode:lr-tb;fill:#000000;fill-opacity:1;fill-rule:nonzero;stroke:none"
       transform="matrix(1,0,0,-1,234.5577,561.5769)"><tspan
         id="tspan126"
         y="0"
         x="0 7.4232974 20.092972 33.154667 46.216187">Input</tspan><tspan
         id="tspan128"
         y="29.20701"
         x="-1.99551 14.875794 23.561705 32.247616 43.132217">Array</tspan><tspan
         id="tspan130"
         y="58.414021"
         x="-5.26089 1.9882536 19.948017 30.832617 51.491589">(N×M)</tspan></text>
<g
       transform="matrix(1.8141327,0,0,1.8141327,-38.28923,-256.23828)"
       id="g134"><g
         clip-path="url(#clipPath140)"
         id="g136"><g
           transform="translate(240.20122,479.90243)"
           id="g142"><path
             id="path144"
             style="fill:#00331a;fill-opacity:1;fill-rule:evenodd;stroke:none"
             d="m 0,0 c -3.9,0 -7.8,-3.9 -7.8,-7.8 v -66.6 c 0,-3.9 3.9,-7.8 7.8,-7.8 h 89.4 c 3.8,0 7.8,3.9 7.8,7.8 v 66.6 c 0,3.9 -4,7.8 -7.8,7.8 z" /></g></g></g><g
       transform="matrix(1.8141327,0,0,1.8141327,-38.28923,-256.23828)"
       id="g146"><g
         clip-path="url(#clipPath152)"
         id="g148"><g
           transform="translate(240.20122,479.90243)"
           id="g154"><path
             id="path156"
             style="fill:none;stroke:#000000;stroke-width:1.5;stroke-linecap:butt;stroke-linejoin:round;stroke-miterlimit:10;stroke-dasharray:none;stroke-opacity:1"
             d="m 0,0 c -3.9,0 -7.8,-3.9 -7.8,-7.8 v -66.6 c 0,-3.9 3.9,-7.8 7.8,-7.8 h 89.4 c 3.8,0 7.8,3.9 7.8,7.8 v 66.6 c 0,3.9 -4,7.8 -7.8,7.8 z" /></g></g></g><text
       id="text164"
       style="font-variant:normal;font-weight:normal;font-size:23.58329964px;font-family:'Palatino Linotype';-inkscape-font-specification:'Palatino Linotype'-Roman;writing-mode:lr-tb;fill:#ffffff;fill-opacity:1;fill-rule:nonzero;stroke:none"
       transform="matrix(1,0,0,-1,397.6491,562.3025)"><tspan
         id="tspan158"
         y="0"
         x="0 13.065148 25.918047 35.327972 54.194611 65.986259 75.396187 89.734833 95.536324 116.21907 129.07196 143.4108 154.82512">Forward model</tspan><tspan
         id="tspan160"
         y="31.38393"
         x="56.962742 76.560654 83.281891 90.8993">with</tspan><tspan
         id="tspan162"
         y="62.76786"
         x="17.415359 37.013081 51.16325 71.845993 85.995972 104.13172 122.26728 136.58234">NumpyAPI</tspan></text>
<g
       transform="matrix(1.8141327,0,0,1.8141327,-38.28923,-256.23828)"
       id="g166"><g
         clip-path="url(#clipPath172)"
         id="g168"><g
           transform="translate(403.20208,406.20207)"
           id="g174"><path
             id="path176"
             style="fill:#dddddd;fill-opacity:1;fill-rule:evenodd;stroke:none"
             d="M 0,0 H -30.4 V 65.2 H 30.5 V 0 Z" /></g></g></g><g
       transform="matrix(1.8141327,0,0,1.8141327,-38.28923,-256.23828)"
       id="g178"><g
         clip-path="url(#clipPath184)"
         id="g180"><g
           transform="translate(403.20208,406.20207)"
           id="g186"><path
             id="path188"
             style="fill:none;stroke:#000000;stroke-width:1.5;stroke-linecap:butt;stroke-linejoin:round;stroke-miterlimit:10;stroke-dasharray:none;stroke-opacity:1"
             d="M 0,0 H -30.4 V 65.2 H 30.5 V 0 Z" /></g></g></g><text
       id="text196"
       style="font-variant:normal;font-weight:normal;font-size:21.76919937px;font-family:'Palatino Linotype';-inkscape-font-specification:'Palatino Linotype'-Roman;writing-mode:lr-tb;fill:#000000;fill-opacity:1;fill-rule:nonzero;stroke:none"
       transform="matrix(1,0,0,-1,657.797,560.6698)"><tspan
         id="tspan190"
         y="0"
         x="0 17.219612 30.281132 37.508507 50.570026 63.631721">Output</tspan><tspan
         id="tspan192"
         y="29.20701"
         x="6.7121701 23.5833 32.443539 40.977066 52.01405">Array</tspan><tspan
         id="tspan194"
         y="58.414021"
         x="2.90256 10.151704 28.111467 38.996067 49.880669 60.765266">(N×92)</tspan></text>
<g
       transform="matrix(1.8141327,0,0,1.8141327,-38.28923,-256.23828)"
       id="g198"><g
         clip-path="url(#clipPath204)"
         id="g200"><g
           transform="translate(85.000437,439.10224)"
           id="g206"><path
             id="path208"
             style="fill:none;stroke:#ffffff;stroke-width:2.29200006;stroke-linecap:butt;stroke-linejoin:round;stroke-miterlimit:10;stroke-dasharray:none;stroke-opacity:1"
             d="M 0,0 H 28.4" /></g></g></g><g
       transform="matrix(1.8141327,0,0,1.8141327,-38.28923,-256.23828)"
       id="g210"><g
         clip-path="url(#clipPath216)"
         id="g212"><g
           transform="translate(113.40057,439.10224)"
           id="g218"><path
             id="path220"
             style="fill:none;stroke:#000000;stroke-width:2.29200006;stroke-linecap:butt;stroke-linejoin:round;stroke-miterlimit:10;stroke-dasharray:none;stroke-opacity:1"
             d="M 0,0 H 3.6" /></g></g></g><g
       transform="matrix(1.8141327,0,0,1.8141327,-38.28923,-256.23828)"
       id="g222"><g
         clip-path="url(#clipPath228)"
         id="g224"><g
           transform="translate(134.10071,439.20223)"
           id="g230"><path
             id="path232"
             style="fill:#000000;fill-opacity:1;fill-rule:evenodd;stroke:none"
             d="m 0,0 -18,5.9 0.1,-12 z" /></g></g></g><g
       transform="matrix(1.8141327,0,0,1.8141327,-38.28923,-256.23828)"
       id="g234"><g
         clip-path="url(#clipPath240)"
         id="g236"><g
           transform="translate(195.601,439.20223)"
           id="g242"><path
             id="path244"
             style="fill:none;stroke:#000000;stroke-width:2.29200006;stroke-linecap:butt;stroke-linejoin:round;stroke-miterlimit:10;stroke-dasharray:none;stroke-opacity:1"
             d="M 0,0 19.7,-0.2" /></g></g></g><g
       transform="matrix(1.8141327,0,0,1.8141327,-38.28923,-256.23828)"
       id="g246"><g
         clip-path="url(#clipPath252)"
         id="g248"><g
           transform="translate(232.40117,438.8022)"
           id="g254"><path
             id="path256"
             style="fill:#000000;fill-opacity:1;fill-rule:evenodd;stroke:none"
             d="M 0,0 -17.8,6.2 -17.9,-5.7 Z" /></g></g></g><g
       transform="matrix(1.8141327,0,0,1.8141327,-38.28923,-256.23828)"
       id="g258"><g
         clip-path="url(#clipPath264)"
         id="g260"><g
           transform="translate(337.30169,438.8022)"
           id="g266"><path
             id="path268"
             style="fill:none;stroke:#000000;stroke-width:2.29200006;stroke-linecap:butt;stroke-linejoin:round;stroke-miterlimit:10;stroke-dasharray:none;stroke-opacity:1"
             d="M 0,0 H 18.4" /></g></g></g><g
       transform="matrix(1.8141327,0,0,1.8141327,-38.28923,-256.23828)"
       id="g270"><g
         clip-path="url(#clipPath276)"
         id="g272"><g
           transform="translate(372.80187,438.8022)"
           id="g278"><path
             id="path280"
             style="fill:#000000;fill-opacity:1;fill-rule:evenodd;stroke:none"
             d="M 0,0 -17.9,6 -18,-6 Z" /></g></g></g><g
       transform="matrix(1.8141327,0,0,1.8141327,-38.28923,-256.23828)"
       id="g282"><g
         clip-path="url(#clipPath288)"
         id="g284"><g
           transform="translate(433.70219,438.8022)"
           id="g290"><path
             id="path292"
             style="fill:none;stroke:#000000;stroke-width:2.29200006;stroke-linecap:butt;stroke-linejoin:round;stroke-miterlimit:10;stroke-dasharray:none;stroke-opacity:1"
             d="M 0,0 19.8,0.3" /></g></g></g><g
       transform="matrix(1.8141327,0,0,1.8141327,-38.28923,-256.23828)"
       id="g294"><g
         clip-path="url(#clipPath300)"
         id="g296"><g
           transform="translate(453.50231,439.10224)"
           id="g302"><path
             id="path304"
             style="fill:none;stroke:#ffffff;stroke-width:2.29200006;stroke-linecap:butt;stroke-linejoin:round;stroke-miterlimit:10;stroke-dasharray:none;stroke-opacity:1"
             d="M 0,0 H 11.3" /></g></g></g><g
       transform="matrix(1.8141327,0,0,1.8141327,-38.28923,-256.23828)"
       id="g306"><g
         clip-path="url(#clipPath312)"
         id="g308"><g
           transform="translate(481.90244,439.10224)"
           id="g314"><path
             id="path316"
             style="fill:#ffffff;fill-opacity:1;fill-rule:evenodd;stroke:none"
             d="M 0,0 -17.9,5.9 V -6 Z" /></g></g></g><g
       transform="matrix(1.8141327,0,0,1.8141327,-38.28923,-256.23828)"
       id="g318"><g
         clip-path="url(#clipPath324)"
         id="g320"><g
           transform="translate(127.50066,483.20246)"
           id="g326"><path
             id="path328"
             style="fill:#000000;fill-opacity:1;fill-rule:evenodd;stroke:none"
             d="M 0,0 H 0.1 C 1,0 1.8,0.3 2.7,0.9 3.5,1.5 4.2,2.2 4.7,3 5.8,5 6.8,7.1 7.6,9.1 h 5.3 v 0 c 0,-0.1 0,-0.2 0.2,-0.3 h 0.1 c 0.5,0.1 1,0.3 1.4,0.6 0.5,0.3 0.7,0.7 0.9,1.1 0,0.1 -0.1,0.2 -0.2,0.2 H 8.2 c 0.8,2.3 1.5,4.7 2,7.2 h 4.5 c 1.5,0 2.3,-0.2 2.3,-0.6 0,0 0,0 0,-0.1 0,0 0,-0.1 0,-0.2 0,0 0,0 0.2,-0.1 h 0.1 c 0.4,0 0.9,0.2 1.4,0.5 0.5,0.4 0.8,0.7 0.8,1.1 0,0.7 -0.9,1.1 -2.7,1.1 H 8.6 C 7.5,19.6 6.5,19.3 5.4,18.9 4.3,18.5 3.3,17.8 2.5,17.1 1.6,16.3 1.1,15.4 0.8,14.4 0.8,14.3 0.9,14.2 1,14.1 h 0.2 c 0.4,0.1 0.8,0.2 1.2,0.5 0.4,0.2 0.7,0.5 0.9,0.8 0.4,1.7 1.6,2.5 3.5,2.5 H 7.9 C 7.7,16.6 7.4,15.2 7,13.7 6.6,12.3 6.2,10.9 5.6,9.5 4.7,7 3.6,4.5 2.2,2.1 2.1,1.9 2,1.8 1.9,1.6 1.2,1.6 0.8,1.7 0.4,2 0.1,2.2 -0.2,2.6 -0.5,2.9 -0.7,3.3 -0.8,3.5 -0.9,3.6 H -1.1 C -1.4,3.5 -1.9,3.4 -2.4,3.1 -2.9,2.8 -3.2,2.5 -3.2,2.1 -3,1.5 -2.5,0.9 -2,0.6 -1.4,0.2 -0.7,0 0,0 Z" /></g></g></g></g></svg>