<?xml version="1.0" encoding="UTF-8" standalone="no"?>
<svg
   xmlns:dc="http://purl.org/dc/elements/1.1/"
   xmlns:cc="http://creativecommons.org/ns#"
   xmlns:rdf="http://www.w3.org/1999/02/22-rdf-syntax-ns#"
   xmlns:svg="http://www.w3.org/2000/svg"
   xmlns="http://www.w3.org/2000/svg"
   viewBox="0 0 1260 624"
   height="624"
   width="1260"
   xml:space="preserve"
   id="svg2"
   version="1.1"><metadata
     id="metadata8"><rdf:RDF><cc:Work
         rdf:about=""><dc:format>image/svg+xml</dc:format><dc:type
           rdf:resource="http://purl.org/dc/dcmitype/StillImage" /></cc:Work></rdf:RDF></metadata><defs
     id="defs6"><clipPath
       id="clipPath14"
       clipPathUnits="userSpaceOnUse"><path
         id="path12"
         d="M 0,0 H 1224 V 792 H 0 Z" /></clipPath><clipPath
       id="clipPath28"
       clipPathUnits="userSpaceOnUse"><path
         style="clip-rule:evenodd"
         id="path26"
         d="M 0,-0.2 H 841.8 V 595 H 0 Z" /></clipPath><clipPath
       id="clipPath40"
       clipPathUnits="userSpaceOnUse"><path
         style="clip-rule:evenodd"
         id="path38"
         d="M 0,-0.2 H 841.8 V 595 H 0 Z" /></clipPath><clipPath
       id="clipPath52"
       clipPathUnits="userSpaceOnUse"><path
         style="clip-rule:evenodd"
         id="path50"
         d="M 0,-0.2 H 841.8 V 595 H 0 Z" /></clipPath><clipPath
       id="clipPath64"
       clipPathUnits="userSpaceOnUse"><path
         style="clip-rule:evenodd"
         id="path62"
         d="M 0,-0.2 H 841.8 V 595 H 0 Z" /></clipPath><clipPath
       id="clipPath80"
       clipPathUnits="userSpaceOnUse"><path
         style="clip-rule:evenodd"
         id="path78"
         d="M 0,-0.2 H 841.8 V 595 H 0 Z" /></clipPath><clipPath
       id="clipPath92"
       clipPathUnits="userSpaceOnUse"><path
         style="clip-rule:evenodd"
         id="path90"
         d="M 0,-0.2 H 841.8 V 595 H 0 Z" /></clipPath><clipPath
       id="clipPath110"
       clipPathUnits="userSpaceOnUse"><path
         style="clip-rule:evenodd"
         id="path108"
         d="M 0,-0.2 H 841.8 V 595 H 0 Z" /></clipPath><clipPath
       id="clipPath122"
       clipPathUnits="userSpaceOnUse"><path
         style="clip-rule:evenodd"
         id="path120"
         d="M 0,-0.2 H 841.8 V 595 H 0 Z" /></clipPath><clipPath
       id="clipPath150"
       clipPathUnits="userSpaceOnUse"><path
         style="clip-rule:evenodd"
         id="path148"
         d="M 0,-0.2 H 841.8 V 595 H 0 Z" /></clipPath><clipPath
       id="clipPath162"
       clipPathUnits="userSpaceOnUse"><path
         style="clip-rule:evenodd"
         id="path160"
         d="M 0,-0.2 H 841.8 V 595 H 0 Z" /></clipPath><clipPath
       id="clipPath184"
       clipPathUnits="userSpaceOnUse"><path
         style="clip-rule:evenodd"
         id="path182"
         d="M 0,-0.2 H 841.8 V 595 H 0 Z" /></clipPath><clipPath
       id="clipPath196"
       clipPathUnits="userSpaceOnUse"><path
         style="clip-rule:evenodd"
         id="path194"
         d="M 0,-0.2 H 841.8 V 595 H 0 Z" /></clipPath><clipPath
       id="clipPath216"
       clipPathUnits="userSpaceOnUse"><path
         style="clip-rule:evenodd"
         id="path214"
         d="M 0,-0.2 H 841.8 V 595 H 0 Z" /></clipPath><clipPath
       id="clipPath228"
       clipPathUnits="userSpaceOnUse"><path
         style="clip-rule:evenodd"
         id="path226"
         d="M 0,-0.2 H 841.8 V 595 H 0 Z" /></clipPath><clipPath
       id="clipPath240"
       clipPathUnits="userSpaceOnUse"><path
         style="clip-rule:evenodd"
         id="path238"
         d="M 0,-0.2 H 841.8 V 595 H 0 Z" /></clipPath><clipPath
       id="clipPath252"
       clipPathUnits="userSpaceOnUse"><path
         style="clip-rule:evenodd"
         id="path250"
         d="M 0,-0.2 H 841.8 V 595 H 0 Z" /></clipPath><clipPath
       id="clipPath264"
       clipPathUnits="userSpaceOnUse"><path
         style="clip-rule:evenodd"
         id="path262"
         d="M 0,-0.2 H 841.8 V 595 H 0 Z" /></clipPath><clipPath
       id="clipPath276"
       clipPathUnits="userSpaceOnUse"><path
         style="clip-rule:evenodd"
         id="path274"
         d="M 0,-0.2 H 841.8 V 595 H 0 Z" /></clipPath><clipPath
       id="clipPath294"
       clipPathUnits="userSpaceOnUse"><path
         style="clip-rule:evenodd"
         id="path292"
         d="M 0,-0.2 H 841.8 V 595 H 0 Z" /></clipPath><clipPath
       id="clipPath306"
       clipPathUnits="userSpaceOnUse"><path
         style="clip-rule:evenodd"
         id="path304"
         d="M 0,-0.2 H 841.8 V 595 H 0 Z" /></clipPath><clipPath
       id="clipPath318"
       clipPathUnits="userSpaceOnUse"><path
         style="clip-rule:evenodd"
         id="path316"
         d="M 0,-0.2 H 841.8 V 595 H 0 Z" /></clipPath><clipPath
       id="clipPath330"
       clipPathUnits="userSpaceOnUse"><path
         style="clip-rule:evenodd"
         id="path328"
         d="M 0,-0.2 H 841.8 V 595 H 0 Z" /></clipPath><clipPath
       id="clipPath348"
       clipPathUnits="userSpaceOnUse"><path
         style="clip-rule:evenodd"
         id="path346"
         d="M 0,-0.2 H 841.8 V 595 H 0 Z" /></clipPath><clipPath
       id="clipPath360"
       clipPathUnits="userSpaceOnUse"><path
         style="clip-rule:evenodd"
         id="path358"
         d="M 0,-0.2 H 841.8 V 595 H 0 Z" /></clipPath><clipPath
       id="clipPath372"
       clipPathUnits="userSpaceOnUse"><path
         style="clip-rule:evenodd"
         id="path370"
         d="M 0,-0.2 H 841.8 V 595 H 0 Z" /></clipPath><clipPath
       id="clipPath384"
       clipPathUnits="userSpaceOnUse"><path
         style="clip-rule:evenodd"
         id="path382"
         d="M 0,-0.2 H 841.8 V 595 H 0 Z" /></clipPath><clipPath
       id="clipPath396"
       clipPathUnits="userSpaceOnUse"><path
         style="clip-rule:evenodd"
         id="path394"
         d="M 0,-0.2 H 841.8 V 595 H 0 Z" /></clipPath><clipPath
       id="clipPath416"
       clipPathUnits="userSpaceOnUse"><path
         style="clip-rule:evenodd"
         id="path414"
         d="M 0,-0.2 H 841.8 V 595 H 0 Z" /></clipPath><clipPath
       id="clipPath428"
       clipPathUnits="userSpaceOnUse"><path
         style="clip-rule:evenodd"
         id="path426"
         d="M 0,-0.2 H 841.8 V 595 H 0 Z" /></clipPath><clipPath
       id="clipPath458"
       clipPathUnits="userSpaceOnUse"><path
         style="clip-rule:evenodd"
         id="path456"
         d="M 0,-0.2 H 841.8 V 595 H 0 Z" /></clipPath><clipPath
       id="clipPath470"
       clipPathUnits="userSpaceOnUse"><path
         style="clip-rule:evenodd"
         id="path468"
         d="M 0,-0.2 H 841.8 V 595 H 0 Z" /></clipPath><clipPath
       id="clipPath482"
       clipPathUnits="userSpaceOnUse"><path
         style="clip-rule:evenodd"
         id="path480"
         d="M 0,-0.2 H 841.8 V 595 H 0 Z" /></clipPath><clipPath
       id="clipPath494"
       clipPathUnits="userSpaceOnUse"><path
         style="clip-rule:evenodd"
         id="path492"
         d="M 0,-0.2 H 841.8 V 595 H 0 Z" /></clipPath><clipPath
       id="clipPath506"
       clipPathUnits="userSpaceOnUse"><path
         style="clip-rule:evenodd"
         id="path504"
         d="M 0,-0.2 H 841.8 V 595 H 0 Z" /></clipPath><clipPath
       id="clipPath518"
       clipPathUnits="userSpaceOnUse"><path
         style="clip-rule:evenodd"
         id="path516"
         d="M 0,-0.2 H 841.8 V 595 H 0 Z" /></clipPath><clipPath
       id="clipPath530"
       clipPathUnits="userSpaceOnUse"><path
         style="clip-rule:evenodd"
         id="path528"
         d="M 0,-0.2 H 841.8 V 595 H 0 Z" /></clipPath><clipPath
       id="clipPath542"
       clipPathUnits="userSpaceOnUse"><path
         style="clip-rule:evenodd"
         id="path540"
         d="M 0,-0.2 H 841.8 V 595 H 0 Z" /></clipPath><clipPath
       id="clipPath554"
       clipPathUnits="userSpaceOnUse"><path
         style="clip-rule:evenodd"
         id="path552"
         d="M 0,-0.2 H 841.8 V 595 H 0 Z" /></clipPath><clipPath
       id="clipPath570"
       clipPathUnits="userSpaceOnUse"><path
         style="clip-rule:evenodd"
         id="path568"
         d="M 0,-0.2 H 841.8 V 595 H 0 Z" /></clipPath><clipPath
       id="clipPath582"
       clipPathUnits="userSpaceOnUse"><path
         style="clip-rule:evenodd"
         id="path580"
         d="M 0,-0.2 H 841.8 V 595 H 0 Z" /></clipPath><clipPath
       id="clipPath594"
       clipPathUnits="userSpaceOnUse"><path
         style="clip-rule:evenodd"
         id="path592"
         d="M 0,-0.2 H 841.8 V 595 H 0 Z" /></clipPath><clipPath
       id="clipPath606"
       clipPathUnits="userSpaceOnUse"><path
         style="clip-rule:evenodd"
         id="path604"
         d="M 0,-0.2 H 841.8 V 595 H 0 Z" /></clipPath><clipPath
       id="clipPath618"
       clipPathUnits="userSpaceOnUse"><path
         style="clip-rule:evenodd"
         id="path616"
         d="m 122.8,482.1 h 51.4 v 22.1 h -51.4 z" /></clipPath></defs><g
     clip-path="url(#clipPath14)"
     transform="matrix(1.3333333,0,0,-1.3333333,-60,948)"
     id="g10"><text
       id="text20"
       style="font-variant:normal;font-weight:normal;font-size:29.70540047px;font-family:'Palatino Linotype';-inkscape-font-specification:'Palatino Linotype'-Roman;writing-mode:lr-tb;fill:#ffffff;fill-opacity:1;fill-rule:nonzero;stroke:none"
       transform="matrix(1,0,0,-1,285.0751,320.0811)"><tspan
         id="tspan16"
         y="0"
         x="0 18.120295 35.290016 51.806217 64.341721 73.045403 86.383125 101.23582 109.93951 117.36586 133.88206 150.04179 161.74573 185.6881 200.5408 212.24472 230.36502 237.9399 265.98178 282.29007 300.41034 314.60934">Physical Forward Model</tspan><tspan
         id="tspan18"
         y="39.772228"
         x="-28.880251 -18.988352 -0.68982542 14.162874 27.322367 43.83857 53.730469 71.553528 83.108932 99.417198 117.24043 132.09314 148.43111 163.43233 172.9973 181.70097 198.98952 215.32748 222.90236 246.1617 263.98492 278.30295 289.85815 304.71085 314.42453 330.73279 342.43671">(Back-propagating Operator)</tspan></text>
<g
       transform="matrix(1.6503296,0,0,1.6503296,-17.429932,-157.02859)"
       id="g22"><g
         clip-path="url(#clipPath28)"
         id="g24"><g
           transform="translate(127.59986,509.99935)"
           id="g30"><path
             id="path32"
             style="fill:#ccffcc;fill-opacity:1;fill-rule:evenodd;stroke:none"
             d="m 0,0 c -7.1,0 -14.2,-7.2 -14.2,-14.3 v -169.9 c 0,-7.1 7.1,-14.3 14.2,-14.3 h 311.7 c 7.1,0 14.2,7.2 14.2,14.3 v 169.9 c 0,7.1 -7.1,14.3 -14.2,14.3 z" /></g></g></g><g
       transform="matrix(1.6503296,0,0,1.6503296,-17.429932,-157.02859)"
       id="g34"><g
         clip-path="url(#clipPath40)"
         id="g36"><g
           transform="translate(127.59986,509.99935)"
           id="g42"><path
             id="path44"
             style="fill:none;stroke:#000000;stroke-width:2.29200006;stroke-linecap:butt;stroke-linejoin:round;stroke-miterlimit:10;stroke-dasharray:none;stroke-opacity:1"
             d="m 0,0 c -7.1,0 -14.2,-7.2 -14.2,-14.3 v -169.9 c 0,-7.1 7.1,-14.3 14.2,-14.3 h 311.7 c 7.1,0 14.2,7.2 14.2,14.3 v 169.9 c 0,7.1 -7.1,14.3 -14.2,14.3 z" /></g></g></g><g
       transform="matrix(1.6503296,0,0,1.6503296,-17.429932,-157.02859)"
       id="g46"><g
         clip-path="url(#clipPath52)"
         id="g48"><g
           transform="translate(84.999889,410.69951)"
           id="g54"><path
             id="path56"
             style="fill:#ffffff;fill-opacity:1;fill-rule:evenodd;stroke:none"
             d="M 0,0 V -99.2 H -31.1 V 99.3 H 0 Z" /></g></g></g><g
       transform="matrix(1.6503296,0,0,1.6503296,-17.429932,-157.02859)"
       id="g58"><g
         clip-path="url(#clipPath64)"
         id="g60"><g
           transform="translate(84.999889,410.69951)"
           id="g66"><path
             id="path68"
             style="fill:none;stroke:#000000;stroke-width:2.29200006;stroke-linecap:butt;stroke-linejoin:round;stroke-miterlimit:10;stroke-dasharray:none;stroke-opacity:1"
             d="M 0,0 V -99.2 H -31.1 V 99.3 H 0 Z" /></g></g></g><text
       id="text72"
       style="font-variant:normal;font-weight:normal;font-size:21.45389938px;font-family:'Palatino Linotype';-inkscape-font-specification:'Palatino Linotype'-Roman;writing-mode:lr-tb;fill:#000000;fill-opacity:1;fill-rule:nonzero;stroke:none"
       transform="matrix(0,1,1,0,105.3544,415.635)"><tspan
         id="tspan70"
         y="0"
         x="0 7.0962849 19.473534 32.345875 45.218212 57.595291 73.768227 82.349785 93.076736 106.1141 112.2202 122.45206 134.99434 147.20656 154.46788 172.29608 182.858 203.15652">InputGradient(N×M)</tspan></text>
<g
       transform="matrix(1.6503296,0,0,1.6503296,-17.429932,-157.02859)"
       id="g74"><g
         clip-path="url(#clipPath80)"
         id="g76"><g
           transform="translate(538.59928,458.89935)"
           id="g82"><path
             id="path84"
             style="fill:#ffffff;fill-opacity:1;fill-rule:evenodd;stroke:none"
             d="M 0,0 H -56.7 V 45.4 H 56.7 V 0 Z" /></g></g></g><g
       transform="matrix(1.6503296,0,0,1.6503296,-17.429932,-157.02859)"
       id="g86"><g
         clip-path="url(#clipPath92)"
         id="g88"><g
           transform="translate(538.59928,458.89935)"
           id="g94"><path
             id="path96"
             style="fill:none;stroke:#000000;stroke-width:2.29200006;stroke-linecap:butt;stroke-linejoin:round;stroke-miterlimit:10;stroke-dasharray:none;stroke-opacity:1"
             d="M 0,0 H -56.7 V 45.4 H 56.7 V 0 Z" /></g></g></g><text
       id="text102"
       style="font-variant:normal;font-weight:normal;font-size:21.45389938px;font-family:'Palatino Linotype';-inkscape-font-specification:'Palatino Linotype'-Roman;writing-mode:lr-tb;fill:#000000;fill-opacity:1;fill-rule:nonzero;stroke:none"
       transform="matrix(1,0,0,-1,802.2877,644.0403)"><tspan
         id="tspan98"
         y="0"
         x="0 16.841312 29.713652 36.643261 49.515602 62.387768 74.745216 86.137238 96.520927 108.89983 117.97482 129.66721">OutputTensor</tspan><tspan
         id="tspan100"
         y="28.55019"
         x="36.966721 44.067963 61.896152 72.6231 83.350052 94.077003">(N×92)</tspan></text>
<g
       transform="matrix(1.6503296,0,0,1.6503296,-17.429932,-157.02859)"
       id="g104"><g
         clip-path="url(#clipPath110)"
         id="g106"><g
           transform="translate(177.59978,405.99946)"
           id="g112"><path
             id="path114"
             style="fill:#dddddd;fill-opacity:1;fill-rule:evenodd;stroke:none"
             d="M 0,0 H -29.7 V 65.2 H 29.8 V 0 Z" /></g></g></g><g
       transform="matrix(1.6503296,0,0,1.6503296,-17.429932,-157.02859)"
       id="g116"><g
         clip-path="url(#clipPath122)"
         id="g118"><g
           transform="translate(177.59978,405.99946)"
           id="g124"><path
             id="path126"
             style="fill:none;stroke:#000000;stroke-width:1.5;stroke-linecap:butt;stroke-linejoin:round;stroke-miterlimit:10;stroke-dasharray:none;stroke-opacity:1"
             d="M 0,0 H -29.7 V 65.2 H 29.8 V 0 Z" /></g></g></g><text
       id="text134"
       style="font-variant:normal;font-weight:normal;font-size:19.80360031px;font-family:'Palatino Linotype';-inkscape-font-specification:'Palatino Linotype'-Roman;writing-mode:lr-tb;fill:#000000;fill-opacity:1;fill-rule:nonzero;stroke:none"
       transform="matrix(1,0,0,-1,238.7009,585.7838)"><tspan
         id="tspan128"
         y="0"
         x="0 6.5945988 16.496399 25.24959 36.121765 47.013748 52.459736 62.361538">Jacobian</tspan><tspan
         id="tspan130"
         y="26.56983"
         x="7.4263501 26.219967 36.121765 42.69656 50.598198 56.044189">Matrix</tspan><tspan
         id="tspan132"
         y="53.13966"
         x="-3.9607201">(</tspan></text>
<text
       id="text138"
       style="font-variant:normal;font-weight:normal;font-size:18.15329933px;font-family:'Palatino Linotype';-inkscape-font-specification:'Palatino Linotype'-Roman;writing-mode:lr-tb;fill:#000000;fill-opacity:1;fill-rule:nonzero;stroke:none"
       transform="matrix(1,0,0,-1,241.33478,532.64414)"><tspan
         id="tspan136"
         y="0"
         x="0 15.012779 24.08943 33.16608 42.387955 51.464607">N×92×M</tspan></text>
<text
       id="text142"
       style="font-variant:normal;font-weight:normal;font-size:19.80360031px;font-family:'Palatino Linotype';-inkscape-font-specification:'Palatino Linotype'-Roman;writing-mode:lr-tb;fill:#000000;fill-opacity:1;fill-rule:nonzero;stroke:none"
       transform="matrix(1,0,0,-1,309.99386,532.64414)"><tspan
         id="tspan140"
         y="0"
         x="0">)</tspan></text>
<g
       transform="matrix(1.6503296,0,0,1.6503296,-17.429932,-157.02859)"
       id="g144"><g
         clip-path="url(#clipPath150)"
         id="g146"><g
           transform="translate(240.19967,479.89935)"
           id="g152"><path
             id="path154"
             style="fill:#00331a;fill-opacity:1;fill-rule:evenodd;stroke:none"
             d="m 0,0 c -3.9,0 -7.8,-3.9 -7.8,-7.8 v -66.6 c 0,-3.9 3.9,-7.8 7.8,-7.8 h 89.4 c 3.8,0 7.8,3.9 7.8,7.8 v 66.6 c 0,3.9 -4,7.8 -7.8,7.8 z" /></g></g></g><g
       transform="matrix(1.6503296,0,0,1.6503296,-17.429932,-157.02859)"
       id="g156"><g
         clip-path="url(#clipPath162)"
         id="g158"><g
           transform="translate(240.19967,479.89935)"
           id="g164"><path
             id="path166"
             style="fill:none;stroke:#000000;stroke-width:1.5;stroke-linecap:butt;stroke-linejoin:round;stroke-miterlimit:10;stroke-dasharray:none;stroke-opacity:1"
             d="m 0,0 c -3.9,0 -7.8,-3.9 -7.8,-7.8 v -66.6 c 0,-3.9 3.9,-7.8 7.8,-7.8 h 89.4 c 3.8,0 7.8,3.9 7.8,7.8 v 66.6 c 0,3.9 -4,7.8 -7.8,7.8 z" /></g></g></g><text
       id="text176"
       style="font-variant:normal;font-weight:normal;font-size:19.80360031px;font-family:'Palatino Linotype';-inkscape-font-specification:'Palatino Linotype'-Roman;writing-mode:lr-tb;fill:#ffffff;fill-opacity:1;fill-rule:nonzero;stroke:none"
       transform="matrix(1,0,0,-1,406.2091,599.4815)"><tspan
         id="tspan168"
         y="0"
         x="0 16.337971 28.220131 45.686905 55.232082 62.995251 68.59967 77.352707 87.254501">Numerical</tspan><tspan
         id="tspan170"
         y="26.56983"
         x="7.0962901 13.690888 23.59269 32.345879 43.07943 53.971413 59.575672 69.47747 81.003166">Jacobian </tspan><tspan
         id="tspan172"
         y="53.13966"
         x="-21.78396 -12.238625 -3.9805236 2.5942717 8.0402613 25.507036 35.408836 41.845005 47.449268 58.321445 69.847137 74.798042 91.136009 96.740425 103.1766">estimation with</tspan><tspan
         id="tspan174"
         y="79.709488"
         x="-6.9312601 9.4067097 21.28887 38.755646 50.637806 65.787399 81.273819 93.155975">NumpyAPI</tspan></text>
<g
       transform="matrix(1.6503296,0,0,1.6503296,-17.429932,-157.02859)"
       id="g178"><g
         clip-path="url(#clipPath184)"
         id="g180"><g
           transform="translate(403.19945,444.79942)"
           id="g186"><path
             id="path188"
             style="fill:#dddddd;fill-opacity:1;fill-rule:evenodd;stroke:none"
             d="M 0,0 H -30.4 V 53.8 H 30.5 V 0 Z" /></g></g></g><g
       transform="matrix(1.6503296,0,0,1.6503296,-17.429932,-157.02859)"
       id="g190"><g
         clip-path="url(#clipPath196)"
         id="g192"><g
           transform="translate(403.19945,444.79942)"
           id="g198"><path
             id="path200"
             style="fill:none;stroke:#000000;stroke-width:1.5;stroke-linecap:butt;stroke-linejoin:round;stroke-miterlimit:10;stroke-dasharray:none;stroke-opacity:1"
             d="M 0,0 H -30.4 V 53.8 H 30.5 V 0 Z" /></g></g></g><text
       id="text208"
       style="font-variant:normal;font-weight:normal;font-size:19.80360031px;font-family:'Palatino Linotype';-inkscape-font-specification:'Palatino Linotype'-Roman;writing-mode:lr-tb;fill:#000000;fill-opacity:1;fill-rule:nonzero;stroke:none"
       transform="matrix(1,0,0,-1,615.8007,640.4096)"><tspan
         id="tspan202"
         y="0"
         x="0 15.664648 27.546808 34.121601 46.003761 57.885921">Output</tspan><tspan
         id="tspan204"
         y="26.56983"
         x="6.1061101 21.453899 29.513966 37.276978 47.317402">Array</tspan><tspan
         id="tspan206"
         y="53.13966"
         x="2.64048 9.2350788 25.57305 35.47485 45.376648 55.27845">(N×92)</tspan></text>
<g
       transform="matrix(1.6503296,0,0,1.6503296,-17.429932,-157.02859)"
       id="g210"><g
         clip-path="url(#clipPath216)"
         id="g212"><g
           transform="translate(98.099874,410.69951)"
           id="g218"><path
             id="path220"
             style="fill:none;stroke:#ffffff;stroke-width:2.29200006;stroke-linecap:butt;stroke-linejoin:round;stroke-miterlimit:10;stroke-dasharray:none;stroke-opacity:1"
             d="M 0,0 H 15.3" /></g></g></g><g
       transform="matrix(1.6503296,0,0,1.6503296,-17.429932,-157.02859)"
       id="g222"><g
         clip-path="url(#clipPath228)"
         id="g224"><g
           transform="translate(84.999889,410.69951)"
           id="g230"><path
             id="path232"
             style="fill:#ffffff;fill-opacity:1;fill-rule:evenodd;stroke:none"
             d="M 0,0 13.7,-4.5 V 4.6 Z" /></g></g></g><g
       transform="matrix(1.6503296,0,0,1.6503296,-17.429932,-157.02859)"
       id="g234"><g
         clip-path="url(#clipPath240)"
         id="g236"><g
           transform="translate(177.59978,405.99946)"
           id="g242"><path
             id="path244"
             style="fill:none;stroke:#000000;stroke-width:2.29200006;stroke-linecap:butt;stroke-linejoin:round;stroke-miterlimit:10;stroke-dasharray:none;stroke-opacity:1"
             d="M 0,0 -0.2,-23.5" /></g></g></g><g
       transform="matrix(1.6503296,0,0,1.6503296,-17.429932,-157.02859)"
       id="g246"><g
         clip-path="url(#clipPath252)"
         id="g248"><g
           transform="translate(177.19977,365.39955)"
           id="g254"><path
             id="path256"
             style="fill:#000000;fill-opacity:1;fill-rule:evenodd;stroke:none"
             d="M 0,0 6.1,17.8 -5.8,18 Z" /></g></g></g><g
       transform="matrix(1.6503296,0,0,1.6503296,-17.429932,-157.02859)"
       id="g258"><g
         clip-path="url(#clipPath264)"
         id="g260"><g
           transform="translate(537.89929,388.0995)"
           id="g266"><path
             id="path268"
             style="fill:#ffffff;fill-opacity:1;fill-rule:evenodd;stroke:none"
             d="M 0,0 H -57.4 V 45.3 H 57.4 V 0 Z" /></g></g></g><g
       transform="matrix(1.6503296,0,0,1.6503296,-17.429932,-157.02859)"
       id="g270"><g
         clip-path="url(#clipPath276)"
         id="g272"><g
           transform="translate(537.89929,388.0995)"
           id="g278"><path
             id="path280"
             style="fill:none;stroke:#000000;stroke-width:2.29200006;stroke-linecap:butt;stroke-linejoin:round;stroke-miterlimit:10;stroke-dasharray:none;stroke-opacity:1"
             d="M 0,0 H -57.4 V 45.3 H 57.4 V 0 Z" /></g></g></g><text
       id="text286"
       style="font-variant:normal;font-weight:normal;font-size:21.45389938px;font-family:'Palatino Linotype';-inkscape-font-specification:'Palatino Linotype'-Roman;writing-mode:lr-tb;fill:#000000;fill-opacity:1;fill-rule:nonzero;stroke:none"
       transform="matrix(1,0,0,-1,790.7354,527.0322)"><tspan
         id="tspan282"
         y="0"
         x="0 16.841312 29.713652 36.643261 49.515602 62.387768 74.745384 90.921455 99.331383 110.05833 123.10231 129.3454 139.5789 152.10799">OutputGradient</tspan><tspan
         id="tspan284"
         y="28.55019"
         x="47.363609 54.464851 72.293045 83.019989 93.746941 104.47389">(N×92)</tspan></text>
<g
       transform="matrix(1.6503296,0,0,1.6503296,-17.429932,-157.02859)"
       id="g288"><g
         clip-path="url(#clipPath294)"
         id="g290"><g
           transform="translate(433.69943,471.69938)"
           id="g296"><path
             id="path298"
             style="fill:none;stroke:#ffffff;stroke-width:2.29200006;stroke-linecap:butt;stroke-linejoin:round;stroke-miterlimit:10;stroke-dasharray:none;stroke-opacity:1"
             d="M 0,0 H 19.8 L 32.9,9.9 H 48.2" /></g></g></g><g
       transform="matrix(1.6503296,0,0,1.6503296,-17.429932,-157.02859)"
       id="g300"><g
         clip-path="url(#clipPath306)"
         id="g302"><g
           transform="translate(433.69943,409.29946)"
           id="g308"><path
             id="path310"
             style="fill:none;stroke:#ffffff;stroke-width:2.29200006;stroke-linecap:butt;stroke-linejoin:round;stroke-miterlimit:10;stroke-dasharray:none;stroke-opacity:1"
             d="M 0,0 H 14.9 L 31.4,1.4 H 46.8" /></g></g></g><g
       transform="matrix(1.6503296,0,0,1.6503296,-17.429932,-157.02859)"
       id="g312"><g
         clip-path="url(#clipPath318)"
         id="g314"><g
           transform="translate(537.89929,317.19958)"
           id="g320"><path
             id="path322"
             style="fill:#ffffff;fill-opacity:1;fill-rule:evenodd;stroke:none"
             d="M 0,0 H -57.4 V 45.4 H 57.4 V 0 Z" /></g></g></g><g
       transform="matrix(1.6503296,0,0,1.6503296,-17.429932,-157.02859)"
       id="g324"><g
         clip-path="url(#clipPath330)"
         id="g326"><g
           transform="translate(537.89929,317.19958)"
           id="g332"><path
             id="path334"
             style="fill:none;stroke:#000000;stroke-width:2.29200006;stroke-linecap:butt;stroke-linejoin:round;stroke-miterlimit:10;stroke-dasharray:none;stroke-opacity:1"
             d="M 0,0 H -57.4 V 45.4 H 57.4 V 0 Z" /></g></g></g><text
       id="text340"
       style="font-variant:normal;font-weight:normal;font-size:21.45389938px;font-family:'Palatino Linotype';-inkscape-font-specification:'Palatino Linotype'-Roman;writing-mode:lr-tb;fill:#000000;fill-opacity:1;fill-rule:nonzero;stroke:none"
       transform="matrix(1,0,0,-1,809.7142,410.0239)"><tspan
         id="tspan336"
         y="0"
         x="0 7.1012411 19.480141 32.352482 45.224823 52.304436 57.582096 68.974113 79.357803 91.736702 100.96188 112.65426">Input Tensor</tspan><tspan
         id="tspan338"
         y="28.55019"
         x="29.04528 36.146523 53.974712 64.70166 84.825417">(N×M)</tspan></text>
<g
       transform="matrix(1.6503296,0,0,1.6503296,-17.429932,-157.02859)"
       id="g342"><g
         clip-path="url(#clipPath348)"
         id="g344"><g
           transform="translate(446.6994,471.69938)"
           id="g350"><path
             id="path352"
             style="fill:none;stroke:#000000;stroke-width:2.29200006;stroke-linecap:butt;stroke-linejoin:round;stroke-miterlimit:10;stroke-dasharray:none;stroke-opacity:1"
             d="m 0,0 h 6.8 v -61 0" /></g></g></g><g
       transform="matrix(1.6503296,0,0,1.6503296,-17.429932,-157.02859)"
       id="g354"><g
         clip-path="url(#clipPath360)"
         id="g356"><g
           transform="translate(433.69943,471.69938)"
           id="g362"><path
             id="path364"
             style="fill:#000000;fill-opacity:1;fill-rule:evenodd;stroke:none"
             d="M 0,0 13.7,-4.6 V 4.5 Z" /></g></g></g><g
       transform="matrix(1.6503296,0,0,1.6503296,-17.429932,-157.02859)"
       id="g366"><g
         clip-path="url(#clipPath372)"
         id="g368"><g
           transform="translate(433.69943,346.99956)"
           id="g374"><path
             id="path376"
             style="fill:none;stroke:#ffffff;stroke-width:2.29200006;stroke-linecap:butt;stroke-linejoin:round;stroke-miterlimit:10;stroke-dasharray:none;stroke-opacity:1"
             d="M 0,0 H 19.8 L 31.4,-7.1 H 46.8" /></g></g></g><g
       transform="matrix(1.6503296,0,0,1.6503296,-17.429932,-157.02859)"
       id="g378"><g
         clip-path="url(#clipPath384)"
         id="g380"><g
           transform="translate(403.19945,382.3995)"
           id="g386"><path
             id="path388"
             style="fill:#dddddd;fill-opacity:1;fill-rule:evenodd;stroke:none"
             d="M 0,0 H -30.4 V 53.9 H 30.5 V 0 Z" /></g></g></g><g
       transform="matrix(1.6503296,0,0,1.6503296,-17.429932,-157.02859)"
       id="g390"><g
         clip-path="url(#clipPath396)"
         id="g392"><g
           transform="translate(403.19945,382.3995)"
           id="g398"><path
             id="path400"
             style="fill:none;stroke:#000000;stroke-width:1.5;stroke-linecap:butt;stroke-linejoin:round;stroke-miterlimit:10;stroke-dasharray:none;stroke-opacity:1"
             d="M 0,0 H -30.4 V 53.9 H 30.5 V 0 Z" /></g></g></g><text
       id="text408"
       style="font-variant:normal;font-weight:normal;font-size:19.80360031px;font-family:'Palatino Linotype';-inkscape-font-specification:'Palatino Linotype'-Roman;writing-mode:lr-tb;fill:#000000;fill-opacity:1;fill-rule:nonzero;stroke:none"
       transform="matrix(1,0,0,-1,609.0344,537.5942)"><tspan
         id="tspan402"
         y="0"
         x="0 15.011128 22.912766 32.814564 44.854996 50.459415 60.004749 71.391823">Gradient</tspan><tspan
         id="tspan404"
         y="26.56983"
         x="12.87234 28.220131 36.280193 44.043205 54.083633">Array</tspan><tspan
         id="tspan406"
         y="53.13966"
         x="9.4067097 16.001308 32.339279 42.241077 52.142879 62.044678">(N×92)</tspan></text>
<g
       transform="matrix(1.6503296,0,0,1.6503296,-17.429932,-157.02859)"
       id="g410"><g
         clip-path="url(#clipPath416)"
         id="g412"><g
           transform="translate(403.19945,319.99957)"
           id="g418"><path
             id="path420"
             style="fill:#dddddd;fill-opacity:1;fill-rule:evenodd;stroke:none"
             d="M 0,0 H -30.4 V 53.9 H 30.5 V 0 Z" /></g></g></g><g
       transform="matrix(1.6503296,0,0,1.6503296,-17.429932,-157.02859)"
       id="g422"><g
         clip-path="url(#clipPath428)"
         id="g424"><g
           transform="translate(403.19945,319.99957)"
           id="g430"><path
             id="path432"
             style="fill:none;stroke:#000000;stroke-width:1.5;stroke-linecap:butt;stroke-linejoin:round;stroke-miterlimit:10;stroke-dasharray:none;stroke-opacity:1"
             d="M 0,0 H -30.4 V 53.9 H 30.5 V 0 Z" /></g></g></g><text
       id="text436"
       style="font-variant:normal;font-weight:normal;font-size:21.45389938px;font-family:'Palatino Linotype';-inkscape-font-specification:'Palatino Linotype'-Roman;writing-mode:lr-tb;fill:#000000;fill-opacity:1;fill-rule:nonzero;stroke:none"
       transform="matrix(1,0,0,-1,621.9069,435.1089)"><tspan
         id="tspan434"
         y="0"
         x="0 7.1012411 19.630318 32.502659 45.375">Input</tspan></text>
<text
       id="text442"
       style="font-variant:normal;font-weight:normal;font-size:19.80360031px;font-family:'Palatino Linotype';-inkscape-font-specification:'Palatino Linotype'-Roman;writing-mode:lr-tb;fill:#000000;fill-opacity:1;fill-rule:nonzero;stroke:none"
       transform="matrix(1,0,0,-1,621.9069,408.04398)"><tspan
         id="tspan438"
         y="0"
         x="0 15.34779 23.407856 31.170866 41.211292">Array</tspan><tspan
         id="tspan440"
         y="28.055099"
         x="-4.7858701">(</tspan></text>
<text
       id="text446"
       style="font-variant:normal;font-weight:normal;font-size:21.45389938px;font-family:'Palatino Linotype';-inkscape-font-specification:'Palatino Linotype'-Roman;writing-mode:lr-tb;fill:#000000;fill-opacity:1;fill-rule:nonzero;stroke:none"
       transform="matrix(1,0,0,-1,623.71563,379.98888)"><tspan
         id="tspan444"
         y="0"
         x="0 17.828192 28.555141">N×M</tspan></text>
<text
       id="text450"
       style="font-variant:normal;font-weight:normal;font-size:19.80360031px;font-family:'Palatino Linotype';-inkscape-font-specification:'Palatino Linotype'-Roman;writing-mode:lr-tb;fill:#000000;fill-opacity:1;fill-rule:nonzero;stroke:none"
       transform="matrix(1,0,0,-1,672.40608,379.98888)"><tspan
         id="tspan448"
         y="0"
         x="0">)</tspan></text>
<g
       transform="matrix(1.6503296,0,0,1.6503296,-17.429932,-157.02859)"
       id="g452"><g
         clip-path="url(#clipPath458)"
         id="g454"><g
           transform="translate(446.6994,409.29946)"
           id="g460"><path
             id="path462"
             style="fill:none;stroke:#000000;stroke-width:2.29200006;stroke-linecap:butt;stroke-linejoin:round;stroke-miterlimit:10;stroke-dasharray:none;stroke-opacity:1"
             d="m 0,0 h 6.8 v 1.4 0" /></g></g></g><g
       transform="matrix(1.6503296,0,0,1.6503296,-17.429932,-157.02859)"
       id="g464"><g
         clip-path="url(#clipPath470)"
         id="g466"><g
           transform="translate(433.69943,409.29946)"
           id="g472"><path
             id="path474"
             style="fill:#000000;fill-opacity:1;fill-rule:evenodd;stroke:none"
             d="M 0,0 13.7,-4.5 V 4.6 Z" /></g></g></g><g
       transform="matrix(1.6503296,0,0,1.6503296,-17.429932,-157.02859)"
       id="g476"><g
         clip-path="url(#clipPath482)"
         id="g478"><g
           transform="translate(446.6994,346.99956)"
           id="g484"><path
             id="path486"
             style="fill:none;stroke:#000000;stroke-width:2.29200006;stroke-linecap:butt;stroke-linejoin:round;stroke-miterlimit:10;stroke-dasharray:none;stroke-opacity:1"
             d="m 0,0 h 6.8 v 63.7 0" /></g></g></g><g
       transform="matrix(1.6503296,0,0,1.6503296,-17.429932,-157.02859)"
       id="g488"><g
         clip-path="url(#clipPath494)"
         id="g490"><g
           transform="translate(433.69943,346.99956)"
           id="g496"><path
             id="path498"
             style="fill:#000000;fill-opacity:1;fill-rule:evenodd;stroke:none"
             d="M 0,0 13.7,-4.6 V 4.5 Z" /></g></g></g><g
       transform="matrix(1.6503296,0,0,1.6503296,-17.429932,-157.02859)"
       id="g500"><g
         clip-path="url(#clipPath506)"
         id="g502"><g
           transform="translate(372.79947,346.99956)"
           id="g508"><path
             id="path510"
             style="fill:none;stroke:#000000;stroke-width:2.29200006;stroke-linecap:butt;stroke-linejoin:round;stroke-miterlimit:10;stroke-dasharray:none;stroke-opacity:1"
             d="m 0,0 h -10 l -8.5,91.8 h -3.9" /></g></g></g><g
       transform="matrix(1.6503296,0,0,1.6503296,-17.429932,-157.02859)"
       id="g512"><g
         clip-path="url(#clipPath518)"
         id="g514"><g
           transform="translate(337.29953,438.79946)"
           id="g520"><path
             id="path522"
             style="fill:#000000;fill-opacity:1;fill-rule:evenodd;stroke:none"
             d="M 0,0 13.7,-4.6 V 4.5 Z" /></g></g></g><g
       transform="matrix(1.6503296,0,0,1.6503296,-17.429932,-157.02859)"
       id="g524"><g
         clip-path="url(#clipPath530)"
         id="g526"><g
           transform="translate(164.39979,352.59956)"
           id="g532"><path
             id="path534"
             style="fill:none;stroke:#000000;stroke-width:2.29200006;stroke-linecap:butt;stroke-linejoin:round;stroke-miterlimit:10;stroke-dasharray:none;stroke-opacity:1"
             d="M 0,0 H -11.3 L -31.2,58.1 H -51" /></g></g></g><g
       transform="matrix(1.6503296,0,0,1.6503296,-17.429932,-157.02859)"
       id="g536"><g
         clip-path="url(#clipPath542)"
         id="g538"><g
           transform="translate(177.19977,339.89957)"
           id="g544"><path
             id="path546"
             style="fill:#ffff66;fill-opacity:1;fill-rule:evenodd;stroke:none"
             d="m 0,0 c -2.4,0 -4.4,0.5 -6.4,1.7 -2.1,1.2 -3.5,2.6 -4.7,4.7 -1.2,2 -1.7,4 -1.7,6.3 0,2.4 0.5,4.4 1.7,6.4 1.2,2.1 2.6,3.5 4.7,4.7 2,1.2 4,1.7 6.4,1.7 2.3,0 4.3,-0.5 6.3,-1.7 2.1,-1.2 3.5,-2.6 4.7,-4.7 1.2,-2 1.7,-4 1.7,-6.4 C 12.7,10.4 12.2,8.4 11,6.4 9.8,4.3 8.4,2.9 6.3,1.7 4.3,0.5 2.3,0 0,0 Z" /></g></g></g><g
       transform="matrix(1.6503296,0,0,1.6503296,-17.429932,-157.02859)"
       id="g548"><g
         clip-path="url(#clipPath554)"
         id="g550"><g
           transform="translate(177.19977,339.89957)"
           id="g556"><path
             id="path558"
             style="fill:none;stroke:#000000;stroke-width:1.5;stroke-linecap:butt;stroke-linejoin:round;stroke-miterlimit:10;stroke-dasharray:none;stroke-opacity:1"
             d="m 0,0 c -2.4,0 -4.4,0.5 -6.4,1.7 -2.1,1.2 -3.5,2.6 -4.7,4.7 -1.2,2 -1.7,4 -1.7,6.3 0,2.4 0.5,4.4 1.7,6.4 1.2,2.1 2.6,3.5 4.7,4.7 2,1.2 4,1.7 6.4,1.7 2.3,0 4.3,-0.5 6.3,-1.7 2.1,-1.2 3.5,-2.6 4.7,-4.7 1.2,-2 1.7,-4 1.7,-6.4 C 12.7,10.4 12.2,8.4 11,6.4 9.8,4.3 8.4,2.9 6.3,1.7 4.3,0.5 2.3,0 0,0 Z" /></g></g></g><text
       id="text562"
       style="font-variant:normal;font-weight:normal;font-size:36.30659866px;font-family:Arial;-inkscape-font-specification:ArialMT;writing-mode:lr-tb;fill:#000000;fill-opacity:1;fill-rule:nonzero;stroke:none"
       transform="matrix(1,0,0,-1,264.281,412.6645)"><tspan
         id="tspan560"
         y="0"
         x="0">×</tspan></text>
<g
       transform="matrix(1.6503296,0,0,1.6503296,-17.429932,-157.02859)"
       id="g564"><g
         clip-path="url(#clipPath570)"
         id="g566"><g
           transform="translate(372.79947,409.29946)"
           id="g572"><path
             id="path574"
             style="fill:none;stroke:#000000;stroke-width:2.29200006;stroke-linecap:butt;stroke-linejoin:round;stroke-miterlimit:10;stroke-dasharray:none;stroke-opacity:1"
             d="M 0,0 H -7.1 L -58.2,-56.7 H -169.8" /></g></g></g><g
       transform="matrix(1.6503296,0,0,1.6503296,-17.429932,-157.02859)"
       id="g576"><g
         clip-path="url(#clipPath582)"
         id="g578"><g
           transform="translate(189.89974,352.59956)"
           id="g584"><path
             id="path586"
             style="fill:#000000;fill-opacity:1;fill-rule:evenodd;stroke:none"
             d="M 0,0 13.7,-4.5 V 4.6 Z" /></g></g></g><g
       transform="matrix(1.6503296,0,0,1.6503296,-17.429932,-157.02859)"
       id="g588"><g
         clip-path="url(#clipPath594)"
         id="g590"><g
           transform="translate(232.39968,438.79946)"
           id="g596"><path
             id="path598"
             style="fill:none;stroke:#000000;stroke-width:2.29200006;stroke-linecap:butt;stroke-linejoin:round;stroke-miterlimit:10;stroke-dasharray:none;stroke-opacity:1"
             d="M 0,0 -7.9,-0.1" /></g></g></g><g
       transform="matrix(1.6503296,0,0,1.6503296,-17.429932,-157.02859)"
       id="g600"><g
         clip-path="url(#clipPath606)"
         id="g602"><g
           transform="translate(207.39974,438.59941)"
           id="g608"><path
             id="path610"
             style="fill:#000000;fill-opacity:1;fill-rule:evenodd;stroke:none"
             d="M 0,0 17.9,-5.8 17.8,6.1 Z" /></g></g></g><g
       transform="matrix(1.6503296,0,0,1.6503296,-17.429932,-157.02859)"
       id="g612"><g
         clip-path="url(#clipPath618)"
         id="g614"><g
           transform="translate(136.09984,483.59937)"
           id="g620"><path
             id="path622"
             style="fill:#000000;fill-opacity:1;fill-rule:evenodd;stroke:none"
             d="m 0,0 c 0.3,0 0.4,0.1 0.5,0.3 l 9.3,18.2 h 0.1 v 0 c 0,0.2 -0.1,0.2 -0.3,0.2 H -9.9 c -0.1,0 -0.2,0 -0.2,-0.2 v 0 0 L -0.8,0.3 C -0.7,0.1 -0.5,0 -0.3,0 Z M -6.6,16.8 H 7.9 L 0.6,2.6 Z M 14.9,0 H 15 c 0.9,0 1.7,0.3 2.5,0.9 0.8,0.5 1.5,1.2 1.9,2 1.1,1.9 2,3.9 2.8,5.8 h 5.1 v 0 c 0,-0.1 0.1,-0.1 0.2,-0.2 h 0.2 c 0.4,0 0.9,0.2 1.3,0.5 0.4,0.3 0.7,0.6 0.8,1.1 0,0 0,0.1 -0.2,0.2 h -6.8 c 0.8,2.1 1.5,4.4 2,6.9 H 29 c 1.5,0 2.3,-0.2 2.3,-0.6 0,0 0,0 0,-0.1 0,-0.1 0,-0.1 0,-0.2 0,0 0,-0.1 0.2,-0.1 h 0.1 c 0.5,0 0.9,0.2 1.4,0.5 0.5,0.3 0.7,0.6 0.7,1 0,0.7 -0.9,1 -2.6,1 h -7.9 c -1,0 -2.1,-0.2 -3.1,-0.6 -1.1,-0.4 -2,-1 -2.8,-1.8 -0.8,-0.7 -1.3,-1.6 -1.6,-2.5 0,-0.1 0,-0.2 0.2,-0.3 H 16 c 0.4,0.1 0.8,0.2 1.2,0.4 0.4,0.3 0.7,0.6 0.8,0.8 0.5,1.7 1.7,2.5 3.4,2.5 h 1.2 C 22.4,15.9 22,14.5 21.6,13.2 21.3,11.8 20.8,10.4 20.3,9.1 19.4,6.7 18.3,4.3 17,2 16.9,1.9 16.9,1.7 16.7,1.6 16.1,1.6 15.6,1.7 15.3,1.9 15,2.2 14.7,2.5 14.4,2.8 14.2,3.2 14.1,3.4 14,3.5 H 13.8 C 13.5,3.4 13.1,3.3 12.5,2.9 12,2.7 11.8,2.4 11.8,2.1 12,1.4 12.4,0.9 13,0.6 13.5,0.2 14.2,0 14.9,0 Z" /></g></g></g></g></svg>