<?xml version="1.0" encoding="UTF-8" standalone="no"?>
<!DOCTYPE svg PUBLIC "-//W3C//DTD SVG 1.1//EN"
"http://www.w3.org/Graphics/SVG/1.1/DTD/svg11.dtd">


<!-- Page 1 -->
<svg x="0" y="0" width="893" height="619" viewBox="0 0 893 619" version="1.1" xmlns="http://www.w3.org/2000/svg" xmlns:xlink="http://www.w3.org/1999/xlink"
style="display: block;margin-left: auto;margin-right: auto;">
<defs>
<clipPath id="c_1"><path d="M0,0H893V619H0Z"/></clipPath>
<style type="text/css"><![CDATA[

.g0{
fill: #FFFFFF;
}
.g1{
fill: #B2B2B2;
}
.g2{
}
.g3{
fill: #FF99FF;
}
.g4{
fill: #00FFFF;
}
.g5{
fill: #FF3333;
}

]]></style>

</defs>
<g clip-path="url(#c_1)">
<path d="M144.3,546.7H851.7v5.6H144.3Z" class="g0"/>
<path fill-rule="evenodd" d="M893.6,549.5L849.8,534.8V564Z" class="g0"/>
<path d="M210.8,618.8V41.9h5.6V618.8Z" class="g0"/>
<path fill-rule="evenodd" d="M213.6,0L199.1,44.1h29.2Z" class="g0"/>
<path d="M166.2,117.7l5.9,4.2l-2.2,3l-5.8,-4.2Z" class="g1"/>
<path d="M177.9,126.3l5.9,4.1l-2.1,3l-5.9,-4.1Z" class="g1"/>
<path d="M189.7,134.8l5.9,4.2l-2.2,3l-5.8,-4.2Z" class="g1"/>
<path d="M201.5,143.2l5.6,4.4l-2.2,2.9l-5.7,-4.4Z" class="g1"/>
<path d="M213.2,151.8l5.7,4.4l-2.3,2.9L211,154.7Z" class="g1"/>
<path d="M224.7,160.3l5.9,4.4l-2.2,3l-5.9,-4.4Z" class="g1"/>
<path d="M236.4,168.9l5.9,4.1l-2.1,3l-5.9,-4.1Z" class="g1"/>
<path d="M248.2,177.4l5.9,4.2l-2.2,3l-5.8,-4.2Z" class="g1"/>
<path d="M259.9,186l5.9,4.2l-2.1,3L257.8,189Z" class="g1"/>
<path d="M271.7,194.4l5.9,4.4l-2.2,2.9l-5.9,-4.4Z" class="g1"/>
<path d="M283.5,202.9l5.6,4.4l-2.2,2.9l-5.7,-4.4Z" class="g1"/>
<path d="M295.2,211.5l5.6,4.1l-2.1,3L293,214.4Z" class="g1"/>
<path d="M306.7,220l5.9,4.2l-2.2,3L304.6,223Z" class="g1"/>
<path d="M318.4,228.6l5.9,4.2l-2.1,2.9l-5.9,-4.1Z" class="g1"/>
<path d="M330.2,237.2l5.9,4.1l-2.2,3l-5.8,-4.1Z" class="g1"/>
<path d="M342,245.5l5.8,4.4l-2.2,3l-5.8,-4.5Z" class="g1"/>
<path d="M353.7,254.1l5.9,4.4l-2.2,2.9L351.5,257Z" class="g1"/>
<path d="M365.4,262.6l5.9,4.2l-2.1,3l-5.9,-4.2Z" class="g1"/>
<path d="M377.2,271.2l5.6,4.2l-2.1,2.9L375,274.2Z" class="g1"/>
<path d="M389,279.8l5.6,4.1l-2.2,3l-5.6,-4.2Z" class="g1"/>
<path d="M400.5,288.1l5.8,4.4l-2.2,2.9L398.3,291Z" class="g1"/>
<path d="M412.2,296.7l5.9,4.4l-2.2,2.9L410,299.6Z" class="g1"/>
<path d="M423.9,305.2l5.9,4.2l-2.1,3l-5.9,-4.2Z" class="g1"/>
<path d="M435.7,313.8l5.9,4.1l-2.2,3l-5.8,-4.1Z" class="g1"/>
<path d="M447.4,322.3l5.9,4.2l-2.1,3l-5.9,-4.2Z" class="g1"/>
<path d="M459.2,330.9l5.6,4.2l-2.1,2.9L457,333.9Z" class="g1"/>
<path d="M471,339.3l5.6,4.4l-2.2,2.9l-5.7,-4.4Z" class="g1"/>
<path d="M482.5,347.8l5.8,4.4l-2.2,3l-5.8,-4.4Z" class="g1"/>
<path d="M494.2,356.4l5.9,4.1l-2.2,3l-5.8,-4.1Z" class="g1"/>
<path d="M505.9,364.9l5.9,4.2l-2.1,3l-5.9,-4.2Z" class="g1"/>
<path d="M517.7,373.5l5.9,4.2l-2.2,3l-5.8,-4.2Z" class="g1"/>
<path d="M529.5,381.9l5.8,4.4l-2.2,2.9l-5.8,-4.4Z" class="g1"/>
<path d="M541.2,390.4l5.9,4.4l-2.2,3L539,393.4Z" class="g1"/>
<path d="M553,399l5.6,4.4l-2.2,2.9l-5.7,-4.4Z" class="g1"/>
<path d="M564.7,407.5l5.6,4.2l-2.2,3l-5.6,-4.2Z" class="g1"/>
<path d="M576.2,416.1l5.9,4.2l-2.2,2.9l-5.8,-4.1Z" class="g1"/>
<path d="M587.9,424.7l5.9,4.1l-2.1,3l-5.9,-4.1Z" class="g1"/>
<path d="M599.7,433l5.9,4.4l-2.2,3l-5.9,-4.5Z" class="g1"/>
<path d="M611.5,441.6l5.8,4.4l-2.2,2.9l-5.8,-4.4Z" class="g1"/>
<path d="M623.2,450.1l5.8,4.2l-2.1,3l-5.8,-4.2Z" class="g1"/>
<path d="M634.9,458.7l5.9,4.1l-2.1,3l-5.9,-4.1Z" class="g1"/>
<path d="M646.7,467.2l5.8,4.2l-2.1,3l-5.8,-4.2Z" class="g1"/>
<path d="M658.5,475.8l5.6,4.2l-2.2,3l-5.6,-4.2Z" class="g1"/>
<path d="M670,484.2l5.8,4.4l-2.2,2.9l-5.8,-4.4Z" class="g1"/>
<path d="M681.7,492.7l5.9,4.4l-2.2,3l-5.9,-4.4Z" class="g1"/>
<path d="M693.4,501.3l5.9,4.1l-2.1,3l-5.9,-4.1Z" class="g1"/>
<path d="M705.2,509.8L711,514l-2.1,3l-5.8,-4.2Z" class="g1"/>
<path d="M716.9,518.4l5.9,4.2l-2.1,3l-5.9,-4.2Z" class="g1"/>
<path d="M728.7,526.8l5.9,4.4l-2.2,2.9l-5.9,-4.4Z" class="g1"/>
<path d="M740.5,535.3l5.8,4.4l-2.2,3l-5.8,-4.4Z" class="g1"/>
<path d="M751.9,543.9l5.9,4.1l-2.1,3l-5.9,-4.1Z" class="g1"/>
<path d="M763.7,552.4l5.9,4.2l-2.2,3l-5.8,-4.2Z" class="g1"/>
<path d="M775.4,561l5.9,4.2l-2.1,3L773.3,564Z" class="g1"/>
<path d="M787.2,569.6l5.8,4.1l-2.1,3l-5.8,-4.1Z" class="g1"/>
<path d="M799,577.9l5.8,4.4l-2.2,3l-5.8,-4.4Z" class="g1"/>
<path d="M810.7,586.5l5.9,4.4l-2.2,2.9l-5.9,-4.4Z" class="g1"/>
<path d="M822.4,595l5.9,4.2l-2.1,3L820.3,598Z" class="g1"/>
<path d="M834.2,603.6l5.8,4.2l-2.1,2.9L832,606.6Z" class="g1"/>
<path d="M845.7,612.2l5.9,4.1l-2.2,3l-5.8,-4.1Z" class="g1"/>
<path fill-rule="evenodd" d="M300.5,209.5c5.9,0,10.3,4.4,10.3,10.3c0,5.9,-4.4,10.5,-10.3,10.5c-5.9,0,-10.5,-4.6,-10.5,-10.5c0,-5.9,4.6,-10.3,10.5,-10.3Z" class="g2"/>
<path d="M300.5,209.5v-1.8c3.4,0,6.4,1.3,8.6,3.5c2.2,2.1,3.5,5.2,3.5,8.6c0,3.4,-1.3,6.5,-3.5,8.8c-2.1,2.2,-5.2,3.6,-8.6,3.6c-3.4,0,-6.6,-1.4,-8.8,-3.6c-2.2,-2.3,-3.6,-5.4,-3.6,-8.8c0,-3.4,1.4,-6.5,3.6,-8.7c2.3,-2.1,5.4,-3.4,8.8,-3.4v3.7c-2.5,0,-4.7,.9,-6.2,2.4c-1.6,1.5,-2.5,3.6,-2.5,6c0,4.9,3.8,8.7,8.7,8.7c2.4,0,4.5,-1,6,-2.5c1.5,-1.6,2.4,-3.7,2.4,-6.2c0,-2.5,-.9,-4.5,-2.4,-6c-1.5,-1.5,-3.5,-2.4,-6,-2.4Z" class="g0"/>
<path fill-rule="evenodd" d="M619.7,438.4c5.8,0,10.2,4.6,10.2,10.5c0,5.9,-4.4,10.3,-10.2,10.3c-6.2,0,-10.6,-4.4,-10.6,-10.3c0,-5.9,4.4,-10.5,10.6,-10.5Z" class="g2"/>
<path d="M619.7,438.4v-1.8c3.4,0,6.5,1.3,8.6,3.6c2.2,2.2,3.5,5.3,3.5,8.7c0,3.4,-1.3,6.5,-3.5,8.7c-2.2,2.1,-5.2,3.4,-8.6,3.4c-3.5,0,-6.7,-1.2,-8.9,-3.4c-2.2,-2.2,-3.5,-5.3,-3.5,-8.7c0,-3.4,1.3,-6.5,3.5,-8.7c2.2,-2.3,5.3,-3.6,8.9,-3.6v3.6c-2.6,0,-4.8,1,-6.3,2.5c-1.5,1.6,-2.4,3.7,-2.4,6.2c0,2.5,.9,4.6,2.4,6.1c1.5,1.4,3.6,2.4,6.3,2.4c2.4,0,4.5,-.9,6,-2.4c1.5,-1.5,2.4,-3.6,2.4,-6.1c0,-2.5,-.9,-4.6,-2.4,-6.2c-1.5,-1.5,-3.6,-2.5,-6,-2.5Z" class="g0"/>
<path d="M62,585.6l4.7,-1.3l.6,2.4l-4.7,1.2Z" class="g3"/>
<path d="M71.4,583.1l4.6,-1l.5,2.4l-4.6,1Z" class="g3"/>
<path d="M80.6,580.9l4.7,-1.2l.6,2.3l-4.7,1.2Z" class="g3"/>
<path d="M89.9,578.7l4.7,-1.2l.6,2.3L90.5,581Z" class="g3"/>
<path d="M99.3,576.2l4.6,-.9l.5,2.3l-4.6,1Z" class="g3"/>
<path d="M108.5,574.1l4.7,-1.3l.6,2.4l-4.7,1.2Z" class="g3"/>
<path d="M117.8,571.9l4.4,-1.3l.6,2.4l-4.4,1.2Z" class="g3"/>
<path d="M126.9,569.4l4.7,-1l.5,2.4l-4.7,1Z" class="g3"/>
<path d="M136.2,567.2l4.6,-1.2l.6,2.3l-4.6,1.2Z" class="g3"/>
<path d="M145.5,565l4.6,-1.2l.6,2.3l-4.6,1.2Z" class="g3"/>
<path d="M154.8,562.5l4.7,-.9l.5,2.3l-4.7,1Z" class="g3"/>
<path d="M164.1,560.3l4.6,-1.2l.6,2.4l-4.6,1.2Z" class="g3"/>
<path d="M173.4,558.1l4.6,-1.2l.6,2.4l-4.6,1.2Z" class="g3"/>
<path d="M182.7,555.7l4.7,-1l.5,2.4l-4.7,1Z" class="g3"/>
<path d="M192,553.5l4.6,-1.2l.6,2.3l-4.6,1.2Z" class="g3"/>
<path d="M201.3,551.3l4.6,-1.2l.6,2.3l-4.6,1.2Z" class="g3"/>
<path d="M210.6,548.8l4.7,-1l.5,2.4l-4.7,1Z" class="g3"/>
<path d="M219.9,546.6l4.6,-1.2l.6,2.4l-4.6,1.2Z" class="g3"/>
<path d="M229.2,544.4l4.6,-1.2l.7,2.4l-4.7,1.2Z" class="g3"/>
<path d="M238.5,542l4.7,-1l.5,2.4l-4.7,.9Z" class="g3"/>
<path d="M247.8,539.8l4.7,-1l.5,2.4l-4.7,.9Z" class="g3"/>
<path d="M257.1,537.6l4.6,-1.2l.7,2.3l-4.7,1.2Z" class="g3"/>
<path d="M266.4,535.1l4.7,-1l.5,2.4l-4.7,1Z" class="g3"/>
<path d="M275.7,532.9l4.6,-1.2l.7,2.3l-4.7,1.3Z" class="g3"/>
<path d="M285,530.7l4.6,-1.2l.7,2.3l-4.7,1.3Z" class="g3"/>
<path d="M294.3,528.5l4.6,-1.2l.7,2.3l-4.7,1.3Z" class="g3"/>
<path d="M303.6,526.1l4.6,-1.2l.7,2.3l-4.7,1.2Z" class="g3"/>
<path d="M312.9,523.9l4.6,-1.2l.7,2.3l-4.7,1.2Z" class="g3"/>
<path d="M322.2,521.7l4.6,-1.3l.7,2.4l-4.7,1.2Z" class="g3"/>
<path d="M331.6,519.2l4.6,-1l.5,2.4l-4.6,1Z" class="g3"/>
<path d="M340.8,517l4.7,-1.2l.6,2.3l-4.7,1.3Z" class="g3"/>
<path d="M350.1,514.6l4.5,-1l.5,2.3l-4.4,1Z" class="g3"/>
<path d="M359.2,512.4l4.7,-1l.5,2.3l-4.7,1Z" class="g3"/>
<path d="M368.5,510.2l4.6,-1.3l.6,2.4l-4.6,1.2Z" class="g3"/>
<path d="M377.8,508l4.6,-1.3l.6,2.4l-4.6,1.2Z" class="g3"/>
<path d="M387.1,505.5l4.6,-1.2l.6,2.3l-4.6,1.3Z" class="g3"/>
<path d="M396.4,503.3l4.6,-1.2l.6,2.3l-4.6,1.3Z" class="g3"/>
<path d="M405.7,501.1l4.6,-1.2l.6,2.3l-4.6,1.3Z" class="g3"/>
<path d="M415,498.6l4.7,-.9l.5,2.3l-4.7,1Z" class="g3"/>
<path d="M424.3,496.5l4.6,-1.3l.6,2.4l-4.6,1.2Z" class="g3"/>
<path d="M433.6,494.3l4.6,-1.3l.6,2.4l-4.6,1.2Z" class="g3"/>
<path d="M442.9,491.8l4.7,-1l.5,2.4l-4.7,1Z" class="g3"/>
<path d="M452.2,489.6l4.6,-1.2l.6,2.3l-4.6,1.2Z" class="g3"/>
<path d="M461.5,487.4l4.6,-1.2l.6,2.3l-4.6,1.2Z" class="g3"/>
<path d="M470.8,484.9l4.7,-.9l.5,2.3l-4.7,1Z" class="g3"/>
<path d="M480.1,482.8l4.6,-1.3l.6,2.4l-4.6,1.2Z" class="g3"/>
<path d="M489.4,480.5l4.6,-1.2l.6,2.4l-4.6,1.2Z" class="g3"/>
<path d="M498.7,478.1l4.7,-1l.5,2.4l-4.7,1Z" class="g3"/>
<path d="M508,475.9l4.6,-1.2l.7,2.3l-4.7,1.2Z" class="g3"/>
<path d="M517.3,473.7l4.6,-1.2l.7,2.3l-4.7,1.2Z" class="g3"/>
<path d="M526.6,471.2l4.7,-.9l.5,2.3l-4.7,1Z" class="g3"/>
<path d="M535.9,469l4.6,-1.2l.7,2.4l-4.7,1.2Z" class="g3"/>
<path d="M545.2,466.8l4.6,-1.2l.7,2.4l-4.7,1.2Z" class="g3"/>
<path d="M554.5,464.6l4.6,-1.2l.7,2.4l-4.7,1.2Z" class="g3"/>
<path d="M563.8,462.2l4.6,-1.2l.7,2.3l-4.7,1.2Z" class="g3"/>
<path d="M573.1,460l4.6,-1.2l.7,2.3l-4.7,1.2Z" class="g3"/>
<path d="M582.4,457.5l4.4,-1l.6,2.4l-4.4,1Z" class="g3"/>
<path d="M591.5,455.3l4.7,-1l.5,2.4l-4.7,1Z" class="g3"/>
<path d="M600.8,453.1l4.6,-1.2l.6,2.4l-4.6,1.2Z" class="g3"/>
<path d="M213.3,548.3L332,519.2l.6,2.4L213.9,550.7Z" class="g3"/>
<path fill-rule="evenodd" d="M366.3,512.1l-38.4,-3.2l5.6,23.7Z" class="g3"/>
<path d="M212.4,549.2l1.2,-4.6l2.4,.6l-1.2,4.6Z" class="g4"/>
<path d="M214.9,539.9l1.2,-4.6l2.3,.6l-1.2,4.6Z" class="g4"/>
<path d="M217.3,530.6l1.2,-4.6l2.4,.6l-1.3,4.6Z" class="g4"/>
<path d="M219.8,521.3l1.2,-4.6l2.3,.6l-1.2,4.6Z" class="g4"/>
<path d="M222.2,512l1.2,-4.4l2.4,.6l-1.3,4.4Z" class="g4"/>
<path d="M224.6,503l1,-4.6l2.4,.5l-1,4.6Z" class="g4"/>
<path d="M227.1,493.7l1,-4.6l2.3,.5l-.9,4.6Z" class="g4"/>
<path d="M229.3,484.3l1.2,-4.6l2.4,.6l-1.3,4.7Z" class="g4"/>
<path d="M231.7,475l1.3,-4.6l2.3,.6l-1.2,4.7Z" class="g4"/>
<path d="M234.2,465.7l1.2,-4.6l2.4,.6l-1.3,4.7Z" class="g4"/>
<path d="M236.6,456.7l1.3,-4.7l2.3,.7l-1.2,4.6Z" class="g4"/>
<path d="M239.1,447.4l1.2,-4.7l2.4,.7l-1.3,4.6Z" class="g4"/>
<path d="M241.5,438.1l1.3,-4.7l2.3,.7l-1.2,4.6Z" class="g4"/>
<path d="M244,428.8l1.2,-4.7l2.4,.7l-1.3,4.6Z" class="g4"/>
<path d="M246.2,419.5l1.2,-4.7l2.4,.6l-1.3,4.7Z" class="g4"/>
<path d="M248.6,410.2l1.3,-4.7l2.3,.6l-1.2,4.7Z" class="g4"/>
<path d="M251.1,400.9l1.2,-4.7l2.4,.6l-1.3,4.7Z" class="g4"/>
<path d="M253.5,391.8l1.3,-4.6l2.3,.6l-1.2,4.6Z" class="g4"/>
<path d="M256,382.5l1.2,-4.6l2.3,.6l-1.2,4.6Z" class="g4"/>
<path d="M258.4,373.2l1.3,-4.6l2.3,.6l-1.2,4.6Z" class="g4"/>
<path d="M260.9,363.9l1.2,-4.6l2.3,.6l-1.2,4.6Z" class="g4"/>
<path d="M263.3,354.7l1,-4.7l2.4,.5l-1,4.7Z" class="g4"/>
<path d="M265.5,345.3l1.3,-4.4l2.3,.6l-1.2,4.4Z" class="g4"/>
<path d="M268,336.3l1.2,-4.7l2.3,.6l-1.2,4.7Z" class="g4"/>
<path d="M270.4,327l1.2,-4.7l2.4,.6l-1.2,4.7Z" class="g4"/>
<path d="M272.9,317.7l1.2,-4.7l2.3,.6l-1.2,4.7Z" class="g4"/>
<path d="M275.3,308.4l1.2,-4.7l2.4,.6l-1.2,4.7Z" class="g4"/>
<path d="M277.8,299l1.2,-4.4l2.3,.7l-1.2,4.4Z" class="g4"/>
<path d="M280.2,290l1.2,-4.7l2.4,.7l-1.2,4.6Z" class="g4"/>
<path d="M282.4,280.7l1.2,-4.7l2.4,.7l-1.2,4.6Z" class="g4"/>
<path d="M284.9,271.4l1.2,-4.7l2.3,.7l-1.2,4.6Z" class="g4"/>
<path d="M287.3,262.1l1.2,-4.7l2.4,.7l-1.2,4.6Z" class="g4"/>
<path d="M289.8,252.8l1.2,-4.7l2.3,.7l-1.2,4.6Z" class="g4"/>
<path d="M292.2,243.7l1.2,-4.6l2.4,.6l-1.3,4.7Z" class="g4"/>
<path d="M294.6,234.5l1,-4.4l2.4,.5l-1,4.4Z" class="g4"/>
<path d="M365.6,512.7L409.2,346.1l2.4,.6L368,513.4Z" class="g4"/>
<path fill-rule="evenodd" d="M419.2,312.3l-21.3,32.6l23.7,6.1Z" class="g4"/>
<path fill-rule="evenodd" d="M420.2,293.5c5.8,0,10.3,4.6,10.3,10.5c0,5.9,-4.5,10.3,-10.3,10.3c-5.9,0,-10.6,-4.4,-10.6,-10.3c0,-5.9,4.7,-10.5,10.6,-10.5Z" class="g5"/>
<path d="M420.2,293.5v-1.8c3.4,-.1,6.5,1.3,8.6,3.6c2.2,2.2,3.5,5.3,3.5,8.7c0,3.4,-1.3,6.5,-3.5,8.7c-2.2,2.1,-5.2,3.4,-8.6,3.4c-3.4,0,-6.5,-1.3,-8.8,-3.4c-2.2,-2.2,-3.6,-5.3,-3.6,-8.7c0,-3.4,1.4,-6.5,3.6,-8.7c2.2,-2.3,5.3,-3.7,8.8,-3.6v3.6c-4.9,0,-8.7,3.8,-8.7,8.7c0,2.5,.9,4.5,2.5,6c1.5,1.5,3.7,2.5,6.2,2.5c2.5,0,4.5,-1,6,-2.4c1.5,-1.5,2.4,-3.6,2.4,-6.1c0,-2.5,-.9,-4.6,-2.4,-6.2c-1.5,-1.5,-3.6,-2.5,-6,-2.5Z" class="g0"/>
<path d="M213.9,550.7l-97.7,24l-.6,-2.4l97.7,-24Z" class="g3"/>
<path fill-rule="evenodd" d="M81.9,581.8l38.4,3l-5.9,-23.5Z" class="g3"/>
<path d="M80.7,582.3l106,-406.9l2.4,.7L83.1,582.9Z" class="g4"/>
<path fill-rule="evenodd" d="M196.7,142l-21.1,32.5l23.8,5.9Z" class="g4"/>
<path fill-rule="evenodd" d="M196,130.2c5.8,0,10.5,4.4,10.5,10.3c0,5.9,-4.7,10.5,-10.5,10.5c-5.9,0,-10.3,-4.6,-10.3,-10.5c0,-5.9,4.4,-10.3,10.3,-10.3Z" class="g5"/>
<path d="M196,130.2v-1.8c3.4,0,6.5,1.3,8.7,3.4c2.2,2.2,3.6,5.3,3.6,8.7c0,3.4,-1.3,6.5,-3.6,8.8c-2.2,2.2,-5.3,3.6,-8.7,3.6c-3.5,0,-6.5,-1.4,-8.7,-3.7c-2.2,-2.2,-3.5,-5.3,-3.5,-8.7c0,-3.4,1.3,-6.5,3.5,-8.6c2.2,-2.2,5.3,-3.5,8.7,-3.5v3.7c-2.5,0,-4.6,.9,-6.1,2.4c-1.5,1.4,-2.4,3.5,-2.4,6c0,2.5,.9,4.6,2.4,6.2c1.5,1.5,3.6,2.5,6.1,2.5c4.8,0,8.6,-3.8,8.6,-8.7c0,-2.4,-.9,-4.5,-2.5,-6c-1.5,-1.5,-3.7,-2.4,-6.1,-2.4Z" class="g0"/>
<path d="M243,17.5c.4,-.4,.6,-.9,.6,-1.5c0,-.5,-.2,-.9,-.5,-1.1c-.3,-.3,-.7,-.5,-1.2,-.5c-.7,0,-1.3,.3,-1.8,.9c-.5,.5,-.7,1.1,-.7,1.8c0,.6,.2,1.2,.6,1.7c.4,.4,1,.7,1.6,.9c.7,.3,1.3,.4,1.9,.4c1,0,1.8,-.4,2.6,-1c.8,-.6,1.4,-1.3,1.9,-2.2c.3,1,1,1.8,1.8,2.3c.9,.6,1.8,.9,2.9,.9c1.7,0,3.2,-.7,4.5,-2c1.3,-1.3,2.2,-2.8,2.6,-4.5v-.1l-.1,-.3l-.3,-.1h-.5l-.3,.2c-.4,1.4,-1.1,2.7,-2.2,3.9c-1,1.1,-2.3,1.7,-3.6,1.7c-.7,0,-1.3,-.2,-1.7,-.8c-.4,-.5,-.6,-1.1,-.6,-1.8c0,-.7,.1,-1.7,.5,-2.8L252.9,6c.3,-1,.7,-1.9,1.4,-2.8C255,2.4,255.8,2,256.8,2c.9,0,1.6,.2,2.1,.6c-.5,0,-1.1,.3,-1.5,.8c-.4,.4,-.6,.9,-.6,1.5c0,.5,.2,.8,.5,1.1c.3,.3,.7,.4,1.1,.4c.8,0,1.4,-.2,1.9,-.7c.5,-.5,.7,-1.2,.7,-1.9c0,-.6,-.2,-1.2,-.6,-1.6c-.4,-.5,-1,-.8,-1.6,-1C258.1,1,257.5,.9,256.9,.9c-1,0,-1.8,.3,-2.6,.9c-.8,.6,-1.4,1.3,-1.9,2.2c-.4,-1,-1,-1.8,-1.8,-2.3c-.9,-.6,-1.8,-.8,-2.9,-.8c-1.1,0,-2.2,.3,-3.2,.9c-.9,.6,-1.8,1.4,-2.5,2.4c-.6,1,-1.1,2,-1.4,3.1v.1c0,.3,.1,.4,.3,.4h.6l.3,-.3c.2,-.8,.6,-1.7,1.2,-2.6c.5,-.8,1.2,-1.5,2,-2.1c.8,-.6,1.7,-.8,2.6,-.8c.7,0,1.3,.2,1.7,.7c.4,.6,.6,1.2,.6,1.9c0,.5,-.1,1.4,-.5,2.8l-1.9,7.5c-.3,1,-.8,1.9,-1.5,2.8c-.7,.8,-1.5,1.2,-2.4,1.2c-.9,0,-1.6,-.2,-2.1,-.6c.6,-.1,1.1,-.3,1.5,-.8Z" class="g0"/>
<path d="M277.1,25.5l1,-5.6h-1.2c-.1,.7,-.2,1.3,-.3,1.8c-.2,.5,-.3,.8,-.5,1c0,0,-.4,.1,-1,.1c-.7,0,-1.4,0,-2.2,0c-.9,0,-1.7,0,-2.5,0h-2.8l3.8,-3.1c.3,-.2,1,-.8,2,-1.6c1.1,-.7,1.9,-1.4,2.5,-2c.6,-.6,1.1,-1.3,1.5,-2c.5,-.8,.7,-1.6,.7,-2.5c0,-1.2,-.4,-2.2,-1.1,-3.1c-.7,-.9,-1.6,-1.6,-2.7,-2c-1.1,-.5,-2.2,-.7,-3.5,-.7c-1,0,-2,.2,-3,.6c-1,.5,-1.8,1.1,-2.4,1.9c-.6,.8,-.9,1.8,-.9,2.8c0,.5,.1,.9,.5,1.2c.3,.3,.7,.4,1.2,.4c.5,0,.9,-.1,1.2,-.4c.3,-.3,.5,-.7,.5,-1.2c0,-.4,-.2,-.8,-.5,-1.1c-.3,-.4,-.7,-.5,-1.2,-.5h-.1c.4,-.8,.9,-1.4,1.7,-1.9c.7,-.4,1.6,-.6,2.5,-.6c.7,0,1.3,.1,1.9,.3c.5,.2,1,.6,1.4,1c.5,.4,.8,.9,1,1.5c.2,.6,.4,1.2,.4,1.8c0,1.2,-.4,2.3,-1.1,3.3c-.6,1,-1.6,2.1,-2.8,3.3c-.2,.2,-.4,.4,-.5,.5l-.5,.5l-5.5,5.2l-.1,.2v.9Z" class="g0"/>
<path d="M853,515.6c.4,-.4,.6,-.9,.6,-1.5c0,-.5,-.2,-.8,-.5,-1.1c-.3,-.3,-.7,-.4,-1.2,-.4c-.7,0,-1.3,.2,-1.8,.8c-.5,.5,-.7,1.1,-.7,1.8c0,.7,.2,1.2,.6,1.7c.4,.4,.9,.7,1.6,1c.7,.2,1.3,.3,1.9,.3c.9,0,1.8,-.3,2.6,-1c.8,-.6,1.4,-1.3,1.9,-2.1c.3,.9,.9,1.7,1.8,2.2c.9,.6,1.8,.9,2.9,.9c1.6,0,3.1,-.7,4.5,-2c1.3,-1.3,2.1,-2.8,2.6,-4.5v-.1l-.1,-.3l-.3,-.1h-.5l-.4,.3c-.3,1.4,-1,2.6,-2.1,3.8c-1.1,1.2,-2.3,1.7,-3.6,1.7c-.7,0,-1.3,-.2,-1.7,-.7c-.4,-.6,-.6,-1.2,-.6,-1.9c0,-.7,.1,-1.6,.4,-2.8l2,-7.4c.2,-1.1,.7,-2,1.4,-2.9c.7,-.8,1.5,-1.2,2.4,-1.2c1,0,1.7,.2,2.2,.6c-.6,.1,-1.1,.3,-1.5,.8c-.4,.4,-.6,.9,-.6,1.5c0,.5,.1,.8,.4,1.1c.4,.3,.8,.5,1.2,.5c.8,0,1.4,-.3,1.9,-.8c.4,-.5,.7,-1.1,.7,-1.9c0,-.6,-.2,-1.2,-.6,-1.6c-.5,-.4,-1,-.8,-1.6,-1c-.7,-.2,-1.3,-.3,-2,-.3c-.9,0,-1.7,.3,-2.5,.9c-.8,.6,-1.4,1.3,-1.9,2.2c-.4,-1,-1,-1.7,-1.8,-2.3c-.9,-.5,-1.9,-.8,-2.9,-.8c-1.1,0,-2.2,.3,-3.2,.9c-1,.6,-1.8,1.4,-2.5,2.4c-.7,1,-1.1,2.1,-1.4,3.1v.1c0,.3,.1,.4,.3,.4h.5l.4,-.2c.2,-.9,.6,-1.8,1.2,-2.6c.5,-.9,1.2,-1.6,2,-2.2c.8,-.5,1.7,-.8,2.6,-.8c.7,0,1.3,.2,1.7,.8c.4,.5,.6,1.1,.6,1.8c0,.5,-.2,1.4,-.5,2.8l-2,7.5c-.2,1,-.7,1.9,-1.4,2.8c-.7,.8,-1.5,1.2,-2.4,1.2c-.9,0,-1.6,-.2,-2.2,-.5c.7,-.1,1.2,-.4,1.6,-.9Z" class="g0"/>
<path d="M887.1,523.6v-1.2c-2.8,0,-4.2,-.3,-4.2,-.9V504.3l-.4,-.4H882c-.8,.7,-1.7,1.2,-2.8,1.5c-1,.3,-2.2,.4,-3.4,.4V507c1.8,0,3.3,-.3,4.5,-.8v15.3c0,.6,-1.5,.9,-4.3,.9v1.2Z" class="g0"/>
<path d="M645.9,429.3v-1.5c-.2,0,-.5,0,-.8,-.1c-.2,0,-.4,-.1,-.4,-.2l3.1,-3.4l3.2,3.7h-1.2v1.5h7.3v-1.5h-2.3l-5,-5.9l3.8,-4.2c.2,-.2,1.1,-.3,2.9,-.3v-1.5h-6.2v1.5c.2,0,.4,0,.7,.1c.3,0,.5,.1,.5,.2l-2.7,3L646,417.4h1.1v-1.5h-7.3v1.5h2.3l4.7,5.5l-4.2,4.6c-.2,.2,-1.2,.3,-2.9,.3v1.5Z" class="g0"/>
<path d="M668,433.7v-.8c-2,0,-3,-.2,-3,-.6V419.9l-.3,-.3h-.4c-.5,.5,-1.1,.9,-1.9,1.1c-.8,.2,-1.6,.3,-2.4,.3v.8c1.3,0,2.3,-.2,3.1,-.6v11.1c0,.4,-1,.6,-3,.6v.8Z" class="g0"/>
<path d="M317.9,191.9v-1.5c-.2,0,-.5,-.1,-.8,-.1c-.2,-.1,-.4,-.1,-.4,-.2l3.1,-3.4l3.2,3.7h-1.2v1.5h7.3v-1.5h-2.3l-5,-6l3.8,-4.1c.2,-.2,1.1,-.3,2.9,-.3v-1.6h-6.2V180c.2,0,.4,0,.7,0c.3,.1,.5,.1,.5,.2l-2.7,3L318,180h1.1v-1.6h-7.3V180h2.3l4.7,5.4l-4.2,4.7c-.2,.2,-1.2,.3,-2.9,.3v1.5Z" class="g0"/>
<path d="M340,196.3l.7,-3.9h-.9c0,.4,-.1,.9,-.2,1.2c-.1,.3,-.2,.6,-.3,.7c0,0,-.3,.1,-.7,.1c-.5,0,-1,0,-1.6,0c-.6,0,-1.2,0,-1.8,0h-2l2.7,-2.2c.2,-.2,.7,-.6,1.5,-1.1c.7,-.6,1.3,-1.1,1.8,-1.5c.4,-.4,.7,-.9,1,-1.5c.3,-.5,.5,-1.1,.5,-1.7c0,-.9,-.3,-1.7,-.8,-2.3c-.4,-.6,-1.1,-1.1,-1.9,-1.4c-.8,-.4,-1.6,-.5,-2.5,-.5c-.7,0,-1.5,.1,-2.2,.4c-.7,.4,-1.2,.8,-1.7,1.4c-.4,.6,-.6,1.2,-.6,2c0,.3,.1,.6,.3,.8c.3,.3,.6,.4,.9,.4c.3,0,.6,-.1,.9,-.4c.2,-.2,.3,-.5,.3,-.8c0,-.3,-.1,-.6,-.3,-.8c-.3,-.3,-.6,-.4,-.9,-.4h-.1c.3,-.5,.7,-1,1.2,-1.3c.6,-.3,1.2,-.5,1.8,-.5c.5,0,1,.1,1.4,.3c.4,.1,.7,.4,1,.7c.3,.3,.5,.6,.7,1c.2,.5,.3,.9,.3,1.4c0,.8,-.3,1.6,-.8,2.3c-.4,.8,-1.1,1.6,-2,2.4l-.4,.4l-.3,.3l-3.9,3.7l-.1,.2v.6Z" class="g0"/>
<path d="M417.6,439.4h.3l.1,-.1l.1,-.2l-.1,-.2c-3.5,-3.4,-5.3,-8.3,-5.3,-14.7c0,-1.5,.1,-2.8,.3,-4.2c.1,-1.3,.4,-2.6,.9,-3.9c.4,-1.2,.9,-2.4,1.6,-3.5c.7,-1.1,1.5,-2.2,2.5,-3.1l.1,-.2l-.1,-.2l-.1,-.1h-.3l-.2,.1c-1.1,.8,-2.1,1.8,-3,3c-.8,1.1,-1.5,2.4,-2,3.7c-.6,1.3,-1,2.7,-1.3,4.1c-.2,1.4,-.4,2.8,-.4,4.3c0,1.4,.2,2.9,.4,4.3c.3,1.4,.7,2.8,1.2,4.1c.6,1.3,1.3,2.5,2.1,3.7c.8,1.1,1.8,2.1,3,3Z" class="g0"/>
<path d="M432.6,431.8v-1.1c-2.6,0,-3.9,-.3,-3.9,-.9v-18l-.1,-.1l-.2,-.1H428c-1.3,1.3,-3.3,1.9,-5.8,1.9v1.1c1.6,0,3,-.3,4.1,-.8v16c0,.6,-1.3,.9,-4,.9v1.1Z" class="g0"/>
<path d="M462.8,424.8l.4,-.2l.2,-.4l-.2,-.4l-.4,-.2H445.1l-.4,.2l-.2,.4l.2,.4l.4,.2Z" class="g0"/>
<path d="M482.7,431.4c1.2,-.4,2.2,-1,3.2,-1.9c.2,.8,.5,1.4,1,1.9c.5,.5,1.1,.7,1.9,.7c.5,0,1.1,-.2,1.7,-.7c.6,-.5,.9,-.9,.9,-1.4l-.3,-.3h-.3c-.1,0,-.2,.1,-.4,.5c-.2,.3,-.4,.6,-.6,.8c-.3,.2,-.6,.3,-1,.3c-.6,0,-.9,-1.2,-.9,-3.7c.6,-.7,1.1,-1.4,1.6,-2.2c.5,-.8,.9,-1.6,1.3,-2.5c.4,-.9,.7,-1.7,.9,-2.7v-.1l-.3,-.2h-.3l-.3,.1c-.2,1.1,-.6,2.2,-1.1,3.2c-.5,1.1,-1.1,2.1,-1.8,3v-2c0,-1,-.2,-2,-.6,-2.9c-.5,-.9,-1.1,-1.6,-1.9,-2.1c-.8,-.6,-1.7,-.8,-2.7,-.8c-1.5,0,-2.8,.4,-4.1,1.2c-1.3,.9,-2.4,2,-3.1,3.3c-.8,1.4,-1.2,2.7,-1.2,4.1c0,1,.2,1.8,.6,2.6c.4,.8,1,1.4,1.8,1.8c.7,.5,1.6,.7,2.6,.7c1.1,0,2.3,-.2,3.4,-.7m-5.3,-1c-.5,-.6,-.7,-1.4,-.7,-2.2c0,-1.2,.2,-2.5,.7,-3.9c.4,-1.4,1.1,-2.6,2,-3.6c.9,-1,2,-1.5,3.2,-1.5c2,0,3.1,1.8,3.1,5.5v3.9c-2,1.8,-4.1,2.7,-6.3,2.7c-.9,0,-1.6,-.3,-2,-.9Z" class="g0"/>
<path d="M503.5,435.9v-.8c-2,0,-3,-.2,-3,-.6V422.1l-.3,-.3h-.4c-.5,.5,-1.1,.9,-1.9,1.1c-.8,.2,-1.6,.3,-2.4,.3v.8c1.3,0,2.3,-.2,3.1,-.6v11.1c0,.4,-1,.6,-3,.6v.8Z" class="g0"/>
<path d="M509.2,439.4l.1,-.1c1.2,-.9,2.2,-1.9,3,-3c.8,-1.2,1.5,-2.4,2.1,-3.8c.5,-1.3,.9,-2.7,1.2,-4.1c.2,-1.4,.3,-2.8,.3,-4.2c0,-1.9,-.2,-3.8,-.6,-5.7c-.5,-1.9,-1.2,-3.6,-2.2,-5.2c-1,-1.7,-2.3,-3.1,-3.8,-4.2l-.1,-.1h-.3l-.2,.1l-.1,.2l.1,.2c3.5,3.4,5.3,8.3,5.3,14.7c0,6.4,-1.8,11.3,-5.4,14.7v.2l.3,.3Z" class="g0"/>
<path d="M525.5,431.8v-1.6c-.2,0,-.5,0,-.8,0c-.3,-.1,-.4,-.1,-.4,-.2l3.1,-3.5l3.2,3.7h-1.2v1.6h7.3v-1.6h-2.3l-5,-5.9l3.8,-4.2c.1,-.2,1.1,-.2,2.9,-.2v-1.6h-6.2v1.6c.2,0,.4,0,.7,0c.3,.1,.4,.1,.4,.2l-2.6,3l-2.8,-3.2h1.1v-1.6h-7.3v1.6h2.3l4.6,5.4l-4.1,4.7c-.2,.2,-1.2,.2,-2.9,.2v1.6Z" class="g0"/>
<path d="M547.6,435.9l.6,-3.9h-.8c-.1,.5,-.1,.9,-.2,1.2c-.1,.4,-.2,.6,-.3,.7c-.1,.1,-.3,.1,-.8,.1c-.4,0,-1,0,-1.6,.1c-.6,0,-1.1,0,-1.7,0h-2l2.7,-2.3c.2,-.2,.7,-.5,1.4,-1.1c.8,-.6,1.4,-1.1,1.8,-1.5c.5,-.4,.8,-.9,1.1,-1.4c.3,-.6,.4,-1.2,.4,-1.8c0,-.9,-.2,-1.6,-.7,-2.3c-.5,-.6,-1.1,-1.1,-1.9,-1.4c-.8,-.3,-1.6,-.5,-2.5,-.5c-.8,0,-1.5,.2,-2.2,.5c-.7,.3,-1.3,.7,-1.7,1.3c-.4,.6,-.6,1.3,-.6,2c0,.4,.1,.6,.3,.9c.2,.2,.5,.3,.9,.3c.3,0,.6,-.1,.8,-.3c.3,-.3,.4,-.5,.4,-.9c0,-.3,-.1,-.6,-.4,-.8c-.2,-.2,-.5,-.3,-.8,-.3h-.1c.3,-.6,.7,-1,1.2,-1.4c.6,-.3,1.2,-.4,1.8,-.4c.5,0,.9,0,1.3,.2c.4,.2,.8,.4,1.1,.7c.3,.3,.5,.7,.7,1.1c.1,.4,.2,.8,.2,1.3c0,.9,-.2,1.7,-.7,2.4c-.5,.7,-1.1,1.5,-2,2.3l-.4,.4l-.3,.4l-4,3.7v.7Z" class="g0"/>
<path d="M296.2,494.6c1.1,-.5,2.1,-1.1,3.1,-1.9c.2,.8,.5,1.4,1,1.9c.5,.4,1.1,.7,1.9,.7c.5,0,1.1,-.3,1.7,-.7c.6,-.5,.9,-1,.9,-1.5l-.3,-.3h-.3c-.1,0,-.2,.2,-.4,.5c-.2,.3,-.4,.6,-.6,.8c-.3,.3,-.6,.4,-1,.4c-.6,0,-.9,-1.3,-.9,-3.8c.6,-.6,1.1,-1.4,1.6,-2.2c.5,-.8,.9,-1.6,1.3,-2.5c.4,-.8,.7,-1.7,.9,-2.6v-.1l-.3,-.3h-.3l-.3,.2c-.2,1.1,-.6,2.2,-1.1,3.2c-.5,1,-1.1,2,-1.8,3v-2.1c0,-1,-.2,-1.9,-.6,-2.8c-.4,-.9,-1,-1.6,-1.8,-2.2c-.8,-.5,-1.7,-.8,-2.8,-.8c-1.4,0,-2.8,.4,-4.1,1.3c-1.3,.8,-2.3,1.9,-3.1,3.3c-.7,1.3,-1.1,2.7,-1.1,4c0,1,.2,1.9,.6,2.7c.4,.7,1,1.3,1.7,1.8c.8,.5,1.7,.7,2.6,.7c1.2,0,2.3,-.2,3.5,-.7m-5.4,-1.1c-.4,-.6,-.7,-1.3,-.7,-2.2c0,-1.2,.3,-2.4,.7,-3.8c.5,-1.5,1.2,-2.7,2.1,-3.7c.9,-1,1.9,-1.5,3.2,-1.5c2,0,3,1.8,3,5.5v3.6l.1,.4c-2.1,1.8,-4.2,2.7,-6.4,2.7c-.8,0,-1.5,-.3,-2,-1Z" class="g0"/>
<path d="M316.5,499.1v-.9c-2,0,-3,-.2,-3,-.6V485.2l-.3,-.2h-.4c-.5,.5,-1.1,.8,-1.9,1c-.8,.2,-1.6,.3,-2.4,.3v.9c1.3,0,2.3,-.2,3.1,-.6v11c0,.4,-1,.6,-3,.6v.9Z" class="g0"/>
<path d="M327.2,494.9v-1.5c-.2,0,-.5,0,-.8,-.1c-.3,0,-.4,-.1,-.4,-.2l3.1,-3.4l3.1,3.7h-1.1v1.5h7.3v-1.5h-2.3l-5,-5.9l3.7,-4.2c.2,-.2,1.2,-.3,2.9,-.3v-1.5h-6.1V483c.2,0,.4,0,.7,.1c.3,0,.4,.1,.4,.2l-2.7,3L327.3,483h1.1v-1.5h-7.3V483h2.3l4.6,5.5l-4.1,4.6c-.2,.2,-1.2,.3,-2.9,.3v1.5Z" class="g0"/>
<path d="M349.3,499.1v-.9c-2,0,-3,-.2,-3,-.6V485.2L346,485h-.4c-.5,.5,-1.1,.8,-1.9,1c-.8,.2,-1.6,.3,-2.4,.3v.9c1.3,0,2.3,-.2,3.1,-.6v11c0,.4,-1,.6,-3,.6v.9Z" class="g0"/>
<path d="M116.7,534.7c1.2,-.4,2.2,-1,3.2,-1.9c.2,.8,.5,1.4,1,1.9c.5,.5,1.1,.7,1.8,.7c.6,0,1.2,-.2,1.8,-.7c.6,-.5,.9,-.9,.9,-1.5l-.3,-.3h-.4c0,.1,-.1,.2,-.3,.6c-.2,.3,-.4,.6,-.7,.8c-.2,.2,-.5,.3,-.9,.3c-.6,0,-.9,-1.2,-.9,-3.8c.6,-.6,1.1,-1.3,1.6,-2.1c.5,-.8,.9,-1.7,1.3,-2.5c.3,-.9,.6,-1.8,.9,-2.7v-.1l-.3,-.2h-.3l-.3,.1c-.2,1.1,-.6,2.2,-1.1,3.2c-.5,1.1,-1.1,2.1,-1.8,3v-2c0,-1,-.2,-2,-.6,-2.9c-.5,-.9,-1.1,-1.6,-1.9,-2.1c-.7,-.6,-1.7,-.8,-2.7,-.8c-1.4,0,-2.8,.4,-4.1,1.2c-1.3,.9,-2.3,2,-3.1,3.3c-.8,1.3,-1.2,2.7,-1.2,4.1c0,1,.2,1.8,.7,2.6c.4,.8,1,1.4,1.7,1.8c.8,.5,1.7,.7,2.6,.7c1.2,0,2.3,-.2,3.4,-.7m-5.3,-1c-.4,-.6,-.7,-1.4,-.7,-2.2c0,-1.2,.3,-2.5,.7,-3.9c.5,-1.4,1.2,-2.6,2.1,-3.6c.9,-1,1.9,-1.5,3.1,-1.5c2.1,0,3.1,1.8,3.1,5.4v4c-2,1.8,-4.1,2.7,-6.3,2.7c-.9,0,-1.5,-.3,-2,-.9Z" class="g0"/>
<path d="M137.1,539.5l.7,-4h-.9c-.1,.5,-.1,.9,-.2,1.3c-.1,.3,-.2,.5,-.3,.7c-.1,0,-.3,0,-.8,.1c-.4,0,-.9,0,-1.6,0c-.6,0,-1.1,0,-1.7,0h-2l2.7,-2.2c.2,-.2,.7,-.6,1.5,-1.2c.7,-.5,1.3,-1,1.7,-1.5c.5,-.4,.8,-.8,1.1,-1.4c.3,-.5,.5,-1.1,.5,-1.8c0,-.8,-.3,-1.6,-.8,-2.2c-.5,-.7,-1.1,-1.1,-1.9,-1.5c-.8,-.3,-1.6,-.5,-2.5,-.5c-.8,0,-1.5,.2,-2.2,.5c-.7,.3,-1.2,.8,-1.7,1.4c-.4,.5,-.6,1.2,-.6,2c0,.3,.1,.6,.3,.8c.3,.2,.5,.3,.9,.3c.3,0,.6,-.1,.8,-.3c.3,-.2,.4,-.5,.4,-.8c0,-.4,-.1,-.6,-.4,-.9c-.2,-.2,-.5,-.3,-.8,-.3h-.1c.3,-.6,.7,-1,1.2,-1.3c.6,-.3,1.2,-.5,1.8,-.5c.5,0,.9,.1,1.3,.2c.5,.2,.8,.4,1.1,.7c.3,.3,.5,.7,.7,1.1c.2,.4,.2,.9,.2,1.3c0,.9,-.2,1.7,-.7,2.4c-.5,.7,-1.1,1.5,-2,2.4l-.4,.3l-.3,.4l-3.9,3.7l-.1,.2v.6Z" class="g0"/>
<path d="M148,535.1v-1.6c-.2,0,-.5,0,-.7,0c-.3,-.1,-.5,-.1,-.5,-.2l3.1,-3.5l3.2,3.7h-1.2v1.6h7.3v-1.6h-2.3l-5,-5.9l3.8,-4.2c.1,-.2,1.1,-.2,2.9,-.2v-1.6h-6.2v1.6c.2,0,.4,0,.7,0c.3,0,.5,.1,.5,.2l-2.7,3l-2.8,-3.2h1.1v-1.6H142v1.6h2.2l4.7,5.4l-4.2,4.7c-.2,.1,-1.1,.2,-2.9,.2v1.6Z" class="g0"/>
<path d="M170.1,539.5v-.9c-2,0,-3,-.2,-3,-.6V525.6l-.2,-.3h-.4c-.6,.5,-1.2,.9,-2,1.1c-.7,.2,-1.6,.3,-2.4,.3v.9c1.3,0,2.3,-.2,3.2,-.6v11c0,.4,-1.1,.6,-3.1,.6v.9Z" class="g0"/>
<path d="M6.8,303.5h.3l.2,-.1l.1,-.1L7.3,303C3.7,299.7,1.9,294.8,1.9,288.3c0,-1.4,.1,-2.8,.3,-4.1c.2,-1.4,.5,-2.7,.9,-3.9c.4,-1.3,1,-2.5,1.7,-3.6c.6,-1.1,1.5,-2.1,2.5,-3.1l.1,-.2l-.1,-.1l-.2,-.1H6.7c-1.2,.9,-2.1,1.9,-3,3c-.8,1.2,-1.5,2.4,-2.1,3.7c-.5,1.3,-.9,2.7,-1.2,4.1c-.3,1.5,-.4,2.9,-.4,4.3c0,1.5,.1,2.9,.4,4.3c.3,1.5,.7,2.8,1.2,4.1c.5,1.3,1.2,2.6,2.1,3.7c.8,1.2,1.8,2.2,3,3.1Z" class="g0"/>
<path d="M21.9,295.9v-1c-2.6,0,-3.9,-.4,-3.9,-1V276l-.1,-.2l-.2,-.1h-.5c-1.3,1.3,-3.2,2,-5.8,2v1c1.7,0,3.1,-.2,4.1,-.7v15.9c0,.6,-1.3,1,-3.9,1v1Z" class="g0"/>
<path d="M52.3,289l.4,-.2l.2,-.5l-.2,-.4l-.4,-.2H34.6l-.4,.2l-.2,.4l.2,.5l.4,.2Z" class="g0"/>
<path d="M72,295.6c1.1,-.5,2.2,-1.1,3.1,-1.9c.2,.8,.6,1.4,1.1,1.9c.5,.4,1.1,.7,1.8,.7c.6,0,1.2,-.3,1.8,-.7c.6,-.5,.9,-1,.9,-1.5l-.3,-.3H80c0,0,-.1,.2,-.3,.5c-.2,.3,-.4,.6,-.7,.8c-.2,.3,-.5,.4,-.9,.4c-.6,0,-.9,-1.3,-.9,-3.8c.6,-.7,1.1,-1.4,1.6,-2.2c.5,-.8,.9,-1.6,1.3,-2.5c.3,-.8,.6,-1.7,.9,-2.6v-.1l-.3,-.3h-.4l-.2,.2c-.3,1.1,-.6,2.2,-1.1,3.2c-.5,1,-1.1,2,-1.8,3v-2.1c0,-1,-.3,-1.9,-.7,-2.8c-.4,-.9,-1,-1.6,-1.8,-2.2c-.8,-.5,-1.7,-.8,-2.8,-.8c-1.4,0,-2.8,.4,-4.1,1.3c-1.2,.8,-2.3,1.9,-3.1,3.3c-.8,1.3,-1.1,2.7,-1.1,4c0,1,.2,1.9,.6,2.7c.4,.7,1,1.3,1.7,1.8c.8,.4,1.7,.7,2.7,.7c1.1,0,2.3,-.2,3.4,-.7m-5.4,-1.1c-.4,-.6,-.7,-1.3,-.7,-2.2c0,-1.2,.3,-2.4,.7,-3.8c.5,-1.5,1.2,-2.7,2.1,-3.7c.9,-1,2,-1.5,3.2,-1.5c2,0,3,1.8,3,5.5v3.3l.1,.3v.4c-2,1.8,-4.2,2.7,-6.4,2.7c-.8,0,-1.5,-.3,-2,-1Z" class="g0"/>
<path d="M93,300.1l.7,-4h-.8c-.1,.5,-.2,.9,-.3,1.3c-.1,.3,-.2,.6,-.3,.7c0,0,-.3,.1,-.7,.1c-.5,0,-1,0,-1.6,0c-.6,0,-1.2,0,-1.7,0H86.2L88.9,296c.2,-.2,.7,-.6,1.5,-1.2c.8,-.5,1.3,-1,1.8,-1.4c.4,-.5,.8,-.9,1.1,-1.5c.3,-.5,.4,-1.1,.4,-1.7c0,-.9,-.2,-1.7,-.7,-2.3c-.5,-.7,-1.2,-1.1,-2,-1.5c-.8,-.3,-1.6,-.4,-2.5,-.4c-.7,0,-1.4,.1,-2.1,.4c-.7,.3,-1.3,.8,-1.7,1.4c-.5,.6,-.7,1.2,-.7,2c0,.3,.1,.6,.4,.8c.2,.2,.5,.4,.8,.4c.4,0,.6,-.2,.9,-.4c.2,-.2,.3,-.5,.3,-.8c0,-.3,-.1,-.6,-.3,-.8c-.2,-.3,-.5,-.4,-.9,-.4c.2,-.5,.6,-1,1.2,-1.3c.5,-.3,1.1,-.5,1.8,-.5c.4,0,.9,.1,1.3,.3c.4,.1,.7,.3,1,.7c.3,.3,.6,.6,.7,1c.2,.4,.3,.9,.3,1.4c0,.8,-.3,1.6,-.7,2.3c-.5,.8,-1.2,1.5,-2.1,2.4l-.3,.3l-.4,.4l-3.9,3.7l-.1,.2v.6Z" class="g0"/>
<path d="M98.7,303.5h.1c1.2,-.9,2.2,-1.9,3,-3.1c.9,-1.1,1.5,-2.4,2.1,-3.7c.5,-1.4,.9,-2.7,1.2,-4.1c.2,-1.4,.4,-2.8,.4,-4.3c0,-1.9,-.3,-3.8,-.7,-5.6c-.5,-1.9,-1.2,-3.6,-2.2,-5.3c-1,-1.6,-2.3,-3,-3.8,-4.2h-.4l-.2,.1l-.1,.1l.1,.3c3.5,3.3,5.3,8.2,5.3,14.6c0,6.5,-1.8,11.4,-5.3,14.8l-.1,.2l.3,.2Z" class="g0"/>
<path d="M115,295.9v-1.5c-.2,0,-.5,0,-.8,-.1c-.3,0,-.4,-.1,-.4,-.2l3.1,-3.4l3.2,3.7h-1.2v1.5h7.3v-1.5h-2.3l-5,-5.9l3.8,-4.2c.2,-.2,1.1,-.3,2.9,-.3v-1.5h-6.2V284c.2,0,.4,0,.7,.1c.3,0,.5,.1,.5,.2l-2.7,3L115.1,284h1.1v-1.5h-7.3V284h2.3l4.7,5.5l-4.2,4.6c-.2,.2,-1.2,.3,-2.9,.3v1.5Z" class="g0"/>
<path d="M137.1,300.1l.7,-4h-.9c-.1,.5,-.1,.9,-.2,1.3c-.1,.3,-.2,.6,-.3,.7c-.1,0,-.3,.1,-.8,.1c-.4,0,-.9,0,-1.6,0c-.6,0,-1.1,0,-1.7,0h-2L133,296c.2,-.2,.7,-.6,1.5,-1.2c.7,-.5,1.3,-1,1.7,-1.4c.5,-.5,.8,-.9,1.1,-1.5c.3,-.5,.5,-1.1,.5,-1.7c0,-.9,-.3,-1.7,-.8,-2.3c-.5,-.7,-1.1,-1.1,-1.9,-1.5c-.8,-.3,-1.6,-.4,-2.5,-.4c-.8,0,-1.5,.1,-2.2,.4c-.7,.3,-1.2,.8,-1.7,1.4c-.4,.6,-.6,1.2,-.6,2c0,.3,.1,.6,.3,.8c.3,.2,.5,.4,.9,.4c.3,0,.6,-.2,.8,-.4c.3,-.2,.4,-.5,.4,-.8c0,-.3,-.1,-.6,-.4,-.8c-.2,-.3,-.5,-.4,-.8,-.4h-.1c.3,-.5,.7,-1,1.2,-1.3c.6,-.3,1.2,-.5,1.8,-.5c.5,0,.9,.1,1.3,.3c.5,.1,.8,.3,1.1,.7c.3,.3,.5,.6,.7,1c.2,.4,.2,.9,.2,1.4c0,.8,-.2,1.6,-.7,2.3c-.5,.8,-1.1,1.5,-2,2.4l-.4,.3l-.3,.4l-3.9,3.7l-.1,.2v.6Z" class="g0"/>
<path d="M434.5,262.3c1.1,-.4,2.1,-1.1,3.1,-1.9c.2,.8,.5,1.4,1,1.9c.5,.4,1.1,.7,1.9,.7c.5,0,1.1,-.2,1.7,-.7c.6,-.5,.9,-1,.9,-1.5l-.3,-.3h-.3c-.1,0,-.2,.2,-.4,.5c-.2,.3,-.4,.6,-.6,.8c-.3,.3,-.6,.4,-1,.4c-.6,0,-.9,-1.3,-.9,-3.8c.6,-.6,1.1,-1.4,1.6,-2.2c.5,-.8,.9,-1.6,1.3,-2.4c.4,-.9,.7,-1.8,.9,-2.7V251l-.3,-.3h-.3l-.3,.2c-.2,1.1,-.6,2.2,-1.1,3.2c-.5,1,-1.1,2,-1.8,3v-2c0,-1.1,-.2,-2,-.6,-2.9c-.4,-.9,-1,-1.6,-1.8,-2.2c-.8,-.5,-1.7,-.8,-2.8,-.8c-1.4,0,-2.8,.5,-4.1,1.3c-1.3,.8,-2.3,1.9,-3.1,3.3c-.7,1.3,-1.1,2.7,-1.1,4c0,1,.2,1.9,.6,2.7c.4,.7,1,1.4,1.7,1.8c.8,.5,1.7,.7,2.6,.7c1.2,0,2.3,-.2,3.5,-.7m-5.4,-1c-.4,-.7,-.7,-1.4,-.7,-2.3c0,-1.1,.3,-2.4,.7,-3.8c.5,-1.4,1.2,-2.7,2.1,-3.7c.9,-1,1.9,-1.5,3.2,-1.5c2,0,3,1.8,3,5.5v3.6l.1,.4c-2.1,1.8,-4.2,2.7,-6.4,2.7c-.9,0,-1.5,-.3,-2,-.9Z" class="g0"/>
<path d="M454.8,266.8V266c-2,0,-3,-.3,-3,-.7V252.9l-.3,-.2h-.4c-.5,.5,-1.1,.8,-1.9,1c-.8,.2,-1.6,.3,-2.4,.3v.9c1.3,0,2.3,-.2,3.1,-.6v11c0,.4,-1,.7,-3,.7v.8Z" class="g0"/>
<path d="M465.7,262.6v-1.5c-.2,0,-.4,0,-.7,-.1c-.3,0,-.5,-.1,-.5,-.1l3.1,-3.5l3.2,3.7h-1.2v1.5h7.3v-1.5h-2.3l-5,-5.9l3.8,-4.2c.2,-.2,1.1,-.3,2.9,-.3v-1.5h-6.2v1.5c.2,0,.4,0,.7,.1c.3,0,.5,.1,.5,.2l-2.7,3l-2.8,-3.3h1.1v-1.5h-7.2v1.5H462l4.6,5.5l-4.2,4.6c-.2,.2,-1.1,.3,-2.9,.3v1.5Z" class="g0"/>
<path d="M487.9,266.8V266c-2.1,0,-3.1,-.3,-3.1,-.7V252.9l-.2,-.2h-.4c-.5,.5,-1.2,.8,-2,1c-.7,.2,-1.5,.3,-2.4,.3v.9c1.3,0,2.4,-.2,3.2,-.6v11c0,.4,-1,.7,-3.1,.7v.8Z" class="g0"/>
<path d="M509.8,255.7v8.9l.2,.4l.4,.2l.4,-.2l.2,-.4v-8.9h9.2l.4,-.2l.2,-.4l-.2,-.5l-.4,-.1H511v-9l-.2,-.4l-.4,-.2l-.4,.2l-.2,.4v9h-9.2l-.4,.1l-.2,.5l.2,.4l.4,.2Z" class="g0"/>
<path d="M539.2,270.2h.3l.1,-.1l.1,-.1l-.1,-.3c-3.5,-3.3,-5.3,-8.2,-5.3,-14.6c0,-1.5,.1,-2.9,.3,-4.2c.2,-1.4,.5,-2.7,.9,-3.9c.4,-1.3,.9,-2.4,1.6,-3.5c.7,-1.2,1.5,-2.2,2.5,-3.2l.1,-.2l-.1,-.1l-.1,-.1H539c-1.1,.9,-2.1,1.9,-2.9,3c-.9,1.2,-1.6,2.4,-2.1,3.7c-.6,1.4,-1,2.7,-1.2,4.1c-.3,1.5,-.4,2.9,-.4,4.4c0,1.4,.1,2.8,.4,4.2c.2,1.5,.6,2.8,1.2,4.1c.5,1.3,1.2,2.6,2,3.7c.9,1.2,1.9,2.2,3,3.1Z" class="g0"/>
<path d="M554.5,262.6v-1c-2.6,0,-3.9,-.3,-3.9,-1V242.7l-.1,-.2l-.2,-.1h-.5c-1.3,1.3,-3.2,2,-5.8,2v1c1.7,0,3.1,-.2,4.1,-.7v15.9c0,.7,-1.3,1,-3.9,1v1Z" class="g0"/>
<path d="M584.5,255.7l.4,-.2l.1,-.4l-.1,-.5l-.4,-.1H566.8l-.5,.1l-.1,.5l.1,.4l.5,.2Z" class="g0"/>
<path d="M604.1,262.3c1.1,-.4,2.2,-1.1,3.1,-1.9c.2,.8,.6,1.4,1,1.9c.5,.4,1.2,.7,1.9,.7c.6,0,1.1,-.2,1.7,-.7c.6,-.5,.9,-1,.9,-1.5l-.2,-.3h-.4c-.1,0,-.2,.2,-.4,.5c-.1,.3,-.4,.6,-.6,.8c-.3,.3,-.6,.4,-1,.4c-.5,0,-.8,-1.3,-.8,-3.8c.5,-.6,1.1,-1.4,1.6,-2.2c.4,-.8,.9,-1.6,1.2,-2.4c.4,-.9,.7,-1.8,.9,-2.7l.1,-.1l-.3,-.3h-.4l-.2,.2c-.3,1.1,-.7,2.2,-1.2,3.2c-.4,1,-1,2,-1.7,3l-.1,-2c0,-1.1,-.2,-2,-.6,-2.9c-.4,-.9,-1,-1.6,-1.8,-2.2c-.8,-.5,-1.7,-.8,-2.8,-.8c-1.4,0,-2.7,.5,-4,1.3c-1.3,.8,-2.4,1.9,-3.1,3.3c-.8,1.3,-1.2,2.7,-1.2,4c0,1,.2,1.9,.6,2.7c.4,.7,1,1.4,1.8,1.8c.7,.5,1.6,.7,2.6,.7c1.1,0,2.3,-.2,3.4,-.7m-5.3,-1c-.5,-.7,-.7,-1.4,-.7,-2.3c0,-1.1,.2,-2.4,.7,-3.8c.4,-1.4,1.1,-2.7,2,-3.7c.9,-1,2,-1.5,3.2,-1.5c2,0,3,1.8,3,5.5v3.6l.1,.4c-2,1.8,-4.2,2.7,-6.4,2.7c-.8,0,-1.5,-.3,-1.9,-.9Z" class="g0"/>
<path d="M624.7,266.8V266c-2,0,-3,-.3,-3,-.7V252.9l-.3,-.2H621c-.5,.5,-1.2,.8,-1.9,1c-.8,.2,-1.6,.3,-2.5,.3v.9c1.3,0,2.4,-.2,3.2,-.6v11c0,.4,-1,.7,-3,.7v.8Z" class="g0"/>
<path d="M630.8,270.2h.1c1.2,-.9,2.2,-1.9,3,-3.1c.9,-1.1,1.6,-2.4,2.1,-3.7c.5,-1.4,.9,-2.7,1.2,-4.1c.2,-1.4,.4,-2.8,.4,-4.2c0,-2,-.3,-3.9,-.7,-5.7c-.5,-1.9,-1.2,-3.6,-2.2,-5.3c-1,-1.6,-2.3,-3,-3.8,-4.2h-.4l-.2,.1l-.1,.1l.2,.3c3.5,3.3,5.2,8.2,5.2,14.7c0,6.4,-1.8,11.3,-5.3,14.7l-.1,.2l.3,.2Z" class="g0"/>
<path d="M647.1,262.6v-1.5c-.2,0,-.5,0,-.7,-.1c-.3,0,-.5,-.1,-.5,-.1l3.1,-3.5l3.2,3.7H651v1.5h7.3v-1.5H656l-5,-5.9l3.8,-4.2c.1,-.2,1.1,-.3,2.9,-.3v-1.5h-6.2v1.5c.2,0,.4,0,.7,.1c.3,0,.5,.1,.5,.2l-2.7,3l-2.8,-3.3h1.1v-1.5h-7.2v1.5h2.2l4.7,5.5l-4.2,4.6c-.2,.2,-1.1,.3,-2.9,.3v1.5Z" class="g0"/>
<path d="M669.2,266.8l.7,-4h-.8c-.1,.5,-.2,1,-.3,1.3c0,.3,-.2,.6,-.3,.7c0,0,-.3,.1,-.7,.1c-.5,0,-1,0,-1.6,0c-.6,0,-1.2,0,-1.7,0h-2.1l2.7,-2.2c.3,-.2,.7,-.6,1.5,-1.1c.8,-.6,1.4,-1.1,1.8,-1.5c.4,-.4,.8,-.9,1.1,-1.5c.3,-.5,.4,-1.1,.4,-1.7c0,-.9,-.2,-1.7,-.7,-2.3c-.5,-.6,-1.2,-1.1,-2,-1.5c-.7,-.3,-1.6,-.4,-2.5,-.4c-.7,0,-1.4,.1,-2.1,.4c-.7,.4,-1.3,.8,-1.7,1.4c-.5,.6,-.7,1.2,-.7,2c0,.3,.1,.6,.4,.8c.2,.3,.5,.4,.8,.4c.4,0,.6,-.1,.9,-.4c.2,-.2,.3,-.5,.3,-.8c0,-.3,-.1,-.6,-.3,-.8c-.2,-.3,-.5,-.4,-.9,-.4c.2,-.5,.6,-1,1.2,-1.3c.5,-.3,1.1,-.5,1.8,-.5c.4,0,.9,.1,1.3,.3c.4,.1,.8,.4,1,.7c.3,.3,.6,.6,.7,1c.2,.5,.3,.9,.3,1.4c0,.8,-.3,1.6,-.7,2.3c-.5,.8,-1.2,1.5,-2.1,2.4l-.3,.4l-.4,.3l-3.9,3.7l-.1,.2v.6Z" class="g0"/>
<path d="M154.2,109.1c1.1,-.5,2.2,-1.1,3.1,-1.9c.2,.7,.6,1.4,1,1.8c.5,.5,1.2,.8,1.9,.8c.6,0,1.1,-.3,1.7,-.8c.6,-.4,.9,-.9,.9,-1.4l-.2,-.3h-.4c-.1,0,-.2,.2,-.4,.5c-.1,.3,-.4,.6,-.6,.8c-.3,.2,-.6,.3,-1,.3c-.5,0,-.8,-1.2,-.8,-3.7c.5,-.7,1.1,-1.4,1.6,-2.2c.4,-.8,.9,-1.6,1.2,-2.5c.4,-.8,.7,-1.7,.9,-2.6l.1,-.1l-.3,-.3h-.4l-.2,.2c-.3,1.1,-.7,2.1,-1.2,3.2c-.4,1,-1,2,-1.7,3l-.1,-2.1c0,-1,-.2,-1.9,-.6,-2.8c-.4,-.9,-1,-1.7,-1.8,-2.2c-.8,-.5,-1.7,-.8,-2.8,-.8c-1.4,0,-2.7,.4,-4,1.3c-1.3,.8,-2.4,1.9,-3.1,3.2c-.8,1.4,-1.2,2.7,-1.2,4.1c0,1,.2,1.9,.6,2.6c.4,.8,1,1.4,1.8,1.9c.7,.4,1.6,.7,2.6,.7c1.1,0,2.3,-.3,3.4,-.7M148.9,108c-.5,-.6,-.7,-1.3,-.7,-2.2c0,-1.2,.2,-2.5,.7,-3.9c.4,-1.4,1.1,-2.6,2,-3.6c.9,-1,2,-1.5,3.2,-1.5c2,0,3,1.8,3,5.5v3.5l.1,.5c-2,1.8,-4.2,2.6,-6.4,2.6c-.8,0,-1.5,-.3,-1.9,-.9Z" class="g0"/>
<path d="M174.6,113.6l.6,-4h-.8c-.1,.5,-.2,.9,-.3,1.3c0,.3,-.1,.5,-.3,.7c0,0,-.3,0,-.7,0c-.5,.1,-1,.1,-1.6,.1c-.6,0,-1.2,0,-1.7,0h-2l2.6,-2.2c.3,-.2,.8,-.6,1.5,-1.2c.8,-.6,1.4,-1,1.8,-1.5c.4,-.4,.8,-.9,1.1,-1.4c.3,-.5,.4,-1.1,.4,-1.8c0,-.8,-.2,-1.6,-.7,-2.2c-.5,-.7,-1.2,-1.2,-1.9,-1.5c-.8,-.3,-1.7,-.5,-2.6,-.5c-.7,0,-1.4,.2,-2.1,.5c-.7,.3,-1.3,.8,-1.7,1.4c-.5,.5,-.7,1.2,-.7,2c0,.3,.1,.6,.4,.8c.2,.2,.5,.3,.8,.3c.4,0,.7,-.1,.9,-.3c.2,-.2,.3,-.5,.3,-.8c0,-.4,-.1,-.6,-.3,-.9c-.2,-.2,-.5,-.3,-.9,-.3c.2,-.6,.6,-1,1.2,-1.3c.5,-.4,1.1,-.5,1.8,-.5c.4,0,.9,.1,1.3,.2c.4,.2,.8,.4,1.1,.7c.3,.3,.5,.7,.6,1.1c.2,.4,.3,.9,.3,1.3c0,.9,-.3,1.7,-.7,2.4c-.5,.7,-1.2,1.5,-2,2.4l-.4,.3l-.4,.4l-3.9,3.7l-.1,.2v.6Z" class="g0"/>
<path d="M185.2,109.4v-1.5c-.2,0,-.4,-.1,-.7,-.1c-.3,0,-.5,-.1,-.5,-.2l3.1,-3.4l3.2,3.7h-1.2v1.5h7.3v-1.5h-2.3l-5,-6l3.8,-4.1c.1,-.2,1.1,-.3,2.9,-.3V95.9h-6.2v1.6c.2,0,.4,0,.7,0c.3,.1,.5,.1,.5,.2l-2.7,3l-2.8,-3.2h1.1V95.9h-7.2v1.6h2.3l4.6,5.5l-4.2,4.6c-.2,.2,-1.1,.3,-2.9,.3v1.5Z" class="g0"/>
<path d="M207.4,113.6v-.9c-2.1,0,-3.1,-.2,-3.1,-.6V99.7l-.2,-.3h-.4c-.6,.5,-1.2,.9,-2,1.1c-.7,.2,-1.5,.3,-2.4,.3v.9c1.3,0,2.3,-.2,3.2,-.6v11c0,.4,-1,.6,-3.1,.6v.9Z" class="g0"/>
<path d="M229.3,102.4v9l.1,.4l.5,.1l.4,-.1l.2,-.4v-9h9.2l.4,-.2l.2,-.4l-.2,-.4l-.4,-.2h-9.2V92.3l-.2,-.4l-.4,-.2l-.5,.2l-.1,.4v8.9h-9.2l-.4,.2l-.2,.4l.2,.4l.4,.2Z" class="g0"/>
<path d="M258.9,117h.3l.2,-.1v-.2l-.1,-.2c-3.5,-3.4,-5.3,-8.2,-5.3,-14.7c0,-1.4,.1,-2.8,.3,-4.2c.2,-1.3,.5,-2.6,.9,-3.8c.4,-1.3,1,-2.5,1.6,-3.6c.7,-1.1,1.6,-2.1,2.6,-3.1v-.4h-.6c-1.2,.9,-2.2,1.9,-3,3c-.8,1.2,-1.5,2.4,-2.1,3.7c-.5,1.3,-.9,2.7,-1.2,4.1c-.3,1.4,-.4,2.9,-.4,4.3c0,1.5,.1,2.9,.4,4.3c.3,1.4,.7,2.8,1.2,4.1c.5,1.3,1.2,2.5,2.1,3.7c.8,1.1,1.8,2.2,3,3Z" class="g0"/>
<path d="M274,109.4v-1.1c-2.6,0,-3.9,-.3,-3.9,-.9V89.5l-.1,-.2l-.2,-.1h-.5c-1.3,1.3,-3.2,1.9,-5.8,1.9v1.1c1.7,0,3,-.2,4.1,-.7v15.9c0,.6,-1.3,.9,-3.9,.9v1.1Z" class="g0"/>
<path d="M304.2,102.4l.4,-.2l.2,-.4l-.2,-.4l-.4,-.2H286.5l-.4,.2l-.2,.4l.2,.4l.4,.2Z" class="g0"/>
<path d="M323.6,109.1c1.1,-.5,2.2,-1.1,3.1,-1.9c.2,.7,.5,1.4,1,1.8c.5,.5,1.1,.8,1.9,.8c.6,0,1.1,-.3,1.7,-.8c.6,-.4,.9,-.9,.9,-1.4l-.2,-.3h-.4c-.1,0,-.2,.2,-.4,.5c-.2,.3,-.4,.6,-.6,.8c-.3,.2,-.6,.3,-1,.3c-.6,0,-.9,-1.2,-.9,-3.7c.6,-.7,1.1,-1.4,1.6,-2.2c.5,-.8,.9,-1.6,1.3,-2.5c.4,-.8,.7,-1.7,.9,-2.6v-.1l-.2,-.3h-.4l-.2,.2c-.3,1.1,-.7,2.1,-1.2,3.2c-.5,1,-1.1,2,-1.8,3v-2.1c0,-1,-.2,-1.9,-.6,-2.8c-.4,-.9,-1,-1.7,-1.8,-2.2c-.8,-.5,-1.7,-.8,-2.8,-.8c-1.4,0,-2.8,.4,-4,1.3c-1.3,.8,-2.4,1.9,-3.2,3.2c-.7,1.4,-1.1,2.7,-1.1,4.1c0,1,.2,1.9,.6,2.6c.4,.8,1,1.4,1.8,1.9c.7,.4,1.6,.7,2.6,.7c1.1,0,2.3,-.3,3.4,-.7M318.2,108c-.4,-.6,-.6,-1.3,-.6,-2.2c0,-1.2,.2,-2.5,.6,-3.9c.5,-1.4,1.2,-2.6,2.1,-3.6c.9,-1,2,-1.5,3.2,-1.5c2,0,3,1.8,3,5.5v3.5l.1,.5c-2.1,1.8,-4.2,2.6,-6.4,2.6c-.8,0,-1.5,-.3,-2,-.9Z" class="g0"/>
<path d="M344.4,113.6l.7,-4h-.9c0,.5,-.1,.9,-.2,1.3c-.1,.3,-.2,.5,-.3,.7c0,0,-.3,0,-.7,0c-.5,.1,-1,.1,-1.6,.1c-.6,0,-1.2,0,-1.8,0h-2l2.7,-2.2c.2,-.2,.7,-.6,1.5,-1.2c.7,-.6,1.3,-1,1.8,-1.5c.4,-.4,.8,-.9,1,-1.4c.3,-.5,.5,-1.1,.5,-1.8c0,-.8,-.3,-1.6,-.8,-2.2c-.4,-.7,-1.1,-1.2,-1.9,-1.5c-.8,-.3,-1.6,-.5,-2.5,-.5c-.7,0,-1.5,.2,-2.2,.5c-.7,.3,-1.2,.8,-1.7,1.4c-.4,.5,-.6,1.2,-.6,2c0,.3,.1,.6,.3,.8c.3,.2,.6,.3,.9,.3c.3,0,.6,-.1,.9,-.3c.2,-.2,.3,-.5,.3,-.8c0,-.4,-.1,-.6,-.3,-.9c-.3,-.2,-.5,-.3,-.9,-.3h-.1c.3,-.6,.7,-1,1.3,-1.3c.5,-.4,1.1,-.5,1.7,-.5c.5,0,1,.1,1.4,.2c.4,.2,.7,.4,1,.7c.3,.3,.6,.7,.7,1.1c.2,.4,.3,.9,.3,1.3c0,.9,-.3,1.7,-.8,2.4c-.4,.7,-1.1,1.5,-2,2.4l-.4,.3l-.3,.4l-3.9,3.7l-.1,.2v.6Z" class="g0"/>
<path d="M350.3,117l.1,-.1c1.2,-.8,2.2,-1.9,3,-3c.9,-1.1,1.5,-2.4,2.1,-3.7c.5,-1.4,.9,-2.8,1.2,-4.1c.2,-1.4,.3,-2.8,.3,-4.3c0,-1.9,-.2,-3.8,-.6,-5.7c-.5,-1.8,-1.2,-3.6,-2.2,-5.2c-1,-1.6,-2.3,-3,-3.8,-4.2h-.6l-.1,.2l.1,.3c3.6,3.3,5.3,8.2,5.3,14.6c0,6.5,-1.8,11.4,-5.3,14.7l-.1,.2l.3,.3Z" class="g0"/>
<path d="M366.6,109.4v-1.5c-.2,0,-.5,-.1,-.8,-.1c-.3,0,-.4,-.1,-.4,-.2l3.1,-3.4l3.2,3.7h-1.2v1.5h7.3v-1.5h-2.3l-5,-6l3.7,-4.1c.2,-.2,1.2,-.3,2.9,-.3V95.9H371v1.6c.2,0,.4,0,.7,0c.3,.1,.4,.1,.4,.2l-2.6,3l-2.8,-3.2h1.1V95.9h-7.3v1.6h2.3l4.7,5.5l-4.2,4.6c-.2,.2,-1.2,.3,-2.9,.3v1.5Z" class="g0"/>
<path d="M389,113.6l.6,-4h-.8c-.1,.5,-.2,.9,-.2,1.3c-.1,.3,-.2,.5,-.3,.7c-.1,0,-.3,0,-.8,0c-.4,.1,-1,.1,-1.6,.1c-.6,0,-1.2,0,-1.7,0h-2l2.7,-2.2c.2,-.2,.7,-.6,1.4,-1.2c.8,-.6,1.4,-1,1.8,-1.5c.4,-.4,.8,-.9,1.1,-1.4c.3,-.5,.4,-1.1,.4,-1.8c0,-.8,-.2,-1.6,-.7,-2.2c-.5,-.7,-1.1,-1.2,-1.9,-1.5c-.8,-.3,-1.7,-.5,-2.5,-.5c-.8,0,-1.5,.2,-2.2,.5c-.7,.3,-1.3,.8,-1.7,1.4c-.4,.5,-.7,1.2,-.7,2c0,.3,.2,.6,.4,.8c.2,.2,.5,.3,.9,.3c.3,0,.6,-.1,.8,-.3c.2,-.2,.4,-.5,.4,-.8c0,-.4,-.2,-.6,-.4,-.9c-.2,-.2,-.5,-.3,-.8,-.3h-.1c.3,-.6,.7,-1,1.2,-1.3c.5,-.4,1.1,-.5,1.8,-.5c.5,0,.9,.1,1.3,.2c.4,.2,.8,.4,1.1,.7c.3,.3,.5,.7,.7,1.1c.1,.4,.2,.9,.2,1.3c0,.9,-.2,1.7,-.7,2.4c-.5,.7,-1.2,1.5,-2,2.4l-.4,.3l-.4,.4l-3.9,3.7l-.1,.2v.6Z" class="g0"/>

</g>
</svg>
