<?xml version="1.0" encoding="UTF-8"?>
<svg xmlns="http://www.w3.org/2000/svg" xmlns:xlink="http://www.w3.org/1999/xlink" width="432.719pt" height="390.453pt" viewBox="0 0 432.719 390.453" version="1.1">
<defs>
<clipPath id="clip1">
  <path d="M 46 0 L 432.71875 0 L 432.71875 345 L 46 345 Z M 46 0 "/>
</clipPath>
<clipPath id="clip2">
  <path d="M 405 335 L 432.71875 335 L 432.71875 354 L 405 354 Z M 405 335 "/>
</clipPath>
</defs>
<g id="surface1">
<g clip-path="url(#clip1)" clip-rule="nonzero">
<path style=" stroke:none;fill-rule:nonzero;fill:rgb(100%,100%,20%);fill-opacity:0.4;" d="M 235.179688 0.757812 L 46.121094 344.332031 L 432.71875 189.664062 L 432.71875 0.757812 Z M 235.179688 0.757812 "/>
</g>
<path style=" stroke:none;fill-rule:nonzero;fill:rgb(100%,100%,100%);fill-opacity:1;" d="M 3.25 342.59375 L 406.8125 342.59375 L 406.8125 346.066406 L 3.25 346.066406 "/>
<g clip-path="url(#clip2)" clip-rule="nonzero">
<path style=" stroke:none;fill-rule:evenodd;fill:rgb(100%,100%,100%);fill-opacity:1;" d="M 432.71875 344.332031 L 405.601562 335.242188 L 405.601562 353.269531 Z M 432.71875 344.332031 "/>
</g>
<path style=" stroke:none;fill-rule:nonzero;fill:rgb(100%,100%,100%);fill-opacity:1;" d="M 44.386719 387.203125 L 44.386719 25.90625 L 47.859375 25.90625 L 47.859375 387.203125 "/>
<path style=" stroke:none;fill-rule:evenodd;fill:rgb(100%,100%,100%);fill-opacity:1;" d="M 46.121094 0 L 37.183594 27.117188 L 55.210938 27.117188 Z M 46.121094 0 "/>
<path style=" stroke:none;fill-rule:evenodd;fill:rgb(79.998779%,100%,79.998779%);fill-opacity:1;" d="M 136.410156 266.921875 L 157.769531 142.398438 L 217.910156 168.152344 L 226.542969 90.890625 L 256.539062 78.015625 L 282.292969 125.28125 L 325.3125 52.261719 L 355.308594 112.402344 L 329.554688 181.027344 L 278.050781 159.667969 L 252.296875 142.398438 L 256.539062 198.296875 L 312.4375 215.414062 L 295.167969 241.167969 L 196.398438 219.808594 L 200.789062 258.4375 Z M 136.410156 266.921875 "/>
<path style=" stroke:none;fill-rule:nonzero;fill:rgb(100%,100%,100%);fill-opacity:1;" d="M 136.410156 266.921875 L 135.289062 266.730469 L 156.648438 142.207031 C 156.707031 141.863281 156.917969 141.566406 157.226562 141.398438 C 157.53125 141.234375 157.894531 141.214844 158.214844 141.355469 L 216.949219 166.503906 L 225.414062 90.765625 C 225.460938 90.359375 225.71875 90.011719 226.097656 89.847656 L 256.089844 76.972656 C 256.628906 76.742188 257.253906 76.957031 257.535156 77.472656 L 282.328125 122.976562 L 324.335938 51.6875 C 324.546875 51.328125 324.9375 51.113281 325.355469 51.128906 C 325.769531 51.140625 326.144531 51.382812 326.332031 51.757812 L 356.324219 111.894531 C 356.46875 112.179688 356.484375 112.507812 356.371094 112.804688 L 330.621094 181.425781 C 330.511719 181.714844 330.289062 181.945312 330.007812 182.070312 C 329.726562 182.191406 329.40625 182.195312 329.121094 182.078125 L 277.613281 160.71875 L 277.417969 160.609375 L 253.605469 144.644531 L 257.613281 197.4375 L 312.769531 214.328125 C 313.113281 214.433594 313.386719 214.695312 313.507812 215.035156 C 313.628906 215.375 313.582031 215.75 313.378906 216.046875 L 296.113281 241.800781 C 295.851562 242.1875 295.382812 242.378906 294.929688 242.277344 L 197.707031 221.253906 L 201.917969 258.308594 C 201.988281 258.925781 201.554688 259.484375 200.941406 259.5625 L 136.558594 268.046875 C 136.199219 268.09375 135.839844 267.96875 135.589844 267.710938 C 135.339844 267.449219 135.226562 267.085938 135.289062 266.730469 L 136.410156 266.921875 L 136.261719 265.796875 L 199.535156 257.457031 L 195.269531 219.9375 C 195.226562 219.574219 195.363281 219.210938 195.636719 218.964844 C 195.90625 218.722656 196.28125 218.621094 196.636719 218.699219 L 294.652344 239.894531 L 310.640625 216.054688 L 256.207031 199.382812 C 255.761719 199.246094 255.441406 198.847656 255.40625 198.382812 L 251.164062 142.484375 C 251.128906 142.050781 251.347656 141.636719 251.726562 141.417969 C 252.101562 141.199219 252.570312 141.210938 252.929688 141.457031 L 278.589844 158.660156 L 328.90625 179.527344 L 354.070312 112.46875 L 325.230469 54.640625 L 283.269531 125.855469 C 283.0625 126.210938 282.683594 126.421875 282.273438 126.417969 C 281.863281 126.410156 281.488281 126.183594 281.292969 125.824219 L 256.035156 79.46875 L 227.601562 91.675781 L 219.039062 168.277344 C 218.996094 168.636719 218.792969 168.953125 218.480469 169.132812 C 218.167969 169.3125 217.792969 169.335938 217.460938 169.195312 L 158.644531 144.007812 L 137.527344 267.113281 L 136.410156 266.921875 L 136.261719 265.796875 Z M 136.410156 266.921875 "/>
<path style=" stroke:none;fill-rule:nonzero;fill:rgb(0%,0%,0%);fill-opacity:1;" d="M 212.835938 196.96875 C 212.9375 197.058594 213.046875 197.101562 213.171875 197.101562 C 213.214844 197.101562 213.410156 196.980469 213.753906 196.730469 C 214.09375 196.484375 214.453125 196.359375 214.820312 196.359375 C 215.394531 196.359375 215.949219 196.476562 216.496094 196.707031 C 217.214844 196.96875 217.9375 197.101562 218.664062 197.101562 C 219.566406 197.101562 220.445312 196.996094 221.300781 196.789062 C 222.15625 196.578125 222.9375 196.261719 223.648438 195.828125 C 224.355469 195.398438 224.921875 194.84375 225.347656 194.160156 C 225.773438 193.476562 225.988281 192.675781 225.988281 191.753906 C 225.988281 190.832031 225.757812 189.984375 225.296875 189.207031 C 224.835938 188.429688 224.230469 187.753906 223.476562 187.179688 C 222.722656 186.601562 221.894531 186.144531 220.992188 185.804688 C 220.660156 185.675781 220.148438 185.476562 219.460938 185.199219 C 218.773438 184.929688 218.160156 184.644531 217.621094 184.34375 C 217.082031 184.046875 216.621094 183.691406 216.246094 183.28125 C 215.871094 182.871094 215.679688 182.4375 215.679688 181.976562 C 215.679688 181.132812 215.960938 180.46875 216.515625 179.980469 C 217.074219 179.492188 217.789062 179.25 218.664062 179.25 C 219.226562 179.25 219.789062 179.378906 220.355469 179.636719 C 220.917969 179.890625 221.445312 180.238281 221.9375 180.679688 C 222.429688 181.117188 222.835938 181.601562 223.160156 182.136719 C 223.484375 182.671875 223.6875 183.191406 223.765625 183.703125 C 223.773438 183.808594 223.828125 183.890625 223.929688 183.953125 C 224.03125 184.019531 224.125 184.050781 224.210938 184.050781 C 224.316406 184.050781 224.417969 184.007812 224.519531 183.929688 C 224.621094 183.847656 224.671875 183.738281 224.671875 183.601562 L 224.671875 178.753906 C 224.671875 178.632812 224.621094 178.53125 224.519531 178.449219 C 224.417969 178.371094 224.316406 178.328125 224.210938 178.328125 C 224.132812 178.328125 223.921875 178.453125 223.582031 178.699219 C 223.238281 178.949219 222.894531 179.070312 222.542969 179.070312 C 222.015625 179.070312 221.453125 178.957031 220.847656 178.726562 C 220.164062 178.460938 219.4375 178.328125 218.664062 178.328125 C 216.789062 178.328125 215.289062 178.773438 214.164062 179.667969 C 213.035156 180.558594 212.472656 181.894531 212.472656 183.679688 C 212.472656 184.328125 212.625 184.925781 212.933594 185.476562 C 213.242188 186.027344 213.632812 186.507812 214.117188 186.914062 C 214.597656 187.324219 215.136719 187.691406 215.726562 188.011719 C 216.320312 188.328125 216.960938 188.628906 217.652344 188.898438 C 218.96875 189.410156 220.070312 190.003906 220.964844 190.671875 C 221.859375 191.34375 222.304688 192.1875 222.304688 193.210938 C 222.304688 193.972656 222.160156 194.570312 221.871094 195.011719 C 221.582031 195.449219 221.179688 195.753906 220.664062 195.925781 C 220.144531 196.097656 219.488281 196.179688 218.691406 196.179688 C 218.113281 196.179688 217.523438 196.027344 216.917969 195.71875 C 216.3125 195.414062 215.761719 195.011719 215.265625 194.515625 C 214.773438 194.023438 214.375 193.480469 214.078125 192.886719 C 213.78125 192.292969 213.628906 191.722656 213.628906 191.175781 L 213.628906 190.960938 C 213.628906 190.832031 213.589844 190.722656 213.503906 190.628906 C 213.417969 190.53125 213.3125 190.484375 213.175781 190.484375 C 212.847656 190.484375 212.683594 190.707031 212.683594 191.152344 L 212.683594 196.652344 C 212.683594 196.773438 212.734375 196.878906 212.835938 196.96875 M 213.628906 193.980469 C 213.988281 194.507812 214.414062 195 214.90625 195.453125 L 214.828125 195.453125 C 214.449219 195.453125 214.050781 195.535156 213.628906 195.707031 Z M 215.742188 186.949219 C 215.113281 186.585938 214.570312 186.128906 214.109375 185.578125 C 213.652344 185.027344 213.421875 184.394531 213.421875 183.679688 C 213.421875 182.894531 213.570312 182.171875 213.875 181.515625 C 214.175781 180.859375 214.652344 180.347656 215.300781 179.980469 C 214.921875 180.59375 214.734375 181.261719 214.734375 181.976562 C 214.734375 182.777344 215.050781 183.476562 215.6875 184.074219 C 216.320312 184.671875 217.015625 185.144531 217.769531 185.488281 C 218.519531 185.835938 219.484375 186.226562 220.65625 186.660156 C 221.898438 187.136719 222.941406 187.816406 223.78125 188.695312 C 224.621094 189.574219 225.039062 190.59375 225.039062 191.753906 C 225.039062 192.503906 224.847656 193.179688 224.457031 193.773438 C 224.070312 194.371094 223.523438 194.867188 222.820312 195.261719 C 223.109375 194.6875 223.253906 194.007812 223.253906 193.210938 C 223.253906 191.96875 222.761719 190.949219 221.78125 190.160156 C 220.796875 189.371094 219.527344 188.660156 217.96875 188.027344 C 217.109375 187.671875 216.367188 187.3125 215.742188 186.949219 M 222.542969 179.980469 C 222.917969 179.980469 223.3125 179.894531 223.726562 179.722656 L 223.726562 181.296875 C 223.394531 180.839844 223 180.398438 222.542969 179.980469 "/>
<path style=" stroke:none;fill-rule:nonzero;fill:rgb(100%,100%,100%);fill-opacity:1;" d="M 326.625 28.140625 C 327.21875 29.046875 328.027344 29.730469 329.054688 30.203125 C 330.082031 30.671875 331.214844 30.90625 332.453125 30.90625 C 333.214844 30.90625 333.945312 30.796875 334.640625 30.578125 C 335.332031 30.363281 335.9375 30.019531 336.457031 29.554688 C 336.972656 29.089844 337.347656 28.511719 337.578125 27.820312 L 337.601562 27.679688 C 337.601562 27.5 337.492188 27.382812 337.273438 27.324219 L 336.574219 27.324219 C 336.433594 27.347656 336.328125 27.417969 336.257812 27.527344 C 336.109375 27.988281 335.878906 28.390625 335.558594 28.730469 C 335.246094 29.070312 334.875 29.328125 334.453125 29.496094 C 334.035156 29.667969 333.574219 29.753906 333.070312 29.753906 C 330.550781 29.753906 329.292969 28.136719 329.292969 24.902344 C 329.292969 24.042969 329.367188 23.253906 329.515625 22.535156 C 329.664062 21.820312 329.972656 21.222656 330.445312 20.746094 C 330.914062 20.265625 331.589844 20.027344 332.476562 20.027344 C 333.179688 20.027344 333.773438 20.066406 334.257812 20.144531 C 333.933594 20.398438 333.769531 20.800781 333.769531 21.347656 C 333.769531 21.832031 333.9375 22.238281 334.269531 22.5625 C 334.601562 22.886719 335.019531 23.046875 335.519531 23.046875 C 336.019531 23.046875 336.433594 22.886719 336.757812 22.5625 C 337.085938 22.238281 337.246094 21.832031 337.246094 21.347656 C 337.246094 20.347656 336.769531 19.6875 335.8125 19.363281 C 334.855469 19.039062 333.734375 18.875 332.453125 18.875 C 331.1875 18.875 330.046875 19.113281 329.027344 19.585938 C 328.007812 20.058594 327.207031 20.757812 326.617188 21.683594 C 326.03125 22.613281 325.734375 23.691406 325.734375 24.929688 C 325.734375 26.167969 326.03125 27.238281 326.625 28.140625 "/>
<path style=" stroke:none;fill-rule:nonzero;fill:rgb(100%,100%,100%);fill-opacity:1;" d="M 339.601562 27.570312 C 339.960938 28.308594 340.460938 28.925781 341.101562 29.421875 C 341.742188 29.914062 342.476562 30.285156 343.308594 30.535156 C 344.136719 30.78125 345.011719 30.90625 345.933594 30.90625 C 346.855469 30.90625 347.738281 30.78125 348.574219 30.535156 C 349.414062 30.285156 350.148438 29.914062 350.78125 29.421875 C 351.414062 28.925781 351.910156 28.308594 352.269531 27.570312 C 352.628906 26.832031 352.808594 25.992188 352.808594 25.042969 C 352.808594 24.070312 352.640625 23.203125 352.296875 22.433594 C 351.953125 21.664062 351.46875 21.019531 350.839844 20.488281 C 350.214844 19.960938 349.484375 19.558594 348.648438 19.285156 C 347.8125 19.011719 346.910156 18.875 345.933594 18.875 C 344.636719 18.875 343.464844 19.117188 342.425781 19.601562 C 341.382812 20.082031 340.5625 20.789062 339.960938 21.71875 C 339.359375 22.648438 339.058594 23.757812 339.058594 25.042969 C 339.058594 25.992188 339.238281 26.832031 339.601562 27.570312 M 343.667969 29.054688 C 343.1875 28.59375 342.890625 28.023438 342.78125 27.347656 C 342.671875 26.675781 342.617188 25.789062 342.617188 24.699219 C 342.617188 23.984375 342.644531 23.351562 342.703125 22.8125 C 342.757812 22.269531 342.890625 21.78125 343.097656 21.347656 C 343.300781 20.910156 343.632812 20.566406 344.085938 20.308594 C 344.535156 20.054688 345.152344 19.925781 345.933594 19.925781 C 346.714844 19.925781 347.332031 20.054688 347.785156 20.308594 C 348.238281 20.566406 348.566406 20.90625 348.765625 21.328125 C 348.96875 21.75 349.101562 22.214844 349.160156 22.722656 C 349.222656 23.230469 349.253906 23.890625 349.253906 24.699219 C 349.253906 25.789062 349.199219 26.675781 349.089844 27.347656 C 348.980469 28.023438 348.683594 28.59375 348.199219 29.054688 C 347.71875 29.519531 346.960938 29.753906 345.933594 29.753906 C 344.90625 29.753906 344.152344 29.519531 343.667969 29.054688 "/>
<path style=" stroke:none;fill-rule:nonzero;fill:rgb(100%,100%,100%);fill-opacity:1;" d="M 361.855469 30.75 L 361.855469 29.421875 L 359.996094 29.421875 L 359.996094 23.90625 C 359.996094 23.230469 360.171875 22.59375 360.523438 21.992188 C 360.871094 21.390625 361.351562 20.910156 361.960938 20.546875 C 362.570312 20.183594 363.234375 20.003906 363.953125 20.003906 C 364.582031 20.003906 364.980469 20.265625 365.140625 20.789062 C 365.304688 21.3125 365.382812 21.976562 365.382812 22.78125 L 365.382812 29.421875 L 363.515625 29.421875 L 363.515625 30.75 L 370.441406 30.75 L 370.441406 29.421875 L 368.570312 29.421875 L 368.570312 22.703125 C 368.570312 21.328125 368.214844 20.359375 367.496094 19.796875 C 366.78125 19.234375 365.714844 18.953125 364.289062 18.953125 C 363.332031 18.953125 362.441406 19.191406 361.617188 19.667969 C 360.789062 20.148438 360.15625 20.800781 359.707031 21.628906 L 359.707031 18.953125 L 354.953125 19.171875 L 354.953125 20.5 C 356.191406 20.5 356.808594 20.75 356.808594 21.242188 L 356.808594 29.421875 L 354.953125 29.421875 L 354.953125 30.75 Z M 361.855469 30.75 "/>
<path style=" stroke:none;fill-rule:nonzero;fill:rgb(100%,100%,100%);fill-opacity:1;" d="M 372.585938 28.160156 C 373.222656 29.070312 374.082031 29.753906 375.167969 30.214844 C 376.25 30.675781 377.433594 30.90625 378.714844 30.90625 C 379.453125 30.90625 380.1875 30.796875 380.921875 30.578125 C 381.65625 30.363281 382.300781 30.023438 382.863281 29.5625 C 383.425781 29.101562 383.824219 28.53125 384.0625 27.847656 C 384.082031 27.753906 384.089844 27.699219 384.089844 27.679688 C 384.089844 27.433594 383.945312 27.28125 383.65625 27.21875 L 383.140625 27.21875 C 382.976562 27.261719 382.839844 27.367188 382.734375 27.527344 C 382.566406 27.996094 382.296875 28.398438 381.921875 28.738281 C 381.550781 29.074219 381.105469 29.328125 380.585938 29.496094 C 380.066406 29.667969 379.5625 29.753906 379.070312 29.753906 C 378.078125 29.753906 377.296875 29.554688 376.71875 29.152344 C 376.144531 28.75 375.746094 28.207031 375.523438 27.515625 C 375.296875 26.824219 375.1875 26 375.1875 25.042969 L 383.65625 25.042969 C 383.945312 24.941406 384.089844 24.769531 384.089844 24.519531 C 384.089844 23.300781 383.863281 22.269531 383.410156 21.429688 C 382.957031 20.589844 382.300781 19.953125 381.4375 19.523438 C 380.570312 19.089844 379.519531 18.875 378.28125 18.875 C 377.035156 18.875 375.90625 19.113281 374.894531 19.585938 C 373.886719 20.0625 373.089844 20.75 372.503906 21.660156 C 371.921875 22.570312 371.628906 23.632812 371.628906 24.851562 C 371.628906 26.148438 371.949219 27.25 372.585938 28.160156 M 375.890625 21.121094 C 376.359375 20.324219 377.15625 19.925781 378.28125 19.925781 C 379.378906 19.925781 380.175781 20.328125 380.671875 21.136719 C 381.167969 21.941406 381.414062 22.921875 381.414062 24.070312 L 375.1875 24.070312 C 375.1875 22.902344 375.421875 21.921875 375.890625 21.121094 "/>
<path style=" stroke:none;fill-rule:nonzero;fill:rgb(100%,100%,100%);fill-opacity:1;" d="M 395.378906 30.9375 C 395.480469 31.027344 395.589844 31.070312 395.714844 31.070312 C 395.757812 31.070312 395.953125 30.949219 396.296875 30.699219 C 396.636719 30.453125 396.996094 30.328125 397.363281 30.328125 C 397.933594 30.328125 398.492188 30.445312 399.039062 30.675781 C 399.757812 30.941406 400.480469 31.070312 401.207031 31.070312 C 402.109375 31.070312 402.988281 30.96875 403.84375 30.757812 C 404.699219 30.550781 405.480469 30.230469 406.1875 29.796875 C 406.898438 29.367188 407.464844 28.8125 407.890625 28.128906 C 408.316406 27.445312 408.53125 26.644531 408.53125 25.722656 C 408.53125 24.800781 408.300781 23.953125 407.839844 23.175781 C 407.378906 22.402344 406.773438 21.722656 406.019531 21.148438 C 405.265625 20.574219 404.4375 20.113281 403.535156 19.773438 C 403.203125 19.644531 402.691406 19.445312 402.003906 19.171875 C 401.316406 18.898438 400.703125 18.613281 400.164062 18.3125 C 399.625 18.015625 399.164062 17.660156 398.789062 17.25 C 398.414062 16.839844 398.222656 16.40625 398.222656 15.945312 C 398.222656 15.101562 398.503906 14.4375 399.058594 13.949219 C 399.617188 13.464844 400.332031 13.21875 401.207031 13.21875 C 401.769531 13.21875 402.332031 13.347656 402.894531 13.605469 C 403.460938 13.859375 403.988281 14.207031 404.480469 14.648438 C 404.972656 15.085938 405.378906 15.574219 405.703125 16.105469 C 406.027344 16.640625 406.230469 17.160156 406.308594 17.671875 C 406.316406 17.777344 406.371094 17.859375 406.472656 17.921875 C 406.574219 17.988281 406.667969 18.019531 406.753906 18.019531 C 406.859375 18.019531 406.964844 17.976562 407.0625 17.898438 C 407.164062 17.816406 407.214844 17.707031 407.214844 17.570312 L 407.214844 12.722656 C 407.214844 12.601562 407.164062 12.5 407.0625 12.421875 C 406.964844 12.339844 406.859375 12.300781 406.753906 12.300781 C 406.675781 12.300781 406.464844 12.421875 406.125 12.671875 C 405.78125 12.917969 405.433594 13.042969 405.085938 13.042969 C 404.558594 13.042969 403.996094 12.925781 403.390625 12.695312 C 402.707031 12.429688 401.976562 12.300781 401.207031 12.300781 C 399.332031 12.300781 397.832031 12.746094 396.707031 13.636719 C 395.578125 14.527344 395.015625 15.867188 395.015625 17.648438 C 395.015625 18.296875 395.167969 18.894531 395.476562 19.445312 C 395.785156 19.996094 396.175781 20.476562 396.660156 20.886719 C 397.140625 21.296875 397.679688 21.660156 398.269531 21.980469 C 398.859375 22.300781 399.503906 22.597656 400.195312 22.871094 C 401.511719 23.382812 402.613281 23.972656 403.507812 24.640625 C 404.402344 25.3125 404.847656 26.15625 404.847656 27.179688 C 404.847656 27.941406 404.703125 28.539062 404.414062 28.980469 C 404.125 29.417969 403.722656 29.722656 403.207031 29.894531 C 402.6875 30.066406 402.03125 30.152344 401.234375 30.152344 C 400.65625 30.152344 400.0625 29.996094 399.460938 29.691406 C 398.855469 29.382812 398.304688 28.980469 397.808594 28.488281 C 397.3125 27.992188 396.917969 27.449219 396.621094 26.855469 C 396.324219 26.261719 396.171875 25.695312 396.171875 25.148438 L 396.171875 24.929688 C 396.171875 24.800781 396.132812 24.691406 396.046875 24.597656 C 395.960938 24.503906 395.851562 24.457031 395.71875 24.457031 C 395.390625 24.457031 395.226562 24.675781 395.226562 25.121094 L 395.226562 30.625 C 395.226562 30.742188 395.277344 30.847656 395.378906 30.9375 M 396.171875 27.949219 C 396.53125 28.476562 396.957031 28.96875 397.449219 29.421875 L 397.371094 29.421875 C 396.992188 29.421875 396.59375 29.507812 396.171875 29.675781 Z M 398.285156 20.917969 C 397.65625 20.554688 397.113281 20.097656 396.652344 19.546875 C 396.191406 19 395.964844 18.363281 395.964844 17.648438 C 395.964844 16.863281 396.113281 16.140625 396.417969 15.484375 C 396.71875 14.828125 397.195312 14.316406 397.84375 13.949219 C 397.464844 14.566406 397.277344 15.230469 397.277344 15.945312 C 397.277344 16.75 397.59375 17.449219 398.230469 18.042969 C 398.863281 18.640625 399.558594 19.113281 400.308594 19.457031 C 401.0625 19.804688 402.023438 20.195312 403.199219 20.628906 C 404.441406 21.109375 405.480469 21.785156 406.324219 22.664062 C 407.164062 23.542969 407.582031 24.5625 407.582031 25.722656 C 407.582031 26.472656 407.390625 27.148438 407 27.746094 C 406.613281 28.339844 406.066406 28.835938 405.359375 29.230469 C 405.648438 28.65625 405.796875 27.976562 405.796875 27.179688 C 405.796875 25.9375 405.304688 24.917969 404.324219 24.128906 C 403.339844 23.339844 402.070312 22.628906 400.511719 22 C 399.652344 21.640625 398.910156 21.28125 398.285156 20.917969 M 405.085938 13.949219 C 405.460938 13.949219 405.855469 13.863281 406.269531 13.695312 L 406.269531 15.265625 C 405.933594 14.808594 405.542969 14.367188 405.085938 13.949219 "/>
</g>
</svg>
