<?xml version="1.0" encoding="UTF-8"?>
<svg xmlns="http://www.w3.org/2000/svg" xmlns:xlink="http://www.w3.org/1999/xlink" width="427.999pt" height="386.194pt" viewBox="0 0 427.999 386.194" version="1.1">
<defs>
<filter id="alpha" filterUnits="objectBoundingBox" x="0%" y="0%" width="100%" height="100%">
  <feColorMatrix type="matrix" in="SourceGraphic" values="0 0 0 0 1 0 0 0 0 1 0 0 0 0 1 0 0 0 1 0"/>
</filter>
<mask id="mask0">
  <g filter="url(#alpha)">
<rect x="0" y="0" width="427.999" height="386.194" style="fill:rgb(0%,0%,0%);fill-opacity:0.5;stroke:none;"/>
  </g>
</mask>
<clipPath id="clip2">
  <path d="M 0.15625 0.109375 L 200.488281 0.109375 L 200.488281 200.441406 L 0.15625 200.441406 Z M 0.15625 0.109375 "/>
</clipPath>
<clipPath id="clip1">
  <rect x="0" y="0" width="201" height="201"/>
</clipPath>
<g id="surface6" clip-path="url(#clip1)">
<g clip-path="url(#clip2)" clip-rule="nonzero">
<path style=" stroke:none;fill-rule:evenodd;fill:rgb(100%,100%,20%);fill-opacity:0.4;" d="M 100.324219 200.066406 L 0.53125 200.066406 L 0.53125 0.484375 L 200.113281 0.484375 L 200.113281 200.066406 Z M 100.324219 200.066406 "/>
</g>
</g>
</defs>
<g id="surface1">
<use xlink:href="#surface6" transform="matrix(1,0,0,1,215,13)" mask="url(#mask0)"/>
<path style="fill:none;stroke-width:2.292;stroke-linecap:butt;stroke-linejoin:round;stroke:rgb(100%,100%,100%);stroke-opacity:1;stroke-miterlimit:10;" d="M -0.000726391 -0.000795147 L 266.398711 -0.000795147 " transform="matrix(1.498352,0,0,-1.498352,3.215932,213.065215)"/>
<path style=" stroke:none;fill-rule:evenodd;fill:rgb(100%,100%,100%);fill-opacity:1;" d="M 428 213.066406 L 401.179688 204.226562 L 401.179688 222.054688 Z M 428 213.066406 "/>
<path style="fill:none;stroke-width:2.292;stroke-linecap:butt;stroke-linejoin:round;stroke:rgb(100%,100%,100%);stroke-opacity:1;stroke-miterlimit:10;" d="M -0.000784001 0.00118829 L -0.000784001 238.500182 " transform="matrix(1.498352,0,0,-1.498352,215.532425,382.978343)"/>
<path style=" stroke:none;fill-rule:evenodd;fill:rgb(100%,100%,100%);fill-opacity:1;" d="M 215.53125 0 L 206.691406 26.820312 L 224.523438 26.820312 Z M 215.53125 0 "/>
</g>
</svg>
