<?xml version="1.0" encoding="UTF-8"?>
<svg xmlns="http://www.w3.org/2000/svg" xmlns:xlink="http://www.w3.org/1999/xlink" width="584.522pt" height="280pt" viewBox="0 0 584.522 280" version="1.1">
<g id="surface1">
<path style=" stroke:none;fill-rule:nonzero;fill:rgb(100%,100%,100%);fill-opacity:1;" d="M 91.15625 99.628906 C 120.667969 141.050781 149.433594 169.144531 177.03125 186.867188 C 204.632812 204.589844 231.050781 211.957031 255.988281 211.960938 C 287.71875 211.960938 317.113281 200.007812 343.402344 182 C 382.828125 154.996094 415.175781 114.378906 437.632812 80.515625 C 448.863281 63.585938 457.621094 48.34375 463.570312 37.339844 C 466.546875 31.835938 468.816406 27.394531 470.34375 24.332031 C 471.109375 22.796875 471.6875 21.609375 472.074219 20.804688 C 472.265625 20.40625 472.410156 20.097656 472.507812 19.894531 C 472.605469 19.691406 472.652344 19.589844 472.652344 19.589844 L 474.792969 20.582031 C 474.765625 20.632812 452.339844 68.960938 413.828125 117.347656 C 394.570312 141.539062 371.289062 165.753906 344.734375 183.949219 C 318.183594 202.136719 288.324219 214.320312 255.988281 214.320312 C 230.578125 214.324219 203.675781 206.789062 175.753906 188.855469 C 147.828125 170.917969 118.871094 142.597656 89.234375 101 Z M 91.15625 99.628906 "/>
<path style=" stroke:none;fill-rule:nonzero;fill:rgb(100%,100%,100%);fill-opacity:1;" d="M 125.664062 143.679688 L 130.226562 142.734375 L 130.707031 145.046875 L 126.144531 145.988281 "/>
<path style=" stroke:none;fill-rule:nonzero;fill:rgb(100%,100%,100%);fill-opacity:1;" d="M 134.789062 141.789062 L 139.351562 140.847656 L 139.828125 143.15625 L 135.269531 144.101562 "/>
<path style=" stroke:none;fill-rule:nonzero;fill:rgb(100%,100%,100%);fill-opacity:1;" d="M 143.914062 139.746094 L 148.476562 138.800781 L 148.953125 141.113281 L 144.390625 142.054688 "/>
<path style=" stroke:none;fill-rule:nonzero;fill:rgb(100%,100%,100%);fill-opacity:1;" d="M 153.039062 137.859375 L 157.601562 136.914062 L 158.078125 139.222656 L 153.515625 140.167969 "/>
<path style=" stroke:none;fill-rule:nonzero;fill:rgb(100%,100%,100%);fill-opacity:1;" d="M 162.125 135.976562 L 166.6875 134.878906 L 167.238281 137.171875 L 162.679688 138.273438 "/>
<path style=" stroke:none;fill-rule:nonzero;fill:rgb(100%,100%,100%);fill-opacity:1;" d="M 171.285156 133.925781 L 175.847656 132.980469 L 176.324219 135.292969 L 171.765625 136.234375 "/>
<path style=" stroke:none;fill-rule:nonzero;fill:rgb(100%,100%,100%);fill-opacity:1;" d="M 180.253906 132.035156 L 184.816406 131.09375 L 185.292969 133.402344 L 180.730469 134.347656 "/>
<path style=" stroke:none;fill-rule:nonzero;fill:rgb(100%,100%,100%);fill-opacity:1;" d="M 189.339844 130.15625 L 193.902344 129.058594 L 194.457031 131.351562 L 189.894531 132.453125 "/>
<path style=" stroke:none;fill-rule:nonzero;fill:rgb(100%,100%,100%);fill-opacity:1;" d="M 198.5 128.105469 L 203.0625 127.160156 L 203.539062 129.472656 L 198.980469 130.414062 "/>
<path style=" stroke:none;fill-rule:nonzero;fill:rgb(100%,100%,100%);fill-opacity:1;" d="M 207.585938 126.226562 L 212.148438 125.125 L 212.703125 127.417969 L 208.140625 128.519531 "/>
<path style=" stroke:none;fill-rule:nonzero;fill:rgb(100%,100%,100%);fill-opacity:1;" d="M 216.75 124.171875 L 221.3125 123.226562 L 221.789062 125.539062 L 217.226562 126.480469 "/>
<path style=" stroke:none;fill-rule:nonzero;fill:rgb(100%,100%,100%);fill-opacity:1;" d="M 225.875 122.285156 L 230.433594 121.339844 L 230.914062 123.652344 L 226.351562 124.59375 "/>
<path style=" stroke:none;fill-rule:nonzero;fill:rgb(100%,100%,100%);fill-opacity:1;" d="M 234.960938 120.40625 L 239.523438 119.304688 L 240.074219 121.597656 L 235.511719 122.699219 "/>
<path style=" stroke:none;fill-rule:nonzero;fill:rgb(100%,100%,100%);fill-opacity:1;" d="M 244.113281 118.351562 L 248.519531 117.410156 L 249.011719 119.714844 L 244.605469 120.660156 "/>
<path style=" stroke:none;fill-rule:nonzero;fill:rgb(100%,100%,100%);fill-opacity:1;" d="M 253.246094 116.464844 L 257.808594 115.519531 L 258.285156 117.832031 L 253.722656 118.773438 "/>
<path style=" stroke:none;fill-rule:nonzero;fill:rgb(100%,100%,100%);fill-opacity:1;" d="M 262.363281 114.417969 L 266.765625 113.476562 L 267.261719 115.78125 L 262.855469 116.726562 "/>
<path style=" stroke:none;fill-rule:nonzero;fill:rgb(100%,100%,100%);fill-opacity:1;" d="M 271.335938 112.53125 L 275.898438 111.585938 L 276.375 113.898438 L 271.816406 114.839844 "/>
<path style=" stroke:none;fill-rule:nonzero;fill:rgb(100%,100%,100%);fill-opacity:1;" d="M 280.460938 110.484375 L 285.023438 109.542969 L 285.5 111.851562 L 280.9375 112.796875 "/>
<path style=" stroke:none;fill-rule:nonzero;fill:rgb(100%,100%,100%);fill-opacity:1;" d="M 289.585938 108.597656 L 294.148438 107.652344 L 294.625 109.964844 L 290.0625 110.910156 "/>
<path style=" stroke:none;fill-rule:nonzero;fill:rgb(100%,100%,100%);fill-opacity:1;" d="M 298.707031 106.710938 L 303.269531 105.765625 L 303.75 108.078125 L 299.1875 109.019531 "/>
<path style=" stroke:none;fill-rule:nonzero;fill:rgb(100%,100%,100%);fill-opacity:1;" d="M 307.832031 104.664062 L 312.394531 103.71875 L 312.871094 106.03125 L 308.3125 106.976562 "/>
<path style=" stroke:none;fill-rule:nonzero;fill:rgb(100%,100%,100%);fill-opacity:1;" d="M 316.957031 102.777344 L 321.519531 101.832031 L 321.996094 104.144531 L 317.433594 105.089844 "/>
<path style=" stroke:none;fill-rule:nonzero;fill:rgb(100%,100%,100%);fill-opacity:1;" d="M 326.074219 100.734375 L 330.476562 99.789062 L 330.972656 102.097656 L 326.566406 103.039062 "/>
<path style=" stroke:none;fill-rule:nonzero;fill:rgb(100%,100%,100%);fill-opacity:1;" d="M 335.046875 98.84375 L 339.609375 97.898438 L 340.089844 100.210938 L 335.527344 101.15625 "/>
<path style=" stroke:none;fill-rule:nonzero;fill:rgb(100%,100%,100%);fill-opacity:1;" d="M 344.132812 96.964844 L 348.695312 95.863281 L 349.25 98.15625 L 344.6875 99.257812 "/>
<path style=" stroke:none;fill-rule:nonzero;fill:rgb(100%,100%,100%);fill-opacity:1;" d="M 353.296875 94.910156 L 357.859375 93.96875 L 358.335938 96.277344 L 353.773438 97.222656 "/>
<path style=" stroke:none;fill-rule:nonzero;fill:rgb(100%,100%,100%);fill-opacity:1;" d="M 362.421875 93.023438 L 366.980469 92.078125 L 367.460938 94.390625 L 362.898438 95.335938 "/>
<path style=" stroke:none;fill-rule:nonzero;fill:rgb(100%,100%,100%);fill-opacity:1;" d="M 371.507812 91.144531 L 376.070312 90.042969 L 376.621094 92.335938 L 372.058594 93.4375 "/>
<path style=" stroke:none;fill-rule:nonzero;fill:rgb(100%,100%,100%);fill-opacity:1;" d="M 380.667969 89.089844 L 385.230469 88.148438 L 385.707031 90.457031 L 381.144531 91.402344 "/>
<path style=" stroke:none;fill-rule:nonzero;fill:rgb(100%,100%,100%);fill-opacity:1;" d="M 389.753906 87.210938 L 394.316406 86.109375 L 394.871094 88.40625 L 390.308594 89.503906 "/>
<path style=" stroke:none;fill-rule:nonzero;fill:rgb(100%,100%,100%);fill-opacity:1;" d="M 398.917969 85.15625 L 403.476562 84.214844 L 403.957031 86.523438 L 399.394531 87.46875 "/>
<path style=" stroke:none;fill-rule:nonzero;fill:rgb(100%,100%,100%);fill-opacity:1;" d="M 408.03125 83.273438 L 412.4375 82.328125 L 412.929688 84.636719 L 408.527344 85.578125 "/>
<path style=" stroke:none;fill-rule:nonzero;fill:rgb(100%,100%,100%);fill-opacity:1;" d="M 417.007812 81.226562 L 421.570312 80.28125 L 422.046875 82.59375 L 417.484375 83.535156 "/>
<path style=" stroke:none;fill-rule:nonzero;fill:rgb(100%,100%,100%);fill-opacity:1;" d="M 426.132812 79.335938 L 430.695312 78.394531 L 431.171875 80.703125 L 426.609375 81.648438 "/>
<path style=" stroke:none;fill-rule:nonzero;fill:rgb(100%,100%,100%);fill-opacity:1;" d="M 435.222656 77.457031 L 437.898438 76.828125 L 438.4375 79.125 L 435.765625 79.753906 "/>
<path style=" stroke:none;fill-rule:evenodd;fill:rgb(0%,0%,0%);fill-opacity:1;" d="M 123.703125 136.496094 C 127.476562 136.496094 130.464844 139.484375 130.464844 143.261719 C 130.464844 147.035156 127.476562 149.867188 123.703125 149.867188 C 119.925781 149.867188 117.09375 147.035156 117.09375 143.261719 C 117.09375 139.484375 119.925781 136.496094 123.703125 136.496094 "/>
<path style=" stroke:none;fill-rule:nonzero;fill:rgb(100%,100%,100%);fill-opacity:1;" d="M 123.703125 136.496094 L 123.703125 135.316406 C 125.90625 135.316406 127.902344 136.191406 129.335938 137.628906 C 130.769531 139.0625 131.648438 141.058594 131.644531 143.261719 C 131.648438 145.460938 130.765625 147.433594 129.320312 148.828125 C 127.878906 150.222656 125.886719 151.050781 123.703125 151.046875 C 121.519531 151.050781 119.550781 150.21875 118.148438 148.8125 C 116.746094 147.414062 115.914062 145.445312 115.914062 143.261719 C 115.914062 141.078125 116.738281 139.082031 118.136719 137.640625 C 119.527344 136.199219 121.5 135.3125 123.703125 135.316406 L 123.703125 137.675781 C 122.128906 137.679688 120.796875 138.289062 119.832031 139.28125 C 118.867188 140.28125 118.277344 141.667969 118.273438 143.261719 C 118.277344 144.851562 118.863281 146.1875 119.816406 147.144531 C 120.773438 148.101562 122.109375 148.683594 123.703125 148.6875 C 125.292969 148.6875 126.683594 148.097656 127.679688 147.132812 C 128.675781 146.164062 129.285156 144.832031 129.289062 143.261719 C 129.285156 141.6875 128.667969 140.304688 127.667969 139.296875 C 126.660156 138.292969 125.277344 137.675781 123.703125 137.675781 Z M 123.703125 136.496094 "/>
<path style=" stroke:none;fill-rule:nonzero;fill:rgb(100%,100%,100%);fill-opacity:1;" d="M 11.90625 184.042969 L 12.164062 184.042969 L 12.308594 183.957031 L 12.386719 183.804688 C 12.386719 183.707031 12.359375 183.632812 12.304688 183.578125 C 9.117188 180.582031 7.523438 176.203125 7.523438 170.4375 C 7.523438 169.132812 7.605469 167.882812 7.769531 166.683594 C 7.933594 165.480469 8.203125 164.320312 8.574219 163.199219 C 8.945312 162.082031 9.433594 161.023438 10.042969 160.03125 C 10.652344 159.039062 11.414062 158.109375 12.332031 157.242188 L 12.386719 157.066406 L 12.316406 156.902344 L 12.164062 156.828125 L 11.90625 156.828125 C 11.8125 156.828125 11.769531 156.847656 11.769531 156.882812 C 10.75 157.652344 9.863281 158.550781 9.101562 159.578125 C 8.34375 160.605469 7.71875 161.710938 7.226562 162.886719 C 6.738281 164.066406 6.371094 165.292969 6.136719 166.570312 C 5.898438 167.84375 5.777344 169.132812 5.777344 170.4375 C 5.777344 171.71875 5.898438 173 6.136719 174.277344 C 6.371094 175.550781 6.734375 176.773438 7.214844 177.945312 C 7.695312 179.113281 8.3125 180.214844 9.066406 181.246094 C 9.824219 182.277344 10.722656 183.191406 11.769531 183.992188 C 11.769531 184.023438 11.8125 184.042969 11.90625 184.042969 "/>
<path style=" stroke:none;fill-rule:nonzero;fill:rgb(100%,100%,100%);fill-opacity:1;" d="M 19.824219 177.238281 L 19.824219 175.859375 C 19.652344 175.859375 19.429688 175.835938 19.160156 175.792969 C 18.890625 175.746094 18.753906 175.695312 18.753906 175.632812 L 21.566406 172.535156 L 24.460938 175.859375 L 23.417969 175.859375 L 23.417969 177.238281 L 30.042969 177.238281 L 30.042969 175.859375 L 27.945312 175.859375 L 23.390625 170.542969 L 26.820312 166.792969 C 26.984375 166.625 27.863281 166.542969 29.453125 166.542969 L 29.453125 165.160156 L 23.84375 165.160156 L 23.84375 166.542969 C 24.007812 166.542969 24.222656 166.5625 24.496094 166.59375 C 24.765625 166.632812 24.898438 166.6875 24.898438 166.769531 L 22.457031 169.453125 L 19.933594 166.542969 L 20.949219 166.542969 L 20.949219 165.160156 L 14.339844 165.160156 L 14.339844 166.542969 L 16.421875 166.542969 L 20.632812 171.445312 L 16.847656 175.605469 C 16.675781 175.773438 15.792969 175.859375 14.203125 175.859375 L 14.203125 177.238281 Z M 19.824219 177.238281 "/>
<path style=" stroke:none;fill-rule:nonzero;fill:rgb(100%,100%,100%);fill-opacity:1;" d="M 33.332031 182.394531 C 33.421875 182.476562 33.511719 182.515625 33.605469 182.515625 L 33.78125 182.460938 C 34.539062 181.734375 35.125 180.917969 35.539062 180.011719 C 35.957031 179.101562 36.164062 178.144531 36.164062 177.132812 C 36.164062 176.40625 36.023438 175.746094 35.738281 175.148438 C 35.457031 174.546875 34.980469 174.25 34.316406 174.25 C 33.886719 174.25 33.523438 174.390625 33.222656 174.675781 C 32.921875 174.957031 32.769531 175.3125 32.769531 175.738281 C 32.769531 176.15625 32.921875 176.507812 33.222656 176.800781 C 33.523438 177.09375 33.886719 177.238281 34.316406 177.238281 C 34.761719 177.238281 35.136719 177.09375 35.4375 176.800781 L 35.4375 177.132812 C 35.4375 178.046875 35.25 178.914062 34.875 179.738281 C 34.503906 180.5625 33.980469 181.289062 33.304688 181.917969 L 33.195312 182.144531 C 33.195312 182.230469 33.238281 182.316406 33.332031 182.394531 "/>
<path style=" stroke:none;fill-rule:nonzero;fill:rgb(100%,100%,100%);fill-opacity:1;" d="M 56.351562 181.246094 C 56.648438 180.921875 56.796875 180.566406 56.796875 180.175781 C 56.796875 179.882812 56.691406 179.648438 56.480469 179.464844 C 56.269531 179.285156 56.007812 179.191406 55.695312 179.191406 C 55.230469 179.191406 54.839844 179.363281 54.535156 179.707031 C 54.226562 180.046875 54.074219 180.445312 54.074219 180.90625 C 54.074219 181.484375 54.324219 181.945312 54.820312 182.296875 C 55.316406 182.644531 55.878906 182.820312 56.511719 182.820312 C 57.332031 182.820312 58.042969 182.464844 58.644531 181.757812 C 59.246094 181.050781 59.742188 180.171875 60.128906 179.121094 C 60.519531 178.070312 60.820312 177.046875 61.035156 176.050781 C 61.25 175.054688 61.4375 174.074219 61.601562 173.105469 L 62.902344 166.464844 L 65.902344 166.464844 L 66.085938 166.363281 C 66.136719 166.296875 66.175781 166.207031 66.203125 166.097656 C 66.230469 165.988281 66.246094 165.910156 66.257812 165.863281 C 66.257812 165.625 66.164062 165.507812 65.984375 165.507812 L 63.089844 165.507812 L 63.433594 163.710938 C 63.835938 161.671875 64.09375 160.425781 64.214844 159.964844 C 64.289062 159.671875 64.449219 159.394531 64.703125 159.136719 C 64.953125 158.882812 65.21875 158.753906 65.503906 158.753906 C 66.015625 158.753906 66.445312 158.882812 66.792969 159.136719 C 66.378906 159.179688 66.035156 159.351562 65.753906 159.648438 C 65.476562 159.941406 65.335938 160.289062 65.335938 160.6875 C 65.335938 160.976562 65.441406 161.214844 65.65625 161.394531 C 65.875 161.574219 66.132812 161.667969 66.433594 161.667969 C 66.882812 161.667969 67.265625 161.496094 67.582031 161.15625 C 67.898438 160.816406 68.058594 160.417969 68.058594 159.957031 C 68.058594 159.5625 67.933594 159.214844 67.6875 158.925781 C 67.441406 158.632812 67.125 158.414062 66.734375 158.269531 C 66.347656 158.125 65.949219 158.050781 65.539062 158.050781 C 64.90625 158.050781 64.320312 158.242188 63.777344 158.628906 C 63.234375 159.015625 62.800781 159.503906 62.484375 160.097656 C 62.273438 160.515625 62.117188 160.890625 62.011719 161.226562 C 61.90625 161.5625 61.808594 161.929688 61.714844 162.324219 C 61.625 162.71875 61.523438 163.1875 61.414062 163.738281 L 61.085938 165.507812 L 58.589844 165.507812 C 58.425781 165.507812 58.304688 165.707031 58.234375 166.105469 C 58.234375 166.34375 58.324219 166.464844 58.507812 166.464844 L 60.910156 166.464844 L 59.621094 173.132812 C 58.847656 176.996094 58.371094 179.273438 58.199219 179.964844 C 57.78125 181.398438 57.238281 182.117188 56.570312 182.117188 C 56.078125 182.117188 55.65625 181.988281 55.3125 181.730469 C 55.707031 181.730469 56.050781 181.570312 56.351562 181.246094 "/>
<path style=" stroke:none;fill-rule:nonzero;fill:rgb(100%,100%,100%);fill-opacity:1;" d="M 78.289062 184.042969 L 78.550781 184.042969 L 78.695312 183.957031 L 78.773438 183.804688 C 78.773438 183.707031 78.742188 183.632812 78.6875 183.578125 C 75.5 180.582031 73.910156 176.203125 73.910156 170.4375 C 73.910156 169.132812 73.992188 167.882812 74.15625 166.683594 C 74.320312 165.480469 74.589844 164.320312 74.960938 163.199219 C 75.332031 162.082031 75.820312 161.023438 76.429688 160.03125 C 77.039062 159.039062 77.800781 158.109375 78.714844 157.242188 L 78.773438 157.066406 L 78.703125 156.902344 L 78.550781 156.828125 L 78.289062 156.828125 C 78.199219 156.828125 78.152344 156.847656 78.152344 156.882812 C 77.136719 157.652344 76.25 158.550781 75.488281 159.578125 C 74.726562 160.605469 74.101562 161.710938 73.613281 162.886719 C 73.121094 164.066406 72.757812 165.292969 72.519531 166.570312 C 72.28125 167.84375 72.164062 169.132812 72.164062 170.4375 C 72.164062 171.71875 72.28125 173 72.519531 174.277344 C 72.757812 175.550781 73.117188 176.773438 73.597656 177.945312 C 74.078125 179.113281 74.699219 180.214844 75.453125 181.246094 C 76.210938 182.277344 77.109375 183.191406 78.152344 183.992188 C 78.152344 184.023438 78.199219 184.042969 78.289062 184.042969 "/>
<path style=" stroke:none;fill-rule:nonzero;fill:rgb(100%,100%,100%);fill-opacity:1;" d="M 86.683594 177.238281 L 86.683594 175.859375 C 86.507812 175.859375 86.285156 175.835938 86.015625 175.792969 C 85.746094 175.746094 85.613281 175.695312 85.613281 175.632812 L 88.425781 172.535156 L 91.316406 175.859375 L 90.277344 175.859375 L 90.277344 177.238281 L 96.898438 177.238281 L 96.898438 175.859375 L 94.800781 175.859375 L 90.25 170.542969 L 93.675781 166.792969 C 93.84375 166.625 94.71875 166.542969 96.308594 166.542969 L 96.308594 165.160156 L 90.699219 165.160156 L 90.699219 166.542969 C 90.863281 166.542969 91.082031 166.5625 91.351562 166.59375 C 91.621094 166.632812 91.757812 166.6875 91.757812 166.769531 L 89.316406 169.453125 L 86.792969 166.542969 L 87.808594 166.542969 L 87.808594 165.160156 L 81.195312 165.160156 L 81.195312 166.542969 L 83.28125 166.542969 L 87.492188 171.445312 L 83.707031 175.605469 C 83.53125 175.773438 82.648438 175.859375 81.058594 175.859375 L 81.058594 177.238281 Z M 86.683594 177.238281 "/>
<path style=" stroke:none;fill-rule:nonzero;fill:rgb(100%,100%,100%);fill-opacity:1;" d="M 99.203125 184.042969 L 99.339844 183.992188 C 100.386719 183.191406 101.285156 182.28125 102.035156 181.257812 C 102.785156 180.234375 103.40625 179.121094 103.894531 177.910156 C 104.386719 176.703125 104.742188 175.472656 104.96875 174.230469 C 105.191406 172.984375 105.304688 171.71875 105.304688 170.4375 C 105.304688 168.699219 105.09375 167 104.679688 165.332031 C 104.261719 163.667969 103.605469 162.101562 102.707031 160.628906 C 101.808594 159.160156 100.6875 157.910156 99.339844 156.882812 L 99.203125 156.828125 L 98.945312 156.828125 L 98.773438 156.902344 L 98.695312 157.066406 C 98.695312 157.175781 98.734375 157.25 98.804688 157.292969 C 101.972656 160.289062 103.558594 164.667969 103.558594 170.4375 C 103.558594 176.203125 101.957031 180.601562 98.75 183.632812 L 98.695312 183.804688 C 98.695312 183.964844 98.777344 184.042969 98.945312 184.042969 Z M 99.203125 184.042969 "/>
<path style=" stroke:none;fill-rule:nonzero;fill:rgb(100%,100%,100%);fill-opacity:1;" d="M 109.902344 184.042969 L 110.039062 183.992188 C 111.082031 183.191406 111.980469 182.28125 112.730469 181.257812 C 113.484375 180.234375 114.101562 179.121094 114.59375 177.910156 C 115.082031 176.703125 115.441406 175.472656 115.664062 174.230469 C 115.890625 172.984375 116.003906 171.71875 116.003906 170.4375 C 116.003906 168.699219 115.792969 167 115.378906 165.332031 C 114.960938 163.667969 114.304688 162.101562 113.40625 160.628906 C 112.507812 159.160156 111.386719 157.910156 110.039062 156.882812 L 109.902344 156.828125 L 109.640625 156.828125 L 109.46875 156.902344 L 109.394531 157.066406 C 109.394531 157.175781 109.429688 157.25 109.503906 157.292969 C 112.671875 160.289062 114.257812 164.667969 114.257812 170.4375 C 114.257812 176.203125 112.65625 180.601562 109.449219 183.632812 L 109.394531 183.804688 C 109.394531 183.964844 109.476562 184.042969 109.640625 184.042969 Z M 109.902344 184.042969 "/>
<path style=" stroke:none;fill-rule:evenodd;fill:rgb(0%,0%,0%);fill-opacity:1;" d="M 440.371094 69.007812 C 444.144531 69.007812 446.976562 72 446.976562 75.773438 C 446.976562 79.550781 444.144531 82.382812 440.371094 82.382812 C 436.59375 82.382812 433.605469 79.550781 433.605469 75.773438 C 433.605469 72 436.59375 69.007812 440.371094 69.007812 "/>
<path style=" stroke:none;fill-rule:nonzero;fill:rgb(100%,100%,100%);fill-opacity:1;" d="M 440.371094 69.007812 L 440.371094 67.828125 C 442.574219 67.824219 444.546875 68.710938 445.9375 70.15625 C 447.335938 71.597656 448.160156 73.589844 448.160156 75.773438 C 448.160156 77.957031 447.328125 79.925781 445.925781 81.328125 C 444.523438 82.730469 442.554688 83.5625 440.371094 83.558594 C 438.1875 83.5625 436.191406 82.738281 434.753906 81.339844 C 433.308594 79.949219 432.425781 77.976562 432.425781 75.773438 C 432.425781 73.570312 433.304688 71.574219 434.738281 70.140625 C 436.171875 68.707031 438.167969 67.828125 440.371094 67.828125 L 440.371094 70.1875 C 438.796875 70.191406 437.414062 70.804688 436.40625 71.808594 C 435.40625 72.816406 434.789062 74.199219 434.785156 75.773438 C 434.789062 77.347656 435.398438 78.675781 436.394531 79.644531 C 437.390625 80.609375 438.78125 81.199219 440.371094 81.199219 C 441.964844 81.199219 443.296875 80.613281 444.257812 79.660156 C 445.210938 78.699219 445.796875 77.367188 445.796875 75.773438 C 445.796875 74.183594 445.207031 72.792969 444.242188 71.796875 C 443.273438 70.800781 441.945312 70.191406 440.371094 70.1875 Z M 440.371094 69.007812 "/>
<path style=" stroke:none;fill-rule:nonzero;fill:rgb(100%,100%,100%);fill-opacity:1;" d="M 464.492188 121.589844 L 464.753906 121.589844 L 464.898438 121.503906 L 464.972656 121.351562 C 464.972656 121.253906 464.945312 121.179688 464.890625 121.125 C 461.703125 118.128906 460.109375 113.75 460.109375 107.984375 C 460.109375 106.679688 460.191406 105.429688 460.355469 104.230469 C 460.523438 103.027344 460.789062 101.867188 461.160156 100.746094 C 461.53125 99.628906 462.019531 98.570312 462.628906 97.578125 C 463.238281 96.585938 464 95.65625 464.917969 94.789062 L 464.972656 94.617188 L 464.902344 94.449219 L 464.753906 94.375 L 464.492188 94.375 C 464.398438 94.375 464.355469 94.394531 464.355469 94.429688 C 463.335938 95.199219 462.449219 96.097656 461.6875 97.125 C 460.929688 98.15625 460.304688 99.257812 459.8125 100.433594 C 459.324219 101.613281 458.960938 102.839844 458.722656 104.117188 C 458.484375 105.390625 458.363281 106.679688 458.363281 107.984375 C 458.363281 109.265625 458.484375 110.546875 458.722656 111.824219 C 458.960938 113.097656 459.320312 114.320312 459.800781 115.492188 C 460.28125 116.660156 460.898438 117.761719 461.65625 118.792969 C 462.410156 119.824219 463.308594 120.742188 464.355469 121.539062 C 464.355469 121.574219 464.398438 121.589844 464.492188 121.589844 "/>
<path style=" stroke:none;fill-rule:nonzero;fill:rgb(100%,100%,100%);fill-opacity:1;" d="M 467.855469 119.503906 C 468.464844 119.992188 469.15625 120.234375 469.921875 120.234375 C 470.9375 120.234375 471.863281 119.910156 472.703125 119.265625 C 473.539062 118.617188 474.175781 117.824219 474.617188 116.886719 L 480.652344 104.316406 C 480.789062 104.164062 481.445312 104.089844 482.621094 104.089844 L 482.621094 102.707031 L 477.738281 102.707031 L 477.738281 104.089844 C 478.019531 104.089844 478.316406 104.105469 478.628906 104.136719 C 478.9375 104.167969 479.09375 104.226562 479.09375 104.316406 L 475.800781 111.171875 L 472.390625 104.089844 L 473.863281 104.089844 L 473.863281 102.707031 L 467.054688 102.707031 L 467.054688 104.089844 L 468.90625 104.089844 L 474.054688 114.789062 L 473.039062 116.886719 C 472.746094 117.523438 472.324219 118.058594 471.769531 118.496094 C 471.214844 118.929688 470.597656 119.144531 469.921875 119.144531 C 469.820312 119.144531 469.671875 119.128906 469.46875 119.09375 C 470.015625 118.78125 470.292969 118.300781 470.292969 117.644531 C 470.292969 117.191406 470.132812 116.8125 469.8125 116.5 C 469.492188 116.191406 469.097656 116.035156 468.632812 116.035156 C 468.148438 116.035156 467.746094 116.191406 467.425781 116.5 C 467.105469 116.8125 466.945312 117.191406 466.945312 117.644531 C 466.945312 118.394531 467.25 119.015625 467.855469 119.503906 "/>
<path style=" stroke:none;fill-rule:nonzero;fill:rgb(100%,100%,100%);fill-opacity:1;" d="M 486.230469 119.941406 C 486.324219 120.023438 486.414062 120.0625 486.507812 120.0625 L 486.683594 120.007812 C 487.441406 119.28125 488.027344 118.464844 488.441406 117.558594 C 488.855469 116.648438 489.0625 115.691406 489.0625 114.679688 C 489.0625 113.953125 488.921875 113.292969 488.640625 112.695312 C 488.355469 112.097656 487.882812 111.796875 487.21875 111.796875 C 486.789062 111.796875 486.425781 111.9375 486.121094 112.222656 C 485.820312 112.503906 485.671875 112.859375 485.671875 113.285156 C 485.671875 113.703125 485.820312 114.054688 486.121094 114.347656 C 486.425781 114.640625 486.789062 114.785156 487.21875 114.785156 C 487.664062 114.785156 488.039062 114.640625 488.339844 114.347656 L 488.339844 114.679688 C 488.339844 115.59375 488.152344 116.460938 487.777344 117.285156 C 487.402344 118.109375 486.878906 118.835938 486.203125 119.464844 L 486.09375 119.691406 C 486.09375 119.777344 486.140625 119.863281 486.230469 119.941406 "/>
<path style=" stroke:none;fill-rule:nonzero;fill:rgb(100%,100%,100%);fill-opacity:1;" d="M 509.566406 118.792969 C 509.863281 118.46875 510.015625 118.113281 510.015625 117.722656 C 510.015625 117.429688 509.90625 117.195312 509.699219 117.011719 C 509.488281 116.832031 509.226562 116.742188 508.914062 116.742188 C 508.445312 116.742188 508.058594 116.910156 507.75 117.253906 C 507.445312 117.59375 507.289062 117.992188 507.289062 118.453125 C 507.289062 119.03125 507.539062 119.492188 508.035156 119.84375 C 508.535156 120.191406 509.097656 120.367188 509.726562 120.367188 C 510.550781 120.367188 511.261719 120.011719 511.863281 119.304688 C 512.464844 118.597656 512.960938 117.71875 513.347656 116.667969 C 513.734375 115.617188 514.035156 114.59375 514.25 113.597656 C 514.464844 112.601562 514.65625 111.621094 514.820312 110.65625 L 516.121094 104.011719 L 519.117188 104.011719 L 519.304688 103.910156 C 519.351562 103.84375 519.390625 103.753906 519.417969 103.644531 C 519.445312 103.535156 519.464844 103.457031 519.472656 103.414062 C 519.472656 103.171875 519.382812 103.054688 519.199219 103.054688 L 516.308594 103.054688 L 516.652344 101.257812 C 517.054688 99.21875 517.3125 97.972656 517.433594 97.511719 C 517.503906 97.21875 517.667969 96.941406 517.917969 96.683594 C 518.167969 96.429688 518.4375 96.300781 518.722656 96.300781 C 519.234375 96.300781 519.660156 96.429688 520.011719 96.683594 C 519.597656 96.726562 519.25 96.898438 518.972656 97.195312 C 518.691406 97.488281 518.550781 97.835938 518.550781 98.234375 C 518.550781 98.523438 518.660156 98.761719 518.875 98.941406 C 519.089844 99.121094 519.351562 99.214844 519.652344 99.214844 C 520.101562 99.214844 520.484375 99.042969 520.800781 98.703125 C 521.117188 98.363281 521.273438 97.964844 521.273438 97.503906 C 521.273438 97.109375 521.152344 96.761719 520.90625 96.472656 C 520.660156 96.179688 520.339844 95.960938 519.953125 95.816406 C 519.566406 95.671875 519.164062 95.597656 518.753906 95.597656 C 518.125 95.597656 517.539062 95.792969 516.996094 96.175781 C 516.453125 96.5625 516.019531 97.050781 515.699219 97.644531 C 515.492188 98.0625 515.332031 98.4375 515.226562 98.773438 C 515.121094 99.109375 515.023438 99.476562 514.933594 99.871094 C 514.84375 100.265625 514.742188 100.734375 514.632812 101.285156 L 514.304688 103.054688 L 511.804688 103.054688 C 511.640625 103.054688 511.523438 103.253906 511.449219 103.652344 C 511.449219 103.890625 511.542969 104.011719 511.722656 104.011719 L 514.125 104.011719 L 512.839844 110.679688 C 512.0625 114.542969 511.589844 116.820312 511.414062 117.511719 C 510.996094 118.945312 510.453125 119.664062 509.789062 119.664062 C 509.292969 119.664062 508.875 119.535156 508.527344 119.277344 C 508.921875 119.277344 509.269531 119.117188 509.566406 118.792969 "/>
<path style=" stroke:none;fill-rule:nonzero;fill:rgb(100%,100%,100%);fill-opacity:1;" d="M 531.347656 121.589844 L 531.609375 121.589844 L 531.753906 121.503906 L 531.832031 121.351562 C 531.832031 121.253906 531.800781 121.179688 531.746094 121.125 C 528.558594 118.128906 526.96875 113.75 526.96875 107.984375 C 526.96875 106.679688 527.050781 105.429688 527.214844 104.230469 C 527.378906 103.027344 527.648438 101.867188 528.019531 100.746094 C 528.386719 99.628906 528.878906 98.570312 529.488281 97.578125 C 530.097656 96.585938 530.859375 95.65625 531.773438 94.789062 L 531.832031 94.617188 L 531.761719 94.449219 L 531.609375 94.375 L 531.347656 94.375 C 531.257812 94.375 531.210938 94.394531 531.210938 94.429688 C 530.195312 95.199219 529.308594 96.097656 528.546875 97.125 C 527.785156 98.15625 527.160156 99.257812 526.671875 100.433594 C 526.179688 101.613281 525.816406 102.839844 525.578125 104.117188 C 525.339844 105.390625 525.222656 106.679688 525.222656 107.984375 C 525.222656 109.265625 525.339844 110.546875 525.578125 111.824219 C 525.816406 113.097656 526.175781 114.320312 526.65625 115.492188 C 527.136719 116.660156 527.757812 117.761719 528.511719 118.792969 C 529.269531 119.824219 530.167969 120.742188 531.210938 121.539062 C 531.210938 121.574219 531.257812 121.589844 531.347656 121.589844 "/>
<path style=" stroke:none;fill-rule:nonzero;fill:rgb(100%,100%,100%);fill-opacity:1;" d="M 534.871094 119.503906 C 535.480469 119.992188 536.167969 120.234375 536.9375 120.234375 C 537.953125 120.234375 538.878906 119.910156 539.714844 119.265625 C 540.554688 118.617188 541.191406 117.824219 541.628906 116.886719 L 547.667969 104.316406 C 547.804688 104.164062 548.460938 104.089844 549.636719 104.089844 L 549.636719 102.707031 L 544.753906 102.707031 L 544.753906 104.089844 C 545.035156 104.089844 545.332031 104.105469 545.644531 104.136719 C 545.953125 104.167969 546.109375 104.226562 546.109375 104.316406 L 542.816406 111.171875 L 539.40625 104.089844 L 540.878906 104.089844 L 540.878906 102.707031 L 534.070312 102.707031 L 534.070312 104.089844 L 535.921875 104.089844 L 541.070312 114.789062 L 540.054688 116.886719 C 539.761719 117.523438 539.339844 118.058594 538.785156 118.496094 C 538.230469 118.929688 537.613281 119.144531 536.9375 119.144531 C 536.835938 119.144531 536.683594 119.128906 536.484375 119.09375 C 537.03125 118.78125 537.304688 118.300781 537.304688 117.644531 C 537.304688 117.191406 537.144531 116.8125 536.828125 116.5 C 536.507812 116.191406 536.113281 116.035156 535.648438 116.035156 C 535.164062 116.035156 534.761719 116.191406 534.441406 116.5 C 534.121094 116.8125 533.960938 117.191406 533.960938 117.644531 C 533.960938 118.394531 534.265625 119.015625 534.871094 119.503906 "/>
<path style=" stroke:none;fill-rule:nonzero;fill:rgb(100%,100%,100%);fill-opacity:1;" d="M 552.421875 121.589844 L 552.558594 121.539062 C 553.601562 120.742188 554.5 119.828125 555.25 118.804688 C 556 117.785156 556.621094 116.667969 557.113281 115.457031 C 557.601562 114.25 557.960938 113.023438 558.183594 111.777344 C 558.40625 110.53125 558.519531 109.265625 558.519531 107.984375 C 558.519531 106.246094 558.3125 104.546875 557.894531 102.878906 C 557.480469 101.214844 556.820312 99.648438 555.921875 98.175781 C 555.027344 96.707031 553.90625 95.457031 552.558594 94.429688 L 552.421875 94.375 L 552.160156 94.375 L 551.988281 94.449219 L 551.914062 94.617188 C 551.914062 94.722656 551.949219 94.796875 552.023438 94.839844 C 555.191406 97.835938 556.777344 102.214844 556.777344 107.984375 C 556.777344 113.75 555.171875 118.148438 551.96875 121.179688 L 551.914062 121.351562 C 551.914062 121.511719 551.996094 121.589844 552.160156 121.589844 Z M 552.421875 121.589844 "/>
<path style=" stroke:none;fill-rule:nonzero;fill:rgb(100%,100%,100%);fill-opacity:1;" d="M 563.277344 121.589844 L 563.414062 121.539062 C 564.457031 120.742188 565.355469 119.828125 566.105469 118.804688 C 566.855469 117.785156 567.476562 116.667969 567.96875 115.457031 C 568.457031 114.25 568.816406 113.023438 569.039062 111.777344 C 569.261719 110.53125 569.375 109.265625 569.375 107.984375 C 569.375 106.246094 569.167969 104.546875 568.75 102.878906 C 568.335938 101.214844 567.675781 99.648438 566.777344 98.175781 C 565.882812 96.707031 564.761719 95.457031 563.414062 94.429688 L 563.277344 94.375 L 563.015625 94.375 L 562.84375 94.449219 L 562.769531 94.617188 C 562.769531 94.722656 562.804688 94.796875 562.878906 94.839844 C 566.046875 97.835938 567.632812 102.214844 567.632812 107.984375 C 567.632812 113.75 566.027344 118.148438 562.824219 121.179688 L 562.769531 121.351562 C 562.769531 121.511719 562.851562 121.589844 563.015625 121.589844 Z M 563.277344 121.589844 "/>
<path style=" stroke:none;fill-rule:nonzero;fill:rgb(100%,100%,100%);fill-opacity:1;" d="M 348.480469 225.765625 C 348.777344 225.441406 348.925781 225.085938 348.925781 224.695312 C 348.925781 224.402344 348.820312 224.167969 348.609375 223.984375 C 348.398438 223.804688 348.136719 223.710938 347.828125 223.710938 C 347.359375 223.710938 346.972656 223.882812 346.664062 224.222656 C 346.355469 224.5625 346.203125 224.964844 346.203125 225.425781 C 346.203125 226.003906 346.453125 226.464844 346.949219 226.816406 C 347.445312 227.164062 348.011719 227.339844 348.640625 227.339844 C 349.460938 227.339844 350.171875 226.984375 350.773438 226.277344 C 351.378906 225.570312 351.875 224.6875 352.261719 223.640625 C 352.648438 222.589844 352.949219 221.566406 353.164062 220.570312 C 353.378906 219.574219 353.566406 218.59375 353.730469 217.625 L 355.03125 210.980469 L 358.03125 210.980469 L 358.214844 210.882812 C 358.265625 210.816406 358.304688 210.726562 358.332031 210.617188 C 358.359375 210.507812 358.375 210.429688 358.386719 210.382812 C 358.386719 210.144531 358.292969 210.027344 358.113281 210.027344 L 355.21875 210.027344 L 355.5625 208.230469 C 355.964844 206.191406 356.226562 204.945312 356.34375 204.480469 C 356.417969 204.1875 356.578125 203.914062 356.832031 203.65625 C 357.082031 203.402344 357.351562 203.273438 357.632812 203.273438 C 358.144531 203.273438 358.574219 203.402344 358.921875 203.65625 C 358.507812 203.699219 358.164062 203.871094 357.882812 204.167969 C 357.605469 204.460938 357.464844 204.808594 357.464844 205.207031 C 357.464844 205.496094 357.570312 205.730469 357.789062 205.914062 C 358.003906 206.09375 358.261719 206.183594 358.5625 206.183594 C 359.015625 206.183594 359.394531 206.015625 359.714844 205.675781 C 360.027344 205.335938 360.1875 204.9375 360.1875 204.476562 C 360.1875 204.082031 360.0625 203.734375 359.816406 203.445312 C 359.570312 203.152344 359.253906 202.933594 358.863281 202.789062 C 358.476562 202.644531 358.078125 202.570312 357.667969 202.570312 C 357.039062 202.570312 356.449219 202.761719 355.90625 203.148438 C 355.363281 203.535156 354.933594 204.023438 354.613281 204.617188 C 354.402344 205.035156 354.246094 205.410156 354.140625 205.746094 C 354.035156 206.082031 353.9375 206.449219 353.847656 206.84375 C 353.753906 207.238281 353.652344 207.707031 353.542969 208.257812 L 353.214844 210.027344 L 350.71875 210.027344 C 350.554688 210.027344 350.433594 210.222656 350.363281 210.625 C 350.363281 210.863281 350.453125 210.980469 350.636719 210.980469 L 353.039062 210.980469 L 351.753906 217.652344 C 350.976562 221.515625 350.5 223.792969 350.328125 224.484375 C 349.910156 225.917969 349.367188 226.636719 348.699219 226.636719 C 348.207031 226.636719 347.789062 226.507812 347.441406 226.25 C 347.835938 226.25 348.179688 226.089844 348.480469 225.765625 "/>
<path style=" stroke:none;fill-rule:nonzero;fill:rgb(100%,100%,100%);fill-opacity:1;" d="M 370.417969 228.5625 L 370.679688 228.5625 L 370.824219 228.476562 L 370.898438 228.324219 C 370.898438 228.226562 370.871094 228.152344 370.816406 228.097656 C 367.628906 225.101562 366.035156 220.722656 366.035156 214.957031 C 366.035156 213.652344 366.117188 212.402344 366.285156 211.203125 C 366.449219 210 366.71875 208.839844 367.089844 207.71875 C 367.457031 206.601562 367.949219 205.542969 368.558594 204.550781 C 369.164062 203.558594 369.929688 202.628906 370.84375 201.757812 L 370.898438 201.585938 L 370.832031 201.421875 L 370.679688 201.347656 L 370.417969 201.347656 C 370.328125 201.347656 370.28125 201.367188 370.28125 201.402344 C 369.265625 202.171875 368.375 203.070312 367.617188 204.097656 C 366.855469 205.125 366.230469 206.230469 365.742188 207.40625 C 365.25 208.585938 364.886719 209.8125 364.648438 211.089844 C 364.410156 212.363281 364.292969 213.652344 364.292969 214.957031 C 364.292969 216.238281 364.410156 217.519531 364.648438 218.796875 C 364.886719 220.070312 365.246094 221.292969 365.726562 222.464844 C 366.207031 223.632812 366.828125 224.734375 367.582031 225.765625 C 368.339844 226.796875 369.238281 227.710938 370.28125 228.507812 C 370.28125 228.542969 370.328125 228.5625 370.417969 228.5625 "/>
<path style=" stroke:none;fill-rule:nonzero;fill:rgb(100%,100%,100%);fill-opacity:1;" d="M 380.835938 221.457031 C 381.859375 221.050781 382.808594 220.484375 383.683594 219.753906 C 383.847656 220.4375 384.15625 220.996094 384.601562 221.421875 C 385.046875 221.851562 385.605469 222.066406 386.28125 222.066406 C 386.796875 222.066406 387.324219 221.851562 387.855469 221.429688 C 388.386719 221.007812 388.65625 220.566406 388.65625 220.113281 C 388.65625 219.933594 388.582031 219.84375 388.433594 219.84375 L 388.09375 219.84375 C 388.046875 219.855469 387.941406 220.003906 387.773438 220.296875 C 387.601562 220.589844 387.40625 220.835938 387.183594 221.035156 C 386.960938 221.234375 386.675781 221.332031 386.328125 221.332031 C 385.789062 221.332031 385.519531 220.210938 385.519531 217.960938 C 386.039062 217.378906 386.523438 216.726562 386.964844 216.011719 C 387.40625 215.296875 387.792969 214.554688 388.121094 213.789062 C 388.449219 213.023438 388.722656 212.222656 388.941406 211.390625 L 388.96875 211.3125 C 388.96875 211.144531 388.882812 211.0625 388.707031 211.0625 L 388.378906 211.0625 C 388.273438 211.0625 388.199219 211.117188 388.160156 211.222656 C 387.925781 212.210938 387.585938 213.167969 387.140625 214.09375 C 386.699219 215.019531 386.160156 215.910156 385.519531 216.769531 L 385.492188 214.949219 C 385.492188 214.039062 385.304688 213.183594 384.933594 212.382812 C 384.558594 211.582031 384.011719 210.9375 383.289062 210.457031 C 382.570312 209.972656 381.734375 209.734375 380.785156 209.734375 C 379.5 209.734375 378.269531 210.109375 377.097656 210.863281 C 375.925781 211.617188 374.988281 212.59375 374.28125 213.800781 C 373.574219 215.003906 373.21875 216.222656 373.21875 217.453125 C 373.21875 218.332031 373.40625 219.113281 373.78125 219.804688 C 374.15625 220.496094 374.6875 221.046875 375.378906 221.453125 C 376.066406 221.859375 376.855469 222.066406 377.742188 222.066406 C 378.78125 222.066406 379.8125 221.863281 380.835938 221.457031 M 376.003906 220.511719 C 375.589844 219.960938 375.382812 219.292969 375.382812 218.507812 C 375.382812 217.460938 375.589844 216.308594 376.003906 215.050781 C 376.421875 213.789062 377.039062 212.703125 377.863281 211.796875 C 378.683594 210.890625 379.644531 210.4375 380.742188 210.4375 C 382.570312 210.4375 383.484375 212.078125 383.484375 215.363281 L 383.484375 218.292969 C 383.484375 218.3125 383.492188 218.398438 383.507812 218.554688 C 383.527344 218.707031 383.539062 218.839844 383.550781 218.945312 C 381.714844 220.539062 379.792969 221.332031 377.792969 221.332031 C 377.015625 221.332031 376.421875 221.058594 376.003906 220.511719 "/>
<path style=" stroke:none;fill-rule:nonzero;fill:rgb(100%,100%,100%);fill-opacity:1;" d="M 396.253906 221.757812 L 396.253906 220.378906 C 396.082031 220.378906 395.859375 220.355469 395.589844 220.3125 C 395.324219 220.265625 395.1875 220.214844 395.1875 220.152344 L 397.992188 217.054688 L 400.878906 220.378906 L 399.835938 220.378906 L 399.835938 221.757812 L 406.445312 221.757812 L 406.445312 220.378906 L 404.351562 220.378906 L 399.808594 215.0625 L 403.230469 211.3125 C 403.394531 211.144531 404.269531 211.0625 405.855469 211.0625 L 405.855469 209.679688 L 400.261719 209.679688 L 400.261719 211.0625 C 400.425781 211.0625 400.640625 211.078125 400.910156 211.113281 C 401.179688 211.152344 401.316406 211.207031 401.316406 211.289062 L 398.878906 213.972656 L 396.363281 211.0625 L 397.375 211.0625 L 397.375 209.679688 L 390.785156 209.679688 L 390.785156 211.0625 L 392.863281 211.0625 L 397.0625 215.964844 L 393.285156 220.125 C 393.113281 220.292969 392.234375 220.378906 390.648438 220.378906 L 390.648438 221.757812 Z M 396.253906 221.757812 "/>
<path style=" stroke:none;fill-rule:nonzero;fill:rgb(100%,100%,100%);fill-opacity:1;" d="M 423.699219 215.5 L 423.699219 223.527344 C 423.699219 223.667969 423.753906 223.785156 423.863281 223.878906 C 423.972656 223.972656 424.105469 224.019531 424.261719 224.019531 C 424.402344 224.019531 424.527344 223.972656 424.648438 223.878906 C 424.765625 223.785156 424.828125 223.667969 424.828125 223.527344 L 424.828125 215.5 L 433.097656 215.5 C 433.234375 215.5 433.351562 215.441406 433.453125 215.328125 C 433.554688 215.210938 433.605469 215.089844 433.605469 214.957031 C 433.605469 214.820312 433.554688 214.699219 433.453125 214.582031 C 433.351562 214.46875 433.234375 214.410156 433.097656 214.410156 L 424.828125 214.410156 L 424.828125 206.382812 C 424.828125 206.242188 424.765625 206.125 424.648438 206.03125 C 424.527344 205.9375 424.402344 205.890625 424.261719 205.890625 C 424.105469 205.890625 423.972656 205.9375 423.863281 206.03125 C 423.753906 206.125 423.699219 206.242188 423.699219 206.382812 L 423.699219 214.410156 L 415.429688 214.410156 C 415.273438 214.410156 415.144531 214.46875 415.042969 214.582031 C 414.945312 214.699219 414.894531 214.820312 414.894531 214.957031 C 414.894531 215.089844 414.945312 215.210938 415.042969 215.328125 C 415.144531 215.441406 415.273438 215.5 415.429688 215.5 Z M 423.699219 215.5 "/>
<path style=" stroke:none;fill-rule:nonzero;fill:rgb(100%,100%,100%);fill-opacity:1;" d="M 449.863281 228.5625 L 450.125 228.5625 L 450.265625 228.476562 L 450.34375 228.324219 C 450.34375 228.226562 450.316406 228.152344 450.261719 228.097656 C 447.074219 225.101562 445.480469 220.722656 445.480469 214.957031 C 445.480469 213.652344 445.5625 212.402344 445.726562 211.203125 C 445.890625 210 446.160156 208.839844 446.53125 207.71875 C 446.902344 206.601562 447.390625 205.542969 448 204.550781 C 448.609375 203.558594 449.371094 202.628906 450.289062 201.757812 L 450.34375 201.585938 L 450.273438 201.421875 L 450.125 201.347656 L 449.863281 201.347656 C 449.769531 201.347656 449.726562 201.367188 449.726562 201.402344 C 448.707031 202.171875 447.820312 203.070312 447.058594 204.097656 C 446.300781 205.125 445.675781 206.230469 445.183594 207.40625 C 444.695312 208.585938 444.332031 209.8125 444.09375 211.089844 C 443.855469 212.363281 443.734375 213.652344 443.734375 214.957031 C 443.734375 216.238281 443.855469 217.519531 444.09375 218.796875 C 444.332031 220.070312 444.691406 221.292969 445.171875 222.464844 C 445.652344 223.632812 446.269531 224.734375 447.023438 225.765625 C 447.78125 226.796875 448.679688 227.710938 449.726562 228.507812 C 449.726562 228.542969 449.769531 228.5625 449.863281 228.5625 "/>
<path style=" stroke:none;fill-rule:nonzero;fill:rgb(100%,100%,100%);fill-opacity:1;" d="M 463.855469 221.757812 L 463.855469 220.800781 C 461.511719 220.800781 460.339844 220.515625 460.339844 219.9375 L 460.339844 203.871094 L 460.25 203.707031 L 460.0625 203.632812 L 459.664062 203.632812 C 458.492188 204.792969 456.757812 205.375 454.457031 205.375 L 454.457031 206.332031 C 455.941406 206.332031 457.167969 206.105469 458.140625 205.652344 L 458.140625 219.9375 C 458.140625 220.515625 456.96875 220.800781 454.625 220.800781 L 454.625 221.757812 Z M 463.855469 221.757812 "/>
<path style=" stroke:none;fill-rule:nonzero;fill:rgb(100%,100%,100%);fill-opacity:1;" d="M 491.25 215.5 C 491.394531 215.5 491.515625 215.441406 491.609375 215.328125 C 491.707031 215.210938 491.753906 215.089844 491.753906 214.957031 C 491.753906 214.820312 491.707031 214.699219 491.609375 214.582031 C 491.515625 214.46875 491.394531 214.410156 491.25 214.410156 L 475.300781 214.410156 C 475.148438 214.410156 475.019531 214.46875 474.921875 214.582031 C 474.820312 214.699219 474.769531 214.820312 474.769531 214.957031 C 474.769531 215.089844 474.820312 215.210938 474.921875 215.328125 C 475.019531 215.441406 475.148438 215.5 475.300781 215.5 Z M 491.25 215.5 "/>
<path style=" stroke:none;fill-rule:nonzero;fill:rgb(100%,100%,100%);fill-opacity:1;" d="M 508.886719 221.457031 C 509.910156 221.050781 510.863281 220.484375 511.738281 219.753906 C 511.902344 220.4375 512.207031 220.996094 512.652344 221.421875 C 513.097656 221.851562 513.65625 222.066406 514.332031 222.066406 C 514.847656 222.066406 515.375 221.851562 515.90625 221.429688 C 516.441406 221.007812 516.707031 220.566406 516.707031 220.113281 C 516.707031 219.933594 516.632812 219.84375 516.488281 219.84375 L 516.144531 219.84375 C 516.097656 219.855469 515.992188 220.003906 515.824219 220.296875 C 515.65625 220.589844 515.457031 220.835938 515.234375 221.035156 C 515.011719 221.234375 514.726562 221.332031 514.378906 221.332031 C 513.839844 221.332031 513.574219 220.210938 513.574219 217.960938 C 514.09375 217.378906 514.574219 216.726562 515.015625 216.011719 C 515.457031 215.296875 515.84375 214.554688 516.171875 213.789062 C 516.5 213.023438 516.773438 212.222656 516.992188 211.390625 L 517.019531 211.3125 C 517.019531 211.144531 516.933594 211.0625 516.761719 211.0625 L 516.433594 211.0625 C 516.324219 211.0625 516.25 211.117188 516.214844 211.222656 C 515.976562 212.210938 515.636719 213.167969 515.195312 214.09375 C 514.75 215.019531 514.210938 215.910156 513.574219 216.769531 L 513.546875 214.949219 C 513.546875 214.039062 513.359375 213.183594 512.984375 212.382812 C 512.609375 211.582031 512.0625 210.9375 511.34375 210.457031 C 510.621094 209.972656 509.789062 209.734375 508.839844 209.734375 C 507.550781 209.734375 506.324219 210.109375 505.152344 210.863281 C 503.980469 211.617188 503.039062 212.59375 502.332031 213.800781 C 501.625 215.003906 501.273438 216.222656 501.273438 217.453125 C 501.273438 218.332031 501.457031 219.113281 501.832031 219.804688 C 502.207031 220.496094 502.738281 221.046875 503.429688 221.453125 C 504.117188 221.859375 504.90625 222.066406 505.792969 222.066406 C 506.832031 222.066406 507.867188 221.863281 508.886719 221.457031 M 504.058594 220.511719 C 503.640625 219.960938 503.433594 219.292969 503.433594 218.507812 C 503.433594 217.460938 503.640625 216.308594 504.058594 215.050781 C 504.472656 213.789062 505.09375 212.703125 505.914062 211.796875 C 506.738281 210.890625 507.695312 210.4375 508.792969 210.4375 C 510.621094 210.4375 511.535156 212.078125 511.535156 215.363281 L 511.535156 218.292969 C 511.535156 218.3125 511.542969 218.398438 511.5625 218.554688 C 511.578125 218.707031 511.59375 218.839844 511.601562 218.945312 C 509.765625 220.539062 507.847656 221.332031 505.84375 221.332031 C 505.070312 221.332031 504.472656 221.058594 504.058594 220.511719 "/>
<path style=" stroke:none;fill-rule:nonzero;fill:rgb(100%,100%,100%);fill-opacity:1;" d="M 520.171875 228.5625 L 520.308594 228.507812 C 521.351562 227.710938 522.25 226.800781 523 225.777344 C 523.753906 224.753906 524.371094 223.640625 524.863281 222.429688 C 525.351562 221.21875 525.710938 219.992188 525.933594 218.75 C 526.160156 217.503906 526.273438 216.238281 526.273438 214.957031 C 526.273438 213.21875 526.0625 211.519531 525.644531 209.851562 C 525.230469 208.1875 524.574219 206.621094 523.675781 205.148438 C 522.777344 203.675781 521.65625 202.429688 520.308594 201.402344 L 520.171875 201.347656 L 519.910156 201.347656 L 519.738281 201.421875 L 519.664062 201.585938 C 519.664062 201.695312 519.699219 201.769531 519.773438 201.8125 C 522.941406 204.808594 524.527344 209.1875 524.527344 214.957031 C 524.527344 220.722656 522.921875 225.121094 519.71875 228.152344 L 519.664062 228.324219 C 519.664062 228.484375 519.746094 228.5625 519.910156 228.5625 Z M 520.171875 228.5625 "/>
<path style=" stroke:none;fill-rule:nonzero;fill:rgb(100%,100%,100%);fill-opacity:1;" d="M 530.148438 226.476562 C 530.753906 226.964844 531.441406 227.207031 532.207031 227.207031 C 533.21875 227.207031 534.144531 226.882812 534.980469 226.238281 C 535.8125 225.589844 536.449219 224.796875 536.886719 223.859375 L 542.90625 211.289062 C 543.042969 211.136719 543.699219 211.0625 544.871094 211.0625 L 544.871094 209.679688 L 540.003906 209.679688 L 540.003906 211.0625 C 540.285156 211.0625 540.578125 211.078125 540.886719 211.109375 C 541.199219 211.140625 541.351562 211.199219 541.351562 211.289062 L 538.070312 218.144531 L 534.667969 211.0625 L 536.136719 211.0625 L 536.136719 209.679688 L 529.347656 209.679688 L 529.347656 211.0625 L 531.195312 211.0625 L 536.332031 221.757812 L 535.316406 223.859375 C 535.023438 224.496094 534.601562 225.03125 534.050781 225.464844 C 533.496094 225.902344 532.882812 226.117188 532.207031 226.117188 C 532.105469 226.117188 531.957031 226.097656 531.753906 226.0625 C 532.300781 225.753906 532.574219 225.269531 532.574219 224.617188 C 532.574219 224.164062 532.417969 223.785156 532.097656 223.472656 C 531.777344 223.164062 531.386719 223.007812 530.921875 223.007812 C 530.4375 223.007812 530.035156 223.164062 529.71875 223.472656 C 529.398438 223.785156 529.238281 224.164062 529.238281 224.617188 C 529.238281 225.367188 529.542969 225.988281 530.148438 226.476562 "/>
<path style=" stroke:none;fill-rule:nonzero;fill:rgb(100%,100%,100%);fill-opacity:1;" d="M 547.859375 228.5625 L 547.996094 228.507812 C 549.039062 227.710938 549.9375 226.800781 550.6875 225.777344 C 551.441406 224.753906 552.058594 223.640625 552.550781 222.429688 C 553.039062 221.21875 553.398438 219.992188 553.621094 218.75 C 553.84375 217.503906 553.957031 216.238281 553.957031 214.957031 C 553.957031 213.21875 553.75 211.519531 553.332031 209.851562 C 552.917969 208.1875 552.257812 206.621094 551.363281 205.148438 C 550.464844 203.675781 549.34375 202.429688 547.996094 201.402344 L 547.859375 201.347656 L 547.597656 201.347656 L 547.425781 201.421875 L 547.351562 201.585938 C 547.351562 201.695312 547.386719 201.769531 547.460938 201.8125 C 550.628906 204.808594 552.214844 209.1875 552.214844 214.957031 C 552.214844 220.722656 550.609375 225.121094 547.40625 228.152344 L 547.351562 228.324219 C 547.351562 228.484375 547.433594 228.5625 547.597656 228.5625 Z M 547.859375 228.5625 "/>
<path style=" stroke:none;fill-rule:nonzero;fill:rgb(100%,100%,100%);fill-opacity:1;" d="M 558.871094 228.5625 L 559.007812 228.507812 C 560.050781 227.710938 560.949219 226.800781 561.699219 225.777344 C 562.453125 224.753906 563.070312 223.640625 563.5625 222.429688 C 564.050781 221.21875 564.410156 219.992188 564.632812 218.75 C 564.855469 217.503906 564.96875 216.238281 564.96875 214.957031 C 564.96875 213.21875 564.761719 211.519531 564.34375 209.851562 C 563.929688 208.1875 563.269531 206.621094 562.375 205.148438 C 561.476562 203.675781 560.355469 202.429688 559.007812 201.402344 L 558.871094 201.347656 L 558.609375 201.347656 L 558.4375 201.421875 L 558.363281 201.585938 C 558.363281 201.695312 558.398438 201.769531 558.472656 201.8125 C 561.640625 204.808594 563.226562 209.1875 563.226562 214.957031 C 563.226562 220.722656 561.621094 225.121094 558.417969 228.152344 L 558.363281 228.324219 C 558.363281 228.484375 558.445312 228.5625 558.609375 228.5625 Z M 558.871094 228.5625 "/>
<path style=" stroke:none;fill-rule:nonzero;fill:rgb(100%,100%,100%);fill-opacity:1;" d="M 361.300781 46.75 C 361.867188 47.394531 362.285156 47.996094 362.558594 48.5625 C 362.832031 49.128906 363.054688 49.753906 363.226562 50.433594 C 363.394531 51.113281 363.523438 51.496094 363.609375 51.578125 C 363.695312 51.664062 363.839844 51.707031 364.046875 51.707031 C 364.539062 51.707031 364.980469 51.46875 365.378906 50.984375 C 365.773438 50.503906 365.972656 49.964844 365.972656 49.371094 C 365.972656 48.777344 365.613281 48.234375 364.894531 47.742188 C 364.179688 47.25 363.09375 46.789062 361.640625 46.355469 Z M 351.390625 55.273438 C 350.726562 54.804688 349.90625 54.367188 348.925781 53.972656 C 348.886719 54.386719 348.8125 54.972656 348.699219 55.726562 L 348.019531 59.863281 C 347.964844 60.257812 347.878906 60.527344 347.765625 60.667969 C 347.652344 60.8125 347.378906 61.015625 346.945312 61.277344 C 348.226562 62.335938 348.992188 62.863281 349.238281 62.863281 C 349.40625 62.863281 349.550781 62.769531 349.664062 62.582031 L 350.085938 61.871094 L 353.089844 61.871094 C 352.898438 64.234375 352.707031 65.925781 352.507812 66.953125 C 352.308594 67.984375 352.105469 68.640625 351.898438 68.921875 C 351.691406 69.207031 351.265625 69.347656 350.625 69.347656 C 349.984375 69.347656 349.019531 69.160156 347.738281 68.78125 L 347.59375 69.320312 C 348.40625 69.660156 349.027344 70.003906 349.449219 70.351562 C 349.875 70.703125 350.085938 71.21875 350.085938 71.898438 C 350.085938 72.160156 350.109375 72.335938 350.160156 72.417969 C 350.207031 72.503906 350.328125 72.546875 350.527344 72.546875 C 350.722656 72.546875 351.175781 72.378906 351.886719 72.039062 C 352.59375 71.699219 353.210938 71.246094 353.742188 70.679688 C 354.269531 70.113281 354.667969 68.964844 354.945312 67.238281 C 355.214844 65.511719 355.382812 63.976562 355.4375 62.636719 C 356.117188 62.390625 356.457031 62.167969 356.457031 61.972656 C 356.457031 61.773438 356.078125 61.394531 355.3125 60.839844 C 354.546875 60.28125 354.085938 60.003906 353.925781 60.003906 C 353.761719 60.003906 353.605469 60.109375 353.457031 60.316406 L 352.917969 60.996094 L 350.058594 60.996094 L 350.9375 56.152344 L 353.996094 56.152344 L 353.996094 57.371094 C 353.996094 57.578125 354.066406 57.683594 354.207031 57.683594 C 354.347656 57.683594 354.664062 57.597656 355.15625 57.425781 C 355.644531 57.257812 355.976562 57.117188 356.144531 57 C 356.316406 56.890625 356.402344 56.785156 356.402344 56.691406 C 356.402344 56.597656 356.386719 56.285156 356.359375 55.753906 C 356.332031 55.226562 356.316406 54.585938 356.316406 53.832031 L 356.316406 50.488281 C 357.015625 50.226562 357.363281 50.011719 357.363281 49.851562 C 357.363281 49.691406 357.023438 49.339844 356.34375 48.789062 C 355.664062 48.242188 355.242188 47.96875 355.070312 47.96875 C 354.902344 47.96875 354.730469 48.074219 354.5625 48.28125 L 353.824219 49.128906 L 348.472656 49.128906 C 348.207031 49.128906 347.738281 49.101562 347.058594 49.046875 L 347.707031 50.292969 C 348.03125 50.160156 348.371094 50.09375 348.726562 50.09375 L 353.996094 50.09375 L 353.996094 55.273438 Z M 360.097656 57.285156 C 359.179688 58.777344 358.582031 59.65625 358.300781 59.917969 C 358.015625 60.183594 357.554688 60.398438 356.910156 60.570312 C 357.082031 61.078125 357.265625 61.550781 357.464844 61.984375 C 357.660156 62.417969 357.792969 62.675781 357.859375 62.75 C 357.925781 62.824219 358.007812 62.863281 358.101562 62.863281 C 358.195312 62.863281 358.382812 62.804688 358.667969 62.679688 C 358.949219 62.558594 359.40625 62.425781 360.039062 62.28125 C 360.671875 62.140625 362.148438 61.835938 364.472656 61.363281 C 363.601562 62.570312 362.464844 63.921875 361.058594 65.410156 C 359.652344 66.902344 358.683594 67.828125 358.15625 68.1875 C 357.628906 68.546875 357.015625 68.78125 356.316406 68.894531 C 356.542969 69.535156 356.800781 70.121094 357.09375 70.652344 C 357.386719 71.179688 357.5625 71.476562 357.621094 71.542969 C 357.675781 71.609375 357.75 71.640625 357.84375 71.640625 C 357.941406 71.640625 358.308594 71.539062 358.949219 71.328125 C 359.589844 71.121094 360.519531 70.902344 361.738281 70.664062 C 362.957031 70.429688 365.179688 70.113281 368.40625 69.714844 C 368.558594 70.246094 368.710938 70.847656 368.859375 71.527344 C 369.011719 72.207031 369.28125 72.546875 369.667969 72.546875 C 370.054688 72.546875 370.449219 72.332031 370.855469 71.898438 C 371.261719 71.460938 371.464844 70.953125 371.464844 70.367188 C 371.464844 68.914062 369.578125 66.875 365.800781 64.25 L 365.40625 64.703125 C 366.578125 65.96875 367.453125 67.308594 368.039062 68.726562 L 359.320312 68.867188 C 361.113281 67.488281 362.714844 66.15625 364.132812 64.875 C 365.546875 63.589844 367.039062 61.996094 368.605469 60.089844 C 369.003906 59.617188 369.269531 59.324219 369.414062 59.210938 C 369.554688 59.097656 369.769531 59.039062 370.0625 59.039062 C 370.355469 59.039062 370.503906 58.957031 370.503906 58.785156 C 370.503906 58.617188 370.21875 58.300781 369.652344 57.835938 C 369.085938 57.375 368.386719 56.871094 367.558594 56.324219 C 366.824219 57.738281 366.019531 59.097656 365.152344 60.398438 L 359.601562 60.398438 C 361 59.078125 362.421875 57.4375 363.878906 55.472656 C 364.121094 55.132812 364.300781 54.921875 364.414062 54.835938 C 364.527344 54.75 364.75 54.695312 365.082031 54.664062 C 365.410156 54.636719 365.578125 54.519531 365.578125 54.3125 C 365.578125 54.238281 365.527344 54.15625 365.433594 54.070312 C 365.339844 53.988281 365.042969 53.828125 364.542969 53.589844 C 364.042969 53.355469 363.632812 53.1875 363.308594 53.09375 L 372.570312 53.09375 C 373.15625 53.09375 373.449219 53.019531 373.449219 52.867188 C 373.449219 52.71875 373.027344 52.269531 372.1875 51.523438 C 371.347656 50.777344 370.8125 50.40625 370.589844 50.40625 C 370.363281 50.40625 370.125 50.582031 369.878906 50.941406 L 368.972656 52.1875 L 358.15625 52.1875 C 357.609375 52.1875 357.136719 52.140625 356.742188 52.046875 L 357.25 53.292969 C 357.535156 53.160156 357.929688 53.09375 358.441406 53.09375 L 362.234375 53.09375 C 361.726562 54.398438 361.011719 55.792969 360.097656 57.285156 "/>
<path style=" stroke:none;fill-rule:nonzero;fill:rgb(100%,100%,100%);fill-opacity:1;" d="M 238.035156 245.976562 L 238.402344 246.402344 C 239.796875 245.742188 241.085938 245.015625 242.265625 244.222656 C 243.445312 243.429688 244.800781 242.289062 246.332031 240.796875 C 246.5 240.625 246.652344 240.511719 246.785156 240.457031 C 246.914062 240.398438 247.140625 240.363281 247.460938 240.34375 C 247.785156 240.324219 247.945312 240.257812 247.945312 240.144531 C 247.945312 239.898438 247.113281 239.078125 245.453125 237.679688 C 243.675781 240.816406 241.203125 243.582031 238.035156 245.976562 M 233.472656 249.207031 L 233.472656 261.128906 C 233.472656 261.410156 233.558594 261.550781 233.730469 261.550781 C 233.992188 261.550781 234.355469 261.472656 234.820312 261.3125 C 235.28125 261.152344 235.578125 261.015625 235.710938 260.902344 C 235.84375 260.789062 235.910156 260.597656 235.910156 260.335938 L 235.851562 257.957031 L 235.851562 249.207031 L 239.988281 249.207031 C 240.402344 249.207031 240.609375 249.132812 240.609375 248.980469 C 240.609375 248.828125 240.226562 248.414062 239.464844 247.734375 C 238.699219 247.054688 238.210938 246.714844 238.003906 246.714844 C 237.890625 246.714844 237.742188 246.835938 237.550781 247.082031 L 236.589844 248.355469 L 235.851562 248.355469 L 235.851562 240.769531 L 239.648438 240.769531 C 239.988281 240.769531 240.15625 240.675781 240.15625 240.484375 C 240.15625 240.296875 239.769531 239.847656 238.996094 239.140625 C 238.222656 238.433594 237.722656 238.078125 237.496094 238.078125 C 237.382812 238.078125 237.25 238.183594 237.097656 238.390625 L 236.050781 239.890625 L 225.320312 239.890625 C 224.847656 239.890625 224.421875 239.851562 224.046875 239.777344 L 224.5 240.9375 C 224.800781 240.824219 225.160156 240.769531 225.574219 240.769531 L 228.09375 240.769531 C 228.113281 241.484375 228.121094 242.355469 228.121094 243.375 C 228.121094 244.390625 228.09375 246.054688 228.039062 248.355469 L 224.300781 248.355469 C 223.828125 248.355469 223.402344 248.320312 223.027344 248.242188 L 223.480469 249.375 C 223.78125 249.261719 224.140625 249.207031 224.554688 249.207031 L 228.039062 249.207031 C 228 253.417969 227.628906 256.378906 226.917969 258.097656 C 226.210938 259.816406 225.113281 261.457031 223.621094 263.023438 L 224.015625 263.507812 C 226.113281 261.710938 227.515625 260.308594 228.222656 259.300781 C 228.929688 258.292969 229.421875 257.089844 229.695312 255.691406 C 229.96875 254.292969 230.152344 252.132812 230.246094 249.207031 Z M 233.472656 240.769531 L 233.472656 248.355469 L 230.273438 248.355469 C 230.371094 245.507812 230.40625 242.976562 230.386719 240.769531 Z M 237.523438 253.625 L 237.695312 254.105469 C 239.46875 253.5 241.015625 252.835938 242.335938 252.109375 C 243.660156 251.382812 245.007812 250.433594 246.386719 249.261719 C 246.6875 249.019531 246.925781 248.855469 247.09375 248.78125 C 247.265625 248.707031 247.480469 248.667969 247.746094 248.667969 C 248.011719 248.667969 248.140625 248.574219 248.140625 248.386719 C 248.140625 248.292969 248.117188 248.210938 248.070312 248.144531 C 248.023438 248.078125 247.773438 247.800781 247.320312 247.308594 L 246.046875 245.949219 C 244.007812 249.101562 241.167969 251.660156 237.523438 253.625 M 232.199219 263.109375 L 232.34375 263.648438 C 235.53125 263.082031 238.332031 262.222656 240.738281 261.070312 C 243.144531 259.917969 245.507812 258.210938 247.832031 255.945312 C 248.1875 255.625 248.53125 255.464844 248.851562 255.464844 L 249.132812 255.464844 C 249.226562 255.484375 249.308594 255.46875 249.375 255.421875 C 249.4375 255.375 249.472656 255.304688 249.472656 255.210938 C 249.472656 255.113281 249.445312 255.019531 249.386719 254.925781 C 249.332031 254.832031 249.085938 254.558594 248.652344 254.105469 C 248.21875 253.652344 247.738281 253.179688 247.207031 252.6875 C 243.242188 257.804688 238.242188 261.277344 232.199219 263.109375 "/>
<path style=" stroke:none;fill-rule:evenodd;fill:rgb(0%,0%,0%);fill-opacity:1;" d="M 311.0625 193.914062 C 314.835938 193.914062 317.667969 196.902344 317.667969 200.679688 C 317.667969 204.453125 314.835938 207.285156 311.0625 207.285156 C 307.285156 207.285156 304.296875 204.453125 304.296875 200.679688 C 304.296875 196.902344 307.285156 193.914062 311.0625 193.914062 "/>
<path style=" stroke:none;fill-rule:nonzero;fill:rgb(100%,100%,100%);fill-opacity:1;" d="M 311.0625 193.914062 L 311.0625 192.734375 C 313.261719 192.730469 315.234375 193.617188 316.628906 195.0625 C 318.023438 196.5 318.847656 198.496094 318.847656 200.679688 C 318.851562 202.863281 318.019531 204.832031 316.613281 206.234375 C 315.214844 207.636719 313.242188 208.46875 311.0625 208.464844 C 308.875 208.46875 306.882812 207.644531 305.441406 206.246094 C 304 204.855469 303.113281 202.878906 303.117188 200.679688 C 303.113281 198.476562 303.992188 196.480469 305.429688 195.046875 C 306.859375 193.613281 308.859375 192.734375 311.0625 192.734375 L 311.0625 195.09375 C 309.488281 195.097656 308.101562 195.710938 307.097656 196.714844 C 306.09375 197.722656 305.476562 199.105469 305.476562 200.679688 C 305.480469 202.253906 306.089844 203.582031 307.082031 204.550781 C 308.082031 205.515625 309.46875 206.105469 311.0625 206.105469 C 312.652344 206.105469 313.988281 205.519531 314.945312 204.566406 C 315.902344 203.605469 316.484375 202.273438 316.488281 200.679688 C 316.488281 199.085938 315.894531 197.699219 314.933594 196.703125 C 313.964844 195.707031 312.636719 195.097656 311.0625 195.09375 Z M 311.0625 193.914062 "/>
</g>
</svg>
