<?xml version="1.0" encoding="UTF-8"?>
<svg xmlns="http://www.w3.org/2000/svg" xmlns:xlink="http://www.w3.org/1999/xlink" width="429.175pt" height="387.406pt" viewBox="0 0 429.175 387.406" version="1.1">
<defs>
<clipPath id="clip1">
  <path d="M 402 332 L 429.175781 332 L 429.175781 351 L 402 351 Z M 402 332 "/>
</clipPath>
</defs>
<g id="surface1">
<path style=" stroke:none;fill-rule:nonzero;fill:rgb(40%,100%,100%);fill-opacity:0.4;" d="M 174.503906 127.710938 L 174.503906 212.898438 L 259.695312 212.898438 L 259.695312 127.710938 Z M 174.503906 127.710938 "/>
<path style=" stroke:none;fill-rule:nonzero;fill:rgb(100%,100%,40%);fill-opacity:0.4;" d="M 46.644531 212.898438 L 46.644531 340.761719 L 174.503906 340.761719 L 174.503906 212.898438 Z M 46.644531 212.898438 "/>
<path style=" stroke:none;fill-rule:nonzero;fill:rgb(100%,100%,100%);fill-opacity:1;" d="M 3.222656 340.089844 L 403.484375 340.089844 L 403.484375 343.535156 L 3.222656 343.535156 "/>
<g clip-path="url(#clip1)" clip-rule="nonzero">
<path style=" stroke:none;fill-rule:evenodd;fill:rgb(100%,100%,100%);fill-opacity:1;" d="M 429.175781 341.8125 L 402.28125 332.796875 L 402.28125 350.828125 Z M 429.175781 341.8125 "/>
</g>
<path style=" stroke:none;fill-rule:nonzero;fill:rgb(100%,100%,100%);fill-opacity:1;" d="M 45.824219 384.183594 L 45.824219 25.84375 L 49.269531 25.84375 L 49.269531 384.183594 "/>
<path style=" stroke:none;fill-rule:evenodd;fill:rgb(100%,100%,100%);fill-opacity:1;" d="M 47.546875 0.148438 L 38.53125 27.042969 L 56.5625 27.042969 Z M 47.546875 0.148438 "/>
<path style=" stroke:none;fill-rule:nonzero;fill:rgb(100%,60%,60%);fill-opacity:0.4;" d="M 174.503906 0 L 174.503906 212.898438 L 387.40625 212.898438 L 387.40625 0 Z M 174.503906 0 "/>
<path style=" stroke:none;fill-rule:nonzero;fill:rgb(100%,100%,0%);fill-opacity:1;" d="M 100.8125 285.804688 C 100.910156 285.894531 101.023438 285.9375 101.144531 285.9375 C 101.1875 285.9375 101.378906 285.816406 101.71875 285.570312 C 102.0625 285.324219 102.414062 285.199219 102.78125 285.199219 C 103.347656 285.199219 103.902344 285.316406 104.441406 285.542969 C 105.152344 285.804688 105.871094 285.9375 106.59375 285.9375 C 107.488281 285.9375 108.359375 285.835938 109.207031 285.625 C 110.054688 285.417969 110.828125 285.101562 111.535156 284.675781 C 112.238281 284.246094 112.800781 283.695312 113.222656 283.019531 C 113.644531 282.339844 113.855469 281.546875 113.855469 280.632812 C 113.855469 279.71875 113.625 278.875 113.171875 278.105469 C 112.714844 277.335938 112.113281 276.664062 111.363281 276.09375 C 110.617188 275.523438 109.796875 275.070312 108.898438 274.730469 C 108.570312 274.601562 108.0625 274.40625 107.382812 274.132812 C 106.699219 273.863281 106.089844 273.578125 105.554688 273.28125 C 105.023438 272.988281 104.566406 272.636719 104.195312 272.230469 C 103.820312 271.824219 103.632812 271.390625 103.632812 270.933594 C 103.632812 270.097656 103.910156 269.4375 104.460938 268.953125 C 105.011719 268.472656 105.722656 268.230469 106.59375 268.230469 C 107.148438 268.230469 107.707031 268.359375 108.269531 268.613281 C 108.828125 268.867188 109.351562 269.210938 109.839844 269.648438 C 110.324219 270.082031 110.730469 270.566406 111.050781 271.09375 C 111.371094 271.621094 111.574219 272.140625 111.652344 272.648438 C 111.660156 272.75 111.714844 272.832031 111.8125 272.894531 C 111.914062 272.960938 112.007812 272.992188 112.09375 272.992188 C 112.199219 272.992188 112.300781 272.949219 112.402344 272.871094 C 112.5 272.789062 112.550781 272.683594 112.550781 272.546875 L 112.550781 267.738281 C 112.550781 267.617188 112.5 267.519531 112.402344 267.4375 C 112.300781 267.359375 112.199219 267.316406 112.09375 267.316406 C 112.015625 267.316406 111.808594 267.441406 111.46875 267.6875 C 111.128906 267.933594 110.785156 268.054688 110.4375 268.054688 C 109.917969 268.054688 109.355469 267.941406 108.757812 267.710938 C 108.078125 267.449219 107.355469 267.316406 106.59375 267.316406 C 104.734375 267.316406 103.242188 267.761719 102.128906 268.644531 C 101.011719 269.527344 100.453125 270.855469 100.453125 272.621094 C 100.453125 273.265625 100.605469 273.859375 100.90625 274.40625 C 101.214844 274.953125 101.605469 275.429688 102.082031 275.835938 C 102.558594 276.242188 103.09375 276.601562 103.679688 276.921875 C 104.265625 277.238281 104.902344 277.53125 105.589844 277.800781 C 106.894531 278.308594 107.988281 278.894531 108.875 279.558594 C 109.761719 280.222656 110.203125 281.0625 110.203125 282.078125 C 110.203125 282.832031 110.0625 283.425781 109.773438 283.863281 C 109.488281 284.296875 109.085938 284.601562 108.574219 284.769531 C 108.0625 284.9375 107.410156 285.023438 106.617188 285.023438 C 106.046875 285.023438 105.457031 284.871094 104.859375 284.566406 C 104.257812 284.261719 103.714844 283.863281 103.222656 283.371094 C 102.730469 282.882812 102.339844 282.34375 102.042969 281.753906 C 101.746094 281.167969 101.597656 280.601562 101.597656 280.0625 L 101.597656 279.84375 C 101.597656 279.71875 101.558594 279.609375 101.472656 279.515625 C 101.390625 279.421875 101.28125 279.375 101.148438 279.375 C 100.824219 279.375 100.660156 279.597656 100.660156 280.035156 L 100.660156 285.492188 C 100.660156 285.613281 100.710938 285.714844 100.8125 285.804688 M 101.597656 282.839844 C 101.957031 283.363281 102.378906 283.851562 102.863281 284.300781 L 102.785156 284.300781 C 102.410156 284.300781 102.015625 284.386719 101.597656 284.554688 Z M 103.691406 275.867188 C 103.070312 275.507812 102.53125 275.054688 102.074219 274.507812 C 101.617188 273.960938 101.390625 273.335938 101.390625 272.621094 C 101.390625 271.84375 101.539062 271.128906 101.839844 270.476562 C 102.140625 269.828125 102.613281 269.320312 103.253906 268.953125 C 102.882812 269.566406 102.695312 270.226562 102.695312 270.933594 C 102.695312 271.730469 103.007812 272.425781 103.636719 273.015625 C 104.269531 273.609375 104.957031 274.078125 105.703125 274.417969 C 106.449219 274.761719 107.402344 275.148438 108.566406 275.582031 C 109.800781 276.054688 110.832031 276.726562 111.664062 277.597656 C 112.5 278.46875 112.914062 279.480469 112.914062 280.632812 C 112.914062 281.378906 112.722656 282.046875 112.339844 282.636719 C 111.953125 283.230469 111.414062 283.722656 110.714844 284.109375 C 111 283.542969 111.144531 282.867188 111.144531 282.078125 C 111.144531 280.84375 110.65625 279.835938 109.683594 279.050781 C 108.710938 278.269531 107.449219 277.566406 105.902344 276.9375 C 105.050781 276.582031 104.3125 276.226562 103.691406 275.867188 M 110.4375 268.953125 C 110.8125 268.953125 111.203125 268.871094 111.613281 268.703125 L 111.613281 270.261719 C 111.28125 269.804688 110.890625 269.371094 110.4375 268.953125 "/>
<path style=" stroke:none;fill-rule:nonzero;fill:rgb(100%,100%,0%);fill-opacity:1;" d="M 123.375 289.074219 L 123.375 288.347656 C 121.636719 288.347656 120.765625 288.167969 120.765625 287.808594 L 120.765625 277.226562 C 120.734375 277.105469 120.660156 277.03125 120.542969 277.003906 L 120.203125 277.003906 C 119.742188 277.429688 119.183594 277.730469 118.53125 277.902344 C 117.875 278.078125 117.175781 278.164062 116.425781 278.164062 L 116.425781 278.894531 C 117.542969 278.894531 118.457031 278.730469 119.160156 278.40625 L 119.160156 287.808594 C 119.160156 288.167969 118.292969 288.347656 116.554688 288.347656 L 116.554688 289.074219 Z M 123.375 289.074219 "/>
<path style=" stroke:none;fill-rule:nonzero;fill:rgb(0%,100%,100%);fill-opacity:1;" d="M 207.335938 179.277344 C 207.4375 179.367188 207.546875 179.410156 207.671875 179.410156 C 207.714844 179.410156 207.90625 179.289062 208.246094 179.042969 C 208.585938 178.796875 208.9375 178.675781 209.304688 178.675781 C 209.871094 178.675781 210.425781 178.789062 210.96875 179.019531 C 211.679688 179.28125 212.394531 179.410156 213.117188 179.410156 C 214.011719 179.410156 214.882812 179.308594 215.730469 179.101562 C 216.578125 178.894531 217.355469 178.578125 218.058594 178.148438 C 218.761719 177.722656 219.328125 177.167969 219.746094 176.492188 C 220.167969 175.816406 220.378906 175.019531 220.378906 174.105469 C 220.378906 173.191406 220.152344 172.351562 219.695312 171.582031 C 219.238281 170.8125 218.636719 170.140625 217.890625 169.570312 C 217.140625 168.996094 216.320312 168.542969 215.425781 168.203125 C 215.09375 168.078125 214.589844 167.878906 213.90625 167.609375 C 213.222656 167.335938 212.617188 167.054688 212.082031 166.757812 C 211.546875 166.460938 211.09375 166.109375 210.71875 165.703125 C 210.34375 165.296875 210.160156 164.867188 210.160156 164.410156 C 210.160156 163.574219 210.433594 162.914062 210.984375 162.429688 C 211.539062 161.949219 212.25 161.707031 213.117188 161.707031 C 213.675781 161.707031 214.230469 161.832031 214.792969 162.085938 C 215.355469 162.339844 215.878906 162.6875 216.363281 163.121094 C 216.851562 163.558594 217.253906 164.039062 217.578125 164.570312 C 217.898438 165.097656 218.097656 165.617188 218.175781 166.125 C 218.183594 166.226562 218.238281 166.308594 218.339844 166.371094 C 218.4375 166.433594 218.535156 166.464844 218.621094 166.464844 C 218.722656 166.464844 218.828125 166.425781 218.925781 166.34375 C 219.027344 166.265625 219.078125 166.15625 219.078125 166.023438 L 219.078125 161.210938 C 219.078125 161.09375 219.027344 160.992188 218.925781 160.914062 C 218.828125 160.832031 218.722656 160.792969 218.621094 160.792969 C 218.542969 160.792969 218.332031 160.914062 217.996094 161.160156 C 217.65625 161.40625 217.3125 161.527344 216.964844 161.527344 C 216.441406 161.527344 215.882812 161.414062 215.28125 161.1875 C 214.605469 160.921875 213.882812 160.792969 213.117188 160.792969 C 211.257812 160.792969 209.769531 161.234375 208.652344 162.117188 C 207.535156 163.003906 206.976562 164.328125 206.976562 166.097656 C 206.976562 166.742188 207.128906 167.335938 207.433594 167.882812 C 207.738281 168.425781 208.128906 168.902344 208.605469 169.308594 C 209.085938 169.714844 209.617188 170.078125 210.203125 170.394531 C 210.792969 170.710938 211.425781 171.003906 212.113281 171.277344 C 213.417969 171.785156 214.511719 172.371094 215.398438 173.035156 C 216.285156 173.699219 216.730469 174.539062 216.730469 175.554688 C 216.730469 176.308594 216.585938 176.902344 216.300781 177.335938 C 216.011719 177.773438 215.613281 178.074219 215.097656 178.246094 C 214.585938 178.414062 213.933594 178.496094 213.144531 178.496094 C 212.570312 178.496094 211.984375 178.34375 211.382812 178.042969 C 210.785156 177.738281 210.238281 177.339844 209.75 176.847656 C 209.257812 176.359375 208.863281 175.816406 208.566406 175.230469 C 208.273438 174.640625 208.125 174.078125 208.125 173.535156 L 208.125 173.320312 C 208.125 173.191406 208.082031 173.082031 208 172.988281 C 207.914062 172.898438 207.808594 172.851562 207.675781 172.851562 C 207.347656 172.851562 207.1875 173.070312 207.1875 173.511719 L 207.1875 178.96875 C 207.1875 179.085938 207.234375 179.191406 207.335938 179.277344 M 208.125 176.316406 C 208.480469 176.839844 208.902344 177.328125 209.390625 177.773438 L 209.3125 177.773438 C 208.9375 177.773438 208.542969 177.859375 208.125 178.027344 Z M 210.21875 169.339844 C 209.59375 168.980469 209.058594 168.527344 208.601562 167.984375 C 208.144531 167.4375 207.917969 166.808594 207.917969 166.097656 C 207.917969 165.320312 208.066406 164.605469 208.367188 163.953125 C 208.664062 163.300781 209.136719 162.792969 209.78125 162.429688 C 209.40625 163.039062 209.21875 163.699219 209.21875 164.410156 C 209.21875 165.207031 209.535156 165.898438 210.164062 166.492188 C 210.792969 167.082031 211.480469 167.550781 212.226562 167.894531 C 212.972656 168.238281 213.929688 168.625 215.09375 169.054688 C 216.324219 169.53125 217.359375 170.203125 218.191406 171.074219 C 219.023438 171.945312 219.441406 172.957031 219.441406 174.105469 C 219.441406 174.851562 219.25 175.519531 218.863281 176.113281 C 218.480469 176.703125 217.9375 177.195312 217.238281 177.585938 C 217.523438 177.019531 217.667969 176.339844 217.667969 175.554688 C 217.667969 174.320312 217.179688 173.308594 216.207031 172.527344 C 215.234375 171.742188 213.972656 171.039062 212.425781 170.414062 C 211.574219 170.058594 210.839844 169.699219 210.21875 169.339844 M 216.964844 162.429688 C 217.335938 162.429688 217.730469 162.34375 218.136719 162.175781 L 218.136719 163.738281 C 217.808594 163.28125 217.417969 162.84375 216.964844 162.429688 "/>
<path style=" stroke:none;fill-rule:nonzero;fill:rgb(0%,100%,100%);fill-opacity:1;" d="M 229.75 182.550781 L 230.3125 179.167969 L 229.59375 179.167969 C 229.523438 179.589844 229.457031 179.945312 229.390625 180.234375 C 229.320312 180.523438 229.234375 180.722656 229.121094 180.835938 C 229.09375 180.867188 228.878906 180.890625 228.484375 180.902344 C 228.09375 180.917969 227.636719 180.925781 227.117188 180.929688 C 226.597656 180.933594 226.101562 180.933594 225.628906 180.933594 L 223.898438 180.933594 L 226.199219 179.042969 C 226.398438 178.878906 226.820312 178.550781 227.472656 178.0625 C 228.125 177.574219 228.632812 177.152344 229.003906 176.796875 C 229.371094 176.445312 229.679688 176.035156 229.933594 175.570312 C 230.183594 175.105469 230.3125 174.601562 230.3125 174.0625 C 230.3125 173.320312 230.101562 172.671875 229.679688 172.125 C 229.257812 171.578125 228.707031 171.164062 228.027344 170.890625 C 227.34375 170.617188 226.621094 170.476562 225.859375 170.476562 C 225.222656 170.476562 224.601562 170.613281 223.996094 170.882812 C 223.394531 171.152344 222.90625 171.535156 222.53125 172.03125 C 222.15625 172.527344 221.972656 173.101562 221.972656 173.753906 C 221.972656 174.027344 222.070312 174.257812 222.273438 174.453125 C 222.476562 174.648438 222.722656 174.746094 223.011719 174.746094 C 223.308594 174.746094 223.554688 174.648438 223.75 174.453125 C 223.945312 174.257812 224.042969 174.027344 224.042969 173.753906 C 224.042969 173.46875 223.949219 173.230469 223.753906 173.039062 C 223.5625 172.847656 223.3125 172.75 223.011719 172.75 L 222.957031 172.75 C 223.191406 172.269531 223.539062 171.894531 224.003906 171.617188 C 224.46875 171.34375 224.976562 171.207031 225.535156 171.207031 C 225.953125 171.207031 226.339844 171.277344 226.6875 171.414062 C 227.039062 171.554688 227.34375 171.753906 227.597656 172.011719 C 227.851562 172.273438 228.050781 172.582031 228.191406 172.933594 C 228.332031 173.285156 228.402344 173.660156 228.402344 174.0625 C 228.402344 174.796875 228.195312 175.472656 227.78125 176.09375 C 227.367188 176.710938 226.789062 177.378906 226.042969 178.09375 C 225.902344 178.230469 225.792969 178.335938 225.71875 178.410156 C 225.640625 178.484375 225.535156 178.585938 225.40625 178.714844 L 222.042969 181.875 L 221.972656 182.027344 L 221.972656 182.550781 Z M 229.75 182.550781 "/>
<path style=" stroke:none;fill-rule:nonzero;fill:rgb(100%,74.899292%,74.899292%);fill-opacity:1;" d="M 242.941406 114.824219 C 243.042969 114.910156 243.152344 114.957031 243.273438 114.957031 C 243.316406 114.957031 243.511719 114.832031 243.847656 114.585938 C 244.1875 114.34375 244.539062 114.21875 244.90625 114.21875 C 245.472656 114.21875 246.023438 114.332031 246.5625 114.5625 C 247.273438 114.824219 247.988281 114.957031 248.707031 114.957031 C 249.601562 114.957031 250.46875 114.851562 251.316406 114.644531 C 252.160156 114.4375 252.933594 114.121094 253.636719 113.691406 C 254.339844 113.265625 254.898438 112.714844 255.320312 112.035156 C 255.742188 111.359375 255.949219 110.566406 255.949219 109.652344 C 255.949219 108.738281 255.722656 107.894531 255.269531 107.125 C 254.8125 106.355469 254.210938 105.683594 253.46875 105.113281 C 252.722656 104.542969 251.902344 104.085938 251.011719 103.75 C 250.679688 103.621094 250.175781 103.421875 249.496094 103.152344 C 248.8125 102.882812 248.207031 102.597656 247.675781 102.300781 C 247.140625 102.003906 246.6875 101.65625 246.316406 101.25 C 245.941406 100.84375 245.757812 100.410156 245.757812 99.953125 C 245.757812 99.117188 246.03125 98.457031 246.582031 97.972656 C 247.132812 97.492188 247.839844 97.25 248.707031 97.25 C 249.261719 97.25 249.820312 97.378906 250.378906 97.632812 C 250.9375 97.886719 251.460938 98.230469 251.945312 98.664062 C 252.429688 99.101562 252.835938 99.582031 253.15625 100.113281 C 253.476562 100.640625 253.675781 101.160156 253.753906 101.667969 C 253.761719 101.769531 253.816406 101.851562 253.914062 101.914062 C 254.015625 101.980469 254.109375 102.007812 254.195312 102.007812 C 254.300781 102.007812 254.402344 101.96875 254.5 101.890625 C 254.601562 101.808594 254.652344 101.703125 254.652344 101.566406 L 254.652344 96.753906 C 254.652344 96.636719 254.601562 96.539062 254.5 96.457031 C 254.402344 96.375 254.300781 96.335938 254.195312 96.335938 C 254.117188 96.335938 253.910156 96.460938 253.570312 96.703125 C 253.234375 96.949219 252.890625 97.074219 252.542969 97.074219 C 252.023438 97.074219 251.464844 96.957031 250.867188 96.730469 C 250.191406 96.46875 249.472656 96.335938 248.707031 96.335938 C 246.851562 96.335938 245.367188 96.777344 244.253906 97.664062 C 243.140625 98.546875 242.582031 99.875 242.582031 101.640625 C 242.582031 102.285156 242.734375 102.878906 243.039062 103.425781 C 243.34375 103.96875 243.734375 104.445312 244.207031 104.851562 C 244.6875 105.257812 245.21875 105.621094 245.800781 105.9375 C 246.386719 106.253906 247.023438 106.550781 247.707031 106.820312 C 249.007812 107.328125 250.101562 107.914062 250.984375 108.578125 C 251.867188 109.242188 252.308594 110.082031 252.308594 111.097656 C 252.308594 111.851562 252.167969 112.445312 251.878906 112.878906 C 251.59375 113.316406 251.195312 113.617188 250.683594 113.789062 C 250.171875 113.957031 249.523438 114.042969 248.734375 114.042969 C 248.160156 114.042969 247.578125 113.890625 246.980469 113.585938 C 246.378906 113.28125 245.835938 112.882812 245.347656 112.390625 C 244.855469 111.902344 244.464844 111.363281 244.167969 110.773438 C 243.875 110.1875 243.726562 109.621094 243.726562 109.078125 L 243.726562 108.863281 C 243.726562 108.738281 243.6875 108.625 243.601562 108.535156 C 243.519531 108.441406 243.410156 108.394531 243.28125 108.394531 C 242.953125 108.394531 242.792969 108.613281 242.792969 109.054688 L 242.792969 114.511719 C 242.792969 114.628906 242.84375 114.734375 242.941406 114.824219 M 243.726562 111.859375 C 244.082031 112.382812 244.503906 112.871094 244.988281 113.320312 L 244.910156 113.320312 C 244.539062 113.320312 244.144531 113.402344 243.726562 113.574219 Z M 245.816406 104.882812 C 245.195312 104.527344 244.65625 104.074219 244.203125 103.527344 C 243.746094 102.980469 243.519531 102.351562 243.519531 101.640625 C 243.519531 100.863281 243.667969 100.148438 243.96875 99.496094 C 244.269531 98.84375 244.738281 98.335938 245.378906 97.972656 C 245.007812 98.582031 244.820312 99.242188 244.820312 99.953125 C 244.820312 100.75 245.132812 101.445312 245.761719 102.035156 C 246.390625 102.628906 247.074219 103.09375 247.820312 103.4375 C 248.566406 103.78125 249.515625 104.167969 250.675781 104.601562 C 251.90625 105.074219 252.9375 105.746094 253.769531 106.617188 C 254.597656 107.488281 255.015625 108.5 255.015625 109.652344 C 255.015625 110.394531 254.824219 111.0625 254.441406 111.65625 C 254.054688 112.25 253.515625 112.738281 252.816406 113.128906 C 253.101562 112.5625 253.246094 111.882812 253.246094 111.097656 C 253.246094 109.863281 252.761719 108.855469 251.789062 108.070312 C 250.820312 107.289062 249.5625 106.582031 248.019531 105.957031 C 247.167969 105.601562 246.433594 105.246094 245.816406 104.882812 M 252.542969 97.972656 C 252.917969 97.972656 253.308594 97.890625 253.714844 97.71875 L 253.714844 99.28125 C 253.386719 98.824219 252.996094 98.390625 252.542969 97.972656 "/>
<path style=" stroke:none;fill-rule:nonzero;fill:rgb(100%,74.899292%,74.899292%);fill-opacity:1;" d="M 265.507812 118.09375 L 265.507812 117.367188 C 263.769531 117.367188 262.898438 117.1875 262.898438 116.824219 L 262.898438 106.242188 C 262.867188 106.125 262.792969 106.050781 262.679688 106.019531 L 262.335938 106.019531 C 261.875 106.449219 261.320312 106.75 260.664062 106.921875 C 260.011719 107.097656 259.308594 107.183594 258.558594 107.183594 L 258.558594 107.914062 C 259.675781 107.914062 260.589844 107.75 261.296875 107.425781 L 261.296875 116.824219 C 261.296875 117.1875 260.425781 117.367188 258.6875 117.367188 L 258.6875 118.09375 Z M 265.507812 118.09375 "/>
<path style=" stroke:none;fill-rule:nonzero;fill:rgb(100%,74.899292%,74.899292%);fill-opacity:1;" d="M 284.308594 108.660156 L 284.308594 116.328125 C 284.308594 116.460938 284.359375 116.574219 284.464844 116.664062 C 284.570312 116.75 284.695312 116.796875 284.84375 116.796875 C 284.972656 116.796875 285.09375 116.75 285.207031 116.664062 C 285.324219 116.574219 285.378906 116.460938 285.378906 116.328125 L 285.378906 108.660156 L 293.25 108.660156 C 293.382812 108.660156 293.496094 108.605469 293.589844 108.496094 C 293.6875 108.386719 293.734375 108.269531 293.734375 108.140625 C 293.734375 108.015625 293.6875 107.894531 293.589844 107.785156 C 293.496094 107.675781 293.382812 107.621094 293.25 107.621094 L 285.378906 107.621094 L 285.378906 99.953125 C 285.378906 99.820312 285.324219 99.707031 285.207031 99.617188 C 285.09375 99.527344 284.972656 99.484375 284.84375 99.484375 C 284.695312 99.484375 284.570312 99.527344 284.464844 99.617188 C 284.359375 99.707031 284.308594 99.820312 284.308594 99.953125 L 284.308594 107.621094 L 276.433594 107.621094 C 276.285156 107.621094 276.164062 107.675781 276.066406 107.785156 C 275.972656 107.894531 275.921875 108.015625 275.921875 108.140625 C 275.921875 108.269531 275.972656 108.386719 276.066406 108.496094 C 276.164062 108.605469 276.285156 108.660156 276.433594 108.660156 Z M 284.308594 108.660156 "/>
<path style=" stroke:none;fill-rule:nonzero;fill:rgb(100%,74.899292%,74.899292%);fill-opacity:1;" d="M 302.289062 114.824219 C 302.390625 114.910156 302.5 114.957031 302.621094 114.957031 C 302.664062 114.957031 302.859375 114.832031 303.195312 114.585938 C 303.535156 114.34375 303.886719 114.21875 304.253906 114.21875 C 304.820312 114.21875 305.371094 114.332031 305.910156 114.5625 C 306.621094 114.824219 307.335938 114.957031 308.054688 114.957031 C 308.949219 114.957031 309.816406 114.851562 310.664062 114.644531 C 311.507812 114.4375 312.28125 114.121094 312.984375 113.691406 C 313.6875 113.265625 314.246094 112.714844 314.667969 112.035156 C 315.089844 111.359375 315.296875 110.566406 315.296875 109.652344 C 315.296875 108.738281 315.070312 107.894531 314.617188 107.125 C 314.160156 106.355469 313.558594 105.683594 312.816406 105.113281 C 312.070312 104.542969 311.25 104.085938 310.359375 103.75 C 310.027344 103.621094 309.523438 103.421875 308.84375 103.152344 C 308.160156 102.882812 307.554688 102.597656 307.023438 102.300781 C 306.488281 102.003906 306.035156 101.65625 305.664062 101.25 C 305.289062 100.84375 305.105469 100.410156 305.105469 99.953125 C 305.105469 99.117188 305.378906 98.457031 305.929688 97.972656 C 306.480469 97.492188 307.1875 97.25 308.054688 97.25 C 308.609375 97.25 309.167969 97.378906 309.726562 97.632812 C 310.285156 97.886719 310.808594 98.230469 311.292969 98.664062 C 311.777344 99.101562 312.183594 99.582031 312.503906 100.113281 C 312.824219 100.640625 313.023438 101.160156 313.101562 101.667969 C 313.109375 101.769531 313.164062 101.851562 313.261719 101.914062 C 313.363281 101.980469 313.457031 102.007812 313.542969 102.007812 C 313.648438 102.007812 313.75 101.96875 313.847656 101.890625 C 313.949219 101.808594 314 101.703125 314 101.566406 L 314 96.753906 C 314 96.636719 313.949219 96.539062 313.847656 96.457031 C 313.75 96.375 313.648438 96.335938 313.542969 96.335938 C 313.464844 96.335938 313.257812 96.460938 312.917969 96.703125 C 312.582031 96.949219 312.238281 97.074219 311.890625 97.074219 C 311.371094 97.074219 310.8125 96.957031 310.214844 96.730469 C 309.539062 96.46875 308.820312 96.335938 308.054688 96.335938 C 306.199219 96.335938 304.714844 96.777344 303.601562 97.664062 C 302.488281 98.546875 301.929688 99.875 301.929688 101.640625 C 301.929688 102.285156 302.082031 102.878906 302.386719 103.425781 C 302.691406 103.96875 303.082031 104.445312 303.554688 104.851562 C 304.035156 105.257812 304.566406 105.621094 305.148438 105.9375 C 305.734375 106.253906 306.371094 106.550781 307.054688 106.820312 C 308.355469 107.328125 309.449219 107.914062 310.332031 108.578125 C 311.214844 109.242188 311.65625 110.082031 311.65625 111.097656 C 311.65625 111.851562 311.515625 112.445312 311.226562 112.878906 C 310.941406 113.316406 310.542969 113.617188 310.03125 113.789062 C 309.519531 113.957031 308.871094 114.042969 308.082031 114.042969 C 307.507812 114.042969 306.925781 113.890625 306.328125 113.585938 C 305.726562 113.28125 305.183594 112.882812 304.695312 112.390625 C 304.203125 111.902344 303.8125 111.363281 303.515625 110.773438 C 303.222656 110.1875 303.074219 109.621094 303.074219 109.078125 L 303.074219 108.863281 C 303.074219 108.738281 303.035156 108.625 302.949219 108.535156 C 302.867188 108.441406 302.757812 108.394531 302.628906 108.394531 C 302.300781 108.394531 302.140625 108.613281 302.140625 109.054688 L 302.140625 114.511719 C 302.140625 114.628906 302.191406 114.734375 302.289062 114.824219 M 303.074219 111.859375 C 303.429688 112.382812 303.851562 112.871094 304.335938 113.320312 L 304.257812 113.320312 C 303.886719 113.320312 303.492188 113.402344 303.074219 113.574219 Z M 305.164062 104.882812 C 304.542969 104.527344 304.003906 104.074219 303.550781 103.527344 C 303.09375 102.980469 302.867188 102.351562 302.867188 101.640625 C 302.867188 100.863281 303.015625 100.148438 303.316406 99.496094 C 303.617188 98.84375 304.085938 98.335938 304.726562 97.972656 C 304.355469 98.582031 304.167969 99.242188 304.167969 99.953125 C 304.167969 100.75 304.480469 101.445312 305.109375 102.035156 C 305.738281 102.628906 306.421875 103.09375 307.167969 103.4375 C 307.914062 103.78125 308.863281 104.167969 310.023438 104.601562 C 311.253906 105.074219 312.285156 105.746094 313.117188 106.617188 C 313.945312 107.488281 314.363281 108.5 314.363281 109.652344 C 314.363281 110.394531 314.171875 111.0625 313.789062 111.65625 C 313.402344 112.25 312.863281 112.738281 312.164062 113.128906 C 312.449219 112.5625 312.59375 111.882812 312.59375 111.097656 C 312.59375 109.863281 312.109375 108.855469 311.136719 108.070312 C 310.167969 107.289062 308.910156 106.582031 307.367188 105.957031 C 306.515625 105.601562 305.78125 105.246094 305.164062 104.882812 M 311.890625 97.972656 C 312.265625 97.972656 312.65625 97.890625 313.0625 97.71875 L 313.0625 99.28125 C 312.734375 98.824219 312.34375 98.390625 311.890625 97.972656 "/>
<path style=" stroke:none;fill-rule:nonzero;fill:rgb(100%,74.899292%,74.899292%);fill-opacity:1;" d="M 324.855469 118.09375 L 325.417969 114.710938 L 324.699219 114.710938 C 324.632812 115.132812 324.5625 115.488281 324.496094 115.777344 C 324.429688 116.066406 324.339844 116.269531 324.226562 116.382812 C 324.199219 116.410156 323.984375 116.433594 323.59375 116.449219 C 323.199219 116.460938 322.742188 116.472656 322.222656 116.472656 C 321.707031 116.476562 321.210938 116.476562 320.734375 116.476562 L 319.003906 116.476562 L 321.308594 114.589844 C 321.503906 114.421875 321.925781 114.09375 322.578125 113.605469 C 323.230469 113.117188 323.742188 112.699219 324.109375 112.34375 C 324.476562 111.988281 324.789062 111.578125 325.039062 111.113281 C 325.292969 110.648438 325.417969 110.144531 325.417969 109.609375 C 325.417969 108.863281 325.207031 108.214844 324.785156 107.667969 C 324.367188 107.121094 323.8125 106.710938 323.132812 106.433594 C 322.449219 106.160156 321.726562 106.019531 320.964844 106.019531 C 320.328125 106.019531 319.707031 106.15625 319.105469 106.425781 C 318.503906 106.695312 318.015625 107.078125 317.640625 107.574219 C 317.265625 108.074219 317.078125 108.644531 317.078125 109.296875 C 317.078125 109.570312 317.179688 109.804688 317.382812 110 C 317.585938 110.195312 317.832031 110.292969 318.117188 110.292969 C 318.414062 110.292969 318.660156 110.195312 318.855469 110 C 319.050781 109.804688 319.152344 109.570312 319.152344 109.296875 C 319.152344 109.011719 319.054688 108.777344 318.859375 108.582031 C 318.667969 108.390625 318.417969 108.292969 318.117188 108.292969 L 318.0625 108.292969 C 318.296875 107.8125 318.644531 107.4375 319.109375 107.164062 C 319.574219 106.886719 320.085938 106.75 320.644531 106.75 C 321.0625 106.75 321.445312 106.820312 321.796875 106.957031 C 322.144531 107.097656 322.449219 107.296875 322.703125 107.558594 C 322.957031 107.816406 323.15625 108.125 323.296875 108.476562 C 323.4375 108.828125 323.511719 109.207031 323.511719 109.609375 C 323.511719 110.339844 323.300781 111.019531 322.886719 111.636719 C 322.472656 112.253906 321.894531 112.921875 321.148438 113.636719 C 321.007812 113.773438 320.898438 113.878906 320.824219 113.953125 C 320.746094 114.027344 320.644531 114.128906 320.515625 114.257812 L 317.152344 117.417969 L 317.078125 117.570312 L 317.078125 118.09375 Z M 324.855469 118.09375 "/>
</g>
</svg>
