<?xml version="1.0" encoding="UTF-8" standalone="no"?>
<svg
   xmlns:dc="http://purl.org/dc/elements/1.1/"
   xmlns:cc="http://creativecommons.org/ns#"
   xmlns:rdf="http://www.w3.org/1999/02/22-rdf-syntax-ns#"
   xmlns:svg="http://www.w3.org/2000/svg"
   xmlns="http://www.w3.org/2000/svg"
   viewBox="0 0 643.35065 595.58069"
   height="595.58069"
   width="643.35065"
   xml:space="preserve"
   id="svg2"
   version="1.1"><metadata
     id="metadata8"><rdf:RDF><cc:Work
         rdf:about=""><dc:format>image/svg+xml</dc:format><dc:type
           rdf:resource="http://purl.org/dc/dcmitype/StillImage" /></cc:Work></rdf:RDF></metadata><defs
     id="defs6"><clipPath
       id="clipPath14"
       clipPathUnits="userSpaceOnUse"><path
         id="path12"
         d="M 0,0 H 842 V 595 H 0 Z" /></clipPath><clipPath
       id="clipPath26"
       clipPathUnits="userSpaceOnUse"><path
         style="clip-rule:evenodd"
         id="path24"
         d="M -56.148,-278.094 H 1238.24 V 637.111 H -56.148 Z" /></clipPath><clipPath
       id="clipPath50"
       clipPathUnits="userSpaceOnUse"><path
         style="clip-rule:evenodd"
         id="path48"
         d="M -56.148,-278.094 H 1238.24 V 637.111 H -56.148 Z" /></clipPath><clipPath
       id="clipPath66"
       clipPathUnits="userSpaceOnUse"><path
         style="clip-rule:evenodd"
         id="path64"
         d="M -56.148,-278.094 H 1238.24 V 637.111 H -56.148 Z" /></clipPath><clipPath
       id="clipPath90"
       clipPathUnits="userSpaceOnUse"><path
         style="clip-rule:evenodd"
         id="path88"
         d="M -56.148,-278.094 H 1238.24 V 637.111 H -56.148 Z" /></clipPath></defs><g
     clip-path="url(#clipPath14)"
     transform="matrix(1.3333333,0,0,-1.3333333,-144.81333,683.51867)"
     id="g10"><g
       transform="translate(587.3555,390.3193)"
       id="g16"><path
         id="path18"
         style="fill:#ccffff;fill-opacity:1;fill-rule:evenodd;stroke:none"
         d="m 0,0 -364.268,115.477 -27.524,3.998 -26.293,-5.074 -15.838,-8.15 -16.607,-13.224 -11.224,-12.762 -9.38,-19.836 -4.613,-25.832 1.23,-18.298 4.613,-19.682 5.382,-13.685 4.613,-8.918 227.264,-295.689 L 0.308,-110.864 -0.461,0 Z" /></g><g
       id="g20"><g
         clip-path="url(#clipPath26)"
         id="g22"><g
           transform="translate(587.3555,390.3194)"
           id="g28"><path
             id="path30"
             style="fill:#ffffff;fill-opacity:1;fill-rule:nonzero;stroke:none"
             d="m 0,0 -0.349,-1.099 -364.177,115.448 -27.238,3.957 -25.94,-5.006 -15.59,-8.022 -16.437,-13.089 -11.05,-12.564 -9.245,-19.55 -4.561,-25.542 1.214,-18.063 4.573,-19.508 5.329,-13.553 4.539,-8.774 226.439,-294.616 231.644,209.625 -0.766,110.348 c -0.002,0.308 0.118,0.602 0.335,0.821 0.218,0.218 0.511,0.34 0.819,0.34 L 0,1.153 V 0 L -0.349,-1.099 0,0 V -1.153 H -0.461 V 0 l 1.153,0.008 0.769,-110.864 c 0.002,-0.33 -0.135,-0.642 -0.38,-0.863 L -231.872,-322.53 c -0.238,-0.216 -0.557,-0.322 -0.877,-0.294 -0.32,0.029 -0.615,0.192 -0.811,0.446 l -227.264,295.689 -0.11,0.173 -4.612,8.918 -0.049,0.108 -5.382,13.685 -0.05,0.159 -4.613,19.682 -0.027,0.186 -1.231,18.298 c -0.006,0.096 -10e-4,0.185 0.016,0.28 l 4.613,25.832 c 0.017,0.095 0.051,0.203 0.092,0.29 l 9.38,19.836 c 0.046,0.098 0.105,0.188 0.177,0.269 l 11.224,12.762 0.148,0.141 16.607,13.223 0.19,0.124 15.838,8.149 c 0.096,0.049 0.203,0.087 0.309,0.107 l 26.294,5.074 c 0.126,0.024 0.257,0.027 0.384,0.009 l 27.524,-3.998 0.183,-0.042 L 0.349,1.099 C 0.889,0.928 1.226,0.384 1.14,-0.176 1.053,-0.737 0.567,-1.153 0,-1.153 Z" /></g><g
           transform="translate(197.1015,509.948)"
           id="g32"><path
             id="path34"
             style="fill:#ccffcc;fill-opacity:1;fill-rule:evenodd;stroke:none"
             d="m 0,0 c 48.59,0 85.801,-38.595 85.801,-89.183 0,-50.435 -37.211,-89.184 -85.801,-89.184 -48.59,0 -85.801,38.749 -85.801,89.184 C -85.801,-38.595 -48.59,0 0,0" /></g><g
           transform="translate(197.1015,509.9481)"
           id="g36"><path
             id="path38"
             style="fill:#000000;fill-opacity:1;fill-rule:nonzero;stroke:none"
             d="M 0,0 V 1.153 C 24.602,1.156 46.368,-8.628 61.952,-24.821 77.541,-41.012 86.955,-63.606 86.954,-89.183 86.955,-114.685 77.54,-137.278 61.953,-153.487 46.369,-169.699 24.604,-179.523 0,-179.52 c -24.604,-0.003 -46.369,9.821 -61.953,26.033 -15.587,16.209 -25.002,38.802 -25.001,64.304 -0.001,25.577 9.413,48.171 25.002,64.362 C -46.368,-8.628 -24.602,1.156 0,1.153 V 0 -1.153 c -23.987,-0.003 -45.122,-9.516 -60.291,-25.268 -15.164,-15.754 -24.355,-37.752 -24.356,-62.762 0.001,-24.933 9.192,-46.932 24.357,-62.706 15.169,-15.771 36.304,-25.322 60.29,-25.324 23.986,0.002 45.121,9.553 60.29,25.324 15.165,15.774 24.356,37.773 24.357,62.706 -0.001,25.01 -9.192,47.008 -24.356,62.762 C 45.122,-10.669 23.987,-1.156 0,-1.153 Z" /></g></g></g><g
       transform="translate(525.8497,280.3778)"
       id="g40"><path
         id="path42"
         style="fill:#ccffcc;fill-opacity:1;fill-rule:evenodd;stroke:none"
         d="M 0,0 H -62.582 V 110.403 H 62.582 V 0 Z" /></g><g
       id="g44"><g
         clip-path="url(#clipPath50)"
         id="g46"><g
           transform="translate(525.8498,280.3778)"
           id="g52"><path
             id="path54"
             style="fill:#000000;fill-opacity:1;fill-rule:nonzero;stroke:none"
             d="m 0,0 v -1.153 h -62.582 c -0.304,0 -0.601,0.123 -0.816,0.338 -0.214,0.214 -0.337,0.511 -0.337,0.815 v 110.403 c 0,0.303 0.123,0.601 0.337,0.815 0.215,0.215 0.512,0.338 0.816,0.338 H 62.582 c 0.304,0 0.601,-0.123 0.816,-0.338 0.214,-0.214 0.337,-0.512 0.337,-0.815 L 63.735,0 c 0,-0.304 -0.123,-0.601 -0.337,-0.815 -0.215,-0.215 -0.512,-0.338 -0.816,-0.338 H 0 V 0 1.153 H 61.429 V 109.25 H -61.429 V 1.153 L 0,1.153 Z" /></g></g></g><g
       transform="translate(354.8638,69.4131)"
       id="g56"><path
         id="path58"
         style="fill:#ccffcc;fill-opacity:1;fill-rule:evenodd;stroke:none"
         d="M 0,0 -69.963,148.844 H 69.963 Z" /></g><g
       id="g60"><g
         clip-path="url(#clipPath66)"
         id="g62"><g
           transform="translate(354.8638,69.4131)"
           id="g68"><path
             id="path70"
             style="fill:#000000;fill-opacity:1;fill-rule:nonzero;stroke:none"
             d="m 0,0 -1.044,-0.491 -69.963,148.844 c -0.167,0.356 -0.14,0.777 0.071,1.109 0.21,0.332 0.58,0.535 0.973,0.535 H 69.963 c 0.393,0 0.763,-0.203 0.973,-0.535 0.211,-0.332 0.238,-0.753 0.071,-1.109 L 1.044,-0.491 C 0.853,-0.897 0.449,-1.153 0,-1.153 c -0.449,0 -0.853,0.256 -1.044,0.662 L 0,0 l -1.044,0.491 69.19,147.2 H -68.146 L 1.044,0.491 0,0 -1.044,0.491 Z" /></g></g></g><g
       transform="translate(299.6086,372.0571)"
       id="g72"><path
         id="path74"
         style="fill:#000000;fill-opacity:1;fill-rule:nonzero;stroke:none"
         d="m 0,0 c 0.602,-0.918 1.424,-1.615 2.467,-2.091 1.042,-0.476 2.192,-0.715 3.449,-0.715 0.775,0 1.515,0.111 2.219,0.332 0.704,0.22 1.319,0.567 1.845,1.039 0.525,0.472 0.904,1.058 1.136,1.76 l 0.027,0.143 c 0,0.181 -0.112,0.303 -0.334,0.363 H 10.1 C 9.957,0.805 9.85,0.736 9.779,0.623 9.628,0.156 9.391,-0.251 9.071,-0.597 8.75,-0.944 8.375,-1.204 7.948,-1.377 7.52,-1.55 7.052,-1.637 6.544,-1.637 c -2.558,0 -3.837,1.641 -3.837,4.923 0,0.875 0.076,1.676 0.227,2.403 C 3.086,6.416 3.4,7.022 3.877,7.507 4.354,7.992 5.042,8.235 5.942,8.235 6.655,8.235 7.257,8.196 7.747,8.118 7.417,7.858 7.253,7.451 7.253,6.897 7.253,6.403 7.422,5.992 7.76,5.663 8.099,5.334 8.523,5.169 9.031,5.169 c 0.508,0 0.926,0.165 1.256,0.494 0.33,0.329 0.495,0.74 0.495,1.234 0,1.013 -0.486,1.684 -1.457,2.013 C 8.353,9.239 7.217,9.404 5.916,9.404 4.632,9.404 3.474,9.163 2.44,8.683 1.406,8.202 0.59,7.492 -0.007,6.553 -0.604,5.613 -0.902,4.516 -0.902,3.26 -0.902,2.004 -0.602,0.918 0,0 m 13.17,0.578 c 0.365,-0.749 0.873,-1.375 1.524,-1.877 0.651,-0.502 1.397,-0.879 2.239,-1.13 0.843,-0.251 1.732,-0.377 2.667,-0.377 0.936,0 1.83,0.126 2.681,0.377 0.851,0.251 1.597,0.628 2.239,1.13 0.642,0.502 1.145,1.128 1.511,1.877 0.365,0.749 0.548,1.604 0.548,2.565 0,0.987 -0.174,1.871 -0.522,2.65 C 25.71,6.572 25.217,7.23 24.58,7.767 23.943,8.304 23.201,8.711 22.354,8.988 21.508,9.265 20.59,9.404 19.6,9.404 18.281,9.404 17.094,9.159 16.038,8.67 14.982,8.181 14.148,7.464 13.538,6.52 12.927,5.576 12.622,4.451 12.622,3.143 c 0,-0.961 0.183,-1.816 0.548,-2.565 m 4.131,-1.507 c -0.49,0.472 -0.791,1.05 -0.902,1.734 -0.112,0.684 -0.167,1.58 -0.167,2.689 0,0.727 0.028,1.366 0.086,1.916 0.058,0.55 0.192,1.045 0.401,1.487 0.21,0.442 0.544,0.792 1.003,1.052 0.459,0.26 1.085,0.39 1.878,0.39 0.794,0 1.42,-0.13 1.879,-0.39 0.459,-0.26 0.791,-0.604 0.996,-1.033 0.205,-0.428 0.338,-0.9 0.401,-1.415 0.062,-0.516 0.093,-1.185 0.093,-2.007 0,-1.109 -0.055,-2.005 -0.167,-2.689 -0.111,-0.684 -0.412,-1.262 -0.902,-1.734 -0.49,-0.472 -1.257,-0.708 -2.3,-0.708 -1.042,0 -1.809,0.236 -2.299,0.708 M 35.758,-2.65 v 1.351 h -1.885 v 5.598 c 0,0.684 0.178,1.332 0.534,1.942 0.355,0.61 0.842,1.1 1.46,1.468 0.618,0.368 1.291,0.552 2.02,0.552 0.64,0 1.043,-0.267 1.207,-0.799 0.165,-0.533 0.247,-1.206 0.247,-2.02 V -1.299 H 37.443 V -2.65 h 7.032 v 1.351 H 42.576 V 5.52 c 0,1.394 -0.363,2.377 -1.089,2.949 C 40.76,9.04 39.675,9.326 38.231,9.326 37.26,9.326 36.355,9.083 35.518,8.598 34.68,8.113 34.034,7.451 33.579,6.611 V 9.326 L 28.753,9.105 V 7.754 c 1.257,0 1.885,-0.251 1.885,-0.753 v -8.3 H 28.753 V -2.65 Z m 16.347,-0.104 h 0.441 c 0.366,0 0.62,0.161 0.763,0.481 l 4.723,9.858 c 0.106,0.147 0.733,0.221 1.879,0.221 V 9.157 H 55.152 V 7.806 c 0.275,0 0.564,-0.015 0.867,-0.045 0.302,-0.031 0.453,-0.089 0.453,-0.176 L 53.26,0.805 49.912,7.806 h 1.457 V 9.157 H 44.738 V 7.806 h 1.805 l 4.799,-10.079 c 0.143,-0.32 0.397,-0.481 0.763,-0.481" /></g><g
       transform="translate(371.0872,369.2191)"
       id="g76"><path
         id="path78"
         style="fill:#000000;fill-opacity:1;fill-rule:nonzero;stroke:none"
         d="m 0,0 c 0.103,-0.091 0.216,-0.136 0.341,-0.136 0.045,0 0.241,0.125 0.59,0.376 0.348,0.251 0.709,0.377 1.084,0.377 0.58,0 1.147,-0.117 1.7,-0.351 0.73,-0.268 1.464,-0.402 2.202,-0.402 0.916,0 1.808,0.106 2.675,0.318 0.867,0.212 1.661,0.537 2.382,0.974 0.72,0.437 1.296,1.002 1.728,1.695 0.431,0.693 0.647,1.507 0.647,2.442 0,0.935 -0.234,1.796 -0.701,2.585 -0.467,0.787 -1.083,1.474 -1.848,2.058 -0.765,0.585 -1.605,1.05 -2.521,1.396 -0.339,0.13 -0.857,0.334 -1.555,0.611 -0.698,0.277 -1.321,0.567 -1.868,0.87 -0.547,0.303 -1.012,0.663 -1.394,1.078 -0.383,0.416 -0.574,0.857 -0.574,1.325 0,0.857 0.283,1.533 0.847,2.026 0.565,0.494 1.292,0.741 2.182,0.741 0.569,0 1.141,-0.13 1.714,-0.39 0.574,-0.26 1.11,-0.613 1.608,-1.059 0.498,-0.446 0.912,-0.939 1.241,-1.48 0.329,-0.542 0.534,-1.072 0.614,-1.591 0.009,-0.104 0.064,-0.189 0.167,-0.254 0.102,-0.065 0.197,-0.097 0.286,-0.097 0.107,0 0.212,0.041 0.314,0.123 0.102,0.082 0.153,0.193 0.153,0.331 v 4.923 c 0,0.121 -0.051,0.223 -0.153,0.305 -0.102,0.083 -0.207,0.124 -0.314,0.124 -0.08,0 -0.293,-0.126 -0.64,-0.377 -0.347,-0.251 -0.698,-0.377 -1.054,-0.377 -0.534,0 -1.107,0.117 -1.721,0.351 -0.694,0.268 -1.432,0.403 -2.215,0.403 -1.904,0 -3.427,-0.453 -4.57,-1.358 -1.143,-0.904 -1.714,-2.262 -1.714,-4.071 0,-0.659 0.155,-1.267 0.467,-1.825 C 0.411,11.105 0.811,10.618 1.3,10.202 1.79,9.787 2.335,9.417 2.935,9.092 3.535,8.767 4.187,8.466 4.89,8.189 6.224,7.67 7.345,7.07 8.252,6.39 9.159,5.71 9.613,4.851 9.613,3.812 9.613,3.041 9.466,2.433 9.173,1.987 8.879,1.541 8.47,1.232 7.945,1.059 7.42,0.885 6.753,0.799 5.944,0.799 5.357,0.799 4.756,0.955 4.142,1.266 3.529,1.578 2.97,1.985 2.468,2.487 1.965,2.989 1.563,3.541 1.26,4.143 0.958,4.745 0.807,5.323 0.807,5.877 V 6.098 C 0.807,6.228 0.764,6.34 0.678,6.436 0.592,6.531 0.482,6.579 0.347,6.579 0.013,6.579 -0.154,6.353 -0.154,5.903 V 5.695 0.318 C -0.154,0.197 -0.103,0.091 0,0 M 0.807,3.033 C 1.171,2.496 1.603,1.998 2.101,1.539 h -0.08 c -0.383,0 -0.787,-0.087 -1.214,-0.26 z m 2.141,7.137 c -0.636,0.368 -1.187,0.831 -1.654,1.39 -0.467,0.558 -0.701,1.201 -0.701,1.929 0,0.796 0.154,1.528 0.461,2.195 0.307,0.666 0.789,1.186 1.447,1.558 -0.382,-0.623 -0.573,-1.299 -0.573,-2.026 0,-0.814 0.321,-1.524 0.966,-2.13 C 3.538,12.48 4.242,12.001 5.006,11.651 5.77,11.3 6.747,10.904 7.937,10.462 9.199,9.977 10.256,9.289 11.109,8.397 11.962,7.505 12.388,6.47 12.388,5.293 c 0,-0.762 -0.197,-1.446 -0.59,-2.052 -0.394,-0.607 -0.949,-1.109 -1.665,-1.507 0.294,0.58 0.44,1.273 0.44,2.078 0,1.264 -0.498,2.297 -1.494,3.098 C 8.083,7.711 6.793,8.432 5.21,9.072 4.338,9.436 3.584,9.802 2.948,10.17 m 6.905,7.072 c 0.382,0 0.783,0.087 1.201,0.26 v -1.598 c -0.338,0.468 -0.739,0.914 -1.201,1.338" /></g><g
       transform="translate(515.0081,146.4208)"
       id="g80"><path
         id="path82"
         style="fill:#ffffff;fill-opacity:1;fill-rule:nonzero;stroke:none"
         d="m 0,0 c 0.103,-0.091 0.216,-0.136 0.341,-0.136 0.045,0 0.241,0.125 0.59,0.376 0.348,0.251 0.709,0.377 1.084,0.377 0.58,0 1.147,-0.117 1.7,-0.351 0.73,-0.268 1.464,-0.402 2.202,-0.402 0.916,0 1.808,0.106 2.675,0.318 0.867,0.212 1.661,0.537 2.382,0.974 0.72,0.437 1.296,1.002 1.728,1.695 0.431,0.693 0.647,1.507 0.647,2.442 0,0.935 -0.234,1.797 -0.701,2.585 -0.467,0.787 -1.083,1.474 -1.848,2.058 -0.765,0.585 -1.605,1.05 -2.521,1.396 -0.339,0.13 -0.857,0.334 -1.555,0.611 -0.698,0.277 -1.321,0.567 -1.868,0.87 -0.547,0.303 -1.012,0.663 -1.394,1.078 -0.383,0.416 -0.574,0.857 -0.574,1.325 0,0.857 0.282,1.533 0.847,2.026 0.565,0.494 1.292,0.741 2.182,0.741 0.569,0 1.141,-0.13 1.714,-0.39 0.574,-0.26 1.11,-0.613 1.608,-1.059 0.498,-0.446 0.912,-0.939 1.241,-1.48 0.329,-0.542 0.534,-1.072 0.614,-1.591 0.009,-0.104 0.064,-0.189 0.167,-0.254 0.102,-0.065 0.197,-0.097 0.286,-0.097 0.107,0 0.212,0.041 0.314,0.123 0.102,0.082 0.153,0.193 0.153,0.332 v 4.922 c 0,0.121 -0.051,0.223 -0.153,0.305 -0.102,0.083 -0.207,0.124 -0.314,0.124 -0.08,0 -0.293,-0.126 -0.64,-0.377 -0.347,-0.251 -0.698,-0.377 -1.054,-0.377 -0.534,0 -1.107,0.117 -1.721,0.351 -0.694,0.268 -1.432,0.403 -2.215,0.403 -1.904,0 -3.427,-0.453 -4.57,-1.358 -1.143,-0.904 -1.714,-2.262 -1.714,-4.071 0,-0.659 0.155,-1.267 0.467,-1.825 C 0.411,11.105 0.811,10.618 1.3,10.202 1.79,9.787 2.335,9.417 2.935,9.092 3.535,8.767 4.187,8.466 4.89,8.189 6.224,7.67 7.345,7.07 8.252,6.39 9.159,5.71 9.613,4.851 9.613,3.812 9.613,3.041 9.466,2.433 9.173,1.987 8.879,1.541 8.47,1.232 7.945,1.059 7.42,0.885 6.753,0.799 5.944,0.799 5.357,0.799 4.756,0.955 4.142,1.266 3.529,1.578 2.97,1.985 2.468,2.487 1.965,2.989 1.563,3.541 1.26,4.143 0.958,4.745 0.807,5.323 0.807,5.877 V 6.098 C 0.807,6.228 0.764,6.34 0.678,6.436 0.592,6.531 0.482,6.579 0.347,6.579 0.013,6.579 -0.154,6.353 -0.154,5.903 V 5.695 0.318 C -0.154,0.197 -0.103,0.091 0,0 M 0.807,3.033 C 1.171,2.496 1.603,1.998 2.101,1.539 h -0.08 c -0.383,0 -0.787,-0.087 -1.214,-0.26 z m 2.141,7.137 c -0.636,0.368 -1.187,0.831 -1.654,1.39 -0.467,0.558 -0.701,1.201 -0.701,1.929 0,0.796 0.154,1.528 0.461,2.195 0.307,0.666 0.789,1.186 1.447,1.558 -0.382,-0.623 -0.573,-1.299 -0.573,-2.026 0,-0.814 0.321,-1.524 0.966,-2.13 C 3.538,12.48 4.242,12.001 5.006,11.651 5.77,11.3 6.747,10.904 7.937,10.462 9.199,9.977 10.256,9.289 11.109,8.397 11.961,7.505 12.388,6.47 12.388,5.293 c 0,-0.762 -0.197,-1.446 -0.59,-2.052 -0.394,-0.607 -0.949,-1.109 -1.665,-1.507 0.294,0.58 0.44,1.273 0.44,2.078 0,1.264 -0.498,2.297 -1.494,3.098 C 8.083,7.711 6.793,8.432 5.21,9.072 4.338,9.436 3.584,9.802 2.948,10.17 m 6.905,7.072 c 0.382,0 0.783,0.087 1.201,0.26 v -1.598 c -0.338,0.468 -0.739,0.914 -1.201,1.338" /></g><g
       id="g84"><g
         clip-path="url(#clipPath90)"
         id="g86"><g
           transform="translate(509.3262,157.4454)"
           id="g92"><path
             id="path94"
             style="fill:#b2b2b2;fill-opacity:1;fill-rule:nonzero;stroke:none"
             d="m 0,0 -120.244,7.381 0.142,2.302 L 0.141,2.302" /></g><g
           transform="translate(365.6273,167.5148)"
           id="g96"><path
             id="path98"
             style="fill:#b2b2b2;fill-opacity:1;fill-rule:evenodd;stroke:none"
             d="M 0,0 24.141,-9.841 25.217,6.612 Z" /></g><g
           transform="translate(522.6977,175.8048)"
           id="g100"><path
             id="path102"
             style="fill:#b2b2b2;fill-opacity:1;fill-rule:nonzero;stroke:none"
             d="M 0,0 -1.384,120.09 0.922,120.117 2.306,0.027" /></g><g
           transform="translate(522.1594,319.5877)"
           id="g104"><path
             id="path106"
             style="fill:#b2b2b2;fill-opacity:1;fill-rule:evenodd;stroke:none"
             d="m 0,0 -7.996,-24.91 16.607,0.154 z" /></g><g
           transform="translate(513.6138,169.8301)"
           id="g108"><path
             id="path110"
             style="fill:#b2b2b2;fill-opacity:1;fill-rule:nonzero;stroke:none"
             d="m 0,0 -281.543,216.808 1.408,1.827 L 1.407,1.827" /></g><g
           transform="translate(214.0156,402.0054)"
           id="g112"><path
             id="path114"
             style="fill:#b2b2b2;fill-opacity:1;fill-rule:evenodd;stroke:none"
             d="m 0,0 14.608,-21.681 10.148,13.07 z" /></g></g></g></g></svg>