<?xml version="1.0" encoding="UTF-8" standalone="no"?>
<svg
   xmlns:dc="http://purl.org/dc/elements/1.1/"
   xmlns:cc="http://creativecommons.org/ns#"
   xmlns:rdf="http://www.w3.org/1999/02/22-rdf-syntax-ns#"
   xmlns:svg="http://www.w3.org/2000/svg"
   xmlns="http://www.w3.org/2000/svg"
   viewBox="0 0 682.52881 530.15466"
   height="530.15466"
   width="682.52881"
   xml:space="preserve"
   id="svg2"
   version="1.1"><metadata
     id="metadata8"><rdf:RDF><cc:Work
         rdf:about=""><dc:format>image/svg+xml</dc:format><dc:type
           rdf:resource="http://purl.org/dc/dcmitype/StillImage" /></cc:Work></rdf:RDF></metadata><defs
     id="defs6"><clipPath
       id="clipPath14"
       clipPathUnits="userSpaceOnUse"><path
         id="path12"
         d="M 0,0 H 842 V 595 H 0 Z" /></clipPath><clipPath
       id="clipPath22"
       clipPathUnits="userSpaceOnUse"><path
         style="clip-rule:evenodd"
         id="path20"
         d="M 0,-0.2 H 841.8 V 595 H 0 Z" /></clipPath><clipPath
       id="clipPath34"
       clipPathUnits="userSpaceOnUse"><path
         style="clip-rule:evenodd"
         id="path32"
         d="M 0,-0.2 H 841.8 V 595 H 0 Z" /></clipPath><clipPath
       id="clipPath46"
       clipPathUnits="userSpaceOnUse"><path
         style="clip-rule:evenodd"
         id="path44"
         d="M 0,-0.2 H 841.8 V 595 H 0 Z" /></clipPath><clipPath
       id="clipPath58"
       clipPathUnits="userSpaceOnUse"><path
         style="clip-rule:evenodd"
         id="path56"
         d="M 0,-0.2 H 841.8 V 595 H 0 Z" /></clipPath><clipPath
       id="clipPath70"
       clipPathUnits="userSpaceOnUse"><path
         style="clip-rule:evenodd"
         id="path68"
         d="M 0,-0.2 H 841.8 V 595 H 0 Z" /></clipPath><clipPath
       id="clipPath82"
       clipPathUnits="userSpaceOnUse"><path
         style="clip-rule:evenodd"
         id="path80"
         d="M 0,-0.2 H 841.8 V 595 H 0 Z" /></clipPath><clipPath
       id="clipPath94"
       clipPathUnits="userSpaceOnUse"><path
         style="clip-rule:evenodd"
         id="path92"
         d="M 0,-0.2 H 841.8 V 595 H 0 Z" /></clipPath><clipPath
       id="clipPath106"
       clipPathUnits="userSpaceOnUse"><path
         style="clip-rule:evenodd"
         id="path104"
         d="M 0,-0.2 H 841.8 V 595 H 0 Z" /></clipPath><clipPath
       id="clipPath118"
       clipPathUnits="userSpaceOnUse"><path
         style="clip-rule:evenodd"
         id="path116"
         d="M 0,-0.2 H 841.8 V 595 H 0 Z" /></clipPath><clipPath
       id="clipPath130"
       clipPathUnits="userSpaceOnUse"><path
         style="clip-rule:evenodd"
         id="path128"
         d="M 0,-0.2 H 841.8 V 595 H 0 Z" /></clipPath><clipPath
       id="clipPath142"
       clipPathUnits="userSpaceOnUse"><path
         style="clip-rule:evenodd"
         id="path140"
         d="M 0,-0.2 H 841.8 V 595 H 0 Z" /></clipPath><clipPath
       id="clipPath154"
       clipPathUnits="userSpaceOnUse"><path
         style="clip-rule:evenodd"
         id="path152"
         d="M 0,-0.2 H 841.8 V 595 H 0 Z" /></clipPath><clipPath
       id="clipPath166"
       clipPathUnits="userSpaceOnUse"><path
         style="clip-rule:evenodd"
         id="path164"
         d="M 0,-0.2 H 841.8 V 595 H 0 Z" /></clipPath><clipPath
       id="clipPath178"
       clipPathUnits="userSpaceOnUse"><path
         style="clip-rule:evenodd"
         id="path176"
         d="M 0,-0.2 H 841.8 V 595 H 0 Z" /></clipPath><clipPath
       id="clipPath190"
       clipPathUnits="userSpaceOnUse"><path
         style="clip-rule:evenodd"
         id="path188"
         d="M 0,-0.2 H 841.8 V 595 H 0 Z" /></clipPath><clipPath
       id="clipPath202"
       clipPathUnits="userSpaceOnUse"><path
         style="clip-rule:evenodd"
         id="path200"
         d="M 0,-0.2 H 841.8 V 595 H 0 Z" /></clipPath><clipPath
       id="clipPath214"
       clipPathUnits="userSpaceOnUse"><path
         style="clip-rule:evenodd"
         id="path212"
         d="M 0,-0.2 H 841.8 V 595 H 0 Z" /></clipPath><clipPath
       id="clipPath226"
       clipPathUnits="userSpaceOnUse"><path
         style="clip-rule:evenodd"
         id="path224"
         d="M 0,-0.2 H 841.8 V 595 H 0 Z" /></clipPath><clipPath
       id="clipPath238"
       clipPathUnits="userSpaceOnUse"><path
         style="clip-rule:evenodd"
         id="path236"
         d="M 0,-0.2 H 841.8 V 595 H 0 Z" /></clipPath><clipPath
       id="clipPath250"
       clipPathUnits="userSpaceOnUse"><path
         style="clip-rule:evenodd"
         id="path248"
         d="M 0,-0.2 H 841.8 V 595 H 0 Z" /></clipPath><clipPath
       id="clipPath262"
       clipPathUnits="userSpaceOnUse"><path
         style="clip-rule:evenodd"
         id="path260"
         d="M 0,-0.2 H 841.8 V 595 H 0 Z" /></clipPath><clipPath
       id="clipPath274"
       clipPathUnits="userSpaceOnUse"><path
         style="clip-rule:evenodd"
         id="path272"
         d="M 0,-0.2 H 841.8 V 595 H 0 Z" /></clipPath><clipPath
       id="clipPath286"
       clipPathUnits="userSpaceOnUse"><path
         style="clip-rule:evenodd"
         id="path284"
         d="M 0,-0.2 H 841.8 V 595 H 0 Z" /></clipPath><clipPath
       id="clipPath298"
       clipPathUnits="userSpaceOnUse"><path
         style="clip-rule:evenodd"
         id="path296"
         d="M 0,-0.2 H 841.8 V 595 H 0 Z" /></clipPath><clipPath
       id="clipPath310"
       clipPathUnits="userSpaceOnUse"><path
         style="clip-rule:evenodd"
         id="path308"
         d="M 0,-0.2 H 841.8 V 595 H 0 Z" /></clipPath><clipPath
       id="clipPath322"
       clipPathUnits="userSpaceOnUse"><path
         style="clip-rule:evenodd"
         id="path320"
         d="M 0,-0.2 H 841.8 V 595 H 0 Z" /></clipPath><clipPath
       id="clipPath334"
       clipPathUnits="userSpaceOnUse"><path
         style="clip-rule:evenodd"
         id="path332"
         d="M 0,-0.2 H 841.8 V 595 H 0 Z" /></clipPath><clipPath
       id="clipPath346"
       clipPathUnits="userSpaceOnUse"><path
         style="clip-rule:evenodd"
         id="path344"
         d="M 0,-0.2 H 841.8 V 595 H 0 Z" /></clipPath><clipPath
       id="clipPath358"
       clipPathUnits="userSpaceOnUse"><path
         style="clip-rule:evenodd"
         id="path356"
         d="M 0,-0.2 H 841.8 V 595 H 0 Z" /></clipPath><clipPath
       id="clipPath370"
       clipPathUnits="userSpaceOnUse"><path
         style="clip-rule:evenodd"
         id="path368"
         d="M 0,-0.2 H 841.8 V 595 H 0 Z" /></clipPath><clipPath
       id="clipPath382"
       clipPathUnits="userSpaceOnUse"><path
         style="clip-rule:evenodd"
         id="path380"
         d="M 0,-0.2 H 841.8 V 595 H 0 Z" /></clipPath><clipPath
       id="clipPath394"
       clipPathUnits="userSpaceOnUse"><path
         style="clip-rule:evenodd"
         id="path392"
         d="M 0,-0.2 H 841.8 V 595 H 0 Z" /></clipPath><clipPath
       id="clipPath406"
       clipPathUnits="userSpaceOnUse"><path
         style="clip-rule:evenodd"
         id="path404"
         d="M 0,-0.2 H 841.8 V 595 H 0 Z" /></clipPath><clipPath
       id="clipPath418"
       clipPathUnits="userSpaceOnUse"><path
         style="clip-rule:evenodd"
         id="path416"
         d="M 0,-0.2 H 841.8 V 595 H 0 Z" /></clipPath><clipPath
       id="clipPath430"
       clipPathUnits="userSpaceOnUse"><path
         style="clip-rule:evenodd"
         id="path428"
         d="M 0,-0.2 H 841.8 V 595 H 0 Z" /></clipPath><clipPath
       id="clipPath442"
       clipPathUnits="userSpaceOnUse"><path
         style="clip-rule:evenodd"
         id="path440"
         d="M 0,-0.2 H 841.8 V 595 H 0 Z" /></clipPath><clipPath
       id="clipPath454"
       clipPathUnits="userSpaceOnUse"><path
         style="clip-rule:evenodd"
         id="path452"
         d="M 0,-0.2 H 841.8 V 595 H 0 Z" /></clipPath><clipPath
       id="clipPath466"
       clipPathUnits="userSpaceOnUse"><path
         style="clip-rule:evenodd"
         id="path464"
         d="M 0,-0.2 H 841.8 V 595 H 0 Z" /></clipPath><clipPath
       id="clipPath478"
       clipPathUnits="userSpaceOnUse"><path
         style="clip-rule:evenodd"
         id="path476"
         d="M 0,-0.2 H 841.8 V 595 H 0 Z" /></clipPath><clipPath
       id="clipPath490"
       clipPathUnits="userSpaceOnUse"><path
         style="clip-rule:evenodd"
         id="path488"
         d="M 0,-0.2 H 841.8 V 595 H 0 Z" /></clipPath><clipPath
       id="clipPath502"
       clipPathUnits="userSpaceOnUse"><path
         style="clip-rule:evenodd"
         id="path500"
         d="M 0,-0.2 H 841.8 V 595 H 0 Z" /></clipPath><clipPath
       id="clipPath514"
       clipPathUnits="userSpaceOnUse"><path
         style="clip-rule:evenodd"
         id="path512"
         d="M 0,-0.2 H 841.8 V 595 H 0 Z" /></clipPath><clipPath
       id="clipPath526"
       clipPathUnits="userSpaceOnUse"><path
         style="clip-rule:evenodd"
         id="path524"
         d="M 0,-0.2 H 841.8 V 595 H 0 Z" /></clipPath><clipPath
       id="clipPath538"
       clipPathUnits="userSpaceOnUse"><path
         style="clip-rule:evenodd"
         id="path536"
         d="M 0,-0.2 H 841.8 V 595 H 0 Z" /></clipPath><clipPath
       id="clipPath550"
       clipPathUnits="userSpaceOnUse"><path
         style="clip-rule:evenodd"
         id="path548"
         d="M 0,-0.2 H 841.8 V 595 H 0 Z" /></clipPath><clipPath
       id="clipPath562"
       clipPathUnits="userSpaceOnUse"><path
         style="clip-rule:evenodd"
         id="path560"
         d="M 0,-0.2 H 841.8 V 595 H 0 Z" /></clipPath><clipPath
       id="clipPath574"
       clipPathUnits="userSpaceOnUse"><path
         style="clip-rule:evenodd"
         id="path572"
         d="M 0,-0.2 H 841.8 V 595 H 0 Z" /></clipPath></defs><g
     clip-path="url(#clipPath14)"
     transform="matrix(1.3333333,0,0,-1.3333333,-121.8752,730.58667)"
     id="g10"><g
       transform="matrix(1.6657562,0,0,1.6657562,-59.922501,-365.47763)"
       id="g16"><g
         clip-path="url(#clipPath22)"
         id="g18"><g
           transform="translate(244.5,547.59997)"
           id="g24"><path
             id="path26"
             style="fill:#ccffcc;fill-opacity:1;fill-rule:evenodd;stroke:none"
             d="m 0,0 c 86.7,0 152.9,-51.3 152.9,-118.6 0,-67.2 -66.2,-118.6 -152.9,-118.6 -86.7,0 -152.9,51.4 -152.9,118.6 C -152.9,-51.3 -86.7,0 0,0 m 0,-66.6 c 38,0 67,-22.5 67,-52 0,-29.4 -29,-51.9 -67,-51.9 -37.9,0 -66.9,22.5 -66.9,51.9 0,29.5 29,52 66.9,52" /></g></g></g><g
       transform="matrix(1.6657562,0,0,1.6657562,-59.922501,-365.47763)"
       id="g28"><g
         clip-path="url(#clipPath34)"
         id="g30"><g
           transform="translate(244.5,547.59997)"
           id="g36"><path
             id="path38"
             style="fill:#ffffff;fill-opacity:1;fill-rule:nonzero;stroke:none"
             d="m 0,0 v 0.75 c 43.497,-0.001 81.882,-12.866 109.422,-34.22 27.539,-21.348 44.231,-51.226 44.228,-85.13 0.003,-33.854 -16.689,-63.732 -44.228,-85.093 C 81.882,-225.059 43.498,-237.949 0,-237.95 c -43.498,10e-4 -81.882,12.891 -109.422,34.257 -27.539,21.361 -44.231,51.239 -44.228,85.093 -0.003,33.904 16.689,63.782 44.228,85.13 C -81.882,-12.116 -43.497,0.749 0,0.75 V 0 -0.75 c -43.203,0.001 -81.268,-12.784 -108.503,-33.905 -27.236,-21.127 -43.644,-50.549 -43.647,-83.945 0.003,-33.346 16.411,-62.768 43.647,-83.907 27.235,-21.134 65.301,-33.944 108.503,-33.943 43.202,-0.001 81.268,12.809 108.503,33.943 27.237,21.139 43.644,50.561 43.647,83.907 -0.003,33.396 -16.411,62.818 -43.647,83.945 C 81.268,-13.534 43.203,-0.749 0,-0.75 Z" /></g></g></g><g
       transform="matrix(1.6657562,0,0,1.6657562,-59.922501,-365.47763)"
       id="g40"><g
         clip-path="url(#clipPath46)"
         id="g42"><g
           transform="translate(244.5,480.99999)"
           id="g48"><path
             id="path50"
             style="fill:#ffffff;fill-opacity:1;fill-rule:nonzero;stroke:none"
             d="M 0,0 V 0.75 C 19.147,0.749 36.057,-4.916 48.21,-14.345 60.361,-23.768 67.753,-36.997 67.75,-52 67.753,-66.954 60.36,-80.158 48.209,-89.568 36.057,-98.984 19.147,-104.649 0,-104.65 c -19.098,0.001 -35.982,5.666 -48.122,15.082 -12.138,9.411 -19.531,22.614 -19.528,37.568 -0.003,15.003 7.389,28.232 19.527,37.655 C -35.983,-4.916 -19.098,0.749 0,0.75 V 0 -0.75 c -18.802,0.001 -35.367,-5.584 -47.202,-14.78 -11.837,-9.202 -18.945,-21.973 -18.948,-36.47 0.003,-14.446 7.11,-27.193 18.947,-36.382 11.835,-9.184 28.401,-14.769 47.203,-14.768 18.853,-10e-4 35.443,5.584 47.291,14.768 11.849,9.19 18.956,21.936 18.959,36.382 -0.003,14.497 -7.111,27.268 -18.96,36.47 C 35.443,-6.334 18.853,-0.749 0,-0.75 Z" /></g></g></g><g
       transform="matrix(1.6657562,0,0,1.6657562,-59.922501,-365.47763)"
       id="g52"><g
         clip-path="url(#clipPath58)"
         id="g54"><g
           transform="translate(139.3,403.20001)"
           id="g60"><path
             id="path62"
             style="fill:#000000;fill-opacity:1;fill-rule:evenodd;stroke:none"
             d="m 0,0 c 2.4,0 4.3,-1.8 4.3,-4.2 0,-2.4 -1.9,-4.3 -4.3,-4.3 -2.4,0 -4.2,1.9 -4.2,4.3 0,2.4 1.8,4.2 4.2,4.2" /></g></g></g><g
       transform="matrix(1.6657562,0,0,1.6657562,-59.922501,-365.47763)"
       id="g64"><g
         clip-path="url(#clipPath70)"
         id="g66"><g
           transform="translate(139.3,403.20001)"
           id="g72"><path
             id="path74"
             style="fill:#ffffff;fill-opacity:1;fill-rule:nonzero;stroke:none"
             d="M 0,0 V 0.75 C 1.388,0.751 2.656,0.226 3.572,-0.661 4.489,-1.546 5.052,-2.801 5.05,-4.2 5.051,-5.6 4.492,-6.87 3.58,-7.78 2.67,-8.692 1.4,-9.251 0,-9.25 c -1.4,-0.002 -2.654,0.561 -3.539,1.478 -0.887,0.916 -1.412,2.184 -1.411,3.572 -0.002,1.388 0.527,2.64 1.42,3.53 0.89,0.893 2.142,1.422 3.53,1.42 L 0,0 V -0.75 C -1.012,-0.752 -1.86,-1.123 -2.47,-1.73 -3.077,-2.34 -3.448,-3.188 -3.45,-4.2 -3.449,-5.212 -3.074,-6.094 -2.461,-6.728 -1.846,-7.361 -1,-7.748 0,-7.75 1.993,-7.744 3.544,-6.193 3.55,-4.2 3.548,-3.199 3.161,-2.354 2.528,-1.739 1.894,-1.126 1.012,-0.751 0,-0.75 Z" /></g></g></g><g
       transform="matrix(1.6657562,0,0,1.6657562,-59.922501,-365.47763)"
       id="g76"><g
         clip-path="url(#clipPath82)"
         id="g78"><g
           transform="translate(333.79999,476.6)"
           id="g84"><path
             id="path86"
             style="fill:#000000;fill-opacity:1;fill-rule:evenodd;stroke:none"
             d="m 0,0 c 2.4,0 4.3,-1.8 4.3,-4.2 0,-2.4 -1.9,-4.3 -4.3,-4.3 -2.4,0 -4.2,1.9 -4.2,4.3 0,2.4 1.8,4.2 4.2,4.2" /></g></g></g><g
       transform="matrix(1.6657562,0,0,1.6657562,-59.922501,-365.47763)"
       id="g88"><g
         clip-path="url(#clipPath94)"
         id="g90"><g
           transform="translate(333.79999,476.6)"
           id="g96"><path
             id="path98"
             style="fill:#ffffff;fill-opacity:1;fill-rule:nonzero;stroke:none"
             d="M 0,0 V 0.75 C 1.388,0.751 2.656,0.226 3.572,-0.661 4.489,-1.546 5.052,-2.801 5.05,-4.2 5.051,-5.6 4.492,-6.87 3.58,-7.78 2.67,-8.692 1.4,-9.251 0,-9.25 c -1.4,-0.002 -2.654,0.561 -3.539,1.478 -0.887,0.916 -1.412,2.184 -1.411,3.572 -0.002,1.388 0.527,2.64 1.42,3.53 0.89,0.893 2.142,1.422 3.53,1.42 L 0,0 V -0.75 C -1.012,-0.752 -1.86,-1.123 -2.47,-1.73 -3.077,-2.34 -3.448,-3.188 -3.45,-4.2 -3.449,-5.212 -3.074,-6.094 -2.461,-6.728 -1.846,-7.361 -1,-7.748 0,-7.75 1.993,-7.744 3.544,-6.193 3.55,-4.2 3.548,-3.199 3.161,-2.354 2.528,-1.739 1.894,-1.126 1.012,-0.751 0,-0.75 Z" /></g></g></g><g
       transform="matrix(1.6657562,0,0,1.6657562,-59.922501,-365.47763)"
       id="g100"><g
         clip-path="url(#clipPath106)"
         id="g102"><g
           transform="translate(150.46731,385.20001)"
           id="g108"><path
             id="path110"
             style="fill:#000000;fill-opacity:1;fill-rule:nonzero;stroke:none"
             d="m 0,0 v 0.879 c -0.11,0 -0.251,0.014 -0.423,0.042 C -0.594,0.949 -0.68,0.983 -0.68,1.022 L 1.107,2.99 2.947,0.879 H 2.284 V 0 H 6.496 V 0.879 H 5.162 L 2.267,4.257 4.447,6.64 C 4.551,6.746 5.109,6.8 6.121,6.8 V 7.679 H 2.555 V 6.8 C 2.659,6.8 2.797,6.789 2.969,6.766 3.14,6.744 3.226,6.707 3.226,6.656 L 1.674,4.95 0.07,6.8 H 0.715 V 7.679 H -3.488 V 6.8 h 1.326 L 0.514,3.683 -1.892,1.039 C -2.003,0.932 -2.563,0.879 -3.575,0.879 V 0 Z" /></g></g></g><g
       transform="matrix(1.6657562,0,0,1.6657562,-59.922501,-365.47763)"
       id="g112"><g
         clip-path="url(#clipPath118)"
         id="g114"><g
           transform="translate(163.16771,382.70001)"
           id="g120"><path
             id="path122"
             style="fill:#000000;fill-opacity:1;fill-rule:nonzero;stroke:none"
             d="m 0,0 v 0.484 c -1.157,0 -1.736,0.121 -1.736,0.361 V 7.887 L -1.883,8.035 H -2.11 C -2.417,7.752 -2.788,7.552 -3.223,7.435 -3.659,7.319 -4.126,7.261 -4.625,7.261 V 6.777 c 0.745,0 1.352,0.108 1.822,0.325 V 0.845 c 0,-0.24 -0.579,-0.361 -1.736,-0.361 V 0 Z" /></g></g></g><g
       transform="matrix(1.6657562,0,0,1.6657562,-59.922501,-365.47763)"
       id="g124"><g
         clip-path="url(#clipPath130)"
         id="g126"><g
           transform="translate(347.86719,460.9)"
           id="g132"><path
             id="path134"
             style="fill:#000000;fill-opacity:1;fill-rule:nonzero;stroke:none"
             d="m 0,0 v 0.879 c -0.11,0 -0.251,0.014 -0.423,0.042 C -0.594,0.949 -0.68,0.983 -0.68,1.022 L 1.107,2.99 2.947,0.879 H 2.284 V 0 H 6.496 V 0.879 H 5.162 L 2.267,4.257 4.447,6.64 C 4.551,6.746 5.109,6.8 6.121,6.8 V 7.679 H 2.555 V 6.8 C 2.659,6.8 2.797,6.789 2.969,6.766 3.14,6.744 3.226,6.707 3.226,6.656 L 1.674,4.95 0.07,6.8 H 0.715 V 7.679 H -3.488 V 6.8 h 1.326 L 0.514,3.683 -1.892,1.039 C -2.003,0.932 -2.563,0.879 -3.575,0.879 V 0 Z" /></g></g></g><g
       transform="matrix(1.6657562,0,0,1.6657562,-59.922501,-365.47763)"
       id="g136"><g
         clip-path="url(#clipPath142)"
         id="g138"><g
           transform="translate(360.56769,458.5)"
           id="g144"><path
             id="path146"
             style="fill:#000000;fill-opacity:1;fill-rule:nonzero;stroke:none"
             d="M 0,0 0.374,2.251 H -0.104 C -0.149,1.971 -0.194,1.735 -0.239,1.542 -0.284,1.349 -0.343,1.215 -0.417,1.14 -0.438,1.121 -0.579,1.106 -0.84,1.096 -1.102,1.086 -1.406,1.08 -1.751,1.078 -2.097,1.076 -2.427,1.075 -2.742,1.075 h -1.153 l 1.534,1.259 c 0.13,0.11 0.413,0.328 0.846,0.653 0.433,0.325 0.773,0.605 1.018,0.842 0.246,0.236 0.452,0.509 0.62,0.818 0.167,0.309 0.251,0.643 0.251,1.001 0,0.497 -0.14,0.927 -0.42,1.291 -0.28,0.364 -0.647,0.638 -1.101,0.821 -0.454,0.184 -0.934,0.275 -1.441,0.275 -0.426,0 -0.839,-0.089 -1.239,-0.269 C -4.228,7.587 -4.553,7.332 -4.802,7.001 -5.052,6.67 -5.177,6.288 -5.177,5.855 c 0,-0.181 0.068,-0.337 0.203,-0.467 0.135,-0.13 0.298,-0.195 0.491,-0.195 0.196,0 0.359,0.065 0.49,0.195 0.131,0.13 0.196,0.286 0.196,0.467 0,0.189 -0.064,0.348 -0.193,0.476 -0.129,0.128 -0.293,0.192 -0.493,0.192 H -4.52 c 0.155,0.319 0.387,0.57 0.696,0.753 0.309,0.183 0.649,0.275 1.021,0.275 0.278,0 0.534,-0.047 0.767,-0.139 C -1.803,7.319 -1.602,7.186 -1.432,7.013 -1.263,6.84 -1.131,6.636 -1.037,6.402 -0.943,6.167 -0.895,5.916 -0.895,5.648 -0.895,5.16 -1.033,4.71 -1.309,4.298 -1.585,3.887 -1.971,3.442 -2.466,2.966 -2.56,2.875 -2.632,2.805 -2.683,2.756 L -2.889,2.552 -5.127,0.449 -5.177,0.349 V 0 Z" /></g></g></g><g
       transform="matrix(1.6657562,0,0,1.6657562,-59.922501,-365.47763)"
       id="g148"><g
         clip-path="url(#clipPath154)"
         id="g150"><g
           transform="translate(142.717,400.79462)"
           id="g156"><path
             id="path158"
             style="fill:#ffffff;fill-opacity:1;fill-rule:nonzero;stroke:none"
             d="m 0,0 2.7,1.1 0.566,-1.389 -2.7,-1.1" /></g></g></g><g
       transform="matrix(1.6657562,0,0,1.6657562,-59.922501,-365.47763)"
       id="g160"><g
         clip-path="url(#clipPath166)"
         id="g162"><g
           transform="translate(148.22581,402.89811)"
           id="g168"><path
             id="path170"
             style="fill:#ffffff;fill-opacity:1;fill-rule:nonzero;stroke:none"
             d="m 0,0 2.8,1.1 0.548,-1.396 -2.8,-1.1" /></g></g></g><g
       transform="matrix(1.6657562,0,0,1.6657562,-59.922501,-365.47763)"
       id="g172"><g
         clip-path="url(#clipPath178)"
         id="g174"><g
           transform="translate(153.72581,404.99799)"
           id="g180"><path
             id="path182"
             style="fill:#ffffff;fill-opacity:1;fill-rule:nonzero;stroke:none"
             d="m 0,0 2.8,1.1 0.548,-1.396 -2.8,-1.1" /></g></g></g><g
       transform="matrix(1.6657562,0,0,1.6657562,-59.922501,-365.47763)"
       id="g184"><g
         clip-path="url(#clipPath190)"
         id="g186"><g
           transform="translate(159.317,407.0946)"
           id="g192"><path
             id="path194"
             style="fill:#ffffff;fill-opacity:1;fill-rule:nonzero;stroke:none"
             d="m 0,0 2.7,1.1 0.566,-1.389 -2.7,-1.1" /></g></g></g><g
       transform="matrix(1.6657562,0,0,1.6657562,-59.922501,-365.47763)"
       id="g196"><g
         clip-path="url(#clipPath202)"
         id="g198"><g
           transform="translate(164.8477,409.2063)"
           id="g204"><path
             id="path206"
             style="fill:#ffffff;fill-opacity:1;fill-rule:nonzero;stroke:none"
             d="m 0,0 2.8,1 0.505,-1.413 -2.8,-1" /></g></g></g><g
       transform="matrix(1.6657562,0,0,1.6657562,-59.922501,-365.47763)"
       id="g208"><g
         clip-path="url(#clipPath214)"
         id="g210"><g
           transform="translate(170.34771,411.30631)"
           id="g216"><path
             id="path218"
             style="fill:#ffffff;fill-opacity:1;fill-rule:nonzero;stroke:none"
             d="m 0,0 2.8,1 0.505,-1.413 -2.8,-1" /></g></g></g><g
       transform="matrix(1.6657562,0,0,1.6657562,-59.922501,-365.47763)"
       id="g220"><g
         clip-path="url(#clipPath226)"
         id="g222"><g
           transform="translate(175.9477,413.4063)"
           id="g228"><path
             id="path230"
             style="fill:#ffffff;fill-opacity:1;fill-rule:nonzero;stroke:none"
             d="m 0,0 2.8,1 0.505,-1.413 -2.8,-1" /></g></g></g><g
       transform="matrix(1.6657562,0,0,1.6657562,-59.922501,-365.47763)"
       id="g232"><g
         clip-path="url(#clipPath238)"
         id="g234"><g
           transform="translate(181.42581,415.3981)"
           id="g240"><path
             id="path242"
             style="fill:#ffffff;fill-opacity:1;fill-rule:nonzero;stroke:none"
             d="m 0,0 2.8,1.1 0.548,-1.396 -2.8,-1.1" /></g></g></g><g
       transform="matrix(1.6657562,0,0,1.6657562,-59.922501,-365.47763)"
       id="g244"><g
         clip-path="url(#clipPath250)"
         id="g246"><g
           transform="translate(187.017,417.49459)"
           id="g252"><path
             id="path254"
             style="fill:#ffffff;fill-opacity:1;fill-rule:nonzero;stroke:none"
             d="m 0,0 2.7,1.1 0.566,-1.389 -2.7,-1.1" /></g></g></g><g
       transform="matrix(1.6657562,0,0,1.6657562,-59.922501,-365.47763)"
       id="g256"><g
         clip-path="url(#clipPath262)"
         id="g258"><g
           transform="translate(192.52581,419.59808)"
           id="g264"><path
             id="path266"
             style="fill:#ffffff;fill-opacity:1;fill-rule:nonzero;stroke:none"
             d="m 0,0 2.8,1.1 0.548,-1.396 -2.8,-1.1" /></g></g></g><g
       transform="matrix(1.6657562,0,0,1.6657562,-59.922501,-365.47763)"
       id="g268"><g
         clip-path="url(#clipPath274)"
         id="g270"><g
           transform="translate(198.0258,421.69811)"
           id="g276"><path
             id="path278"
             style="fill:#ffffff;fill-opacity:1;fill-rule:nonzero;stroke:none"
             d="m 0,0 2.8,1.1 0.548,-1.396 -2.8,-1.1" /></g></g></g><g
       transform="matrix(1.6657562,0,0,1.6657562,-59.922501,-365.47763)"
       id="g280"><g
         clip-path="url(#clipPath286)"
         id="g282"><g
           transform="translate(203.6395,423.80329)"
           id="g288"><path
             id="path290"
             style="fill:#ffffff;fill-opacity:1;fill-rule:nonzero;stroke:none"
             d="m 0,0 2.7,1 0.521,-1.407 -2.7,-1" /></g></g></g><g
       transform="matrix(1.6657562,0,0,1.6657562,-59.922501,-365.47763)"
       id="g292"><g
         clip-path="url(#clipPath298)"
         id="g294"><g
           transform="translate(209.1477,425.90631)"
           id="g300"><path
             id="path302"
             style="fill:#ffffff;fill-opacity:1;fill-rule:nonzero;stroke:none"
             d="m 0,0 2.8,1 0.505,-1.413 -2.8,-1" /></g></g></g><g
       transform="matrix(1.6657562,0,0,1.6657562,-59.922501,-365.47763)"
       id="g304"><g
         clip-path="url(#clipPath310)"
         id="g306"><g
           transform="translate(214.7395,428.0033)"
           id="g312"><path
             id="path314"
             style="fill:#ffffff;fill-opacity:1;fill-rule:nonzero;stroke:none"
             d="m 0,0 2.7,1 0.521,-1.407 -2.7,-1" /></g></g></g><g
       transform="matrix(1.6657562,0,0,1.6657562,-59.922501,-365.47763)"
       id="g316"><g
         clip-path="url(#clipPath322)"
         id="g318"><g
           transform="translate(220.22579,429.99798)"
           id="g324"><path
             id="path326"
             style="fill:#ffffff;fill-opacity:1;fill-rule:nonzero;stroke:none"
             d="m 0,0 2.8,1.1 0.548,-1.396 -2.8,-1.1" /></g></g></g><g
       transform="matrix(1.6657562,0,0,1.6657562,-59.922501,-365.47763)"
       id="g328"><g
         clip-path="url(#clipPath334)"
         id="g330"><g
           transform="translate(225.72581,432.09809)"
           id="g336"><path
             id="path338"
             style="fill:#ffffff;fill-opacity:1;fill-rule:nonzero;stroke:none"
             d="m 0,0 2.8,1.1 0.548,-1.396 -2.8,-1.1" /></g></g></g><g
       transform="matrix(1.6657562,0,0,1.6657562,-59.922501,-365.47763)"
       id="g340"><g
         clip-path="url(#clipPath346)"
         id="g342"><g
           transform="translate(231.317,434.19458)"
           id="g348"><path
             id="path350"
             style="fill:#ffffff;fill-opacity:1;fill-rule:nonzero;stroke:none"
             d="m 0,0 2.7,1.1 0.566,-1.389 -2.7,-1.1" /></g></g></g><g
       transform="matrix(1.6657562,0,0,1.6657562,-59.922501,-365.47763)"
       id="g352"><g
         clip-path="url(#clipPath358)"
         id="g354"><g
           transform="translate(236.82581,436.29809)"
           id="g360"><path
             id="path362"
             style="fill:#ffffff;fill-opacity:1;fill-rule:nonzero;stroke:none"
             d="m 0,0 2.8,1.1 0.548,-1.396 -2.8,-1.1" /></g></g></g><g
       transform="matrix(1.6657562,0,0,1.6657562,-59.922501,-365.47763)"
       id="g364"><g
         clip-path="url(#clipPath370)"
         id="g366"><g
           transform="translate(242.417,438.39459)"
           id="g372"><path
             id="path374"
             style="fill:#ffffff;fill-opacity:1;fill-rule:nonzero;stroke:none"
             d="m 0,0 2.7,1.1 0.566,-1.389 -2.7,-1.1" /></g></g></g><g
       transform="matrix(1.6657562,0,0,1.6657562,-59.922501,-365.47763)"
       id="g376"><g
         clip-path="url(#clipPath382)"
         id="g378"><g
           transform="translate(247.94769,440.50629)"
           id="g384"><path
             id="path386"
             style="fill:#ffffff;fill-opacity:1;fill-rule:nonzero;stroke:none"
             d="m 0,0 2.8,1 0.505,-1.413 -2.8,-1" /></g></g></g><g
       transform="matrix(1.6657562,0,0,1.6657562,-59.922501,-365.47763)"
       id="g388"><g
         clip-path="url(#clipPath394)"
         id="g390"><g
           transform="translate(253.4477,442.6063)"
           id="g396"><path
             id="path398"
             style="fill:#ffffff;fill-opacity:1;fill-rule:nonzero;stroke:none"
             d="m 0,0 2.8,1 0.505,-1.413 -2.8,-1" /></g></g></g><g
       transform="matrix(1.6657562,0,0,1.6657562,-59.922501,-365.47763)"
       id="g400"><g
         clip-path="url(#clipPath406)"
         id="g402"><g
           transform="translate(259.03948,444.70331)"
           id="g408"><path
             id="path410"
             style="fill:#ffffff;fill-opacity:1;fill-rule:nonzero;stroke:none"
             d="m 0,0 2.7,1 0.521,-1.407 -2.7,-1" /></g></g></g><g
       transform="matrix(1.6657562,0,0,1.6657562,-59.922501,-365.47763)"
       id="g412"><g
         clip-path="url(#clipPath418)"
         id="g414"><g
           transform="translate(264.52581,446.69812)"
           id="g420"><path
             id="path422"
             style="fill:#ffffff;fill-opacity:1;fill-rule:nonzero;stroke:none"
             d="m 0,0 2.8,1.1 0.548,-1.396 -2.8,-1.1" /></g></g></g><g
       transform="matrix(1.6657562,0,0,1.6657562,-59.922501,-365.47763)"
       id="g424"><g
         clip-path="url(#clipPath430)"
         id="g426"><g
           transform="translate(270.117,448.79462)"
           id="g432"><path
             id="path434"
             style="fill:#ffffff;fill-opacity:1;fill-rule:nonzero;stroke:none"
             d="m 0,0 2.7,1.1 0.566,-1.389 -2.7,-1.1" /></g></g></g><g
       transform="matrix(1.6657562,0,0,1.6657562,-59.922501,-365.47763)"
       id="g436"><g
         clip-path="url(#clipPath442)"
         id="g438"><g
           transform="translate(275.62579,450.89811)"
           id="g444"><path
             id="path446"
             style="fill:#ffffff;fill-opacity:1;fill-rule:nonzero;stroke:none"
             d="m 0,0 2.8,1.1 0.548,-1.396 -2.8,-1.1" /></g></g></g><g
       transform="matrix(1.6657562,0,0,1.6657562,-59.922501,-365.47763)"
       id="g448"><g
         clip-path="url(#clipPath454)"
         id="g450"><g
           transform="translate(281.12579,452.99799)"
           id="g456"><path
             id="path458"
             style="fill:#ffffff;fill-opacity:1;fill-rule:nonzero;stroke:none"
             d="m 0,0 2.8,1.1 0.548,-1.396 -2.8,-1.1" /></g></g></g><g
       transform="matrix(1.6657562,0,0,1.6657562,-59.922501,-365.47763)"
       id="g460"><g
         clip-path="url(#clipPath466)"
         id="g462"><g
           transform="translate(286.74769,455.10629)"
           id="g468"><path
             id="path470"
             style="fill:#ffffff;fill-opacity:1;fill-rule:nonzero;stroke:none"
             d="m 0,0 2.8,1 0.505,-1.413 -2.8,-1" /></g></g></g><g
       transform="matrix(1.6657562,0,0,1.6657562,-59.922501,-365.47763)"
       id="g472"><g
         clip-path="url(#clipPath478)"
         id="g474"><g
           transform="translate(292.24768,457.2063)"
           id="g480"><path
             id="path482"
             style="fill:#ffffff;fill-opacity:1;fill-rule:nonzero;stroke:none"
             d="m 0,0 2.8,1 0.505,-1.413 -2.8,-1" /></g></g></g><g
       transform="matrix(1.6657562,0,0,1.6657562,-59.922501,-365.47763)"
       id="g484"><g
         clip-path="url(#clipPath490)"
         id="g486"><g
           transform="translate(297.83948,459.30329)"
           id="g492"><path
             id="path494"
             style="fill:#ffffff;fill-opacity:1;fill-rule:nonzero;stroke:none"
             d="m 0,0 2.7,1 0.521,-1.407 -2.7,-1" /></g></g></g><g
       transform="matrix(1.6657562,0,0,1.6657562,-59.922501,-365.47763)"
       id="g496"><g
         clip-path="url(#clipPath502)"
         id="g498"><g
           transform="translate(303.34772,461.4063)"
           id="g504"><path
             id="path506"
             style="fill:#ffffff;fill-opacity:1;fill-rule:nonzero;stroke:none"
             d="m 0,0 2.8,1 0.505,-1.413 -2.8,-1" /></g></g></g><g
       transform="matrix(1.6657562,0,0,1.6657562,-59.922501,-365.47763)"
       id="g508"><g
         clip-path="url(#clipPath514)"
         id="g510"><g
           transform="translate(308.82581,463.3981)"
           id="g516"><path
             id="path518"
             style="fill:#ffffff;fill-opacity:1;fill-rule:nonzero;stroke:none"
             d="m 0,0 2.8,1.1 0.548,-1.396 -2.8,-1.1" /></g></g></g><g
       transform="matrix(1.6657562,0,0,1.6657562,-59.922501,-365.47763)"
       id="g520"><g
         clip-path="url(#clipPath526)"
         id="g522"><g
           transform="translate(314.42578,465.49798)"
           id="g528"><path
             id="path530"
             style="fill:#ffffff;fill-opacity:1;fill-rule:nonzero;stroke:none"
             d="m 0,0 2.8,1.1 0.548,-1.396 -2.8,-1.1" /></g></g></g><g
       transform="matrix(1.6657562,0,0,1.6657562,-59.922501,-365.47763)"
       id="g532"><g
         clip-path="url(#clipPath538)"
         id="g534"><g
           transform="translate(319.92577,467.59808)"
           id="g540"><path
             id="path542"
             style="fill:#ffffff;fill-opacity:1;fill-rule:nonzero;stroke:none"
             d="m 0,0 2.8,1.1 0.548,-1.396 -2.8,-1.1" /></g></g></g><g
       transform="matrix(1.6657562,0,0,1.6657562,-59.922501,-365.47763)"
       id="g544"><g
         clip-path="url(#clipPath550)"
         id="g546"><g
           transform="translate(325.53949,469.70332)"
           id="g552"><path
             id="path554"
             style="fill:#ffffff;fill-opacity:1;fill-rule:nonzero;stroke:none"
             d="m 0,0 2.7,1 0.521,-1.407 -2.7,-1" /></g></g></g><g
       transform="matrix(1.6657562,0,0,1.6657562,-59.922501,-365.47763)"
       id="g556"><g
         clip-path="url(#clipPath562)"
         id="g558"><g
           transform="translate(142.7351,400.80169)"
           id="g564"><path
             id="path566"
             style="fill:#666666;fill-opacity:1;fill-rule:nonzero;stroke:none"
             d="m 0,0 39.2,14.8 0.53,-1.403 -39.2,-14.8" /></g></g></g><g
       transform="matrix(1.6657562,0,0,1.6657562,-59.922501,-365.47763)"
       id="g568"><g
         clip-path="url(#clipPath574)"
         id="g570"><g
           transform="translate(297.73687,459.2023)"
           id="g576"><path
             id="path578"
             style="fill:#666666;fill-opacity:1;fill-rule:nonzero;stroke:none"
             d="m 0,0 31.5,11.8 0.526,-1.405 -31.5,-11.8" /></g></g></g></g></svg>