<?xml version="1.0" encoding="UTF-8" standalone="no"?>
<svg
   xmlns:dc="http://purl.org/dc/elements/1.1/"
   xmlns:cc="http://creativecommons.org/ns#"
   xmlns:rdf="http://www.w3.org/1999/02/22-rdf-syntax-ns#"
   xmlns:svg="http://www.w3.org/2000/svg"
   xmlns="http://www.w3.org/2000/svg"
   viewBox="0 0 579.41864 506.724"
   height="506.724"
   width="579.41864"
   xml:space="preserve"
   id="svg2"
   version="1.1"><metadata
     id="metadata8"><rdf:RDF><cc:Work
         rdf:about=""><dc:format>image/svg+xml</dc:format><dc:type
           rdf:resource="http://purl.org/dc/dcmitype/StillImage" /></cc:Work></rdf:RDF></metadata><defs
     id="defs6"><clipPath
       id="clipPath14"
       clipPathUnits="userSpaceOnUse"><path
         id="path12"
         d="M 0,0 H 842 V 595 H 0 Z" /></clipPath><clipPath
       id="clipPath22"
       clipPathUnits="userSpaceOnUse"><path
         style="clip-rule:evenodd"
         id="path20"
         d="M 0,-0.2 H 841.8 V 595 H 0 Z" /></clipPath><clipPath
       id="clipPath34"
       clipPathUnits="userSpaceOnUse"><path
         style="clip-rule:evenodd"
         id="path32"
         d="M 0,-0.2 H 841.8 V 595 H 0 Z" /></clipPath><clipPath
       id="clipPath46"
       clipPathUnits="userSpaceOnUse"><path
         style="clip-rule:evenodd"
         id="path44"
         d="M 0,-0.2 H 841.8 V 595 H 0 Z" /></clipPath><clipPath
       id="clipPath58"
       clipPathUnits="userSpaceOnUse"><path
         style="clip-rule:evenodd"
         id="path56"
         d="M 0,-0.2 H 841.8 V 595 H 0 Z" /></clipPath><clipPath
       id="clipPath70"
       clipPathUnits="userSpaceOnUse"><path
         style="clip-rule:evenodd"
         id="path68"
         d="M 0,-0.2 H 841.8 V 595 H 0 Z" /></clipPath><clipPath
       id="clipPath82"
       clipPathUnits="userSpaceOnUse"><path
         style="clip-rule:evenodd"
         id="path80"
         d="M 0,-0.2 H 841.8 V 595 H 0 Z" /></clipPath><clipPath
       id="clipPath94"
       clipPathUnits="userSpaceOnUse"><path
         style="clip-rule:evenodd"
         id="path92"
         d="M 0,-0.2 H 841.8 V 595 H 0 Z" /></clipPath><clipPath
       id="clipPath106"
       clipPathUnits="userSpaceOnUse"><path
         style="clip-rule:evenodd"
         id="path104"
         d="M 0,-0.2 H 841.8 V 595 H 0 Z" /></clipPath><clipPath
       id="clipPath118"
       clipPathUnits="userSpaceOnUse"><path
         style="clip-rule:evenodd"
         id="path116"
         d="M 0,-0.2 H 841.8 V 595 H 0 Z" /></clipPath><clipPath
       id="clipPath130"
       clipPathUnits="userSpaceOnUse"><path
         style="clip-rule:evenodd"
         id="path128"
         d="M 0,-0.2 H 841.8 V 595 H 0 Z" /></clipPath><clipPath
       id="clipPath142"
       clipPathUnits="userSpaceOnUse"><path
         style="clip-rule:evenodd"
         id="path140"
         d="M 0,-0.2 H 841.8 V 595 H 0 Z" /></clipPath></defs><g
     clip-path="url(#clipPath14)"
     transform="matrix(1.3333333,0,0,-1.3333333,-159.248,710.51067)"
     id="g10"><g
       transform="matrix(1.5441437,0,0,1.5441437,-64.780441,-290.17517)"
       id="g16"><g
         clip-path="url(#clipPath22)"
         id="g18"><g
           transform="translate(159.0001,532.20016)"
           id="g24"><path
             id="path26"
             style="fill:#ccffcc;fill-opacity:1;fill-rule:evenodd;stroke:none"
             d="m 0,0 c 297.4,-131.8 236.5,-222.1 193.6,-233.7 -43,-11.6 -81.4,-7.4 -153.2,19.9 -71.8,27.3 -80.1,84.5 -69.9,141.7 10.3,57.1 28.8,71.3 28.8,71.3 z" /></g></g></g><g
       transform="matrix(1.5441437,0,0,1.5441437,-64.780441,-290.17517)"
       id="g28"><g
         clip-path="url(#clipPath34)"
         id="g30"><g
           transform="translate(159.0001,532.20016)"
           id="g36"><path
             id="path38"
             style="fill:#ffffff;fill-opacity:1;fill-rule:nonzero;stroke:none"
             d="m 0,0 0.304,0.686 c 90.924,-40.297 148.407,-76.723 183.201,-108.268 34.785,-31.539 46.924,-58.238 46.93,-79.074 0.003,-13.25 -4.931,-24.072 -11.972,-32.12 -7.043,-8.051 -16.179,-13.35 -24.667,-15.648 -14.686,-3.962 -28.861,-6.092 -43.998,-6.092 -29.346,0.002 -62.265,7.993 -109.665,26.015 -28.195,10.717 -46.719,26.072 -58.159,44.256 -11.442,18.183 -15.792,39.151 -15.791,61.06 0,12.21 1.35,24.718 3.579,37.217 10.319,57.229 28.908,71.633 29.081,71.763 L -0.7,-0.8 l -0.564,0.494 0.7,0.8 c 0.216,0.247 0.568,0.325 0.868,0.192 L 0,0 l 0.564,-0.494 -0.7,-0.8 -0.107,-0.101 -0.006,-0.004 c -0.394,-0.314 -18.393,-14.753 -28.513,-70.834 -2.217,-12.43 -3.555,-24.852 -3.555,-36.952 10e-4,-21.717 4.308,-42.38 15.561,-60.261 11.255,-17.88 29.464,-33.019 57.423,-43.653 47.328,-17.996 80.069,-25.918 109.131,-25.917 14.996,0.001 29.024,2.107 43.607,6.04 8.192,2.213 17.1,7.374 23.929,15.187 6.831,7.816 11.599,18.261 11.601,31.133 0.006,20.222 -11.819,46.576 -46.438,77.963 C 147.888,-77.311 90.528,-40.938 -0.304,-0.686 L 0,0 0.564,-0.494 Z" /></g></g></g><g
       transform="matrix(1.5441437,0,0,1.5441437,-64.780502,-290.1752)"
       id="g40"><g
         clip-path="url(#clipPath46)"
         id="g42"><g
           transform="translate(183.60014,385.90016)"
           id="g48"><path
             id="path50"
             style="fill:#000000;fill-opacity:1;fill-rule:evenodd;stroke:none"
             d="m 0,0 c 2.4,0 4.2,-1.8 4.2,-4.2 0,-2.4 -1.8,-4.3 -4.2,-4.3 -2.4,0 -4.3,1.9 -4.3,4.3 0,2.4 1.9,4.2 4.3,4.2" /></g></g></g><g
       transform="matrix(1.5441437,0,0,1.5441437,-64.780502,-290.1752)"
       id="g52"><g
         clip-path="url(#clipPath58)"
         id="g54"><g
           transform="translate(183.60014,385.90016)"
           id="g60"><path
             id="path62"
             style="fill:#ffffff;fill-opacity:1;fill-rule:nonzero;stroke:none"
             d="M 0,0 V 0.75 C 1.388,0.752 2.64,0.223 3.53,-0.67 4.423,-1.56 4.952,-2.812 4.95,-4.2 4.951,-5.588 4.426,-6.856 3.539,-7.772 2.654,-8.689 1.4,-9.252 0,-9.25 c -1.4,-10e-4 -2.67,0.558 -3.58,1.47 -0.912,0.91 -1.471,2.18 -1.47,3.58 -0.002,1.399 0.561,2.654 1.478,3.539 C -2.656,0.226 -1.388,0.751 0,0.75 V 0 -0.75 C -1.012,-0.751 -1.894,-1.126 -2.528,-1.739 -3.161,-2.354 -3.548,-3.2 -3.55,-4.2 -3.544,-6.193 -1.993,-7.744 0,-7.75 1,-7.748 1.846,-7.361 2.461,-6.728 3.074,-6.094 3.449,-5.212 3.45,-4.2 3.448,-3.188 3.077,-2.34 2.47,-1.73 1.86,-1.123 1.012,-0.752 0,-0.75 Z" /></g></g></g><g
       transform="matrix(1.5441437,0,0,1.5441437,-64.780365,-290.17499)"
       id="g64"><g
         clip-path="url(#clipPath70)"
         id="g66"><g
           transform="translate(279.90004,422.8)"
           id="g72"><path
             id="path74"
             style="fill:#000000;fill-opacity:1;fill-rule:evenodd;stroke:none"
             d="m 0,0 c 2.5,0 4.3,-1.9 4.3,-4.3 0,-2.4 -1.8,-4.2 -4.3,-4.2 -2.4,0 -4.2,1.8 -4.2,4.2 0,2.4 1.8,4.3 4.2,4.3" /></g></g></g><g
       transform="matrix(1.5441437,0,0,1.5441437,-64.780365,-290.17499)"
       id="g76"><g
         clip-path="url(#clipPath82)"
         id="g78"><g
           transform="translate(279.90004,422.8)"
           id="g84"><path
             id="path86"
             style="fill:#ffffff;fill-opacity:1;fill-rule:nonzero;stroke:none"
             d="M 0,0 V 0.75 C 1.441,0.752 2.721,0.195 3.622,-0.724 4.525,-1.641 5.051,-2.912 5.05,-4.3 5.052,-5.688 4.522,-6.943 3.613,-7.835 2.707,-8.729 1.43,-9.252 0,-9.25 c -1.388,-0.002 -2.64,0.527 -3.53,1.42 -0.893,0.89 -1.422,2.142 -1.42,3.53 -10e-4,1.388 0.524,2.656 1.411,3.572 C -2.654,0.189 -1.4,0.752 0,0.75 V 0 -0.75 C -1,-0.752 -1.846,-1.139 -2.461,-1.772 -3.074,-2.406 -3.449,-3.288 -3.45,-4.3 c 0.002,-1.012 0.373,-1.86 0.98,-2.47 0.61,-0.607 1.458,-0.978 2.47,-0.98 1.07,0.002 1.943,0.379 2.562,0.985 C 3.178,-6.157 3.548,-5.312 3.55,-4.3 3.549,-3.288 3.175,-2.409 2.553,-1.776 1.929,-1.145 1.059,-0.752 0,-0.75 Z" /></g></g></g><g
       transform="matrix(1.5441437,0,0,1.5441437,-64.780487,-290.17511)"
       id="g88"><g
         clip-path="url(#clipPath94)"
         id="g90"><g
           transform="translate(194.76743,367.80009)"
           id="g96"><path
             id="path98"
             style="fill:#000000;fill-opacity:1;fill-rule:nonzero;stroke:none"
             d="m 0,0 v 0.879 c -0.11,0 -0.251,0.014 -0.423,0.042 C -0.594,0.949 -0.68,0.983 -0.68,1.022 L 1.107,2.99 2.947,0.879 H 2.284 V 0 H 6.496 V 0.879 H 5.162 L 2.267,4.257 4.447,6.64 C 4.551,6.746 5.109,6.8 6.121,6.8 V 7.679 H 2.555 V 6.8 C 2.659,6.8 2.797,6.789 2.969,6.766 3.14,6.744 3.226,6.707 3.226,6.656 L 1.674,4.95 0.07,6.8 H 0.715 V 7.679 H -3.488 V 6.8 h 1.326 L 0.514,3.683 -1.892,1.039 C -2.003,0.932 -2.563,0.879 -3.575,0.879 V 0 Z" /></g></g></g><g
       transform="matrix(1.5441437,0,0,1.5441437,-64.780533,-290.17496)"
       id="g100"><g
         clip-path="url(#clipPath106)"
         id="g102"><g
           transform="translate(207.46786,365.4)"
           id="g108"><path
             id="path110"
             style="fill:#000000;fill-opacity:1;fill-rule:nonzero;stroke:none"
             d="m 0,0 v 0.484 c -1.157,0 -1.736,0.121 -1.736,0.361 V 7.887 L -1.883,8.035 H -2.11 C -2.417,7.752 -2.788,7.552 -3.223,7.435 -3.659,7.319 -4.126,7.261 -4.625,7.261 V 6.777 c 0.745,0 1.352,0.108 1.822,0.325 V 0.845 c 0,-0.24 -0.579,-0.361 -1.736,-0.361 V 0 Z" /></g></g></g><g
       transform="matrix(1.5441437,0,0,1.5441437,-64.78038,-290.17508)"
       id="g112"><g
         clip-path="url(#clipPath118)"
         id="g114"><g
           transform="translate(293.96734,407.00007)"
           id="g120"><path
             id="path122"
             style="fill:#000000;fill-opacity:1;fill-rule:nonzero;stroke:none"
             d="m 0,0 v 0.879 c -0.11,0 -0.251,0.014 -0.423,0.042 C -0.594,0.949 -0.68,0.983 -0.68,1.022 L 1.107,2.99 2.947,0.879 H 2.284 V 0 H 6.496 V 0.879 H 5.162 L 2.267,4.257 4.447,6.64 C 4.551,6.746 5.109,6.8 6.121,6.8 V 7.679 H 2.555 V 6.8 C 2.659,6.8 2.797,6.789 2.969,6.766 3.14,6.744 3.226,6.707 3.226,6.656 L 1.674,4.95 0.07,6.8 H 0.715 V 7.679 H -3.488 V 6.8 h 1.326 L 0.514,3.683 -1.892,1.039 C -2.003,0.932 -2.563,0.879 -3.575,0.879 V 0 Z" /></g></g></g><g
       transform="matrix(1.5441437,0,0,1.5441437,-64.780334,-290.17517)"
       id="g124"><g
         clip-path="url(#clipPath130)"
         id="g126"><g
           transform="translate(306.66771,404.60014)"
           id="g132"><path
             id="path134"
             style="fill:#000000;fill-opacity:1;fill-rule:nonzero;stroke:none"
             d="M 0,0 0.374,2.251 H -0.104 C -0.149,1.971 -0.194,1.735 -0.239,1.542 -0.284,1.349 -0.343,1.215 -0.417,1.14 -0.438,1.121 -0.579,1.106 -0.84,1.096 -1.102,1.086 -1.406,1.08 -1.751,1.078 -2.097,1.076 -2.427,1.075 -2.742,1.075 h -1.153 l 1.534,1.259 c 0.13,0.11 0.413,0.328 0.846,0.653 0.433,0.325 0.773,0.605 1.018,0.842 0.246,0.236 0.452,0.509 0.62,0.818 0.167,0.309 0.251,0.643 0.251,1.001 0,0.497 -0.14,0.927 -0.42,1.291 -0.28,0.364 -0.647,0.638 -1.101,0.821 -0.454,0.184 -0.934,0.275 -1.441,0.275 -0.426,0 -0.839,-0.089 -1.239,-0.269 C -4.228,7.587 -4.553,7.332 -4.802,7.001 -5.052,6.67 -5.177,6.288 -5.177,5.855 c 0,-0.181 0.068,-0.337 0.203,-0.467 0.135,-0.13 0.298,-0.195 0.491,-0.195 0.196,0 0.359,0.065 0.49,0.195 0.131,0.13 0.196,0.286 0.196,0.467 0,0.189 -0.064,0.348 -0.193,0.476 -0.129,0.128 -0.293,0.192 -0.493,0.192 H -4.52 c 0.155,0.319 0.387,0.57 0.696,0.753 0.309,0.183 0.649,0.275 1.021,0.275 0.278,0 0.534,-0.047 0.767,-0.139 C -1.803,7.319 -1.602,7.186 -1.432,7.013 -1.263,6.84 -1.131,6.636 -1.037,6.402 -0.943,6.167 -0.895,5.916 -0.895,5.648 -0.895,5.16 -1.033,4.71 -1.309,4.298 -1.585,3.887 -1.971,3.442 -2.466,2.966 -2.56,2.875 -2.632,2.805 -2.683,2.756 L -2.889,2.552 -5.127,0.449 -5.177,0.349 V 0 Z" /></g></g></g><g
       transform="matrix(1.5441437,0,0,1.5441437,-64.780548,-290.17505)"
       id="g136"><g
         clip-path="url(#clipPath142)"
         id="g138"><g
           transform="translate(186.23046,383.49987)"
           id="g144"><path
             id="path146"
             style="fill:#666666;fill-opacity:1;fill-rule:nonzero;stroke:none"
             d="M 0,0 89.8,34.6 90.339,33.2 0.539,-1.4" /></g></g></g></g></svg>