<?xml version="1.0" encoding="UTF-8" standalone="no"?>
<svg
   xmlns:dc="http://purl.org/dc/elements/1.1/"
   xmlns:cc="http://creativecommons.org/ns#"
   xmlns:rdf="http://www.w3.org/1999/02/22-rdf-syntax-ns#"
   xmlns:svg="http://www.w3.org/2000/svg"
   xmlns="http://www.w3.org/2000/svg"
   viewBox="0 0 683.50922 513.10132"
   height="513.10132"
   width="683.50922"
   xml:space="preserve"
   id="svg2"
   version="1.1"><metadata
     id="metadata8"><rdf:RDF><cc:Work
         rdf:about=""><dc:format>image/svg+xml</dc:format><dc:type
           rdf:resource="http://purl.org/dc/dcmitype/StillImage" /></cc:Work></rdf:RDF></metadata><defs
     id="defs6"><clipPath
       id="clipPath14"
       clipPathUnits="userSpaceOnUse"><path
         id="path12"
         d="M 0,0 H 842 V 595 H 0 Z" /></clipPath><clipPath
       id="clipPath22"
       clipPathUnits="userSpaceOnUse"><path
         style="clip-rule:evenodd"
         id="path20"
         d="M 0,-0.2 H 841.8 V 595 H 0 Z" /></clipPath><clipPath
       id="clipPath34"
       clipPathUnits="userSpaceOnUse"><path
         style="clip-rule:evenodd"
         id="path32"
         d="M 0,-0.2 H 841.8 V 595 H 0 Z" /></clipPath><clipPath
       id="clipPath46"
       clipPathUnits="userSpaceOnUse"><path
         style="clip-rule:evenodd"
         id="path44"
         d="M 0,-0.2 H 841.8 V 595 H 0 Z" /></clipPath><clipPath
       id="clipPath58"
       clipPathUnits="userSpaceOnUse"><path
         style="clip-rule:evenodd"
         id="path56"
         d="M 0,-0.2 H 841.8 V 595 H 0 Z" /></clipPath><clipPath
       id="clipPath70"
       clipPathUnits="userSpaceOnUse"><path
         style="clip-rule:evenodd"
         id="path68"
         d="M 0,-0.2 H 841.8 V 595 H 0 Z" /></clipPath><clipPath
       id="clipPath82"
       clipPathUnits="userSpaceOnUse"><path
         style="clip-rule:evenodd"
         id="path80"
         d="M 0,-0.2 H 841.8 V 595 H 0 Z" /></clipPath><clipPath
       id="clipPath94"
       clipPathUnits="userSpaceOnUse"><path
         style="clip-rule:evenodd"
         id="path92"
         d="M 0,-0.2 H 841.8 V 595 H 0 Z" /></clipPath><clipPath
       id="clipPath106"
       clipPathUnits="userSpaceOnUse"><path
         style="clip-rule:evenodd"
         id="path104"
         d="M 0,-0.2 H 841.8 V 595 H 0 Z" /></clipPath><clipPath
       id="clipPath118"
       clipPathUnits="userSpaceOnUse"><path
         style="clip-rule:evenodd"
         id="path116"
         d="M 0,-0.2 H 841.8 V 595 H 0 Z" /></clipPath><clipPath
       id="clipPath130"
       clipPathUnits="userSpaceOnUse"><path
         style="clip-rule:evenodd"
         id="path128"
         d="M 0,-0.2 H 841.8 V 595 H 0 Z" /></clipPath><clipPath
       id="clipPath142"
       clipPathUnits="userSpaceOnUse"><path
         style="clip-rule:evenodd"
         id="path140"
         d="M 0,-0.2 H 841.8 V 595 H 0 Z" /></clipPath><clipPath
       id="clipPath154"
       clipPathUnits="userSpaceOnUse"><path
         style="clip-rule:evenodd"
         id="path152"
         d="M 0,-0.2 H 841.8 V 595 H 0 Z" /></clipPath><clipPath
       id="clipPath166"
       clipPathUnits="userSpaceOnUse"><path
         style="clip-rule:evenodd"
         id="path164"
         d="M 0,-0.2 H 841.8 V 595 H 0 Z" /></clipPath><clipPath
       id="clipPath178"
       clipPathUnits="userSpaceOnUse"><path
         style="clip-rule:evenodd"
         id="path176"
         d="M 0,-0.2 H 841.8 V 595 H 0 Z" /></clipPath><clipPath
       id="clipPath190"
       clipPathUnits="userSpaceOnUse"><path
         style="clip-rule:evenodd"
         id="path188"
         d="M 0,-0.2 H 841.8 V 595 H 0 Z" /></clipPath><clipPath
       id="clipPath202"
       clipPathUnits="userSpaceOnUse"><path
         style="clip-rule:evenodd"
         id="path200"
         d="M 0,-0.2 H 841.8 V 595 H 0 Z" /></clipPath><clipPath
       id="clipPath214"
       clipPathUnits="userSpaceOnUse"><path
         style="clip-rule:evenodd"
         id="path212"
         d="M 0,-0.2 H 841.8 V 595 H 0 Z" /></clipPath><clipPath
       id="clipPath226"
       clipPathUnits="userSpaceOnUse"><path
         style="clip-rule:evenodd"
         id="path224"
         d="M 0,-0.2 H 841.8 V 595 H 0 Z" /></clipPath><clipPath
       id="clipPath238"
       clipPathUnits="userSpaceOnUse"><path
         style="clip-rule:evenodd"
         id="path236"
         d="M 0,-0.2 H 841.8 V 595 H 0 Z" /></clipPath><clipPath
       id="clipPath250"
       clipPathUnits="userSpaceOnUse"><path
         style="clip-rule:evenodd"
         id="path248"
         d="M 0,-0.2 H 841.8 V 595 H 0 Z" /></clipPath><clipPath
       id="clipPath262"
       clipPathUnits="userSpaceOnUse"><path
         style="clip-rule:evenodd"
         id="path260"
         d="M 0,-0.2 H 841.8 V 595 H 0 Z" /></clipPath><clipPath
       id="clipPath274"
       clipPathUnits="userSpaceOnUse"><path
         style="clip-rule:evenodd"
         id="path272"
         d="M 0,-0.2 H 841.8 V 595 H 0 Z" /></clipPath><clipPath
       id="clipPath286"
       clipPathUnits="userSpaceOnUse"><path
         style="clip-rule:evenodd"
         id="path284"
         d="M 0,-0.2 H 841.8 V 595 H 0 Z" /></clipPath><clipPath
       id="clipPath298"
       clipPathUnits="userSpaceOnUse"><path
         style="clip-rule:evenodd"
         id="path296"
         d="M 0,-0.2 H 841.8 V 595 H 0 Z" /></clipPath><clipPath
       id="clipPath310"
       clipPathUnits="userSpaceOnUse"><path
         style="clip-rule:evenodd"
         id="path308"
         d="M 0,-0.2 H 841.8 V 595 H 0 Z" /></clipPath><clipPath
       id="clipPath322"
       clipPathUnits="userSpaceOnUse"><path
         style="clip-rule:evenodd"
         id="path320"
         d="M 0,-0.2 H 841.8 V 595 H 0 Z" /></clipPath><clipPath
       id="clipPath334"
       clipPathUnits="userSpaceOnUse"><path
         style="clip-rule:evenodd"
         id="path332"
         d="M 0,-0.2 H 841.8 V 595 H 0 Z" /></clipPath><clipPath
       id="clipPath346"
       clipPathUnits="userSpaceOnUse"><path
         style="clip-rule:evenodd"
         id="path344"
         d="M 0,-0.2 H 841.8 V 595 H 0 Z" /></clipPath><clipPath
       id="clipPath358"
       clipPathUnits="userSpaceOnUse"><path
         style="clip-rule:evenodd"
         id="path356"
         d="M 0,-0.2 H 841.8 V 595 H 0 Z" /></clipPath><clipPath
       id="clipPath370"
       clipPathUnits="userSpaceOnUse"><path
         style="clip-rule:evenodd"
         id="path368"
         d="M 0,-0.2 H 841.8 V 595 H 0 Z" /></clipPath><clipPath
       id="clipPath382"
       clipPathUnits="userSpaceOnUse"><path
         style="clip-rule:evenodd"
         id="path380"
         d="M 0,-0.2 H 841.8 V 595 H 0 Z" /></clipPath><clipPath
       id="clipPath394"
       clipPathUnits="userSpaceOnUse"><path
         style="clip-rule:evenodd"
         id="path392"
         d="M 0,-0.2 H 841.8 V 595 H 0 Z" /></clipPath><clipPath
       id="clipPath406"
       clipPathUnits="userSpaceOnUse"><path
         style="clip-rule:evenodd"
         id="path404"
         d="M 0,-0.2 H 841.8 V 595 H 0 Z" /></clipPath><clipPath
       id="clipPath418"
       clipPathUnits="userSpaceOnUse"><path
         style="clip-rule:evenodd"
         id="path416"
         d="M 0,-0.2 H 841.8 V 595 H 0 Z" /></clipPath><clipPath
       id="clipPath430"
       clipPathUnits="userSpaceOnUse"><path
         style="clip-rule:evenodd"
         id="path428"
         d="M 0,-0.2 H 841.8 V 595 H 0 Z" /></clipPath><clipPath
       id="clipPath442"
       clipPathUnits="userSpaceOnUse"><path
         style="clip-rule:evenodd"
         id="path440"
         d="M 0,-0.2 H 841.8 V 595 H 0 Z" /></clipPath><clipPath
       id="clipPath454"
       clipPathUnits="userSpaceOnUse"><path
         style="clip-rule:evenodd"
         id="path452"
         d="M 0,-0.2 H 841.8 V 595 H 0 Z" /></clipPath><clipPath
       id="clipPath466"
       clipPathUnits="userSpaceOnUse"><path
         style="clip-rule:evenodd"
         id="path464"
         d="M 0,-0.2 H 841.8 V 595 H 0 Z" /></clipPath></defs><g
     clip-path="url(#clipPath14)"
     transform="matrix(1.3333333,0,0,-1.3333333,-79.157467,735.324)"
     id="g10"><g
       transform="matrix(1.6135254,0,0,1.6135254,-35.829849,-339.33444)"
       id="g16"><g
         clip-path="url(#clipPath22)"
         id="g18"><g
           transform="translate(267.29998,317.4)"
           id="g24"><path
             id="path26"
             style="fill:#ccffcc;fill-opacity:1;fill-rule:evenodd;stroke:none"
             d="m 0,0 c -180.8,2.6 -191.7,21.8 -200,96.2 -8.3,74.3 14.1,102.6 48.1,120.5 34,18 71.1,17.3 121.8,16 50.6,-1.3 73.1,-16.6 110.2,-53.8 37.2,-37.2 21.2,-50 -66.6,-71.8 C -74.3,85.3 -48.1,57.1 34.6,43 117.3,28.9 83.3,9 45.5,2.6 7.7,-3.8 0.7,0 0.7,0 Z" /></g></g></g><g
       transform="matrix(1.6135254,0,0,1.6135254,-35.829849,-339.33444)"
       id="g28"><g
         clip-path="url(#clipPath34)"
         id="g30"><g
           transform="translate(267.29998,317.4)"
           id="g36"><path
             id="path38"
             style="fill:#ffffff;fill-opacity:1;fill-rule:nonzero;stroke:none"
             d="m 0,0 -0.011,-0.75 c -45.213,0.651 -79.815,2.338 -106.44,5.671 -19.969,2.502 -35.452,5.928 -47.567,10.555 -18.168,6.93 -28.773,16.638 -35.312,29.856 -6.542,13.213 -9.076,29.846 -11.415,50.785 -1.177,10.53 -1.738,20.143 -1.738,28.942 -0.002,26.711 5.181,45.934 14.08,60.413 8.898,14.481 21.488,24.173 36.154,31.892 l -0.002,-0.001 c 26.112,13.824 54.014,16.669 88.27,16.669 10.636,0 21.889,-0.274 33.9,-0.582 25.368,-0.65 43.786,-4.822 60.49,-13.522 16.704,-8.7 31.656,-21.884 50.222,-40.498 6.17,-6.171 10.897,-11.684 14.102,-16.722 3.202,-5.036 4.894,-9.615 4.896,-13.904 0.006,-4.345 -1.771,-8.326 -5.284,-11.965 -5.273,-5.467 -14.41,-10.308 -27.742,-15.198 -13.332,-4.883 -30.868,-9.793 -52.922,-15.269 -18.934,-4.699 -32.533,-9.7 -41.338,-14.745 -4.402,-2.521 -7.601,-5.053 -9.672,-7.527 -2.074,-2.479 -3.019,-4.869 -3.02,-7.197 -0.002,-3.051 1.643,-6.15 4.984,-9.251 5.002,-4.645 13.744,-9.156 25.621,-13.216 11.877,-4.065 26.891,-7.7 44.47,-10.697 18.81,-3.208 31.613,-6.712 39.78,-10.327 4.083,-1.811 7.013,-3.647 8.962,-5.534 1.945,-1.879 2.925,-3.865 2.923,-5.865 10e-4,-1.197 -0.35,-2.366 -0.975,-3.472 -1.098,-1.937 -3.013,-3.712 -5.53,-5.377 C 76.109,10.671 70.951,8.432 65.03,6.515 59.11,4.599 52.429,3.013 45.625,1.861 28.316,-1.07 17.436,-1.87 10.696,-1.87 2.693,-1.866 0.523,-0.751 0.342,-0.659 L 0.7,0 V -0.75 H 0 -0.011 L 0,0 v 0.75 h 0.7 c 0.127,0 0.246,-0.03 0.358,-0.091 L 0.834,0.246 1.048,0.665 1.058,0.659 0.834,0.246 1.048,0.665 1.065,0.656 c 0.22,-0.103 2.49,-1.028 9.631,-1.026 6.621,0 17.428,0.788 34.679,3.709 10.268,1.738 20.259,4.483 27.626,7.811 3.682,1.661 6.707,3.472 8.768,5.334 1.031,0.929 1.819,1.869 2.34,2.795 0.523,0.927 0.781,1.831 0.782,2.734 -0.002,1.493 -0.709,3.077 -2.467,4.788 -2.629,2.558 -7.594,5.258 -15.411,7.876 -7.818,2.624 -18.483,5.188 -32.539,7.584 -23.519,4.011 -42.488,9.156 -55.637,15.003 -6.576,2.926 -11.699,6.024 -15.221,9.288 -3.515,3.255 -5.463,6.73 -5.465,10.351 -0.002,2.751 1.135,5.498 3.37,8.16 3.357,3.999 9.179,7.894 17.722,11.705 8.544,3.808 19.817,7.519 34.076,11.06 29.373,7.291 50.694,13.58 64.596,20.071 6.951,3.242 12.038,6.537 15.349,9.98 3.312,3.451 4.859,6.996 4.865,10.925 0.003,3.881 -1.547,8.203 -4.661,13.099 -3.111,4.893 -7.773,10.342 -13.898,16.467 -18.535,18.586 -33.383,31.652 -49.854,40.227 -16.471,8.575 -34.603,12.703 -59.835,13.353 -12.01,0.308 -23.252,0.582 -33.862,0.582 -34.189,0 -61.789,-2.847 -87.568,-16.495 l -0.002,-0.001 c -14.527,-7.65 -26.853,-17.161 -35.574,-31.349 -8.719,-14.189 -13.857,-33.103 -13.858,-59.628 0,-8.735 0.557,-18.294 1.728,-28.776 2.072,-18.587 4.312,-33.68 9.276,-45.853 3.725,-9.133 8.96,-16.628 16.839,-22.826 11.815,-9.294 29.664,-15.666 57.299,-19.871 C -88.211,3.526 -50.824,1.48 0.011,0.75 L 0,0 v 0.75 z" /></g></g></g><g
       transform="matrix(1.6135254,0,0,1.6135254,-35.829849,-339.33444)"
       id="g40"><g
         clip-path="url(#clipPath46)"
         id="g42"><g
           transform="translate(333.79998,476.60002)"
           id="g48"><path
             id="path50"
             style="fill:#000000;fill-opacity:1;fill-rule:evenodd;stroke:none"
             d="m 0,0 c 2.4,0 4.3,-1.8 4.3,-4.2 0,-2.4 -1.9,-4.3 -4.3,-4.3 -2.4,0 -4.2,1.9 -4.2,4.3 0,2.4 1.8,4.2 4.2,4.2" /></g></g></g><g
       transform="matrix(1.6135254,0,0,1.6135254,-35.829849,-339.33444)"
       id="g52"><g
         clip-path="url(#clipPath58)"
         id="g54"><g
           transform="translate(333.79998,476.60002)"
           id="g60"><path
             id="path62"
             style="fill:#ffffff;fill-opacity:1;fill-rule:nonzero;stroke:none"
             d="M 0,0 V 0.75 C 1.388,0.751 2.656,0.226 3.572,-0.661 4.489,-1.546 5.052,-2.801 5.05,-4.2 5.051,-5.6 4.492,-6.87 3.58,-7.78 2.67,-8.692 1.4,-9.251 0,-9.25 c -1.4,-0.002 -2.654,0.561 -3.539,1.478 -0.887,0.916 -1.412,2.184 -1.411,3.572 -0.002,1.388 0.527,2.64 1.42,3.53 0.89,0.893 2.142,1.422 3.53,1.42 L 0,0 V -0.75 C -1.012,-0.752 -1.86,-1.123 -2.47,-1.73 -3.077,-2.34 -3.448,-3.188 -3.45,-4.2 -3.449,-5.212 -3.074,-6.094 -2.461,-6.728 -1.846,-7.361 -1,-7.748 0,-7.75 1.993,-7.744 3.544,-6.193 3.55,-4.2 3.548,-3.199 3.161,-2.354 2.528,-1.739 1.894,-1.126 1.012,-0.751 0,-0.75 Z" /></g></g></g><g
       transform="matrix(1.6135254,0,0,1.6135254,-35.829849,-339.33444)"
       id="g64"><g
         clip-path="url(#clipPath70)"
         id="g66"><g
           transform="translate(263.96729,334.5)"
           id="g72"><path
             id="path74"
             style="fill:#000000;fill-opacity:1;fill-rule:nonzero;stroke:none"
             d="m 0,0 v 0.879 c -0.11,0 -0.251,0.014 -0.423,0.042 C -0.594,0.949 -0.68,0.983 -0.68,1.022 L 1.107,2.99 2.947,0.879 H 2.284 V 0 H 6.496 V 0.879 H 5.162 L 2.267,4.257 4.447,6.64 C 4.551,6.746 5.109,6.8 6.121,6.8 V 7.679 H 2.555 V 6.8 C 2.659,6.8 2.797,6.789 2.969,6.766 3.14,6.744 3.226,6.707 3.226,6.656 L 1.674,4.95 0.07,6.8 H 0.715 V 7.679 H -3.488 V 6.8 h 1.326 L 0.514,3.683 -1.892,1.039 C -2.003,0.932 -2.563,0.879 -3.575,0.879 V 0 Z" /></g></g></g><g
       transform="matrix(1.6135254,0,0,1.6135254,-35.829849,-339.33444)"
       id="g76"><g
         clip-path="url(#clipPath82)"
         id="g78"><g
           transform="translate(276.6677,332.10002)"
           id="g84"><path
             id="path86"
             style="fill:#000000;fill-opacity:1;fill-rule:nonzero;stroke:none"
             d="m 0,0 v 0.484 c -1.157,0 -1.736,0.121 -1.736,0.361 V 7.887 L -1.883,8.035 H -2.11 C -2.417,7.752 -2.788,7.552 -3.223,7.435 -3.659,7.319 -4.126,7.261 -4.625,7.261 V 6.777 c 0.745,0 1.352,0.108 1.822,0.325 V 0.845 c 0,-0.24 -0.579,-0.361 -1.736,-0.361 V 0 Z" /></g></g></g><g
       transform="matrix(1.6135254,0,0,1.6135254,-35.829849,-339.33444)"
       id="g88"><g
         clip-path="url(#clipPath94)"
         id="g90"><g
           transform="translate(347.8672,460.89998)"
           id="g96"><path
             id="path98"
             style="fill:#000000;fill-opacity:1;fill-rule:nonzero;stroke:none"
             d="m 0,0 v 0.879 c -0.11,0 -0.251,0.014 -0.423,0.042 C -0.594,0.949 -0.68,0.983 -0.68,1.022 L 1.107,2.99 2.947,0.879 H 2.284 V 0 H 6.496 V 0.879 H 5.162 L 2.267,4.257 4.447,6.64 C 4.551,6.746 5.109,6.8 6.121,6.8 V 7.679 H 2.555 V 6.8 C 2.659,6.8 2.797,6.789 2.969,6.766 3.14,6.744 3.226,6.707 3.226,6.656 L 1.674,4.95 0.07,6.8 H 0.715 V 7.679 H -3.488 V 6.8 h 1.326 L 0.514,3.683 -1.892,1.039 C -2.003,0.932 -2.563,0.879 -3.575,0.879 V 0 Z" /></g></g></g><g
       transform="matrix(1.6135254,0,0,1.6135254,-35.829849,-339.33444)"
       id="g100"><g
         clip-path="url(#clipPath106)"
         id="g102"><g
           transform="translate(360.56768,458.5)"
           id="g108"><path
             id="path110"
             style="fill:#000000;fill-opacity:1;fill-rule:nonzero;stroke:none"
             d="M 0,0 0.374,2.251 H -0.104 C -0.149,1.971 -0.194,1.735 -0.239,1.542 -0.284,1.349 -0.343,1.215 -0.417,1.14 -0.438,1.121 -0.579,1.106 -0.84,1.096 -1.102,1.086 -1.406,1.08 -1.751,1.078 -2.097,1.076 -2.427,1.075 -2.742,1.075 h -1.153 l 1.534,1.259 c 0.13,0.11 0.413,0.328 0.846,0.653 0.433,0.325 0.773,0.605 1.018,0.842 0.246,0.236 0.452,0.509 0.62,0.818 0.167,0.309 0.251,0.643 0.251,1.001 0,0.497 -0.14,0.927 -0.42,1.291 -0.28,0.364 -0.647,0.638 -1.101,0.821 -0.454,0.184 -0.934,0.275 -1.441,0.275 -0.426,0 -0.839,-0.089 -1.239,-0.269 C -4.228,7.587 -4.553,7.332 -4.802,7.001 -5.052,6.67 -5.177,6.288 -5.177,5.855 c 0,-0.181 0.068,-0.337 0.203,-0.467 0.135,-0.13 0.298,-0.195 0.491,-0.195 0.196,0 0.359,0.065 0.49,0.195 0.131,0.13 0.196,0.286 0.196,0.467 0,0.189 -0.064,0.348 -0.193,0.476 -0.129,0.128 -0.293,0.192 -0.493,0.192 H -4.52 c 0.155,0.319 0.387,0.57 0.696,0.753 0.309,0.183 0.649,0.275 1.021,0.275 0.278,0 0.534,-0.047 0.767,-0.139 C -1.803,7.319 -1.602,7.186 -1.432,7.013 -1.263,6.84 -1.131,6.636 -1.037,6.402 -0.943,6.167 -0.895,5.916 -0.895,5.648 -0.895,5.16 -1.033,4.71 -1.309,4.298 -1.585,3.887 -1.971,3.442 -2.466,2.966 -2.56,2.875 -2.632,2.805 -2.683,2.756 L -2.889,2.552 -5.127,0.449 -5.177,0.349 V 0 Z" /></g></g></g><g
       transform="matrix(1.6135254,0,0,1.6135254,-35.829849,-339.33444)"
       id="g112"><g
         clip-path="url(#clipPath118)"
         id="g114"><g
           transform="translate(252.2683,345.4043)"
           id="g120"><path
             id="path122"
             style="fill:#ffffff;fill-opacity:1;fill-rule:nonzero;stroke:none"
             d="m 0,0 1.6,2.5 1.263,-0.809 -1.6,-2.5" /></g></g></g><g
       transform="matrix(1.6135254,0,0,1.6135254,-35.829849,-339.33444)"
       id="g124"><g
         clip-path="url(#clipPath130)"
         id="g126"><g
           transform="translate(255.45689,350.38589)"
           id="g132"><path
             id="path134"
             style="fill:#ffffff;fill-opacity:1;fill-rule:nonzero;stroke:none"
             d="m 0,0 1.5,2.5 1.286,-0.772 -1.5,-2.5" /></g></g></g><g
       transform="matrix(1.6135254,0,0,1.6135254,-35.829849,-339.33444)"
       id="g136"><g
         clip-path="url(#clipPath142)"
         id="g138"><g
           transform="translate(258.56831,355.4043)"
           id="g144"><path
             id="path146"
             style="fill:#ffffff;fill-opacity:1;fill-rule:nonzero;stroke:none"
             d="m 0,0 1.6,2.5 1.263,-0.809 -1.6,-2.5" /></g></g></g><g
       transform="matrix(1.6135254,0,0,1.6135254,-35.829849,-339.33444)"
       id="g148"><g
         clip-path="url(#clipPath154)"
         id="g150"><g
           transform="translate(261.76832,360.4043)"
           id="g156"><path
             id="path158"
             style="fill:#ffffff;fill-opacity:1;fill-rule:nonzero;stroke:none"
             d="m 0,0 1.6,2.5 1.263,-0.809 -1.6,-2.5" /></g></g></g><g
       transform="matrix(1.6135254,0,0,1.6135254,-35.829849,-339.33444)"
       id="g160"><g
         clip-path="url(#clipPath166)"
         id="g162"><g
           transform="translate(264.87601,365.516)"
           id="g168"><path
             id="path170"
             style="fill:#ffffff;fill-opacity:1;fill-rule:nonzero;stroke:none"
             d="m 0,0 1.6,2.4 1.248,-0.832 -1.6,-2.4" /></g></g></g><g
       transform="matrix(1.6135254,0,0,1.6135254,-35.829849,-339.33444)"
       id="g172"><g
         clip-path="url(#clipPath178)"
         id="g174"><g
           transform="translate(268.06831,370.4043)"
           id="g180"><path
             id="path182"
             style="fill:#ffffff;fill-opacity:1;fill-rule:nonzero;stroke:none"
             d="m 0,0 1.6,2.5 1.263,-0.809 -1.6,-2.5" /></g></g></g><g
       transform="matrix(1.6135254,0,0,1.6135254,-35.829849,-339.33444)"
       id="g184"><g
         clip-path="url(#clipPath190)"
         id="g186"><g
           transform="translate(271.1683,375.50431)"
           id="g192"><path
             id="path194"
             style="fill:#ffffff;fill-opacity:1;fill-rule:nonzero;stroke:none"
             d="m 0,0 1.6,2.5 1.263,-0.809 -1.6,-2.5" /></g></g></g><g
       transform="matrix(1.6135254,0,0,1.6135254,-35.829849,-339.33444)"
       id="g196"><g
         clip-path="url(#clipPath202)"
         id="g198"><g
           transform="translate(274.3613,380.3931)"
           id="g204"><path
             id="path206"
             style="fill:#ffffff;fill-opacity:1;fill-rule:nonzero;stroke:none"
             d="m 0,0 1.6,2.6 1.277,-0.786 -1.6,-2.6" /></g></g></g><g
       transform="matrix(1.6135254,0,0,1.6135254,-35.829849,-339.33444)"
       id="g208"><g
         clip-path="url(#clipPath214)"
         id="g210"><g
           transform="translate(277.56831,385.50431)"
           id="g216"><path
             id="path218"
             style="fill:#ffffff;fill-opacity:1;fill-rule:nonzero;stroke:none"
             d="m 0,0 1.6,2.5 1.263,-0.809 -1.6,-2.5" /></g></g></g><g
       transform="matrix(1.6135254,0,0,1.6135254,-35.829849,-339.33444)"
       id="g220"><g
         clip-path="url(#clipPath226)"
         id="g222"><g
           transform="translate(280.6683,390.50431)"
           id="g228"><path
             id="path230"
             style="fill:#ffffff;fill-opacity:1;fill-rule:nonzero;stroke:none"
             d="m 0,0 1.6,2.5 1.263,-0.809 -1.6,-2.5" /></g></g></g><g
       transform="matrix(1.6135254,0,0,1.6135254,-35.829849,-339.33444)"
       id="g232"><g
         clip-path="url(#clipPath238)"
         id="g234"><g
           transform="translate(283.8683,395.50431)"
           id="g240"><path
             id="path242"
             style="fill:#ffffff;fill-opacity:1;fill-rule:nonzero;stroke:none"
             d="m 0,0 1.6,2.5 1.263,-0.809 -1.6,-2.5" /></g></g></g><g
       transform="matrix(1.6135254,0,0,1.6135254,-35.829849,-339.33444)"
       id="g244"><g
         clip-path="url(#clipPath250)"
         id="g246"><g
           transform="translate(286.96833,400.50431)"
           id="g252"><path
             id="path254"
             style="fill:#ffffff;fill-opacity:1;fill-rule:nonzero;stroke:none"
             d="m 0,0 1.6,2.5 1.263,-0.809 -1.6,-2.5" /></g></g></g><g
       transform="matrix(1.6135254,0,0,1.6135254,-35.829849,-339.33444)"
       id="g256"><g
         clip-path="url(#clipPath262)"
         id="g258"><g
           transform="translate(290.1683,405.50431)"
           id="g264"><path
             id="path266"
             style="fill:#ffffff;fill-opacity:1;fill-rule:nonzero;stroke:none"
             d="m 0,0 1.6,2.5 1.263,-0.809 -1.6,-2.5" /></g></g></g><g
       transform="matrix(1.6135254,0,0,1.6135254,-35.829849,-339.33444)"
       id="g268"><g
         clip-path="url(#clipPath274)"
         id="g270"><g
           transform="translate(293.35691,410.48591)"
           id="g276"><path
             id="path278"
             style="fill:#ffffff;fill-opacity:1;fill-rule:nonzero;stroke:none"
             d="m 0,0 1.5,2.5 1.286,-0.772 -1.5,-2.5" /></g></g></g><g
       transform="matrix(1.6135254,0,0,1.6135254,-35.829849,-339.33444)"
       id="g280"><g
         clip-path="url(#clipPath286)"
         id="g282"><g
           transform="translate(296.46833,415.50431)"
           id="g288"><path
             id="path290"
             style="fill:#ffffff;fill-opacity:1;fill-rule:nonzero;stroke:none"
             d="m 0,0 1.6,2.5 1.263,-0.809 -1.6,-2.5" /></g></g></g><g
       transform="matrix(1.6135254,0,0,1.6135254,-35.829849,-339.33444)"
       id="g292"><g
         clip-path="url(#clipPath298)"
         id="g294"><g
           transform="translate(299.6683,420.50431)"
           id="g300"><path
             id="path302"
             style="fill:#ffffff;fill-opacity:1;fill-rule:nonzero;stroke:none"
             d="m 0,0 1.6,2.5 1.263,-0.809 -1.6,-2.5" /></g></g></g><g
       transform="matrix(1.6135254,0,0,1.6135254,-35.829849,-339.33444)"
       id="g304"><g
         clip-path="url(#clipPath310)"
         id="g306"><g
           transform="translate(302.76832,425.50431)"
           id="g312"><path
             id="path314"
             style="fill:#ffffff;fill-opacity:1;fill-rule:nonzero;stroke:none"
             d="m 0,0 1.6,2.5 1.263,-0.809 -1.6,-2.5" /></g></g></g><g
       transform="matrix(1.6135254,0,0,1.6135254,-35.829849,-339.33444)"
       id="g316"><g
         clip-path="url(#clipPath322)"
         id="g318"><g
           transform="translate(305.96833,430.50431)"
           id="g324"><path
             id="path326"
             style="fill:#ffffff;fill-opacity:1;fill-rule:nonzero;stroke:none"
             d="m 0,0 1.6,2.5 1.263,-0.809 -1.6,-2.5" /></g></g></g><g
       transform="matrix(1.6135254,0,0,1.6135254,-35.829849,-339.33444)"
       id="g328"><g
         clip-path="url(#clipPath334)"
         id="g330"><g
           transform="translate(309.06831,435.50431)"
           id="g336"><path
             id="path338"
             style="fill:#ffffff;fill-opacity:1;fill-rule:nonzero;stroke:none"
             d="m 0,0 1.6,2.5 1.263,-0.809 -1.6,-2.5" /></g></g></g><g
       transform="matrix(1.6135254,0,0,1.6135254,-35.829849,-339.33444)"
       id="g340"><g
         clip-path="url(#clipPath346)"
         id="g342"><g
           transform="translate(312.26832,440.50431)"
           id="g348"><path
             id="path350"
             style="fill:#ffffff;fill-opacity:1;fill-rule:nonzero;stroke:none"
             d="m 0,0 1.6,2.5 1.263,-0.809 -1.6,-2.5" /></g></g></g><g
       transform="matrix(1.6135254,0,0,1.6135254,-35.829849,-339.33444)"
       id="g352"><g
         clip-path="url(#clipPath358)"
         id="g354"><g
           transform="translate(315.45691,445.58591)"
           id="g360"><path
             id="path362"
             style="fill:#ffffff;fill-opacity:1;fill-rule:nonzero;stroke:none"
             d="m 0,0 1.5,2.5 1.286,-0.772 -1.5,-2.5" /></g></g></g><g
       transform="matrix(1.6135254,0,0,1.6135254,-35.829849,-339.33444)"
       id="g364"><g
         clip-path="url(#clipPath370)"
         id="g366"><g
           transform="translate(318.56127,450.4931)"
           id="g372"><path
             id="path374"
             style="fill:#ffffff;fill-opacity:1;fill-rule:nonzero;stroke:none"
             d="m 0,0 1.6,2.6 1.277,-0.786 -1.6,-2.6" /></g></g></g><g
       transform="matrix(1.6135254,0,0,1.6135254,-35.829849,-339.33444)"
       id="g376"><g
         clip-path="url(#clipPath382)"
         id="g378"><g
           transform="translate(321.75689,455.58591)"
           id="g384"><path
             id="path386"
             style="fill:#ffffff;fill-opacity:1;fill-rule:nonzero;stroke:none"
             d="m 0,0 1.5,2.5 1.286,-0.772 -1.5,-2.5" /></g></g></g><g
       transform="matrix(1.6135254,0,0,1.6135254,-35.829849,-339.33444)"
       id="g388"><g
         clip-path="url(#clipPath394)"
         id="g390"><g
           transform="translate(324.8683,460.60431)"
           id="g396"><path
             id="path398"
             style="fill:#ffffff;fill-opacity:1;fill-rule:nonzero;stroke:none"
             d="m 0,0 1.6,2.5 1.263,-0.809 -1.6,-2.5" /></g></g></g><g
       transform="matrix(1.6135254,0,0,1.6135254,-35.829849,-339.33444)"
       id="g400"><g
         clip-path="url(#clipPath406)"
         id="g402"><g
           transform="translate(328.06831,465.60431)"
           id="g408"><path
             id="path410"
             style="fill:#ffffff;fill-opacity:1;fill-rule:nonzero;stroke:none"
             d="m 0,0 1.6,2.5 1.263,-0.809 -1.6,-2.5" /></g></g></g><g
       transform="matrix(1.6135254,0,0,1.6135254,-35.829849,-339.33444)"
       id="g412"><g
         clip-path="url(#clipPath418)"
         id="g414"><g
           transform="translate(331.24439,470.56421)"
           id="g420"><path
             id="path422"
             style="fill:#ffffff;fill-opacity:1;fill-rule:nonzero;stroke:none"
             d="m 0,0 0.5,0.9 1.311,-0.728 -0.5,-0.9" /></g></g></g><g
       transform="matrix(1.6135254,0,0,1.6135254,-35.829849,-339.33444)"
       id="g424"><g
         clip-path="url(#clipPath430)"
         id="g426"><g
           transform="translate(252.2659,345.40061)"
           id="g432"><path
             id="path434"
             style="fill:#666666;fill-opacity:1;fill-rule:nonzero;stroke:none"
             d="m 0,0 15.1,23.9 1.268,-0.801 -15.1,-23.9" /></g></g></g><g
       transform="matrix(1.6135254,0,0,1.6135254,-35.829849,-339.33444)"
       id="g436"><g
         clip-path="url(#clipPath442)"
         id="g438"><g
           transform="translate(305.76501,429.99909)"
           id="g444"><path
             id="path446"
             style="fill:#666666;fill-opacity:1;fill-rule:nonzero;stroke:none"
             d="m 0,0 25.7,40.9 1.27,-0.798 -25.7,-40.9" /></g></g></g><g
       transform="matrix(1.6135254,0,0,1.6135254,-35.829849,-339.33444)"
       id="g448"><g
         clip-path="url(#clipPath454)"
         id="g450"><g
           transform="translate(252.8,348.70001)"
           id="g456"><path
             id="path458"
             style="fill:#000000;fill-opacity:1;fill-rule:evenodd;stroke:none"
             d="m 0,0 c 2.4,0 4.2,-1.8 4.2,-4.2 0,-2.4 -1.8,-4.3 -4.2,-4.3 -2.4,0 -4.3,1.9 -4.3,4.3 0,2.4 1.9,4.2 4.3,4.2" /></g></g></g><g
       transform="matrix(1.6135254,0,0,1.6135254,-35.829849,-339.33444)"
       id="g460"><g
         clip-path="url(#clipPath466)"
         id="g462"><g
           transform="translate(252.8,348.70001)"
           id="g468"><path
             id="path470"
             style="fill:#ffffff;fill-opacity:1;fill-rule:nonzero;stroke:none"
             d="M 0,0 V 0.75 C 1.388,0.752 2.64,0.223 3.53,-0.67 4.423,-1.56 4.952,-2.812 4.95,-4.2 4.951,-5.588 4.426,-6.856 3.539,-7.772 2.654,-8.689 1.4,-9.252 0,-9.25 c -1.4,-10e-4 -2.67,0.558 -3.58,1.47 -0.912,0.91 -1.471,2.18 -1.47,3.58 -0.002,1.399 0.561,2.654 1.478,3.539 C -2.656,0.226 -1.388,0.751 0,0.75 V 0 -0.75 C -1.012,-0.751 -1.894,-1.126 -2.528,-1.739 -3.161,-2.354 -3.548,-3.2 -3.55,-4.2 -3.544,-6.193 -1.993,-7.744 0,-7.75 1,-7.748 1.846,-7.361 2.461,-6.728 3.074,-6.094 3.449,-5.212 3.45,-4.2 3.448,-3.188 3.077,-2.34 2.47,-1.73 1.86,-1.123 1.012,-0.752 0,-0.75 Z" /></g></g></g></g></svg>