<?xml version="1.0" encoding="UTF-8" standalone="no"?>
<svg
   xmlns:dc="http://purl.org/dc/elements/1.1/"
   xmlns:cc="http://creativecommons.org/ns#"
   xmlns:rdf="http://www.w3.org/1999/02/22-rdf-syntax-ns#"
   xmlns:svg="http://www.w3.org/2000/svg"
   xmlns="http://www.w3.org/2000/svg"
   viewBox="0 0 639.56934 449.34534"
   height="449.34534"
   width="639.56934"
   xml:space="preserve"
   id="svg2"
   version="1.1"><metadata
     id="metadata8"><rdf:RDF><cc:Work
         rdf:about=""><dc:format>image/svg+xml</dc:format><dc:type
           rdf:resource="http://purl.org/dc/dcmitype/StillImage" /></cc:Work></rdf:RDF></metadata><defs
     id="defs6"><clipPath
       id="clipPath14"
       clipPathUnits="userSpaceOnUse"><path
         id="path12"
         d="M 0,0 H 842 V 595 H 0 Z" /></clipPath><clipPath
       id="clipPath22"
       clipPathUnits="userSpaceOnUse"><path
         style="clip-rule:evenodd"
         id="path20"
         d="M 0,-0.2 H 841.8 V 595 H 0 Z" /></clipPath><clipPath
       id="clipPath34"
       clipPathUnits="userSpaceOnUse"><path
         style="clip-rule:evenodd"
         id="path32"
         d="M 0,-0.2 H 841.8 V 595 H 0 Z" /></clipPath><clipPath
       id="clipPath46"
       clipPathUnits="userSpaceOnUse"><path
         style="clip-rule:evenodd"
         id="path44"
         d="M 0,-0.2 H 841.8 V 595 H 0 Z" /></clipPath><clipPath
       id="clipPath58"
       clipPathUnits="userSpaceOnUse"><path
         style="clip-rule:evenodd"
         id="path56"
         d="M 0,-0.2 H 841.8 V 595 H 0 Z" /></clipPath><clipPath
       id="clipPath70"
       clipPathUnits="userSpaceOnUse"><path
         style="clip-rule:evenodd"
         id="path68"
         d="M 0,-0.2 H 841.8 V 595 H 0 Z" /></clipPath><clipPath
       id="clipPath82"
       clipPathUnits="userSpaceOnUse"><path
         style="clip-rule:evenodd"
         id="path80"
         d="M 0,-0.2 H 841.8 V 595 H 0 Z" /></clipPath><clipPath
       id="clipPath94"
       clipPathUnits="userSpaceOnUse"><path
         style="clip-rule:evenodd"
         id="path92"
         d="M 0,-0.2 H 841.8 V 595 H 0 Z" /></clipPath><clipPath
       id="clipPath106"
       clipPathUnits="userSpaceOnUse"><path
         style="clip-rule:evenodd"
         id="path104"
         d="M 0,-0.2 H 841.8 V 595 H 0 Z" /></clipPath><clipPath
       id="clipPath118"
       clipPathUnits="userSpaceOnUse"><path
         style="clip-rule:evenodd"
         id="path116"
         d="M 0,-0.2 H 841.8 V 595 H 0 Z" /></clipPath><clipPath
       id="clipPath130"
       clipPathUnits="userSpaceOnUse"><path
         style="clip-rule:evenodd"
         id="path128"
         d="M 0,-0.2 H 841.8 V 595 H 0 Z" /></clipPath><clipPath
       id="clipPath142"
       clipPathUnits="userSpaceOnUse"><path
         style="clip-rule:evenodd"
         id="path140"
         d="M 0,-0.2 H 841.8 V 595 H 0 Z" /></clipPath><clipPath
       id="clipPath154"
       clipPathUnits="userSpaceOnUse"><path
         style="clip-rule:evenodd"
         id="path152"
         d="M 0,-0.2 H 841.8 V 595 H 0 Z" /></clipPath><clipPath
       id="clipPath166"
       clipPathUnits="userSpaceOnUse"><path
         style="clip-rule:evenodd"
         id="path164"
         d="M 0,-0.2 H 841.8 V 595 H 0 Z" /></clipPath><clipPath
       id="clipPath178"
       clipPathUnits="userSpaceOnUse"><path
         style="clip-rule:evenodd"
         id="path176"
         d="M 0,-0.2 H 841.8 V 595 H 0 Z" /></clipPath><clipPath
       id="clipPath190"
       clipPathUnits="userSpaceOnUse"><path
         style="clip-rule:evenodd"
         id="path188"
         d="M 0,-0.2 H 841.8 V 595 H 0 Z" /></clipPath><clipPath
       id="clipPath202"
       clipPathUnits="userSpaceOnUse"><path
         style="clip-rule:evenodd"
         id="path200"
         d="M 0,-0.2 H 841.8 V 595 H 0 Z" /></clipPath><clipPath
       id="clipPath214"
       clipPathUnits="userSpaceOnUse"><path
         style="clip-rule:evenodd"
         id="path212"
         d="M 0,-0.2 H 841.8 V 595 H 0 Z" /></clipPath><clipPath
       id="clipPath226"
       clipPathUnits="userSpaceOnUse"><path
         style="clip-rule:evenodd"
         id="path224"
         d="M 0,-0.2 H 841.8 V 595 H 0 Z" /></clipPath><clipPath
       id="clipPath238"
       clipPathUnits="userSpaceOnUse"><path
         style="clip-rule:evenodd"
         id="path236"
         d="M 0,-0.2 H 841.8 V 595 H 0 Z" /></clipPath><clipPath
       id="clipPath250"
       clipPathUnits="userSpaceOnUse"><path
         style="clip-rule:evenodd"
         id="path248"
         d="M 0,-0.2 H 841.8 V 595 H 0 Z" /></clipPath><clipPath
       id="clipPath262"
       clipPathUnits="userSpaceOnUse"><path
         style="clip-rule:evenodd"
         id="path260"
         d="M 0,-0.2 H 841.8 V 595 H 0 Z" /></clipPath><clipPath
       id="clipPath274"
       clipPathUnits="userSpaceOnUse"><path
         style="clip-rule:evenodd"
         id="path272"
         d="M 0,-0.2 H 841.8 V 595 H 0 Z" /></clipPath><clipPath
       id="clipPath286"
       clipPathUnits="userSpaceOnUse"><path
         style="clip-rule:evenodd"
         id="path284"
         d="M 0,-0.2 H 841.8 V 595 H 0 Z" /></clipPath><clipPath
       id="clipPath298"
       clipPathUnits="userSpaceOnUse"><path
         style="clip-rule:evenodd"
         id="path296"
         d="M 0,-0.2 H 841.8 V 595 H 0 Z" /></clipPath><clipPath
       id="clipPath310"
       clipPathUnits="userSpaceOnUse"><path
         style="clip-rule:evenodd"
         id="path308"
         d="M 0,-0.2 H 841.8 V 595 H 0 Z" /></clipPath><clipPath
       id="clipPath322"
       clipPathUnits="userSpaceOnUse"><path
         style="clip-rule:evenodd"
         id="path320"
         d="M 0,-0.2 H 841.8 V 595 H 0 Z" /></clipPath><clipPath
       id="clipPath334"
       clipPathUnits="userSpaceOnUse"><path
         style="clip-rule:evenodd"
         id="path332"
         d="M 0,-0.2 H 841.8 V 595 H 0 Z" /></clipPath><clipPath
       id="clipPath346"
       clipPathUnits="userSpaceOnUse"><path
         style="clip-rule:evenodd"
         id="path344"
         d="M 0,-0.2 H 841.8 V 595 H 0 Z" /></clipPath><clipPath
       id="clipPath358"
       clipPathUnits="userSpaceOnUse"><path
         style="clip-rule:evenodd"
         id="path356"
         d="M 0,-0.2 H 841.8 V 595 H 0 Z" /></clipPath><clipPath
       id="clipPath370"
       clipPathUnits="userSpaceOnUse"><path
         style="clip-rule:evenodd"
         id="path368"
         d="M 0,-0.2 H 841.8 V 595 H 0 Z" /></clipPath><clipPath
       id="clipPath382"
       clipPathUnits="userSpaceOnUse"><path
         style="clip-rule:evenodd"
         id="path380"
         d="M 0,-0.2 H 841.8 V 595 H 0 Z" /></clipPath><clipPath
       id="clipPath394"
       clipPathUnits="userSpaceOnUse"><path
         style="clip-rule:evenodd"
         id="path392"
         d="M 0,-0.2 H 841.8 V 595 H 0 Z" /></clipPath><clipPath
       id="clipPath406"
       clipPathUnits="userSpaceOnUse"><path
         style="clip-rule:evenodd"
         id="path404"
         d="M 0,-0.2 H 841.8 V 595 H 0 Z" /></clipPath><clipPath
       id="clipPath418"
       clipPathUnits="userSpaceOnUse"><path
         style="clip-rule:evenodd"
         id="path416"
         d="M 0,-0.2 H 841.8 V 595 H 0 Z" /></clipPath><clipPath
       id="clipPath430"
       clipPathUnits="userSpaceOnUse"><path
         style="clip-rule:evenodd"
         id="path428"
         d="M 0,-0.2 H 841.8 V 595 H 0 Z" /></clipPath><clipPath
       id="clipPath442"
       clipPathUnits="userSpaceOnUse"><path
         style="clip-rule:evenodd"
         id="path440"
         d="M 0,-0.2 H 841.8 V 595 H 0 Z" /></clipPath><clipPath
       id="clipPath454"
       clipPathUnits="userSpaceOnUse"><path
         style="clip-rule:evenodd"
         id="path452"
         d="M 0,-0.2 H 841.8 V 595 H 0 Z" /></clipPath><clipPath
       id="clipPath466"
       clipPathUnits="userSpaceOnUse"><path
         style="clip-rule:evenodd"
         id="path464"
         d="M 0,-0.2 H 841.8 V 595 H 0 Z" /></clipPath><clipPath
       id="clipPath478"
       clipPathUnits="userSpaceOnUse"><path
         style="clip-rule:evenodd"
         id="path476"
         d="M 0,-0.2 H 841.8 V 595 H 0 Z" /></clipPath><clipPath
       id="clipPath490"
       clipPathUnits="userSpaceOnUse"><path
         style="clip-rule:evenodd"
         id="path488"
         d="M 0,-0.2 H 841.8 V 595 H 0 Z" /></clipPath><clipPath
       id="clipPath502"
       clipPathUnits="userSpaceOnUse"><path
         style="clip-rule:evenodd"
         id="path500"
         d="M 0,-0.2 H 841.8 V 595 H 0 Z" /></clipPath><clipPath
       id="clipPath514"
       clipPathUnits="userSpaceOnUse"><path
         style="clip-rule:evenodd"
         id="path512"
         d="M 0,-0.2 H 841.8 V 595 H 0 Z" /></clipPath><clipPath
       id="clipPath526"
       clipPathUnits="userSpaceOnUse"><path
         style="clip-rule:evenodd"
         id="path524"
         d="M 0,-0.2 H 841.8 V 595 H 0 Z" /></clipPath><clipPath
       id="clipPath538"
       clipPathUnits="userSpaceOnUse"><path
         style="clip-rule:evenodd"
         id="path536"
         d="M 0,-0.2 H 841.8 V 595 H 0 Z" /></clipPath><clipPath
       id="clipPath550"
       clipPathUnits="userSpaceOnUse"><path
         style="clip-rule:evenodd"
         id="path548"
         d="M 0,-0.2 H 841.8 V 595 H 0 Z" /></clipPath><clipPath
       id="clipPath562"
       clipPathUnits="userSpaceOnUse"><path
         style="clip-rule:evenodd"
         id="path560"
         d="M 0,-0.2 H 841.8 V 595 H 0 Z" /></clipPath></defs><g
     clip-path="url(#clipPath14)"
     transform="matrix(1.3333333,0,0,-1.3333333,-145.18,683.18133)"
     id="g10"><g
       transform="matrix(1.763504,0,0,1.763504,-81.836075,-392.3833)"
       id="g16"><g
         clip-path="url(#clipPath22)"
         id="g18"><g
           transform="translate(164.7,512.29998)"
           id="g24"><path
             id="path26"
             style="fill:#ccffcc;fill-opacity:1;fill-rule:evenodd;stroke:none"
             d="m 0,0 c 31.6,0 55.8,-25.1 55.8,-58 0,-32.8 -24.2,-58 -55.8,-58 -31.6,0 -55.8,25.2 -55.8,58 0,32.9 24.2,58 55.8,58" /></g></g></g><g
       transform="matrix(1.763504,0,0,1.763504,-81.836075,-392.3833)"
       id="g28"><g
         clip-path="url(#clipPath34)"
         id="g30"><g
           transform="translate(164.7,512.29998)"
           id="g36"><path
             id="path38"
             style="fill:#ffffff;fill-opacity:1;fill-rule:nonzero;stroke:none"
             d="M 0,0 V 0.75 C 16,0.752 30.155,-5.611 40.29,-16.142 50.428,-26.672 56.551,-41.366 56.55,-58 56.551,-74.585 50.428,-89.278 40.291,-99.82 30.156,-110.363 16.001,-116.752 0,-116.75 c -16.001,-0.002 -30.156,6.387 -40.291,16.93 -10.137,10.542 -16.26,25.235 -16.259,41.82 -0.001,16.634 6.122,31.328 16.26,41.858 C -30.155,-5.611 -16,0.752 0,0.75 V 0 -0.75 C -15.6,-0.752 -29.345,-6.939 -39.21,-17.183 -49.072,-27.428 -55.049,-41.734 -55.05,-58 c 10e-4,-16.215 5.978,-30.522 15.841,-40.78 9.865,-10.257 23.61,-16.468 39.209,-16.47 15.599,0.002 29.344,6.213 39.209,16.47 9.863,10.258 15.84,24.565 15.841,40.78 -10e-4,16.266 -5.978,30.572 -15.84,40.817 C 29.345,-6.939 15.6,-0.752 0,-0.75 Z" /></g></g></g><g
       transform="matrix(1.763504,0,0,1.763504,-81.836075,-392.3833)"
       id="g40"><g
         clip-path="url(#clipPath46)"
         id="g42"><g
           transform="translate(323.70001,392.5)"
           id="g48"><path
             id="path50"
             style="fill:#ccffcc;fill-opacity:1;fill-rule:evenodd;stroke:none"
             d="m 0,0 c 31.6,0 55.7,-15.1 55.7,-34.9 0,-19.8 -24.1,-34.9 -55.7,-34.9 -31.6,0 -55.8,15.1 -55.8,34.9 C -55.8,-15.1 -31.6,0 0,0" /></g></g></g><g
       transform="matrix(1.763504,0,0,1.763504,-81.836075,-392.3833)"
       id="g52"><g
         clip-path="url(#clipPath58)"
         id="g54"><g
           transform="translate(323.70001,392.5)"
           id="g60"><path
             id="path62"
             style="fill:#ffffff;fill-opacity:1;fill-rule:nonzero;stroke:none"
             d="m 0,0 v 0.75 c 15.919,-0.002 29.971,-3.797 40.098,-10.139 5.063,-3.173 9.145,-6.986 11.97,-11.294 2.824,-4.306 4.383,-9.113 4.382,-14.217 10e-4,-5.104 -1.558,-9.911 -4.382,-14.217 -4.239,-6.462 -11.3,-11.81 -20.269,-15.553 -8.97,-3.742 -19.859,-5.879 -31.799,-5.88 -15.919,0.002 -29.996,3.797 -40.147,10.139 -5.075,3.172 -9.171,6.985 -12.005,11.293 -2.834,4.306 -4.399,9.114 -4.398,14.218 -0.001,5.104 1.564,9.912 4.398,14.218 4.253,6.462 11.336,11.81 20.322,15.553 C -22.842,-1.388 -11.94,0.75 0,0.75 V 0 -0.75 c -15.681,0.002 -29.504,-3.753 -39.353,-9.911 -4.925,-3.078 -8.854,-6.753 -11.545,-10.845 -2.691,-4.094 -4.151,-8.598 -4.152,-13.394 10e-4,-4.796 1.461,-9.3 4.152,-13.394 4.034,-6.138 10.864,-11.338 19.644,-14.992 8.778,-3.655 19.494,-5.764 31.254,-5.764 15.681,-0.002 29.479,3.753 39.302,9.911 4.912,3.077 8.83,6.752 11.511,10.844 2.682,4.094 4.136,8.598 4.137,13.395 -0.001,4.797 -1.455,9.301 -4.137,13.395 -4.02,6.138 -10.829,11.337 -19.591,14.991 C 22.462,-2.859 11.76,-0.75 0,-0.75 Z" /></g></g></g><g
       transform="matrix(1.763504,0,0,1.763504,-81.836075,-392.3833)"
       id="g64"><g
         clip-path="url(#clipPath70)"
         id="g66"><g
           transform="translate(149.19999,458.10001)"
           id="g72"><path
             id="path74"
             style="fill:#000000;fill-opacity:1;fill-rule:evenodd;stroke:none"
             d="m 0,0 c 2.4,0 4.3,-1.9 4.3,-4.3 0,-2.4 -1.9,-4.2 -4.3,-4.2 -2.4,0 -4.2,1.8 -4.2,4.2 0,2.4 1.8,4.3 4.2,4.3" /></g></g></g><g
       transform="matrix(1.763504,0,0,1.763504,-81.836075,-392.3833)"
       id="g76"><g
         clip-path="url(#clipPath82)"
         id="g78"><g
           transform="translate(149.19999,458.10001)"
           id="g84"><path
             id="path86"
             style="fill:#ffffff;fill-opacity:1;fill-rule:nonzero;stroke:none"
             d="M 0,0 V 0.75 C 1.4,0.751 2.67,0.192 3.58,-0.72 4.492,-1.63 5.051,-2.9 5.05,-4.3 5.052,-5.699 4.489,-6.954 3.572,-7.839 2.656,-8.726 1.388,-9.251 0,-9.25 c -1.388,-0.002 -2.64,0.527 -3.53,1.42 -0.893,0.89 -1.422,2.142 -1.42,3.53 -10e-4,1.388 0.524,2.656 1.411,3.572 C -2.654,0.189 -1.4,0.752 0,0.75 V 0 -0.75 C -1,-0.752 -1.846,-1.139 -2.461,-1.772 -3.074,-2.406 -3.449,-3.288 -3.45,-4.3 c 0.002,-1.012 0.373,-1.86 0.98,-2.47 0.61,-0.607 1.458,-0.978 2.47,-0.98 1.012,0.001 1.894,0.376 2.528,0.989 C 3.161,-6.146 3.548,-5.3 3.55,-4.3 3.544,-2.307 1.993,-0.756 0,-0.75 Z" /></g></g></g><g
       transform="matrix(1.763504,0,0,1.763504,-81.836075,-392.3833)"
       id="g88"><g
         clip-path="url(#clipPath94)"
         id="g90"><g
           transform="translate(155.16731,433.79999)"
           id="g96"><path
             id="path98"
             style="fill:#000000;fill-opacity:1;fill-rule:nonzero;stroke:none"
             d="m 0,0 v 0.879 c -0.11,0 -0.251,0.014 -0.423,0.042 C -0.594,0.949 -0.68,0.983 -0.68,1.022 L 1.107,2.99 2.947,0.879 H 2.284 V 0 H 6.496 V 0.879 H 5.162 L 2.267,4.257 4.447,6.64 C 4.551,6.746 5.109,6.8 6.121,6.8 V 7.679 H 2.555 V 6.8 C 2.659,6.8 2.797,6.789 2.969,6.766 3.14,6.744 3.226,6.707 3.226,6.656 L 1.674,4.95 0.07,6.8 H 0.715 V 7.679 H -3.488 V 6.8 h 1.326 L 0.514,3.683 -1.892,1.039 C -2.003,0.932 -2.563,0.879 -3.575,0.879 V 0 Z" /></g></g></g><g
       transform="matrix(1.763504,0,0,1.763504,-81.836075,-392.3833)"
       id="g100"><g
         clip-path="url(#clipPath106)"
         id="g102"><g
           transform="translate(167.86771,431.4)"
           id="g108"><path
             id="path110"
             style="fill:#000000;fill-opacity:1;fill-rule:nonzero;stroke:none"
             d="m 0,0 v 0.484 c -1.157,0 -1.736,0.121 -1.736,0.361 V 7.887 L -1.883,8.035 H -2.11 C -2.417,7.752 -2.788,7.552 -3.223,7.435 -3.659,7.319 -4.126,7.261 -4.625,7.261 V 6.777 c 0.745,0 1.352,0.108 1.822,0.325 V 0.845 c 0,-0.24 -0.579,-0.361 -1.736,-0.361 V 0 Z" /></g></g></g><g
       transform="matrix(1.763504,0,0,1.763504,-81.836075,-392.3833)"
       id="g112"><g
         clip-path="url(#clipPath118)"
         id="g114"><g
           transform="translate(333.06732,350)"
           id="g120"><path
             id="path122"
             style="fill:#000000;fill-opacity:1;fill-rule:nonzero;stroke:none"
             d="m 0,0 v 0.879 c -0.11,0 -0.251,0.014 -0.423,0.042 C -0.594,0.949 -0.68,0.983 -0.68,1.022 L 1.107,2.99 2.947,0.879 H 2.284 V 0 H 6.496 V 0.879 H 5.162 L 2.267,4.257 4.447,6.64 C 4.551,6.746 5.109,6.8 6.121,6.8 V 7.679 H 2.555 V 6.8 C 2.659,6.8 2.797,6.789 2.969,6.766 3.14,6.744 3.226,6.707 3.226,6.656 L 1.674,4.95 0.07,6.8 H 0.715 V 7.679 H -3.488 V 6.8 h 1.326 L 0.514,3.683 -1.892,1.039 C -2.003,0.932 -2.563,0.879 -3.575,0.879 V 0 Z" /></g></g></g><g
       transform="matrix(1.763504,0,0,1.763504,-81.836075,-392.3833)"
       id="g124"><g
         clip-path="url(#clipPath130)"
         id="g126"><g
           transform="translate(345.76769,347.60001)"
           id="g132"><path
             id="path134"
             style="fill:#000000;fill-opacity:1;fill-rule:nonzero;stroke:none"
             d="M 0,0 0.374,2.251 H -0.104 C -0.149,1.971 -0.194,1.735 -0.239,1.542 -0.284,1.349 -0.343,1.215 -0.417,1.14 -0.438,1.121 -0.579,1.106 -0.84,1.096 -1.102,1.086 -1.406,1.08 -1.751,1.078 -2.097,1.076 -2.427,1.075 -2.742,1.075 h -1.153 l 1.534,1.259 c 0.13,0.11 0.413,0.328 0.846,0.653 0.433,0.325 0.773,0.605 1.018,0.842 0.246,0.236 0.452,0.509 0.62,0.818 0.167,0.309 0.251,0.643 0.251,1.001 0,0.497 -0.14,0.927 -0.42,1.291 -0.28,0.364 -0.647,0.638 -1.101,0.821 -0.454,0.184 -0.934,0.275 -1.441,0.275 -0.426,0 -0.839,-0.089 -1.239,-0.269 C -4.228,7.587 -4.553,7.332 -4.802,7.001 -5.052,6.67 -5.177,6.288 -5.177,5.855 c 0,-0.181 0.068,-0.337 0.203,-0.467 0.135,-0.13 0.298,-0.195 0.491,-0.195 0.196,0 0.359,0.065 0.49,0.195 0.131,0.13 0.196,0.286 0.196,0.467 0,0.189 -0.064,0.348 -0.193,0.476 -0.129,0.128 -0.293,0.192 -0.493,0.192 H -4.52 c 0.155,0.319 0.387,0.57 0.696,0.753 0.309,0.183 0.649,0.275 1.021,0.275 0.278,0 0.534,-0.047 0.767,-0.139 C -1.803,7.319 -1.602,7.186 -1.432,7.013 -1.263,6.84 -1.131,6.636 -1.037,6.402 -0.943,6.167 -0.895,5.916 -0.895,5.648 -0.895,5.16 -1.033,4.71 -1.309,4.298 -1.585,3.887 -1.971,3.442 -2.466,2.966 -2.56,2.875 -2.632,2.805 -2.683,2.756 L -2.889,2.552 -5.127,0.449 -5.177,0.349 V 0 Z" /></g></g></g><g
       transform="matrix(1.763504,0,0,1.763504,-81.836075,-392.3833)"
       id="g136"><g
         clip-path="url(#clipPath142)"
         id="g138"><g
           transform="translate(152.9556,454.06031)"
           id="g144"><path
             id="path146"
             style="fill:#ffffff;fill-opacity:1;fill-rule:nonzero;stroke:none"
             d="m 0,0 2.6,-1.4 -0.711,-1.321 -2.6,1.4" /></g></g></g><g
       transform="matrix(1.763504,0,0,1.763504,-81.836075,-392.3833)"
       id="g148"><g
         clip-path="url(#clipPath154)"
         id="g150"><g
           transform="translate(158.1556,451.16027)"
           id="g156"><path
             id="path158"
             style="fill:#ffffff;fill-opacity:1;fill-rule:nonzero;stroke:none"
             d="m 0,0 2.6,-1.4 -0.711,-1.321 -2.6,1.4" /></g></g></g><g
       transform="matrix(1.763504,0,0,1.763504,-81.836075,-392.3833)"
       id="g160"><g
         clip-path="url(#clipPath166)"
         id="g162"><g
           transform="translate(163.3556,448.36041)"
           id="g168"><path
             id="path170"
             style="fill:#ffffff;fill-opacity:1;fill-rule:nonzero;stroke:none"
             d="m 0,0 2.6,-1.4 -0.711,-1.321 -2.6,1.4" /></g></g></g><g
       transform="matrix(1.763504,0,0,1.763504,-81.836075,-392.3833)"
       id="g172"><g
         clip-path="url(#clipPath178)"
         id="g174"><g
           transform="translate(168.55561,445.46029)"
           id="g180"><path
             id="path182"
             style="fill:#ffffff;fill-opacity:1;fill-rule:nonzero;stroke:none"
             d="m 0,0 2.6,-1.4 -0.711,-1.321 -2.6,1.4" /></g></g></g><g
       transform="matrix(1.763504,0,0,1.763504,-81.836075,-392.3833)"
       id="g184"><g
         clip-path="url(#clipPath190)"
         id="g186"><g
           transform="translate(173.67481,442.6496)"
           id="g192"><path
             id="path194"
             style="fill:#ffffff;fill-opacity:1;fill-rule:nonzero;stroke:none"
             d="m 0,0 2.6,-1.5 -0.75,-1.299 -2.6,1.5" /></g></g></g><g
       transform="matrix(1.763504,0,0,1.763504,-81.836075,-392.3833)"
       id="g196"><g
         clip-path="url(#clipPath202)"
         id="g198"><g
           transform="translate(178.85561,439.76031)"
           id="g204"><path
             id="path206"
             style="fill:#ffffff;fill-opacity:1;fill-rule:nonzero;stroke:none"
             d="m 0,0 2.6,-1.4 -0.711,-1.321 -2.6,1.4" /></g></g></g><g
       transform="matrix(1.763504,0,0,1.763504,-81.836075,-392.3833)"
       id="g208"><g
         clip-path="url(#clipPath214)"
         id="g210"><g
           transform="translate(184.05561,436.86041)"
           id="g216"><path
             id="path218"
             style="fill:#ffffff;fill-opacity:1;fill-rule:nonzero;stroke:none"
             d="m 0,0 2.6,-1.4 -0.711,-1.321 -2.6,1.4" /></g></g></g><g
       transform="matrix(1.763504,0,0,1.763504,-81.836075,-392.3833)"
       id="g220"><g
         clip-path="url(#clipPath226)"
         id="g222"><g
           transform="translate(189.2556,434.06031)"
           id="g228"><path
             id="path230"
             style="fill:#ffffff;fill-opacity:1;fill-rule:nonzero;stroke:none"
             d="m 0,0 2.6,-1.4 -0.711,-1.321 -2.6,1.4" /></g></g></g><g
       transform="matrix(1.763504,0,0,1.763504,-81.836075,-392.3833)"
       id="g232"><g
         clip-path="url(#clipPath238)"
         id="g234"><g
           transform="translate(194.4556,431.16027)"
           id="g240"><path
             id="path242"
             style="fill:#ffffff;fill-opacity:1;fill-rule:nonzero;stroke:none"
             d="m 0,0 2.6,-1.4 -0.711,-1.321 -2.6,1.4" /></g></g></g><g
       transform="matrix(1.763504,0,0,1.763504,-81.836075,-392.3833)"
       id="g244"><g
         clip-path="url(#clipPath250)"
         id="g246"><g
           transform="translate(199.5452,428.26581)"
           id="g252"><path
             id="path254"
             style="fill:#ffffff;fill-opacity:1;fill-rule:nonzero;stroke:none"
             d="m 0,0 2.7,-1.4 -0.69,-1.332 -2.7,1.4" /></g></g></g><g
       transform="matrix(1.763504,0,0,1.763504,-81.836075,-392.3833)"
       id="g256"><g
         clip-path="url(#clipPath262)"
         id="g258"><g
           transform="translate(204.7556,425.46029)"
           id="g264"><path
             id="path266"
             style="fill:#ffffff;fill-opacity:1;fill-rule:nonzero;stroke:none"
             d="m 0,0 2.6,-1.4 -0.711,-1.321 -2.6,1.4" /></g></g></g><g
       transform="matrix(1.763504,0,0,1.763504,-81.836075,-392.3833)"
       id="g268"><g
         clip-path="url(#clipPath274)"
         id="g270"><g
           transform="translate(209.9556,422.5603)"
           id="g276"><path
             id="path278"
             style="fill:#ffffff;fill-opacity:1;fill-rule:nonzero;stroke:none"
             d="m 0,0 2.6,-1.4 -0.711,-1.321 -2.6,1.4" /></g></g></g><g
       transform="matrix(1.763504,0,0,1.763504,-81.836075,-392.3833)"
       id="g280"><g
         clip-path="url(#clipPath286)"
         id="g282"><g
           transform="translate(215.1748,419.7496)"
           id="g288"><path
             id="path290"
             style="fill:#ffffff;fill-opacity:1;fill-rule:nonzero;stroke:none"
             d="m 0,0 2.6,-1.5 -0.75,-1.299 -2.6,1.5" /></g></g></g><g
       transform="matrix(1.763504,0,0,1.763504,-81.836075,-392.3833)"
       id="g292"><g
         clip-path="url(#clipPath298)"
         id="g294"><g
           transform="translate(220.35561,416.86041)"
           id="g300"><path
             id="path302"
             style="fill:#ffffff;fill-opacity:1;fill-rule:nonzero;stroke:none"
             d="m 0,0 2.6,-1.4 -0.711,-1.321 -2.6,1.4" /></g></g></g><g
       transform="matrix(1.763504,0,0,1.763504,-81.836075,-392.3833)"
       id="g304"><g
         clip-path="url(#clipPath310)"
         id="g306"><g
           transform="translate(225.57481,414.04961)"
           id="g312"><path
             id="path314"
             style="fill:#ffffff;fill-opacity:1;fill-rule:nonzero;stroke:none"
             d="m 0,0 2.6,-1.5 -0.75,-1.299 -2.6,1.5" /></g></g></g><g
       transform="matrix(1.763504,0,0,1.763504,-81.836075,-392.3833)"
       id="g316"><g
         clip-path="url(#clipPath322)"
         id="g318"><g
           transform="translate(230.6748,411.14959)"
           id="g324"><path
             id="path326"
             style="fill:#ffffff;fill-opacity:1;fill-rule:nonzero;stroke:none"
             d="m 0,0 2.6,-1.5 -0.75,-1.299 -2.6,1.5" /></g></g></g><g
       transform="matrix(1.763504,0,0,1.763504,-81.836075,-392.3833)"
       id="g328"><g
         clip-path="url(#clipPath334)"
         id="g330"><g
           transform="translate(235.8556,408.26032)"
           id="g336"><path
             id="path338"
             style="fill:#ffffff;fill-opacity:1;fill-rule:nonzero;stroke:none"
             d="m 0,0 2.6,-1.4 -0.711,-1.321 -2.6,1.4" /></g></g></g><g
       transform="matrix(1.763504,0,0,1.763504,-81.836075,-392.3833)"
       id="g340"><g
         clip-path="url(#clipPath346)"
         id="g342"><g
           transform="translate(241.07479,405.44958)"
           id="g348"><path
             id="path350"
             style="fill:#ffffff;fill-opacity:1;fill-rule:nonzero;stroke:none"
             d="m 0,0 2.6,-1.5 -0.75,-1.299 -2.6,1.5" /></g></g></g><g
       transform="matrix(1.763504,0,0,1.763504,-81.836075,-392.3833)"
       id="g352"><g
         clip-path="url(#clipPath358)"
         id="g354"><g
           transform="translate(246.2556,402.5603)"
           id="g360"><path
             id="path362"
             style="fill:#ffffff;fill-opacity:1;fill-rule:nonzero;stroke:none"
             d="m 0,0 2.6,-1.4 -0.711,-1.321 -2.6,1.4" /></g></g></g><g
       transform="matrix(1.763504,0,0,1.763504,-81.836075,-392.3833)"
       id="g364"><g
         clip-path="url(#clipPath370)"
         id="g366"><g
           transform="translate(251.45559,399.66028)"
           id="g372"><path
             id="path374"
             style="fill:#ffffff;fill-opacity:1;fill-rule:nonzero;stroke:none"
             d="m 0,0 2.6,-1.4 -0.711,-1.321 -2.6,1.4" /></g></g></g><g
       transform="matrix(1.763504,0,0,1.763504,-81.836075,-392.3833)"
       id="g376"><g
         clip-path="url(#clipPath382)"
         id="g378"><g
           transform="translate(256.66638,396.8544)"
           id="g384"><path
             id="path386"
             style="fill:#ffffff;fill-opacity:1;fill-rule:nonzero;stroke:none"
             d="m 0,0 2.5,-1.4 -0.733,-1.309 -2.5,1.4" /></g></g></g><g
       transform="matrix(1.763504,0,0,1.763504,-81.836075,-392.3833)"
       id="g388"><g
         clip-path="url(#clipPath394)"
         id="g390"><g
           transform="translate(261.75561,393.9603)"
           id="g396"><path
             id="path398"
             style="fill:#ffffff;fill-opacity:1;fill-rule:nonzero;stroke:none"
             d="m 0,0 2.6,-1.4 -0.711,-1.321 -2.6,1.4" /></g></g></g><g
       transform="matrix(1.763504,0,0,1.763504,-81.836075,-392.3833)"
       id="g400"><g
         clip-path="url(#clipPath406)"
         id="g402"><g
           transform="translate(266.97479,391.14959)"
           id="g408"><path
             id="path410"
             style="fill:#ffffff;fill-opacity:1;fill-rule:nonzero;stroke:none"
             d="m 0,0 2.6,-1.5 -0.75,-1.299 -2.6,1.5" /></g></g></g><g
       transform="matrix(1.763504,0,0,1.763504,-81.836075,-392.3833)"
       id="g412"><g
         clip-path="url(#clipPath418)"
         id="g414"><g
           transform="translate(272.15551,388.26032)"
           id="g420"><path
             id="path422"
             style="fill:#ffffff;fill-opacity:1;fill-rule:nonzero;stroke:none"
             d="m 0,0 2.6,-1.4 -0.711,-1.321 -2.6,1.4" /></g></g></g><g
       transform="matrix(1.763504,0,0,1.763504,-81.836075,-392.3833)"
       id="g424"><g
         clip-path="url(#clipPath430)"
         id="g426"><g
           transform="translate(277.35558,385.3604)"
           id="g432"><path
             id="path434"
             style="fill:#ffffff;fill-opacity:1;fill-rule:nonzero;stroke:none"
             d="m 0,0 2.6,-1.4 -0.711,-1.321 -2.6,1.4" /></g></g></g><g
       transform="matrix(1.763504,0,0,1.763504,-81.836075,-392.3833)"
       id="g436"><g
         clip-path="url(#clipPath442)"
         id="g438"><g
           transform="translate(282.58591,382.54309)"
           id="g444"><path
             id="path446"
             style="fill:#ffffff;fill-opacity:1;fill-rule:nonzero;stroke:none"
             d="m 0,0 2.5,-1.5 -0.772,-1.286 -2.5,1.5" /></g></g></g><g
       transform="matrix(1.763504,0,0,1.763504,-81.836075,-392.3833)"
       id="g448"><g
         clip-path="url(#clipPath454)"
         id="g450"><g
           transform="translate(287.65552,379.66028)"
           id="g456"><path
             id="path458"
             style="fill:#ffffff;fill-opacity:1;fill-rule:nonzero;stroke:none"
             d="m 0,0 2.6,-1.4 -0.711,-1.321 -2.6,1.4" /></g></g></g><g
       transform="matrix(1.763504,0,0,1.763504,-81.836075,-392.3833)"
       id="g460"><g
         clip-path="url(#clipPath466)"
         id="g462"><g
           transform="translate(292.85559,376.76032)"
           id="g468"><path
             id="path470"
             style="fill:#ffffff;fill-opacity:1;fill-rule:nonzero;stroke:none"
             d="m 0,0 2.6,-1.4 -0.711,-1.321 -2.6,1.4" /></g></g></g><g
       transform="matrix(1.763504,0,0,1.763504,-81.836075,-392.3833)"
       id="g472"><g
         clip-path="url(#clipPath478)"
         id="g474"><g
           transform="translate(298.05561,373.9603)"
           id="g480"><path
             id="path482"
             style="fill:#ffffff;fill-opacity:1;fill-rule:nonzero;stroke:none"
             d="m 0,0 2.6,-1.4 -0.711,-1.321 -2.6,1.4" /></g></g></g><g
       transform="matrix(1.763504,0,0,1.763504,-81.836075,-392.3833)"
       id="g484"><g
         clip-path="url(#clipPath490)"
         id="g486"><g
           transform="translate(303.25561,371.0603)"
           id="g492"><path
             id="path494"
             style="fill:#ffffff;fill-opacity:1;fill-rule:nonzero;stroke:none"
             d="m 0,0 2.6,-1.4 -0.711,-1.321 -2.6,1.4" /></g></g></g><g
       transform="matrix(1.763504,0,0,1.763504,-81.836075,-392.3833)"
       id="g496"><g
         clip-path="url(#clipPath502)"
         id="g498"><g
           transform="translate(308.4859,368.2431)"
           id="g504"><path
             id="path506"
             style="fill:#ffffff;fill-opacity:1;fill-rule:nonzero;stroke:none"
             d="m 0,0 2.5,-1.5 -0.772,-1.286 -2.5,1.5" /></g></g></g><g
       transform="matrix(1.763504,0,0,1.763504,-81.836075,-392.3833)"
       id="g508"><g
         clip-path="url(#clipPath514)"
         id="g510"><g
           transform="translate(313.66638,365.3544)"
           id="g516"><path
             id="path518"
             style="fill:#ffffff;fill-opacity:1;fill-rule:nonzero;stroke:none"
             d="m 0,0 2.5,-1.4 -0.733,-1.309 -2.5,1.4" /></g></g></g><g
       transform="matrix(1.763504,0,0,1.763504,-81.836075,-392.3833)"
       id="g520"><g
         clip-path="url(#clipPath526)"
         id="g522"><g
           transform="translate(152.963,454.05631)"
           id="g528"><path
             id="path530"
             style="fill:#666666;fill-opacity:1;fill-rule:nonzero;stroke:none"
             d="m 0,0 59.3,-32.8 -0.726,-1.313 -59.3,32.8" /></g></g></g><g
       transform="matrix(1.763504,0,0,1.763504,-81.836075,-392.3833)"
       id="g532"><g
         clip-path="url(#clipPath538)"
         id="g534"><g
           transform="translate(281.76199,382.8569)"
           id="g540"><path
             id="path542"
             style="fill:#666666;fill-opacity:1;fill-rule:nonzero;stroke:none"
             d="m 0,0 37.2,-20.5 -0.724,-1.314 -37.2,20.5" /></g></g></g><g
       transform="matrix(1.763504,0,0,1.763504,-81.836075,-392.3833)"
       id="g544"><g
         clip-path="url(#clipPath550)"
         id="g546"><g
           transform="translate(320.00001,363.89999)"
           id="g552"><path
             id="path554"
             style="fill:#000000;fill-opacity:1;fill-rule:evenodd;stroke:none"
             d="m 0,0 c 2.4,0 4.3,-1.9 4.3,-4.3 0,-2.4 -1.9,-4.2 -4.3,-4.2 -2.4,0 -4.2,1.8 -4.2,4.2 0,2.4 1.8,4.3 4.2,4.3" /></g></g></g><g
       transform="matrix(1.763504,0,0,1.763504,-81.836075,-392.3833)"
       id="g556"><g
         clip-path="url(#clipPath562)"
         id="g558"><g
           transform="translate(320.00001,363.89999)"
           id="g564"><path
             id="path566"
             style="fill:#ffffff;fill-opacity:1;fill-rule:nonzero;stroke:none"
             d="M 0,0 V 0.75 C 1.4,0.751 2.67,0.192 3.58,-0.72 4.492,-1.63 5.051,-2.9 5.05,-4.3 5.052,-5.699 4.489,-6.954 3.572,-7.839 2.656,-8.726 1.388,-9.251 0,-9.25 c -1.388,-0.002 -2.64,0.527 -3.53,1.42 -0.893,0.89 -1.422,2.142 -1.42,3.53 -10e-4,1.388 0.524,2.656 1.411,3.572 C -2.654,0.189 -1.4,0.752 0,0.75 V 0 -0.75 C -1,-0.752 -1.846,-1.139 -2.461,-1.772 -3.074,-2.406 -3.449,-3.288 -3.45,-4.3 c 0.002,-1.012 0.373,-1.86 0.98,-2.47 0.61,-0.607 1.458,-0.978 2.47,-0.98 1.012,0.001 1.894,0.376 2.528,0.989 0.633,0.615 1.02,1.46 1.022,2.461 C 3.544,-2.307 1.993,-0.756 0,-0.75 Z" /></g></g></g></g></svg>