<?xml version="1.0" encoding="UTF-8"?>
<svg xmlns="http://www.w3.org/2000/svg" xmlns:xlink="http://www.w3.org/1999/xlink" width="529.897pt" height="415.656pt" viewBox="0 0 529.897 415.656" version="1.1">
<defs>
<clipPath id="clip1">
  <path d="M 254 30 L 259 30 L 259 415.65625 L 254 415.65625 Z M 254 30 "/>
</clipPath>
<clipPath id="clip2">
  <path d="M 522 308 L 529.898438 308 L 529.898438 340 L 522 340 Z M 522 308 "/>
</clipPath>
</defs>
<g id="surface1">
<path style=" stroke:none;fill-rule:nonzero;fill:rgb(100%,100%,40%);fill-opacity:0.5;" d="M 5.25 15.386719 L 5.25 364.421875 L 255.257812 364.421875 L 255.257812 15.386719 Z M 5.25 15.386719 "/>
<path style=" stroke:none;fill-rule:evenodd;fill:rgb(39.99939%,79.998779%,100%);fill-opacity:1;" d="M 405.519531 138.671875 C 313.191406 51.414062 77.121094 133.421875 77.121094 225.75 C 77.121094 318.257812 138.671875 179.585938 256.707031 184.835938 C 374.742188 189.90625 359.355469 359.171875 410.585938 333.648438 C 461.820312 307.941406 472.320312 200.222656 405.519531 138.671875 "/>
<path style=" stroke:none;fill-rule:nonzero;fill:rgb(100%,100%,100%);fill-opacity:1;" d="M 0 363.253906 L 482.277344 363.253906 L 482.277344 367.402344 L 0 367.402344 "/>
<path style=" stroke:none;fill-rule:evenodd;fill:rgb(100%,100%,100%);fill-opacity:1;" d="M 513.234375 365.328125 L 480.828125 354.464844 L 480.828125 376.007812 Z M 513.234375 365.328125 "/>
<g clip-path="url(#clip1)" clip-rule="nonzero">
<path style=" stroke:none;fill-rule:nonzero;fill:rgb(100%,100%,100%);fill-opacity:1;" d="M 254.632812 415.65625 L 254.632812 30.957031 L 258.78125 30.957031 L 258.78125 415.65625 "/>
</g>
<path style=" stroke:none;fill-rule:evenodd;fill:rgb(100%,100%,100%);fill-opacity:1;" d="M 256.707031 0 L 245.84375 32.40625 L 267.386719 32.40625 Z M 256.707031 0 "/>
<path style=" stroke:none;fill-rule:nonzero;fill:rgb(100%,100%,100%);fill-opacity:1;" d="M 281.847656 39.007812 C 282.1875 38.636719 282.359375 38.226562 282.359375 37.777344 C 282.359375 37.441406 282.238281 37.167969 281.996094 36.957031 C 281.753906 36.75 281.453125 36.644531 281.09375 36.644531 C 280.554688 36.644531 280.109375 36.839844 279.757812 37.234375 C 279.402344 37.625 279.226562 38.085938 279.226562 38.617188 C 279.226562 39.28125 279.511719 39.8125 280.085938 40.214844 C 280.65625 40.617188 281.304688 40.820312 282.03125 40.820312 C 282.976562 40.820312 283.796875 40.410156 284.488281 39.597656 C 285.183594 38.78125 285.75 37.769531 286.199219 36.558594 C 286.644531 35.351562 286.992188 34.175781 287.238281 33.027344 C 287.484375 31.882812 287.703125 30.753906 287.890625 29.640625 L 289.386719 21.996094 L 292.835938 21.996094 L 293.050781 21.878906 C 293.105469 21.804688 293.152344 21.703125 293.183594 21.574219 C 293.214844 21.445312 293.234375 21.359375 293.246094 21.304688 C 293.246094 21.03125 293.140625 20.894531 292.929688 20.894531 L 289.605469 20.894531 L 289.996094 18.828125 C 290.460938 16.484375 290.761719 15.046875 290.898438 14.515625 C 290.980469 14.179688 291.167969 13.863281 291.457031 13.566406 C 291.746094 13.269531 292.054688 13.121094 292.382812 13.121094 C 292.96875 13.121094 293.464844 13.269531 293.863281 13.5625 C 293.390625 13.613281 292.992188 13.808594 292.667969 14.152344 C 292.347656 14.492188 292.1875 14.890625 292.1875 15.347656 C 292.1875 15.683594 292.308594 15.953125 292.558594 16.160156 C 292.804688 16.371094 293.105469 16.472656 293.453125 16.472656 C 293.96875 16.472656 294.410156 16.277344 294.773438 15.886719 C 295.136719 15.496094 295.320312 15.035156 295.320312 14.507812 C 295.320312 14.050781 295.179688 13.65625 294.894531 13.320312 C 294.609375 12.984375 294.246094 12.734375 293.800781 12.566406 C 293.351562 12.398438 292.890625 12.316406 292.421875 12.316406 C 291.695312 12.316406 291.019531 12.535156 290.394531 12.980469 C 289.769531 13.421875 289.273438 13.988281 288.90625 14.671875 C 288.664062 15.148438 288.480469 15.582031 288.359375 15.96875 C 288.238281 16.355469 288.128906 16.777344 288.023438 17.230469 C 287.917969 17.683594 287.800781 18.226562 287.675781 18.859375 L 287.296875 20.894531 L 284.421875 20.894531 C 284.234375 20.894531 284.097656 21.121094 284.015625 21.582031 C 284.015625 21.855469 284.117188 21.996094 284.328125 21.996094 L 287.09375 21.996094 L 285.613281 29.671875 C 284.71875 34.117188 284.175781 36.734375 283.972656 37.53125 C 283.492188 39.183594 282.867188 40.007812 282.101562 40.007812 C 281.53125 40.007812 281.050781 39.859375 280.652344 39.566406 C 281.105469 39.566406 281.503906 39.378906 281.847656 39.007812 "/>
<path style=" stroke:none;fill-rule:nonzero;fill:rgb(100%,100%,100%);fill-opacity:1;" d="M 302.980469 38.097656 C 303.765625 37.378906 304.304688 36.472656 304.597656 35.378906 C 304.890625 34.28125 305.035156 33.082031 305.035156 31.777344 C 305.035156 29.640625 304.652344 27.839844 303.890625 26.382812 C 303.128906 24.925781 301.746094 24.195312 299.738281 24.195312 C 297.738281 24.195312 296.355469 24.925781 295.585938 26.382812 C 294.816406 27.839844 294.429688 29.640625 294.429688 31.777344 C 294.429688 33.082031 294.578125 34.28125 294.871094 35.378906 C 295.160156 36.472656 295.703125 37.378906 296.492188 38.097656 C 297.277344 38.820312 298.363281 39.179688 299.738281 39.179688 C 301.117188 39.179688 302.195312 38.820312 302.980469 38.097656 M 297.984375 37.75 C 297.539062 37.269531 297.222656 36.667969 297.027344 35.9375 C 296.835938 35.210938 296.71875 34.492188 296.667969 33.777344 C 296.621094 33.066406 296.597656 32.273438 296.597656 31.40625 C 296.597656 30.554688 296.621094 29.800781 296.667969 29.140625 C 296.71875 28.484375 296.835938 27.828125 297.023438 27.171875 C 297.214844 26.523438 297.527344 25.980469 297.96875 25.546875 C 298.40625 25.117188 299 24.902344 299.738281 24.902344 C 300.695312 24.902344 301.398438 25.25 301.859375 25.949219 C 302.316406 26.648438 302.601562 27.445312 302.710938 28.335938 C 302.816406 29.226562 302.871094 30.25 302.871094 31.40625 C 302.871094 32.609375 302.816406 33.699219 302.710938 34.671875 C 302.601562 35.644531 302.316406 36.523438 301.855469 37.300781 C 301.390625 38.082031 300.6875 38.472656 299.738281 38.472656 C 299.011719 38.472656 298.429688 38.234375 297.984375 37.75 "/>
<path style=" stroke:none;fill-rule:nonzero;fill:rgb(100%,100%,100%);fill-opacity:1;" d="M 317.59375 42.226562 L 317.894531 42.226562 L 318.058594 42.128906 L 318.148438 41.949219 C 318.148438 41.839844 318.117188 41.753906 318.050781 41.691406 C 314.386719 38.246094 312.550781 33.203125 312.550781 26.566406 C 312.550781 25.066406 312.644531 23.628906 312.835938 22.246094 C 313.023438 20.867188 313.332031 19.53125 313.761719 18.238281 C 314.1875 16.949219 314.75 15.734375 315.453125 14.59375 C 316.152344 13.453125 317.03125 12.382812 318.085938 11.382812 C 318.125 11.339844 318.148438 11.273438 318.148438 11.183594 L 318.066406 10.992188 L 317.894531 10.90625 L 317.59375 10.90625 C 317.488281 10.90625 317.4375 10.929688 317.4375 10.96875 C 316.265625 11.855469 315.242188 12.890625 314.367188 14.074219 C 313.492188 15.257812 312.773438 16.523438 312.210938 17.882812 C 311.648438 19.238281 311.226562 20.648438 310.953125 22.117188 C 310.679688 23.585938 310.542969 25.066406 310.542969 26.566406 C 310.542969 28.046875 310.679688 29.519531 310.953125 30.984375 C 311.226562 32.453125 311.640625 33.859375 312.195312 35.207031 C 312.75 36.554688 313.460938 37.820312 314.328125 39.007812 C 315.199219 40.195312 316.234375 41.246094 317.4375 42.164062 C 317.4375 42.203125 317.488281 42.226562 317.59375 42.226562 "/>
<path style=" stroke:none;fill-rule:nonzero;fill:rgb(100%,100%,100%);fill-opacity:1;" d="M 327.25 34.394531 L 327.25 32.804688 C 327.050781 32.804688 326.796875 32.78125 326.484375 32.730469 C 326.175781 32.679688 326.019531 32.617188 326.019531 32.546875 L 329.257812 28.984375 L 332.585938 32.804688 L 331.386719 32.804688 L 331.386719 34.394531 L 339.011719 34.394531 L 339.011719 32.804688 L 336.59375 32.804688 L 331.355469 26.6875 L 335.300781 22.375 C 335.492188 22.183594 336.5 22.085938 338.332031 22.085938 L 338.332031 20.496094 L 331.875 20.496094 L 331.875 22.085938 C 332.066406 22.085938 332.316406 22.105469 332.625 22.148438 C 332.9375 22.1875 333.089844 22.253906 333.089844 22.347656 L 330.28125 25.433594 L 327.378906 22.085938 L 328.546875 22.085938 L 328.546875 20.496094 L 320.9375 20.496094 L 320.9375 22.085938 L 323.335938 22.085938 L 328.183594 27.730469 L 323.828125 32.515625 C 323.625 32.710938 322.609375 32.804688 320.78125 32.804688 L 320.78125 34.394531 Z M 327.25 34.394531 "/>
<path style=" stroke:none;fill-rule:nonzero;fill:rgb(100%,100%,100%);fill-opacity:1;" d="M 341.84375 42.226562 L 342 42.164062 C 343.203125 41.246094 344.234375 40.199219 345.101562 39.023438 C 345.964844 37.84375 346.679688 36.558594 347.242188 35.167969 C 347.804688 33.777344 348.21875 32.363281 348.476562 30.933594 C 348.734375 29.5 348.863281 28.046875 348.863281 26.566406 C 348.863281 24.570312 348.621094 22.613281 348.144531 20.695312 C 347.664062 18.777344 346.90625 16.972656 345.875 15.28125 C 344.839844 13.589844 343.550781 12.152344 342 10.96875 L 341.84375 10.90625 L 341.542969 10.90625 L 341.34375 10.992188 L 341.257812 11.183594 C 341.257812 11.304688 341.300781 11.390625 341.386719 11.441406 C 345.03125 14.890625 346.855469 19.929688 346.855469 26.566406 C 346.855469 33.203125 345.011719 38.265625 341.320312 41.753906 C 341.277344 41.792969 341.257812 41.859375 341.257812 41.949219 C 341.257812 42.132812 341.351562 42.226562 341.542969 42.226562 Z M 341.84375 42.226562 "/>
<path style=" stroke:none;fill-rule:nonzero;fill:rgb(100%,100%,100%);fill-opacity:1;" d="M 463.0625 336.628906 C 463.40625 336.257812 463.574219 335.84375 463.574219 335.398438 C 463.574219 335.0625 463.453125 334.789062 463.210938 334.578125 C 462.96875 334.371094 462.667969 334.265625 462.308594 334.265625 C 461.773438 334.265625 461.324219 334.460938 460.972656 334.855469 C 460.621094 335.246094 460.441406 335.707031 460.441406 336.238281 C 460.441406 336.902344 460.730469 337.433594 461.300781 337.835938 C 461.875 338.238281 462.523438 338.441406 463.246094 338.441406 C 464.191406 338.441406 465.011719 338.03125 465.703125 337.21875 C 466.398438 336.402344 466.96875 335.390625 467.414062 334.179688 C 467.859375 332.972656 468.207031 331.796875 468.453125 330.648438 C 468.699219 329.503906 468.917969 328.375 469.105469 327.261719 L 470.605469 319.617188 L 474.054688 319.617188 L 474.265625 319.5 C 474.324219 319.425781 474.367188 319.324219 474.398438 319.195312 C 474.429688 319.066406 474.453125 318.980469 474.464844 318.925781 C 474.464844 318.652344 474.355469 318.515625 474.148438 318.515625 L 470.820312 318.515625 L 471.214844 316.449219 C 471.675781 314.105469 471.976562 312.667969 472.113281 312.136719 C 472.199219 311.800781 472.382812 311.484375 472.675781 311.1875 C 472.964844 310.890625 473.269531 310.742188 473.597656 310.742188 C 474.1875 310.742188 474.679688 310.890625 475.078125 311.183594 C 474.605469 311.234375 474.207031 311.429688 473.886719 311.773438 C 473.5625 312.113281 473.402344 312.511719 473.402344 312.96875 C 473.402344 313.304688 473.527344 313.574219 473.773438 313.78125 C 474.023438 313.992188 474.320312 314.09375 474.667969 314.09375 C 475.183594 314.09375 475.625 313.898438 475.988281 313.507812 C 476.355469 313.117188 476.535156 312.65625 476.535156 312.128906 C 476.535156 311.671875 476.394531 311.277344 476.109375 310.941406 C 475.828125 310.605469 475.460938 310.355469 475.015625 310.1875 C 474.566406 310.019531 474.109375 309.9375 473.636719 309.9375 C 472.910156 309.9375 472.234375 310.15625 471.609375 310.601562 C 470.984375 311.042969 470.488281 311.609375 470.121094 312.292969 C 469.878906 312.769531 469.699219 313.203125 469.578125 313.589844 C 469.457031 313.976562 469.34375 314.398438 469.238281 314.851562 C 469.132812 315.304688 469.015625 315.847656 468.890625 316.480469 L 468.511719 318.515625 L 465.636719 318.515625 C 465.449219 318.515625 465.3125 318.746094 465.230469 319.203125 C 465.230469 319.476562 465.332031 319.617188 465.542969 319.617188 L 468.308594 319.617188 L 466.828125 327.292969 C 465.9375 331.738281 465.390625 334.355469 465.191406 335.152344 C 464.707031 336.804688 464.082031 337.628906 463.316406 337.628906 C 462.75 337.628906 462.265625 337.480469 461.867188 337.1875 C 462.320312 337.1875 462.71875 337 463.0625 336.628906 "/>
<path style=" stroke:none;fill-rule:nonzero;fill:rgb(100%,100%,100%);fill-opacity:1;" d="M 485.296875 336.363281 L 485.296875 335.484375 C 483.203125 335.484375 482.15625 335.269531 482.15625 334.832031 L 482.15625 322.082031 C 482.117188 321.941406 482.027344 321.851562 481.886719 321.816406 L 481.476562 321.816406 C 480.921875 322.328125 480.25 322.691406 479.460938 322.902344 C 478.671875 323.113281 477.828125 323.21875 476.925781 323.21875 L 476.925781 324.09375 C 478.269531 324.09375 479.371094 323.898438 480.222656 323.507812 L 480.222656 334.832031 C 480.222656 335.269531 479.175781 335.484375 477.078125 335.484375 L 477.078125 336.363281 Z M 485.296875 336.363281 "/>
<path style=" stroke:none;fill-rule:nonzero;fill:rgb(100%,100%,100%);fill-opacity:1;" d="M 498.808594 339.847656 L 499.109375 339.847656 L 499.277344 339.75 L 499.363281 339.570312 C 499.363281 339.460938 499.332031 339.375 499.269531 339.3125 C 495.601562 335.867188 493.765625 330.824219 493.765625 324.1875 C 493.765625 322.6875 493.863281 321.25 494.050781 319.867188 C 494.242188 318.488281 494.550781 317.152344 494.976562 315.859375 C 495.402344 314.570312 495.96875 313.355469 496.667969 312.214844 C 497.367188 311.074219 498.246094 310.003906 499.300781 309.003906 C 499.34375 308.960938 499.363281 308.894531 499.363281 308.804688 L 499.285156 308.613281 L 499.109375 308.527344 L 498.808594 308.527344 C 498.703125 308.527344 498.652344 308.550781 498.652344 308.589844 C 497.480469 309.476562 496.460938 310.511719 495.585938 311.695312 C 494.710938 312.878906 493.992188 314.144531 493.425781 315.503906 C 492.863281 316.859375 492.445312 318.269531 492.167969 319.738281 C 491.894531 321.207031 491.757812 322.6875 491.757812 324.1875 C 491.757812 325.667969 491.894531 327.140625 492.167969 328.605469 C 492.445312 330.074219 492.859375 331.480469 493.410156 332.828125 C 493.964844 334.175781 494.675781 335.441406 495.542969 336.628906 C 496.414062 337.816406 497.449219 338.867188 498.652344 339.785156 C 498.652344 339.824219 498.703125 339.847656 498.808594 339.847656 "/>
<path style=" stroke:none;fill-rule:nonzero;fill:rgb(100%,100%,100%);fill-opacity:1;" d="M 508.46875 332.019531 L 508.46875 330.425781 C 508.265625 330.425781 508.011719 330.402344 507.703125 330.351562 C 507.390625 330.300781 507.234375 330.238281 507.234375 330.167969 L 510.472656 326.605469 L 513.800781 330.425781 L 512.601562 330.425781 L 512.601562 332.019531 L 520.226562 332.019531 L 520.226562 330.425781 L 517.8125 330.425781 L 512.570312 324.3125 L 516.515625 319.996094 C 516.707031 319.804688 517.71875 319.707031 519.546875 319.707031 L 519.546875 318.117188 L 513.09375 318.117188 L 513.09375 319.707031 C 513.28125 319.707031 513.53125 319.726562 513.84375 319.769531 C 514.152344 319.808594 514.308594 319.875 514.308594 319.96875 L 511.5 323.054688 L 508.59375 319.707031 L 509.761719 319.707031 L 509.761719 318.117188 L 502.152344 318.117188 L 502.152344 319.707031 L 504.550781 319.707031 L 509.398438 325.351562 L 505.042969 330.136719 C 504.84375 330.332031 503.828125 330.425781 501.996094 330.425781 L 501.996094 332.019531 Z M 508.46875 332.019531 "/>
<g clip-path="url(#clip2)" clip-rule="nonzero">
<path style=" stroke:none;fill-rule:nonzero;fill:rgb(100%,100%,100%);fill-opacity:1;" d="M 522.878906 339.847656 L 523.035156 339.785156 C 524.238281 338.867188 525.269531 337.820312 526.136719 336.644531 C 527 335.464844 527.714844 334.179688 528.277344 332.789062 C 528.839844 331.398438 529.253906 329.984375 529.511719 328.554688 C 529.769531 327.121094 529.898438 325.667969 529.898438 324.1875 C 529.898438 322.191406 529.65625 320.234375 529.179688 318.316406 C 528.699219 316.398438 527.941406 314.59375 526.910156 312.902344 C 525.875 311.210938 524.585938 309.773438 523.035156 308.589844 L 522.878906 308.527344 L 522.578125 308.527344 L 522.378906 308.613281 L 522.292969 308.804688 C 522.292969 308.925781 522.335938 309.011719 522.421875 309.0625 C 526.066406 312.511719 527.890625 317.550781 527.890625 324.1875 C 527.890625 330.824219 526.046875 335.886719 522.355469 339.375 C 522.3125 339.414062 522.292969 339.480469 522.292969 339.570312 C 522.292969 339.753906 522.386719 339.847656 522.578125 339.847656 Z M 522.878906 339.847656 "/>
</g>
<path style=" stroke:none;fill-rule:nonzero;fill:rgb(100%,100%,0%);fill-opacity:1;" d="M 36.027344 255.167969 L 41.277344 255.167969 L 41.277344 257.882812 L 36.027344 257.882812 "/>
<path style=" stroke:none;fill-rule:nonzero;fill:rgb(100%,100%,0%);fill-opacity:1;" d="M 46.707031 255.167969 L 51.957031 255.167969 L 51.957031 257.882812 L 46.707031 257.882812 "/>
<path style=" stroke:none;fill-rule:nonzero;fill:rgb(100%,100%,0%);fill-opacity:1;" d="M 57.386719 255.167969 L 62.820312 255.167969 L 62.820312 257.882812 L 57.386719 257.882812 "/>
<path style=" stroke:none;fill-rule:nonzero;fill:rgb(100%,100%,0%);fill-opacity:1;" d="M 68.070312 255.167969 L 73.5 255.167969 L 73.5 257.882812 L 68.070312 257.882812 "/>
<path style=" stroke:none;fill-rule:nonzero;fill:rgb(100%,100%,0%);fill-opacity:1;" d="M 78.75 255.167969 L 84.179688 255.167969 L 84.179688 257.882812 L 78.75 257.882812 "/>
<path style=" stroke:none;fill-rule:nonzero;fill:rgb(100%,100%,0%);fill-opacity:1;" d="M 89.613281 255.167969 L 94.863281 255.167969 L 94.863281 257.882812 L 89.613281 257.882812 "/>
<path style=" stroke:none;fill-rule:nonzero;fill:rgb(100%,100%,0%);fill-opacity:1;" d="M 100.292969 255.167969 L 105.542969 255.167969 L 105.542969 257.882812 L 100.292969 257.882812 "/>
<path style=" stroke:none;fill-rule:nonzero;fill:rgb(100%,100%,0%);fill-opacity:1;" d="M 110.972656 255.167969 L 116.40625 255.167969 L 116.40625 257.882812 L 110.972656 257.882812 "/>
<path style=" stroke:none;fill-rule:nonzero;fill:rgb(100%,100%,0%);fill-opacity:1;" d="M 121.65625 255.167969 L 127.085938 255.167969 L 127.085938 257.882812 L 121.65625 257.882812 "/>
<path style=" stroke:none;fill-rule:nonzero;fill:rgb(100%,100%,0%);fill-opacity:1;" d="M 132.335938 255.167969 L 137.765625 255.167969 L 137.765625 257.882812 L 132.335938 257.882812 "/>
<path style=" stroke:none;fill-rule:nonzero;fill:rgb(100%,100%,0%);fill-opacity:1;" d="M 143.199219 255.167969 L 148.449219 255.167969 L 148.449219 257.882812 L 143.199219 257.882812 "/>
<path style=" stroke:none;fill-rule:nonzero;fill:rgb(100%,100%,0%);fill-opacity:1;" d="M 153.878906 255.167969 L 159.128906 255.167969 L 159.128906 257.882812 L 153.878906 257.882812 "/>
<path style=" stroke:none;fill-rule:nonzero;fill:rgb(100%,100%,0%);fill-opacity:1;" d="M 164.5625 255.167969 L 169.992188 255.167969 L 169.992188 257.882812 L 164.5625 257.882812 "/>
<path style=" stroke:none;fill-rule:nonzero;fill:rgb(100%,100%,0%);fill-opacity:1;" d="M 175.242188 255.167969 L 180.671875 255.167969 L 180.671875 257.882812 L 175.242188 257.882812 "/>
<path style=" stroke:none;fill-rule:nonzero;fill:rgb(100%,100%,0%);fill-opacity:1;" d="M 185.921875 255.167969 L 191.355469 255.167969 L 191.355469 257.882812 L 185.921875 257.882812 "/>
<path style=" stroke:none;fill-rule:nonzero;fill:rgb(100%,100%,0%);fill-opacity:1;" d="M 196.605469 255.167969 L 202.035156 255.167969 L 202.035156 257.882812 L 196.605469 257.882812 "/>
<path style=" stroke:none;fill-rule:nonzero;fill:rgb(100%,100%,0%);fill-opacity:1;" d="M 207.464844 255.167969 L 212.714844 255.167969 L 212.714844 257.882812 L 207.464844 257.882812 "/>
<path style=" stroke:none;fill-rule:nonzero;fill:rgb(100%,100%,0%);fill-opacity:1;" d="M 218.148438 255.167969 L 223.398438 255.167969 L 223.398438 257.882812 L 218.148438 257.882812 "/>
<path style=" stroke:none;fill-rule:nonzero;fill:rgb(100%,100%,0%);fill-opacity:1;" d="M 228.828125 255.167969 L 234.257812 255.167969 L 234.257812 257.882812 L 228.828125 257.882812 "/>
<path style=" stroke:none;fill-rule:nonzero;fill:rgb(100%,100%,0%);fill-opacity:1;" d="M 239.507812 255.167969 L 244.941406 255.167969 L 244.941406 257.882812 L 239.507812 257.882812 "/>
<path style=" stroke:none;fill-rule:nonzero;fill:rgb(100%,100%,0%);fill-opacity:1;" d="M 250.191406 255.167969 L 255.621094 255.167969 L 255.621094 257.882812 L 250.191406 257.882812 "/>
<path style=" stroke:none;fill-rule:nonzero;fill:rgb(100%,100%,0%);fill-opacity:1;" d="M 261.050781 255.167969 L 266.300781 255.167969 L 266.300781 257.882812 L 261.050781 257.882812 "/>
<path style=" stroke:none;fill-rule:nonzero;fill:rgb(100%,100%,0%);fill-opacity:1;" d="M 271.734375 255.167969 L 276.984375 255.167969 L 276.984375 257.882812 L 271.734375 257.882812 "/>
<path style=" stroke:none;fill-rule:nonzero;fill:rgb(100%,100%,0%);fill-opacity:1;" d="M 282.414062 255.167969 L 287.84375 255.167969 L 287.84375 257.882812 L 282.414062 257.882812 "/>
<path style=" stroke:none;fill-rule:nonzero;fill:rgb(100%,100%,0%);fill-opacity:1;" d="M 293.09375 255.167969 L 298.527344 255.167969 L 298.527344 257.882812 L 293.09375 257.882812 "/>
<path style=" stroke:none;fill-rule:nonzero;fill:rgb(100%,100%,0%);fill-opacity:1;" d="M 303.777344 255.167969 L 307.941406 255.167969 L 307.941406 257.882812 L 303.777344 257.882812 "/>
<path style=" stroke:none;fill-rule:nonzero;fill:rgb(100%,100%,0%);fill-opacity:1;" d="M 272.792969 235.972656 C 273.136719 235.601562 273.308594 235.191406 273.308594 234.742188 C 273.308594 234.40625 273.1875 234.132812 272.945312 233.925781 C 272.703125 233.714844 272.402344 233.609375 272.042969 233.609375 C 271.503906 233.609375 271.058594 233.808594 270.707031 234.199219 C 270.351562 234.589844 270.175781 235.054688 270.175781 235.582031 C 270.175781 236.246094 270.460938 236.777344 271.035156 237.179688 C 271.605469 237.582031 272.253906 237.785156 272.980469 237.785156 C 273.925781 237.785156 274.742188 237.375 275.4375 236.5625 C 276.128906 235.746094 276.699219 234.734375 277.144531 233.527344 C 277.59375 232.316406 277.9375 231.140625 278.183594 229.992188 C 278.433594 228.847656 278.648438 227.71875 278.839844 226.605469 L 280.335938 218.960938 L 283.785156 218.960938 L 284 218.847656 C 284.054688 218.769531 284.101562 218.667969 284.132812 218.539062 C 284.164062 218.414062 284.183594 218.324219 284.195312 218.273438 C 284.195312 217.996094 284.089844 217.859375 283.878906 217.859375 L 280.550781 217.859375 L 280.945312 215.792969 C 281.410156 213.449219 281.710938 212.011719 281.847656 211.480469 C 281.929688 211.144531 282.117188 210.828125 282.40625 210.53125 C 282.695312 210.234375 283.003906 210.089844 283.328125 210.089844 C 283.917969 210.089844 284.414062 210.234375 284.8125 210.53125 C 284.335938 210.582031 283.9375 210.777344 283.617188 211.117188 C 283.296875 211.457031 283.132812 211.855469 283.132812 212.3125 C 283.132812 212.648438 283.257812 212.917969 283.507812 213.128906 C 283.753906 213.335938 284.050781 213.441406 284.398438 213.441406 C 284.917969 213.441406 285.359375 213.246094 285.722656 212.855469 C 286.085938 212.464844 286.269531 212.003906 286.269531 211.476562 C 286.269531 211.019531 286.125 210.621094 285.84375 210.285156 C 285.558594 209.949219 285.191406 209.699219 284.746094 209.53125 C 284.300781 209.363281 283.839844 209.28125 283.367188 209.28125 C 282.640625 209.28125 281.96875 209.5 281.34375 209.945312 C 280.71875 210.390625 280.21875 210.953125 279.851562 211.636719 C 279.609375 212.113281 279.429688 212.546875 279.308594 212.933594 C 279.1875 213.324219 279.074219 213.742188 278.96875 214.195312 C 278.867188 214.652344 278.75 215.195312 278.625 215.824219 L 278.246094 217.859375 L 275.371094 217.859375 C 275.183594 217.859375 275.046875 218.089844 274.960938 218.546875 C 274.960938 218.824219 275.066406 218.960938 275.277344 218.960938 L 278.042969 218.960938 L 276.558594 226.636719 C 275.667969 231.082031 275.121094 233.703125 274.921875 234.496094 C 274.4375 236.148438 273.816406 236.976562 273.046875 236.976562 C 272.480469 236.976562 272 236.828125 271.597656 236.53125 C 272.054688 236.53125 272.453125 236.34375 272.792969 235.972656 "/>
<path style=" stroke:none;fill-rule:nonzero;fill:rgb(100%,100%,0%);fill-opacity:1;" d="M 285.886719 233.558594 C 286.40625 234.292969 287.105469 234.871094 287.976562 235.289062 C 288.84375 235.710938 289.746094 235.921875 290.679688 235.921875 C 291.378906 235.921875 292.0625 235.800781 292.730469 235.5625 C 293.402344 235.324219 294.003906 234.988281 294.53125 234.558594 C 295.0625 234.125 295.480469 233.613281 295.789062 233.023438 C 296.097656 232.429688 296.25 231.777344 296.25 231.066406 C 296.25 230.125 295.996094 229.257812 295.488281 228.472656 C 294.980469 227.683594 294.292969 227.066406 293.425781 226.617188 C 292.558594 226.167969 291.644531 225.941406 290.679688 225.941406 C 289.960938 225.941406 289.257812 226.074219 288.570312 226.332031 C 287.878906 226.59375 287.277344 226.957031 286.757812 227.421875 C 286.238281 227.890625 285.832031 228.4375 285.539062 229.058594 C 285.25 229.683594 285.101562 230.351562 285.101562 231.066406 C 285.101562 231.992188 285.363281 232.824219 285.886719 233.558594 M 288 233.949219 C 287.511719 233.164062 287.265625 232.113281 287.265625 230.796875 C 287.265625 228.03125 288.40625 226.648438 290.679688 226.648438 C 291.9375 226.648438 292.820312 227.019531 293.324219 227.769531 C 293.832031 228.515625 294.085938 229.523438 294.085938 230.796875 C 294.085938 232.113281 293.84375 233.164062 293.359375 233.949219 C 292.875 234.734375 291.980469 235.128906 290.679688 235.128906 C 289.378906 235.128906 288.484375 234.734375 288 233.949219 "/>
<path style=" stroke:none;fill-rule:nonzero;fill:rgb(100%,100%,0%);fill-opacity:1;" d="M 303.441406 239.953125 L 303.441406 239.074219 C 302.953125 239.074219 302.546875 239.039062 302.222656 238.960938 C 301.902344 238.886719 301.742188 238.707031 301.742188 238.421875 L 301.742188 234.710938 C 302.148438 235.09375 302.621094 235.390625 303.15625 235.601562 C 303.691406 235.816406 304.25 235.921875 304.828125 235.921875 C 305.789062 235.921875 306.699219 235.710938 307.546875 235.285156 C 308.398438 234.859375 309.085938 234.269531 309.601562 233.507812 C 310.121094 232.75 310.378906 231.90625 310.378906 230.980469 C 310.378906 230.101562 310.148438 229.285156 309.6875 228.523438 C 309.222656 227.765625 308.597656 227.164062 307.808594 226.71875 C 307.019531 226.273438 306.164062 226.050781 305.238281 226.050781 C 304.574219 226.050781 303.929688 226.15625 303.308594 226.371094 C 302.683594 226.582031 302.132812 226.902344 301.652344 227.320312 L 301.652344 226.050781 L 298.144531 226.285156 L 298.144531 227.160156 C 298.691406 227.160156 299.113281 227.203125 299.410156 227.289062 C 299.707031 227.375 299.851562 227.597656 299.851562 227.953125 L 299.851562 238.425781 C 299.851562 238.714844 299.691406 238.898438 299.371094 238.96875 C 299.046875 239.039062 298.640625 239.078125 298.144531 239.078125 L 298.144531 239.953125 Z M 301.742188 228.410156 C 302.082031 227.90625 302.542969 227.515625 303.121094 227.246094 C 303.703125 226.976562 304.308594 226.839844 304.945312 226.839844 C 305.449219 226.839844 305.910156 226.964844 306.332031 227.214844 C 306.75 227.464844 307.101562 227.792969 307.378906 228.207031 C 307.65625 228.621094 307.863281 229.066406 308.003906 229.542969 C 308.144531 230.019531 308.214844 230.496094 308.214844 230.972656 C 308.214844 231.636719 308.070312 232.300781 307.78125 232.960938 C 307.496094 233.625 307.078125 234.164062 306.53125 234.585938 C 305.984375 235.003906 305.355469 235.214844 304.644531 235.214844 C 304.046875 235.214844 303.484375 235.050781 302.960938 234.722656 C 302.4375 234.394531 302.03125 233.96875 301.742188 233.441406 Z M 301.742188 228.410156 "/>
<path style=" stroke:none;fill-rule:nonzero;fill:rgb(100%,100%,0%);fill-opacity:1;" d="M 315.003906 235.175781 C 315.601562 235.671875 316.371094 235.921875 317.320312 235.921875 C 317.816406 235.921875 318.265625 235.785156 318.664062 235.507812 C 319.0625 235.234375 319.371094 234.875 319.585938 234.4375 C 319.800781 234 319.90625 233.542969 319.90625 233.070312 L 319.90625 231.734375 L 319.042969 231.734375 L 319.042969 233.027344 C 319.042969 233.351562 318.988281 233.675781 318.878906 233.996094 C 318.773438 234.316406 318.605469 234.585938 318.375 234.804688 C 318.148438 235.019531 317.859375 235.128906 317.519531 235.128906 C 316.957031 235.128906 316.5625 234.921875 316.335938 234.507812 C 316.113281 234.097656 316 233.601562 316 233.027344 L 316 227.140625 L 319.496094 227.140625 L 319.496094 226.261719 L 316 226.261719 L 316 222.230469 L 315.132812 222.230469 C 315.132812 222.871094 315.023438 223.515625 314.804688 224.160156 C 314.585938 224.808594 314.242188 225.347656 313.773438 225.785156 C 313.300781 226.226562 312.722656 226.445312 312.035156 226.445312 L 312.035156 227.140625 L 314.113281 227.140625 L 314.113281 233.074219 C 314.113281 233.980469 314.410156 234.683594 315.003906 235.175781 "/>
<path style=" stroke:none;fill-rule:nonzero;fill:rgb(0%,100%,100%);fill-opacity:1;" d="M 41.378906 245.058594 L 43.914062 245.601562 L 43.34375 248.257812 L 40.808594 247.714844 "/>
<path style=" stroke:none;fill-rule:nonzero;fill:rgb(0%,100%,100%);fill-opacity:1;" d="M 50.339844 247.253906 L 52.871094 247.980469 L 52.128906 250.589844 L 49.59375 249.867188 "/>
<path style=" stroke:none;fill-rule:nonzero;fill:rgb(0%,100%,100%);fill-opacity:1;" d="M 59.175781 249.417969 L 71.847656 252.675781 L 71.171875 255.308594 L 58.5 252.046875 "/>
<path style=" stroke:none;fill-rule:nonzero;fill:rgb(0%,100%,100%);fill-opacity:1;" d="M 78.003906 254.304688 L 90.675781 257.566406 L 89.996094 260.195312 L 77.324219 256.9375 "/>
<path style=" stroke:none;fill-rule:nonzero;fill:rgb(0%,100%,100%);fill-opacity:1;" d="M 97.011719 259.011719 L 109.683594 262.273438 L 109.007812 264.902344 L 96.335938 261.644531 "/>
<path style=" stroke:none;fill-rule:nonzero;fill:rgb(0%,100%,100%);fill-opacity:1;" d="M 116.054688 263.910156 L 118.589844 264.632812 L 117.84375 267.246094 L 115.308594 266.519531 "/>
<path style=" stroke:none;fill-rule:nonzero;fill:rgb(0%,100%,100%);fill-opacity:1;" d="M 124.835938 266.242188 L 127.371094 266.785156 L 126.800781 269.441406 L 124.265625 268.898438 "/>
<path style=" stroke:none;fill-rule:nonzero;fill:rgb(0%,100%,100%);fill-opacity:1;" d="M 133.765625 268.429688 L 146.257812 271.6875 L 145.570312 274.3125 L 133.078125 271.054688 "/>
<path style=" stroke:none;fill-rule:nonzero;fill:rgb(0%,100%,100%);fill-opacity:1;" d="M 152.773438 273.132812 L 165.265625 276.394531 L 164.578125 279.019531 L 152.089844 275.761719 "/>
<path style=" stroke:none;fill-rule:nonzero;fill:rgb(0%,100%,100%);fill-opacity:1;" d="M 171.597656 278.023438 L 184.269531 281.28125 L 183.59375 283.910156 L 170.921875 280.652344 "/>
<path style=" stroke:none;fill-rule:nonzero;fill:rgb(0%,100%,100%);fill-opacity:1;" d="M 190.640625 282.738281 L 193.175781 283.460938 L 192.429688 286.074219 L 189.894531 285.347656 "/>
<path style=" stroke:none;fill-rule:nonzero;fill:rgb(0%,100%,100%);fill-opacity:1;" d="M 199.421875 285.070312 L 201.957031 285.613281 L 201.390625 288.265625 L 198.855469 287.722656 "/>
<path style=" stroke:none;fill-rule:nonzero;fill:rgb(0%,100%,100%);fill-opacity:1;" d="M 208.347656 287.253906 L 221.019531 290.511719 L 220.34375 293.144531 L 207.671875 289.882812 "/>
<path style=" stroke:none;fill-rule:nonzero;fill:rgb(0%,100%,100%);fill-opacity:1;" d="M 227.15625 292.136719 L 239.828125 295.214844 L 239.1875 297.855469 L 226.515625 294.777344 "/>
<path style=" stroke:none;fill-rule:nonzero;fill:rgb(0%,100%,100%);fill-opacity:1;" d="M 246.183594 296.847656 L 258.855469 300.109375 L 258.179688 302.738281 L 245.507812 299.480469 "/>
<path style=" stroke:none;fill-rule:nonzero;fill:rgb(0%,100%,100%);fill-opacity:1;" d="M 265.136719 301.722656 L 267.671875 302.265625 L 267.105469 304.921875 L 264.570312 304.378906 "/>
<path style=" stroke:none;fill-rule:nonzero;fill:rgb(0%,100%,100%);fill-opacity:1;" d="M 274.097656 303.917969 L 276.632812 304.644531 L 275.886719 307.253906 L 273.351562 306.53125 "/>
<path style=" stroke:none;fill-rule:nonzero;fill:rgb(0%,100%,100%);fill-opacity:1;" d="M 282.9375 306.082031 L 295.429688 309.34375 L 294.742188 311.96875 L 282.253906 308.710938 "/>
<path style=" stroke:none;fill-rule:nonzero;fill:rgb(0%,100%,100%);fill-opacity:1;" d="M 301.761719 310.96875 L 314.433594 314.230469 L 313.757812 316.859375 L 301.085938 313.601562 "/>
<path style=" stroke:none;fill-rule:nonzero;fill:rgb(0%,100%,100%);fill-opacity:1;" d="M 320.769531 315.675781 L 333.441406 318.9375 L 332.765625 321.566406 L 320.09375 318.308594 "/>
<path style=" stroke:none;fill-rule:nonzero;fill:rgb(0%,100%,100%);fill-opacity:1;" d="M 339.726562 320.550781 L 342.257812 321.09375 L 341.691406 323.75 L 339.15625 323.207031 "/>
<path style=" stroke:none;fill-rule:nonzero;fill:rgb(0%,100%,100%);fill-opacity:1;" d="M 348.683594 322.746094 L 351.21875 323.46875 L 350.472656 326.082031 L 347.9375 325.359375 "/>
<path style=" stroke:none;fill-rule:nonzero;fill:rgb(0%,100%,100%);fill-opacity:1;" d="M 357.507812 325.085938 L 369.996094 328.164062 L 369.347656 330.800781 L 356.855469 327.722656 "/>
<path style=" stroke:none;fill-rule:nonzero;fill:rgb(0%,100%,100%);fill-opacity:1;" d="M 376.347656 329.796875 L 389.019531 333.054688 L 388.34375 335.6875 L 375.671875 332.425781 "/>
<path style=" stroke:none;fill-rule:nonzero;fill:rgb(0%,100%,100%);fill-opacity:1;" d="M 395.339844 334.679688 L 408.011719 337.757812 L 407.371094 340.398438 L 394.699219 337.320312 "/>
<path style=" stroke:none;fill-rule:nonzero;fill:rgb(0%,100%,100%);fill-opacity:1;" d="M 414.398438 339.402344 L 416.933594 340.125 L 416.1875 342.738281 L 413.652344 342.011719 "/>
<path style=" stroke:none;fill-rule:nonzero;fill:rgb(0%,100%,100%);fill-opacity:1;" d="M 422.984375 341.730469 L 425.699219 342.273438 L 425.164062 344.933594 L 422.449219 344.390625 "/>
<path style=" stroke:none;fill-rule:nonzero;fill:rgb(0%,100%,100%);fill-opacity:1;" d="M 431.925781 343.917969 L 444.597656 347.175781 L 443.921875 349.808594 L 431.25 346.546875 "/>
<path style=" stroke:none;fill-rule:nonzero;fill:rgb(0%,100%,100%);fill-opacity:1;" d="M 42.222656 189.152344 L 43.671875 191.324219 L 41.414062 192.832031 L 39.964844 190.65625 "/>
<path style=" stroke:none;fill-rule:nonzero;fill:rgb(0%,100%,100%);fill-opacity:1;" d="M 46.929688 196.9375 L 48.378906 199.109375 L 46.121094 200.617188 L 44.671875 198.441406 "/>
<path style=" stroke:none;fill-rule:nonzero;fill:rgb(0%,100%,100%);fill-opacity:1;" d="M 51.84375 204.757812 L 58.722656 215.800781 L 56.417969 217.234375 L 49.535156 206.191406 "/>
<path style=" stroke:none;fill-rule:nonzero;fill:rgb(0%,100%,100%);fill-opacity:1;" d="M 61.980469 221.410156 L 68.859375 232.453125 L 66.554688 233.890625 L 59.675781 222.847656 "/>
<path style=" stroke:none;fill-rule:nonzero;fill:rgb(0%,100%,100%);fill-opacity:1;" d="M 72.300781 238.066406 L 79.179688 249.109375 L 76.871094 250.546875 L 69.992188 239.503906 "/>
<path style=" stroke:none;fill-rule:nonzero;fill:rgb(0%,100%,100%);fill-opacity:1;" d="M 82.636719 254.753906 L 83.90625 256.929688 L 81.558594 258.296875 L 80.292969 256.125 "/>
<path style=" stroke:none;fill-rule:nonzero;fill:rgb(0%,100%,100%);fill-opacity:1;" d="M 87.300781 262.472656 L 88.75 264.644531 L 86.492188 266.148438 L 85.042969 263.976562 "/>
<path style=" stroke:none;fill-rule:nonzero;fill:rgb(0%,100%,100%);fill-opacity:1;" d="M 92.222656 270.304688 L 98.917969 281.347656 L 96.597656 282.753906 L 89.898438 271.710938 "/>
<path style=" stroke:none;fill-rule:nonzero;fill:rgb(0%,100%,100%);fill-opacity:1;" d="M 102.351562 286.945312 L 109.230469 297.988281 L 106.925781 299.425781 L 100.046875 288.382812 "/>
<path style=" stroke:none;fill-rule:nonzero;fill:rgb(0%,100%,100%);fill-opacity:1;" d="M 112.667969 303.601562 L 119.546875 314.644531 L 117.242188 316.082031 L 110.363281 305.039062 "/>
<path style=" stroke:none;fill-rule:nonzero;fill:rgb(0%,100%,100%);fill-opacity:1;" d="M 122.785156 320.222656 L 124.234375 322.394531 L 121.972656 323.902344 L 120.527344 321.726562 "/>
<path style=" stroke:none;fill-rule:nonzero;fill:rgb(0%,100%,100%);fill-opacity:1;" d="M 127.714844 328.074219 L 128.984375 330.246094 L 126.636719 331.617188 L 125.371094 329.441406 "/>
<path style=" stroke:none;fill-rule:nonzero;fill:rgb(0%,100%,100%);fill-opacity:1;" d="M 132.402344 335.824219 L 139.28125 346.867188 L 136.976562 348.304688 L 130.097656 337.261719 "/>
<path style=" stroke:none;fill-rule:nonzero;fill:rgb(0%,100%,100%);fill-opacity:1;" d="M 142.722656 352.480469 L 149.601562 363.523438 L 147.296875 364.960938 L 140.417969 353.917969 "/>
<path style=" stroke:none;fill-rule:nonzero;fill:rgb(0%,100%,100%);fill-opacity:1;" d="M 152.859375 369.136719 L 159.738281 380.179688 L 157.433594 381.613281 L 150.554688 370.570312 "/>
<path style=" stroke:none;fill-rule:nonzero;fill:rgb(0%,100%,100%);fill-opacity:1;" d="M 163.15625 385.757812 L 164.605469 387.929688 L 162.34375 389.433594 L 160.894531 387.261719 "/>
<path style=" stroke:none;fill-rule:nonzero;fill:rgb(0%,100%,100%);fill-opacity:1;" d="M 160.179688 103.507812 L 158.550781 105.496094 L 156.449219 103.777344 L 158.078125 101.785156 "/>
<path style=" stroke:none;fill-rule:nonzero;fill:rgb(0%,100%,100%);fill-opacity:1;" d="M 154.421875 110.523438 L 152.792969 112.695312 L 150.621094 111.066406 L 152.25 108.890625 "/>
<path style=" stroke:none;fill-rule:nonzero;fill:rgb(0%,100%,100%);fill-opacity:1;" d="M 148.773438 117.808594 L 140.445312 127.949219 L 138.347656 126.222656 L 146.675781 116.085938 "/>
<path style=" stroke:none;fill-rule:nonzero;fill:rgb(0%,100%,100%);fill-opacity:1;" d="M 136.472656 133.003906 L 128.324219 143.144531 L 126.210938 141.441406 L 134.355469 131.304688 "/>
<path style=" stroke:none;fill-rule:nonzero;fill:rgb(0%,100%,100%);fill-opacity:1;" d="M 124.160156 148.210938 L 116.015625 158.351562 L 113.898438 156.648438 L 122.042969 146.511719 "/>
<path style=" stroke:none;fill-rule:nonzero;fill:rgb(0%,100%,100%);fill-opacity:1;" d="M 111.84375 163.429688 L 110.214844 165.417969 L 108.113281 163.699219 L 109.742188 161.707031 "/>
<path style=" stroke:none;fill-rule:nonzero;fill:rgb(0%,100%,100%);fill-opacity:1;" d="M 106.1875 170.542969 L 104.375 172.535156 L 102.367188 170.707031 L 104.175781 168.714844 "/>
<path style=" stroke:none;fill-rule:nonzero;fill:rgb(0%,100%,100%);fill-opacity:1;" d="M 100.453125 177.53125 L 92.308594 187.851562 L 90.175781 186.167969 L 98.324219 175.847656 "/>
<path style=" stroke:none;fill-rule:nonzero;fill:rgb(0%,100%,100%);fill-opacity:1;" d="M 88.128906 192.9375 L 79.980469 202.894531 L 77.878906 201.175781 L 86.027344 191.21875 "/>
<path style=" stroke:none;fill-rule:nonzero;fill:rgb(0%,100%,100%);fill-opacity:1;" d="M 75.824219 208.136719 L 67.679688 218.273438 L 65.5625 216.570312 L 73.707031 206.433594 "/>
<path style=" stroke:none;fill-rule:nonzero;fill:rgb(0%,100%,100%);fill-opacity:1;" d="M 63.644531 223.40625 L 61.832031 225.394531 L 59.824219 223.570312 L 61.632812 221.578125 "/>
<path style=" stroke:none;fill-rule:nonzero;fill:rgb(0%,100%,100%);fill-opacity:1;" d="M 57.894531 230.410156 L 56.265625 232.402344 L 54.164062 230.683594 L 55.792969 228.691406 "/>
<path style=" stroke:none;fill-rule:nonzero;fill:rgb(0%,100%,100%);fill-opacity:1;" d="M 52.109375 237.460938 L 43.964844 247.601562 L 41.847656 245.898438 L 49.992188 235.761719 "/>
<path style=" stroke:none;fill-rule:nonzero;fill:rgb(0%,100%,100%);fill-opacity:1;" d="M 39.800781 252.667969 L 31.835938 262.625 L 29.714844 260.929688 L 37.679688 250.972656 "/>
<path style=" stroke:none;fill-rule:nonzero;fill:rgb(0%,100%,100%);fill-opacity:1;" d="M 270.292969 344.070312 C 271.203125 344.300781 272.269531 344.414062 273.496094 344.414062 C 274.167969 344.414062 274.867188 344.3125 275.59375 344.109375 C 276.316406 343.90625 276.984375 343.621094 277.59375 343.261719 C 278.199219 342.898438 278.730469 342.445312 279.183594 341.90625 C 279.632812 341.367188 279.941406 340.769531 280.109375 340.117188 L 283.796875 325.894531 L 283.820312 325.789062 L 283.828125 325.652344 C 283.828125 325.386719 283.734375 325.175781 283.542969 325.015625 C 283.355469 324.859375 283.125 324.78125 282.851562 324.78125 C 282.136719 324.78125 281.675781 325.1875 281.464844 326.003906 C 281.171875 325.441406 280.773438 324.992188 280.269531 324.65625 C 279.765625 324.320312 279.199219 324.152344 278.566406 324.152344 C 277.519531 324.152344 276.519531 324.421875 275.578125 324.957031 C 274.632812 325.492188 273.792969 326.207031 273.0625 327.101562 C 272.335938 328 271.769531 328.972656 271.363281 330.023438 C 270.960938 331.074219 270.757812 332.078125 270.757812 333.039062 C 270.757812 333.894531 270.929688 334.703125 271.277344 335.46875 C 271.625 336.234375 272.125 336.84375 272.78125 337.304688 C 273.4375 337.761719 274.226562 337.992188 275.152344 337.992188 C 276.410156 337.992188 277.625 337.417969 278.789062 336.261719 L 277.859375 339.933594 C 277.605469 340.902344 277.074219 341.757812 276.253906 342.496094 C 275.433594 343.234375 274.53125 343.605469 273.546875 343.605469 C 272.316406 343.605469 271.414062 343.515625 270.835938 343.34375 C 271.183594 343.222656 271.464844 343.011719 271.6875 342.710938 C 271.90625 342.410156 272.015625 342.070312 272.015625 341.691406 C 272.015625 341.355469 271.898438 341.082031 271.664062 340.875 C 271.425781 340.664062 271.136719 340.558594 270.789062 340.558594 C 270.273438 340.558594 269.835938 340.753906 269.472656 341.132812 C 269.113281 341.515625 268.929688 341.960938 268.929688 342.472656 C 268.929688 343.308594 269.386719 343.839844 270.292969 344.070312 M 273.6875 336.339844 C 273.351562 335.78125 273.183594 335.140625 273.183594 334.429688 C 273.183594 333.613281 273.371094 332.5 273.742188 331.085938 C 274.113281 329.675781 274.5 328.59375 274.898438 327.835938 C 275.320312 327.054688 275.847656 326.378906 276.480469 325.8125 C 277.117188 325.246094 277.792969 324.964844 278.503906 324.964844 C 279.175781 324.964844 279.734375 325.21875 280.175781 325.734375 C 280.617188 326.25 280.910156 326.871094 281.054688 327.59375 L 279.277344 334.429688 C 277.941406 336.261719 276.589844 337.179688 275.214844 337.179688 C 274.53125 337.179688 274.023438 336.902344 273.6875 336.339844 "/>
<path style=" stroke:none;fill-rule:nonzero;fill:rgb(0%,100%,100%);fill-opacity:1;" d="M 285.523438 340.1875 C 286.046875 340.921875 286.742188 341.5 287.613281 341.917969 C 288.484375 342.339844 289.386719 342.550781 290.320312 342.550781 C 291.015625 342.550781 291.699219 342.429688 292.371094 342.191406 C 293.039062 341.953125 293.640625 341.617188 294.171875 341.1875 C 294.699219 340.757812 295.121094 340.242188 295.425781 339.652344 C 295.734375 339.058594 295.886719 338.40625 295.886719 337.695312 C 295.886719 336.753906 295.632812 335.890625 295.125 335.101562 C 294.621094 334.3125 293.929688 333.695312 293.0625 333.246094 C 292.195312 332.796875 291.28125 332.570312 290.320312 332.570312 C 289.601562 332.570312 288.894531 332.703125 288.207031 332.960938 C 287.519531 333.222656 286.914062 333.585938 286.394531 334.054688 C 285.878906 334.519531 285.472656 335.066406 285.179688 335.691406 C 284.886719 336.3125 284.738281 336.980469 284.738281 337.695312 C 284.738281 338.621094 285 339.453125 285.523438 340.1875 M 287.636719 340.578125 C 287.148438 339.792969 286.90625 338.742188 286.90625 337.429688 C 286.90625 334.660156 288.042969 333.277344 290.320312 333.277344 C 291.574219 333.277344 292.457031 333.652344 292.964844 334.398438 C 293.46875 335.144531 293.722656 336.15625 293.722656 337.429688 C 293.722656 338.742188 293.480469 339.792969 292.996094 340.578125 C 292.511719 341.367188 291.621094 341.757812 290.320312 341.757812 C 289.019531 341.757812 288.125 341.367188 287.636719 340.578125 "/>
<path style=" stroke:none;fill-rule:nonzero;fill:rgb(0%,100%,100%);fill-opacity:1;" d="M 302.898438 346.582031 L 302.898438 345.703125 C 302.410156 345.703125 302.003906 345.667969 301.683594 345.59375 C 301.359375 345.515625 301.199219 345.335938 301.199219 345.050781 L 301.199219 341.34375 C 301.605469 341.722656 302.078125 342.019531 302.613281 342.230469 C 303.152344 342.445312 303.707031 342.550781 304.285156 342.550781 C 305.246094 342.550781 306.15625 342.339844 307.003906 341.914062 C 307.859375 341.488281 308.542969 340.898438 309.0625 340.140625 C 309.578125 339.378906 309.835938 338.535156 309.835938 337.609375 C 309.835938 336.730469 309.605469 335.914062 309.144531 335.15625 C 308.679688 334.394531 308.054688 333.792969 307.265625 333.347656 C 306.480469 332.902344 305.621094 332.679688 304.695312 332.679688 C 304.03125 332.679688 303.386719 332.785156 302.765625 333 C 302.144531 333.214844 301.589844 333.53125 301.109375 333.949219 L 301.109375 332.679688 L 297.601562 332.914062 L 297.601562 333.789062 C 298.148438 333.789062 298.570312 333.832031 298.867188 333.917969 C 299.164062 334.003906 299.3125 334.226562 299.3125 334.582031 L 299.3125 345.054688 C 299.3125 345.347656 299.148438 345.527344 298.828125 345.597656 C 298.503906 345.667969 298.097656 345.707031 297.601562 345.707031 L 297.601562 346.582031 Z M 301.199219 335.039062 C 301.539062 334.535156 302 334.148438 302.578125 333.875 C 303.160156 333.605469 303.765625 333.46875 304.402344 333.46875 C 304.90625 333.46875 305.367188 333.59375 305.789062 333.84375 C 306.207031 334.09375 306.558594 334.425781 306.835938 334.839844 C 307.113281 335.25 307.320312 335.695312 307.460938 336.171875 C 307.601562 336.648438 307.671875 337.125 307.671875 337.605469 C 307.671875 338.265625 307.527344 338.929688 307.238281 339.589844 C 306.953125 340.253906 306.535156 340.792969 305.988281 341.214844 C 305.441406 341.636719 304.8125 341.84375 304.101562 341.84375 C 303.503906 341.84375 302.941406 341.679688 302.417969 341.355469 C 301.894531 341.027344 301.488281 340.597656 301.199219 340.070312 Z M 301.199219 335.039062 "/>
<path style=" stroke:none;fill-rule:nonzero;fill:rgb(0%,100%,100%);fill-opacity:1;" d="M 314.644531 341.808594 C 315.238281 342.304688 316.011719 342.550781 316.957031 342.550781 C 317.453125 342.550781 317.902344 342.414062 318.300781 342.136719 C 318.703125 341.863281 319.007812 341.507812 319.222656 341.066406 C 319.4375 340.628906 319.546875 340.171875 319.546875 339.703125 L 319.546875 338.363281 L 318.679688 338.363281 L 318.679688 339.65625 C 318.679688 339.980469 318.625 340.304688 318.519531 340.628906 C 318.410156 340.949219 318.242188 341.214844 318.011719 341.433594 C 317.785156 341.648438 317.5 341.757812 317.160156 341.757812 C 316.59375 341.757812 316.203125 341.550781 315.976562 341.140625 C 315.75 340.726562 315.636719 340.230469 315.636719 339.65625 L 315.636719 333.769531 L 319.132812 333.769531 L 319.132812 332.890625 L 315.636719 332.890625 L 315.636719 328.859375 L 314.769531 328.859375 C 314.769531 329.503906 314.660156 330.144531 314.445312 330.792969 C 314.226562 331.4375 313.878906 331.976562 313.410156 332.417969 C 312.941406 332.855469 312.363281 333.074219 311.671875 333.074219 L 311.671875 333.769531 L 313.75 333.769531 L 313.75 339.707031 C 313.75 340.609375 314.046875 341.3125 314.644531 341.808594 "/>
</g>
</svg>
