<?xml version="1.0" encoding="UTF-8"?>
<svg xmlns="http://www.w3.org/2000/svg" xmlns:xlink="http://www.w3.org/1999/xlink" width="396.183pt" height="471.6045pt" viewBox="0 0 396.183 471.6045" version="1.1">
<defs>
<clipPath id="clip1">
  <path d="M 139 177 L 396.183594 177 L 396.183594 267 L 139 267 Z M 139 177 "/>
</clipPath>
<clipPath id="clip2">
  <path d="M 0 442 L 25 442 L 25 471.605469 L 0 471.605469 Z M 0 442 "/>
</clipPath>
</defs>
<g id="surface1">
<path style=" stroke:none;fill-rule:nonzero;fill:rgb(100%,100%,20%);fill-opacity:0.5;" d="M 87.085938 0.261719 L 139.695312 265.648438 L 395.75 178.382812 Z M 87.085938 0.261719 "/>
<path style=" stroke:none;fill-rule:nonzero;fill:rgb(100%,100%,0%);fill-opacity:1;" d="M 138.375 265.910156 L 85.945312 0.523438 L 88.585938 0 L 141.019531 265.390625 "/>
<g clip-path="url(#clip1)" clip-rule="nonzero">
<path style=" stroke:none;fill-rule:nonzero;fill:rgb(100%,100%,0%);fill-opacity:1;" d="M 396.183594 179.660156 L 140.132812 266.925781 L 139.261719 264.375 L 395.3125 177.109375 "/>
</g>
<path style=" stroke:none;fill-rule:nonzero;fill:rgb(100%,100%,0%);fill-opacity:1;" d="M 136.5 265.429688 L 211.554688 315.886719 L 210.050781 318.121094 L 134.996094 267.664062 "/>
<path style=" stroke:none;fill-rule:evenodd;fill:rgb(100%,100%,0%);fill-opacity:1;" d="M 233.605469 332.445312 L 215.113281 308.203125 L 204.339844 324.1875 Z M 233.605469 332.445312 "/>
<path style=" stroke:none;fill-rule:nonzero;fill:rgb(100%,100%,100%);fill-opacity:1;" d="M 264.890625 80.738281 L 16.558594 449.554688 L 14.324219 448.046875 L 262.65625 79.234375 "/>
<g clip-path="url(#clip2)" clip-rule="nonzero">
<path style=" stroke:none;fill-rule:evenodd;fill:rgb(100%,100%,100%);fill-opacity:1;" d="M 0 471.605469 L 24.0625 453.109375 L 8.078125 442.335938 Z M 0 471.605469 "/>
</g>
<path style=" stroke:none;fill-rule:evenodd;fill:rgb(0%,0%,0%);fill-opacity:1;" d="M 140.414062 258.828125 C 144.367188 260.441406 146.160156 264.75 144.546875 268.882812 C 142.929688 272.832031 138.441406 274.628906 134.492188 272.832031 C 130.539062 271.214844 128.746094 266.90625 130.539062 262.957031 C 132.15625 259.007812 136.464844 257.210938 140.414062 258.828125 "/>
<path style=" stroke:none;fill-rule:nonzero;fill:rgb(100%,100%,100%);fill-opacity:1;" d="M 140.414062 258.828125 L 140.925781 257.582031 C 144.394531 258.988281 146.496094 262.257812 146.484375 265.816406 C 146.484375 266.992188 146.261719 268.195312 145.800781 269.371094 L 145.792969 269.390625 C 144.398438 272.808594 141.140625 274.882812 137.667969 274.875 C 136.421875 274.875 135.148438 274.613281 133.933594 274.058594 L 134.492188 272.832031 L 133.980469 274.078125 C 130.589844 272.699219 128.488281 269.539062 128.496094 266.105469 C 128.496094 264.871094 128.761719 263.613281 129.3125 262.398438 L 130.539062 262.957031 L 129.292969 262.445312 C 130.703125 258.980469 133.960938 256.878906 137.453125 256.886719 C 138.605469 256.886719 139.785156 257.113281 140.925781 257.582031 L 140.414062 258.828125 L 139.90625 260.074219 C 139.085938 259.738281 138.257812 259.582031 137.453125 259.582031 C 135.023438 259.589844 132.804688 260.992188 131.785156 263.464844 L 131.765625 263.515625 C 131.371094 264.386719 131.1875 265.261719 131.1875 266.105469 C 131.195312 268.449219 132.574219 270.585938 135 271.585938 L 135.046875 271.605469 C 135.917969 272 136.804688 272.183594 137.667969 272.183594 C 140.078125 272.179688 142.3125 270.769531 143.296875 268.371094 L 144.546875 268.882812 L 143.292969 268.390625 C 143.632812 267.519531 143.789062 266.648438 143.789062 265.816406 C 143.777344 263.296875 142.378906 261.09375 139.90625 260.074219 Z M 140.414062 258.828125 "/>
<path style=" stroke:none;fill-rule:nonzero;fill:rgb(100%,100%,100%);fill-opacity:1;" d="M 90.257812 258.46875 L 90.257812 256.890625 C 90.0625 256.890625 89.808594 256.863281 89.5 256.816406 C 89.191406 256.761719 89.039062 256.703125 89.039062 256.632812 L 92.246094 253.097656 L 95.550781 256.890625 L 94.359375 256.890625 L 94.359375 258.46875 L 101.921875 258.46875 L 101.921875 256.890625 L 99.527344 256.890625 L 94.328125 250.824219 L 98.242188 246.546875 C 98.429688 246.355469 99.433594 246.257812 101.25 246.257812 L 101.25 244.679688 L 94.847656 244.679688 L 94.847656 246.257812 C 95.035156 246.257812 95.28125 246.277344 95.589844 246.316406 C 95.898438 246.359375 96.050781 246.425781 96.050781 246.515625 L 93.265625 249.578125 L 90.382812 246.257812 L 91.542969 246.257812 L 91.542969 244.679688 L 83.996094 244.679688 L 83.996094 246.257812 L 86.375 246.257812 L 91.183594 251.855469 L 86.863281 256.601562 C 86.664062 256.792969 85.65625 256.890625 83.839844 256.890625 L 83.839844 258.46875 Z M 90.257812 258.46875 "/>
<path style=" stroke:none;fill-rule:nonzero;fill:rgb(100%,100%,100%);fill-opacity:1;" d="M 111.972656 262.140625 C 112.753906 261.425781 113.285156 260.527344 113.578125 259.441406 C 113.867188 258.355469 114.011719 257.164062 114.011719 255.871094 C 114.011719 253.75 113.632812 251.964844 112.878906 250.519531 C 112.121094 249.074219 110.75 248.347656 108.757812 248.347656 C 106.777344 248.347656 105.402344 249.074219 104.640625 250.519531 C 103.875 251.964844 103.496094 253.75 103.496094 255.871094 C 103.496094 257.164062 103.636719 258.355469 103.929688 259.441406 C 104.21875 260.527344 104.753906 261.425781 105.539062 262.140625 C 106.320312 262.855469 107.394531 263.210938 108.757812 263.210938 C 110.125 263.210938 111.195312 262.855469 111.972656 262.140625 M 107.019531 261.796875 C 106.578125 261.320312 106.261719 260.71875 106.070312 259.996094 C 105.878906 259.277344 105.761719 258.5625 105.714844 257.855469 C 105.664062 257.148438 105.640625 256.363281 105.640625 255.5 C 105.640625 254.65625 105.664062 253.910156 105.714844 253.253906 C 105.761719 252.601562 105.878906 251.949219 106.066406 251.304688 C 106.253906 250.65625 106.566406 250.121094 107 249.691406 C 107.4375 249.261719 108.023438 249.050781 108.757812 249.050781 C 109.707031 249.050781 110.40625 249.394531 110.863281 250.089844 C 111.316406 250.78125 111.597656 251.570312 111.703125 252.453125 C 111.8125 253.339844 111.863281 254.351562 111.863281 255.5 C 111.863281 256.695312 111.8125 257.773438 111.703125 258.742188 C 111.597656 259.707031 111.316406 260.574219 110.855469 261.351562 C 110.398438 262.125 109.699219 262.511719 108.757812 262.511719 C 108.039062 262.511719 107.457031 262.273438 107.019531 261.796875 "/>
<path style=" stroke:none;fill-rule:nonzero;fill:rgb(100%,100%,0%);fill-opacity:1;" d="M 238.757812 302.097656 C 239.453125 302.65625 240.234375 302.933594 241.109375 302.933594 C 242.265625 302.933594 243.320312 302.5625 244.273438 301.824219 C 245.226562 301.085938 245.953125 300.183594 246.453125 299.109375 L 253.324219 284.761719 C 253.476562 284.589844 254.226562 284.503906 255.5625 284.503906 L 255.5625 282.925781 L 250.007812 282.925781 L 250.007812 284.503906 C 250.328125 284.503906 250.667969 284.519531 251.019531 284.554688 C 251.371094 284.59375 251.546875 284.660156 251.546875 284.761719 L 247.800781 292.589844 L 243.917969 284.503906 L 245.597656 284.503906 L 245.597656 282.925781 L 237.84375 282.925781 L 237.84375 284.503906 L 239.953125 284.503906 L 245.816406 296.714844 L 244.65625 299.109375 C 244.324219 299.839844 243.84375 300.449219 243.210938 300.945312 C 242.582031 301.441406 241.878906 301.6875 241.109375 301.6875 C 240.996094 301.6875 240.820312 301.667969 240.59375 301.628906 C 241.21875 301.273438 241.53125 300.722656 241.53125 299.972656 C 241.53125 299.460938 241.347656 299.023438 240.984375 298.671875 C 240.621094 298.316406 240.171875 298.140625 239.640625 298.140625 C 239.089844 298.140625 238.632812 298.316406 238.265625 298.671875 C 237.902344 299.023438 237.722656 299.460938 237.722656 299.972656 C 237.722656 300.835938 238.066406 301.542969 238.757812 302.097656 "/>
<path style=" stroke:none;fill-rule:nonzero;fill:rgb(100%,100%,0%);fill-opacity:1;" d="M 271.308594 304.296875 C 271.433594 304.417969 271.582031 304.480469 271.761719 304.480469 C 272.042969 304.480469 272.246094 304.351562 272.371094 304.101562 L 283.503906 274.160156 L 283.503906 274.039062 C 283.503906 273.84375 283.445312 273.695312 283.324219 273.582031 C 283.207031 273.472656 283.050781 273.414062 282.863281 273.414062 C 282.726562 273.414062 282.609375 273.449219 282.503906 273.515625 C 282.398438 273.582031 282.324219 273.671875 282.285156 273.792969 L 271.152344 303.738281 L 271.117188 303.859375 C 271.117188 304.03125 271.183594 304.175781 271.308594 304.296875 "/>
<path style=" stroke:none;fill-rule:nonzero;fill:rgb(100%,100%,0%);fill-opacity:1;" d="M 270.496094 292.359375 C 269.953125 291.398438 269.683594 290.46875 269.683594 289.570312 L 283.675781 289.570312 C 283.839844 289.570312 283.976562 289.503906 284.085938 289.371094 C 284.195312 289.242188 284.25 289.097656 284.25 288.949219 C 284.25 288.796875 284.195312 288.65625 284.085938 288.523438 C 283.976562 288.390625 283.839844 288.324219 283.675781 288.324219 L 269.683594 288.324219 C 269.683594 287.414062 269.953125 286.484375 270.496094 285.527344 C 271.039062 284.570312 271.699219 283.777344 272.472656 283.136719 C 273.257812 282.5 274.136719 282.015625 275.113281 281.683594 C 276.089844 281.347656 277.09375 281.179688 278.128906 281.179688 L 283.675781 281.179688 C 283.839844 281.179688 283.976562 281.121094 284.085938 281 C 284.195312 280.878906 284.25 280.730469 284.25 280.558594 C 284.25 280.410156 284.195312 280.265625 284.085938 280.136719 C 283.976562 280.003906 283.839844 279.9375 283.675781 279.9375 L 278.035156 279.9375 C 276.351562 279.9375 274.765625 280.332031 273.277344 281.121094 C 271.789062 281.910156 270.601562 282.996094 269.714844 284.375 C 268.824219 285.753906 268.382812 287.28125 268.382812 288.949219 C 268.382812 290.617188 268.824219 292.140625 269.714844 293.519531 C 270.601562 294.902344 271.789062 295.984375 273.277344 296.773438 C 274.765625 297.5625 276.351562 297.957031 278.035156 297.957031 L 283.675781 297.957031 C 283.839844 297.957031 283.976562 297.890625 284.085938 297.761719 C 284.195312 297.628906 284.25 297.488281 284.25 297.335938 C 284.25 297.164062 284.195312 297.015625 284.085938 296.894531 C 283.976562 296.773438 283.839844 296.714844 283.675781 296.714844 L 278.128906 296.714844 C 275.949219 296.714844 274.0625 296.0625 272.472656 294.757812 C 271.699219 294.121094 271.039062 293.320312 270.496094 292.359375 "/>
<path style=" stroke:none;fill-rule:nonzero;fill:rgb(100%,100%,0%);fill-opacity:1;" d="M 306.632812 296.714844 C 306.964844 296.644531 307.132812 296.457031 307.132812 296.152344 C 307.132812 296.011719 307.082031 295.886719 306.984375 295.78125 C 306.882812 295.675781 306.769531 295.621094 306.632812 295.621094 C 305.9375 295.621094 305.445312 295.59375 305.152344 295.539062 C 304.863281 295.484375 304.652344 295.332031 304.523438 295.082031 C 304.390625 294.835938 304.328125 294.429688 304.328125 293.863281 L 304.328125 287.886719 L 305.230469 287.050781 L 311.324219 294.132812 C 311.914062 294.78125 312.210938 295.21875 312.210938 295.441406 C 312.210938 295.5625 311.9375 295.621094 311.382812 295.621094 C 311.042969 295.691406 310.871094 295.871094 310.871094 296.152344 C 310.871094 296.285156 310.921875 296.410156 311.027344 296.53125 C 311.128906 296.652344 311.25 296.714844 311.382812 296.714844 L 319.582031 296.714844 C 319.921875 296.644531 320.09375 296.457031 320.09375 296.152344 C 320.09375 296.011719 320.046875 295.886719 319.945312 295.78125 C 319.847656 295.675781 319.726562 295.621094 319.582031 295.621094 C 319.332031 295.621094 319.054688 295.507812 318.753906 295.28125 C 318.453125 295.050781 318.1875 294.808594 317.953125 294.542969 C 317.71875 294.28125 317.417969 293.925781 317.058594 293.484375 L 308.734375 283.761719 L 312.242188 280.46875 C 313.125 279.640625 313.84375 278.988281 314.398438 278.511719 C 314.957031 278.035156 315.597656 277.585938 316.324219 277.164062 C 317.050781 276.738281 317.730469 276.527344 318.363281 276.527344 C 318.707031 276.453125 318.878906 276.269531 318.878906 275.964844 C 318.878906 275.824219 318.828125 275.699219 318.730469 275.59375 C 318.632812 275.488281 318.511719 275.433594 318.363281 275.433594 L 310.558594 275.433594 C 310.214844 275.503906 310.042969 275.679688 310.042969 275.964844 C 310.042969 276.085938 310.09375 276.210938 310.191406 276.335938 C 310.292969 276.460938 310.414062 276.527344 310.558594 276.527344 C 310.976562 276.527344 311.3125 276.675781 311.570312 276.980469 C 311.832031 277.285156 311.960938 277.636719 311.960938 278.042969 C 311.960938 278.609375 311.726562 279.128906 311.261719 279.605469 L 304.328125 286.09375 L 304.328125 278.359375 C 304.328125 277.753906 304.382812 277.324219 304.496094 277.070312 C 304.613281 276.820312 304.804688 276.664062 305.074219 276.609375 C 305.34375 276.550781 305.832031 276.527344 306.539062 276.527344 L 306.632812 276.527344 C 306.964844 276.453125 307.132812 276.269531 307.132812 275.964844 C 307.132812 275.824219 307.082031 275.699219 306.984375 275.59375 C 306.882812 275.488281 306.769531 275.433594 306.632812 275.433594 L 296.832031 275.433594 C 296.488281 275.503906 296.316406 275.679688 296.316406 275.964844 C 296.316406 276.085938 296.367188 276.210938 296.464844 276.335938 C 296.566406 276.460938 296.6875 276.527344 296.832031 276.527344 C 297.527344 276.527344 298.023438 276.550781 298.3125 276.609375 C 298.601562 276.664062 298.8125 276.820312 298.9375 277.070312 C 299.0625 277.324219 299.121094 277.734375 299.121094 278.300781 L 299.121094 293.785156 C 299.121094 294.382812 299.066406 294.808594 298.957031 295.066406 C 298.851562 295.324219 298.65625 295.484375 298.382812 295.539062 C 298.109375 295.59375 297.621094 295.621094 296.925781 295.621094 L 296.832031 295.621094 C 296.488281 295.691406 296.316406 295.871094 296.316406 296.152344 C 296.316406 296.285156 296.371094 296.410156 296.472656 296.53125 C 296.578125 296.652344 296.695312 296.714844 296.832031 296.714844 Z M 300.246094 293.863281 L 300.246094 278.300781 C 300.246094 277.542969 300.152344 276.949219 299.964844 276.527344 L 303.488281 276.527344 C 303.300781 276.949219 303.203125 277.542969 303.203125 278.300781 L 303.203125 293.863281 C 303.203125 294.609375 303.300781 295.195312 303.488281 295.621094 L 299.964844 295.621094 C 300.152344 295.195312 300.246094 294.609375 300.246094 293.863281 M 306.058594 286.277344 L 307.941406 284.503906 L 316.167969 294.132812 C 316.625 294.691406 317.070312 295.1875 317.507812 295.621094 L 313.332031 295.621094 L 313.332031 295.441406 C 313.332031 295.105469 313.238281 294.792969 313.042969 294.507812 C 312.851562 294.21875 312.574219 293.878906 312.210938 293.484375 Z M 313.058594 278.148438 L 313.066406 278.042969 C 313.066406 277.496094 312.910156 276.992188 312.601562 276.527344 L 315.28125 276.527344 C 314.605469 276.96875 313.855469 277.546875 313.035156 278.253906 Z M 313.058594 278.148438 "/>
<path style=" stroke:none;fill-rule:nonzero;fill:rgb(100%,100%,0%);fill-opacity:1;" d="M 323.605469 281.164062 L 326.757812 279.160156 L 326.414062 282.511719 L 326.390625 282.574219 C 326.390625 282.765625 326.46875 282.921875 326.625 283.042969 C 326.777344 283.164062 326.953125 283.222656 327.144531 283.222656 C 327.34375 283.222656 327.519531 283.164062 327.671875 283.042969 C 327.824219 282.921875 327.898438 282.765625 327.898438 282.574219 L 327.898438 282.511719 L 327.535156 279.160156 L 330.691406 281.164062 C 330.789062 281.234375 330.898438 281.269531 331.027344 281.269531 C 331.230469 281.269531 331.410156 281.191406 331.558594 281.039062 C 331.707031 280.882812 331.78125 280.710938 331.78125 280.527344 C 331.78125 280.230469 331.648438 280.03125 331.390625 279.921875 L 327.964844 278.535156 L 331.390625 277.164062 C 331.648438 277.058594 331.78125 276.855469 331.78125 276.558594 C 331.78125 276.375 331.707031 276.207031 331.558594 276.050781 C 331.410156 275.894531 331.230469 275.816406 331.027344 275.816406 C 330.894531 275.816406 330.78125 275.851562 330.691406 275.921875 L 327.535156 277.929688 L 327.898438 274.554688 L 327.898438 274.511719 C 327.898438 274.320312 327.824219 274.167969 327.671875 274.046875 C 327.519531 273.925781 327.34375 273.867188 327.144531 273.867188 C 326.953125 273.867188 326.777344 273.925781 326.625 274.046875 C 326.46875 274.167969 326.390625 274.320312 326.390625 274.511719 L 326.414062 274.554688 L 326.757812 277.929688 L 323.605469 275.921875 C 323.503906 275.851562 323.390625 275.816406 323.261719 275.816406 C 323.070312 275.816406 322.898438 275.894531 322.742188 276.050781 C 322.585938 276.207031 322.507812 276.375 322.507812 276.558594 C 322.507812 276.851562 322.636719 277.050781 322.898438 277.164062 L 326.324219 278.535156 L 322.898438 279.921875 C 322.636719 280.035156 322.507812 280.238281 322.507812 280.527344 C 322.507812 280.710938 322.585938 280.882812 322.742188 281.039062 C 322.898438 281.191406 323.070312 281.269531 323.261719 281.269531 C 323.390625 281.269531 323.503906 281.234375 323.605469 281.164062 "/>
</g>
</svg>
