<?xml version="1.0" encoding="UTF-8"?>
<svg xmlns="http://www.w3.org/2000/svg" xmlns:xlink="http://www.w3.org/1999/xlink" width="519.227pt" height="407.286pt" viewBox="0 0 519.227 407.286" version="1.1">
<defs>
<clipPath id="clip1">
  <path d="M 249 30 L 254 30 L 254 407.285156 L 249 407.285156 Z M 249 30 "/>
</clipPath>
<clipPath id="clip2">
  <path d="M 511 302 L 519.226562 302 L 519.226562 334 L 511 334 Z M 511 302 "/>
</clipPath>
</defs>
<g id="surface1">
<path style=" stroke:none;fill-rule:nonzero;fill:rgb(100%,100%,40%);fill-opacity:0.5;" d="M 5.144531 15.078125 L 5.144531 357.085938 L 250.117188 357.085938 L 250.117188 15.078125 Z M 5.144531 15.078125 "/>
<path style=" stroke:none;fill-rule:evenodd;fill:rgb(39.99939%,79.998779%,100%);fill-opacity:1;" d="M 397.351562 135.878906 C 306.882812 50.378906 75.566406 130.734375 75.566406 221.203125 C 75.566406 311.851562 135.878906 175.96875 251.539062 181.113281 C 367.195312 186.082031 352.117188 351.941406 402.320312 326.929688 C 452.519531 301.738281 462.808594 196.191406 397.351562 135.878906 "/>
<path style=" stroke:none;fill-rule:nonzero;fill:rgb(100%,100%,100%);fill-opacity:1;" d="M 0 355.9375 L 472.566406 355.9375 L 472.566406 360.003906 L 0 360.003906 "/>
<path style=" stroke:none;fill-rule:evenodd;fill:rgb(100%,100%,100%);fill-opacity:1;" d="M 502.898438 357.972656 L 471.144531 347.328125 L 471.144531 368.4375 Z M 502.898438 357.972656 "/>
<g clip-path="url(#clip1)" clip-rule="nonzero">
<path style=" stroke:none;fill-rule:nonzero;fill:rgb(100%,100%,100%);fill-opacity:1;" d="M 249.503906 407.285156 L 249.503906 30.332031 L 253.570312 30.332031 L 253.570312 407.285156 "/>
</g>
<path style=" stroke:none;fill-rule:evenodd;fill:rgb(100%,100%,100%);fill-opacity:1;" d="M 251.539062 0 L 240.894531 31.753906 L 262.003906 31.753906 Z M 251.539062 0 "/>
<path style=" stroke:none;fill-rule:nonzero;fill:rgb(100%,100%,100%);fill-opacity:1;" d="M 276.171875 38.222656 C 276.507812 37.855469 276.675781 37.453125 276.675781 37.015625 C 276.675781 36.6875 276.554688 36.417969 276.316406 36.214844 C 276.082031 36.007812 275.785156 35.90625 275.433594 35.90625 C 274.90625 35.90625 274.46875 36.097656 274.125 36.484375 C 273.777344 36.867188 273.605469 37.320312 273.605469 37.839844 C 273.605469 38.488281 273.882812 39.011719 274.445312 39.40625 C 275.007812 39.800781 275.640625 39.996094 276.351562 39.996094 C 277.277344 39.996094 278.082031 39.597656 278.757812 38.796875 C 279.4375 38 279.996094 37.007812 280.433594 35.824219 C 280.871094 34.640625 281.210938 33.488281 281.453125 32.363281 C 281.695312 31.238281 281.910156 30.132812 282.09375 29.042969 L 283.558594 21.550781 L 286.941406 21.550781 L 287.148438 21.4375 C 287.207031 21.363281 287.25 21.265625 287.28125 21.140625 C 287.3125 21.015625 287.332031 20.925781 287.339844 20.875 C 287.339844 20.609375 287.238281 20.472656 287.03125 20.472656 L 283.773438 20.472656 L 284.160156 18.449219 C 284.613281 16.152344 284.90625 14.742188 285.039062 14.222656 C 285.121094 13.890625 285.304688 13.582031 285.589844 13.292969 C 285.871094 13.003906 286.171875 12.859375 286.492188 12.859375 C 287.070312 12.859375 287.554688 13 287.945312 13.289062 C 287.480469 13.339844 287.089844 13.53125 286.777344 13.863281 C 286.460938 14.199219 286.300781 14.589844 286.300781 15.035156 C 286.300781 15.367188 286.425781 15.632812 286.667969 15.835938 C 286.910156 16.039062 287.203125 16.140625 287.542969 16.140625 C 288.050781 16.140625 288.480469 15.949219 288.839844 15.566406 C 289.195312 15.183594 289.375 14.734375 289.375 14.214844 C 289.375 13.769531 289.234375 13.378906 288.957031 13.050781 C 288.679688 12.722656 288.320312 12.476562 287.882812 12.3125 C 287.445312 12.148438 286.996094 12.066406 286.53125 12.066406 C 285.820312 12.066406 285.160156 12.285156 284.546875 12.71875 C 283.933594 13.152344 283.449219 13.703125 283.085938 14.375 C 282.851562 14.84375 282.671875 15.269531 282.554688 15.648438 C 282.433594 16.027344 282.324219 16.441406 282.222656 16.882812 C 282.121094 17.328125 282.007812 17.859375 281.882812 18.480469 L 281.511719 20.472656 L 278.695312 20.472656 C 278.511719 20.472656 278.375 20.695312 278.292969 21.148438 C 278.292969 21.417969 278.398438 21.550781 278.601562 21.550781 L 281.3125 21.550781 L 279.859375 29.074219 C 278.988281 33.429688 278.453125 35.996094 278.253906 36.777344 C 277.78125 38.394531 277.171875 39.203125 276.417969 39.203125 C 275.863281 39.203125 275.390625 39.058594 275 38.769531 C 275.445312 38.769531 275.835938 38.585938 276.171875 38.222656 "/>
<path style=" stroke:none;fill-rule:nonzero;fill:rgb(100%,100%,100%);fill-opacity:1;" d="M 296.878906 37.332031 C 297.648438 36.625 298.175781 35.738281 298.460938 34.664062 C 298.75 33.59375 298.894531 32.417969 298.894531 31.136719 C 298.894531 29.042969 298.519531 27.28125 297.773438 25.851562 C 297.023438 24.421875 295.667969 23.707031 293.703125 23.707031 C 291.746094 23.707031 290.386719 24.421875 289.632812 25.851562 C 288.878906 27.28125 288.5 29.042969 288.5 31.136719 C 288.5 32.417969 288.644531 33.59375 288.933594 34.664062 C 289.21875 35.738281 289.746094 36.625 290.519531 37.332031 C 291.292969 38.039062 292.355469 38.390625 293.703125 38.390625 C 295.050781 38.390625 296.109375 38.039062 296.878906 37.332031 M 291.984375 36.992188 C 291.546875 36.519531 291.238281 35.929688 291.046875 35.214844 C 290.859375 34.503906 290.742188 33.796875 290.695312 33.097656 C 290.648438 32.398438 290.625 31.625 290.625 30.769531 C 290.625 29.941406 290.648438 29.203125 290.695312 28.554688 C 290.742188 27.910156 290.859375 27.265625 291.042969 26.625 C 291.226562 25.988281 291.535156 25.457031 291.96875 25.035156 C 292.398438 24.609375 292.976562 24.398438 293.703125 24.398438 C 294.640625 24.398438 295.332031 24.742188 295.78125 25.425781 C 296.230469 26.109375 296.507812 26.890625 296.613281 27.761719 C 296.71875 28.636719 296.769531 29.640625 296.769531 30.769531 C 296.769531 31.953125 296.71875 33.019531 296.613281 33.972656 C 296.507812 34.925781 296.230469 35.785156 295.777344 36.550781 C 295.320312 37.316406 294.628906 37.699219 293.703125 37.699219 C 292.992188 37.699219 292.417969 37.464844 291.984375 36.992188 "/>
<path style=" stroke:none;fill-rule:nonzero;fill:rgb(100%,100%,100%);fill-opacity:1;" d="M 311.199219 41.375 L 311.492188 41.375 L 311.65625 41.277344 L 311.742188 41.105469 C 311.742188 40.996094 311.710938 40.910156 311.648438 40.851562 C 308.054688 37.476562 306.257812 32.535156 306.257812 26.03125 C 306.257812 24.5625 306.347656 23.152344 306.535156 21.800781 C 306.722656 20.445312 307.023438 19.136719 307.441406 17.871094 C 307.859375 16.609375 308.414062 15.417969 309.097656 14.300781 C 309.785156 13.179688 310.644531 12.132812 311.679688 11.152344 L 311.742188 10.957031 L 311.664062 10.769531 L 311.492188 10.6875 L 311.199219 10.6875 C 311.09375 10.6875 311.042969 10.707031 311.042969 10.746094 C 309.898438 11.617188 308.894531 12.632812 308.039062 13.789062 C 307.179688 14.949219 306.476562 16.191406 305.921875 17.519531 C 305.371094 18.847656 304.960938 20.234375 304.691406 21.671875 C 304.421875 23.109375 304.289062 24.5625 304.289062 26.03125 C 304.289062 27.480469 304.421875 28.925781 304.691406 30.363281 C 304.960938 31.800781 305.367188 33.179688 305.910156 34.496094 C 306.449219 35.816406 307.148438 37.058594 308 38.222656 C 308.851562 39.386719 309.867188 40.417969 311.042969 41.316406 C 311.042969 41.355469 311.09375 41.375 311.199219 41.375 "/>
<path style=" stroke:none;fill-rule:nonzero;fill:rgb(100%,100%,100%);fill-opacity:1;" d="M 320.660156 33.703125 L 320.660156 32.144531 C 320.464844 32.144531 320.214844 32.121094 319.910156 32.070312 C 319.605469 32.019531 319.457031 31.960938 319.457031 31.890625 L 322.625 28.398438 L 325.890625 32.144531 L 324.714844 32.144531 L 324.714844 33.703125 L 332.183594 33.703125 L 332.183594 32.144531 L 329.816406 32.144531 L 324.683594 26.152344 L 328.550781 21.925781 C 328.734375 21.734375 329.722656 21.640625 331.519531 21.640625 L 331.519531 20.082031 L 325.191406 20.082031 L 325.191406 21.640625 C 325.378906 21.640625 325.625 21.660156 325.925781 21.699219 C 326.230469 21.742188 326.382812 21.804688 326.382812 21.894531 L 323.632812 24.921875 L 320.785156 21.640625 L 321.929688 21.640625 L 321.929688 20.082031 L 314.476562 20.082031 L 314.476562 21.640625 L 316.824219 21.640625 L 321.574219 27.171875 L 317.304688 31.859375 C 317.109375 32.050781 316.113281 32.144531 314.320312 32.144531 L 314.320312 33.703125 Z M 320.660156 33.703125 "/>
<path style=" stroke:none;fill-rule:nonzero;fill:rgb(100%,100%,100%);fill-opacity:1;" d="M 334.960938 41.375 L 335.113281 41.316406 C 336.292969 40.417969 337.304688 39.390625 338.152344 38.238281 C 338.996094 37.082031 339.695312 35.824219 340.25 34.460938 C 340.800781 33.097656 341.203125 31.714844 341.457031 30.308594 C 341.710938 28.90625 341.835938 27.480469 341.835938 26.03125 C 341.835938 24.074219 341.601562 22.15625 341.132812 20.277344 C 340.664062 18.398438 339.921875 16.632812 338.910156 14.972656 C 337.898438 13.316406 336.632812 11.90625 335.113281 10.746094 L 334.960938 10.6875 L 334.664062 10.6875 L 334.472656 10.769531 L 334.386719 10.957031 C 334.386719 11.078125 334.425781 11.160156 334.511719 11.210938 C 338.082031 14.589844 339.871094 19.527344 339.871094 26.03125 C 339.871094 32.535156 338.0625 37.496094 334.449219 40.910156 L 334.386719 41.105469 C 334.386719 41.285156 334.480469 41.375 334.664062 41.375 Z M 334.960938 41.375 "/>
<path style=" stroke:none;fill-rule:nonzero;fill:rgb(100%,100%,100%);fill-opacity:1;" d="M 453.738281 329.851562 C 454.074219 329.484375 454.242188 329.082031 454.242188 328.644531 C 454.242188 328.3125 454.121094 328.046875 453.882812 327.84375 C 453.648438 327.636719 453.351562 327.535156 453 327.535156 C 452.472656 327.535156 452.035156 327.726562 451.691406 328.113281 C 451.34375 328.496094 451.171875 328.949219 451.171875 329.46875 C 451.171875 330.117188 451.453125 330.640625 452.011719 331.035156 C 452.574219 331.429688 453.207031 331.625 453.917969 331.625 C 454.84375 331.625 455.648438 331.226562 456.328125 330.425781 C 457.003906 329.628906 457.566406 328.636719 458 327.453125 C 458.4375 326.269531 458.777344 325.113281 459.019531 323.992188 C 459.261719 322.867188 459.476562 321.761719 459.660156 320.671875 L 461.128906 313.179688 L 464.507812 313.179688 L 464.714844 313.066406 C 464.773438 312.992188 464.816406 312.894531 464.847656 312.769531 C 464.878906 312.644531 464.898438 312.554688 464.910156 312.503906 C 464.910156 312.234375 464.804688 312.101562 464.597656 312.101562 L 461.339844 312.101562 L 461.726562 310.078125 C 462.179688 307.777344 462.472656 306.371094 462.605469 305.851562 C 462.691406 305.519531 462.871094 305.210938 463.15625 304.921875 C 463.441406 304.632812 463.742188 304.484375 464.0625 304.484375 C 464.636719 304.484375 465.121094 304.628906 465.511719 304.917969 C 465.046875 304.96875 464.660156 305.160156 464.34375 305.492188 C 464.027344 305.828125 463.871094 306.21875 463.871094 306.664062 C 463.871094 306.996094 463.992188 307.261719 464.234375 307.464844 C 464.476562 307.667969 464.769531 307.769531 465.109375 307.769531 C 465.617188 307.769531 466.046875 307.578125 466.40625 307.195312 C 466.761719 306.8125 466.941406 306.363281 466.941406 305.84375 C 466.941406 305.398438 466.800781 305.007812 466.523438 304.679688 C 466.246094 304.351562 465.886719 304.105469 465.449219 303.941406 C 465.011719 303.777344 464.5625 303.695312 464.097656 303.695312 C 463.386719 303.695312 462.726562 303.914062 462.113281 304.347656 C 461.5 304.78125 461.015625 305.332031 460.65625 306.003906 C 460.417969 306.472656 460.238281 306.894531 460.121094 307.277344 C 460.003906 307.65625 459.894531 308.066406 459.789062 308.511719 C 459.6875 308.957031 459.574219 309.488281 459.449219 310.109375 L 459.078125 312.101562 L 456.261719 312.101562 C 456.078125 312.101562 455.945312 312.328125 455.863281 312.773438 C 455.863281 313.046875 455.964844 313.179688 456.167969 313.179688 L 458.878906 313.179688 L 457.425781 320.703125 C 456.554688 325.058594 456.019531 327.625 455.824219 328.402344 C 455.347656 330.023438 454.738281 330.832031 453.988281 330.832031 C 453.429688 330.832031 452.957031 330.6875 452.566406 330.398438 C 453.011719 330.398438 453.402344 330.214844 453.738281 329.851562 "/>
<path style=" stroke:none;fill-rule:nonzero;fill:rgb(100%,100%,100%);fill-opacity:1;" d="M 475.523438 329.589844 L 475.523438 328.730469 C 473.472656 328.730469 472.445312 328.519531 472.445312 328.089844 L 472.445312 315.597656 C 472.410156 315.457031 472.320312 315.371094 472.183594 315.335938 L 471.78125 315.335938 C 471.238281 315.839844 470.578125 316.195312 469.808594 316.398438 C 469.035156 316.605469 468.203125 316.707031 467.320312 316.707031 L 467.320312 317.570312 C 468.640625 317.570312 469.71875 317.375 470.550781 316.992188 L 470.550781 328.089844 C 470.550781 328.519531 469.523438 328.730469 467.472656 328.730469 L 467.472656 329.589844 Z M 475.523438 329.589844 "/>
<path style=" stroke:none;fill-rule:nonzero;fill:rgb(100%,100%,100%);fill-opacity:1;" d="M 488.765625 333.003906 L 489.058594 333.003906 L 489.222656 332.90625 L 489.308594 332.734375 C 489.308594 332.625 489.277344 332.539062 489.214844 332.480469 C 485.621094 329.101562 483.824219 324.164062 483.824219 317.660156 C 483.824219 316.191406 483.917969 314.78125 484.101562 313.425781 C 484.289062 312.074219 484.589844 310.765625 485.007812 309.5 C 485.425781 308.238281 485.980469 307.046875 486.667969 305.925781 C 487.351562 304.808594 488.210938 303.757812 489.246094 302.78125 L 489.308594 302.585938 L 489.230469 302.398438 L 489.058594 302.316406 L 488.765625 302.316406 C 488.664062 302.316406 488.609375 302.335938 488.609375 302.375 C 487.464844 303.246094 486.460938 304.257812 485.605469 305.417969 C 484.75 306.578125 484.042969 307.820312 483.492188 309.148438 C 482.9375 310.476562 482.527344 311.863281 482.257812 313.300781 C 481.992188 314.738281 481.855469 316.191406 481.855469 317.660156 C 481.855469 319.109375 481.992188 320.550781 482.257812 321.992188 C 482.527344 323.429688 482.933594 324.808594 483.476562 326.125 C 484.015625 327.445312 484.714844 328.6875 485.566406 329.851562 C 486.417969 331.011719 487.433594 332.046875 488.609375 332.945312 C 488.609375 332.984375 488.664062 333.003906 488.765625 333.003906 "/>
<path style=" stroke:none;fill-rule:nonzero;fill:rgb(100%,100%,100%);fill-opacity:1;" d="M 498.226562 325.332031 L 498.226562 323.773438 C 498.03125 323.773438 497.78125 323.75 497.476562 323.699219 C 497.175781 323.648438 497.023438 323.589844 497.023438 323.519531 L 500.191406 320.027344 L 503.457031 323.773438 L 502.28125 323.773438 L 502.28125 325.332031 L 509.75 325.332031 L 509.75 323.773438 L 507.382812 323.773438 L 502.25 317.78125 L 506.117188 313.554688 C 506.300781 313.363281 507.292969 313.269531 509.085938 313.269531 L 509.085938 311.710938 L 502.761719 311.710938 L 502.761719 313.269531 C 502.945312 313.269531 503.191406 313.289062 503.496094 313.328125 C 503.796875 313.371094 503.949219 313.433594 503.949219 313.523438 L 501.199219 316.550781 L 498.351562 313.269531 L 499.496094 313.269531 L 499.496094 311.710938 L 492.042969 311.710938 L 492.042969 313.269531 L 494.390625 313.269531 L 499.140625 318.800781 L 494.871094 323.488281 C 494.675781 323.679688 493.679688 323.773438 491.886719 323.773438 L 491.886719 325.332031 Z M 498.226562 325.332031 "/>
<g clip-path="url(#clip2)" clip-rule="nonzero">
<path style=" stroke:none;fill-rule:nonzero;fill:rgb(100%,100%,100%);fill-opacity:1;" d="M 512.347656 333.003906 L 512.503906 332.945312 C 513.679688 332.046875 514.691406 331.019531 515.539062 329.867188 C 516.386719 328.710938 517.085938 327.453125 517.640625 326.089844 C 518.191406 324.726562 518.59375 323.34375 518.847656 321.9375 C 519.101562 320.535156 519.226562 319.109375 519.226562 317.660156 C 519.226562 315.703125 518.992188 313.785156 518.523438 311.90625 C 518.050781 310.027344 517.3125 308.257812 516.300781 306.601562 C 515.285156 304.945312 514.023438 303.535156 512.503906 302.375 L 512.347656 302.316406 L 512.054688 302.316406 L 511.859375 302.398438 L 511.777344 302.585938 C 511.777344 302.707031 511.816406 302.789062 511.898438 302.839844 C 515.472656 306.21875 517.261719 311.15625 517.261719 317.660156 C 517.261719 324.164062 515.453125 329.125 511.839844 332.539062 L 511.777344 332.734375 C 511.777344 332.914062 511.867188 333.003906 512.054688 333.003906 Z M 512.347656 333.003906 "/>
</g>
<path style=" stroke:none;fill-rule:nonzero;fill:rgb(100%,100%,0%);fill-opacity:1;" d="M 20.222656 250.03125 L 25.367188 250.03125 L 25.367188 252.691406 L 20.222656 252.691406 "/>
<path style=" stroke:none;fill-rule:nonzero;fill:rgb(100%,100%,0%);fill-opacity:1;" d="M 30.6875 250.03125 L 35.832031 250.03125 L 35.832031 252.691406 L 30.6875 252.691406 "/>
<path style=" stroke:none;fill-rule:nonzero;fill:rgb(100%,100%,0%);fill-opacity:1;" d="M 41.152344 250.03125 L 46.476562 250.03125 L 46.476562 252.691406 L 41.152344 252.691406 "/>
<path style=" stroke:none;fill-rule:nonzero;fill:rgb(100%,100%,0%);fill-opacity:1;" d="M 51.621094 250.03125 L 56.941406 250.03125 L 56.941406 252.691406 L 51.621094 252.691406 "/>
<path style=" stroke:none;fill-rule:nonzero;fill:rgb(100%,100%,0%);fill-opacity:1;" d="M 62.085938 250.03125 L 67.40625 250.03125 L 67.40625 252.691406 L 62.085938 252.691406 "/>
<path style=" stroke:none;fill-rule:nonzero;fill:rgb(100%,100%,0%);fill-opacity:1;" d="M 72.730469 250.03125 L 77.875 250.03125 L 77.875 252.691406 L 72.730469 252.691406 "/>
<path style=" stroke:none;fill-rule:nonzero;fill:rgb(100%,100%,0%);fill-opacity:1;" d="M 83.195312 250.03125 L 88.339844 250.03125 L 88.339844 252.691406 L 83.195312 252.691406 "/>
<path style=" stroke:none;fill-rule:nonzero;fill:rgb(100%,100%,0%);fill-opacity:1;" d="M 93.660156 250.03125 L 98.984375 250.03125 L 98.984375 252.691406 L 93.660156 252.691406 "/>
<path style=" stroke:none;fill-rule:nonzero;fill:rgb(100%,100%,0%);fill-opacity:1;" d="M 104.128906 250.03125 L 109.449219 250.03125 L 109.449219 252.691406 L 104.128906 252.691406 "/>
<path style=" stroke:none;fill-rule:nonzero;fill:rgb(100%,100%,0%);fill-opacity:1;" d="M 114.59375 250.03125 L 119.914062 250.03125 L 119.914062 252.691406 L 114.59375 252.691406 "/>
<path style=" stroke:none;fill-rule:nonzero;fill:rgb(100%,100%,0%);fill-opacity:1;" d="M 125.238281 250.03125 L 130.378906 250.03125 L 130.378906 252.691406 L 125.238281 252.691406 "/>
<path style=" stroke:none;fill-rule:nonzero;fill:rgb(100%,100%,0%);fill-opacity:1;" d="M 135.703125 250.03125 L 140.847656 250.03125 L 140.847656 252.691406 L 135.703125 252.691406 "/>
<path style=" stroke:none;fill-rule:nonzero;fill:rgb(100%,100%,0%);fill-opacity:1;" d="M 146.167969 250.03125 L 151.3125 250.03125 L 151.3125 252.691406 L 146.167969 252.691406 "/>
<path style=" stroke:none;fill-rule:nonzero;fill:rgb(100%,100%,0%);fill-opacity:1;" d="M 156.632812 250.03125 L 161.957031 250.03125 L 161.957031 252.691406 L 156.632812 252.691406 "/>
<path style=" stroke:none;fill-rule:nonzero;fill:rgb(100%,100%,0%);fill-opacity:1;" d="M 167.101562 250.03125 L 172.421875 250.03125 L 172.421875 252.691406 L 167.101562 252.691406 "/>
<path style=" stroke:none;fill-rule:nonzero;fill:rgb(100%,100%,0%);fill-opacity:1;" d="M 177.566406 250.03125 L 182.886719 250.03125 L 182.886719 252.691406 L 177.566406 252.691406 "/>
<path style=" stroke:none;fill-rule:nonzero;fill:rgb(100%,100%,0%);fill-opacity:1;" d="M 188.210938 250.03125 L 193.355469 250.03125 L 193.355469 252.691406 L 188.210938 252.691406 "/>
<path style=" stroke:none;fill-rule:nonzero;fill:rgb(100%,100%,0%);fill-opacity:1;" d="M 198.675781 250.03125 L 203.820312 250.03125 L 203.820312 252.691406 L 198.675781 252.691406 "/>
<path style=" stroke:none;fill-rule:nonzero;fill:rgb(100%,100%,0%);fill-opacity:1;" d="M 209.140625 250.03125 L 214.464844 250.03125 L 214.464844 252.691406 L 209.140625 252.691406 "/>
<path style=" stroke:none;fill-rule:nonzero;fill:rgb(100%,100%,0%);fill-opacity:1;" d="M 219.609375 250.03125 L 224.929688 250.03125 L 224.929688 252.691406 L 219.609375 252.691406 "/>
<path style=" stroke:none;fill-rule:nonzero;fill:rgb(100%,100%,0%);fill-opacity:1;" d="M 230.074219 250.03125 L 235.394531 250.03125 L 235.394531 252.691406 L 230.074219 252.691406 "/>
<path style=" stroke:none;fill-rule:nonzero;fill:rgb(100%,100%,0%);fill-opacity:1;" d="M 240.71875 250.03125 L 245.859375 250.03125 L 245.859375 252.691406 L 240.71875 252.691406 "/>
<path style=" stroke:none;fill-rule:nonzero;fill:rgb(100%,100%,0%);fill-opacity:1;" d="M 251.183594 250.03125 L 256.328125 250.03125 L 256.328125 252.691406 L 251.183594 252.691406 "/>
<path style=" stroke:none;fill-rule:nonzero;fill:rgb(100%,100%,0%);fill-opacity:1;" d="M 261.648438 250.03125 L 266.972656 250.03125 L 266.972656 252.691406 L 261.648438 252.691406 "/>
<path style=" stroke:none;fill-rule:nonzero;fill:rgb(100%,100%,0%);fill-opacity:1;" d="M 272.113281 250.03125 L 277.4375 250.03125 L 277.4375 252.691406 L 272.113281 252.691406 "/>
<path style=" stroke:none;fill-rule:nonzero;fill:rgb(100%,100%,0%);fill-opacity:1;" d="M 282.582031 250.03125 L 287.902344 250.03125 L 287.902344 252.691406 L 282.582031 252.691406 "/>
<path style=" stroke:none;fill-rule:nonzero;fill:rgb(100%,100%,0%);fill-opacity:1;" d="M 293.222656 250.03125 L 298.367188 250.03125 L 298.367188 252.691406 L 293.222656 252.691406 "/>
<path style=" stroke:none;fill-rule:evenodd;fill:rgb(0%,0%,0%);fill-opacity:1;" d="M 85.148438 243.734375 C 89.402344 243.734375 92.597656 246.925781 92.597656 251.183594 C 92.597656 255.441406 89.402344 258.8125 85.148438 258.8125 C 80.710938 258.8125 77.519531 255.441406 77.519531 251.183594 C 77.519531 246.925781 80.710938 243.734375 85.148438 243.734375 "/>
<path style=" stroke:none;fill-rule:nonzero;fill:rgb(100%,100%,100%);fill-opacity:1;" d="M 85.148438 243.734375 L 85.148438 242.402344 C 87.609375 242.398438 89.828125 243.335938 91.410156 244.921875 C 92.992188 246.5 93.929688 248.722656 93.925781 251.183594 C 93.929688 253.644531 93 255.894531 91.425781 257.519531 C 89.855469 259.144531 87.628906 260.144531 85.148438 260.140625 C 82.589844 260.144531 80.320312 259.15625 78.722656 257.527344 C 77.121094 255.902344 76.1875 253.644531 76.1875 251.183594 C 76.183594 248.722656 77.125 246.492188 78.738281 244.914062 C 80.34375 243.328125 82.609375 242.398438 85.148438 242.402344 L 85.148438 245.0625 C 83.25 245.066406 81.699219 245.734375 80.601562 246.808594 C 79.507812 247.890625 78.851562 249.386719 78.847656 251.183594 C 78.851562 252.980469 79.515625 254.535156 80.617188 255.660156 C 81.726562 256.78125 83.265625 257.476562 85.148438 257.480469 C 86.921875 257.476562 88.421875 256.792969 89.511719 255.667969 C 90.597656 254.542969 91.265625 252.976562 91.265625 251.183594 C 91.261719 249.386719 90.605469 247.882812 89.527344 246.800781 C 88.445312 245.726562 86.941406 245.066406 85.148438 245.0625 Z M 85.148438 243.734375 "/>
<path style=" stroke:none;fill-rule:nonzero;fill:rgb(100%,100%,0%);fill-opacity:1;" d="M 267.300781 231.222656 C 267.636719 230.855469 267.804688 230.453125 267.804688 230.015625 C 267.804688 229.6875 267.6875 229.417969 267.449219 229.214844 C 267.210938 229.007812 266.917969 228.90625 266.5625 228.90625 C 266.035156 228.90625 265.601562 229.097656 265.253906 229.484375 C 264.90625 229.867188 264.734375 230.320312 264.734375 230.839844 C 264.734375 231.488281 265.015625 232.011719 265.574219 232.40625 C 266.136719 232.800781 266.773438 232.996094 267.480469 232.996094 C 268.40625 232.996094 269.210938 232.597656 269.890625 231.796875 C 270.570312 231 271.128906 230.007812 271.566406 228.824219 C 272.003906 227.640625 272.34375 226.488281 272.585938 225.363281 C 272.824219 224.238281 273.039062 223.132812 273.226562 222.042969 L 274.691406 214.550781 L 278.070312 214.550781 L 278.28125 214.4375 C 278.335938 214.363281 278.378906 214.265625 278.410156 214.140625 C 278.441406 214.015625 278.460938 213.925781 278.472656 213.875 C 278.472656 213.609375 278.367188 213.472656 278.164062 213.472656 L 274.902344 213.472656 L 275.289062 211.449219 C 275.742188 209.152344 276.035156 207.742188 276.171875 207.222656 C 276.253906 206.890625 276.4375 206.582031 276.71875 206.292969 C 277.003906 206.003906 277.304688 205.859375 277.625 205.859375 C 278.199219 205.859375 278.683594 206 279.078125 206.289062 C 278.613281 206.339844 278.222656 206.53125 277.90625 206.863281 C 277.589844 207.199219 277.433594 207.589844 277.433594 208.035156 C 277.433594 208.367188 277.554688 208.632812 277.796875 208.835938 C 278.042969 209.039062 278.332031 209.140625 278.675781 209.140625 C 279.179688 209.140625 279.613281 208.949219 279.96875 208.566406 C 280.324219 208.183594 280.503906 207.734375 280.503906 207.214844 C 280.503906 206.769531 280.363281 206.378906 280.085938 206.050781 C 279.808594 205.722656 279.449219 205.476562 279.011719 205.3125 C 278.574219 205.148438 278.125 205.066406 277.660156 205.066406 C 276.949219 205.066406 276.289062 205.285156 275.675781 205.71875 C 275.066406 206.152344 274.578125 206.703125 274.21875 207.375 C 273.980469 207.84375 273.804688 208.269531 273.683594 208.648438 C 273.566406 209.027344 273.457031 209.441406 273.351562 209.882812 C 273.25 210.328125 273.136719 210.859375 273.011719 211.480469 L 272.640625 213.472656 L 269.824219 213.472656 C 269.640625 213.472656 269.507812 213.699219 269.425781 214.148438 C 269.425781 214.417969 269.527344 214.550781 269.734375 214.550781 L 272.441406 214.550781 L 270.992188 222.074219 C 270.117188 226.429688 269.582031 228.996094 269.386719 229.777344 C 268.914062 231.394531 268.300781 232.203125 267.550781 232.203125 C 266.992188 232.203125 266.519531 232.058594 266.128906 231.769531 C 266.574219 231.769531 266.964844 231.585938 267.300781 231.222656 "/>
<path style=" stroke:none;fill-rule:nonzero;fill:rgb(100%,100%,0%);fill-opacity:1;" d="M 280.128906 228.855469 C 280.640625 229.574219 281.324219 230.140625 282.175781 230.550781 C 283.03125 230.964844 283.914062 231.171875 284.828125 231.171875 C 285.511719 231.171875 286.179688 231.054688 286.835938 230.820312 C 287.496094 230.585938 288.082031 230.257812 288.601562 229.835938 C 289.121094 229.410156 289.53125 228.910156 289.832031 228.332031 C 290.132812 227.75 290.285156 227.113281 290.285156 226.414062 C 290.285156 225.492188 290.035156 224.644531 289.539062 223.871094 C 289.039062 223.097656 288.367188 222.492188 287.515625 222.050781 C 286.667969 221.613281 285.769531 221.390625 284.828125 221.390625 C 284.125 221.390625 283.433594 221.519531 282.757812 221.773438 C 282.082031 222.03125 281.492188 222.386719 280.984375 222.84375 C 280.476562 223.300781 280.078125 223.835938 279.789062 224.449219 C 279.503906 225.058594 279.359375 225.714844 279.359375 226.414062 C 279.359375 227.320312 279.617188 228.132812 280.128906 228.855469 M 282.199219 229.238281 C 281.722656 228.46875 281.480469 227.441406 281.480469 226.152344 C 281.480469 223.4375 282.597656 222.085938 284.828125 222.085938 C 286.058594 222.085938 286.921875 222.449219 287.417969 223.179688 C 287.914062 223.914062 288.164062 224.902344 288.164062 226.152344 C 288.164062 227.441406 287.925781 228.46875 287.453125 229.238281 C 286.976562 230.011719 286.101562 230.394531 284.828125 230.394531 C 283.554688 230.394531 282.675781 230.011719 282.199219 229.238281 "/>
<path style=" stroke:none;fill-rule:nonzero;fill:rgb(100%,100%,0%);fill-opacity:1;" d="M 297.328125 235.121094 L 297.328125 234.261719 C 296.851562 234.261719 296.453125 234.222656 296.136719 234.152344 C 295.824219 234.078125 295.664062 233.898438 295.664062 233.621094 L 295.664062 229.988281 C 296.0625 230.359375 296.527344 230.652344 297.050781 230.859375 C 297.578125 231.066406 298.125 231.171875 298.6875 231.171875 C 299.632812 231.171875 300.519531 230.960938 301.355469 230.546875 C 302.1875 230.132812 302.859375 229.550781 303.367188 228.808594 C 303.875 228.0625 304.128906 227.238281 304.128906 226.328125 C 304.128906 225.46875 303.902344 224.667969 303.449219 223.921875 C 302.996094 223.179688 302.382812 222.589844 301.609375 222.152344 C 300.839844 221.714844 300 221.496094 299.09375 221.496094 C 298.4375 221.496094 297.808594 221.601562 297.199219 221.8125 C 296.589844 222.019531 296.050781 222.332031 295.578125 222.742188 L 295.578125 221.496094 L 292.140625 221.726562 L 292.140625 222.585938 C 292.675781 222.585938 293.089844 222.628906 293.378906 222.710938 C 293.671875 222.796875 293.816406 223.011719 293.816406 223.363281 L 293.816406 233.621094 C 293.816406 233.910156 293.65625 234.085938 293.339844 234.15625 C 293.027344 234.226562 292.625 234.261719 292.140625 234.261719 L 292.140625 235.121094 Z M 295.664062 223.8125 C 295.996094 223.316406 296.449219 222.9375 297.015625 222.671875 C 297.585938 222.40625 298.179688 222.273438 298.804688 222.273438 C 299.296875 222.273438 299.75 222.394531 300.160156 222.640625 C 300.574219 222.882812 300.917969 223.207031 301.1875 223.613281 C 301.460938 224.019531 301.664062 224.453125 301.800781 224.921875 C 301.9375 225.390625 302.007812 225.855469 302.007812 226.324219 C 302.007812 226.972656 301.867188 227.621094 301.585938 228.269531 C 301.300781 228.917969 300.890625 229.449219 300.355469 229.863281 C 299.820312 230.273438 299.207031 230.480469 298.511719 230.480469 C 297.921875 230.480469 297.375 230.320312 296.859375 229.996094 C 296.34375 229.675781 295.949219 229.257812 295.664062 228.742188 Z M 295.664062 223.8125 "/>
<path style=" stroke:none;fill-rule:nonzero;fill:rgb(100%,100%,0%);fill-opacity:1;" d="M 308.660156 230.441406 C 309.246094 230.929688 310 231.171875 310.929688 231.171875 C 311.414062 231.171875 311.855469 231.035156 312.246094 230.765625 C 312.636719 230.496094 312.9375 230.148438 313.148438 229.71875 C 313.359375 229.285156 313.464844 228.839844 313.464844 228.378906 L 313.464844 227.066406 L 312.617188 227.066406 L 312.617188 228.332031 C 312.617188 228.652344 312.5625 228.972656 312.457031 229.285156 C 312.351562 229.597656 312.1875 229.863281 311.964844 230.078125 C 311.738281 230.289062 311.460938 230.394531 311.125 230.394531 C 310.574219 230.394531 310.1875 230.191406 309.96875 229.789062 C 309.746094 229.382812 309.636719 228.898438 309.636719 228.332031 L 309.636719 222.566406 L 313.0625 222.566406 L 313.0625 221.707031 L 309.636719 221.707031 L 309.636719 217.753906 L 308.785156 217.753906 C 308.785156 218.382812 308.679688 219.015625 308.464844 219.648438 C 308.25 220.277344 307.914062 220.808594 307.453125 221.238281 C 306.992188 221.671875 306.425781 221.886719 305.75 221.886719 L 305.75 222.566406 L 307.785156 222.566406 L 307.785156 228.382812 C 307.785156 229.269531 308.078125 229.957031 308.660156 230.441406 "/>
</g>
</svg>
