<?xml version="1.0" encoding="UTF-8"?>
<svg xmlns="http://www.w3.org/2000/svg" xmlns:xlink="http://www.w3.org/1999/xlink" width="520.271pt" height="374.907pt" viewBox="0 0 520.271 374.907" version="1.1">
<defs>
<clipPath id="clip1">
  <path d="M 0 338 L 156 338 L 156 374.90625 L 0 374.90625 Z M 0 338 "/>
</clipPath>
</defs>
<g id="surface1">
<path style=" stroke:none;fill-rule:nonzero;fill:rgb(100%,100%,100%);fill-opacity:1;" d="M 75.726562 94.578125 C 76.144531 94.492188 76.351562 94.261719 76.351562 93.890625 L 76.171875 93.4375 L 75.726562 93.246094 C 74.875 93.246094 74.273438 93.210938 73.917969 93.140625 C 73.5625 93.074219 73.304688 92.890625 73.140625 92.585938 C 72.972656 92.285156 72.890625 91.792969 72.890625 91.101562 L 72.890625 82.910156 L 74.316406 82.910156 C 74.632812 82.933594 75.117188 82.945312 75.761719 82.945312 C 76.957031 82.945312 78.152344 82.816406 79.351562 82.546875 C 80.550781 82.28125 81.660156 81.859375 82.6875 81.277344 C 83.714844 80.699219 84.527344 79.949219 85.121094 79.035156 C 85.71875 78.121094 86.015625 77.03125 86.015625 75.769531 C 86.015625 74.003906 85.527344 72.582031 84.542969 71.503906 C 83.558594 70.429688 82.304688 69.675781 80.78125 69.246094 C 79.257812 68.8125 77.609375 68.59375 75.832031 68.59375 L 63.914062 68.59375 C 63.496094 68.679688 63.285156 68.898438 63.285156 69.242188 L 63.464844 69.695312 L 63.914062 69.929688 C 64.738281 69.929688 65.308594 69.960938 65.632812 70.03125 C 65.957031 70.097656 66.183594 70.277344 66.316406 70.566406 C 66.453125 70.859375 66.519531 71.367188 66.519531 72.09375 L 66.519531 91.003906 C 66.519531 91.757812 66.460938 92.28125 66.347656 92.578125 C 66.234375 92.875 66.023438 93.058594 65.71875 93.132812 C 65.414062 93.207031 64.851562 93.246094 64.027344 93.246094 L 63.914062 93.246094 C 63.496094 93.332031 63.285156 93.546875 63.285156 93.890625 L 63.476562 94.355469 L 63.914062 94.578125 Z M 67.886719 91.097656 L 67.886719 72.09375 C 67.886719 71.109375 67.785156 70.382812 67.578125 69.929688 L 72.035156 69.929688 C 71.691406 70.359375 71.519531 70.84375 71.519531 71.375 L 71.519531 91.097656 C 71.519531 92.011719 71.632812 92.726562 71.863281 93.246094 L 67.578125 93.246094 C 67.785156 92.789062 67.886719 92.070312 67.886719 91.097656 M 72.890625 71.445312 C 72.890625 70.953125 73.125 70.574219 73.585938 70.316406 C 74.046875 70.058594 74.539062 69.929688 75.058594 69.929688 C 76.339844 69.929688 77.285156 70.171875 77.894531 70.660156 C 78.503906 71.148438 78.890625 71.785156 79.054688 72.578125 C 79.21875 73.367188 79.300781 74.425781 79.300781 75.761719 C 79.300781 76.945312 79.203125 77.957031 79.007812 78.789062 C 78.808594 79.625 78.398438 80.296875 77.769531 80.808594 C 77.140625 81.320312 76.226562 81.578125 75.023438 81.578125 L 72.890625 81.578125 Z M 80.671875 75.761719 C 80.671875 74.5625 80.59375 73.507812 80.433594 72.59375 C 80.273438 71.679688 79.953125 70.90625 79.472656 70.261719 C 82.921875 71.015625 84.648438 72.847656 84.648438 75.761719 C 84.648438 77.195312 84.148438 78.363281 83.144531 79.269531 C 82.144531 80.179688 80.847656 80.828125 79.265625 81.226562 C 80.203125 80.089844 80.671875 78.269531 80.671875 75.761719 "/>
<path style=" stroke:none;fill-rule:nonzero;fill:rgb(100%,100%,100%);fill-opacity:1;" d="M 291.492188 94.578125 L 303.550781 94.578125 C 305.597656 94.578125 307.453125 94.25 309.128906 93.59375 C 310.800781 92.941406 312.222656 92.011719 313.398438 90.808594 C 314.570312 89.605469 315.46875 88.171875 316.101562 86.511719 C 316.726562 84.851562 317.039062 83.039062 317.039062 81.078125 C 317.039062 78.570312 316.464844 76.371094 315.308594 74.484375 C 314.15625 72.59375 312.554688 71.148438 310.507812 70.140625 C 308.457031 69.136719 306.140625 68.628906 303.550781 68.628906 L 291.492188 68.628906 L 291.015625 68.855469 C 290.914062 69.074219 290.863281 69.230469 290.863281 69.316406 C 290.863281 69.402344 290.914062 69.558594 291.015625 69.78125 L 291.492188 70 C 292.328125 70 292.914062 70.035156 293.242188 70.105469 C 293.574219 70.171875 293.804688 70.355469 293.9375 70.660156 C 294.070312 70.960938 294.136719 71.480469 294.136719 72.207031 L 294.136719 91.003906 C 294.136719 91.730469 294.070312 92.246094 293.9375 92.550781 C 293.804688 92.851562 293.574219 93.039062 293.242188 93.105469 C 292.914062 93.171875 292.328125 93.207031 291.492188 93.207031 L 291.015625 93.449219 C 290.914062 93.644531 290.863281 93.792969 290.863281 93.890625 L 291.015625 94.355469 Z M 295.542969 91.171875 L 295.542969 72.039062 C 295.542969 71.238281 295.4375 70.558594 295.222656 70 L 299.632812 70 C 299.292969 70.433594 299.121094 70.914062 299.121094 71.445312 L 299.121094 91.761719 C 299.121094 92.292969 299.292969 92.777344 299.632812 93.207031 L 295.222656 93.207031 C 295.4375 92.652344 295.542969 91.972656 295.542969 91.171875 M 300.527344 71.59375 C 300.527344 71.199219 300.660156 70.882812 300.925781 70.648438 C 301.195312 70.414062 301.507812 70.25 301.875 70.148438 C 302.242188 70.050781 302.621094 70 303.015625 70 C 304.75 70 306.15625 70.589844 307.230469 71.761719 C 308.304688 72.933594 309.066406 74.371094 309.507812 76.066406 C 309.953125 77.765625 310.171875 79.449219 310.171875 81.113281 C 310.171875 83.050781 309.984375 84.929688 309.605469 86.753906 C 309.222656 88.574219 308.480469 90.105469 307.375 91.347656 C 306.265625 92.585938 304.707031 93.207031 302.691406 93.207031 C 302.148438 93.207031 301.652344 93.070312 301.203125 92.789062 C 300.753906 92.511719 300.527344 92.121094 300.527344 91.613281 Z M 311.582031 81.078125 C 311.582031 79.855469 311.472656 78.59375 311.257812 77.289062 C 311.039062 75.984375 310.667969 74.757812 310.148438 73.59375 C 309.625 72.433594 308.929688 71.464844 308.0625 70.6875 L 308.175781 70.695312 L 308.253906 70.722656 C 309.472656 71.132812 310.542969 71.671875 311.464844 72.34375 C 312.386719 73.019531 313.152344 73.789062 313.765625 74.652344 C 314.375 75.515625 314.839844 76.484375 315.15625 77.566406 C 315.476562 78.648438 315.632812 79.820312 315.632812 81.078125 C 315.632812 82.371094 315.488281 83.597656 315.203125 84.753906 C 314.917969 85.90625 314.476562 86.972656 313.878906 87.949219 C 313.28125 88.921875 312.511719 89.789062 311.570312 90.550781 C 310.628906 91.308594 309.535156 91.917969 308.289062 92.375 C 310.484375 90.238281 311.582031 86.472656 311.582031 81.078125 "/>
<path style=" stroke:none;fill-rule:nonzero;fill:rgb(100%,100%,100%);fill-opacity:1;" d="M 299.546875 275.488281 C 300.515625 274.328125 301.527344 273.746094 302.574219 273.746094 C 303.070312 273.746094 303.617188 273.890625 304.207031 274.175781 C 304.804688 274.464844 305.398438 274.753906 305.992188 275.046875 C 306.582031 275.339844 307.128906 275.488281 307.625 275.488281 C 308.636719 275.488281 309.65625 274.90625 310.691406 273.746094 L 311.820312 272.46875 L 311.035156 271.820312 C 310.066406 272.957031 309.054688 273.523438 308.011719 273.523438 C 307.511719 273.523438 306.96875 273.382812 306.371094 273.097656 C 305.78125 272.816406 305.1875 272.53125 304.59375 272.246094 C 304 271.960938 303.453125 271.820312 302.953125 271.820312 C 301.933594 271.820312 300.914062 272.390625 299.890625 273.523438 L 298.761719 274.835938 Z M 299.546875 275.488281 "/>
<path style=" stroke:none;fill-rule:nonzero;fill:rgb(100%,100%,100%);fill-opacity:1;" d="M 292.378906 306.800781 L 304.4375 306.800781 C 306.484375 306.800781 308.339844 306.476562 310.015625 305.820312 C 311.6875 305.167969 313.109375 304.238281 314.285156 303.035156 C 315.457031 301.828125 316.355469 300.398438 316.988281 298.734375 C 317.613281 297.078125 317.925781 295.261719 317.925781 293.300781 C 317.925781 290.796875 317.351562 288.597656 316.195312 286.707031 C 315.042969 284.820312 313.441406 283.371094 311.394531 282.367188 C 309.34375 281.359375 307.027344 280.855469 304.4375 280.855469 L 292.378906 280.855469 L 291.902344 281.078125 C 291.800781 281.300781 291.75 281.457031 291.75 281.542969 C 291.75 281.625 291.800781 281.78125 291.902344 282.003906 L 292.378906 282.226562 C 293.214844 282.226562 293.800781 282.261719 294.128906 282.328125 C 294.460938 282.394531 294.691406 282.582031 294.824219 282.882812 C 294.957031 283.183594 295.023438 283.703125 295.023438 284.429688 L 295.023438 303.226562 C 295.023438 303.957031 294.957031 304.472656 294.824219 304.773438 C 294.691406 305.078125 294.460938 305.261719 294.128906 305.328125 C 293.800781 305.398438 293.214844 305.433594 292.378906 305.433594 L 291.902344 305.671875 C 291.800781 305.871094 291.75 306.015625 291.75 306.117188 L 291.902344 306.582031 Z M 296.429688 303.394531 L 296.429688 284.265625 C 296.429688 283.460938 296.324219 282.78125 296.109375 282.226562 L 300.523438 282.226562 C 300.179688 282.660156 300.007812 283.140625 300.007812 283.671875 L 300.007812 303.988281 C 300.007812 304.515625 300.179688 305 300.523438 305.433594 L 296.109375 305.433594 C 296.324219 304.875 296.429688 304.199219 296.429688 303.394531 M 301.414062 283.820312 C 301.414062 283.425781 301.546875 283.109375 301.8125 282.875 C 302.082031 282.640625 302.394531 282.472656 302.761719 282.375 C 303.128906 282.277344 303.507812 282.226562 303.902344 282.226562 C 305.636719 282.226562 307.042969 282.8125 308.117188 283.984375 C 309.191406 285.160156 309.953125 286.59375 310.394531 288.292969 C 310.839844 289.988281 311.058594 291.671875 311.058594 293.339844 C 311.058594 295.277344 310.871094 297.15625 310.492188 298.976562 C 310.109375 300.800781 309.367188 302.328125 308.261719 303.570312 C 307.152344 304.8125 305.59375 305.433594 303.578125 305.433594 C 303.035156 305.433594 302.539062 305.292969 302.089844 305.015625 C 301.640625 304.738281 301.414062 304.34375 301.414062 303.835938 Z M 312.46875 293.300781 C 312.46875 292.078125 312.359375 290.816406 312.144531 289.511719 C 311.925781 288.210938 311.554688 286.980469 311.035156 285.820312 C 310.511719 284.660156 309.816406 283.691406 308.949219 282.910156 L 309.0625 282.921875 L 309.140625 282.949219 C 310.359375 283.355469 311.429688 283.894531 312.351562 284.570312 C 313.273438 285.242188 314.039062 286.011719 314.652344 286.875 C 315.261719 287.738281 315.726562 288.710938 316.042969 289.792969 C 316.363281 290.871094 316.519531 292.042969 316.519531 293.300781 C 316.519531 294.597656 316.375 295.824219 316.089844 296.976562 C 315.804688 298.132812 315.363281 299.195312 314.765625 300.171875 C 314.167969 301.148438 313.398438 302.015625 312.457031 302.773438 C 311.515625 303.53125 310.421875 304.140625 309.175781 304.597656 C 311.371094 302.464844 312.46875 298.695312 312.46875 293.300781 "/>
<path style=" stroke:none;fill-rule:evenodd;fill:rgb(0%,0%,0%);fill-opacity:1;" d="M 120.773438 77.914062 L 139.410156 65.636719 L 139.410156 70.242188 L 244.207031 70.242188 L 244.207031 65.636719 L 262.839844 77.914062 L 244.207031 90.414062 L 244.207031 85.808594 L 139.410156 85.808594 L 139.410156 90.414062 Z M 120.773438 77.914062 "/>
<path style=" stroke:none;fill-rule:nonzero;fill:rgb(100%,100%,100%);fill-opacity:1;" d="M 120.773438 77.914062 L 119.867188 76.542969 L 138.503906 64.265625 C 139.007812 63.933594 139.65625 63.902344 140.191406 64.191406 C 140.71875 64.476562 141.054688 65.035156 141.054688 65.636719 L 141.054688 68.597656 L 242.5625 68.597656 L 242.5625 65.636719 C 242.5625 65.035156 242.894531 64.476562 243.425781 64.191406 C 243.957031 63.902344 244.605469 63.933594 245.113281 64.265625 L 263.746094 76.542969 C 264.207031 76.847656 264.484375 77.359375 264.484375 77.910156 C 264.488281 78.460938 264.214844 78.972656 263.757812 79.28125 L 245.121094 91.777344 C 244.617188 92.117188 243.96875 92.148438 243.433594 91.863281 C 242.894531 91.578125 242.5625 91.023438 242.5625 90.414062 L 242.5625 87.453125 L 141.054688 87.453125 L 141.054688 90.414062 C 141.054688 91.023438 140.71875 91.578125 140.183594 91.863281 C 139.644531 92.148438 139 92.117188 138.492188 91.777344 L 119.859375 79.28125 C 119.402344 78.972656 119.128906 78.460938 119.128906 77.910156 C 119.132812 77.359375 119.410156 76.847656 119.867188 76.542969 L 120.773438 77.914062 L 121.691406 76.550781 L 137.765625 87.328125 L 137.765625 85.808594 C 137.765625 85.375 137.941406 84.949219 138.246094 84.644531 C 138.550781 84.339844 138.976562 84.164062 139.410156 84.164062 L 244.207031 84.164062 C 244.636719 84.164062 245.0625 84.339844 245.367188 84.644531 C 245.675781 84.949219 245.851562 85.375 245.851562 85.808594 L 245.851562 87.328125 L 259.871094 77.925781 L 245.851562 68.691406 L 245.851562 70.242188 C 245.851562 70.675781 245.675781 71.097656 245.367188 71.402344 C 245.0625 71.710938 244.636719 71.886719 244.207031 71.886719 L 139.410156 71.886719 C 138.976562 71.886719 138.550781 71.710938 138.246094 71.402344 C 137.941406 71.097656 137.765625 70.675781 137.765625 70.242188 L 137.765625 68.691406 L 121.679688 79.289062 L 120.773438 77.914062 L 121.691406 76.550781 Z M 120.773438 77.914062 "/>
<path style=" stroke:none;fill-rule:evenodd;fill:rgb(0%,0%,0%);fill-opacity:1;" d="M 120.773438 289.261719 L 139.410156 276.765625 L 139.410156 281.589844 L 243.988281 281.589844 L 243.988281 276.765625 L 262.839844 289.261719 L 243.988281 301.757812 L 243.988281 297.15625 L 139.410156 297.15625 L 139.410156 301.757812 Z M 120.773438 289.261719 "/>
<path style=" stroke:none;fill-rule:nonzero;fill:rgb(100%,100%,100%);fill-opacity:1;" d="M 120.773438 289.261719 L 119.859375 287.898438 L 138.492188 275.398438 C 139 275.0625 139.644531 275.03125 140.183594 275.316406 C 140.71875 275.601562 141.054688 276.15625 141.054688 276.765625 L 141.054688 279.945312 L 242.34375 279.945312 L 242.34375 276.765625 C 242.34375 276.164062 242.679688 275.601562 243.207031 275.316406 C 243.742188 275.03125 244.390625 275.0625 244.894531 275.394531 L 263.75 287.890625 C 264.207031 288.195312 264.484375 288.710938 264.484375 289.261719 C 264.484375 289.8125 264.207031 290.332031 263.75 290.632812 L 244.894531 303.128906 C 244.390625 303.464844 243.742188 303.492188 243.207031 303.207031 C 242.679688 302.921875 242.34375 302.363281 242.34375 301.757812 L 242.34375 298.800781 L 141.054688 298.800781 L 141.054688 301.757812 C 141.054688 302.367188 140.71875 302.921875 140.183594 303.210938 C 139.644531 303.496094 139 303.464844 138.492188 303.125 L 119.859375 290.628906 C 119.402344 290.320312 119.128906 289.8125 119.128906 289.261719 C 119.128906 288.710938 119.402344 288.203125 119.859375 287.898438 L 120.773438 289.261719 L 121.691406 287.898438 L 137.765625 298.675781 L 137.765625 297.15625 C 137.765625 296.722656 137.941406 296.296875 138.246094 295.992188 C 138.550781 295.6875 138.976562 295.511719 139.410156 295.511719 L 243.988281 295.511719 C 244.421875 295.511719 244.84375 295.6875 245.148438 295.992188 C 245.457031 296.296875 245.632812 296.722656 245.632812 297.15625 L 245.632812 298.695312 L 259.863281 289.261719 L 245.632812 279.828125 L 245.632812 281.589844 C 245.632812 282.023438 245.457031 282.445312 245.148438 282.75 C 244.84375 283.058594 244.421875 283.234375 243.988281 283.234375 L 139.410156 283.234375 C 138.976562 283.234375 138.550781 283.058594 138.246094 282.75 C 137.941406 282.445312 137.765625 282.023438 137.765625 281.589844 L 137.765625 279.847656 L 121.691406 290.628906 L 120.773438 289.261719 L 121.691406 287.898438 Z M 120.773438 289.261719 "/>
<path style=" stroke:none;fill-rule:evenodd;fill:rgb(0%,0%,0%);fill-opacity:1;" d="M 73.199219 114.089844 L 85.695312 131.410156 L 80.871094 131.410156 L 80.871094 227.65625 L 85.695312 227.65625 L 73.199219 244.757812 L 60.703125 227.65625 L 65.304688 227.65625 L 65.304688 131.410156 L 60.703125 131.410156 Z M 73.199219 114.089844 "/>
<path style=" stroke:none;fill-rule:nonzero;fill:rgb(100%,100%,100%);fill-opacity:1;" d="M 73.199219 114.089844 L 74.53125 113.128906 L 87.027344 130.449219 C 87.390625 130.949219 87.441406 131.609375 87.160156 132.160156 C 86.878906 132.710938 86.3125 133.054688 85.695312 133.054688 L 82.515625 133.054688 L 82.515625 226.011719 L 85.695312 226.011719 C 86.3125 226.011719 86.882812 226.359375 87.164062 226.910156 C 87.441406 227.464844 87.386719 228.128906 87.023438 228.625 L 74.527344 245.726562 C 74.21875 246.148438 73.722656 246.402344 73.199219 246.402344 C 72.675781 246.402344 72.179688 246.148438 71.871094 245.726562 L 59.375 228.625 C 59.011719 228.128906 58.953125 227.464844 59.234375 226.910156 C 59.515625 226.359375 60.085938 226.011719 60.703125 226.011719 L 63.660156 226.011719 L 63.660156 133.054688 L 60.703125 133.054688 C 60.085938 133.054688 59.519531 132.710938 59.238281 132.160156 C 58.957031 131.609375 59.007812 130.949219 59.371094 130.449219 L 71.867188 113.128906 C 72.175781 112.699219 72.671875 112.445312 73.199219 112.445312 C 73.726562 112.445312 74.222656 112.699219 74.53125 113.128906 L 73.199219 114.089844 L 74.53125 115.050781 L 63.917969 129.765625 L 65.304688 129.765625 C 65.742188 129.765625 66.164062 129.941406 66.46875 130.25 C 66.773438 130.554688 66.949219 130.976562 66.949219 131.410156 L 66.949219 227.65625 C 66.949219 228.089844 66.773438 228.515625 66.46875 228.820312 C 66.164062 229.125 65.742188 229.300781 65.304688 229.300781 L 63.941406 229.300781 L 73.199219 241.96875 L 82.457031 229.300781 L 80.871094 229.300781 C 80.4375 229.300781 80.015625 229.125 79.710938 228.820312 C 79.402344 228.515625 79.226562 228.089844 79.226562 227.65625 L 79.226562 131.410156 C 79.226562 130.976562 79.402344 130.554688 79.710938 130.25 C 80.015625 129.941406 80.4375 129.765625 80.871094 129.765625 L 82.480469 129.765625 L 71.867188 115.050781 L 73.199219 114.089844 L 74.53125 115.050781 Z M 73.199219 114.089844 "/>
<path style=" stroke:none;fill-rule:nonzero;fill:rgb(100%,100%,100%);fill-opacity:1;" d="M 14.054688 26.003906 C 12.515625 29.160156 9.117188 33.226562 5.488281 35.636719 L 5.882812 36.148438 C 10.222656 34.253906 14.132812 31.019531 16.222656 28.214844 C 17.089844 28.332031 17.40625 28.175781 17.683594 27.78125 Z M 13.777344 17.554688 L 29.210938 17.554688 L 29.210938 22.214844 L 13.777344 22.214844 Z M 29.210938 16.371094 L 13.777344 16.371094 L 13.777344 11.910156 L 29.210938 11.910156 Z M 29.210938 23.398438 L 29.210938 24.898438 L 29.605469 24.898438 C 30.472656 24.898438 31.695312 24.347656 31.738281 24.070312 L 31.738281 12.425781 C 32.527344 12.265625 33.160156 11.949219 33.394531 11.636719 L 30.277344 9.1875 L 28.816406 10.765625 L 19.304688 10.765625 C 20.25 9.78125 21.199219 8.558594 21.90625 7.292969 C 22.699219 7.292969 23.171875 6.9375 23.289062 6.464844 L 19.421875 5.4375 C 19.105469 7.332031 18.632812 9.347656 18.160156 10.765625 L 13.972656 10.765625 L 11.25 9.464844 L 11.25 25.371094 L 11.644531 25.371094 C 12.710938 25.371094 13.777344 24.742188 13.777344 24.503906 L 13.777344 23.398438 L 20.171875 23.398438 L 20.171875 33.78125 C 20.171875 34.332031 19.972656 34.53125 19.183594 34.53125 C 18.238281 34.53125 13.699219 34.214844 13.699219 34.214844 L 13.699219 34.804688 C 15.710938 35.042969 16.855469 35.398438 17.527344 35.832031 C 18.039062 36.1875 18.316406 36.898438 18.394531 37.6875 C 22.183594 37.292969 22.738281 35.910156 22.738281 33.820312 L 22.738281 23.398438 Z M 25.1875 27.03125 C 27.949219 29.042969 31.695312 32.597656 32.882812 35.4375 C 36.078125 37.214844 37.382812 30.503906 25.582031 26.636719 Z M 31.261719 4.054688 L 7.261719 4.054688 L 4.265625 2.675781 L 4.265625 13.882812 C 4.265625 21.699219 3.867188 30.269531 0 37.175781 L 0.632812 37.570312 C 6.394531 30.703125 6.75 20.988281 6.75 13.84375 L 6.75 5.238281 L 35.449219 5.238281 C 36 5.238281 36.394531 5.042969 36.515625 4.609375 C 35.210938 3.386719 33.121094 1.765625 33.121094 1.765625 Z M 42.542969 37.648438 L 43.054688 37.648438 C 44.003906 37.648438 45.070312 37.058594 45.070312 36.660156 L 45.070312 8.597656 C 46.09375 8.4375 46.410156 8.042969 46.527344 7.449219 L 42.542969 7.015625 Z M 44.675781 1.53125 C 46.410156 3.226562 48.582031 6.109375 49.25 8.28125 C 52.09375 10.136719 53.988281 4.371094 45.109375 1.214844 Z M 52.964844 15.070312 L 62.476562 15.070312 L 62.476562 25.332031 L 52.964844 25.332031 Z M 64.925781 15.542969 C 65.714844 15.386719 66.347656 15.070312 66.582031 14.753906 L 63.503906 12.34375 L 62.082031 13.921875 L 53.160156 13.921875 L 50.515625 12.699219 L 50.515625 30.664062 L 50.910156 30.664062 C 51.9375 30.664062 52.964844 30.109375 52.964844 29.875 L 52.964844 26.476562 L 62.476562 26.476562 L 62.476562 29.398438 L 62.832031 29.398438 C 63.660156 29.398438 64.886719 28.804688 64.925781 28.570312 Z M 71.59375 3.582031 L 70.292969 5.199219 L 53.4375 5.199219 L 53.792969 6.382812 L 70.6875 6.382812 L 70.6875 33.464844 C 70.6875 34.136719 70.449219 34.410156 69.621094 34.410156 C 68.714844 34.410156 64.132812 34.054688 64.132812 34.054688 L 64.132812 34.6875 C 66.109375 34.925781 67.214844 35.320312 67.886719 35.714844 C 68.4375 36.109375 68.714844 36.820312 68.832031 37.648438 C 72.742188 37.214844 73.175781 35.871094 73.175781 33.78125 L 73.175781 6.859375 C 73.964844 6.738281 74.597656 6.382812 74.871094 6.070312 Z M 104.03125 5.003906 C 103.832031 6.582031 103.558594 8.597656 103.320312 9.9375 L 100.835938 9.9375 L 98.386719 8.753906 L 98.386719 26.636719 L 98.78125 26.636719 C 99.691406 26.636719 100.636719 26.042969 100.636719 25.804688 L 100.636719 11.082031 L 110.542969 11.082031 L 110.542969 26.203125 L 110.859375 26.203125 C 111.652344 26.203125 112.796875 25.609375 112.835938 25.371094 L 112.835938 11.4375 C 113.507812 11.320312 114.097656 11.003906 114.335938 10.726562 L 111.453125 8.558594 L 110.1875 9.9375 L 104.546875 9.9375 C 105.414062 8.597656 106.363281 6.699219 107.109375 5.003906 L 114.613281 5.003906 C 115.164062 5.003906 115.558594 4.804688 115.675781 4.371094 C 114.375 3.148438 112.203125 1.492188 112.203125 1.492188 L 110.308594 3.859375 L 96.96875 3.859375 L 97.242188 5.003906 Z M 105.808594 25.570312 C 108.097656 27.265625 111.136719 30.1875 112.046875 32.4375 C 114.886719 33.898438 115.992188 28.054688 106.203125 25.253906 Z M 104.269531 12.9375 C 104.191406 23.714844 104.152344 28.609375 95.898438 32.203125 L 96.292969 32.953125 C 106.164062 29.714844 106.164062 24.265625 106.480469 14.671875 C 107.347656 14.671875 107.742188 14.320312 107.902344 13.84375 Z M 92.269531 8.953125 L 84.453125 8.953125 L 84.453125 4.882812 L 92.269531 4.882812 Z M 84.453125 10.097656 L 92.269531 10.097656 L 92.269531 14.164062 L 84.453125 14.164062 Z M 84.453125 15.347656 L 92.269531 15.347656 L 92.269531 16.570312 L 92.664062 16.570312 C 93.492188 16.570312 94.714844 16.058594 94.753906 15.78125 L 94.753906 5.398438 C 95.542969 5.199219 96.175781 4.882812 96.453125 4.570312 L 93.292969 2.160156 L 91.875 3.699219 L 84.648438 3.699219 L 82.007812 2.515625 L 82.007812 17.042969 L 82.402344 17.042969 C 83.386719 17.042969 84.453125 16.453125 84.453125 16.175781 Z M 90.097656 26.636719 L 96.371094 26.636719 C 96.925781 26.636719 97.324219 26.4375 97.402344 26.003906 C 96.292969 24.859375 94.480469 23.398438 94.480469 23.398438 L 92.898438 25.453125 L 90.097656 25.453125 L 90.097656 20.160156 L 96.453125 20.160156 C 97.007812 20.160156 97.363281 19.964844 97.480469 19.53125 C 96.253906 18.386719 94.398438 16.886719 94.398438 16.886719 L 92.742188 18.976562 L 79.164062 18.976562 L 79.476562 20.160156 L 87.648438 20.160156 L 87.648438 31.648438 C 86.230469 30.664062 85.003906 29.28125 83.980469 27.386719 C 84.175781 26.28125 84.335938 25.214844 84.453125 24.1875 C 85.359375 24.070312 85.792969 23.675781 85.875 23.125 L 82.125 22.726562 C 82.007812 27.582031 81.175781 33.542969 78.964844 37.136719 L 79.4375 37.648438 C 81.6875 35.320312 82.992188 31.964844 83.78125 28.570312 C 87.097656 35.320312 92.070312 36.660156 101.230469 36.660156 L 113.941406 36.660156 C 114.058594 35.675781 114.613281 34.847656 115.714844 34.648438 L 115.675781 34.097656 C 112.203125 34.175781 104.664062 34.175781 101.347656 34.175781 C 96.609375 34.175781 92.941406 33.9375 90.097656 32.871094 Z M 90.097656 26.636719 "/>
<path style=" stroke:none;fill-rule:nonzero;fill:rgb(100%,100%,100%);fill-opacity:1;" d="M 300.730469 3.472656 L 299.113281 5.089844 L 286.441406 5.089844 L 286.796875 6.273438 L 299.308594 6.273438 C 298.640625 9.90625 297.574219 13.734375 296.113281 17.445312 C 294.21875 15.15625 291.847656 12.75 289.085938 10.539062 L 288.492188 10.894531 C 291.058594 13.300781 293.386719 16.421875 295.28125 19.578125 C 292.914062 25.144531 289.71875 30.433594 285.730469 34.5 L 286.28125 34.972656 C 290.785156 31.34375 294.179688 26.878906 296.664062 22.027344 C 298.125 24.828125 299.191406 27.472656 299.746094 29.527344 C 301.242188 32.960938 303.808594 30.90625 301.519531 25.578125 C 300.652344 23.761719 299.429688 21.75 297.851562 19.578125 C 299.785156 15.355469 301.125 10.894531 302.035156 6.707031 C 302.902344 6.628906 303.296875 6.511719 303.574219 6.15625 Z M 303.375 15.75 C 305.902344 18.078125 307.203125 21.707031 307.953125 23.960938 C 310.519531 26.25 312.730469 19.300781 303.769531 15.355469 Z M 317.429688 10.027344 L 316.285156 10.027344 L 316.285156 1.972656 C 317.230469 1.816406 317.625 1.460938 317.742188 0.867188 L 313.71875 0.433594 L 313.71875 10.027344 L 301.875 10.027344 L 302.191406 11.210938 L 313.71875 11.210938 L 313.71875 32.132812 C 313.71875 32.800781 313.480469 33.078125 312.613281 33.078125 C 311.703125 33.078125 306.808594 32.722656 306.808594 32.722656 L 306.808594 33.355469 C 308.902344 33.589844 310.046875 33.945312 310.757812 34.421875 C 311.386719 34.816406 311.664062 35.523438 311.824219 36.355469 C 315.808594 35.921875 316.285156 34.539062 316.285156 32.40625 L 316.285156 11.210938 L 321.296875 11.210938 C 321.851562 11.210938 322.207031 11.011719 322.324219 10.578125 C 321.179688 9.316406 319.167969 7.578125 319.167969 7.578125 Z M 334.035156 0.277344 C 332.0625 7.695312 328.667969 15.238281 325.390625 20.011719 L 325.945312 20.40625 C 327.601562 18.75 329.183594 16.738281 330.640625 14.484375 L 330.640625 36.355469 L 331.15625 36.355469 C 332.0625 36.355469 333.089844 35.761719 333.167969 35.605469 L 333.167969 12.039062 C 333.839844 11.917969 334.234375 11.683594 334.390625 11.328125 L 332.851562 10.734375 C 334.273438 8.09375 335.535156 5.25 336.601562 2.289062 C 337.511719 2.328125 337.984375 2.011719 338.140625 1.578125 Z M 341.417969 9.789062 L 347.261719 9.789062 L 347.261719 14.683594 L 341.417969 14.683594 Z M 347.261719 8.644531 L 341.417969 8.644531 L 341.417969 3.867188 L 347.261719 3.867188 Z M 356.023438 8.644531 L 349.707031 8.644531 L 349.707031 3.867188 L 356.023438 3.867188 Z M 349.707031 9.789062 L 356.023438 9.789062 L 356.023438 14.683594 L 349.707031 14.683594 Z M 358.945312 18.433594 L 357.71875 19.933594 L 349.707031 19.933594 L 349.707031 15.789062 L 356.023438 15.789062 L 356.023438 17.605469 L 356.417969 17.605469 C 357.640625 17.605469 358.550781 17.050781 358.550781 16.855469 L 358.550781 4.0625 C 359.339844 3.945312 359.773438 3.710938 360.011719 3.394531 L 357.167969 1.222656 L 355.867188 2.722656 L 341.890625 2.722656 L 338.929688 1.5 L 338.929688 18 L 339.324219 18 C 340.628906 18 341.417969 17.40625 341.417969 17.210938 L 341.417969 15.789062 L 347.261719 15.789062 L 347.261719 19.933594 L 339.523438 19.933594 L 336.761719 18.671875 L 336.761719 36.195312 L 337.195312 36.195312 C 338.261719 36.195312 339.285156 35.605469 339.285156 35.328125 L 339.285156 21.117188 L 347.261719 21.117188 L 347.261719 27 C 344.339844 27.195312 341.929688 27.316406 340.511719 27.355469 L 341.890625 30.828125 C 342.285156 30.75 342.679688 30.433594 342.878906 29.960938 C 347.773438 28.894531 351.40625 27.984375 354.128906 27.273438 C 354.484375 28.339844 354.761719 29.410156 354.800781 30.355469 C 356.890625 32.328125 359.105469 27.433594 352.550781 22.65625 L 351.996094 22.855469 C 352.628906 23.882812 353.300781 25.183594 353.851562 26.527344 L 349.707031 26.800781 L 349.707031 21.117188 L 358.074219 21.117188 L 358.074219 32.40625 C 358.074219 32.921875 357.917969 33.15625 357.285156 33.15625 C 356.496094 33.15625 352.984375 32.882812 352.984375 32.882812 L 352.984375 33.511719 C 354.601562 33.75 355.429688 34.027344 355.984375 34.460938 C 356.457031 34.816406 356.65625 35.445312 356.773438 36.195312 C 360.207031 35.878906 360.601562 34.65625 360.601562 32.683594 L 360.601562 21.589844 C 361.390625 21.433594 361.984375 21.117188 362.261719 20.800781 Z M 367.894531 36.433594 L 368.40625 36.433594 C 369.355469 36.433594 370.421875 35.839844 370.421875 35.445312 L 370.421875 7.382812 C 371.445312 7.222656 371.761719 6.828125 371.878906 6.234375 L 367.894531 5.800781 Z M 370.027344 0.316406 C 371.761719 2.011719 373.933594 4.894531 374.605469 7.0625 C 377.449219 8.921875 379.339844 3.15625 370.460938 0 Z M 378.316406 13.851562 L 387.828125 13.851562 L 387.828125 24.117188 L 378.316406 24.117188 Z M 390.273438 14.328125 C 391.066406 14.167969 391.699219 13.851562 391.933594 13.539062 L 388.855469 11.128906 L 387.433594 12.710938 L 378.511719 12.710938 L 375.867188 11.484375 L 375.867188 29.449219 L 376.261719 29.449219 C 377.289062 29.449219 378.316406 28.894531 378.316406 28.65625 L 378.316406 25.261719 L 387.828125 25.261719 L 387.828125 28.183594 L 388.183594 28.183594 C 389.011719 28.183594 390.234375 27.589844 390.273438 27.355469 Z M 396.945312 2.367188 L 395.644531 3.984375 L 378.789062 3.984375 L 379.144531 5.167969 L 396.039062 5.167969 L 396.039062 32.25 C 396.039062 32.921875 395.800781 33.195312 394.972656 33.195312 C 394.066406 33.195312 389.484375 32.84375 389.484375 32.84375 L 389.484375 33.472656 C 391.460938 33.710938 392.566406 34.105469 393.238281 34.5 C 393.789062 34.894531 394.066406 35.605469 394.183594 36.433594 C 398.09375 36 398.527344 34.65625 398.527344 32.566406 L 398.527344 5.644531 C 399.316406 5.523438 399.949219 5.167969 400.222656 4.855469 Z M 429.382812 3.789062 C 429.1875 5.367188 428.910156 7.382812 428.671875 8.722656 L 426.1875 8.722656 L 423.738281 7.539062 L 423.738281 25.421875 L 424.132812 25.421875 C 425.042969 25.421875 425.988281 24.828125 425.988281 24.59375 L 425.988281 9.867188 L 435.898438 9.867188 L 435.898438 24.988281 L 436.210938 24.988281 C 437 24.988281 438.148438 24.394531 438.1875 24.15625 L 438.1875 10.222656 C 438.859375 10.105469 439.449219 9.789062 439.6875 9.511719 L 436.804688 7.34375 L 435.542969 8.722656 L 429.894531 8.722656 C 430.765625 7.382812 431.714844 5.484375 432.464844 3.789062 L 439.964844 3.789062 C 440.515625 3.789062 440.910156 3.589844 441.027344 3.15625 C 439.726562 1.933594 437.554688 0.277344 437.554688 0.277344 L 435.660156 2.644531 L 422.316406 2.644531 L 422.59375 3.789062 Z M 431.160156 24.355469 C 433.449219 26.050781 436.488281 28.972656 437.394531 31.222656 C 440.238281 32.683594 441.34375 26.839844 431.554688 24.039062 Z M 429.621094 11.722656 C 429.539062 22.5 429.5 27.394531 421.25 30.988281 L 421.644531 31.738281 C 431.515625 28.5 431.515625 23.054688 431.832031 13.457031 C 432.699219 13.457031 433.09375 13.105469 433.253906 12.628906 Z M 417.621094 7.738281 L 409.804688 7.738281 L 409.804688 3.667969 L 417.621094 3.667969 Z M 409.804688 8.882812 L 417.621094 8.882812 L 417.621094 12.949219 L 409.804688 12.949219 Z M 409.804688 14.128906 L 417.621094 14.128906 L 417.621094 15.355469 L 418.015625 15.355469 C 418.84375 15.355469 420.066406 14.84375 420.105469 14.566406 L 420.105469 4.183594 C 420.894531 3.984375 421.527344 3.667969 421.804688 3.355469 L 418.648438 0.945312 L 417.226562 2.484375 L 410.003906 2.484375 L 407.355469 1.300781 L 407.355469 15.828125 L 407.75 15.828125 C 408.738281 15.828125 409.804688 15.238281 409.804688 14.960938 Z M 415.449219 25.421875 L 421.726562 25.421875 C 422.277344 25.421875 422.671875 25.222656 422.75 24.789062 C 421.644531 23.644531 419.832031 22.183594 419.832031 22.183594 L 418.253906 24.238281 L 415.449219 24.238281 L 415.449219 18.945312 L 421.804688 18.945312 C 422.355469 18.945312 422.710938 18.75 422.832031 18.316406 C 421.605469 17.171875 419.75 15.671875 419.75 15.671875 L 418.09375 17.761719 L 404.515625 17.761719 L 404.832031 18.945312 L 413 18.945312 L 413 30.433594 C 411.582031 29.449219 410.355469 28.066406 409.332031 26.171875 C 409.527344 25.066406 409.6875 24 409.804688 22.972656 C 410.710938 22.855469 411.148438 22.460938 411.226562 21.910156 L 407.472656 21.511719 C 407.355469 26.367188 406.527344 32.328125 404.316406 35.921875 L 404.789062 36.433594 C 407.039062 34.105469 408.34375 30.75 409.132812 27.355469 C 412.449219 34.105469 417.421875 35.445312 426.582031 35.445312 L 439.292969 35.445312 C 439.410156 34.460938 439.964844 33.632812 441.070312 33.433594 L 441.027344 32.882812 C 437.554688 32.960938 430.015625 32.960938 426.699219 32.960938 C 421.960938 32.960938 418.292969 32.722656 415.449219 31.65625 Z M 415.449219 25.421875 "/>
<path style=" stroke:none;fill-rule:nonzero;fill:rgb(100%,100%,100%);fill-opacity:1;" d="M 79.625 319.484375 C 80.046875 319.398438 80.253906 319.167969 80.253906 318.796875 L 80.074219 318.34375 L 79.625 318.152344 C 78.777344 318.152344 78.175781 318.117188 77.820312 318.050781 C 77.464844 317.984375 77.203125 317.796875 77.039062 317.496094 C 76.875 317.195312 76.792969 316.699219 76.792969 316.007812 L 76.792969 307.816406 L 78.21875 307.816406 C 78.535156 307.839844 79.015625 307.855469 79.664062 307.855469 C 80.855469 307.855469 82.050781 307.722656 83.25 307.457031 C 84.449219 307.191406 85.5625 306.765625 86.589844 306.1875 C 87.617188 305.605469 88.429688 304.855469 89.023438 303.941406 C 89.621094 303.027344 89.917969 301.9375 89.917969 300.679688 C 89.917969 298.910156 89.425781 297.488281 88.441406 296.414062 C 87.460938 295.339844 86.207031 294.582031 84.683594 294.152344 C 83.160156 293.71875 81.507812 293.5 79.730469 293.5 L 67.8125 293.5 C 67.394531 293.589844 67.183594 293.804688 67.183594 294.148438 L 67.363281 294.601562 L 67.8125 294.835938 C 68.636719 294.835938 69.210938 294.867188 69.535156 294.9375 C 69.855469 295.003906 70.085938 295.183594 70.21875 295.472656 C 70.351562 295.765625 70.417969 296.273438 70.417969 297.003906 L 70.417969 315.910156 C 70.417969 316.664062 70.363281 317.191406 70.246094 317.484375 C 70.132812 317.78125 69.925781 317.964844 69.621094 318.039062 C 69.316406 318.113281 68.75 318.152344 67.925781 318.152344 L 67.8125 318.152344 C 67.394531 318.238281 67.183594 318.453125 67.183594 318.796875 L 67.375 319.261719 L 67.8125 319.484375 Z M 71.789062 316.003906 L 71.789062 297.003906 C 71.789062 296.015625 71.6875 295.292969 71.480469 294.835938 L 75.9375 294.835938 C 75.59375 295.269531 75.421875 295.75 75.421875 296.28125 L 75.421875 316.003906 C 75.421875 316.917969 75.535156 317.632812 75.761719 318.152344 L 71.480469 318.152344 C 71.6875 317.695312 71.789062 316.980469 71.789062 316.003906 M 76.792969 296.351562 C 76.792969 295.859375 77.023438 295.484375 77.488281 295.222656 C 77.949219 294.964844 78.441406 294.835938 78.960938 294.835938 C 80.242188 294.835938 81.1875 295.078125 81.792969 295.566406 C 82.402344 296.054688 82.789062 296.691406 82.957031 297.484375 C 83.121094 298.273438 83.203125 299.335938 83.203125 300.667969 C 83.203125 301.855469 83.105469 302.863281 82.910156 303.699219 C 82.710938 304.53125 82.300781 305.203125 81.671875 305.714844 C 81.042969 306.226562 80.125 306.484375 78.921875 306.484375 L 76.792969 306.484375 Z M 84.574219 300.667969 C 84.574219 299.46875 84.492188 298.417969 84.335938 297.5 C 84.175781 296.585938 83.855469 295.8125 83.375 295.167969 C 86.824219 295.921875 88.550781 297.757812 88.550781 300.667969 C 88.550781 302.101562 88.046875 303.269531 87.046875 304.175781 C 86.042969 305.085938 84.75 305.738281 83.164062 306.132812 C 84.101562 304.996094 84.574219 303.175781 84.574219 300.667969 "/>
<path style=" stroke:none;fill-rule:nonzero;fill:rgb(100%,100%,100%);fill-opacity:1;" d="M 73.027344 288.171875 C 73.996094 287.011719 75.003906 286.429688 76.050781 286.429688 C 76.550781 286.429688 77.097656 286.570312 77.6875 286.859375 C 78.28125 287.144531 78.875 287.4375 79.46875 287.730469 C 80.0625 288.023438 80.609375 288.171875 81.105469 288.171875 C 82.113281 288.171875 83.136719 287.589844 84.167969 286.429688 L 85.300781 285.152344 L 84.515625 284.503906 C 83.542969 285.640625 82.535156 286.207031 81.488281 286.207031 C 80.992188 286.207031 80.445312 286.066406 79.851562 285.78125 C 79.257812 285.496094 78.664062 285.210938 78.070312 284.929688 C 77.476562 284.644531 76.933594 284.503906 76.433594 284.503906 C 75.414062 284.503906 74.394531 285.074219 73.371094 286.207031 L 72.242188 287.515625 Z M 73.027344 288.171875 "/>
<g clip-path="url(#clip1)" clip-rule="nonzero">
<path style=" stroke:none;fill-rule:nonzero;fill:rgb(100%,100%,100%);fill-opacity:1;" d="M 8.40625 344.316406 C 9.394531 345.578125 10.261719 347.472656 10.261719 349.089844 C 12.238281 350.867188 14.488281 347.078125 9.90625 344.316406 L 17.800781 344.316406 C 18.355469 344.316406 18.710938 344.117188 18.789062 343.722656 C 17.644531 342.617188 15.828125 341.117188 15.828125 341.117188 L 14.210938 343.210938 L 7.5 343.210938 C 8.011719 342.421875 8.488281 341.632812 8.921875 340.761719 C 9.789062 340.882812 10.261719 340.5625 10.382812 340.128906 L 6.828125 338.667969 C 5.289062 343.050781 2.839844 347.039062 0.355469 349.445312 L 0.867188 349.882812 C 2.960938 348.578125 5.015625 346.644531 6.75 344.316406 Z M 8.84375 364.40625 C 10.734375 365.988281 12.949219 368.75 13.460938 370.960938 C 16.261719 372.894531 18.15625 366.816406 9.277344 364.09375 Z M 30.554688 362.273438 L 26.527344 362.273438 L 26.527344 359.589844 C 27.394531 359.472656 27.75 359.15625 27.871094 358.605469 L 23.960938 358.171875 L 23.960938 362.273438 L 1.777344 362.273438 L 2.132812 363.421875 L 23.960938 363.421875 L 23.960938 370.882812 C 23.960938 371.511719 23.722656 371.710938 22.933594 371.710938 C 21.949219 371.710938 16.777344 371.394531 16.777344 371.394531 L 16.777344 371.988281 C 18.984375 372.261719 20.171875 372.578125 20.921875 373.050781 C 21.515625 373.445312 21.789062 374.117188 21.949219 374.90625 C 26.089844 374.511719 26.527344 373.210938 26.527344 371.039062 L 26.527344 363.421875 L 34.542969 363.421875 C 35.09375 363.421875 35.488281 363.222656 35.566406 362.789062 C 34.34375 361.644531 32.328125 360.105469 32.328125 360.105469 Z M 31.382812 356.789062 L 19.660156 356.789062 L 19.660156 352.445312 L 32.289062 352.445312 C 32.84375 352.445312 33.195312 352.25 33.316406 351.816406 C 32.09375 350.671875 30.160156 349.25 30.160156 349.25 L 28.460938 351.261719 L 19.660156 351.261719 L 19.660156 348.777344 C 20.410156 348.65625 20.683594 348.34375 20.765625 347.867188 L 18.234375 347.589844 C 19.261719 346.644531 20.25 345.539062 21.160156 344.316406 L 24.039062 344.316406 C 25.261719 345.617188 26.367188 347.511719 26.527344 349.210938 C 28.699219 350.90625 30.789062 346.878906 25.933594 344.316406 L 35.09375 344.316406 C 35.644531 344.316406 36.039062 344.117188 36.160156 343.722656 C 34.855469 342.539062 32.84375 340.960938 32.84375 340.960938 L 31.027344 343.210938 L 21.949219 343.210938 C 22.5 342.421875 23.011719 341.589844 23.449219 340.722656 C 24.277344 340.84375 24.789062 340.523438 24.988281 340.089844 L 21.277344 338.628906 C 20.015625 342.5 17.921875 346.25 15.988281 348.539062 L 16.539062 348.972656 L 17.09375 348.539062 L 17.09375 351.261719 L 4.378906 351.261719 L 4.738281 352.445312 L 17.09375 352.445312 L 17.09375 356.789062 L 0.394531 356.789062 L 0.710938 357.894531 L 35.449219 357.894531 C 35.960938 357.894531 36.316406 357.695312 36.433594 357.261719 C 35.210938 356.117188 33.15625 354.578125 33.15625 354.578125 Z M 47.121094 349.210938 C 48.542969 346.5625 49.804688 343.683594 50.910156 340.761719 C 51.78125 340.761719 52.253906 340.484375 52.410156 340.011719 L 48.304688 338.707031 C 46.332031 346.289062 42.855469 353.945312 39.464844 358.761719 L 40.015625 359.15625 C 41.75 357.421875 43.410156 355.289062 44.949219 352.878906 L 44.949219 374.828125 L 45.425781 374.828125 C 46.410156 374.828125 47.476562 374.15625 47.515625 373.960938 L 47.515625 350.511719 C 48.1875 350.433594 48.582031 350.15625 48.699219 349.800781 Z M 55.882812 358.839844 C 55.882812 364.328125 54.699219 370.328125 48.148438 374.316406 L 48.542969 374.828125 C 56.988281 371.160156 58.449219 364.644531 58.488281 358.921875 L 58.488281 353.628906 C 59.476562 353.511719 59.714844 353.117188 59.832031 352.605469 L 55.882812 352.167969 Z M 66.1875 374.789062 L 66.703125 374.789062 C 67.6875 374.789062 68.792969 374.238281 68.792969 373.882812 L 68.792969 353.589844 C 69.738281 353.433594 70.09375 353.078125 70.175781 352.523438 L 66.1875 352.089844 Z M 60.820312 338.75 C 59.359375 344.15625 53.476562 351.421875 48.1875 355.011719 L 48.542969 355.566406 C 54.542969 352.367188 60.304688 346.644531 62.988281 340.921875 C 65.042969 346.5625 69.425781 351.460938 74.398438 354.539062 C 74.675781 353.589844 75.542969 352.800781 76.609375 352.566406 L 76.648438 352.011719 C 71.277344 349.488281 66.226562 345.339844 63.699219 340.484375 C 64.609375 340.40625 65.042969 340.207031 65.160156 339.773438 Z M 82.003906 374.90625 L 82.515625 374.90625 C 83.464844 374.90625 84.53125 374.316406 84.53125 373.921875 L 84.53125 345.855469 C 85.558594 345.695312 85.875 345.300781 85.992188 344.710938 L 82.003906 344.273438 Z M 84.136719 338.789062 C 85.875 340.484375 88.042969 343.367188 88.714844 345.539062 C 91.558594 347.394531 93.453125 341.632812 84.570312 338.472656 Z M 92.425781 352.328125 L 101.941406 352.328125 L 101.941406 362.589844 L 92.425781 362.589844 Z M 104.386719 352.800781 C 105.175781 352.644531 105.808594 352.328125 106.046875 352.011719 L 102.964844 349.605469 L 101.546875 351.183594 L 92.625 351.183594 L 89.976562 349.960938 L 89.976562 367.921875 L 90.371094 367.921875 C 91.402344 367.921875 92.425781 367.367188 92.425781 367.128906 L 92.425781 363.738281 L 101.941406 363.738281 L 101.941406 366.65625 L 102.296875 366.65625 C 103.125 366.65625 104.347656 366.066406 104.386719 365.828125 Z M 111.058594 340.84375 L 109.753906 342.460938 L 92.902344 342.460938 L 93.253906 343.644531 L 110.148438 343.644531 L 110.148438 370.722656 C 110.148438 371.394531 109.914062 371.671875 109.085938 371.671875 C 108.175781 371.671875 103.597656 371.316406 103.597656 371.316406 L 103.597656 371.949219 C 105.570312 372.183594 106.675781 372.578125 107.347656 372.972656 C 107.902344 373.367188 108.175781 374.078125 108.296875 374.90625 C 112.203125 374.472656 112.636719 373.132812 112.636719 371.039062 L 112.636719 344.117188 C 113.429688 344 114.058594 343.644531 114.335938 343.328125 Z M 143.496094 342.261719 C 143.296875 343.839844 143.019531 345.855469 142.785156 347.195312 L 140.296875 347.195312 L 137.851562 346.011719 L 137.851562 363.894531 L 138.246094 363.894531 C 139.152344 363.894531 140.101562 363.304688 140.101562 363.066406 L 140.101562 348.34375 L 150.007812 348.34375 L 150.007812 363.460938 L 150.324219 363.460938 C 151.113281 363.460938 152.257812 362.867188 152.296875 362.628906 L 152.296875 348.695312 C 152.96875 348.578125 153.5625 348.261719 153.796875 347.984375 L 150.914062 345.8125 L 149.652344 347.195312 L 144.007812 347.195312 C 144.875 345.855469 145.824219 343.960938 146.574219 342.261719 L 154.074219 342.261719 C 154.628906 342.261719 155.023438 342.066406 155.140625 341.632812 C 153.839844 340.40625 151.664062 338.75 151.664062 338.75 L 149.769531 341.117188 L 136.429688 341.117188 L 136.703125 342.261719 Z M 145.273438 362.828125 C 147.5625 364.527344 150.601562 367.445312 151.507812 369.695312 C 154.351562 371.160156 155.457031 365.316406 145.667969 362.511719 Z M 143.730469 350.195312 C 143.652344 360.972656 143.613281 365.867188 135.363281 369.460938 L 135.757812 370.210938 C 145.628906 366.972656 145.628906 361.523438 145.945312 351.933594 C 146.8125 351.933594 147.207031 351.578125 147.363281 351.105469 Z M 131.730469 346.207031 L 123.917969 346.207031 L 123.917969 342.140625 L 131.730469 342.140625 Z M 123.917969 347.351562 L 131.730469 347.351562 L 131.730469 351.421875 L 123.917969 351.421875 Z M 123.917969 352.605469 L 131.730469 352.605469 L 131.730469 353.828125 L 132.128906 353.828125 C 132.957031 353.828125 134.179688 353.3125 134.21875 353.039062 L 134.21875 342.65625 C 135.007812 342.460938 135.640625 342.144531 135.914062 341.828125 L 132.757812 339.417969 L 131.335938 340.960938 L 124.113281 340.960938 L 121.46875 339.773438 L 121.46875 354.300781 L 121.863281 354.300781 C 122.847656 354.300781 123.917969 353.707031 123.917969 353.433594 Z M 129.558594 363.894531 L 135.835938 363.894531 C 136.390625 363.894531 136.785156 363.699219 136.863281 363.261719 C 135.757812 362.117188 133.941406 360.65625 133.941406 360.65625 L 132.363281 362.710938 L 129.558594 362.710938 L 129.558594 357.421875 L 135.914062 357.421875 C 136.46875 357.421875 136.824219 357.222656 136.941406 356.789062 C 135.71875 355.644531 133.863281 354.144531 133.863281 354.144531 L 132.207031 356.238281 L 118.625 356.238281 L 118.941406 357.421875 L 127.113281 357.421875 L 127.113281 368.90625 C 125.691406 367.921875 124.46875 366.539062 123.441406 364.644531 C 123.640625 363.539062 123.796875 362.472656 123.917969 361.445312 C 124.824219 361.328125 125.257812 360.933594 125.335938 360.378906 L 121.585938 359.984375 C 121.46875 364.84375 120.640625 370.804688 118.429688 374.394531 L 118.902344 374.90625 C 121.152344 372.578125 122.453125 369.222656 123.246094 365.828125 C 126.558594 372.578125 131.535156 373.921875 140.691406 373.921875 L 153.402344 373.921875 C 153.523438 372.933594 154.074219 372.105469 155.179688 371.90625 L 155.140625 371.355469 C 151.664062 371.433594 144.125 371.433594 140.8125 371.433594 C 136.074219 371.433594 132.402344 371.199219 129.558594 370.132812 Z M 129.558594 363.894531 "/>
</g>
<path style=" stroke:none;fill-rule:nonzero;fill:rgb(100%,100%,100%);fill-opacity:1;" d="M 294.296875 341.277344 C 295.28125 342.539062 296.152344 344.433594 296.152344 346.054688 C 298.125 347.832031 300.375 344.039062 295.796875 341.277344 L 303.691406 341.277344 C 304.242188 341.277344 304.597656 341.082031 304.675781 340.6875 C 303.53125 339.582031 301.71875 338.082031 301.71875 338.082031 L 300.101562 340.171875 L 293.390625 340.171875 C 293.902344 339.382812 294.375 338.59375 294.808594 337.726562 C 295.675781 337.84375 296.152344 337.527344 296.269531 337.09375 L 292.71875 335.632812 C 291.179688 340.015625 288.730469 344 286.242188 346.410156 L 286.757812 346.84375 C 288.847656 345.542969 290.902344 343.605469 292.640625 341.277344 Z M 294.730469 361.371094 C 296.625 362.949219 298.835938 365.710938 299.351562 367.925781 C 302.152344 369.859375 304.046875 363.777344 295.164062 361.054688 Z M 316.441406 359.238281 L 312.414062 359.238281 L 312.414062 356.554688 C 313.285156 356.4375 313.640625 356.121094 313.757812 355.566406 L 309.847656 355.132812 L 309.847656 359.238281 L 287.664062 359.238281 L 288.019531 360.386719 L 309.847656 360.386719 L 309.847656 367.84375 C 309.847656 368.476562 309.613281 368.675781 308.824219 368.675781 C 307.835938 368.675781 302.664062 368.359375 302.664062 368.359375 L 302.664062 368.949219 C 304.875 369.226562 306.0625 369.542969 306.8125 370.015625 C 307.402344 370.410156 307.679688 371.082031 307.835938 371.871094 C 311.980469 371.476562 312.414062 370.175781 312.414062 368.003906 L 312.414062 360.386719 L 320.429688 360.386719 C 320.980469 360.386719 321.378906 360.1875 321.457031 359.753906 C 320.234375 358.605469 318.21875 357.066406 318.21875 357.066406 Z M 317.269531 353.753906 L 305.546875 353.753906 L 305.546875 349.410156 L 318.179688 349.410156 C 318.730469 349.410156 319.085938 349.210938 319.203125 348.777344 C 317.980469 347.632812 316.046875 346.214844 316.046875 346.214844 L 314.351562 348.226562 L 305.546875 348.226562 L 305.546875 345.738281 C 306.296875 345.621094 306.574219 345.304688 306.652344 344.828125 L 304.125 344.554688 C 305.152344 343.605469 306.140625 342.5 307.046875 341.277344 L 309.929688 341.277344 C 311.152344 342.582031 312.257812 344.476562 312.414062 346.171875 C 314.585938 347.871094 316.679688 343.84375 311.824219 341.277344 L 320.980469 341.277344 C 321.535156 341.277344 321.929688 341.082031 322.046875 340.6875 C 320.746094 339.503906 318.730469 337.921875 318.730469 337.921875 L 316.914062 340.171875 L 307.835938 340.171875 C 308.390625 339.382812 308.902344 338.554688 309.335938 337.6875 C 310.164062 337.804688 310.679688 337.488281 310.875 337.054688 L 307.164062 335.59375 C 305.902344 339.460938 303.808594 343.210938 301.875 345.503906 L 302.429688 345.9375 L 302.980469 345.503906 L 302.980469 348.226562 L 290.269531 348.226562 L 290.625 349.410156 L 302.980469 349.410156 L 302.980469 353.753906 L 286.285156 353.753906 L 286.597656 354.859375 L 321.335938 354.859375 C 321.851562 354.859375 322.207031 354.660156 322.324219 354.226562 C 321.101562 353.082031 319.046875 351.539062 319.046875 351.539062 Z M 333.011719 346.171875 C 334.429688 343.527344 335.691406 340.648438 336.796875 337.726562 C 337.667969 337.726562 338.140625 337.449219 338.300781 336.972656 L 334.195312 335.671875 C 332.21875 343.25 328.746094 350.910156 325.351562 355.726562 L 325.902344 356.121094 C 327.640625 354.382812 329.296875 352.25 330.839844 349.84375 L 330.839844 371.792969 L 331.3125 371.792969 C 332.300781 371.792969 333.363281 371.121094 333.40625 370.921875 L 333.40625 347.476562 C 334.074219 347.398438 334.46875 347.121094 334.589844 346.765625 Z M 341.773438 355.804688 C 341.773438 361.292969 340.589844 367.292969 334.035156 371.277344 L 334.429688 371.792969 C 342.878906 368.121094 344.339844 361.609375 344.378906 355.882812 L 344.378906 350.59375 C 345.367188 350.476562 345.601562 350.082031 345.722656 349.566406 L 341.773438 349.132812 Z M 352.074219 371.753906 L 352.589844 371.753906 C 353.578125 371.753906 354.683594 371.199219 354.683594 370.84375 L 354.683594 350.554688 C 355.628906 350.394531 355.984375 350.042969 356.0625 349.488281 L 352.074219 349.054688 Z M 346.707031 335.710938 C 345.246094 341.121094 339.367188 348.382812 334.074219 351.976562 L 334.429688 352.53125 C 340.429688 349.332031 346.195312 343.605469 348.878906 337.882812 C 350.929688 343.527344 355.3125 348.421875 360.289062 351.5 C 360.5625 350.554688 361.433594 349.765625 362.496094 349.527344 L 362.535156 348.976562 C 357.167969 346.449219 352.113281 342.304688 349.589844 337.449219 C 350.496094 337.367188 350.929688 337.171875 351.050781 336.738281 Z M 379.65625 338.910156 L 378.039062 340.527344 L 365.367188 340.527344 L 365.722656 341.710938 L 378.238281 341.710938 C 377.566406 345.34375 376.5 349.171875 375.039062 352.882812 C 373.144531 350.59375 370.777344 348.1875 368.011719 345.976562 L 367.417969 346.332031 C 369.988281 348.738281 372.316406 351.855469 374.210938 355.015625 C 371.839844 360.582031 368.644531 365.871094 364.65625 369.9375 L 365.210938 370.410156 C 369.710938 366.777344 373.105469 362.320312 375.589844 357.460938 C 377.054688 360.265625 378.117188 362.910156 378.671875 364.960938 C 380.171875 368.398438 382.734375 366.34375 380.445312 361.015625 C 379.578125 359.199219 378.355469 357.1875 376.773438 355.015625 C 378.710938 350.789062 380.050781 346.332031 380.960938 342.144531 C 381.828125 342.066406 382.222656 341.949219 382.5 341.59375 Z M 382.300781 351.1875 C 384.828125 353.515625 386.132812 357.148438 386.882812 359.394531 C 389.445312 361.6875 391.660156 354.738281 382.695312 350.789062 Z M 396.355469 345.464844 L 395.210938 345.464844 L 395.210938 337.410156 C 396.15625 337.25 396.550781 336.894531 396.671875 336.304688 L 392.644531 335.871094 L 392.644531 345.464844 L 380.800781 345.464844 L 381.117188 346.648438 L 392.644531 346.648438 L 392.644531 367.570312 C 392.644531 368.242188 392.410156 368.515625 391.539062 368.515625 C 390.628906 368.515625 385.738281 368.160156 385.738281 368.160156 L 385.738281 368.792969 C 387.828125 369.03125 388.972656 369.382812 389.683594 369.859375 C 390.316406 370.253906 390.589844 370.964844 390.75 371.792969 C 394.738281 371.359375 395.210938 369.976562 395.210938 367.84375 L 395.210938 346.648438 L 400.222656 346.648438 C 400.777344 346.648438 401.132812 346.449219 401.25 346.015625 C 400.105469 344.75 398.089844 343.015625 398.089844 343.015625 Z M 412.960938 335.710938 C 410.988281 343.132812 407.59375 350.671875 404.316406 355.449219 L 404.871094 355.84375 C 406.527344 354.1875 408.105469 352.171875 409.570312 349.921875 L 409.570312 371.792969 L 410.082031 371.792969 C 410.988281 371.792969 412.015625 371.199219 412.09375 371.042969 L 412.09375 347.476562 C 412.765625 347.359375 413.160156 347.121094 413.316406 346.765625 L 411.777344 346.171875 C 413.199219 343.527344 414.460938 340.6875 415.527344 337.726562 C 416.4375 337.765625 416.910156 337.449219 417.070312 337.015625 Z M 420.34375 345.226562 L 426.1875 345.226562 L 426.1875 350.121094 L 420.34375 350.121094 Z M 426.1875 344.078125 L 420.34375 344.078125 L 420.34375 339.304688 L 426.1875 339.304688 Z M 434.949219 344.078125 L 428.632812 344.078125 L 428.632812 339.304688 L 434.949219 339.304688 Z M 428.632812 345.226562 L 434.949219 345.226562 L 434.949219 350.121094 L 428.632812 350.121094 Z M 437.871094 353.871094 L 436.648438 355.371094 L 428.632812 355.371094 L 428.632812 351.226562 L 434.949219 351.226562 L 434.949219 353.042969 L 435.34375 353.042969 C 436.566406 353.042969 437.476562 352.488281 437.476562 352.289062 L 437.476562 339.503906 C 438.265625 339.382812 438.699219 339.148438 438.9375 338.832031 L 436.09375 336.660156 L 434.792969 338.160156 L 420.816406 338.160156 L 417.859375 336.933594 L 417.859375 353.4375 L 418.253906 353.4375 C 419.554688 353.4375 420.34375 352.84375 420.34375 352.648438 L 420.34375 351.226562 L 426.1875 351.226562 L 426.1875 355.371094 L 418.449219 355.371094 L 415.683594 354.109375 L 415.683594 371.632812 L 416.121094 371.632812 C 417.1875 371.632812 418.214844 371.042969 418.214844 370.765625 L 418.214844 356.554688 L 426.1875 356.554688 L 426.1875 362.4375 C 423.265625 362.632812 420.855469 362.753906 419.4375 362.792969 L 420.816406 366.265625 C 421.210938 366.1875 421.605469 365.871094 421.804688 365.398438 C 426.699219 364.332031 430.332031 363.421875 433.054688 362.714844 C 433.410156 363.777344 433.6875 364.84375 433.726562 365.792969 C 435.816406 367.765625 438.027344 362.871094 431.476562 358.09375 L 430.921875 358.292969 C 431.554688 359.316406 432.226562 360.621094 432.78125 361.964844 L 428.632812 362.238281 L 428.632812 356.554688 L 437 356.554688 L 437 367.84375 C 437 368.359375 436.84375 368.59375 436.210938 368.59375 C 435.421875 368.59375 431.910156 368.320312 431.910156 368.320312 L 431.910156 368.949219 C 433.527344 369.1875 434.359375 369.464844 434.910156 369.898438 C 435.382812 370.253906 435.582031 370.882812 435.699219 371.632812 C 439.136719 371.320312 439.53125 370.09375 439.53125 368.121094 L 439.53125 357.027344 C 440.320312 356.871094 440.910156 356.554688 441.1875 356.238281 Z M 446.820312 371.871094 L 447.332031 371.871094 C 448.28125 371.871094 449.347656 371.277344 449.347656 370.882812 L 449.347656 342.816406 C 450.375 342.660156 450.6875 342.265625 450.808594 341.671875 L 446.820312 341.238281 Z M 448.953125 335.75 C 450.6875 337.449219 452.859375 340.332031 453.53125 342.5 C 456.375 344.355469 458.269531 338.59375 449.386719 335.433594 Z M 457.242188 349.292969 L 466.753906 349.292969 L 466.753906 359.554688 L 457.242188 359.554688 Z M 469.203125 349.765625 C 469.992188 349.605469 470.625 349.292969 470.859375 348.976562 L 467.78125 346.570312 L 466.359375 348.148438 L 457.4375 348.148438 L 454.792969 346.921875 L 454.792969 364.882812 L 455.1875 364.882812 C 456.214844 364.882812 457.242188 364.332031 457.242188 364.09375 L 457.242188 360.699219 L 466.753906 360.699219 L 466.753906 363.621094 L 467.109375 363.621094 C 467.9375 363.621094 469.164062 363.027344 469.203125 362.792969 Z M 475.875 337.804688 L 474.570312 339.421875 L 457.714844 339.421875 L 458.070312 340.605469 L 474.964844 340.605469 L 474.964844 367.6875 C 474.964844 368.359375 474.730469 368.636719 473.898438 368.636719 C 472.992188 368.636719 468.414062 368.28125 468.414062 368.28125 L 468.414062 368.910156 C 470.386719 369.148438 471.492188 369.542969 472.164062 369.9375 C 472.714844 370.332031 472.992188 371.042969 473.109375 371.871094 C 477.015625 371.4375 477.453125 370.09375 477.453125 368.003906 L 477.453125 341.082031 C 478.242188 340.960938 478.875 340.605469 479.152344 340.292969 Z M 508.308594 339.226562 C 508.113281 340.804688 507.835938 342.816406 507.597656 344.160156 L 505.113281 344.160156 L 502.667969 342.976562 L 502.667969 360.859375 L 503.0625 360.859375 C 503.96875 360.859375 504.914062 360.265625 504.914062 360.03125 L 504.914062 345.304688 L 514.824219 345.304688 L 514.824219 360.425781 L 515.140625 360.425781 C 515.929688 360.425781 517.074219 359.832031 517.113281 359.59375 L 517.113281 345.660156 C 517.785156 345.542969 518.378906 345.226562 518.613281 344.949219 L 515.730469 342.777344 L 514.46875 344.160156 L 508.824219 344.160156 C 509.691406 342.816406 510.640625 340.921875 511.390625 339.226562 L 518.890625 339.226562 C 519.441406 339.226562 519.835938 339.027344 519.957031 338.59375 C 518.652344 337.367188 516.480469 335.710938 516.480469 335.710938 L 514.585938 338.082031 L 501.242188 338.082031 L 501.519531 339.226562 Z M 510.085938 359.792969 C 512.375 361.488281 515.414062 364.410156 516.324219 366.660156 C 519.167969 368.121094 520.269531 362.277344 510.480469 359.476562 Z M 508.546875 347.160156 C 508.46875 357.9375 508.429688 362.832031 500.179688 366.421875 L 500.574219 367.175781 C 510.441406 363.9375 510.441406 358.488281 510.757812 348.898438 C 511.625 348.898438 512.019531 348.542969 512.179688 348.066406 Z M 496.546875 343.171875 L 488.730469 343.171875 L 488.730469 339.105469 L 496.546875 339.105469 Z M 488.730469 344.316406 L 496.546875 344.316406 L 496.546875 348.382812 L 488.730469 348.382812 Z M 488.730469 349.566406 L 496.546875 349.566406 L 496.546875 350.789062 L 496.941406 350.789062 C 497.769531 350.789062 498.992188 350.277344 499.035156 350 L 499.035156 339.621094 C 499.824219 339.421875 500.453125 339.109375 500.730469 338.792969 L 497.574219 336.382812 L 496.152344 337.921875 L 488.929688 337.921875 L 486.28125 336.738281 L 486.28125 351.265625 L 486.675781 351.265625 C 487.664062 351.265625 488.730469 350.671875 488.730469 350.394531 Z M 494.375 360.859375 L 500.652344 360.859375 C 501.203125 360.859375 501.597656 360.660156 501.675781 360.226562 C 500.574219 359.082031 498.757812 357.621094 498.757812 357.621094 L 497.179688 359.675781 L 494.375 359.675781 L 494.375 354.382812 L 500.730469 354.382812 C 501.28125 354.382812 501.636719 354.1875 501.757812 353.753906 C 500.53125 352.609375 498.679688 351.105469 498.679688 351.105469 L 497.019531 353.199219 L 483.441406 353.199219 L 483.757812 354.382812 L 491.929688 354.382812 L 491.929688 365.871094 C 490.507812 364.882812 489.285156 363.503906 488.257812 361.609375 C 488.457031 360.503906 488.613281 359.4375 488.730469 358.410156 C 489.640625 358.292969 490.074219 357.898438 490.152344 357.34375 L 486.402344 356.949219 C 486.28125 361.804688 485.453125 367.765625 483.242188 371.359375 L 483.71875 371.871094 C 485.96875 369.542969 487.269531 366.1875 488.0625 362.792969 C 491.375 369.542969 496.351562 370.882812 505.507812 370.882812 L 518.21875 370.882812 C 518.335938 369.898438 518.890625 369.070312 519.996094 368.871094 L 519.957031 368.320312 C 516.480469 368.398438 508.941406 368.398438 505.625 368.398438 C 500.886719 368.398438 497.21875 368.160156 494.375 367.097656 Z M 494.375 360.859375 "/>
</g>
</svg>
