<?xml version="1.0" encoding="UTF-8"?>
<svg xmlns="http://www.w3.org/2000/svg" xmlns:xlink="http://www.w3.org/1999/xlink" width="487.53pt" height="324.503pt" viewBox="0 0 487.53 324.503" version="1.1">
<defs>
<clipPath id="clip1">
  <path d="M 172 0 L 487.53125 0 L 487.53125 271 L 172 271 Z M 172 0 "/>
</clipPath>
<clipPath id="clip2">
  <path d="M 225 180 L 487.53125 180 L 487.53125 272 L 225 272 Z M 225 180 "/>
</clipPath>
<clipPath id="clip3">
  <path d="M 440 305 L 472 305 L 472 324.503906 L 440 324.503906 Z M 440 305 "/>
</clipPath>
</defs>
<g id="surface1">
<g clip-path="url(#clip1)" clip-rule="nonzero">
<path style=" stroke:none;fill-rule:nonzero;fill:rgb(100%,100%,20%);fill-opacity:0.5;" d="M 226.308594 270.554688 L 487.085938 181.675781 L 172.726562 0.265625 Z M 226.308594 270.554688 "/>
</g>
<path style=" stroke:none;fill-rule:nonzero;fill:rgb(100%,100%,0%);fill-opacity:1;" d="M 224.960938 270.820312 L 171.5625 0.53125 L 174.253906 0 L 227.652344 270.289062 "/>
<g clip-path="url(#clip2)" clip-rule="nonzero">
<path style=" stroke:none;fill-rule:nonzero;fill:rgb(100%,100%,0%);fill-opacity:1;" d="M 487.53125 182.976562 L 226.75 271.851562 L 225.863281 269.257812 L 486.644531 180.378906 "/>
</g>
<path style=" stroke:none;fill-rule:nonzero;fill:rgb(100%,100%,0%);fill-opacity:1;" d="M 224.230469 272.476562 L 242.519531 182.320312 L 245.207031 182.863281 L 226.917969 273.023438 "/>
<path style=" stroke:none;fill-rule:evenodd;fill:rgb(100%,100%,0%);fill-opacity:1;" d="M 249.53125 154.976562 L 233.988281 181.859375 L 253.371094 185.882812 Z M 249.53125 154.976562 "/>
<path style=" stroke:none;fill-rule:nonzero;fill:rgb(100%,100%,100%);fill-opacity:1;" d="M 0.546875 223.492188 L 444.203125 313.832031 L 443.65625 316.519531 L 0 226.179688 "/>
<g clip-path="url(#clip3)" clip-rule="nonzero">
<path style=" stroke:none;fill-rule:evenodd;fill:rgb(100%,100%,100%);fill-opacity:1;" d="M 471.542969 320.84375 L 444.660156 305.300781 L 440.636719 324.503906 Z M 471.542969 320.84375 "/>
</g>
<path style=" stroke:none;fill-rule:evenodd;fill:rgb(0%,0%,0%);fill-opacity:1;" d="M 216.613281 271.285156 C 216.613281 266.898438 219.90625 263.605469 224.296875 263.605469 C 228.867188 263.605469 232.160156 267.082031 232.160156 271.46875 C 232.160156 275.859375 228.683594 279.148438 224.296875 279.148438 C 219.90625 279.148438 216.613281 275.859375 216.613281 271.285156 "/>
<path style=" stroke:none;fill-rule:nonzero;fill:rgb(100%,100%,100%);fill-opacity:1;" d="M 216.613281 271.285156 L 215.242188 271.285156 C 215.238281 268.75 216.207031 266.460938 217.839844 264.832031 C 219.46875 263.199219 221.757812 262.230469 224.296875 262.234375 C 226.929688 262.230469 229.273438 263.25 230.917969 264.929688 C 232.570312 266.605469 233.53125 268.929688 233.53125 271.46875 C 233.535156 274.027344 232.503906 276.324219 230.828125 277.941406 C 229.152344 279.5625 226.832031 280.523438 224.296875 280.519531 C 221.757812 280.523438 219.460938 279.554688 217.832031 277.894531 C 216.195312 276.234375 215.238281 273.902344 215.242188 271.285156 L 217.988281 271.285156 C 217.988281 273.242188 218.679688 274.839844 219.785156 275.96875 C 220.902344 277.097656 222.445312 277.773438 224.296875 277.777344 C 226.144531 277.777344 227.761719 277.089844 228.917969 275.96875 C 230.078125 274.84375 230.785156 273.300781 230.789062 271.46875 C 230.785156 269.617188 230.101562 268.011719 228.964844 266.851562 C 227.824219 265.699219 226.234375 264.980469 224.296875 264.976562 C 222.445312 264.980469 220.894531 265.660156 219.777344 266.769531 C 218.667969 267.882812 217.988281 269.433594 217.988281 271.285156 Z M 216.613281 271.285156 "/>
<path style=" stroke:none;fill-rule:nonzero;fill:rgb(100%,100%,100%);fill-opacity:1;" d="M 238.136719 304.75 L 238.136719 303.144531 C 237.933594 303.144531 237.675781 303.117188 237.363281 303.066406 C 237.046875 303.015625 236.890625 302.953125 236.890625 302.882812 L 240.160156 299.28125 L 243.523438 303.144531 L 242.3125 303.144531 L 242.3125 304.75 L 250.015625 304.75 L 250.015625 303.144531 L 247.574219 303.144531 L 242.28125 296.964844 L 246.265625 292.609375 C 246.457031 292.414062 247.480469 292.3125 249.328125 292.3125 L 249.328125 290.707031 L 242.808594 290.707031 L 242.808594 292.3125 C 243 292.3125 243.25 292.335938 243.566406 292.375 C 243.878906 292.417969 244.035156 292.484375 244.035156 292.578125 L 241.195312 295.699219 L 238.261719 292.3125 L 239.441406 292.3125 L 239.441406 290.707031 L 231.757812 290.707031 L 231.757812 292.3125 L 234.179688 292.3125 L 239.078125 298.015625 L 234.675781 302.851562 C 234.472656 303.046875 233.449219 303.144531 231.597656 303.144531 L 231.597656 304.75 Z M 238.136719 304.75 "/>
<path style=" stroke:none;fill-rule:nonzero;fill:rgb(100%,100%,100%);fill-opacity:1;" d="M 260.25 308.492188 C 261.042969 307.765625 261.589844 306.847656 261.882812 305.742188 C 262.179688 304.636719 262.328125 303.421875 262.328125 302.105469 C 262.328125 299.945312 261.941406 298.128906 261.171875 296.652344 C 260.402344 295.179688 259.003906 294.445312 256.976562 294.445312 C 254.957031 294.445312 253.558594 295.179688 252.78125 296.652344 C 252.003906 298.128906 251.613281 299.945312 251.613281 302.105469 C 251.613281 303.421875 251.761719 304.636719 252.058594 305.742188 C 252.355469 306.847656 252.898438 307.765625 253.695312 308.492188 C 254.492188 309.21875 255.585938 309.582031 256.976562 309.582031 C 258.367188 309.582031 259.457031 309.21875 260.25 308.492188 M 255.203125 308.140625 C 254.753906 307.652344 254.433594 307.042969 254.238281 306.308594 C 254.042969 305.574219 253.921875 304.847656 253.875 304.125 C 253.828125 303.40625 253.800781 302.605469 253.800781 301.726562 C 253.800781 300.871094 253.828125 300.109375 253.875 299.441406 C 253.921875 298.777344 254.042969 298.113281 254.234375 297.453125 C 254.425781 296.796875 254.742188 296.246094 255.1875 295.8125 C 255.632812 295.375 256.230469 295.15625 256.976562 295.15625 C 257.941406 295.15625 258.65625 295.511719 259.117188 296.21875 C 259.582031 296.921875 259.867188 297.726562 259.976562 298.625 C 260.085938 299.527344 260.140625 300.558594 260.140625 301.726562 C 260.140625 302.945312 260.085938 304.046875 259.976562 305.027344 C 259.867188 306.011719 259.582031 306.898438 259.113281 307.6875 C 258.644531 308.476562 257.933594 308.867188 256.976562 308.867188 C 256.242188 308.867188 255.652344 308.625 255.203125 308.140625 "/>
<path style=" stroke:none;fill-rule:nonzero;fill:rgb(100%,100%,0%);fill-opacity:1;" d="M 263.011719 198.863281 C 263.714844 199.429688 264.515625 199.714844 265.40625 199.714844 C 266.582031 199.714844 267.65625 199.335938 268.625 198.585938 C 269.597656 197.832031 270.335938 196.910156 270.84375 195.820312 L 277.84375 181.207031 C 278 181.03125 278.761719 180.941406 280.125 180.941406 L 280.125 179.335938 L 274.464844 179.335938 L 274.464844 180.941406 C 274.792969 180.941406 275.136719 180.960938 275.496094 180.996094 C 275.855469 181.03125 276.035156 181.101562 276.035156 181.207031 L 272.21875 189.175781 L 268.265625 180.941406 L 269.972656 180.941406 L 269.972656 179.335938 L 262.082031 179.335938 L 262.082031 180.941406 L 264.226562 180.941406 L 270.195312 193.378906 L 269.019531 195.820312 C 268.679688 196.5625 268.1875 197.183594 267.546875 197.6875 C 266.902344 198.191406 266.191406 198.445312 265.402344 198.445312 C 265.289062 198.445312 265.113281 198.425781 264.878906 198.382812 C 265.515625 198.023438 265.832031 197.460938 265.832031 196.699219 C 265.832031 196.175781 265.648438 195.730469 265.277344 195.371094 C 264.90625 195.011719 264.449219 194.832031 263.910156 194.832031 C 263.347656 194.832031 262.882812 195.011719 262.511719 195.371094 C 262.140625 195.730469 261.953125 196.175781 261.953125 196.699219 C 261.953125 197.574219 262.304688 198.296875 263.011719 198.863281 "/>
<path style=" stroke:none;fill-rule:nonzero;fill:rgb(100%,100%,0%);fill-opacity:1;" d="M 295.335938 188.945312 C 294.78125 187.96875 294.507812 187.019531 294.507812 186.101562 L 308.753906 186.101562 C 308.921875 186.101562 309.0625 186.035156 309.171875 185.902344 C 309.285156 185.769531 309.339844 185.625 309.339844 185.46875 C 309.339844 185.316406 309.285156 185.171875 309.171875 185.039062 C 309.0625 184.902344 308.921875 184.835938 308.753906 184.835938 L 294.507812 184.835938 C 294.507812 183.910156 294.78125 182.960938 295.335938 181.984375 C 295.886719 181.011719 296.558594 180.203125 297.347656 179.550781 C 298.144531 178.90625 299.042969 178.410156 300.039062 178.070312 C 301.03125 177.730469 302.054688 177.558594 303.105469 177.558594 L 308.753906 177.558594 C 308.921875 177.558594 309.0625 177.5 309.171875 177.375 C 309.285156 177.25 309.339844 177.101562 309.339844 176.925781 C 309.339844 176.773438 309.285156 176.628906 309.171875 176.496094 C 309.0625 176.359375 308.921875 176.292969 308.753906 176.292969 L 303.011719 176.292969 C 301.296875 176.292969 299.679688 176.695312 298.167969 177.5 C 296.652344 178.300781 295.441406 179.40625 294.539062 180.8125 C 293.632812 182.21875 293.179688 183.769531 293.179688 185.46875 C 293.179688 187.167969 293.632812 188.722656 294.539062 190.128906 C 295.441406 191.535156 296.652344 192.636719 298.167969 193.441406 C 299.679688 194.246094 301.296875 194.644531 303.011719 194.644531 L 308.753906 194.644531 C 308.921875 194.644531 309.0625 194.578125 309.171875 194.445312 C 309.285156 194.3125 309.339844 194.167969 309.339844 194.011719 C 309.339844 193.835938 309.285156 193.6875 309.171875 193.5625 C 309.0625 193.441406 308.921875 193.378906 308.753906 193.378906 L 303.105469 193.378906 C 300.886719 193.378906 298.964844 192.714844 297.347656 191.386719 C 296.558594 190.738281 295.886719 189.925781 295.335938 188.945312 "/>
<path style=" stroke:none;fill-rule:nonzero;fill:rgb(100%,100%,0%);fill-opacity:1;" d="M 332.136719 193.378906 C 332.476562 193.308594 332.644531 193.117188 332.644531 192.808594 C 332.644531 192.664062 332.59375 192.535156 332.496094 192.429688 C 332.394531 192.320312 332.273438 192.265625 332.136719 192.265625 C 331.429688 192.265625 330.925781 192.238281 330.628906 192.183594 C 330.335938 192.125 330.121094 191.972656 329.988281 191.71875 C 329.855469 191.464844 329.789062 191.050781 329.789062 190.476562 L 329.789062 184.386719 L 330.710938 183.539062 L 336.914062 190.753906 C 337.519531 191.410156 337.820312 191.855469 337.820312 192.082031 C 337.820312 192.203125 337.539062 192.265625 336.976562 192.265625 C 336.628906 192.339844 336.453125 192.519531 336.453125 192.808594 C 336.453125 192.941406 336.507812 193.070312 336.613281 193.195312 C 336.71875 193.316406 336.839844 193.378906 336.976562 193.378906 L 345.324219 193.378906 C 345.675781 193.308594 345.847656 193.117188 345.847656 192.808594 C 345.847656 192.664062 345.800781 192.535156 345.699219 192.429688 C 345.597656 192.320312 345.472656 192.265625 345.324219 192.265625 C 345.070312 192.265625 344.792969 192.152344 344.484375 191.917969 C 344.175781 191.6875 343.90625 191.4375 343.667969 191.171875 C 343.429688 190.902344 343.125 190.542969 342.753906 190.089844 L 334.28125 180.1875 L 337.851562 176.835938 C 338.75 175.988281 339.484375 175.324219 340.050781 174.839844 C 340.613281 174.355469 341.269531 173.898438 342.007812 173.464844 C 342.75 173.035156 343.441406 172.816406 344.085938 172.816406 C 344.4375 172.746094 344.609375 172.554688 344.609375 172.246094 C 344.609375 172.101562 344.5625 171.976562 344.460938 171.867188 C 344.359375 171.757812 344.234375 171.703125 344.085938 171.703125 L 336.136719 171.703125 C 335.789062 171.777344 335.613281 171.957031 335.613281 172.246094 C 335.613281 172.367188 335.664062 172.496094 335.765625 172.625 C 335.863281 172.753906 335.988281 172.816406 336.136719 172.816406 C 336.558594 172.816406 336.902344 172.972656 337.167969 173.28125 C 337.433594 173.589844 337.566406 173.949219 337.566406 174.363281 C 337.566406 174.9375 337.328125 175.46875 336.851562 175.953125 L 329.789062 182.566406 L 329.789062 174.6875 C 329.789062 174.070312 329.847656 173.632812 329.964844 173.371094 C 330.082031 173.117188 330.277344 172.960938 330.550781 172.902344 C 330.828125 172.847656 331.324219 172.816406 332.042969 172.816406 L 332.136719 172.816406 C 332.476562 172.746094 332.644531 172.554688 332.644531 172.246094 C 332.644531 172.101562 332.59375 171.976562 332.496094 171.867188 C 332.394531 171.757812 332.273438 171.703125 332.136719 171.703125 L 322.15625 171.703125 C 321.808594 171.777344 321.632812 171.957031 321.632812 172.246094 C 321.632812 172.367188 321.683594 172.496094 321.78125 172.625 C 321.882812 172.753906 322.007812 172.816406 322.15625 172.816406 C 322.863281 172.816406 323.367188 172.847656 323.664062 172.902344 C 323.960938 172.960938 324.171875 173.117188 324.300781 173.371094 C 324.425781 173.632812 324.488281 174.046875 324.488281 174.625 L 324.488281 190.398438 C 324.488281 191.003906 324.433594 191.441406 324.324219 191.703125 C 324.210938 191.964844 324.015625 192.125 323.734375 192.183594 C 323.457031 192.238281 322.960938 192.265625 322.253906 192.265625 L 322.15625 192.265625 C 321.808594 192.339844 321.632812 192.519531 321.632812 192.808594 C 321.632812 192.941406 321.6875 193.070312 321.792969 193.195312 C 321.898438 193.316406 322.019531 193.378906 322.15625 193.378906 Z M 325.632812 190.476562 L 325.632812 174.625 C 325.632812 173.851562 325.535156 173.25 325.347656 172.816406 L 328.9375 172.816406 C 328.742188 173.25 328.648438 173.851562 328.648438 174.625 L 328.648438 190.476562 C 328.648438 191.238281 328.742188 191.835938 328.9375 192.265625 L 325.347656 192.265625 C 325.535156 191.835938 325.632812 191.238281 325.632812 190.476562 M 331.550781 182.75 L 333.472656 180.941406 L 341.851562 190.753906 C 342.316406 191.320312 342.769531 191.824219 343.214844 192.265625 L 338.960938 192.265625 L 338.960938 192.082031 C 338.960938 191.742188 338.863281 191.425781 338.667969 191.132812 C 338.472656 190.839844 338.1875 190.488281 337.820312 190.089844 Z M 338.683594 174.46875 L 338.691406 174.363281 C 338.691406 173.804688 338.53125 173.289062 338.214844 172.816406 L 340.945312 172.816406 C 340.257812 173.269531 339.496094 173.859375 338.660156 174.578125 Z M 338.683594 174.46875 "/>
<path style=" stroke:none;fill-rule:nonzero;fill:rgb(100%,100%,0%);fill-opacity:1;" d="M 349.425781 177.542969 L 352.632812 175.5 L 352.28125 178.914062 L 352.261719 178.980469 C 352.261719 179.175781 352.339844 179.332031 352.496094 179.453125 C 352.65625 179.578125 352.832031 179.636719 353.027344 179.636719 C 353.230469 179.636719 353.410156 179.578125 353.566406 179.453125 C 353.71875 179.332031 353.796875 179.175781 353.796875 178.980469 L 353.796875 178.914062 L 353.425781 175.5 L 356.644531 177.542969 C 356.738281 177.613281 356.851562 177.648438 356.980469 177.648438 C 357.191406 177.648438 357.371094 177.570312 357.523438 177.414062 C 357.675781 177.253906 357.75 177.082031 357.75 176.894531 C 357.75 176.589844 357.617188 176.386719 357.355469 176.277344 L 353.863281 174.863281 L 357.355469 173.46875 C 357.617188 173.359375 357.75 173.15625 357.75 172.851562 C 357.75 172.664062 357.675781 172.492188 357.523438 172.335938 C 357.371094 172.175781 357.191406 172.097656 356.980469 172.097656 C 356.847656 172.097656 356.734375 172.132812 356.644531 172.203125 L 353.425781 174.246094 L 353.796875 170.8125 L 353.796875 170.765625 C 353.796875 170.574219 353.71875 170.414062 353.566406 170.292969 C 353.410156 170.171875 353.230469 170.109375 353.027344 170.109375 C 352.832031 170.109375 352.65625 170.171875 352.496094 170.292969 C 352.339844 170.414062 352.261719 170.574219 352.261719 170.765625 L 352.28125 170.8125 L 352.632812 174.246094 L 349.425781 172.203125 C 349.320312 172.132812 349.203125 172.097656 349.074219 172.097656 C 348.878906 172.097656 348.703125 172.175781 348.542969 172.335938 C 348.386719 172.492188 348.308594 172.664062 348.308594 172.851562 C 348.308594 173.148438 348.441406 173.351562 348.703125 173.46875 L 352.191406 174.863281 L 348.703125 176.277344 C 348.441406 176.394531 348.308594 176.597656 348.308594 176.894531 C 348.308594 177.082031 348.386719 177.253906 348.542969 177.414062 C 348.703125 177.570312 348.878906 177.648438 349.074219 177.648438 C 349.203125 177.648438 349.320312 177.613281 349.425781 177.542969 "/>
</g>
</svg>
