<?xml version="1.0" encoding="UTF-8"?>
<svg xmlns="http://www.w3.org/2000/svg" xmlns:xlink="http://www.w3.org/1999/xlink" width="665.5917pt" height="379pt" viewBox="0 0 665.5917 379" version="1.1">
<g id="surface1">
<path style=" stroke:none;fill-rule:nonzero;fill:rgb(100%,100%,100%);fill-opacity:1;" d="M 242.539062 257.175781 L 246.328125 254.601562 L 247.605469 256.480469 L 243.820312 259.054688 "/>
<path style=" stroke:none;fill-rule:nonzero;fill:rgb(100%,100%,100%);fill-opacity:1;" d="M 250.097656 252.339844 L 253.730469 249.765625 L 255.042969 251.617188 L 251.410156 254.195312 "/>
<path style=" stroke:none;fill-rule:nonzero;fill:rgb(100%,100%,100%);fill-opacity:1;" d="M 257.5625 247.3125 L 261.347656 244.890625 L 262.574219 246.800781 L 258.785156 249.226562 "/>
<path style=" stroke:none;fill-rule:nonzero;fill:rgb(100%,100%,100%);fill-opacity:1;" d="M 265.136719 242.464844 L 268.921875 240.042969 L 270.144531 241.957031 L 266.359375 244.378906 "/>
<path style=" stroke:none;fill-rule:nonzero;fill:rgb(100%,100%,100%);fill-opacity:1;" d="M 272.707031 237.617188 L 276.496094 235.195312 L 277.71875 237.109375 L 273.933594 239.53125 "/>
<path style=" stroke:none;fill-rule:nonzero;fill:rgb(100%,100%,100%);fill-opacity:1;" d="M 280.28125 232.769531 L 284.070312 230.347656 L 285.292969 232.261719 L 281.507812 234.683594 "/>
<path style=" stroke:none;fill-rule:nonzero;fill:rgb(100%,100%,100%);fill-opacity:1;" d="M 287.703125 227.925781 L 291.492188 225.5 L 292.714844 227.414062 L 288.929688 229.839844 "/>
<path style=" stroke:none;fill-rule:nonzero;fill:rgb(100%,100%,100%);fill-opacity:1;" d="M 295.277344 223.078125 L 299.0625 220.65625 L 300.289062 222.566406 L 296.503906 224.992188 "/>
<path style=" stroke:none;fill-rule:nonzero;fill:rgb(100%,100%,100%);fill-opacity:1;" d="M 302.851562 218.230469 L 306.636719 215.808594 L 307.863281 217.71875 L 304.074219 220.144531 "/>
<path style=" stroke:none;fill-rule:nonzero;fill:rgb(100%,100%,100%);fill-opacity:1;" d="M 310.425781 213.382812 L 314.210938 210.960938 L 315.433594 212.875 L 311.648438 215.296875 "/>
<path style=" stroke:none;fill-rule:nonzero;fill:rgb(100%,100%,100%);fill-opacity:1;" d="M 317.996094 208.535156 L 321.785156 206.113281 L 323.007812 208.027344 L 319.222656 210.449219 "/>
<path style=" stroke:none;fill-rule:nonzero;fill:rgb(100%,100%,100%);fill-opacity:1;" d="M 325.417969 203.691406 L 329.207031 201.265625 L 330.429688 203.179688 L 326.644531 205.605469 "/>
<path style=" stroke:none;fill-rule:nonzero;fill:rgb(100%,100%,100%);fill-opacity:1;" d="M 332.992188 198.84375 L 336.78125 196.417969 L 338.003906 198.332031 L 334.21875 200.757812 "/>
<path style=" stroke:none;fill-rule:nonzero;fill:rgb(100%,100%,100%);fill-opacity:1;" d="M 340.566406 193.996094 L 344.351562 191.574219 L 345.578125 193.484375 L 341.789062 195.910156 "/>
<path style=" stroke:none;fill-rule:nonzero;fill:rgb(100%,100%,100%);fill-opacity:1;" d="M 348.121094 189.160156 L 351.757812 186.738281 L 353.015625 188.628906 L 349.382812 191.050781 "/>
<path style=" stroke:none;fill-rule:nonzero;fill:rgb(100%,100%,100%);fill-opacity:1;" d="M 355.5625 184.300781 L 359.347656 181.878906 L 360.570312 183.792969 L 356.785156 186.214844 "/>
<path style=" stroke:none;fill-rule:nonzero;fill:rgb(100%,100%,100%);fill-opacity:1;" d="M 363.132812 179.457031 L 366.921875 177.03125 L 368.144531 178.945312 L 364.359375 181.367188 "/>
<path style=" stroke:none;fill-rule:nonzero;fill:rgb(100%,100%,100%);fill-opacity:1;" d="M 370.707031 174.609375 L 374.496094 172.183594 L 375.71875 174.097656 L 371.933594 176.523438 "/>
<path style=" stroke:none;fill-rule:nonzero;fill:rgb(100%,100%,100%);fill-opacity:1;" d="M 378.261719 169.773438 L 381.898438 167.351562 L 383.15625 169.238281 L 379.523438 171.664062 "/>
<path style=" stroke:none;fill-rule:nonzero;fill:rgb(100%,100%,100%);fill-opacity:1;" d="M 385.703125 164.914062 L 389.488281 162.492188 L 390.714844 164.402344 L 386.925781 166.828125 "/>
<path style=" stroke:none;fill-rule:nonzero;fill:rgb(100%,100%,100%);fill-opacity:1;" d="M 393.277344 160.066406 L 397.0625 157.644531 L 398.285156 159.558594 L 394.5 161.980469 "/>
<path style=" stroke:none;fill-rule:nonzero;fill:rgb(100%,100%,100%);fill-opacity:1;" d="M 400.847656 155.21875 L 404.636719 152.796875 L 405.859375 154.710938 L 402.074219 157.132812 "/>
<path style=" stroke:none;fill-rule:nonzero;fill:rgb(100%,100%,100%);fill-opacity:1;" d="M 408.40625 150.386719 L 412.039062 147.960938 L 413.300781 149.851562 L 409.664062 152.273438 "/>
<path style=" stroke:none;fill-rule:nonzero;fill:rgb(100%,100%,100%);fill-opacity:1;" d="M 415.84375 145.527344 L 419.632812 143.105469 L 420.855469 145.015625 L 417.070312 147.441406 "/>
<path style=" stroke:none;fill-rule:nonzero;fill:rgb(100%,100%,100%);fill-opacity:1;" d="M 423.390625 140.695312 L 427.179688 138.121094 L 428.457031 140 L 424.667969 142.574219 "/>
<path style=" stroke:none;fill-rule:nonzero;fill:rgb(100%,100%,100%);fill-opacity:1;" d="M 430.992188 135.679688 L 434.777344 133.257812 L 436.003906 135.171875 L 432.214844 137.59375 "/>
<path style=" stroke:none;fill-rule:nonzero;fill:rgb(100%,100%,100%);fill-opacity:1;" d="M 438.5625 130.835938 L 442.351562 128.410156 L 443.574219 130.324219 L 439.789062 132.75 "/>
<path style=" stroke:none;fill-rule:nonzero;fill:rgb(100%,100%,100%);fill-opacity:1;" d="M 446.121094 126 L 449.753906 123.574219 L 451.015625 125.464844 L 447.378906 127.890625 "/>
<path style=" stroke:none;fill-rule:nonzero;fill:rgb(100%,100%,100%);fill-opacity:1;" d="M 453.558594 121.140625 L 457.347656 118.71875 L 458.570312 120.628906 L 454.785156 123.054688 "/>
<path style=" stroke:none;fill-rule:nonzero;fill:rgb(100%,100%,100%);fill-opacity:1;" d="M 461.132812 116.292969 L 464.917969 113.871094 L 466.144531 115.785156 L 462.359375 118.207031 "/>
<path style=" stroke:none;fill-rule:nonzero;fill:rgb(100%,100%,100%);fill-opacity:1;" d="M 468.707031 111.445312 L 472.492188 109.023438 L 473.71875 110.9375 L 469.929688 113.359375 "/>
<path style=" stroke:none;fill-rule:nonzero;fill:rgb(100%,100%,100%);fill-opacity:1;" d="M 476.28125 106.601562 L 480.066406 104.175781 L 481.289062 106.089844 L 477.503906 108.515625 "/>
<path style=" stroke:none;fill-rule:nonzero;fill:rgb(100%,100%,100%);fill-opacity:1;" d="M 483.703125 101.753906 L 487.488281 99.328125 L 488.710938 101.242188 L 484.925781 103.667969 "/>
<path style=" stroke:none;fill-rule:nonzero;fill:rgb(100%,100%,100%);fill-opacity:1;" d="M 491.273438 96.90625 L 495.0625 94.484375 L 496.285156 96.394531 L 492.5 98.820312 "/>
<path style=" stroke:none;fill-rule:nonzero;fill:rgb(100%,100%,100%);fill-opacity:1;" d="M 498.847656 92.058594 L 502.636719 89.636719 L 503.859375 91.550781 L 500.074219 93.972656 "/>
<path style=" stroke:none;fill-rule:nonzero;fill:rgb(100%,100%,100%);fill-opacity:1;" d="M 506.421875 87.210938 L 510.207031 84.789062 L 511.433594 86.703125 L 507.644531 89.125 "/>
<path style=" stroke:none;fill-rule:nonzero;fill:rgb(100%,100%,100%);fill-opacity:1;" d="M 513.996094 82.363281 L 517.78125 79.941406 L 519.003906 81.855469 L 515.21875 84.277344 "/>
<path style=" stroke:none;fill-rule:nonzero;fill:rgb(100%,100%,100%);fill-opacity:1;" d="M 521.417969 77.519531 L 525.203125 75.09375 L 526.425781 77.007812 L 522.640625 79.433594 "/>
<path style=" stroke:none;fill-rule:nonzero;fill:rgb(100%,100%,100%);fill-opacity:1;" d="M 528.988281 72.671875 L 532.777344 70.25 L 534 72.160156 L 530.214844 74.585938 "/>
<path style=" stroke:none;fill-rule:nonzero;fill:rgb(100%,100%,100%);fill-opacity:1;" d="M 536.5625 67.824219 L 540.351562 65.402344 L 541.574219 67.3125 L 537.789062 69.738281 "/>
<path style=" stroke:none;fill-rule:nonzero;fill:rgb(100%,100%,100%);fill-opacity:1;" d="M 544.136719 62.976562 L 547.921875 60.554688 L 549.148438 62.46875 L 545.363281 64.890625 "/>
<path style=" stroke:none;fill-rule:nonzero;fill:rgb(100%,100%,100%);fill-opacity:1;" d="M 551.558594 58.128906 L 555.34375 55.707031 L 556.570312 57.621094 L 552.785156 60.042969 "/>
<path style=" stroke:none;fill-rule:nonzero;fill:rgb(100%,100%,100%);fill-opacity:1;" d="M 2.652344 50.832031 L 174.414062 50.832031 L 174.414062 53.105469 L 2.652344 53.105469 "/>
<path style=" stroke:none;fill-rule:nonzero;fill:rgb(100%,100%,100%);fill-opacity:1;" d="M 475.074219 50.832031 L 646.683594 50.832031 L 646.683594 53.105469 L 475.074219 53.105469 "/>
<path style=" stroke:none;fill-rule:nonzero;fill:rgb(100%,100%,100%);fill-opacity:1;" d="M 175.410156 179.261719 C 195.613281 216.277344 216.839844 241.054688 238.207031 256.566406 C 259.582031 272.078125 281.085938 278.351562 302.023438 278.355469 C 324.847656 278.355469 347.019531 270.867188 367.457031 259.582031 C 398.109375 242.664062 424.804688 217.210938 443.8125 195.988281 C 453.316406 185.378906 460.902344 175.828125 466.109375 168.933594 C 468.710938 165.488281 470.71875 162.703125 472.074219 160.785156 C 472.753906 159.824219 473.269531 159.082031 473.613281 158.578125 C 473.785156 158.328125 473.914062 158.136719 474 158.007812 C 474.085938 157.882812 474.128906 157.820312 474.128906 157.820312 L 476.019531 159.078125 C 475.988281 159.121094 455.769531 189.4375 423.949219 219.792969 C 408.035156 234.96875 389.222656 250.160156 368.554688 261.574219 C 347.886719 272.984375 325.351562 280.625 302.023438 280.625 C 280.628906 280.632812 258.59375 274.179688 236.875 258.40625 C 215.152344 242.632812 193.734375 217.574219 173.417969 180.351562 Z M 175.410156 179.261719 "/>
<path style=" stroke:none;fill-rule:nonzero;fill:rgb(100%,100%,100%);fill-opacity:1;" d="M 175.164062 17.585938 L 175.164062 20.613281 L 173.664062 20.613281 L 173.664062 17.585938 "/>
<path style=" stroke:none;fill-rule:nonzero;fill:rgb(100%,100%,100%);fill-opacity:1;" d="M 175.164062 23.492188 L 175.164062 26.523438 L 173.664062 26.523438 L 173.664062 23.492188 "/>
<path style=" stroke:none;fill-rule:nonzero;fill:rgb(100%,100%,100%);fill-opacity:1;" d="M 175.164062 29.398438 L 175.164062 32.429688 L 173.664062 32.429688 L 173.664062 29.398438 "/>
<path style=" stroke:none;fill-rule:nonzero;fill:rgb(100%,100%,100%);fill-opacity:1;" d="M 175.164062 35.457031 L 175.164062 38.335938 L 173.664062 38.335938 L 173.664062 35.457031 "/>
<path style=" stroke:none;fill-rule:nonzero;fill:rgb(100%,100%,100%);fill-opacity:1;" d="M 175.164062 41.367188 L 175.164062 44.242188 L 173.664062 44.242188 L 173.664062 41.367188 "/>
<path style=" stroke:none;fill-rule:nonzero;fill:rgb(100%,100%,100%);fill-opacity:1;" d="M 175.164062 47.273438 L 175.164062 50.152344 L 173.664062 50.152344 L 173.664062 47.273438 "/>
<path style=" stroke:none;fill-rule:nonzero;fill:rgb(100%,100%,100%);fill-opacity:1;" d="M 175.164062 53.179688 L 175.164062 56.058594 L 173.664062 56.058594 L 173.664062 53.179688 "/>
<path style=" stroke:none;fill-rule:nonzero;fill:rgb(100%,100%,100%);fill-opacity:1;" d="M 175.164062 59.085938 L 175.164062 61.964844 L 173.664062 61.964844 L 173.664062 59.085938 "/>
<path style=" stroke:none;fill-rule:nonzero;fill:rgb(100%,100%,100%);fill-opacity:1;" d="M 175.164062 64.996094 L 175.164062 67.871094 L 173.664062 67.871094 L 173.664062 64.996094 "/>
<path style=" stroke:none;fill-rule:nonzero;fill:rgb(100%,100%,100%);fill-opacity:1;" d="M 175.164062 70.902344 L 175.164062 73.78125 L 173.664062 73.78125 L 173.664062 70.902344 "/>
<path style=" stroke:none;fill-rule:nonzero;fill:rgb(100%,100%,100%);fill-opacity:1;" d="M 175.164062 76.808594 L 175.164062 79.839844 L 173.664062 79.839844 L 173.664062 76.808594 "/>
<path style=" stroke:none;fill-rule:nonzero;fill:rgb(100%,100%,100%);fill-opacity:1;" d="M 175.164062 82.714844 L 175.164062 85.746094 L 173.664062 85.746094 L 173.664062 82.714844 "/>
<path style=" stroke:none;fill-rule:nonzero;fill:rgb(100%,100%,100%);fill-opacity:1;" d="M 175.164062 88.625 L 175.164062 91.652344 L 173.664062 91.652344 L 173.664062 88.625 "/>
<path style=" stroke:none;fill-rule:nonzero;fill:rgb(100%,100%,100%);fill-opacity:1;" d="M 175.164062 94.53125 L 175.164062 97.558594 L 173.664062 97.558594 L 173.664062 94.53125 "/>
<path style=" stroke:none;fill-rule:nonzero;fill:rgb(100%,100%,100%);fill-opacity:1;" d="M 175.164062 100.589844 L 175.164062 103.46875 L 173.664062 103.46875 L 173.664062 100.589844 "/>
<path style=" stroke:none;fill-rule:nonzero;fill:rgb(100%,100%,100%);fill-opacity:1;" d="M 175.164062 106.496094 L 175.164062 109.375 L 173.664062 109.375 L 173.664062 106.496094 "/>
<path style=" stroke:none;fill-rule:nonzero;fill:rgb(100%,100%,100%);fill-opacity:1;" d="M 175.164062 112.253906 L 175.164062 115.28125 L 173.664062 115.28125 L 173.664062 112.253906 "/>
<path style=" stroke:none;fill-rule:nonzero;fill:rgb(100%,100%,100%);fill-opacity:1;" d="M 175.164062 118.3125 L 175.164062 121.1875 L 173.664062 121.1875 L 173.664062 118.3125 "/>
<path style=" stroke:none;fill-rule:nonzero;fill:rgb(100%,100%,100%);fill-opacity:1;" d="M 175.164062 124.21875 L 175.164062 127.097656 L 173.664062 127.097656 L 173.664062 124.21875 "/>
<path style=" stroke:none;fill-rule:nonzero;fill:rgb(100%,100%,100%);fill-opacity:1;" d="M 175.164062 130.125 L 175.164062 133.003906 L 173.664062 133.003906 L 173.664062 130.125 "/>
<path style=" stroke:none;fill-rule:nonzero;fill:rgb(100%,100%,100%);fill-opacity:1;" d="M 175.164062 136.03125 L 175.164062 139.0625 L 173.664062 139.0625 L 173.664062 136.03125 "/>
<path style=" stroke:none;fill-rule:nonzero;fill:rgb(100%,100%,100%);fill-opacity:1;" d="M 175.164062 141.941406 L 175.164062 144.96875 L 173.664062 144.96875 L 173.664062 141.941406 "/>
<path style=" stroke:none;fill-rule:nonzero;fill:rgb(100%,100%,100%);fill-opacity:1;" d="M 175.164062 147.847656 L 175.164062 150.875 L 173.664062 150.875 L 173.664062 147.847656 "/>
<path style=" stroke:none;fill-rule:nonzero;fill:rgb(100%,100%,100%);fill-opacity:1;" d="M 175.164062 153.753906 L 175.164062 156.78125 L 173.664062 156.78125 L 173.664062 153.753906 "/>
<path style=" stroke:none;fill-rule:nonzero;fill:rgb(100%,100%,100%);fill-opacity:1;" d="M 175.164062 159.660156 L 175.164062 162.691406 L 173.664062 162.691406 L 173.664062 159.660156 "/>
<path style=" stroke:none;fill-rule:nonzero;fill:rgb(100%,100%,100%);fill-opacity:1;" d="M 175.164062 165.566406 L 175.164062 168.597656 L 173.664062 168.597656 L 173.664062 165.566406 "/>
<path style=" stroke:none;fill-rule:nonzero;fill:rgb(100%,100%,100%);fill-opacity:1;" d="M 175.164062 171.476562 L 175.164062 174.503906 L 173.664062 174.503906 L 173.664062 171.476562 "/>
<path style=" stroke:none;fill-rule:nonzero;fill:rgb(100%,100%,100%);fill-opacity:1;" d="M 175.164062 177.382812 L 175.164062 180.410156 L 173.664062 180.410156 L 173.664062 177.382812 "/>
<path style=" stroke:none;fill-rule:nonzero;fill:rgb(100%,100%,100%);fill-opacity:1;" d="M 175.164062 183.441406 L 175.164062 186.320312 L 173.664062 186.320312 L 173.664062 183.441406 "/>
<path style=" stroke:none;fill-rule:nonzero;fill:rgb(100%,100%,100%);fill-opacity:1;" d="M 175.164062 189.347656 L 175.164062 192.226562 L 173.664062 192.226562 L 173.664062 189.347656 "/>
<path style=" stroke:none;fill-rule:nonzero;fill:rgb(100%,100%,100%);fill-opacity:1;" d="M 175.164062 195.253906 L 175.164062 198.132812 L 173.664062 198.132812 L 173.664062 195.253906 "/>
<path style=" stroke:none;fill-rule:nonzero;fill:rgb(100%,100%,100%);fill-opacity:1;" d="M 175.164062 201.164062 L 175.164062 204.191406 L 173.664062 204.191406 L 173.664062 201.164062 "/>
<path style=" stroke:none;fill-rule:nonzero;fill:rgb(100%,100%,100%);fill-opacity:1;" d="M 175.164062 207.070312 L 175.164062 210.097656 L 173.664062 210.097656 L 173.664062 207.070312 "/>
<path style=" stroke:none;fill-rule:nonzero;fill:rgb(100%,100%,100%);fill-opacity:1;" d="M 175.164062 212.976562 L 175.164062 216.007812 L 173.664062 216.007812 L 173.664062 212.976562 "/>
<path style=" stroke:none;fill-rule:nonzero;fill:rgb(100%,100%,100%);fill-opacity:1;" d="M 175.164062 218.882812 L 175.164062 221.914062 L 173.664062 221.914062 L 173.664062 218.882812 "/>
<path style=" stroke:none;fill-rule:nonzero;fill:rgb(100%,100%,100%);fill-opacity:1;" d="M 175.164062 224.792969 L 175.164062 227.820312 L 173.664062 227.820312 L 173.664062 224.792969 "/>
<path style=" stroke:none;fill-rule:nonzero;fill:rgb(100%,100%,100%);fill-opacity:1;" d="M 175.164062 230.699219 L 175.164062 233.726562 L 173.664062 233.726562 L 173.664062 230.699219 "/>
<path style=" stroke:none;fill-rule:nonzero;fill:rgb(100%,100%,100%);fill-opacity:1;" d="M 175.164062 236.605469 L 175.164062 239.636719 L 173.664062 239.636719 L 173.664062 236.605469 "/>
<path style=" stroke:none;fill-rule:nonzero;fill:rgb(100%,100%,100%);fill-opacity:1;" d="M 175.164062 242.664062 L 175.164062 245.542969 L 173.664062 245.542969 L 173.664062 242.664062 "/>
<path style=" stroke:none;fill-rule:nonzero;fill:rgb(100%,100%,100%);fill-opacity:1;" d="M 175.164062 248.570312 L 175.164062 251.449219 L 173.664062 251.449219 L 173.664062 248.570312 "/>
<path style=" stroke:none;fill-rule:nonzero;fill:rgb(100%,100%,100%);fill-opacity:1;" d="M 175.164062 254.480469 L 175.164062 257.355469 L 173.664062 257.355469 L 173.664062 254.480469 "/>
<path style=" stroke:none;fill-rule:nonzero;fill:rgb(100%,100%,100%);fill-opacity:1;" d="M 175.164062 260.386719 L 175.164062 263.265625 L 173.664062 263.265625 L 173.664062 260.386719 "/>
<path style=" stroke:none;fill-rule:nonzero;fill:rgb(100%,100%,100%);fill-opacity:1;" d="M 175.164062 266.292969 L 175.164062 269.324219 L 173.664062 269.324219 L 173.664062 266.292969 "/>
<path style=" stroke:none;fill-rule:nonzero;fill:rgb(100%,100%,100%);fill-opacity:1;" d="M 175.164062 272.199219 L 175.164062 275.230469 L 173.664062 275.230469 L 173.664062 272.199219 "/>
<path style=" stroke:none;fill-rule:nonzero;fill:rgb(100%,100%,100%);fill-opacity:1;" d="M 175.164062 278.109375 L 175.164062 281.136719 L 173.664062 281.136719 L 173.664062 278.109375 "/>
<path style=" stroke:none;fill-rule:nonzero;fill:rgb(100%,100%,100%);fill-opacity:1;" d="M 175.164062 284.015625 L 175.164062 287.042969 L 173.664062 287.042969 L 173.664062 284.015625 "/>
<path style=" stroke:none;fill-rule:nonzero;fill:rgb(100%,100%,100%);fill-opacity:1;" d="M 175.164062 289.921875 L 175.164062 292.949219 L 173.664062 292.949219 L 173.664062 289.921875 "/>
<path style=" stroke:none;fill-rule:nonzero;fill:rgb(100%,100%,100%);fill-opacity:1;" d="M 175.164062 295.828125 L 175.164062 298.859375 L 173.664062 298.859375 L 173.664062 295.828125 "/>
<path style=" stroke:none;fill-rule:nonzero;fill:rgb(100%,100%,100%);fill-opacity:1;" d="M 175.164062 301.738281 L 175.164062 304.765625 L 173.664062 304.765625 L 173.664062 301.738281 "/>
<path style=" stroke:none;fill-rule:nonzero;fill:rgb(100%,100%,100%);fill-opacity:1;" d="M 175.164062 307.796875 L 175.164062 310.671875 L 173.664062 310.671875 L 173.664062 307.796875 "/>
<path style=" stroke:none;fill-rule:nonzero;fill:rgb(100%,100%,100%);fill-opacity:1;" d="M 175.164062 313.703125 L 175.164062 316.582031 L 173.664062 316.582031 L 173.664062 313.703125 "/>
<path style=" stroke:none;fill-rule:nonzero;fill:rgb(100%,100%,100%);fill-opacity:1;" d="M 175.164062 319.609375 L 175.164062 322.488281 L 173.664062 322.488281 L 173.664062 319.609375 "/>
<path style=" stroke:none;fill-rule:nonzero;fill:rgb(100%,100%,100%);fill-opacity:1;" d="M 175.164062 325.515625 L 175.164062 328.394531 L 173.664062 328.394531 L 173.664062 325.515625 "/>
<path style=" stroke:none;fill-rule:nonzero;fill:rgb(100%,100%,100%);fill-opacity:1;" d="M 175.164062 331.425781 L 175.164062 334.453125 L 173.664062 334.453125 L 173.664062 331.425781 "/>
<path style=" stroke:none;fill-rule:nonzero;fill:rgb(100%,100%,100%);fill-opacity:1;" d="M 175.164062 337.332031 L 175.164062 340.359375 L 173.664062 340.359375 L 173.664062 337.332031 "/>
<path style=" stroke:none;fill-rule:nonzero;fill:rgb(100%,100%,100%);fill-opacity:1;" d="M 175.164062 343.238281 L 175.164062 346.265625 L 173.664062 346.265625 L 173.664062 343.238281 "/>
<path style=" stroke:none;fill-rule:nonzero;fill:rgb(100%,100%,100%);fill-opacity:1;" d="M 175.164062 349.144531 L 175.164062 352.175781 L 173.664062 352.175781 L 173.664062 349.144531 "/>
<path style=" stroke:none;fill-rule:nonzero;fill:rgb(100%,100%,100%);fill-opacity:1;" d="M 175.164062 355.050781 L 175.164062 358.082031 L 173.664062 358.082031 L 173.664062 355.050781 "/>
<path style=" stroke:none;fill-rule:nonzero;fill:rgb(100%,100%,100%);fill-opacity:1;" d="M 175.164062 360.960938 L 175.164062 363.988281 L 173.664062 363.988281 L 173.664062 360.960938 "/>
<path style=" stroke:none;fill-rule:nonzero;fill:rgb(100%,100%,100%);fill-opacity:1;" d="M 475.824219 17.585938 L 475.824219 20.613281 L 474.324219 20.613281 L 474.324219 17.585938 "/>
<path style=" stroke:none;fill-rule:nonzero;fill:rgb(100%,100%,100%);fill-opacity:1;" d="M 475.824219 23.492188 L 475.824219 26.523438 L 474.324219 26.523438 L 474.324219 23.492188 "/>
<path style=" stroke:none;fill-rule:nonzero;fill:rgb(100%,100%,100%);fill-opacity:1;" d="M 475.824219 29.398438 L 475.824219 32.429688 L 474.324219 32.429688 L 474.324219 29.398438 "/>
<path style=" stroke:none;fill-rule:nonzero;fill:rgb(100%,100%,100%);fill-opacity:1;" d="M 475.824219 35.457031 L 475.824219 38.335938 L 474.324219 38.335938 L 474.324219 35.457031 "/>
<path style=" stroke:none;fill-rule:nonzero;fill:rgb(100%,100%,100%);fill-opacity:1;" d="M 475.824219 41.367188 L 475.824219 44.242188 L 474.324219 44.242188 L 474.324219 41.367188 "/>
<path style=" stroke:none;fill-rule:nonzero;fill:rgb(100%,100%,100%);fill-opacity:1;" d="M 475.824219 47.273438 L 475.824219 50.152344 L 474.324219 50.152344 L 474.324219 47.273438 "/>
<path style=" stroke:none;fill-rule:nonzero;fill:rgb(100%,100%,100%);fill-opacity:1;" d="M 475.824219 53.179688 L 475.824219 56.058594 L 474.324219 56.058594 L 474.324219 53.179688 "/>
<path style=" stroke:none;fill-rule:nonzero;fill:rgb(100%,100%,100%);fill-opacity:1;" d="M 475.824219 59.085938 L 475.824219 61.964844 L 474.324219 61.964844 L 474.324219 59.085938 "/>
<path style=" stroke:none;fill-rule:nonzero;fill:rgb(100%,100%,100%);fill-opacity:1;" d="M 475.824219 64.996094 L 475.824219 67.871094 L 474.324219 67.871094 L 474.324219 64.996094 "/>
<path style=" stroke:none;fill-rule:nonzero;fill:rgb(100%,100%,100%);fill-opacity:1;" d="M 475.824219 70.902344 L 475.824219 73.78125 L 474.324219 73.78125 L 474.324219 70.902344 "/>
<path style=" stroke:none;fill-rule:nonzero;fill:rgb(100%,100%,100%);fill-opacity:1;" d="M 475.824219 76.808594 L 475.824219 79.839844 L 474.324219 79.839844 L 474.324219 76.808594 "/>
<path style=" stroke:none;fill-rule:nonzero;fill:rgb(100%,100%,100%);fill-opacity:1;" d="M 475.824219 82.714844 L 475.824219 85.746094 L 474.324219 85.746094 L 474.324219 82.714844 "/>
<path style=" stroke:none;fill-rule:nonzero;fill:rgb(100%,100%,100%);fill-opacity:1;" d="M 475.824219 88.625 L 475.824219 91.652344 L 474.324219 91.652344 L 474.324219 88.625 "/>
<path style=" stroke:none;fill-rule:nonzero;fill:rgb(100%,100%,100%);fill-opacity:1;" d="M 475.824219 94.53125 L 475.824219 97.558594 L 474.324219 97.558594 L 474.324219 94.53125 "/>
<path style=" stroke:none;fill-rule:nonzero;fill:rgb(100%,100%,100%);fill-opacity:1;" d="M 475.824219 100.589844 L 475.824219 103.46875 L 474.324219 103.46875 L 474.324219 100.589844 "/>
<path style=" stroke:none;fill-rule:nonzero;fill:rgb(100%,100%,100%);fill-opacity:1;" d="M 475.824219 106.496094 L 475.824219 109.375 L 474.324219 109.375 L 474.324219 106.496094 "/>
<path style=" stroke:none;fill-rule:nonzero;fill:rgb(100%,100%,100%);fill-opacity:1;" d="M 475.824219 112.253906 L 475.824219 115.28125 L 474.324219 115.28125 L 474.324219 112.253906 "/>
<path style=" stroke:none;fill-rule:nonzero;fill:rgb(100%,100%,100%);fill-opacity:1;" d="M 475.824219 118.3125 L 475.824219 121.1875 L 474.324219 121.1875 L 474.324219 118.3125 "/>
<path style=" stroke:none;fill-rule:nonzero;fill:rgb(100%,100%,100%);fill-opacity:1;" d="M 475.824219 124.21875 L 475.824219 127.097656 L 474.324219 127.097656 L 474.324219 124.21875 "/>
<path style=" stroke:none;fill-rule:nonzero;fill:rgb(100%,100%,100%);fill-opacity:1;" d="M 475.824219 130.125 L 475.824219 133.003906 L 474.324219 133.003906 L 474.324219 130.125 "/>
<path style=" stroke:none;fill-rule:nonzero;fill:rgb(100%,100%,100%);fill-opacity:1;" d="M 475.824219 136.03125 L 475.824219 139.0625 L 474.324219 139.0625 L 474.324219 136.03125 "/>
<path style=" stroke:none;fill-rule:nonzero;fill:rgb(100%,100%,100%);fill-opacity:1;" d="M 475.824219 141.941406 L 475.824219 144.96875 L 474.324219 144.96875 L 474.324219 141.941406 "/>
<path style=" stroke:none;fill-rule:nonzero;fill:rgb(100%,100%,100%);fill-opacity:1;" d="M 475.824219 147.847656 L 475.824219 150.875 L 474.324219 150.875 L 474.324219 147.847656 "/>
<path style=" stroke:none;fill-rule:nonzero;fill:rgb(100%,100%,100%);fill-opacity:1;" d="M 475.824219 153.753906 L 475.824219 156.78125 L 474.324219 156.78125 L 474.324219 153.753906 "/>
<path style=" stroke:none;fill-rule:nonzero;fill:rgb(100%,100%,100%);fill-opacity:1;" d="M 475.824219 159.660156 L 475.824219 162.691406 L 474.324219 162.691406 L 474.324219 159.660156 "/>
<path style=" stroke:none;fill-rule:nonzero;fill:rgb(100%,100%,100%);fill-opacity:1;" d="M 475.824219 165.566406 L 475.824219 168.597656 L 474.324219 168.597656 L 474.324219 165.566406 "/>
<path style=" stroke:none;fill-rule:nonzero;fill:rgb(100%,100%,100%);fill-opacity:1;" d="M 475.824219 171.476562 L 475.824219 174.503906 L 474.324219 174.503906 L 474.324219 171.476562 "/>
<path style=" stroke:none;fill-rule:nonzero;fill:rgb(100%,100%,100%);fill-opacity:1;" d="M 475.824219 177.382812 L 475.824219 180.410156 L 474.324219 180.410156 L 474.324219 177.382812 "/>
<path style=" stroke:none;fill-rule:nonzero;fill:rgb(100%,100%,100%);fill-opacity:1;" d="M 475.824219 183.441406 L 475.824219 186.320312 L 474.324219 186.320312 L 474.324219 183.441406 "/>
<path style=" stroke:none;fill-rule:nonzero;fill:rgb(100%,100%,100%);fill-opacity:1;" d="M 475.824219 189.347656 L 475.824219 192.226562 L 474.324219 192.226562 L 474.324219 189.347656 "/>
<path style=" stroke:none;fill-rule:nonzero;fill:rgb(100%,100%,100%);fill-opacity:1;" d="M 475.824219 195.253906 L 475.824219 198.132812 L 474.324219 198.132812 L 474.324219 195.253906 "/>
<path style=" stroke:none;fill-rule:nonzero;fill:rgb(100%,100%,100%);fill-opacity:1;" d="M 475.824219 201.164062 L 475.824219 204.191406 L 474.324219 204.191406 L 474.324219 201.164062 "/>
<path style=" stroke:none;fill-rule:nonzero;fill:rgb(100%,100%,100%);fill-opacity:1;" d="M 475.824219 207.070312 L 475.824219 210.097656 L 474.324219 210.097656 L 474.324219 207.070312 "/>
<path style=" stroke:none;fill-rule:nonzero;fill:rgb(100%,100%,100%);fill-opacity:1;" d="M 475.824219 212.976562 L 475.824219 216.007812 L 474.324219 216.007812 L 474.324219 212.976562 "/>
<path style=" stroke:none;fill-rule:nonzero;fill:rgb(100%,100%,100%);fill-opacity:1;" d="M 475.824219 218.882812 L 475.824219 221.914062 L 474.324219 221.914062 L 474.324219 218.882812 "/>
<path style=" stroke:none;fill-rule:nonzero;fill:rgb(100%,100%,100%);fill-opacity:1;" d="M 475.824219 224.792969 L 475.824219 227.820312 L 474.324219 227.820312 L 474.324219 224.792969 "/>
<path style=" stroke:none;fill-rule:nonzero;fill:rgb(100%,100%,100%);fill-opacity:1;" d="M 475.824219 230.699219 L 475.824219 233.726562 L 474.324219 233.726562 L 474.324219 230.699219 "/>
<path style=" stroke:none;fill-rule:nonzero;fill:rgb(100%,100%,100%);fill-opacity:1;" d="M 475.824219 236.605469 L 475.824219 239.636719 L 474.324219 239.636719 L 474.324219 236.605469 "/>
<path style=" stroke:none;fill-rule:nonzero;fill:rgb(100%,100%,100%);fill-opacity:1;" d="M 475.824219 242.664062 L 475.824219 245.542969 L 474.324219 245.542969 L 474.324219 242.664062 "/>
<path style=" stroke:none;fill-rule:nonzero;fill:rgb(100%,100%,100%);fill-opacity:1;" d="M 475.824219 248.570312 L 475.824219 251.449219 L 474.324219 251.449219 L 474.324219 248.570312 "/>
<path style=" stroke:none;fill-rule:nonzero;fill:rgb(100%,100%,100%);fill-opacity:1;" d="M 475.824219 254.480469 L 475.824219 257.355469 L 474.324219 257.355469 L 474.324219 254.480469 "/>
<path style=" stroke:none;fill-rule:nonzero;fill:rgb(100%,100%,100%);fill-opacity:1;" d="M 475.824219 260.386719 L 475.824219 263.265625 L 474.324219 263.265625 L 474.324219 260.386719 "/>
<path style=" stroke:none;fill-rule:nonzero;fill:rgb(100%,100%,100%);fill-opacity:1;" d="M 475.824219 266.292969 L 475.824219 269.324219 L 474.324219 269.324219 L 474.324219 266.292969 "/>
<path style=" stroke:none;fill-rule:nonzero;fill:rgb(100%,100%,100%);fill-opacity:1;" d="M 475.824219 272.199219 L 475.824219 275.230469 L 474.324219 275.230469 L 474.324219 272.199219 "/>
<path style=" stroke:none;fill-rule:nonzero;fill:rgb(100%,100%,100%);fill-opacity:1;" d="M 475.824219 278.109375 L 475.824219 281.136719 L 474.324219 281.136719 L 474.324219 278.109375 "/>
<path style=" stroke:none;fill-rule:nonzero;fill:rgb(100%,100%,100%);fill-opacity:1;" d="M 475.824219 284.015625 L 475.824219 287.042969 L 474.324219 287.042969 L 474.324219 284.015625 "/>
<path style=" stroke:none;fill-rule:nonzero;fill:rgb(100%,100%,100%);fill-opacity:1;" d="M 475.824219 289.921875 L 475.824219 292.949219 L 474.324219 292.949219 L 474.324219 289.921875 "/>
<path style=" stroke:none;fill-rule:nonzero;fill:rgb(100%,100%,100%);fill-opacity:1;" d="M 475.824219 295.828125 L 475.824219 298.859375 L 474.324219 298.859375 L 474.324219 295.828125 "/>
<path style=" stroke:none;fill-rule:nonzero;fill:rgb(100%,100%,100%);fill-opacity:1;" d="M 475.824219 301.738281 L 475.824219 304.765625 L 474.324219 304.765625 L 474.324219 301.738281 "/>
<path style=" stroke:none;fill-rule:nonzero;fill:rgb(100%,100%,100%);fill-opacity:1;" d="M 475.824219 307.796875 L 475.824219 310.671875 L 474.324219 310.671875 L 474.324219 307.796875 "/>
<path style=" stroke:none;fill-rule:nonzero;fill:rgb(100%,100%,100%);fill-opacity:1;" d="M 475.824219 313.703125 L 475.824219 316.582031 L 474.324219 316.582031 L 474.324219 313.703125 "/>
<path style=" stroke:none;fill-rule:nonzero;fill:rgb(100%,100%,100%);fill-opacity:1;" d="M 475.824219 319.609375 L 475.824219 322.488281 L 474.324219 322.488281 L 474.324219 319.609375 "/>
<path style=" stroke:none;fill-rule:nonzero;fill:rgb(100%,100%,100%);fill-opacity:1;" d="M 475.824219 325.515625 L 475.824219 328.394531 L 474.324219 328.394531 L 474.324219 325.515625 "/>
<path style=" stroke:none;fill-rule:nonzero;fill:rgb(100%,100%,100%);fill-opacity:1;" d="M 475.824219 331.425781 L 475.824219 334.453125 L 474.324219 334.453125 L 474.324219 331.425781 "/>
<path style=" stroke:none;fill-rule:nonzero;fill:rgb(100%,100%,100%);fill-opacity:1;" d="M 475.824219 337.332031 L 475.824219 340.359375 L 474.324219 340.359375 L 474.324219 337.332031 "/>
<path style=" stroke:none;fill-rule:nonzero;fill:rgb(100%,100%,100%);fill-opacity:1;" d="M 475.824219 343.238281 L 475.824219 346.265625 L 474.324219 346.265625 L 474.324219 343.238281 "/>
<path style=" stroke:none;fill-rule:nonzero;fill:rgb(100%,100%,100%);fill-opacity:1;" d="M 475.824219 349.144531 L 475.824219 352.175781 L 474.324219 352.175781 L 474.324219 349.144531 "/>
<path style=" stroke:none;fill-rule:nonzero;fill:rgb(100%,100%,100%);fill-opacity:1;" d="M 475.824219 355.050781 L 475.824219 358.082031 L 474.324219 358.082031 L 474.324219 355.050781 "/>
<path style=" stroke:none;fill-rule:nonzero;fill:rgb(100%,100%,100%);fill-opacity:1;" d="M 475.824219 360.960938 L 475.824219 363.988281 L 474.324219 363.988281 L 474.324219 360.960938 "/>
<path style=" stroke:none;fill-rule:nonzero;fill:rgb(100%,100%,100%);fill-opacity:1;" d="M 192.894531 331.046875 L 456.59375 331.046875 L 456.59375 330.894531 L 192.894531 330.894531 Z M 192.894531 331.046875 "/>
<path style=" stroke:none;fill-rule:evenodd;fill:rgb(100%,100%,100%);fill-opacity:1;" d="M 174.414062 330.96875 L 193.800781 337.484375 L 193.800781 324.609375 Z M 174.414062 330.96875 "/>
<path style=" stroke:none;fill-rule:evenodd;fill:rgb(100%,100%,100%);fill-opacity:1;" d="M 475.074219 330.96875 L 455.6875 324.609375 L 455.6875 337.484375 Z M 475.074219 330.96875 "/>
<path style=" stroke:none;fill-rule:nonzero;fill:rgb(100%,100%,100%);fill-opacity:1;" d="M 286.433594 359.957031 C 287.621094 361.03125 289.164062 361.566406 291.0625 361.566406 C 292.457031 361.566406 293.714844 361.148438 294.839844 360.3125 L 294.839844 361.566406 L 299.882812 361.414062 L 299.882812 360.082031 C 299.347656 360.082031 298.90625 360.035156 298.554688 359.941406 C 298.203125 359.847656 298.027344 359.648438 298.027344 359.339844 L 298.027344 343.234375 L 293.140625 343.4375 L 293.140625 344.78125 C 293.675781 344.78125 294.121094 344.820312 294.472656 344.902344 C 294.824219 344.984375 295 345.1875 295 345.507812 L 295 350.742188 C 294.480469 350.367188 293.910156 350.085938 293.285156 349.898438 C 292.664062 349.710938 292.03125 349.617188 291.390625 349.617188 C 290.117188 349.617188 288.972656 349.847656 287.953125 350.316406 C 286.933594 350.78125 286.128906 351.464844 285.539062 352.367188 C 284.945312 353.273438 284.648438 354.347656 284.648438 355.59375 C 284.648438 357.425781 285.242188 358.878906 286.433594 359.957031 M 288.785156 359.1875 C 288.394531 358.300781 288.203125 357.109375 288.203125 355.617188 L 288.203125 355.542969 C 288.203125 354.59375 288.28125 353.773438 288.441406 353.070312 C 288.597656 352.371094 288.933594 351.796875 289.449219 351.34375 C 289.960938 350.894531 290.714844 350.667969 291.707031 350.667969 C 292.339844 350.667969 292.925781 350.796875 293.464844 351.0625 C 294.003906 351.328125 294.460938 351.703125 294.839844 352.1875 L 294.839844 358.664062 C 294.453125 359.226562 293.953125 359.675781 293.339844 360.011719 C 292.722656 360.351562 292.066406 360.519531 291.363281 360.519531 C 290.03125 360.519531 289.167969 360.074219 288.785156 359.1875 M 302.144531 358.234375 C 302.503906 358.972656 303.003906 359.589844 303.644531 360.082031 C 304.289062 360.578125 305.023438 360.949219 305.851562 361.195312 C 306.679688 361.445312 307.558594 361.566406 308.480469 361.566406 C 309.402344 361.566406 310.28125 361.445312 311.121094 361.195312 C 311.957031 360.949219 312.691406 360.578125 313.324219 360.082031 C 313.957031 359.589844 314.453125 358.972656 314.8125 358.234375 C 315.171875 357.496094 315.351562 356.65625 315.351562 355.707031 C 315.351562 354.734375 315.179688 353.867188 314.839844 353.097656 C 314.496094 352.328125 314.011719 351.679688 313.382812 351.152344 C 312.757812 350.625 312.023438 350.222656 311.191406 349.949219 C 310.355469 349.675781 309.453125 349.539062 308.480469 349.539062 C 307.179688 349.539062 306.011719 349.78125 304.96875 350.261719 C 303.929688 350.746094 303.109375 351.453125 302.507812 352.378906 C 301.90625 353.3125 301.605469 354.417969 301.605469 355.707031 C 301.605469 356.65625 301.785156 357.496094 302.144531 358.234375 M 306.214844 359.71875 C 305.730469 359.253906 305.433594 358.683594 305.324219 358.011719 C 305.214844 357.335938 305.160156 356.453125 305.160156 355.363281 C 305.160156 354.644531 305.1875 354.015625 305.246094 353.472656 C 305.304688 352.933594 305.433594 352.445312 305.640625 352.007812 C 305.847656 351.574219 306.175781 351.230469 306.628906 350.972656 C 307.082031 350.71875 307.699219 350.589844 308.480469 350.589844 C 309.261719 350.589844 309.878906 350.71875 310.328125 350.972656 C 310.78125 351.230469 311.109375 351.570312 311.308594 351.992188 C 311.511719 352.414062 311.644531 352.878906 311.707031 353.386719 C 311.765625 353.894531 311.796875 354.550781 311.796875 355.363281 C 311.796875 356.453125 311.742188 357.335938 311.632812 358.011719 C 311.523438 358.683594 311.226562 359.253906 310.746094 359.71875 C 310.261719 360.183594 309.507812 360.417969 308.480469 360.417969 C 307.453125 360.417969 306.695312 360.183594 306.214844 359.71875 M 324.394531 361.414062 L 324.394531 360.082031 L 322.539062 360.082031 L 322.539062 354.570312 C 322.539062 353.886719 322.714844 353.246094 323.070312 352.648438 C 323.425781 352.050781 323.90625 351.574219 324.515625 351.210938 C 325.125 350.847656 325.785156 350.667969 326.492188 350.667969 C 327.125 350.667969 327.523438 350.929688 327.695312 351.453125 C 327.867188 351.976562 327.953125 352.640625 327.953125 353.441406 L 327.953125 360.082031 L 326.082031 360.082031 L 326.082031 361.414062 L 333.007812 361.414062 L 333.007812 360.082031 L 331.136719 360.082031 L 331.136719 354.570312 C 331.136719 353.886719 331.316406 353.246094 331.671875 352.648438 C 332.027344 352.050781 332.515625 351.574219 333.132812 351.210938 C 333.753906 350.847656 334.410156 350.667969 335.101562 350.667969 C 335.734375 350.667969 336.136719 350.929688 336.304688 351.453125 C 336.476562 351.976562 336.5625 352.640625 336.5625 353.441406 L 336.5625 360.082031 L 334.707031 360.082031 L 334.707031 361.414062 L 341.605469 361.414062 L 341.605469 360.082031 L 339.75 360.082031 L 339.75 353.367188 C 339.75 352 339.390625 351.035156 338.671875 350.46875 C 337.949219 349.902344 336.878906 349.617188 335.457031 349.617188 C 334.550781 349.617188 333.699219 349.832031 332.894531 350.261719 C 332.09375 350.695312 331.460938 351.285156 331.003906 352.035156 C 330.832031 351.378906 330.542969 350.875 330.148438 350.527344 C 329.753906 350.175781 329.285156 349.9375 328.742188 349.808594 C 328.195312 349.679688 327.570312 349.617188 326.855469 349.617188 C 326.234375 349.617188 325.621094 349.726562 325.019531 349.945312 C 324.417969 350.160156 323.878906 350.472656 323.394531 350.878906 C 322.914062 351.28125 322.53125 351.753906 322.25 352.292969 L 322.25 349.617188 L 317.496094 349.835938 L 317.496094 351.164062 C 318.734375 351.164062 319.351562 351.414062 319.351562 351.90625 L 319.351562 360.082031 L 317.496094 360.082031 L 317.496094 361.414062 Z M 324.394531 361.414062 "/>
<path style=" stroke:none;fill-rule:nonzero;fill:rgb(100%,100%,100%);fill-opacity:1;" d="M 354.335938 365.273438 C 354.621094 364.960938 354.765625 364.617188 354.765625 364.242188 C 354.765625 363.960938 354.664062 363.730469 354.460938 363.558594 C 354.257812 363.382812 354.003906 363.292969 353.707031 363.292969 C 353.253906 363.292969 352.882812 363.457031 352.585938 363.789062 C 352.292969 364.117188 352.144531 364.5 352.144531 364.945312 C 352.144531 365.5 352.382812 365.945312 352.863281 366.28125 C 353.339844 366.621094 353.882812 366.789062 354.488281 366.789062 C 355.28125 366.789062 355.964844 366.445312 356.546875 365.765625 C 357.125 365.082031 357.601562 364.234375 357.976562 363.226562 C 358.347656 362.214844 358.636719 361.230469 358.84375 360.269531 C 359.050781 359.308594 359.234375 358.363281 359.390625 357.433594 L 360.644531 351.035156 L 363.53125 351.035156 L 363.707031 350.941406 C 363.757812 350.878906 363.792969 350.792969 363.820312 350.6875 C 363.847656 350.578125 363.863281 350.503906 363.871094 350.460938 C 363.871094 350.230469 363.785156 350.117188 363.609375 350.117188 L 360.824219 350.117188 L 361.15625 348.386719 C 361.542969 346.425781 361.792969 345.222656 361.90625 344.777344 C 361.976562 344.496094 362.132812 344.234375 362.375 343.984375 C 362.617188 343.738281 362.875 343.613281 363.148438 343.613281 C 363.640625 343.613281 364.054688 343.738281 364.390625 343.984375 C 363.992188 344.027344 363.660156 344.191406 363.390625 344.472656 C 363.121094 344.757812 362.984375 345.09375 362.984375 345.476562 C 362.984375 345.757812 363.089844 345.984375 363.296875 346.15625 C 363.503906 346.332031 363.753906 346.417969 364.046875 346.417969 C 364.476562 346.417969 364.84375 346.253906 365.152344 345.929688 C 365.457031 345.601562 365.609375 345.214844 365.609375 344.773438 C 365.609375 344.390625 365.488281 344.058594 365.25 343.78125 C 365.011719 343.5 364.707031 343.289062 364.335938 343.148438 C 363.960938 343.007812 363.578125 342.9375 363.179688 342.9375 C 362.574219 342.9375 362.007812 343.125 361.488281 343.496094 C 360.964844 343.867188 360.546875 344.335938 360.242188 344.910156 C 360.039062 345.308594 359.886719 345.671875 359.785156 345.996094 C 359.683594 346.320312 359.589844 346.671875 359.5 347.050781 C 359.414062 347.429688 359.316406 347.886719 359.210938 348.414062 L 358.894531 350.117188 L 356.488281 350.117188 C 356.332031 350.117188 356.21875 350.308594 356.148438 350.691406 C 356.148438 350.921875 356.234375 351.035156 356.410156 351.035156 L 358.722656 351.035156 L 357.484375 357.460938 C 356.738281 361.179688 356.28125 363.371094 356.117188 364.035156 C 355.710938 365.417969 355.1875 366.109375 354.546875 366.109375 C 354.074219 366.109375 353.667969 365.984375 353.335938 365.738281 C 353.714844 365.738281 354.046875 365.582031 354.335938 365.273438 "/>
<path style=" stroke:none;fill-rule:evenodd;fill:rgb(0%,0%,0%);fill-opacity:1;" d="M 243.179688 253.722656 C 246.8125 253.722656 249.542969 256.597656 249.542969 260.234375 C 249.542969 263.871094 246.8125 266.597656 243.179688 266.597656 C 239.542969 266.597656 236.667969 263.871094 236.667969 260.234375 C 236.667969 256.597656 239.542969 253.722656 243.179688 253.722656 "/>
<path style=" stroke:none;fill-rule:nonzero;fill:rgb(100%,100%,100%);fill-opacity:1;" d="M 243.179688 253.722656 L 243.179688 252.585938 C 245.300781 252.582031 247.199219 253.4375 248.539062 254.824219 C 249.882812 256.210938 250.679688 258.132812 250.675781 260.234375 C 250.679688 262.335938 249.878906 264.234375 248.527344 265.582031 C 247.175781 266.933594 245.28125 267.734375 243.179688 267.734375 C 241.078125 267.734375 239.15625 266.9375 237.769531 265.59375 C 236.378906 264.253906 235.527344 262.355469 235.53125 260.234375 C 235.53125 258.113281 236.375 256.191406 237.757812 254.8125 C 239.136719 253.429688 241.058594 252.585938 243.179688 252.585938 L 243.179688 254.859375 C 241.664062 254.859375 240.332031 255.453125 239.363281 256.417969 C 238.394531 257.386719 237.804688 258.71875 237.800781 260.234375 C 237.804688 261.75 238.390625 263.03125 239.347656 263.960938 C 240.308594 264.890625 241.644531 265.457031 243.179688 265.460938 C 244.710938 265.457031 245.996094 264.894531 246.921875 263.976562 C 247.839844 263.050781 248.402344 261.769531 248.40625 260.234375 C 248.402344 258.703125 247.835938 257.367188 246.90625 256.40625 C 245.976562 255.445312 244.695312 254.859375 243.179688 254.859375 Z M 243.179688 253.722656 "/>
<path style=" stroke:none;fill-rule:evenodd;fill:rgb(0%,0%,0%);fill-opacity:1;" d="M 558.683594 47.726562 C 562.320312 47.726562 565.195312 50.453125 565.195312 54.089844 C 565.195312 57.722656 562.320312 60.601562 558.683594 60.601562 C 555.046875 60.601562 552.320312 57.722656 552.320312 54.089844 C 552.320312 50.453125 555.046875 47.726562 558.683594 47.726562 "/>
<path style=" stroke:none;fill-rule:nonzero;fill:rgb(100%,100%,100%);fill-opacity:1;" d="M 558.683594 47.726562 L 558.683594 46.589844 C 560.785156 46.589844 562.707031 47.382812 564.09375 48.726562 C 565.484375 50.070312 566.335938 51.96875 566.332031 54.089844 C 566.332031 56.207031 565.488281 58.132812 564.105469 59.511719 C 562.726562 60.894531 560.804688 61.738281 558.683594 61.738281 C 556.5625 61.742188 554.664062 60.886719 553.324219 59.5 C 551.980469 58.113281 551.183594 56.191406 551.1875 54.089844 C 551.183594 51.988281 551.984375 50.089844 553.335938 48.742188 C 554.6875 47.390625 556.582031 46.589844 558.683594 46.589844 L 558.683594 48.863281 C 557.152344 48.867188 555.867188 49.429688 554.941406 50.347656 C 554.023438 51.269531 553.460938 52.554688 553.457031 54.089844 C 553.460938 55.621094 554.027344 56.957031 554.957031 57.917969 C 555.886719 58.878906 557.167969 59.464844 558.683594 59.464844 C 560.199219 59.464844 561.53125 58.871094 562.5 57.90625 C 563.46875 56.9375 564.058594 55.605469 564.0625 54.089844 C 564.058594 52.574219 563.472656 51.292969 562.515625 50.363281 C 561.554688 49.433594 560.21875 48.863281 558.683594 48.863281 Z M 558.683594 47.726562 "/>
<path style=" stroke:none;fill-rule:nonzero;fill:rgb(100%,100%,100%);fill-opacity:1;" d="M 141.425781 321.316406 L 142.058594 321.316406 L 142.195312 321.234375 L 142.269531 321.085938 L 142.214844 320.933594 C 140.707031 319.464844 139.429688 317.835938 138.382812 316.046875 C 137.332031 314.253906 136.5 312.351562 135.875 310.339844 C 135.253906 308.328125 134.808594 306.273438 134.546875 304.179688 C 134.285156 302.085938 134.152344 299.953125 134.152344 297.789062 C 134.152344 295.613281 134.285156 293.480469 134.546875 291.398438 C 134.808594 289.3125 135.253906 287.25 135.875 285.214844 C 136.5 283.183594 137.328125 281.273438 138.363281 279.492188 C 139.394531 277.707031 140.679688 276.070312 142.214844 274.578125 L 142.269531 274.421875 L 142.203125 274.265625 L 142.058594 274.179688 L 141.425781 274.179688 L 141.292969 274.230469 C 139.617188 275.648438 138.183594 277.253906 136.992188 279.054688 C 135.804688 280.855469 134.84375 282.777344 134.109375 284.824219 C 133.375 286.875 132.839844 288.976562 132.503906 291.140625 C 132.164062 293.300781 131.996094 295.507812 131.996094 297.761719 C 131.996094 300.003906 132.164062 302.207031 132.503906 304.363281 C 132.839844 306.523438 133.375 308.625 134.109375 310.671875 C 134.84375 312.71875 135.804688 314.644531 136.992188 316.441406 C 138.183594 318.242188 139.617188 319.851562 141.292969 321.265625 Z M 141.425781 321.316406 "/>
<path style=" stroke:none;fill-rule:nonzero;fill:rgb(100%,100%,100%);fill-opacity:1;" d="M 149.371094 304.007812 L 149.371094 302.675781 C 149.203125 302.675781 148.992188 302.65625 148.730469 302.613281 C 148.472656 302.570312 148.34375 302.519531 148.34375 302.460938 L 151.050781 299.480469 L 153.835938 302.675781 L 152.832031 302.675781 L 152.832031 304.007812 L 159.210938 304.007812 L 159.210938 302.675781 L 157.191406 302.675781 L 152.804688 297.558594 L 156.105469 293.953125 C 156.265625 293.789062 157.109375 293.707031 158.644531 293.707031 L 158.644531 292.378906 L 153.242188 292.378906 L 153.242188 293.707031 C 153.398438 293.707031 153.609375 293.726562 153.867188 293.757812 C 154.128906 293.792969 154.257812 293.847656 154.257812 293.925781 L 151.90625 296.511719 L 149.476562 293.707031 L 150.453125 293.707031 L 150.453125 292.378906 L 144.089844 292.378906 L 144.089844 293.707031 L 146.097656 293.707031 L 150.152344 298.429688 L 146.507812 302.433594 C 146.339844 302.597656 145.488281 302.675781 143.957031 302.675781 L 143.957031 304.007812 Z M 149.371094 304.007812 "/>
<path style=" stroke:none;fill-rule:nonzero;fill:rgb(100%,100%,100%);fill-opacity:1;" d="M 162.375 308.972656 L 162.640625 309.089844 L 162.8125 309.035156 C 163.539062 308.335938 164.105469 307.550781 164.503906 306.675781 C 164.902344 305.800781 165.101562 304.878906 165.101562 303.90625 C 165.101562 303.207031 164.96875 302.570312 164.695312 301.992188 C 164.421875 301.417969 163.964844 301.128906 163.324219 301.128906 C 162.910156 301.128906 162.558594 301.265625 162.269531 301.539062 C 161.980469 301.8125 161.835938 302.152344 161.835938 302.5625 C 161.835938 302.964844 161.980469 303.304688 162.269531 303.585938 C 162.558594 303.867188 162.910156 304.007812 163.324219 304.007812 C 163.753906 304.007812 164.113281 303.867188 164.40625 303.585938 L 164.40625 303.90625 C 164.40625 304.785156 164.226562 305.621094 163.863281 306.414062 C 163.503906 307.207031 163 307.90625 162.351562 308.511719 L 162.242188 308.730469 Z M 162.375 308.972656 "/>
<path style=" stroke:none;fill-rule:nonzero;fill:rgb(100%,100%,100%);fill-opacity:1;" d="M 192.992188 280.46875 L 196.082031 283.09375 L 196.625 282.542969 L 192.992188 279.011719 L 189.335938 282.542969 L 189.867188 283.09375 Z M 192.992188 280.46875 "/>
<path style=" stroke:none;fill-rule:nonzero;fill:rgb(100%,100%,100%);fill-opacity:1;" d="M 184.238281 307.867188 C 184.523438 307.554688 184.667969 307.210938 184.667969 306.835938 C 184.667969 306.554688 184.566406 306.328125 184.363281 306.152344 C 184.160156 305.976562 183.910156 305.890625 183.609375 305.890625 C 183.160156 305.890625 182.785156 306.054688 182.488281 306.382812 C 182.195312 306.710938 182.046875 307.097656 182.046875 307.539062 C 182.046875 308.09375 182.285156 308.539062 182.765625 308.878906 C 183.242188 309.214844 183.785156 309.382812 184.394531 309.382812 C 185.183594 309.382812 185.867188 309.042969 186.449219 308.359375 C 187.027344 307.675781 187.503906 306.832031 187.878906 305.820312 C 188.25 304.808594 188.542969 303.824219 188.75 302.863281 C 188.953125 301.902344 189.136719 300.960938 189.296875 300.027344 L 190.546875 293.632812 L 193.433594 293.632812 L 193.613281 293.535156 C 193.660156 293.472656 193.695312 293.386719 193.722656 293.28125 C 193.75 293.171875 193.769531 293.097656 193.777344 293.054688 C 193.777344 292.824219 193.6875 292.710938 193.511719 292.710938 L 190.730469 292.710938 L 191.058594 290.980469 C 191.445312 289.019531 191.695312 287.816406 191.8125 287.375 C 191.878906 287.089844 192.035156 286.828125 192.28125 286.578125 C 192.523438 286.332031 192.777344 286.207031 193.050781 286.207031 C 193.542969 286.207031 193.957031 286.332031 194.292969 286.578125 C 193.894531 286.621094 193.5625 286.785156 193.292969 287.066406 C 193.023438 287.351562 192.890625 287.6875 192.890625 288.070312 C 192.890625 288.351562 192.992188 288.578125 193.199219 288.75 C 193.40625 288.925781 193.65625 289.011719 193.949219 289.011719 C 194.378906 289.011719 194.75 288.847656 195.054688 288.523438 C 195.359375 288.195312 195.511719 287.808594 195.511719 287.367188 C 195.511719 286.984375 195.390625 286.652344 195.15625 286.375 C 194.917969 286.09375 194.613281 285.882812 194.238281 285.742188 C 193.863281 285.601562 193.480469 285.53125 193.082031 285.53125 C 192.476562 285.53125 191.914062 285.71875 191.390625 286.089844 C 190.867188 286.460938 190.449219 286.929688 190.144531 287.503906 C 189.941406 287.902344 189.789062 288.265625 189.6875 288.589844 C 189.585938 288.914062 189.492188 289.265625 189.40625 289.644531 C 189.316406 290.023438 189.222656 290.480469 189.113281 291.007812 L 188.796875 292.710938 L 186.394531 292.710938 C 186.234375 292.710938 186.121094 292.902344 186.050781 293.285156 C 186.050781 293.515625 186.140625 293.632812 186.316406 293.632812 L 188.628906 293.632812 L 187.390625 300.054688 C 186.640625 303.773438 186.183594 305.964844 186.019531 306.632812 C 185.613281 308.011719 185.09375 308.703125 184.449219 308.703125 C 183.976562 308.703125 183.570312 308.582031 183.238281 308.332031 C 183.617188 308.332031 183.949219 308.175781 184.238281 307.867188 "/>
<path style=" stroke:none;fill-rule:nonzero;fill:rgb(100%,100%,100%);fill-opacity:1;" d="M 205.058594 310.558594 L 205.308594 310.558594 L 205.449219 310.476562 L 205.523438 310.328125 C 205.523438 310.234375 205.496094 310.164062 205.441406 310.113281 C 202.375 307.230469 200.839844 303.011719 200.839844 297.457031 C 200.839844 296.203125 200.917969 295 201.078125 293.84375 C 201.234375 292.6875 201.492188 291.570312 201.851562 290.492188 C 202.207031 289.410156 202.679688 288.394531 203.265625 287.4375 C 203.851562 286.484375 204.585938 285.585938 205.46875 284.75 L 205.523438 284.585938 L 205.457031 284.425781 L 205.308594 284.355469 L 205.058594 284.355469 L 204.925781 284.40625 C 203.949219 285.148438 203.09375 286.015625 202.359375 287.003906 C 201.628906 287.992188 201.027344 289.054688 200.554688 290.191406 C 200.082031 291.324219 199.734375 292.503906 199.503906 293.734375 C 199.273438 294.960938 199.160156 296.203125 199.160156 297.457031 C 199.160156 298.695312 199.273438 299.925781 199.503906 301.15625 C 199.734375 302.382812 200.078125 303.5625 200.542969 304.6875 C 201.003906 305.8125 201.601562 306.871094 202.328125 307.867188 C 203.054688 308.859375 203.921875 309.742188 204.925781 310.507812 Z M 205.058594 310.558594 "/>
<path style=" stroke:none;fill-rule:nonzero;fill:rgb(100%,100%,100%);fill-opacity:1;" d="M 212.683594 304.007812 L 212.683594 302.675781 C 212.519531 302.675781 212.304688 302.65625 212.042969 302.613281 C 211.785156 302.570312 211.65625 302.519531 211.65625 302.460938 L 214.363281 299.480469 L 217.148438 302.675781 L 216.144531 302.675781 L 216.144531 304.007812 L 222.523438 304.007812 L 222.523438 302.675781 L 220.503906 302.675781 L 216.117188 297.558594 L 219.417969 293.953125 C 219.578125 293.789062 220.421875 293.707031 221.957031 293.707031 L 221.957031 292.378906 L 216.554688 292.378906 L 216.554688 293.707031 C 216.710938 293.707031 216.921875 293.726562 217.183594 293.757812 C 217.441406 293.792969 217.570312 293.847656 217.570312 293.925781 L 215.222656 296.511719 L 212.789062 293.707031 L 213.769531 293.707031 L 213.769531 292.378906 L 207.402344 292.378906 L 207.402344 293.707031 L 209.410156 293.707031 L 213.464844 298.429688 L 209.820312 302.433594 C 209.652344 302.597656 208.800781 302.675781 207.269531 302.675781 L 207.269531 304.007812 Z M 212.683594 304.007812 "/>
<path style=" stroke:none;fill-rule:nonzero;fill:rgb(100%,100%,100%);fill-opacity:1;" d="M 224.894531 310.558594 L 225.023438 310.507812 C 226.03125 309.742188 226.894531 308.863281 227.617188 307.878906 C 228.339844 306.894531 228.9375 305.820312 229.410156 304.65625 C 229.882812 303.492188 230.226562 302.308594 230.441406 301.109375 C 230.660156 299.910156 230.765625 298.695312 230.765625 297.457031 C 230.765625 295.785156 230.566406 294.148438 230.164062 292.542969 C 229.761719 290.941406 229.128906 289.429688 228.265625 288.015625 C 227.402344 286.597656 226.320312 285.394531 225.023438 284.40625 L 224.894531 284.355469 L 224.640625 284.355469 L 224.476562 284.425781 L 224.40625 284.585938 C 224.40625 284.6875 224.4375 284.761719 224.507812 284.800781 C 227.558594 287.6875 229.085938 291.90625 229.085938 297.457031 C 229.085938 303.011719 227.542969 307.246094 224.457031 310.164062 L 224.40625 310.328125 C 224.40625 310.484375 224.484375 310.558594 224.640625 310.558594 Z M 224.894531 310.558594 "/>
<path style=" stroke:none;fill-rule:nonzero;fill:rgb(100%,100%,100%);fill-opacity:1;" d="M 234.984375 321.316406 L 235.117188 321.265625 C 236.773438 319.875 238.203125 318.273438 239.402344 316.457031 C 240.605469 314.640625 241.570312 312.707031 242.304688 310.660156 C 243.035156 308.613281 243.566406 306.511719 243.894531 304.359375 C 244.222656 302.203125 244.386719 300.003906 244.386719 297.761719 C 244.386719 295.507812 244.222656 293.304688 243.894531 291.148438 C 243.566406 288.988281 243.035156 286.886719 242.304688 284.84375 C 241.570312 282.800781 240.605469 280.871094 239.402344 279.046875 C 238.203125 277.226562 236.773438 275.621094 235.117188 274.230469 L 234.984375 274.179688 L 234.367188 274.179688 C 234.207031 274.179688 234.128906 274.261719 234.128906 274.421875 L 234.183594 274.578125 C 235.707031 276.035156 236.996094 277.671875 238.042969 279.484375 C 239.089844 281.296875 239.917969 283.1875 240.519531 285.160156 C 241.125 287.128906 241.5625 289.152344 241.832031 291.222656 C 242.097656 293.296875 242.230469 295.46875 242.230469 297.738281 C 242.230469 299.953125 242.097656 302.109375 241.835938 304.199219 C 241.574219 306.289062 241.140625 308.320312 240.535156 310.300781 C 239.929688 312.28125 239.101562 314.175781 238.050781 315.988281 C 236.996094 317.800781 235.707031 319.449219 234.183594 320.933594 L 234.128906 321.085938 C 234.128906 321.242188 234.207031 321.316406 234.367188 321.316406 Z M 234.984375 321.316406 "/>
<path style=" stroke:none;fill-rule:nonzero;fill:rgb(100%,100%,100%);fill-opacity:1;" d="M 553.417969 128.042969 L 554.050781 128.042969 L 554.1875 127.960938 L 554.261719 127.8125 L 554.207031 127.65625 C 552.699219 126.191406 551.421875 124.5625 550.375 122.769531 C 549.324219 120.980469 548.492188 119.078125 547.867188 117.0625 C 547.246094 115.050781 546.804688 112.996094 546.539062 110.902344 C 546.277344 108.808594 546.144531 106.679688 546.144531 104.511719 C 546.144531 102.335938 546.277344 100.207031 546.539062 98.121094 C 546.804688 96.035156 547.246094 93.976562 547.867188 91.941406 C 548.492188 89.90625 549.320312 87.996094 550.355469 86.214844 C 551.390625 84.433594 552.675781 82.792969 554.207031 81.300781 L 554.261719 81.148438 L 554.195312 80.988281 L 554.050781 80.90625 L 553.417969 80.90625 L 553.285156 80.957031 C 551.609375 82.371094 550.175781 83.980469 548.984375 85.78125 C 547.796875 87.578125 546.835938 89.503906 546.101562 91.550781 C 545.367188 93.597656 544.832031 95.703125 544.496094 97.863281 C 544.15625 100.027344 543.988281 102.234375 543.988281 104.484375 C 543.988281 106.730469 544.15625 108.929688 544.496094 111.089844 C 544.832031 113.246094 545.367188 115.347656 546.101562 117.394531 C 546.835938 119.445312 547.796875 121.367188 548.984375 123.167969 C 550.175781 124.96875 551.609375 126.574219 553.285156 127.992188 Z M 553.417969 128.042969 "/>
<path style=" stroke:none;fill-rule:nonzero;fill:rgb(100%,100%,100%);fill-opacity:1;" d="M 556.824219 115.28125 C 557.410156 115.75 558.074219 115.984375 558.8125 115.984375 C 559.789062 115.984375 560.683594 115.671875 561.488281 115.050781 C 562.292969 114.425781 562.90625 113.664062 563.332031 112.757812 L 569.144531 100.65625 C 569.277344 100.507812 569.90625 100.4375 571.042969 100.4375 L 571.042969 99.105469 L 566.339844 99.105469 L 566.339844 100.4375 C 566.609375 100.4375 566.894531 100.453125 567.195312 100.484375 C 567.492188 100.511719 567.644531 100.570312 567.644531 100.65625 L 564.472656 107.257812 L 561.1875 100.4375 L 562.609375 100.4375 L 562.609375 99.105469 L 556.050781 99.105469 L 556.050781 100.4375 L 557.835938 100.4375 L 562.792969 110.738281 L 561.8125 112.757812 C 561.53125 113.375 561.125 113.890625 560.589844 114.308594 C 560.058594 114.722656 559.464844 114.933594 558.8125 114.933594 C 558.714844 114.933594 558.570312 114.917969 558.375 114.882812 C 558.902344 114.585938 559.167969 114.121094 559.167969 113.488281 C 559.167969 113.054688 559.015625 112.6875 558.707031 112.386719 C 558.398438 112.089844 558.019531 111.941406 557.570312 111.941406 C 557.101562 111.941406 556.714844 112.089844 556.40625 112.386719 C 556.101562 112.6875 555.945312 113.054688 555.945312 113.488281 C 555.945312 114.214844 556.238281 114.8125 556.824219 115.28125 "/>
<path style=" stroke:none;fill-rule:nonzero;fill:rgb(100%,100%,100%);fill-opacity:1;" d="M 574.515625 115.703125 L 574.777344 115.816406 L 574.949219 115.765625 C 575.679688 115.066406 576.242188 114.28125 576.644531 113.40625 C 577.042969 112.53125 577.242188 111.609375 577.242188 110.636719 C 577.242188 109.9375 577.105469 109.296875 576.835938 108.722656 C 576.5625 108.148438 576.105469 107.859375 575.464844 107.859375 C 575.050781 107.859375 574.699219 107.996094 574.410156 108.269531 C 574.121094 108.539062 573.976562 108.882812 573.976562 109.292969 C 573.976562 109.691406 574.121094 110.035156 574.410156 110.316406 C 574.699219 110.597656 575.050781 110.738281 575.464844 110.738281 C 575.894531 110.738281 576.253906 110.597656 576.546875 110.316406 L 576.546875 110.636719 C 576.546875 111.515625 576.363281 112.351562 576.003906 113.144531 C 575.644531 113.9375 575.140625 114.636719 574.488281 115.242188 L 574.382812 115.457031 Z M 574.515625 115.703125 "/>
<path style=" stroke:none;fill-rule:nonzero;fill:rgb(100%,100%,100%);fill-opacity:1;" d="M 605.4375 87.199219 L 608.523438 89.820312 L 609.066406 89.269531 L 605.4375 85.738281 L 601.78125 89.269531 L 602.308594 89.820312 Z M 605.4375 87.199219 "/>
<path style=" stroke:none;fill-rule:nonzero;fill:rgb(100%,100%,100%);fill-opacity:1;" d="M 596.378906 114.59375 C 596.664062 114.285156 596.808594 113.941406 596.808594 113.566406 C 596.808594 113.285156 596.707031 113.054688 596.503906 112.878906 C 596.300781 112.707031 596.046875 112.617188 595.75 112.617188 C 595.296875 112.617188 594.925781 112.78125 594.628906 113.109375 C 594.335938 113.4375 594.1875 113.824219 594.1875 114.269531 C 594.1875 114.824219 594.425781 115.269531 594.90625 115.605469 C 595.382812 115.941406 595.925781 116.109375 596.53125 116.109375 C 597.324219 116.109375 598.007812 115.769531 598.589844 115.089844 C 599.167969 114.40625 599.644531 113.558594 600.019531 112.546875 C 600.390625 111.535156 600.683594 110.550781 600.890625 109.59375 C 601.09375 108.632812 601.277344 107.6875 601.4375 106.757812 L 602.6875 100.359375 L 605.574219 100.359375 L 605.75 100.265625 C 605.800781 100.199219 605.835938 100.113281 605.863281 100.007812 C 605.890625 99.902344 605.90625 99.828125 605.914062 99.785156 C 605.914062 99.554688 605.828125 99.4375 605.652344 99.4375 L 602.867188 99.4375 L 603.199219 97.710938 C 603.585938 95.75 603.835938 94.546875 603.949219 94.101562 C 604.019531 93.820312 604.175781 93.554688 604.417969 93.308594 C 604.660156 93.0625 604.917969 92.9375 605.191406 92.9375 C 605.683594 92.9375 606.097656 93.058594 606.433594 93.308594 C 606.035156 93.347656 605.703125 93.511719 605.433594 93.796875 C 605.164062 94.082031 605.027344 94.417969 605.027344 94.796875 C 605.027344 95.078125 605.132812 95.304688 605.339844 95.480469 C 605.546875 95.652344 605.796875 95.742188 606.089844 95.742188 C 606.519531 95.742188 606.890625 95.578125 607.195312 95.25 C 607.5 94.925781 607.652344 94.539062 607.652344 94.097656 C 607.652344 93.714844 607.53125 93.382812 607.292969 93.101562 C 607.058594 92.820312 606.75 92.613281 606.378906 92.472656 C 606.003906 92.332031 605.621094 92.261719 605.222656 92.261719 C 604.617188 92.261719 604.054688 92.445312 603.53125 92.816406 C 603.007812 93.1875 602.589844 93.660156 602.285156 94.230469 C 602.082031 94.632812 601.929688 94.996094 601.828125 95.320312 C 601.726562 95.644531 601.632812 95.996094 601.542969 96.375 C 601.457031 96.753906 601.359375 97.210938 601.253906 97.738281 L 600.9375 99.4375 L 598.53125 99.4375 C 598.375 99.4375 598.261719 99.632812 598.191406 100.015625 C 598.191406 100.246094 598.277344 100.359375 598.453125 100.359375 L 600.769531 100.359375 L 599.527344 106.785156 C 598.78125 110.503906 598.324219 112.695312 598.160156 113.359375 C 597.753906 114.742188 597.230469 115.433594 596.589844 115.433594 C 596.117188 115.433594 595.710938 115.308594 595.378906 115.0625 C 595.757812 115.0625 596.089844 114.90625 596.378906 114.59375 "/>
<path style=" stroke:none;fill-rule:nonzero;fill:rgb(100%,100%,100%);fill-opacity:1;" d="M 617.5 117.289062 L 617.753906 117.289062 L 617.890625 117.207031 L 617.964844 117.058594 C 617.964844 116.964844 617.9375 116.890625 617.886719 116.839844 C 614.816406 113.957031 613.28125 109.738281 613.28125 104.1875 C 613.28125 102.933594 613.363281 101.726562 613.519531 100.570312 C 613.679688 99.414062 613.9375 98.296875 614.292969 97.21875 C 614.652344 96.140625 615.121094 95.125 615.710938 94.167969 C 616.296875 93.210938 617.03125 92.316406 617.910156 91.480469 L 617.964844 91.316406 L 617.898438 91.15625 L 617.753906 91.085938 L 617.5 91.085938 L 617.371094 91.136719 C 616.390625 91.878906 615.535156 92.742188 614.804688 93.734375 C 614.070312 94.722656 613.46875 95.785156 612.996094 96.917969 C 612.527344 98.054688 612.175781 99.234375 611.945312 100.460938 C 611.71875 101.691406 611.601562 102.933594 611.601562 104.1875 C 611.601562 105.421875 611.71875 106.65625 611.945312 107.882812 C 612.175781 109.113281 612.523438 110.289062 612.984375 111.414062 C 613.449219 112.542969 614.042969 113.601562 614.769531 114.59375 C 615.496094 115.589844 616.363281 116.46875 617.371094 117.238281 Z M 617.5 117.289062 "/>
<path style=" stroke:none;fill-rule:nonzero;fill:rgb(100%,100%,100%);fill-opacity:1;" d="M 620.589844 115.28125 C 621.175781 115.75 621.839844 115.984375 622.582031 115.984375 C 623.558594 115.984375 624.449219 115.671875 625.253906 115.050781 C 626.0625 114.425781 626.675781 113.664062 627.097656 112.757812 L 632.910156 100.65625 C 633.042969 100.507812 633.675781 100.4375 634.808594 100.4375 L 634.808594 99.105469 L 630.105469 99.105469 L 630.105469 100.4375 C 630.378906 100.4375 630.664062 100.453125 630.960938 100.484375 C 631.261719 100.511719 631.410156 100.570312 631.410156 100.65625 L 628.242188 107.257812 L 624.957031 100.4375 L 626.375 100.4375 L 626.375 99.105469 L 619.820312 99.105469 L 619.820312 100.4375 L 621.601562 100.4375 L 626.558594 110.738281 L 625.582031 112.757812 C 625.300781 113.375 624.890625 113.890625 624.359375 114.308594 C 623.824219 114.722656 623.234375 114.933594 622.578125 114.933594 C 622.484375 114.933594 622.335938 114.917969 622.144531 114.882812 C 622.671875 114.585938 622.933594 114.121094 622.933594 113.488281 C 622.933594 113.054688 622.78125 112.6875 622.472656 112.386719 C 622.164062 112.089844 621.785156 111.941406 621.335938 111.941406 C 620.871094 111.941406 620.484375 112.089844 620.175781 112.386719 C 619.867188 112.6875 619.714844 113.054688 619.714844 113.488281 C 619.714844 114.214844 620.003906 114.8125 620.589844 115.28125 "/>
<path style=" stroke:none;fill-rule:nonzero;fill:rgb(100%,100%,100%);fill-opacity:1;" d="M 637.941406 117.289062 L 638.074219 117.238281 C 639.078125 116.46875 639.945312 115.59375 640.667969 114.609375 C 641.390625 113.621094 641.988281 112.546875 642.460938 111.382812 C 642.929688 110.21875 643.273438 109.039062 643.492188 107.839844 C 643.707031 106.640625 643.816406 105.421875 643.816406 104.1875 C 643.816406 102.515625 643.613281 100.875 643.214844 99.273438 C 642.8125 97.667969 642.179688 96.160156 641.316406 94.742188 C 640.449219 93.328125 639.371094 92.125 638.074219 91.136719 L 637.941406 91.085938 L 637.691406 91.085938 L 637.523438 91.15625 L 637.453125 91.316406 C 637.453125 91.417969 637.488281 91.488281 637.558594 91.53125 C 640.609375 94.414062 642.136719 98.632812 642.136719 104.1875 C 642.136719 109.738281 640.59375 113.972656 637.507812 116.890625 L 637.453125 117.058594 C 637.453125 117.210938 637.53125 117.289062 637.691406 117.289062 Z M 637.941406 117.289062 "/>
<path style=" stroke:none;fill-rule:nonzero;fill:rgb(100%,100%,100%);fill-opacity:1;" d="M 648.03125 128.046875 L 648.164062 127.996094 C 649.820312 126.605469 651.25 125 652.453125 123.183594 C 653.652344 121.367188 654.621094 119.4375 655.351562 117.390625 C 656.085938 115.339844 656.613281 113.242188 656.945312 111.085938 C 657.273438 108.933594 657.4375 106.734375 657.4375 104.492188 C 657.4375 102.238281 657.273438 100.035156 656.945312 97.875 C 656.613281 95.71875 656.085938 93.617188 655.351562 91.574219 C 654.621094 89.53125 653.652344 87.601562 652.453125 85.777344 C 651.25 83.957031 649.820312 82.351562 648.164062 80.960938 L 648.03125 80.910156 L 647.414062 80.910156 C 647.257812 80.910156 647.179688 80.992188 647.179688 81.152344 L 647.230469 81.308594 C 648.757812 82.765625 650.042969 84.402344 651.089844 86.214844 C 652.140625 88.027344 652.964844 89.917969 653.570312 91.886719 C 654.175781 93.859375 654.609375 95.878906 654.878906 97.953125 C 655.144531 100.027344 655.28125 102.195312 655.28125 104.464844 C 655.28125 106.683594 655.148438 108.835938 654.886719 110.925781 C 654.621094 113.015625 654.1875 115.050781 653.582031 117.03125 C 652.976562 119.007812 652.148438 120.90625 651.097656 122.71875 C 650.046875 124.53125 648.757812 126.179688 647.230469 127.664062 L 647.179688 127.816406 C 647.179688 127.96875 647.257812 128.046875 647.414062 128.046875 Z M 648.03125 128.046875 "/>
</g>
</svg>
