<?xml version="1.0" encoding="UTF-8"?>
<svg xmlns="http://www.w3.org/2000/svg" xmlns:xlink="http://www.w3.org/1999/xlink" width="634.413pt" height="370pt" viewBox="0 0 634.413 370" version="1.1">
<g id="surface1">
<path style=" stroke:none;fill-rule:nonzero;fill:rgb(100%,100%,100%);fill-opacity:1;" d="M 3.710938 55.289062 C 24.882812 131.398438 50.652344 185.597656 78.191406 220.691406 C 91.960938 238.242188 106.167969 251.015625 120.445312 259.390625 C 134.730469 267.769531 149.078125 271.757812 163.203125 271.757812 C 180.214844 271.757812 196.9375 265.972656 212.835938 254.933594 C 236.679688 238.378906 258.613281 209.972656 276.523438 171.773438 C 294.429688 133.578125 308.316406 85.59375 316.140625 29.925781 L 318.371094 30.242188 C 307.898438 104.714844 286.625 165.550781 259.238281 207.855469 C 245.546875 229.007812 230.316406 245.527344 214.117188 256.78125 C 197.921875 268.03125 180.730469 274.011719 163.203125 274.007812 C 148.648438 274.011719 133.886719 269.886719 119.308594 261.332031 C 97.4375 248.5 75.96875 225.730469 55.976562 191.890625 C 35.984375 158.046875 17.464844 113.113281 1.542969 55.890625 Z M 3.710938 55.289062 "/>
<path style=" stroke:none;fill-rule:nonzero;fill:rgb(100%,100%,100%);fill-opacity:1;" d="M 132.957031 339.875 L 359.0625 110.164062 L 360.667969 111.742188 L 134.5625 341.453125 "/>
<path style=" stroke:none;fill-rule:evenodd;fill:rgb(0%,0%,0%);fill-opacity:1;" d="M 235.035156 230.085938 C 238.636719 230.085938 241.488281 232.785156 241.488281 236.386719 C 241.488281 239.988281 238.636719 242.839844 235.035156 242.839844 C 231.433594 242.839844 228.734375 239.988281 228.734375 236.386719 C 228.734375 232.785156 231.433594 230.085938 235.035156 230.085938 "/>
<path style=" stroke:none;fill-rule:nonzero;fill:rgb(100%,100%,100%);fill-opacity:1;" d="M 235.035156 230.085938 L 235.035156 228.960938 C 237.117188 228.960938 239.019531 229.746094 240.394531 231.078125 C 241.769531 232.40625 242.613281 234.289062 242.613281 236.386719 C 242.613281 238.484375 241.773438 240.390625 240.40625 241.757812 C 239.042969 243.128906 237.136719 243.964844 235.035156 243.964844 C 232.933594 243.964844 231.054688 243.121094 229.726562 241.746094 C 228.394531 240.371094 227.605469 238.46875 227.609375 236.386719 C 227.605469 234.304688 228.398438 232.425781 229.738281 231.089844 C 231.074219 229.75 232.953125 228.957031 235.035156 228.960938 L 235.035156 231.210938 C 233.515625 231.214844 232.242188 231.769531 231.328125 232.679688 C 230.417969 233.59375 229.859375 234.867188 229.859375 236.386719 C 229.859375 237.90625 230.421875 239.230469 231.34375 240.179688 C 232.265625 241.128906 233.535156 241.710938 235.035156 241.714844 C 236.535156 241.710938 237.855469 241.125 238.816406 240.167969 C 239.773438 239.207031 240.359375 237.886719 240.359375 236.386719 C 240.359375 234.886719 239.777344 233.617188 238.828125 232.695312 C 237.878906 231.773438 236.554688 231.210938 235.035156 231.210938 Z M 235.035156 230.085938 "/>
<path style=" stroke:none;fill-rule:nonzero;fill:rgb(100%,100%,100%);fill-opacity:1;" d="M 305.246094 17.332031 L 305.246094 20.332031 L 303.761719 20.332031 L 303.761719 17.332031 "/>
<path style=" stroke:none;fill-rule:nonzero;fill:rgb(100%,100%,100%);fill-opacity:1;" d="M 305.246094 23.183594 L 305.246094 26.183594 L 303.761719 26.183594 L 303.761719 23.183594 "/>
<path style=" stroke:none;fill-rule:nonzero;fill:rgb(100%,100%,100%);fill-opacity:1;" d="M 305.246094 29.183594 L 305.246094 32.035156 L 303.761719 32.035156 L 303.761719 29.183594 "/>
<path style=" stroke:none;fill-rule:nonzero;fill:rgb(100%,100%,100%);fill-opacity:1;" d="M 305.246094 35.035156 L 305.246094 37.886719 L 303.761719 37.886719 L 303.761719 35.035156 "/>
<path style=" stroke:none;fill-rule:nonzero;fill:rgb(100%,100%,100%);fill-opacity:1;" d="M 305.246094 40.886719 L 305.246094 43.738281 L 303.761719 43.738281 L 303.761719 40.886719 "/>
<path style=" stroke:none;fill-rule:nonzero;fill:rgb(100%,100%,100%);fill-opacity:1;" d="M 305.246094 46.738281 L 305.246094 49.589844 L 303.761719 49.589844 L 303.761719 46.738281 "/>
<path style=" stroke:none;fill-rule:nonzero;fill:rgb(100%,100%,100%);fill-opacity:1;" d="M 305.246094 52.589844 L 305.246094 55.441406 L 303.761719 55.441406 L 303.761719 52.589844 "/>
<path style=" stroke:none;fill-rule:nonzero;fill:rgb(100%,100%,100%);fill-opacity:1;" d="M 305.246094 58.441406 L 305.246094 61.292969 L 303.761719 61.292969 L 303.761719 58.441406 "/>
<path style=" stroke:none;fill-rule:nonzero;fill:rgb(100%,100%,100%);fill-opacity:1;" d="M 305.246094 64.292969 L 305.246094 67.292969 L 303.761719 67.292969 L 303.761719 64.292969 "/>
<path style=" stroke:none;fill-rule:nonzero;fill:rgb(100%,100%,100%);fill-opacity:1;" d="M 305.246094 70.144531 L 305.246094 73.144531 L 303.761719 73.144531 L 303.761719 70.144531 "/>
<path style=" stroke:none;fill-rule:nonzero;fill:rgb(100%,100%,100%);fill-opacity:1;" d="M 305.246094 75.996094 L 305.246094 78.996094 L 303.761719 78.996094 L 303.761719 75.996094 "/>
<path style=" stroke:none;fill-rule:nonzero;fill:rgb(100%,100%,100%);fill-opacity:1;" d="M 305.246094 81.847656 L 305.246094 84.847656 L 303.761719 84.847656 L 303.761719 81.847656 "/>
<path style=" stroke:none;fill-rule:nonzero;fill:rgb(100%,100%,100%);fill-opacity:1;" d="M 305.246094 87.699219 L 305.246094 90.699219 L 303.761719 90.699219 L 303.761719 87.699219 "/>
<path style=" stroke:none;fill-rule:nonzero;fill:rgb(100%,100%,100%);fill-opacity:1;" d="M 305.246094 93.699219 L 305.246094 96.550781 L 303.761719 96.550781 L 303.761719 93.699219 "/>
<path style=" stroke:none;fill-rule:nonzero;fill:rgb(100%,100%,100%);fill-opacity:1;" d="M 305.246094 99.550781 L 305.246094 102.402344 L 303.761719 102.402344 L 303.761719 99.550781 "/>
<path style=" stroke:none;fill-rule:nonzero;fill:rgb(100%,100%,100%);fill-opacity:1;" d="M 305.246094 105.402344 L 305.246094 108.253906 L 303.761719 108.253906 L 303.761719 105.402344 "/>
<path style=" stroke:none;fill-rule:nonzero;fill:rgb(100%,100%,100%);fill-opacity:1;" d="M 305.246094 111.253906 L 305.246094 114.105469 L 303.761719 114.105469 L 303.761719 111.253906 "/>
<path style=" stroke:none;fill-rule:nonzero;fill:rgb(100%,100%,100%);fill-opacity:1;" d="M 305.246094 117.105469 L 305.246094 119.957031 L 303.761719 119.957031 L 303.761719 117.105469 "/>
<path style=" stroke:none;fill-rule:nonzero;fill:rgb(100%,100%,100%);fill-opacity:1;" d="M 305.246094 122.957031 L 305.246094 125.808594 L 303.761719 125.808594 L 303.761719 122.957031 "/>
<path style=" stroke:none;fill-rule:nonzero;fill:rgb(100%,100%,100%);fill-opacity:1;" d="M 305.246094 128.808594 L 305.246094 131.808594 L 303.761719 131.808594 L 303.761719 128.808594 "/>
<path style=" stroke:none;fill-rule:nonzero;fill:rgb(100%,100%,100%);fill-opacity:1;" d="M 305.246094 134.660156 L 305.246094 137.660156 L 303.761719 137.660156 L 303.761719 134.660156 "/>
<path style=" stroke:none;fill-rule:nonzero;fill:rgb(100%,100%,100%);fill-opacity:1;" d="M 305.246094 140.511719 L 305.246094 143.511719 L 303.761719 143.511719 L 303.761719 140.511719 "/>
<path style=" stroke:none;fill-rule:nonzero;fill:rgb(100%,100%,100%);fill-opacity:1;" d="M 305.246094 146.363281 L 305.246094 149.363281 L 303.761719 149.363281 L 303.761719 146.363281 "/>
<path style=" stroke:none;fill-rule:nonzero;fill:rgb(100%,100%,100%);fill-opacity:1;" d="M 305.246094 152.367188 L 305.246094 155.214844 L 303.761719 155.214844 L 303.761719 152.367188 "/>
<path style=" stroke:none;fill-rule:nonzero;fill:rgb(100%,100%,100%);fill-opacity:1;" d="M 305.246094 158.21875 L 305.246094 161.066406 L 303.761719 161.066406 L 303.761719 158.21875 "/>
<path style=" stroke:none;fill-rule:nonzero;fill:rgb(100%,100%,100%);fill-opacity:1;" d="M 305.246094 163.917969 L 305.246094 166.917969 L 303.761719 166.917969 L 303.761719 163.917969 "/>
<path style=" stroke:none;fill-rule:nonzero;fill:rgb(100%,100%,100%);fill-opacity:1;" d="M 305.246094 169.921875 L 305.246094 172.769531 L 303.761719 172.769531 L 303.761719 169.921875 "/>
<path style=" stroke:none;fill-rule:nonzero;fill:rgb(100%,100%,100%);fill-opacity:1;" d="M 305.246094 175.769531 L 305.246094 178.621094 L 303.761719 178.621094 L 303.761719 175.769531 "/>
<path style=" stroke:none;fill-rule:nonzero;fill:rgb(100%,100%,100%);fill-opacity:1;" d="M 305.246094 181.621094 L 305.246094 184.472656 L 303.761719 184.472656 L 303.761719 181.621094 "/>
<path style=" stroke:none;fill-rule:nonzero;fill:rgb(100%,100%,100%);fill-opacity:1;" d="M 305.246094 187.472656 L 305.246094 190.324219 L 303.761719 190.324219 L 303.761719 187.472656 "/>
<path style=" stroke:none;fill-rule:nonzero;fill:rgb(100%,100%,100%);fill-opacity:1;" d="M 305.246094 193.324219 L 305.246094 196.328125 L 303.761719 196.328125 L 303.761719 193.324219 "/>
<path style=" stroke:none;fill-rule:nonzero;fill:rgb(100%,100%,100%);fill-opacity:1;" d="M 305.246094 199.175781 L 305.246094 202.179688 L 303.761719 202.179688 L 303.761719 199.175781 "/>
<path style=" stroke:none;fill-rule:nonzero;fill:rgb(100%,100%,100%);fill-opacity:1;" d="M 305.246094 205.027344 L 305.246094 208.03125 L 303.761719 208.03125 L 303.761719 205.027344 "/>
<path style=" stroke:none;fill-rule:nonzero;fill:rgb(100%,100%,100%);fill-opacity:1;" d="M 305.246094 210.878906 L 305.246094 213.882812 L 303.761719 213.882812 L 303.761719 210.878906 "/>
<path style=" stroke:none;fill-rule:nonzero;fill:rgb(100%,100%,100%);fill-opacity:1;" d="M 305.246094 216.882812 L 305.246094 219.734375 L 303.761719 219.734375 L 303.761719 216.882812 "/>
<path style=" stroke:none;fill-rule:nonzero;fill:rgb(100%,100%,100%);fill-opacity:1;" d="M 305.246094 222.582031 L 305.246094 225.585938 L 303.761719 225.585938 L 303.761719 222.582031 "/>
<path style=" stroke:none;fill-rule:nonzero;fill:rgb(100%,100%,100%);fill-opacity:1;" d="M 305.246094 228.433594 L 305.246094 231.4375 L 303.761719 231.4375 L 303.761719 228.433594 "/>
<path style=" stroke:none;fill-rule:nonzero;fill:rgb(100%,100%,100%);fill-opacity:1;" d="M 305.246094 234.4375 L 305.246094 237.289062 L 303.761719 237.289062 L 303.761719 234.4375 "/>
<path style=" stroke:none;fill-rule:nonzero;fill:rgb(100%,100%,100%);fill-opacity:1;" d="M 305.246094 240.289062 L 305.246094 243.140625 L 303.761719 243.140625 L 303.761719 240.289062 "/>
<path style=" stroke:none;fill-rule:nonzero;fill:rgb(100%,100%,100%);fill-opacity:1;" d="M 305.246094 246.140625 L 305.246094 248.992188 L 303.761719 248.992188 L 303.761719 246.140625 "/>
<path style=" stroke:none;fill-rule:nonzero;fill:rgb(100%,100%,100%);fill-opacity:1;" d="M 305.246094 251.992188 L 305.246094 254.992188 L 303.761719 254.992188 L 303.761719 251.992188 "/>
<path style=" stroke:none;fill-rule:nonzero;fill:rgb(100%,100%,100%);fill-opacity:1;" d="M 305.246094 257.84375 L 305.246094 260.84375 L 303.761719 260.84375 L 303.761719 257.84375 "/>
<path style=" stroke:none;fill-rule:nonzero;fill:rgb(100%,100%,100%);fill-opacity:1;" d="M 305.246094 263.695312 L 305.246094 266.695312 L 303.761719 266.695312 L 303.761719 263.695312 "/>
<path style=" stroke:none;fill-rule:nonzero;fill:rgb(100%,100%,100%);fill-opacity:1;" d="M 305.246094 269.546875 L 305.246094 272.546875 L 303.761719 272.546875 L 303.761719 269.546875 "/>
<path style=" stroke:none;fill-rule:nonzero;fill:rgb(100%,100%,100%);fill-opacity:1;" d="M 305.246094 275.398438 L 305.246094 278.398438 L 303.761719 278.398438 L 303.761719 275.398438 "/>
<path style=" stroke:none;fill-rule:nonzero;fill:rgb(100%,100%,100%);fill-opacity:1;" d="M 305.246094 281.25 L 305.246094 284.25 L 303.761719 284.25 L 303.761719 281.25 "/>
<path style=" stroke:none;fill-rule:nonzero;fill:rgb(100%,100%,100%);fill-opacity:1;" d="M 305.246094 287.101562 L 305.246094 290.101562 L 303.761719 290.101562 L 303.761719 287.101562 "/>
<path style=" stroke:none;fill-rule:nonzero;fill:rgb(100%,100%,100%);fill-opacity:1;" d="M 305.246094 292.953125 L 305.246094 295.953125 L 303.761719 295.953125 L 303.761719 292.953125 "/>
<path style=" stroke:none;fill-rule:nonzero;fill:rgb(100%,100%,100%);fill-opacity:1;" d="M 305.246094 298.953125 L 305.246094 301.804688 L 303.761719 301.804688 L 303.761719 298.953125 "/>
<path style=" stroke:none;fill-rule:nonzero;fill:rgb(100%,100%,100%);fill-opacity:1;" d="M 305.246094 304.804688 L 305.246094 307.65625 L 303.761719 307.65625 L 303.761719 304.804688 "/>
<path style=" stroke:none;fill-rule:nonzero;fill:rgb(100%,100%,100%);fill-opacity:1;" d="M 305.246094 310.65625 L 305.246094 313.507812 L 303.761719 313.507812 L 303.761719 310.65625 "/>
<path style=" stroke:none;fill-rule:nonzero;fill:rgb(100%,100%,100%);fill-opacity:1;" d="M 305.246094 316.507812 L 305.246094 319.507812 L 303.761719 319.507812 L 303.761719 316.507812 "/>
<path style=" stroke:none;fill-rule:nonzero;fill:rgb(100%,100%,100%);fill-opacity:1;" d="M 305.246094 322.359375 L 305.246094 325.359375 L 303.761719 325.359375 L 303.761719 322.359375 "/>
<path style=" stroke:none;fill-rule:nonzero;fill:rgb(100%,100%,100%);fill-opacity:1;" d="M 305.246094 328.210938 L 305.246094 331.210938 L 303.761719 331.210938 L 303.761719 328.210938 "/>
<path style=" stroke:none;fill-rule:nonzero;fill:rgb(100%,100%,100%);fill-opacity:1;" d="M 305.246094 334.0625 L 305.246094 337.0625 L 303.761719 337.0625 L 303.761719 334.0625 "/>
<path style=" stroke:none;fill-rule:nonzero;fill:rgb(100%,100%,100%);fill-opacity:1;" d="M 305.246094 339.914062 L 305.246094 342.914062 L 303.761719 342.914062 L 303.761719 339.914062 "/>
<path style=" stroke:none;fill-rule:nonzero;fill:rgb(100%,100%,100%);fill-opacity:1;" d="M 305.246094 345.765625 L 305.246094 348.765625 L 303.761719 348.765625 L 303.761719 345.765625 "/>
<path style=" stroke:none;fill-rule:nonzero;fill:rgb(100%,100%,100%);fill-opacity:1;" d="M 305.246094 351.617188 L 305.246094 354.617188 L 303.761719 354.617188 L 303.761719 351.617188 "/>
<path style=" stroke:none;fill-rule:nonzero;fill:rgb(100%,100%,100%);fill-opacity:1;" d="M 305.246094 357.617188 L 305.246094 360.46875 L 303.761719 360.46875 L 303.761719 357.617188 "/>
<path style=" stroke:none;fill-rule:evenodd;fill:rgb(19.999695%,19.999695%,100%);fill-opacity:1;" d="M 304.503906 159.117188 C 308.253906 159.117188 310.953125 161.96875 310.953125 165.570312 C 310.953125 169.171875 308.253906 171.871094 304.503906 171.871094 C 300.902344 171.871094 298.199219 169.171875 298.199219 165.570312 C 298.199219 161.96875 300.902344 159.117188 304.503906 159.117188 "/>
<path style=" stroke:none;fill-rule:nonzero;fill:rgb(100%,100%,100%);fill-opacity:1;" d="M 304.503906 159.117188 L 304.503906 157.992188 C 306.664062 157.988281 308.585938 158.824219 309.9375 160.203125 C 311.292969 161.578125 312.082031 163.484375 312.078125 165.570312 C 312.082031 167.652344 311.289062 169.535156 309.921875 170.871094 C 308.5625 172.214844 306.648438 173 304.503906 172.996094 C 302.417969 173 300.542969 172.207031 299.207031 170.863281 C 297.867188 169.527344 297.074219 167.652344 297.074219 165.570312 C 297.074219 163.484375 297.863281 161.585938 299.191406 160.210938 C 300.519531 158.832031 302.402344 157.988281 304.503906 157.992188 L 304.503906 160.242188 C 303 160.246094 301.734375 160.828125 300.808594 161.773438 C 299.890625 162.726562 299.328125 164.050781 299.328125 165.570312 C 299.328125 167.085938 299.886719 168.359375 300.796875 169.273438 C 301.710938 170.183594 302.984375 170.742188 304.503906 170.746094 C 306.109375 170.742188 307.417969 170.175781 308.347656 169.269531 C 309.269531 168.355469 309.824219 167.085938 309.828125 165.570312 C 309.828125 164.050781 309.265625 162.730469 308.332031 161.78125 C 307.398438 160.835938 306.09375 160.246094 304.503906 160.242188 Z M 304.503906 159.117188 "/>
<path style=" stroke:none;fill-rule:evenodd;fill:rgb(0%,0%,0%);fill-opacity:1;" d="M 304.503906 85.449219 C 308.253906 85.449219 310.953125 88.148438 310.953125 91.75 C 310.953125 95.5 308.253906 98.203125 304.503906 98.203125 C 300.902344 98.203125 298.199219 95.5 298.199219 91.75 C 298.199219 88.148438 300.902344 85.449219 304.503906 85.449219 "/>
<path style=" stroke:none;fill-rule:nonzero;fill:rgb(100%,100%,100%);fill-opacity:1;" d="M 304.503906 85.449219 L 304.503906 84.324219 C 306.648438 84.320312 308.5625 85.105469 309.921875 86.445312 C 311.289062 87.785156 312.082031 89.667969 312.078125 91.75 C 312.082031 93.894531 311.296875 95.816406 309.929688 97.179688 C 308.570312 98.542969 306.648438 99.332031 304.503906 99.328125 C 302.421875 99.332031 300.535156 98.535156 299.199219 97.171875 C 297.859375 95.8125 297.074219 93.894531 297.074219 91.75 C 297.074219 89.667969 297.867188 87.789062 299.207031 86.453125 C 300.542969 85.113281 302.417969 84.320312 304.503906 84.324219 L 304.503906 86.574219 C 302.984375 86.578125 301.710938 87.132812 300.796875 88.042969 C 299.886719 88.957031 299.328125 90.230469 299.328125 91.75 C 299.328125 93.355469 299.894531 94.664062 300.804688 95.59375 C 301.71875 96.519531 302.984375 97.074219 304.503906 97.078125 C 306.109375 97.074219 307.414062 96.507812 308.339844 95.585938 C 309.261719 94.660156 309.824219 93.355469 309.828125 91.75 C 309.824219 90.230469 309.269531 88.964844 308.347656 88.050781 C 307.417969 87.140625 306.109375 86.578125 304.503906 86.574219 Z M 304.503906 85.449219 "/>
<path style=" stroke:none;fill-rule:nonzero;fill:rgb(100%,100%,100%);fill-opacity:1;" d="M 257.292969 275.882812 L 257.539062 275.882812 L 257.679688 275.800781 L 257.75 275.652344 C 257.75 275.5625 257.722656 275.488281 257.671875 275.4375 C 254.632812 272.582031 253.113281 268.402344 253.113281 262.902344 C 253.113281 261.660156 253.191406 260.46875 253.347656 259.324219 C 253.503906 258.175781 253.761719 257.070312 254.113281 256 C 254.46875 254.933594 254.9375 253.925781 255.515625 252.980469 C 256.097656 252.03125 256.824219 251.144531 257.699219 250.316406 L 257.75 250.152344 L 257.683594 249.996094 L 257.539062 249.925781 L 257.292969 249.925781 L 257.160156 249.976562 C 256.191406 250.710938 255.34375 251.570312 254.617188 252.546875 C 253.894531 253.527344 253.296875 254.582031 252.832031 255.703125 C 252.363281 256.828125 252.015625 258 251.789062 259.214844 C 251.5625 260.433594 251.449219 261.660156 251.449219 262.902344 C 251.449219 264.128906 251.5625 265.351562 251.789062 266.566406 C 252.015625 267.78125 252.359375 268.949219 252.816406 270.0625 C 253.277344 271.179688 253.867188 272.230469 254.585938 273.214844 C 255.308594 274.199219 256.164062 275.070312 257.160156 275.832031 Z M 257.292969 275.882812 "/>
<path style=" stroke:none;fill-rule:nonzero;fill:rgb(100%,100%,100%);fill-opacity:1;" d="M 265.128906 269.390625 L 265.128906 268.074219 C 264.964844 268.074219 264.753906 268.054688 264.496094 268.011719 C 264.238281 267.96875 264.109375 267.917969 264.109375 267.859375 L 266.785156 264.90625 L 269.539062 268.074219 L 268.546875 268.074219 L 268.546875 269.390625 L 274.847656 269.390625 L 274.847656 268.074219 L 272.851562 268.074219 L 268.519531 263.003906 L 271.78125 259.429688 C 271.9375 259.269531 272.773438 259.191406 274.285156 259.191406 L 274.285156 257.871094 L 268.949219 257.871094 L 268.949219 259.191406 C 269.109375 259.191406 269.3125 259.207031 269.570312 259.242188 C 269.828125 259.273438 269.957031 259.328125 269.957031 259.40625 L 267.632812 261.964844 L 265.234375 259.191406 L 266.199219 259.191406 L 266.199219 257.871094 L 259.910156 257.871094 L 259.910156 259.191406 L 261.894531 259.191406 L 265.898438 263.867188 L 262.296875 267.832031 C 262.132812 267.996094 261.292969 268.074219 259.78125 268.074219 L 259.78125 269.390625 Z M 265.128906 269.390625 "/>
<path style=" stroke:none;fill-rule:nonzero;fill:rgb(100%,100%,100%);fill-opacity:1;" d="M 278.027344 274.308594 L 278.289062 274.425781 L 278.457031 274.375 C 279.179688 273.679688 279.738281 272.902344 280.136719 272.035156 C 280.53125 271.167969 280.726562 270.253906 280.726562 269.292969 C 280.726562 268.597656 280.59375 267.96875 280.324219 267.394531 C 280.054688 266.824219 279.601562 266.542969 278.96875 266.542969 C 278.558594 266.542969 278.210938 266.675781 277.921875 266.945312 C 277.636719 267.21875 277.492188 267.554688 277.492188 267.960938 C 277.492188 268.355469 277.636719 268.695312 277.921875 268.972656 C 278.210938 269.253906 278.558594 269.390625 278.96875 269.390625 C 279.394531 269.390625 279.75 269.253906 280.039062 268.972656 L 280.039062 269.292969 C 280.039062 270.160156 279.859375 270.988281 279.503906 271.773438 C 279.144531 272.5625 278.644531 273.253906 278 273.855469 L 277.898438 274.070312 Z M 278.027344 274.308594 "/>
<path style=" stroke:none;fill-rule:nonzero;fill:rgb(100%,100%,100%);fill-opacity:1;" d="M 290.828125 273.214844 C 291.113281 272.90625 291.257812 272.566406 291.257812 272.195312 C 291.257812 271.914062 291.15625 271.6875 290.953125 271.515625 C 290.753906 271.34375 290.503906 271.253906 290.207031 271.253906 C 289.761719 271.253906 289.390625 271.417969 289.097656 271.742188 C 288.804688 272.070312 288.660156 272.449219 288.660156 272.890625 C 288.660156 273.441406 288.898438 273.878906 289.371094 274.214844 C 289.84375 274.546875 290.382812 274.714844 290.984375 274.714844 C 291.765625 274.714844 292.445312 274.378906 293.019531 273.703125 C 293.59375 273.027344 294.066406 272.1875 294.4375 271.1875 C 294.804688 270.183594 295.09375 269.207031 295.296875 268.257812 C 295.503906 267.308594 295.683594 266.371094 295.839844 265.449219 L 297.078125 259.113281 L 299.9375 259.113281 L 300.113281 259.019531 C 300.164062 258.953125 300.199219 258.871094 300.226562 258.765625 C 300.25 258.660156 300.269531 258.585938 300.277344 258.542969 C 300.277344 258.316406 300.191406 258.199219 300.015625 258.199219 L 297.257812 258.199219 L 297.585938 256.488281 C 297.96875 254.546875 298.21875 253.355469 298.332031 252.914062 C 298.402344 252.636719 298.554688 252.371094 298.796875 252.128906 C 299.035156 251.882812 299.289062 251.761719 299.5625 251.761719 C 300.050781 251.761719 300.457031 251.882812 300.789062 252.125 C 300.394531 252.167969 300.066406 252.332031 299.800781 252.613281 C 299.53125 252.894531 299.398438 253.226562 299.398438 253.605469 C 299.398438 253.882812 299.5 254.105469 299.707031 254.28125 C 299.914062 254.453125 300.160156 254.539062 300.449219 254.539062 C 300.875 254.539062 301.242188 254.375 301.542969 254.050781 C 301.847656 253.726562 301.996094 253.347656 301.996094 252.910156 C 301.996094 252.53125 301.878906 252.203125 301.644531 251.925781 C 301.410156 251.648438 301.105469 251.4375 300.734375 251.296875 C 300.367188 251.160156 299.984375 251.089844 299.59375 251.089844 C 298.992188 251.089844 298.433594 251.273438 297.914062 251.640625 C 297.394531 252.011719 296.984375 252.476562 296.679688 253.042969 C 296.480469 253.441406 296.328125 253.796875 296.230469 254.121094 C 296.128906 254.441406 296.035156 254.789062 295.949219 255.164062 C 295.859375 255.542969 295.765625 255.992188 295.660156 256.515625 L 295.347656 258.199219 L 292.964844 258.199219 C 292.808594 258.199219 292.695312 258.390625 292.625 258.773438 C 292.625 259 292.714844 259.113281 292.886719 259.113281 L 295.179688 259.113281 L 293.949219 265.476562 C 293.210938 269.160156 292.757812 271.332031 292.59375 271.992188 C 292.195312 273.359375 291.675781 274.042969 291.039062 274.042969 C 290.570312 274.042969 290.167969 273.921875 289.839844 273.675781 C 290.214844 273.675781 290.546875 273.523438 290.828125 273.214844 "/>
<path style=" stroke:none;fill-rule:nonzero;fill:rgb(100%,100%,100%);fill-opacity:1;" d="M 311.757812 275.882812 L 312.003906 275.882812 L 312.144531 275.800781 L 312.214844 275.652344 C 312.214844 275.5625 312.1875 275.488281 312.136719 275.4375 C 309.097656 272.582031 307.574219 268.402344 307.574219 262.902344 C 307.574219 261.660156 307.65625 260.46875 307.8125 259.324219 C 307.96875 258.175781 308.226562 257.070312 308.578125 256 C 308.933594 254.933594 309.398438 253.925781 309.980469 252.980469 C 310.5625 252.03125 311.289062 251.144531 312.160156 250.316406 L 312.214844 250.152344 L 312.148438 249.996094 L 312.003906 249.925781 L 311.757812 249.925781 L 311.625 249.976562 C 310.65625 250.710938 309.808594 251.570312 309.082031 252.546875 C 308.359375 253.527344 307.761719 254.582031 307.292969 255.703125 C 306.828125 256.828125 306.480469 258 306.253906 259.214844 C 306.027344 260.433594 305.910156 261.660156 305.910156 262.902344 C 305.910156 264.128906 306.027344 265.351562 306.253906 266.566406 C 306.480469 267.78125 306.824219 268.949219 307.28125 270.0625 C 307.738281 271.179688 308.328125 272.230469 309.050781 273.214844 C 309.769531 274.199219 310.628906 275.070312 311.625 275.832031 Z M 311.757812 275.882812 "/>
<path style=" stroke:none;fill-rule:nonzero;fill:rgb(100%,100%,100%);fill-opacity:1;" d="M 319.292969 269.390625 L 319.292969 268.074219 C 319.128906 268.074219 318.917969 268.054688 318.660156 268.011719 C 318.402344 267.96875 318.273438 267.917969 318.273438 267.859375 L 320.949219 264.90625 L 323.703125 268.074219 L 322.710938 268.074219 L 322.710938 269.390625 L 329.011719 269.390625 L 329.011719 268.074219 L 327.015625 268.074219 L 322.683594 263.003906 L 325.945312 259.429688 C 326.101562 259.269531 326.9375 259.191406 328.449219 259.191406 L 328.449219 257.871094 L 323.113281 257.871094 L 323.113281 259.191406 C 323.273438 259.191406 323.476562 259.207031 323.734375 259.242188 C 323.992188 259.273438 324.121094 259.328125 324.121094 259.40625 L 321.796875 261.964844 L 319.398438 259.191406 L 320.363281 259.191406 L 320.363281 257.871094 L 314.074219 257.871094 L 314.074219 259.191406 L 316.058594 259.191406 L 320.0625 263.867188 L 316.460938 267.832031 C 316.296875 267.996094 315.457031 268.074219 313.945312 268.074219 L 313.945312 269.390625 Z M 319.292969 269.390625 "/>
<path style=" stroke:none;fill-rule:nonzero;fill:rgb(100%,100%,100%);fill-opacity:1;" d="M 331.402344 275.882812 L 331.535156 275.832031 C 332.53125 275.070312 333.386719 274.203125 334.101562 273.226562 C 334.816406 272.25 335.410156 271.1875 335.878906 270.03125 C 336.34375 268.878906 336.683594 267.707031 336.898438 266.523438 C 337.113281 265.335938 337.222656 264.128906 337.222656 262.902344 C 337.222656 261.246094 337.023438 259.625 336.625 258.035156 C 336.226562 256.449219 335.601562 254.953125 334.746094 253.550781 C 333.886719 252.148438 332.816406 250.957031 331.535156 249.976562 L 331.402344 249.925781 L 331.152344 249.925781 L 330.988281 249.996094 L 330.917969 250.152344 C 330.917969 250.253906 330.953125 250.324219 331.023438 250.367188 C 334.046875 253.226562 335.558594 257.402344 335.558594 262.902344 C 335.558594 268.402344 334.027344 272.597656 330.972656 275.488281 L 330.917969 275.652344 C 330.917969 275.804688 330.996094 275.882812 331.152344 275.882812 Z M 331.402344 275.882812 "/>
<path style=" stroke:none;fill-rule:nonzero;fill:rgb(100%,100%,100%);fill-opacity:1;" d="M 341.90625 275.882812 L 342.035156 275.832031 C 343.03125 275.070312 343.890625 274.203125 344.605469 273.226562 C 345.320312 272.25 345.914062 271.1875 346.378906 270.03125 C 346.847656 268.878906 347.1875 267.707031 347.402344 266.523438 C 347.617188 265.335938 347.722656 264.128906 347.722656 262.902344 C 347.722656 261.246094 347.523438 259.625 347.125 258.035156 C 346.730469 256.449219 346.101562 254.953125 345.246094 253.550781 C 344.390625 252.148438 343.320312 250.957031 342.035156 249.976562 L 341.90625 249.925781 L 341.65625 249.925781 L 341.492188 249.996094 L 341.421875 250.152344 C 341.421875 250.253906 341.457031 250.324219 341.527344 250.367188 C 344.546875 253.226562 346.058594 257.402344 346.058594 262.902344 C 346.058594 268.402344 344.53125 272.597656 341.472656 275.488281 L 341.421875 275.652344 C 341.421875 275.804688 341.5 275.882812 341.65625 275.882812 Z M 341.90625 275.882812 "/>
<path style=" stroke:none;fill-rule:nonzero;fill:rgb(100%,100%,100%);fill-opacity:1;" d="M 327.660156 88.628906 L 327.910156 88.628906 L 328.046875 88.546875 L 328.117188 88.402344 C 328.117188 88.308594 328.089844 88.238281 328.039062 88.1875 C 325 85.332031 323.480469 81.152344 323.480469 75.652344 C 323.480469 74.410156 323.558594 73.214844 323.714844 72.070312 C 323.871094 70.925781 324.128906 69.820312 324.484375 68.75 C 324.835938 67.683594 325.304688 66.675781 325.882812 65.726562 C 326.464844 64.78125 327.191406 63.894531 328.066406 63.066406 L 328.117188 62.902344 L 328.050781 62.742188 L 327.910156 62.671875 L 327.660156 62.671875 L 327.527344 62.722656 C 326.558594 63.460938 325.710938 64.316406 324.988281 65.296875 C 324.261719 66.277344 323.664062 67.328125 323.199219 68.453125 C 322.730469 69.578125 322.382812 70.746094 322.15625 71.964844 C 321.929688 73.179688 321.816406 74.410156 321.816406 75.652344 C 321.816406 76.878906 321.929688 78.097656 322.15625 79.3125 C 322.382812 80.53125 322.726562 81.699219 323.183594 82.8125 C 323.644531 83.929688 324.234375 84.976562 324.953125 85.960938 C 325.675781 86.945312 326.53125 87.820312 327.527344 88.578125 Z M 327.660156 88.628906 "/>
<path style=" stroke:none;fill-rule:nonzero;fill:rgb(100%,100%,100%);fill-opacity:1;" d="M 331.015625 86.644531 C 331.59375 87.109375 332.25 87.339844 332.980469 87.339844 C 333.945312 87.339844 334.828125 87.03125 335.625 86.414062 C 336.417969 85.796875 337.027344 85.042969 337.445312 84.144531 L 343.1875 72.15625 C 343.316406 72.011719 343.941406 71.941406 345.058594 71.941406 L 345.058594 70.625 L 340.414062 70.625 L 340.414062 71.941406 C 340.683594 71.941406 340.964844 71.957031 341.261719 71.984375 C 341.554688 72.015625 341.703125 72.074219 341.703125 72.15625 L 338.574219 78.695312 L 335.328125 71.941406 L 336.730469 71.941406 L 336.730469 70.625 L 330.253906 70.625 L 330.253906 71.941406 L 332.015625 71.941406 L 336.914062 82.144531 L 335.945312 84.144531 C 335.667969 84.753906 335.265625 85.265625 334.738281 85.679688 C 334.210938 86.09375 333.625 86.300781 332.980469 86.300781 C 332.882812 86.300781 332.742188 86.285156 332.550781 86.25 C 333.070312 85.953125 333.332031 85.496094 333.332031 84.871094 C 333.332031 84.4375 333.179688 84.074219 332.875 83.78125 C 332.570312 83.484375 332.195312 83.335938 331.753906 83.335938 C 331.292969 83.335938 330.910156 83.484375 330.605469 83.78125 C 330.300781 84.074219 330.148438 84.4375 330.148438 84.871094 C 330.148438 85.585938 330.4375 86.179688 331.015625 86.644531 "/>
<path style=" stroke:none;fill-rule:nonzero;fill:rgb(100%,100%,100%);fill-opacity:1;" d="M 348.84375 87.0625 L 349.105469 87.175781 L 349.277344 87.125 C 350 86.429688 350.558594 85.652344 350.953125 84.785156 C 351.347656 83.921875 351.546875 83.003906 351.546875 82.042969 C 351.546875 81.347656 351.410156 80.71875 351.144531 80.148438 C 350.871094 79.578125 350.421875 79.292969 349.785156 79.292969 C 349.375 79.292969 349.027344 79.425781 348.742188 79.699219 C 348.453125 79.96875 348.3125 80.304688 348.3125 80.710938 C 348.3125 81.109375 348.453125 81.445312 348.742188 81.726562 C 349.027344 82.003906 349.375 82.144531 349.785156 82.144531 C 350.210938 82.144531 350.570312 82.003906 350.855469 81.726562 L 350.855469 82.042969 C 350.855469 82.914062 350.675781 83.742188 350.320312 84.527344 C 349.964844 85.3125 349.464844 86.003906 348.820312 86.605469 L 348.714844 86.820312 Z M 348.84375 87.0625 "/>
<path style=" stroke:none;fill-rule:nonzero;fill:rgb(100%,100%,100%);fill-opacity:1;" d="M 361.5 85.964844 C 361.78125 85.65625 361.925781 85.316406 361.925781 84.945312 C 361.925781 84.667969 361.824219 84.441406 361.625 84.265625 C 361.421875 84.09375 361.171875 84.007812 360.875 84.007812 C 360.429688 84.007812 360.058594 84.167969 359.765625 84.496094 C 359.472656 84.820312 359.328125 85.203125 359.328125 85.640625 C 359.328125 86.191406 359.566406 86.632812 360.039062 86.964844 C 360.511719 87.300781 361.050781 87.46875 361.652344 87.46875 C 362.433594 87.46875 363.113281 87.128906 363.6875 86.453125 C 364.261719 85.777344 364.734375 84.9375 365.105469 83.9375 C 365.472656 82.9375 365.761719 81.960938 365.964844 81.007812 C 366.171875 80.058594 366.351562 79.125 366.507812 78.203125 L 367.75 71.867188 L 370.605469 71.867188 L 370.785156 71.769531 C 370.832031 71.707031 370.867188 71.621094 370.894531 71.515625 C 370.921875 71.410156 370.9375 71.335938 370.949219 71.296875 C 370.949219 71.066406 370.859375 70.953125 370.683594 70.953125 L 367.925781 70.953125 L 368.253906 69.242188 C 368.636719 67.296875 368.886719 66.105469 369 65.664062 C 369.070312 65.386719 369.222656 65.125 369.464844 64.878906 C 369.703125 64.632812 369.957031 64.511719 370.230469 64.511719 C 370.71875 64.511719 371.128906 64.632812 371.457031 64.878906 C 371.0625 64.921875 370.734375 65.082031 370.46875 65.363281 C 370.203125 65.644531 370.070312 65.976562 370.070312 66.355469 C 370.070312 66.632812 370.171875 66.859375 370.375 67.03125 C 370.582031 67.203125 370.828125 67.289062 371.117188 67.289062 C 371.546875 67.289062 371.910156 67.128906 372.210938 66.804688 C 372.515625 66.480469 372.664062 66.097656 372.664062 65.660156 C 372.664062 65.28125 372.546875 64.953125 372.3125 64.675781 C 372.078125 64.398438 371.773438 64.1875 371.40625 64.050781 C 371.035156 63.914062 370.652344 63.84375 370.261719 63.84375 C 369.660156 63.84375 369.101562 64.027344 368.582031 64.394531 C 368.0625 64.761719 367.652344 65.226562 367.347656 65.792969 C 367.148438 66.191406 366.996094 66.550781 366.898438 66.871094 C 366.796875 67.191406 366.703125 67.542969 366.617188 67.917969 C 366.53125 68.292969 366.433594 68.742188 366.328125 69.265625 L 366.015625 70.953125 L 363.632812 70.953125 C 363.476562 70.953125 363.363281 71.140625 363.296875 71.523438 C 363.296875 71.75 363.382812 71.867188 363.554688 71.867188 L 365.847656 71.867188 L 364.621094 78.226562 C 363.878906 81.910156 363.425781 84.082031 363.261719 84.742188 C 362.863281 86.109375 362.34375 86.796875 361.710938 86.796875 C 361.238281 86.796875 360.839844 86.671875 360.507812 86.429688 C 360.882812 86.429688 361.214844 86.273438 361.5 85.964844 "/>
<path style=" stroke:none;fill-rule:nonzero;fill:rgb(100%,100%,100%);fill-opacity:1;" d="M 382.425781 88.632812 L 382.671875 88.632812 L 382.8125 88.550781 L 382.882812 88.40625 C 382.882812 88.3125 382.855469 88.238281 382.804688 88.1875 C 379.765625 85.332031 378.246094 81.15625 378.246094 75.65625 C 378.246094 74.414062 378.324219 73.21875 378.480469 72.074219 C 378.636719 70.929688 378.894531 69.820312 379.246094 68.753906 C 379.601562 67.683594 380.066406 66.675781 380.648438 65.730469 C 381.230469 64.785156 381.957031 63.898438 382.832031 63.070312 L 382.882812 62.902344 L 382.816406 62.746094 L 382.671875 62.675781 L 382.425781 62.675781 L 382.292969 62.726562 C 381.324219 63.460938 380.476562 64.320312 379.75 65.300781 C 379.027344 66.28125 378.429688 67.332031 377.964844 68.457031 C 377.496094 69.578125 377.148438 70.75 376.921875 71.964844 C 376.695312 73.183594 376.582031 74.414062 376.582031 75.65625 C 376.582031 76.878906 376.695312 78.101562 376.921875 79.316406 C 377.148438 80.535156 377.492188 81.699219 377.949219 82.816406 C 378.40625 83.929688 379 84.980469 379.71875 85.964844 C 380.4375 86.949219 381.296875 87.820312 382.292969 88.582031 Z M 382.425781 88.632812 "/>
<path style=" stroke:none;fill-rule:nonzero;fill:rgb(100%,100%,100%);fill-opacity:1;" d="M 385.480469 86.644531 C 386.058594 87.109375 386.714844 87.339844 387.445312 87.339844 C 388.410156 87.339844 389.292969 87.03125 390.085938 86.414062 C 390.882812 85.796875 391.492188 85.042969 391.910156 84.144531 L 397.652344 72.15625 C 397.78125 72.011719 398.40625 71.941406 399.523438 71.941406 L 399.523438 70.625 L 394.878906 70.625 L 394.878906 71.941406 C 395.148438 71.941406 395.429688 71.957031 395.722656 71.984375 C 396.019531 72.015625 396.167969 72.074219 396.167969 72.15625 L 393.035156 78.695312 L 389.792969 71.941406 L 391.195312 71.941406 L 391.195312 70.625 L 384.71875 70.625 L 384.71875 71.941406 L 386.476562 71.941406 L 391.375 82.144531 L 390.410156 84.144531 C 390.132812 84.753906 389.726562 85.265625 389.203125 85.679688 C 388.675781 86.09375 388.089844 86.300781 387.445312 86.300781 C 387.347656 86.300781 387.203125 86.285156 387.011719 86.25 C 387.535156 85.953125 387.796875 85.496094 387.796875 84.871094 C 387.796875 84.4375 387.644531 84.074219 387.339844 83.78125 C 387.035156 83.484375 386.660156 83.335938 386.21875 83.335938 C 385.757812 83.335938 385.375 83.484375 385.070312 83.78125 C 384.765625 84.074219 384.613281 84.4375 384.613281 84.871094 C 384.613281 85.585938 384.902344 86.179688 385.480469 86.644531 "/>
<path style=" stroke:none;fill-rule:nonzero;fill:rgb(100%,100%,100%);fill-opacity:1;" d="M 402.523438 88.632812 L 402.652344 88.582031 C 403.648438 87.820312 404.503906 86.953125 405.21875 85.976562 C 405.9375 85.003906 406.527344 83.9375 406.996094 82.785156 C 407.464844 81.628906 407.804688 80.460938 408.019531 79.273438 C 408.230469 78.085938 408.339844 76.878906 408.339844 75.65625 C 408.339844 74 408.140625 72.375 407.742188 70.789062 C 407.34375 69.199219 406.71875 67.703125 405.863281 66.300781 C 405.007812 64.898438 403.9375 63.707031 402.652344 62.726562 L 402.523438 62.675781 L 402.273438 62.675781 L 402.109375 62.746094 L 402.035156 62.902344 C 402.035156 63.007812 402.070312 63.078125 402.140625 63.121094 C 405.164062 65.976562 406.675781 70.152344 406.675781 75.65625 C 406.675781 81.15625 405.148438 85.351562 402.089844 88.238281 L 402.035156 88.40625 C 402.035156 88.558594 402.117188 88.632812 402.273438 88.632812 Z M 402.523438 88.632812 "/>
<path style=" stroke:none;fill-rule:nonzero;fill:rgb(100%,100%,100%);fill-opacity:1;" d="M 412.726562 88.632812 L 412.855469 88.582031 C 413.851562 87.820312 414.707031 86.953125 415.421875 85.976562 C 416.140625 85.003906 416.730469 83.9375 417.199219 82.785156 C 417.667969 81.628906 418.007812 80.460938 418.222656 79.273438 C 418.433594 78.085938 418.542969 76.878906 418.542969 75.65625 C 418.542969 74 418.34375 72.375 417.945312 70.789062 C 417.546875 69.199219 416.921875 67.703125 416.066406 66.300781 C 415.210938 64.898438 414.140625 63.707031 412.855469 62.726562 L 412.726562 62.675781 L 412.476562 62.675781 L 412.3125 62.746094 L 412.238281 62.902344 C 412.238281 63.007812 412.273438 63.078125 412.34375 63.121094 C 415.367188 65.976562 416.878906 70.152344 416.878906 75.65625 C 416.878906 81.15625 415.351562 85.351562 412.292969 88.238281 L 412.238281 88.40625 C 412.238281 88.558594 412.320312 88.632812 412.476562 88.632812 Z M 412.726562 88.632812 "/>
<path style=" stroke:none;fill-rule:nonzero;fill:rgb(100%,100%,100%);fill-opacity:1;" d="M 322.722656 202.855469 L 323.050781 202.855469 L 323.183594 202.773438 L 323.257812 202.613281 L 323.203125 202.464844 C 319.84375 199.082031 318.164062 194.039062 318.164062 187.332031 C 318.164062 185.894531 318.246094 184.476562 318.410156 183.085938 C 318.574219 181.691406 318.847656 180.351562 319.226562 179.074219 C 319.601562 177.792969 320.117188 176.558594 320.773438 175.363281 C 321.429688 174.175781 322.242188 173.09375 323.203125 172.121094 L 323.257812 171.96875 L 323.191406 171.808594 L 323.050781 171.726562 L 322.722656 171.726562 L 322.59375 171.777344 C 320.394531 173.554688 318.78125 175.808594 317.753906 178.539062 C 316.722656 181.273438 316.210938 184.195312 316.210938 187.304688 C 316.210938 190.390625 316.722656 193.296875 317.753906 196.023438 C 318.78125 198.753906 320.394531 201.015625 322.59375 202.804688 Z M 322.722656 202.855469 "/>
<path style=" stroke:none;fill-rule:nonzero;fill:rgb(100%,100%,100%);fill-opacity:1;" d="M 325.617188 197.972656 C 326.199219 198.4375 326.855469 198.667969 327.589844 198.667969 C 328.558594 198.667969 329.441406 198.359375 330.238281 197.746094 C 331.035156 197.128906 331.644531 196.371094 332.0625 195.476562 L 337.824219 183.484375 C 337.953125 183.34375 338.578125 183.269531 339.699219 183.269531 L 339.699219 181.953125 L 335.042969 181.953125 L 335.042969 183.269531 C 335.3125 183.269531 335.597656 183.285156 335.890625 183.3125 C 336.1875 183.34375 336.335938 183.402344 336.335938 183.484375 L 333.195312 190.023438 L 329.941406 183.269531 L 331.347656 183.269531 L 331.347656 181.953125 L 324.855469 181.953125 L 324.855469 183.269531 L 326.621094 183.269531 L 331.53125 193.472656 L 330.5625 195.476562 C 330.28125 196.085938 329.878906 196.59375 329.351562 197.007812 C 328.820312 197.421875 328.234375 197.628906 327.589844 197.628906 C 327.492188 197.628906 327.347656 197.613281 327.15625 197.578125 C 327.679688 197.28125 327.941406 196.824219 327.941406 196.199219 C 327.941406 195.765625 327.789062 195.402344 327.484375 195.109375 C 327.179688 194.8125 326.804688 194.664062 326.359375 194.664062 C 325.894531 194.664062 325.511719 194.8125 325.207031 195.109375 C 324.902344 195.402344 324.75 195.765625 324.75 196.199219 C 324.75 196.917969 325.039062 197.507812 325.617188 197.972656 "/>
<path style=" stroke:none;fill-rule:nonzero;fill:rgb(100%,100%,100%);fill-opacity:1;" d="M 343.445312 198.390625 L 343.707031 198.503906 L 343.875 198.453125 C 344.597656 197.761719 345.15625 196.980469 345.550781 196.117188 C 345.945312 195.25 346.144531 194.335938 346.144531 193.371094 C 346.144531 192.679688 346.011719 192.046875 345.742188 191.476562 C 345.472656 190.90625 345.019531 190.621094 344.382812 190.621094 C 343.976562 190.621094 343.628906 190.757812 343.339844 191.027344 C 343.050781 191.296875 342.910156 191.636719 342.910156 192.039062 C 342.910156 192.4375 343.050781 192.777344 343.339844 193.054688 C 343.628906 193.332031 343.976562 193.472656 344.382812 193.472656 C 344.808594 193.472656 345.167969 193.332031 345.453125 193.054688 L 345.453125 193.371094 C 345.453125 194.242188 345.273438 195.070312 344.917969 195.855469 C 344.5625 196.640625 344.0625 197.335938 343.417969 197.933594 L 343.3125 198.148438 Z M 343.445312 198.390625 "/>
<path style=" stroke:none;fill-rule:nonzero;fill:rgb(100%,100%,100%);fill-opacity:1;" d="M 356.097656 197.292969 C 356.382812 196.984375 356.523438 196.644531 356.523438 196.273438 C 356.523438 195.996094 356.421875 195.769531 356.222656 195.597656 C 356.019531 195.421875 355.769531 195.335938 355.472656 195.335938 C 355.027344 195.335938 354.660156 195.5 354.367188 195.824219 C 354.074219 196.148438 353.925781 196.53125 353.925781 196.972656 C 353.925781 197.519531 354.164062 197.960938 354.636719 198.296875 C 355.113281 198.628906 355.648438 198.796875 356.25 198.796875 C 357.035156 198.796875 357.710938 198.457031 358.285156 197.78125 C 358.859375 197.105469 359.335938 196.265625 359.703125 195.265625 C 360.074219 194.265625 360.359375 193.289062 360.566406 192.339844 C 360.769531 191.386719 360.949219 190.453125 361.105469 189.53125 L 362.347656 183.195312 L 365.207031 183.195312 L 365.382812 183.097656 C 365.429688 183.035156 365.46875 182.949219 365.492188 182.84375 C 365.519531 182.738281 365.535156 182.667969 365.546875 182.625 C 365.546875 182.394531 365.457031 182.28125 365.285156 182.28125 L 362.527344 182.28125 L 362.851562 180.570312 C 363.238281 178.625 363.484375 177.433594 363.597656 176.992188 C 363.667969 176.714844 363.824219 176.453125 364.0625 176.207031 C 364.304688 175.964844 364.558594 175.839844 364.828125 175.839844 C 365.316406 175.839844 365.726562 175.964844 366.058594 176.207031 C 365.664062 176.25 365.332031 176.410156 365.066406 176.691406 C 364.800781 176.976562 364.667969 177.304688 364.667969 177.683594 C 364.667969 177.960938 364.769531 178.1875 364.976562 178.359375 C 365.179688 178.53125 365.425781 178.617188 365.714844 178.617188 C 366.144531 178.617188 366.507812 178.457031 366.8125 178.132812 C 367.113281 177.808594 367.265625 177.425781 367.265625 176.988281 C 367.265625 176.609375 367.144531 176.28125 366.910156 176.003906 C 366.675781 175.726562 366.371094 175.519531 366.003906 175.378906 C 365.632812 175.242188 365.253906 175.171875 364.859375 175.171875 C 364.257812 175.171875 363.699219 175.355469 363.179688 175.722656 C 362.664062 176.089844 362.253906 176.558594 361.945312 177.125 C 361.746094 177.519531 361.597656 177.878906 361.496094 178.199219 C 361.394531 178.519531 361.304688 178.871094 361.214844 179.246094 C 361.128906 179.621094 361.03125 180.070312 360.929688 180.597656 L 360.613281 182.28125 L 358.230469 182.28125 C 358.074219 182.28125 357.964844 182.472656 357.894531 182.851562 C 357.894531 183.082031 357.980469 183.195312 358.152344 183.195312 L 360.445312 183.195312 L 359.21875 189.554688 C 358.476562 193.238281 358.027344 195.410156 357.859375 196.070312 C 357.460938 197.441406 356.941406 198.125 356.308594 198.125 C 355.839844 198.125 355.4375 198.003906 355.105469 197.757812 C 355.484375 197.757812 355.8125 197.601562 356.097656 197.292969 "/>
<path style=" stroke:none;fill-rule:nonzero;fill:rgb(100%,100%,100%);fill-opacity:1;" d="M 376.871094 199.960938 L 377.121094 199.960938 L 377.261719 199.878906 L 377.332031 199.734375 C 377.332031 199.640625 377.304688 199.570312 377.253906 199.519531 C 374.210938 196.660156 372.691406 192.484375 372.691406 186.984375 C 372.691406 185.742188 372.773438 184.546875 372.929688 183.402344 C 373.085938 182.257812 373.34375 181.152344 373.695312 180.082031 C 374.046875 179.015625 374.515625 178.007812 375.097656 177.058594 C 375.679688 176.113281 376.40625 175.226562 377.277344 174.398438 L 377.332031 174.234375 L 377.265625 174.074219 L 377.121094 174.003906 L 376.871094 174.003906 L 376.742188 174.054688 C 375.773438 174.789062 374.925781 175.648438 374.199219 176.628906 C 373.476562 177.609375 372.878906 178.660156 372.410156 179.785156 C 371.945312 180.90625 371.597656 182.078125 371.371094 183.296875 C 371.144531 184.511719 371.027344 185.742188 371.027344 186.984375 C 371.027344 188.210938 371.144531 189.429688 371.371094 190.644531 C 371.597656 191.863281 371.941406 193.027344 372.398438 194.144531 C 372.855469 195.261719 373.445312 196.308594 374.167969 197.292969 C 374.886719 198.277344 375.746094 199.152344 376.742188 199.910156 Z M 376.871094 199.960938 "/>
<path style=" stroke:none;fill-rule:nonzero;fill:rgb(100%,100%,100%);fill-opacity:1;" d="M 384.578125 193.472656 L 384.578125 192.15625 C 384.410156 192.15625 384.199219 192.132812 383.941406 192.089844 C 383.683594 192.046875 383.554688 192 383.554688 191.9375 L 386.238281 188.984375 L 389 192.15625 L 388.003906 192.15625 L 388.003906 193.472656 L 394.324219 193.472656 L 394.324219 192.15625 L 392.320312 192.15625 L 387.976562 187.085938 L 391.25 183.511719 C 391.40625 183.351562 392.242188 183.269531 393.757812 183.269531 L 393.757812 181.953125 L 388.410156 181.953125 L 388.410156 183.269531 C 388.566406 183.269531 388.773438 183.285156 389.03125 183.320312 C 389.289062 183.355469 389.417969 183.410156 389.417969 183.484375 L 387.089844 186.046875 L 384.679688 183.269531 L 385.648438 183.269531 L 385.648438 181.953125 L 379.34375 181.953125 L 379.34375 183.269531 L 381.332031 183.269531 L 385.347656 187.945312 L 381.738281 191.914062 C 381.574219 192.074219 380.730469 192.15625 379.214844 192.15625 L 379.214844 193.472656 Z M 384.578125 193.472656 "/>
<path style=" stroke:none;fill-rule:nonzero;fill:rgb(100%,100%,100%);fill-opacity:1;" d="M 396.671875 199.960938 L 396.800781 199.910156 C 397.796875 199.152344 398.652344 198.28125 399.367188 197.308594 C 400.085938 196.332031 400.675781 195.265625 401.144531 194.113281 C 401.613281 192.960938 401.953125 191.789062 402.167969 190.601562 C 402.378906 189.414062 402.488281 188.210938 402.488281 186.984375 C 402.488281 185.328125 402.289062 183.703125 401.890625 182.117188 C 401.492188 180.527344 400.867188 179.03125 400.011719 177.628906 C 399.15625 176.226562 398.085938 175.035156 396.800781 174.054688 L 396.671875 174.003906 L 396.421875 174.003906 L 396.257812 174.074219 L 396.183594 174.234375 C 396.183594 174.335938 396.21875 174.40625 396.289062 174.449219 C 399.3125 177.304688 400.824219 181.484375 400.824219 186.984375 C 400.824219 192.484375 399.296875 196.679688 396.238281 199.570312 L 396.183594 199.734375 C 396.183594 199.886719 396.265625 199.960938 396.421875 199.960938 Z M 396.671875 199.960938 "/>
<path style=" stroke:none;fill-rule:nonzero;fill:rgb(100%,100%,100%);fill-opacity:1;" d="M 421.386719 187.503906 L 421.386719 195.15625 C 421.386719 195.292969 421.441406 195.40625 421.546875 195.496094 C 421.652344 195.582031 421.777344 195.628906 421.925781 195.628906 C 422.054688 195.628906 422.179688 195.582031 422.292969 195.496094 C 422.40625 195.40625 422.460938 195.292969 422.460938 195.15625 L 422.460938 187.503906 L 430.351562 187.503906 C 430.480469 187.503906 430.59375 187.449219 430.691406 187.339844 C 430.789062 187.230469 430.835938 187.109375 430.835938 186.984375 C 430.835938 186.855469 430.789062 186.738281 430.691406 186.628906 C 430.59375 186.519531 430.480469 186.464844 430.351562 186.464844 L 422.460938 186.464844 L 422.460938 178.808594 C 422.460938 178.671875 422.40625 178.5625 422.292969 178.472656 C 422.179688 178.382812 422.054688 178.339844 421.925781 178.339844 C 421.777344 178.339844 421.652344 178.382812 421.546875 178.472656 C 421.441406 178.5625 421.386719 178.671875 421.386719 178.808594 L 421.386719 186.464844 L 413.5 186.464844 C 413.351562 186.464844 413.230469 186.519531 413.132812 186.628906 C 413.039062 186.738281 412.988281 186.855469 412.988281 186.984375 C 412.988281 187.109375 413.039062 187.230469 413.132812 187.339844 C 413.230469 187.449219 413.351562 187.503906 413.5 187.503906 Z M 421.386719 187.503906 "/>
<path style=" stroke:none;fill-rule:nonzero;fill:rgb(100%,100%,100%);fill-opacity:1;" d="M 448.738281 194.335938 L 449.101562 194.335938 C 449.335938 194.335938 449.496094 194.238281 449.582031 194.042969 L 458.707031 176.03125 L 458.726562 175.996094 L 458.734375 175.957031 C 458.734375 175.8125 458.660156 175.742188 458.515625 175.742188 L 439.328125 175.742188 C 439.179688 175.742188 439.105469 175.8125 439.105469 175.957031 L 439.125 175.988281 L 439.132812 176.03125 L 448.261719 194.042969 C 448.347656 194.238281 448.507812 194.335938 448.738281 194.335938 M 442.550781 177.695312 L 456.820312 177.695312 L 449.683594 191.785156 Z M 442.550781 177.695312 "/>
<path style=" stroke:none;fill-rule:nonzero;fill:rgb(100%,100%,100%);fill-opacity:1;" d="M 461.839844 182.726562 L 461.992188 182.820312 L 468.847656 182.820312 C 468.933594 182.808594 469 182.753906 469.050781 182.660156 L 469.121094 182.367188 C 469.121094 182.230469 469.050781 182.140625 468.902344 182.09375 C 467.800781 182.09375 467.089844 182.058594 466.773438 181.988281 C 466.636719 181.96875 466.570312 181.890625 466.570312 181.746094 L 466.582031 181.671875 L 466.589844 181.589844 L 469.121094 171.785156 C 469.210938 171.476562 469.304688 171.292969 469.40625 171.234375 C 469.511719 171.175781 469.738281 171.144531 470.089844 171.144531 L 471.382812 171.144531 C 472.203125 171.144531 472.800781 171.230469 473.175781 171.402344 C 473.550781 171.574219 473.734375 172.003906 473.734375 172.6875 C 473.734375 173.019531 473.679688 173.582031 473.570312 174.382812 C 473.570312 174.527344 473.644531 174.621094 473.789062 174.664062 L 474.039062 174.664062 C 474.167969 174.628906 474.25 174.550781 474.285156 174.433594 L 474.847656 170.691406 C 474.847656 170.550781 474.769531 170.460938 474.617188 170.417969 L 462.371094 170.417969 C 462.273438 170.4375 462.199219 170.484375 462.148438 170.570312 L 460.789062 174.300781 L 460.773438 174.414062 C 460.773438 174.539062 460.847656 174.621094 461.003906 174.664062 L 461.242188 174.664062 C 461.34375 174.648438 461.421875 174.59375 461.472656 174.503906 C 461.726562 173.789062 461.945312 173.242188 462.121094 172.863281 C 462.300781 172.488281 462.519531 172.171875 462.78125 171.917969 C 463.039062 171.664062 463.382812 171.46875 463.808594 171.339844 C 464.234375 171.210938 464.796875 171.144531 465.492188 171.144531 L 466.789062 171.144531 C 467.207031 171.144531 467.414062 171.175781 467.414062 171.234375 C 467.394531 171.371094 467.367188 171.507812 467.324219 171.652344 L 464.777344 181.453125 C 464.710938 181.738281 464.554688 181.914062 464.308594 181.988281 C 463.960938 182.058594 463.207031 182.09375 462.050781 182.09375 L 461.847656 182.234375 L 461.773438 182.527344 Z M 461.839844 182.726562 "/>
<path style=" stroke:none;fill-rule:nonzero;fill:rgb(100%,100%,100%);fill-opacity:1;" d="M 480.328125 197.292969 C 480.613281 196.984375 480.753906 196.644531 480.753906 196.273438 C 480.753906 195.996094 480.65625 195.769531 480.453125 195.597656 C 480.253906 195.421875 480.003906 195.335938 479.707031 195.335938 C 479.261719 195.335938 478.890625 195.5 478.597656 195.824219 C 478.304688 196.148438 478.160156 196.53125 478.160156 196.972656 C 478.160156 197.519531 478.398438 197.960938 478.871094 198.296875 C 479.34375 198.628906 479.882812 198.796875 480.484375 198.796875 C 481.265625 198.796875 481.945312 198.457031 482.519531 197.78125 C 483.09375 197.105469 483.566406 196.265625 483.9375 195.265625 C 484.304688 194.265625 484.59375 193.289062 484.796875 192.339844 C 485.003906 191.386719 485.183594 190.453125 485.339844 189.53125 L 486.578125 183.195312 L 489.4375 183.195312 L 489.613281 183.097656 C 489.664062 183.035156 489.699219 182.949219 489.726562 182.84375 C 489.75 182.738281 489.769531 182.667969 489.777344 182.625 C 489.777344 182.394531 489.691406 182.28125 489.515625 182.28125 L 486.757812 182.28125 L 487.085938 180.570312 C 487.46875 178.625 487.71875 177.433594 487.832031 176.992188 C 487.902344 176.714844 488.054688 176.453125 488.296875 176.207031 C 488.535156 175.964844 488.789062 175.839844 489.0625 175.839844 C 489.546875 175.839844 489.957031 175.964844 490.289062 176.207031 C 489.894531 176.25 489.566406 176.410156 489.300781 176.691406 C 489.03125 176.976562 488.898438 177.304688 488.898438 177.683594 C 488.898438 177.960938 489 178.1875 489.207031 178.359375 C 489.414062 178.53125 489.660156 178.617188 489.949219 178.617188 C 490.375 178.617188 490.742188 178.457031 491.042969 178.132812 C 491.347656 177.808594 491.496094 177.425781 491.496094 176.988281 C 491.496094 176.609375 491.378906 176.28125 491.144531 176.003906 C 490.910156 175.726562 490.605469 175.519531 490.234375 175.378906 C 489.867188 175.242188 489.484375 175.171875 489.09375 175.171875 C 488.492188 175.171875 487.933594 175.355469 487.414062 175.722656 C 486.894531 176.089844 486.484375 176.558594 486.179688 177.125 C 485.980469 177.519531 485.828125 177.878906 485.730469 178.199219 C 485.628906 178.519531 485.535156 178.871094 485.449219 179.246094 C 485.359375 179.621094 485.265625 180.070312 485.160156 180.597656 L 484.847656 182.28125 L 482.464844 182.28125 C 482.308594 182.28125 482.195312 182.472656 482.125 182.851562 C 482.125 183.082031 482.210938 183.195312 482.386719 183.195312 L 484.679688 183.195312 L 483.449219 189.554688 C 482.710938 193.238281 482.257812 195.410156 482.09375 196.070312 C 481.695312 197.441406 481.175781 198.125 480.539062 198.125 C 480.070312 198.125 479.667969 198.003906 479.339844 197.757812 C 479.714844 197.757812 480.046875 197.601562 480.328125 197.292969 "/>
<path style=" stroke:none;fill-rule:nonzero;fill:rgb(100%,100%,100%);fill-opacity:1;" d="M 501.253906 199.960938 L 501.503906 199.960938 L 501.640625 199.878906 L 501.714844 199.734375 C 501.714844 199.640625 501.6875 199.570312 501.636719 199.519531 C 498.59375 196.660156 497.074219 192.484375 497.074219 186.984375 C 497.074219 185.742188 497.152344 184.546875 497.3125 183.402344 C 497.46875 182.257812 497.722656 181.152344 498.078125 180.082031 C 498.429688 179.015625 498.898438 178.007812 499.480469 177.058594 C 500.058594 176.113281 500.789062 175.226562 501.660156 174.398438 L 501.714844 174.234375 L 501.648438 174.074219 L 501.503906 174.003906 L 501.253906 174.003906 L 501.125 174.054688 C 500.152344 174.789062 499.308594 175.648438 498.582031 176.628906 C 497.855469 177.609375 497.261719 178.660156 496.792969 179.785156 C 496.324219 180.90625 495.980469 182.078125 495.753906 183.296875 C 495.523438 184.511719 495.410156 185.742188 495.410156 186.984375 C 495.410156 188.210938 495.523438 189.429688 495.753906 190.644531 C 495.980469 191.863281 496.320312 193.027344 496.78125 194.144531 C 497.238281 195.261719 497.828125 196.308594 498.550781 197.292969 C 499.269531 198.277344 500.128906 199.152344 501.125 199.910156 Z M 501.253906 199.960938 "/>
<path style=" stroke:none;fill-rule:nonzero;fill:rgb(100%,100%,100%);fill-opacity:1;" d="M 508.957031 193.472656 L 508.957031 192.15625 C 508.792969 192.15625 508.582031 192.132812 508.324219 192.089844 C 508.066406 192.046875 507.9375 192 507.9375 191.9375 L 510.621094 188.984375 L 513.378906 192.15625 L 512.386719 192.15625 L 512.386719 193.472656 L 518.703125 193.472656 L 518.703125 192.15625 L 516.703125 192.15625 L 512.359375 187.085938 L 515.628906 183.511719 C 515.789062 183.351562 516.625 183.269531 518.140625 183.269531 L 518.140625 181.953125 L 512.792969 181.953125 L 512.792969 183.269531 C 512.949219 183.269531 513.15625 183.285156 513.414062 183.320312 C 513.667969 183.355469 513.796875 183.410156 513.796875 183.484375 L 511.46875 186.046875 L 509.0625 183.269531 L 510.03125 183.269531 L 510.03125 181.953125 L 503.726562 181.953125 L 503.726562 183.269531 L 505.714844 183.269531 L 509.730469 187.945312 L 506.121094 191.914062 C 505.953125 192.074219 505.113281 192.15625 503.59375 192.15625 L 503.59375 193.472656 Z M 508.957031 193.472656 "/>
<path style=" stroke:none;fill-rule:nonzero;fill:rgb(100%,100%,100%);fill-opacity:1;" d="M 521.050781 199.960938 L 521.183594 199.910156 C 522.179688 199.152344 523.035156 198.28125 523.75 197.308594 C 524.46875 196.332031 525.058594 195.265625 525.527344 194.113281 C 525.996094 192.960938 526.335938 191.789062 526.550781 190.601562 C 526.761719 189.414062 526.871094 188.210938 526.871094 186.984375 C 526.871094 185.328125 526.671875 183.703125 526.273438 182.117188 C 525.875 180.527344 525.25 179.03125 524.394531 177.628906 C 523.539062 176.226562 522.46875 175.035156 521.183594 174.054688 L 521.050781 174.003906 L 520.804688 174.003906 L 520.640625 174.074219 L 520.566406 174.234375 C 520.566406 174.335938 520.601562 174.40625 520.671875 174.449219 C 523.695312 177.304688 525.207031 181.484375 525.207031 186.984375 C 525.207031 192.484375 523.675781 196.679688 520.621094 199.570312 L 520.566406 199.734375 C 520.566406 199.886719 520.644531 199.960938 520.804688 199.960938 Z M 521.050781 199.960938 "/>
<path style=" stroke:none;fill-rule:nonzero;fill:rgb(100%,100%,100%);fill-opacity:1;" d="M 537.566406 199.960938 L 537.8125 199.960938 L 537.949219 199.878906 L 538.023438 199.734375 C 538.023438 199.640625 537.996094 199.570312 537.945312 199.519531 C 534.90625 196.660156 533.382812 192.484375 533.382812 186.984375 C 533.382812 185.742188 533.464844 184.546875 533.621094 183.402344 C 533.777344 182.257812 534.035156 181.152344 534.386719 180.082031 C 534.742188 179.015625 535.207031 178.007812 535.789062 177.058594 C 536.371094 176.113281 537.097656 175.226562 537.96875 174.398438 L 538.023438 174.234375 L 537.957031 174.074219 L 537.8125 174.003906 L 537.566406 174.003906 L 537.433594 174.054688 C 536.464844 174.789062 535.617188 175.648438 534.890625 176.628906 C 534.167969 177.609375 533.570312 178.660156 533.105469 179.785156 C 532.636719 180.90625 532.289062 182.078125 532.0625 183.296875 C 531.835938 184.511719 531.71875 185.742188 531.71875 186.984375 C 531.71875 188.210938 531.835938 189.429688 532.0625 190.644531 C 532.289062 191.863281 532.632812 193.027344 533.089844 194.144531 C 533.546875 195.261719 534.136719 196.308594 534.859375 197.292969 C 535.578125 198.277344 536.4375 199.152344 537.433594 199.910156 Z M 537.566406 199.960938 "/>
<path style=" stroke:none;fill-rule:nonzero;fill:rgb(100%,100%,100%);fill-opacity:1;" d="M 541.074219 197.972656 C 541.65625 198.4375 542.3125 198.667969 543.042969 198.667969 C 544.011719 198.667969 544.894531 198.359375 545.695312 197.746094 C 546.492188 197.128906 547.101562 196.371094 547.519531 195.476562 L 553.277344 183.484375 C 553.410156 183.34375 554.035156 183.269531 555.15625 183.269531 L 555.15625 181.953125 L 550.5 181.953125 L 550.5 183.269531 C 550.769531 183.269531 551.050781 183.285156 551.347656 183.3125 C 551.644531 183.34375 551.789062 183.402344 551.789062 183.484375 L 548.652344 190.023438 L 545.398438 183.269531 L 546.804688 183.269531 L 546.804688 181.953125 L 540.308594 181.953125 L 540.308594 183.269531 L 542.074219 183.269531 L 546.988281 193.472656 L 546.019531 195.476562 C 545.738281 196.085938 545.335938 196.59375 544.804688 197.007812 C 544.277344 197.421875 543.691406 197.628906 543.042969 197.628906 C 542.949219 197.628906 542.804688 197.613281 542.613281 197.578125 C 543.136719 197.28125 543.398438 196.824219 543.398438 196.199219 C 543.398438 195.765625 543.242188 195.402344 542.9375 195.109375 C 542.632812 194.8125 542.257812 194.664062 541.8125 194.664062 C 541.351562 194.664062 540.96875 194.8125 540.664062 195.109375 C 540.355469 195.402344 540.203125 195.765625 540.203125 196.199219 C 540.203125 196.917969 540.496094 197.507812 541.074219 197.972656 "/>
<path style=" stroke:none;fill-rule:nonzero;fill:rgb(100%,100%,100%);fill-opacity:1;" d="M 580.191406 187.503906 C 580.328125 187.503906 580.441406 187.449219 580.535156 187.339844 C 580.625 187.230469 580.667969 187.109375 580.667969 186.984375 C 580.667969 186.855469 580.625 186.738281 580.535156 186.628906 C 580.441406 186.519531 580.328125 186.464844 580.191406 186.464844 L 564.976562 186.464844 C 564.832031 186.464844 564.710938 186.519531 564.617188 186.628906 C 564.519531 186.738281 564.472656 186.855469 564.472656 186.984375 C 564.472656 187.109375 564.519531 187.230469 564.617188 187.339844 C 564.710938 187.449219 564.832031 187.503906 564.976562 187.503906 Z M 580.191406 187.503906 "/>
<path style=" stroke:none;fill-rule:nonzero;fill:rgb(100%,100%,100%);fill-opacity:1;" d="M 594.78125 193.472656 L 594.78125 192.15625 C 594.613281 192.15625 594.402344 192.132812 594.148438 192.089844 C 593.890625 192.046875 593.761719 192 593.761719 191.9375 L 596.441406 188.984375 L 599.203125 192.15625 L 598.207031 192.15625 L 598.207031 193.472656 L 604.527344 193.472656 L 604.527344 192.15625 L 602.523438 192.15625 L 598.183594 187.085938 L 601.453125 183.511719 C 601.609375 183.351562 602.445312 183.269531 603.964844 183.269531 L 603.964844 181.953125 L 598.613281 181.953125 L 598.613281 183.269531 C 598.769531 183.269531 598.976562 183.285156 599.234375 183.320312 C 599.492188 183.355469 599.621094 183.410156 599.621094 183.484375 L 597.292969 186.046875 L 594.886719 183.269531 L 595.855469 183.269531 L 595.855469 181.953125 L 589.546875 181.953125 L 589.546875 183.269531 L 591.535156 183.269531 L 595.554688 187.945312 L 591.941406 191.914062 C 591.777344 192.074219 590.933594 192.15625 589.417969 192.15625 L 589.417969 193.472656 Z M 594.78125 193.472656 "/>
<path style=" stroke:none;fill-rule:nonzero;fill:rgb(100%,100%,100%);fill-opacity:1;" d="M 606.875 199.960938 L 607.003906 199.910156 C 608 199.152344 608.859375 198.28125 609.574219 197.308594 C 610.289062 196.332031 610.882812 195.265625 611.347656 194.113281 C 611.816406 192.960938 612.15625 191.789062 612.371094 190.601562 C 612.585938 189.414062 612.691406 188.210938 612.691406 186.984375 C 612.691406 185.328125 612.492188 183.703125 612.09375 182.117188 C 611.699219 180.527344 611.070312 179.03125 610.214844 177.628906 C 609.359375 176.226562 608.289062 175.035156 607.003906 174.054688 L 606.875 174.003906 L 606.625 174.003906 L 606.460938 174.074219 L 606.390625 174.234375 C 606.390625 174.335938 606.425781 174.40625 606.496094 174.449219 C 609.515625 177.304688 611.027344 181.484375 611.027344 186.984375 C 611.027344 192.484375 609.5 196.679688 606.441406 199.570312 L 606.390625 199.734375 C 606.390625 199.886719 606.46875 199.960938 606.625 199.960938 Z M 606.875 199.960938 "/>
<path style=" stroke:none;fill-rule:nonzero;fill:rgb(100%,100%,100%);fill-opacity:1;" d="M 616.890625 202.855469 L 617.019531 202.804688 C 619.21875 201.015625 620.828125 198.753906 621.847656 196.023438 C 622.867188 193.296875 623.378906 190.390625 623.378906 187.304688 C 623.378906 184.195312 622.867188 181.273438 621.839844 178.539062 C 620.816406 175.808594 619.210938 173.554688 617.019531 171.777344 L 616.890625 171.726562 L 616.5625 171.726562 C 616.410156 171.726562 616.332031 171.808594 616.332031 171.96875 L 616.382812 172.121094 C 619.742188 175.5 621.425781 180.554688 621.425781 187.277344 C 621.425781 189.214844 621.273438 191.085938 620.972656 192.886719 C 620.675781 194.691406 620.15625 196.414062 619.410156 198.058594 C 618.667969 199.703125 617.660156 201.171875 616.382812 202.464844 L 616.332031 202.613281 C 616.332031 202.777344 616.410156 202.855469 616.5625 202.855469 Z M 616.890625 202.855469 "/>
</g>
</svg>
