<?xml version="1.0" encoding="UTF-8"?>
<svg xmlns="http://www.w3.org/2000/svg" xmlns:xlink="http://www.w3.org/1999/xlink" width="391.6737pt" height="394.548pt" viewBox="0 0 391.6737 394.548" version="1.1">
<defs>
<clipPath id="clip1">
  <path d="M 243 369 L 264 369 L 264 394.546875 L 243 394.546875 Z M 243 369 "/>
</clipPath>
</defs>
<g id="surface1">
<path style=" stroke:none;fill-rule:nonzero;fill:rgb(100%,100%,100%);fill-opacity:1;" d="M 3.648438 2.046875 L 251.878906 374.246094 L 249.964844 375.523438 L 1.730469 3.328125 "/>
<g clip-path="url(#clip1)" clip-rule="nonzero">
<path style=" stroke:none;fill-rule:evenodd;fill:rgb(100%,100%,100%);fill-opacity:1;" d="M 263.980469 394.546875 L 257.066406 369.355469 L 243.394531 378.574219 Z M 263.980469 394.546875 "/>
</g>
<path style=" stroke:none;fill-rule:nonzero;fill:rgb(100%,100%,0%);fill-opacity:1;" d="M 119.714844 180.222656 L 213.261719 117.859375 L 214.542969 119.777344 L 120.992188 182.140625 "/>
<path style=" stroke:none;fill-rule:evenodd;fill:rgb(100%,100%,0%);fill-opacity:1;" d="M 233.5625 105.761719 L 208.371094 112.671875 L 217.433594 126.34375 Z M 233.5625 105.761719 "/>
<path style=" stroke:none;fill-rule:evenodd;fill:rgb(0%,0%,0%);fill-opacity:1;" d="M 121.429688 174.269531 C 125.117188 174.269531 128.035156 177.191406 128.035156 180.875 C 128.035156 184.5625 125.117188 187.328125 121.429688 187.328125 C 117.742188 187.328125 114.976562 184.5625 114.976562 180.875 C 114.976562 177.191406 117.742188 174.269531 121.429688 174.269531 "/>
<path style=" stroke:none;fill-rule:nonzero;fill:rgb(100%,100%,100%);fill-opacity:1;" d="M 121.429688 174.269531 L 121.429688 173.117188 C 123.578125 173.117188 125.53125 173.972656 126.929688 175.375 C 128.328125 176.773438 129.1875 178.726562 129.1875 180.875 C 129.1875 183.027344 128.324219 184.953125 126.914062 186.3125 C 125.507812 187.675781 123.5625 188.480469 121.429688 188.480469 C 119.296875 188.484375 117.375 187.671875 116.007812 186.296875 C 114.636719 184.929688 113.824219 183.007812 113.824219 180.875 C 113.824219 178.742188 114.628906 176.796875 115.992188 175.390625 C 117.351562 173.980469 119.277344 173.117188 121.429688 173.117188 L 121.429688 175.421875 C 119.890625 175.425781 118.59375 176.019531 117.648438 176.992188 C 116.707031 177.964844 116.132812 179.320312 116.128906 180.875 C 116.132812 182.429688 116.703125 183.734375 117.636719 184.667969 C 118.570312 185.601562 119.875 186.171875 121.429688 186.175781 C 122.984375 186.175781 124.339844 185.597656 125.3125 184.65625 C 126.285156 183.710938 126.878906 182.414062 126.882812 180.875 C 126.882812 179.339844 126.277344 177.988281 125.300781 177.003906 C 124.316406 176.027344 122.964844 175.421875 121.429688 175.421875 Z M 121.429688 174.269531 "/>
<path style=" stroke:none;fill-rule:nonzero;fill:rgb(100%,100%,100%);fill-opacity:1;" d="M 80.363281 200.382812 L 80.363281 199.035156 C 80.195312 199.035156 79.976562 199.011719 79.714844 198.96875 C 79.453125 198.925781 79.320312 198.875 79.320312 198.8125 L 82.066406 195.792969 L 84.890625 199.035156 L 83.875 199.035156 L 83.875 200.382812 L 90.34375 200.382812 L 90.34375 199.035156 L 88.292969 199.035156 L 83.847656 193.84375 L 87.195312 190.183594 C 87.355469 190.019531 88.210938 189.9375 89.765625 189.9375 L 89.765625 188.589844 L 84.289062 188.589844 L 84.289062 189.9375 C 84.449219 189.9375 84.660156 189.957031 84.925781 189.988281 C 85.1875 190.023438 85.320312 190.082031 85.320312 190.160156 L 82.933594 192.78125 L 80.472656 189.9375 L 81.460938 189.9375 L 81.460938 188.589844 L 75.007812 188.589844 L 75.007812 189.9375 L 77.042969 189.9375 L 81.15625 194.726562 L 77.457031 198.789062 C 77.289062 198.953125 76.425781 199.035156 74.875 199.035156 L 74.875 200.382812 Z M 80.363281 200.382812 "/>
<path style=" stroke:none;fill-rule:nonzero;fill:rgb(100%,100%,100%);fill-opacity:1;" d="M 98.941406 203.679688 C 99.609375 203.070312 100.066406 202.300781 100.3125 201.371094 C 100.558594 200.441406 100.683594 199.425781 100.683594 198.316406 C 100.683594 196.5 100.359375 194.976562 99.714844 193.738281 C 99.066406 192.5 97.890625 191.882812 96.191406 191.882812 C 94.496094 191.882812 93.320312 192.5 92.667969 193.738281 C 92.011719 194.976562 91.6875 196.5 91.6875 198.316406 C 91.6875 199.425781 91.808594 200.441406 92.058594 201.371094 C 92.304688 202.300781 92.765625 203.070312 93.433594 203.679688 C 94.101562 204.289062 95.023438 204.597656 96.191406 204.597656 C 97.359375 204.597656 98.277344 204.289062 98.941406 203.679688 M 94.703125 203.386719 C 94.324219 202.976562 94.054688 202.464844 93.890625 201.847656 C 93.726562 201.230469 93.625 200.617188 93.585938 200.011719 C 93.542969 199.410156 93.523438 198.738281 93.523438 198 C 93.523438 197.277344 93.542969 196.640625 93.585938 196.078125 C 93.625 195.519531 93.726562 194.964844 93.886719 194.410156 C 94.046875 193.855469 94.3125 193.394531 94.6875 193.03125 C 95.0625 192.664062 95.5625 192.480469 96.191406 192.480469 C 97 192.480469 97.601562 192.777344 97.988281 193.371094 C 98.378906 193.964844 98.621094 194.636719 98.710938 195.394531 C 98.800781 196.148438 98.847656 197.019531 98.847656 198 C 98.847656 199.019531 98.800781 199.945312 98.710938 200.769531 C 98.621094 201.597656 98.378906 202.339844 97.984375 203.003906 C 97.59375 203.664062 96.996094 203.996094 96.191406 203.996094 C 95.574219 203.996094 95.078125 203.792969 94.703125 203.386719 "/>
<path style=" stroke:none;fill-rule:nonzero;fill:rgb(100%,100%,0%);fill-opacity:1;" d="M 233.597656 144.527344 C 234.683594 145.003906 235.902344 145.242188 237.257812 145.242188 C 238.09375 145.242188 238.878906 145.066406 239.605469 144.714844 C 240.332031 144.363281 240.890625 143.851562 241.285156 143.175781 L 241.285156 143.488281 C 241.285156 144.078125 241.566406 144.488281 242.136719 144.726562 C 242.707031 144.964844 243.34375 145.085938 244.046875 145.085938 L 245.929688 145.085938 C 246.171875 145.03125 246.316406 144.890625 246.371094 144.65625 L 246.371094 144.152344 C 246.316406 143.925781 246.171875 143.785156 245.929688 143.734375 C 244.675781 143.734375 244.046875 143.519531 244.046875 143.085938 L 244.046875 136.921875 C 244.046875 136.203125 243.867188 135.597656 243.5 135.097656 C 243.136719 134.601562 242.65625 134.199219 242.058594 133.894531 C 241.464844 133.585938 240.828125 133.367188 240.148438 133.238281 C 239.464844 133.109375 238.777344 133.042969 238.085938 133.042969 C 236.707031 133.042969 235.519531 133.199219 234.523438 133.507812 C 233.527344 133.820312 233.03125 134.5 233.03125 135.546875 C 233.03125 136.023438 233.199219 136.429688 233.535156 136.765625 C 233.871094 137.105469 234.292969 137.273438 234.800781 137.273438 C 235.296875 137.273438 235.710938 137.109375 236.050781 136.78125 C 236.386719 136.453125 236.554688 136.039062 236.554688 135.546875 C 236.554688 135.019531 236.363281 134.589844 235.984375 134.261719 C 236.507812 134.160156 237.199219 134.105469 238.050781 134.105469 C 238.914062 134.105469 239.589844 134.375 240.082031 134.910156 C 240.570312 135.449219 240.816406 136.144531 240.816406 137 L 240.816406 137.988281 C 240.023438 137.988281 239.125 138.046875 238.121094 138.160156 C 237.117188 138.277344 236.15625 138.480469 235.230469 138.773438 C 234.308594 139.0625 233.535156 139.480469 232.910156 140.03125 C 232.285156 140.578125 231.972656 141.273438 231.972656 142.113281 C 231.972656 143.246094 232.515625 144.050781 233.597656 144.527344 M 236.195312 140.257812 C 236.800781 139.78125 237.527344 139.441406 238.371094 139.234375 C 239.21875 139.023438 240.03125 138.921875 240.816406 138.921875 L 240.816406 141.605469 C 240.816406 142.109375 240.660156 142.558594 240.347656 142.957031 C 240.035156 143.355469 239.636719 143.65625 239.148438 143.863281 C 238.65625 144.074219 238.152344 144.175781 237.636719 144.175781 C 237.023438 144.175781 236.476562 143.980469 236 143.585938 C 235.523438 143.191406 235.285156 142.703125 235.285156 142.113281 C 235.285156 141.351562 235.589844 140.734375 236.195312 140.257812 "/>
<path style=" stroke:none;fill-rule:nonzero;fill:rgb(100%,100%,100%);fill-opacity:1;" d="M 246.65625 332.390625 C 247.738281 332.867188 248.960938 333.105469 250.316406 333.105469 C 251.152344 333.105469 251.933594 332.929688 252.660156 332.578125 C 253.390625 332.230469 253.949219 331.714844 254.339844 331.042969 L 254.339844 331.355469 C 254.339844 331.941406 254.625 332.355469 255.195312 332.59375 C 255.765625 332.832031 256.402344 332.949219 257.105469 332.949219 L 258.988281 332.949219 C 259.230469 332.898438 259.375 332.753906 259.429688 332.523438 L 259.429688 332.015625 C 259.375 331.789062 259.230469 331.652344 258.988281 331.597656 C 257.734375 331.597656 257.105469 331.382812 257.105469 330.953125 L 257.105469 324.789062 C 257.105469 324.070312 256.921875 323.460938 256.558594 322.964844 C 256.191406 322.46875 255.714844 322.066406 255.117188 321.757812 C 254.523438 321.449219 253.882812 321.234375 253.203125 321.101562 C 252.523438 320.972656 251.835938 320.90625 251.144531 320.90625 C 249.765625 320.90625 248.578125 321.0625 247.582031 321.375 C 246.585938 321.6875 246.085938 322.367188 246.085938 323.414062 C 246.085938 323.886719 246.257812 324.292969 246.59375 324.632812 C 246.929688 324.96875 247.351562 325.136719 247.855469 325.136719 C 248.351562 325.136719 248.769531 324.972656 249.105469 324.644531 C 249.445312 324.316406 249.613281 323.90625 249.613281 323.414062 C 249.613281 322.882812 249.421875 322.457031 249.042969 322.128906 C 249.566406 322.023438 250.253906 321.972656 251.109375 321.972656 C 251.972656 321.972656 252.648438 322.242188 253.140625 322.777344 C 253.628906 323.3125 253.875 324.007812 253.875 324.867188 L 253.875 325.851562 C 253.078125 325.851562 252.179688 325.910156 251.179688 326.027344 C 250.175781 326.144531 249.210938 326.347656 248.289062 326.636719 C 247.367188 326.925781 246.59375 327.347656 245.96875 327.894531 C 245.34375 328.445312 245.03125 329.140625 245.03125 329.980469 C 245.03125 331.113281 245.574219 331.914062 246.65625 332.390625 M 249.253906 328.121094 C 249.859375 327.648438 250.582031 327.304688 251.429688 327.097656 C 252.273438 326.890625 253.089844 326.785156 253.875 326.785156 L 253.875 329.472656 C 253.875 329.972656 253.71875 330.421875 253.40625 330.820312 C 253.09375 331.21875 252.691406 331.523438 252.203125 331.730469 C 251.714844 331.9375 251.210938 332.042969 250.695312 332.042969 C 250.082031 332.042969 249.535156 331.84375 249.058594 331.449219 C 248.582031 331.058594 248.34375 330.566406 248.34375 329.980469 C 248.34375 329.214844 248.648438 328.597656 249.253906 328.121094 "/>
<path style=" stroke:none;fill-rule:nonzero;fill:rgb(100%,100%,100%);fill-opacity:1;" d="M 261.15625 321.949219 L 261.316406 322.042969 L 268.332031 322.042969 C 268.421875 322.03125 268.488281 321.976562 268.539062 321.878906 L 268.613281 321.582031 C 268.613281 321.441406 268.539062 321.347656 268.390625 321.300781 C 267.261719 321.300781 266.53125 321.261719 266.207031 321.191406 C 266.066406 321.171875 266 321.089844 266 320.945312 L 266.011719 320.867188 L 266.019531 320.78125 L 268.613281 310.746094 C 268.703125 310.429688 268.800781 310.242188 268.90625 310.179688 C 269.011719 310.121094 269.246094 310.089844 269.601562 310.089844 L 270.929688 310.089844 C 271.769531 310.089844 272.378906 310.179688 272.761719 310.355469 C 273.144531 310.527344 273.335938 310.96875 273.335938 311.671875 C 273.335938 312.007812 273.28125 312.585938 273.167969 313.402344 C 273.167969 313.554688 273.242188 313.652344 273.394531 313.695312 L 273.648438 313.695312 C 273.777344 313.65625 273.863281 313.578125 273.902344 313.457031 L 274.476562 309.628906 C 274.476562 309.484375 274.394531 309.390625 274.238281 309.347656 L 261.699219 309.347656 C 261.601562 309.363281 261.523438 309.417969 261.476562 309.5 L 260.082031 313.320312 L 260.0625 313.441406 C 260.0625 313.566406 260.140625 313.652344 260.300781 313.695312 L 260.542969 313.695312 C 260.648438 313.675781 260.726562 313.621094 260.777344 313.53125 C 261.042969 312.796875 261.265625 312.238281 261.445312 311.851562 C 261.628906 311.464844 261.851562 311.140625 262.117188 310.878906 C 262.386719 310.621094 262.738281 310.425781 263.171875 310.289062 C 263.609375 310.15625 264.183594 310.089844 264.898438 310.089844 L 266.226562 310.089844 C 266.652344 310.089844 266.863281 310.121094 266.863281 310.179688 C 266.847656 310.320312 266.8125 310.464844 266.769531 310.609375 L 264.164062 320.644531 C 264.097656 320.9375 263.9375 321.117188 263.683594 321.191406 C 263.328125 321.261719 262.558594 321.300781 261.371094 321.300781 L 261.164062 321.445312 L 261.089844 321.746094 Z M 261.15625 321.949219 "/>
<path style=" stroke:none;fill-rule:nonzero;fill:rgb(100%,100%,100%);fill-opacity:1;" d="M 282.804688 332.949219 L 282.804688 331.601562 C 282.636719 331.601562 282.421875 331.578125 282.15625 331.535156 C 281.894531 331.492188 281.761719 331.441406 281.761719 331.378906 L 284.5 328.355469 L 287.320312 331.601562 L 286.304688 331.601562 L 286.304688 332.949219 L 292.753906 332.949219 L 292.753906 331.601562 L 290.710938 331.601562 L 286.277344 326.410156 L 289.617188 322.75 C 289.777344 322.585938 290.632812 322.503906 292.179688 322.503906 L 292.179688 321.15625 L 286.71875 321.15625 L 286.71875 322.503906 C 286.878906 322.503906 287.089844 322.523438 287.351562 322.554688 C 287.617188 322.589844 287.746094 322.648438 287.746094 322.726562 L 285.371094 325.347656 L 282.914062 322.503906 L 283.902344 322.503906 L 283.902344 321.15625 L 277.464844 321.15625 L 277.464844 322.503906 L 279.492188 322.503906 L 283.59375 327.292969 L 279.90625 331.355469 C 279.738281 331.519531 278.878906 331.601562 277.328125 331.601562 L 277.328125 332.949219 Z M 282.804688 332.949219 "/>
<path style=" stroke:none;fill-rule:nonzero;fill:rgb(100%,100%,100%);fill-opacity:1;" d="M 319.855469 329.421875 C 319.988281 329.421875 320.105469 329.363281 320.203125 329.25 C 320.300781 329.140625 320.351562 329.019531 320.351562 328.886719 C 320.351562 328.742188 320.300781 328.617188 320.203125 328.511719 C 320.105469 328.410156 319.988281 328.355469 319.855469 328.355469 L 302.605469 328.355469 C 302.453125 328.355469 302.328125 328.410156 302.230469 328.511719 C 302.128906 328.617188 302.082031 328.742188 302.082031 328.886719 C 302.082031 329.019531 302.128906 329.140625 302.230469 329.25 C 302.328125 329.363281 302.453125 329.421875 302.605469 329.421875 Z M 319.855469 324.257812 C 319.988281 324.257812 320.105469 324.203125 320.203125 324.101562 C 320.300781 323.996094 320.351562 323.871094 320.351562 323.722656 C 320.351562 323.59375 320.300781 323.472656 320.203125 323.359375 C 320.105469 323.25 319.988281 323.191406 319.855469 323.191406 L 302.605469 323.191406 C 302.453125 323.191406 302.328125 323.25 302.230469 323.359375 C 302.128906 323.472656 302.082031 323.59375 302.082031 323.722656 C 302.082031 323.871094 302.128906 323.996094 302.230469 324.101562 C 302.328125 324.203125 302.453125 324.257812 302.605469 324.257812 Z M 319.855469 324.257812 "/>
<path style=" stroke:none;fill-rule:nonzero;fill:rgb(100%,100%,100%);fill-opacity:1;" d="M 336.738281 332.535156 C 337.550781 332.058594 338.257812 331.429688 338.863281 330.648438 C 339.46875 329.863281 339.941406 329.015625 340.285156 328.105469 C 340.628906 327.191406 340.800781 326.308594 340.800781 325.449219 C 340.800781 324.714844 340.664062 324.023438 340.386719 323.375 C 340.109375 322.726562 339.695312 322.203125 339.136719 321.804688 C 338.582031 321.40625 337.914062 321.207031 337.140625 321.207031 C 336.089844 321.207031 335.046875 321.699219 334.011719 322.6875 L 336.042969 314.847656 C 336.042969 314.625 335.933594 314.511719 335.710938 314.511719 L 332.023438 314.796875 L 331.816406 314.886719 C 331.765625 314.949219 331.726562 315.035156 331.695312 315.148438 C 331.664062 315.257812 331.644531 315.335938 331.636719 315.378906 C 331.636719 315.613281 331.722656 315.730469 331.902344 315.730469 C 333.085938 315.730469 333.679688 315.871094 333.679688 316.160156 C 333.660156 316.332031 333.617188 316.570312 333.546875 316.871094 L 330.898438 327.183594 C 330.898438 327.292969 330.859375 327.589844 330.773438 328.070312 C 330.6875 328.550781 330.644531 328.875 330.644531 329.039062 C 330.644531 330.164062 330.953125 331.148438 331.566406 331.988281 C 332.183594 332.828125 333.042969 333.25 334.148438 333.25 C 335.0625 333.25 335.929688 333.011719 336.738281 332.535156 M 332.816406 331.75 C 332.519531 331.226562 332.371094 330.632812 332.371094 329.96875 C 332.386719 329.292969 332.542969 328.402344 332.839844 327.285156 L 333.597656 324.28125 C 334.054688 323.632812 334.582031 323.070312 335.183594 322.601562 C 335.785156 322.128906 336.414062 321.894531 337.074219 321.894531 C 337.660156 321.894531 338.089844 322.132812 338.363281 322.613281 C 338.632812 323.09375 338.769531 323.648438 338.769531 324.28125 C 338.769531 325.003906 338.613281 325.976562 338.296875 327.1875 C 337.980469 328.402344 337.640625 329.363281 337.273438 330.074219 C 336.933594 330.703125 336.492188 331.269531 335.949219 331.777344 C 335.40625 332.28125 334.824219 332.535156 334.199219 332.535156 C 333.578125 332.535156 333.117188 332.273438 332.816406 331.75 "/>
<path style=" stroke:none;fill-rule:nonzero;fill:rgb(100%,100%,100%);fill-opacity:1;" d="M 288.351562 373.703125 C 289.160156 373.226562 289.871094 372.597656 290.476562 371.8125 C 291.082031 371.03125 291.554688 370.183594 291.898438 369.269531 C 292.242188 368.359375 292.414062 367.472656 292.414062 366.617188 C 292.414062 365.882812 292.277344 365.191406 292 364.542969 C 291.722656 363.890625 291.304688 363.371094 290.75 362.972656 C 290.195312 362.574219 289.527344 362.375 288.753906 362.375 C 287.703125 362.375 286.660156 362.867188 285.625 363.851562 L 287.65625 356.015625 C 287.65625 355.792969 287.546875 355.679688 287.324219 355.679688 L 283.636719 355.964844 L 283.425781 356.054688 C 283.378906 356.113281 283.339844 356.203125 283.308594 356.3125 C 283.277344 356.425781 283.257812 356.503906 283.246094 356.546875 C 283.246094 356.78125 283.335938 356.898438 283.515625 356.898438 C 284.699219 356.898438 285.292969 357.039062 285.292969 357.328125 C 285.273438 357.5 285.230469 357.734375 285.160156 358.039062 L 282.511719 368.347656 C 282.511719 368.460938 282.46875 368.757812 282.386719 369.238281 C 282.300781 369.71875 282.257812 370.042969 282.257812 370.207031 C 282.257812 371.332031 282.566406 372.316406 283.179688 373.15625 C 283.796875 373.996094 284.65625 374.417969 285.757812 374.417969 C 286.675781 374.417969 287.539062 374.179688 288.351562 373.703125 M 284.429688 372.917969 C 284.132812 372.394531 283.984375 371.800781 283.984375 371.136719 C 284 370.460938 284.15625 369.566406 284.449219 368.453125 L 285.210938 365.445312 C 285.664062 364.800781 286.195312 364.238281 286.792969 363.769531 C 287.398438 363.296875 288.027344 363.0625 288.6875 363.0625 C 289.273438 363.0625 289.703125 363.300781 289.972656 363.78125 C 290.246094 364.261719 290.382812 364.816406 290.382812 365.445312 C 290.382812 366.171875 290.222656 367.140625 289.910156 368.355469 C 289.589844 369.570312 289.25 370.53125 288.886719 371.238281 C 288.546875 371.871094 288.105469 372.4375 287.5625 372.945312 C 287.019531 373.449219 286.4375 373.703125 285.8125 373.703125 C 285.191406 373.703125 284.730469 373.441406 284.429688 372.917969 "/>
<path style=" stroke:none;fill-rule:nonzero;fill:rgb(100%,100%,100%);fill-opacity:1;" d="M 319.703125 370.589844 C 319.835938 370.589844 319.953125 370.53125 320.050781 370.417969 C 320.148438 370.308594 320.199219 370.1875 320.199219 370.054688 C 320.199219 369.910156 320.148438 369.78125 320.050781 369.679688 C 319.953125 369.574219 319.835938 369.523438 319.703125 369.523438 L 302.449219 369.523438 C 302.296875 369.523438 302.171875 369.574219 302.074219 369.679688 C 301.976562 369.78125 301.925781 369.910156 301.925781 370.054688 C 301.925781 370.1875 301.976562 370.308594 302.074219 370.417969 C 302.171875 370.53125 302.296875 370.589844 302.449219 370.589844 Z M 319.703125 365.425781 C 319.835938 365.425781 319.953125 365.371094 320.050781 365.269531 C 320.148438 365.164062 320.199219 365.039062 320.199219 364.890625 C 320.199219 364.761719 320.148438 364.640625 320.050781 364.527344 C 319.953125 364.414062 319.835938 364.359375 319.703125 364.359375 L 302.449219 364.359375 C 302.296875 364.359375 302.171875 364.414062 302.074219 364.527344 C 301.976562 364.640625 301.925781 364.761719 301.925781 364.890625 C 301.925781 365.039062 301.976562 365.164062 302.074219 365.269531 C 302.171875 365.371094 302.296875 365.425781 302.449219 365.425781 Z M 319.703125 365.425781 "/>
<path style=" stroke:none;fill-rule:nonzero;fill:rgb(100%,100%,100%);fill-opacity:1;" d="M 331.609375 373.558594 C 332.695312 374.035156 333.917969 374.273438 335.277344 374.273438 C 336.117188 374.273438 336.902344 374.097656 337.632812 373.746094 C 338.359375 373.398438 338.921875 372.882812 339.316406 372.210938 L 339.316406 372.519531 C 339.316406 373.109375 339.601562 373.523438 340.171875 373.761719 C 340.742188 374 341.382812 374.117188 342.089844 374.117188 L 343.976562 374.117188 C 344.21875 374.066406 344.363281 373.921875 344.417969 373.6875 L 344.417969 373.183594 C 344.363281 372.957031 344.21875 372.820312 343.976562 372.765625 C 342.71875 372.765625 342.089844 372.550781 342.089844 372.121094 L 342.089844 365.957031 C 342.089844 365.238281 341.90625 364.628906 341.539062 364.132812 C 341.175781 363.636719 340.691406 363.230469 340.09375 362.925781 C 339.496094 362.617188 338.855469 362.402344 338.175781 362.269531 C 337.492188 362.140625 336.804688 362.074219 336.109375 362.074219 C 334.726562 362.074219 333.535156 362.230469 332.535156 362.542969 C 331.539062 362.855469 331.039062 363.535156 331.039062 364.582031 C 331.039062 365.054688 331.207031 365.460938 331.546875 365.800781 C 331.882812 366.136719 332.304688 366.304688 332.8125 366.304688 C 333.3125 366.304688 333.730469 366.140625 334.066406 365.8125 C 334.40625 365.484375 334.574219 365.074219 334.574219 364.582031 C 334.574219 364.050781 334.382812 363.625 334 363.296875 C 334.527344 363.191406 335.21875 363.140625 336.074219 363.140625 C 336.941406 363.140625 337.617188 363.410156 338.109375 363.945312 C 338.601562 364.480469 338.847656 365.175781 338.847656 366.035156 L 338.847656 367.019531 C 338.050781 367.019531 337.148438 367.078125 336.144531 367.195312 C 335.136719 367.3125 334.171875 367.515625 333.246094 367.804688 C 332.320312 368.09375 331.546875 368.515625 330.917969 369.0625 C 330.292969 369.613281 329.980469 370.308594 329.980469 371.144531 C 329.980469 372.28125 330.523438 373.082031 331.609375 373.558594 M 334.214844 369.289062 C 334.820312 368.8125 335.546875 368.472656 336.394531 368.265625 C 337.242188 368.058594 338.0625 367.953125 338.847656 367.953125 L 338.847656 370.640625 C 338.847656 371.140625 338.691406 371.589844 338.378906 371.988281 C 338.066406 372.386719 337.664062 372.691406 337.171875 372.898438 C 336.679688 373.105469 336.175781 373.210938 335.660156 373.210938 C 335.042969 373.210938 334.496094 373.011719 334.019531 372.617188 C 333.539062 372.226562 333.300781 371.734375 333.300781 371.144531 C 333.300781 370.382812 333.605469 369.765625 334.214844 369.289062 "/>
<path style=" stroke:none;fill-rule:nonzero;fill:rgb(100%,100%,100%);fill-opacity:1;" d="M 346.101562 363.117188 L 346.261719 363.210938 L 353.277344 363.210938 C 353.367188 363.199219 353.433594 363.144531 353.484375 363.046875 L 353.558594 362.746094 C 353.558594 362.609375 353.484375 362.515625 353.335938 362.46875 C 352.207031 362.46875 351.476562 362.429688 351.152344 362.359375 C 351.015625 362.339844 350.945312 362.257812 350.945312 362.113281 L 350.960938 362.035156 L 350.964844 361.949219 L 353.558594 351.910156 C 353.648438 351.597656 353.746094 351.410156 353.851562 351.347656 C 353.957031 351.289062 354.191406 351.257812 354.546875 351.257812 L 355.875 351.257812 C 356.714844 351.257812 357.328125 351.347656 357.710938 351.523438 C 358.089844 351.695312 358.28125 352.136719 358.28125 352.835938 C 358.28125 353.175781 358.226562 353.753906 358.113281 354.570312 C 358.113281 354.722656 358.1875 354.820312 358.339844 354.863281 L 358.59375 354.863281 C 358.722656 354.824219 358.808594 354.746094 358.847656 354.625 L 359.421875 350.796875 C 359.421875 350.652344 359.34375 350.558594 359.183594 350.515625 L 346.648438 350.515625 C 346.546875 350.53125 346.472656 350.582031 346.421875 350.667969 L 345.03125 354.488281 L 345.011719 354.609375 C 345.011719 354.734375 345.089844 354.820312 345.246094 354.863281 L 345.492188 354.863281 C 345.597656 354.84375 345.675781 354.789062 345.726562 354.699219 C 345.988281 353.964844 346.210938 353.40625 346.394531 353.019531 C 346.574219 352.632812 346.800781 352.308594 347.066406 352.046875 C 347.332031 351.789062 347.683594 351.59375 348.121094 351.457031 C 348.554688 351.324219 349.128906 351.257812 349.84375 351.257812 L 351.171875 351.257812 C 351.597656 351.257812 351.8125 351.289062 351.8125 351.347656 C 351.792969 351.488281 351.761719 351.628906 351.71875 351.777344 L 349.113281 361.8125 C 349.042969 362.105469 348.882812 362.285156 348.632812 362.359375 C 348.273438 362.429688 347.503906 362.46875 346.316406 362.46875 L 346.109375 362.613281 L 346.035156 362.910156 Z M 346.101562 363.117188 "/>
<path style=" stroke:none;fill-rule:nonzero;fill:rgb(100%,100%,100%);fill-opacity:1;" d="M 367.460938 374.117188 L 367.460938 372.769531 C 367.292969 372.769531 367.074219 372.746094 366.8125 372.703125 C 366.550781 372.660156 366.417969 372.609375 366.417969 372.546875 L 369.164062 369.523438 L 371.988281 372.769531 L 370.972656 372.769531 L 370.972656 374.117188 L 377.441406 374.117188 L 377.441406 372.769531 L 375.390625 372.769531 L 370.945312 367.578125 L 374.292969 363.917969 C 374.453125 363.753906 375.308594 363.671875 376.863281 363.671875 L 376.863281 362.324219 L 371.386719 362.324219 L 371.386719 363.671875 C 371.546875 363.671875 371.757812 363.6875 372.023438 363.722656 C 372.285156 363.757812 372.417969 363.8125 372.417969 363.890625 L 370.035156 366.511719 L 367.570312 363.671875 L 368.558594 363.671875 L 368.558594 362.324219 L 362.105469 362.324219 L 362.105469 363.671875 L 364.140625 363.671875 L 368.253906 368.460938 L 364.554688 372.519531 C 364.386719 372.683594 363.523438 372.769531 361.972656 372.769531 L 361.972656 374.117188 Z M 367.460938 374.117188 "/>
<path style=" stroke:none;fill-rule:nonzero;fill:rgb(100%,100%,100%);fill-opacity:1;" d="M 386.039062 377.257812 C 386.707031 376.648438 387.160156 375.878906 387.410156 374.949219 C 387.65625 374.023438 387.78125 373.003906 387.78125 371.894531 C 387.78125 370.082031 387.457031 368.554688 386.8125 367.316406 C 386.164062 366.078125 384.988281 365.460938 383.289062 365.460938 C 381.59375 365.460938 380.417969 366.078125 379.765625 367.316406 C 379.109375 368.554688 378.785156 370.082031 378.785156 371.894531 C 378.785156 373.003906 378.90625 374.023438 379.15625 374.949219 C 379.402344 375.878906 379.863281 376.648438 380.53125 377.257812 C 381.199219 377.871094 382.121094 378.175781 383.289062 378.175781 C 384.457031 378.175781 385.375 377.871094 386.039062 377.257812 M 381.800781 376.964844 C 381.421875 376.554688 381.152344 376.042969 380.988281 375.425781 C 380.824219 374.808594 380.722656 374.199219 380.683594 373.59375 C 380.640625 372.988281 380.621094 372.316406 380.621094 371.578125 C 380.621094 370.859375 380.640625 370.21875 380.683594 369.660156 C 380.722656 369.097656 380.824219 368.542969 380.984375 367.988281 C 381.144531 367.433594 381.410156 366.976562 381.785156 366.609375 C 382.160156 366.242188 382.660156 366.058594 383.289062 366.058594 C 384.097656 366.058594 384.699219 366.355469 385.085938 366.949219 C 385.476562 367.542969 385.71875 368.21875 385.808594 368.972656 C 385.898438 369.730469 385.945312 370.597656 385.945312 371.578125 C 385.945312 372.601562 385.898438 373.523438 385.808594 374.351562 C 385.71875 375.175781 385.476562 375.921875 385.082031 376.582031 C 384.691406 377.246094 384.09375 377.578125 383.289062 377.578125 C 382.671875 377.578125 382.175781 377.371094 381.800781 376.964844 "/>
</g>
</svg>
