<?xml version="1.0" encoding="UTF-8"?>
<svg xmlns="http://www.w3.org/2000/svg" xmlns:xlink="http://www.w3.org/1999/xlink" width="491.141pt" height="449.5798pt" viewBox="0 0 491.141 449.5798" version="1.1">
<defs>
<clipPath id="clip1">
  <path d="M 142 444 L 147 444 L 147 449.578125 L 142 449.578125 Z M 142 444 "/>
</clipPath>
<clipPath id="clip2">
  <path d="M 410 354 L 491.140625 354 L 491.140625 381 L 410 381 Z M 410 354 "/>
</clipPath>
</defs>
<g id="surface1">
<path style=" stroke:none;fill-rule:nonzero;fill:rgb(100%,100%,0%);fill-opacity:1;" d="M 330.597656 169.472656 L 392.058594 143.863281 L 392.957031 146.011719 L 331.492188 171.621094 "/>
<path style=" stroke:none;fill-rule:evenodd;fill:rgb(100%,100%,0%);fill-opacity:1;" d="M 414.546875 135.78125 L 388.316406 137.796875 L 394.679688 153.007812 Z M 414.546875 135.78125 "/>
<path style=" stroke:none;fill-rule:nonzero;fill:rgb(100%,100%,100%);fill-opacity:1;" d="M 40.65625 280.585938 L 39.535156 280.265625 L 74.769531 157.03125 C 74.859375 156.707031 75.089844 156.4375 75.394531 156.296875 L 198.476562 99.179688 C 198.808594 99.027344 199.1875 99.039062 199.511719 99.210938 L 331.59375 169.519531 C 332.042969 169.757812 332.285156 170.257812 332.191406 170.757812 L 305.804688 311.53125 C 305.730469 311.929688 305.457031 312.257812 305.082031 312.402344 L 168.65625 365.171875 C 168.304688 365.308594 167.910156 365.265625 167.597656 365.0625 L 40.015625 281.5625 C 39.589844 281.28125 39.394531 280.757812 39.535156 280.265625 L 40.65625 280.585938 L 41.292969 279.613281 L 168.371094 362.785156 L 303.636719 310.464844 L 329.742188 171.171875 L 198.929688 101.535156 L 76.859375 158.183594 L 41.773438 280.90625 L 40.65625 280.585938 L 41.292969 279.613281 Z M 40.65625 280.585938 "/>
<path style=" stroke:none;fill-rule:nonzero;fill:rgb(100%,100%,100%);fill-opacity:1;" d="M 261.660156 0 L 263.367188 4.191406 L 261.210938 5.070312 L 259.503906 0.878906 "/>
<path style=" stroke:none;fill-rule:nonzero;fill:rgb(100%,100%,100%);fill-opacity:1;" d="M 265.230469 8.535156 L 266.9375 12.726562 L 264.78125 13.605469 L 263.074219 9.414062 "/>
<path style=" stroke:none;fill-rule:nonzero;fill:rgb(100%,100%,100%);fill-opacity:1;" d="M 268.800781 16.917969 L 270.507812 21.109375 L 268.351562 21.988281 L 266.644531 17.796875 "/>
<path style=" stroke:none;fill-rule:nonzero;fill:rgb(100%,100%,100%);fill-opacity:1;" d="M 272.371094 25.453125 L 274.078125 29.644531 L 271.921875 30.523438 L 270.214844 26.332031 "/>
<path style=" stroke:none;fill-rule:nonzero;fill:rgb(100%,100%,100%);fill-opacity:1;" d="M 275.945312 33.847656 L 277.652344 38.195312 L 275.484375 39.046875 L 273.777344 34.699219 "/>
<path style=" stroke:none;fill-rule:nonzero;fill:rgb(100%,100%,100%);fill-opacity:1;" d="M 279.507812 42.371094 L 281.214844 46.5625 L 279.058594 47.441406 L 277.351562 43.25 "/>
<path style=" stroke:none;fill-rule:nonzero;fill:rgb(100%,100%,100%);fill-opacity:1;" d="M 283.082031 50.765625 L 284.792969 55.113281 L 282.625 55.960938 L 280.917969 51.617188 "/>
<path style=" stroke:none;fill-rule:nonzero;fill:rgb(100%,100%,100%);fill-opacity:1;" d="M 286.480469 59.253906 L 288.339844 63.445312 L 286.214844 64.390625 L 284.351562 60.199219 "/>
<path style=" stroke:none;fill-rule:nonzero;fill:rgb(100%,100%,100%);fill-opacity:1;" d="M 290.046875 67.792969 L 291.910156 71.984375 L 289.785156 72.929688 L 287.921875 68.738281 "/>
<path style=" stroke:none;fill-rule:nonzero;fill:rgb(100%,100%,100%);fill-opacity:1;" d="M 293.617188 76.171875 L 295.480469 80.363281 L 293.351562 81.308594 L 291.492188 77.117188 "/>
<path style=" stroke:none;fill-rule:nonzero;fill:rgb(100%,100%,100%);fill-opacity:1;" d="M 297.203125 84.742188 L 298.910156 88.933594 L 296.753906 89.8125 L 295.046875 85.621094 "/>
<path style=" stroke:none;fill-rule:nonzero;fill:rgb(100%,100%,100%);fill-opacity:1;" d="M 300.777344 93.136719 L 302.484375 97.484375 L 300.316406 98.335938 L 298.609375 93.988281 "/>
<path style=" stroke:none;fill-rule:nonzero;fill:rgb(100%,100%,100%);fill-opacity:1;" d="M 304.34375 101.660156 L 306.050781 105.851562 L 303.894531 106.730469 L 302.1875 102.539062 "/>
<path style=" stroke:none;fill-rule:nonzero;fill:rgb(100%,100%,100%);fill-opacity:1;" d="M 307.917969 110.054688 L 309.625 114.402344 L 307.457031 115.25 L 305.75 110.90625 "/>
<path style=" stroke:none;fill-rule:nonzero;fill:rgb(100%,100%,100%);fill-opacity:1;" d="M 311.480469 118.578125 L 313.1875 122.769531 L 311.03125 123.648438 L 309.324219 119.457031 "/>
<path style=" stroke:none;fill-rule:nonzero;fill:rgb(100%,100%,100%);fill-opacity:1;" d="M 315.050781 127.113281 L 316.757812 131.304688 L 314.601562 132.183594 L 312.894531 127.992188 "/>
<path style=" stroke:none;fill-rule:nonzero;fill:rgb(100%,100%,100%);fill-opacity:1;" d="M 318.453125 135.460938 L 320.3125 139.652344 L 318.1875 140.597656 L 316.324219 136.40625 "/>
<path style=" stroke:none;fill-rule:nonzero;fill:rgb(100%,100%,100%);fill-opacity:1;" d="M 322.019531 144 L 323.882812 148.1875 L 321.753906 149.132812 L 319.894531 144.945312 "/>
<path style=" stroke:none;fill-rule:nonzero;fill:rgb(100%,100%,100%);fill-opacity:1;" d="M 325.597656 152.394531 L 327.460938 156.738281 L 325.320312 157.65625 L 323.457031 153.3125 "/>
<path style=" stroke:none;fill-rule:nonzero;fill:rgb(100%,100%,100%);fill-opacity:1;" d="M 329.160156 160.914062 L 331.023438 165.105469 L 328.894531 166.050781 L 327.03125 161.859375 "/>
<path style=" stroke:none;fill-rule:nonzero;fill:rgb(100%,100%,100%);fill-opacity:1;" d="M 332.738281 169.3125 L 334.597656 173.65625 L 332.457031 174.574219 L 330.597656 170.226562 "/>
<path style=" stroke:none;fill-rule:nonzero;fill:rgb(100%,100%,100%);fill-opacity:1;" d="M 336.3125 177.867188 L 338.023438 182.058594 L 335.867188 182.9375 L 334.160156 178.746094 "/>
<path style=" stroke:none;fill-rule:nonzero;fill:rgb(100%,100%,100%);fill-opacity:1;" d="M 339.882812 186.402344 L 341.589844 190.59375 L 339.433594 191.472656 L 337.726562 187.28125 "/>
<path style=" stroke:none;fill-rule:nonzero;fill:rgb(100%,100%,100%);fill-opacity:1;" d="M 343.453125 194.785156 L 345.160156 198.976562 L 343.003906 199.851562 L 341.296875 195.664062 "/>
<path style=" stroke:none;fill-rule:nonzero;fill:rgb(100%,100%,100%);fill-opacity:1;" d="M 346.855469 203.285156 L 348.714844 207.476562 L 346.589844 208.421875 L 344.726562 204.230469 "/>
<path style=" stroke:none;fill-rule:nonzero;fill:rgb(100%,100%,100%);fill-opacity:1;" d="M 350.429688 211.683594 L 352.292969 216.027344 L 350.152344 216.945312 L 348.289062 212.601562 "/>
<path style=" stroke:none;fill-rule:nonzero;fill:rgb(100%,100%,100%);fill-opacity:1;" d="M 353.992188 220.203125 L 355.855469 224.394531 L 353.726562 225.339844 L 351.867188 221.148438 "/>
<path style=" stroke:none;fill-rule:nonzero;fill:rgb(100%,100%,100%);fill-opacity:1;" d="M 357.5625 228.742188 L 359.425781 232.929688 L 357.296875 233.875 L 355.433594 229.6875 "/>
<path style=" stroke:none;fill-rule:nonzero;fill:rgb(100%,100%,100%);fill-opacity:1;" d="M 361.132812 237.121094 L 362.996094 241.3125 L 360.867188 242.257812 L 359.003906 238.066406 "/>
<path style=" stroke:none;fill-rule:nonzero;fill:rgb(100%,100%,100%);fill-opacity:1;" d="M 364.703125 245.660156 L 366.566406 249.847656 L 364.4375 250.792969 L 362.574219 246.601562 "/>
<path style=" stroke:none;fill-rule:nonzero;fill:rgb(100%,100%,100%);fill-opacity:1;" d="M 368.292969 254.085938 L 370 258.433594 L 367.832031 259.28125 L 366.125 254.9375 "/>
<path style=" stroke:none;fill-rule:nonzero;fill:rgb(100%,100%,100%);fill-opacity:1;" d="M 371.855469 262.609375 L 373.5625 266.800781 L 371.40625 267.679688 L 369.699219 263.488281 "/>
<path style=" stroke:none;fill-rule:nonzero;fill:rgb(100%,100%,100%);fill-opacity:1;" d="M 375.425781 271.144531 L 377.132812 275.335938 L 374.976562 276.214844 L 373.269531 272.023438 "/>
<path style=" stroke:none;fill-rule:nonzero;fill:rgb(100%,100%,100%);fill-opacity:1;" d="M 378.996094 279.527344 L 380.703125 283.71875 L 378.546875 284.597656 L 376.839844 280.40625 "/>
<path style=" stroke:none;fill-rule:nonzero;fill:rgb(100%,100%,100%);fill-opacity:1;" d="M 382.566406 288.0625 L 384.273438 292.253906 L 382.117188 293.132812 L 380.410156 288.941406 "/>
<path style=" stroke:none;fill-rule:nonzero;fill:rgb(100%,100%,100%);fill-opacity:1;" d="M 385.972656 296.425781 L 387.835938 300.769531 L 385.695312 301.6875 L 383.832031 297.34375 "/>
<path style=" stroke:none;fill-rule:nonzero;fill:rgb(100%,100%,100%);fill-opacity:1;" d="M 389.535156 304.945312 L 391.398438 309.136719 L 389.269531 310.082031 L 387.40625 305.890625 "/>
<path style=" stroke:none;fill-rule:nonzero;fill:rgb(100%,100%,100%);fill-opacity:1;" d="M 393.113281 313.34375 L 394.972656 317.6875 L 392.832031 318.605469 L 390.972656 314.257812 "/>
<path style=" stroke:none;fill-rule:nonzero;fill:rgb(100%,100%,100%);fill-opacity:1;" d="M 396.675781 321.863281 L 398.539062 326.054688 L 396.410156 327 L 394.546875 322.808594 "/>
<path style=" stroke:none;fill-rule:nonzero;fill:rgb(100%,100%,100%);fill-opacity:1;" d="M 400.257812 330.433594 L 401.964844 334.625 L 399.8125 335.503906 L 398.101562 331.3125 "/>
<path style=" stroke:none;fill-rule:nonzero;fill:rgb(100%,100%,100%);fill-opacity:1;" d="M 403.835938 338.828125 L 405.542969 343.175781 L 403.375 344.023438 L 401.667969 339.679688 "/>
<path style=" stroke:none;fill-rule:nonzero;fill:rgb(100%,100%,100%);fill-opacity:1;" d="M 195.699219 26.386719 L 197.40625 30.574219 L 195.25 31.453125 L 193.542969 27.265625 "/>
<path style=" stroke:none;fill-rule:nonzero;fill:rgb(100%,100%,100%);fill-opacity:1;" d="M 199.265625 34.921875 L 200.972656 39.113281 L 198.820312 39.992188 L 197.113281 35.800781 "/>
<path style=" stroke:none;fill-rule:nonzero;fill:rgb(100%,100%,100%);fill-opacity:1;" d="M 202.835938 43.304688 L 204.542969 47.492188 L 202.386719 48.371094 L 200.679688 44.179688 "/>
<path style=" stroke:none;fill-rule:nonzero;fill:rgb(100%,100%,100%);fill-opacity:1;" d="M 206.40625 51.839844 L 208.113281 56.03125 L 205.957031 56.910156 L 204.25 52.71875 "/>
<path style=" stroke:none;fill-rule:nonzero;fill:rgb(100%,100%,100%);fill-opacity:1;" d="M 209.8125 60.203125 L 211.675781 64.546875 L 209.535156 65.464844 L 207.671875 61.117188 "/>
<path style=" stroke:none;fill-rule:nonzero;fill:rgb(100%,100%,100%);fill-opacity:1;" d="M 213.375 68.722656 L 215.238281 72.914062 L 213.113281 73.859375 L 211.25 69.667969 "/>
<path style=" stroke:none;fill-rule:nonzero;fill:rgb(100%,100%,100%);fill-opacity:1;" d="M 216.953125 77.117188 L 218.816406 81.464844 L 216.675781 82.382812 L 214.8125 78.035156 "/>
<path style=" stroke:none;fill-rule:nonzero;fill:rgb(100%,100%,100%);fill-opacity:1;" d="M 220.515625 85.640625 L 222.378906 89.832031 L 220.25 90.777344 L 218.386719 86.585938 "/>
<path style=" stroke:none;fill-rule:nonzero;fill:rgb(100%,100%,100%);fill-opacity:1;" d="M 224.085938 94.175781 L 225.949219 98.367188 L 223.820312 99.3125 L 221.957031 95.121094 "/>
<path style=" stroke:none;fill-rule:nonzero;fill:rgb(100%,100%,100%);fill-opacity:1;" d="M 227.671875 102.589844 L 229.378906 106.78125 L 227.222656 107.660156 L 225.515625 103.46875 "/>
<path style=" stroke:none;fill-rule:nonzero;fill:rgb(100%,100%,100%);fill-opacity:1;" d="M 231.238281 111.128906 L 232.945312 115.320312 L 230.792969 116.195312 L 229.082031 112.007812 "/>
<path style=" stroke:none;fill-rule:nonzero;fill:rgb(100%,100%,100%);fill-opacity:1;" d="M 234.816406 119.523438 L 236.523438 123.867188 L 234.355469 124.71875 L 232.648438 120.375 "/>
<path style=" stroke:none;fill-rule:nonzero;fill:rgb(100%,100%,100%);fill-opacity:1;" d="M 238.378906 128.046875 L 240.085938 132.234375 L 237.929688 133.113281 L 236.222656 128.925781 "/>
<path style=" stroke:none;fill-rule:nonzero;fill:rgb(100%,100%,100%);fill-opacity:1;" d="M 241.953125 136.441406 L 243.660156 140.785156 L 241.496094 141.636719 L 239.789062 137.289062 "/>
<path style=" stroke:none;fill-rule:nonzero;fill:rgb(100%,100%,100%);fill-opacity:1;" d="M 245.519531 144.964844 L 247.226562 149.152344 L 245.070312 150.03125 L 243.363281 145.839844 "/>
<path style=" stroke:none;fill-rule:nonzero;fill:rgb(100%,100%,100%);fill-opacity:1;" d="M 248.917969 153.464844 L 250.78125 157.65625 L 248.652344 158.601562 L 246.792969 154.410156 "/>
<path style=" stroke:none;fill-rule:nonzero;fill:rgb(100%,100%,100%);fill-opacity:1;" d="M 252.488281 161.847656 L 254.351562 166.039062 L 252.222656 166.984375 L 250.359375 162.792969 "/>
<path style=" stroke:none;fill-rule:nonzero;fill:rgb(100%,100%,100%);fill-opacity:1;" d="M 256.074219 170.417969 L 257.78125 174.605469 L 255.625 175.484375 L 253.917969 171.296875 "/>
<path style=" stroke:none;fill-rule:nonzero;fill:rgb(100%,100%,100%);fill-opacity:1;" d="M 259.648438 178.8125 L 261.355469 183.15625 L 259.1875 184.007812 L 257.480469 179.660156 "/>
<path style=" stroke:none;fill-rule:nonzero;fill:rgb(100%,100%,100%);fill-opacity:1;" d="M 263.210938 187.335938 L 264.917969 191.523438 L 262.761719 192.402344 L 261.054688 188.210938 "/>
<path style=" stroke:none;fill-rule:nonzero;fill:rgb(100%,100%,100%);fill-opacity:1;" d="M 266.78125 195.871094 L 268.488281 200.0625 L 266.332031 200.941406 L 264.625 196.75 "/>
<path style=" stroke:none;fill-rule:nonzero;fill:rgb(100%,100%,100%);fill-opacity:1;" d="M 270.351562 204.25 L 272.058594 208.441406 L 269.902344 209.320312 L 268.195312 205.128906 "/>
<path style=" stroke:none;fill-rule:nonzero;fill:rgb(100%,100%,100%);fill-opacity:1;" d="M 273.921875 212.789062 L 275.628906 216.980469 L 273.472656 217.855469 L 271.765625 213.667969 "/>
<path style=" stroke:none;fill-rule:nonzero;fill:rgb(100%,100%,100%);fill-opacity:1;" d="M 277.496094 221.183594 L 279.203125 225.527344 L 277.039062 226.378906 L 275.328125 222.035156 "/>
<path style=" stroke:none;fill-rule:nonzero;fill:rgb(100%,100%,100%);fill-opacity:1;" d="M 280.890625 229.671875 L 282.753906 233.863281 L 280.625 234.808594 L 278.761719 230.617188 "/>
<path style=" stroke:none;fill-rule:nonzero;fill:rgb(100%,100%,100%);fill-opacity:1;" d="M 284.46875 238.066406 L 286.328125 242.414062 L 284.191406 243.332031 L 282.328125 238.984375 "/>
<path style=" stroke:none;fill-rule:nonzero;fill:rgb(100%,100%,100%);fill-opacity:1;" d="M 288.03125 246.589844 L 289.894531 250.78125 L 287.765625 251.726562 L 285.902344 247.535156 "/>
<path style=" stroke:none;fill-rule:nonzero;fill:rgb(100%,100%,100%);fill-opacity:1;" d="M 291.613281 255.160156 L 293.320312 259.351562 L 291.167969 260.230469 L 289.460938 256.039062 "/>
<path style=" stroke:none;fill-rule:nonzero;fill:rgb(100%,100%,100%);fill-opacity:1;" d="M 295.191406 263.554688 L 296.898438 267.898438 L 294.730469 268.75 L 293.023438 264.40625 "/>
<path style=" stroke:none;fill-rule:nonzero;fill:rgb(100%,100%,100%);fill-opacity:1;" d="M 298.753906 272.078125 L 300.460938 276.265625 L 298.304688 277.144531 L 296.597656 272.957031 "/>
<path style=" stroke:none;fill-rule:nonzero;fill:rgb(100%,100%,100%);fill-opacity:1;" d="M 302.328125 280.472656 L 304.035156 284.816406 L 301.871094 285.667969 L 300.164062 281.320312 "/>
<path style=" stroke:none;fill-rule:nonzero;fill:rgb(100%,100%,100%);fill-opacity:1;" d="M 305.894531 288.996094 L 307.601562 293.183594 L 305.445312 294.0625 L 303.738281 289.871094 "/>
<path style=" stroke:none;fill-rule:nonzero;fill:rgb(100%,100%,100%);fill-opacity:1;" d="M 309.464844 297.53125 L 311.171875 301.722656 L 309.015625 302.597656 L 307.308594 298.410156 "/>
<path style=" stroke:none;fill-rule:nonzero;fill:rgb(100%,100%,100%);fill-opacity:1;" d="M 312.871094 305.890625 L 314.734375 310.238281 L 312.59375 311.15625 L 310.730469 306.808594 "/>
<path style=" stroke:none;fill-rule:nonzero;fill:rgb(100%,100%,100%);fill-opacity:1;" d="M 316.433594 314.414062 L 318.296875 318.605469 L 316.167969 319.550781 L 314.304688 315.359375 "/>
<path style=" stroke:none;fill-rule:nonzero;fill:rgb(100%,100%,100%);fill-opacity:1;" d="M 320.007812 322.808594 L 321.871094 327.15625 L 319.730469 328.074219 L 317.871094 323.726562 "/>
<path style=" stroke:none;fill-rule:nonzero;fill:rgb(100%,100%,100%);fill-opacity:1;" d="M 323.574219 331.332031 L 325.4375 335.523438 L 323.308594 336.46875 L 321.445312 332.277344 "/>
<path style=" stroke:none;fill-rule:nonzero;fill:rgb(100%,100%,100%);fill-opacity:1;" d="M 327.144531 339.867188 L 329.003906 344.058594 L 326.878906 345.003906 L 325.015625 340.8125 "/>
<path style=" stroke:none;fill-rule:nonzero;fill:rgb(100%,100%,100%);fill-opacity:1;" d="M 330.726562 348.28125 L 332.433594 352.472656 L 330.277344 353.351562 L 328.570312 349.160156 "/>
<path style=" stroke:none;fill-rule:nonzero;fill:rgb(100%,100%,100%);fill-opacity:1;" d="M 334.296875 356.820312 L 336.003906 361.011719 L 333.847656 361.886719 L 332.140625 357.699219 "/>
<path style=" stroke:none;fill-rule:nonzero;fill:rgb(100%,100%,100%);fill-opacity:1;" d="M 337.871094 365.214844 L 339.578125 369.558594 L 337.414062 370.410156 L 335.707031 366.066406 "/>
<path style=" stroke:none;fill-rule:nonzero;fill:rgb(100%,100%,100%);fill-opacity:1;" d="M 129.734375 52.769531 L 131.441406 56.960938 L 129.285156 57.839844 L 127.578125 53.648438 "/>
<path style=" stroke:none;fill-rule:nonzero;fill:rgb(100%,100%,100%);fill-opacity:1;" d="M 133.304688 61.308594 L 135.011719 65.496094 L 132.855469 66.375 L 131.148438 62.183594 "/>
<path style=" stroke:none;fill-rule:nonzero;fill:rgb(100%,100%,100%);fill-opacity:1;" d="M 136.875 69.6875 L 138.582031 73.878906 L 136.425781 74.757812 L 134.71875 70.566406 "/>
<path style=" stroke:none;fill-rule:nonzero;fill:rgb(100%,100%,100%);fill-opacity:1;" d="M 140.273438 78.191406 L 142.136719 82.382812 L 140.007812 83.328125 L 138.148438 79.136719 "/>
<path style=" stroke:none;fill-rule:nonzero;fill:rgb(100%,100%,100%);fill-opacity:1;" d="M 143.851562 86.585938 L 145.714844 90.933594 L 143.574219 91.847656 L 141.710938 87.503906 "/>
<path style=" stroke:none;fill-rule:nonzero;fill:rgb(100%,100%,100%);fill-opacity:1;" d="M 147.414062 95.109375 L 149.277344 99.300781 L 147.148438 100.242188 L 145.285156 96.054688 "/>
<path style=" stroke:none;fill-rule:nonzero;fill:rgb(100%,100%,100%);fill-opacity:1;" d="M 150.988281 103.503906 L 152.851562 107.847656 L 150.710938 108.765625 L 148.851562 104.421875 "/>
<path style=" stroke:none;fill-rule:nonzero;fill:rgb(100%,100%,100%);fill-opacity:1;" d="M 154.554688 112.027344 L 156.417969 116.214844 L 154.289062 117.160156 L 152.425781 112.972656 "/>
<path style=" stroke:none;fill-rule:nonzero;fill:rgb(100%,100%,100%);fill-opacity:1;" d="M 158.136719 120.59375 L 159.84375 124.785156 L 157.6875 125.664062 L 155.980469 121.472656 "/>
<path style=" stroke:none;fill-rule:nonzero;fill:rgb(100%,100%,100%);fill-opacity:1;" d="M 161.707031 128.976562 L 163.414062 133.167969 L 161.257812 134.046875 L 159.550781 129.855469 "/>
<path style=" stroke:none;fill-rule:nonzero;fill:rgb(100%,100%,100%);fill-opacity:1;" d="M 165.277344 137.511719 L 166.984375 141.703125 L 164.828125 142.582031 L 163.121094 138.390625 "/>
<path style=" stroke:none;fill-rule:nonzero;fill:rgb(100%,100%,100%);fill-opacity:1;" d="M 168.683594 145.875 L 170.546875 150.21875 L 168.40625 151.136719 L 166.542969 146.792969 "/>
<path style=" stroke:none;fill-rule:nonzero;fill:rgb(100%,100%,100%);fill-opacity:1;" d="M 172.246094 154.398438 L 174.109375 158.585938 L 171.980469 159.53125 L 170.121094 155.34375 "/>
<path style=" stroke:none;fill-rule:nonzero;fill:rgb(100%,100%,100%);fill-opacity:1;" d="M 175.824219 162.792969 L 177.6875 167.136719 L 175.546875 168.054688 L 173.683594 163.710938 "/>
<path style=" stroke:none;fill-rule:nonzero;fill:rgb(100%,100%,100%);fill-opacity:1;" d="M 179.386719 171.316406 L 181.25 175.503906 L 179.121094 176.449219 L 177.257812 172.257812 "/>
<path style=" stroke:none;fill-rule:nonzero;fill:rgb(100%,100%,100%);fill-opacity:1;" d="M 182.957031 179.851562 L 184.820312 184.042969 L 182.691406 184.988281 L 180.828125 180.796875 "/>
<path style=" stroke:none;fill-rule:nonzero;fill:rgb(100%,100%,100%);fill-opacity:1;" d="M 186.53125 188.246094 L 188.394531 192.59375 L 186.253906 193.507812 L 184.390625 189.164062 "/>
<path style=" stroke:none;fill-rule:nonzero;fill:rgb(100%,100%,100%);fill-opacity:1;" d="M 190.109375 196.800781 L 191.816406 200.992188 L 189.660156 201.871094 L 187.953125 197.679688 "/>
<path style=" stroke:none;fill-rule:nonzero;fill:rgb(100%,100%,100%);fill-opacity:1;" d="M 193.683594 205.195312 L 195.394531 209.542969 L 193.226562 210.394531 L 191.519531 206.046875 "/>
<path style=" stroke:none;fill-rule:nonzero;fill:rgb(100%,100%,100%);fill-opacity:1;" d="M 197.25 213.71875 L 198.957031 217.910156 L 196.800781 218.789062 L 195.09375 214.597656 "/>
<path style=" stroke:none;fill-rule:nonzero;fill:rgb(100%,100%,100%);fill-opacity:1;" d="M 200.820312 222.253906 L 202.527344 226.445312 L 200.371094 227.324219 L 198.664062 223.132812 "/>
<path style=" stroke:none;fill-rule:nonzero;fill:rgb(100%,100%,100%);fill-opacity:1;" d="M 204.226562 230.617188 L 206.089844 234.964844 L 203.949219 235.878906 L 202.085938 231.535156 "/>
<path style=" stroke:none;fill-rule:nonzero;fill:rgb(100%,100%,100%);fill-opacity:1;" d="M 207.789062 239.140625 L 209.652344 243.332031 L 207.523438 244.273438 L 205.660156 240.085938 "/>
<path style=" stroke:none;fill-rule:nonzero;fill:rgb(100%,100%,100%);fill-opacity:1;" d="M 211.367188 247.535156 L 213.226562 251.878906 L 211.085938 252.796875 L 209.226562 248.453125 "/>
<path style=" stroke:none;fill-rule:nonzero;fill:rgb(100%,100%,100%);fill-opacity:1;" d="M 214.929688 256.058594 L 216.792969 260.246094 L 214.664062 261.191406 L 212.800781 257.003906 "/>
<path style=" stroke:none;fill-rule:nonzero;fill:rgb(100%,100%,100%);fill-opacity:1;" d="M 218.5 264.59375 L 220.359375 268.785156 L 218.234375 269.730469 L 216.371094 265.539062 "/>
<path style=" stroke:none;fill-rule:nonzero;fill:rgb(100%,100%,100%);fill-opacity:1;" d="M 222.082031 273.007812 L 223.789062 277.199219 L 221.632812 278.078125 L 219.925781 273.886719 "/>
<path style=" stroke:none;fill-rule:nonzero;fill:rgb(100%,100%,100%);fill-opacity:1;" d="M 225.652344 281.542969 L 227.359375 285.734375 L 225.203125 286.613281 L 223.496094 282.421875 "/>
<path style=" stroke:none;fill-rule:nonzero;fill:rgb(100%,100%,100%);fill-opacity:1;" d="M 229.226562 289.9375 L 230.933594 294.285156 L 228.769531 295.136719 L 227.0625 290.789062 "/>
<path style=" stroke:none;fill-rule:nonzero;fill:rgb(100%,100%,100%);fill-opacity:1;" d="M 232.792969 298.460938 L 234.5 302.652344 L 232.34375 303.53125 L 230.636719 299.339844 "/>
<path style=" stroke:none;fill-rule:nonzero;fill:rgb(100%,100%,100%);fill-opacity:1;" d="M 236.363281 307 L 238.070312 311.1875 L 235.914062 312.066406 L 234.207031 307.875 "/>
<path style=" stroke:none;fill-rule:nonzero;fill:rgb(100%,100%,100%);fill-opacity:1;" d="M 239.929688 315.378906 L 241.636719 319.570312 L 239.484375 320.449219 L 237.777344 316.257812 "/>
<path style=" stroke:none;fill-rule:nonzero;fill:rgb(100%,100%,100%);fill-opacity:1;" d="M 243.332031 323.882812 L 245.195312 328.074219 L 243.066406 329.019531 L 241.203125 324.828125 "/>
<path style=" stroke:none;fill-rule:nonzero;fill:rgb(100%,100%,100%);fill-opacity:1;" d="M 246.90625 332.277344 L 248.769531 336.625 L 246.628906 337.539062 L 244.765625 333.195312 "/>
<path style=" stroke:none;fill-rule:nonzero;fill:rgb(100%,100%,100%);fill-opacity:1;" d="M 250.484375 340.832031 L 252.191406 345.023438 L 250.035156 345.902344 L 248.328125 341.710938 "/>
<path style=" stroke:none;fill-rule:nonzero;fill:rgb(100%,100%,100%);fill-opacity:1;" d="M 254.054688 349.371094 L 255.761719 353.558594 L 253.605469 354.4375 L 251.898438 350.246094 "/>
<path style=" stroke:none;fill-rule:nonzero;fill:rgb(100%,100%,100%);fill-opacity:1;" d="M 257.625 357.75 L 259.332031 361.941406 L 257.175781 362.820312 L 255.46875 358.628906 "/>
<path style=" stroke:none;fill-rule:nonzero;fill:rgb(100%,100%,100%);fill-opacity:1;" d="M 261.195312 366.285156 L 262.902344 370.476562 L 260.746094 371.355469 L 259.039062 367.164062 "/>
<path style=" stroke:none;fill-rule:nonzero;fill:rgb(100%,100%,100%);fill-opacity:1;" d="M 264.769531 374.683594 L 266.476562 379.027344 L 264.308594 379.878906 L 262.601562 375.53125 "/>
<path style=" stroke:none;fill-rule:nonzero;fill:rgb(100%,100%,100%);fill-opacity:1;" d="M 268.335938 383.203125 L 270.042969 387.394531 L 267.886719 388.273438 L 266.179688 384.082031 "/>
<path style=" stroke:none;fill-rule:nonzero;fill:rgb(100%,100%,100%);fill-opacity:1;" d="M 271.910156 391.597656 L 273.617188 395.945312 L 271.449219 396.796875 L 269.742188 392.449219 "/>
<path style=" stroke:none;fill-rule:nonzero;fill:rgb(100%,100%,100%);fill-opacity:1;" d="M 68.117188 79.15625 L 69.824219 83.347656 L 67.667969 84.222656 L 65.960938 80.035156 "/>
<path style=" stroke:none;fill-rule:nonzero;fill:rgb(100%,100%,100%);fill-opacity:1;" d="M 71.6875 87.691406 L 73.394531 91.882812 L 71.238281 92.761719 L 69.53125 88.570312 "/>
<path style=" stroke:none;fill-rule:nonzero;fill:rgb(100%,100%,100%);fill-opacity:1;" d="M 75.257812 96.074219 L 76.964844 100.265625 L 74.808594 101.140625 L 73.101562 96.953125 "/>
<path style=" stroke:none;fill-rule:nonzero;fill:rgb(100%,100%,100%);fill-opacity:1;" d="M 78.65625 104.574219 L 80.519531 108.765625 L 78.390625 109.710938 L 76.53125 105.519531 "/>
<path style=" stroke:none;fill-rule:nonzero;fill:rgb(100%,100%,100%);fill-opacity:1;" d="M 82.234375 112.972656 L 84.097656 117.316406 L 81.957031 118.234375 L 80.09375 113.886719 "/>
<path style=" stroke:none;fill-rule:nonzero;fill:rgb(100%,100%,100%);fill-opacity:1;" d="M 85.796875 121.492188 L 87.660156 125.683594 L 85.53125 126.628906 L 83.667969 122.4375 "/>
<path style=" stroke:none;fill-rule:nonzero;fill:rgb(100%,100%,100%);fill-opacity:1;" d="M 89.375 129.890625 L 91.234375 134.234375 L 89.09375 135.152344 L 87.234375 130.804688 "/>
<path style=" stroke:none;fill-rule:nonzero;fill:rgb(100%,100%,100%);fill-opacity:1;" d="M 92.9375 138.410156 L 94.800781 142.601562 L 92.671875 143.546875 L 90.808594 139.355469 "/>
<path style=" stroke:none;fill-rule:nonzero;fill:rgb(100%,100%,100%);fill-opacity:1;" d="M 96.507812 146.945312 L 98.367188 151.136719 L 96.242188 152.082031 L 94.378906 147.890625 "/>
<path style=" stroke:none;fill-rule:nonzero;fill:rgb(100%,100%,100%);fill-opacity:1;" d="M 100.097656 155.375 L 101.804688 159.722656 L 99.636719 160.570312 L 97.929688 156.226562 "/>
<path style=" stroke:none;fill-rule:nonzero;fill:rgb(100%,100%,100%);fill-opacity:1;" d="M 103.660156 163.898438 L 105.367188 168.089844 L 103.210938 168.96875 L 101.503906 164.777344 "/>
<path style=" stroke:none;fill-rule:nonzero;fill:rgb(100%,100%,100%);fill-opacity:1;" d="M 107.234375 172.292969 L 108.941406 176.640625 L 106.777344 177.488281 L 105.070312 173.144531 "/>
<path style=" stroke:none;fill-rule:nonzero;fill:rgb(100%,100%,100%);fill-opacity:1;" d="M 110.800781 180.816406 L 112.507812 185.007812 L 110.351562 185.882812 L 108.644531 181.695312 "/>
<path style=" stroke:none;fill-rule:nonzero;fill:rgb(100%,100%,100%);fill-opacity:1;" d="M 114.371094 189.351562 L 116.078125 193.542969 L 113.921875 194.421875 L 112.214844 190.230469 "/>
<path style=" stroke:none;fill-rule:nonzero;fill:rgb(100%,100%,100%);fill-opacity:1;" d="M 117.769531 197.699219 L 119.632812 201.890625 L 117.503906 202.835938 L 115.640625 198.644531 "/>
<path style=" stroke:none;fill-rule:nonzero;fill:rgb(100%,100%,100%);fill-opacity:1;" d="M 121.339844 206.234375 L 123.203125 210.425781 L 121.074219 211.371094 L 119.210938 207.179688 "/>
<path style=" stroke:none;fill-rule:nonzero;fill:rgb(100%,100%,100%);fill-opacity:1;" d="M 124.914062 214.632812 L 126.777344 218.976562 L 124.636719 219.894531 L 122.773438 215.546875 "/>
<path style=" stroke:none;fill-rule:nonzero;fill:rgb(100%,100%,100%);fill-opacity:1;" d="M 128.492188 223.1875 L 130.199219 227.378906 L 128.042969 228.257812 L 126.335938 224.066406 "/>
<path style=" stroke:none;fill-rule:nonzero;fill:rgb(100%,100%,100%);fill-opacity:1;" d="M 132.0625 231.722656 L 133.769531 235.914062 L 131.613281 236.792969 L 129.90625 232.601562 "/>
<path style=" stroke:none;fill-rule:nonzero;fill:rgb(100%,100%,100%);fill-opacity:1;" d="M 135.632812 240.105469 L 137.339844 244.292969 L 135.183594 245.171875 L 133.476562 240.984375 "/>
<path style=" stroke:none;fill-rule:nonzero;fill:rgb(100%,100%,100%);fill-opacity:1;" d="M 139.203125 248.640625 L 140.910156 252.832031 L 138.753906 253.710938 L 137.046875 249.519531 "/>
<path style=" stroke:none;fill-rule:nonzero;fill:rgb(100%,100%,100%);fill-opacity:1;" d="M 142.777344 257.035156 L 144.484375 261.382812 L 142.316406 262.230469 L 140.609375 257.886719 "/>
<path style=" stroke:none;fill-rule:nonzero;fill:rgb(100%,100%,100%);fill-opacity:1;" d="M 146.34375 265.558594 L 148.050781 269.75 L 145.894531 270.628906 L 144.1875 266.4375 "/>
<path style=" stroke:none;fill-rule:nonzero;fill:rgb(100%,100%,100%);fill-opacity:1;" d="M 149.910156 274.09375 L 151.617188 278.285156 L 149.464844 279.164062 L 147.757812 274.972656 "/>
<path style=" stroke:none;fill-rule:nonzero;fill:rgb(100%,100%,100%);fill-opacity:1;" d="M 153.3125 282.441406 L 155.175781 286.632812 L 153.046875 287.578125 L 151.183594 283.386719 "/>
<path style=" stroke:none;fill-rule:nonzero;fill:rgb(100%,100%,100%);fill-opacity:1;" d="M 156.882812 290.976562 L 158.746094 295.167969 L 156.617188 296.113281 L 154.753906 291.921875 "/>
<path style=" stroke:none;fill-rule:nonzero;fill:rgb(100%,100%,100%);fill-opacity:1;" d="M 160.472656 299.40625 L 162.179688 303.753906 L 160.011719 304.601562 L 158.304688 300.257812 "/>
<path style=" stroke:none;fill-rule:nonzero;fill:rgb(100%,100%,100%);fill-opacity:1;" d="M 164.035156 307.929688 L 165.742188 312.121094 L 163.585938 313 L 161.878906 308.808594 "/>
<path style=" stroke:none;fill-rule:nonzero;fill:rgb(100%,100%,100%);fill-opacity:1;" d="M 167.609375 316.324219 L 169.316406 320.671875 L 167.152344 321.519531 L 165.445312 317.175781 "/>
<path style=" stroke:none;fill-rule:nonzero;fill:rgb(100%,100%,100%);fill-opacity:1;" d="M 171.175781 324.847656 L 172.882812 329.039062 L 170.726562 329.914062 L 169.019531 325.726562 "/>
<path style=" stroke:none;fill-rule:nonzero;fill:rgb(100%,100%,100%);fill-opacity:1;" d="M 174.746094 333.382812 L 176.453125 337.574219 L 174.296875 338.453125 L 172.589844 334.261719 "/>
<path style=" stroke:none;fill-rule:nonzero;fill:rgb(100%,100%,100%);fill-opacity:1;" d="M 178.320312 341.777344 L 180.027344 346.125 L 177.859375 346.972656 L 176.152344 342.628906 "/>
<path style=" stroke:none;fill-rule:nonzero;fill:rgb(100%,100%,100%);fill-opacity:1;" d="M 181.882812 350.300781 L 183.589844 354.492188 L 181.4375 355.371094 L 179.726562 351.179688 "/>
<path style=" stroke:none;fill-rule:nonzero;fill:rgb(100%,100%,100%);fill-opacity:1;" d="M 185.289062 358.664062 L 187.152344 363.007812 L 185.011719 363.925781 L 183.148438 359.578125 "/>
<path style=" stroke:none;fill-rule:nonzero;fill:rgb(100%,100%,100%);fill-opacity:1;" d="M 188.855469 367.183594 L 190.714844 371.375 L 188.589844 372.320312 L 186.726562 368.128906 "/>
<path style=" stroke:none;fill-rule:nonzero;fill:rgb(100%,100%,100%);fill-opacity:1;" d="M 192.425781 375.722656 L 194.285156 379.910156 L 192.160156 380.855469 L 190.296875 376.667969 "/>
<path style=" stroke:none;fill-rule:nonzero;fill:rgb(100%,100%,100%);fill-opacity:1;" d="M 196 384.117188 L 197.863281 388.460938 L 195.722656 389.378906 L 193.859375 385.035156 "/>
<path style=" stroke:none;fill-rule:nonzero;fill:rgb(100%,100%,100%);fill-opacity:1;" d="M 199.578125 392.671875 L 201.285156 396.863281 L 199.128906 397.742188 L 197.421875 393.550781 "/>
<path style=" stroke:none;fill-rule:nonzero;fill:rgb(100%,100%,100%);fill-opacity:1;" d="M 203.152344 401.066406 L 204.859375 405.414062 L 202.691406 406.261719 L 200.984375 401.917969 "/>
<path style=" stroke:none;fill-rule:nonzero;fill:rgb(100%,100%,100%);fill-opacity:1;" d="M 206.71875 409.589844 L 208.425781 413.78125 L 206.269531 414.660156 L 204.5625 410.46875 "/>
<path style=" stroke:none;fill-rule:nonzero;fill:rgb(100%,100%,100%);fill-opacity:1;" d="M 210.285156 418.125 L 211.996094 422.316406 L 209.839844 423.195312 L 208.132812 419.003906 "/>
<path style=" stroke:none;fill-rule:nonzero;fill:rgb(100%,100%,100%);fill-opacity:1;" d="M 2.15625 105.539062 L 3.863281 109.730469 L 1.707031 110.609375 L 0 106.417969 "/>
<path style=" stroke:none;fill-rule:nonzero;fill:rgb(100%,100%,100%);fill-opacity:1;" d="M 5.726562 114.078125 L 7.433594 118.265625 L 5.277344 119.144531 L 3.570312 114.957031 "/>
<path style=" stroke:none;fill-rule:nonzero;fill:rgb(100%,100%,100%);fill-opacity:1;" d="M 9.296875 122.457031 L 11.003906 126.648438 L 8.847656 127.527344 L 7.140625 123.335938 "/>
<path style=" stroke:none;fill-rule:nonzero;fill:rgb(100%,100%,100%);fill-opacity:1;" d="M 12.695312 130.960938 L 14.558594 135.152344 L 12.429688 136.097656 L 10.566406 131.90625 "/>
<path style=" stroke:none;fill-rule:nonzero;fill:rgb(100%,100%,100%);fill-opacity:1;" d="M 16.269531 139.355469 L 18.132812 143.703125 L 15.992188 144.621094 L 14.132812 140.273438 "/>
<path style=" stroke:none;fill-rule:nonzero;fill:rgb(100%,100%,100%);fill-opacity:1;" d="M 19.835938 147.878906 L 21.695312 152.070312 L 19.570312 153.015625 L 17.707031 148.824219 "/>
<path style=" stroke:none;fill-rule:nonzero;fill:rgb(100%,100%,100%);fill-opacity:1;" d="M 23.417969 156.449219 L 25.125 160.640625 L 22.96875 161.515625 L 21.261719 157.328125 "/>
<path style=" stroke:none;fill-rule:nonzero;fill:rgb(100%,100%,100%);fill-opacity:1;" d="M 26.988281 164.828125 L 28.695312 169.019531 L 26.539062 169.898438 L 24.832031 165.707031 "/>
<path style=" stroke:none;fill-rule:nonzero;fill:rgb(100%,100%,100%);fill-opacity:1;" d="M 30.558594 173.367188 L 32.265625 177.554688 L 30.109375 178.433594 L 28.402344 174.242188 "/>
<path style=" stroke:none;fill-rule:nonzero;fill:rgb(100%,100%,100%);fill-opacity:1;" d="M 34.132812 181.761719 L 35.839844 186.105469 L 33.675781 186.957031 L 31.964844 182.609375 "/>
<path style=" stroke:none;fill-rule:nonzero;fill:rgb(100%,100%,100%);fill-opacity:1;" d="M 37.699219 190.28125 L 39.40625 194.472656 L 37.25 195.351562 L 35.542969 191.160156 "/>
<path style=" stroke:none;fill-rule:nonzero;fill:rgb(100%,100%,100%);fill-opacity:1;" d="M 41.097656 198.785156 L 42.960938 202.976562 L 40.832031 203.921875 L 38.96875 199.730469 "/>
<path style=" stroke:none;fill-rule:nonzero;fill:rgb(100%,100%,100%);fill-opacity:1;" d="M 44.667969 207.167969 L 46.53125 211.359375 L 44.402344 212.304688 L 42.539062 208.113281 "/>
<path style=" stroke:none;fill-rule:nonzero;fill:rgb(100%,100%,100%);fill-opacity:1;" d="M 48.238281 215.703125 L 50.101562 219.894531 L 47.972656 220.839844 L 46.109375 216.648438 "/>
<path style=" stroke:none;fill-rule:nonzero;fill:rgb(100%,100%,100%);fill-opacity:1;" d="M 51.8125 224.097656 L 53.675781 228.445312 L 51.535156 229.363281 L 49.671875 225.015625 "/>
<path style=" stroke:none;fill-rule:nonzero;fill:rgb(100%,100%,100%);fill-opacity:1;" d="M 55.378906 232.621094 L 57.238281 236.8125 L 55.113281 237.757812 L 53.25 233.566406 "/>
<path style=" stroke:none;fill-rule:nonzero;fill:rgb(100%,100%,100%);fill-opacity:1;" d="M 58.953125 241.015625 L 60.816406 245.363281 L 58.675781 246.28125 L 56.8125 241.933594 "/>
<path style=" stroke:none;fill-rule:nonzero;fill:rgb(100%,100%,100%);fill-opacity:1;" d="M 62.53125 249.570312 L 64.238281 253.761719 L 62.082031 254.640625 L 60.375 250.449219 "/>
<path style=" stroke:none;fill-rule:nonzero;fill:rgb(100%,100%,100%);fill-opacity:1;" d="M 66.101562 258.109375 L 67.808594 262.300781 L 65.652344 263.175781 L 63.945312 258.988281 "/>
<path style=" stroke:none;fill-rule:nonzero;fill:rgb(100%,100%,100%);fill-opacity:1;" d="M 69.675781 266.503906 L 71.382812 270.847656 L 69.214844 271.699219 L 67.507812 267.355469 "/>
<path style=" stroke:none;fill-rule:nonzero;fill:rgb(100%,100%,100%);fill-opacity:1;" d="M 73.070312 274.992188 L 74.933594 279.183594 L 72.804688 280.128906 L 70.941406 275.9375 "/>
<path style=" stroke:none;fill-rule:nonzero;fill:rgb(100%,100%,100%);fill-opacity:1;" d="M 76.644531 283.386719 L 78.507812 287.734375 L 76.367188 288.652344 L 74.507812 284.304688 "/>
<path style=" stroke:none;fill-rule:nonzero;fill:rgb(100%,100%,100%);fill-opacity:1;" d="M 80.210938 291.910156 L 82.074219 296.101562 L 79.945312 297.046875 L 78.082031 292.855469 "/>
<path style=" stroke:none;fill-rule:nonzero;fill:rgb(100%,100%,100%);fill-opacity:1;" d="M 83.78125 300.445312 L 85.640625 304.636719 L 83.515625 305.582031 L 81.652344 301.390625 "/>
<path style=" stroke:none;fill-rule:nonzero;fill:rgb(100%,100%,100%);fill-opacity:1;" d="M 87.355469 308.839844 L 89.21875 313.1875 L 87.078125 314.105469 L 85.214844 309.757812 "/>
<path style=" stroke:none;fill-rule:nonzero;fill:rgb(100%,100%,100%);fill-opacity:1;" d="M 90.917969 317.363281 L 92.78125 321.554688 L 90.652344 322.5 L 88.792969 318.308594 "/>
<path style=" stroke:none;fill-rule:nonzero;fill:rgb(100%,100%,100%);fill-opacity:1;" d="M 94.507812 325.792969 L 96.214844 330.136719 L 94.050781 330.988281 L 92.339844 326.640625 "/>
<path style=" stroke:none;fill-rule:nonzero;fill:rgb(100%,100%,100%);fill-opacity:1;" d="M 98.074219 334.316406 L 99.78125 338.503906 L 97.625 339.382812 L 95.917969 335.191406 "/>
<path style=" stroke:none;fill-rule:nonzero;fill:rgb(100%,100%,100%);fill-opacity:1;" d="M 101.644531 342.851562 L 103.351562 347.042969 L 101.195312 347.921875 L 99.488281 343.730469 "/>
<path style=" stroke:none;fill-rule:nonzero;fill:rgb(100%,100%,100%);fill-opacity:1;" d="M 105.210938 351.230469 L 106.917969 355.421875 L 104.765625 356.300781 L 103.054688 352.109375 "/>
<path style=" stroke:none;fill-rule:nonzero;fill:rgb(100%,100%,100%);fill-opacity:1;" d="M 108.78125 359.769531 L 110.488281 363.957031 L 108.332031 364.835938 L 106.625 360.648438 "/>
<path style=" stroke:none;fill-rule:nonzero;fill:rgb(100%,100%,100%);fill-opacity:1;" d="M 112.1875 368.128906 L 114.050781 372.476562 L 111.910156 373.394531 L 110.046875 369.046875 "/>
<path style=" stroke:none;fill-rule:nonzero;fill:rgb(100%,100%,100%);fill-opacity:1;" d="M 115.753906 376.652344 L 117.613281 380.84375 L 115.488281 381.789062 L 113.625 377.597656 "/>
<path style=" stroke:none;fill-rule:nonzero;fill:rgb(100%,100%,100%);fill-opacity:1;" d="M 119.320312 385.1875 L 121.183594 389.378906 L 119.054688 390.324219 L 117.195312 386.132812 "/>
<path style=" stroke:none;fill-rule:nonzero;fill:rgb(100%,100%,100%);fill-opacity:1;" d="M 122.90625 393.601562 L 124.613281 397.792969 L 122.457031 398.671875 L 120.75 394.480469 "/>
<path style=" stroke:none;fill-rule:nonzero;fill:rgb(100%,100%,100%);fill-opacity:1;" d="M 126.476562 402.140625 L 128.183594 406.328125 L 126.027344 407.207031 L 124.320312 403.019531 "/>
<path style=" stroke:none;fill-rule:nonzero;fill:rgb(100%,100%,100%);fill-opacity:1;" d="M 130.050781 410.535156 L 131.757812 414.878906 L 129.589844 415.730469 L 127.882812 411.386719 "/>
<path style=" stroke:none;fill-rule:nonzero;fill:rgb(100%,100%,100%);fill-opacity:1;" d="M 133.613281 419.058594 L 135.324219 423.246094 L 133.167969 424.125 L 131.460938 419.933594 "/>
<path style=" stroke:none;fill-rule:nonzero;fill:rgb(100%,100%,100%);fill-opacity:1;" d="M 137.183594 427.59375 L 138.890625 431.785156 L 136.734375 432.664062 L 135.027344 428.472656 "/>
<path style=" stroke:none;fill-rule:nonzero;fill:rgb(100%,100%,100%);fill-opacity:1;" d="M 140.753906 435.972656 L 142.460938 440.164062 L 140.304688 441.042969 L 138.597656 436.851562 "/>
<g clip-path="url(#clip1)" clip-rule="nonzero">
<path style=" stroke:none;fill-rule:nonzero;fill:rgb(100%,100%,100%);fill-opacity:1;" d="M 144.324219 444.511719 L 146.03125 448.703125 L 143.875 449.578125 L 142.167969 445.390625 "/>
</g>
<path style=" stroke:none;fill-rule:evenodd;fill:rgb(0%,0%,0%);fill-opacity:1;" d="M 330.582031 165.734375 C 334.304688 165.734375 337.253906 168.527344 337.253906 172.253906 C 337.253906 175.976562 334.304688 178.925781 330.582031 178.925781 C 326.855469 178.925781 324.0625 175.976562 324.0625 172.253906 C 324.0625 168.527344 326.855469 165.734375 330.582031 165.734375 "/>
<path style=" stroke:none;fill-rule:nonzero;fill:rgb(100%,100%,100%);fill-opacity:1;" d="M 330.582031 165.734375 L 330.582031 164.570312 C 332.734375 164.570312 334.703125 165.382812 336.125 166.761719 C 337.546875 168.132812 338.421875 170.082031 338.417969 172.253906 C 338.417969 174.425781 337.550781 176.398438 336.136719 177.808594 C 334.722656 179.226562 332.753906 180.09375 330.582031 180.089844 C 328.40625 180.09375 326.460938 179.21875 325.085938 177.796875 C 323.710938 176.375 322.894531 174.40625 322.898438 172.253906 C 322.894531 170.097656 323.714844 168.15625 325.101562 166.773438 C 326.484375 165.386719 328.425781 164.566406 330.582031 164.570312 L 330.582031 166.898438 C 329.007812 166.902344 327.691406 167.476562 326.746094 168.417969 C 325.804688 169.367188 325.230469 170.683594 325.226562 172.253906 C 325.226562 173.824219 325.808594 175.191406 326.761719 176.175781 C 327.714844 177.160156 329.027344 177.757812 330.582031 177.761719 C 333.671875 177.753906 336.082031 175.347656 336.089844 172.253906 C 336.085938 170.699219 335.484375 169.386719 334.503906 168.433594 C 333.519531 167.480469 332.152344 166.898438 330.582031 166.898438 Z M 330.582031 165.734375 "/>
<path style=" stroke:none;fill-rule:nonzero;fill:rgb(100%,100%,0%);fill-opacity:1;" d="M 361.066406 129.292969 C 361.210938 129.292969 361.328125 129.238281 361.421875 129.125 L 361.5625 128.757812 L 361.421875 128.390625 C 361.328125 128.277344 361.210938 128.21875 361.066406 128.21875 L 345.328125 128.21875 C 345.179688 128.21875 345.054688 128.277344 344.953125 128.390625 L 344.808594 128.757812 L 344.953125 129.125 C 345.054688 129.238281 345.179688 129.292969 345.328125 129.292969 Z M 361.066406 129.292969 "/>
<path style=" stroke:none;fill-rule:nonzero;fill:rgb(100%,100%,0%);fill-opacity:1;" d="M 365.761719 132.792969 C 366.371094 133.722656 367.203125 134.425781 368.261719 134.90625 C 369.316406 135.386719 370.480469 135.628906 371.75 135.628906 C 372.535156 135.628906 373.285156 135.515625 374 135.292969 C 374.710938 135.070312 375.332031 134.71875 375.867188 134.242188 C 376.398438 133.769531 376.78125 133.175781 377.015625 132.46875 L 377.042969 132.324219 C 377.042969 132.140625 376.929688 132.015625 376.707031 131.953125 L 375.988281 131.953125 C 375.84375 131.980469 375.734375 132.050781 375.664062 132.164062 C 375.507812 132.636719 375.269531 133.046875 374.945312 133.398438 C 374.621094 133.746094 374.242188 134.007812 373.808594 134.183594 C 373.375 134.359375 372.902344 134.445312 372.386719 134.445312 C 369.796875 134.445312 368.503906 132.789062 368.503906 129.476562 C 368.503906 128.59375 368.582031 127.785156 368.734375 127.050781 C 368.886719 126.316406 369.207031 125.707031 369.6875 125.214844 C 370.167969 124.726562 370.867188 124.480469 371.777344 124.480469 C 372.5 124.480469 373.109375 124.523438 373.605469 124.597656 C 373.273438 124.863281 373.105469 125.273438 373.105469 125.832031 C 373.105469 126.332031 373.277344 126.746094 373.621094 127.078125 C 373.960938 127.410156 374.390625 127.578125 374.90625 127.578125 C 375.417969 127.578125 375.84375 127.410156 376.175781 127.078125 C 376.507812 126.746094 376.675781 126.332031 376.675781 125.832031 C 376.675781 124.8125 376.183594 124.132812 375.203125 123.800781 C 374.21875 123.46875 373.070312 123.300781 371.75 123.300781 C 370.453125 123.300781 369.28125 123.542969 368.234375 124.03125 C 367.1875 124.515625 366.359375 125.230469 365.757812 126.179688 C 365.152344 127.128906 364.847656 128.234375 364.847656 129.503906 C 364.847656 130.769531 365.15625 131.867188 365.761719 132.792969 "/>
<path style=" stroke:none;fill-rule:nonzero;fill:rgb(0%,100%,100%);fill-opacity:1;" d="M 271.8125 296.207031 C 286.417969 323.054688 299.429688 339.941406 310.714844 350.085938 C 322.007812 360.230469 331.535156 363.621094 339.277344 363.625 C 348.585938 363.625 355.476562 358.703125 359.828125 354.238281 L 359.824219 354.242188 C 363.097656 350.835938 364.425781 346.984375 364.429688 343.355469 C 364.429688 339.816406 363.144531 336.480469 361.109375 334.058594 C 359.070312 331.628906 356.316406 330.128906 353.351562 330.128906 C 351.929688 330.128906 350.445312 330.472656 348.933594 331.246094 C 346.539062 332.476562 344.953125 333.933594 343.957031 335.507812 C 342.964844 337.082031 342.542969 338.785156 342.542969 340.566406 C 342.519531 345.429688 345.816406 350.855469 349.132812 354.238281 C 351.519531 356.6875 354.761719 360.039062 360.09375 362.808594 C 365.429688 365.574219 372.859375 367.761719 383.625 367.761719 C 388.707031 367.761719 394.53125 367.273438 401.222656 366.125 L 401.484375 367.636719 C 394.71875 368.800781 388.808594 369.300781 383.625 369.300781 C 372.652344 369.300781 364.945312 367.058594 359.386719 364.171875 C 353.828125 361.289062 350.417969 357.761719 348.035156 355.3125 C 344.539062 351.707031 341.027344 346.105469 341.003906 340.566406 C 341.003906 338.542969 341.496094 336.523438 342.660156 334.6875 C 343.824219 332.847656 345.644531 331.207031 348.234375 329.878906 C 349.945312 329 351.683594 328.59375 353.351562 328.59375 C 356.851562 328.59375 360.019531 330.363281 362.285156 333.070312 C 364.558594 335.78125 365.964844 339.441406 365.964844 343.355469 C 365.96875 347.363281 364.46875 351.632812 360.933594 355.308594 L 360.929688 355.3125 C 356.421875 359.941406 349.160156 365.160156 339.277344 365.160156 C 331.066406 365.164062 321.160156 361.542969 309.6875 351.226562 C 298.210938 340.910156 285.125 323.886719 270.460938 296.941406 Z M 271.8125 296.207031 "/>
<path style=" stroke:none;fill-rule:evenodd;fill:rgb(0%,100%,100%);fill-opacity:1;" d="M 260.582031 276.242188 L 264.308594 300.296875 L 278.121094 293.3125 Z M 260.582031 276.242188 "/>
<g clip-path="url(#clip2)" clip-rule="nonzero">
<path style=" stroke:none;fill-rule:nonzero;fill:rgb(0%,100%,100%);fill-opacity:1;" d="M 428.308594 359.359375 C 425.757812 362.023438 423.199219 364.011719 420.628906 365.324219 C 418.058594 366.636719 414.742188 367.683594 410.683594 368.46875 L 410.738281 369.195312 C 415.300781 368.839844 419.007812 368.03125 421.855469 366.761719 C 420.703125 368.382812 419.125 370 417.121094 371.609375 C 415.121094 373.222656 412.992188 374.558594 410.738281 375.621094 L 410.933594 376.09375 C 414.230469 375.164062 417.21875 373.683594 419.902344 371.652344 C 420.851562 372.769531 421.566406 373.988281 422.050781 375.3125 C 422.125 375.515625 422.207031 375.671875 422.289062 375.773438 C 422.375 375.875 422.519531 375.925781 422.722656 375.925781 C 423.058594 375.925781 423.34375 375.726562 423.574219 375.324219 C 423.808594 374.925781 423.925781 374.449219 423.925781 373.902344 C 423.925781 373.351562 423.710938 372.878906 423.28125 372.476562 C 422.851562 372.074219 421.960938 371.613281 420.601562 371.09375 C 421.160156 370.664062 421.699219 370.210938 422.21875 369.726562 L 430.015625 369.726562 C 427.425781 373.003906 424.707031 375.40625 421.855469 376.933594 C 419.007812 378.460938 415.066406 379.566406 410.039062 380.257812 L 410.09375 380.789062 C 412.945312 380.769531 415.59375 380.507812 418.042969 380.003906 C 420.492188 379.503906 422.816406 378.597656 425.015625 377.296875 C 427.210938 375.992188 429.625 373.886719 432.25 370.980469 C 432.492188 370.722656 432.699219 370.550781 432.878906 370.464844 C 433.054688 370.382812 433.335938 370.316406 433.714844 370.269531 C 434.097656 370.222656 434.289062 370.097656 434.289062 369.890625 C 434.289062 369.6875 433.832031 369.246094 432.917969 368.566406 C 432.007812 367.886719 431.46875 367.546875 431.300781 367.546875 C 431.132812 367.546875 430.972656 367.628906 430.824219 367.796875 L 429.875 368.804688 L 423.199219 368.804688 C 424.128906 367.925781 424.785156 367.460938 425.167969 367.40625 C 425.550781 367.351562 425.738281 367.246094 425.738281 367.097656 C 425.738281 366.96875 425.515625 366.777344 425.070312 366.527344 C 424.621094 366.273438 424.167969 366.054688 423.699219 365.871094 C 425.804688 364.734375 428.179688 362.9375 430.824219 360.476562 C 431.328125 359.992188 431.785156 359.742188 432.195312 359.722656 C 432.734375 359.6875 433.003906 359.527344 433.003906 359.25 C 433.003906 359.15625 432.929688 359.03125 432.78125 358.871094 C 432.632812 358.710938 432.394531 358.5 432.066406 358.230469 C 431.742188 357.957031 431.398438 357.6875 431.035156 357.417969 C 430.671875 357.148438 430.429688 357.011719 430.308594 357.011719 C 430.1875 357.011719 430.023438 357.117188 429.820312 357.320312 L 428.8125 358.4375 L 420.992188 358.4375 C 421.792969 357.5625 422.300781 357.042969 422.511719 356.875 C 422.726562 356.707031 423.03125 356.605469 423.421875 356.566406 C 423.8125 356.527344 424.007812 356.40625 424.007812 356.203125 L 423.8125 355.894531 C 423.683594 355.785156 423.230469 355.546875 422.457031 355.183594 C 421.683594 354.820312 421.046875 354.535156 420.542969 354.332031 C 417.824219 359.097656 414.695312 362.441406 411.15625 364.359375 L 411.378906 364.949219 C 414.378906 363.738281 416.714844 362.414062 418.394531 360.980469 C 419.304688 362.171875 419.929688 363.234375 420.265625 364.164062 C 420.394531 364.554688 420.582031 364.75 420.824219 364.75 C 421.140625 364.75 421.4375 364.550781 421.71875 364.152344 C 421.996094 363.75 422.136719 363.28125 422.136719 362.742188 C 422.136719 362.199219 421.820312 361.75 421.1875 361.386719 C 420.554688 361.023438 419.816406 360.699219 418.980469 360.421875 C 419.464844 359.976562 419.835938 359.621094 420.097656 359.359375 Z M 436.636719 376.875 C 436.839844 377.546875 437.054688 378.125 437.277344 378.609375 C 437.5 379.09375 437.640625 379.378906 437.695312 379.460938 L 437.894531 379.585938 C 437.96875 379.585938 438.113281 379.40625 438.324219 379.042969 C 438.539062 378.679688 439.167969 377.964844 440.210938 376.90625 C 441.253906 375.84375 442 375.3125 442.445312 375.3125 C 442.707031 375.3125 443.015625 375.480469 443.367188 375.816406 C 444.578125 376.96875 445.496094 377.734375 446.121094 378.105469 C 446.742188 378.476562 447.601562 378.757812 448.691406 378.945312 C 449.78125 379.128906 451.578125 379.3125 454.082031 379.488281 C 456.585938 379.664062 458.425781 379.753906 459.601562 379.753906 C 459.804688 379.753906 459.945312 379.726562 460.019531 379.671875 C 460.09375 379.613281 460.140625 379.484375 460.160156 379.277344 C 460.214844 378.871094 460.484375 378.484375 460.96875 378.121094 C 461.453125 377.757812 462.140625 377.492188 463.035156 377.324219 L 463.0625 376.765625 C 460.644531 376.914062 457.808594 376.988281 454.558594 376.988281 C 451.308594 376.988281 449.082031 376.917969 447.878906 376.777344 C 446.679688 376.640625 445.707031 376.308594 444.960938 375.789062 C 446.804688 374.742188 448.207031 373.699219 449.164062 372.65625 C 450.125 371.613281 450.847656 370.433594 451.332031 369.109375 C 451.816406 367.789062 452.242188 365.375 452.617188 361.875 L 456.863281 361.875 C 456.675781 365.804688 456.480469 368.5 456.273438 369.960938 C 456.070312 371.425781 455.820312 372.355469 455.519531 372.757812 C 455.222656 373.15625 454.6875 373.355469 453.914062 373.355469 C 453.140625 373.355469 452.085938 373.261719 450.742188 373.078125 L 450.660156 373.582031 C 451.574219 373.804688 452.257812 374.019531 452.714844 374.222656 C 453.167969 374.425781 453.476562 374.652344 453.636719 374.894531 C 453.792969 375.136719 453.890625 375.445312 453.929688 375.828125 C 453.964844 376.210938 454.0625 376.402344 454.222656 376.402344 C 454.378906 376.402344 454.828125 376.242188 455.5625 375.925781 C 456.296875 375.609375 456.867188 375.269531 457.265625 374.90625 C 457.667969 374.542969 457.941406 374.105469 458.089844 373.59375 C 458.242188 373.082031 458.4375 371.707031 458.679688 369.472656 C 458.921875 367.238281 459.105469 364.734375 459.238281 361.957031 C 459.980469 361.472656 460.355469 361.160156 460.355469 361.023438 C 460.355469 360.882812 460.234375 360.722656 459.992188 360.546875 C 459.75 360.371094 459.3125 360.097656 458.679688 359.722656 C 458.042969 359.351562 457.679688 359.164062 457.589844 359.164062 C 457.496094 359.164062 457.382812 359.277344 457.253906 359.5 L 456.332031 361.035156 L 452.699219 361.035156 C 452.8125 359.898438 452.886719 358.890625 452.921875 358.003906 C 452.960938 357.121094 453.011719 356.609375 453.078125 356.46875 C 453.140625 356.328125 453.300781 356.210938 453.550781 356.121094 C 453.804688 356.027344 453.929688 355.914062 453.929688 355.785156 C 453.929688 355.503906 452.753906 355.078125 450.410156 354.5 C 450.410156 356.976562 450.351562 359.15625 450.242188 361.035156 L 446.859375 361.035156 C 446.320312 361.035156 445.855469 360.988281 445.464844 360.898438 L 445.964844 362.070312 C 446.246094 361.941406 446.636719 361.875 447.140625 361.875 L 450.183594 361.875 C 449.980469 365.710938 449.464844 368.546875 448.632812 370.382812 C 447.804688 372.214844 446.414062 373.898438 444.457031 375.425781 C 444.253906 375.164062 443.992188 374.957031 443.675781 374.808594 L 443.675781 366.988281 C 444.402344 366.632812 444.765625 366.367188 444.765625 366.191406 C 444.765625 366.015625 444.324219 365.644531 443.4375 365.085938 C 442.554688 364.527344 442.054688 364.25 441.945312 364.25 C 441.832031 364.25 441.730469 364.332031 441.636719 364.5 L 440.855469 365.898438 L 437.863281 365.898438 C 437.324219 365.898438 436.859375 365.851562 436.46875 365.757812 L 436.972656 366.847656 C 437.25 366.71875 437.640625 366.652344 438.144531 366.652344 L 441.386719 366.652344 L 441.386719 374.640625 C 440.433594 374.902344 438.851562 375.648438 436.636719 376.875 M 438.785156 356.089844 C 439.402344 356.78125 439.890625 357.417969 440.253906 358.003906 C 440.617188 358.59375 440.90625 359.304688 441.121094 360.140625 C 441.332031 360.980469 441.546875 361.539062 441.761719 361.820312 C 441.976562 362.097656 442.195312 362.238281 442.417969 362.238281 C 442.753906 362.238281 443.109375 361.957031 443.480469 361.398438 C 443.851562 360.839844 444.039062 360.261719 444.039062 359.667969 C 444.039062 359.070312 443.609375 358.449219 442.753906 357.796875 C 441.898438 357.144531 440.648438 356.453125 439.011719 355.726562 Z M 479.855469 363.410156 L 480.21875 363.828125 C 481.597656 363.179688 482.867188 362.460938 484.03125 361.679688 C 485.195312 360.898438 486.53125 359.769531 488.039062 358.296875 C 488.207031 358.128906 488.355469 358.019531 488.488281 357.964844 C 488.617188 357.90625 488.839844 357.871094 489.15625 357.851562 C 489.472656 357.832031 489.632812 357.769531 489.632812 357.65625 C 489.632812 357.414062 488.8125 356.605469 487.171875 355.226562 C 485.421875 358.316406 482.984375 361.046875 479.855469 363.410156 M 475.355469 366.597656 L 475.355469 378.355469 C 475.355469 378.636719 475.441406 378.777344 475.609375 378.777344 C 475.867188 378.777344 476.226562 378.695312 476.683594 378.539062 C 477.140625 378.378906 477.433594 378.246094 477.5625 378.132812 C 477.695312 378.023438 477.757812 377.835938 477.757812 377.574219 L 477.703125 375.226562 L 477.703125 366.597656 L 481.78125 366.597656 C 482.191406 366.597656 482.398438 366.519531 482.398438 366.371094 C 482.398438 366.222656 482.019531 365.8125 481.265625 365.144531 C 480.511719 364.472656 480.03125 364.136719 479.828125 364.136719 C 479.714844 364.136719 479.566406 364.257812 479.378906 364.5 L 478.429688 365.757812 L 477.703125 365.757812 L 477.703125 358.269531 L 481.445312 358.269531 C 481.78125 358.269531 481.949219 358.175781 481.949219 357.992188 C 481.949219 357.804688 481.566406 357.363281 480.804688 356.664062 C 480.039062 355.964844 479.546875 355.617188 479.324219 355.617188 C 479.210938 355.617188 479.082031 355.71875 478.933594 355.921875 L 477.898438 357.40625 L 467.308594 357.40625 C 466.84375 357.40625 466.425781 357.367188 466.054688 357.292969 L 466.5 358.4375 C 466.796875 358.328125 467.152344 358.269531 467.5625 358.269531 L 470.046875 358.269531 C 470.066406 358.976562 470.078125 359.835938 470.078125 360.839844 C 470.078125 361.847656 470.046875 363.484375 469.992188 365.757812 L 466.304688 365.757812 C 465.839844 365.757812 465.421875 365.71875 465.046875 365.644531 L 465.496094 366.761719 C 465.792969 366.652344 466.144531 366.597656 466.554688 366.597656 L 469.992188 366.597656 C 469.957031 370.75 469.585938 373.671875 468.890625 375.367188 C 468.191406 377.0625 467.105469 378.683594 465.632812 380.230469 L 466.027344 380.703125 C 468.09375 378.933594 469.476562 377.550781 470.175781 376.554688 C 470.871094 375.558594 471.355469 374.371094 471.625 372.992188 C 471.898438 371.613281 472.078125 369.484375 472.171875 366.597656 Z M 475.355469 358.269531 L 475.355469 365.757812 L 472.199219 365.757812 C 472.292969 362.945312 472.328125 360.449219 472.3125 358.269531 Z M 479.351562 370.953125 L 479.519531 371.429688 C 481.269531 370.832031 482.796875 370.175781 484.101562 369.460938 C 485.40625 368.742188 486.734375 367.804688 488.097656 366.652344 C 488.394531 366.410156 488.625 366.25 488.792969 366.175781 C 488.960938 366.101562 489.175781 366.066406 489.4375 366.066406 C 489.699219 366.066406 489.828125 365.972656 489.828125 365.785156 L 489.757812 365.546875 C 489.710938 365.484375 489.464844 365.207031 489.019531 364.722656 L 487.761719 363.382812 C 485.75 366.492188 482.945312 369.015625 479.351562 370.953125 M 474.097656 380.3125 L 474.238281 380.84375 C 477.386719 380.285156 480.148438 379.4375 482.523438 378.300781 C 484.898438 377.164062 487.230469 375.480469 489.519531 373.246094 C 489.875 372.929688 490.210938 372.769531 490.527344 372.769531 L 490.804688 372.769531 L 491.042969 372.726562 L 491.140625 372.519531 L 491.058594 372.238281 C 491 372.144531 490.757812 371.875 490.332031 371.429688 C 489.902344 370.980469 489.425781 370.515625 488.90625 370.03125 C 484.996094 375.078125 480.058594 378.507812 474.097656 380.3125 "/>
</g>
<path style=" stroke:none;fill-rule:nonzero;fill:rgb(100%,100%,0%);fill-opacity:1;" d="M 383.914062 177.082031 C 383.972656 177.882812 384 178.675781 384 179.457031 L 384 186.246094 L 383.941406 188.453125 C 383.941406 188.640625 383.980469 188.734375 384.054688 188.734375 C 384.128906 188.734375 384.335938 188.675781 384.667969 188.566406 C 385.003906 188.453125 385.296875 188.332031 385.550781 188.203125 C 385.800781 188.070312 385.945312 187.984375 385.984375 187.9375 L 386.039062 187.671875 L 386.039062 186.582031 L 389.308594 186.582031 L 389.308594 189.625 L 383.1875 189.625 C 382.796875 189.625 382.445312 189.578125 382.128906 189.488281 L 382.519531 190.632812 C 382.742188 190.503906 383.039062 190.4375 383.414062 190.4375 L 385.3125 190.4375 C 386.410156 192.449219 387.585938 194.085938 388.832031 195.355469 C 386.410156 197.179688 383.335938 198.726562 379.613281 199.992188 L 379.695312 200.464844 C 383.867188 199.628906 387.34375 198.316406 390.117188 196.527344 C 391.289062 197.496094 392.566406 198.304688 393.945312 198.957031 C 395.324219 199.609375 396.140625 199.933594 396.402344 199.933594 L 396.683594 199.738281 C 397.074219 199.105469 397.445312 198.695312 397.800781 198.511719 C 398.152344 198.324219 398.898438 198.136719 400.035156 197.953125 L 400.035156 197.476562 C 396.832031 197.363281 394.085938 196.65625 391.792969 195.355469 C 393.207031 194.21875 394.410156 192.96875 395.398438 191.609375 C 395.566406 191.367188 395.71875 191.21875 395.859375 191.164062 C 395.996094 191.105469 396.25 191.078125 396.613281 191.078125 C 396.976562 191.078125 397.15625 190.984375 397.15625 190.800781 C 397.15625 190.613281 396.808594 190.207031 396.109375 189.585938 C 395.410156 188.960938 394.96875 188.648438 394.78125 188.648438 C 394.691406 188.648438 394.558594 188.714844 394.390625 188.84375 L 393.46875 189.625 L 391.484375 189.625 L 391.484375 186.582031 L 395.230469 186.582031 L 395.230469 187.976562 C 395.230469 188.164062 395.300781 188.257812 395.4375 188.257812 C 395.578125 188.257812 395.875 188.167969 396.332031 187.992188 C 396.789062 187.816406 397.097656 187.667969 397.253906 187.546875 C 397.414062 187.425781 397.492188 187.296875 397.492188 187.167969 L 397.4375 185.800781 L 397.4375 178.730469 C 397.976562 178.304688 398.246094 178.003906 398.246094 177.835938 C 398.246094 177.667969 397.855469 177.351562 397.074219 176.886719 C 396.292969 176.421875 395.84375 176.1875 395.734375 176.1875 C 395.601562 176.1875 395.472656 176.28125 395.339844 176.46875 L 394.613281 177.558594 L 392.882812 177.558594 C 392.492188 177.558594 392.136719 177.511719 391.820312 177.417969 L 392.210938 178.507812 C 392.417969 178.378906 392.714844 178.3125 393.105469 178.3125 L 395.230469 178.3125 L 395.230469 181.832031 L 392.882812 181.832031 C 392.492188 181.832031 392.136719 181.785156 391.820312 181.691406 L 392.210938 182.78125 C 392.4375 182.652344 392.734375 182.585938 393.105469 182.585938 L 395.230469 182.585938 L 395.230469 185.769531 L 391.484375 185.769531 L 391.484375 175.742188 C 392.027344 175.386719 392.296875 175.144531 392.296875 175.015625 C 392.296875 174.921875 392.097656 174.796875 391.695312 174.636719 C 391.296875 174.480469 390.480469 174.234375 389.25 173.898438 C 389.289062 174.902344 389.308594 175.734375 389.308594 176.382812 L 389.308594 185.769531 L 386.039062 185.769531 L 386.039062 182.585938 L 388.609375 182.585938 C 388.832031 182.585938 388.945312 182.507812 388.945312 182.347656 C 388.945312 182.191406 388.710938 181.90625 388.246094 181.496094 C 387.78125 181.085938 387.492188 180.882812 387.378906 180.882812 L 387.269531 180.9375 L 386.652344 181.71875 L 386.039062 181.71875 L 386.039062 178.339844 C 386.558594 178.152344 386.957031 177.980469 387.226562 177.824219 C 387.496094 177.664062 387.746094 177.585938 387.980469 177.585938 C 388.210938 177.585938 388.375 177.601562 388.46875 177.628906 L 388.761719 177.667969 L 388.914062 177.472656 C 388.914062 177.214844 388.367188 176.644531 387.269531 175.769531 C 386.523438 176.625 385.890625 177.269531 385.367188 177.699219 C 385.144531 177.566406 384.660156 177.363281 383.914062 177.082031 M 386.234375 190.4375 L 393.582031 190.4375 C 392.761719 191.722656 391.605469 193.015625 390.117188 194.320312 C 388.644531 193.257812 387.351562 191.964844 386.234375 190.4375 M 378.242188 186.972656 C 375.878906 187.921875 374.332031 188.492188 373.605469 188.675781 C 374.3125 189.664062 374.835938 190.445312 375.171875 191.023438 L 375.449219 191.191406 C 375.5625 191.191406 375.777344 191.050781 376.09375 190.773438 C 376.410156 190.492188 377.125 189.941406 378.242188 189.125 L 378.242188 196.277344 C 378.242188 196.628906 378.183594 196.875 378.0625 197.015625 C 377.941406 197.15625 377.648438 197.226562 377.183594 197.226562 C 376.714844 197.226562 375.824219 197.125 374.5 196.917969 L 374.445312 197.363281 C 375.523438 197.738281 376.242188 198.0625 376.59375 198.34375 C 376.949219 198.621094 377.21875 199.078125 377.40625 199.710938 C 377.480469 199.992188 377.59375 200.132812 377.742188 200.132812 C 377.984375 200.132812 378.503906 199.855469 379.304688 199.308594 C 380.105469 198.757812 380.507812 198.054688 380.507812 197.199219 L 380.507812 187.503906 L 383.46875 185.351562 L 383.273438 184.90625 L 380.507812 186.050781 L 380.507812 181.945312 L 383.273438 181.945312 C 383.609375 181.945312 383.777344 181.878906 383.777344 181.75 C 383.777344 181.617188 383.542969 181.257812 383.078125 180.671875 C 382.613281 180.085938 382.28125 179.792969 382.085938 179.792969 C 381.890625 179.792969 381.71875 179.875 381.570312 180.042969 L 380.648438 181.160156 L 380.507812 181.160156 L 380.507812 176.496094 C 381.121094 176.125 381.429688 175.886719 381.429688 175.785156 C 381.429688 175.679688 381.285156 175.578125 380.996094 175.476562 C 380.707031 175.375 379.769531 175.089844 378.1875 174.625 C 378.226562 175.554688 378.242188 176.5625 378.242188 177.640625 L 378.242188 181.160156 L 375.226562 181.160156 C 374.6875 181.160156 374.222656 181.113281 373.828125 181.023438 L 374.304688 182.082031 C 374.640625 181.992188 375.039062 181.945312 375.507812 181.945312 L 378.242188 181.945312 Z M 410.21875 189.429688 C 408.757812 190.007812 407.09375 190.324219 405.230469 190.382812 L 405.679688 192.421875 C 405.714844 192.605469 405.789062 192.699219 405.902344 192.699219 C 406.011719 192.699219 406.195312 192.648438 406.445312 192.546875 C 406.699219 192.445312 407.234375 192.335938 408.054688 192.226562 C 408.871094 192.113281 410.59375 191.945312 413.222656 191.722656 L 413.222656 196.777344 C 413.222656 196.964844 413.1875 197.101562 413.125 197.183594 C 413.058594 197.265625 412.859375 197.308594 412.523438 197.308594 C 412.1875 197.308594 411.125 197.113281 409.339844 196.722656 L 409.28125 197.335938 C 410.457031 197.785156 411.203125 198.15625 411.53125 198.453125 C 411.855469 198.753906 412.066406 199.226562 412.160156 199.878906 C 412.195312 200.175781 412.300781 200.328125 412.46875 200.328125 C 412.632812 200.328125 413.039062 200.210938 413.683594 199.976562 C 414.324219 199.746094 414.789062 199.507812 415.078125 199.265625 C 415.367188 199.023438 415.5625 198.75 415.664062 198.441406 C 415.769531 198.132812 415.820312 197.71875 415.820312 197.199219 L 415.820312 191.5 L 420.484375 191.136719 C 421.097656 191.75 421.597656 192.3125 421.980469 192.824219 C 422.359375 193.335938 422.609375 193.632812 422.71875 193.707031 C 422.832031 193.78125 422.972656 193.816406 423.140625 193.816406 C 423.304688 193.816406 423.480469 193.691406 423.65625 193.441406 C 423.832031 193.1875 423.921875 192.789062 423.921875 192.238281 C 423.921875 191.6875 423.777344 191.207031 423.488281 190.785156 C 423.199219 190.367188 422.613281 189.960938 421.726562 189.570312 C 420.84375 189.179688 419.480469 188.734375 417.636719 188.230469 L 417.410156 188.761719 C 418.25 189.246094 419.011719 189.785156 419.703125 190.382812 L 410.457031 190.382812 C 413.902344 188.910156 416.339844 187.902344 417.773438 187.363281 L 420.289062 186.414062 C 420.511719 186.320312 420.824219 186.261719 421.226562 186.230469 C 421.625 186.203125 421.824219 186.117188 421.824219 185.96875 C 421.824219 185.726562 421.042969 184.980469 419.480469 183.730469 C 418.472656 184.589844 417.449219 185.378906 416.40625 186.105469 L 409.898438 186.078125 C 412.113281 185.203125 413.5 184.640625 414.058594 184.386719 C 414.617188 184.136719 415 183.992188 415.203125 183.957031 C 415.558594 183.917969 415.734375 183.835938 415.734375 183.703125 C 415.734375 183.519531 415.15625 183.050781 414.003906 182.308594 L 423.503906 182.308594 C 423.203125 183.109375 422.71875 184.152344 422.050781 185.4375 L 422.636719 185.742188 C 423.867188 184.605469 424.746094 183.882812 425.277344 183.5625 C 425.808594 183.246094 426.324219 183.074219 426.828125 183.046875 C 427.328125 183.019531 427.582031 182.894531 427.582031 182.671875 C 427.582031 182.445312 427.433594 182.210938 427.132812 181.957031 C 426.835938 181.707031 426.375 181.347656 425.75 180.882812 C 425.128906 180.417969 424.746094 180.183594 424.605469 180.183594 C 424.464844 180.183594 424.304688 180.304688 424.117188 180.546875 L 423.472656 181.414062 L 415.960938 181.414062 L 415.960938 178.675781 L 425.625 178.675781 C 426.035156 178.675781 426.238281 178.605469 426.238281 178.464844 C 426.238281 178.324219 425.808594 177.90625 424.941406 177.207031 C 424.074219 176.511719 423.53125 176.160156 423.304688 176.160156 C 423.175781 176.160156 423.027344 176.273438 422.859375 176.496094 L 421.796875 177.863281 L 415.960938 177.863281 L 415.960938 176.1875 C 416.59375 175.742188 416.910156 175.433594 416.910156 175.265625 C 416.910156 174.96875 415.707031 174.578125 413.304688 174.09375 C 413.34375 174.855469 413.359375 176.113281 413.359375 177.863281 L 406.042969 177.863281 C 405.5 177.863281 405.035156 177.820312 404.644531 177.726562 L 405.148438 178.871094 C 405.425781 178.742188 405.816406 178.675781 406.320312 178.675781 L 413.359375 178.675781 L 413.359375 181.414062 L 406.40625 181.414062 C 406.421875 181.097656 406.414062 180.519531 406.375 179.679688 L 405.734375 179.652344 C 405.566406 180.621094 405.265625 181.4375 404.824219 182.097656 C 404.386719 182.757812 403.714844 183.351562 402.800781 183.871094 C 402.128906 184.261719 401.792969 184.613281 401.792969 184.917969 C 401.792969 185.226562 401.929688 185.484375 402.199219 185.6875 C 402.46875 185.890625 402.839844 185.996094 403.304688 185.996094 C 404.011719 185.996094 404.660156 185.710938 405.246094 185.144531 C 405.832031 184.574219 406.199219 183.628906 406.347656 182.308594 L 413.164062 182.308594 C 412.511719 182.957031 411.742188 183.585938 410.847656 184.191406 C 409.953125 184.796875 409.285156 185.179688 408.847656 185.339844 C 408.410156 185.496094 407.660156 185.667969 406.601562 185.855469 C 406.710938 186.339844 406.832031 186.769531 406.964844 187.140625 C 407.09375 187.511719 407.183594 187.730469 407.230469 187.796875 L 407.425781 187.894531 L 407.71875 187.867188 C 408.761719 187.679688 411.273438 187.34375 415.261719 186.859375 C 413.359375 187.996094 411.679688 188.855469 410.21875 189.429688 M 401.597656 198.761719 L 401.878906 199.265625 C 405.492188 197.664062 408.175781 196.277344 409.925781 195.101562 C 410.425781 194.765625 410.847656 194.597656 411.183594 194.597656 C 411.515625 194.597656 411.683594 194.523438 411.683594 194.375 C 411.683594 194.097656 410.761719 193.511719 408.917969 192.617188 C 407.261719 194.628906 404.820312 196.675781 401.597656 198.761719 M 416.628906 193.566406 C 418.882812 194.90625 420.679688 196.621094 422.019531 198.707031 C 422.355469 199.226562 422.664062 199.488281 422.941406 199.488281 C 423.222656 199.488281 423.460938 199.320312 423.65625 198.984375 C 423.851562 198.648438 423.949219 198.167969 423.949219 197.53125 C 423.949219 196.898438 423.777344 196.375 423.433594 195.953125 C 423.085938 195.535156 422.421875 195.105469 421.433594 194.667969 C 420.449219 194.230469 418.921875 193.6875 416.851562 193.035156 Z M 438.8125 174.570312 C 439.390625 175.144531 439.898438 175.734375 440.335938 176.328125 C 440.773438 176.925781 441.140625 177.535156 441.4375 178.160156 C 441.734375 178.78125 441.925781 179.144531 442.011719 179.246094 C 442.09375 179.351562 442.210938 179.402344 442.359375 179.402344 C 442.769531 179.402344 443.15625 179.164062 443.519531 178.6875 C 443.882812 178.214844 444.0625 177.664062 444.0625 177.039062 C 444.0625 176.417969 443.742188 175.90625 443.101562 175.503906 C 442.457031 175.105469 441.101562 174.632812 439.035156 174.09375 Z M 437.371094 192.503906 C 436.132812 195.074219 433.941406 197.402344 430.792969 199.488281 L 430.988281 199.933594 C 434.453125 198.425781 436.96875 196.671875 438.53125 194.667969 C 440.097656 192.667969 441.140625 189.746094 441.660156 185.910156 L 447.332031 185.910156 C 447.238281 188.257812 447.113281 190.292969 446.957031 192.015625 C 446.796875 193.738281 446.65625 194.828125 446.535156 195.285156 C 446.414062 195.738281 446.222656 196.066406 445.964844 196.261719 C 445.703125 196.457031 445.253906 196.554688 444.621094 196.554688 C 443.988281 196.554688 442.761719 196.339844 440.933594 195.914062 L 440.878906 196.472656 C 442.183594 196.957031 443.058594 197.402344 443.503906 197.8125 C 443.953125 198.222656 444.210938 198.761719 444.289062 199.433594 C 444.324219 199.84375 444.453125 200.046875 444.679688 200.046875 C 445.03125 200.046875 445.769531 199.753906 446.886719 199.167969 C 448.003906 198.582031 448.734375 197.664062 449.078125 196.414062 C 449.421875 195.167969 449.714844 191.863281 449.957031 186.496094 C 450.832031 186.144531 451.273438 185.875 451.273438 185.6875 C 451.273438 185.519531 450.816406 185.101562 449.902344 184.429688 C 448.988281 183.761719 448.449219 183.425781 448.28125 183.425781 C 448.171875 183.425781 448.058594 183.519531 447.945312 183.703125 L 447.054688 185.046875 L 441.773438 185.046875 C 441.882812 184.09375 441.972656 183.410156 442.039062 182.992188 C 442.105469 182.574219 442.285156 182.285156 442.582031 182.125 C 442.882812 181.96875 443.03125 181.824219 443.03125 181.691406 C 443.03125 181.5625 442.824219 181.425781 442.414062 181.289062 C 442.003906 181.148438 441.417969 180.984375 440.65625 180.796875 L 454.09375 180.796875 C 454.613281 180.796875 454.875 180.632812 454.875 180.296875 C 454.875 180.070312 454.671875 179.769531 454.261719 179.386719 C 453.851562 179.007812 453.34375 178.585938 452.738281 178.128906 C 452.132812 177.675781 451.777344 177.445312 451.675781 177.445312 C 451.574219 177.445312 451.457031 177.53125 451.328125 177.699219 L 449.847656 179.933594 L 431.800781 179.933594 C 431.257812 179.933594 430.792969 179.886719 430.402344 179.792969 L 431.15625 180.992188 C 431.4375 180.863281 431.828125 180.796875 432.332031 180.796875 L 439.371094 180.796875 C 439.277344 186.03125 438.613281 189.933594 437.371094 192.503906 M 460.15625 177.835938 C 460.191406 178.582031 460.210938 179.421875 460.210938 180.351562 L 460.210938 195.855469 C 460.210938 196.804688 460.1875 197.648438 460.140625 198.386719 C 460.09375 199.121094 460.070312 199.53125 460.070312 199.613281 L 460.199219 199.738281 C 460.28125 199.738281 460.5 199.679688 460.855469 199.558594 C 461.207031 199.4375 461.582031 199.261719 461.972656 199.027344 C 462.363281 198.792969 462.570312 198.640625 462.601562 198.566406 L 462.640625 198.257812 L 462.640625 180.101562 L 462.753906 180.015625 L 477.699219 180.015625 L 477.699219 195.660156 C 477.699219 196.109375 477.628906 196.414062 477.492188 196.582031 C 477.351562 196.75 477.015625 196.835938 476.484375 196.835938 C 475.953125 196.835938 474.832031 196.683594 473.117188 196.386719 L 473.007812 196.917969 C 474.179688 197.308594 475.042969 197.699219 475.589844 198.089844 C 476.140625 198.484375 476.453125 198.996094 476.527344 199.628906 C 476.5625 199.964844 476.675781 200.132812 476.863281 200.132812 C 477.160156 200.132812 477.699219 199.925781 478.480469 199.515625 C 479.265625 199.105469 479.75 198.679688 479.933594 198.230469 C 480.121094 197.785156 480.214844 197.058594 480.214844 196.050781 L 480.214844 180.882812 C 481.144531 180.378906 481.609375 180.027344 481.609375 179.820312 L 481.472656 179.582031 C 481.378906 179.5 481.074219 179.265625 480.5625 178.886719 C 480.050781 178.503906 479.636719 178.21875 479.320312 178.03125 C 479.003906 177.847656 478.792969 177.753906 478.691406 177.753906 C 478.589844 177.753906 478.453125 177.875 478.285156 178.117188 L 477.558594 179.121094 L 466.972656 179.121094 C 468.21875 177.203125 469.28125 176.132812 470.15625 175.910156 C 470.585938 175.816406 470.800781 175.6875 470.800781 175.519531 L 470.644531 175.324219 C 470.542969 175.25 470.074219 175.070312 469.234375 174.792969 C 468.398438 174.511719 467.613281 174.28125 466.886719 174.09375 C 466.683594 175.472656 466.21875 177.148438 465.492188 179.121094 L 462.753906 179.121094 C 461.972656 178.636719 461.105469 178.210938 460.15625 177.835938 M 465.378906 182.585938 C 465.4375 183.386719 465.464844 184.1875 465.464844 184.988281 L 465.464844 191.777344 C 465.464844 192.28125 465.453125 192.691406 465.4375 193.007812 L 465.40625 194.011719 L 465.546875 194.179688 C 465.640625 194.179688 465.832031 194.121094 466.121094 194 C 466.410156 193.878906 466.714844 193.714844 467.042969 193.511719 C 467.367188 193.304688 467.558594 193.164062 467.613281 193.089844 C 467.671875 193.015625 467.699219 192.90625 467.699219 192.753906 L 467.699219 191.191406 L 471.972656 191.191406 L 471.972656 192.949219 C 471.972656 193.136719 472.042969 193.230469 472.183594 193.230469 C 472.320312 193.230469 472.628906 193.148438 473.105469 192.980469 C 473.578125 192.8125 473.902344 192.671875 474.066406 192.558594 C 474.234375 192.449219 474.320312 192.328125 474.320312 192.195312 L 474.265625 191.414062 C 474.246094 191.097656 474.234375 190.753906 474.234375 190.382812 L 474.234375 185.128906 C 474.8125 184.832031 475.101562 184.613281 475.101562 184.472656 C 475.101562 184.332031 474.976562 184.160156 474.726562 183.957031 C 474.472656 183.75 474.101562 183.472656 473.605469 183.117188 C 473.113281 182.761719 472.804688 182.585938 472.683594 182.585938 C 472.5625 182.585938 472.4375 182.6875 472.308594 182.894531 L 471.664062 183.648438 L 468.089844 183.648438 C 467.417969 183.277344 466.515625 182.921875 465.378906 182.585938 M 467.699219 184.542969 L 471.972656 184.542969 L 471.972656 190.324219 L 467.699219 190.324219 Z M 467.699219 184.542969 "/>
</g>
</svg>
