<?xml version="1.0" encoding="UTF-8"?>
<svg xmlns="http://www.w3.org/2000/svg" xmlns:xlink="http://www.w3.org/1999/xlink" width="440.019pt" height="397.041pt" viewBox="0 0 440.019 397.041" version="1.1">
<defs>
<clipPath id="clip1">
  <path d="M 412 252 L 440.019531 252 L 440.019531 272 L 412 272 Z M 412 252 "/>
</clipPath>
</defs>
<g id="surface1">
<path style=" stroke:none;fill-rule:nonzero;fill:rgb(100%,100%,100%);fill-opacity:1;" d="M 3.304688 260.261719 L 413.679688 260.261719 L 413.679688 263.792969 L 3.304688 263.792969 Z M 3.304688 260.261719 "/>
<g clip-path="url(#clip1)" clip-rule="nonzero">
<path style=" stroke:none;fill-rule:evenodd;fill:rgb(100%,100%,100%);fill-opacity:1;" d="M 440.019531 262.027344 L 412.445312 252.785156 L 412.445312 271.269531 Z M 440.019531 262.027344 "/>
</g>
<path style=" stroke:none;fill-rule:nonzero;fill:rgb(100%,100%,100%);fill-opacity:1;" d="M 132.476562 26.34375 L 136.007812 26.34375 L 136.007812 393.734375 L 132.476562 393.734375 Z M 132.476562 26.34375 "/>
<path style=" stroke:none;fill-rule:evenodd;fill:rgb(100%,100%,100%);fill-opacity:1;" d="M 134.242188 0 L 125.152344 27.574219 L 143.484375 27.574219 Z M 134.242188 0 "/>
<path style=" stroke:none;fill-rule:nonzero;fill:rgb(100%,100%,20%);fill-opacity:0.5;" d="M 136.007812 260.261719 L 396.269531 260.261719 L 396.269531 43.59375 L 136.007812 43.59375 Z M 136.007812 263.792969 L 136.007812 349.371094 L 396.269531 349.371094 L 396.269531 263.792969 Z M 136.007812 263.792969 "/>
<path style=" stroke:none;fill-rule:nonzero;fill:rgb(100%,100%,20%);fill-opacity:0.5;" d="M 396.269531 260.261719 L 136.007812 260.261719 L 136.007812 263.792969 L 396.269531 263.792969 Z M 396.269531 260.261719 "/>
<path style=" stroke:none;fill-rule:nonzero;fill:rgb(100%,100%,20%);fill-opacity:0.5;" d="M 46.898438 260.261719 L 132.476562 260.261719 L 132.476562 43.59375 L 46.898438 43.59375 Z M 46.898438 349.371094 L 132.476562 349.371094 L 132.476562 263.792969 L 46.898438 263.792969 Z M 46.898438 349.371094 "/>
<path style=" stroke:none;fill-rule:nonzero;fill:rgb(100%,100%,20%);fill-opacity:0.5;" d="M 132.476562 260.261719 L 46.902344 260.261719 L 46.902344 263.792969 L 132.476562 263.792969 Z M 132.476562 260.261719 "/>
<path style=" stroke:none;fill-rule:nonzero;fill:rgb(100%,100%,20%);fill-opacity:0.5;" d="M 132.476562 43.59375 L 132.476562 349.371094 L 136.007812 349.371094 L 136.007812 43.59375 Z M 132.476562 43.59375 "/>
<path style="fill-rule:evenodd;fill:rgb(79.998779%,100%,79.998779%);fill-opacity:1;stroke-width:2.311;stroke-linecap:butt;stroke-linejoin:round;stroke:rgb(100%,100%,100%);stroke-opacity:1;stroke-miterlimit:10;" d="M -0.0017625 0.00000625 L 78.716987 213.96485 L 222.748237 266.33985 L 314.404487 231.52735 L 327.498237 144.1836 Z M -0.0017625 0.00000625 " transform="matrix(1,0,0,-1,46.9002,349.3711)"/>
<path style=" stroke:none;fill-rule:nonzero;fill:rgb(0%,0%,0%);fill-opacity:1;" d="M 216.425781 205.375 C 216.53125 205.464844 216.644531 205.511719 216.769531 205.511719 C 216.8125 205.511719 217.011719 205.386719 217.359375 205.132812 C 217.707031 204.882812 218.070312 204.757812 218.445312 204.757812 C 219.027344 204.757812 219.59375 204.875 220.148438 205.109375 C 220.878906 205.378906 221.613281 205.511719 222.355469 205.511719 C 223.273438 205.511719 224.164062 205.40625 225.035156 205.191406 C 225.902344 204.980469 226.699219 204.65625 227.421875 204.21875 C 228.140625 203.777344 228.71875 203.214844 229.152344 202.519531 C 229.582031 201.824219 229.800781 201.007812 229.800781 200.074219 C 229.800781 199.136719 229.566406 198.273438 229.097656 197.484375 C 228.628906 196.695312 228.011719 196.007812 227.246094 195.421875 C 226.480469 194.835938 225.636719 194.367188 224.71875 194.023438 C 224.382812 193.890625 223.863281 193.6875 223.164062 193.410156 C 222.464844 193.132812 221.839844 192.84375 221.292969 192.539062 C 220.742188 192.234375 220.277344 191.875 219.894531 191.457031 C 219.511719 191.042969 219.320312 190.601562 219.320312 190.132812 C 219.320312 189.273438 219.601562 188.597656 220.167969 188.101562 C 220.734375 187.605469 221.464844 187.359375 222.355469 187.359375 C 222.925781 187.359375 223.496094 187.488281 224.070312 187.75 C 224.648438 188.011719 225.183594 188.363281 225.683594 188.808594 C 226.179688 189.257812 226.597656 189.753906 226.925781 190.292969 C 227.253906 190.835938 227.460938 191.367188 227.539062 191.886719 C 227.550781 191.992188 227.605469 192.078125 227.707031 192.140625 C 227.808594 192.207031 227.90625 192.238281 227.996094 192.238281 C 228.101562 192.238281 228.207031 192.199219 228.308594 192.117188 C 228.410156 192.03125 228.464844 191.921875 228.464844 191.785156 L 228.464844 186.851562 C 228.464844 186.730469 228.410156 186.628906 228.308594 186.546875 C 228.207031 186.464844 228.101562 186.421875 227.996094 186.421875 C 227.914062 186.421875 227.703125 186.550781 227.351562 186.800781 C 227.007812 187.050781 226.652344 187.175781 226.296875 187.175781 C 225.761719 187.175781 225.1875 187.058594 224.574219 186.824219 C 223.878906 186.558594 223.136719 186.421875 222.355469 186.421875 C 220.449219 186.421875 218.921875 186.875 217.777344 187.78125 C 216.628906 188.6875 216.058594 190.050781 216.058594 191.863281 C 216.058594 192.519531 216.214844 193.132812 216.527344 193.691406 C 216.839844 194.25 217.238281 194.738281 217.730469 195.152344 C 218.21875 195.570312 218.765625 195.941406 219.367188 196.265625 C 219.96875 196.59375 220.621094 196.894531 221.324219 197.171875 C 222.660156 197.691406 223.785156 198.292969 224.695312 198.972656 C 225.601562 199.652344 226.054688 200.515625 226.054688 201.554688 C 226.054688 202.328125 225.910156 202.9375 225.617188 203.382812 C 225.320312 203.832031 224.910156 204.140625 224.386719 204.3125 C 223.859375 204.488281 223.191406 204.574219 222.382812 204.574219 C 221.792969 204.574219 221.191406 204.417969 220.578125 204.105469 C 219.960938 203.792969 219.402344 203.386719 218.898438 202.882812 C 218.394531 202.378906 217.992188 201.828125 217.691406 201.222656 C 217.386719 200.621094 217.234375 200.042969 217.234375 199.488281 L 217.234375 199.265625 C 217.234375 199.136719 217.191406 199.023438 217.105469 198.925781 C 217.019531 198.832031 216.910156 198.785156 216.773438 198.785156 C 216.441406 198.785156 216.273438 199.011719 216.273438 199.460938 L 216.273438 205.054688 C 216.273438 205.179688 216.324219 205.285156 216.425781 205.375 M 217.234375 202.335938 C 217.601562 202.875 218.03125 203.375 218.53125 203.832031 L 218.453125 203.832031 C 218.066406 203.832031 217.664062 203.921875 217.234375 204.09375 Z M 219.378906 195.1875 C 218.742188 194.816406 218.191406 194.355469 217.722656 193.792969 C 217.253906 193.234375 217.019531 192.589844 217.019531 191.863281 C 217.019531 191.0625 217.175781 190.332031 217.484375 189.664062 C 217.789062 188.996094 218.273438 188.472656 218.933594 188.101562 C 218.550781 188.726562 218.359375 189.402344 218.359375 190.132812 C 218.359375 190.945312 218.679688 191.65625 219.324219 192.265625 C 219.96875 192.875 220.675781 193.351562 221.441406 193.703125 C 222.207031 194.054688 223.183594 194.449219 224.378906 194.894531 C 225.640625 195.378906 226.703125 196.070312 227.554688 196.964844 C 228.410156 197.855469 228.835938 198.894531 228.835938 200.074219 C 228.835938 200.835938 228.640625 201.519531 228.246094 202.128906 C 227.851562 202.734375 227.296875 203.238281 226.578125 203.636719 C 226.871094 203.058594 227.019531 202.363281 227.019531 201.554688 C 227.019531 200.289062 226.519531 199.253906 225.523438 198.453125 C 224.523438 197.648438 223.230469 196.929688 221.644531 196.285156 C 220.773438 195.921875 220.015625 195.554688 219.378906 195.1875 M 226.296875 188.101562 C 226.679688 188.101562 227.082031 188.015625 227.5 187.839844 L 227.5 189.441406 C 227.160156 188.972656 226.761719 188.527344 226.296875 188.101562 "/>
<path style=" stroke:none;fill-rule:nonzero;fill:rgb(100%,100%,0%);fill-opacity:1;" d="M 266.566406 328.371094 C 267.707031 328.941406 268.929688 329.230469 270.238281 329.230469 L 270.476562 329.230469 L 270.628906 329.164062 L 270.703125 329.019531 L 270.703125 328.773438 L 270.628906 328.597656 L 270.476562 328.539062 C 269.519531 328.539062 268.664062 328.289062 267.910156 327.792969 C 267.15625 327.292969 266.78125 326.601562 266.78125 325.714844 L 266.78125 319.207031 C 266.78125 318.355469 266.460938 317.644531 265.820312 317.078125 C 265.179688 316.507812 264.40625 316.117188 263.496094 315.898438 C 264.070312 315.761719 264.609375 315.542969 265.105469 315.25 C 265.605469 314.953125 266.007812 314.582031 266.316406 314.128906 C 266.625 313.679688 266.78125 313.167969 266.78125 312.59375 L 266.78125 306.09375 C 266.78125 305.496094 266.960938 304.984375 267.328125 304.558594 C 267.691406 304.132812 268.15625 303.8125 268.730469 303.59375 C 269.300781 303.378906 269.882812 303.269531 270.476562 303.269531 C 270.628906 303.269531 270.703125 303.191406 270.703125 303.035156 L 270.703125 302.789062 L 270.628906 302.640625 L 270.476562 302.582031 L 270.238281 302.582031 C 269.425781 302.582031 268.605469 302.699219 267.777344 302.933594 C 266.953125 303.167969 266.257812 303.542969 265.695312 304.058594 C 265.132812 304.574219 264.855469 305.234375 264.855469 306.042969 L 264.855469 312.546875 C 264.855469 313.441406 264.480469 314.167969 263.734375 314.722656 C 262.988281 315.277344 262.132812 315.554688 261.171875 315.554688 L 260.984375 315.625 L 260.917969 315.769531 L 260.917969 316 C 260.917969 316.164062 261.003906 316.242188 261.171875 316.242188 C 262.132812 316.242188 262.988281 316.519531 263.734375 317.078125 C 264.480469 317.632812 264.855469 318.359375 264.855469 319.253906 L 264.855469 325.765625 C 264.855469 326.929688 265.421875 327.796875 266.566406 328.371094 "/>
<path style=" stroke:none;fill-rule:nonzero;fill:rgb(100%,100%,0%);fill-opacity:1;" d="M 278.839844 322.566406 L 278.839844 321.214844 C 278.667969 321.214844 278.453125 321.191406 278.1875 321.148438 C 277.921875 321.105469 277.792969 321.054688 277.792969 320.992188 L 280.546875 317.960938 L 283.378906 321.214844 L 282.359375 321.214844 L 282.359375 322.566406 L 288.84375 322.566406 L 288.84375 321.214844 L 286.789062 321.214844 L 282.332031 316.007812 L 285.6875 312.339844 C 285.851562 312.175781 286.710938 312.09375 288.269531 312.09375 L 288.269531 310.738281 L 282.773438 310.738281 L 282.773438 312.09375 C 282.933594 312.09375 283.148438 312.109375 283.414062 312.144531 C 283.675781 312.179688 283.808594 312.234375 283.808594 312.3125 L 281.417969 314.941406 L 278.945312 312.09375 L 279.941406 312.09375 L 279.941406 310.738281 L 273.46875 310.738281 L 273.46875 312.09375 L 275.507812 312.09375 L 279.632812 316.894531 L 275.925781 320.96875 C 275.753906 321.132812 274.890625 321.214844 273.332031 321.214844 L 273.332031 322.566406 Z M 278.839844 322.566406 "/>
<path style=" stroke:none;fill-rule:nonzero;fill:rgb(100%,100%,0%);fill-opacity:1;" d="M 291.210938 329.230469 L 291.449219 329.230469 C 292.761719 329.230469 293.984375 328.945312 295.117188 328.375 C 296.253906 327.808594 296.820312 326.9375 296.820312 325.765625 L 296.820312 319.253906 C 296.820312 318.359375 297.195312 317.632812 297.949219 317.078125 C 298.703125 316.523438 299.558594 316.242188 300.515625 316.242188 L 300.675781 316.171875 L 300.742188 316 L 300.742188 315.769531 L 300.667969 315.617188 L 300.515625 315.554688 C 299.558594 315.554688 298.703125 315.277344 297.949219 314.722656 C 297.195312 314.164062 296.820312 313.441406 296.820312 312.546875 L 296.820312 306.042969 C 296.820312 305.242188 296.539062 304.585938 295.980469 304.0625 C 295.425781 303.542969 294.730469 303.167969 293.902344 302.933594 C 293.074219 302.699219 292.257812 302.582031 291.449219 302.582031 L 291.210938 302.582031 C 291.042969 302.582031 290.957031 302.652344 290.957031 302.789062 L 290.957031 303.035156 C 290.957031 303.191406 291.042969 303.269531 291.210938 303.269531 C 291.804688 303.269531 292.386719 303.378906 292.953125 303.597656 C 293.515625 303.8125 293.980469 304.132812 294.34375 304.558594 C 294.710938 304.984375 294.890625 305.496094 294.890625 306.09375 L 294.890625 312.597656 C 294.890625 313.445312 295.210938 314.148438 295.84375 314.707031 C 296.480469 315.269531 297.257812 315.664062 298.175781 315.898438 C 297.273438 316.117188 296.503906 316.507812 295.859375 317.078125 C 295.214844 317.644531 294.890625 318.355469 294.890625 319.207031 L 294.890625 325.714844 C 294.890625 326.3125 294.710938 326.824219 294.34375 327.25 C 293.980469 327.675781 293.515625 327.996094 292.945312 328.214844 C 292.375 328.433594 291.796875 328.539062 291.210938 328.539062 L 291.03125 328.605469 L 290.957031 328.773438 L 290.957031 329.023438 C 290.957031 329.160156 291.042969 329.230469 291.210938 329.230469 "/>
<path style=" stroke:none;fill-rule:nonzero;fill:rgb(100%,100%,0%);fill-opacity:1;" d="M 319.097656 316.4375 L 319.097656 324.296875 C 319.097656 324.4375 319.152344 324.550781 319.257812 324.644531 C 319.367188 324.734375 319.496094 324.78125 319.648438 324.78125 C 319.785156 324.78125 319.910156 324.734375 320.027344 324.644531 C 320.144531 324.550781 320.203125 324.4375 320.203125 324.296875 L 320.203125 316.4375 L 328.300781 316.4375 C 328.433594 316.4375 328.550781 316.382812 328.648438 316.269531 C 328.75 316.15625 328.796875 316.035156 328.796875 315.90625 C 328.796875 315.773438 328.75 315.652344 328.648438 315.539062 C 328.550781 315.429688 328.433594 315.371094 328.300781 315.371094 L 320.203125 315.371094 L 320.203125 307.511719 C 320.203125 307.375 320.144531 307.257812 320.027344 307.167969 C 319.910156 307.078125 319.785156 307.03125 319.648438 307.03125 C 319.496094 307.03125 319.367188 307.078125 319.257812 307.167969 C 319.152344 307.257812 319.097656 307.375 319.097656 307.511719 L 319.097656 315.371094 L 311 315.371094 C 310.847656 315.371094 310.722656 315.429688 310.625 315.539062 C 310.523438 315.652344 310.476562 315.773438 310.476562 315.90625 C 310.476562 316.035156 310.523438 316.15625 310.625 316.269531 C 310.722656 316.382812 310.847656 316.4375 311 316.4375 Z M 319.097656 316.4375 "/>
<path style=" stroke:none;fill-rule:nonzero;fill:rgb(100%,100%,0%);fill-opacity:1;" d="M 345.523438 322.566406 C 345.816406 322.507812 345.964844 322.347656 345.964844 322.085938 C 345.964844 321.964844 345.921875 321.859375 345.839844 321.769531 C 345.753906 321.675781 345.648438 321.628906 345.523438 321.628906 C 344.925781 321.628906 344.503906 321.605469 344.253906 321.558594 C 344.003906 321.511719 343.820312 321.382812 343.707031 321.167969 C 343.589844 320.957031 343.53125 320.609375 343.53125 320.121094 L 343.53125 314.199219 L 344.519531 314.199219 L 349.933594 322.386719 C 350.058594 322.507812 350.171875 322.566406 350.269531 322.566406 L 355 322.566406 C 355.296875 322.507812 355.441406 322.347656 355.441406 322.085938 C 355.441406 321.972656 355.398438 321.871094 355.308594 321.773438 C 355.21875 321.679688 355.117188 321.628906 355 321.628906 C 354.574219 321.628906 353.933594 321.136719 353.082031 320.148438 C 352.230469 319.160156 351.449219 318.140625 350.738281 317.09375 C 350.023438 316.050781 349.3125 314.984375 348.597656 313.902344 C 349.578125 313.738281 350.425781 313.476562 351.136719 313.121094 C 351.851562 312.765625 352.40625 312.269531 352.808594 311.636719 C 353.210938 311.003906 353.410156 310.214844 353.410156 309.269531 C 353.410156 308.117188 353.042969 307.167969 352.308594 306.425781 C 351.574219 305.683594 350.640625 305.148438 349.515625 304.8125 C 348.386719 304.480469 347.257812 304.3125 346.125 304.3125 L 337.078125 304.3125 C 336.78125 304.371094 336.636719 304.523438 336.636719 304.765625 C 336.636719 304.871094 336.675781 304.976562 336.761719 305.085938 C 336.847656 305.195312 336.953125 305.25 337.078125 305.25 C 337.671875 305.25 338.097656 305.273438 338.347656 305.320312 C 338.59375 305.367188 338.777344 305.496094 338.894531 305.710938 C 339.011719 305.921875 339.066406 306.277344 339.066406 306.769531 L 339.066406 320.054688 C 339.066406 320.578125 339.015625 320.945312 338.914062 321.164062 C 338.8125 321.378906 338.640625 321.511719 338.40625 321.558594 C 338.171875 321.605469 337.753906 321.628906 337.15625 321.628906 L 337.078125 321.628906 C 336.78125 321.691406 336.636719 321.84375 336.636719 322.085938 C 336.636719 322.199219 336.679688 322.308594 336.769531 322.410156 C 336.859375 322.515625 336.960938 322.566406 337.078125 322.566406 Z M 340.03125 320.121094 L 340.03125 306.769531 C 340.03125 306.113281 339.945312 305.605469 339.777344 305.25 L 342.929688 305.25 C 342.691406 305.550781 342.570312 305.890625 342.570312 306.261719 L 342.570312 320.121094 C 342.570312 320.773438 342.652344 321.277344 342.824219 321.628906 L 339.777344 321.628906 C 339.945312 321.277344 340.03125 320.773438 340.03125 320.121094 M 345.644531 314.175781 C 346.132812 314.15625 346.769531 314.113281 347.554688 314.042969 C 348.535156 315.527344 349.253906 316.613281 349.714844 317.296875 C 350.171875 317.984375 350.714844 318.730469 351.34375 319.535156 C 351.972656 320.34375 352.597656 321.039062 353.222656 321.628906 L 350.558594 321.628906 Z M 343.53125 306.316406 C 343.53125 305.960938 343.691406 305.691406 344.015625 305.515625 C 344.335938 305.335938 344.695312 305.25 345.097656 305.25 C 346.476562 305.25 347.425781 305.566406 347.9375 306.203125 C 348.449219 306.84375 348.707031 307.863281 348.707031 309.269531 C 348.707031 310.242188 348.605469 310.996094 348.410156 311.539062 C 348.214844 312.082031 347.917969 312.472656 347.523438 312.710938 C 347.125 312.949219 346.640625 313.101562 346.070312 313.167969 C 345.503906 313.230469 344.65625 313.261719 343.53125 313.261719 Z M 349.519531 311.390625 C 349.621094 310.816406 349.667969 310.109375 349.667969 309.269531 C 349.667969 307.570312 349.3125 306.316406 348.597656 305.507812 C 349.691406 305.761719 350.605469 306.195312 351.34375 306.816406 C 352.078125 307.4375 352.449219 308.253906 352.449219 309.269531 C 352.449219 310.015625 352.296875 310.632812 351.996094 311.125 C 351.691406 311.613281 351.273438 311.996094 350.738281 312.273438 C 350.199219 312.550781 349.550781 312.769531 348.785156 312.925781 C 349.179688 312.472656 349.421875 311.960938 349.519531 311.390625 "/>
<path style=" stroke:none;fill-rule:nonzero;fill:rgb(100%,100%,0%);fill-opacity:1;" d="M 365.257812 311.628906 L 365.835938 308.164062 L 365.097656 308.164062 C 365.027344 308.59375 364.960938 308.957031 364.890625 309.253906 C 364.820312 309.550781 364.730469 309.757812 364.617188 309.875 C 364.585938 309.90625 364.367188 309.925781 363.964844 309.941406 C 363.5625 309.957031 363.09375 309.964844 362.5625 309.96875 C 362.027344 309.972656 361.519531 309.972656 361.035156 309.972656 L 359.257812 309.972656 L 361.621094 308.035156 C 361.824219 307.867188 362.257812 307.53125 362.925781 307.03125 C 363.59375 306.53125 364.117188 306.097656 364.492188 305.734375 C 364.871094 305.371094 365.191406 304.949219 365.449219 304.472656 C 365.707031 303.996094 365.835938 303.484375 365.835938 302.929688 C 365.835938 302.164062 365.621094 301.503906 365.1875 300.941406 C 364.757812 300.378906 364.191406 299.957031 363.492188 299.675781 C 362.792969 299.394531 362.054688 299.253906 361.273438 299.253906 C 360.617188 299.253906 359.980469 299.390625 359.363281 299.667969 C 358.746094 299.945312 358.246094 300.335938 357.859375 300.84375 C 357.476562 301.355469 357.285156 301.945312 357.285156 302.613281 C 357.285156 302.890625 357.386719 303.128906 357.597656 303.332031 C 357.804688 303.53125 358.054688 303.628906 358.351562 303.628906 C 358.65625 303.628906 358.90625 303.53125 359.109375 303.332031 C 359.308594 303.128906 359.410156 302.890625 359.410156 302.613281 C 359.410156 302.320312 359.3125 302.078125 359.113281 301.878906 C 358.914062 301.679688 358.660156 301.582031 358.351562 301.582031 L 358.296875 301.582031 C 358.535156 301.089844 358.890625 300.703125 359.367188 300.421875 C 359.84375 300.140625 360.367188 300 360.941406 300 C 361.367188 300 361.761719 300.070312 362.121094 300.214844 C 362.480469 300.355469 362.789062 300.558594 363.054688 300.828125 C 363.3125 301.09375 363.515625 301.410156 363.660156 301.769531 C 363.808594 302.128906 363.878906 302.515625 363.878906 302.929688 C 363.878906 303.683594 363.667969 304.375 363.242188 305.007812 C 362.816406 305.644531 362.222656 306.328125 361.460938 307.0625 C 361.316406 307.203125 361.203125 307.308594 361.125 307.382812 C 361.046875 307.460938 360.941406 307.566406 360.808594 307.699219 L 357.359375 310.9375 L 357.285156 311.09375 L 357.285156 311.628906 Z M 365.257812 311.628906 "/>
<path style=" stroke:none;fill-rule:nonzero;fill:rgb(100%,100%,0%);fill-opacity:1;" d="M 364.234375 331.308594 C 364.320312 331.390625 364.429688 331.429688 364.558594 331.429688 C 364.824219 331.429688 364.980469 331.285156 365.023438 331.003906 L 365.023438 324.996094 L 371.222656 324.996094 C 371.347656 324.976562 371.453125 324.925781 371.539062 324.84375 C 371.621094 324.761719 371.664062 324.660156 371.664062 324.53125 C 371.664062 324.277344 371.515625 324.128906 371.222656 324.085938 L 365.023438 324.085938 L 365.023438 318.078125 C 364.980469 317.792969 364.824219 317.652344 364.558594 317.652344 C 364.429688 317.652344 364.320312 317.691406 364.234375 317.773438 C 364.148438 317.855469 364.097656 317.957031 364.078125 318.078125 L 364.078125 324.085938 L 357.859375 324.085938 C 357.566406 324.128906 357.417969 324.277344 357.417969 324.53125 C 357.417969 324.660156 357.457031 324.761719 357.542969 324.84375 C 357.628906 324.925781 357.734375 324.976562 357.859375 324.996094 L 364.078125 324.996094 L 364.078125 331.003906 C 364.097656 331.121094 364.148438 331.226562 364.234375 331.308594 "/>
<path style=" stroke:none;fill-rule:evenodd;fill:rgb(0%,0%,0%);fill-opacity:1;" d="M 46.4375 341.207031 C 50.136719 341.207031 52.90625 344.132812 52.90625 347.832031 C 52.90625 351.527344 50.136719 354.300781 46.4375 354.300781 C 42.742188 354.300781 39.8125 351.527344 39.8125 347.832031 C 39.8125 344.132812 42.742188 341.207031 46.4375 341.207031 "/>
<path style="fill:none;stroke-width:2.311;stroke-linecap:butt;stroke-linejoin:round;stroke:rgb(100%,100%,100%);stroke-opacity:1;stroke-miterlimit:10;" d="M -0.0006 -0.00013125 C 3.698619 -0.00013125 6.46815 -2.925912 6.46815 -6.625131 C 6.46815 -10.320444 3.698619 -13.093881 -0.0006 -13.093881 C -3.695913 -13.093881 -6.6256 -10.320444 -6.6256 -6.625131 C -6.6256 -2.925912 -3.695913 -0.00013125 -0.0006 -0.00013125 Z M -0.0006 -0.00013125 " transform="matrix(1,0,0,-1,46.4381,341.2069)"/>
<path style=" stroke:none;fill-rule:nonzero;fill:rgb(100%,100%,100%);fill-opacity:1;" d="M 64.257812 374.328125 L 64.257812 372.972656 C 64.085938 372.972656 63.871094 372.953125 63.605469 372.90625 C 63.339844 372.863281 63.207031 372.8125 63.207031 372.753906 L 65.960938 369.71875 L 68.796875 372.972656 L 67.777344 372.972656 L 67.777344 374.328125 L 74.261719 374.328125 L 74.261719 372.972656 L 72.207031 372.972656 L 67.75 367.769531 L 71.105469 364.097656 C 71.269531 363.933594 72.128906 363.851562 73.6875 363.851562 L 73.6875 362.5 L 68.191406 362.5 L 68.191406 363.851562 C 68.351562 363.851562 68.566406 363.871094 68.828125 363.902344 C 69.09375 363.9375 69.226562 363.996094 69.226562 364.070312 L 66.835938 366.703125 L 64.363281 363.851562 L 65.359375 363.851562 L 65.359375 362.5 L 58.882812 362.5 L 58.882812 363.851562 L 60.925781 363.851562 L 65.046875 368.652344 L 61.339844 372.726562 C 61.171875 372.890625 60.308594 372.972656 58.75 372.972656 L 58.75 374.328125 Z M 64.257812 374.328125 "/>
</g>
</svg>
