<?xml version="1.0" encoding="UTF-8"?>
<svg xmlns="http://www.w3.org/2000/svg" xmlns:xlink="http://www.w3.org/1999/xlink" width="388.303pt" height="410.105pt" viewBox="0 0 388.303 410.105" version="1.1">
<g id="surface1">
<path style=" stroke:none;fill-rule:nonzero;fill:rgb(100%,100%,20%);fill-opacity:0.5;" d="M 76.539062 150.699219 L 155 333.414062 L 298.558594 285.507812 L 313.605469 47.519531 Z M 76.539062 150.699219 "/>
<path style=" stroke:none;fill-rule:nonzero;fill:rgb(100%,100%,100%);fill-opacity:1;" d="M 76.539062 150.699219 L 313.605469 47.519531 L 298.558594 285.507812 L 155 333.410156 L 76.539062 150.699219 L 155 333.410156 L 298.558594 285.507812 L 313.605469 47.519531 Z M 76.539062 150.699219 "/>
<path style=" stroke:none;fill-rule:nonzero;fill:rgb(100%,100%,0%);fill-opacity:1;" d="M 184.339844 407.867188 L 36.328125 59.640625 L 38.445312 58.738281 L 186.460938 406.96875 "/>
<path style=" stroke:none;fill-rule:nonzero;fill:rgb(100%,100%,0%);fill-opacity:1;" d="M 333.882812 38.589844 L 3.15625 186.449219 L 2.21875 184.347656 L 332.941406 36.488281 "/>
<path style=" stroke:none;fill-rule:nonzero;fill:rgb(100%,100%,0%);fill-opacity:1;" d="M 317.058594 2.753906 L 295.410156 377.085938 L 293.109375 376.949219 L 314.757812 2.621094 "/>
<path style=" stroke:none;fill-rule:nonzero;fill:rgb(100%,100%,0%);fill-opacity:1;" d="M 385.960938 260.503906 L 81.339844 356.3125 L 80.648438 354.117188 L 385.269531 258.308594 "/>
<path style=" stroke:none;fill-rule:nonzero;fill:rgb(100%,100%,0%);fill-opacity:1;" d="M 184.675781 74.601562 C 185.761719 75.074219 186.980469 75.3125 188.339844 75.3125 C 189.179688 75.3125 189.964844 75.136719 190.691406 74.789062 C 191.421875 74.4375 191.984375 73.925781 192.375 73.25 L 192.375 73.5625 C 192.375 74.152344 192.660156 74.5625 193.234375 74.800781 C 193.804688 75.039062 194.441406 75.15625 195.148438 75.15625 L 197.035156 75.15625 C 197.277344 75.105469 197.421875 74.960938 197.476562 74.730469 L 197.476562 74.222656 C 197.421875 74 197.277344 73.859375 197.035156 73.808594 C 195.777344 73.808594 195.148438 73.59375 195.148438 73.160156 L 195.148438 67 C 195.148438 66.28125 194.964844 65.675781 194.597656 65.175781 C 194.234375 64.679688 193.753906 64.277344 193.15625 63.96875 C 192.558594 63.664062 191.917969 63.445312 191.234375 63.316406 C 190.554688 63.1875 189.867188 63.121094 189.171875 63.121094 C 187.789062 63.121094 186.597656 63.277344 185.601562 63.589844 C 184.601562 63.898438 184.101562 64.578125 184.101562 65.625 C 184.101562 66.101562 184.273438 66.507812 184.609375 66.84375 C 184.945312 67.179688 185.371094 67.351562 185.878906 67.351562 C 186.375 67.351562 186.792969 67.1875 187.128906 66.855469 C 187.46875 66.527344 187.636719 66.117188 187.636719 65.625 C 187.636719 65.097656 187.445312 64.667969 187.0625 64.339844 C 187.589844 64.238281 188.28125 64.183594 189.136719 64.183594 C 190.003906 64.183594 190.679688 64.453125 191.171875 64.988281 C 191.660156 65.527344 191.90625 66.21875 191.90625 67.078125 L 191.90625 68.0625 C 191.113281 68.0625 190.210938 68.121094 189.207031 68.238281 C 188.199219 68.355469 187.234375 68.558594 186.308594 68.847656 C 185.386719 69.136719 184.609375 69.558594 183.984375 70.105469 C 183.359375 70.65625 183.046875 71.347656 183.046875 72.1875 C 183.046875 73.320312 183.589844 74.125 184.675781 74.601562 M 187.277344 70.332031 C 187.882812 69.855469 188.609375 69.515625 189.457031 69.308594 C 190.304688 69.101562 191.121094 68.996094 191.90625 68.996094 L 191.90625 71.683594 C 191.90625 72.183594 191.75 72.632812 191.4375 73.03125 C 191.125 73.425781 190.726562 73.730469 190.234375 73.9375 C 189.742188 74.144531 189.238281 74.25 188.722656 74.25 C 188.105469 74.25 187.558594 74.050781 187.082031 73.660156 C 186.605469 73.265625 186.363281 72.777344 186.363281 72.1875 C 186.363281 71.425781 186.667969 70.808594 187.277344 70.332031 "/>
<path style=" stroke:none;fill-rule:nonzero;fill:rgb(100%,100%,0%);fill-opacity:1;" d="M 206.386719 78.84375 L 206.386719 78.097656 C 204.609375 78.097656 203.71875 77.914062 203.71875 77.546875 L 203.71875 66.730469 C 203.6875 66.613281 203.613281 66.535156 203.492188 66.503906 L 203.144531 66.503906 C 202.675781 66.941406 202.105469 67.246094 201.4375 67.425781 C 200.769531 67.605469 200.050781 67.695312 199.285156 67.695312 L 199.285156 68.4375 C 200.425781 68.4375 201.359375 68.269531 202.082031 67.9375 L 202.082031 77.546875 C 202.082031 77.914062 201.191406 78.097656 199.414062 78.097656 L 199.414062 78.84375 Z M 206.386719 78.84375 "/>
<path style=" stroke:none;fill-rule:nonzero;fill:rgb(100%,100%,0%);fill-opacity:1;" d="M 324.089844 158.585938 C 325.175781 159.0625 326.394531 159.300781 327.753906 159.300781 C 328.59375 159.300781 329.378906 159.125 330.105469 158.773438 C 330.835938 158.425781 331.398438 157.910156 331.789062 157.238281 L 331.789062 157.546875 C 331.789062 158.136719 332.078125 158.550781 332.648438 158.785156 C 333.21875 159.023438 333.855469 159.144531 334.5625 159.144531 L 336.449219 159.144531 C 336.691406 159.09375 336.835938 158.949219 336.890625 158.714844 L 336.890625 158.210938 C 336.835938 157.984375 336.691406 157.847656 336.449219 157.796875 C 335.191406 157.796875 334.5625 157.578125 334.5625 157.144531 L 334.5625 150.984375 C 334.5625 150.269531 334.378906 149.660156 334.011719 149.164062 C 333.648438 148.667969 333.167969 148.265625 332.570312 147.957031 C 331.972656 147.648438 331.332031 147.433594 330.652344 147.300781 C 329.96875 147.171875 329.28125 147.109375 328.585938 147.109375 C 327.203125 147.109375 326.011719 147.261719 325.015625 147.574219 C 324.015625 147.886719 323.515625 148.566406 323.515625 149.609375 C 323.515625 150.085938 323.6875 150.492188 324.023438 150.832031 C 324.363281 151.167969 324.785156 151.335938 325.292969 151.335938 C 325.789062 151.335938 326.207031 151.171875 326.542969 150.84375 C 326.882812 150.515625 327.050781 150.105469 327.050781 149.609375 C 327.050781 149.082031 326.859375 148.65625 326.476562 148.328125 C 327.003906 148.222656 327.695312 148.171875 328.550781 148.171875 C 329.417969 148.171875 330.09375 148.4375 330.585938 148.976562 C 331.078125 149.511719 331.320312 150.207031 331.320312 151.0625 L 331.320312 152.050781 C 330.527344 152.050781 329.625 152.109375 328.621094 152.222656 C 327.613281 152.339844 326.648438 152.542969 325.722656 152.835938 C 324.800781 153.125 324.023438 153.542969 323.398438 154.09375 C 322.773438 154.640625 322.460938 155.335938 322.460938 156.175781 C 322.460938 157.304688 323.003906 158.109375 324.089844 158.585938 M 326.691406 154.320312 C 327.296875 153.84375 328.023438 153.503906 328.871094 153.292969 C 329.71875 153.085938 330.535156 152.984375 331.320312 152.984375 L 331.320312 155.667969 C 331.320312 156.167969 331.164062 156.617188 330.851562 157.015625 C 330.539062 157.414062 330.140625 157.71875 329.648438 157.925781 C 329.15625 158.132812 328.652344 158.234375 328.136719 158.234375 C 327.519531 158.234375 326.972656 158.039062 326.496094 157.644531 C 326.019531 157.253906 325.78125 156.761719 325.78125 156.175781 C 325.78125 155.414062 326.082031 154.796875 326.691406 154.320312 "/>
<path style=" stroke:none;fill-rule:nonzero;fill:rgb(100%,100%,0%);fill-opacity:1;" d="M 345.800781 162.828125 L 346.375 159.371094 L 345.640625 159.371094 C 345.570312 159.800781 345.5 160.164062 345.433594 160.460938 C 345.363281 160.757812 345.273438 160.960938 345.160156 161.078125 C 345.128906 161.109375 344.910156 161.128906 344.507812 161.144531 C 344.105469 161.160156 343.640625 161.167969 343.109375 161.171875 C 342.582031 161.175781 342.074219 161.179688 341.589844 161.179688 L 339.820312 161.179688 L 342.171875 159.246094 C 342.375 159.078125 342.808594 158.742188 343.472656 158.242188 C 344.136719 157.742188 344.660156 157.3125 345.035156 156.949219 C 345.414062 156.585938 345.730469 156.167969 345.988281 155.695312 C 346.246094 155.21875 346.375 154.707031 346.375 154.15625 C 346.375 153.394531 346.15625 152.734375 345.726562 152.175781 C 345.296875 151.613281 344.734375 151.195312 344.039062 150.914062 C 343.339844 150.632812 342.601562 150.492188 341.824219 150.492188 C 341.171875 150.492188 340.539062 150.628906 339.921875 150.90625 C 339.308594 151.179688 338.808594 151.570312 338.425781 152.078125 C 338.042969 152.585938 337.851562 153.171875 337.851562 153.839844 C 337.851562 154.117188 337.957031 154.355469 338.160156 154.554688 C 338.367188 154.753906 338.621094 154.855469 338.914062 154.855469 C 339.214844 154.855469 339.46875 154.753906 339.667969 154.554688 C 339.867188 154.355469 339.96875 154.117188 339.96875 153.839844 C 339.96875 153.546875 339.871094 153.304688 339.671875 153.109375 C 339.476562 152.910156 339.222656 152.8125 338.914062 152.8125 L 338.859375 152.8125 C 339.097656 152.324219 339.453125 151.9375 339.925781 151.65625 C 340.402344 151.375 340.925781 151.234375 341.496094 151.234375 C 341.921875 151.234375 342.316406 151.308594 342.671875 151.449219 C 343.03125 151.589844 343.339844 151.792969 343.601562 152.0625 C 343.859375 152.328125 344.0625 152.640625 344.207031 153 C 344.351562 153.359375 344.425781 153.746094 344.425781 154.15625 C 344.425781 154.90625 344.210938 155.597656 343.789062 156.230469 C 343.363281 156.863281 342.773438 157.542969 342.011719 158.273438 C 341.867188 158.414062 341.757812 158.523438 341.679688 158.597656 C 341.601562 158.671875 341.496094 158.777344 341.363281 158.910156 L 337.925781 162.140625 L 337.851562 162.292969 L 337.851562 162.828125 Z M 345.800781 162.828125 "/>
<path style=" stroke:none;fill-rule:nonzero;fill:rgb(100%,100%,0%);fill-opacity:1;" d="M 216.609375 349.4375 C 217.695312 349.914062 218.917969 350.148438 220.277344 350.148438 C 221.117188 350.148438 221.902344 349.972656 222.628906 349.625 C 223.359375 349.273438 223.917969 348.761719 224.3125 348.085938 L 224.3125 348.398438 C 224.3125 348.988281 224.597656 349.398438 225.167969 349.636719 C 225.742188 349.875 226.378906 349.996094 227.082031 349.996094 L 228.972656 349.996094 C 229.210938 349.941406 229.359375 349.800781 229.414062 349.566406 L 229.414062 349.058594 C 229.359375 348.835938 229.210938 348.699219 228.972656 348.644531 C 227.710938 348.644531 227.082031 348.429688 227.082031 347.996094 L 227.082031 341.835938 C 227.082031 341.117188 226.902344 340.511719 226.535156 340.011719 C 226.167969 339.515625 225.6875 339.113281 225.089844 338.808594 C 224.496094 338.5 223.855469 338.28125 223.171875 338.152344 C 222.492188 338.023438 221.800781 337.957031 221.105469 337.957031 C 219.726562 337.957031 218.535156 338.113281 217.535156 338.425781 C 216.539062 338.738281 216.039062 339.414062 216.039062 340.460938 C 216.039062 340.9375 216.207031 341.34375 216.546875 341.679688 C 216.882812 342.015625 217.304688 342.1875 217.8125 342.1875 C 218.308594 342.1875 218.726562 342.023438 219.066406 341.695312 C 219.40625 341.363281 219.574219 340.953125 219.574219 340.460938 C 219.574219 339.933594 219.382812 339.503906 219 339.175781 C 219.527344 339.074219 220.21875 339.019531 221.074219 339.019531 C 221.9375 339.019531 222.617188 339.289062 223.105469 339.824219 C 223.597656 340.363281 223.84375 341.058594 223.84375 341.914062 L 223.84375 342.898438 C 223.046875 342.898438 222.148438 342.957031 221.140625 343.074219 C 220.136719 343.191406 219.171875 343.394531 218.246094 343.683594 C 217.320312 343.972656 216.546875 344.394531 215.921875 344.941406 C 215.292969 345.492188 214.980469 346.183594 214.980469 347.023438 C 214.980469 348.15625 215.523438 348.960938 216.609375 349.4375 M 219.210938 345.167969 C 219.820312 344.695312 220.546875 344.351562 221.394531 344.144531 C 222.242188 343.9375 223.058594 343.832031 223.84375 343.832031 L 223.84375 346.519531 C 223.84375 347.019531 223.6875 347.46875 223.375 347.867188 C 223.0625 348.265625 222.660156 348.566406 222.171875 348.777344 C 221.679688 348.980469 221.175781 349.085938 220.65625 349.085938 C 220.042969 349.085938 219.496094 348.890625 219.015625 348.496094 C 218.539062 348.101562 218.300781 347.613281 218.300781 347.023438 C 218.300781 346.261719 218.605469 345.644531 219.210938 345.167969 "/>
<path style=" stroke:none;fill-rule:nonzero;fill:rgb(100%,100%,0%);fill-opacity:1;" d="M 231.953125 351.910156 C 232.160156 351.699219 232.261719 351.445312 232.261719 351.148438 C 232.261719 350.957031 232.210938 350.777344 232.109375 350.613281 C 232.011719 350.449219 231.878906 350.320312 231.710938 350.230469 C 231.542969 350.140625 231.359375 350.097656 231.15625 350.097656 C 230.839844 350.097656 230.578125 350.195312 230.363281 350.394531 C 230.148438 350.59375 230.039062 350.847656 230.039062 351.148438 C 230.039062 351.800781 230.265625 352.347656 230.714844 352.789062 C 231.164062 353.230469 231.71875 353.550781 232.375 353.753906 C 233.03125 353.949219 233.699219 354.050781 234.378906 354.050781 C 235.105469 354.050781 235.820312 353.90625 236.519531 353.613281 C 237.222656 353.324219 237.796875 352.90625 238.246094 352.359375 C 238.695312 351.8125 238.921875 351.175781 238.921875 350.449219 C 238.921875 349.882812 238.757812 349.367188 238.429688 348.910156 C 238.105469 348.457031 237.683594 348.082031 237.167969 347.785156 C 236.65625 347.492188 236.109375 347.289062 235.539062 347.175781 C 236.335938 346.914062 237 346.496094 237.527344 345.921875 C 238.054688 345.347656 238.316406 344.675781 238.316406 343.910156 C 238.316406 343.351562 238.109375 342.878906 237.691406 342.484375 C 237.273438 342.09375 236.765625 341.804688 236.160156 341.617188 C 235.558594 341.433594 234.964844 341.34375 234.382812 341.34375 C 233.816406 341.34375 233.246094 341.433594 232.664062 341.613281 C 232.082031 341.796875 231.601562 342.082031 231.21875 342.46875 C 230.835938 342.855469 230.644531 343.335938 230.644531 343.910156 C 230.644531 344.175781 230.742188 344.40625 230.945312 344.597656 C 231.144531 344.792969 231.394531 344.890625 231.6875 344.890625 C 231.976562 344.890625 232.21875 344.792969 232.414062 344.597656 C 232.609375 344.40625 232.707031 344.175781 232.707031 343.910156 C 232.707031 343.644531 232.613281 343.410156 232.429688 343.207031 C 232.242188 343.003906 232.015625 342.902344 231.746094 342.902344 C 232.046875 342.570312 232.429688 342.328125 232.894531 342.179688 C 233.359375 342.03125 233.855469 341.960938 234.382812 341.960938 C 234.992188 341.960938 235.472656 342.140625 235.832031 342.5 C 236.191406 342.859375 236.371094 343.328125 236.371094 343.910156 C 236.371094 344.597656 236.167969 345.257812 235.761719 345.890625 C 235.355469 346.523438 234.820312 346.839844 234.15625 346.839844 L 232.941406 346.921875 L 232.796875 346.980469 L 232.722656 347.121094 L 232.722656 347.3125 L 232.796875 347.441406 L 232.941406 347.511719 L 234.359375 347.511719 C 234.898438 347.511719 235.347656 347.648438 235.710938 347.921875 C 236.074219 348.199219 236.339844 348.558594 236.511719 349.003906 C 236.679688 349.445312 236.765625 349.929688 236.765625 350.449219 C 236.765625 350.953125 236.679688 351.429688 236.515625 351.878906 C 236.347656 352.328125 236.085938 352.691406 235.730469 352.96875 C 235.375 353.242188 234.921875 353.378906 234.375 353.378906 C 233.96875 353.378906 233.566406 353.34375 233.171875 353.273438 C 232.777344 353.207031 232.40625 353.082031 232.054688 352.90625 C 231.703125 352.734375 231.417969 352.507812 231.199219 352.226562 C 231.496094 352.226562 231.746094 352.121094 231.953125 351.910156 "/>
<path style=" stroke:none;fill-rule:nonzero;fill:rgb(100%,100%,0%);fill-opacity:1;" d="M 71.207031 255.316406 C 72.292969 255.792969 73.515625 256.03125 74.875 256.03125 C 75.714844 256.03125 76.5 255.855469 77.226562 255.503906 C 77.957031 255.15625 78.515625 254.640625 78.910156 253.96875 L 78.910156 254.277344 C 78.910156 254.867188 79.195312 255.28125 79.765625 255.515625 C 80.339844 255.753906 80.976562 255.875 81.679688 255.875 L 83.570312 255.875 C 83.808594 255.824219 83.957031 255.679688 84.011719 255.445312 L 84.011719 254.941406 C 83.957031 254.714844 83.808594 254.578125 83.570312 254.523438 C 82.308594 254.523438 81.679688 254.308594 81.679688 253.875 L 81.679688 247.714844 C 81.679688 247 81.496094 246.390625 81.132812 245.894531 C 80.765625 245.394531 80.285156 244.996094 79.6875 244.6875 C 79.09375 244.378906 78.453125 244.164062 77.769531 244.03125 C 77.089844 243.902344 76.398438 243.839844 75.703125 243.839844 C 74.324219 243.839844 73.132812 243.992188 72.132812 244.304688 C 71.136719 244.617188 70.636719 245.296875 70.636719 246.339844 C 70.636719 246.816406 70.804688 247.222656 71.144531 247.558594 C 71.480469 247.898438 71.902344 248.066406 72.410156 248.066406 C 72.90625 248.066406 73.324219 247.902344 73.664062 247.574219 C 74.003906 247.246094 74.171875 246.835938 74.171875 246.339844 C 74.171875 245.8125 73.980469 245.386719 73.597656 245.058594 C 74.125 244.953125 74.816406 244.902344 75.671875 244.902344 C 76.535156 244.902344 77.214844 245.167969 77.703125 245.707031 C 78.195312 246.242188 78.441406 246.9375 78.441406 247.792969 L 78.441406 248.78125 C 77.644531 248.78125 76.746094 248.839844 75.738281 248.953125 C 74.734375 249.070312 73.769531 249.273438 72.84375 249.5625 C 71.917969 249.855469 71.144531 250.273438 70.519531 250.824219 C 69.890625 251.371094 69.578125 252.066406 69.578125 252.90625 C 69.578125 254.035156 70.121094 254.839844 71.207031 255.316406 M 73.808594 251.050781 C 74.414062 250.574219 75.144531 250.230469 75.992188 250.023438 C 76.839844 249.816406 77.65625 249.714844 78.441406 249.714844 L 78.441406 252.398438 C 78.441406 252.898438 78.285156 253.347656 77.972656 253.746094 C 77.660156 254.144531 77.257812 254.449219 76.769531 254.65625 C 76.277344 254.863281 75.773438 254.964844 75.253906 254.964844 C 74.640625 254.964844 74.09375 254.769531 73.613281 254.375 C 73.136719 253.980469 72.898438 253.492188 72.898438 252.90625 C 72.898438 252.144531 73.203125 251.523438 73.808594 251.050781 "/>
<path style=" stroke:none;fill-rule:nonzero;fill:rgb(100%,100%,0%);fill-opacity:1;" d="M 89.988281 256.511719 L 89.988281 258.261719 C 89.988281 258.632812 89.292969 258.816406 87.90625 258.816406 L 87.90625 259.558594 L 93.78125 259.558594 L 93.78125 258.816406 C 92.394531 258.816406 91.699219 258.632812 91.699219 258.261719 L 91.699219 256.511719 L 93.800781 256.511719 L 93.800781 255.765625 L 91.699219 255.765625 L 91.699219 247.484375 L 91.625 247.292969 L 91.429688 247.222656 L 91.050781 247.222656 C 90.933594 247.222656 90.839844 247.265625 90.777344 247.347656 L 84.355469 255.765625 L 84.355469 256.511719 Z M 90.117188 249.28125 L 90.117188 255.765625 L 85.183594 255.765625 Z M 90.117188 249.28125 "/>
</g>
</svg>
