<?xml version="1.0" encoding="UTF-8"?>
<svg xmlns="http://www.w3.org/2000/svg" xmlns:xlink="http://www.w3.org/1999/xlink" width="534.511pt" height="291.237pt" viewBox="0 0 534.511 291.237" version="1.1">
<g id="surface1">
<path style=" stroke:none;fill-rule:nonzero;fill:rgb(100%,100%,0%);fill-opacity:1;" d="M 263.328125 161.59375 L 311.167969 158.722656 L 311.3125 161.113281 L 263.472656 163.984375 "/>
<path style=" stroke:none;fill-rule:evenodd;fill:rgb(100%,100%,0%);fill-opacity:1;" d="M 335.796875 158.324219 L 309.644531 151.308594 L 310.601562 168.53125 Z M 335.796875 158.324219 "/>
<path style=" stroke:none;fill-rule:nonzero;fill:rgb(100%,100%,100%);fill-opacity:1;" d="M 122.273438 44.945312 L 121.910156 43.804688 C 131.632812 40.695312 141.4375 39.203125 151.113281 39.203125 C 174.140625 39.203125 196.390625 47.65625 214.988281 62.78125 C 233.585938 77.902344 248.546875 99.691406 257.046875 126.386719 L 257.042969 126.382812 C 261.773438 141.082031 264.03125 155.71875 264.03125 169.765625 C 264.03125 193.535156 257.570312 215.628906 245.6875 233.503906 C 233.808594 251.382812 216.492188 265.035156 194.875 271.886719 C 185.152344 274.996094 175.347656 276.488281 165.675781 276.488281 C 142.648438 276.488281 120.394531 268.03125 101.800781 252.910156 C 83.199219 237.789062 68.238281 216 59.738281 189.304688 C 55.070312 174.667969 52.839844 160.109375 52.839844 146.128906 C 52.839844 122.335938 59.296875 100.230469 71.167969 82.324219 C 83.03125 64.421875 100.324219 50.726562 121.910156 43.804688 L 122.273438 44.945312 L 122.640625 46.082031 C 101.578125 52.839844 84.75 66.164062 73.160156 83.648438 C 61.570312 101.125 55.230469 122.769531 55.230469 146.128906 C 55.230469 159.851562 57.421875 174.167969 62.019531 188.578125 C 70.386719 214.859375 85.09375 236.246094 103.308594 251.054688 C 121.523438 265.863281 143.238281 274.09375 165.675781 274.09375 C 175.101562 274.09375 184.65625 272.644531 194.148438 269.605469 C 215.242188 262.917969 232.089844 249.632812 243.695312 232.183594 C 255.296875 214.730469 261.636719 193.105469 261.636719 169.765625 C 261.636719 155.976562 259.421875 141.585938 254.765625 127.117188 L 254.765625 127.113281 C 246.398438 100.832031 231.691406 79.445312 213.476562 64.636719 C 195.261719 49.828125 173.546875 41.59375 151.113281 41.59375 C 141.683594 41.59375 132.128906 43.046875 122.636719 46.082031 Z M 122.273438 44.945312 "/>
<path style=" stroke:none;fill-rule:nonzero;fill:rgb(100%,100%,100%);fill-opacity:1;" d="M 129.449219 69.5 L 129.085938 68.359375 C 136.648438 65.953125 144.273438 64.796875 151.789062 64.796875 C 169.761719 64.796875 187.101562 71.40625 201.59375 83.203125 C 216.085938 95 227.738281 111.984375 234.402344 132.761719 C 238.066406 144.195312 239.816406 155.574219 239.816406 166.496094 C 239.816406 185.035156 234.773438 202.261719 225.488281 216.214844 C 216.210938 230.167969 202.675781 240.835938 185.785156 246.210938 C 178.25 248.621094 170.644531 249.777344 163.140625 249.777344 C 145.191406 249.777344 127.839844 243.167969 113.328125 231.371094 C 98.816406 219.574219 87.132812 202.589844 80.472656 181.808594 C 76.851562 170.402344 75.121094 159.058594 75.121094 148.164062 C 75.121094 129.605469 80.140625 112.359375 89.40625 98.390625 C 98.664062 84.421875 112.183594 73.742188 129.085938 68.359375 L 129.8125 70.640625 C 113.433594 75.859375 100.382812 86.171875 91.398438 99.714844 C 82.417969 113.253906 77.515625 130.035156 77.515625 148.164062 C 77.515625 158.804688 79.203125 169.90625 82.75 181.085938 L 82.75 181.082031 C 89.277344 201.449219 100.710938 218.03125 114.835938 229.515625 C 128.96875 241 145.785156 247.382812 163.140625 247.382812 C 170.398438 247.382812 177.757812 246.265625 185.058594 243.933594 C 201.425781 238.71875 214.492188 228.417969 223.496094 214.890625 C 232.496094 201.363281 237.421875 184.601562 237.421875 166.496094 C 237.421875 155.828125 235.714844 144.699219 232.121094 133.492188 C 225.59375 113.125 214.191406 96.539062 200.082031 85.058594 C 185.972656 73.574219 169.167969 67.1875 151.789062 67.1875 C 144.519531 67.1875 137.144531 68.304688 129.8125 70.640625 Z M 129.449219 69.5 "/>
<path style=" stroke:none;fill-rule:nonzero;fill:rgb(100%,100%,100%);fill-opacity:1;" d="M 141.886719 100.914062 L 141.519531 99.777344 C 146.625 98.121094 151.78125 97.328125 156.863281 97.328125 C 168.863281 97.328125 180.445312 101.753906 190.125 109.625 C 199.808594 117.5 207.597656 128.820312 212.074219 142.644531 L 212.078125 142.652344 C 214.488281 150.257812 215.640625 157.820312 215.640625 165.085938 C 215.640625 177.535156 212.257812 189.109375 206.027344 198.484375 C 199.800781 207.859375 190.71875 215.023438 179.40625 218.625 C 174.339844 220.238281 169.226562 221.015625 164.183594 221.015625 C 152.164062 221.015625 140.554688 216.609375 130.851562 208.730469 C 121.148438 200.855469 113.339844 189.507812 108.855469 175.59375 L 108.855469 175.589844 C 106.441406 168.019531 105.289062 160.484375 105.289062 153.238281 C 105.289062 140.828125 108.675781 129.269531 114.902344 119.90625 C 121.132812 110.542969 130.214844 103.375 141.523438 99.777344 L 141.519531 99.777344 L 141.886719 100.914062 L 142.25 102.054688 C 131.464844 105.492188 122.847656 112.289062 116.894531 121.230469 C 110.949219 130.171875 107.679688 141.261719 107.679688 153.238281 C 107.679688 160.230469 108.792969 167.523438 111.132812 174.863281 L 111.132812 174.859375 C 115.484375 188.363281 123.042969 199.3125 132.359375 206.875 C 141.679688 214.4375 152.75 218.621094 164.183594 218.621094 C 168.980469 218.621094 173.847656 217.886719 178.679688 216.34375 C 189.46875 212.90625 198.085938 206.109375 204.035156 197.160156 C 209.984375 188.210938 213.25 177.105469 213.25 165.085938 C 213.25 158.074219 212.136719 150.753906 209.796875 143.375 L 209.796875 143.382812 C 205.457031 129.96875 197.914062 119.042969 188.617188 111.484375 C 179.316406 103.921875 168.269531 99.722656 156.863281 99.722656 C 152.027344 99.722656 147.128906 100.476562 142.257812 102.054688 L 142.25 102.054688 Z M 141.886719 100.914062 "/>
<path style=" stroke:none;fill-rule:nonzero;fill:rgb(100%,100%,100%);fill-opacity:1;" d="M 152.574219 134.5625 L 152.199219 133.425781 C 154.457031 132.683594 156.738281 132.328125 158.988281 132.328125 C 164.234375 132.328125 169.277344 134.269531 173.460938 137.683594 C 177.644531 141.097656 180.988281 145.980469 182.894531 151.898438 L 182.894531 151.902344 C 183.9375 155.179688 184.4375 158.449219 184.4375 161.601562 C 184.4375 167.007812 182.964844 172.058594 180.238281 176.160156 C 177.511719 180.265625 173.515625 183.414062 168.558594 184.976562 L 168.5625 184.976562 C 166.394531 185.671875 164.199219 186.003906 162.023438 186.003906 C 156.769531 186.003906 151.679688 184.058594 147.4375 180.632812 C 143.199219 177.207031 139.796875 172.300781 137.878906 166.34375 L 137.875 166.328125 C 136.878906 163.085938 136.398438 159.855469 136.398438 156.75 C 136.398438 151.347656 137.847656 146.3125 140.558594 142.21875 C 143.261719 138.128906 147.242188 134.988281 152.210938 133.421875 L 152.574219 134.5625 L 152.199219 133.425781 L 152.574219 134.5625 L 152.933594 135.703125 C 148.488281 137.109375 144.980469 139.875 142.550781 143.539062 C 140.125 147.203125 138.792969 151.773438 138.792969 156.75 C 138.792969 159.609375 139.234375 162.601562 140.160156 165.628906 L 139.015625 165.976562 L 140.15625 165.609375 C 141.9375 171.148438 145.082031 175.65625 148.941406 178.773438 C 152.800781 181.890625 157.367188 183.613281 162.023438 183.613281 C 163.953125 183.613281 165.902344 183.316406 167.835938 182.699219 L 167.839844 182.695312 C 172.269531 181.296875 175.796875 178.515625 178.246094 174.839844 C 180.691406 171.160156 182.046875 166.574219 182.046875 161.601562 C 182.046875 158.703125 181.585938 155.679688 180.613281 152.625 L 180.617188 152.628906 C 178.84375 147.125 175.75 142.636719 171.949219 139.535156 C 168.140625 136.433594 163.636719 134.71875 158.988281 134.71875 C 156.992188 134.71875 154.964844 135.035156 152.945312 135.699219 L 152.933594 135.703125 Z M 152.574219 134.5625 "/>
<path style=" stroke:none;fill-rule:nonzero;fill:rgb(100%,100%,39.99939%);fill-opacity:1;" d="M 255.664062 18.089844 L 269.21875 266.695312 L 266.832031 266.824219 L 253.277344 18.21875 "/>
<path style=" stroke:none;fill-rule:evenodd;fill:rgb(0%,0%,0%);fill-opacity:1;" d="M 263.082031 156.570312 C 266.910156 156.570312 269.78125 159.4375 269.78125 163.265625 C 269.78125 167.09375 266.910156 170.125 263.082031 170.125 C 259.253906 170.125 256.226562 167.09375 256.226562 163.265625 C 256.226562 159.4375 259.253906 156.570312 263.082031 156.570312 "/>
<path style=" stroke:none;fill-rule:nonzero;fill:rgb(100%,100%,100%);fill-opacity:1;" d="M 263.082031 156.570312 L 263.082031 155.375 C 265.292969 155.371094 267.289062 156.214844 268.710938 157.636719 C 270.132812 159.058594 270.976562 161.054688 270.976562 163.265625 C 270.976562 165.480469 270.140625 167.5 268.726562 168.960938 C 267.3125 170.425781 265.3125 171.324219 263.082031 171.320312 C 260.851562 171.320312 258.824219 170.429688 257.371094 168.976562 C 255.917969 167.523438 255.027344 165.5 255.027344 163.265625 C 255.027344 161.035156 255.921875 159.035156 257.386719 157.625 C 258.847656 156.207031 260.867188 155.371094 263.082031 155.375 L 263.082031 157.765625 C 261.46875 157.765625 260.0625 158.367188 259.050781 159.34375 C 258.039062 160.324219 257.421875 161.671875 257.421875 163.265625 C 257.421875 164.863281 258.046875 166.265625 259.0625 167.285156 C 260.082031 168.300781 261.488281 168.925781 263.082031 168.929688 C 264.675781 168.925781 266.027344 168.308594 267.007812 167.296875 C 267.984375 166.289062 268.582031 164.878906 268.582031 163.265625 C 268.582031 161.652344 267.988281 160.300781 267.019531 159.328125 C 266.046875 158.359375 264.695312 157.769531 263.082031 157.765625 Z M 263.082031 156.570312 "/>
<path style=" stroke:none;fill-rule:nonzero;fill:rgb(100%,100%,0%);fill-opacity:1;" d="M 299.453125 264.804688 L 299.839844 264.804688 C 300.085938 264.804688 300.253906 264.703125 300.347656 264.496094 L 310.019531 245.351562 L 310.039062 245.3125 L 310.046875 245.273438 C 310.046875 245.121094 309.96875 245.042969 309.8125 245.042969 L 289.480469 245.042969 C 289.324219 245.042969 289.246094 245.121094 289.246094 245.273438 L 289.269531 245.304688 L 289.273438 245.351562 L 298.945312 264.496094 C 299.039062 264.703125 299.207031 264.804688 299.453125 264.804688 M 292.898438 247.117188 L 308.015625 247.117188 L 300.457031 262.097656 Z M 292.898438 247.117188 "/>
<path style=" stroke:none;fill-rule:nonzero;fill:rgb(100%,100%,0%);fill-opacity:1;" d="M 313.5625 252.46875 L 313.726562 252.566406 L 320.984375 252.566406 C 321.074219 252.554688 321.148438 252.496094 321.199219 252.398438 L 321.277344 252.082031 C 321.277344 251.9375 321.199219 251.839844 321.042969 251.789062 C 319.875 251.789062 319.125 251.75 318.785156 251.675781 C 318.644531 251.65625 318.574219 251.570312 318.574219 251.417969 L 318.585938 251.335938 L 318.59375 251.246094 L 321.277344 240.742188 C 321.367188 240.410156 321.46875 240.214844 321.578125 240.152344 C 321.6875 240.085938 321.929688 240.054688 322.296875 240.054688 L 323.667969 240.054688 C 324.539062 240.054688 325.171875 240.148438 325.566406 240.332031 C 325.960938 240.515625 326.160156 240.972656 326.160156 241.710938 C 326.160156 242.0625 326.101562 242.667969 325.984375 243.523438 C 325.984375 243.679688 326.0625 243.785156 326.21875 243.828125 L 326.480469 243.828125 C 326.617188 243.789062 326.703125 243.707031 326.742188 243.582031 L 327.335938 239.570312 C 327.335938 239.417969 327.253906 239.320312 327.09375 239.277344 L 314.125 239.277344 C 314.023438 239.296875 313.945312 239.351562 313.894531 239.4375 L 312.453125 243.4375 L 312.433594 243.5625 C 312.433594 243.695312 312.515625 243.785156 312.679688 243.828125 L 312.929688 243.828125 C 313.039062 243.808594 313.121094 243.75 313.171875 243.65625 C 313.445312 242.890625 313.675781 242.304688 313.863281 241.898438 C 314.054688 241.492188 314.285156 241.15625 314.558594 240.882812 C 314.835938 240.609375 315.199219 240.40625 315.648438 240.265625 C 316.101562 240.125 316.695312 240.054688 317.433594 240.054688 L 318.804688 240.054688 C 319.246094 240.054688 319.46875 240.085938 319.46875 240.152344 C 319.449219 240.296875 319.414062 240.445312 319.371094 240.597656 L 316.675781 251.105469 C 316.605469 251.410156 316.4375 251.597656 316.179688 251.675781 C 315.808594 251.75 315.011719 251.789062 313.785156 251.789062 C 313.695312 251.800781 313.625 251.851562 313.574219 251.941406 L 313.496094 252.253906 Z M 313.5625 252.46875 "/>
<path style=" stroke:none;fill-rule:nonzero;fill:rgb(100%,100%,0%);fill-opacity:1;" d="M 333.382812 267.949219 C 333.6875 267.621094 333.835938 267.261719 333.835938 266.867188 C 333.835938 266.570312 333.730469 266.328125 333.515625 266.144531 C 333.300781 265.960938 333.039062 265.871094 332.722656 265.871094 C 332.246094 265.871094 331.855469 266.042969 331.542969 266.386719 C 331.234375 266.734375 331.078125 267.140625 331.078125 267.605469 C 331.078125 268.191406 331.328125 268.660156 331.832031 269.015625 C 332.335938 269.371094 332.910156 269.546875 333.546875 269.546875 C 334.378906 269.546875 335.101562 269.1875 335.710938 268.46875 C 336.320312 267.75 336.824219 266.859375 337.214844 265.796875 C 337.609375 264.730469 337.914062 263.695312 338.132812 262.683594 C 338.351562 261.671875 338.542969 260.679688 338.707031 259.699219 L 340.027344 252.964844 L 343.066406 252.964844 L 343.253906 252.863281 C 343.304688 252.796875 343.34375 252.707031 343.371094 252.59375 C 343.398438 252.480469 343.417969 252.402344 343.425781 252.359375 C 343.425781 252.117188 343.332031 251.996094 343.148438 251.996094 L 340.21875 251.996094 L 340.566406 250.175781 C 340.972656 248.109375 341.238281 246.84375 341.355469 246.375 C 341.429688 246.078125 341.59375 245.800781 341.851562 245.539062 C 342.105469 245.277344 342.375 245.148438 342.664062 245.148438 C 343.183594 245.148438 343.617188 245.277344 343.96875 245.539062 C 343.550781 245.582031 343.199219 245.753906 342.917969 246.054688 C 342.632812 246.355469 342.492188 246.707031 342.492188 247.109375 C 342.492188 247.402344 342.601562 247.644531 342.820312 247.828125 C 343.039062 248.007812 343.300781 248.101562 343.609375 248.101562 C 344.0625 248.101562 344.449219 247.929688 344.773438 247.585938 C 345.089844 247.242188 345.25 246.835938 345.25 246.371094 C 345.25 245.96875 345.125 245.617188 344.878906 245.324219 C 344.628906 245.027344 344.304688 244.808594 343.914062 244.660156 C 343.519531 244.511719 343.113281 244.4375 342.699219 244.4375 C 342.058594 244.4375 341.464844 244.632812 340.914062 245.023438 C 340.363281 245.414062 339.925781 245.910156 339.601562 246.511719 C 339.390625 246.933594 339.230469 247.316406 339.121094 247.65625 C 339.015625 248 338.917969 248.367188 338.824219 248.769531 C 338.730469 249.167969 338.628906 249.644531 338.519531 250.203125 L 338.1875 251.996094 L 335.652344 251.996094 C 335.488281 251.996094 335.367188 252.195312 335.292969 252.601562 C 335.292969 252.84375 335.386719 252.964844 335.570312 252.964844 L 338.003906 252.964844 L 336.699219 259.726562 C 335.914062 263.644531 335.433594 265.949219 335.257812 266.652344 C 334.832031 268.105469 334.28125 268.832031 333.609375 268.832031 C 333.109375 268.832031 332.683594 268.703125 332.332031 268.441406 C 332.730469 268.441406 333.082031 268.277344 333.382812 267.949219 "/>
<path style=" stroke:none;fill-rule:nonzero;fill:rgb(100%,100%,0%);fill-opacity:1;" d="M 355.433594 270.785156 L 355.699219 270.785156 L 355.84375 270.699219 L 355.921875 270.542969 C 355.921875 270.445312 355.890625 270.367188 355.835938 270.316406 C 352.617188 267.28125 351.007812 262.839844 351.007812 256.992188 C 351.007812 255.671875 351.089844 254.402344 351.257812 253.1875 C 351.421875 251.96875 351.691406 250.792969 352.066406 249.65625 C 352.441406 248.519531 352.9375 247.449219 353.554688 246.445312 C 354.167969 245.4375 354.9375 244.496094 355.863281 243.617188 L 355.921875 243.441406 L 355.851562 243.273438 L 355.699219 243.199219 L 355.433594 243.199219 C 355.339844 243.199219 355.296875 243.214844 355.296875 243.253906 C 354.269531 244.035156 353.371094 244.945312 352.601562 245.984375 C 351.835938 247.027344 351.203125 248.144531 350.707031 249.339844 C 350.214844 250.535156 349.84375 251.78125 349.605469 253.074219 C 349.363281 254.367188 349.246094 255.671875 349.246094 256.992188 C 349.246094 258.292969 349.363281 259.59375 349.605469 260.886719 C 349.84375 262.179688 350.207031 263.417969 350.695312 264.601562 C 351.179688 265.789062 351.804688 266.90625 352.566406 267.949219 C 353.332031 268.996094 354.242188 269.925781 355.296875 270.730469 C 355.296875 270.769531 355.339844 270.785156 355.433594 270.785156 "/>
<path style=" stroke:none;fill-rule:nonzero;fill:rgb(100%,100%,0%);fill-opacity:1;" d="M 363.773438 263.890625 L 363.773438 262.488281 C 363.601562 262.488281 363.375 262.464844 363.105469 262.421875 C 362.832031 262.375 362.699219 262.320312 362.699219 262.257812 L 365.53125 259.121094 L 368.449219 262.488281 L 367.398438 262.488281 L 367.398438 263.890625 L 374.074219 263.890625 L 374.074219 262.488281 L 371.960938 262.488281 L 367.371094 257.101562 L 370.828125 253.300781 C 370.992188 253.128906 371.875 253.046875 373.480469 253.046875 L 373.480469 251.644531 L 367.828125 251.644531 L 367.828125 253.046875 C 367.992188 253.046875 368.210938 253.0625 368.480469 253.097656 C 368.753906 253.136719 368.890625 253.191406 368.890625 253.273438 L 366.429688 255.996094 L 363.886719 253.046875 L 364.910156 253.046875 L 364.910156 251.644531 L 358.246094 251.644531 L 358.246094 253.046875 L 360.347656 253.046875 L 364.589844 258.015625 L 360.773438 262.230469 C 360.601562 262.402344 359.710938 262.488281 358.105469 262.488281 L 358.105469 263.890625 Z M 363.773438 263.890625 "/>
<path style=" stroke:none;fill-rule:nonzero;fill:rgb(100%,100%,0%);fill-opacity:1;" d="M 376.65625 270.785156 L 376.796875 270.730469 C 377.851562 269.925781 378.757812 269 379.515625 267.964844 C 380.277344 266.925781 380.902344 265.796875 381.398438 264.570312 C 381.890625 263.34375 382.253906 262.101562 382.480469 260.839844 C 382.707031 259.578125 382.820312 258.292969 382.820312 256.992188 C 382.820312 255.230469 382.609375 253.507812 382.1875 251.820312 C 381.765625 250.132812 381.101562 248.542969 380.195312 247.050781 C 379.289062 245.558594 378.15625 244.292969 376.796875 243.253906 L 376.65625 243.199219 L 376.394531 243.199219 L 376.21875 243.273438 L 376.144531 243.441406 C 376.144531 243.546875 376.179688 243.625 376.253906 243.667969 C 379.457031 246.707031 381.058594 251.144531 381.058594 256.992188 C 381.058594 262.839844 379.4375 267.296875 376.199219 270.367188 L 376.144531 270.542969 C 376.144531 270.707031 376.226562 270.785156 376.394531 270.785156 Z M 394.34375 270.785156 L 394.605469 270.785156 L 394.753906 270.699219 L 394.828125 270.542969 C 394.828125 270.445312 394.800781 270.367188 394.746094 270.316406 C 391.527344 267.28125 389.914062 262.839844 389.914062 256.992188 C 389.914062 255.671875 390 254.402344 390.164062 253.1875 C 390.332031 251.96875 390.601562 250.792969 390.976562 249.65625 C 391.351562 248.519531 391.847656 247.449219 392.460938 246.445312 C 393.078125 245.4375 393.847656 244.496094 394.773438 243.617188 L 394.828125 243.441406 L 394.757812 243.273438 L 394.605469 243.199219 L 394.34375 243.199219 C 394.25 243.199219 394.203125 243.214844 394.203125 243.253906 C 393.175781 244.035156 392.28125 244.945312 391.511719 245.984375 C 390.742188 247.027344 390.113281 248.144531 389.617188 249.339844 C 389.121094 250.535156 388.753906 251.78125 388.511719 253.074219 C 388.273438 254.367188 388.152344 255.671875 388.152344 256.992188 C 388.152344 258.292969 388.273438 259.59375 388.511719 260.886719 C 388.753906 262.179688 389.117188 263.417969 389.601562 264.601562 C 390.089844 265.789062 390.714844 266.90625 391.476562 267.949219 C 392.242188 268.996094 393.148438 269.925781 394.203125 270.730469 C 394.203125 270.769531 394.25 270.785156 394.34375 270.785156 "/>
<path style=" stroke:none;fill-rule:nonzero;fill:rgb(100%,100%,0%);fill-opacity:1;" d="M 397.617188 268.671875 C 398.230469 269.164062 398.925781 269.414062 399.699219 269.414062 C 400.722656 269.414062 401.65625 269.085938 402.5 268.429688 C 403.34375 267.773438 403.984375 266.96875 404.429688 266.015625 L 410.515625 253.273438 C 410.652344 253.121094 411.3125 253.046875 412.5 253.046875 L 412.5 251.644531 L 407.578125 251.644531 L 407.578125 253.046875 C 407.863281 253.046875 408.160156 253.0625 408.472656 253.09375 C 408.785156 253.125 408.941406 253.183594 408.941406 253.273438 L 405.625 260.226562 L 402.1875 253.046875 L 403.671875 253.046875 L 403.671875 251.644531 L 396.808594 251.644531 L 396.808594 253.046875 L 398.675781 253.046875 L 403.867188 263.890625 L 402.839844 266.015625 C 402.546875 266.664062 402.121094 267.207031 401.558594 267.648438 C 401.003906 268.085938 400.382812 268.308594 399.699219 268.308594 C 399.597656 268.308594 399.445312 268.289062 399.242188 268.253906 C 399.792969 267.9375 400.070312 267.449219 400.070312 266.785156 C 400.070312 266.328125 399.910156 265.941406 399.585938 265.628906 C 399.265625 265.3125 398.867188 265.15625 398.398438 265.15625 C 397.910156 265.15625 397.503906 265.3125 397.179688 265.628906 C 396.859375 265.941406 396.695312 266.328125 396.695312 266.785156 C 396.695312 267.546875 397.003906 268.175781 397.617188 268.671875 "/>
<path style=" stroke:none;fill-rule:nonzero;fill:rgb(100%,100%,0%);fill-opacity:1;" d="M 439.621094 257.542969 C 439.765625 257.542969 439.886719 257.488281 439.984375 257.371094 C 440.082031 257.253906 440.128906 257.125 440.128906 256.992188 C 440.128906 256.855469 440.082031 256.730469 439.984375 256.617188 C 439.886719 256.5 439.765625 256.4375 439.621094 256.4375 L 423.5 256.4375 C 423.34375 256.4375 423.214844 256.5 423.117188 256.617188 C 423.015625 256.730469 422.964844 256.855469 422.964844 256.992188 C 422.964844 257.125 423.015625 257.253906 423.117188 257.371094 C 423.214844 257.488281 423.34375 257.542969 423.5 257.542969 Z M 439.621094 257.542969 "/>
<path style=" stroke:none;fill-rule:nonzero;fill:rgb(100%,100%,0%);fill-opacity:1;" d="M 454.988281 263.890625 L 454.988281 262.488281 C 454.8125 262.488281 454.589844 262.464844 454.316406 262.421875 C 454.046875 262.375 453.910156 262.320312 453.910156 262.257812 L 456.746094 259.121094 L 459.664062 262.488281 L 458.609375 262.488281 L 458.609375 263.890625 L 465.289062 263.890625 L 465.289062 262.488281 L 463.171875 262.488281 L 458.582031 257.101562 L 462.039062 253.300781 C 462.207031 253.128906 463.089844 253.046875 464.695312 253.046875 L 464.695312 251.644531 L 459.039062 251.644531 L 459.039062 253.046875 C 459.207031 253.046875 459.425781 253.0625 459.695312 253.097656 C 459.96875 253.136719 460.105469 253.191406 460.105469 253.273438 L 457.644531 255.996094 L 455.101562 253.046875 L 456.125 253.046875 L 456.125 251.644531 L 449.460938 251.644531 L 449.460938 253.046875 L 451.558594 253.046875 L 455.804688 258.015625 L 451.988281 262.230469 C 451.8125 262.402344 450.925781 262.488281 449.320312 262.488281 L 449.320312 263.890625 Z M 454.988281 263.890625 "/>
<path style=" stroke:none;fill-rule:nonzero;fill:rgb(100%,100%,0%);fill-opacity:1;" d="M 467.710938 270.785156 L 467.851562 270.730469 C 468.90625 269.925781 469.8125 269 470.570312 267.964844 C 471.328125 266.925781 471.957031 265.796875 472.453125 264.570312 C 472.945312 263.34375 473.308594 262.101562 473.535156 260.839844 C 473.761719 259.578125 473.875 258.292969 473.875 256.992188 C 473.875 255.230469 473.664062 253.507812 473.242188 251.820312 C 472.820312 250.132812 472.15625 248.542969 471.25 247.050781 C 470.34375 245.558594 469.210938 244.292969 467.851562 243.253906 L 467.710938 243.199219 L 467.449219 243.199219 L 467.273438 243.273438 L 467.199219 243.441406 C 467.199219 243.546875 467.234375 243.625 467.308594 243.667969 C 470.511719 246.707031 472.113281 251.144531 472.113281 256.992188 C 472.113281 262.839844 470.492188 267.296875 467.253906 270.367188 L 467.199219 270.542969 C 467.199219 270.707031 467.28125 270.785156 467.449219 270.785156 Z M 467.710938 270.785156 "/>
<path style=" stroke:none;fill-rule:nonzero;fill:rgb(100%,100%,0%);fill-opacity:1;" d="M 487.117188 267.5 C 487.230469 267.617188 487.363281 267.675781 487.523438 267.675781 C 487.617188 267.675781 487.691406 267.664062 487.746094 267.648438 L 504.15625 260.171875 C 504.324219 260.074219 504.40625 259.914062 504.40625 259.699219 C 504.40625 259.53125 504.351562 259.394531 504.246094 259.296875 C 504.140625 259.199219 504.003906 259.148438 503.835938 259.148438 C 503.742188 259.148438 503.675781 259.15625 503.640625 259.175781 L 487.230469 266.652344 C 487.042969 266.730469 486.953125 266.886719 486.953125 267.121094 C 486.953125 267.257812 487.007812 267.382812 487.117188 267.5 M 487.117188 262.152344 C 487.230469 262.257812 487.363281 262.3125 487.523438 262.3125 C 487.617188 262.3125 487.691406 262.296875 487.746094 262.257812 L 504.070312 254.835938 C 504.296875 254.710938 504.40625 254.535156 504.40625 254.3125 C 504.40625 254.085938 504.324219 253.933594 504.15625 253.851562 L 487.746094 246.378906 C 487.691406 246.351562 487.617188 246.335938 487.523438 246.335938 C 487.363281 246.335938 487.230469 246.394531 487.117188 246.511719 C 487.007812 246.628906 486.953125 246.753906 486.953125 246.890625 C 486.953125 247.121094 487.042969 247.28125 487.230469 247.359375 L 502.496094 254.3125 L 487.328125 261.234375 C 487.078125 261.363281 486.953125 261.535156 486.953125 261.761719 C 486.953125 261.914062 487.007812 262.042969 487.117188 262.152344 "/>
<path style=" stroke:none;fill-rule:nonzero;fill:rgb(100%,100%,0%);fill-opacity:1;" d="M 524.933594 263.046875 C 525.8125 262.082031 526.402344 260.910156 526.703125 259.53125 C 527.003906 258.152344 527.15625 256.671875 527.15625 255.09375 C 527.15625 253.917969 527.078125 252.792969 526.925781 251.71875 C 526.773438 250.644531 526.488281 249.640625 526.070312 248.703125 C 525.65625 247.761719 525.050781 246.996094 524.253906 246.40625 C 523.457031 245.8125 522.4375 245.515625 521.1875 245.515625 C 519.574219 245.515625 518.324219 246.007812 517.429688 246.992188 C 516.539062 247.972656 515.941406 249.171875 515.640625 250.582031 C 515.339844 251.992188 515.191406 253.496094 515.191406 255.09375 C 515.191406 257.652344 515.609375 259.859375 516.445312 261.714844 C 517.285156 263.566406 518.863281 264.496094 521.1875 264.496094 C 522.804688 264.496094 524.054688 264.011719 524.933594 263.046875 M 519.222656 262.792969 C 518.726562 262.132812 518.367188 261.316406 518.148438 260.351562 C 517.925781 259.386719 517.789062 258.453125 517.738281 257.542969 C 517.6875 256.636719 517.660156 255.671875 517.660156 254.648438 C 517.660156 253.265625 517.71875 251.992188 517.839844 250.828125 C 517.960938 249.667969 518.28125 248.609375 518.796875 247.65625 C 519.316406 246.707031 520.113281 246.230469 521.1875 246.230469 C 522.25 246.230469 523.039062 246.703125 523.550781 247.648438 C 524.066406 248.597656 524.382812 249.65625 524.503906 250.824219 C 524.625 251.992188 524.683594 253.265625 524.683594 254.648438 C 524.683594 256.085938 524.625 257.441406 524.503906 258.714844 C 524.382812 259.992188 524.0625 261.15625 523.546875 262.207031 C 523.027344 263.257812 522.242188 263.78125 521.1875 263.78125 C 520.371094 263.78125 519.714844 263.453125 519.222656 262.792969 "/>
<path style=" stroke:none;fill-rule:nonzero;fill:rgb(100%,100%,0%);fill-opacity:1;" d="M 14.808594 27.519531 L 15.195312 27.519531 C 15.441406 27.519531 15.609375 27.417969 15.703125 27.210938 L 25.375 8.070312 L 25.394531 8.03125 L 25.402344 7.988281 C 25.402344 7.835938 25.324219 7.757812 25.167969 7.757812 L 4.835938 7.757812 C 4.679688 7.757812 4.601562 7.835938 4.601562 7.988281 L 4.621094 8.023438 L 4.628906 8.070312 L 14.300781 27.210938 C 14.394531 27.417969 14.5625 27.519531 14.808594 27.519531 M 8.25 9.835938 L 23.371094 9.835938 L 15.8125 24.8125 Z M 8.25 9.835938 "/>
<path style=" stroke:none;fill-rule:nonzero;fill:rgb(100%,100%,0%);fill-opacity:1;" d="M 28.917969 15.183594 L 29.082031 15.285156 L 36.339844 15.285156 C 36.429688 15.269531 36.5 15.214844 36.554688 15.113281 L 36.632812 14.796875 C 36.632812 14.652344 36.554688 14.554688 36.398438 14.503906 C 35.230469 14.503906 34.480469 14.464844 34.140625 14.390625 C 34 14.371094 33.929688 14.285156 33.929688 14.132812 L 33.941406 14.054688 L 33.945312 13.960938 L 36.632812 3.457031 C 36.722656 3.125 36.824219 2.929688 36.933594 2.867188 C 37.042969 2.804688 37.28125 2.773438 37.652344 2.773438 L 39.023438 2.773438 C 39.894531 2.773438 40.527344 2.863281 40.921875 3.046875 C 41.316406 3.230469 41.515625 3.691406 41.515625 4.425781 C 41.515625 4.78125 41.457031 5.382812 41.339844 6.238281 C 41.339844 6.398438 41.417969 6.5 41.574219 6.542969 L 41.835938 6.542969 C 41.972656 6.503906 42.058594 6.421875 42.097656 6.296875 L 42.691406 2.289062 C 42.691406 2.136719 42.609375 2.039062 42.449219 1.992188 L 29.480469 1.992188 C 29.378906 2.011719 29.300781 2.066406 29.25 2.15625 L 27.808594 6.15625 L 27.789062 6.277344 C 27.789062 6.410156 27.871094 6.5 28.03125 6.542969 L 28.285156 6.542969 C 28.394531 6.523438 28.476562 6.46875 28.527344 6.371094 C 28.800781 5.605469 29.03125 5.019531 29.21875 4.617188 C 29.40625 4.210938 29.640625 3.871094 29.914062 3.597656 C 30.191406 3.328125 30.554688 3.121094 31.003906 2.980469 C 31.453125 2.839844 32.050781 2.773438 32.789062 2.773438 L 34.160156 2.773438 C 34.601562 2.773438 34.820312 2.804688 34.820312 2.867188 C 34.804688 3.011719 34.769531 3.160156 34.726562 3.3125 L 32.03125 13.820312 C 31.957031 14.125 31.792969 14.316406 31.535156 14.390625 C 31.164062 14.464844 30.367188 14.503906 29.140625 14.503906 C 29.050781 14.515625 28.980469 14.566406 28.929688 14.65625 L 28.851562 14.96875 Z M 28.917969 15.183594 "/>
<path style=" stroke:none;fill-rule:nonzero;fill:rgb(100%,100%,0%);fill-opacity:1;" d="M 48.578125 30.667969 C 48.882812 30.339844 49.03125 29.976562 49.03125 29.582031 C 49.03125 29.285156 48.925781 29.046875 48.710938 28.863281 C 48.5 28.679688 48.234375 28.585938 47.917969 28.585938 C 47.441406 28.585938 47.050781 28.757812 46.738281 29.105469 C 46.429688 29.449219 46.273438 29.855469 46.273438 30.324219 C 46.273438 30.90625 46.523438 31.375 47.027344 31.730469 C 47.53125 32.085938 48.105469 32.261719 48.742188 32.261719 C 49.574219 32.261719 50.296875 31.902344 50.90625 31.1875 C 51.515625 30.46875 52.019531 29.574219 52.410156 28.511719 C 52.804688 27.445312 53.109375 26.410156 53.328125 25.398438 C 53.546875 24.390625 53.738281 23.394531 53.902344 22.414062 L 55.222656 15.679688 L 58.261719 15.679688 L 58.449219 15.578125 C 58.5 15.511719 58.539062 15.421875 58.566406 15.308594 C 58.59375 15.199219 58.613281 15.121094 58.621094 15.074219 C 58.621094 14.832031 58.527344 14.710938 58.34375 14.710938 L 55.414062 14.710938 L 55.761719 12.890625 C 56.167969 10.824219 56.433594 9.558594 56.550781 9.089844 C 56.625 8.792969 56.792969 8.515625 57.046875 8.253906 C 57.300781 7.996094 57.570312 7.863281 57.859375 7.863281 C 58.378906 7.863281 58.8125 7.996094 59.164062 8.253906 C 58.746094 8.296875 58.394531 8.472656 58.113281 8.769531 C 57.828125 9.070312 57.6875 9.421875 57.6875 9.824219 C 57.6875 10.121094 57.796875 10.359375 58.015625 10.542969 C 58.234375 10.726562 58.496094 10.816406 58.804688 10.816406 C 59.257812 10.816406 59.644531 10.644531 59.96875 10.300781 C 60.285156 9.957031 60.449219 9.550781 60.449219 9.085938 C 60.449219 8.683594 60.320312 8.335938 60.074219 8.039062 C 59.824219 7.742188 59.5 7.523438 59.109375 7.375 C 58.714844 7.226562 58.308594 7.152344 57.894531 7.152344 C 57.253906 7.152344 56.660156 7.347656 56.109375 7.738281 C 55.558594 8.128906 55.121094 8.625 54.796875 9.226562 C 54.585938 9.648438 54.425781 10.03125 54.316406 10.371094 C 54.210938 10.714844 54.113281 11.085938 54.019531 11.484375 C 53.925781 11.882812 53.824219 12.363281 53.714844 12.917969 L 53.382812 14.710938 L 50.847656 14.710938 C 50.683594 14.710938 50.5625 14.914062 50.488281 15.316406 C 50.488281 15.558594 50.582031 15.679688 50.765625 15.679688 L 53.199219 15.679688 L 51.894531 22.441406 C 51.109375 26.359375 50.628906 28.667969 50.453125 29.367188 C 50.027344 30.820312 49.476562 31.546875 48.804688 31.546875 C 48.304688 31.546875 47.878906 31.417969 47.527344 31.160156 C 47.925781 31.160156 48.277344 30.996094 48.578125 30.667969 "/>
<path style=" stroke:none;fill-rule:nonzero;fill:rgb(100%,100%,0%);fill-opacity:1;" d="M 70.628906 33.503906 L 70.894531 33.503906 L 71.039062 33.414062 L 71.117188 33.261719 C 71.117188 33.160156 71.085938 33.085938 71.03125 33.03125 C 67.8125 29.996094 66.203125 25.554688 66.203125 19.707031 C 66.203125 18.386719 66.285156 17.121094 66.453125 15.902344 C 66.617188 14.6875 66.890625 13.507812 67.265625 12.375 C 67.640625 11.238281 68.132812 10.167969 68.75 9.160156 C 69.363281 8.15625 70.132812 7.210938 71.058594 6.332031 L 71.117188 6.15625 L 71.046875 5.988281 L 70.894531 5.914062 L 70.628906 5.914062 C 70.535156 5.914062 70.492188 5.933594 70.492188 5.96875 C 69.464844 6.75 68.566406 7.660156 67.796875 8.703125 C 67.03125 9.746094 66.398438 10.863281 65.902344 12.054688 C 65.410156 13.25 65.039062 14.496094 64.800781 15.789062 C 64.558594 17.082031 64.441406 18.386719 64.441406 19.707031 C 64.441406 21.011719 64.558594 22.308594 64.800781 23.601562 C 65.039062 24.894531 65.402344 26.132812 65.890625 27.320312 C 66.375 28.503906 67 29.621094 67.765625 30.667969 C 68.527344 31.710938 69.4375 32.640625 70.492188 33.449219 C 70.492188 33.484375 70.535156 33.503906 70.628906 33.503906 "/>
<path style=" stroke:none;fill-rule:nonzero;fill:rgb(100%,100%,0%);fill-opacity:1;" d="M 79.128906 26.605469 L 79.128906 25.203125 C 78.957031 25.203125 78.730469 25.183594 78.460938 25.136719 C 78.1875 25.09375 78.050781 25.039062 78.050781 24.976562 L 80.886719 21.835938 L 83.804688 25.203125 L 82.753906 25.203125 L 82.753906 26.605469 L 89.429688 26.605469 L 89.429688 25.203125 L 87.3125 25.203125 L 82.722656 19.816406 L 86.179688 16.015625 C 86.347656 15.847656 87.230469 15.761719 88.835938 15.761719 L 88.835938 14.359375 L 83.179688 14.359375 L 83.179688 15.761719 C 83.347656 15.761719 83.566406 15.78125 83.835938 15.816406 C 84.109375 15.851562 84.246094 15.910156 84.246094 15.992188 L 81.785156 18.710938 L 79.242188 15.761719 L 80.265625 15.761719 L 80.265625 14.359375 L 73.601562 14.359375 L 73.601562 15.761719 L 75.703125 15.761719 L 79.945312 20.730469 L 76.128906 24.949219 C 75.957031 25.121094 75.066406 25.203125 73.460938 25.203125 L 73.460938 26.605469 Z M 79.128906 26.605469 "/>
<path style=" stroke:none;fill-rule:nonzero;fill:rgb(100%,100%,0%);fill-opacity:1;" d="M 91.851562 33.503906 L 91.992188 33.449219 C 93.046875 32.640625 93.953125 31.71875 94.710938 30.679688 C 95.472656 29.644531 96.097656 28.511719 96.59375 27.285156 C 97.089844 26.058594 97.449219 24.816406 97.675781 23.554688 C 97.902344 22.292969 98.015625 21.011719 98.015625 19.707031 C 98.015625 17.949219 97.804688 16.222656 97.382812 14.535156 C 96.964844 12.847656 96.300781 11.257812 95.390625 9.765625 C 94.484375 8.277344 93.351562 7.007812 91.992188 5.96875 L 91.851562 5.914062 L 91.589844 5.914062 L 91.414062 5.988281 L 91.339844 6.15625 C 91.339844 6.265625 91.375 6.339844 91.449219 6.386719 C 94.652344 9.421875 96.253906 13.863281 96.253906 19.707031 C 96.253906 25.554688 94.632812 30.011719 91.394531 33.085938 L 91.339844 33.261719 C 91.339844 33.421875 91.421875 33.503906 91.589844 33.503906 Z M 109.539062 33.503906 L 109.800781 33.503906 L 109.949219 33.414062 L 110.023438 33.261719 C 110.023438 33.160156 109.996094 33.085938 109.941406 33.03125 C 106.722656 29.996094 105.109375 25.554688 105.109375 19.707031 C 105.109375 18.386719 105.195312 17.121094 105.359375 15.902344 C 105.527344 14.6875 105.796875 13.507812 106.171875 12.375 C 106.546875 11.238281 107.042969 10.167969 107.65625 9.160156 C 108.273438 8.15625 109.042969 7.210938 109.96875 6.332031 L 110.023438 6.15625 L 109.953125 5.988281 L 109.800781 5.914062 L 109.539062 5.914062 C 109.445312 5.914062 109.398438 5.933594 109.398438 5.96875 C 108.371094 6.75 107.476562 7.660156 106.707031 8.703125 C 105.9375 9.746094 105.308594 10.863281 104.8125 12.054688 C 104.316406 13.25 103.949219 14.496094 103.707031 15.789062 C 103.46875 17.082031 103.347656 18.386719 103.347656 19.707031 C 103.347656 21.011719 103.46875 22.308594 103.707031 23.601562 C 103.949219 24.894531 104.3125 26.132812 104.800781 27.320312 C 105.285156 28.503906 105.910156 29.621094 106.671875 30.667969 C 107.4375 31.710938 108.34375 32.640625 109.398438 33.449219 C 109.398438 33.484375 109.445312 33.503906 109.539062 33.503906 "/>
<path style=" stroke:none;fill-rule:nonzero;fill:rgb(100%,100%,0%);fill-opacity:1;" d="M 112.972656 31.386719 C 113.585938 31.882812 114.277344 32.128906 115.054688 32.128906 C 116.078125 32.128906 117.011719 31.800781 117.855469 31.144531 C 118.699219 30.488281 119.339844 29.683594 119.785156 28.734375 L 125.867188 15.992188 C 126.007812 15.835938 126.667969 15.761719 127.855469 15.761719 L 127.855469 14.359375 L 122.933594 14.359375 L 122.933594 15.761719 C 123.21875 15.761719 123.515625 15.777344 123.828125 15.808594 C 124.140625 15.839844 124.296875 15.902344 124.296875 15.992188 L 120.980469 22.941406 L 117.542969 15.761719 L 119.027344 15.761719 L 119.027344 14.359375 L 112.164062 14.359375 L 112.164062 15.761719 L 114.027344 15.761719 L 119.222656 26.605469 L 118.195312 28.734375 C 117.902344 29.378906 117.472656 29.921875 116.914062 30.363281 C 116.355469 30.804688 115.734375 31.023438 115.054688 31.023438 C 114.953125 31.023438 114.800781 31.003906 114.597656 30.96875 C 115.148438 30.65625 115.425781 30.167969 115.425781 29.5 C 115.425781 29.042969 115.265625 28.65625 114.941406 28.34375 C 114.617188 28.027344 114.222656 27.871094 113.753906 27.871094 C 113.265625 27.871094 112.859375 28.027344 112.535156 28.34375 C 112.214844 28.65625 112.050781 29.042969 112.050781 29.5 C 112.050781 30.265625 112.359375 30.894531 112.972656 31.386719 "/>
<path style=" stroke:none;fill-rule:nonzero;fill:rgb(100%,100%,0%);fill-opacity:1;" d="M 154.816406 20.261719 C 154.960938 20.261719 155.085938 20.203125 155.179688 20.085938 C 155.277344 19.96875 155.324219 19.84375 155.324219 19.707031 C 155.324219 19.574219 155.277344 19.449219 155.179688 19.332031 C 155.085938 19.214844 154.960938 19.15625 154.816406 19.15625 L 138.695312 19.15625 C 138.539062 19.15625 138.410156 19.214844 138.3125 19.332031 C 138.210938 19.449219 138.160156 19.574219 138.160156 19.707031 C 138.160156 19.84375 138.210938 19.96875 138.3125 20.085938 C 138.410156 20.203125 138.539062 20.261719 138.695312 20.261719 Z M 154.816406 20.261719 "/>
<path style=" stroke:none;fill-rule:nonzero;fill:rgb(100%,100%,0%);fill-opacity:1;" d="M 170.183594 26.605469 L 170.183594 25.203125 C 170.007812 25.203125 169.785156 25.183594 169.515625 25.136719 C 169.242188 25.09375 169.105469 25.039062 169.105469 24.976562 L 171.941406 21.835938 L 174.859375 25.203125 L 173.808594 25.203125 L 173.808594 26.605469 L 180.484375 26.605469 L 180.484375 25.203125 L 178.367188 25.203125 L 173.777344 19.816406 L 177.234375 16.015625 C 177.402344 15.847656 178.285156 15.761719 179.890625 15.761719 L 179.890625 14.359375 L 174.234375 14.359375 L 174.234375 15.761719 C 174.402344 15.761719 174.621094 15.78125 174.890625 15.816406 C 175.164062 15.851562 175.300781 15.910156 175.300781 15.992188 L 172.839844 18.710938 L 170.296875 15.761719 L 171.320312 15.761719 L 171.320312 14.359375 L 164.65625 14.359375 L 164.65625 15.761719 L 166.753906 15.761719 L 171 20.730469 L 167.183594 24.949219 C 167.007812 25.121094 166.121094 25.203125 164.515625 25.203125 L 164.515625 26.605469 Z M 170.183594 26.605469 "/>
<path style=" stroke:none;fill-rule:nonzero;fill:rgb(100%,100%,0%);fill-opacity:1;" d="M 183.066406 33.503906 L 183.207031 33.449219 C 184.261719 32.640625 185.167969 31.71875 185.925781 30.679688 C 186.683594 29.644531 187.3125 28.511719 187.808594 27.285156 C 188.300781 26.058594 188.664062 24.816406 188.890625 23.554688 C 189.117188 22.292969 189.230469 21.011719 189.230469 19.707031 C 189.230469 17.949219 189.019531 16.222656 188.597656 14.535156 C 188.175781 12.847656 187.511719 11.257812 186.605469 9.765625 C 185.699219 8.277344 184.566406 7.007812 183.207031 5.96875 L 183.066406 5.914062 L 182.804688 5.914062 L 182.628906 5.988281 L 182.554688 6.15625 C 182.554688 6.265625 182.589844 6.339844 182.664062 6.386719 C 185.867188 9.421875 187.46875 13.863281 187.46875 19.707031 C 187.46875 25.554688 185.847656 30.011719 182.609375 33.085938 L 182.554688 33.261719 C 182.554688 33.421875 182.636719 33.503906 182.804688 33.503906 Z M 183.066406 33.503906 "/>
<path style=" stroke:none;fill-rule:nonzero;fill:rgb(100%,100%,0%);fill-opacity:1;" d="M 218.996094 30.363281 C 219.03125 30.382812 219.097656 30.390625 219.191406 30.390625 C 219.347656 30.390625 219.484375 30.335938 219.59375 30.230469 C 219.707031 30.121094 219.761719 29.992188 219.761719 29.839844 C 219.761719 29.59375 219.652344 29.429688 219.425781 29.339844 L 203.101562 21.890625 C 203.046875 21.871094 202.96875 21.863281 202.878906 21.863281 C 202.699219 21.863281 202.5625 21.917969 202.457031 22.027344 C 202.355469 22.132812 202.304688 22.265625 202.304688 22.414062 C 202.304688 22.648438 202.433594 22.816406 202.683594 22.914062 Z M 218.996094 24.976562 C 219.03125 25.011719 219.097656 25.03125 219.191406 25.03125 C 219.347656 25.03125 219.484375 24.976562 219.59375 24.875 C 219.707031 24.773438 219.761719 24.640625 219.761719 24.476562 C 219.761719 24.253906 219.679688 24.09375 219.511719 24.003906 L 204.21875 17.027344 L 219.425781 10.105469 C 219.652344 10.015625 219.761719 9.847656 219.761719 9.605469 C 219.761719 9.453125 219.707031 9.324219 219.59375 9.214844 C 219.484375 9.105469 219.347656 9.050781 219.191406 9.050781 C 219.097656 9.050781 219.03125 9.066406 218.996094 9.09375 L 202.683594 16.527344 C 202.433594 16.628906 202.304688 16.792969 202.304688 17.027344 C 202.304688 17.289062 202.398438 17.445312 202.585938 17.5 Z M 218.996094 24.976562 "/>
<path style=" stroke:none;fill-rule:nonzero;fill:rgb(100%,100%,0%);fill-opacity:1;" d="M 240.128906 25.761719 C 241.007812 24.796875 241.597656 23.625 241.898438 22.246094 C 242.199219 20.871094 242.351562 19.390625 242.351562 17.808594 C 242.351562 16.632812 242.273438 15.507812 242.121094 14.433594 C 241.96875 13.363281 241.683594 12.355469 241.265625 11.417969 C 240.851562 10.476562 240.246094 9.710938 239.449219 9.121094 C 238.652344 8.527344 237.632812 8.230469 236.382812 8.230469 C 234.769531 8.230469 233.519531 8.722656 232.628906 9.707031 C 231.734375 10.6875 231.136719 11.886719 230.835938 13.296875 C 230.535156 14.707031 230.386719 16.210938 230.386719 17.808594 C 230.386719 20.367188 230.804688 22.574219 231.640625 24.429688 C 232.480469 26.285156 234.058594 27.210938 236.382812 27.210938 C 238 27.210938 239.25 26.726562 240.128906 25.761719 M 234.417969 25.507812 C 233.921875 24.847656 233.5625 24.035156 233.34375 23.070312 C 233.121094 22.105469 232.984375 21.167969 232.933594 20.261719 C 232.882812 19.351562 232.855469 18.386719 232.855469 17.363281 C 232.855469 15.980469 232.914062 14.707031 233.035156 13.546875 C 233.15625 12.382812 233.476562 11.324219 233.992188 10.375 C 234.511719 9.421875 235.308594 8.945312 236.382812 8.945312 C 237.445312 8.945312 238.234375 9.417969 238.746094 10.367188 C 239.261719 11.3125 239.578125 12.371094 239.699219 13.539062 C 239.820312 14.707031 239.878906 15.980469 239.878906 17.363281 C 239.878906 18.800781 239.820312 20.15625 239.699219 21.433594 C 239.578125 22.707031 239.257812 23.871094 238.742188 24.921875 C 238.222656 25.972656 237.4375 26.496094 236.382812 26.496094 C 235.566406 26.496094 234.910156 26.167969 234.417969 25.507812 "/>
<path style=" stroke:none;fill-rule:nonzero;fill:rgb(100%,100%,0%);fill-opacity:1;" d="M 281.46875 142.175781 L 281.855469 142.175781 C 282.101562 142.175781 282.273438 142.074219 282.363281 141.867188 L 292.0625 122.722656 L 292.085938 122.683594 L 292.09375 122.644531 C 292.09375 122.492188 292.011719 122.414062 291.859375 122.414062 L 271.464844 122.414062 C 271.308594 122.414062 271.230469 122.492188 271.230469 122.644531 L 271.253906 122.675781 L 271.257812 122.722656 L 280.960938 141.867188 C 281.050781 142.074219 281.222656 142.175781 281.46875 142.175781 M 274.890625 124.488281 L 290.054688 124.488281 L 282.472656 139.46875 Z M 274.890625 124.488281 "/>
<path style=" stroke:none;fill-rule:nonzero;fill:rgb(100%,100%,0%);fill-opacity:1;" d="M 297.34375 145.320312 C 297.648438 144.992188 297.796875 144.632812 297.796875 144.238281 C 297.796875 143.941406 297.691406 143.699219 297.476562 143.515625 C 297.261719 143.332031 297 143.242188 296.683594 143.242188 C 296.207031 143.242188 295.816406 143.414062 295.503906 143.757812 C 295.195312 144.105469 295.039062 144.511719 295.039062 144.976562 C 295.039062 145.5625 295.289062 146.03125 295.792969 146.386719 C 296.296875 146.742188 296.871094 146.917969 297.507812 146.917969 C 298.339844 146.917969 299.0625 146.558594 299.671875 145.839844 C 300.28125 145.121094 300.785156 144.230469 301.175781 143.167969 C 301.570312 142.101562 301.875 141.066406 302.09375 140.054688 C 302.3125 139.046875 302.503906 138.050781 302.667969 137.070312 L 303.988281 130.335938 L 307.027344 130.335938 L 307.214844 130.234375 C 307.265625 130.167969 307.304688 130.078125 307.332031 129.964844 C 307.359375 129.851562 307.378906 129.773438 307.386719 129.730469 C 307.386719 129.488281 307.292969 129.367188 307.109375 129.367188 L 304.179688 129.367188 L 304.527344 127.546875 C 304.933594 125.480469 305.199219 124.214844 305.316406 123.746094 C 305.390625 123.449219 305.554688 123.171875 305.8125 122.910156 C 306.066406 122.648438 306.335938 122.519531 306.625 122.519531 C 307.144531 122.519531 307.578125 122.648438 307.929688 122.910156 C 307.511719 122.953125 307.160156 123.125 306.878906 123.425781 C 306.59375 123.726562 306.453125 124.078125 306.453125 124.480469 C 306.453125 124.773438 306.5625 125.015625 306.78125 125.199219 C 307 125.382812 307.261719 125.472656 307.570312 125.472656 C 308.023438 125.472656 308.410156 125.300781 308.734375 124.957031 C 309.050781 124.613281 309.210938 124.207031 309.210938 123.742188 C 309.210938 123.339844 309.085938 122.988281 308.839844 122.695312 C 308.589844 122.398438 308.265625 122.179688 307.875 122.03125 C 307.480469 121.882812 307.074219 121.808594 306.660156 121.808594 C 306.019531 121.808594 305.425781 122.003906 304.875 122.394531 C 304.324219 122.785156 303.886719 123.28125 303.5625 123.882812 C 303.347656 124.304688 303.191406 124.6875 303.082031 125.027344 C 302.976562 125.371094 302.878906 125.738281 302.785156 126.140625 C 302.691406 126.539062 302.589844 127.015625 302.480469 127.574219 L 302.148438 129.367188 L 299.613281 129.367188 C 299.449219 129.367188 299.328125 129.566406 299.253906 129.972656 C 299.253906 130.214844 299.347656 130.335938 299.53125 130.335938 L 301.964844 130.335938 L 300.660156 137.097656 C 299.875 141.015625 299.394531 143.320312 299.21875 144.023438 C 298.792969 145.476562 298.242188 146.203125 297.570312 146.203125 C 297.070312 146.203125 296.644531 146.074219 296.292969 145.8125 C 296.691406 145.8125 297.042969 145.648438 297.34375 145.320312 "/>
<path style=" stroke:none;fill-rule:nonzero;fill:rgb(100%,100%,0%);fill-opacity:1;" d="M 319.585938 148.15625 L 319.847656 148.15625 L 319.996094 148.070312 L 320.070312 147.914062 C 320.070312 147.816406 320.042969 147.738281 319.988281 147.6875 C 316.757812 144.652344 315.140625 140.210938 315.140625 134.363281 C 315.140625 133.042969 315.226562 131.773438 315.390625 130.558594 C 315.558594 129.339844 315.832031 128.164062 316.207031 127.027344 C 316.582031 125.894531 317.078125 124.820312 317.695312 123.816406 C 318.3125 122.808594 319.085938 121.867188 320.015625 120.988281 L 320.070312 120.8125 L 320.003906 120.644531 L 319.847656 120.570312 L 319.585938 120.570312 C 319.492188 120.570312 319.445312 120.585938 319.445312 120.625 C 318.414062 121.40625 317.515625 122.316406 316.742188 123.359375 C 315.972656 124.398438 315.339844 125.519531 314.84375 126.710938 C 314.347656 127.90625 313.976562 129.152344 313.734375 130.445312 C 313.492188 131.738281 313.371094 133.042969 313.371094 134.363281 C 313.371094 135.664062 313.492188 136.964844 313.734375 138.257812 C 313.976562 139.550781 314.339844 140.789062 314.828125 141.976562 C 315.316406 143.160156 315.941406 144.277344 316.707031 145.320312 C 317.472656 146.367188 318.386719 147.296875 319.445312 148.105469 C 319.445312 148.140625 319.492188 148.15625 319.585938 148.15625 "/>
<path style=" stroke:none;fill-rule:nonzero;fill:rgb(100%,100%,0%);fill-opacity:1;" d="M 327.613281 141.261719 L 327.613281 139.859375 C 327.4375 139.859375 327.210938 139.835938 326.9375 139.792969 C 326.664062 139.746094 326.527344 139.695312 326.527344 139.628906 L 329.378906 136.492188 L 332.3125 139.859375 L 331.253906 139.859375 L 331.253906 141.261719 L 337.972656 141.261719 L 337.972656 139.859375 L 335.84375 139.859375 L 331.226562 134.472656 L 334.703125 130.671875 C 334.871094 130.5 335.761719 130.417969 337.375 130.417969 L 337.375 129.015625 L 331.6875 129.015625 L 331.6875 130.417969 C 331.855469 130.417969 332.074219 130.433594 332.347656 130.46875 C 332.621094 130.507812 332.757812 130.566406 332.757812 130.644531 L 330.28125 133.367188 L 327.722656 130.417969 L 328.753906 130.417969 L 328.753906 129.015625 L 322.050781 129.015625 L 322.050781 130.417969 L 324.164062 130.417969 L 328.433594 135.386719 L 324.597656 139.605469 C 324.417969 139.773438 323.523438 139.859375 321.910156 139.859375 L 321.910156 141.261719 Z M 327.613281 141.261719 "/>
<path style=" stroke:none;fill-rule:nonzero;fill:rgb(100%,100%,0%);fill-opacity:1;" d="M 340.464844 148.15625 L 340.605469 148.105469 C 341.664062 147.296875 342.574219 146.371094 343.335938 145.335938 C 344.097656 144.296875 344.726562 143.167969 345.222656 141.941406 C 345.71875 140.714844 346.078125 139.472656 346.308594 138.210938 C 346.535156 136.949219 346.648438 135.664062 346.648438 134.363281 C 346.648438 132.605469 346.4375 130.878906 346.015625 129.191406 C 345.59375 127.503906 344.925781 125.914062 344.015625 124.421875 C 343.105469 122.933594 341.96875 121.664062 340.605469 120.625 L 340.464844 120.570312 L 340.199219 120.570312 L 340.027344 120.644531 L 339.949219 120.8125 C 339.949219 120.917969 339.988281 120.996094 340.0625 121.039062 C 343.273438 124.078125 344.878906 128.515625 344.878906 134.363281 C 344.878906 140.210938 343.253906 144.667969 340.003906 147.738281 L 339.949219 147.914062 C 339.949219 148.078125 340.035156 148.15625 340.199219 148.15625 Z M 340.464844 148.15625 "/>
</g>
</svg>
