<?xml version="1.0" encoding="UTF-8"?>
<svg xmlns="http://www.w3.org/2000/svg" xmlns:xlink="http://www.w3.org/1999/xlink" width="503.448pt" height="396.33pt" viewBox="0 0 503.448 396.33" version="1.1">
<g id="surface1">
<path style="fill:none;stroke-width:0.99;stroke-linecap:butt;stroke-linejoin:round;stroke:rgb(100%,100%,100%);stroke-opacity:1;stroke-miterlimit:10;" d="M -0.00033249 0.00029262 C -0.300908 -0.600858 -0.699122 -1.200093 -0.999697 -1.699775 " transform="matrix(2.04036,0,0,-2.04036,74.574897,37.328722)"/>
<path style="fill:none;stroke-width:0.99;stroke-linecap:butt;stroke-linejoin:round;stroke:rgb(100%,100%,100%);stroke-opacity:1;stroke-miterlimit:10;" d="M 0.000938854 0.000602982 C -0.299636 -0.499079 -0.699765 -1.100229 -1.00034 -1.699465 " transform="matrix(2.04036,0,0,-2.04036,70.494178,44.46998)"/>
<path style="fill:none;stroke-width:0.99;stroke-linecap:butt;stroke-linejoin:round;stroke:rgb(100%,100%,100%);stroke-opacity:1;stroke-miterlimit:10;" d="M -0.000150758 0.000466879 C -0.300726 -0.600683 -0.599386 -1.100365 -0.999515 -1.699601 " transform="matrix(2.04036,0,0,-2.04036,66.617495,51.407203)"/>
<path style="fill:none;stroke-width:0.99;stroke-linecap:butt;stroke-linejoin:round;stroke:rgb(100%,100%,100%);stroke-opacity:1;stroke-miterlimit:10;" d="M 0.000674121 0.000330775 C -0.200347 -0.600819 -0.600476 -1.200055 -0.799583 -1.699737 " transform="matrix(2.04036,0,0,-2.04036,62.740812,58.344425)"/>
<path style="fill:none;stroke-width:0.99;stroke-linecap:butt;stroke-linejoin:round;stroke:rgb(100%,100%,100%);stroke-opacity:1;stroke-miterlimit:10;" d="M 0.00060607 0.000641137 C -0.299969 -0.500956 -0.600544 -1.100191 -0.899205 -1.699427 " transform="matrix(2.04036,0,0,-2.04036,59.272201,65.485683)"/>
<path style="fill:none;stroke-width:0.99;stroke-linecap:butt;stroke-linejoin:round;stroke:rgb(100%,100%,100%);stroke-opacity:1;stroke-miterlimit:10;" d="M 0.000538018 0.000951499 C -0.300037 -0.600199 -0.600612 -1.199434 -0.799719 -1.800585 " transform="matrix(2.04036,0,0,-2.04036,55.80359,72.626941)"/>
<path style="fill:none;stroke-width:0.99;stroke-linecap:butt;stroke-linejoin:round;stroke:rgb(100%,100%,100%);stroke-opacity:1;stroke-miterlimit:10;" d="M 0.0000235008 -0.000206165 C -0.300552 -0.599442 -0.499659 -1.200592 -0.800234 -1.799828 " transform="matrix(2.04036,0,0,-2.04036,52.539015,79.972236)"/>
<path style="fill:none;stroke-width:0.99;stroke-linecap:butt;stroke-linejoin:round;stroke:rgb(100%,100%,100%);stroke-opacity:1;stroke-miterlimit:10;" d="M -0.000937482 0.000550663 C -0.299598 -0.6006 -0.50062 -1.199835 -0.699727 -1.799071 " transform="matrix(2.04036,0,0,-2.04036,49.478475,87.31753)"/>
<path style="fill:none;stroke-width:0.99;stroke-linecap:butt;stroke-linejoin:round;stroke:rgb(100%,100%,100%);stroke-opacity:1;stroke-miterlimit:10;" d="M -0.000430439 -0.000607001 C -0.299091 -0.599843 -0.500113 -1.300546 -0.69922 -1.899782 " transform="matrix(2.04036,0,0,-2.04036,46.621972,94.662824)"/>
<path style="fill:none;stroke-width:0.99;stroke-linecap:butt;stroke-linejoin:round;stroke:rgb(100%,100%,100%);stroke-opacity:1;stroke-miterlimit:10;" d="M 0.0000766041 0.000596292 C -0.200945 -0.700107 -0.400052 -1.299343 -0.599159 -1.900493 " transform="matrix(2.04036,0,0,-2.04036,43.765469,102.212154)"/>
<path style="fill:none;stroke-width:0.99;stroke-linecap:butt;stroke-linejoin:round;stroke:rgb(100%,100%,100%);stroke-opacity:1;stroke-miterlimit:10;" d="M -0.000309284 0.000331559 C -0.199416 -0.499351 -0.300884 -1.200054 -0.499991 -1.79929 " transform="matrix(2.04036,0,0,-2.04036,41.317037,109.96552)"/>
<path style="fill:none;stroke-width:0.99;stroke-linecap:butt;stroke-linejoin:round;stroke:rgb(100%,100%,100%);stroke-opacity:1;stroke-miterlimit:10;" d="M 0.000772854 -0.000826104 C -0.100695 -0.699615 -0.299802 -1.300766 -0.500824 -1.999555 " transform="matrix(2.04036,0,0,-2.04036,39.072642,117.310814)"/>
<path style="fill:none;stroke-width:0.99;stroke-linecap:butt;stroke-linejoin:round;stroke:rgb(100%,100%,100%);stroke-opacity:1;stroke-miterlimit:10;" d="M -0.00095243 -0.000644372 C -0.200059 -0.59988 -0.399167 -1.300584 -0.500635 -1.899819 " transform="matrix(2.04036,0,0,-2.04036,37.236318,125.268216)"/>
<path style="fill:none;stroke-width:0.99;stroke-linecap:butt;stroke-linejoin:round;stroke:rgb(100%,100%,100%);stroke-opacity:1;stroke-miterlimit:10;" d="M -0.000763223 -0.000909104 C -0.100317 -0.600145 -0.299424 -1.300849 -0.400892 -1.900084 " transform="matrix(2.04036,0,0,-2.04036,35.399995,133.021583)"/>
<path style="fill:none;stroke-width:0.99;stroke-linecap:butt;stroke-linejoin:round;stroke:rgb(100%,100%,100%);stroke-opacity:1;stroke-miterlimit:10;" d="M 0.000447544 0.000740654 C -0.099106 -0.60041 -0.200574 -1.299199 -0.300128 -1.900349 " transform="matrix(2.04036,0,0,-2.04036,33.971743,140.774949)"/>
<path style="fill:none;stroke-width:0.99;stroke-linecap:butt;stroke-linejoin:round;stroke:rgb(100%,100%,100%);stroke-opacity:1;stroke-miterlimit:10;" d="M -0.000702646 0.000922386 C -0.100256 -0.699781 -0.100256 -1.300932 -0.19981 -1.999721 " transform="matrix(2.04036,0,0,-2.04036,32.747527,148.732351)"/>
<path style="fill:none;stroke-width:0.99;stroke-linecap:butt;stroke-linejoin:round;stroke:rgb(100%,100%,100%);stroke-opacity:1;stroke-miterlimit:10;" d="M -0.000831275 -0.000810372 C -0.100385 -0.600046 -0.100385 -1.30075 -0.100385 -1.899985 " transform="matrix(2.04036,0,0,-2.04036,31.931384,156.689753)"/>
<path style="fill:none;stroke-width:0.99;stroke-linecap:butt;stroke-linejoin:round;stroke:rgb(100%,100%,100%);stroke-opacity:1;stroke-miterlimit:10;" d="M 0.000508121 -0.000628639 C 0.000508121 -0.599864 0.000508121 -1.300568 0.000508121 -1.899804 " transform="matrix(2.04036,0,0,-2.04036,31.319276,164.647155)"/>
<path style="fill:none;stroke-width:0.99;stroke-linecap:butt;stroke-linejoin:round;stroke:rgb(100%,100%,100%);stroke-opacity:1;stroke-miterlimit:10;" d="M 0.000954587 -0.000446907 C 0.000954587 -0.599683 0.000954587 -1.300386 0.100508 -1.899622 " transform="matrix(2.04036,0,0,-2.04036,31.11524,172.604557)"/>
<path style="fill:none;stroke-width:0.99;stroke-linecap:butt;stroke-linejoin:round;stroke:rgb(100%,100%,100%);stroke-opacity:1;stroke-miterlimit:10;" d="M 0.000508121 -0.000265174 C 0.000508121 -0.599501 0.100062 -1.300205 0.100062 -1.89944 " transform="matrix(2.04036,0,0,-2.04036,31.319276,180.561959)"/>
<path style="fill:none;stroke-width:0.99;stroke-linecap:butt;stroke-linejoin:round;stroke:rgb(100%,100%,100%);stroke-opacity:1;stroke-miterlimit:10;" d="M -0.00038481 -0.0000834412 C 0.0991687 -0.599319 0.200637 -1.300023 0.200637 -1.899259 " transform="matrix(2.04036,0,0,-2.04036,31.727348,188.519361)"/>
<path style="fill:none;stroke-width:0.99;stroke-linecap:butt;stroke-linejoin:round;stroke:rgb(100%,100%,100%);stroke-opacity:1;stroke-miterlimit:10;" d="M -0.000702646 0.0000982915 C 0.100765 -0.599137 0.200319 -1.299841 0.299872 -1.899077 " transform="matrix(2.04036,0,0,-2.04036,32.747527,196.476763)"/>
<path style="fill:none;stroke-width:0.99;stroke-linecap:butt;stroke-linejoin:round;stroke:rgb(100%,100%,100%);stroke-opacity:1;stroke-miterlimit:10;" d="M 0.000447544 -0.000166441 C 0.100001 -0.70087 0.199555 -1.300106 0.400576 -1.899342 " transform="matrix(2.04036,0,0,-2.04036,33.971743,204.230129)"/>
<path style="fill:none;stroke-width:0.99;stroke-linecap:butt;stroke-linejoin:round;stroke:rgb(100%,100%,100%);stroke-opacity:1;stroke-miterlimit:10;" d="M 0.000704802 -0.000431174 C 0.100258 -0.69922 0.299365 -1.300371 0.500387 -1.899606 " transform="matrix(2.04036,0,0,-2.04036,35.604031,211.983495)"/>
<path style="fill:none;stroke-width:0.99;stroke-linecap:butt;stroke-linejoin:round;stroke:rgb(100%,100%,100%);stroke-opacity:1;stroke-miterlimit:10;" d="M 0.00006913 -0.000695907 C 0.199176 -0.699485 0.300644 -1.300635 0.499751 -1.899871 " transform="matrix(2.04036,0,0,-2.04036,37.64439,219.736861)"/>
<path style="fill:none;stroke-width:0.99;stroke-linecap:butt;stroke-linejoin:round;stroke:rgb(100%,100%,100%);stroke-opacity:1;stroke-miterlimit:10;" d="M 0.000901483 0.000953852 C 0.200009 -0.500643 0.500584 -1.199432 0.699691 -1.800582 " transform="matrix(2.04036,0,0,-2.04036,39.888786,227.490227)"/>
<path style="fill:none;stroke-width:0.99;stroke-linecap:butt;stroke-linejoin:round;stroke:rgb(100%,100%,100%);stroke-opacity:1;stroke-miterlimit:10;" d="M 0.00039444 -0.000203812 C 0.199502 -0.59944 0.500077 -1.20059 0.699184 -1.799825 " transform="matrix(2.04036,0,0,-2.04036,42.745289,234.835522)"/>
<path style="fill:none;stroke-width:0.99;stroke-linecap:butt;stroke-linejoin:round;stroke:rgb(100%,100%,100%);stroke-opacity:1;stroke-miterlimit:10;" d="M -0.000559068 0.000553015 C 0.300016 -0.600597 0.600591 -1.199833 0.899252 -1.799069 " transform="matrix(2.04036,0,0,-2.04036,45.805828,242.180816)"/>
<path style="fill:none;stroke-width:0.99;stroke-linecap:butt;stroke-linejoin:round;stroke:rgb(100%,100%,100%);stroke-opacity:1;stroke-miterlimit:10;" d="M -0.000491016 0.000863377 C 0.300084 -0.600287 0.600659 -1.199523 0.89932 -1.699205 " transform="matrix(2.04036,0,0,-2.04036,49.274439,249.322074)"/>
<path style="fill:none;stroke-width:0.99;stroke-linecap:butt;stroke-linejoin:round;stroke:rgb(100%,100%,100%);stroke-opacity:1;stroke-miterlimit:10;" d="M 0.000598595 -0.000740752 C 0.299259 -0.500423 0.699388 -1.099659 0.999963 -1.700809 " transform="matrix(2.04036,0,0,-2.04036,53.151122,256.463332)"/>
<path style="fill:none;stroke-width:0.99;stroke-linecap:butt;stroke-linejoin:round;stroke:rgb(100%,100%,100%);stroke-opacity:1;stroke-miterlimit:10;" d="M -0.000672749 0.00059117 C 0.399456 -0.600559 0.700031 -1.100241 1.10016 -1.599923 " transform="matrix(2.04036,0,0,-2.04036,57.231841,263.196519)"/>
<path style="fill:none;stroke-width:0.99;stroke-linecap:butt;stroke-linejoin:round;stroke:rgb(100%,100%,100%);stroke-opacity:1;stroke-miterlimit:10;" d="M -0.000922534 -0.000437864 C 0.299653 -0.599674 0.699781 -1.099356 1.09991 -1.600952 " transform="matrix(2.04036,0,0,-2.04036,61.720632,269.725669)"/>
<path style="fill:none;stroke-width:0.99;stroke-linecap:butt;stroke-linejoin:round;stroke:rgb(100%,100%,100%);stroke-opacity:1;stroke-miterlimit:10;" d="M 0.000295708 0.000447593 C 0.400424 -0.499235 0.800553 -1.000831 1.200682 -1.500513 " transform="matrix(2.04036,0,0,-2.04036,66.413459,276.254819)"/>
<path style="fill:none;stroke-width:0.99;stroke-linecap:butt;stroke-linejoin:round;stroke:rgb(100%,100%,100%);stroke-opacity:1;stroke-miterlimit:10;" d="M -0.000847008 0.000886584 C 0.50075 -0.50071 0.900878 -1.000392 1.299092 -1.500074 " transform="matrix(2.04036,0,0,-2.04036,71.310322,282.579934)"/>
<path style="fill:none;stroke-width:0.99;stroke-linecap:butt;stroke-linejoin:round;stroke:rgb(100%,100%,100%);stroke-opacity:1;stroke-miterlimit:10;" d="M 0.000946328 0.000432644 C 0.39916 -0.399696 0.900757 -0.899378 1.300886 -1.299507 " transform="matrix(2.04036,0,0,-2.04036,76.615257,288.496976)"/>
<path style="fill:none;stroke-width:0.99;stroke-linecap:butt;stroke-linejoin:round;stroke:rgb(100%,100%,100%);stroke-opacity:1;stroke-miterlimit:10;" d="M 0.000378708 0.000553799 C 0.500061 -0.499128 0.90019 -0.899257 1.399872 -1.400854 " transform="matrix(2.04036,0,0,-2.04036,82.124227,293.801911)"/>
<path style="fill:none;stroke-width:0.99;stroke-linecap:butt;stroke-linejoin:round;stroke:rgb(100%,100%,100%);stroke-opacity:1;stroke-miterlimit:10;" d="M 0.000386182 0.000674955 C 0.500068 -0.399454 0.999751 -0.899136 1.499433 -1.199711 " transform="matrix(2.04036,0,0,-2.04036,88.245306,299.106846)"/>
<path style="fill:none;stroke-width:0.99;stroke-linecap:butt;stroke-linejoin:round;stroke:rgb(100%,100%,100%);stroke-opacity:1;stroke-miterlimit:10;" d="M -0.000499275 0.000349644 C 0.499183 -0.399779 1.100333 -0.700354 1.600015 -1.100483 " transform="matrix(2.04036,0,0,-2.04036,94.774456,304.207745)"/>
<path style="fill:none;stroke-width:0.99;stroke-linecap:butt;stroke-linejoin:round;stroke:rgb(100%,100%,100%);stroke-opacity:1;stroke-miterlimit:10;" d="M 0.00052976 0.000152963 C 0.500212 -0.399976 1.099448 -0.700551 1.59913 -0.999211 " transform="matrix(2.04036,0,0,-2.04036,101.303607,308.4925)"/>
<path style="fill:none;stroke-width:0.99;stroke-linecap:butt;stroke-linejoin:round;stroke:rgb(100%,100%,100%);stroke-opacity:1;stroke-miterlimit:10;" d="M -0.000802163 -0.000490183 C 0.500794 -0.299151 1.10003 -0.599726 1.699266 -0.900301 " transform="matrix(2.04036,0,0,-2.04036,108.036793,312.573219)"/>
<path style="fill:none;stroke-width:0.99;stroke-linecap:butt;stroke-linejoin:round;stroke:rgb(100%,100%,100%);stroke-opacity:1;stroke-miterlimit:10;" d="M -0.000666059 -0.00011177 C 0.600484 -0.40024 1.19972 -0.700815 1.80087 -0.999476 " transform="matrix(2.04036,0,0,-2.04036,114.974015,316.245866)"/>
<path style="fill:none;stroke-width:0.99;stroke-linecap:butt;stroke-linejoin:round;stroke:rgb(100%,100%,100%);stroke-opacity:1;stroke-miterlimit:10;" d="M 0.000491605 0.000266644 C 0.599727 -0.300308 1.300431 -0.600884 1.899667 -0.899544 " transform="matrix(2.04036,0,0,-2.04036,122.319309,319.918513)"/>
<path style="fill:none;stroke-width:0.99;stroke-linecap:butt;stroke-linejoin:round;stroke:rgb(100%,100%,100%);stroke-opacity:1;stroke-miterlimit:10;" d="M -0.000265223 -0.000247873 C 0.600885 -0.300823 1.200121 -0.49993 1.799356 -0.800505 " transform="matrix(2.04036,0,0,-2.04036,129.664604,323.183088)"/>
<path style="fill:none;stroke-width:0.99;stroke-linecap:butt;stroke-linejoin:round;stroke:rgb(100%,100%,100%);stroke-opacity:1;stroke-miterlimit:10;" d="M 0.000892441 0.000705635 C 0.600128 -0.200316 1.199364 -0.399423 1.800514 -0.600445 " transform="matrix(2.04036,0,0,-2.04036,137.009898,326.243627)"/>
<path style="fill:none;stroke-width:0.99;stroke-linecap:butt;stroke-linejoin:round;stroke:rgb(100%,100%,100%);stroke-opacity:1;stroke-miterlimit:10;" d="M 0.000135613 0.000766213 C 0.599371 -0.200255 1.300075 -0.399362 1.899311 -0.600384 " transform="matrix(2.04036,0,0,-2.04036,144.355192,328.896095)"/>
<path style="fill:none;stroke-width:0.99;stroke-linecap:butt;stroke-linejoin:round;stroke:rgb(100%,100%,100%);stroke-opacity:1;stroke-miterlimit:10;" d="M 0.000400346 0.000380325 C 0.599636 -0.200641 1.200786 -0.399748 1.899575 -0.60077 " transform="matrix(2.04036,0,0,-2.04036,152.108558,331.344526)"/>
<path style="fill:none;stroke-width:0.99;stroke-linecap:butt;stroke-linejoin:round;stroke:rgb(100%,100%,100%);stroke-opacity:1;stroke-miterlimit:10;" d="M 0.000665079 -0.00000556275 C 0.699454 -0.199113 1.300605 -0.400134 1.89984 -0.499688 " transform="matrix(2.04036,0,0,-2.04036,159.861924,333.792957)"/>
<path style="fill:none;stroke-width:0.99;stroke-linecap:butt;stroke-linejoin:round;stroke:rgb(100%,100%,100%);stroke-opacity:1;stroke-miterlimit:10;" d="M 0.000929812 0.00063011 C 0.600166 -0.200391 1.199401 -0.299945 1.800551 -0.499052 " transform="matrix(2.04036,0,0,-2.04036,167.61529,335.833317)"/>
<path style="fill:none;stroke-width:0.99;stroke-linecap:butt;stroke-linejoin:round;stroke:rgb(100%,100%,100%);stroke-opacity:1;stroke-miterlimit:10;" d="M -0.000273481 -0.000648709 C 0.600877 -0.100202 1.299666 -0.199756 1.900816 -0.400777 " transform="matrix(2.04036,0,0,-2.04036,175.164621,337.873676)"/>
<path style="fill:none;stroke-width:0.99;stroke-linecap:butt;stroke-linejoin:round;stroke:rgb(100%,100%,100%);stroke-opacity:1;stroke-miterlimit:10;" d="M -0.00000874846 -0.000905968 C 0.599227 -0.10046 1.299931 -0.299567 1.899166 -0.39912 " transform="matrix(2.04036,0,0,-2.04036,182.917987,339.505964)"/>
<path style="fill:none;stroke-width:0.99;stroke-linecap:butt;stroke-linejoin:round;stroke:rgb(100%,100%,100%);stroke-opacity:1;stroke-miterlimit:10;" d="M -0.000190481 0.000751265 C 0.599045 -0.100717 1.299749 -0.20027 1.900899 -0.299824 " transform="matrix(2.04036,0,0,-2.04036,190.875389,341.138252)"/>
<path style="fill:none;stroke-width:0.99;stroke-linecap:butt;stroke-linejoin:round;stroke:rgb(100%,100%,100%);stroke-opacity:1;stroke-miterlimit:10;" d="M -0.000372214 0.0000475406 C 0.700332 -0.099506 1.299567 -0.19906 2.000271 -0.300528 " transform="matrix(2.04036,0,0,-2.04036,198.832791,342.566503)"/>
<path style="fill:none;stroke-width:0.99;stroke-linecap:butt;stroke-linejoin:round;stroke:rgb(100%,100%,100%);stroke-opacity:1;stroke-miterlimit:10;" d="M -0.000553946 0.000811842 C 0.600596 0.000811842 1.199832 -0.100656 1.900536 -0.20021 " transform="matrix(2.04036,0,0,-2.04036,206.790193,343.790719)"/>
<path style="fill:none;stroke-width:0.99;stroke-linecap:butt;stroke-linejoin:round;stroke:rgb(100%,100%,100%);stroke-opacity:1;stroke-miterlimit:10;" d="M -0.000289214 -0.000784813 C 0.600861 -0.000784813 1.29965 -0.100338 1.9008 -0.199892 " transform="matrix(2.04036,0,0,-2.04036,214.543559,344.810899)"/>
<path style="fill:none;stroke-width:0.99;stroke-linecap:butt;stroke-linejoin:round;stroke:rgb(100%,100%,100%);stroke-opacity:1;stroke-miterlimit:10;" d="M -0.000470946 -0.000913442 C 0.600679 -0.000913442 1.299468 -0.100467 1.900619 -0.200021 " transform="matrix(2.04036,0,0,-2.04036,222.500961,345.627042)"/>
<path style="fill:none;stroke-width:0.99;stroke-linecap:butt;stroke-linejoin:round;stroke:rgb(100%,100%,100%);stroke-opacity:1;stroke-miterlimit:10;" d="M -0.000652679 0.00087242 C 0.600498 0.00087242 1.299287 0.00087242 1.900437 -0.100596 " transform="matrix(2.04036,0,0,-2.04036,230.458363,346.443186)"/>
<path style="fill:none;stroke-width:0.99;stroke-linecap:butt;stroke-linejoin:round;stroke:rgb(100%,100%,100%);stroke-opacity:1;stroke-miterlimit:10;" d="M -0.000834412 -0.00014914 C 0.699869 -0.0997027 1.299105 -0.0997027 1.999809 -0.199256 " transform="matrix(2.04036,0,0,-2.04036,238.415765,346.851258)"/>
<path style="fill:none;stroke-width:0.99;stroke-linecap:butt;stroke-linejoin:round;stroke:rgb(100%,100%,100%);stroke-opacity:1;stroke-miterlimit:10;" d="M 0.000451881 0.00074379 C 0.599688 -0.100724 1.300391 -0.100724 1.899627 -0.100724 " transform="matrix(2.04036,0,0,-2.04036,246.577203,347.25933)"/>
<path style="fill:none;stroke-width:0.99;stroke-linecap:butt;stroke-linejoin:round;stroke:rgb(100%,100%,100%);stroke-opacity:1;stroke-miterlimit:10;" d="M 0.000270148 -0.00027777 C 0.599506 -0.00027777 1.200656 -0.00027777 1.899445 -0.00027777 " transform="matrix(2.04036,0,0,-2.04036,254.534605,347.667402)"/>
<path style="fill:none;stroke-width:0.99;stroke-linecap:butt;stroke-linejoin:round;stroke:rgb(100%,100%,100%);stroke-opacity:1;stroke-miterlimit:10;" d="M 0.000534881 -0.00027777 C 0.699324 -0.00027777 1.300474 -0.00027777 1.999264 -0.00027777 " transform="matrix(2.04036,0,0,-2.04036,262.287971,347.667402)"/>
<path style="fill:none;stroke-width:0.99;stroke-linecap:butt;stroke-linejoin:round;stroke:rgb(100%,100%,100%);stroke-opacity:1;stroke-miterlimit:10;" d="M 0.000353149 -0.00027777 C 0.699142 -0.00027777 1.399846 -0.00027777 1.999082 -0.00027777 " transform="matrix(2.04036,0,0,-2.04036,270.245373,347.667402)"/>
<path style="fill:none;stroke-width:0.99;stroke-linecap:butt;stroke-linejoin:round;stroke:rgb(100%,100%,100%);stroke-opacity:1;stroke-miterlimit:10;" d="M -0.00027505 -0.000724235 C 0.600875 -0.000724235 1.299664 -0.000724235 1.900815 -0.000724235 " transform="matrix(2.04036,0,0,-2.04036,278.406811,347.463366)"/>
<path style="fill:none;stroke-width:0.99;stroke-linecap:butt;stroke-linejoin:round;stroke:rgb(100%,100%,100%);stroke-opacity:1;stroke-miterlimit:10;" d="M -0.000456782 0.00074379 C 0.700247 0.00074379 1.299483 0.100297 2.000186 0.100297 " transform="matrix(2.04036,0,0,-2.04036,286.364213,347.25933)"/>
<path style="fill:none;stroke-width:0.99;stroke-linecap:butt;stroke-linejoin:round;stroke:rgb(100%,100%,100%);stroke-opacity:1;stroke-miterlimit:10;" d="M -0.000638515 -0.00014914 C 0.700065 0.0994044 1.299301 0.200872 2.000005 0.200872 " transform="matrix(2.04036,0,0,-2.04036,294.321615,346.851258)"/>
<path style="fill:none;stroke-width:0.99;stroke-linecap:butt;stroke-linejoin:round;stroke:rgb(100%,100%,100%);stroke-opacity:1;stroke-miterlimit:10;" d="M -0.000820248 -0.0000205111 C 0.699883 -0.0000205111 1.299119 0.099533 1.999823 0.199087 " transform="matrix(2.04036,0,0,-2.04036,302.279017,346.035114)"/>
<path style="fill:none;stroke-width:0.99;stroke-linecap:butt;stroke-linejoin:round;stroke:rgb(100%,100%,100%);stroke-opacity:1;stroke-miterlimit:10;" d="M 0.000912511 0.000108118 C 0.699702 0.000108118 1.300852 0.0996617 1.999641 0.199215 " transform="matrix(2.04036,0,0,-2.04036,310.236419,345.218971)"/>
<path style="fill:none;stroke-width:0.99;stroke-linecap:butt;stroke-linejoin:round;stroke:rgb(100%,100%,100%);stroke-opacity:1;stroke-miterlimit:10;" d="M 0.000730778 0.000236747 C 0.599966 0.0997903 1.30067 0.199344 1.899906 0.300812 " transform="matrix(2.04036,0,0,-2.04036,318.193821,344.402827)"/>
<path style="fill:none;stroke-width:0.99;stroke-linecap:butt;stroke-linejoin:round;stroke:rgb(100%,100%,100%);stroke-opacity:1;stroke-miterlimit:10;" d="M 0.000549045 -0.0000810887 C 0.599785 0.0994724 1.300488 0.20094 1.899724 0.300494 " transform="matrix(2.04036,0,0,-2.04036,326.151224,343.382647)"/>
<path style="fill:none;stroke-width:0.99;stroke-linecap:butt;stroke-linejoin:round;stroke:rgb(100%,100%,100%);stroke-opacity:1;stroke-miterlimit:10;" d="M 0.000813778 -0.00084539 C 0.699603 0.200176 1.300753 0.29973 1.999542 0.399283 " transform="matrix(2.04036,0,0,-2.04036,333.90459,342.158431)"/>
<path style="fill:none;stroke-width:0.99;stroke-linecap:butt;stroke-linejoin:round;stroke:rgb(100%,100%,100%);stroke-opacity:1;stroke-miterlimit:10;" d="M 0.000632045 -0.000141666 C 0.699421 0.20088 1.300571 0.300433 1.899807 0.399987 " transform="matrix(2.04036,0,0,-2.04036,341.861992,340.73018)"/>
<path style="fill:none;stroke-width:0.99;stroke-linecap:butt;stroke-linejoin:round;stroke:rgb(100%,100%,100%);stroke-opacity:1;stroke-miterlimit:10;" d="M 0.000450313 0.000115592 C 0.599686 0.199223 1.200836 0.300691 1.899625 0.400244 " transform="matrix(2.04036,0,0,-2.04036,349.819394,339.097892)"/>
<path style="fill:none;stroke-width:0.99;stroke-linecap:butt;stroke-linejoin:round;stroke:rgb(100%,100%,100%);stroke-opacity:1;stroke-miterlimit:10;" d="M 0.000715046 -0.0000736145 C 0.599951 0.0994799 1.199186 0.300501 1.89989 0.400055 " transform="matrix(2.04036,0,0,-2.04036,357.57276,337.261569)"/>
<path style="fill:none;stroke-width:0.99;stroke-linecap:butt;stroke-linejoin:round;stroke:rgb(100%,100%,100%);stroke-opacity:1;stroke-miterlimit:10;" d="M -0.000934713 -0.000262821 C 0.600215 0.200759 1.199451 0.300312 1.900155 0.499419 " transform="matrix(2.04036,0,0,-2.04036,365.326126,335.425245)"/>
<path style="fill:none;stroke-width:0.99;stroke-linecap:butt;stroke-linejoin:round;stroke:rgb(100%,100%,100%);stroke-opacity:1;stroke-miterlimit:10;" d="M -0.000223515 -0.000898494 C 0.70048 0.200123 1.299716 0.39923 1.900866 0.600252 " transform="matrix(2.04036,0,0,-2.04036,372.875456,333.384885)"/>
<path style="fill:none;stroke-width:0.99;stroke-linecap:butt;stroke-linejoin:round;stroke:rgb(100%,100%,100%);stroke-opacity:1;stroke-miterlimit:10;" d="M 0.0000412182 -0.0000661403 C 0.599277 0.200955 1.299981 0.400062 1.899216 0.59917 " transform="matrix(2.04036,0,0,-2.04036,380.628822,331.14049)"/>
<path style="fill:none;stroke-width:0.99;stroke-linecap:butt;stroke-linejoin:round;stroke:rgb(100%,100%,100%);stroke-opacity:1;stroke-miterlimit:10;" d="M 0.000752416 0.000319748 C 0.699542 0.199427 1.300692 0.400448 1.899928 0.699109 " transform="matrix(2.04036,0,0,-2.04036,388.178152,328.692059)"/>
<path style="fill:none;stroke-width:0.99;stroke-linecap:butt;stroke-linejoin:round;stroke:rgb(100%,100%,100%);stroke-opacity:1;stroke-miterlimit:10;" d="M -0.000897342 0.00025917 C 0.600253 0.199366 1.199489 0.499941 1.800639 0.699048 " transform="matrix(2.04036,0,0,-2.04036,395.931518,326.039591)"/>
<path style="fill:none;stroke-width:0.99;stroke-linecap:butt;stroke-linejoin:round;stroke:rgb(100%,100%,100%);stroke-opacity:1;stroke-miterlimit:10;" d="M 0.000260322 -0.000247873 C 0.599496 0.200774 1.200646 0.499434 1.799882 0.700456 " transform="matrix(2.04036,0,0,-2.04036,403.276813,323.183088)"/>
<path style="fill:none;stroke-width:0.99;stroke-linecap:butt;stroke-linejoin:round;stroke:rgb(100%,100%,100%);stroke-opacity:1;stroke-miterlimit:10;" d="M -0.000496506 0.00071311 C 0.600654 0.19982 1.199889 0.500395 1.799125 0.699502 " transform="matrix(2.04036,0,0,-2.04036,410.622107,320.122549)"/>
<path style="fill:none;stroke-width:0.99;stroke-linecap:butt;stroke-linejoin:round;stroke:rgb(100%,100%,100%);stroke-opacity:1;stroke-miterlimit:10;" d="M 0.000661158 -0.000240399 C 0.599897 0.300335 1.099579 0.60091 1.700729 0.89957 " transform="matrix(2.04036,0,0,-2.04036,417.967401,317.062009)"/>
<path style="fill:none;stroke-width:0.99;stroke-linecap:butt;stroke-linejoin:round;stroke:rgb(100%,100%,100%);stroke-opacity:1;stroke-miterlimit:10;" d="M 0.000350796 -0.000172347 C 0.599586 0.300403 1.200737 0.599063 1.799972 0.899638 " transform="matrix(2.04036,0,0,-2.04036,425.108659,313.593398)"/>
<path style="fill:none;stroke-width:0.99;stroke-linecap:butt;stroke-linejoin:round;stroke:rgb(100%,100%,100%);stroke-opacity:1;stroke-miterlimit:10;" d="M 0.0000404341 -0.000550761 C 0.599276 0.300024 1.200426 0.600599 1.799662 0.89926 " transform="matrix(2.04036,0,0,-2.04036,432.249918,309.920751)"/>
<path style="fill:none;stroke-width:0.99;stroke-linecap:butt;stroke-linejoin:round;stroke:rgb(100%,100%,100%);stroke-opacity:1;stroke-miterlimit:10;" d="M -0.000269928 0.000538851 C 0.499412 0.299199 1.100562 0.699328 1.600245 0.999903 " transform="matrix(2.04036,0,0,-2.04036,439.391176,306.044068)"/>
<path style="fill:none;stroke-width:0.99;stroke-linecap:butt;stroke-linejoin:round;stroke:rgb(100%,100%,100%);stroke-opacity:1;stroke-miterlimit:10;" d="M 0.000312641 -0.000732493 C 0.599548 0.299843 1.099231 0.699971 1.700381 1.000546 " transform="matrix(2.04036,0,0,-2.04036,446.124362,301.963349)"/>
<path style="fill:none;stroke-width:0.99;stroke-linecap:butt;stroke-linejoin:round;stroke:rgb(100%,100%,100%);stroke-opacity:1;stroke-miterlimit:10;" d="M 0.00089521 -0.000535812 C 0.500577 0.300039 1.099813 0.700168 1.599495 1.100297 " transform="matrix(2.04036,0,0,-2.04036,452.857548,297.678594)"/>
<path style="fill:none;stroke-width:0.99;stroke-linecap:butt;stroke-linejoin:round;stroke:rgb(100%,100%,100%);stroke-opacity:1;stroke-miterlimit:10;" d="M -0.000765576 -0.000131423 C -0.500448 -0.499814 -0.900576 -0.999496 -1.400259 -1.499178 " transform="matrix(2.04036,0,0,-2.04036,190.263281,18.761451)"/>
<path style="fill:none;stroke-width:0.99;stroke-linecap:butt;stroke-linejoin:round;stroke:rgb(100%,100%,100%);stroke-opacity:1;stroke-miterlimit:10;" d="M 0.00024851 -0.000138897 C -0.39988 -0.499821 -0.800009 -1.099057 -1.299691 -1.499185 " transform="matrix(2.04036,0,0,-2.04036,184.550274,24.882529)"/>
<path style="fill:none;stroke-width:0.99;stroke-linecap:butt;stroke-linejoin:round;stroke:rgb(100%,100%,100%);stroke-opacity:1;stroke-miterlimit:10;" d="M 0.000369665 0.000300094 C -0.399759 -0.499382 -0.799888 -0.999064 -1.200016 -1.399193 " transform="matrix(2.04036,0,0,-2.04036,179.24534,31.207644)"/>
<path style="fill:none;stroke-width:0.99;stroke-linecap:butt;stroke-linejoin:round;stroke:rgb(100%,100%,100%);stroke-opacity:1;stroke-miterlimit:10;" d="M 0.0000443549 -0.000153845 C -0.400084 -0.499836 -0.800213 -0.999518 -1.200342 -1.4992 " transform="matrix(2.04036,0,0,-2.04036,174.144441,37.124686)"/>
<path style="fill:none;stroke-width:0.99;stroke-linecap:butt;stroke-linejoin:round;stroke:rgb(100%,100%,100%);stroke-opacity:1;stroke-miterlimit:10;" d="M 0.000740605 -0.00016132 C -0.399388 -0.499843 -0.799517 -0.999526 -1.199645 -1.499208 " transform="matrix(2.04036,0,0,-2.04036,169.451614,43.245765)"/>
<path style="fill:none;stroke-width:0.99;stroke-linecap:butt;stroke-linejoin:round;stroke:rgb(100%,100%,100%);stroke-opacity:1;stroke-miterlimit:10;" d="M -0.000031171 0.000277672 C -0.40016 -0.499404 -0.800288 -0.999087 -1.200417 -1.600237 " transform="matrix(2.04036,0,0,-2.04036,164.554751,49.570879)"/>
<path style="fill:none;stroke-width:0.99;stroke-linecap:butt;stroke-linejoin:round;stroke:rgb(100%,100%,100%);stroke-opacity:1;stroke-miterlimit:10;" d="M -0.000802947 -0.000751363 C -0.400932 -0.599987 -0.699592 -1.099669 -1.099721 -1.599351 " transform="matrix(2.04036,0,0,-2.04036,159.657888,56.100029)"/>
<path style="fill:none;stroke-width:0.99;stroke-linecap:butt;stroke-linejoin:round;stroke:rgb(100%,100%,100%);stroke-opacity:1;stroke-miterlimit:10;" d="M -0.000553162 0.000134094 C -0.400682 -0.599102 -0.80081 -1.100698 -1.099471 -1.60038 " transform="matrix(2.04036,0,0,-2.04036,155.169097,62.62918)"/>
<path style="fill:none;stroke-width:0.99;stroke-linecap:butt;stroke-linejoin:round;stroke:rgb(100%,100%,100%);stroke-opacity:1;stroke-miterlimit:10;" d="M -0.000303378 -0.00089494 C -0.300878 -0.500577 -0.699093 -1.099813 -0.999668 -1.599495 " transform="matrix(2.04036,0,0,-2.04036,150.680307,69.15833)"/>
<path style="fill:none;stroke-width:0.99;stroke-linecap:butt;stroke-linejoin:round;stroke:rgb(100%,100%,100%);stroke-opacity:1;stroke-miterlimit:10;" d="M -0.000946524 -0.00000948362 C -0.399161 -0.599245 -0.699736 -1.200395 -1.000311 -1.799631 " transform="matrix(2.04036,0,0,-2.04036,146.599587,75.687481)"/>
<path style="fill:none;stroke-width:0.99;stroke-linecap:butt;stroke-linejoin:round;stroke:rgb(100%,100%,100%);stroke-opacity:1;stroke-miterlimit:10;" d="M 0.000771286 0.000300878 C -0.299804 -0.600849 -0.600379 -1.200085 -0.900954 -1.699767 " transform="matrix(2.04036,0,0,-2.04036,142.314833,82.828739)"/>
<path style="fill:none;stroke-width:0.99;stroke-linecap:butt;stroke-linejoin:round;stroke:rgb(100%,100%,100%);stroke-opacity:1;stroke-miterlimit:10;" d="M -0.000318326 0.00061124 C -0.199425 -0.499071 -0.5 -1.100221 -0.800576 -1.699457 " transform="matrix(2.04036,0,0,-2.04036,138.43815,89.969997)"/>
<path style="fill:none;stroke-width:0.99;stroke-linecap:butt;stroke-linejoin:round;stroke:rgb(100%,100%,100%);stroke-opacity:1;stroke-miterlimit:10;" d="M -0.000386378 0.0000286714 C -0.199493 -0.599207 -0.500069 -1.200357 -0.699176 -1.700039 " transform="matrix(2.04036,0,0,-2.04036,134.969538,96.703183)"/>
<path style="fill:none;stroke-width:0.99;stroke-linecap:butt;stroke-linejoin:round;stroke:rgb(100%,100%,100%);stroke-opacity:1;stroke-miterlimit:10;" d="M -0.000900895 0.000785499 C -0.299561 -0.600365 -0.500583 -1.1996 -0.799244 -1.900304 " transform="matrix(2.04036,0,0,-2.04036,131.704963,104.048478)"/>
<path style="fill:none;stroke-width:0.99;stroke-linecap:butt;stroke-linejoin:round;stroke:rgb(100%,100%,100%);stroke-opacity:1;stroke-miterlimit:10;" d="M 0.0000526133 0.0000743006 C -0.300522 -0.599161 -0.49963 -1.200312 -0.700651 -1.799547 " transform="matrix(2.04036,0,0,-2.04036,128.644424,111.597808)"/>
<path style="fill:none;stroke-width:0.99;stroke-linecap:butt;stroke-linejoin:round;stroke:rgb(100%,100%,100%);stroke-opacity:1;stroke-miterlimit:10;" d="M 0.000559656 0.000831128 C -0.200462 -0.600319 -0.399569 -1.199555 -0.600591 -1.800705 " transform="matrix(2.04036,0,0,-2.04036,125.787921,118.943102)"/>
<path style="fill:none;stroke-width:0.99;stroke-linecap:butt;stroke-linejoin:round;stroke:rgb(100%,100%,100%);stroke-opacity:1;stroke-miterlimit:10;" d="M -0.000272697 0.00011993 C -0.19938 -0.599116 -0.400401 -1.299819 -0.599508 -1.899055 " transform="matrix(2.04036,0,0,-2.04036,123.543525,126.492432)"/>
<path style="fill:none;stroke-width:0.99;stroke-linecap:butt;stroke-linejoin:round;stroke:rgb(100%,100%,100%);stroke-opacity:1;stroke-miterlimit:10;" d="M 0.000362975 -0.000144803 C -0.200659 -0.700849 -0.300212 -1.300084 -0.399766 -1.89932 " transform="matrix(2.04036,0,0,-2.04036,121.503166,134.245798)"/>
<path style="fill:none;stroke-width:0.99;stroke-linecap:butt;stroke-linejoin:round;stroke:rgb(100%,100%,100%);stroke-opacity:1;stroke-miterlimit:10;" d="M 0.000105717 -0.000409536 C -0.0994478 -0.699199 -0.200916 -1.300349 -0.300469 -1.899585 " transform="matrix(2.04036,0,0,-2.04036,119.870878,141.999164)"/>
<path style="fill:none;stroke-width:0.99;stroke-linecap:butt;stroke-linejoin:round;stroke:rgb(100%,100%,100%);stroke-opacity:1;stroke-miterlimit:10;" d="M 0.000423553 -0.000227803 C -0.09913 -0.599464 -0.200598 -1.300167 -0.200598 -2.000871 " transform="matrix(2.04036,0,0,-2.04036,118.850698,149.956566)"/>
<path style="fill:none;stroke-width:0.99;stroke-linecap:butt;stroke-linejoin:round;stroke:rgb(100%,100%,100%);stroke-opacity:1;stroke-miterlimit:10;" d="M 0.000294924 -0.0000460703 C 0.000294924 -0.70075 0.000294924 -1.299985 0.000294924 -2.000689 " transform="matrix(2.04036,0,0,-2.04036,118.034555,157.913968)"/>
<path style="fill:none;stroke-width:0.99;stroke-linecap:butt;stroke-linejoin:round;stroke:rgb(100%,100%,100%);stroke-opacity:1;stroke-miterlimit:10;" d="M 0.000294924 0.000135662 C 0.000294924 -0.5991 0.000294924 -1.299804 0.0998485 -1.900954 " transform="matrix(2.04036,0,0,-2.04036,118.034555,165.871371)"/>
<path style="fill:none;stroke-width:0.99;stroke-linecap:butt;stroke-linejoin:round;stroke:rgb(100%,100%,100%);stroke-opacity:1;stroke-miterlimit:10;" d="M -0.000598007 0.000317395 C 0.10087 -0.700386 0.200424 -1.299622 0.200424 -2.000326 " transform="matrix(2.04036,0,0,-2.04036,118.442626,173.828773)"/>
<path style="fill:none;stroke-width:0.99;stroke-linecap:butt;stroke-linejoin:round;stroke:rgb(100%,100%,100%);stroke-opacity:1;stroke-miterlimit:10;" d="M -0.000915844 0.000499128 C 0.100552 -0.600651 0.299659 -1.199887 0.399213 -1.90059 " transform="matrix(2.04036,0,0,-2.04036,119.462806,181.786175)"/>
<path style="fill:none;stroke-width:0.99;stroke-linecap:butt;stroke-linejoin:round;stroke:rgb(100%,100%,100%);stroke-opacity:1;stroke-miterlimit:10;" d="M -0.000658585 0.000234395 C 0.200363 -0.600916 0.39947 -1.200151 0.600492 -1.900855 " transform="matrix(2.04036,0,0,-2.04036,121.095094,189.539541)"/>
<path style="fill:none;stroke-width:0.99;stroke-linecap:butt;stroke-linejoin:round;stroke:rgb(100%,100%,100%);stroke-opacity:1;stroke-miterlimit:10;" d="M 0.000173768 -0.000476803 C 0.199281 -0.599713 0.400302 -1.300416 0.700877 -1.899652 " transform="matrix(2.04036,0,0,-2.04036,123.339489,197.088871)"/>
<path style="fill:none;stroke-width:0.99;stroke-linecap:butt;stroke-linejoin:round;stroke:rgb(100%,100%,100%);stroke-opacity:1;stroke-miterlimit:10;" d="M -0.000333275 0.00072649 C 0.300242 -0.600424 0.499349 -1.199659 0.799924 -1.80081 " transform="matrix(2.04036,0,0,-2.04036,126.195992,204.638201)"/>
<path style="fill:none;stroke-width:0.99;stroke-linecap:butt;stroke-linejoin:round;stroke:rgb(100%,100%,100%);stroke-opacity:1;stroke-miterlimit:10;" d="M -0.000265223 -0.000877639 C 0.30031 -0.600113 0.499417 -1.199349 0.899546 -1.700946 " transform="matrix(2.04036,0,0,-2.04036,129.664604,211.779459)"/>
<path style="fill:none;stroke-width:0.99;stroke-linecap:butt;stroke-linejoin:round;stroke:rgb(100%,100%,100%);stroke-opacity:1;stroke-miterlimit:10;" d="M 0.000824389 0.000900748 C 0.299485 -0.600249 0.60006 -1.099932 1.000189 -1.699167 " transform="matrix(2.04036,0,0,-2.04036,133.541287,218.716682)"/>
<path style="fill:none;stroke-width:0.99;stroke-linecap:butt;stroke-linejoin:round;stroke:rgb(100%,100%,100%);stroke-opacity:1;stroke-miterlimit:10;" d="M -0.000893421 0.000318179 C 0.399235 -0.499364 0.69981 -1.100514 1.099939 -1.600196 " transform="matrix(2.04036,0,0,-2.04036,137.826042,225.449868)"/>
<path style="fill:none;stroke-width:0.99;stroke-linecap:butt;stroke-linejoin:round;stroke:rgb(100%,100%,100%);stroke-opacity:1;stroke-miterlimit:10;" d="M 0.00032482 0.00075717 C 0.500007 -0.500839 0.900136 -1.000522 1.300264 -1.500204 " transform="matrix(2.04036,0,0,-2.04036,142.518869,231.774982)"/>
<path style="fill:none;stroke-width:0.99;stroke-linecap:butt;stroke-linejoin:round;stroke:rgb(100%,100%,100%);stroke-opacity:1;stroke-miterlimit:10;" d="M 0.000203665 0.000749696 C 0.300779 -0.399379 0.800461 -0.799508 1.20059 -1.29919 " transform="matrix(2.04036,0,0,-2.04036,147.823803,237.896061)"/>
<path style="fill:none;stroke-width:0.99;stroke-linecap:butt;stroke-linejoin:round;stroke:rgb(100%,100%,100%);stroke-opacity:1;stroke-miterlimit:10;" d="M 0.00008251 0.000424386 C 0.499765 -0.399704 0.999447 -0.799833 1.499129 -1.199962 " transform="matrix(2.04036,0,0,-2.04036,153.128738,242.99696)"/>
<path style="fill:none;stroke-width:0.99;stroke-linecap:butt;stroke-linejoin:round;stroke:rgb(100%,100%,100%);stroke-opacity:1;stroke-miterlimit:10;" d="M -0.000802947 -0.00034739 C 0.600347 -0.400476 1.199583 -0.800605 1.800733 -1.200733 " transform="matrix(2.04036,0,0,-2.04036,159.657888,247.893822)"/>
<path style="fill:none;stroke-width:0.99;stroke-linecap:butt;stroke-linejoin:round;stroke:rgb(100%,100%,100%);stroke-opacity:1;stroke-miterlimit:10;" d="M -0.000666843 -0.0000976053 C 0.50093 -0.300673 1.000612 -0.599333 1.599848 -0.899908 " transform="matrix(2.04036,0,0,-2.04036,166.595111,252.382613)"/>
<path style="fill:none;stroke-width:0.99;stroke-linecap:butt;stroke-linejoin:round;stroke:rgb(100%,100%,100%);stroke-opacity:1;stroke-miterlimit:10;" d="M -0.0000842744 0.000280808 C 0.499598 -0.300294 1.100748 -0.499401 1.699984 -0.799976 " transform="matrix(2.04036,0,0,-2.04036,173.328297,256.05526)"/>
<path style="fill:none;stroke-width:0.99;stroke-linecap:butt;stroke-linejoin:round;stroke:rgb(100%,100%,100%);stroke-opacity:1;stroke-miterlimit:10;" d="M -0.000841102 0.000212757 C 0.500756 -0.300362 1.199545 -0.499469 1.800695 -0.800045 " transform="matrix(2.04036,0,0,-2.04036,180.673591,259.523872)"/>
<path style="fill:none;stroke-width:0.99;stroke-linecap:butt;stroke-linejoin:round;stroke:rgb(100%,100%,100%);stroke-opacity:1;stroke-miterlimit:10;" d="M -0.000576369 -0.000301761 C 0.499106 -0.199409 1.100256 -0.499984 1.699492 -0.699091 " transform="matrix(2.04036,0,0,-2.04036,188.426957,262.788447)"/>
<path style="fill:none;stroke-width:0.99;stroke-linecap:butt;stroke-linejoin:round;stroke:rgb(100%,100%,100%);stroke-opacity:1;stroke-miterlimit:10;" d="M -0.000886731 -0.000241183 C 0.600263 -0.199348 1.199499 -0.40037 1.800649 -0.599477 " transform="matrix(2.04036,0,0,-2.04036,195.568216,265.440914)"/>
<path style="fill:none;stroke-width:0.99;stroke-linecap:butt;stroke-linejoin:round;stroke:rgb(100%,100%,100%);stroke-opacity:1;stroke-miterlimit:10;" d="M 0.000270933 -0.000627071 C 0.599507 -0.199734 1.30021 -0.400756 1.899446 -0.599863 " transform="matrix(2.04036,0,0,-2.04036,202.91351,267.889346)"/>
<path style="fill:none;stroke-width:0.99;stroke-linecap:butt;stroke-linejoin:round;stroke:rgb(100%,100%,100%);stroke-opacity:1;stroke-miterlimit:10;" d="M 0.000535665 0.000901532 C 0.699325 -0.20012 1.300475 -0.299674 1.999264 -0.500695 " transform="matrix(2.04036,0,0,-2.04036,210.666876,270.337777)"/>
<path style="fill:none;stroke-width:0.99;stroke-linecap:butt;stroke-linejoin:round;stroke:rgb(100%,100%,100%);stroke-opacity:1;stroke-miterlimit:10;" d="M -0.0000925327 -0.000377286 C 0.599143 -0.199484 1.200293 -0.300952 1.799529 -0.500059 " transform="matrix(2.04036,0,0,-2.04036,218.828314,272.378136)"/>
<path style="fill:none;stroke-width:0.99;stroke-linecap:butt;stroke-linejoin:round;stroke:rgb(100%,100%,100%);stroke-opacity:1;stroke-miterlimit:10;" d="M -0.00084936 -0.00018808 C 0.699854 -0.199295 1.29909 -0.300763 1.90024 -0.400317 " transform="matrix(2.04036,0,0,-2.04036,226.173608,274.21446)"/>
<path style="fill:none;stroke-width:0.99;stroke-linecap:butt;stroke-linejoin:round;stroke:rgb(100%,100%,100%);stroke-opacity:1;stroke-miterlimit:10;" d="M -0.000584627 -0.000445338 C 0.700119 -0.0999989 1.299355 -0.299106 1.900505 -0.400574 " transform="matrix(2.04036,0,0,-2.04036,233.926974,275.846748)"/>
<path style="fill:none;stroke-width:0.99;stroke-linecap:butt;stroke-linejoin:round;stroke:rgb(100%,100%,100%);stroke-opacity:1;stroke-miterlimit:10;" d="M -0.00076636 0.000765429 C 0.699937 -0.200256 1.299173 -0.29981 1.999877 -0.399363 " transform="matrix(2.04036,0,0,-2.04036,241.884376,277.274999)"/>
<path style="fill:none;stroke-width:0.99;stroke-linecap:butt;stroke-linejoin:round;stroke:rgb(100%,100%,100%);stroke-opacity:1;stroke-miterlimit:10;" d="M -0.000948093 0.0000617048 C 0.699756 -0.0994918 1.400459 -0.199045 2.099249 -0.300513 " transform="matrix(2.04036,0,0,-2.04036,249.841778,278.703251)"/>
<path style="fill:none;stroke-width:0.99;stroke-linecap:butt;stroke-linejoin:round;stroke:rgb(100%,100%,100%);stroke-opacity:1;stroke-miterlimit:10;" d="M 0.000784666 0.000379541 C 0.699574 -0.099174 1.300724 -0.200642 1.89996 -0.300196 " transform="matrix(2.04036,0,0,-2.04036,257.79918,279.723431)"/>
<path style="fill:none;stroke-width:0.99;stroke-linecap:butt;stroke-linejoin:round;stroke:rgb(100%,100%,100%);stroke-opacity:1;stroke-miterlimit:10;" d="M 0.000602933 0.000697377 C 0.599839 0.000697377 1.199074 -0.100771 1.899778 -0.200324 " transform="matrix(2.04036,0,0,-2.04036,265.756582,280.74361)"/>
<path style="fill:none;stroke-width:0.99;stroke-linecap:butt;stroke-linejoin:round;stroke:rgb(100%,100%,100%);stroke-opacity:1;stroke-miterlimit:10;" d="M 0.000867666 0.000568748 C 0.699657 0.000568748 1.300807 -0.100899 1.999596 -0.100899 " transform="matrix(2.04036,0,0,-2.04036,273.509948,281.559754)"/>
<path style="fill:none;stroke-width:0.99;stroke-linecap:butt;stroke-linejoin:round;stroke:rgb(100%,100%,100%);stroke-opacity:1;stroke-miterlimit:10;" d="M 0.000239468 -0.00000634692 C 0.599475 -0.00000634692 1.300179 -0.0995599 2.000883 -0.0995599 " transform="matrix(2.04036,0,0,-2.04036,281.671386,282.171862)"/>
<path style="fill:none;stroke-width:0.99;stroke-linecap:butt;stroke-linejoin:round;stroke:rgb(100%,100%,100%);stroke-opacity:1;stroke-miterlimit:10;" d="M 0.0000577349 0.000886584 C 0.700761 0.000886584 1.299997 0.000886584 2.000701 -0.100581 " transform="matrix(2.04036,0,0,-2.04036,289.628788,282.579934)"/>
<path style="fill:none;stroke-width:0.99;stroke-linecap:butt;stroke-linejoin:round;stroke:rgb(100%,100%,100%);stroke-opacity:1;stroke-miterlimit:10;" d="M -0.000123998 -0.000581442 C 0.70058 -0.000581442 1.299815 -0.100135 2.000519 -0.100135 " transform="matrix(2.04036,0,0,-2.04036,297.586191,282.78397)"/>
<path style="fill:none;stroke-width:0.99;stroke-linecap:butt;stroke-linejoin:round;stroke:rgb(100%,100%,100%);stroke-opacity:1;stroke-miterlimit:10;" d="M -0.00030573 -0.000134976 C 0.700398 -0.000134976 1.299634 -0.000134976 2.000337 -0.000134976 " transform="matrix(2.04036,0,0,-2.04036,305.543593,282.988006)"/>
<path style="fill:none;stroke-width:0.99;stroke-linecap:butt;stroke-linejoin:round;stroke:rgb(100%,100%,100%);stroke-opacity:1;stroke-miterlimit:10;" d="M -0.000487463 -0.000134976 C 0.700216 -0.000134976 1.299452 0.0994186 2.000156 0.0994186 " transform="matrix(2.04036,0,0,-2.04036,313.500995,282.988006)"/>
<path style="fill:none;stroke-width:0.99;stroke-linecap:butt;stroke-linejoin:round;stroke:rgb(100%,100%,100%);stroke-opacity:1;stroke-miterlimit:10;" d="M 0.00079883 -0.000581442 C 0.600035 0.100887 1.300738 0.100887 1.899974 0.100887 " transform="matrix(2.04036,0,0,-2.04036,321.662433,282.78397)"/>
<path style="fill:none;stroke-width:0.99;stroke-linecap:butt;stroke-linejoin:round;stroke:rgb(100%,100%,100%);stroke-opacity:1;stroke-miterlimit:10;" d="M 0.000617097 0.000440119 C 0.699406 0.000440119 1.300557 0.0999937 1.999346 0.0999937 " transform="matrix(2.04036,0,0,-2.04036,329.619835,282.375898)"/>
<path style="fill:none;stroke-width:0.99;stroke-linecap:butt;stroke-linejoin:round;stroke:rgb(100%,100%,100%);stroke-opacity:1;stroke-miterlimit:10;" d="M 0.000435364 -0.000899278 C 0.599671 -0.000899278 1.300375 0.100569 1.89961 0.100569 " transform="matrix(2.04036,0,0,-2.04036,337.577237,281.76379)"/>
<path style="fill:none;stroke-width:0.99;stroke-linecap:butt;stroke-linejoin:round;stroke:rgb(100%,100%,100%);stroke-opacity:1;stroke-miterlimit:10;" d="M 0.000253632 -0.000324183 C 0.599489 0.0992294 1.300193 0.200697 1.899429 0.200697 " transform="matrix(2.04036,0,0,-2.04036,345.534639,281.151682)"/>
<path style="fill:none;stroke-width:0.99;stroke-linecap:butt;stroke-linejoin:round;stroke:rgb(100%,100%,100%);stroke-opacity:1;stroke-miterlimit:10;" d="M 0.0000718991 -0.000195554 C 0.599308 0.099358 1.300011 0.200826 1.899247 0.30038 " transform="matrix(2.04036,0,0,-2.04036,353.492041,280.335538)"/>
<path style="fill:none;stroke-width:0.99;stroke-linecap:butt;stroke-linejoin:round;stroke:rgb(100%,100%,100%);stroke-opacity:1;stroke-miterlimit:10;" d="M -0.000109834 0.000954636 C 0.599126 0.100508 1.200276 0.100508 1.899065 0.299615 " transform="matrix(2.04036,0,0,-2.04036,361.449443,279.111323)"/>
<path style="fill:none;stroke-width:0.99;stroke-linecap:butt;stroke-linejoin:round;stroke:rgb(100%,100%,100%);stroke-opacity:1;stroke-miterlimit:10;" d="M 0.000154899 0.000190334 C 0.700859 0.0997439 1.300094 0.199297 2.000798 0.300765 " transform="matrix(2.04036,0,0,-2.04036,369.202809,277.887107)"/>
<path style="fill:none;stroke-width:0.99;stroke-linecap:butt;stroke-linejoin:round;stroke:rgb(100%,100%,100%);stroke-opacity:1;stroke-miterlimit:10;" d="M -0.0000268335 0.000894058 C 0.599209 0.100448 1.299913 0.200001 1.899148 0.399108 " transform="matrix(2.04036,0,0,-2.04036,377.160211,276.458855)"/>
<path style="fill:none;stroke-width:0.99;stroke-linecap:butt;stroke-linejoin:round;stroke:rgb(100%,100%,100%);stroke-opacity:1;stroke-miterlimit:10;" d="M 0.000237899 -0.000316709 C 0.700942 0.200705 1.300177 0.300258 2.000881 0.499365 " transform="matrix(2.04036,0,0,-2.04036,384.913577,275.030604)"/>
<path style="fill:none;stroke-width:0.99;stroke-linecap:butt;stroke-linejoin:round;stroke:rgb(100%,100%,100%);stroke-opacity:1;stroke-miterlimit:10;" d="M 0.0000561666 -0.000505916 C 0.599292 0.200516 1.200442 0.300069 1.899231 0.499176 " transform="matrix(2.04036,0,0,-2.04036,392.870979,273.19428)"/>
<path style="fill:none;stroke-width:0.99;stroke-linecap:butt;stroke-linejoin:round;stroke:rgb(100%,100%,100%);stroke-opacity:1;stroke-miterlimit:10;" d="M 0.000767365 0.000772903 C 0.699557 0.19988 1.300707 0.299434 1.899942 0.500455 " transform="matrix(2.04036,0,0,-2.04036,400.420309,271.153921)"/>
<path style="fill:none;stroke-width:0.99;stroke-linecap:butt;stroke-linejoin:round;stroke:rgb(100%,100%,100%);stroke-opacity:1;stroke-miterlimit:10;" d="M -0.000882394 -0.000309235 C 0.600268 0.200712 1.199503 0.300266 1.900207 0.499373 " transform="matrix(2.04036,0,0,-2.04036,408.173675,268.909525)"/>
<path style="fill:none;stroke-width:0.99;stroke-linecap:butt;stroke-linejoin:round;stroke:rgb(100%,100%,100%);stroke-opacity:1;stroke-miterlimit:10;" d="M -0.000171195 0.0000766532 C 0.700533 0.199184 1.299768 0.400205 1.900918 0.599312 " transform="matrix(2.04036,0,0,-2.04036,415.723006,266.461094)"/>
<path style="fill:none;stroke-width:0.99;stroke-linecap:butt;stroke-linejoin:round;stroke:rgb(100%,100%,100%);stroke-opacity:1;stroke-miterlimit:10;" d="M 0.0000935374 0.000462541 C 0.499776 0.299123 1.200479 0.500145 1.799715 0.699252 " transform="matrix(2.04036,0,0,-2.04036,423.476372,264.012662)"/>
<path style="fill:none;stroke-width:0.99;stroke-linecap:butt;stroke-linejoin:round;stroke:rgb(100%,100%,100%);stroke-opacity:1;stroke-miterlimit:10;" d="M -0.00066329 -0.000044502 C 0.600487 0.300531 1.199723 0.499638 1.800873 0.800213 " transform="matrix(2.04036,0,0,-2.04036,430.821666,261.156159)"/>
<path style="fill:none;stroke-width:0.99;stroke-linecap:butt;stroke-linejoin:round;stroke:rgb(100%,100%,100%);stroke-opacity:1;stroke-miterlimit:10;" d="M 0.000494374 0.000916481 C 0.59973 0.299577 1.20088 0.500599 1.800116 0.799259 " transform="matrix(2.04036,0,0,-2.04036,438.16696,258.09562)"/>
<path style="fill:none;stroke-width:0.99;stroke-linecap:butt;stroke-linejoin:round;stroke:rgb(100%,100%,100%);stroke-opacity:1;stroke-miterlimit:10;" d="M -0.000262454 -0.000483493 C 0.49942 0.300092 1.10057 0.600667 1.699806 0.899327 " transform="matrix(2.04036,0,0,-2.04036,445.512254,254.831045)"/>
<path style="fill:none;stroke-width:0.99;stroke-linecap:butt;stroke-linejoin:round;stroke:rgb(100%,100%,100%);stroke-opacity:1;stroke-miterlimit:10;" d="M -0.000572816 -0.000861907 C 0.600577 0.299713 1.10026 0.600288 1.699495 0.900863 " transform="matrix(2.04036,0,0,-2.04036,452.653513,251.158398)"/>
<path style="fill:none;stroke-width:0.99;stroke-linecap:butt;stroke-linejoin:round;stroke:rgb(100%,100%,100%);stroke-opacity:1;stroke-miterlimit:10;" d="M -0.000436712 0.00067417 C 0.600713 0.299335 1.199949 0.699463 1.699631 1.000038 " transform="matrix(2.04036,0,0,-2.04036,459.590735,247.485751)"/>
<path style="fill:none;stroke-width:0.99;stroke-linecap:butt;stroke-linejoin:round;stroke:rgb(100%,100%,100%);stroke-opacity:1;stroke-miterlimit:10;" d="M -0.000300609 -0.000597174 C 0.60085 0.299978 1.100532 0.600553 1.699767 1.000682 " transform="matrix(2.04036,0,0,-2.04036,466.527957,243.405032)"/>
<path style="fill:none;stroke-width:0.99;stroke-linecap:butt;stroke-linejoin:round;stroke:rgb(100%,100%,100%);stroke-opacity:1;stroke-miterlimit:10;" d="M 0.00028196 -0.000400493 C 0.599518 0.300175 1.0992 0.700303 1.600796 1.100432 " transform="matrix(2.04036,0,0,-2.04036,473.261143,239.120277)"/>
<path style="fill:none;stroke-width:0.99;stroke-linecap:butt;stroke-linejoin:round;stroke:rgb(100%,100%,100%);stroke-opacity:1;stroke-miterlimit:10;" d="M -0.000603497 -0.000650278 C 0.600547 0.299925 1.100229 0.700053 1.599911 1.100182 " transform="matrix(2.04036,0,0,-2.04036,479.790294,234.631486)"/>
<path style="fill:none;stroke-width:0.99;stroke-linecap:butt;stroke-linejoin:round;stroke:rgb(100%,100%,100%);stroke-opacity:1;stroke-miterlimit:10;" d="M -0.000168843 0.000201362 C -0.499851 -0.399927 -1.099087 -0.800056 -1.600683 -1.200185 " transform="matrix(2.04036,0,0,-2.04036,260.859719,7.539473)"/>
<path style="fill:none;stroke-width:0.99;stroke-linecap:butt;stroke-linejoin:round;stroke:rgb(100%,100%,100%);stroke-opacity:1;stroke-miterlimit:10;" d="M 0.000270148 -0.000570414 C -0.499412 -0.500253 -0.999094 -0.900381 -1.500691 -1.30051 " transform="matrix(2.04036,0,0,-2.04036,254.534605,12.436336)"/>
<path style="fill:none;stroke-width:0.99;stroke-linecap:butt;stroke-linejoin:round;stroke:rgb(100%,100%,100%);stroke-opacity:1;stroke-miterlimit:10;" d="M -0.000183791 -0.00000279363 C -0.499866 -0.400131 -0.999548 -0.80026 -1.399677 -1.299942 " transform="matrix(2.04036,0,0,-2.04036,248.617563,17.945307)"/>
<path style="fill:none;stroke-width:0.99;stroke-linecap:butt;stroke-linejoin:round;stroke:rgb(100%,100%,100%);stroke-opacity:1;stroke-miterlimit:10;" d="M 0.000830295 0.000564827 C -0.399298 -0.499117 -0.799427 -1.000714 -1.299109 -1.500396 " transform="matrix(2.04036,0,0,-2.04036,242.904556,23.454277)"/>
<path style="fill:none;stroke-width:0.99;stroke-linecap:butt;stroke-linejoin:round;stroke:rgb(100%,100%,100%);stroke-opacity:1;stroke-miterlimit:10;" d="M 0.000504985 0.000557353 C -0.399624 -0.499125 -0.799752 -1.000721 -1.199881 -1.599957 " transform="matrix(2.04036,0,0,-2.04036,237.803657,29.575356)"/>
<path style="fill:none;stroke-width:0.99;stroke-linecap:butt;stroke-linejoin:round;stroke:rgb(100%,100%,100%);stroke-opacity:1;stroke-miterlimit:10;" d="M -0.000713257 -0.000918147 C -0.400842 -0.600154 -0.699502 -1.099836 -1.099631 -1.599518 " transform="matrix(2.04036,0,0,-2.04036,233.11083,35.90047)"/>
<path style="fill:none;stroke-width:0.99;stroke-linecap:butt;stroke-linejoin:round;stroke:rgb(100%,100%,100%);stroke-opacity:1;stroke-miterlimit:10;" d="M -0.000909938 0.000413775 C -0.399124 -0.600736 -0.699699 -1.100419 -1.000274 -1.699654 " transform="matrix(2.04036,0,0,-2.04036,228.826075,42.633657)"/>
<path style="fill:none;stroke-width:0.99;stroke-linecap:butt;stroke-linejoin:round;stroke:rgb(100%,100%,100%);stroke-opacity:1;stroke-miterlimit:10;" d="M -0.0000850585 0.000724137 C -0.30066 -0.500873 -0.599321 -1.100108 -0.899896 -1.699344 " transform="matrix(2.04036,0,0,-2.04036,224.949392,49.774915)"/>
<path style="fill:none;stroke-width:0.99;stroke-linecap:butt;stroke-linejoin:round;stroke:rgb(100%,100%,100%);stroke-opacity:1;stroke-miterlimit:10;" d="M -0.00015311 -0.000879992 C -0.300728 -0.600116 -0.499835 -1.199351 -0.700857 -1.800502 " transform="matrix(2.04036,0,0,-2.04036,221.480781,56.916173)"/>
<path style="fill:none;stroke-width:0.99;stroke-linecap:butt;stroke-linejoin:round;stroke:rgb(100%,100%,100%);stroke-opacity:1;stroke-miterlimit:10;" d="M 0.000800398 -0.000123165 C -0.100668 -0.599359 -0.399328 -1.300063 -0.60035 -1.899298 " transform="matrix(2.04036,0,0,-2.04036,218.420242,64.261467)"/>
<path style="fill:none;stroke-width:0.99;stroke-linecap:butt;stroke-linejoin:round;stroke:rgb(100%,100%,100%);stroke-opacity:1;stroke-miterlimit:10;" d="M -0.0000319552 -0.000387897 C -0.199139 -0.599624 -0.400161 -1.200774 -0.599268 -1.800009 " transform="matrix(2.04036,0,0,-2.04036,216.175846,72.014834)"/>
<path style="fill:none;stroke-width:0.99;stroke-linecap:butt;stroke-linejoin:round;stroke:rgb(100%,100%,100%);stroke-opacity:1;stroke-miterlimit:10;" d="M 0.000603717 0.000815396 C -0.200418 -0.699888 -0.299971 -1.299124 -0.499078 -1.999828 " transform="matrix(2.04036,0,0,-2.04036,214.135487,79.564164)"/>
<path style="fill:none;stroke-width:0.99;stroke-linecap:butt;stroke-linejoin:round;stroke:rgb(100%,100%,100%);stroke-opacity:1;stroke-miterlimit:10;" d="M 0.000346459 -0.000917363 C -0.0992071 -0.600153 -0.200675 -1.300857 -0.300229 -1.900092 " transform="matrix(2.04036,0,0,-2.04036,212.503199,87.521566)"/>
<path style="fill:none;stroke-width:0.99;stroke-linecap:butt;stroke-linejoin:round;stroke:rgb(100%,100%,100%);stroke-opacity:1;stroke-miterlimit:10;" d="M 0.000664295 0.000732395 C -0.100804 -0.699971 -0.200357 -1.299207 -0.200357 -1.999911 " transform="matrix(2.04036,0,0,-2.04036,211.48302,95.274932)"/>
<path style="fill:none;stroke-width:0.99;stroke-linecap:butt;stroke-linejoin:round;stroke:rgb(100%,100%,100%);stroke-opacity:1;stroke-miterlimit:10;" d="M 0.0000892 -0.000553897 C -0.0994643 -0.59979 -0.0994643 -1.300493 -0.0994643 -1.899729 " transform="matrix(2.04036,0,0,-2.04036,210.870912,103.43637)"/>
<path style="fill:none;stroke-width:0.99;stroke-linecap:butt;stroke-linejoin:round;stroke:rgb(100%,100%,100%);stroke-opacity:1;stroke-miterlimit:10;" d="M 0.000535665 -0.000372165 C 0.000535665 -0.599608 0.000535665 -1.300312 0.000535665 -1.899547 " transform="matrix(2.04036,0,0,-2.04036,210.666876,111.393772)"/>
<path style="fill:none;stroke-width:0.99;stroke-linecap:butt;stroke-linejoin:round;stroke:rgb(100%,100%,100%);stroke-opacity:1;stroke-miterlimit:10;" d="M 0.0000892 -0.000190432 C 0.0996427 -0.700894 0.0996427 -1.30013 0.199196 -2.000834 " transform="matrix(2.04036,0,0,-2.04036,210.870912,119.351174)"/>
<path style="fill:none;stroke-width:0.99;stroke-linecap:butt;stroke-linejoin:round;stroke:rgb(100%,100%,100%);stroke-opacity:1;stroke-miterlimit:10;" d="M 0.000217829 -0.00000869945 C 0.0997714 -0.599244 0.199325 -1.299948 0.300793 -1.899184 " transform="matrix(2.04036,0,0,-2.04036,211.687056,127.308576)"/>
<path style="fill:none;stroke-width:0.99;stroke-linecap:butt;stroke-linejoin:round;stroke:rgb(100%,100%,100%);stroke-opacity:1;stroke-miterlimit:10;" d="M 0.000921553 -0.000273432 C 0.100475 -0.699063 0.200029 -1.300213 0.399136 -2.000917 " transform="matrix(2.04036,0,0,-2.04036,213.115307,135.061942)"/>
<path style="fill:none;stroke-width:0.99;stroke-linecap:butt;stroke-linejoin:round;stroke:rgb(100%,100%,100%);stroke-opacity:1;stroke-miterlimit:10;" d="M 0.000732346 -0.0000916995 C 0.199839 -0.599327 0.400861 -1.200478 0.599968 -1.799713 " transform="matrix(2.04036,0,0,-2.04036,214.951631,143.019344)"/>
<path style="fill:none;stroke-width:0.99;stroke-linecap:butt;stroke-linejoin:round;stroke:rgb(100%,100%,100%);stroke-opacity:1;stroke-miterlimit:10;" d="M -0.000796257 0.000665128 C 0.200225 -0.700039 0.5008 -1.299274 0.699907 -1.900424 " transform="matrix(2.04036,0,0,-2.04036,217.400062,150.364638)"/>
<path style="fill:none;stroke-width:0.99;stroke-linecap:butt;stroke-linejoin:round;stroke:rgb(100%,100%,100%);stroke-opacity:1;stroke-miterlimit:10;" d="M 0.000164726 -0.0000460703 C 0.30074 -0.599282 0.5994 -1.200432 0.899976 -1.799668 " transform="matrix(2.04036,0,0,-2.04036,220.460601,157.913968)"/>
<path style="fill:none;stroke-width:0.99;stroke-linecap:butt;stroke-linejoin:round;stroke:rgb(100%,100%,100%);stroke-opacity:1;stroke-miterlimit:10;" d="M -0.000213688 -0.000182174 C 0.399915 -0.599418 0.70049 -1.0991 1.100619 -1.70025 " transform="matrix(2.04036,0,0,-2.04036,224.133249,164.851191)"/>
<path style="fill:none;stroke-width:0.99;stroke-linecap:butt;stroke-linejoin:round;stroke:rgb(100%,100%,100%);stroke-opacity:1;stroke-miterlimit:10;" d="M -0.000463472 -0.000764743 C 0.399665 -0.500447 0.899347 -1.000129 1.299476 -1.499811 " transform="matrix(2.04036,0,0,-2.04036,228.622039,171.584377)"/>
<path style="fill:none;stroke-width:0.99;stroke-linecap:butt;stroke-linejoin:round;stroke:rgb(100%,100%,100%);stroke-opacity:1;stroke-miterlimit:10;" d="M -0.000584627 0.000695809 C 0.100883 -0.100772 0.200437 -0.200326 0.29999 -0.399433 C 0.600566 -0.600454 1.000694 -1.000583 1.299355 -1.19969 " transform="matrix(2.04036,0,0,-2.04036,233.926974,177.50142)"/>
<path style="fill:none;stroke-width:0.99;stroke-linecap:butt;stroke-linejoin:round;stroke:rgb(100%,100%,100%);stroke-opacity:1;stroke-miterlimit:10;" d="M 0.000315778 -0.000075967 C 0.499998 -0.400205 0.99968 -0.70078 1.60083 -1.100908 " transform="matrix(2.04036,0,0,-2.04036,239.639981,182.398282)"/>
<path style="fill:none;stroke-width:0.99;stroke-linecap:butt;stroke-linejoin:round;stroke:rgb(100%,100%,100%);stroke-opacity:1;stroke-miterlimit:10;" d="M 0.000451881 0.000173817 C 0.500134 -0.300401 1.09937 -0.599062 1.70052 -0.899637 " transform="matrix(2.04036,0,0,-2.04036,246.577203,186.887073)"/>
<path style="fill:none;stroke-width:0.99;stroke-linecap:butt;stroke-linejoin:round;stroke:rgb(100%,100%,100%);stroke-opacity:1;stroke-miterlimit:10;" d="M 0.000587985 0.000105766 C 0.50027 -0.300469 1.099506 -0.59913 1.700656 -0.800151 " transform="matrix(2.04036,0,0,-2.04036,253.514425,190.355685)"/>
<path style="fill:none;stroke-width:0.99;stroke-linecap:butt;stroke-linejoin:round;stroke:rgb(100%,100%,100%);stroke-opacity:1;stroke-miterlimit:10;" d="M 0.000277623 -0.000408751 C 0.699067 -0.199516 1.300217 -0.500091 2.000921 -0.699198 " transform="matrix(2.04036,0,0,-2.04036,260.655684,193.62026)"/>
<path style="fill:none;stroke-width:0.99;stroke-linecap:butt;stroke-linejoin:round;stroke:rgb(100%,100%,100%);stroke-opacity:1;stroke-miterlimit:10;" d="M 0.00009589 0.0000982915 C 0.599332 -0.200923 1.200482 -0.40003 1.799717 -0.499584 " transform="matrix(2.04036,0,0,-2.04036,268.613086,196.476763)"/>
<path style="fill:none;stroke-width:0.99;stroke-linecap:butt;stroke-linejoin:round;stroke:rgb(100%,100%,100%);stroke-opacity:1;stroke-miterlimit:10;" d="M -0.000660937 -0.000734062 C 0.600489 -0.199841 1.199725 -0.299395 1.900429 -0.500416 " transform="matrix(2.04036,0,0,-2.04036,275.95838,198.721158)"/>
<path style="fill:none;stroke-width:0.99;stroke-linecap:butt;stroke-linejoin:round;stroke:rgb(100%,100%,100%);stroke-opacity:1;stroke-miterlimit:10;" d="M -0.000396205 -0.0000983895 C 0.600754 -0.199205 1.299543 -0.300673 2.000247 -0.400227 " transform="matrix(2.04036,0,0,-2.04036,283.711746,200.761518)"/>
<path style="fill:none;stroke-width:0.99;stroke-linecap:butt;stroke-linejoin:round;stroke:rgb(100%,100%,100%);stroke-opacity:1;stroke-miterlimit:10;" d="M -0.000577937 0.0000908173 C 0.700126 -0.0994627 1.299361 -0.200931 1.900512 -0.300484 " transform="matrix(2.04036,0,0,-2.04036,291.669148,202.597842)"/>
<path style="fill:none;stroke-width:0.99;stroke-linecap:butt;stroke-linejoin:round;stroke:rgb(100%,100%,100%);stroke-opacity:1;stroke-miterlimit:10;" d="M -0.000313205 0.000855119 C 0.600837 -0.200166 1.299626 -0.29972 1.900776 -0.399274 " transform="matrix(2.04036,0,0,-2.04036,299.422514,203.822057)"/>
<path style="fill:none;stroke-width:0.99;stroke-linecap:butt;stroke-linejoin:round;stroke:rgb(100%,100%,100%);stroke-opacity:1;stroke-miterlimit:10;" d="M -0.0000484719 -0.000295071 C 0.700655 -0.199402 1.299891 -0.199402 2.000595 -0.30087 " transform="matrix(2.04036,0,0,-2.04036,307.17588,205.046273)"/>
<path style="fill:none;stroke-width:0.99;stroke-linecap:butt;stroke-linejoin:round;stroke:rgb(100%,100%,100%);stroke-opacity:1;stroke-miterlimit:10;" d="M -0.00067667 0.0000227656 C 0.700027 -0.0995308 1.299263 -0.199084 1.999966 -0.199084 " transform="matrix(2.04036,0,0,-2.04036,315.337318,206.066453)"/>
<path style="fill:none;stroke-width:0.99;stroke-linecap:butt;stroke-linejoin:round;stroke:rgb(100%,100%,100%);stroke-opacity:1;stroke-miterlimit:10;" d="M -0.000858403 -0.000105864 C 0.600292 -0.000105864 1.299081 -0.0996594 1.900231 -0.0996594 " transform="matrix(2.04036,0,0,-2.04036,323.29472,206.882596)"/>
<path style="fill:none;stroke-width:0.99;stroke-linecap:butt;stroke-linejoin:round;stroke:rgb(100%,100%,100%);stroke-opacity:1;stroke-miterlimit:10;" d="M -0.00059367 0.000787067 C 0.70011 -0.100681 1.299346 -0.100681 2.000049 -0.100681 " transform="matrix(2.04036,0,0,-2.04036,331.048086,207.290668)"/>
<path style="fill:none;stroke-width:0.99;stroke-linecap:butt;stroke-linejoin:round;stroke:rgb(100%,100%,100%);stroke-opacity:1;stroke-miterlimit:10;" d="M 0.000692623 -0.000234493 C 0.599928 -0.000234493 1.300632 -0.000234493 1.999421 -0.000234493 " transform="matrix(2.04036,0,0,-2.04036,339.209524,207.69874)"/>
<path style="fill:none;stroke-width:0.99;stroke-linecap:butt;stroke-linejoin:round;stroke:rgb(100%,100%,100%);stroke-opacity:1;stroke-miterlimit:10;" d="M 0.0000644249 -0.000234493 C 0.5993 -0.000234493 1.300004 -0.000234493 1.89924 -0.000234493 " transform="matrix(2.04036,0,0,-2.04036,347.370962,207.69874)"/>
<path style="fill:none;stroke-width:0.99;stroke-linecap:butt;stroke-linejoin:round;stroke:rgb(100%,100%,100%);stroke-opacity:1;stroke-miterlimit:10;" d="M 0.000329158 -0.000234493 C 0.699118 -0.000234493 1.300269 0.099319 1.999058 0.099319 " transform="matrix(2.04036,0,0,-2.04036,355.124328,207.69874)"/>
<path style="fill:none;stroke-width:0.99;stroke-linecap:butt;stroke-linejoin:round;stroke:rgb(100%,100%,100%);stroke-opacity:1;stroke-miterlimit:10;" d="M 0.000147425 0.000787067 C 0.700851 0.000787067 1.300087 0.100341 2.000791 0.100341 " transform="matrix(2.04036,0,0,-2.04036,363.08173,207.290668)"/>
<path style="fill:none;stroke-width:0.99;stroke-linecap:butt;stroke-linejoin:round;stroke:rgb(100%,100%,100%);stroke-opacity:1;stroke-miterlimit:10;" d="M -0.0000343077 -0.000552329 C 0.700669 -0.000552329 1.399459 0.100916 2.000609 0.100916 " transform="matrix(2.04036,0,0,-2.04036,371.039133,206.678561)"/>
<path style="fill:none;stroke-width:0.99;stroke-linecap:butt;stroke-linejoin:round;stroke:rgb(100%,100%,100%);stroke-opacity:1;stroke-miterlimit:10;" d="M -0.000662506 0.0000227656 C 0.600488 0.0995763 1.299277 0.19913 1.900427 0.300598 " transform="matrix(2.04036,0,0,-2.04036,379.200571,206.066453)"/>
<path style="fill:none;stroke-width:0.99;stroke-linecap:butt;stroke-linejoin:round;stroke:rgb(100%,100%,100%);stroke-opacity:1;stroke-miterlimit:10;" d="M -0.000397773 -0.000295071 C 0.700306 0.0992585 1.299542 0.200726 1.900692 0.30028 " transform="matrix(2.04036,0,0,-2.04036,386.953937,205.046273)"/>
<path style="fill:none;stroke-width:0.99;stroke-linecap:butt;stroke-linejoin:round;stroke:rgb(100%,100%,100%);stroke-opacity:1;stroke-miterlimit:10;" d="M -0.000579506 0.000855119 C 0.600571 0.100409 1.29936 0.199962 1.90051 0.399069 " transform="matrix(2.04036,0,0,-2.04036,394.911339,203.822057)"/>
<path style="fill:none;stroke-width:0.99;stroke-linecap:butt;stroke-linejoin:round;stroke:rgb(100%,100%,100%);stroke-opacity:1;stroke-miterlimit:10;" d="M -0.000761238 -0.000355648 C 0.600389 0.0991979 1.199625 0.300219 1.900328 0.399773 " transform="matrix(2.04036,0,0,-2.04036,402.868741,202.393806)"/>
<path style="fill:none;stroke-width:0.99;stroke-linecap:butt;stroke-linejoin:round;stroke:rgb(100%,100%,100%);stroke-opacity:1;stroke-miterlimit:10;" d="M -0.000496506 -0.0000983895 C 0.600654 0.200923 1.299443 0.300477 1.900593 0.499584 " transform="matrix(2.04036,0,0,-2.04036,410.622107,200.761518)"/>
<path style="fill:none;stroke-width:0.99;stroke-linecap:butt;stroke-linejoin:round;stroke:rgb(100%,100%,100%);stroke-opacity:1;stroke-miterlimit:10;" d="M -0.000231773 -0.000734062 C 0.600918 0.100734 1.200154 0.299841 1.900858 0.500863 " transform="matrix(2.04036,0,0,-2.04036,418.375473,198.721158)"/>
<path style="fill:none;stroke-width:0.99;stroke-linecap:butt;stroke-linejoin:round;stroke:rgb(100%,100%,100%);stroke-opacity:1;stroke-miterlimit:10;" d="M 0.0000329599 0.000544757 C 0.599269 0.199652 1.200419 0.400673 1.799655 0.59978 " transform="matrix(2.04036,0,0,-2.04036,426.128839,196.680799)"/>
<path style="fill:none;stroke-width:0.99;stroke-linecap:butt;stroke-linejoin:round;stroke:rgb(100%,100%,100%);stroke-opacity:1;stroke-miterlimit:10;" d="M 0.000744158 0.000930645 C 0.59998 0.200038 1.199216 0.399145 1.899919 0.600166 " transform="matrix(2.04036,0,0,-2.04036,433.678169,194.232368)"/>
<path style="fill:none;stroke-width:0.99;stroke-linecap:butt;stroke-linejoin:round;stroke:rgb(100%,100%,100%);stroke-opacity:1;stroke-miterlimit:10;" d="M -0.000459135 -0.000597958 C 0.600691 0.299977 1.199927 0.499084 1.799162 0.700106 " transform="matrix(2.04036,0,0,-2.04036,441.227499,191.783936)"/>
<path style="fill:none;stroke-width:0.99;stroke-linecap:butt;stroke-linejoin:round;stroke:rgb(100%,100%,100%);stroke-opacity:1;stroke-miterlimit:10;" d="M 0.000698529 0.000363024 C 0.699488 0.19947 1.300638 0.400492 1.899874 0.699152 " transform="matrix(2.04036,0,0,-2.04036,448.572793,188.723397)"/>
<path style="fill:none;stroke-width:0.99;stroke-linecap:butt;stroke-linejoin:round;stroke:rgb(100%,100%,100%);stroke-opacity:1;stroke-miterlimit:10;" d="M -0.0000582985 -0.000590484 C 0.599177 0.200431 1.200328 0.499092 1.799563 0.799667 " transform="matrix(2.04036,0,0,-2.04036,455.918088,185.662858)"/>
<path style="fill:none;stroke-width:0.99;stroke-linecap:butt;stroke-linejoin:round;stroke:rgb(100%,100%,100%);stroke-opacity:1;stroke-miterlimit:10;" d="M -0.000815126 -0.000075967 C 0.600335 0.300499 1.199571 0.59916 1.699253 0.899735 " transform="matrix(2.04036,0,0,-2.04036,463.263382,182.398282)"/>
<path style="fill:none;stroke-width:0.99;stroke-linecap:butt;stroke-linejoin:round;stroke:rgb(100%,100%,100%);stroke-opacity:1;stroke-miterlimit:10;" d="M 0.000789003 -0.000454381 C 0.600025 0.300121 1.099707 0.600696 1.700857 1.000824 " transform="matrix(2.04036,0,0,-2.04036,470.40464,178.725635)"/>
<path style="fill:none;stroke-width:0.99;stroke-linecap:butt;stroke-linejoin:round;stroke:rgb(100%,100%,100%);stroke-opacity:1;stroke-miterlimit:10;" d="M 0.000925107 0.000635231 C 0.600161 0.400764 1.099843 0.699424 1.699079 1 " transform="matrix(2.04036,0,0,-2.04036,477.341862,174.848952)"/>
<path style="fill:none;stroke-width:0.99;stroke-linecap:butt;stroke-linejoin:round;stroke:rgb(100%,100%,100%);stroke-opacity:1;stroke-miterlimit:10;" d="M -0.000406816 0.000831912 C 0.600743 0.299493 1.100426 0.699621 1.699661 1.000196 " transform="matrix(2.04036,0,0,-2.04036,484.075049,170.564197)"/>
<path style="fill:none;stroke-width:0.99;stroke-linecap:butt;stroke-linejoin:round;stroke:rgb(100%,100%,100%);stroke-opacity:1;stroke-miterlimit:10;" d="M 0.000175753 -0.000885898 C 0.499858 0.399243 1.099094 0.799371 1.60069 1.1995 " transform="matrix(2.04036,0,0,-2.04036,490.808235,166.279442)"/>
<path style="fill:none;stroke-width:0.99;stroke-linecap:butt;stroke-linejoin:round;stroke:rgb(100%,100%,100%);stroke-opacity:1;stroke-miterlimit:10;" d="M -0.000709703 0.000332343 C 0.500887 0.400461 1.000569 0.80059 1.500251 1.300272 " transform="matrix(2.04036,0,0,-2.04036,497.337386,161.586616)"/>
<path style="fill:none;stroke-width:0.99;stroke-linecap:butt;stroke-linejoin:round;stroke:rgb(100%,100%,100%);stroke-opacity:1;stroke-miterlimit:10;" d="M -0.000942187 -0.0000484228 C -0.600178 -0.400177 -1.09986 -0.800306 -1.699096 -1.200434 " transform="matrix(2.04036,0,0,-2.04036,359.205047,3.050682)"/>
<path style="fill:none;stroke-width:0.99;stroke-linecap:butt;stroke-linejoin:round;stroke:rgb(100%,100%,100%);stroke-opacity:1;stroke-miterlimit:10;" d="M -0.0000567302 -0.000820199 C -0.599292 -0.400949 -1.100889 -0.799163 -1.600571 -1.199292 " transform="matrix(2.04036,0,0,-2.04036,352.675897,7.947545)"/>
<path style="fill:none;stroke-width:0.99;stroke-linecap:butt;stroke-linejoin:round;stroke:rgb(100%,100%,100%);stroke-opacity:1;stroke-miterlimit:10;" d="M 0.000382261 0.000322517 C -0.4993 -0.399806 -0.899429 -0.799935 -1.399111 -1.200063 " transform="matrix(2.04036,0,0,-2.04036,346.350783,12.844408)"/>
<path style="fill:none;stroke-width:0.99;stroke-linecap:butt;stroke-linejoin:round;stroke:rgb(100%,100%,100%);stroke-opacity:1;stroke-miterlimit:10;" d="M 0.000374787 -0.00000279363 C -0.499307 -0.499685 -0.899436 -0.899814 -1.399118 -1.399496 " transform="matrix(2.04036,0,0,-2.04036,340.229704,17.945307)"/>
<path style="fill:none;stroke-width:0.99;stroke-linecap:butt;stroke-linejoin:round;stroke:rgb(100%,100%,100%);stroke-opacity:1;stroke-miterlimit:10;" d="M -0.000525618 0.000564827 C -0.500208 -0.499117 -0.99989 -0.899246 -1.400019 -1.400843 " transform="matrix(2.04036,0,0,-2.04036,334.516697,23.454277)"/>
<path style="fill:none;stroke-width:0.99;stroke-linecap:butt;stroke-linejoin:round;stroke:rgb(100%,100%,100%);stroke-opacity:1;stroke-miterlimit:10;" d="M 0.0000420024 -0.000335578 C -0.49964 -0.500018 -0.899769 -0.9997 -1.399451 -1.499382 " transform="matrix(2.04036,0,0,-2.04036,329.007727,29.167284)"/>
<path style="fill:none;stroke-width:0.99;stroke-linecap:butt;stroke-linejoin:round;stroke:rgb(100%,100%,100%);stroke-opacity:1;stroke-miterlimit:10;" d="M 0.000163158 -0.000343052 C -0.499519 -0.400472 -0.899648 -0.900154 -1.299776 -1.399836 " transform="matrix(2.04036,0,0,-2.04036,323.702792,35.288363)"/>
<path style="fill:none;stroke-width:0.99;stroke-linecap:butt;stroke-linejoin:round;stroke:rgb(100%,100%,100%);stroke-opacity:1;stroke-miterlimit:10;" d="M -0.000608618 -0.000350526 C -0.400737 -0.500033 -0.800866 -1.099268 -1.19908 -1.600865 " transform="matrix(2.04036,0,0,-2.04036,318.805929,41.409441)"/>
<path style="fill:none;stroke-width:0.99;stroke-linecap:butt;stroke-linejoin:round;stroke:rgb(100%,100%,100%);stroke-opacity:1;stroke-miterlimit:10;" d="M -0.000358834 0.00053493 C -0.400487 -0.600615 -0.699148 -1.100297 -0.999723 -1.699533 " transform="matrix(2.04036,0,0,-2.04036,314.317138,47.938591)"/>
<path style="fill:none;stroke-width:0.99;stroke-linecap:butt;stroke-linejoin:round;stroke:rgb(100%,100%,100%);stroke-opacity:1;stroke-miterlimit:10;" d="M 0.000912511 0.000398827 C -0.299663 -0.600751 -0.600238 -1.199987 -0.799345 -1.799223 " transform="matrix(2.04036,0,0,-2.04036,310.236419,54.875814)"/>
<path style="fill:none;stroke-width:0.99;stroke-linecap:butt;stroke-linejoin:round;stroke:rgb(100%,100%,100%);stroke-opacity:1;stroke-miterlimit:10;" d="M 0.000397994 -0.000758837 C -0.200624 -0.599995 -0.499284 -1.19923 -0.700306 -1.80038 " transform="matrix(2.04036,0,0,-2.04036,306.971844,62.221108)"/>
<path style="fill:none;stroke-width:0.99;stroke-linecap:butt;stroke-linejoin:round;stroke:rgb(100%,100%,100%);stroke-opacity:1;stroke-miterlimit:10;" d="M 0.000458571 0.000444456 C -0.099095 -0.600706 -0.300117 -1.199941 -0.39967 -1.799177 " transform="matrix(2.04036,0,0,-2.04036,304.319377,69.770438)"/>
<path style="fill:none;stroke-width:0.99;stroke-linecap:butt;stroke-linejoin:round;stroke:rgb(100%,100%,100%);stroke-opacity:1;stroke-miterlimit:10;" d="M -0.000245153 0.000179723 C -0.0997987 -0.700524 -0.199352 -1.29976 -0.199352 -2.000463 " transform="matrix(2.04036,0,0,-2.04036,302.891125,77.523804)"/>
<path style="fill:none;stroke-width:0.99;stroke-linecap:butt;stroke-linejoin:round;stroke:rgb(100%,100%,100%);stroke-opacity:1;stroke-miterlimit:10;" d="M 0.000647778 0.000361456 C 0.000647778 -0.600789 0.000647778 -1.299578 0.100201 -1.900728 " transform="matrix(2.04036,0,0,-2.04036,302.483053,85.481206)"/>
<path style="fill:none;stroke-width:0.99;stroke-linecap:butt;stroke-linejoin:round;stroke:rgb(100%,100%,100%);stroke-opacity:1;stroke-miterlimit:10;" d="M -0.000691618 0.000543189 C 0.20033 -0.600607 0.399437 -1.199843 0.500905 -1.900546 " transform="matrix(2.04036,0,0,-2.04036,303.095161,93.438608)"/>
<path style="fill:none;stroke-width:0.99;stroke-linecap:butt;stroke-linejoin:round;stroke:rgb(100%,100%,100%);stroke-opacity:1;stroke-miterlimit:10;" d="M -0.00030573 -0.00016801 C 0.200716 -0.599404 0.499376 -1.200554 0.799952 -1.79979 " transform="matrix(2.04036,0,0,-2.04036,305.543593,100.987938)"/>
<path style="fill:none;stroke-width:0.99;stroke-linecap:butt;stroke-linejoin:round;stroke:rgb(100%,100%,100%);stroke-opacity:1;stroke-miterlimit:10;" d="M -0.000684144 -0.000304113 C 0.299891 -0.499986 0.70002 -0.999668 1.000595 -1.399797 C 1.100148 -1.499351 1.100148 -1.600819 1.199702 -1.600819 " transform="matrix(2.04036,0,0,-2.04036,309.21624,107.925161)"/>
<path style="fill:none;stroke-width:0.99;stroke-linecap:butt;stroke-linejoin:round;stroke:rgb(100%,100%,100%);stroke-opacity:1;stroke-miterlimit:10;" d="M -0.000358834 -0.000311587 C 0.499323 -0.40044 1.00092 -0.900122 1.500602 -1.300251 " transform="matrix(2.04036,0,0,-2.04036,314.317138,114.046239)"/>
<path style="fill:none;stroke-width:0.99;stroke-linecap:butt;stroke-linejoin:round;stroke:rgb(100%,100%,100%);stroke-opacity:1;stroke-miterlimit:10;" d="M -0.000797825 0.000384663 C 0.600352 -0.399744 1.100035 -0.700319 1.69927 -1.000894 " transform="matrix(2.04036,0,0,-2.04036,320.642253,118.739066)"/>
<path style="fill:none;stroke-width:0.99;stroke-linecap:butt;stroke-linejoin:round;stroke:rgb(100%,100%,100%);stroke-opacity:1;stroke-miterlimit:10;" d="M 0.000359839 0.000763076 C 0.599596 -0.200258 1.200746 -0.399366 1.799981 -0.600387 " transform="matrix(2.04036,0,0,-2.04036,327.987547,122.411713)"/>
<path style="fill:none;stroke-width:0.99;stroke-linecap:butt;stroke-linejoin:round;stroke:rgb(100%,100%,100%);stroke-opacity:1;stroke-miterlimit:10;" d="M -0.000396989 0.000377188 C 0.700307 -0.0991763 1.299542 -0.300198 2.000246 -0.399751 " transform="matrix(2.04036,0,0,-2.04036,335.332841,124.860145)"/>
<path style="fill:none;stroke-width:0.99;stroke-linecap:butt;stroke-linejoin:round;stroke:rgb(100%,100%,100%);stroke-opacity:1;stroke-miterlimit:10;" d="M -0.000578722 0.00011993 C 0.600571 -0.0994336 1.299361 -0.200902 1.900511 -0.200902 " transform="matrix(2.04036,0,0,-2.04036,343.290243,126.492432)"/>
<path style="fill:none;stroke-width:0.99;stroke-linecap:butt;stroke-linejoin:round;stroke:rgb(100%,100%,100%);stroke-opacity:1;stroke-miterlimit:10;" d="M -0.000760454 -0.00000869945 C 0.699943 -0.00000869945 1.299179 -0.0995622 1.999883 -0.0995622 " transform="matrix(2.04036,0,0,-2.04036,351.247645,127.308576)"/>
<path style="fill:none;stroke-width:0.99;stroke-linecap:butt;stroke-linejoin:round;stroke:rgb(100%,100%,100%);stroke-opacity:1;stroke-miterlimit:10;" d="M -0.000942187 0.000437766 C 0.600208 0.000437766 1.300912 0.000437766 1.900147 0.0999913 " transform="matrix(2.04036,0,0,-2.04036,359.205047,127.512612)"/>
<path style="fill:none;stroke-width:0.99;stroke-linecap:butt;stroke-linejoin:round;stroke:rgb(100%,100%,100%);stroke-opacity:1;stroke-miterlimit:10;" d="M 0.000790571 -0.000455165 C 0.69958 -0.000455165 1.30073 0.0990984 1.999519 0.200566 " transform="matrix(2.04036,0,0,-2.04036,367.162449,127.10454)"/>
<path style="fill:none;stroke-width:0.99;stroke-linecap:butt;stroke-linejoin:round;stroke:rgb(100%,100%,100%);stroke-opacity:1;stroke-miterlimit:10;" d="M 0.000608839 -0.000773001 C 0.599845 -0.000773001 1.300548 0.200249 1.899784 0.299802 " transform="matrix(2.04036,0,0,-2.04036,375.119851,126.08436)"/>
<path style="fill:none;stroke-width:0.99;stroke-linecap:butt;stroke-linejoin:round;stroke:rgb(100%,100%,100%);stroke-opacity:1;stroke-miterlimit:10;" d="M 0.000427106 -0.000069277 C 0.599663 0.0994843 1.200813 0.200952 1.899602 0.400059 " transform="matrix(2.04036,0,0,-2.04036,383.077254,124.656109)"/>
<path style="fill:none;stroke-width:0.99;stroke-linecap:butt;stroke-linejoin:round;stroke:rgb(100%,100%,100%);stroke-opacity:1;stroke-miterlimit:10;" d="M -0.000776187 -0.000258484 C 0.600374 0.200763 1.299163 0.300317 1.900313 0.499424 " transform="matrix(2.04036,0,0,-2.04036,390.626584,122.819785)"/>
<path style="fill:none;stroke-width:0.99;stroke-linecap:butt;stroke-linejoin:round;stroke:rgb(100%,100%,100%);stroke-opacity:1;stroke-miterlimit:10;" d="M -0.000511454 0.000127404 C 0.600639 0.199234 1.199874 0.400256 1.79911 0.599363 " transform="matrix(2.04036,0,0,-2.04036,398.37995,120.371354)"/>
<path style="fill:none;stroke-width:0.99;stroke-linecap:butt;stroke-linejoin:round;stroke:rgb(100%,100%,100%);stroke-opacity:1;stroke-miterlimit:10;" d="M 0.00064621 -0.000379639 C 0.599882 0.200642 1.199118 0.399749 1.800268 0.700324 " transform="matrix(2.04036,0,0,-2.04036,405.725244,117.51485)"/>
<path style="fill:none;stroke-width:0.99;stroke-linecap:butt;stroke-linejoin:round;stroke:rgb(100%,100%,100%);stroke-opacity:1;stroke-miterlimit:10;" d="M -0.000110618 0.000581344 C 0.599125 0.299242 1.200275 0.599817 1.799511 0.900392 " transform="matrix(2.04036,0,0,-2.04036,413.070538,114.454311)"/>
<path style="fill:none;stroke-width:0.99;stroke-linecap:butt;stroke-linejoin:round;stroke:rgb(100%,100%,100%);stroke-opacity:1;stroke-miterlimit:10;" d="M -0.00042098 0.00020293 C 0.600729 0.300778 1.100411 0.599439 1.699647 0.999567 " transform="matrix(2.04036,0,0,-2.04036,420.211796,110.781664)"/>
<path style="fill:none;stroke-width:0.99;stroke-linecap:butt;stroke-linejoin:round;stroke:rgb(100%,100%,100%);stroke-opacity:1;stroke-miterlimit:10;" d="M 0.000161589 0.000846076 C 0.599397 0.299507 1.200547 0.699635 1.70023 1.00021 " transform="matrix(2.04036,0,0,-2.04036,426.944983,106.700945)"/>
<path style="fill:none;stroke-width:0.99;stroke-linecap:butt;stroke-linejoin:round;stroke:rgb(100%,100%,100%);stroke-opacity:1;stroke-miterlimit:10;" d="M 0.000297693 -0.000871734 C 0.49998 0.399257 0.999662 0.799386 1.499344 1.099961 " transform="matrix(2.04036,0,0,-2.04036,433.882205,102.41619)"/>
<path style="fill:none;stroke-width:0.99;stroke-linecap:butt;stroke-linejoin:round;stroke:rgb(100%,100%,100%);stroke-opacity:1;stroke-miterlimit:10;" d="M -0.000141299 0.000346508 C 0.499541 0.400475 0.999223 0.800604 1.50082 1.200732 " transform="matrix(2.04036,0,0,-2.04036,440.20732,97.723363)"/>
<path style="fill:none;stroke-width:0.99;stroke-linecap:butt;stroke-linejoin:round;stroke:rgb(100%,100%,100%);stroke-opacity:1;stroke-miterlimit:10;" d="M -0.000133824 0.000671818 C 0.499548 0.4008 1.100699 0.800929 1.500827 1.300611 " transform="matrix(2.04036,0,0,-2.04036,446.328398,92.622464)"/>
<path style="fill:none;stroke-width:1.5;stroke-linecap:butt;stroke-linejoin:round;stroke:rgb(100%,100%,100%);stroke-opacity:1;stroke-miterlimit:10;" d="M -0.000871783 0.00029262 L -100.100036 -69.700583 L -69.600279 -174.199248 L 82.800866 -161.199854 L 108.899208 -78.40003 Z M -0.000871783 0.00029262 " transform="matrix(2.04036,0,0,-2.04036,207.810372,37.328722)"/>
<path style="fill-rule:evenodd;fill:rgb(0%,0%,0%);fill-opacity:1;stroke-width:1.5;stroke-linecap:butt;stroke-linejoin:round;stroke:rgb(100%,100%,100%);stroke-opacity:1;stroke-miterlimit:10;" d="M -0.000162153 -0.000561372 C 2.500163 -0.000561372 4.299785 -1.800183 4.299785 -4.200955 C 4.299785 -6.599812 2.500163 -8.500902 -0.000162153 -8.500902 C -2.400934 -8.500902 -4.200556 -6.599812 -4.200556 -4.200955 C -4.200556 -1.800183 -2.400934 -0.000561372 -0.000162153 -0.000561372 Z M -0.000162153 -0.000561372 " transform="matrix(2.04036,0,0,-2.04036,318.601893,109.557448)"/>
</g>
</svg>
