<?xml version="1.0" encoding="UTF-8"?>
<svg xmlns="http://www.w3.org/2000/svg" xmlns:xlink="http://www.w3.org/1999/xlink" width="570.4216pt" height="247.508pt" viewBox="0 0 570.4216 247.508" version="1.1">
<defs>
<clipPath id="clip1">
  <path d="M 196 242 L 199 242 L 199 247.507812 L 196 247.507812 Z M 196 242 "/>
</clipPath>
<clipPath id="clip2">
  <path d="M 0 48 L 249 48 L 249 247.507812 L 0 247.507812 Z M 0 48 "/>
</clipPath>
<clipPath id="clip3">
  <path d="M 245 48 L 495 48 L 495 247.507812 L 245 247.507812 Z M 245 48 "/>
</clipPath>
<clipPath id="clip4">
  <path d="M 563 74 L 570.421875 74 L 570.421875 106 L 563 106 Z M 563 74 "/>
</clipPath>
</defs>
<g id="surface1">
<path style=" stroke:none;fill-rule:nonzero;fill:rgb(100%,100%,39.99939%);fill-opacity:1;" d="M 197.632812 53.417969 L 420.011719 53.417969 L 420.011719 56.03125 L 197.632812 56.03125 "/>
<g clip-path="url(#clip1)" clip-rule="nonzero">
<path style=" stroke:none;fill-rule:nonzero;fill:rgb(100%,100%,100%);fill-opacity:1;" d="M 196.324219 247.476562 L 196.324219 242.246094 L 198.9375 242.246094 L 198.9375 247.476562 "/>
</g>
<path style=" stroke:none;fill-rule:nonzero;fill:rgb(100%,100%,100%);fill-opacity:1;" d="M 196.324219 237.019531 L 196.324219 231.964844 L 198.9375 231.964844 L 198.9375 237.019531 "/>
<path style=" stroke:none;fill-rule:nonzero;fill:rgb(100%,100%,100%);fill-opacity:1;" d="M 196.324219 226.734375 L 196.324219 221.683594 L 198.9375 221.683594 L 198.9375 226.734375 "/>
<path style=" stroke:none;fill-rule:nonzero;fill:rgb(100%,100%,100%);fill-opacity:1;" d="M 196.324219 216.453125 L 196.324219 211.398438 L 198.9375 211.398438 L 198.9375 216.453125 "/>
<path style=" stroke:none;fill-rule:nonzero;fill:rgb(100%,100%,100%);fill-opacity:1;" d="M 196.324219 206.171875 L 196.324219 200.941406 L 198.9375 200.941406 L 198.9375 206.171875 "/>
<path style=" stroke:none;fill-rule:nonzero;fill:rgb(100%,100%,100%);fill-opacity:1;" d="M 196.324219 195.886719 L 196.324219 190.660156 L 198.9375 190.660156 L 198.9375 195.886719 "/>
<path style=" stroke:none;fill-rule:nonzero;fill:rgb(100%,100%,100%);fill-opacity:1;" d="M 196.324219 185.605469 L 196.324219 180.378906 L 198.9375 180.378906 L 198.9375 185.605469 "/>
<path style=" stroke:none;fill-rule:nonzero;fill:rgb(100%,100%,100%);fill-opacity:1;" d="M 196.324219 175.148438 L 196.324219 170.09375 L 198.9375 170.09375 L 198.9375 175.148438 "/>
<path style=" stroke:none;fill-rule:nonzero;fill:rgb(100%,100%,100%);fill-opacity:1;" d="M 196.324219 164.867188 L 196.324219 159.8125 L 198.9375 159.8125 L 198.9375 164.867188 "/>
<path style=" stroke:none;fill-rule:nonzero;fill:rgb(100%,100%,100%);fill-opacity:1;" d="M 196.324219 154.585938 L 196.324219 149.355469 L 198.9375 149.355469 L 198.9375 154.585938 "/>
<path style=" stroke:none;fill-rule:nonzero;fill:rgb(100%,100%,100%);fill-opacity:1;" d="M 196.324219 144.300781 L 196.324219 139.074219 L 198.9375 139.074219 L 198.9375 144.300781 "/>
<path style=" stroke:none;fill-rule:nonzero;fill:rgb(100%,100%,100%);fill-opacity:1;" d="M 196.324219 134.019531 L 196.324219 128.792969 L 198.9375 128.792969 L 198.9375 134.019531 "/>
<path style=" stroke:none;fill-rule:nonzero;fill:rgb(100%,100%,100%);fill-opacity:1;" d="M 196.324219 123.5625 L 196.324219 118.507812 L 198.9375 118.507812 L 198.9375 123.5625 "/>
<path style=" stroke:none;fill-rule:nonzero;fill:rgb(100%,100%,100%);fill-opacity:1;" d="M 196.324219 113.28125 L 196.324219 108.226562 L 198.9375 108.226562 L 198.9375 113.28125 "/>
<path style=" stroke:none;fill-rule:nonzero;fill:rgb(100%,100%,100%);fill-opacity:1;" d="M 196.324219 103 L 196.324219 97.769531 L 198.9375 97.769531 L 198.9375 103 "/>
<path style=" stroke:none;fill-rule:nonzero;fill:rgb(100%,100%,100%);fill-opacity:1;" d="M 196.324219 92.714844 L 196.324219 87.488281 L 198.9375 87.488281 L 198.9375 92.714844 "/>
<path style=" stroke:none;fill-rule:nonzero;fill:rgb(100%,100%,100%);fill-opacity:1;" d="M 196.324219 82.433594 L 196.324219 77.203125 L 198.9375 77.203125 L 198.9375 82.433594 "/>
<path style=" stroke:none;fill-rule:nonzero;fill:rgb(100%,100%,100%);fill-opacity:1;" d="M 196.324219 71.976562 L 196.324219 66.921875 L 198.9375 66.921875 L 198.9375 71.976562 "/>
<path style=" stroke:none;fill-rule:nonzero;fill:rgb(100%,100%,100%);fill-opacity:1;" d="M 196.324219 61.695312 L 196.324219 56.640625 L 198.9375 56.640625 L 198.9375 61.695312 "/>
<path style=" stroke:none;fill-rule:nonzero;fill:rgb(100%,100%,100%);fill-opacity:1;" d="M 196.324219 51.410156 L 196.324219 46.183594 L 198.9375 46.183594 L 198.9375 51.410156 "/>
<path style=" stroke:none;fill-rule:nonzero;fill:rgb(100%,100%,100%);fill-opacity:1;" d="M 196.324219 41.128906 L 196.324219 35.902344 L 198.9375 35.902344 L 198.9375 41.128906 "/>
<path style=" stroke:none;fill-rule:nonzero;fill:rgb(100%,100%,100%);fill-opacity:1;" d="M 196.324219 30.847656 L 196.324219 25.617188 L 198.9375 25.617188 L 198.9375 30.847656 "/>
<path style=" stroke:none;fill-rule:nonzero;fill:rgb(100%,100%,100%);fill-opacity:1;" d="M 196.324219 20.390625 L 196.324219 15.335938 L 198.9375 15.335938 L 198.9375 20.390625 "/>
<path style=" stroke:none;fill-rule:nonzero;fill:rgb(100%,100%,100%);fill-opacity:1;" d="M 196.324219 10.109375 L 196.324219 5.054688 L 198.9375 5.054688 L 198.9375 10.109375 "/>
<g clip-path="url(#clip2)" clip-rule="nonzero">
<path style=" stroke:none;fill-rule:nonzero;fill:rgb(100%,100%,100%);fill-opacity:1;" d="M 0 48.535156 C 60.8125 48.535156 106.804688 60.019531 141.554688 77.511719 C 193.6875 103.742188 220.457031 143.492188 234.125 177.90625 C 247.796875 212.332031 248.4375 241.441406 248.441406 246.671875 C 248.441406 247.210938 248.433594 247.496094 248.433594 247.507812 L 245.820312 247.441406 L 245.824219 247.253906 C 245.824219 247.125 245.828125 246.929688 245.828125 246.671875 C 245.832031 239.980469 244.695312 191.011719 213.457031 143.859375 C 197.835938 120.273438 174.707031 97.125 140.378906 79.84375 C 106.046875 62.566406 60.492188 51.152344 0 51.148438 Z M 0 48.535156 "/>
</g>
<g clip-path="url(#clip3)" clip-rule="nonzero">
<path style=" stroke:none;fill-rule:nonzero;fill:rgb(100%,100%,100%);fill-opacity:1;" d="M 494.078125 51.148438 C 433.667969 51.148438 388.164062 62.535156 353.863281 79.777344 C 302.421875 105.636719 276.109375 144.6875 262.589844 178.648438 C 249.078125 212.597656 248.421875 241.441406 248.425781 246.617188 C 248.425781 246.894531 248.429688 247.101562 248.429688 247.238281 L 248.433594 247.441406 L 245.820312 247.507812 C 245.820312 247.496094 245.8125 247.191406 245.8125 246.617188 C 245.816406 239.433594 246.980469 190 278.652344 142.222656 C 294.488281 118.339844 317.96875 94.890625 352.6875 77.441406 C 387.410156 59.984375 433.34375 48.535156 494.078125 48.535156 Z M 494.078125 51.148438 "/>
</g>
<path style=" stroke:none;fill-rule:evenodd;fill:rgb(0%,0%,0%);fill-opacity:1;" d="M 197.109375 115.371094 C 201.292969 115.371094 204.429688 118.507812 204.429688 122.867188 C 204.429688 127.046875 201.292969 130.1875 197.109375 130.1875 C 192.925781 130.1875 189.613281 127.046875 189.613281 122.867188 C 189.613281 118.507812 192.925781 115.371094 197.109375 115.371094 "/>
<path style=" stroke:none;fill-rule:nonzero;fill:rgb(100%,100%,100%);fill-opacity:1;" d="M 197.109375 115.371094 L 197.109375 114.066406 C 199.527344 114.0625 201.714844 114.984375 203.269531 116.570312 C 204.828125 118.148438 205.738281 120.375 205.734375 122.867188 C 205.738281 125.285156 204.816406 127.46875 203.261719 129.019531 C 201.710938 130.574219 199.527344 131.496094 197.109375 131.492188 C 194.691406 131.496094 192.480469 130.578125 190.882812 129.035156 C 189.285156 127.492188 188.304688 125.304688 188.308594 122.867188 C 188.304688 120.355469 189.273438 118.125 190.875 116.554688 C 192.476562 114.980469 194.691406 114.0625 197.109375 114.066406 L 197.109375 116.679688 C 195.34375 116.679688 193.8125 117.332031 192.710938 118.417969 C 191.609375 119.503906 190.925781 121.019531 190.921875 122.867188 C 190.925781 124.609375 191.601562 126.082031 192.703125 127.15625 C 193.808594 128.222656 195.34375 128.875 197.109375 128.878906 C 198.871094 128.875 200.351562 128.226562 201.414062 127.171875 C 202.472656 126.109375 203.117188 124.628906 203.121094 122.867188 C 203.117188 121 202.460938 119.480469 201.40625 118.402344 C 200.34375 117.328125 198.871094 116.683594 197.109375 116.679688 Z M 197.109375 115.371094 "/>
<path style=" stroke:none;fill-rule:nonzero;fill:rgb(100%,100%,100%);fill-opacity:1;" d="M 71.335938 167.175781 L 71.625 167.175781 L 71.785156 167.082031 L 71.871094 166.910156 L 71.777344 166.660156 C 68.246094 163.34375 66.480469 158.488281 66.480469 152.101562 C 66.480469 150.65625 66.574219 149.273438 66.753906 147.941406 C 66.9375 146.613281 67.234375 145.328125 67.644531 144.085938 C 68.058594 142.84375 68.597656 141.675781 69.273438 140.574219 C 69.949219 139.476562 70.792969 138.445312 71.808594 137.484375 L 71.871094 137.289062 L 71.792969 137.105469 L 71.625 137.027344 L 71.335938 137.027344 L 71.183594 137.085938 C 70.058594 137.9375 69.074219 138.933594 68.234375 140.074219 C 67.390625 141.210938 66.699219 142.433594 66.152344 143.738281 C 65.613281 145.042969 65.210938 146.402344 64.945312 147.816406 C 64.679688 149.230469 64.546875 150.65625 64.546875 152.101562 C 64.546875 153.523438 64.679688 154.941406 64.945312 156.355469 C 65.210938 157.769531 65.605469 159.121094 66.140625 160.417969 C 66.671875 161.714844 67.355469 162.933594 68.195312 164.078125 C 69.03125 165.222656 70.027344 166.234375 71.183594 167.117188 Z M 71.335938 167.175781 "/>
<path style=" stroke:none;fill-rule:nonzero;fill:rgb(100%,100%,100%);fill-opacity:1;" d="M 80.109375 159.636719 L 80.109375 158.105469 C 79.917969 158.105469 79.671875 158.082031 79.375 158.035156 C 79.074219 157.984375 78.925781 157.925781 78.925781 157.859375 L 82.039062 154.425781 L 85.246094 158.105469 L 84.089844 158.105469 L 84.089844 159.636719 L 91.433594 159.636719 L 91.433594 158.105469 L 89.105469 158.105469 L 84.0625 152.21875 L 87.859375 148.066406 C 88.042969 147.882812 89.015625 147.789062 90.777344 147.789062 L 90.777344 146.253906 L 84.5625 146.253906 L 84.5625 147.789062 C 84.746094 147.789062 84.984375 147.808594 85.285156 147.847656 C 85.582031 147.886719 85.734375 147.949219 85.734375 148.039062 L 83.027344 151.011719 L 80.234375 147.789062 L 81.355469 147.789062 L 81.355469 146.253906 L 74.03125 146.253906 L 74.03125 147.789062 L 76.34375 147.789062 L 81.007812 153.21875 L 76.8125 157.828125 C 76.621094 158.015625 75.644531 158.105469 73.878906 158.105469 L 73.878906 159.636719 Z M 80.109375 159.636719 "/>
<path style=" stroke:none;fill-rule:nonzero;fill:rgb(100%,100%,100%);fill-opacity:1;" d="M 95.074219 165.351562 L 95.375 165.484375 L 95.574219 165.421875 C 96.410156 164.617188 97.0625 163.714844 97.523438 162.707031 C 97.980469 161.699219 98.210938 160.640625 98.210938 159.519531 C 98.210938 158.714844 98.054688 157.980469 97.742188 157.320312 C 97.429688 156.65625 96.902344 156.328125 96.164062 156.328125 C 95.691406 156.328125 95.285156 156.484375 94.953125 156.796875 C 94.617188 157.109375 94.453125 157.503906 94.453125 157.976562 C 94.453125 158.4375 94.617188 158.828125 94.953125 159.152344 C 95.285156 159.476562 95.691406 159.636719 96.164062 159.636719 C 96.660156 159.636719 97.074219 159.476562 97.410156 159.152344 L 97.410156 159.519531 C 97.410156 160.53125 97.203125 161.492188 96.785156 162.40625 C 96.371094 163.320312 95.792969 164.125 95.042969 164.820312 L 94.921875 165.070312 Z M 95.074219 165.351562 "/>
<path style=" stroke:none;fill-rule:nonzero;fill:rgb(100%,100%,100%);fill-opacity:1;" d="M 120.574219 164.078125 C 120.90625 163.71875 121.070312 163.324219 121.070312 162.890625 C 121.070312 162.566406 120.953125 162.304688 120.71875 162.105469 C 120.488281 161.902344 120.199219 161.804688 119.851562 161.804688 C 119.335938 161.804688 118.90625 161.992188 118.566406 162.371094 C 118.226562 162.746094 118.054688 163.191406 118.054688 163.703125 C 118.054688 164.339844 118.328125 164.851562 118.878906 165.238281 C 119.433594 165.628906 120.054688 165.820312 120.753906 165.820312 C 121.664062 165.820312 122.453125 165.429688 123.121094 164.644531 C 123.785156 163.859375 124.335938 162.886719 124.765625 161.722656 C 125.195312 160.558594 125.527344 159.425781 125.765625 158.320312 C 126.003906 157.21875 126.214844 156.128906 126.394531 155.058594 L 127.835938 147.699219 L 131.15625 147.699219 L 131.363281 147.589844 L 131.492188 147.292969 L 131.550781 147.035156 C 131.550781 146.769531 131.449219 146.640625 131.246094 146.640625 L 128.042969 146.640625 L 128.421875 144.648438 C 128.871094 142.394531 129.15625 141.007812 129.289062 140.496094 C 129.371094 140.175781 129.550781 139.871094 129.828125 139.585938 C 130.105469 139.300781 130.402344 139.15625 130.71875 139.15625 C 131.285156 139.15625 131.761719 139.300781 132.144531 139.582031 C 131.6875 139.632812 131.304688 139.820312 130.996094 140.148438 C 130.6875 140.472656 130.53125 140.859375 130.53125 141.300781 C 130.53125 141.621094 130.648438 141.882812 130.886719 142.082031 C 131.125 142.285156 131.414062 142.382812 131.75 142.382812 C 132.246094 142.382812 132.671875 142.195312 133.019531 141.820312 C 133.371094 141.445312 133.546875 141 133.546875 140.492188 C 133.546875 140.054688 133.410156 139.671875 133.136719 139.347656 C 132.863281 139.027344 132.511719 138.785156 132.082031 138.621094 C 131.652344 138.460938 131.210938 138.378906 130.753906 138.378906 C 130.054688 138.378906 129.40625 138.59375 128.804688 139.019531 C 128.203125 139.449219 127.726562 139.988281 127.371094 140.648438 C 127.140625 141.109375 126.964844 141.527344 126.847656 141.898438 C 126.730469 142.269531 126.625 142.675781 126.523438 143.113281 C 126.417969 143.550781 126.308594 144.074219 126.1875 144.683594 L 125.824219 146.640625 L 123.054688 146.640625 C 122.875 146.640625 122.742188 146.859375 122.660156 147.300781 C 122.660156 147.566406 122.761719 147.699219 122.964844 147.699219 L 125.625 147.699219 L 124.199219 155.089844 C 123.339844 159.367188 122.816406 161.890625 122.625 162.65625 C 122.160156 164.246094 121.558594 165.039062 120.820312 165.039062 C 120.273438 165.039062 119.808594 164.898438 119.425781 164.613281 C 119.863281 164.613281 120.246094 164.4375 120.574219 164.078125 "/>
<path style=" stroke:none;fill-rule:nonzero;fill:rgb(100%,100%,100%);fill-opacity:1;" d="M 144.882812 167.175781 L 145.171875 167.175781 L 145.332031 167.082031 L 145.414062 166.910156 L 145.324219 166.660156 C 141.792969 163.34375 140.027344 158.488281 140.027344 152.101562 C 140.027344 150.65625 140.117188 149.273438 140.300781 147.941406 C 140.484375 146.613281 140.78125 145.328125 141.191406 144.085938 C 141.601562 142.84375 142.144531 141.675781 142.820312 140.574219 C 143.496094 139.476562 144.339844 138.445312 145.355469 137.484375 L 145.414062 137.289062 L 145.339844 137.105469 L 145.171875 137.027344 L 144.882812 137.027344 L 144.730469 137.085938 C 143.601562 137.9375 142.621094 138.933594 141.777344 140.074219 C 140.933594 141.210938 140.242188 142.433594 139.699219 143.738281 C 139.15625 145.042969 138.753906 146.402344 138.488281 147.816406 C 138.226562 149.230469 138.09375 150.65625 138.09375 152.101562 C 138.09375 153.523438 138.226562 154.941406 138.488281 156.355469 C 138.753906 157.769531 139.152344 159.121094 139.683594 160.417969 C 140.214844 161.714844 140.902344 162.933594 141.738281 164.078125 C 142.578125 165.222656 143.574219 166.234375 144.730469 167.117188 Z M 144.882812 167.175781 "/>
<path style=" stroke:none;fill-rule:nonzero;fill:rgb(100%,100%,100%);fill-opacity:1;" d="M 154.179688 159.636719 L 154.179688 158.105469 C 153.988281 158.105469 153.742188 158.082031 153.441406 158.035156 C 153.144531 157.984375 152.996094 157.925781 152.996094 157.859375 L 156.109375 154.425781 L 159.316406 158.105469 L 158.160156 158.105469 L 158.160156 159.636719 L 165.5 159.636719 L 165.5 158.105469 L 163.175781 158.105469 L 158.128906 152.21875 L 161.929688 148.066406 C 162.109375 147.882812 163.082031 147.789062 164.847656 147.789062 L 164.847656 146.253906 L 158.632812 146.253906 L 158.632812 147.789062 C 158.8125 147.789062 159.054688 147.808594 159.355469 147.847656 C 159.652344 147.886719 159.800781 147.949219 159.800781 148.039062 L 157.097656 151.011719 L 154.300781 147.789062 L 155.425781 147.789062 L 155.425781 146.253906 L 148.101562 146.253906 L 148.101562 147.789062 L 150.410156 147.789062 L 155.074219 153.21875 L 150.882812 157.828125 C 150.6875 158.015625 149.710938 158.105469 147.949219 158.105469 L 147.949219 159.636719 Z M 154.179688 159.636719 "/>
<path style=" stroke:none;fill-rule:nonzero;fill:rgb(100%,100%,100%);fill-opacity:1;" d="M 168.050781 167.175781 L 168.203125 167.117188 C 169.359375 166.234375 170.355469 165.226562 171.1875 164.089844 C 172.019531 162.957031 172.707031 161.722656 173.25 160.382812 C 173.792969 159.042969 174.1875 157.683594 174.4375 156.304688 C 174.683594 154.925781 174.808594 153.523438 174.808594 152.101562 C 174.808594 150.175781 174.578125 148.292969 174.117188 146.449219 C 173.65625 144.605469 172.925781 142.867188 171.933594 141.238281 C 170.9375 139.605469 169.695312 138.222656 168.203125 137.085938 L 168.050781 137.027344 L 167.761719 137.027344 L 167.574219 137.105469 L 167.488281 137.289062 L 167.609375 137.542969 C 171.121094 140.859375 172.875 145.710938 172.875 152.101562 C 172.875 158.488281 171.101562 163.363281 167.550781 166.71875 L 167.488281 166.910156 C 167.488281 167.085938 167.578125 167.175781 167.761719 167.175781 Z M 168.050781 167.175781 "/>
<path style=" stroke:none;fill-rule:nonzero;fill:rgb(100%,100%,100%);fill-opacity:1;" d="M 179.902344 167.175781 L 180.054688 167.117188 C 181.210938 166.234375 182.207031 165.226562 183.039062 164.089844 C 183.871094 162.957031 184.558594 161.722656 185.101562 160.382812 C 185.644531 159.042969 186.039062 157.683594 186.289062 156.304688 C 186.535156 154.925781 186.660156 153.523438 186.660156 152.101562 C 186.660156 150.175781 186.429688 148.292969 185.96875 146.449219 C 185.507812 144.605469 184.777344 142.867188 183.785156 141.238281 C 182.789062 139.605469 181.546875 138.222656 180.054688 137.085938 L 179.902344 137.027344 L 179.613281 137.027344 L 179.425781 137.105469 L 179.339844 137.289062 L 179.460938 137.542969 C 182.972656 140.859375 184.726562 145.710938 184.726562 152.101562 C 184.726562 158.488281 182.953125 163.363281 179.402344 166.71875 L 179.339844 166.910156 C 179.339844 167.085938 179.429688 167.175781 179.613281 167.175781 Z M 179.902344 167.175781 "/>
<path style=" stroke:none;fill-rule:nonzero;fill:rgb(100%,100%,100%);fill-opacity:1;" d="M 454.230469 105.132812 L 454.519531 105.132812 L 454.679688 105.039062 L 454.765625 104.867188 L 454.671875 104.617188 C 451.140625 101.300781 449.375 96.445312 449.375 90.058594 C 449.375 88.613281 449.46875 87.230469 449.648438 85.898438 C 449.832031 84.570312 450.128906 83.285156 450.539062 82.042969 C 450.953125 80.800781 451.492188 79.632812 452.167969 78.53125 C 452.84375 77.429688 453.6875 76.402344 454.703125 75.441406 L 454.765625 75.246094 L 454.6875 75.0625 L 454.519531 74.984375 L 454.230469 74.984375 L 454.078125 75.042969 C 452.953125 75.894531 451.96875 76.890625 451.128906 78.03125 C 450.285156 79.167969 449.59375 80.390625 449.046875 81.695312 C 448.507812 83 448.105469 84.359375 447.839844 85.773438 C 447.574219 87.1875 447.441406 88.613281 447.441406 90.058594 C 447.441406 91.480469 447.574219 92.898438 447.839844 94.3125 C 448.105469 95.726562 448.5 97.078125 449.035156 98.375 C 449.566406 99.671875 450.25 100.890625 451.089844 102.035156 C 451.925781 103.175781 452.921875 104.191406 454.078125 105.074219 Z M 454.230469 105.132812 "/>
<path style=" stroke:none;fill-rule:nonzero;fill:rgb(100%,100%,100%);fill-opacity:1;" d="M 457.78125 102.820312 C 458.457031 103.363281 459.21875 103.632812 460.070312 103.632812 C 461.191406 103.632812 462.21875 103.273438 463.148438 102.558594 C 464.074219 101.839844 464.78125 100.960938 465.269531 99.921875 L 471.957031 85.996094 C 472.109375 85.828125 472.835938 85.746094 474.136719 85.746094 L 474.136719 84.214844 L 468.730469 84.214844 L 468.730469 85.746094 C 469.042969 85.746094 469.371094 85.761719 469.714844 85.796875 C 470.058594 85.832031 470.230469 85.898438 470.230469 85.996094 L 466.582031 93.59375 L 462.804688 85.746094 L 464.4375 85.746094 L 464.4375 84.214844 L 456.890625 84.214844 L 456.890625 85.746094 L 458.941406 85.746094 L 464.648438 97.59375 L 463.523438 99.921875 C 463.199219 100.628906 462.726562 101.222656 462.113281 101.703125 C 461.5 102.183594 460.820312 102.425781 460.070312 102.425781 C 459.957031 102.425781 459.789062 102.40625 459.566406 102.363281 C 460.171875 102.023438 460.480469 101.488281 460.480469 100.761719 C 460.480469 100.261719 460.300781 99.839844 459.945312 99.496094 C 459.589844 99.152344 459.15625 98.980469 458.640625 98.980469 C 458.101562 98.980469 457.65625 99.152344 457.300781 99.496094 C 456.949219 99.839844 456.769531 100.261719 456.769531 100.761719 C 456.769531 101.59375 457.105469 102.28125 457.78125 102.820312 "/>
<path style=" stroke:none;fill-rule:nonzero;fill:rgb(100%,100%,100%);fill-opacity:1;" d="M 478.3125 103.308594 L 478.613281 103.441406 L 478.8125 103.378906 C 479.648438 102.574219 480.300781 101.671875 480.761719 100.664062 C 481.21875 99.65625 481.449219 98.597656 481.449219 97.476562 C 481.449219 96.671875 481.292969 95.9375 480.980469 95.277344 C 480.664062 94.613281 480.140625 94.285156 479.402344 94.285156 C 478.929688 94.285156 478.523438 94.441406 478.1875 94.753906 C 477.855469 95.066406 477.6875 95.460938 477.6875 95.933594 C 477.6875 96.394531 477.855469 96.785156 478.1875 97.109375 C 478.523438 97.433594 478.929688 97.59375 479.402344 97.59375 C 479.898438 97.59375 480.3125 97.433594 480.648438 97.109375 L 480.648438 97.476562 C 480.648438 98.488281 480.4375 99.449219 480.023438 100.363281 C 479.609375 101.277344 479.03125 102.082031 478.28125 102.777344 L 478.160156 103.027344 Z M 478.3125 103.308594 "/>
<path style=" stroke:none;fill-rule:nonzero;fill:rgb(100%,100%,100%);fill-opacity:1;" d="M 503.988281 102.035156 C 504.316406 101.675781 504.484375 101.28125 504.484375 100.847656 C 504.484375 100.523438 504.367188 100.261719 504.132812 100.0625 C 503.898438 99.859375 503.609375 99.757812 503.265625 99.757812 C 502.746094 99.757812 502.316406 99.949219 501.976562 100.324219 C 501.636719 100.703125 501.464844 101.148438 501.464844 101.660156 C 501.464844 102.296875 501.742188 102.808594 502.292969 103.195312 C 502.84375 103.585938 503.46875 103.777344 504.164062 103.777344 C 505.074219 103.777344 505.863281 103.386719 506.53125 102.601562 C 507.199219 101.816406 507.746094 100.84375 508.175781 99.679688 C 508.605469 98.515625 508.941406 97.382812 509.179688 96.277344 C 509.417969 95.175781 509.625 94.085938 509.808594 93.015625 L 511.25 85.65625 L 514.566406 85.65625 L 514.773438 85.546875 L 514.902344 85.25 L 514.964844 84.992188 C 514.964844 84.726562 514.859375 84.597656 514.660156 84.597656 L 511.457031 84.597656 L 511.835938 82.605469 C 512.28125 80.351562 512.570312 78.964844 512.703125 78.453125 C 512.78125 78.132812 512.960938 77.828125 513.242188 77.542969 C 513.519531 77.257812 513.816406 77.113281 514.128906 77.113281 C 514.695312 77.113281 515.171875 77.257812 515.554688 77.539062 C 515.101562 77.589844 514.714844 77.777344 514.40625 78.105469 C 514.097656 78.429688 513.941406 78.816406 513.941406 79.257812 C 513.941406 79.578125 514.0625 79.839844 514.300781 80.039062 C 514.539062 80.242188 514.828125 80.339844 515.160156 80.339844 C 515.660156 80.339844 516.082031 80.152344 516.433594 79.777344 C 516.785156 79.402344 516.960938 78.957031 516.960938 78.449219 C 516.960938 78.011719 516.820312 77.628906 516.550781 77.304688 C 516.277344 76.984375 515.925781 76.742188 515.496094 76.578125 C 515.066406 76.417969 514.621094 76.335938 514.167969 76.335938 C 513.46875 76.335938 512.820312 76.550781 512.21875 76.976562 C 511.617188 77.40625 511.136719 77.945312 510.78125 78.605469 C 510.550781 79.066406 510.375 79.484375 510.261719 79.855469 C 510.144531 80.226562 510.035156 80.632812 509.933594 81.070312 C 509.832031 81.507812 509.722656 82.03125 509.597656 82.636719 L 509.234375 84.597656 L 506.46875 84.597656 C 506.285156 84.597656 506.15625 84.816406 506.074219 85.257812 C 506.074219 85.523438 506.175781 85.65625 506.378906 85.65625 L 509.039062 85.65625 L 507.613281 93.046875 C 506.753906 97.324219 506.230469 99.847656 506.039062 100.613281 C 505.570312 102.203125 504.972656 102.996094 504.230469 102.996094 C 503.6875 102.996094 503.222656 102.855469 502.835938 102.570312 C 503.273438 102.570312 503.660156 102.394531 503.988281 102.035156 "/>
<path style=" stroke:none;fill-rule:nonzero;fill:rgb(100%,100%,100%);fill-opacity:1;" d="M 528.292969 105.132812 L 528.582031 105.132812 L 528.742188 105.039062 L 528.828125 104.867188 L 528.734375 104.617188 C 525.203125 101.300781 523.4375 96.445312 523.4375 90.058594 C 523.4375 88.613281 523.53125 87.230469 523.710938 85.898438 C 523.894531 84.570312 524.195312 83.285156 524.601562 82.042969 C 525.015625 80.800781 525.554688 79.632812 526.234375 78.53125 C 526.90625 77.429688 527.753906 76.402344 528.765625 75.441406 L 528.828125 75.246094 L 528.75 75.0625 L 528.582031 74.984375 L 528.292969 74.984375 L 528.144531 75.042969 C 527.015625 75.894531 526.03125 76.890625 525.191406 78.03125 C 524.347656 79.167969 523.65625 80.390625 523.109375 81.695312 C 522.570312 83 522.167969 84.359375 521.902344 85.773438 C 521.636719 87.1875 521.507812 88.613281 521.507812 90.058594 C 521.507812 91.480469 521.636719 92.898438 521.902344 94.3125 C 522.167969 95.726562 522.5625 97.078125 523.097656 98.375 C 523.628906 99.671875 524.3125 100.890625 525.152344 102.035156 C 525.988281 103.175781 526.984375 104.191406 528.144531 105.074219 Z M 528.292969 105.132812 "/>
<path style=" stroke:none;fill-rule:nonzero;fill:rgb(100%,100%,100%);fill-opacity:1;" d="M 532.023438 102.820312 C 532.699219 103.363281 533.460938 103.632812 534.3125 103.632812 C 535.4375 103.632812 536.460938 103.273438 537.390625 102.558594 C 538.316406 101.839844 539.023438 100.960938 539.511719 99.921875 L 546.199219 85.996094 C 546.351562 85.828125 547.078125 85.746094 548.382812 85.746094 L 548.382812 84.214844 L 542.972656 84.214844 L 542.972656 85.746094 C 543.285156 85.746094 543.613281 85.761719 543.957031 85.796875 C 544.300781 85.832031 544.472656 85.898438 544.472656 85.996094 L 540.824219 93.59375 L 537.046875 85.746094 L 538.679688 85.746094 L 538.679688 84.214844 L 531.132812 84.214844 L 531.132812 85.746094 L 533.1875 85.746094 L 538.890625 97.59375 L 537.765625 99.921875 C 537.441406 100.628906 536.972656 101.222656 536.359375 101.703125 C 535.742188 102.183594 535.0625 102.425781 534.3125 102.425781 C 534.199219 102.425781 534.03125 102.40625 533.808594 102.363281 C 534.417969 102.023438 534.722656 101.488281 534.722656 100.761719 C 534.722656 100.261719 534.542969 99.839844 534.1875 99.496094 C 533.835938 99.152344 533.398438 98.980469 532.882812 98.980469 C 532.34375 98.980469 531.898438 99.152344 531.542969 99.496094 C 531.191406 99.839844 531.011719 100.261719 531.011719 100.761719 C 531.011719 101.59375 531.347656 102.28125 532.023438 102.820312 "/>
<path style=" stroke:none;fill-rule:nonzero;fill:rgb(100%,100%,100%);fill-opacity:1;" d="M 551.636719 105.132812 L 551.789062 105.074219 C 552.949219 104.191406 553.941406 103.183594 554.773438 102.046875 C 555.605469 100.914062 556.292969 99.679688 556.835938 98.339844 C 557.378906 97 557.773438 95.640625 558.023438 94.261719 C 558.273438 92.882812 558.394531 91.480469 558.394531 90.058594 C 558.394531 88.132812 558.164062 86.25 557.703125 84.40625 C 557.242188 82.558594 556.511719 80.824219 555.519531 79.195312 C 554.523438 77.5625 553.28125 76.179688 551.789062 75.042969 L 551.636719 74.984375 L 551.347656 74.984375 L 551.160156 75.0625 L 551.074219 75.246094 L 551.199219 75.5 C 554.707031 78.816406 556.460938 83.667969 556.460938 90.058594 C 556.460938 96.445312 554.6875 101.320312 551.136719 104.675781 L 551.074219 104.867188 C 551.074219 105.042969 551.167969 105.132812 551.347656 105.132812 Z M 551.636719 105.132812 "/>
<g clip-path="url(#clip4)" clip-rule="nonzero">
<path style=" stroke:none;fill-rule:nonzero;fill:rgb(100%,100%,100%);fill-opacity:1;" d="M 563.664062 105.132812 L 563.816406 105.074219 C 564.972656 104.191406 565.96875 103.183594 566.800781 102.046875 C 567.632812 100.914062 568.320312 99.679688 568.863281 98.339844 C 569.40625 97 569.800781 95.640625 570.046875 94.261719 C 570.296875 92.882812 570.421875 91.480469 570.421875 90.058594 C 570.421875 88.132812 570.191406 86.25 569.730469 84.40625 C 569.269531 82.558594 568.539062 80.824219 567.546875 79.195312 C 566.550781 77.5625 565.308594 76.179688 563.816406 75.042969 L 563.664062 74.984375 L 563.375 74.984375 L 563.183594 75.0625 L 563.101562 75.246094 L 563.222656 75.5 C 566.734375 78.816406 568.488281 83.667969 568.488281 90.058594 C 568.488281 96.445312 566.710938 101.320312 563.164062 104.675781 L 563.101562 104.867188 C 563.101562 105.042969 563.191406 105.132812 563.375 105.132812 Z M 563.664062 105.132812 "/>
</g>
<path style=" stroke:none;fill-rule:nonzero;fill:rgb(100%,100%,100%);fill-opacity:1;" d="M 418.703125 242.421875 L 418.703125 237.367188 L 421.316406 237.367188 L 421.316406 242.421875 "/>
<path style=" stroke:none;fill-rule:nonzero;fill:rgb(100%,100%,100%);fill-opacity:1;" d="M 418.703125 232.136719 L 418.703125 227.085938 L 421.316406 227.085938 L 421.316406 232.136719 "/>
<path style=" stroke:none;fill-rule:nonzero;fill:rgb(100%,100%,100%);fill-opacity:1;" d="M 418.703125 221.855469 L 418.703125 216.628906 L 421.316406 216.628906 L 421.316406 221.855469 "/>
<path style=" stroke:none;fill-rule:nonzero;fill:rgb(100%,100%,100%);fill-opacity:1;" d="M 418.703125 211.574219 L 418.703125 206.34375 L 421.316406 206.34375 L 421.316406 211.574219 "/>
<path style=" stroke:none;fill-rule:nonzero;fill:rgb(100%,100%,100%);fill-opacity:1;" d="M 418.703125 201.292969 L 418.703125 196.0625 L 421.316406 196.0625 L 421.316406 201.292969 "/>
<path style=" stroke:none;fill-rule:nonzero;fill:rgb(100%,100%,100%);fill-opacity:1;" d="M 418.703125 190.835938 L 418.703125 185.78125 L 421.316406 185.78125 L 421.316406 190.835938 "/>
<path style=" stroke:none;fill-rule:nonzero;fill:rgb(100%,100%,100%);fill-opacity:1;" d="M 418.703125 180.550781 L 418.703125 175.496094 L 421.316406 175.496094 L 421.316406 180.550781 "/>
<path style=" stroke:none;fill-rule:nonzero;fill:rgb(100%,100%,100%);fill-opacity:1;" d="M 418.703125 170.269531 L 418.703125 165.042969 L 421.316406 165.042969 L 421.316406 170.269531 "/>
<path style=" stroke:none;fill-rule:nonzero;fill:rgb(100%,100%,100%);fill-opacity:1;" d="M 418.703125 159.988281 L 418.703125 154.757812 L 421.316406 154.757812 L 421.316406 159.988281 "/>
<path style=" stroke:none;fill-rule:nonzero;fill:rgb(100%,100%,100%);fill-opacity:1;" d="M 418.703125 149.703125 L 418.703125 144.476562 L 421.316406 144.476562 L 421.316406 149.703125 "/>
<path style=" stroke:none;fill-rule:nonzero;fill:rgb(100%,100%,100%);fill-opacity:1;" d="M 418.703125 139.246094 L 418.703125 134.195312 L 421.316406 134.195312 L 421.316406 139.246094 "/>
<path style=" stroke:none;fill-rule:nonzero;fill:rgb(100%,100%,100%);fill-opacity:1;" d="M 418.703125 128.964844 L 418.703125 123.910156 L 421.316406 123.910156 L 421.316406 128.964844 "/>
<path style=" stroke:none;fill-rule:nonzero;fill:rgb(100%,100%,100%);fill-opacity:1;" d="M 418.703125 118.683594 L 418.703125 113.628906 L 421.316406 113.628906 L 421.316406 118.683594 "/>
<path style=" stroke:none;fill-rule:nonzero;fill:rgb(100%,100%,100%);fill-opacity:1;" d="M 418.703125 108.402344 L 418.703125 103.171875 L 421.316406 103.171875 L 421.316406 108.402344 "/>
<path style=" stroke:none;fill-rule:nonzero;fill:rgb(100%,100%,100%);fill-opacity:1;" d="M 418.703125 98.117188 L 418.703125 92.890625 L 421.316406 92.890625 L 421.316406 98.117188 "/>
<path style=" stroke:none;fill-rule:nonzero;fill:rgb(100%,100%,100%);fill-opacity:1;" d="M 418.703125 87.835938 L 418.703125 82.609375 L 421.316406 82.609375 L 421.316406 87.835938 "/>
<path style=" stroke:none;fill-rule:nonzero;fill:rgb(100%,100%,100%);fill-opacity:1;" d="M 418.703125 77.378906 L 418.703125 72.324219 L 421.316406 72.324219 L 421.316406 77.378906 "/>
<path style=" stroke:none;fill-rule:nonzero;fill:rgb(100%,100%,100%);fill-opacity:1;" d="M 418.703125 67.097656 L 418.703125 62.042969 L 421.316406 62.042969 L 421.316406 67.097656 "/>
<path style=" stroke:none;fill-rule:nonzero;fill:rgb(100%,100%,100%);fill-opacity:1;" d="M 418.703125 56.8125 L 418.703125 51.585938 L 421.316406 51.585938 L 421.316406 56.8125 "/>
<path style=" stroke:none;fill-rule:nonzero;fill:rgb(100%,100%,100%);fill-opacity:1;" d="M 418.703125 46.53125 L 418.703125 41.304688 L 421.316406 41.304688 L 421.316406 46.53125 "/>
<path style=" stroke:none;fill-rule:nonzero;fill:rgb(100%,100%,100%);fill-opacity:1;" d="M 418.703125 36.25 L 418.703125 31.019531 L 421.316406 31.019531 L 421.316406 36.25 "/>
<path style=" stroke:none;fill-rule:nonzero;fill:rgb(100%,100%,100%);fill-opacity:1;" d="M 418.703125 25.792969 L 418.703125 20.738281 L 421.316406 20.738281 L 421.316406 25.792969 "/>
<path style=" stroke:none;fill-rule:nonzero;fill:rgb(100%,100%,100%);fill-opacity:1;" d="M 418.703125 15.511719 L 418.703125 10.457031 L 421.316406 10.457031 L 421.316406 15.511719 "/>
<path style=" stroke:none;fill-rule:nonzero;fill:rgb(100%,100%,100%);fill-opacity:1;" d="M 418.703125 5.226562 L 418.703125 0 L 421.316406 0 L 421.316406 5.226562 "/>
<path style=" stroke:none;fill-rule:evenodd;fill:rgb(0%,0%,0%);fill-opacity:1;" d="M 419.488281 48.449219 C 423.671875 48.449219 426.980469 51.761719 426.980469 55.941406 C 426.980469 60.125 423.671875 63.261719 419.488281 63.261719 C 415.304688 63.261719 411.992188 60.125 411.992188 55.941406 C 411.992188 51.761719 415.304688 48.449219 419.488281 48.449219 "/>
<path style=" stroke:none;fill-rule:nonzero;fill:rgb(100%,100%,100%);fill-opacity:1;" d="M 419.488281 48.449219 L 419.488281 47.140625 C 421.925781 47.140625 424.140625 48.113281 425.726562 49.703125 C 427.316406 51.289062 428.289062 53.503906 428.289062 55.941406 C 428.292969 58.382812 427.3125 60.570312 425.714844 62.109375 C 424.117188 63.65625 421.90625 64.570312 419.488281 64.570312 C 417.070312 64.570312 414.859375 63.65625 413.261719 62.109375 C 411.664062 60.570312 410.683594 58.382812 410.6875 55.941406 C 410.683594 53.503906 411.660156 51.289062 413.25 49.703125 C 414.835938 48.113281 417.046875 47.140625 419.488281 47.140625 L 419.488281 49.757812 C 416.015625 49.765625 413.3125 52.46875 413.300781 55.941406 C 413.304688 57.6875 413.980469 59.160156 415.082031 60.230469 C 416.1875 61.300781 417.722656 61.953125 419.488281 61.957031 C 421.25 61.953125 422.789062 61.300781 423.894531 60.230469 C 424.996094 59.160156 425.671875 57.6875 425.675781 55.941406 C 425.664062 52.46875 422.960938 49.765625 419.488281 49.757812 Z M 419.488281 48.449219 "/>
<path style=" stroke:none;fill-rule:nonzero;fill:rgb(100%,100%,0%);fill-opacity:1;" d="M 212.144531 31.195312 L 212.144531 30.136719 C 211.445312 30.136719 210.867188 30.082031 210.410156 29.972656 C 209.953125 29.867188 209.726562 29.601562 209.726562 29.179688 L 209.726562 23.230469 C 209.726562 22.042969 210.113281 20.984375 210.886719 20.050781 C 211.660156 19.117188 212.652344 18.652344 213.855469 18.652344 C 214.765625 18.652344 215.367188 18.96875 215.664062 19.601562 C 215.957031 20.234375 216.105469 21.042969 216.105469 22.023438 L 216.105469 29.179688 C 216.105469 29.601562 215.875 29.867188 215.417969 29.972656 C 214.960938 30.082031 214.378906 30.136719 213.667969 30.136719 L 213.667969 31.195312 L 220.820312 31.195312 L 220.820312 30.136719 C 220.109375 30.136719 219.527344 30.082031 219.070312 29.972656 C 218.613281 29.867188 218.386719 29.601562 218.386719 29.179688 L 218.386719 23.230469 C 218.386719 22.042969 218.777344 20.984375 219.554688 20.050781 C 220.335938 19.117188 221.320312 18.652344 222.515625 18.652344 C 223.425781 18.652344 224.027344 18.960938 224.324219 19.578125 C 224.617188 20.199219 224.761719 21.011719 224.761719 22.023438 L 224.761719 29.179688 C 224.761719 29.601562 224.535156 29.867188 224.078125 29.972656 C 223.621094 30.082031 223.039062 30.136719 222.328125 30.136719 L 222.328125 31.195312 L 229.480469 31.195312 L 229.480469 30.136719 C 228.78125 30.136719 228.199219 30.082031 227.738281 29.972656 C 227.277344 29.867188 227.046875 29.601562 227.046875 29.179688 L 227.046875 21.9375 C 227.046875 21.023438 226.882812 20.265625 226.558594 19.660156 C 226.234375 19.058594 225.75 18.609375 225.105469 18.316406 C 224.460938 18.019531 223.667969 17.871094 222.722656 17.871094 C 221.769531 17.871094 220.890625 18.132812 220.089844 18.652344 C 219.289062 19.171875 218.679688 19.855469 218.261719 20.699219 C 217.847656 18.816406 216.441406 17.871094 214.046875 17.871094 C 213.082031 17.871094 212.191406 18.148438 211.378906 18.695312 C 210.558594 19.246094 209.945312 19.953125 209.527344 20.816406 L 209.527344 17.871094 L 205.007812 18.195312 L 205.007812 19.253906 C 205.667969 19.253906 206.15625 19.285156 206.46875 19.335938 C 206.785156 19.390625 207.023438 19.539062 207.191406 19.777344 C 207.359375 20.019531 207.445312 20.410156 207.445312 20.949219 L 207.445312 29.179688 C 207.445312 29.601562 207.214844 29.867188 206.757812 29.972656 C 206.300781 30.082031 205.71875 30.136719 205.007812 30.136719 L 205.007812 31.195312 Z M 212.144531 31.195312 "/>
<path style=" stroke:none;fill-rule:nonzero;fill:rgb(100%,100%,0%);fill-opacity:1;" d="M 231.886719 30.128906 C 232.402344 30.613281 233.039062 30.96875 233.804688 31.195312 C 234.570312 31.421875 235.347656 31.535156 236.136719 31.535156 C 236.984375 31.535156 237.789062 31.308594 238.535156 30.859375 C 239.285156 30.410156 239.855469 29.804688 240.238281 29.046875 C 240.289062 29.679688 240.535156 30.222656 240.980469 30.683594 C 241.421875 31.140625 241.949219 31.371094 242.558594 31.371094 C 243.035156 31.371094 243.480469 31.253906 243.894531 31.011719 C 244.304688 30.773438 244.632812 30.449219 244.878906 30.042969 C 245.121094 29.636719 245.246094 29.210938 245.246094 28.761719 L 245.246094 26.835938 L 244.34375 26.835938 L 244.34375 28.75 C 244.34375 29.128906 244.261719 29.484375 244.09375 29.816406 C 243.925781 30.148438 243.664062 30.3125 243.320312 30.3125 C 242.953125 30.3125 242.679688 30.148438 242.507812 29.820312 C 242.332031 29.492188 242.246094 29.132812 242.246094 28.738281 L 242.246094 21.960938 C 242.246094 21.097656 241.976562 20.34375 241.433594 19.695312 C 240.890625 19.050781 240.191406 18.550781 239.339844 18.203125 C 238.488281 17.855469 237.640625 17.679688 236.796875 17.679688 C 235.601562 17.679688 234.503906 17.9375 233.511719 18.453125 C 232.515625 18.96875 232.019531 19.757812 232.019531 20.816406 C 232.019531 21.21875 232.164062 21.5625 232.460938 21.847656 C 232.753906 22.132812 233.109375 22.273438 233.523438 22.273438 C 233.929688 22.273438 234.28125 22.132812 234.574219 21.847656 C 234.871094 21.566406 235.015625 21.222656 235.015625 20.824219 C 235.015625 20.441406 234.886719 20.105469 234.628906 19.816406 C 234.371094 19.53125 234.042969 19.386719 233.648438 19.386719 C 234.367188 18.789062 235.414062 18.488281 236.789062 18.488281 C 237.386719 18.488281 237.933594 18.664062 238.429688 19.011719 C 238.925781 19.359375 239.304688 19.804688 239.570312 20.347656 C 239.832031 20.890625 239.960938 21.449219 239.960938 22.027344 L 239.960938 23.261719 C 238.738281 23.261719 237.445312 23.414062 236.082031 23.722656 C 234.71875 24.035156 233.550781 24.5625 232.582031 25.316406 C 231.609375 26.066406 231.121094 27.039062 231.121094 28.238281 C 231.121094 29.011719 231.375 29.640625 231.886719 30.128906 M 234.621094 25.886719 C 235.265625 25.25 236.085938 24.785156 237.070312 24.488281 C 238.058594 24.191406 239.019531 24.039062 239.960938 24.039062 L 239.960938 27.160156 C 239.960938 27.777344 239.800781 28.363281 239.476562 28.921875 C 239.152344 29.476562 238.71875 29.917969 238.171875 30.242188 C 237.625 30.5625 237.015625 30.722656 236.351562 30.722656 C 235.621094 30.722656 234.988281 30.484375 234.453125 30.007812 C 233.914062 29.527344 233.648438 28.9375 233.648438 28.230469 C 233.648438 27.304688 233.972656 26.523438 234.621094 25.886719 "/>
<path style=" stroke:none;fill-rule:nonzero;fill:rgb(100%,100%,0%);fill-opacity:1;" d="M 251.457031 31.195312 L 251.457031 30.136719 C 251.222656 30.136719 251.019531 30.046875 250.847656 29.871094 C 250.675781 29.691406 250.589844 29.480469 250.589844 29.238281 C 250.589844 28.902344 250.703125 28.609375 250.9375 28.355469 L 253.175781 25.585938 L 255.976562 29.179688 L 256.066406 29.445312 C 256.066406 29.667969 255.949219 29.839844 255.71875 29.957031 C 255.484375 30.078125 255.238281 30.136719 254.988281 30.136719 L 254.988281 31.195312 L 261.46875 31.195312 L 261.46875 30.136719 C 260.679688 30.136719 260.070312 30.085938 259.644531 29.988281 C 259.21875 29.890625 258.808594 29.621094 258.410156 29.179688 L 254.425781 24.085938 L 256.890625 21.035156 C 257.375 20.449219 257.972656 20.003906 258.679688 19.707031 C 259.382812 19.40625 260.136719 19.253906 260.9375 19.253906 L 260.9375 18.195312 L 255.199219 18.195312 L 255.199219 19.253906 C 255.472656 19.253906 255.695312 19.34375 255.863281 19.519531 C 256.027344 19.699219 256.113281 19.910156 256.113281 20.15625 C 256.113281 20.449219 255.984375 20.742188 255.734375 21.035156 L 253.859375 23.363281 L 251.367188 20.226562 L 251.273438 19.949219 C 251.273438 19.722656 251.394531 19.550781 251.628906 19.433594 C 251.867188 19.316406 252.125 19.253906 252.398438 19.253906 L 252.398438 18.195312 L 245.914062 18.195312 L 245.914062 19.253906 C 246.699219 19.253906 247.304688 19.308594 247.734375 19.410156 C 248.164062 19.511719 248.566406 19.785156 248.929688 20.226562 L 252.613281 24.867188 L 249.78125 28.355469 C 249.296875 28.945312 248.699219 29.386719 248 29.6875 C 247.300781 29.984375 246.554688 30.136719 245.765625 30.136719 L 245.765625 31.195312 Z M 251.457031 31.195312 "/>
<path style=" stroke:none;fill-rule:nonzero;fill:rgb(100%,100%,0%);fill-opacity:1;" d="M 271.59375 38.734375 L 271.882812 38.734375 L 272.042969 38.636719 L 272.128906 38.46875 L 272.035156 38.21875 C 268.503906 34.902344 266.738281 30.046875 266.738281 23.65625 C 266.738281 22.214844 266.832031 20.828125 267.011719 19.5 C 267.195312 18.171875 267.496094 16.882812 267.902344 15.640625 C 268.316406 14.398438 268.855469 13.230469 269.535156 12.132812 C 270.207031 11.03125 271.050781 10 272.066406 9.039062 L 272.128906 8.847656 L 272.050781 8.664062 L 271.882812 8.582031 L 271.59375 8.582031 L 271.445312 8.640625 C 270.316406 9.496094 269.332031 10.492188 268.492188 11.632812 C 267.648438 12.769531 266.957031 13.992188 266.410156 15.296875 C 265.871094 16.601562 265.46875 17.960938 265.203125 19.375 C 264.9375 20.789062 264.808594 22.214844 264.808594 23.65625 C 264.808594 25.082031 264.9375 26.5 265.203125 27.910156 C 265.46875 29.324219 265.863281 30.679688 266.398438 31.976562 C 266.929688 33.269531 267.613281 34.492188 268.453125 35.632812 C 269.289062 36.777344 270.285156 37.789062 271.445312 38.671875 Z M 271.59375 38.734375 "/>
<path style=" stroke:none;fill-rule:nonzero;fill:rgb(100%,100%,0%);fill-opacity:1;" d="M 277.601562 35.632812 C 277.929688 35.273438 278.097656 34.882812 278.097656 34.449219 C 278.097656 34.125 277.980469 33.863281 277.746094 33.660156 C 277.511719 33.460938 277.222656 33.359375 276.878906 33.359375 C 276.359375 33.359375 275.929688 33.546875 275.589844 33.925781 C 275.25 34.304688 275.078125 34.75 275.078125 35.257812 C 275.078125 35.898438 275.355469 36.410156 275.90625 36.796875 C 276.457031 37.183594 277.082031 37.378906 277.777344 37.378906 C 278.6875 37.378906 279.476562 36.988281 280.144531 36.199219 C 280.8125 35.417969 281.359375 34.441406 281.789062 33.277344 C 282.21875 32.117188 282.554688 30.984375 282.792969 29.878906 C 283.027344 28.773438 283.238281 27.6875 283.421875 26.617188 L 284.863281 19.253906 L 288.179688 19.253906 L 288.386719 19.144531 L 288.515625 18.851562 L 288.578125 18.59375 C 288.578125 18.328125 288.472656 18.195312 288.273438 18.195312 L 285.070312 18.195312 L 285.449219 16.207031 C 285.894531 13.949219 286.183594 12.566406 286.316406 12.054688 C 286.394531 11.730469 286.574219 11.425781 286.855469 11.144531 C 287.132812 10.855469 287.429688 10.714844 287.742188 10.714844 C 288.308594 10.714844 288.785156 10.855469 289.167969 11.140625 C 288.714844 11.191406 288.328125 11.378906 288.019531 11.707031 C 287.710938 12.03125 287.554688 12.417969 287.554688 12.855469 C 287.554688 13.179688 287.675781 13.441406 287.914062 13.640625 C 288.152344 13.84375 288.441406 13.941406 288.773438 13.941406 C 289.273438 13.941406 289.695312 13.753906 290.046875 13.378906 C 290.398438 13 290.574219 12.558594 290.574219 12.050781 C 290.574219 11.609375 290.433594 11.226562 290.164062 10.90625 C 289.890625 10.582031 289.539062 10.339844 289.109375 10.179688 C 288.679688 10.019531 288.234375 9.9375 287.78125 9.9375 C 287.082031 9.9375 286.433594 10.152344 285.832031 10.578125 C 285.230469 11.003906 284.75 11.546875 284.394531 12.203125 C 284.164062 12.667969 283.988281 13.082031 283.875 13.457031 C 283.757812 13.828125 283.648438 14.234375 283.546875 14.671875 C 283.445312 15.109375 283.335938 15.628906 283.210938 16.238281 L 282.847656 18.195312 L 280.082031 18.195312 C 279.898438 18.195312 279.769531 18.417969 279.6875 18.859375 C 279.6875 19.125 279.789062 19.253906 279.992188 19.253906 L 282.652344 19.253906 L 281.226562 26.648438 C 280.367188 30.925781 279.84375 33.449219 279.652344 34.214844 C 279.183594 35.804688 278.585938 36.597656 277.84375 36.597656 C 277.300781 36.597656 276.835938 36.457031 276.449219 36.171875 C 276.886719 36.171875 277.273438 35.992188 277.601562 35.632812 "/>
<path style=" stroke:none;fill-rule:nonzero;fill:rgb(100%,100%,0%);fill-opacity:1;" d="M 301.90625 38.734375 L 302.195312 38.734375 L 302.355469 38.636719 L 302.441406 38.46875 L 302.347656 38.21875 C 298.816406 34.902344 297.050781 30.046875 297.050781 23.65625 C 297.050781 22.214844 297.144531 20.828125 297.324219 19.5 C 297.507812 18.171875 297.804688 16.882812 298.214844 15.640625 C 298.625 14.398438 299.167969 13.230469 299.84375 12.132812 C 300.519531 11.03125 301.363281 10 302.378906 9.039062 L 302.441406 8.847656 L 302.363281 8.664062 L 302.195312 8.582031 L 301.90625 8.582031 L 301.753906 8.640625 C 300.628906 9.496094 299.644531 10.492188 298.804688 11.632812 C 297.960938 12.769531 297.265625 13.992188 296.726562 15.296875 C 296.183594 16.601562 295.777344 17.960938 295.515625 19.375 C 295.25 20.789062 295.117188 22.214844 295.117188 23.65625 C 295.117188 25.082031 295.25 26.5 295.515625 27.910156 C 295.777344 29.324219 296.175781 30.679688 296.710938 31.976562 C 297.242188 33.269531 297.925781 34.492188 298.765625 35.632812 C 299.601562 36.777344 300.597656 37.789062 301.753906 38.671875 Z M 301.90625 38.734375 "/>
<path style=" stroke:none;fill-rule:nonzero;fill:rgb(100%,100%,0%);fill-opacity:1;" d="M 311.203125 31.195312 L 311.203125 29.664062 C 311.011719 29.664062 310.765625 29.640625 310.46875 29.589844 C 310.167969 29.542969 310.019531 29.480469 310.019531 29.414062 L 313.132812 25.984375 L 316.339844 29.664062 L 315.183594 29.664062 L 315.183594 31.195312 L 322.523438 31.195312 L 322.523438 29.664062 L 320.199219 29.664062 L 315.15625 23.777344 L 318.953125 19.625 C 319.136719 19.4375 320.109375 19.34375 321.871094 19.34375 L 321.871094 17.8125 L 315.65625 17.8125 L 315.65625 19.34375 C 315.839844 19.34375 316.078125 19.363281 316.378906 19.402344 C 316.675781 19.441406 316.828125 19.507812 316.828125 19.59375 L 314.121094 22.570312 L 311.324219 19.34375 L 312.449219 19.34375 L 312.449219 17.8125 L 305.125 17.8125 L 305.125 19.34375 L 307.4375 19.34375 L 312.101562 24.777344 L 307.90625 29.386719 C 307.714844 29.570312 306.738281 29.664062 304.972656 29.664062 L 304.972656 31.195312 Z M 311.203125 31.195312 "/>
<path style=" stroke:none;fill-rule:nonzero;fill:rgb(100%,100%,0%);fill-opacity:1;" d="M 325.25 38.734375 L 325.402344 38.671875 C 326.558594 37.789062 327.554688 36.78125 328.386719 35.648438 C 329.21875 34.515625 329.90625 33.277344 330.449219 31.941406 C 330.992188 30.597656 331.386719 29.238281 331.636719 27.863281 C 331.882812 26.484375 332.007812 25.082031 332.007812 23.65625 C 332.007812 21.734375 331.777344 19.851562 331.316406 18.003906 C 330.855469 16.160156 330.125 14.421875 329.132812 12.792969 C 328.136719 11.164062 326.894531 9.78125 325.402344 8.640625 L 325.25 8.582031 L 324.960938 8.582031 L 324.773438 8.664062 L 324.6875 8.847656 L 324.808594 9.097656 C 328.320312 12.414062 330.074219 17.269531 330.074219 23.65625 C 330.074219 30.046875 328.300781 34.917969 324.75 38.277344 L 324.6875 38.46875 C 324.6875 38.644531 324.777344 38.734375 324.960938 38.734375 Z M 325.25 38.734375 "/>
<path style=" stroke:none;fill-rule:nonzero;fill:rgb(100%,100%,0%);fill-opacity:1;" d="M 337.84375 36.90625 L 338.144531 37.039062 L 338.34375 36.980469 C 339.183594 36.175781 339.832031 35.269531 340.292969 34.265625 C 340.75 33.257812 340.980469 32.195312 340.980469 31.078125 C 340.980469 30.273438 340.824219 29.539062 340.511719 28.875 C 340.199219 28.214844 339.671875 27.882812 338.933594 27.882812 C 338.460938 27.882812 338.054688 28.039062 337.722656 28.355469 C 337.386719 28.667969 337.222656 29.0625 337.222656 29.53125 C 337.222656 29.992188 337.386719 30.386719 337.722656 30.710938 C 338.054688 31.035156 338.460938 31.195312 338.933594 31.195312 C 339.429688 31.195312 339.84375 31.035156 340.179688 30.710938 L 340.179688 31.078125 C 340.179688 32.089844 339.972656 33.050781 339.554688 33.964844 C 339.140625 34.875 338.5625 35.679688 337.8125 36.378906 L 337.691406 36.628906 Z M 337.84375 36.90625 "/>
<path style=" stroke:none;fill-rule:nonzero;fill:rgb(100%,100%,0%);fill-opacity:1;" d="M 362.996094 35.632812 C 363.328125 35.273438 363.492188 34.882812 363.492188 34.449219 C 363.492188 34.125 363.375 33.863281 363.140625 33.660156 C 362.910156 33.460938 362.621094 33.359375 362.273438 33.359375 C 361.757812 33.359375 361.324219 33.546875 360.984375 33.925781 C 360.644531 34.304688 360.476562 34.75 360.476562 35.257812 C 360.476562 35.898438 360.75 36.410156 361.300781 36.796875 C 361.855469 37.183594 362.476562 37.378906 363.175781 37.378906 C 364.085938 37.378906 364.875 36.988281 365.542969 36.199219 C 366.210938 35.417969 366.757812 34.441406 367.1875 33.277344 C 367.617188 32.117188 367.949219 30.984375 368.1875 29.878906 C 368.425781 28.773438 368.636719 27.6875 368.816406 26.617188 L 370.257812 19.253906 L 373.578125 19.253906 L 373.785156 19.144531 L 373.914062 18.851562 L 373.972656 18.59375 C 373.972656 18.328125 373.871094 18.195312 373.667969 18.195312 L 370.464844 18.195312 L 370.84375 16.207031 C 371.292969 13.949219 371.578125 12.566406 371.710938 12.054688 C 371.792969 11.730469 371.972656 11.425781 372.25 11.144531 C 372.527344 10.855469 372.824219 10.714844 373.140625 10.714844 C 373.707031 10.714844 374.183594 10.855469 374.566406 11.140625 C 374.109375 11.191406 373.726562 11.378906 373.414062 11.707031 C 373.105469 12.03125 372.953125 12.417969 372.953125 12.855469 C 372.953125 13.179688 373.070312 13.441406 373.308594 13.640625 C 373.546875 13.84375 373.835938 13.941406 374.171875 13.941406 C 374.667969 13.941406 375.09375 13.753906 375.441406 13.378906 C 375.792969 13 375.96875 12.558594 375.96875 12.050781 C 375.96875 11.609375 375.832031 11.226562 375.558594 10.90625 C 375.285156 10.582031 374.933594 10.339844 374.503906 10.179688 C 374.074219 10.019531 373.632812 9.9375 373.175781 9.9375 C 372.476562 9.9375 371.828125 10.152344 371.226562 10.578125 C 370.625 11.003906 370.144531 11.546875 369.792969 12.203125 C 369.5625 12.667969 369.382812 13.082031 369.269531 13.457031 C 369.152344 13.828125 369.042969 14.234375 368.945312 14.671875 C 368.839844 15.109375 368.730469 15.628906 368.609375 16.238281 L 368.246094 18.195312 L 365.476562 18.195312 C 365.296875 18.195312 365.164062 18.417969 365.085938 18.859375 C 365.085938 19.125 365.183594 19.253906 365.386719 19.253906 L 368.046875 19.253906 L 366.621094 26.648438 C 365.761719 30.925781 365.238281 33.449219 365.046875 34.214844 C 364.582031 35.804688 363.980469 36.597656 363.242188 36.597656 C 362.695312 36.597656 362.230469 36.457031 361.847656 36.171875 C 362.285156 36.171875 362.667969 35.992188 362.996094 35.632812 "/>
<path style=" stroke:none;fill-rule:nonzero;fill:rgb(100%,100%,0%);fill-opacity:1;" d="M 387.304688 38.734375 L 387.59375 38.734375 L 387.753906 38.636719 L 387.835938 38.46875 L 387.742188 38.21875 C 384.214844 34.902344 382.449219 30.046875 382.449219 23.65625 C 382.449219 22.214844 382.539062 20.828125 382.722656 19.5 C 382.90625 18.171875 383.203125 16.882812 383.613281 15.640625 C 384.023438 14.398438 384.566406 13.230469 385.242188 12.132812 C 385.914062 11.03125 386.761719 10 387.777344 9.039062 L 387.835938 8.847656 L 387.757812 8.664062 L 387.59375 8.582031 L 387.304688 8.582031 L 387.152344 8.640625 C 386.023438 9.496094 385.042969 10.492188 384.199219 11.632812 C 383.355469 12.769531 382.664062 13.992188 382.121094 15.296875 C 381.578125 16.601562 381.175781 17.960938 380.910156 19.375 C 380.648438 20.789062 380.515625 22.214844 380.515625 23.65625 C 380.515625 25.082031 380.648438 26.5 380.910156 27.910156 C 381.175781 29.324219 381.574219 30.679688 382.105469 31.976562 C 382.636719 33.269531 383.324219 34.492188 384.160156 35.632812 C 384.996094 36.777344 385.996094 37.789062 387.152344 38.671875 Z M 387.304688 38.734375 "/>
<path style=" stroke:none;fill-rule:nonzero;fill:rgb(100%,100%,0%);fill-opacity:1;" d="M 391.03125 36.421875 C 391.707031 36.960938 392.46875 37.230469 393.320312 37.230469 C 394.445312 37.230469 395.472656 36.875 396.398438 36.15625 C 397.324219 35.441406 398.03125 34.5625 398.519531 33.523438 L 405.207031 19.59375 C 405.359375 19.429688 406.085938 19.34375 407.390625 19.34375 L 407.390625 17.8125 L 401.980469 17.8125 L 401.980469 19.34375 C 402.292969 19.34375 402.621094 19.363281 402.964844 19.398438 C 403.308594 19.429688 403.480469 19.496094 403.480469 19.59375 L 399.832031 27.191406 L 396.054688 19.34375 L 397.6875 19.34375 L 397.6875 17.8125 L 390.144531 17.8125 L 390.144531 19.34375 L 392.195312 19.34375 L 397.902344 31.195312 L 396.773438 33.523438 C 396.449219 34.226562 395.980469 34.820312 395.367188 35.304688 C 394.753906 35.785156 394.070312 36.023438 393.320312 36.023438 C 393.207031 36.023438 393.039062 36.003906 392.816406 35.964844 C 393.425781 35.621094 393.730469 35.085938 393.730469 34.359375 C 393.730469 33.859375 393.550781 33.4375 393.195312 33.09375 C 392.84375 32.75 392.40625 32.578125 391.890625 32.578125 C 391.351562 32.578125 390.910156 32.75 390.554688 33.09375 C 390.199219 33.4375 390.019531 33.859375 390.019531 34.359375 C 390.019531 35.195312 390.359375 35.882812 391.03125 36.421875 "/>
<path style=" stroke:none;fill-rule:nonzero;fill:rgb(100%,100%,0%);fill-opacity:1;" d="M 410.820312 38.734375 L 410.972656 38.671875 C 412.128906 37.789062 413.125 36.78125 413.957031 35.648438 C 414.789062 34.515625 415.476562 33.277344 416.019531 31.941406 C 416.5625 30.597656 416.957031 29.238281 417.207031 27.863281 C 417.453125 26.484375 417.578125 25.082031 417.578125 23.65625 C 417.578125 21.734375 417.347656 19.851562 416.886719 18.003906 C 416.425781 16.160156 415.695312 14.421875 414.703125 12.792969 C 413.707031 11.164062 412.464844 9.78125 410.972656 8.640625 L 410.820312 8.582031 L 410.53125 8.582031 L 410.34375 8.664062 L 410.257812 8.847656 L 410.378906 9.097656 C 413.890625 12.414062 415.644531 17.269531 415.644531 23.65625 C 415.644531 30.046875 413.871094 34.917969 410.320312 38.277344 L 410.257812 38.46875 C 410.257812 38.644531 410.347656 38.734375 410.53125 38.734375 Z M 410.820312 38.734375 "/>
<path style=" stroke:none;fill-rule:nonzero;fill:rgb(100%,100%,0%);fill-opacity:1;" d="M 422.671875 38.734375 L 422.824219 38.671875 C 423.980469 37.789062 424.976562 36.78125 425.808594 35.648438 C 426.640625 34.515625 427.328125 33.277344 427.871094 31.941406 C 428.414062 30.597656 428.808594 29.238281 429.058594 27.863281 C 429.304688 26.484375 429.429688 25.082031 429.429688 23.65625 C 429.429688 21.734375 429.199219 19.851562 428.738281 18.003906 C 428.277344 16.160156 427.546875 14.421875 426.554688 12.792969 C 425.558594 11.164062 424.316406 9.78125 422.824219 8.640625 L 422.671875 8.582031 L 422.382812 8.582031 L 422.195312 8.664062 L 422.109375 8.847656 L 422.230469 9.097656 C 425.742188 12.414062 427.496094 17.269531 427.496094 23.65625 C 427.496094 30.046875 425.722656 34.917969 422.171875 38.277344 L 422.109375 38.46875 C 422.109375 38.644531 422.199219 38.734375 422.382812 38.734375 Z M 422.671875 38.734375 "/>
</g>
</svg>
