<?xml version="1.0" encoding="UTF-8"?>
<svg xmlns="http://www.w3.org/2000/svg" xmlns:xlink="http://www.w3.org/1999/xlink" width="520.953pt" height="422.5623pt" viewBox="0 0 520.953 422.5623" version="1.1">
<defs>
<clipPath id="clip1">
  <path d="M 488 360 L 520.953125 360 L 520.953125 383 L 488 383 Z M 488 360 "/>
</clipPath>
<clipPath id="clip2">
  <path d="M 181 31 L 186 31 L 186 422.5625 L 181 422.5625 Z M 181 31 "/>
</clipPath>
</defs>
<g id="surface1">
<path style=" stroke:none;fill-rule:nonzero;fill:rgb(100%,100%,100%);fill-opacity:1;" d="M 0 369.351562 L 489.519531 369.351562 L 489.519531 373.566406 L 0 373.566406 "/>
<g clip-path="url(#clip1)" clip-rule="nonzero">
<path style=" stroke:none;fill-rule:evenodd;fill:rgb(100%,100%,100%);fill-opacity:1;" d="M 520.953125 371.460938 L 488.050781 360.429688 L 488.050781 382.304688 Z M 520.953125 371.460938 "/>
</g>
<g clip-path="url(#clip2)" clip-rule="nonzero">
<path style=" stroke:none;fill-rule:nonzero;fill:rgb(100%,100%,100%);fill-opacity:1;" d="M 181.164062 422.5625 L 181.164062 31.9375 L 185.378906 31.9375 L 185.378906 422.5625 "/>
</g>
<path style=" stroke:none;fill-rule:evenodd;fill:rgb(100%,100%,100%);fill-opacity:1;" d="M 183.269531 0.503906 L 172.425781 33.410156 L 194.300781 33.410156 Z M 183.269531 0.503906 "/>
<path style=" stroke:none;fill-rule:nonzero;fill:rgb(100%,100%,100%);fill-opacity:1;" d="M 216.148438 28.53125 C 216.496094 28.152344 216.671875 27.738281 216.671875 27.28125 C 216.671875 26.941406 216.546875 26.664062 216.300781 26.453125 C 216.054688 26.242188 215.75 26.132812 215.386719 26.132812 C 214.839844 26.132812 214.386719 26.332031 214.027344 26.730469 C 213.671875 27.128906 213.488281 27.597656 213.488281 28.136719 C 213.488281 28.808594 213.78125 29.351562 214.363281 29.757812 C 214.945312 30.167969 215.601562 30.371094 216.335938 30.371094 C 217.296875 30.371094 218.128906 29.960938 218.832031 29.128906 C 219.539062 28.304688 220.113281 27.277344 220.570312 26.046875 C 221.019531 24.820312 221.375 23.625 221.625 22.460938 C 221.875 21.296875 222.097656 20.152344 222.289062 19.023438 L 223.808594 11.257812 L 227.308594 11.257812 L 227.527344 11.140625 L 227.664062 10.832031 L 227.726562 10.558594 C 227.726562 10.277344 227.617188 10.140625 227.40625 10.140625 L 224.027344 10.140625 L 224.425781 8.042969 C 224.898438 5.660156 225.203125 4.199219 225.339844 3.660156 C 225.425781 3.320312 225.613281 3 225.910156 2.699219 C 226.203125 2.398438 226.515625 2.246094 226.847656 2.246094 C 227.445312 2.246094 227.949219 2.398438 228.351562 2.695312 C 227.871094 2.75 227.464844 2.949219 227.140625 3.292969 C 226.8125 3.636719 226.648438 4.042969 226.648438 4.507812 C 226.648438 4.847656 226.773438 5.121094 227.027344 5.335938 C 227.277344 5.546875 227.582031 5.652344 227.933594 5.652344 C 228.460938 5.652344 228.90625 5.453125 229.277344 5.058594 C 229.644531 4.660156 229.832031 4.191406 229.832031 3.65625 C 229.832031 3.191406 229.6875 2.789062 229.398438 2.449219 C 229.109375 2.109375 228.738281 1.855469 228.289062 1.683594 C 227.832031 1.515625 227.367188 1.429688 226.886719 1.429688 C 226.148438 1.429688 225.464844 1.652344 224.828125 2.105469 C 224.195312 2.554688 223.691406 3.125 223.316406 3.820312 C 223.074219 4.308594 222.886719 4.746094 222.765625 5.140625 C 222.640625 5.53125 222.527344 5.960938 222.421875 6.421875 C 222.3125 6.882812 222.199219 7.433594 222.070312 8.074219 L 221.683594 10.140625 L 218.765625 10.140625 C 218.574219 10.140625 218.4375 10.371094 218.351562 10.839844 C 218.351562 11.117188 218.457031 11.257812 218.671875 11.257812 L 221.476562 11.257812 L 219.972656 19.054688 C 219.066406 23.566406 218.515625 26.226562 218.3125 27.035156 C 217.820312 28.710938 217.1875 29.550781 216.40625 29.550781 C 215.832031 29.550781 215.339844 29.402344 214.9375 29.097656 C 215.398438 29.097656 215.800781 28.910156 216.148438 28.53125 "/>
<path style=" stroke:none;fill-rule:nonzero;fill:rgb(100%,100%,100%);fill-opacity:1;" d="M 229.441406 26.078125 C 229.972656 26.824219 230.679688 27.414062 231.5625 27.839844 C 232.449219 28.265625 233.363281 28.480469 234.3125 28.480469 C 235.019531 28.480469 235.710938 28.359375 236.394531 28.117188 C 237.074219 27.875 237.683594 27.535156 238.222656 27.09375 C 238.761719 26.65625 239.183594 26.136719 239.496094 25.539062 C 239.808594 24.9375 239.964844 24.273438 239.964844 23.546875 C 239.964844 22.59375 239.710938 21.714844 239.191406 20.917969 C 238.679688 20.113281 237.980469 19.488281 237.101562 19.03125 C 236.21875 18.574219 235.289062 18.347656 234.3125 18.347656 C 233.582031 18.347656 232.867188 18.480469 232.167969 18.742188 C 231.46875 19.007812 230.855469 19.378906 230.328125 19.851562 C 229.800781 20.328125 229.390625 20.878906 229.09375 21.515625 C 228.796875 22.144531 228.648438 22.828125 228.648438 23.546875 C 228.648438 24.488281 228.910156 25.332031 229.441406 26.078125 M 231.585938 26.480469 C 231.09375 25.679688 230.84375 24.613281 230.84375 23.277344 C 230.84375 20.46875 232 19.0625 234.3125 19.0625 C 235.585938 19.0625 236.484375 19.445312 236.996094 20.203125 C 237.511719 20.960938 237.769531 21.984375 237.769531 23.277344 C 237.769531 24.613281 237.523438 25.679688 237.03125 26.480469 C 236.539062 27.277344 235.632812 27.675781 234.3125 27.675781 C 232.992188 27.675781 232.085938 27.277344 231.585938 26.480469 M 247.269531 32.574219 L 247.269531 31.683594 C 246.773438 31.683594 246.359375 31.644531 246.03125 31.566406 C 245.707031 31.492188 245.542969 31.308594 245.542969 31.015625 L 245.542969 27.253906 C 245.957031 27.640625 246.433594 27.941406 246.980469 28.15625 C 247.523438 28.371094 248.089844 28.480469 248.675781 28.480469 C 249.652344 28.480469 250.574219 28.261719 251.4375 27.832031 C 252.300781 27.402344 253 26.800781 253.523438 26.03125 C 254.050781 25.261719 254.3125 24.402344 254.3125 23.460938 C 254.3125 22.574219 254.078125 21.742188 253.609375 20.96875 C 253.140625 20.199219 252.503906 19.585938 251.703125 19.136719 C 250.902344 18.683594 250.03125 18.453125 249.09375 18.453125 C 248.417969 18.453125 247.765625 18.566406 247.132812 18.78125 C 246.5 19 245.941406 19.320312 245.453125 19.75 L 245.453125 18.453125 L 241.890625 18.695312 L 241.890625 19.585938 C 242.445312 19.585938 242.875 19.628906 243.175781 19.714844 C 243.476562 19.800781 243.625 20.027344 243.625 20.390625 L 243.625 31.019531 C 243.625 31.320312 243.460938 31.503906 243.136719 31.574219 C 242.808594 31.648438 242.394531 31.683594 241.890625 31.683594 L 241.890625 32.574219 Z M 245.542969 20.855469 C 245.886719 20.339844 246.355469 19.945312 246.945312 19.671875 C 247.53125 19.394531 248.148438 19.261719 248.796875 19.261719 C 249.304688 19.261719 249.773438 19.386719 250.203125 19.640625 C 250.628906 19.890625 250.984375 20.230469 251.265625 20.648438 C 251.546875 21.066406 251.757812 21.519531 251.902344 22.003906 C 252.042969 22.488281 252.113281 22.972656 252.113281 23.457031 C 252.113281 24.128906 251.96875 24.800781 251.675781 25.476562 C 251.382812 26.148438 250.960938 26.699219 250.402344 27.125 C 249.847656 27.550781 249.210938 27.761719 248.492188 27.761719 C 247.882812 27.761719 247.3125 27.597656 246.78125 27.261719 C 246.246094 26.929688 245.835938 26.496094 245.542969 25.960938 Z M 259.011719 27.726562 C 259.613281 28.230469 260.398438 28.480469 261.359375 28.480469 C 261.863281 28.480469 262.320312 28.339844 262.726562 28.0625 C 263.128906 27.78125 263.441406 27.417969 263.660156 26.972656 C 263.878906 26.527344 263.988281 26.066406 263.988281 25.585938 L 263.988281 24.226562 L 263.109375 24.226562 L 263.109375 25.539062 C 263.109375 25.871094 263.050781 26.199219 262.945312 26.527344 C 262.835938 26.851562 262.664062 27.125 262.429688 27.347656 C 262.199219 27.566406 261.910156 27.675781 261.5625 27.675781 C 260.992188 27.675781 260.589844 27.46875 260.363281 27.046875 C 260.132812 26.628906 260.019531 26.125 260.019531 25.539062 L 260.019531 19.5625 L 263.570312 19.5625 L 263.570312 18.671875 L 260.019531 18.671875 L 260.019531 14.578125 L 259.140625 14.578125 C 259.140625 15.230469 259.027344 15.882812 258.804688 16.539062 C 258.585938 17.195312 258.238281 17.742188 257.757812 18.191406 C 257.28125 18.636719 256.691406 18.859375 255.992188 18.859375 L 255.992188 19.5625 L 258.101562 19.5625 L 258.101562 25.589844 C 258.101562 26.511719 258.40625 27.222656 259.011719 27.726562 "/>
<path style=" stroke:none;fill-rule:nonzero;fill:rgb(100%,100%,100%);fill-opacity:1;" d="M 277.265625 31.800781 L 277.570312 31.800781 L 277.738281 31.699219 L 277.828125 31.523438 L 277.730469 31.257812 C 274.003906 27.757812 272.144531 22.640625 272.144531 15.902344 C 272.144531 14.378906 272.242188 12.917969 272.433594 11.515625 C 272.625 10.113281 272.9375 8.753906 273.371094 7.445312 C 273.804688 6.136719 274.375 4.902344 275.089844 3.742188 C 275.800781 2.582031 276.691406 1.496094 277.761719 0.480469 L 277.828125 0.28125 L 277.746094 0.0859375 L 277.570312 0 L 277.265625 0 L 277.105469 0.0625 C 275.914062 0.964844 274.878906 2.011719 273.992188 3.214844 C 273.101562 4.414062 272.371094 5.703125 271.796875 7.082031 C 271.226562 8.457031 270.800781 9.890625 270.523438 11.382812 C 270.246094 12.875 270.105469 14.378906 270.105469 15.902344 C 270.105469 17.402344 270.246094 18.898438 270.523438 20.386719 C 270.800781 21.878906 271.21875 23.308594 271.78125 24.675781 C 272.34375 26.039062 273.066406 27.328125 273.949219 28.53125 C 274.832031 29.738281 275.882812 30.808594 277.105469 31.738281 Z M 277.265625 31.800781 "/>
<path style=" stroke:none;fill-rule:nonzero;fill:rgb(100%,100%,100%);fill-opacity:1;" d="M 284.183594 23.207031 C 284.929688 23.875 285.929688 24.207031 287.1875 24.207031 C 287.925781 24.207031 288.621094 24.019531 289.285156 23.644531 C 289.945312 23.269531 290.523438 22.769531 291.027344 22.140625 C 291.21875 22.78125 291.589844 23.28125 292.136719 23.652344 C 292.6875 24.023438 293.308594 24.207031 294 24.207031 C 294.703125 24.207031 295.289062 23.945312 295.757812 23.414062 C 296.230469 22.886719 296.574219 22.292969 296.789062 21.640625 C 297.007812 20.984375 297.238281 20.203125 297.46875 19.292969 L 297.390625 19.089844 L 297.183594 18.980469 L 296.78125 18.980469 L 296.527344 19.167969 C 296.28125 20.273438 295.988281 21.246094 295.640625 22.089844 C 295.292969 22.933594 294.769531 23.355469 294.0625 23.355469 C 293.433594 23.355469 293.121094 22.898438 293.121094 21.988281 C 293.121094 21.585938 293.195312 21.070312 293.34375 20.4375 L 295.710938 11.289062 L 295.742188 11.039062 C 295.742188 10.769531 295.644531 10.554688 295.449219 10.386719 C 295.25 10.222656 295.019531 10.140625 294.75 10.140625 C 294.441406 10.140625 294.15625 10.242188 293.890625 10.441406 C 293.621094 10.644531 293.453125 10.886719 293.375 11.164062 L 291.027344 20.375 L 290.988281 20.601562 L 290.929688 20.84375 C 289.875 22.515625 288.648438 23.355469 287.253906 23.355469 C 286.558594 23.355469 286.058594 23.109375 285.75 22.625 C 285.441406 22.136719 285.285156 21.542969 285.285156 20.839844 C 285.285156 20.292969 285.34375 19.746094 285.460938 19.199219 C 285.582031 18.648438 285.730469 18.089844 285.910156 17.523438 C 286.089844 16.953125 286.351562 16.234375 286.695312 15.367188 C 287.035156 14.496094 287.253906 13.933594 287.347656 13.675781 C 287.53125 13.242188 287.621094 12.828125 287.621094 12.433594 C 287.621094 11.667969 287.351562 11.039062 286.8125 10.542969 C 286.273438 10.046875 285.617188 9.796875 284.839844 9.796875 C 283.730469 9.796875 282.8125 10.289062 282.089844 11.261719 C 281.363281 12.242188 280.824219 13.359375 280.472656 14.621094 L 280.472656 14.714844 C 280.472656 14.914062 280.5625 15.011719 280.746094 15.011719 L 281.128906 15.011719 L 281.402344 14.808594 C 281.667969 13.742188 282.082031 12.78125 282.640625 11.917969 C 283.199219 11.050781 283.910156 10.621094 284.773438 10.621094 C 285.253906 10.621094 285.492188 10.9375 285.492188 11.570312 C 285.492188 12.066406 285.351562 12.699219 285.0625 13.480469 C 284.804688 14.140625 284.503906 14.917969 284.160156 15.816406 C 283.8125 16.710938 283.542969 17.523438 283.351562 18.253906 C 283.160156 18.980469 283.0625 19.695312 283.0625 20.386719 C 283.0625 21.601562 283.4375 22.539062 284.183594 23.207031 "/>
<path style=" stroke:none;fill-rule:nonzero;fill:rgb(100%,100%,100%);fill-opacity:1;" d="M 300.96875 31.800781 L 301.128906 31.738281 C 302.347656 30.808594 303.398438 29.746094 304.273438 28.546875 C 305.152344 27.351562 305.878906 26.046875 306.449219 24.636719 C 307.023438 23.222656 307.441406 21.789062 307.703125 20.335938 C 307.964844 18.878906 308.09375 17.402344 308.09375 15.902344 C 308.09375 13.871094 307.851562 11.882812 307.363281 9.9375 C 306.878906 7.992188 306.109375 6.160156 305.0625 4.441406 C 304.011719 2.722656 302.703125 1.261719 301.128906 0.0625 L 300.96875 0 L 300.664062 0 L 300.460938 0.0859375 L 300.375 0.28125 L 300.503906 0.542969 C 304.207031 4.042969 306.054688 9.160156 306.054688 15.902344 C 306.054688 22.640625 304.183594 27.777344 300.4375 31.320312 L 300.375 31.523438 C 300.375 31.707031 300.46875 31.800781 300.664062 31.800781 Z M 300.96875 31.800781 "/>
<path style=" stroke:none;fill-rule:nonzero;fill:rgb(100%,100%,100%);fill-opacity:1;" d="M 487.675781 341.21875 C 488.421875 341.886719 489.421875 342.222656 490.679688 342.222656 C 491.414062 342.222656 492.113281 342.035156 492.777344 341.65625 C 493.4375 341.28125 494.015625 340.78125 494.519531 340.15625 C 494.710938 340.792969 495.082031 341.296875 495.628906 341.667969 C 496.179688 342.035156 496.800781 342.222656 497.492188 342.222656 C 498.195312 342.222656 498.78125 341.957031 499.25 341.425781 C 499.722656 340.898438 500.066406 340.308594 500.28125 339.652344 C 500.5 339 500.726562 338.214844 500.960938 337.304688 L 500.882812 337.101562 L 500.675781 336.992188 L 500.273438 336.992188 L 500.019531 337.179688 C 499.773438 338.285156 499.476562 339.261719 499.128906 340.105469 C 498.785156 340.945312 498.257812 341.367188 497.554688 341.367188 C 496.925781 341.367188 496.613281 340.914062 496.613281 340.003906 C 496.613281 339.597656 496.6875 339.082031 496.835938 338.453125 L 499.203125 329.300781 L 499.234375 329.050781 C 499.234375 328.785156 499.136719 328.566406 498.941406 328.402344 C 498.742188 328.234375 498.507812 328.152344 498.242188 328.152344 C 497.933594 328.152344 497.648438 328.253906 497.378906 328.453125 C 497.113281 328.65625 496.941406 328.898438 496.867188 329.175781 L 494.519531 338.390625 L 494.476562 338.613281 L 494.421875 338.855469 C 493.367188 340.53125 492.140625 341.367188 490.746094 341.367188 C 490.050781 341.367188 489.550781 341.125 489.242188 340.640625 C 488.933594 340.152344 488.777344 339.558594 488.777344 338.855469 C 488.777344 338.304688 488.835938 337.757812 488.953125 337.210938 C 489.070312 336.664062 489.222656 336.105469 489.402344 335.535156 C 489.582031 334.964844 489.84375 334.246094 490.1875 333.378906 C 490.527344 332.511719 490.746094 331.949219 490.839844 331.6875 C 491.023438 331.253906 491.113281 330.839844 491.113281 330.449219 C 491.113281 329.683594 490.84375 329.050781 490.304688 328.554688 C 489.765625 328.058594 489.109375 327.8125 488.332031 327.8125 C 487.222656 327.8125 486.304688 328.300781 485.582031 329.277344 C 484.855469 330.253906 484.316406 331.375 483.964844 332.636719 L 483.964844 332.730469 C 483.964844 332.925781 484.054688 333.023438 484.238281 333.023438 L 484.621094 333.023438 L 484.894531 332.820312 C 485.160156 331.757812 485.570312 330.792969 486.132812 329.929688 C 486.691406 329.066406 487.402344 328.632812 488.265625 328.632812 C 488.746094 328.632812 488.984375 328.949219 488.984375 329.582031 C 488.984375 330.078125 488.84375 330.714844 488.554688 331.492188 C 488.296875 332.152344 487.996094 332.933594 487.652344 333.828125 C 487.304688 334.722656 487.035156 335.535156 486.84375 336.265625 C 486.652344 336.996094 486.554688 337.707031 486.554688 338.402344 C 486.554688 339.613281 486.929688 340.550781 487.675781 341.21875 "/>
<path style=" stroke:none;fill-rule:nonzero;fill:rgb(100%,100%,100%);fill-opacity:1;" d="M 143.078125 35.707031 C 157.328125 105.804688 185.523438 158.296875 219.792969 197.675781 C 271.191406 256.734375 336.324219 286.289062 388.640625 301.074219 C 414.796875 308.464844 437.742188 312.160156 454.132812 314.007812 C 462.332031 314.929688 468.890625 315.394531 473.394531 315.621094 C 475.648438 315.738281 477.386719 315.796875 478.558594 315.824219 C 479.734375 315.855469 480.328125 315.851562 480.328125 315.851562 L 480.328125 318.609375 C 480.214844 318.605469 409.6875 318.613281 331.898438 283.332031 C 293.003906 265.6875 252.289062 239.214844 217.710938 199.484375 C 183.132812 159.757812 154.710938 106.789062 140.375 36.257812 Z M 143.078125 35.707031 "/>
<path style=" stroke:none;fill-rule:nonzero;fill:rgb(100%,100%,100%);fill-opacity:1;" d="M 101.085938 50.757812 L 104.394531 54.988281 L 102.222656 56.683594 L 98.914062 52.457031 "/>
<path style=" stroke:none;fill-rule:nonzero;fill:rgb(100%,100%,100%);fill-opacity:1;" d="M 107.886719 59.214844 L 111.195312 63.441406 L 109.023438 65.140625 L 105.714844 60.914062 "/>
<path style=" stroke:none;fill-rule:nonzero;fill:rgb(100%,100%,100%);fill-opacity:1;" d="M 114.664062 67.640625 L 118.15625 71.871094 L 116.03125 73.625 L 112.539062 69.398438 "/>
<path style=" stroke:none;fill-rule:nonzero;fill:rgb(100%,100%,100%);fill-opacity:1;" d="M 121.46875 76.097656 L 124.960938 80.324219 L 122.835938 82.082031 L 119.34375 77.851562 "/>
<path style=" stroke:none;fill-rule:nonzero;fill:rgb(100%,100%,100%);fill-opacity:1;" d="M 128.269531 84.554688 L 131.761719 88.78125 L 129.636719 90.535156 L 126.144531 86.308594 "/>
<path style=" stroke:none;fill-rule:nonzero;fill:rgb(100%,100%,100%);fill-opacity:1;" d="M 135.070312 93.007812 L 138.5625 97.238281 L 136.4375 98.992188 L 132.945312 94.765625 "/>
<path style=" stroke:none;fill-rule:nonzero;fill:rgb(100%,100%,100%);fill-opacity:1;" d="M 141.871094 101.648438 L 145.363281 105.875 L 143.238281 107.632812 L 139.746094 103.40625 "/>
<path style=" stroke:none;fill-rule:nonzero;fill:rgb(100%,100%,100%);fill-opacity:1;" d="M 148.691406 109.945312 L 152.183594 114.355469 L 150.023438 116.066406 L 146.527344 111.65625 "/>
<path style=" stroke:none;fill-rule:nonzero;fill:rgb(100%,100%,100%);fill-opacity:1;" d="M 155.472656 118.5625 L 158.964844 122.789062 L 156.839844 124.542969 L 153.347656 120.316406 "/>
<path style=" stroke:none;fill-rule:nonzero;fill:rgb(100%,100%,100%);fill-opacity:1;" d="M 162.277344 127.015625 L 165.769531 131.246094 L 163.644531 133 L 160.152344 128.773438 "/>
<path style=" stroke:none;fill-rule:nonzero;fill:rgb(100%,100%,100%);fill-opacity:1;" d="M 169.285156 135.5 L 172.59375 139.730469 L 170.421875 141.425781 L 167.113281 137.199219 "/>
<path style=" stroke:none;fill-rule:nonzero;fill:rgb(100%,100%,100%);fill-opacity:1;" d="M 176.085938 143.957031 L 179.394531 148.183594 L 177.222656 149.882812 L 173.914062 145.65625 "/>
<path style=" stroke:none;fill-rule:nonzero;fill:rgb(100%,100%,100%);fill-opacity:1;" d="M 182.886719 152.414062 L 186.195312 156.640625 L 184.023438 158.339844 L 180.714844 154.109375 "/>
<path style=" stroke:none;fill-rule:nonzero;fill:rgb(100%,100%,100%);fill-opacity:1;" d="M 189.6875 160.867188 L 192.996094 165.097656 L 190.824219 166.792969 L 187.515625 162.566406 "/>
<path style=" stroke:none;fill-rule:nonzero;fill:rgb(100%,100%,100%);fill-opacity:1;" d="M 196.464844 169.480469 L 199.960938 173.707031 L 197.835938 175.460938 L 194.339844 171.234375 "/>
<path style=" stroke:none;fill-rule:nonzero;fill:rgb(100%,100%,100%);fill-opacity:1;" d="M 203.289062 177.964844 L 206.597656 182.191406 L 204.429688 183.890625 L 201.121094 179.664062 "/>
<path style=" stroke:none;fill-rule:nonzero;fill:rgb(100%,100%,100%);fill-opacity:1;" d="M 210.070312 186.390625 L 213.5625 190.621094 L 211.4375 192.375 L 207.945312 188.148438 "/>
<path style=" stroke:none;fill-rule:nonzero;fill:rgb(100%,100%,100%);fill-opacity:1;" d="M 216.871094 194.847656 L 220.363281 199.074219 L 218.238281 200.832031 L 214.746094 196.601562 "/>
<path style=" stroke:none;fill-rule:nonzero;fill:rgb(100%,100%,100%);fill-opacity:1;" d="M 223.671875 203.304688 L 227.164062 207.53125 L 225.039062 209.285156 L 221.546875 205.058594 "/>
<path style=" stroke:none;fill-rule:nonzero;fill:rgb(100%,100%,100%);fill-opacity:1;" d="M 230.472656 211.757812 L 233.964844 215.988281 L 231.839844 217.742188 L 228.347656 213.515625 "/>
<path style=" stroke:none;fill-rule:nonzero;fill:rgb(100%,100%,100%);fill-opacity:1;" d="M 237.273438 220.398438 L 240.769531 224.625 L 238.644531 226.382812 L 235.148438 222.152344 "/>
<path style=" stroke:none;fill-rule:nonzero;fill:rgb(100%,100%,100%);fill-opacity:1;" d="M 244.28125 228.882812 L 247.59375 233.109375 L 245.421875 234.808594 L 242.113281 230.582031 "/>
<path style=" stroke:none;fill-rule:nonzero;fill:rgb(100%,100%,100%);fill-opacity:1;" d="M 251.085938 237.339844 L 254.394531 241.566406 L 252.222656 243.265625 L 248.914062 239.035156 "/>
<path style=" stroke:none;fill-rule:nonzero;fill:rgb(100%,100%,100%);fill-opacity:1;" d="M 257.886719 245.792969 L 261.195312 250.023438 L 259.023438 251.722656 L 255.714844 247.492188 "/>
<path style=" stroke:none;fill-rule:nonzero;fill:rgb(100%,100%,100%);fill-opacity:1;" d="M 264.6875 254.25 L 267.996094 258.476562 L 265.824219 260.175781 L 262.515625 255.949219 "/>
<path style=" stroke:none;fill-rule:nonzero;fill:rgb(100%,100%,100%);fill-opacity:1;" d="M 271.488281 262.707031 L 274.796875 266.933594 L 272.625 268.632812 L 269.316406 264.40625 "/>
<path style=" stroke:none;fill-rule:nonzero;fill:rgb(100%,100%,100%);fill-opacity:1;" d="M 278.289062 271.160156 L 281.597656 275.390625 L 279.429688 277.089844 L 276.121094 272.859375 "/>
<path style=" stroke:none;fill-rule:nonzero;fill:rgb(100%,100%,100%);fill-opacity:1;" d="M 285.089844 279.617188 L 288.402344 283.84375 L 286.230469 285.542969 L 282.921875 281.316406 "/>
<path style=" stroke:none;fill-rule:nonzero;fill:rgb(100%,100%,100%);fill-opacity:1;" d="M 291.871094 288.230469 L 295.363281 292.457031 L 293.238281 294.210938 L 289.746094 289.984375 "/>
<path style=" stroke:none;fill-rule:nonzero;fill:rgb(100%,100%,100%);fill-opacity:1;" d="M 298.671875 296.683594 L 302.164062 300.914062 L 300.039062 302.667969 L 296.546875 298.441406 "/>
<path style=" stroke:none;fill-rule:nonzero;fill:rgb(100%,100%,100%);fill-opacity:1;" d="M 305.472656 305.140625 L 308.964844 309.367188 L 306.839844 311.125 L 303.347656 306.894531 "/>
<path style=" stroke:none;fill-rule:nonzero;fill:rgb(100%,100%,100%);fill-opacity:1;" d="M 312.273438 313.597656 L 315.765625 317.824219 L 313.640625 319.578125 L 310.148438 315.351562 "/>
<path style=" stroke:none;fill-rule:nonzero;fill:rgb(100%,100%,100%);fill-opacity:1;" d="M 319.074219 322.050781 L 322.570312 326.28125 L 320.445312 328.035156 L 316.949219 323.808594 "/>
<path style=" stroke:none;fill-rule:evenodd;fill:rgb(0%,0%,0%);fill-opacity:1;" d="M 211.949219 181.753906 C 216.359375 181.753906 219.851562 185.246094 219.851562 189.660156 C 219.851562 194.070312 216.359375 197.378906 211.949219 197.378906 C 207.535156 197.378906 204.226562 194.070312 204.226562 189.660156 C 204.226562 185.246094 207.535156 181.753906 211.949219 181.753906 "/>
<path style=" stroke:none;fill-rule:nonzero;fill:rgb(100%,100%,100%);fill-opacity:1;" d="M 211.949219 181.753906 L 211.949219 180.375 C 214.519531 180.375 216.855469 181.402344 218.527344 183.078125 C 220.203125 184.75 221.234375 187.085938 221.230469 189.660156 C 221.234375 192.230469 220.199219 194.539062 218.515625 196.164062 C 216.828125 197.796875 214.5 198.761719 211.949219 198.757812 C 209.394531 198.761719 207.09375 197.789062 205.457031 196.148438 C 203.816406 194.511719 202.84375 192.210938 202.847656 189.660156 C 202.847656 187.109375 203.8125 184.777344 205.441406 183.09375 C 207.070312 181.40625 209.375 180.371094 211.949219 180.375 L 211.949219 183.132812 C 210.109375 183.136719 208.554688 183.847656 207.421875 185.011719 C 206.296875 186.175781 205.609375 187.796875 205.605469 189.660156 C 205.609375 191.519531 206.292969 193.078125 207.40625 194.199219 C 208.527344 195.316406 210.085938 195.996094 211.949219 196 C 213.808594 196 215.429688 195.308594 216.59375 194.183594 C 217.757812 193.050781 218.46875 191.5 218.472656 189.660156 C 218.460938 185.996094 215.609375 183.144531 211.949219 183.132812 Z M 211.949219 181.753906 "/>
<path style=" stroke:none;fill-rule:nonzero;fill:rgb(100%,100%,100%);fill-opacity:1;" d="M 237.105469 172.097656 C 237.453125 171.71875 237.628906 171.304688 237.628906 170.847656 C 237.628906 170.507812 237.503906 170.230469 237.257812 170.015625 C 237.011719 169.804688 236.707031 169.699219 236.34375 169.699219 C 235.796875 169.699219 235.34375 169.898438 234.984375 170.296875 C 234.625 170.695312 234.445312 171.164062 234.445312 171.703125 C 234.445312 172.375 234.734375 172.914062 235.316406 173.324219 C 235.898438 173.734375 236.558594 173.9375 237.292969 173.9375 C 238.253906 173.9375 239.085938 173.523438 239.789062 172.695312 C 240.492188 171.867188 241.070312 170.839844 241.523438 169.613281 C 241.976562 168.386719 242.328125 167.191406 242.578125 166.027344 C 242.832031 164.863281 243.050781 163.714844 243.242188 162.585938 L 244.765625 154.824219 L 248.265625 154.824219 L 248.484375 154.707031 L 248.617188 154.394531 L 248.683594 154.125 C 248.683594 153.84375 248.574219 153.703125 248.359375 153.703125 L 244.984375 153.703125 L 245.382812 151.605469 C 245.855469 149.226562 246.15625 147.765625 246.296875 147.226562 C 246.382812 146.886719 246.570312 146.566406 246.863281 146.265625 C 247.160156 145.964844 247.472656 145.8125 247.800781 145.8125 C 248.402344 145.8125 248.902344 145.964844 249.308594 146.261719 C 248.828125 146.316406 248.421875 146.511719 248.09375 146.859375 C 247.769531 147.203125 247.605469 147.609375 247.605469 148.074219 C 247.605469 148.414062 247.730469 148.691406 247.984375 148.898438 C 248.234375 149.113281 248.539062 149.21875 248.890625 149.21875 C 249.417969 149.21875 249.863281 149.019531 250.234375 148.621094 C 250.601562 148.226562 250.789062 147.757812 250.789062 147.222656 C 250.789062 146.757812 250.640625 146.355469 250.355469 146.015625 C 250.066406 145.675781 249.695312 145.417969 249.242188 145.25 C 248.789062 145.078125 248.324219 144.992188 247.84375 144.992188 C 247.105469 144.992188 246.421875 145.21875 245.785156 145.667969 C 245.152344 146.121094 244.644531 146.691406 244.273438 147.386719 C 244.027344 147.871094 243.84375 148.3125 243.722656 148.703125 C 243.597656 149.097656 243.484375 149.527344 243.378906 149.984375 C 243.269531 150.449219 243.152344 151 243.023438 151.640625 L 242.640625 153.703125 L 239.722656 153.703125 C 239.53125 153.703125 239.390625 153.9375 239.308594 154.402344 C 239.308594 154.683594 239.414062 154.824219 239.625 154.824219 L 242.433594 154.824219 L 240.929688 162.617188 C 240.023438 167.132812 239.46875 169.792969 239.265625 170.601562 C 238.777344 172.277344 238.140625 173.113281 237.363281 173.113281 C 236.789062 173.113281 236.296875 172.964844 235.890625 172.664062 C 236.355469 172.664062 236.757812 172.476562 237.105469 172.097656 "/>
<path style=" stroke:none;fill-rule:nonzero;fill:rgb(100%,100%,100%);fill-opacity:1;" d="M 250.214844 169.644531 C 250.746094 170.390625 251.453125 170.976562 252.335938 171.40625 C 253.21875 171.832031 254.136719 172.046875 255.082031 172.046875 C 255.792969 172.046875 256.484375 171.925781 257.167969 171.683594 C 257.847656 171.4375 258.457031 171.097656 258.996094 170.660156 C 259.53125 170.222656 259.957031 169.703125 260.269531 169.101562 C 260.582031 168.5 260.738281 167.839844 260.738281 167.113281 C 260.738281 166.15625 260.480469 165.28125 259.964844 164.480469 C 259.449219 163.679688 258.75 163.054688 257.871094 162.597656 C 256.992188 162.140625 256.0625 161.910156 255.082031 161.910156 C 254.355469 161.910156 253.640625 162.042969 252.941406 162.308594 C 252.238281 162.574219 251.625 162.941406 251.101562 163.417969 C 250.574219 163.890625 250.160156 164.445312 249.867188 165.078125 C 249.566406 165.710938 249.417969 166.390625 249.417969 167.113281 C 249.417969 168.054688 249.683594 168.898438 250.214844 169.644531 M 252.359375 170.042969 C 251.863281 169.246094 251.617188 168.179688 251.617188 166.84375 C 251.617188 164.035156 252.773438 162.628906 255.082031 162.628906 C 256.359375 162.628906 257.253906 163.007812 257.769531 163.765625 C 258.28125 164.527344 258.539062 165.550781 258.539062 166.84375 C 258.539062 168.179688 258.292969 169.246094 257.800781 170.042969 C 257.3125 170.84375 256.40625 171.242188 255.082031 171.242188 C 253.765625 171.242188 252.855469 170.84375 252.359375 170.042969 "/>
<path style=" stroke:none;fill-rule:nonzero;fill:rgb(100%,100%,100%);fill-opacity:1;" d="M 268.039062 176.140625 L 268.039062 175.25 C 267.542969 175.25 267.132812 175.210938 266.804688 175.132812 C 266.480469 175.058594 266.316406 174.875 266.316406 174.582031 L 266.316406 170.816406 C 266.726562 171.207031 267.207031 171.507812 267.753906 171.722656 C 268.296875 171.9375 268.863281 172.046875 269.449219 172.046875 C 270.425781 172.046875 271.347656 171.828125 272.210938 171.398438 C 273.074219 170.96875 273.769531 170.367188 274.296875 169.59375 C 274.824219 168.824219 275.085938 167.96875 275.085938 167.027344 C 275.085938 166.136719 274.851562 165.308594 274.382812 164.535156 C 273.910156 163.765625 273.277344 163.152344 272.476562 162.699219 C 271.675781 162.25 270.804688 162.019531 269.867188 162.019531 C 269.191406 162.019531 268.535156 162.128906 267.902344 162.347656 C 267.273438 162.566406 266.710938 162.886719 266.226562 163.3125 L 266.226562 162.019531 L 262.660156 162.257812 L 262.660156 163.152344 C 263.21875 163.152344 263.644531 163.191406 263.949219 163.28125 C 264.246094 163.367188 264.398438 163.59375 264.398438 163.953125 L 264.398438 174.585938 C 264.398438 174.882812 264.234375 175.066406 263.90625 175.140625 C 263.578125 175.214844 263.164062 175.25 262.660156 175.25 L 262.660156 176.140625 Z M 266.316406 164.417969 C 266.660156 163.90625 267.125 163.511719 267.714844 163.238281 C 268.304688 162.960938 268.921875 162.824219 269.566406 162.824219 C 270.078125 162.824219 270.546875 162.949219 270.972656 163.203125 C 271.402344 163.457031 271.757812 163.792969 272.039062 164.214844 C 272.320312 164.632812 272.53125 165.085938 272.671875 165.566406 C 272.816406 166.054688 272.886719 166.539062 272.886719 167.023438 C 272.886719 167.695312 272.742188 168.367188 272.449219 169.039062 C 272.15625 169.714844 271.730469 170.261719 271.175781 170.6875 C 270.621094 171.117188 269.984375 171.328125 269.261719 171.328125 C 268.65625 171.328125 268.085938 171.160156 267.550781 170.828125 C 267.019531 170.496094 266.605469 170.0625 266.316406 169.527344 Z M 266.316406 164.417969 "/>
<path style=" stroke:none;fill-rule:nonzero;fill:rgb(100%,100%,100%);fill-opacity:1;" d="M 279.78125 171.289062 C 280.386719 171.792969 281.167969 172.046875 282.132812 172.046875 C 282.636719 172.046875 283.089844 171.90625 283.496094 171.625 C 283.902344 171.347656 284.214844 170.984375 284.433594 170.539062 C 284.652344 170.09375 284.761719 169.628906 284.761719 169.152344 L 284.761719 167.792969 L 283.878906 167.792969 L 283.878906 169.105469 C 283.878906 169.4375 283.824219 169.765625 283.71875 170.09375 C 283.605469 170.417969 283.4375 170.6875 283.203125 170.910156 C 282.972656 171.128906 282.679688 171.242188 282.335938 171.242188 C 281.761719 171.242188 281.363281 171.03125 281.136719 170.613281 C 280.90625 170.191406 280.792969 169.691406 280.792969 169.105469 L 280.792969 163.128906 L 284.34375 163.128906 L 284.34375 162.238281 L 280.792969 162.238281 L 280.792969 158.144531 L 279.914062 158.144531 C 279.914062 158.796875 279.800781 159.449219 279.578125 160.105469 C 279.355469 160.757812 279.007812 161.308594 278.53125 161.753906 C 278.050781 162.199219 277.464844 162.421875 276.765625 162.421875 L 276.765625 163.128906 L 278.875 163.128906 L 278.875 169.15625 C 278.875 170.074219 279.175781 170.785156 279.78125 171.289062 "/>
<path style=" stroke:none;fill-rule:nonzero;fill:rgb(100%,100%,100%);fill-opacity:1;" d="M 298.21875 175.367188 L 298.527344 175.367188 L 298.695312 175.265625 L 298.78125 175.085938 L 298.683594 174.824219 C 294.960938 171.324219 293.097656 166.207031 293.097656 159.464844 C 293.097656 157.945312 293.195312 156.484375 293.386719 155.082031 C 293.582031 153.675781 293.894531 152.320312 294.328125 151.011719 C 294.761719 149.703125 295.332031 148.46875 296.046875 147.308594 C 296.757812 146.148438 297.648438 145.0625 298.71875 144.046875 L 298.78125 143.84375 L 298.703125 143.648438 L 298.527344 143.566406 L 298.21875 143.566406 L 298.058594 143.628906 C 296.871094 144.527344 295.835938 145.578125 294.945312 146.78125 C 294.058594 147.980469 293.328125 149.269531 292.753906 150.644531 C 292.183594 152.023438 291.757812 153.457031 291.476562 154.949219 C 291.199219 156.4375 291.058594 157.945312 291.058594 159.464844 C 291.058594 160.96875 291.199219 162.460938 291.476562 163.953125 C 291.757812 165.445312 292.175781 166.871094 292.738281 168.238281 C 293.300781 169.605469 294.023438 170.890625 294.90625 172.097656 C 295.789062 173.304688 296.839844 174.371094 298.058594 175.304688 Z M 298.21875 175.367188 "/>
<path style=" stroke:none;fill-rule:nonzero;fill:rgb(100%,100%,100%);fill-opacity:1;" d="M 304.957031 166.773438 C 305.703125 167.4375 306.703125 167.773438 307.960938 167.773438 C 308.695312 167.773438 309.394531 167.585938 310.054688 167.210938 C 310.714844 166.835938 311.296875 166.335938 311.800781 165.707031 C 311.988281 166.34375 312.363281 166.847656 312.910156 167.21875 C 313.457031 167.589844 314.082031 167.773438 314.773438 167.773438 C 315.476562 167.773438 316.0625 167.507812 316.53125 166.980469 C 317 166.449219 317.34375 165.859375 317.5625 165.207031 C 317.78125 164.550781 318.007812 163.769531 318.242188 162.855469 L 318.164062 162.65625 L 317.957031 162.546875 L 317.554688 162.546875 L 317.300781 162.730469 C 317.054688 163.839844 316.757812 164.8125 316.410156 165.65625 C 316.066406 166.496094 315.539062 166.917969 314.835938 166.917969 C 314.207031 166.917969 313.894531 166.464844 313.894531 165.554688 C 313.894531 165.152344 313.96875 164.632812 314.117188 164.003906 L 316.484375 154.851562 L 316.515625 154.605469 C 316.515625 154.335938 316.417969 154.121094 316.21875 153.953125 C 316.019531 153.789062 315.789062 153.707031 315.523438 153.707031 C 315.214844 153.707031 314.925781 153.808594 314.660156 154.007812 C 314.394531 154.210938 314.222656 154.449219 314.148438 154.726562 L 311.800781 163.941406 L 311.757812 164.167969 L 311.703125 164.40625 C 310.648438 166.082031 309.421875 166.917969 308.023438 166.917969 C 307.332031 166.917969 306.832031 166.675781 306.519531 166.191406 C 306.210938 165.703125 306.058594 165.109375 306.058594 164.40625 C 306.058594 163.859375 306.117188 163.308594 306.234375 162.761719 C 306.351562 162.214844 306.5 161.65625 306.679688 161.089844 C 306.863281 160.519531 307.125 159.800781 307.464844 158.933594 C 307.804688 158.0625 308.023438 157.5 308.121094 157.242188 C 308.300781 156.808594 308.394531 156.394531 308.394531 156 C 308.394531 155.234375 308.125 154.605469 307.585938 154.109375 C 307.046875 153.613281 306.390625 153.363281 305.613281 153.363281 C 304.5 153.363281 303.585938 153.851562 302.863281 154.828125 C 302.136719 155.808594 301.597656 156.925781 301.246094 158.1875 L 301.246094 158.28125 C 301.246094 158.476562 301.335938 158.574219 301.519531 158.574219 L 301.902344 158.574219 L 302.175781 158.375 C 302.4375 157.308594 302.851562 156.34375 303.414062 155.480469 C 303.972656 154.617188 304.683594 154.1875 305.546875 154.1875 C 306.027344 154.1875 306.265625 154.5 306.265625 155.132812 C 306.265625 155.628906 306.121094 156.265625 305.832031 157.042969 C 305.578125 157.707031 305.277344 158.484375 304.929688 159.378906 C 304.582031 160.277344 304.316406 161.089844 304.125 161.816406 C 303.929688 162.546875 303.835938 163.261719 303.835938 163.953125 C 303.835938 165.164062 304.207031 166.105469 304.957031 166.773438 "/>
<path style=" stroke:none;fill-rule:nonzero;fill:rgb(100%,100%,100%);fill-opacity:1;" d="M 321.738281 175.367188 L 321.898438 175.304688 C 323.121094 174.371094 324.171875 173.308594 325.046875 172.113281 C 325.925781 170.917969 326.648438 169.613281 327.222656 168.203125 C 327.796875 166.789062 328.210938 165.355469 328.472656 163.898438 C 328.738281 162.445312 328.867188 160.96875 328.867188 159.464844 C 328.867188 157.4375 328.625 155.449219 328.136719 153.503906 C 327.648438 151.558594 326.882812 149.726562 325.832031 148.007812 C 324.785156 146.289062 323.472656 144.828125 321.898438 143.628906 L 321.738281 143.566406 L 321.433594 143.566406 L 321.234375 143.648438 L 321.144531 143.84375 L 321.273438 144.109375 C 324.976562 147.609375 326.828125 152.726562 326.828125 159.464844 C 326.828125 166.207031 324.957031 171.34375 321.210938 174.886719 L 321.144531 175.085938 C 321.144531 175.273438 321.242188 175.367188 321.433594 175.367188 Z M 321.738281 175.367188 "/>
<path style=" stroke:none;fill-rule:nonzero;fill:rgb(100%,100%,100%);fill-opacity:1;" d="M 214.128906 357.757812 C 214.476562 357.378906 214.648438 356.964844 214.648438 356.507812 C 214.648438 356.167969 214.527344 355.890625 214.28125 355.679688 C 214.035156 355.464844 213.730469 355.359375 213.363281 355.359375 C 212.820312 355.359375 212.363281 355.558594 212.007812 355.957031 C 211.648438 356.355469 211.46875 356.824219 211.46875 357.363281 C 211.46875 358.035156 211.757812 358.578125 212.339844 358.984375 C 212.921875 359.394531 213.582031 359.597656 214.316406 359.597656 C 215.273438 359.597656 216.109375 359.183594 216.8125 358.355469 C 217.515625 357.527344 218.09375 356.5 218.546875 355.273438 C 219 354.046875 219.351562 352.851562 219.601562 351.6875 C 219.855469 350.523438 220.074219 349.375 220.265625 348.246094 L 221.785156 340.484375 L 225.289062 340.484375 L 225.503906 340.367188 L 225.640625 340.058594 L 225.703125 339.785156 C 225.703125 339.503906 225.597656 339.367188 225.382812 339.367188 L 222.003906 339.367188 L 222.40625 337.269531 C 222.875 334.886719 223.179688 333.425781 223.320312 332.886719 C 223.402344 332.546875 223.59375 332.226562 223.886719 331.925781 C 224.179688 331.625 224.492188 331.472656 224.824219 331.472656 C 225.425781 331.472656 225.925781 331.625 226.328125 331.921875 C 225.847656 331.976562 225.445312 332.175781 225.117188 332.519531 C 224.792969 332.863281 224.628906 333.269531 224.628906 333.734375 C 224.628906 334.074219 224.753906 334.351562 225.003906 334.558594 C 225.257812 334.773438 225.558594 334.878906 225.914062 334.878906 C 226.4375 334.878906 226.886719 334.679688 227.253906 334.28125 C 227.625 333.886719 227.808594 333.417969 227.808594 332.882812 C 227.808594 332.417969 227.664062 332.015625 227.378906 331.675781 C 227.089844 331.335938 226.71875 331.082031 226.265625 330.910156 C 225.8125 330.742188 225.34375 330.652344 224.863281 330.652344 C 224.128906 330.652344 223.441406 330.878906 222.808594 331.332031 C 222.175781 331.78125 221.667969 332.351562 221.296875 333.046875 C 221.050781 333.53125 220.863281 333.972656 220.742188 334.367188 C 220.621094 334.757812 220.507812 335.1875 220.398438 335.648438 C 220.292969 336.109375 220.175781 336.660156 220.046875 337.300781 L 219.664062 339.367188 L 216.742188 339.367188 C 216.550781 339.367188 216.414062 339.597656 216.332031 340.0625 C 216.332031 340.34375 216.433594 340.484375 216.648438 340.484375 L 219.457031 340.484375 L 217.953125 348.277344 C 217.046875 352.792969 216.492188 355.453125 216.289062 356.261719 C 215.800781 357.9375 215.164062 358.777344 214.386719 358.777344 C 213.808594 358.777344 213.320312 358.625 212.914062 358.324219 C 213.375 358.324219 213.78125 358.136719 214.128906 357.757812 "/>
<path style=" stroke:none;fill-rule:nonzero;fill:rgb(100%,100%,100%);fill-opacity:1;" d="M 227.40625 355.289062 C 227.933594 356.039062 228.632812 356.632812 229.507812 357.0625 C 230.386719 357.492188 231.292969 357.707031 232.234375 357.707031 C 232.933594 357.707031 233.621094 357.585938 234.300781 357.339844 C 234.972656 357.097656 235.578125 356.753906 236.113281 356.3125 C 236.644531 355.871094 237.066406 355.347656 237.375 354.738281 C 237.683594 354.136719 237.839844 353.464844 237.839844 352.738281 C 237.839844 351.773438 237.585938 350.886719 237.074219 350.082031 C 236.5625 349.273438 235.871094 348.640625 234.996094 348.179688 C 234.125 347.722656 233.203125 347.492188 232.234375 347.492188 C 231.511719 347.492188 230.800781 347.625 230.109375 347.890625 C 229.414062 348.15625 228.808594 348.53125 228.285156 349.007812 C 227.761719 349.488281 227.355469 350.046875 227.058594 350.683594 C 226.765625 351.324219 226.617188 352.007812 226.617188 352.738281 C 226.617188 353.683594 226.878906 354.535156 227.40625 355.289062 M 229.53125 355.691406 C 229.042969 354.886719 228.796875 353.808594 228.796875 352.460938 C 228.796875 349.628906 229.941406 348.214844 232.234375 348.214844 C 233.5 348.214844 234.386719 348.597656 234.898438 349.363281 C 235.40625 350.125 235.660156 351.160156 235.660156 352.460938 C 235.660156 353.808594 235.417969 354.886719 234.929688 355.691406 C 234.441406 356.496094 233.542969 356.898438 232.234375 356.898438 C 230.925781 356.898438 230.023438 356.496094 229.53125 355.691406 "/>
<path style=" stroke:none;fill-rule:nonzero;fill:rgb(100%,100%,100%);fill-opacity:1;" d="M 245.191406 361.835938 L 245.191406 360.9375 C 244.699219 360.9375 244.289062 360.898438 243.964844 360.820312 C 243.640625 360.746094 243.480469 360.5625 243.480469 360.265625 L 243.480469 356.46875 C 243.890625 356.859375 244.363281 357.164062 244.90625 357.382812 C 245.445312 357.597656 246.007812 357.707031 246.585938 357.707031 C 247.554688 357.707031 248.46875 357.492188 249.328125 357.058594 C 250.183594 356.625 250.871094 356.015625 251.394531 355.238281 C 251.917969 354.460938 252.175781 353.597656 252.175781 352.648438 C 252.175781 351.75 251.945312 350.914062 251.480469 350.136719 C 251.011719 349.359375 250.382812 348.742188 249.589844 348.285156 C 248.796875 347.828125 247.933594 347.601562 247 347.601562 C 246.328125 347.601562 245.683594 347.710938 245.054688 347.929688 C 244.429688 348.148438 243.875 348.472656 243.390625 348.90625 L 243.390625 347.601562 L 239.859375 347.84375 L 239.859375 348.738281 C 240.410156 348.738281 240.832031 348.78125 241.132812 348.871094 C 241.429688 348.957031 241.578125 349.183594 241.578125 349.550781 L 241.578125 360.269531 C 241.578125 360.570312 241.417969 360.753906 241.09375 360.828125 C 240.769531 360.902344 240.359375 360.9375 239.859375 360.9375 L 239.859375 361.835938 Z M 243.480469 350.019531 C 243.824219 349.5 244.285156 349.105469 244.867188 348.828125 C 245.453125 348.550781 246.066406 348.410156 246.703125 348.410156 C 247.210938 348.410156 247.675781 348.539062 248.101562 348.792969 C 248.523438 349.050781 248.875 349.386719 249.152344 349.8125 C 249.433594 350.234375 249.640625 350.6875 249.785156 351.179688 C 249.925781 351.667969 249.996094 352.15625 249.996094 352.644531 C 249.996094 353.320312 249.851562 354 249.5625 354.679688 C 249.269531 355.355469 248.851562 355.910156 248.300781 356.339844 C 247.75 356.769531 247.117188 356.984375 246.402344 356.984375 C 245.800781 356.984375 245.234375 356.816406 244.707031 356.480469 C 244.179688 356.148438 243.769531 355.710938 243.480469 355.167969 Z M 243.480469 350.019531 "/>
<path style=" stroke:none;fill-rule:nonzero;fill:rgb(100%,100%,100%);fill-opacity:1;" d="M 256.957031 356.945312 C 257.554688 357.453125 258.332031 357.707031 259.289062 357.707031 C 259.785156 357.707031 260.238281 357.566406 260.640625 357.285156 C 261.042969 357.003906 261.351562 356.636719 261.566406 356.191406 C 261.785156 355.738281 261.890625 355.273438 261.890625 354.789062 L 261.890625 353.417969 L 261.019531 353.417969 L 261.019531 354.742188 C 261.019531 355.078125 260.964844 355.410156 260.859375 355.738281 C 260.75 356.066406 260.578125 356.34375 260.351562 356.566406 C 260.117188 356.785156 259.832031 356.898438 259.488281 356.898438 C 258.921875 356.898438 258.523438 356.6875 258.296875 356.261719 C 258.070312 355.839844 257.957031 355.335938 257.957031 354.742188 L 257.957031 348.71875 L 261.480469 348.71875 L 261.480469 347.820312 L 257.957031 347.820312 L 257.957031 343.691406 L 257.085938 343.691406 C 257.085938 344.347656 256.976562 345.007812 256.757812 345.667969 C 256.535156 346.328125 256.1875 346.882812 255.714844 347.332031 C 255.242188 347.78125 254.660156 348.003906 253.964844 348.003906 L 253.964844 348.71875 L 256.054688 348.71875 L 256.054688 354.792969 C 256.054688 355.722656 256.359375 356.441406 256.957031 356.945312 "/>
<path style=" stroke:none;fill-rule:nonzero;fill:rgb(100%,100%,100%);fill-opacity:1;" d="M 275.390625 361.027344 L 275.695312 361.027344 L 275.863281 360.925781 L 275.953125 360.75 L 275.855469 360.484375 C 272.144531 356.984375 270.289062 351.867188 270.289062 345.128906 C 270.289062 343.605469 270.386719 342.144531 270.578125 340.742188 C 270.765625 339.339844 271.078125 337.980469 271.511719 336.671875 C 271.945312 335.363281 272.515625 334.128906 273.226562 332.96875 C 273.933594 331.808594 274.820312 330.722656 275.886719 329.707031 L 275.953125 329.503906 L 275.871094 329.3125 L 275.695312 329.226562 L 275.390625 329.226562 L 275.230469 329.289062 C 274.046875 330.191406 273.011719 331.238281 272.128906 332.441406 C 271.242188 333.640625 270.515625 334.929688 269.945312 336.308594 C 269.375 337.683594 268.949219 339.117188 268.671875 340.609375 C 268.394531 342.097656 268.257812 343.605469 268.257812 345.128906 C 268.257812 346.628906 268.394531 348.125 268.671875 349.613281 C 268.949219 351.105469 269.367188 352.53125 269.929688 353.902344 C 270.488281 355.265625 271.207031 356.554688 272.089844 357.757812 C 272.96875 358.964844 274.015625 360.03125 275.230469 360.964844 Z M 275.390625 361.027344 "/>
<path style=" stroke:none;fill-rule:nonzero;fill:rgb(100%,100%,100%);fill-opacity:1;" d="M 282.160156 352.433594 C 282.90625 353.101562 283.910156 353.433594 285.167969 353.433594 C 285.902344 353.433594 286.601562 353.246094 287.261719 352.871094 C 287.921875 352.496094 288.503906 351.996094 289.003906 351.367188 C 289.195312 352.007812 289.566406 352.507812 290.113281 352.878906 C 290.664062 353.25 291.285156 353.433594 291.980469 353.433594 C 292.679688 353.433594 293.269531 353.167969 293.738281 352.640625 C 294.207031 352.109375 294.550781 351.519531 294.769531 350.867188 C 294.988281 350.210938 295.214844 349.429688 295.449219 348.515625 L 295.367188 348.316406 L 295.160156 348.207031 L 294.761719 348.207031 L 294.503906 348.390625 C 294.261719 349.5 293.964844 350.472656 293.617188 351.316406 C 293.269531 352.160156 292.746094 352.578125 292.042969 352.578125 C 291.414062 352.578125 291.097656 352.125 291.097656 351.214844 C 291.097656 350.8125 291.175781 350.296875 291.324219 349.664062 L 293.6875 340.515625 L 293.722656 340.265625 C 293.722656 339.996094 293.621094 339.78125 293.425781 339.613281 C 293.226562 339.449219 292.996094 339.367188 292.730469 339.367188 C 292.421875 339.367188 292.132812 339.46875 291.867188 339.667969 C 291.601562 339.871094 291.429688 340.109375 291.355469 340.390625 L 289.003906 349.601562 L 288.964844 349.828125 L 288.910156 350.070312 C 287.855469 351.742188 286.628906 352.578125 285.230469 352.578125 C 284.539062 352.578125 284.039062 352.335938 283.726562 351.851562 C 283.417969 351.363281 283.265625 350.769531 283.265625 350.066406 C 283.265625 349.519531 283.324219 348.972656 283.441406 348.421875 C 283.558594 347.875 283.707031 347.316406 283.886719 346.75 C 284.070312 346.179688 284.332031 345.460938 284.671875 344.59375 C 285.011719 343.722656 285.230469 343.160156 285.328125 342.902344 C 285.507812 342.46875 285.597656 342.054688 285.597656 341.660156 C 285.597656 340.894531 285.332031 340.265625 284.792969 339.769531 C 284.253906 339.273438 283.59375 339.023438 282.816406 339.023438 C 281.707031 339.023438 280.792969 339.515625 280.066406 340.488281 C 279.339844 341.46875 278.804688 342.585938 278.453125 343.847656 L 278.453125 343.941406 C 278.453125 344.140625 278.542969 344.234375 278.722656 344.234375 L 279.109375 344.234375 L 279.378906 344.035156 C 279.644531 342.96875 280.058594 342.007812 280.617188 341.140625 C 281.179688 340.277344 281.890625 339.847656 282.753906 339.847656 C 283.234375 339.847656 283.472656 340.164062 283.472656 340.796875 C 283.472656 341.292969 283.328125 341.925781 283.039062 342.703125 C 282.785156 343.367188 282.484375 344.144531 282.136719 345.042969 C 281.789062 345.9375 281.523438 346.75 281.332031 347.480469 C 281.136719 348.207031 281.042969 348.921875 281.042969 349.613281 C 281.042969 350.824219 281.414062 351.765625 282.160156 352.433594 "/>
<path style=" stroke:none;fill-rule:nonzero;fill:rgb(100%,100%,100%);fill-opacity:1;" d="M 298.9375 361.027344 L 299.097656 360.964844 C 300.316406 360.03125 301.359375 358.96875 302.234375 357.773438 C 303.109375 356.578125 303.832031 355.273438 304.402344 353.863281 C 304.972656 352.449219 305.386719 351.015625 305.648438 349.5625 C 305.910156 348.105469 306.042969 346.628906 306.042969 345.128906 C 306.042969 343.097656 305.800781 341.109375 305.316406 339.164062 C 304.828125 337.21875 304.0625 335.386719 303.019531 333.667969 C 301.972656 331.949219 300.664062 330.488281 299.097656 329.289062 L 298.9375 329.226562 L 298.632812 329.226562 L 298.433594 329.3125 L 298.347656 329.503906 L 298.476562 329.769531 C 302.164062 333.269531 304.007812 338.386719 304.007812 345.128906 C 304.007812 351.867188 302.144531 357.003906 298.410156 360.546875 L 298.347656 360.75 C 298.347656 360.933594 298.441406 361.027344 298.632812 361.027344 Z M 298.9375 361.027344 "/>
<path style=" stroke:none;fill-rule:nonzero;fill:rgb(100%,100%,100%);fill-opacity:1;" d="M 338.0625 345.761719 C 338.234375 345.761719 338.371094 345.695312 338.484375 345.5625 L 338.648438 345.128906 L 338.484375 344.691406 C 338.371094 344.558594 338.234375 344.488281 338.0625 344.488281 L 319.480469 344.488281 C 319.300781 344.488281 319.152344 344.558594 319.039062 344.691406 L 318.863281 345.128906 L 319.039062 345.5625 C 319.152344 345.695312 319.300781 345.761719 319.480469 345.761719 Z M 338.0625 345.761719 "/>
<path style=" stroke:none;fill-rule:nonzero;fill:rgb(100%,100%,100%);fill-opacity:1;" d="M 350.304688 352.992188 C 350.628906 353.308594 351.015625 353.464844 351.464844 353.464844 C 352.050781 353.464844 352.59375 353.207031 353.097656 352.6875 L 361.097656 344.550781 L 364.699219 352.503906 C 364.925781 352.886719 365.414062 353.160156 366.171875 353.328125 L 369.117188 353.328125 C 369.402344 353.253906 369.550781 353.109375 369.550781 352.890625 L 368.300781 350.5625 L 360.042969 332.441406 C 359.679688 331.832031 359.011719 331.4375 358.035156 331.269531 C 357.058594 331.097656 355.925781 331.011719 354.632812 331.011719 C 354.410156 331.011719 354.222656 331.078125 354.074219 331.207031 C 353.925781 331.335938 353.847656 331.503906 353.847656 331.710938 L 354.019531 332.105469 C 354.128906 332.226562 354.269531 332.285156 354.441406 332.285156 C 354.953125 332.285156 355.339844 332.460938 355.601562 332.8125 C 355.863281 333.164062 356.152344 333.675781 356.472656 334.351562 L 360.3125 342.84375 L 350.664062 350.3125 C 350.097656 350.746094 349.816406 351.277344 349.816406 351.894531 C 349.816406 352.3125 349.980469 352.675781 350.304688 352.992188 "/>
<path style=" stroke:none;fill-rule:nonzero;fill:rgb(100%,100%,100%);fill-opacity:1;" d="M 373.082031 339.910156 L 373.269531 340.027344 L 381.636719 340.027344 L 381.882812 339.828125 L 381.972656 339.46875 C 381.972656 339.296875 381.882812 339.1875 381.703125 339.128906 C 380.359375 339.128906 379.488281 339.082031 379.101562 338.996094 C 378.9375 338.976562 378.855469 338.875 378.855469 338.703125 L 378.871094 338.609375 L 378.878906 338.503906 L 381.972656 326.390625 C 382.078125 326.015625 382.191406 325.785156 382.320312 325.714844 C 382.449219 325.640625 382.722656 325.605469 383.148438 325.605469 L 384.730469 325.605469 C 385.734375 325.605469 386.460938 325.710938 386.917969 325.921875 C 387.371094 326.132812 387.601562 326.664062 387.601562 327.511719 C 387.601562 327.917969 387.535156 328.613281 387.398438 329.601562 C 387.398438 329.785156 387.488281 329.898438 387.667969 329.953125 L 387.972656 329.953125 L 388.273438 329.667969 L 388.957031 325.046875 C 388.957031 324.871094 388.863281 324.757812 388.675781 324.707031 L 373.730469 324.707031 L 373.460938 324.890625 L 371.800781 329.503906 L 371.777344 329.644531 C 371.777344 329.796875 371.871094 329.898438 372.058594 329.953125 L 372.351562 329.953125 L 372.632812 329.753906 C 372.945312 328.871094 373.210938 328.195312 373.425781 327.730469 C 373.644531 327.261719 373.910156 326.871094 374.230469 326.554688 C 374.546875 326.242188 374.964844 326.007812 375.484375 325.84375 C 376.003906 325.683594 376.691406 325.605469 377.542969 325.605469 L 379.125 325.605469 C 379.632812 325.605469 379.886719 325.640625 379.886719 325.714844 C 379.863281 325.882812 379.828125 326.050781 379.773438 326.230469 L 376.667969 338.339844 C 376.585938 338.691406 376.394531 338.910156 376.097656 338.996094 C 375.671875 339.082031 374.75 339.128906 373.335938 339.128906 L 373.089844 339.300781 L 373 339.664062 Z M 373.082031 339.910156 "/>
<path style=" stroke:none;fill-rule:nonzero;fill:rgb(100%,100%,100%);fill-opacity:1;" d="M 395.1875 351.421875 C 395.554688 351.957031 396.035156 352.355469 396.628906 352.609375 C 397.222656 352.871094 397.890625 353.042969 398.625 353.132812 C 399.363281 353.21875 400.113281 353.265625 400.878906 353.265625 C 401.738281 353.265625 402.558594 353.054688 403.335938 352.636719 C 404.117188 352.214844 404.742188 351.644531 405.207031 350.917969 L 405.207031 353.265625 L 411.132812 353.078125 L 411.132812 351.460938 C 410.488281 351.460938 409.945312 351.410156 409.515625 351.296875 C 409.085938 351.191406 408.871094 350.945312 408.871094 350.5625 L 408.871094 338.761719 L 402.75 339.023438 L 402.75 340.640625 C 404.261719 340.640625 405.015625 340.941406 405.015625 341.539062 L 405.015625 348.015625 C 405.015625 349.070312 404.648438 349.996094 403.917969 350.796875 C 403.1875 351.59375 402.28125 351.988281 401.199219 351.988281 C 400.339844 351.988281 399.726562 351.925781 399.363281 351.796875 C 399 351.667969 398.761719 351.429688 398.65625 351.082031 C 398.550781 350.734375 398.496094 350.128906 398.496094 349.257812 L 398.496094 338.761719 L 392.394531 339.023438 L 392.394531 340.640625 C 393.890625 340.640625 394.640625 340.941406 394.640625 341.539062 L 394.640625 349.382812 C 394.640625 350.210938 394.824219 350.890625 395.1875 351.421875 "/>
</g>
</svg>
