<?xml version="1.0" encoding="UTF-8"?>
<svg xmlns="http://www.w3.org/2000/svg" xmlns:xlink="http://www.w3.org/1999/xlink" width="365.954pt" height="402.185pt" viewBox="0 0 365.954 402.185" version="1.1">
<defs>
<clipPath id="clip1">
  <path d="M 339 200 L 365.953125 200 L 365.953125 217 L 339 217 Z M 339 200 "/>
</clipPath>
<clipPath id="clip2">
  <path d="M 223 376 L 240 376 L 240 402.183594 L 223 402.183594 Z M 223 376 "/>
</clipPath>
</defs>
<g id="surface1">
<path style=" stroke:none;fill-rule:nonzero;fill:rgb(100%,100%,0%);fill-opacity:1;" d="M 266.308594 192.636719 L 342.796875 207.65625 L 342.347656 209.933594 L 265.859375 194.914062 "/>
<g clip-path="url(#clip1)" clip-rule="nonzero">
<path style=" stroke:none;fill-rule:evenodd;fill:rgb(100%,100%,0%);fill-opacity:1;" d="M 365.953125 213.441406 L 343.039062 200.433594 L 339.785156 216.847656 Z M 365.953125 213.441406 "/>
</g>
<path style=" stroke:none;fill-rule:evenodd;fill:rgb(79.998779%,100%,79.998779%);fill-opacity:1;" d="M 2.710938 121.3125 L 143.300781 37.855469 L 266.085938 191.453125 L 178.292969 331.890625 L 77.339844 331.890625 L 125.648438 213.441406 L 90.5 169.621094 L 42.347656 235.425781 Z M 2.710938 121.3125 "/>
<path style=" stroke:none;fill-rule:nonzero;fill:rgb(100%,100%,100%);fill-opacity:1;" d="M 2.710938 121.3125 L 2.117188 120.3125 L 142.707031 36.859375 C 143.203125 36.5625 143.847656 36.679688 144.207031 37.132812 L 266.992188 190.726562 C 267.300781 191.117188 267.332031 191.648438 267.070312 192.070312 L 179.277344 332.503906 C 179.066406 332.84375 178.691406 333.050781 178.292969 333.050781 L 77.339844 333.050781 C 76.953125 333.050781 76.59375 332.859375 76.375 332.539062 C 76.160156 332.214844 76.117188 331.808594 76.265625 331.453125 L 124.316406 213.632812 L 90.542969 171.53125 L 43.285156 236.113281 C 43.027344 236.460938 42.605469 236.640625 42.175781 236.574219 C 41.746094 236.511719 41.390625 236.21875 41.25 235.808594 L 1.613281 121.695312 C 1.429688 121.175781 1.644531 120.59375 2.117188 120.3125 L 2.710938 121.3125 L 3.804688 120.933594 L 42.71875 232.953125 L 89.566406 168.9375 C 89.777344 168.644531 90.113281 168.46875 90.476562 168.460938 C 90.835938 168.453125 91.179688 168.613281 91.40625 168.894531 L 126.554688 212.714844 C 126.820312 213.042969 126.882812 213.488281 126.722656 213.878906 L 79.066406 330.726562 L 177.648438 330.726562 L 264.664062 191.535156 L 143.023438 39.371094 L 3.300781 122.3125 L 2.710938 121.3125 L 3.804688 120.933594 Z M 2.710938 121.3125 "/>
<path style=" stroke:none;fill-rule:nonzero;fill:rgb(100%,100%,100%);fill-opacity:1;" d="M 306.707031 2.933594 L 232.386719 379.03125 L 230.105469 378.578125 L 304.429688 2.484375 "/>
<g clip-path="url(#clip2)" clip-rule="nonzero">
<path style=" stroke:none;fill-rule:evenodd;fill:rgb(100%,100%,100%);fill-opacity:1;" d="M 226.601562 402.183594 L 239.609375 379.269531 L 223.347656 376.171875 Z M 226.601562 402.183594 "/>
</g>
<path style=" stroke:none;fill-rule:evenodd;fill:rgb(0%,0%,0%);fill-opacity:1;" d="M 267.324219 186.035156 C 271.039062 186.035156 273.828125 188.820312 273.828125 192.539062 C 273.828125 196.253906 271.039062 199.195312 267.324219 199.195312 C 263.605469 199.195312 260.664062 196.253906 260.664062 192.539062 C 260.664062 188.820312 263.605469 186.035156 267.324219 186.035156 "/>
<path style=" stroke:none;fill-rule:nonzero;fill:rgb(100%,100%,100%);fill-opacity:1;" d="M 267.324219 186.035156 L 267.324219 184.875 C 269.472656 184.871094 271.410156 185.6875 272.789062 187.070312 C 274.171875 188.449219 274.992188 190.386719 274.988281 192.539062 C 274.988281 194.6875 274.175781 196.648438 272.804688 198.066406 C 271.433594 199.488281 269.492188 200.359375 267.324219 200.355469 C 265.15625 200.359375 263.191406 199.492188 261.78125 198.082031 C 260.367188 196.671875 259.503906 194.703125 259.503906 192.539062 C 259.5 190.371094 260.371094 188.429688 261.792969 187.058594 C 263.210938 185.683594 265.175781 184.871094 267.324219 184.875 L 267.324219 187.195312 C 265.757812 187.199219 264.390625 187.777344 263.410156 188.726562 C 262.429688 189.679688 261.828125 190.988281 261.828125 192.539062 C 261.828125 194.085938 262.433594 195.449219 263.421875 196.4375 C 264.414062 197.425781 265.773438 198.03125 267.324219 198.035156 C 268.871094 198.03125 270.179688 197.433594 271.132812 196.453125 C 272.082031 195.46875 272.664062 194.105469 272.664062 192.539062 C 272.664062 190.96875 272.085938 189.65625 271.148438 188.714844 C 270.203125 187.773438 268.890625 187.199219 267.324219 187.195312 Z M 267.324219 186.035156 "/>
<path style=" stroke:none;fill-rule:nonzero;fill:rgb(100%,100%,100%);fill-opacity:1;" d="M 279.195312 224.121094 L 279.195312 222.761719 C 279.027344 222.761719 278.808594 222.742188 278.542969 222.695312 C 278.277344 222.652344 278.144531 222.601562 278.144531 222.539062 L 280.910156 219.492188 L 283.757812 222.761719 L 282.734375 222.761719 L 282.734375 224.121094 L 289.253906 224.121094 L 289.253906 222.761719 L 287.1875 222.761719 L 282.707031 217.53125 L 286.082031 213.839844 C 286.242188 213.675781 287.109375 213.59375 288.671875 213.59375 L 288.671875 212.234375 L 283.152344 212.234375 L 283.152344 213.59375 C 283.316406 213.59375 283.527344 213.609375 283.792969 213.644531 C 284.058594 213.679688 284.191406 213.738281 284.191406 213.816406 L 281.789062 216.457031 L 279.304688 213.59375 L 280.304688 213.59375 L 280.304688 212.234375 L 273.796875 212.234375 L 273.796875 213.59375 L 275.847656 213.59375 L 279.992188 218.417969 L 276.265625 222.511719 C 276.09375 222.679688 275.226562 222.761719 273.660156 222.761719 L 273.660156 224.121094 Z M 279.195312 224.121094 "/>
<path style=" stroke:none;fill-rule:nonzero;fill:rgb(100%,100%,100%);fill-opacity:1;" d="M 297.921875 227.289062 C 298.59375 226.671875 299.054688 225.898438 299.304688 224.960938 C 299.554688 224.027344 299.679688 223 299.679688 221.882812 C 299.679688 220.054688 299.351562 218.515625 298.699219 217.269531 C 298.046875 216.019531 296.863281 215.398438 295.148438 215.398438 C 293.4375 215.398438 292.253906 216.019531 291.597656 217.269531 C 290.9375 218.515625 290.609375 220.054688 290.609375 221.882812 C 290.609375 223 290.734375 224.027344 290.984375 224.960938 C 291.234375 225.898438 291.695312 226.671875 292.371094 227.289062 C 293.042969 227.90625 293.96875 228.214844 295.148438 228.214844 C 296.328125 228.214844 297.25 227.90625 297.921875 227.289062 M 293.648438 226.992188 C 293.269531 226.582031 292.996094 226.0625 292.832031 225.441406 C 292.667969 224.820312 292.5625 224.203125 292.523438 223.59375 C 292.480469 222.984375 292.460938 222.304688 292.460938 221.5625 C 292.460938 220.835938 292.480469 220.191406 292.523438 219.628906 C 292.5625 219.0625 292.664062 218.503906 292.828125 217.945312 C 292.988281 217.386719 293.257812 216.921875 293.632812 216.554688 C 294.011719 216.1875 294.515625 216 295.148438 216 C 295.964844 216 296.570312 216.300781 296.960938 216.898438 C 297.355469 217.496094 297.597656 218.175781 297.6875 218.9375 C 297.78125 219.699219 297.828125 220.574219 297.828125 221.5625 C 297.828125 222.59375 297.78125 223.523438 297.6875 224.359375 C 297.597656 225.191406 297.351562 225.941406 296.957031 226.609375 C 296.5625 227.277344 295.957031 227.609375 295.148438 227.609375 C 294.527344 227.609375 294.027344 227.402344 293.648438 226.992188 "/>
<path style=" stroke:none;fill-rule:nonzero;fill:rgb(100%,100%,0%);fill-opacity:1;" d="M 328.054688 193.988281 C 329.148438 194.464844 330.378906 194.707031 331.742188 194.707031 C 332.589844 194.707031 333.375 194.53125 334.109375 194.175781 C 334.839844 193.824219 335.40625 193.304688 335.800781 192.625 L 335.800781 192.941406 C 335.800781 193.535156 336.089844 193.949219 336.660156 194.1875 C 337.238281 194.429688 337.878906 194.546875 338.585938 194.546875 L 340.484375 194.546875 C 340.726562 194.496094 340.875 194.351562 340.929688 194.117188 L 340.929688 193.605469 C 340.875 193.378906 340.726562 193.242188 340.484375 193.1875 C 339.21875 193.1875 338.585938 192.96875 338.585938 192.535156 L 338.585938 186.320312 C 338.585938 185.597656 338.402344 184.984375 338.035156 184.484375 C 337.667969 183.980469 337.183594 183.578125 336.585938 183.265625 C 335.984375 182.957031 335.339844 182.738281 334.65625 182.605469 C 333.96875 182.476562 333.277344 182.410156 332.578125 182.410156 C 331.1875 182.410156 329.992188 182.566406 328.988281 182.882812 C 327.984375 183.195312 327.480469 183.878906 327.480469 184.933594 C 327.480469 185.414062 327.652344 185.824219 327.992188 186.164062 C 328.332031 186.503906 328.757812 186.675781 329.265625 186.675781 C 329.765625 186.675781 330.1875 186.507812 330.527344 186.175781 C 330.863281 185.847656 331.035156 185.433594 331.035156 184.933594 C 331.035156 184.402344 330.84375 183.972656 330.460938 183.640625 C 330.988281 183.535156 331.683594 183.484375 332.542969 183.484375 C 333.414062 183.484375 334.097656 183.753906 334.589844 184.292969 C 335.082031 184.835938 335.332031 185.539062 335.332031 186.402344 L 335.332031 187.394531 C 334.53125 187.394531 333.625 187.453125 332.613281 187.570312 C 331.601562 187.6875 330.632812 187.894531 329.699219 188.183594 C 328.769531 188.476562 327.992188 188.902344 327.363281 189.453125 C 326.734375 190.007812 326.417969 190.707031 326.417969 191.554688 C 326.417969 192.695312 326.964844 193.507812 328.054688 193.988281 M 330.671875 189.683594 C 331.28125 189.203125 332.011719 188.859375 332.867188 188.648438 C 333.71875 188.441406 334.539062 188.335938 335.332031 188.335938 L 335.332031 191.042969 C 335.332031 191.550781 335.171875 192.003906 334.859375 192.402344 C 334.542969 192.804688 334.140625 193.109375 333.648438 193.320312 C 333.152344 193.527344 332.644531 193.632812 332.125 193.632812 C 331.507812 193.632812 330.957031 193.433594 330.476562 193.039062 C 329.996094 192.640625 329.757812 192.144531 329.757812 191.554688 C 329.757812 190.785156 330.0625 190.164062 330.671875 189.683594 "/>
<path style=" stroke:none;fill-rule:nonzero;fill:rgb(0%,0%,0%);fill-opacity:1;" d="M 160.351562 182.324219 C 161.742188 181.679688 162.933594 180.765625 163.929688 179.589844 C 163.980469 179.511719 164.007812 179.414062 164.007812 179.300781 C 164.007812 179.152344 163.949219 179.027344 163.835938 178.921875 C 163.71875 178.820312 163.582031 178.765625 163.433594 178.765625 C 163.332031 178.765625 163.203125 178.828125 163.042969 178.949219 C 162.234375 179.898438 161.234375 180.648438 160.03125 181.191406 C 158.832031 181.738281 157.585938 182.007812 156.296875 182.007812 C 154.28125 182.007812 152.898438 181.175781 152.144531 179.503906 C 151.394531 177.835938 151.015625 175.875 151.015625 173.625 C 151.015625 172.746094 151.089844 171.816406 151.238281 170.839844 C 151.386719 169.863281 151.648438 168.914062 152.023438 167.988281 C 152.402344 167.0625 152.910156 166.3125 153.558594 165.730469 C 154.203125 165.152344 155 164.863281 155.949219 164.863281 C 156.574219 164.863281 157.234375 165.003906 157.921875 165.292969 C 158.613281 165.582031 159.265625 165.96875 159.886719 166.453125 C 160.503906 166.933594 161.027344 167.476562 161.460938 168.074219 C 161.898438 168.671875 162.179688 169.253906 162.304688 169.820312 C 162.328125 170.046875 162.488281 170.160156 162.773438 170.160156 C 162.890625 170.160156 162.996094 170.117188 163.097656 170.027344 C 163.195312 169.941406 163.242188 169.835938 163.242188 169.714844 L 163.242188 164.351562 C 163.242188 164.238281 163.195312 164.136719 163.097656 164.050781 C 162.996094 163.964844 162.890625 163.921875 162.773438 163.921875 C 162.648438 163.921875 162.535156 163.964844 162.429688 164.058594 C 162.328125 164.148438 162.277344 164.246094 162.277344 164.351562 C 162.277344 164.578125 162.199219 164.769531 162.039062 164.921875 C 161.882812 165.074219 161.691406 165.148438 161.46875 165.148438 C 160.707031 165.148438 159.890625 164.953125 159.023438 164.5625 C 158.042969 164.132812 157.019531 163.921875 155.941406 163.921875 C 154.480469 163.921875 153.148438 164.152344 151.949219 164.613281 C 150.746094 165.074219 149.714844 165.738281 148.851562 166.59375 C 147.984375 167.453125 147.320312 168.484375 146.859375 169.679688 C 146.398438 170.878906 146.167969 172.1875 146.167969 173.597656 C 146.167969 175.003906 146.394531 176.304688 146.851562 177.503906 C 147.308594 178.703125 147.964844 179.730469 148.824219 180.589844 C 149.679688 181.449219 150.714844 182.113281 151.929688 182.585938 C 153.144531 183.054688 154.480469 183.292969 155.941406 183.292969 C 157.492188 183.292969 158.960938 182.96875 160.351562 182.324219 M 148.605469 178.859375 C 147.625 177.382812 147.136719 175.632812 147.136719 173.597656 C 147.136719 171.679688 147.589844 169.992188 148.503906 168.53125 C 149.417969 167.070312 150.769531 166.027344 152.5625 165.398438 C 152.066406 165.90625 151.65625 166.488281 151.332031 167.144531 C 151.007812 167.800781 150.753906 168.484375 150.570312 169.183594 C 150.386719 169.886719 150.253906 170.605469 150.171875 171.34375 C 150.089844 172.082031 150.050781 172.832031 150.050781 173.597656 C 150.050781 175.371094 150.257812 176.996094 150.671875 178.484375 C 151.085938 179.972656 151.863281 181.128906 153.003906 181.957031 C 151.054688 181.363281 149.585938 180.332031 148.605469 178.859375 M 160.863281 166.066406 C 161.019531 166.082031 161.234375 166.089844 161.511719 166.089844 C 161.601562 166.089844 161.75 166.074219 161.96875 166.039062 C 162.09375 165.996094 162.195312 165.953125 162.277344 165.910156 L 162.277344 167.59375 C 161.925781 167.089844 161.457031 166.582031 160.863281 166.066406 "/>
</g>
</svg>
