<?xml version="1.0" encoding="UTF-8"?>
<svg xmlns="http://www.w3.org/2000/svg" xmlns:xlink="http://www.w3.org/1999/xlink" width="659.2325pt" height="390.165pt" viewBox="0 0 659.2325 390.165" version="1.1">
<defs>
<clipPath id="clip1">
  <path d="M 169 361 L 177 361 L 177 390.164062 L 169 390.164062 Z M 169 361 "/>
</clipPath>
<clipPath id="clip2">
  <path d="M 197 361 L 236 361 L 236 390.164062 L 197 390.164062 Z M 197 361 "/>
</clipPath>
<clipPath id="clip3">
  <path d="M 318 361 L 326 361 L 326 390.164062 L 318 390.164062 Z M 318 361 "/>
</clipPath>
<clipPath id="clip4">
  <path d="M 347 361 L 381 361 L 381 390.164062 L 347 390.164062 Z M 347 361 "/>
</clipPath>
<clipPath id="clip5">
  <path d="M 642 238 L 659.234375 238 L 659.234375 252 L 642 252 Z M 642 238 "/>
</clipPath>
</defs>
<g id="surface1">
<path style=" stroke:none;fill-rule:nonzero;fill:rgb(100%,100%,100%);fill-opacity:1;" d="M 40.4375 333.8125 L 486.125 333.8125 L 486.125 337.648438 L 40.4375 337.648438 "/>
<path style=" stroke:none;fill-rule:evenodd;fill:rgb(100%,100%,100%);fill-opacity:1;" d="M 514.742188 335.730469 L 484.785156 325.6875 L 484.785156 345.773438 Z M 514.742188 335.730469 "/>
<path style=" stroke:none;fill-rule:nonzero;fill:rgb(100%,100%,100%);fill-opacity:1;" d="M 53.0625 33.824219 C 63.042969 117.023438 88.859375 174.335938 123.136719 210.828125 C 157.417969 247.3125 200.171875 263.070312 244.378906 263.078125 C 294.492188 263.085938 346.464844 242.757812 389.648438 209.21875 C 432.832031 175.6875 467.210938 128.964844 482.238281 76.308594 L 484.652344 76.996094 C 469.449219 130.253906 434.746094 177.371094 391.1875 211.203125 C 347.621094 245.027344 295.175781 265.585938 244.378906 265.589844 C 199.582031 265.601562 156.054688 249.550781 121.304688 212.546875 C 86.554688 175.546875 60.59375 117.679688 50.570312 34.125 Z M 53.0625 33.824219 "/>
<path style=" stroke:none;fill-rule:nonzero;fill:rgb(100%,100%,0%);fill-opacity:1;" d="M 84.730469 156.074219 L 87.074219 160.59375 L 84.84375 161.75 L 82.5 157.230469 "/>
<path style=" stroke:none;fill-rule:nonzero;fill:rgb(100%,100%,0%);fill-opacity:1;" d="M 89.25 164.945312 L 91.59375 169.464844 L 89.363281 170.621094 L 87.019531 166.097656 "/>
<path style=" stroke:none;fill-rule:nonzero;fill:rgb(100%,100%,0%);fill-opacity:1;" d="M 93.757812 173.796875 L 96.101562 178.148438 L 93.890625 179.339844 L 91.546875 174.988281 "/>
<path style=" stroke:none;fill-rule:nonzero;fill:rgb(100%,100%,0%);fill-opacity:1;" d="M 98.277344 182.667969 L 100.621094 187.019531 L 98.410156 188.210938 L 96.066406 183.859375 "/>
<path style=" stroke:none;fill-rule:nonzero;fill:rgb(100%,100%,0%);fill-opacity:1;" d="M 102.804688 191.386719 L 105.148438 195.90625 L 102.917969 197.0625 L 100.574219 192.542969 "/>
<path style=" stroke:none;fill-rule:nonzero;fill:rgb(100%,100%,0%);fill-opacity:1;" d="M 107.316406 200.242188 L 109.660156 204.59375 L 107.449219 205.78125 L 105.105469 201.429688 "/>
<path style=" stroke:none;fill-rule:nonzero;fill:rgb(100%,100%,0%);fill-opacity:1;" d="M 111.832031 209.109375 L 114.175781 213.460938 L 111.964844 214.652344 L 109.621094 210.300781 "/>
<path style=" stroke:none;fill-rule:nonzero;fill:rgb(100%,100%,0%);fill-opacity:1;" d="M 116.363281 217.832031 L 118.703125 222.351562 L 116.476562 223.507812 L 114.132812 218.984375 "/>
<path style=" stroke:none;fill-rule:nonzero;fill:rgb(100%,100%,0%);fill-opacity:1;" d="M 120.871094 226.683594 L 123.214844 231.035156 L 121.003906 232.226562 L 118.660156 227.875 "/>
<path style=" stroke:none;fill-rule:nonzero;fill:rgb(100%,100%,0%);fill-opacity:1;" d="M 125.390625 235.554688 L 127.734375 239.90625 L 125.523438 241.097656 L 123.179688 236.746094 "/>
<path style=" stroke:none;fill-rule:nonzero;fill:rgb(100%,100%,0%);fill-opacity:1;" d="M 129.917969 244.273438 L 132.261719 248.792969 L 130.03125 249.949219 L 127.6875 245.429688 "/>
<path style=" stroke:none;fill-rule:nonzero;fill:rgb(100%,100%,0%);fill-opacity:1;" d="M 134.4375 253.144531 L 136.78125 257.664062 L 134.550781 258.820312 L 132.207031 254.300781 "/>
<path style=" stroke:none;fill-rule:nonzero;fill:rgb(100%,100%,0%);fill-opacity:1;" d="M 138.945312 261.996094 L 141.289062 266.347656 L 139.078125 267.539062 L 136.734375 263.1875 "/>
<path style=" stroke:none;fill-rule:nonzero;fill:rgb(100%,100%,0%);fill-opacity:1;" d="M 143.484375 270.902344 L 145.660156 275.253906 L 143.414062 276.375 L 141.238281 272.023438 "/>
<path style=" stroke:none;fill-rule:nonzero;fill:rgb(100%,100%,0%);fill-opacity:1;" d="M 148 279.605469 L 150.175781 283.957031 L 147.929688 285.078125 L 145.753906 280.726562 "/>
<path style=" stroke:none;fill-rule:nonzero;fill:rgb(100%,100%,0%);fill-opacity:1;" d="M 152.519531 288.476562 L 154.695312 292.828125 L 152.449219 293.949219 L 150.273438 289.597656 "/>
<path style=" stroke:none;fill-rule:nonzero;fill:rgb(100%,100%,0%);fill-opacity:1;" d="M 157.03125 297.160156 L 159.375 301.679688 L 157.144531 302.835938 L 154.800781 298.316406 "/>
<path style=" stroke:none;fill-rule:nonzero;fill:rgb(100%,100%,0%);fill-opacity:1;" d="M 161.566406 306.066406 L 163.742188 310.582031 L 161.480469 311.671875 L 159.304688 307.15625 "/>
<path style=" stroke:none;fill-rule:nonzero;fill:rgb(100%,100%,0%);fill-opacity:1;" d="M 166.078125 314.917969 L 168.253906 319.269531 L 166.007812 320.394531 L 163.832031 316.042969 "/>
<path style=" stroke:none;fill-rule:evenodd;fill:rgb(100%,100%,0%);fill-opacity:1;" d="M 180.015625 345.101562 L 175.832031 316.984375 L 159.765625 325.1875 Z M 180.015625 345.101562 "/>
<path style=" stroke:none;fill-rule:nonzero;fill:rgb(100%,100%,0%);fill-opacity:1;" d="M 153.046875 387.1875 C 153.363281 386.84375 153.523438 386.464844 153.523438 386.050781 C 153.523438 385.738281 153.410156 385.488281 153.1875 385.292969 C 152.964844 385.101562 152.683594 385.003906 152.355469 385.003906 C 151.855469 385.003906 151.441406 385.1875 151.117188 385.550781 C 150.789062 385.914062 150.625 386.339844 150.625 386.828125 C 150.625 387.441406 150.890625 387.933594 151.417969 388.304688 C 151.949219 388.679688 152.550781 388.863281 153.21875 388.863281 C 154.09375 388.863281 154.851562 388.488281 155.492188 387.734375 C 156.132812 386.980469 156.660156 386.042969 157.070312 384.925781 C 157.484375 383.808594 157.804688 382.722656 158.03125 381.660156 C 158.261719 380.601562 158.460938 379.558594 158.636719 378.53125 L 160.019531 371.460938 L 163.207031 371.460938 L 163.40625 371.355469 L 163.53125 371.070312 L 163.589844 370.824219 C 163.589844 370.570312 163.488281 370.441406 163.296875 370.441406 L 160.21875 370.441406 L 160.585938 368.535156 C 161.011719 366.367188 161.289062 365.035156 161.417969 364.546875 C 161.492188 364.234375 161.664062 363.941406 161.933594 363.667969 C 162.203125 363.394531 162.484375 363.257812 162.789062 363.257812 C 163.332031 363.257812 163.789062 363.394531 164.15625 363.667969 C 163.71875 363.714844 163.351562 363.894531 163.054688 364.210938 C 162.757812 364.523438 162.609375 364.894531 162.609375 365.316406 C 162.609375 365.625 162.722656 365.875 162.953125 366.066406 C 163.179688 366.261719 163.457031 366.359375 163.777344 366.359375 C 164.257812 366.359375 164.664062 366.175781 165 365.816406 C 165.335938 365.453125 165.503906 365.027344 165.503906 364.539062 C 165.503906 364.117188 165.371094 363.75 165.113281 363.441406 C 164.847656 363.132812 164.511719 362.898438 164.097656 362.746094 C 163.6875 362.589844 163.261719 362.511719 162.824219 362.511719 C 162.152344 362.511719 161.527344 362.71875 160.953125 363.128906 C 160.375 363.539062 159.914062 364.058594 159.574219 364.6875 C 159.351562 365.132812 159.183594 365.53125 159.070312 365.890625 C 158.960938 366.25 158.855469 366.640625 158.757812 367.058594 C 158.660156 367.476562 158.554688 367.980469 158.4375 368.5625 L 158.085938 370.441406 L 155.429688 370.441406 C 155.253906 370.441406 155.128906 370.65625 155.054688 371.078125 C 155.054688 371.332031 155.148438 371.460938 155.34375 371.460938 L 157.898438 371.460938 L 156.53125 378.558594 C 155.703125 382.667969 155.199219 385.089844 155.015625 385.824219 C 154.570312 387.351562 153.992188 388.113281 153.28125 388.113281 C 152.757812 388.113281 152.3125 387.980469 151.945312 387.703125 C 152.363281 387.703125 152.730469 387.535156 153.046875 387.1875 "/>
<g clip-path="url(#clip1)" clip-rule="nonzero">
<path style=" stroke:none;fill-rule:nonzero;fill:rgb(100%,100%,0%);fill-opacity:1;" d="M 176.359375 390.164062 L 176.636719 390.164062 L 176.789062 390.074219 L 176.867188 389.910156 L 176.78125 389.671875 C 173.402344 386.484375 171.710938 381.824219 171.710938 375.6875 C 171.710938 374.300781 171.800781 372.972656 171.972656 371.695312 C 172.148438 370.417969 172.433594 369.183594 172.824219 367.988281 C 173.21875 366.796875 173.738281 365.675781 174.386719 364.617188 C 175.03125 363.5625 175.839844 362.574219 176.808594 361.648438 L 176.867188 361.464844 L 176.796875 361.289062 L 176.636719 361.210938 L 176.359375 361.210938 L 176.214844 361.269531 C 175.136719 362.089844 174.191406 363.042969 173.386719 364.140625 C 172.582031 365.230469 171.917969 366.40625 171.398438 367.660156 C 170.878906 368.910156 170.492188 370.21875 170.238281 371.574219 C 169.988281 372.933594 169.863281 374.300781 169.863281 375.6875 C 169.863281 377.054688 169.988281 378.417969 170.238281 379.773438 C 170.492188 381.132812 170.875 382.429688 171.382812 383.675781 C 171.894531 384.921875 172.550781 386.089844 173.351562 387.191406 C 174.152344 388.289062 175.105469 389.261719 176.214844 390.109375 Z M 176.359375 390.164062 "/>
</g>
<path style=" stroke:none;fill-rule:nonzero;fill:rgb(100%,100%,0%);fill-opacity:1;" d="M 184.777344 382.925781 L 184.777344 381.457031 C 184.59375 381.457031 184.359375 381.433594 184.074219 381.386719 C 183.789062 381.339844 183.644531 381.28125 183.644531 381.214844 L 186.621094 377.921875 L 189.679688 381.457031 L 188.578125 381.457031 L 188.578125 382.925781 L 195.585938 382.925781 L 195.585938 381.457031 L 193.367188 381.457031 L 188.550781 375.800781 L 192.175781 371.8125 C 192.351562 371.636719 193.28125 371.546875 194.964844 371.546875 L 194.964844 370.074219 L 189.027344 370.074219 L 189.027344 371.546875 C 189.203125 371.546875 189.433594 371.566406 189.71875 371.601562 C 190.003906 371.640625 190.148438 371.703125 190.148438 371.789062 L 187.5625 374.640625 L 184.894531 371.546875 L 185.96875 371.546875 L 185.96875 370.074219 L 178.972656 370.074219 L 178.972656 371.546875 L 181.179688 371.546875 L 185.632812 376.761719 L 181.628906 381.1875 C 181.445312 381.367188 180.511719 381.457031 178.828125 381.457031 L 178.828125 382.925781 Z M 184.777344 382.925781 "/>
<g clip-path="url(#clip2)" clip-rule="nonzero">
<path style=" stroke:none;fill-rule:nonzero;fill:rgb(100%,100%,0%);fill-opacity:1;" d="M 198.296875 390.164062 L 198.445312 390.109375 C 199.550781 389.261719 200.503906 388.292969 201.300781 387.203125 C 202.09375 386.113281 202.753906 384.925781 203.273438 383.640625 C 203.792969 382.355469 204.171875 381.050781 204.410156 379.726562 C 204.644531 378.402344 204.765625 377.054688 204.765625 375.6875 C 204.765625 373.839844 204.546875 372.03125 204.105469 370.257812 C 203.660156 368.488281 202.964844 366.820312 202.011719 365.253906 C 201.0625 363.691406 199.871094 362.359375 198.445312 361.269531 L 198.296875 361.210938 L 198.023438 361.210938 L 197.839844 361.289062 L 197.757812 361.464844 L 197.875 361.707031 C 201.234375 364.890625 202.914062 369.554688 202.914062 375.6875 C 202.914062 381.824219 201.21875 386.503906 197.816406 389.726562 L 197.757812 389.910156 C 197.757812 390.078125 197.847656 390.164062 198.023438 390.164062 Z M 225.171875 376.265625 L 225.171875 384.804688 C 225.171875 384.957031 225.230469 385.082031 225.347656 385.179688 C 225.460938 385.28125 225.601562 385.332031 225.769531 385.332031 L 226.175781 385.179688 C 226.304688 385.082031 226.367188 384.957031 226.367188 384.804688 L 226.367188 376.265625 L 235.136719 376.265625 L 235.515625 376.085938 L 235.675781 375.6875 L 235.515625 375.292969 L 235.136719 375.109375 L 226.367188 375.109375 L 226.367188 366.570312 C 226.367188 366.417969 226.304688 366.292969 226.175781 366.195312 L 225.769531 366.046875 C 225.601562 366.046875 225.460938 366.097656 225.347656 366.195312 C 225.230469 366.292969 225.171875 366.417969 225.171875 366.570312 L 225.171875 375.109375 L 216.402344 375.109375 C 216.238281 375.109375 216.101562 375.167969 215.996094 375.292969 L 215.835938 375.6875 L 215.996094 376.085938 C 216.101562 376.207031 216.238281 376.265625 216.402344 376.265625 Z M 225.171875 376.265625 "/>
</g>
<path style=" stroke:none;fill-rule:nonzero;fill:rgb(100%,100%,0%);fill-opacity:1;" d="M 246.773438 382.5 C 247.3125 383 247.976562 383.253906 248.761719 383.253906 C 249.839844 383.253906 250.792969 382.808594 251.628906 381.917969 C 252.464844 381.03125 253.097656 380.003906 253.535156 378.832031 L 253.566406 378.746094 L 253.492188 378.570312 L 253.300781 378.492188 L 252.9375 378.492188 L 252.707031 378.664062 C 252.347656 379.613281 251.828125 380.484375 251.15625 381.28125 C 250.480469 382.078125 249.707031 382.472656 248.835938 382.472656 C 248.25 382.472656 247.960938 382.058594 247.960938 381.230469 C 247.960938 380.835938 248.03125 380.367188 248.179688 379.820312 L 250.320312 371.460938 L 253.566406 371.460938 L 253.78125 371.347656 L 253.898438 371.066406 L 253.957031 370.824219 C 253.957031 370.570312 253.855469 370.445312 253.652344 370.445312 L 250.582031 370.445312 L 251.773438 365.847656 L 251.796875 365.742188 L 251.804688 365.609375 C 251.804688 365.363281 251.71875 365.167969 251.546875 365.019531 C 251.378906 364.875 251.167969 364.800781 250.914062 364.800781 C 250.625 364.800781 250.363281 364.890625 250.128906 365.070312 C 249.898438 365.25 249.742188 365.464844 249.664062 365.722656 L 248.46875 370.445312 L 245.164062 370.445312 C 244.980469 370.445312 244.847656 370.65625 244.773438 371.078125 C 244.773438 371.335938 244.875 371.460938 245.078125 371.460938 L 248.207031 371.460938 L 246.050781 379.765625 C 245.996094 380.019531 245.964844 380.289062 245.964844 380.574219 C 245.964844 381.355469 246.234375 382 246.773438 382.5 "/>
<path style=" stroke:none;fill-rule:nonzero;fill:rgb(100%,100%,0%);fill-opacity:1;" d="M 266.726562 383.886719 L 267.128906 383.886719 C 267.390625 383.886719 267.566406 383.78125 267.664062 383.5625 L 277.816406 363.472656 L 277.835938 363.429688 L 277.84375 363.386719 C 277.84375 363.230469 277.761719 363.148438 277.597656 363.148438 L 256.257812 363.148438 C 256.097656 363.148438 256.015625 363.230469 256.015625 363.386719 L 256.035156 363.425781 L 256.042969 363.472656 L 266.195312 383.5625 C 266.289062 383.78125 266.46875 383.886719 266.726562 383.886719 M 259.84375 365.324219 L 275.714844 365.324219 L 267.777344 381.046875 Z M 259.84375 365.324219 "/>
<path style=" stroke:none;fill-rule:nonzero;fill:rgb(100%,100%,0%);fill-opacity:1;" d="M 281.535156 370.941406 L 281.707031 371.046875 L 289.324219 371.046875 L 289.546875 370.863281 L 289.628906 370.535156 C 289.628906 370.382812 289.546875 370.28125 289.382812 370.226562 C 288.160156 370.226562 287.371094 370.1875 287.015625 370.109375 C 286.867188 370.085938 286.792969 369.996094 286.792969 369.839844 L 286.808594 369.753906 L 286.8125 369.660156 L 289.628906 358.632812 C 289.722656 358.285156 289.828125 358.078125 289.945312 358.015625 C 290.0625 357.945312 290.3125 357.914062 290.703125 357.914062 L 292.140625 357.914062 C 293.054688 357.914062 293.714844 358.011719 294.132812 358.203125 C 294.546875 358.394531 294.753906 358.878906 294.753906 359.648438 C 294.753906 360.019531 294.695312 360.65625 294.570312 361.550781 C 294.570312 361.71875 294.652344 361.824219 294.816406 361.871094 L 295.089844 361.871094 L 295.367188 361.613281 L 295.992188 357.40625 C 295.992188 357.246094 295.90625 357.140625 295.734375 357.097656 L 282.125 357.097656 L 281.878906 357.265625 L 280.371094 361.464844 L 280.347656 361.59375 C 280.347656 361.734375 280.433594 361.824219 280.605469 361.871094 L 280.871094 361.871094 L 281.125 361.691406 C 281.410156 360.886719 281.652344 360.273438 281.851562 359.847656 C 282.046875 359.421875 282.289062 359.066406 282.578125 358.78125 C 282.871094 358.496094 283.25 358.28125 283.722656 358.132812 C 284.195312 357.988281 284.820312 357.914062 285.597656 357.914062 L 287.035156 357.914062 C 287.5 357.914062 287.730469 357.945312 287.730469 358.015625 C 287.710938 358.167969 287.675781 358.320312 287.628906 358.484375 L 284.800781 369.507812 C 284.726562 369.828125 284.550781 370.027344 284.28125 370.109375 C 283.890625 370.1875 283.054688 370.226562 281.769531 370.226562 L 281.542969 370.386719 L 281.460938 370.714844 Z M 281.535156 370.941406 "/>
<path style=" stroke:none;fill-rule:nonzero;fill:rgb(100%,100%,0%);fill-opacity:1;" d="M 302.167969 387.1875 C 302.484375 386.84375 302.644531 386.464844 302.644531 386.050781 C 302.644531 385.738281 302.53125 385.488281 302.308594 385.292969 C 302.082031 385.101562 301.804688 385.003906 301.472656 385.003906 C 300.976562 385.003906 300.5625 385.1875 300.238281 385.550781 C 299.910156 385.914062 299.746094 386.339844 299.746094 386.828125 C 299.746094 387.441406 300.011719 387.933594 300.539062 388.304688 C 301.070312 388.679688 301.671875 388.863281 302.339844 388.863281 C 303.214844 388.863281 303.972656 388.488281 304.613281 387.734375 C 305.253906 386.980469 305.777344 386.042969 306.191406 384.925781 C 306.605469 383.808594 306.925781 382.722656 307.152344 381.660156 C 307.382812 380.601562 307.582031 379.558594 307.757812 378.53125 L 309.140625 371.460938 L 312.328125 371.460938 L 312.527344 371.355469 L 312.652344 371.070312 L 312.710938 370.824219 C 312.710938 370.570312 312.609375 370.441406 312.417969 370.441406 L 309.339844 370.441406 L 309.703125 368.535156 C 310.132812 366.367188 310.410156 365.035156 310.535156 364.546875 C 310.613281 364.234375 310.785156 363.941406 311.054688 363.667969 C 311.320312 363.394531 311.605469 363.257812 311.90625 363.257812 C 312.453125 363.257812 312.910156 363.394531 313.277344 363.667969 C 312.839844 363.714844 312.472656 363.894531 312.171875 364.210938 C 311.878906 364.523438 311.726562 364.894531 311.726562 365.316406 C 311.726562 365.625 311.84375 365.875 312.070312 366.066406 C 312.300781 366.261719 312.578125 366.359375 312.898438 366.359375 C 313.378906 366.359375 313.785156 366.175781 314.121094 365.816406 C 314.457031 365.453125 314.625 365.027344 314.625 364.539062 C 314.625 364.117188 314.492188 363.75 314.230469 363.441406 C 313.96875 363.132812 313.632812 362.898438 313.21875 362.746094 C 312.804688 362.589844 312.382812 362.511719 311.945312 362.511719 C 311.273438 362.511719 310.648438 362.71875 310.070312 363.128906 C 309.496094 363.539062 309.035156 364.058594 308.695312 364.6875 C 308.472656 365.132812 308.300781 365.53125 308.191406 365.890625 C 308.078125 366.25 307.976562 366.640625 307.878906 367.058594 C 307.78125 367.476562 307.675781 367.980469 307.558594 368.5625 L 307.207031 370.441406 L 304.550781 370.441406 C 304.375 370.441406 304.25 370.65625 304.171875 371.078125 C 304.171875 371.332031 304.269531 371.460938 304.464844 371.460938 L 307.019531 371.460938 L 305.648438 378.558594 C 304.824219 382.667969 304.320312 385.089844 304.136719 385.824219 C 303.691406 387.351562 303.113281 388.113281 302.402344 388.113281 C 301.878906 388.113281 301.433594 387.980469 301.0625 387.703125 C 301.484375 387.703125 301.851562 387.535156 302.167969 387.1875 "/>
<g clip-path="url(#clip3)" clip-rule="nonzero">
<path style=" stroke:none;fill-rule:nonzero;fill:rgb(100%,100%,0%);fill-opacity:1;" d="M 325.480469 390.164062 L 325.753906 390.164062 L 325.910156 390.074219 L 325.988281 389.910156 L 325.902344 389.671875 C 322.523438 386.484375 320.832031 381.824219 320.832031 375.6875 C 320.832031 374.300781 320.921875 372.972656 321.09375 371.695312 C 321.269531 370.417969 321.550781 369.183594 321.945312 367.988281 C 322.339844 366.796875 322.859375 365.675781 323.503906 364.617188 C 324.148438 363.5625 324.957031 362.574219 325.929688 361.648438 L 325.988281 361.464844 L 325.914062 361.289062 L 325.753906 361.210938 L 325.480469 361.210938 L 325.332031 361.269531 C 324.253906 362.089844 323.3125 363.042969 322.507812 364.140625 C 321.703125 365.230469 321.039062 366.40625 320.519531 367.660156 C 320 368.910156 319.613281 370.21875 319.359375 371.574219 C 319.109375 372.933594 318.980469 374.300781 318.980469 375.6875 C 318.980469 377.054688 319.109375 378.417969 319.359375 379.773438 C 319.613281 381.132812 319.996094 382.429688 320.503906 383.675781 C 321.015625 384.921875 321.667969 386.089844 322.472656 387.191406 C 323.273438 388.289062 324.226562 389.261719 325.332031 390.109375 Z M 325.480469 390.164062 "/>
</g>
<path style=" stroke:none;fill-rule:nonzero;fill:rgb(100%,100%,0%);fill-opacity:1;" d="M 334.234375 382.925781 L 334.234375 381.457031 C 334.050781 381.457031 333.816406 381.433594 333.53125 381.386719 C 333.242188 381.339844 333.101562 381.28125 333.101562 381.214844 L 336.074219 377.921875 L 339.136719 381.457031 L 338.035156 381.457031 L 338.035156 382.925781 L 345.042969 382.925781 L 345.042969 381.457031 L 342.820312 381.457031 L 338.003906 375.800781 L 341.632812 371.8125 C 341.804688 371.636719 342.734375 371.546875 344.417969 371.546875 L 344.417969 370.074219 L 338.484375 370.074219 L 338.484375 371.546875 C 338.65625 371.546875 338.886719 371.566406 339.171875 371.601562 C 339.457031 371.640625 339.601562 371.703125 339.601562 371.789062 L 337.019531 374.640625 L 334.347656 371.546875 L 335.421875 371.546875 L 335.421875 370.074219 L 328.429688 370.074219 L 328.429688 371.546875 L 330.632812 371.546875 L 335.089844 376.761719 L 331.085938 381.1875 C 330.902344 381.367188 329.96875 381.457031 328.285156 381.457031 L 328.285156 382.925781 Z M 334.234375 382.925781 "/>
<g clip-path="url(#clip4)" clip-rule="nonzero">
<path style=" stroke:none;fill-rule:nonzero;fill:rgb(100%,100%,0%);fill-opacity:1;" d="M 347.753906 390.164062 L 347.898438 390.109375 C 349.007812 389.261719 349.957031 388.292969 350.753906 387.203125 C 351.550781 386.113281 352.207031 384.925781 352.726562 383.640625 C 353.246094 382.355469 353.625 381.050781 353.863281 379.726562 C 354.101562 378.402344 354.222656 377.054688 354.222656 375.6875 C 354.222656 373.839844 354 372.03125 353.558594 370.257812 C 353.117188 368.488281 352.417969 366.820312 351.46875 365.253906 C 350.515625 363.691406 349.328125 362.359375 347.898438 361.269531 L 347.753906 361.210938 L 347.476562 361.210938 L 347.292969 361.289062 L 347.214844 361.464844 L 347.332031 361.707031 C 350.691406 364.890625 352.371094 369.554688 352.371094 375.6875 C 352.371094 381.824219 350.671875 386.503906 347.273438 389.726562 L 347.214844 389.910156 C 347.214844 390.078125 347.300781 390.164062 347.476562 390.164062 Z M 380.125 382.925781 C 380.289062 382.925781 380.375 382.851562 380.375 382.699219 L 380.367188 382.652344 L 380.34375 382.601562 L 370.074219 362.511719 C 369.988281 362.304688 369.804688 362.199219 369.535156 362.199219 L 369.128906 362.199219 C 368.855469 362.199219 368.675781 362.304688 368.589844 362.511719 L 358.320312 382.601562 L 358.308594 382.660156 L 358.289062 382.699219 C 358.289062 382.851562 358.371094 382.925781 358.535156 382.925781 Z M 368.367188 365.238281 L 376.222656 380.609375 L 360.503906 380.609375 Z M 368.367188 365.238281 "/>
</g>
<path style=" stroke:none;fill-rule:nonzero;fill:rgb(100%,100%,0%);fill-opacity:1;" d="M 388.292969 382.925781 L 388.292969 381.457031 C 388.105469 381.457031 387.871094 381.433594 387.589844 381.386719 C 387.300781 381.339844 387.160156 381.28125 387.160156 381.214844 L 390.132812 377.921875 L 393.195312 381.457031 L 392.09375 381.457031 L 392.09375 382.925781 L 399.101562 382.925781 L 399.101562 381.457031 L 396.878906 381.457031 L 392.0625 375.800781 L 395.691406 371.8125 C 395.863281 371.636719 396.792969 371.546875 398.476562 371.546875 L 398.476562 370.074219 L 392.542969 370.074219 L 392.542969 371.546875 C 392.714844 371.546875 392.945312 371.566406 393.230469 371.601562 C 393.515625 371.640625 393.660156 371.703125 393.660156 371.789062 L 391.078125 374.640625 L 388.40625 371.546875 L 389.480469 371.546875 L 389.480469 370.074219 L 382.488281 370.074219 L 382.488281 371.546875 L 384.691406 371.546875 L 389.148438 376.761719 L 385.144531 381.1875 C 384.960938 381.367188 384.023438 381.457031 382.34375 381.457031 L 382.34375 382.925781 Z M 388.292969 382.925781 "/>
<path style=" stroke:none;fill-rule:nonzero;fill:rgb(100%,100%,100%);fill-opacity:1;" d="M 448.277344 58.65625 C 448.59375 58.3125 448.753906 57.933594 448.753906 57.519531 C 448.753906 57.207031 448.640625 56.953125 448.414062 56.761719 C 448.191406 56.570312 447.914062 56.472656 447.582031 56.472656 C 447.085938 56.472656 446.671875 56.652344 446.34375 57.015625 C 446.019531 57.378906 445.855469 57.804688 445.855469 58.296875 C 445.855469 58.910156 446.121094 59.402344 446.648438 59.773438 C 447.179688 60.144531 447.777344 60.332031 448.449219 60.332031 C 449.320312 60.332031 450.078125 59.953125 450.71875 59.199219 C 451.359375 58.445312 451.886719 57.511719 452.300781 56.394531 C 452.710938 55.277344 453.035156 54.1875 453.261719 53.128906 C 453.488281 52.066406 453.691406 51.023438 453.863281 49.996094 L 455.25 42.925781 L 458.4375 42.925781 L 458.636719 42.820312 L 458.757812 42.539062 L 458.816406 42.289062 C 458.816406 42.035156 458.71875 41.910156 458.523438 41.910156 L 455.449219 41.910156 L 455.8125 40 C 456.242188 37.832031 456.519531 36.5 456.644531 36.011719 C 456.722656 35.703125 456.894531 35.410156 457.160156 35.136719 C 457.429688 34.863281 457.714844 34.722656 458.015625 34.722656 C 458.5625 34.722656 459.019531 34.863281 459.386719 35.132812 C 458.949219 35.179688 458.578125 35.363281 458.28125 35.675781 C 457.984375 35.988281 457.835938 36.359375 457.835938 36.78125 C 457.835938 37.089844 457.949219 37.34375 458.179688 37.535156 C 458.410156 37.730469 458.683594 37.824219 459.007812 37.824219 C 459.484375 37.824219 459.890625 37.644531 460.226562 37.28125 C 460.566406 36.921875 460.734375 36.496094 460.734375 36.007812 C 460.734375 35.585938 460.601562 35.21875 460.339844 34.910156 C 460.078125 34.597656 459.738281 34.367188 459.328125 34.210938 C 458.914062 34.058594 458.488281 33.976562 458.050781 33.976562 C 457.382812 33.976562 456.757812 34.183594 456.179688 34.59375 C 455.601562 35.003906 455.140625 35.523438 454.800781 36.15625 C 454.578125 36.597656 454.410156 37 454.300781 37.355469 C 454.1875 37.714844 454.085938 38.105469 453.988281 38.523438 C 453.886719 38.945312 453.78125 39.445312 453.664062 40.03125 L 453.316406 41.910156 L 450.660156 41.910156 C 450.484375 41.910156 450.359375 42.121094 450.28125 42.546875 C 450.28125 42.800781 450.378906 42.925781 450.570312 42.925781 L 453.125 42.925781 L 451.757812 50.023438 C 450.933594 54.132812 450.429688 56.558594 450.246094 57.292969 C 449.796875 58.816406 449.21875 59.582031 448.511719 59.582031 C 447.988281 59.582031 447.539062 59.445312 447.171875 59.171875 C 447.59375 59.171875 447.960938 59 448.277344 58.65625 "/>
<path style=" stroke:none;fill-rule:nonzero;fill:rgb(100%,100%,100%);fill-opacity:1;" d="M 471.617188 61.632812 L 471.894531 61.632812 L 472.050781 61.539062 L 472.128906 61.378906 L 472.042969 61.136719 C 468.652344 57.953125 466.957031 53.289062 466.957031 47.15625 C 466.957031 45.769531 467.042969 44.4375 467.21875 43.160156 C 467.394531 41.882812 467.679688 40.648438 468.074219 39.457031 C 468.46875 38.265625 468.988281 37.140625 469.636719 36.085938 C 470.285156 35.03125 471.097656 34.039062 472.070312 33.117188 L 472.128906 32.933594 L 472.054688 32.753906 L 471.894531 32.679688 L 471.617188 32.679688 L 471.472656 32.734375 C 470.390625 33.554688 469.445312 34.511719 468.636719 35.605469 C 467.828125 36.699219 467.164062 37.871094 466.640625 39.125 C 466.121094 40.378906 465.734375 41.683594 465.480469 43.042969 C 465.226562 44.398438 465.097656 45.769531 465.097656 47.15625 C 465.097656 48.523438 465.226562 49.882812 465.480469 51.242188 C 465.734375 52.597656 466.113281 53.898438 466.628906 55.144531 C 467.136719 56.386719 467.796875 57.558594 468.601562 58.65625 C 469.402344 59.753906 470.359375 60.726562 471.472656 61.574219 Z M 471.617188 61.632812 "/>
<path style=" stroke:none;fill-rule:nonzero;fill:rgb(100%,100%,100%);fill-opacity:1;" d="M 480.023438 54.394531 L 480.023438 52.921875 C 479.839844 52.921875 479.605469 52.898438 479.320312 52.851562 C 479.03125 52.804688 478.890625 52.75 478.890625 52.683594 L 481.871094 49.390625 L 484.945312 52.921875 L 483.835938 52.921875 L 483.835938 54.394531 L 490.863281 54.394531 L 490.863281 52.921875 L 488.640625 52.921875 L 483.808594 47.269531 L 487.445312 43.28125 C 487.621094 43.101562 488.550781 43.011719 490.238281 43.011719 L 490.238281 41.542969 L 484.289062 41.542969 L 484.289062 43.011719 C 484.464844 43.011719 484.691406 43.03125 484.980469 43.070312 C 485.265625 43.105469 485.410156 43.167969 485.410156 43.253906 L 482.816406 46.109375 L 480.140625 43.011719 L 481.21875 43.011719 L 481.21875 41.542969 L 474.203125 41.542969 L 474.203125 43.011719 L 476.417969 43.011719 L 480.882812 48.230469 L 476.867188 52.65625 C 476.683594 52.832031 475.746094 52.921875 474.058594 52.921875 L 474.058594 54.394531 Z M 480.023438 54.394531 "/>
<path style=" stroke:none;fill-rule:nonzero;fill:rgb(100%,100%,100%);fill-opacity:1;" d="M 509.222656 47.734375 L 509.222656 56.273438 C 509.222656 56.425781 509.28125 56.550781 509.398438 56.648438 C 509.515625 56.746094 509.65625 56.796875 509.824219 56.796875 L 510.234375 56.648438 C 510.359375 56.550781 510.421875 56.425781 510.421875 56.273438 L 510.421875 47.734375 L 519.21875 47.734375 L 519.601562 47.550781 L 519.761719 47.15625 L 519.601562 46.757812 L 519.21875 46.574219 L 510.421875 46.574219 L 510.421875 38.035156 L 510.234375 37.660156 L 509.824219 37.511719 C 509.65625 37.511719 509.515625 37.5625 509.398438 37.660156 L 509.222656 38.035156 L 509.222656 46.574219 L 500.425781 46.574219 C 500.257812 46.574219 500.121094 46.636719 500.015625 46.757812 L 499.855469 47.15625 L 500.015625 47.550781 C 500.121094 47.671875 500.257812 47.734375 500.425781 47.734375 Z M 509.222656 47.734375 "/>
<path style=" stroke:none;fill-rule:nonzero;fill:rgb(100%,100%,100%);fill-opacity:1;" d="M 530.621094 53.96875 C 531.160156 54.46875 531.824219 54.71875 532.609375 54.71875 C 533.6875 54.71875 534.640625 54.273438 535.476562 53.386719 C 536.3125 52.5 536.945312 51.46875 537.382812 50.296875 L 537.414062 50.214844 L 537.339844 50.039062 L 537.148438 49.957031 L 536.785156 49.957031 L 536.550781 50.128906 C 536.195312 51.078125 535.675781 51.953125 535.003906 52.75 C 534.328125 53.542969 533.554688 53.941406 532.679688 53.941406 C 532.097656 53.941406 531.808594 53.527344 531.808594 52.699219 C 531.808594 52.304688 531.878906 51.832031 532.027344 51.285156 L 534.167969 42.929688 L 537.414062 42.929688 L 537.628906 42.8125 L 537.746094 42.53125 L 537.804688 42.292969 C 537.804688 42.039062 537.703125 41.910156 537.5 41.910156 L 534.429688 41.910156 L 535.621094 37.316406 L 535.644531 37.210938 L 535.652344 37.074219 C 535.652344 36.828125 535.566406 36.636719 535.394531 36.488281 C 535.226562 36.34375 535.015625 36.269531 534.761719 36.269531 C 534.472656 36.269531 534.210938 36.359375 533.976562 36.539062 C 533.746094 36.71875 533.589844 36.933594 533.511719 37.1875 L 532.316406 41.910156 L 529.011719 41.910156 C 528.828125 41.910156 528.695312 42.121094 528.621094 42.546875 C 528.621094 42.800781 528.722656 42.929688 528.925781 42.929688 L 532.054688 42.929688 L 529.898438 51.230469 C 529.84375 51.484375 529.8125 51.753906 529.8125 52.039062 C 529.8125 52.824219 530.082031 53.464844 530.621094 53.96875 "/>
<path style=" stroke:none;fill-rule:nonzero;fill:rgb(100%,100%,100%);fill-opacity:1;" d="M 561.957031 54.394531 C 562.125 54.394531 562.207031 54.316406 562.207031 54.167969 L 562.199219 54.117188 L 562.175781 54.070312 L 551.871094 33.976562 C 551.785156 33.769531 551.605469 33.667969 551.332031 33.667969 L 550.925781 33.667969 C 550.652344 33.667969 550.46875 33.769531 550.382812 33.976562 L 540.078125 54.070312 L 540.070312 54.125 L 540.050781 54.167969 C 540.050781 54.316406 540.132812 54.394531 540.296875 54.394531 Z M 550.164062 36.707031 L 558.042969 52.074219 L 542.269531 52.074219 Z M 550.164062 36.707031 "/>
<path style=" stroke:none;fill-rule:nonzero;fill:rgb(100%,100%,100%);fill-opacity:1;" d="M 569.898438 54.394531 L 569.898438 52.921875 C 569.714844 52.921875 569.480469 52.898438 569.191406 52.851562 C 568.90625 52.804688 568.765625 52.75 568.765625 52.683594 L 571.746094 49.390625 L 574.816406 52.921875 L 573.710938 52.921875 L 573.710938 54.394531 L 580.738281 54.394531 L 580.738281 52.921875 L 578.511719 52.921875 L 573.679688 47.269531 L 577.320312 43.28125 C 577.492188 43.101562 578.425781 43.011719 580.113281 43.011719 L 580.113281 41.542969 L 574.160156 41.542969 L 574.160156 43.011719 C 574.335938 43.011719 574.566406 43.03125 574.851562 43.070312 C 575.140625 43.105469 575.28125 43.167969 575.28125 43.253906 L 572.691406 46.109375 L 570.015625 43.011719 L 571.09375 43.011719 L 571.09375 41.542969 L 564.078125 41.542969 L 564.078125 43.011719 L 566.289062 43.011719 L 570.757812 48.230469 L 566.742188 52.65625 C 566.554688 52.832031 565.621094 52.921875 563.933594 52.921875 L 563.933594 54.394531 Z M 569.898438 54.394531 "/>
<path style=" stroke:none;fill-rule:nonzero;fill:rgb(100%,100%,100%);fill-opacity:1;" d="M 583.574219 61.632812 L 583.71875 61.574219 C 584.832031 60.726562 585.789062 59.757812 586.585938 58.667969 C 587.382812 57.582031 588.046875 56.394531 588.566406 55.109375 C 589.089844 53.820312 589.46875 52.515625 589.707031 51.191406 C 589.945312 49.867188 590.0625 48.523438 590.0625 47.15625 C 590.0625 45.308594 589.84375 43.496094 589.398438 41.726562 C 588.957031 39.953125 588.257812 38.285156 587.300781 36.722656 C 586.347656 35.15625 585.152344 33.828125 583.71875 32.734375 L 583.574219 32.679688 L 583.296875 32.679688 L 583.113281 32.753906 L 583.035156 32.933594 L 583.152344 33.171875 C 586.523438 36.359375 588.207031 41.019531 588.207031 47.15625 C 588.207031 53.289062 586.503906 57.96875 583.09375 61.191406 L 583.035156 61.378906 C 583.035156 61.546875 583.121094 61.632812 583.296875 61.632812 Z M 583.574219 61.632812 "/>
<path style=" stroke:none;fill-rule:nonzero;fill:rgb(100%,100%,100%);fill-opacity:1;" d="M 528.949219 353.378906 C 529.488281 353.878906 530.148438 354.132812 530.933594 354.132812 C 532.011719 354.132812 532.96875 353.6875 533.804688 352.796875 C 534.636719 351.910156 535.273438 350.882812 535.710938 349.710938 L 535.738281 349.625 L 535.664062 349.449219 L 535.476562 349.371094 L 535.113281 349.371094 L 534.878906 349.542969 C 534.519531 350.492188 534.003906 351.363281 533.328125 352.160156 C 532.65625 352.957031 531.882812 353.351562 531.007812 353.351562 C 530.425781 353.351562 530.132812 352.9375 530.132812 352.109375 C 530.132812 351.714844 530.207031 351.246094 530.351562 350.699219 L 532.492188 342.339844 L 535.738281 342.339844 L 535.957031 342.226562 L 536.074219 341.945312 L 536.132812 341.703125 C 536.132812 341.449219 536.03125 341.324219 535.828125 341.324219 L 532.753906 341.324219 L 533.949219 336.726562 L 533.96875 336.621094 L 533.976562 336.488281 C 533.976562 336.242188 533.890625 336.046875 533.722656 335.898438 C 533.550781 335.753906 533.339844 335.679688 533.089844 335.679688 C 532.796875 335.679688 532.535156 335.769531 532.304688 335.949219 C 532.070312 336.128906 531.914062 336.34375 531.839844 336.601562 L 530.644531 341.324219 L 527.339844 341.324219 C 527.15625 341.324219 527.023438 341.535156 526.945312 341.957031 C 526.945312 342.214844 527.046875 342.339844 527.253906 342.339844 L 530.382812 342.339844 L 528.226562 350.644531 C 528.167969 350.898438 528.140625 351.167969 528.140625 351.453125 C 528.140625 352.234375 528.410156 352.878906 528.949219 353.378906 "/>
<path style=" stroke:none;fill-rule:nonzero;fill:rgb(100%,100%,100%);fill-opacity:1;" d="M 67.09375 365.808594 C 68.019531 364.796875 68.640625 363.566406 68.957031 362.117188 C 69.277344 360.671875 69.433594 359.121094 69.433594 357.460938 C 69.433594 356.226562 69.351562 355.046875 69.191406 353.917969 C 69.03125 352.792969 68.730469 351.738281 68.292969 350.753906 C 67.855469 349.765625 67.21875 348.964844 66.378906 348.339844 C 65.539062 347.71875 64.464844 347.410156 63.148438 347.410156 C 61.453125 347.410156 60.136719 347.925781 59.195312 348.957031 C 58.253906 349.988281 57.628906 351.246094 57.308594 352.726562 C 56.992188 354.203125 56.835938 355.785156 56.835938 357.460938 C 56.835938 360.148438 57.277344 362.464844 58.160156 364.410156 C 59.039062 366.355469 60.703125 367.328125 63.148438 367.328125 C 64.855469 367.328125 66.171875 366.820312 67.09375 365.808594 M 61.082031 365.542969 C 60.558594 364.847656 60.183594 363.996094 59.949219 362.980469 C 59.714844 361.96875 59.570312 360.984375 59.515625 360.035156 C 59.464844 359.082031 59.4375 358.070312 59.4375 356.996094 C 59.4375 355.542969 59.5 354.207031 59.628906 352.984375 C 59.753906 351.765625 60.089844 350.65625 60.636719 349.65625 C 61.179688 348.65625 62.019531 348.160156 63.148438 348.160156 C 64.269531 348.160156 65.101562 348.65625 65.640625 349.648438 C 66.183594 350.644531 66.515625 351.753906 66.640625 352.980469 C 66.769531 354.203125 66.832031 355.542969 66.832031 356.996094 C 66.832031 358.503906 66.769531 359.925781 66.640625 361.261719 C 66.515625 362.601562 66.179688 363.824219 65.632812 364.925781 C 65.089844 366.027344 64.261719 366.578125 63.148438 366.578125 C 62.292969 366.578125 61.601562 366.234375 61.082031 365.542969 "/>
<path style=" stroke:none;fill-rule:nonzero;fill:rgb(100%,100%,100%);fill-opacity:1;" d="M 2.421875 167.777344 C 2.738281 167.433594 2.898438 167.054688 2.898438 166.636719 C 2.898438 166.328125 2.785156 166.074219 2.5625 165.882812 C 2.335938 165.691406 2.058594 165.59375 1.726562 165.59375 C 1.230469 165.59375 0.816406 165.773438 0.492188 166.136719 C 0.164062 166.5 0 166.925781 0 167.417969 C 0 168.03125 0.265625 168.519531 0.792969 168.894531 C 1.324219 169.265625 1.921875 169.453125 2.59375 169.453125 C 3.464844 169.453125 4.222656 169.074219 4.867188 168.320312 C 5.503906 167.566406 6.03125 166.632812 6.445312 165.515625 C 6.855469 164.398438 7.179688 163.308594 7.40625 162.25 C 7.632812 161.1875 7.835938 160.144531 8.011719 159.117188 L 9.394531 152.046875 L 12.582031 152.046875 L 12.78125 151.941406 L 12.902344 151.660156 L 12.960938 151.410156 C 12.960938 151.15625 12.863281 151.03125 12.667969 151.03125 L 9.59375 151.03125 L 9.957031 149.121094 C 10.386719 146.953125 10.664062 145.621094 10.789062 145.132812 C 10.867188 144.824219 11.039062 144.53125 11.308594 144.257812 C 11.574219 143.984375 11.859375 143.84375 12.160156 143.84375 C 12.707031 143.84375 13.164062 143.984375 13.53125 144.253906 C 13.09375 144.300781 12.726562 144.484375 12.425781 144.796875 C 12.128906 145.109375 11.980469 145.480469 11.980469 145.902344 C 11.980469 146.210938 12.09375 146.464844 12.324219 146.65625 C 12.554688 146.847656 12.832031 146.945312 13.152344 146.945312 C 13.628906 146.945312 14.035156 146.765625 14.375 146.402344 C 14.710938 146.042969 14.878906 145.617188 14.878906 145.128906 C 14.878906 144.707031 14.746094 144.339844 14.484375 144.03125 C 14.222656 143.71875 13.882812 143.488281 13.472656 143.332031 C 13.058594 143.175781 12.632812 143.097656 12.199219 143.097656 C 11.527344 143.097656 10.902344 143.304688 10.324219 143.714844 C 9.746094 144.125 9.285156 144.644531 8.949219 145.277344 C 8.726562 145.71875 8.554688 146.121094 8.445312 146.476562 C 8.332031 146.835938 8.230469 147.226562 8.132812 147.644531 C 8.035156 148.066406 7.929688 148.566406 7.8125 149.152344 L 7.460938 151.03125 L 4.804688 151.03125 C 4.628906 151.03125 4.503906 151.242188 4.425781 151.667969 C 4.425781 151.921875 4.523438 152.046875 4.714844 152.046875 L 7.273438 152.046875 L 5.902344 159.144531 C 5.078125 163.253906 4.574219 165.679688 4.390625 166.414062 C 3.941406 167.9375 3.367188 168.703125 2.65625 168.703125 C 2.132812 168.703125 1.683594 168.566406 1.316406 168.292969 C 1.738281 168.292969 2.105469 168.121094 2.421875 167.777344 "/>
<path style=" stroke:none;fill-rule:nonzero;fill:rgb(100%,100%,100%);fill-opacity:1;" d="M 25.761719 170.753906 L 26.039062 170.753906 L 26.195312 170.660156 L 26.273438 170.5 L 26.1875 170.257812 C 22.796875 167.070312 21.101562 162.410156 21.101562 156.277344 C 21.101562 154.890625 21.1875 153.558594 21.363281 152.28125 C 21.539062 151.003906 21.824219 149.769531 22.21875 148.578125 C 22.613281 147.386719 23.132812 146.261719 23.78125 145.207031 C 24.429688 144.148438 25.242188 143.160156 26.214844 142.238281 L 26.273438 142.054688 L 26.203125 141.875 L 26.039062 141.796875 L 25.761719 141.796875 L 25.617188 141.855469 C 24.535156 142.675781 23.589844 143.632812 22.78125 144.726562 C 21.972656 145.820312 21.308594 146.992188 20.785156 148.246094 C 20.265625 149.5 19.878906 150.804688 19.625 152.160156 C 19.371094 153.519531 19.242188 154.890625 19.242188 156.277344 C 19.242188 157.644531 19.371094 159.003906 19.625 160.359375 C 19.878906 161.71875 20.261719 163.019531 20.773438 164.265625 C 21.28125 165.507812 21.941406 166.679688 22.746094 167.777344 C 23.546875 168.875 24.507812 169.847656 25.617188 170.695312 Z M 25.761719 170.753906 "/>
<path style=" stroke:none;fill-rule:nonzero;fill:rgb(100%,100%,100%);fill-opacity:1;" d="M 34.167969 163.515625 L 34.167969 162.042969 C 33.984375 162.042969 33.75 162.019531 33.464844 161.972656 C 33.175781 161.925781 33.035156 161.867188 33.035156 161.804688 L 36.015625 158.511719 L 39.089844 162.042969 L 37.980469 162.042969 L 37.980469 163.515625 L 45.011719 163.515625 L 45.011719 162.042969 L 42.785156 162.042969 L 37.953125 156.390625 L 41.589844 152.402344 C 41.765625 152.222656 42.695312 152.132812 44.382812 152.132812 L 44.382812 150.664062 L 38.433594 150.664062 L 38.433594 152.132812 C 38.609375 152.132812 38.835938 152.152344 39.125 152.191406 C 39.410156 152.226562 39.554688 152.289062 39.554688 152.375 L 36.964844 155.230469 L 34.285156 152.132812 L 35.363281 152.132812 L 35.363281 150.664062 L 28.347656 150.664062 L 28.347656 152.132812 L 30.5625 152.132812 L 35.027344 157.351562 L 31.011719 161.773438 C 30.828125 161.953125 29.890625 162.042969 28.203125 162.042969 L 28.203125 163.515625 Z M 34.167969 163.515625 "/>
<path style=" stroke:none;fill-rule:nonzero;fill:rgb(100%,100%,100%);fill-opacity:1;" d="M 47.679688 170.753906 L 47.824219 170.695312 C 48.9375 169.847656 49.890625 168.878906 50.691406 167.789062 C 51.488281 166.703125 52.148438 165.515625 52.667969 164.230469 C 53.191406 162.941406 53.570312 161.636719 53.808594 160.3125 C 54.046875 158.988281 54.167969 157.644531 54.167969 156.277344 C 54.167969 154.429688 53.945312 152.617188 53.503906 150.847656 C 53.058594 149.074219 52.359375 147.40625 51.40625 145.84375 C 50.449219 144.277344 49.257812 142.949219 47.824219 141.855469 L 47.679688 141.796875 L 47.402344 141.796875 L 47.21875 141.875 L 47.136719 142.054688 L 47.253906 142.292969 C 50.625 145.480469 52.3125 150.140625 52.3125 156.277344 C 52.3125 162.410156 50.605469 167.089844 47.195312 170.3125 L 47.136719 170.5 C 47.136719 170.667969 47.226562 170.753906 47.402344 170.753906 Z M 47.679688 170.753906 "/>
<path style=" stroke:none;fill-rule:nonzero;fill:rgb(100%,100%,100%);fill-opacity:1;" d="M 83.617188 157.480469 L 71.566406 157.480469 L 71.566406 155.824219 L 83.617188 155.824219 "/>
<path style=" stroke:none;fill-rule:nonzero;fill:rgb(100%,100%,100%);fill-opacity:1;" d="M 451.144531 211.707031 L 427.042969 211.707031 L 427.042969 210.050781 L 451.144531 210.050781 "/>
<path style=" stroke:none;fill-rule:nonzero;fill:rgb(100%,100%,100%);fill-opacity:1;" d="M 402.945312 211.707031 L 378.84375 211.707031 L 378.84375 210.050781 L 402.945312 210.050781 "/>
<path style=" stroke:none;fill-rule:nonzero;fill:rgb(100%,100%,100%);fill-opacity:1;" d="M 354.742188 211.707031 L 330.644531 211.707031 L 330.644531 210.050781 L 354.742188 210.050781 "/>
<path style=" stroke:none;fill-rule:nonzero;fill:rgb(100%,100%,100%);fill-opacity:1;" d="M 306.542969 211.707031 L 282.441406 211.707031 L 282.441406 210.050781 L 306.542969 210.050781 "/>
<path style=" stroke:none;fill-rule:nonzero;fill:rgb(0%,100%,100%);fill-opacity:1;" d="M 394.0625 255.976562 C 394.382812 255.632812 394.539062 255.253906 394.539062 254.839844 C 394.539062 254.527344 394.429688 254.273438 394.203125 254.082031 C 393.980469 253.890625 393.699219 253.792969 393.367188 253.792969 C 392.867188 253.792969 392.453125 253.972656 392.125 254.335938 C 391.800781 254.699219 391.636719 255.125 391.636719 255.617188 C 391.636719 256.230469 391.898438 256.722656 392.429688 257.09375 C 392.960938 257.464844 393.5625 257.652344 394.234375 257.652344 C 395.113281 257.652344 395.871094 257.277344 396.515625 256.519531 C 397.15625 255.765625 397.6875 254.832031 398.097656 253.714844 C 398.515625 252.597656 398.835938 251.511719 399.066406 250.449219 C 399.292969 249.390625 399.496094 248.34375 399.671875 247.316406 L 401.058594 240.246094 L 404.257812 240.246094 L 404.457031 240.140625 L 404.578125 239.859375 L 404.636719 239.613281 C 404.636719 239.359375 404.539062 239.230469 404.34375 239.230469 L 401.257812 239.230469 L 401.625 237.320312 C 402.054688 235.152344 402.332031 233.824219 402.457031 233.332031 C 402.539062 233.023438 402.710938 232.730469 402.976562 232.457031 C 403.246094 232.183594 403.53125 232.046875 403.835938 232.046875 C 404.378906 232.046875 404.839844 232.183594 405.210938 232.453125 C 404.769531 232.503906 404.398438 232.683594 404.101562 232.996094 C 403.804688 233.3125 403.652344 233.679688 403.652344 234.101562 C 403.652344 234.410156 403.769531 234.664062 404 234.855469 C 404.230469 235.050781 404.503906 235.144531 404.828125 235.144531 C 405.308594 235.144531 405.714844 234.964844 406.054688 234.601562 C 406.390625 234.242188 406.5625 233.816406 406.5625 233.328125 C 406.5625 232.90625 406.429688 232.539062 406.164062 232.230469 C 405.902344 231.921875 405.5625 231.6875 405.148438 231.53125 C 404.734375 231.378906 404.308594 231.300781 403.871094 231.300781 C 403.199219 231.300781 402.570312 231.503906 401.992188 231.914062 C 401.414062 232.324219 400.949219 232.84375 400.609375 233.476562 C 400.386719 233.921875 400.21875 234.320312 400.105469 234.679688 C 399.992188 235.035156 399.890625 235.425781 399.792969 235.84375 C 399.695312 236.265625 399.585938 236.765625 399.46875 237.351562 L 399.121094 239.230469 L 396.453125 239.230469 C 396.277344 239.230469 396.152344 239.441406 396.074219 239.867188 C 396.074219 240.121094 396.171875 240.246094 396.363281 240.246094 L 398.929688 240.246094 L 397.558594 247.347656 C 396.726562 251.453125 396.222656 253.878906 396.035156 254.613281 C 395.589844 256.140625 395.011719 256.902344 394.300781 256.902344 C 393.773438 256.902344 393.324219 256.765625 392.957031 256.492188 C 393.375 256.492188 393.746094 256.320312 394.0625 255.976562 "/>
<path style=" stroke:none;fill-rule:nonzero;fill:rgb(0%,100%,100%);fill-opacity:1;" d="M 417.390625 258.953125 L 417.671875 258.953125 L 417.824219 258.859375 L 417.90625 258.699219 L 417.816406 258.457031 C 414.425781 255.273438 412.730469 250.613281 412.730469 244.476562 C 412.730469 243.089844 412.816406 241.757812 412.992188 240.484375 C 413.167969 239.207031 413.453125 237.96875 413.847656 236.777344 C 414.242188 235.585938 414.761719 234.460938 415.414062 233.40625 C 416.058594 232.351562 416.871094 231.359375 417.847656 230.4375 L 417.90625 230.253906 L 417.832031 230.074219 L 417.671875 230 L 417.390625 230 L 417.246094 230.054688 C 416.164062 230.875 415.21875 231.832031 414.410156 232.925781 C 413.601562 234.019531 412.9375 235.191406 412.414062 236.445312 C 411.894531 237.699219 411.507812 239.003906 411.253906 240.363281 C 411 241.71875 410.875 243.089844 410.875 244.476562 C 410.875 245.84375 411 247.203125 411.253906 248.5625 C 411.507812 249.917969 411.890625 251.21875 412.402344 252.464844 C 412.910156 253.707031 413.570312 254.878906 414.375 255.976562 C 415.179688 257.074219 416.136719 258.046875 417.246094 258.894531 Z M 417.390625 258.953125 "/>
<path style=" stroke:none;fill-rule:nonzero;fill:rgb(0%,100%,100%);fill-opacity:1;" d="M 425.800781 251.714844 L 425.800781 250.242188 C 425.613281 250.242188 425.378906 250.21875 425.09375 250.171875 C 424.808594 250.125 424.664062 250.070312 424.664062 250.003906 L 427.648438 246.710938 L 430.71875 250.242188 L 429.613281 250.242188 L 429.613281 251.714844 L 436.640625 251.714844 L 436.640625 250.242188 L 434.414062 250.242188 L 429.582031 244.589844 L 433.21875 240.601562 C 433.394531 240.425781 434.328125 240.332031 436.011719 240.332031 L 436.011719 238.863281 L 430.0625 238.863281 L 430.0625 240.332031 C 430.238281 240.332031 430.46875 240.351562 430.753906 240.390625 C 431.039062 240.425781 431.183594 240.488281 431.183594 240.574219 L 428.59375 243.429688 L 425.917969 240.332031 L 426.992188 240.332031 L 426.992188 238.863281 L 419.976562 238.863281 L 419.976562 240.332031 L 422.191406 240.332031 L 426.65625 245.550781 L 422.640625 249.976562 C 422.457031 250.15625 421.519531 250.242188 419.832031 250.242188 L 419.832031 251.714844 Z M 425.800781 251.714844 "/>
<path style=" stroke:none;fill-rule:nonzero;fill:rgb(0%,100%,100%);fill-opacity:1;" d="M 439.308594 258.953125 L 439.453125 258.894531 C 440.566406 258.046875 441.519531 257.078125 442.320312 255.992188 C 443.117188 254.902344 443.777344 253.714844 444.300781 252.429688 C 444.820312 251.140625 445.199219 249.835938 445.4375 248.511719 C 445.679688 247.1875 445.796875 245.84375 445.796875 244.476562 C 445.796875 242.628906 445.574219 240.820312 445.132812 239.046875 C 444.6875 237.277344 443.988281 235.605469 443.035156 234.042969 C 442.078125 232.476562 440.886719 231.148438 439.453125 230.054688 L 439.308594 230 L 439.03125 230 L 438.847656 230.074219 L 438.765625 230.253906 L 438.882812 230.496094 C 442.253906 233.679688 443.941406 238.339844 443.941406 244.476562 C 443.941406 250.613281 442.234375 255.289062 438.824219 258.515625 L 438.765625 258.699219 C 438.765625 258.867188 438.855469 258.953125 439.03125 258.953125 Z M 466.210938 245.054688 L 466.210938 253.59375 C 466.210938 253.746094 466.269531 253.871094 466.386719 253.96875 C 466.503906 254.066406 466.644531 254.117188 466.8125 254.117188 L 467.21875 253.96875 C 467.347656 253.871094 467.410156 253.746094 467.410156 253.59375 L 467.410156 245.054688 L 476.207031 245.054688 L 476.589844 244.871094 L 476.75 244.476562 L 476.589844 244.078125 L 476.207031 243.898438 L 467.410156 243.898438 L 467.410156 235.355469 L 467.21875 234.984375 L 466.8125 234.835938 C 466.644531 234.835938 466.503906 234.882812 466.386719 234.984375 L 466.210938 235.355469 L 466.210938 243.898438 L 457.414062 243.898438 C 457.246094 243.898438 457.109375 243.957031 457.003906 244.078125 L 456.84375 244.476562 L 457.003906 244.871094 C 457.109375 244.996094 457.246094 245.054688 457.414062 245.054688 Z M 466.210938 245.054688 "/>
<path style=" stroke:none;fill-rule:nonzero;fill:rgb(0%,100%,100%);fill-opacity:1;" d="M 494.445312 251.390625 C 495.539062 250.960938 496.550781 250.355469 497.488281 249.578125 C 497.664062 250.308594 497.988281 250.902344 498.464844 251.355469 C 498.941406 251.8125 499.539062 252.039062 500.257812 252.039062 C 500.808594 252.039062 501.371094 251.8125 501.9375 251.363281 C 502.507812 250.914062 502.792969 250.445312 502.792969 249.964844 C 502.792969 249.773438 502.710938 249.679688 502.558594 249.679688 L 502.191406 249.679688 C 502.144531 249.6875 502.027344 249.847656 501.847656 250.160156 C 501.667969 250.46875 501.460938 250.730469 501.222656 250.945312 C 500.980469 251.15625 500.675781 251.261719 500.308594 251.261719 C 499.734375 251.261719 499.445312 250.066406 499.445312 247.675781 C 500 247.054688 500.515625 246.363281 500.988281 245.601562 C 501.460938 244.835938 501.871094 244.046875 502.222656 243.234375 C 502.570312 242.421875 502.863281 241.570312 503.097656 240.6875 L 503.125 240.601562 C 503.125 240.421875 503.035156 240.332031 502.847656 240.332031 L 502.5 240.332031 L 502.265625 240.503906 C 502.011719 241.554688 501.648438 242.574219 501.175781 243.558594 C 500.703125 244.542969 500.128906 245.492188 499.445312 246.40625 L 499.417969 244.46875 C 499.417969 243.5 499.21875 242.589844 498.816406 241.738281 C 498.417969 240.886719 497.835938 240.203125 497.066406 239.6875 C 496.296875 239.175781 495.40625 238.921875 494.394531 238.921875 C 493.019531 238.921875 491.707031 239.320312 490.457031 240.121094 C 489.207031 240.921875 488.203125 241.964844 487.449219 243.246094 C 486.695312 244.527344 486.316406 245.824219 486.316406 247.132812 C 486.316406 248.066406 486.515625 248.902344 486.917969 249.636719 C 487.316406 250.371094 487.882812 250.957031 488.621094 251.390625 C 489.355469 251.824219 490.199219 252.039062 491.144531 252.039062 C 492.253906 252.039062 493.355469 251.824219 494.445312 251.390625 M 489.289062 250.386719 C 488.847656 249.800781 488.625 249.09375 488.625 248.253906 C 488.625 247.144531 488.847656 245.917969 489.289062 244.574219 C 489.734375 243.234375 490.394531 242.082031 491.273438 241.117188 C 492.152344 240.152344 493.175781 239.667969 494.34375 239.667969 C 496.292969 239.667969 497.269531 241.414062 497.269531 244.90625 L 497.269531 248.027344 C 497.269531 248.046875 497.28125 248.140625 497.296875 248.304688 C 497.320312 248.46875 497.332031 248.609375 497.34375 248.71875 C 495.382812 250.414062 493.335938 251.261719 491.199219 251.261719 C 490.371094 251.261719 489.734375 250.972656 489.289062 250.386719 M 506.808594 251.289062 C 507.347656 251.789062 508.011719 252.039062 508.800781 252.039062 C 509.882812 252.039062 510.839844 251.59375 511.679688 250.707031 C 512.515625 249.820312 513.152344 248.789062 513.589844 247.617188 L 513.621094 247.535156 L 513.546875 247.355469 L 513.355469 247.28125 L 512.992188 247.28125 L 512.757812 247.449219 C 512.398438 248.398438 511.878906 249.273438 511.203125 250.070312 C 510.527344 250.863281 509.75 251.261719 508.875 251.261719 C 508.289062 251.261719 508 250.847656 508 250.019531 C 508 249.625 508.070312 249.152344 508.21875 248.609375 L 510.363281 240.25 L 513.621094 240.25 L 513.839844 240.136719 L 513.957031 239.851562 L 514.015625 239.613281 C 514.015625 239.355469 513.914062 239.230469 513.707031 239.230469 L 510.625 239.230469 L 511.824219 234.636719 L 511.847656 234.53125 L 511.851562 234.394531 C 511.851562 234.152344 511.765625 233.953125 511.597656 233.808594 C 511.425781 233.664062 511.214844 233.589844 510.960938 233.589844 C 510.671875 233.589844 510.40625 233.679688 510.171875 233.859375 C 509.941406 234.035156 509.785156 234.253906 509.707031 234.507812 L 508.507812 239.230469 L 505.191406 239.230469 C 505.007812 239.230469 504.875 239.441406 504.800781 239.867188 C 504.800781 240.121094 504.902344 240.25 505.105469 240.25 L 508.246094 240.25 L 506.085938 248.550781 C 506.027344 248.808594 505.996094 249.074219 505.996094 249.359375 C 505.996094 250.144531 506.265625 250.785156 506.808594 251.289062 "/>
<path style=" stroke:none;fill-rule:nonzero;fill:rgb(0%,100%,100%);fill-opacity:1;" d="M 526.808594 252.675781 L 527.210938 252.675781 C 527.472656 252.675781 527.648438 252.566406 527.746094 252.351562 L 537.898438 232.261719 L 537.917969 232.21875 L 537.925781 232.175781 C 537.925781 232.015625 537.84375 231.9375 537.679688 231.9375 L 516.339844 231.9375 C 516.179688 231.9375 516.097656 232.015625 516.097656 232.175781 L 516.117188 232.210938 L 516.125 232.261719 L 526.277344 252.351562 C 526.371094 252.566406 526.550781 252.675781 526.808594 252.675781 M 519.925781 234.113281 L 535.796875 234.113281 L 527.859375 249.832031 Z M 519.925781 234.113281 "/>
<path style=" stroke:none;fill-rule:nonzero;fill:rgb(0%,100%,100%);fill-opacity:1;" d="M 541.449219 239.726562 L 541.621094 239.832031 L 549.238281 239.832031 L 549.464844 239.652344 L 549.542969 239.324219 C 549.542969 239.167969 549.464844 239.066406 549.300781 239.015625 C 548.074219 239.015625 547.285156 238.972656 546.929688 238.894531 C 546.78125 238.875 546.707031 238.785156 546.707031 238.625 L 546.722656 238.539062 L 546.726562 238.445312 L 549.542969 227.417969 C 549.640625 227.074219 549.746094 226.867188 549.859375 226.800781 C 549.976562 226.734375 550.226562 226.699219 550.617188 226.699219 L 552.054688 226.699219 C 552.96875 226.699219 553.628906 226.796875 554.046875 226.992188 C 554.460938 227.183594 554.671875 227.664062 554.671875 228.4375 C 554.671875 228.808594 554.609375 229.441406 554.484375 230.339844 C 554.484375 230.507812 554.566406 230.613281 554.730469 230.660156 L 555.007812 230.660156 L 555.28125 230.398438 L 555.90625 226.191406 C 555.90625 226.03125 555.820312 225.929688 555.648438 225.882812 L 542.039062 225.882812 L 541.792969 226.054688 L 540.285156 230.25 L 540.261719 230.378906 C 540.261719 230.519531 540.347656 230.613281 540.519531 230.660156 L 540.785156 230.660156 L 541.039062 230.480469 C 541.328125 229.675781 541.566406 229.0625 541.765625 228.636719 C 541.960938 228.210938 542.203125 227.855469 542.496094 227.566406 C 542.785156 227.285156 543.164062 227.066406 543.636719 226.921875 C 544.109375 226.773438 544.734375 226.699219 545.511719 226.699219 L 546.953125 226.699219 C 547.414062 226.699219 547.644531 226.734375 547.644531 226.800781 C 547.625 226.953125 547.589844 227.109375 547.542969 227.269531 L 544.714844 238.296875 C 544.640625 238.617188 544.46875 238.816406 544.195312 238.894531 C 543.804688 238.972656 542.96875 239.015625 541.683594 239.015625 L 541.457031 239.171875 L 541.375 239.503906 Z M 541.449219 239.726562 "/>
<path style=" stroke:none;fill-rule:nonzero;fill:rgb(0%,100%,100%);fill-opacity:1;" d="M 562.429688 255.976562 C 562.75 255.632812 562.90625 255.253906 562.90625 254.839844 C 562.90625 254.527344 562.796875 254.273438 562.570312 254.082031 C 562.34375 253.890625 562.066406 253.792969 561.734375 253.792969 C 561.234375 253.792969 560.820312 253.972656 560.492188 254.335938 C 560.164062 254.699219 560.003906 255.125 560.003906 255.617188 C 560.003906 256.230469 560.265625 256.722656 560.796875 257.09375 C 561.328125 257.464844 561.929688 257.652344 562.601562 257.652344 C 563.480469 257.652344 564.238281 257.277344 564.882812 256.519531 C 565.523438 255.765625 566.054688 254.832031 566.464844 253.714844 C 566.882812 252.597656 567.203125 251.511719 567.433594 250.449219 C 567.660156 249.390625 567.863281 248.34375 568.039062 247.316406 L 569.425781 240.246094 L 572.625 240.246094 L 572.824219 240.140625 L 572.945312 239.859375 L 573.003906 239.613281 C 573.003906 239.359375 572.90625 239.230469 572.710938 239.230469 L 569.625 239.230469 L 569.992188 237.320312 C 570.421875 235.152344 570.699219 233.824219 570.824219 233.332031 C 570.90625 233.023438 571.078125 232.730469 571.34375 232.457031 C 571.613281 232.183594 571.898438 232.046875 572.203125 232.046875 C 572.746094 232.046875 573.207031 232.183594 573.578125 232.453125 C 573.136719 232.503906 572.765625 232.683594 572.46875 232.996094 C 572.167969 233.3125 572.019531 233.679688 572.019531 234.101562 C 572.019531 234.410156 572.136719 234.664062 572.367188 234.855469 C 572.597656 235.050781 572.871094 235.144531 573.195312 235.144531 C 573.675781 235.144531 574.082031 234.964844 574.421875 234.601562 C 574.757812 234.242188 574.929688 233.816406 574.929688 233.328125 C 574.929688 232.90625 574.796875 232.539062 574.53125 232.230469 C 574.269531 231.921875 573.929688 231.6875 573.515625 231.53125 C 573.101562 231.378906 572.675781 231.300781 572.238281 231.300781 C 571.566406 231.300781 570.9375 231.503906 570.359375 231.914062 C 569.78125 232.324219 569.316406 232.84375 568.976562 233.476562 C 568.753906 233.921875 568.585938 234.320312 568.472656 234.679688 C 568.359375 235.035156 568.257812 235.425781 568.160156 235.84375 C 568.0625 236.265625 567.953125 236.765625 567.835938 237.351562 L 567.488281 239.230469 L 564.820312 239.230469 C 564.644531 239.230469 564.519531 239.441406 564.441406 239.867188 C 564.441406 240.121094 564.539062 240.246094 564.730469 240.246094 L 567.296875 240.246094 L 565.925781 247.347656 C 565.09375 251.453125 564.589844 253.878906 564.402344 254.613281 C 563.957031 256.140625 563.378906 256.902344 562.667969 256.902344 C 562.140625 256.902344 561.691406 256.765625 561.324219 256.492188 C 561.742188 256.492188 562.113281 256.320312 562.429688 255.976562 "/>
<path style=" stroke:none;fill-rule:nonzero;fill:rgb(0%,100%,100%);fill-opacity:1;" d="M 585.59375 258.953125 L 585.871094 258.953125 L 586.023438 258.859375 L 586.105469 258.699219 L 586.015625 258.457031 C 582.625 255.273438 580.929688 250.613281 580.929688 244.476562 C 580.929688 243.089844 581.019531 241.757812 581.191406 240.484375 C 581.367188 239.207031 581.652344 237.96875 582.046875 236.777344 C 582.441406 235.585938 582.964844 234.460938 583.613281 233.40625 C 584.261719 232.351562 585.070312 231.359375 586.046875 230.4375 L 586.105469 230.253906 L 586.03125 230.074219 L 585.871094 230 L 585.59375 230 L 585.445312 230.054688 C 584.363281 230.875 583.417969 231.832031 582.613281 232.925781 C 581.800781 234.019531 581.136719 235.191406 580.613281 236.445312 C 580.09375 237.699219 579.707031 239.003906 579.453125 240.363281 C 579.199219 241.71875 579.074219 243.089844 579.074219 244.476562 C 579.074219 245.84375 579.199219 247.203125 579.453125 248.5625 C 579.707031 249.917969 580.089844 251.21875 580.601562 252.464844 C 581.113281 253.707031 581.769531 254.878906 582.574219 255.976562 C 583.378906 257.074219 584.335938 258.046875 585.445312 258.894531 Z M 585.59375 258.953125 "/>
<path style=" stroke:none;fill-rule:nonzero;fill:rgb(0%,100%,100%);fill-opacity:1;" d="M 594 251.714844 L 594 250.242188 C 593.816406 250.242188 593.578125 250.21875 593.292969 250.171875 C 593.007812 250.125 592.863281 250.070312 592.863281 250.003906 L 595.847656 246.710938 L 598.917969 250.242188 L 597.8125 250.242188 L 597.8125 251.714844 L 604.839844 251.714844 L 604.839844 250.242188 L 602.613281 250.242188 L 597.78125 244.589844 L 601.421875 240.601562 C 601.59375 240.425781 602.527344 240.332031 604.214844 240.332031 L 604.214844 238.863281 L 598.261719 238.863281 L 598.261719 240.332031 C 598.4375 240.332031 598.667969 240.351562 598.953125 240.390625 C 599.238281 240.425781 599.382812 240.488281 599.382812 240.574219 L 596.792969 243.429688 L 594.117188 240.332031 L 595.191406 240.332031 L 595.191406 238.863281 L 588.179688 238.863281 L 588.179688 240.332031 L 590.390625 240.332031 L 594.859375 245.550781 L 590.839844 249.976562 C 590.65625 250.15625 589.722656 250.242188 588.03125 250.242188 L 588.03125 251.714844 Z M 594 251.714844 "/>
<path style=" stroke:none;fill-rule:nonzero;fill:rgb(0%,100%,100%);fill-opacity:1;" d="M 607.507812 258.953125 L 607.652344 258.894531 C 608.765625 258.046875 609.71875 257.078125 610.519531 255.992188 C 611.316406 254.902344 611.976562 253.714844 612.5 252.429688 C 613.019531 251.140625 613.402344 249.835938 613.636719 248.511719 C 613.878906 247.1875 613.996094 245.84375 613.996094 244.476562 C 613.996094 242.628906 613.777344 240.820312 613.332031 239.046875 C 612.886719 237.277344 612.1875 235.605469 611.234375 234.042969 C 610.28125 232.476562 609.085938 231.148438 607.652344 230.054688 L 607.507812 230 L 607.230469 230 L 607.046875 230.074219 L 606.96875 230.253906 L 607.085938 230.496094 C 610.457031 233.679688 612.140625 238.339844 612.140625 244.476562 C 612.140625 250.613281 610.433594 255.289062 607.027344 258.515625 L 606.96875 258.699219 C 606.96875 258.867188 607.054688 258.953125 607.230469 258.953125 Z M 640.285156 251.714844 C 640.449219 251.714844 640.53125 251.640625 640.53125 251.488281 L 640.523438 251.4375 L 640.503906 251.390625 L 630.199219 231.300781 C 630.113281 231.09375 629.929688 230.988281 629.660156 230.988281 L 629.25 230.988281 C 628.976562 230.988281 628.796875 231.09375 628.707031 231.300781 L 618.40625 251.390625 L 618.398438 251.445312 L 618.375 251.488281 C 618.375 251.640625 618.457031 251.714844 618.625 251.714844 Z M 628.488281 234.027344 L 636.367188 249.394531 L 620.597656 249.394531 Z M 628.488281 234.027344 "/>
<g clip-path="url(#clip5)" clip-rule="nonzero">
<path style=" stroke:none;fill-rule:nonzero;fill:rgb(0%,100%,100%);fill-opacity:1;" d="M 648.390625 251.714844 L 648.390625 250.242188 C 648.207031 250.242188 647.972656 250.21875 647.6875 250.171875 C 647.398438 250.125 647.257812 250.070312 647.257812 250.003906 L 650.238281 246.710938 L 653.3125 250.242188 L 652.203125 250.242188 L 652.203125 251.714844 L 659.230469 251.714844 L 659.230469 250.242188 L 657.007812 250.242188 L 652.175781 244.589844 L 655.8125 240.601562 C 655.988281 240.425781 656.917969 240.332031 658.605469 240.332031 L 658.605469 238.863281 L 652.65625 238.863281 L 652.65625 240.332031 C 652.832031 240.332031 653.058594 240.351562 653.347656 240.390625 C 653.632812 240.425781 653.777344 240.488281 653.777344 240.574219 L 651.183594 243.429688 L 648.507812 240.332031 L 649.585938 240.332031 L 649.585938 238.863281 L 642.570312 238.863281 L 642.570312 240.332031 L 644.785156 240.332031 L 649.25 245.550781 L 645.234375 249.976562 C 645.050781 250.15625 644.113281 250.242188 642.425781 250.242188 L 642.425781 251.714844 Z M 648.390625 251.714844 "/>
</g>
<path style=" stroke:none;fill-rule:nonzero;fill:rgb(39.99939%,100%,100%);fill-opacity:1;" d="M 83.328125 154.914062 L 88.179688 155.75 L 87.753906 158.222656 L 82.898438 157.386719 "/>
<path style=" stroke:none;fill-rule:nonzero;fill:rgb(39.99939%,100%,100%);fill-opacity:1;" d="M 93.035156 156.585938 L 97.886719 157.421875 L 97.460938 159.898438 L 92.605469 159.058594 "/>
<path style=" stroke:none;fill-rule:nonzero;fill:rgb(39.99939%,100%,100%);fill-opacity:1;" d="M 102.78125 158.269531 L 107.636719 159.273438 L 107.128906 161.730469 L 102.273438 160.726562 "/>
<path style=" stroke:none;fill-rule:nonzero;fill:rgb(39.99939%,100%,100%);fill-opacity:1;" d="M 112.617188 160.101562 L 117.46875 160.9375 L 117.042969 163.410156 L 112.1875 162.574219 "/>
<path style=" stroke:none;fill-rule:nonzero;fill:rgb(39.99939%,100%,100%);fill-opacity:1;" d="M 122.363281 161.78125 L 127.21875 162.785156 L 126.707031 165.246094 L 121.855469 164.242188 "/>
<path style=" stroke:none;fill-rule:nonzero;fill:rgb(39.99939%,100%,100%);fill-opacity:1;" d="M 132.03125 163.617188 L 136.882812 164.453125 L 136.457031 166.925781 L 131.601562 166.089844 "/>
<path style=" stroke:none;fill-rule:nonzero;fill:rgb(39.99939%,100%,100%);fill-opacity:1;" d="M 141.910156 165.289062 L 146.597656 166.128906 L 146.15625 168.601562 L 141.46875 167.761719 "/>
<path style=" stroke:none;fill-rule:nonzero;fill:rgb(39.99939%,100%,100%);fill-opacity:1;" d="M 151.652344 166.972656 L 156.503906 167.976562 L 155.996094 170.433594 L 151.144531 169.429688 "/>
<path style=" stroke:none;fill-rule:nonzero;fill:rgb(39.99939%,100%,100%);fill-opacity:1;" d="M 161.316406 168.804688 L 166.171875 169.640625 L 165.746094 172.113281 L 160.890625 171.277344 "/>
<path style=" stroke:none;fill-rule:nonzero;fill:rgb(39.99939%,100%,100%);fill-opacity:1;" d="M 171.023438 170.476562 L 175.878906 171.316406 L 175.453125 173.789062 L 170.597656 172.953125 "/>
<path style=" stroke:none;fill-rule:nonzero;fill:rgb(39.99939%,100%,100%);fill-opacity:1;" d="M 180.898438 172.320312 L 185.753906 173.15625 L 185.328125 175.628906 L 180.472656 174.792969 "/>
<path style=" stroke:none;fill-rule:nonzero;fill:rgb(39.99939%,100%,100%);fill-opacity:1;" d="M 190.605469 173.992188 L 195.460938 174.828125 L 195.035156 177.304688 L 190.179688 176.464844 "/>
<path style=" stroke:none;fill-rule:nonzero;fill:rgb(39.99939%,100%,100%);fill-opacity:1;" d="M 200.355469 175.675781 L 205.207031 176.679688 L 204.699219 179.136719 L 199.847656 178.132812 "/>
<path style=" stroke:none;fill-rule:nonzero;fill:rgb(39.99939%,100%,100%);fill-opacity:1;" d="M 210.019531 177.507812 L 214.875 178.34375 L 214.449219 180.816406 L 209.59375 179.980469 "/>
<path style=" stroke:none;fill-rule:nonzero;fill:rgb(39.99939%,100%,100%);fill-opacity:1;" d="M 219.894531 179.179688 L 224.75 180.015625 L 224.320312 182.492188 L 219.46875 181.65625 "/>
<path style=" stroke:none;fill-rule:nonzero;fill:rgb(39.99939%,100%,100%);fill-opacity:1;" d="M 229.644531 180.863281 L 234.496094 181.867188 L 233.988281 184.324219 L 229.132812 183.320312 "/>
<path style=" stroke:none;fill-rule:nonzero;fill:rgb(39.99939%,100%,100%);fill-opacity:1;" d="M 239.308594 182.695312 L 244.164062 183.53125 L 243.734375 186.003906 L 238.882812 185.167969 "/>
<path style=" stroke:none;fill-rule:nonzero;fill:rgb(39.99939%,100%,100%);fill-opacity:1;" d="M 249.007812 184.367188 L 254.03125 185.203125 L 253.617188 187.679688 L 248.597656 186.84375 "/>
<path style=" stroke:none;fill-rule:nonzero;fill:rgb(39.99939%,100%,100%);fill-opacity:1;" d="M 258.890625 186.210938 L 263.746094 187.046875 L 263.316406 189.519531 L 258.464844 188.683594 "/>
<path style=" stroke:none;fill-rule:nonzero;fill:rgb(39.99939%,100%,100%);fill-opacity:1;" d="M 268.597656 187.882812 L 273.453125 188.71875 L 273.023438 191.195312 L 268.171875 190.355469 "/>
<path style=" stroke:none;fill-rule:nonzero;fill:rgb(39.99939%,100%,100%);fill-opacity:1;" d="M 278.347656 189.566406 L 283.199219 190.570312 L 282.691406 193.027344 L 277.835938 192.023438 "/>
<path style=" stroke:none;fill-rule:nonzero;fill:rgb(39.99939%,100%,100%);fill-opacity:1;" d="M 288.003906 191.398438 L 293.027344 192.234375 L 292.613281 194.710938 L 287.589844 193.875 "/>
<path style=" stroke:none;fill-rule:nonzero;fill:rgb(39.99939%,100%,100%);fill-opacity:1;" d="M 297.886719 193.070312 L 302.738281 193.910156 L 302.3125 196.382812 L 297.460938 195.546875 "/>
<path style=" stroke:none;fill-rule:nonzero;fill:rgb(39.99939%,100%,100%);fill-opacity:1;" d="M 307.632812 194.753906 L 312.488281 195.757812 L 311.980469 198.214844 L 307.125 197.210938 "/>
<path style=" stroke:none;fill-rule:nonzero;fill:rgb(39.99939%,100%,100%);fill-opacity:1;" d="M 317.292969 196.585938 L 322.316406 197.421875 L 321.902344 199.898438 L 316.878906 199.0625 "/>
<path style=" stroke:none;fill-rule:nonzero;fill:rgb(39.99939%,100%,100%);fill-opacity:1;" d="M 327.214844 198.269531 L 332.070312 199.273438 L 331.5625 201.730469 L 326.707031 200.726562 "/>
<path style=" stroke:none;fill-rule:nonzero;fill:rgb(39.99939%,100%,100%);fill-opacity:1;" d="M 336.882812 200.101562 L 341.734375 200.9375 L 341.308594 203.410156 L 336.457031 202.574219 "/>
<path style=" stroke:none;fill-rule:nonzero;fill:rgb(39.99939%,100%,100%);fill-opacity:1;" d="M 346.589844 201.773438 L 351.441406 202.613281 L 351.015625 205.085938 L 346.164062 204.25 "/>
<path style=" stroke:none;fill-rule:nonzero;fill:rgb(39.99939%,100%,100%);fill-opacity:1;" d="M 356.328125 203.453125 L 361.351562 204.457031 L 360.859375 206.921875 L 355.835938 205.917969 "/>
<path style=" stroke:none;fill-rule:evenodd;fill:rgb(39.99939%,100%,100%);fill-opacity:1;" d="M 390.894531 210.878906 L 365.957031 197.320312 L 362.777344 215.0625 Z M 390.894531 210.878906 "/>
<path style=" stroke:none;fill-rule:nonzero;fill:rgb(100%,100%,100%);fill-opacity:1;" d="M 81.699219 384.433594 L 81.699219 28.621094 L 85.535156 28.621094 L 85.535156 384.433594 "/>
<path style=" stroke:none;fill-rule:evenodd;fill:rgb(100%,100%,100%);fill-opacity:1;" d="M 83.617188 0 L 73.742188 30.125 L 93.65625 30.125 Z M 83.617188 0 "/>
<path style=" stroke:none;fill-rule:nonzero;fill:rgb(100%,100%,100%);fill-opacity:1;" d="M 372.148438 308.441406 L 100.855469 308.441406 L 100.855469 306.785156 L 372.148438 306.785156 "/>
<path style=" stroke:none;fill-rule:evenodd;fill:rgb(100%,100%,100%);fill-opacity:1;" d="M 389.222656 307.613281 L 371.3125 301.589844 L 371.3125 313.636719 Z M 389.222656 307.613281 "/>
<path style=" stroke:none;fill-rule:evenodd;fill:rgb(100%,100%,100%);fill-opacity:1;" d="M 83.617188 307.613281 L 101.523438 313.636719 L 101.523438 301.589844 Z M 83.617188 307.613281 "/>
<path style=" stroke:none;fill-rule:nonzero;fill:rgb(100%,100%,100%);fill-opacity:1;" d="M 390.050781 211.714844 L 390.050781 317.152344 L 388.390625 317.152344 L 388.390625 211.714844 "/>
<path style=" stroke:none;fill-rule:nonzero;fill:rgb(100%,100%,100%);fill-opacity:1;" d="M 84.445312 211.714844 L 84.445312 317.152344 L 82.789062 317.152344 L 82.789062 211.714844 "/>
<path style=" stroke:none;fill-rule:nonzero;fill:rgb(100%,100%,100%);fill-opacity:1;" d="M 199.285156 287.210938 C 198.371094 287.609375 197.503906 288.007812 196.636719 288.40625 L 196.636719 283.929688 L 199.378906 283.929688 C 199.683594 283.929688 199.917969 283.8125 199.964844 283.554688 C 199.308594 282.851562 198.230469 281.914062 198.230469 281.914062 L 197.246094 283.226562 L 196.636719 283.226562 L 196.636719 278.792969 C 197.199219 278.722656 197.433594 278.488281 197.503906 278.160156 L 195.160156 277.902344 L 195.160156 283.226562 L 191.949219 283.226562 L 192.136719 283.929688 L 195.160156 283.929688 L 195.160156 289.039062 C 193.730469 289.671875 192.535156 290.164062 191.902344 290.375 L 192.816406 292.277344 C 193.027344 292.183594 193.214844 291.925781 193.238281 291.640625 C 193.914062 291.21875 194.546875 290.796875 195.160156 290.398438 L 195.160156 296.917969 C 195.160156 297.269531 195.042969 297.386719 194.667969 297.386719 C 194.265625 297.386719 192.253906 297.222656 192.253906 297.222656 L 192.253906 297.621094 C 193.144531 297.738281 193.660156 297.925781 193.960938 298.207031 C 194.242188 298.464844 194.335938 298.863281 194.40625 299.378906 C 196.402344 299.144531 196.636719 298.371094 196.636719 297.105469 L 196.636719 289.414062 C 197.761719 288.6875 198.675781 288.03125 199.449219 287.515625 Z M 209.949219 291.453125 C 209.109375 293.003906 207.867188 294.335938 206.316406 295.464844 C 204.511719 294.40625 203.035156 293.097656 202.050781 291.453125 Z M 211.125 289.835938 L 210.066406 290.75 L 206.832031 290.75 L 206.832031 288.453125 L 210.726562 288.453125 L 210.726562 289.296875 L 210.960938 289.296875 C 211.429688 289.296875 212.132812 288.945312 212.15625 288.828125 L 212.15625 281.070312 C 212.625 280.976562 213 280.765625 213.140625 280.578125 L 211.335938 279.191406 L 210.492188 280.085938 L 207.539062 280.085938 L 207.75 280.789062 L 210.726562 280.789062 L 210.726562 283.976562 L 207.726562 283.976562 L 207.914062 284.679688 L 210.726562 284.679688 L 210.726562 287.75 L 206.832031 287.75 L 206.832031 278.839844 C 207.421875 278.769531 207.632812 278.511719 207.703125 278.183594 L 205.425781 277.925781 L 205.425781 287.75 L 201.511719 287.75 L 201.511719 284.65625 L 204.347656 284.65625 C 204.628906 284.65625 204.839844 284.539062 204.886719 284.304688 C 204.394531 283.71875 203.503906 283.015625 203.503906 283.015625 L 202.753906 283.976562 L 201.511719 283.976562 L 201.511719 280.929688 C 202.496094 280.554688 203.644531 280.0625 204.300781 279.757812 C 204.722656 279.898438 204.933594 279.875 205.050781 279.6875 L 203.574219 278.277344 C 202.988281 278.863281 202.097656 279.734375 201.277344 280.367188 L 200.105469 279.804688 L 200.105469 289.8125 L 200.316406 289.8125 C 201.042969 289.8125 201.511719 289.4375 201.511719 289.320312 L 201.511719 288.453125 L 205.425781 288.453125 L 205.425781 290.75 L 199.472656 290.75 L 199.683594 291.453125 L 201.464844 291.453125 C 202.355469 293.378906 203.644531 294.921875 205.238281 296.191406 C 203.222656 297.410156 200.761719 298.324219 197.925781 298.957031 L 198.089844 299.355469 C 201.277344 298.863281 203.996094 298.042969 206.175781 296.847656 C 207.890625 297.972656 209.925781 298.792969 212.203125 299.378906 C 212.390625 298.675781 212.859375 298.253906 213.46875 298.160156 L 213.492188 297.902344 C 211.335938 297.527344 209.296875 296.917969 207.515625 296.074219 C 209.296875 294.875 210.703125 293.425781 211.757812 291.664062 C 212.320312 291.640625 212.578125 291.570312 212.765625 291.382812 Z M 221.214844 293.867188 C 219.996094 295.417969 217.535156 297.410156 215.261719 298.605469 L 215.496094 298.910156 C 218.121094 298.042969 220.839844 296.472656 222.269531 295.136719 C 222.785156 295.253906 222.996094 295.183594 223.136719 294.945312 Z M 228.929688 294.359375 C 230.898438 295.324219 233.617188 297.199219 234.671875 298.769531 C 236.6875 299.472656 236.804688 295.488281 229.140625 294.078125 Z M 234.90625 282.828125 L 233.851562 283.882812 L 226.792969 283.882812 L 226.792969 281.28125 L 234.671875 281.28125 C 235 281.28125 235.234375 281.164062 235.304688 280.90625 C 234.460938 280.15625 233.148438 279.167969 233.148438 279.167969 L 231.953125 280.578125 L 226.792969 280.578125 L 226.792969 278.816406 C 227.382812 278.746094 227.617188 278.511719 227.664062 278.183594 L 225.292969 277.925781 L 225.292969 280.578125 L 217.816406 280.578125 L 218.027344 281.28125 L 225.292969 281.28125 L 225.292969 283.882812 L 218.308594 283.882812 C 218.285156 283.554688 218.261719 283.226562 218.191406 282.851562 L 217.792969 282.828125 C 217.605469 284.773438 216.667969 285.875 215.613281 286.320312 C 214.371094 287.9375 218.167969 288.804688 218.308594 284.585938 L 225.179688 284.585938 C 224.003906 285.546875 221.402344 287.304688 219.316406 287.914062 C 219.128906 287.984375 218.753906 288.054688 218.753906 288.054688 L 219.433594 289.742188 C 219.574219 289.671875 219.738281 289.601562 219.878906 289.414062 C 222.199219 289.132812 224.382812 288.804688 226.207031 288.5 C 223.699219 289.742188 220.652344 291.03125 218.121094 291.734375 C 217.863281 291.828125 217.347656 291.851562 217.347656 291.851562 L 218.097656 293.726562 C 218.261719 293.679688 218.425781 293.5625 218.566406 293.355469 C 220.980469 293.167969 223.230469 292.957031 225.292969 292.746094 L 225.292969 297.316406 C 225.292969 297.574219 225.199219 297.714844 224.851562 297.714844 C 224.429688 297.714844 222.644531 297.597656 222.644531 297.597656 L 222.644531 297.949219 C 223.511719 298.042969 223.980469 298.207031 224.238281 298.417969 C 224.5 298.628906 224.59375 298.980469 224.617188 299.378906 C 226.511719 299.191406 226.792969 298.488281 226.792969 297.316406 L 226.792969 292.605469 C 229.023438 292.394531 230.96875 292.183594 232.585938 291.996094 C 233.21875 292.652344 233.710938 293.285156 233.96875 293.914062 C 235.75 294.851562 236.289062 291.007812 229.820312 289.4375 L 229.609375 289.648438 C 230.382812 290.117188 231.273438 290.773438 232.046875 291.476562 C 227.167969 291.734375 222.597656 291.902344 219.667969 291.996094 C 223.863281 290.796875 228.4375 288.96875 230.945312 287.679688 C 231.484375 287.914062 231.835938 287.796875 232 287.609375 L 230.265625 286.203125 C 229.65625 286.625 228.8125 287.117188 227.851562 287.65625 C 225.269531 287.84375 222.785156 288.03125 220.980469 288.125 C 222.855469 287.46875 224.78125 286.554688 225.996094 285.875 C 226.535156 286.0625 226.863281 285.851562 227.003906 285.664062 L 225.386719 284.585938 L 233.921875 284.585938 C 233.640625 285.476562 233.242188 286.625 232.867188 287.398438 L 233.171875 287.585938 C 234.109375 286.90625 235.28125 285.757812 235.890625 284.890625 C 236.335938 284.867188 236.617188 284.820312 236.804688 284.632812 Z M 245.070312 281.445312 L 245.070312 284 L 245.304688 284 C 245.9375 284 246.59375 283.789062 246.59375 283.578125 L 246.59375 281.445312 L 252.195312 281.445312 L 252.195312 283.929688 L 252.453125 283.929688 C 253.203125 283.90625 253.71875 283.625 253.71875 283.484375 L 253.71875 281.445312 L 259.414062 281.445312 C 259.742188 281.445312 259.976562 281.328125 260.023438 281.070312 C 259.296875 280.367188 258.007812 279.332031 258.007812 279.332031 L 256.882812 280.765625 L 253.71875 280.765625 L 253.71875 278.792969 C 254.304688 278.722656 254.492188 278.488281 254.539062 278.160156 L 252.195312 277.925781 L 252.195312 280.765625 L 246.59375 280.765625 L 246.59375 278.792969 C 247.152344 278.722656 247.363281 278.488281 247.410156 278.160156 L 245.070312 277.925781 L 245.070312 280.765625 L 238.902344 280.765625 L 239.066406 281.445312 Z M 240.613281 283.90625 C 241.644531 284.492188 242.839844 285.640625 243.214844 286.625 C 244.882812 287.445312 245.632812 284.164062 240.824219 283.671875 Z M 238.691406 287.46875 C 239.699219 288.03125 240.847656 289.15625 241.175781 290.164062 C 242.792969 291.03125 243.636719 287.726562 238.878906 287.234375 Z M 246.335938 285.40625 C 241.644531 292.816406 241.644531 292.816406 241.152344 293.515625 C 240.894531 293.9375 240.824219 293.9375 240.542969 293.9375 L 239.417969 293.9375 L 239.417969 294.453125 C 239.886719 294.476562 240.238281 294.546875 240.542969 294.710938 C 241.058594 295.019531 241.175781 296.355469 240.917969 298.417969 C 240.988281 299.027344 241.246094 299.378906 241.644531 299.378906 C 242.441406 299.378906 242.863281 298.863281 242.886719 297.996094 C 242.957031 296.496094 242.371094 295.652344 242.371094 294.804688 C 242.371094 294.3125 242.582031 293.679688 242.816406 293.074219 C 243.191406 292.207031 245.632812 287.726562 246.707031 285.546875 Z M 259.320312 294.195312 L 259.015625 294.195312 C 258.710938 295.535156 258.429688 296.636719 258.21875 296.988281 C 258.101562 297.199219 257.960938 297.269531 257.609375 297.292969 C 257.140625 297.339844 255.96875 297.363281 254.421875 297.363281 L 251.070312 297.363281 C 249.757812 297.363281 249.570312 297.175781 249.570312 296.636719 L 249.570312 285.898438 L 255.664062 285.898438 L 255.664062 291.125 C 255.664062 291.429688 255.546875 291.570312 255.125 291.570312 C 254.5625 291.570312 252.265625 291.40625 252.265625 291.40625 L 252.265625 291.78125 C 253.296875 291.902344 253.882812 292.113281 254.234375 292.371094 C 254.539062 292.605469 254.65625 292.980469 254.726562 293.449219 C 256.882812 293.238281 257.164062 292.488281 257.164062 291.289062 L 257.164062 286.179688 C 257.632812 286.109375 258.03125 285.898438 258.171875 285.734375 L 256.203125 284.28125 L 255.429688 285.195312 L 249.851562 285.195312 L 248.046875 284.445312 L 248.046875 296.917969 C 248.046875 298.394531 248.632812 298.769531 250.90625 298.769531 L 254.375 298.769531 C 259.203125 298.769531 260.144531 298.535156 260.144531 297.761719 C 260.144531 297.457031 259.976562 297.269531 259.367188 297.082031 Z M 277.644531 288.570312 L 276.84375 289.390625 L 273 289.390625 L 273 286.835938 L 277.949219 286.835938 C 278.273438 286.835938 278.484375 286.71875 278.554688 286.460938 C 277.855469 285.78125 276.75 284.914062 276.75 284.914062 L 275.789062 286.132812 L 273 286.132812 L 273 283.601562 L 278.296875 283.601562 C 278.625 283.601562 278.835938 283.484375 278.90625 283.226562 C 278.226562 282.570312 277.148438 281.726562 277.148438 281.726562 L 276.164062 282.898438 L 273 282.898438 L 273 281.46875 C 273.585938 281.375 273.796875 281.140625 273.867188 280.8125 L 271.546875 280.554688 L 271.546875 282.898438 L 266.25 282.898438 L 266.4375 283.601562 L 271.546875 283.601562 L 271.546875 286.132812 L 267.164062 286.132812 L 267.351562 286.835938 L 271.546875 286.835938 L 271.546875 289.390625 L 266.132812 289.390625 L 266.320312 290.09375 L 271.546875 290.09375 L 271.546875 296.097656 L 271.828125 296.097656 C 272.367188 296.097656 273 295.769531 273 295.558594 L 273 290.09375 L 277.054688 290.09375 C 276.984375 291.996094 276.84375 292.957031 276.585938 293.214844 C 276.445312 293.308594 276.304688 293.355469 276 293.355469 C 275.648438 293.355469 274.640625 293.285156 274.03125 293.238281 L 274.03125 293.632812 C 274.570312 293.726562 275.132812 293.84375 275.367188 294.054688 C 275.648438 294.242188 275.695312 294.570312 275.695312 294.945312 C 276.375 294.945312 277.007812 294.804688 277.457031 294.453125 C 278.109375 293.960938 278.34375 292.769531 278.4375 290.234375 C 278.859375 290.164062 279.140625 290.070312 279.28125 289.882812 Z M 265.101562 279.992188 L 280.621094 279.992188 L 280.621094 297.082031 L 265.101562 297.082031 Z M 281.277344 278.324219 L 280.382812 279.308594 L 265.242188 279.308594 L 263.574219 278.511719 L 263.574219 299.402344 L 263.855469 299.402344 C 264.535156 299.402344 265.101562 298.980469 265.101562 298.769531 L 265.101562 297.761719 L 280.621094 297.761719 L 280.621094 299.191406 L 280.832031 299.191406 C 281.394531 299.191406 282.121094 298.746094 282.144531 298.582031 L 282.144531 280.296875 C 282.613281 280.203125 283.011719 280.015625 283.152344 279.828125 Z M 281.277344 278.324219 "/>
</g>
</svg>
