<?xml version="1.0" encoding="UTF-8"?>
<svg xmlns="http://www.w3.org/2000/svg" xmlns:xlink="http://www.w3.org/1999/xlink" width="457.539pt" height="425.838pt" viewBox="0 0 457.539 425.838" version="1.1">
<defs>
<clipPath id="clip1">
  <path d="M 81 419 L 89 419 L 89 425.839844 L 81 425.839844 Z M 81 419 "/>
</clipPath>
<clipPath id="clip2">
  <path d="M 445 181 L 457.539062 181 L 457.539062 194 L 445 194 Z M 445 181 "/>
</clipPath>
</defs>
<g id="surface1">
<path style=" stroke:none;fill-rule:evenodd;fill:rgb(79.998779%,100%,79.998779%);fill-opacity:1;" d="M 180.105469 65.601562 L 77.519531 174.964844 L 117.738281 351.664062 L 242.316406 351.664062 L 282.539062 174.964844 Z M 180.105469 65.601562 "/>
<path style=" stroke:none;fill-rule:nonzero;fill:rgb(100%,100%,100%);fill-opacity:1;" d="M 180.105469 65.601562 L 180.925781 66.375 L 78.753906 175.300781 L 118.640625 350.535156 L 241.417969 350.535156 L 281.300781 175.300781 L 179.28125 66.375 L 180.105469 65.601562 L 180.925781 66.375 L 180.105469 65.601562 L 180.925781 64.828125 L 283.363281 174.191406 C 283.617188 174.464844 283.722656 174.851562 283.636719 175.214844 L 243.417969 351.914062 C 243.300781 352.429688 242.847656 352.792969 242.316406 352.792969 L 117.738281 352.792969 C 117.210938 352.792969 116.757812 352.429688 116.636719 351.914062 L 76.417969 175.214844 C 76.335938 174.851562 76.4375 174.464844 76.695312 174.191406 L 179.28125 64.828125 C 179.492188 64.601562 179.792969 64.472656 180.105469 64.472656 C 180.414062 64.472656 180.714844 64.601562 180.925781 64.828125 Z M 180.105469 65.601562 "/>
<path style=" stroke:none;fill-rule:nonzero;fill:rgb(100%,100%,100%);fill-opacity:1;" d="M 0 140.847656 L 6.175781 138.136719 L 7.5625 141.296875 L 1.386719 144.007812 "/>
<path style=" stroke:none;fill-rule:nonzero;fill:rgb(100%,100%,100%);fill-opacity:1;" d="M 12.503906 135.273438 L 18.679688 132.5625 L 20.066406 135.722656 L 13.890625 138.433594 "/>
<path style=" stroke:none;fill-rule:nonzero;fill:rgb(100%,100%,100%);fill-opacity:1;" d="M 24.871094 129.695312 L 31.195312 126.980469 L 32.554688 130.15625 L 26.230469 132.867188 "/>
<path style=" stroke:none;fill-rule:nonzero;fill:rgb(100%,100%,100%);fill-opacity:1;" d="M 37.328125 124.289062 L 43.503906 121.429688 L 44.953125 124.5625 L 38.777344 127.425781 "/>
<path style=" stroke:none;fill-rule:nonzero;fill:rgb(100%,100%,100%);fill-opacity:1;" d="M 49.828125 118.71875 L 56.003906 115.855469 L 57.457031 118.988281 L 51.28125 121.851562 "/>
<path style=" stroke:none;fill-rule:nonzero;fill:rgb(100%,100%,100%);fill-opacity:1;" d="M 62.183594 113.144531 L 68.359375 110.28125 L 69.808594 113.414062 L 63.632812 116.277344 "/>
<path style=" stroke:none;fill-rule:nonzero;fill:rgb(100%,100%,100%);fill-opacity:1;" d="M 74.714844 107.554688 L 80.890625 104.84375 L 82.28125 108.007812 L 76.105469 110.71875 "/>
<path style=" stroke:none;fill-rule:nonzero;fill:rgb(100%,100%,100%);fill-opacity:1;" d="M 87.082031 101.976562 L 93.410156 99.265625 L 94.769531 102.4375 L 88.441406 105.148438 "/>
<path style=" stroke:none;fill-rule:nonzero;fill:rgb(100%,100%,100%);fill-opacity:1;" d="M 99.570312 96.410156 L 105.746094 93.695312 L 107.136719 96.859375 L 100.960938 99.570312 "/>
<path style=" stroke:none;fill-rule:nonzero;fill:rgb(100%,100%,100%);fill-opacity:1;" d="M 112.074219 90.835938 L 118.25 88.125 L 119.636719 91.285156 L 113.460938 93.996094 "/>
<path style=" stroke:none;fill-rule:nonzero;fill:rgb(100%,100%,100%);fill-opacity:1;" d="M 124.394531 85.425781 L 130.570312 82.5625 L 132.023438 85.699219 L 125.847656 88.558594 "/>
<path style=" stroke:none;fill-rule:nonzero;fill:rgb(100%,100%,100%);fill-opacity:1;" d="M 136.898438 79.851562 L 143.074219 76.992188 L 144.527344 80.125 L 138.351562 82.984375 "/>
<path style=" stroke:none;fill-rule:nonzero;fill:rgb(100%,100%,100%);fill-opacity:1;" d="M 149.402344 74.277344 L 155.578125 71.417969 L 157.027344 74.550781 L 150.851562 77.414062 "/>
<path style=" stroke:none;fill-rule:nonzero;fill:rgb(100%,100%,100%);fill-opacity:1;" d="M 161.785156 68.691406 L 167.960938 65.980469 L 169.347656 69.140625 L 163.171875 71.851562 "/>
<path style=" stroke:none;fill-rule:nonzero;fill:rgb(100%,100%,100%);fill-opacity:1;" d="M 174.289062 63.117188 L 180.464844 60.40625 L 181.851562 63.566406 L 175.675781 66.28125 "/>
<path style=" stroke:none;fill-rule:nonzero;fill:rgb(100%,100%,100%);fill-opacity:1;" d="M 186.65625 57.539062 L 192.980469 54.828125 L 194.339844 58 L 188.015625 60.710938 "/>
<path style=" stroke:none;fill-rule:nonzero;fill:rgb(100%,100%,100%);fill-opacity:1;" d="M 199.144531 51.96875 L 205.320312 49.257812 L 206.707031 52.421875 L 200.53125 55.132812 "/>
<path style=" stroke:none;fill-rule:nonzero;fill:rgb(100%,100%,100%);fill-opacity:1;" d="M 211.613281 46.5625 L 217.789062 43.699219 L 219.242188 46.832031 L 213.066406 49.695312 "/>
<path style=" stroke:none;fill-rule:nonzero;fill:rgb(100%,100%,100%);fill-opacity:1;" d="M 223.964844 40.988281 L 230.144531 38.125 L 231.59375 41.257812 L 225.417969 44.121094 "/>
<path style=" stroke:none;fill-rule:nonzero;fill:rgb(100%,100%,100%);fill-opacity:1;" d="M 236.46875 35.414062 L 242.644531 32.550781 L 244.097656 35.6875 L 237.921875 38.546875 "/>
<path style=" stroke:none;fill-rule:nonzero;fill:rgb(100%,100%,100%);fill-opacity:1;" d="M 248.867188 29.820312 L 255.195312 27.109375 L 256.554688 30.285156 L 250.226562 32.996094 "/>
<path style=" stroke:none;fill-rule:nonzero;fill:rgb(100%,100%,100%);fill-opacity:1;" d="M 261.355469 24.253906 L 267.53125 21.542969 L 268.921875 24.703125 L 262.742188 27.414062 "/>
<path style=" stroke:none;fill-rule:nonzero;fill:rgb(100%,100%,100%);fill-opacity:1;" d="M 273.859375 18.679688 L 280.035156 15.96875 L 281.421875 19.128906 L 275.246094 21.839844 "/>
<path style=" stroke:none;fill-rule:nonzero;fill:rgb(100%,100%,100%);fill-opacity:1;" d="M 286.226562 13.101562 L 292.550781 10.386719 L 293.914062 13.5625 L 287.585938 16.273438 "/>
<path style=" stroke:none;fill-rule:nonzero;fill:rgb(100%,100%,100%);fill-opacity:1;" d="M 298.683594 7.699219 L 304.859375 4.835938 L 306.3125 7.96875 L 300.136719 10.832031 "/>
<path style=" stroke:none;fill-rule:nonzero;fill:rgb(100%,100%,100%);fill-opacity:1;" d="M 311.21875 2.109375 L 316.039062 0 L 317.425781 3.164062 L 312.605469 5.273438 "/>
<g clip-path="url(#clip1)" clip-rule="nonzero">
<path style=" stroke:none;fill-rule:nonzero;fill:rgb(100%,100%,100%);fill-opacity:1;" d="M 81.160156 422.703125 L 87.339844 419.84375 L 88.789062 422.976562 L 82.613281 425.835938 "/>
</g>
<path style=" stroke:none;fill-rule:nonzero;fill:rgb(100%,100%,100%);fill-opacity:1;" d="M 93.546875 417.117188 L 99.722656 414.40625 L 101.109375 417.566406 L 94.933594 420.277344 "/>
<path style=" stroke:none;fill-rule:nonzero;fill:rgb(100%,100%,100%);fill-opacity:1;" d="M 106.050781 411.542969 L 112.226562 408.832031 L 113.613281 411.992188 L 107.4375 414.703125 "/>
<path style=" stroke:none;fill-rule:nonzero;fill:rgb(100%,100%,100%);fill-opacity:1;" d="M 118.414062 405.964844 L 124.742188 403.25 L 126.101562 406.425781 L 119.777344 409.136719 "/>
<path style=" stroke:none;fill-rule:nonzero;fill:rgb(100%,100%,100%);fill-opacity:1;" d="M 130.886719 400.554688 L 137.214844 397.691406 L 138.636719 400.835938 L 132.308594 403.699219 "/>
<path style=" stroke:none;fill-rule:nonzero;fill:rgb(100%,100%,100%);fill-opacity:1;" d="M 143.375 394.988281 L 149.550781 392.125 L 151.003906 395.257812 L 144.828125 398.121094 "/>
<path style=" stroke:none;fill-rule:nonzero;fill:rgb(100%,100%,100%);fill-opacity:1;" d="M 155.742188 389.40625 L 162.070312 386.546875 L 163.492188 389.691406 L 157.164062 392.550781 "/>
<path style=" stroke:none;fill-rule:nonzero;fill:rgb(100%,100%,100%);fill-opacity:1;" d="M 168.261719 383.824219 L 174.4375 381.113281 L 175.824219 384.277344 L 169.648438 386.988281 "/>
<path style=" stroke:none;fill-rule:nonzero;fill:rgb(100%,100%,100%);fill-opacity:1;" d="M 180.765625 378.253906 L 186.941406 375.539062 L 188.328125 378.703125 L 182.152344 381.414062 "/>
<path style=" stroke:none;fill-rule:nonzero;fill:rgb(100%,100%,100%);fill-opacity:1;" d="M 193.132812 372.671875 L 199.457031 369.960938 L 200.820312 373.132812 L 194.492188 375.847656 "/>
<path style=" stroke:none;fill-rule:nonzero;fill:rgb(100%,100%,100%);fill-opacity:1;" d="M 205.621094 367.105469 L 211.796875 364.394531 L 213.183594 367.554688 L 207.007812 370.265625 "/>
<path style=" stroke:none;fill-rule:nonzero;fill:rgb(100%,100%,100%);fill-opacity:1;" d="M 217.957031 361.691406 L 224.28125 358.828125 L 225.707031 361.972656 L 219.378906 364.835938 "/>
<path style=" stroke:none;fill-rule:nonzero;fill:rgb(100%,100%,100%);fill-opacity:1;" d="M 230.445312 356.121094 L 236.621094 353.261719 L 238.074219 356.394531 L 231.894531 359.253906 "/>
<path style=" stroke:none;fill-rule:nonzero;fill:rgb(100%,100%,100%);fill-opacity:1;" d="M 242.945312 350.550781 L 249.125 347.6875 L 250.574219 350.820312 L 244.398438 353.683594 "/>
<path style=" stroke:none;fill-rule:nonzero;fill:rgb(100%,100%,100%);fill-opacity:1;" d="M 255.34375 344.953125 L 261.671875 342.242188 L 263.03125 345.417969 L 256.707031 348.128906 "/>
<path style=" stroke:none;fill-rule:nonzero;fill:rgb(100%,100%,100%);fill-opacity:1;" d="M 267.835938 339.386719 L 274.011719 336.675781 L 275.398438 339.835938 L 269.222656 342.550781 "/>
<path style=" stroke:none;fill-rule:nonzero;fill:rgb(100%,100%,100%);fill-opacity:1;" d="M 280.335938 333.8125 L 286.511719 331.101562 L 287.902344 334.265625 L 281.722656 336.976562 "/>
<path style=" stroke:none;fill-rule:nonzero;fill:rgb(100%,100%,100%);fill-opacity:1;" d="M 292.703125 328.234375 L 299.03125 325.523438 L 300.390625 328.695312 L 294.0625 331.40625 "/>
<path style=" stroke:none;fill-rule:nonzero;fill:rgb(100%,100%,100%);fill-opacity:1;" d="M 305.160156 322.832031 L 311.335938 319.96875 L 312.789062 323.101562 L 306.613281 325.964844 "/>
<path style=" stroke:none;fill-rule:nonzero;fill:rgb(100%,100%,100%);fill-opacity:1;" d="M 317.527344 317.25 L 323.855469 314.390625 L 325.277344 317.535156 L 318.949219 320.398438 "/>
<path style=" stroke:none;fill-rule:nonzero;fill:rgb(100%,100%,100%);fill-opacity:1;" d="M 330.015625 311.683594 L 336.191406 308.824219 L 337.644531 311.957031 L 331.46875 314.816406 "/>
<path style=" stroke:none;fill-rule:nonzero;fill:rgb(100%,100%,100%);fill-opacity:1;" d="M 342.550781 306.097656 L 348.726562 303.386719 L 350.113281 306.546875 L 343.9375 309.257812 "/>
<path style=" stroke:none;fill-rule:nonzero;fill:rgb(100%,100%,100%);fill-opacity:1;" d="M 354.917969 300.515625 L 361.242188 297.804688 L 362.605469 300.980469 L 356.277344 303.691406 "/>
<path style=" stroke:none;fill-rule:nonzero;fill:rgb(100%,100%,100%);fill-opacity:1;" d="M 367.40625 294.949219 L 373.582031 292.238281 L 374.96875 295.398438 L 368.792969 298.109375 "/>
<path style=" stroke:none;fill-rule:nonzero;fill:rgb(100%,100%,100%);fill-opacity:1;" d="M 379.742188 289.535156 L 386.066406 286.671875 L 387.492188 289.816406 L 381.164062 292.679688 "/>
<path style=" stroke:none;fill-rule:nonzero;fill:rgb(100%,100%,100%);fill-opacity:1;" d="M 392.222656 283.96875 L 397.042969 281.710938 L 398.507812 284.835938 L 393.6875 287.097656 "/>
<path style=" stroke:none;fill-rule:nonzero;fill:rgb(100%,100%,100%);fill-opacity:1;" d="M 181.046875 33.214844 L 181.53125 27.84375 L 180.164062 27.84375 C 180.09375 28.683594 179.992188 29.363281 179.863281 29.875 C 179.730469 30.386719 179.480469 30.824219 179.113281 31.179688 C 178.832031 31.441406 178.5 31.640625 178.121094 31.769531 C 177.738281 31.902344 177.378906 31.984375 177.042969 32.019531 C 176.703125 32.054688 176.273438 32.070312 175.746094 32.070312 L 173.851562 32.070312 L 181.347656 22.664062 C 181.417969 22.515625 181.453125 22.40625 181.453125 22.347656 L 181.453125 22.117188 C 181.453125 21.972656 181.410156 21.859375 181.320312 21.777344 C 181.234375 21.691406 181.117188 21.648438 180.96875 21.648438 L 170.710938 21.648438 L 170.382812 26.304688 L 171.761719 26.304688 C 171.761719 25.339844 171.90625 24.59375 172.195312 24.074219 C 172.484375 23.550781 172.921875 23.191406 173.511719 22.992188 C 174.097656 22.789062 174.878906 22.691406 175.851562 22.691406 L 177.574219 22.691406 L 170.09375 32.144531 L 169.960938 32.464844 L 169.960938 32.742188 C 169.960938 32.886719 170.003906 33.003906 170.09375 33.089844 C 170.179688 33.171875 170.292969 33.214844 170.433594 33.214844 Z M 181.046875 33.214844 "/>
<path style=" stroke:none;fill-rule:nonzero;fill:rgb(100%,100%,100%);fill-opacity:1;" d="M 191.503906 36.832031 L 191.503906 36.101562 C 189.761719 36.101562 188.886719 35.917969 188.886719 35.558594 L 188.886719 24.949219 L 188.667969 24.726562 L 188.324219 24.726562 C 187.863281 25.152344 187.304688 25.453125 186.648438 25.628906 C 185.992188 25.804688 185.289062 25.890625 184.535156 25.890625 L 184.535156 26.621094 C 185.660156 26.621094 186.574219 26.457031 187.28125 26.132812 L 187.28125 35.558594 C 187.28125 35.917969 186.410156 36.101562 184.664062 36.101562 L 184.664062 36.832031 Z M 191.503906 36.832031 "/>
<path style=" stroke:none;fill-rule:nonzero;fill:rgb(100%,100%,100%);fill-opacity:1;" d="M 266.457031 379.078125 L 266.945312 373.710938 L 265.574219 373.710938 C 265.507812 374.550781 265.40625 375.226562 265.273438 375.738281 C 265.140625 376.253906 264.890625 376.6875 264.523438 377.042969 C 264.246094 377.304688 263.914062 377.503906 263.53125 377.636719 C 263.152344 377.765625 262.789062 377.851562 262.453125 377.882812 C 262.117188 377.917969 261.683594 377.933594 261.15625 377.933594 L 259.265625 377.933594 L 266.761719 368.53125 C 266.828125 368.378906 266.867188 368.273438 266.867188 368.210938 L 266.867188 367.984375 C 266.867188 367.839844 266.820312 367.722656 266.734375 367.640625 C 266.644531 367.554688 266.527344 367.511719 266.378906 367.511719 L 256.121094 367.511719 L 255.792969 372.167969 L 257.171875 372.167969 C 257.171875 371.203125 257.316406 370.457031 257.605469 369.9375 C 257.898438 369.414062 258.335938 369.054688 258.921875 368.855469 C 259.511719 368.65625 260.289062 368.554688 261.261719 368.554688 L 262.988281 368.554688 L 255.503906 378.011719 L 255.371094 378.328125 L 255.371094 378.609375 C 255.371094 378.753906 255.414062 378.867188 255.503906 378.953125 C 255.59375 379.039062 255.703125 379.078125 255.847656 379.078125 Z M 266.457031 379.078125 "/>
<path style=" stroke:none;fill-rule:nonzero;fill:rgb(100%,100%,100%);fill-opacity:1;" d="M 276.914062 382.695312 L 277.480469 379.304688 L 276.757812 379.304688 C 276.691406 379.726562 276.621094 380.082031 276.554688 380.371094 C 276.488281 380.664062 276.398438 380.863281 276.285156 380.976562 C 276.253906 381.007812 276.042969 381.027344 275.648438 381.042969 C 275.253906 381.058594 274.796875 381.066406 274.277344 381.070312 C 273.757812 381.074219 273.257812 381.074219 272.785156 381.074219 L 271.046875 381.074219 L 273.359375 379.179688 C 273.554688 379.011719 273.980469 378.683594 274.632812 378.195312 C 275.285156 377.707031 275.796875 377.285156 276.167969 376.925781 C 276.535156 376.570312 276.847656 376.160156 277.101562 375.695312 C 277.351562 375.230469 277.480469 374.726562 277.480469 374.1875 C 277.480469 373.4375 277.269531 372.789062 276.847656 372.242188 C 276.425781 371.695312 275.871094 371.28125 275.1875 371.003906 C 274.503906 370.726562 273.78125 370.589844 273.015625 370.589844 C 272.375 370.589844 271.753906 370.726562 271.148438 370.996094 C 270.546875 371.265625 270.054688 371.648438 269.679688 372.148438 C 269.304688 372.648438 269.117188 373.222656 269.117188 373.875 C 269.117188 374.148438 269.21875 374.382812 269.421875 374.578125 C 269.625 374.773438 269.871094 374.871094 270.160156 374.871094 C 270.457031 374.871094 270.703125 374.773438 270.898438 374.578125 C 271.097656 374.382812 271.195312 374.148438 271.195312 373.875 C 271.195312 373.589844 271.097656 373.351562 270.90625 373.15625 C 270.710938 372.964844 270.464844 372.867188 270.160156 372.867188 L 270.105469 372.867188 C 270.339844 372.386719 270.6875 372.011719 271.15625 371.734375 C 271.621094 371.457031 272.132812 371.320312 272.691406 371.320312 C 273.113281 371.320312 273.496094 371.390625 273.847656 371.53125 C 274.199219 371.667969 274.5 371.871094 274.757812 372.128906 C 275.011719 372.390625 275.210938 372.699219 275.351562 373.050781 C 275.496094 373.40625 275.566406 373.78125 275.566406 374.1875 C 275.566406 374.921875 275.359375 375.601562 274.941406 376.21875 C 274.527344 376.839844 273.945312 377.511719 273.199219 378.226562 C 273.058594 378.363281 272.949219 378.46875 272.875 378.542969 L 272.5625 378.851562 L 269.191406 382.019531 L 269.117188 382.167969 L 269.117188 382.695312 Z M 276.914062 382.695312 "/>
<path style=" stroke:none;fill-rule:nonzero;fill:rgb(100%,100%,100%);fill-opacity:1;" d="M 249.167969 58.574219 L 346.175781 276.246094 L 343.023438 277.648438 L 246.011719 59.976562 "/>
<path style=" stroke:none;fill-rule:evenodd;fill:rgb(100%,100%,100%);fill-opacity:1;" d="M 237.042969 35.625 L 239.90625 63.945312 L 256.328125 56.714844 Z M 237.042969 35.625 "/>
<path style=" stroke:none;fill-rule:evenodd;fill:rgb(100%,100%,100%);fill-opacity:1;" d="M 355.144531 300.445312 L 352.28125 272.125 L 335.863281 279.507812 Z M 355.144531 300.445312 "/>
<path style=" stroke:none;fill-rule:nonzero;fill:rgb(100%,19.999695%,19.999695%);fill-opacity:1;" d="M 181.792969 65.257812 L 183.152344 71.882812 L 179.769531 72.574219 L 178.414062 65.949219 "/>
<path style=" stroke:none;fill-rule:nonzero;fill:rgb(100%,19.999695%,19.999695%);fill-opacity:1;" d="M 184.507812 78.519531 L 185.863281 85.296875 L 182.476562 85.976562 L 181.125 79.199219 "/>
<path style=" stroke:none;fill-rule:nonzero;fill:rgb(100%,19.999695%,19.999695%);fill-opacity:1;" d="M 187.367188 91.917969 L 188.722656 98.546875 L 185.34375 99.238281 L 183.988281 92.609375 "/>
<path style=" stroke:none;fill-rule:nonzero;fill:rgb(100%,19.999695%,19.999695%);fill-opacity:1;" d="M 190.082031 105.183594 L 191.4375 111.960938 L 188.050781 112.640625 L 186.695312 105.859375 "/>
<path style=" stroke:none;fill-rule:nonzero;fill:rgb(100%,19.999695%,19.999695%);fill-opacity:1;" d="M 192.941406 118.582031 L 194.296875 125.210938 L 190.917969 125.902344 L 189.558594 119.273438 "/>
<path style=" stroke:none;fill-rule:nonzero;fill:rgb(100%,19.999695%,19.999695%);fill-opacity:1;" d="M 195.652344 131.988281 L 197.007812 138.617188 L 193.628906 139.308594 L 192.273438 132.679688 "/>
<path style=" stroke:none;fill-rule:nonzero;fill:rgb(100%,19.999695%,19.999695%);fill-opacity:1;" d="M 198.515625 145.253906 L 199.875 152.03125 L 196.488281 152.707031 L 195.132812 145.929688 "/>
<path style=" stroke:none;fill-rule:nonzero;fill:rgb(100%,19.999695%,19.999695%);fill-opacity:1;" d="M 201.226562 158.652344 L 202.582031 165.28125 L 199.199219 165.972656 L 197.84375 159.34375 "/>
<path style=" stroke:none;fill-rule:nonzero;fill:rgb(100%,19.999695%,19.999695%);fill-opacity:1;" d="M 204.089844 171.90625 L 205.445312 178.535156 L 202.0625 179.226562 L 200.707031 172.597656 "/>
<path style=" stroke:none;fill-rule:nonzero;fill:rgb(100%,19.999695%,19.999695%);fill-opacity:1;" d="M 206.800781 185.316406 L 208.15625 191.941406 L 204.773438 192.632812 L 203.417969 186.007812 "/>
<path style=" stroke:none;fill-rule:nonzero;fill:rgb(100%,19.999695%,19.999695%);fill-opacity:1;" d="M 209.664062 198.578125 L 211.019531 205.355469 L 207.632812 206.035156 L 206.28125 199.257812 "/>
<path style=" stroke:none;fill-rule:nonzero;fill:rgb(100%,19.999695%,19.999695%);fill-opacity:1;" d="M 212.375 211.976562 L 213.730469 218.605469 L 210.347656 219.296875 L 208.992188 212.667969 "/>
<path style=" stroke:none;fill-rule:nonzero;fill:rgb(100%,19.999695%,19.999695%);fill-opacity:1;" d="M 215.238281 225.382812 L 216.59375 232.011719 L 213.210938 232.703125 L 211.855469 226.074219 "/>
<path style=" stroke:none;fill-rule:nonzero;fill:rgb(100%,19.999695%,19.999695%);fill-opacity:1;" d="M 217.949219 238.640625 L 219.304688 245.269531 L 215.921875 245.960938 L 214.566406 239.332031 "/>
<path style=" stroke:none;fill-rule:nonzero;fill:rgb(100%,19.999695%,19.999695%);fill-opacity:1;" d="M 220.808594 252.046875 L 222.164062 258.675781 L 218.785156 259.367188 L 217.429688 252.738281 "/>
<path style=" stroke:none;fill-rule:nonzero;fill:rgb(100%,19.999695%,19.999695%);fill-opacity:1;" d="M 223.523438 265.304688 L 224.878906 271.929688 L 221.496094 272.621094 L 220.140625 265.996094 "/>
<path style=" stroke:none;fill-rule:nonzero;fill:rgb(100%,19.999695%,19.999695%);fill-opacity:1;" d="M 226.382812 278.710938 L 227.738281 285.339844 L 224.359375 286.03125 L 223 279.402344 "/>
<path style=" stroke:none;fill-rule:nonzero;fill:rgb(100%,19.999695%,19.999695%);fill-opacity:1;" d="M 229.097656 291.972656 L 230.453125 298.753906 L 227.066406 299.429688 L 225.710938 292.652344 "/>
<path style=" stroke:none;fill-rule:nonzero;fill:rgb(100%,19.999695%,19.999695%);fill-opacity:1;" d="M 231.957031 305.371094 L 233.3125 312 L 229.929688 312.691406 L 228.574219 306.0625 "/>
<path style=" stroke:none;fill-rule:nonzero;fill:rgb(100%,19.999695%,19.999695%);fill-opacity:1;" d="M 234.671875 318.636719 L 236.027344 325.414062 L 232.640625 326.09375 L 231.285156 319.3125 "/>
<path style=" stroke:none;fill-rule:nonzero;fill:rgb(100%,19.999695%,19.999695%);fill-opacity:1;" d="M 237.53125 332.035156 L 238.886719 338.664062 L 235.503906 339.355469 L 234.148438 332.726562 "/>
<path style=" stroke:none;fill-rule:nonzero;fill:rgb(100%,19.999695%,19.999695%);fill-opacity:1;" d="M 240.242188 345.300781 L 241.449219 351.324219 L 238.0625 352 L 236.859375 345.976562 "/>
<path style=" stroke:none;fill-rule:evenodd;fill:rgb(0%,0%,0%);fill-opacity:1;" d="M 180.707031 56.261719 C 184.320312 56.261719 187.03125 58.972656 187.03125 62.738281 C 187.03125 66.355469 184.320312 69.066406 180.707031 69.066406 C 176.941406 69.066406 174.230469 66.355469 174.230469 62.738281 C 174.230469 58.972656 176.941406 56.261719 180.707031 56.261719 "/>
<path style=" stroke:none;fill-rule:nonzero;fill:rgb(100%,100%,100%);fill-opacity:1;" d="M 180.707031 56.261719 L 180.707031 55.132812 C 182.796875 55.128906 184.6875 55.929688 186.03125 57.296875 C 187.378906 58.664062 188.164062 60.585938 188.164062 62.738281 C 188.164062 64.832031 187.367188 66.71875 186.023438 68.058594 C 184.683594 69.402344 182.796875 70.199219 180.707031 70.195312 C 178.550781 70.199219 176.628906 69.410156 175.265625 68.066406 C 173.894531 66.722656 173.097656 64.832031 173.097656 62.738281 C 173.097656 60.585938 173.886719 58.65625 175.257812 57.289062 C 176.621094 55.917969 178.550781 55.128906 180.707031 55.132812 L 180.707031 57.390625 C 179.09375 57.394531 177.785156 57.960938 176.855469 58.886719 C 175.929688 59.820312 175.363281 61.125 175.359375 62.738281 C 175.363281 64.265625 175.917969 65.539062 176.847656 66.453125 C 177.78125 67.367188 179.09375 67.933594 180.707031 67.9375 C 182.230469 67.933594 183.507812 67.375 184.425781 66.460938 C 185.339844 65.542969 185.898438 64.265625 185.902344 62.738281 C 185.898438 61.128906 185.332031 59.8125 184.417969 58.878906 C 183.503906 57.953125 182.230469 57.394531 180.707031 57.390625 Z M 180.707031 56.261719 "/>
<path style=" stroke:none;fill-rule:evenodd;fill:rgb(0%,0%,0%);fill-opacity:1;" d="M 242.015625 347.445312 C 245.632812 347.445312 248.34375 350.15625 248.34375 353.773438 C 248.34375 357.386719 245.632812 360.25 242.015625 360.25 C 238.25 360.25 235.539062 357.386719 235.539062 353.773438 C 235.539062 350.15625 238.25 347.445312 242.015625 347.445312 "/>
<path style=" stroke:none;fill-rule:nonzero;fill:rgb(100%,100%,100%);fill-opacity:1;" d="M 242.015625 347.445312 L 242.015625 346.316406 C 244.105469 346.3125 245.992188 347.109375 247.332031 348.453125 C 248.679688 349.796875 249.476562 351.679688 249.472656 353.773438 C 249.472656 355.863281 248.683594 357.773438 247.347656 359.152344 C 246.015625 360.535156 244.125 361.382812 242.015625 361.378906 C 239.84375 361.382812 237.917969 360.542969 236.558594 359.160156 C 235.199219 357.777344 234.40625 355.863281 234.410156 353.773438 C 234.40625 351.679688 235.203125 349.789062 236.574219 348.449219 C 237.9375 347.101562 239.863281 346.3125 242.015625 346.316406 L 242.015625 348.574219 C 240.402344 348.578125 239.089844 349.144531 238.15625 350.058594 C 237.230469 350.976562 236.671875 352.246094 236.667969 353.773438 C 236.667969 355.296875 237.234375 356.621094 238.171875 357.574219 C 239.109375 358.523438 240.421875 359.117188 242.015625 359.121094 C 243.523438 359.117188 244.796875 358.535156 245.722656 357.582031 C 246.644531 356.625 247.210938 355.296875 247.210938 353.773438 C 247.210938 352.246094 246.652344 350.96875 245.738281 350.050781 C 244.816406 349.136719 243.539062 348.578125 242.015625 348.574219 Z M 242.015625 347.445312 "/>
<path style=" stroke:none;fill-rule:nonzero;fill:rgb(100%,100%,0%);fill-opacity:1;" d="M 315.898438 49.988281 L 337.742188 99.09375 L 334.585938 100.496094 L 312.746094 51.390625 "/>
<path style=" stroke:none;fill-rule:evenodd;fill:rgb(100%,100%,0%);fill-opacity:1;" d="M 303.929688 27.191406 L 306.640625 55.359375 L 323.058594 48.128906 Z M 303.929688 27.191406 "/>
<path style=" stroke:none;fill-rule:nonzero;fill:rgb(100%,100%,0%);fill-opacity:1;" d="M 337.976562 57.453125 C 338.609375 58.355469 339.464844 59.035156 340.546875 59.496094 C 341.625 59.953125 342.800781 60.179688 344.074219 60.179688 C 344.808594 60.179688 345.539062 60.074219 346.269531 59.855469 C 346.996094 59.640625 347.640625 59.304688 348.199219 58.84375 C 348.757812 58.386719 349.15625 57.820312 349.390625 57.140625 L 349.417969 56.972656 C 349.417969 56.730469 349.273438 56.578125 348.984375 56.515625 L 348.476562 56.515625 C 348.308594 56.558594 348.171875 56.660156 348.070312 56.820312 C 347.902344 57.289062 347.632812 57.691406 347.261719 58.023438 C 346.894531 58.359375 346.449219 58.613281 345.933594 58.78125 C 345.417969 58.949219 344.917969 59.035156 344.429688 59.035156 C 343.441406 59.035156 342.660156 58.835938 342.089844 58.4375 C 341.519531 58.039062 341.121094 57.496094 340.898438 56.808594 C 340.675781 56.121094 340.566406 55.304688 340.566406 54.351562 L 348.984375 54.351562 C 349.273438 54.253906 349.417969 54.078125 349.417969 53.832031 C 349.417969 52.621094 349.191406 51.59375 348.742188 50.757812 C 348.292969 49.921875 347.640625 49.292969 346.777344 48.863281 C 345.917969 48.433594 344.871094 48.21875 343.640625 48.21875 C 342.402344 48.21875 341.28125 48.457031 340.277344 48.925781 C 339.273438 49.398438 338.480469 50.085938 337.898438 50.988281 C 337.320312 51.890625 337.027344 52.949219 337.027344 54.160156 C 337.027344 55.453125 337.34375 56.546875 337.976562 57.453125 M 341.265625 50.453125 C 341.730469 49.660156 342.523438 49.261719 343.640625 49.261719 C 344.734375 49.261719 345.527344 49.664062 346.019531 50.464844 C 346.511719 51.269531 346.757812 52.242188 346.757812 53.386719 L 340.566406 53.386719 C 340.566406 52.222656 340.796875 51.246094 341.265625 50.453125 "/>
<path style=" stroke:none;fill-rule:nonzero;fill:rgb(100%,100%,100%);fill-opacity:1;" d="M 331.214844 199.558594 L 331.464844 199.558594 L 331.601562 199.472656 L 331.675781 199.328125 L 331.59375 199.109375 C 328.554688 196.246094 327.03125 192.050781 327.03125 186.527344 C 327.03125 185.28125 327.109375 184.082031 327.269531 182.933594 C 327.425781 181.78125 327.679688 180.671875 328.035156 179.597656 C 328.390625 178.523438 328.855469 177.515625 329.4375 176.5625 C 330.019531 175.613281 330.746094 174.722656 331.621094 173.890625 L 331.675781 173.726562 L 331.609375 173.566406 L 331.464844 173.496094 L 331.214844 173.496094 L 331.082031 173.546875 C 330.113281 174.285156 329.265625 175.144531 328.539062 176.132812 C 327.816406 177.113281 327.21875 178.171875 326.75 179.300781 C 326.28125 180.425781 325.933594 181.601562 325.707031 182.824219 C 325.480469 184.046875 325.367188 185.28125 325.367188 186.527344 C 325.367188 187.757812 325.480469 188.980469 325.707031 190.203125 C 325.933594 191.425781 326.277344 192.597656 326.738281 193.714844 C 327.195312 194.835938 327.785156 195.890625 328.507812 196.878906 C 329.226562 197.867188 330.085938 198.742188 331.082031 199.503906 Z M 331.214844 199.558594 "/>
<path style=" stroke:none;fill-rule:nonzero;fill:rgb(100%,100%,100%);fill-opacity:1;" d="M 344.871094 193.042969 L 345.355469 187.671875 L 343.996094 187.671875 C 343.925781 188.511719 343.824219 189.1875 343.695312 189.703125 C 343.5625 190.214844 343.316406 190.648438 342.949219 191.003906 C 342.671875 191.269531 342.34375 191.464844 341.960938 191.597656 C 341.582031 191.730469 341.226562 191.8125 340.890625 191.84375 C 340.554688 191.878906 340.125 191.898438 339.601562 191.898438 L 337.71875 191.898438 L 345.171875 182.492188 C 345.242188 182.339844 345.277344 182.234375 345.277344 182.175781 L 345.277344 181.945312 C 345.277344 181.800781 345.234375 181.6875 345.144531 181.601562 C 345.058594 181.519531 344.941406 181.472656 344.792969 181.472656 L 334.59375 181.472656 L 334.269531 186.132812 L 335.640625 186.132812 C 335.640625 185.164062 335.785156 184.421875 336.074219 183.898438 C 336.359375 183.375 336.796875 183.015625 337.378906 182.816406 C 337.964844 182.617188 338.738281 182.519531 339.707031 182.519531 L 341.421875 182.519531 L 333.980469 191.972656 L 333.847656 192.292969 L 333.847656 192.570312 C 333.847656 192.714844 333.894531 192.828125 333.980469 192.914062 C 334.066406 193 334.179688 193.042969 334.320312 193.042969 Z M 344.871094 193.042969 "/>
<path style=" stroke:none;fill-rule:nonzero;fill:rgb(100%,100%,100%);fill-opacity:1;" d="M 355.621094 196.808594 L 355.621094 196.074219 C 353.894531 196.074219 353.03125 195.890625 353.03125 195.523438 L 353.03125 184.828125 L 352.808594 184.601562 L 352.472656 184.601562 C 352.011719 185.035156 351.457031 185.339844 350.808594 185.515625 C 350.160156 185.691406 349.460938 185.78125 348.714844 185.78125 L 348.714844 186.515625 C 349.828125 186.515625 350.734375 186.351562 351.4375 186.023438 L 351.4375 195.523438 C 351.4375 195.890625 350.570312 196.074219 348.84375 196.074219 L 348.84375 196.808594 Z M 355.621094 196.808594 "/>
<path style=" stroke:none;fill-rule:nonzero;fill:rgb(100%,100%,100%);fill-opacity:1;" d="M 382.722656 187.046875 C 382.859375 187.046875 382.976562 186.992188 383.066406 186.882812 L 383.203125 186.527344 L 383.066406 186.171875 C 382.976562 186.058594 382.859375 186.003906 382.722656 186.003906 L 367.496094 186.003906 C 367.347656 186.003906 367.226562 186.058594 367.132812 186.171875 L 366.988281 186.527344 L 367.132812 186.882812 C 367.226562 186.992188 367.347656 187.046875 367.496094 187.046875 Z M 382.722656 187.046875 "/>
<path style=" stroke:none;fill-rule:nonzero;fill:rgb(100%,100%,100%);fill-opacity:1;" d="M 403.320312 193.042969 L 403.800781 187.671875 L 402.441406 187.671875 C 402.371094 188.511719 402.273438 189.1875 402.140625 189.703125 C 402.011719 190.214844 401.761719 190.648438 401.398438 191.003906 C 401.117188 191.269531 400.789062 191.464844 400.410156 191.597656 C 400.03125 191.730469 399.671875 191.8125 399.335938 191.84375 C 399 191.878906 398.574219 191.898438 398.050781 191.898438 L 396.167969 191.898438 L 403.621094 182.492188 C 403.691406 182.339844 403.722656 182.234375 403.722656 182.175781 L 403.722656 181.945312 C 403.722656 181.800781 403.679688 181.6875 403.59375 181.601562 C 403.503906 181.519531 403.386719 181.472656 403.242188 181.472656 L 393.042969 181.472656 L 392.714844 186.132812 L 394.089844 186.132812 C 394.089844 185.164062 394.234375 184.421875 394.519531 183.898438 C 394.808594 183.375 395.242188 183.015625 395.828125 182.816406 C 396.410156 182.617188 397.1875 182.519531 398.15625 182.519531 L 399.867188 182.519531 L 392.429688 191.972656 L 392.296875 192.292969 L 392.296875 192.570312 C 392.296875 192.714844 392.339844 192.828125 392.429688 192.914062 C 392.515625 193 392.628906 193.042969 392.769531 193.042969 Z M 403.320312 193.042969 "/>
<path style=" stroke:none;fill-rule:nonzero;fill:rgb(100%,100%,100%);fill-opacity:1;" d="M 414.070312 196.808594 L 414.628906 193.386719 L 413.914062 193.386719 C 413.847656 193.8125 413.777344 194.171875 413.710938 194.464844 C 413.644531 194.757812 413.554688 194.960938 413.445312 195.074219 C 413.414062 195.105469 413.203125 195.128906 412.816406 195.144531 C 412.421875 195.160156 411.96875 195.167969 411.453125 195.171875 C 410.9375 195.171875 410.445312 195.175781 409.976562 195.175781 L 408.253906 195.175781 L 410.542969 193.261719 C 410.738281 193.097656 411.160156 192.765625 411.808594 192.273438 C 412.453125 191.777344 412.960938 191.351562 413.328125 190.992188 C 413.695312 190.632812 414 190.21875 414.253906 189.75 C 414.503906 189.28125 414.628906 188.773438 414.628906 188.230469 C 414.628906 187.476562 414.417969 186.820312 414 186.269531 C 413.582031 185.714844 413.035156 185.300781 412.355469 185.019531 C 411.679688 184.742188 410.960938 184.601562 410.203125 184.601562 C 409.570312 184.601562 408.953125 184.738281 408.355469 185.011719 C 407.753906 185.285156 407.269531 185.671875 406.898438 186.175781 C 406.523438 186.675781 406.339844 187.257812 406.339844 187.914062 C 406.339844 188.191406 406.441406 188.425781 406.640625 188.625 C 406.84375 188.820312 407.085938 188.921875 407.375 188.921875 C 407.664062 188.921875 407.910156 188.820312 408.105469 188.625 C 408.300781 188.425781 408.398438 188.191406 408.398438 187.914062 C 408.398438 187.628906 408.304688 187.386719 408.109375 187.191406 C 407.917969 187 407.671875 186.898438 407.375 186.898438 L 407.316406 186.898438 C 407.550781 186.417969 407.894531 186.035156 408.359375 185.757812 C 408.820312 185.476562 409.328125 185.339844 409.882812 185.339844 C 410.300781 185.339844 410.679688 185.410156 411.027344 185.550781 C 411.375 185.691406 411.675781 185.890625 411.929688 186.15625 C 412.183594 186.417969 412.378906 186.730469 412.519531 187.085938 C 412.664062 187.441406 412.730469 187.820312 412.730469 188.230469 C 412.730469 188.972656 412.527344 189.652344 412.113281 190.277344 C 411.703125 190.902344 411.125 191.578125 410.386719 192.304688 C 410.246094 192.441406 410.136719 192.546875 410.0625 192.621094 L 409.753906 192.933594 L 406.410156 196.125 L 406.339844 196.277344 L 406.339844 196.808594 Z M 414.070312 196.808594 "/>
<path style=" stroke:none;fill-rule:nonzero;fill:rgb(100%,100%,100%);fill-opacity:1;" d="M 418.898438 199.558594 L 419.03125 199.503906 C 420.027344 198.742188 420.882812 197.871094 421.601562 196.890625 C 422.316406 195.910156 422.910156 194.84375 423.375 193.683594 C 423.84375 192.527344 424.183594 191.351562 424.398438 190.160156 C 424.613281 188.96875 424.722656 187.757812 424.722656 186.527344 C 424.722656 184.863281 424.523438 183.234375 424.125 181.640625 C 423.726562 180.046875 423.097656 178.542969 422.242188 177.136719 C 421.386719 175.726562 420.316406 174.53125 419.03125 173.546875 L 418.898438 173.496094 L 418.652344 173.496094 L 418.488281 173.566406 L 418.414062 173.726562 L 418.519531 173.941406 C 421.542969 176.808594 423.054688 181.003906 423.054688 186.527344 C 423.054688 192.050781 421.527344 196.261719 418.46875 199.164062 L 418.414062 199.328125 C 418.414062 199.480469 418.492188 199.558594 418.652344 199.558594 Z M 418.898438 199.558594 "/>
<path style=" stroke:none;fill-rule:nonzero;fill:rgb(100%,100%,100%);fill-opacity:1;" d="M 429.34375 182.253906 L 429.5 182.347656 L 436.355469 182.347656 L 436.558594 182.183594 L 436.628906 181.890625 C 436.628906 181.75 436.558594 181.660156 436.410156 181.609375 C 435.308594 181.609375 434.597656 181.574219 434.277344 181.503906 C 434.144531 181.484375 434.078125 181.402344 434.078125 181.261719 L 434.089844 181.183594 L 434.09375 181.101562 L 436.628906 171.175781 C 436.714844 170.863281 436.8125 170.675781 436.914062 170.617188 C 437.019531 170.558594 437.246094 170.527344 437.597656 170.527344 L 438.890625 170.527344 C 439.710938 170.527344 440.308594 170.617188 440.683594 170.789062 C 441.054688 170.960938 441.246094 171.394531 441.246094 172.089844 C 441.246094 172.425781 441.1875 172.996094 441.078125 173.804688 C 441.078125 173.953125 441.152344 174.046875 441.296875 174.089844 L 441.546875 174.089844 L 441.796875 173.855469 L 442.355469 170.070312 C 442.355469 169.925781 442.277344 169.835938 442.125 169.792969 L 429.878906 169.792969 L 429.65625 169.945312 L 428.296875 173.722656 L 428.277344 173.839844 C 428.277344 173.964844 428.355469 174.046875 428.507812 174.089844 L 428.746094 174.089844 L 428.976562 173.929688 C 429.234375 173.203125 429.449219 172.652344 429.628906 172.269531 C 429.804688 171.886719 430.023438 171.566406 430.285156 171.308594 C 430.546875 171.050781 430.890625 170.859375 431.3125 170.726562 C 431.742188 170.59375 432.300781 170.527344 433 170.527344 L 434.296875 170.527344 C 434.710938 170.527344 434.921875 170.558594 434.921875 170.617188 C 434.902344 170.753906 434.871094 170.894531 434.832031 171.039062 L 432.285156 180.964844 C 432.214844 181.25 432.058594 181.429688 431.816406 181.503906 C 431.464844 181.574219 430.714844 181.609375 429.554688 181.609375 L 429.351562 181.753906 L 429.277344 182.050781 Z M 429.34375 182.253906 "/>
<g clip-path="url(#clip2)" clip-rule="nonzero">
<path style=" stroke:none;fill-rule:nonzero;fill:rgb(100%,100%,100%);fill-opacity:1;" d="M 446.132812 190.464844 C 446.761719 191.367188 447.613281 192.050781 448.691406 192.507812 C 449.765625 192.964844 450.941406 193.195312 452.210938 193.195312 C 452.941406 193.195312 453.671875 193.085938 454.398438 192.871094 C 455.125 192.652344 455.765625 192.316406 456.324219 191.859375 C 456.878906 191.402344 457.277344 190.832031 457.511719 190.152344 L 457.539062 189.988281 C 457.539062 189.742188 457.394531 189.589844 457.109375 189.53125 L 456.597656 189.53125 C 456.433594 189.570312 456.296875 189.675781 456.195312 189.835938 C 456.027344 190.300781 455.761719 190.703125 455.390625 191.039062 C 455.019531 191.375 454.578125 191.625 454.066406 191.796875 C 453.550781 191.964844 453.050781 192.050781 452.5625 192.050781 C 451.578125 192.050781 450.800781 191.847656 450.230469 191.453125 C 449.664062 191.050781 449.265625 190.511719 449.042969 189.820312 C 448.820312 189.136719 448.710938 188.316406 448.710938 187.367188 L 457.109375 187.367188 C 457.394531 187.265625 457.539062 187.089844 457.539062 186.84375 C 457.539062 185.632812 457.316406 184.605469 456.867188 183.773438 C 456.417969 182.9375 455.765625 182.304688 454.90625 181.875 C 454.050781 181.449219 453.007812 181.234375 451.78125 181.234375 C 450.542969 181.234375 449.425781 181.46875 448.421875 181.9375 C 447.421875 182.410156 446.632812 183.097656 446.054688 184 C 445.472656 184.90625 445.183594 185.960938 445.183594 187.175781 C 445.183594 188.464844 445.5 189.5625 446.132812 190.464844 M 449.410156 183.464844 C 449.875 182.675781 450.664062 182.277344 451.78125 182.277344 C 452.867188 182.277344 453.65625 182.675781 454.148438 183.476562 C 454.640625 184.28125 454.886719 185.253906 454.886719 186.398438 L 448.710938 186.398438 C 448.710938 185.238281 448.945312 184.261719 449.410156 183.464844 "/>
</g>
</g>
</svg>
