<?xml version="1.0" encoding="UTF-8"?>
<svg xmlns="http://www.w3.org/2000/svg" xmlns:xlink="http://www.w3.org/1999/xlink" width="651.3441pt" height="320.91pt" viewBox="0 0 651.3441 320.91" version="1.1">
<g id="surface1">
<path style=" stroke:none;fill-rule:evenodd;fill:rgb(79.998779%,100%,79.998779%);fill-opacity:1;" d="M 120.769531 53.269531 C 188.375 53.269531 240.148438 106.96875 240.148438 177.355469 C 240.148438 247.527344 188.375 301.441406 120.769531 301.441406 C 53.167969 301.441406 1.605469 247.527344 1.605469 177.355469 C 1.605469 106.96875 53.167969 53.269531 120.769531 53.269531 "/>
<path style=" stroke:none;fill-rule:nonzero;fill:rgb(100%,100%,100%);fill-opacity:1;" d="M 120.769531 53.269531 L 120.769531 51.667969 C 155 51.664062 185.285156 65.273438 206.96875 87.804688 C 228.65625 110.332031 241.757812 141.769531 241.753906 177.355469 C 241.757812 212.839844 228.65625 244.273438 206.96875 266.828125 C 185.289062 289.382812 155.003906 303.050781 120.769531 303.046875 C 86.539062 303.050781 56.308594 289.382812 34.679688 266.824219 C 13.042969 244.269531 0 212.835938 0.00390625 177.355469 C 0 141.773438 13.042969 110.335938 34.679688 87.808594 C 56.308594 65.277344 86.539062 51.664062 120.769531 51.667969 L 120.769531 54.875 C 87.398438 54.878906 58.046875 68.113281 36.996094 90.03125 C 15.949219 111.949219 3.214844 142.554688 3.210938 177.355469 C 3.214844 212.050781 15.949219 242.65625 36.996094 264.605469 C 58.046875 286.546875 87.398438 299.832031 120.769531 299.835938 C 154.144531 299.832031 183.550781 286.546875 204.65625 264.601562 C 225.757812 242.65625 238.542969 212.046875 238.546875 177.355469 C 238.542969 142.558594 225.757812 111.949219 204.65625 90.03125 C 183.550781 68.117188 154.144531 54.878906 120.769531 54.875 Z M 120.769531 53.269531 "/>
<path style=" stroke:none;fill-rule:evenodd;fill:rgb(79.998779%,100%,79.998779%);fill-opacity:1;" d="M 445.320312 14.121094 C 467.996094 0 525.117188 52.414062 577.105469 135.210938 C 628.878906 218.21875 651.34375 292.457031 628.667969 306.789062 C 605.988281 320.910156 548.867188 268.28125 496.878906 185.484375 C 444.890625 102.476562 422.640625 28.238281 445.320312 14.121094 "/>
<path style=" stroke:none;fill-rule:nonzero;fill:rgb(100%,100%,100%);fill-opacity:1;" d="M 445.320312 14.121094 L 444.472656 12.757812 C 447.230469 11.035156 450.449219 10.21875 453.941406 10.222656 C 461.070312 10.238281 469.390625 13.496094 478.707031 19.378906 C 492.671875 28.226562 508.875 43.105469 525.980469 62.710938 C 543.082031 82.3125 561.0625 106.640625 578.464844 134.355469 L 578.46875 134.359375 C 597.582031 165.003906 612.714844 194.464844 623.085938 220.207031 C 633.449219 245.964844 639.070312 267.972656 639.085938 283.9375 C 639.082031 289.648438 638.363281 294.597656 636.8125 298.695312 C 635.269531 302.789062 632.851562 306.046875 629.523438 308.148438 L 629.511719 308.152344 C 626.761719 309.867188 623.554688 310.683594 620.070312 310.679688 C 612.945312 310.664062 604.625 307.394531 595.304688 301.492188 C 581.339844 292.621094 565.132812 277.699219 548.019531 258.0625 C 530.917969 238.421875 512.929688 214.066406 495.519531 186.339844 C 476.347656 155.726562 461.207031 126.300781 450.84375 100.585938 C 440.484375 74.859375 434.878906 52.882812 434.867188 36.953125 C 434.871094 31.226562 435.59375 26.269531 437.148438 22.171875 C 438.699219 18.082031 441.128906 14.835938 444.472656 12.757812 L 446.167969 15.484375 C 443.519531 17.136719 441.523438 19.714844 440.148438 23.316406 C 438.777344 26.90625 438.074219 31.5 438.078125 36.953125 C 438.066406 52.144531 443.535156 73.894531 453.820312 99.386719 C 464.09375 124.886719 479.15625 154.164062 498.238281 184.632812 C 521.34375 221.433594 545.464844 252.25 567.050781 273.808594 C 577.839844 284.585938 587.996094 293.050781 597.027344 298.785156 C 606.050781 304.527344 613.960938 307.488281 620.070312 307.472656 C 623.070312 307.46875 625.625 306.789062 627.820312 305.425781 L 627.808594 305.433594 C 630.453125 303.757812 632.441406 301.164062 633.8125 297.5625 C 635.175781 293.964844 635.875 289.375 635.875 283.9375 C 635.886719 268.710938 630.394531 246.929688 620.105469 221.410156 C 609.824219 195.875 594.769531 166.5625 575.746094 136.058594 L 575.746094 136.0625 C 552.652344 99.277344 528.539062 68.515625 506.960938 47.003906 C 496.175781 36.246094 486.019531 27.808594 476.992188 22.089844 C 467.96875 16.367188 460.058594 13.417969 453.941406 13.429688 C 450.933594 13.433594 448.367188 14.117188 446.167969 15.484375 Z M 445.320312 14.121094 "/>
<path style=" stroke:none;fill-rule:nonzero;fill:rgb(0%,0%,0%);fill-opacity:1;" d="M 122.292969 191.914062 C 124.214844 191.023438 125.859375 189.765625 127.234375 188.136719 L 127.347656 187.738281 C 127.347656 187.535156 127.265625 187.359375 127.105469 187.214844 C 126.945312 187.070312 126.757812 186.996094 126.550781 186.996094 C 126.414062 186.996094 126.234375 187.082031 126.011719 187.253906 C 124.898438 188.5625 123.511719 189.597656 121.855469 190.351562 C 120.195312 191.101562 118.472656 191.480469 116.691406 191.480469 C 113.90625 191.480469 111.996094 190.328125 110.957031 188.019531 C 109.914062 185.710938 109.394531 183.003906 109.394531 179.898438 C 109.394531 178.679688 109.5 177.394531 109.703125 176.046875 C 109.90625 174.699219 110.269531 173.382812 110.789062 172.105469 C 111.308594 170.828125 112.015625 169.789062 112.90625 168.988281 C 113.796875 168.1875 114.898438 167.789062 116.210938 167.789062 C 117.078125 167.789062 117.984375 167.988281 118.9375 168.382812 C 119.890625 168.78125 120.792969 169.316406 121.648438 169.984375 C 122.5 170.652344 123.230469 171.398438 123.832031 172.226562 C 124.429688 173.046875 124.816406 173.851562 124.988281 174.636719 C 125.027344 174.949219 125.246094 175.105469 125.640625 175.105469 L 126.085938 174.925781 L 126.289062 174.492188 L 126.289062 167.082031 L 126.085938 166.667969 L 125.640625 166.488281 L 125.164062 166.675781 L 124.953125 167.082031 C 124.953125 167.394531 124.84375 167.65625 124.628906 167.867188 C 124.410156 168.078125 124.148438 168.1875 123.839844 168.1875 C 122.785156 168.1875 121.660156 167.914062 120.457031 167.371094 C 119.105469 166.78125 117.6875 166.488281 116.203125 166.488281 C 114.183594 166.488281 112.34375 166.804688 110.683594 167.441406 C 109.023438 168.082031 107.597656 168.996094 106.402344 170.183594 C 105.207031 171.367188 104.289062 172.789062 103.652344 174.449219 C 103.015625 176.105469 102.695312 177.90625 102.695312 179.859375 C 102.695312 181.796875 103.007812 183.597656 103.644531 185.253906 C 104.273438 186.910156 105.179688 188.332031 106.363281 189.519531 C 107.546875 190.703125 108.976562 191.625 110.65625 192.277344 C 112.332031 192.925781 114.183594 193.25 116.203125 193.25 C 118.34375 193.25 120.375 192.804688 122.292969 191.914062 M 106.066406 187.125 C 104.707031 185.089844 104.03125 182.667969 104.03125 179.859375 C 104.03125 177.210938 104.664062 174.875 105.925781 172.855469 C 107.1875 170.839844 109.054688 169.398438 111.53125 168.527344 C 110.847656 169.226562 110.28125 170.03125 109.832031 170.941406 C 109.386719 171.851562 109.035156 172.789062 108.777344 173.761719 C 108.523438 174.730469 108.339844 175.726562 108.226562 176.742188 C 108.117188 177.757812 108.0625 178.800781 108.0625 179.859375 C 108.0625 182.304688 108.34375 184.554688 108.917969 186.609375 C 109.488281 188.664062 110.5625 190.265625 112.144531 191.40625 C 109.445312 190.589844 107.417969 189.160156 106.066406 187.125 M 123.003906 169.449219 C 123.214844 169.472656 123.511719 169.488281 123.894531 169.488281 C 124.019531 169.488281 124.226562 169.464844 124.527344 169.414062 L 124.953125 169.234375 L 124.953125 171.5625 C 124.46875 170.867188 123.820312 170.160156 123.003906 169.449219 "/>
<path style=" stroke:none;fill-rule:nonzero;fill:rgb(0%,0%,0%);fill-opacity:1;" d="M 141.453125 197.679688 L 141.453125 196.644531 C 138.980469 196.644531 137.742188 196.386719 137.742188 195.871094 L 137.742188 180.808594 L 137.425781 180.492188 L 136.941406 180.492188 C 136.285156 181.097656 135.488281 181.523438 134.558594 181.773438 C 133.625 182.023438 132.628906 182.148438 131.558594 182.148438 L 131.558594 183.183594 C 133.152344 183.183594 134.453125 182.949219 135.457031 182.488281 L 135.457031 195.871094 C 135.457031 196.386719 134.21875 196.644531 131.742188 196.644531 L 131.742188 197.679688 Z M 141.453125 197.679688 "/>
<path style=" stroke:none;fill-rule:nonzero;fill:rgb(0%,0%,0%);fill-opacity:1;" d="M 539.265625 171.375 C 541.183594 170.484375 542.832031 169.226562 544.207031 167.597656 L 544.316406 167.203125 C 544.316406 166.996094 544.234375 166.820312 544.074219 166.675781 C 543.914062 166.53125 543.730469 166.460938 543.519531 166.460938 C 543.382812 166.460938 543.203125 166.542969 542.980469 166.714844 C 541.867188 168.023438 540.480469 169.058594 538.824219 169.8125 C 537.164062 170.566406 535.441406 170.941406 533.660156 170.941406 C 530.878906 170.941406 528.964844 169.789062 527.925781 167.480469 C 526.886719 165.171875 526.367188 162.46875 526.367188 159.359375 C 526.367188 158.140625 526.46875 156.859375 526.671875 155.507812 C 526.878906 154.160156 527.238281 152.847656 527.757812 151.570312 C 528.277344 150.292969 528.984375 149.253906 529.875 148.453125 C 530.765625 147.648438 531.867188 147.25 533.179688 147.25 C 534.046875 147.25 534.957031 147.449219 535.90625 147.847656 C 536.863281 148.242188 537.765625 148.777344 538.617188 149.445312 C 539.472656 150.113281 540.199219 150.859375 540.800781 151.6875 C 541.398438 152.511719 541.785156 153.316406 541.960938 154.097656 C 541.996094 154.414062 542.214844 154.570312 542.609375 154.570312 L 543.054688 154.390625 L 543.257812 153.953125 L 543.257812 146.542969 L 543.054688 146.128906 L 542.609375 145.949219 L 542.136719 146.136719 L 541.921875 146.542969 C 541.921875 146.859375 541.8125 147.117188 541.597656 147.332031 C 541.378906 147.539062 541.117188 147.648438 540.808594 147.648438 C 539.757812 147.648438 538.628906 147.375 537.425781 146.835938 C 536.078125 146.242188 534.65625 145.949219 533.171875 145.949219 C 531.152344 145.949219 529.3125 146.265625 527.652344 146.90625 C 525.992188 147.542969 524.566406 148.457031 523.371094 149.644531 C 522.175781 150.832031 521.257812 152.25 520.621094 153.910156 C 519.984375 155.566406 519.664062 157.367188 519.664062 159.320312 C 519.664062 161.261719 519.980469 163.058594 520.613281 164.714844 C 521.242188 166.375 522.152344 167.792969 523.335938 168.980469 C 524.515625 170.167969 525.945312 171.085938 527.625 171.738281 C 529.304688 172.386719 531.152344 172.710938 533.171875 172.710938 C 535.3125 172.710938 537.34375 172.269531 539.265625 171.375 M 523.035156 166.585938 C 521.679688 164.550781 521.003906 162.128906 521.003906 159.320312 C 521.003906 156.671875 521.632812 154.335938 522.894531 152.316406 C 524.15625 150.300781 526.027344 148.859375 528.5 147.988281 C 527.816406 148.6875 527.25 149.492188 526.800781 150.402344 C 526.355469 151.3125 526.003906 152.25 525.746094 153.222656 C 525.492188 154.191406 525.308594 155.1875 525.199219 156.203125 C 525.085938 157.222656 525.03125 158.261719 525.03125 159.320312 C 525.03125 161.765625 525.316406 164.019531 525.886719 166.070312 C 526.460938 168.125 527.535156 169.726562 529.113281 170.867188 C 526.414062 170.050781 524.390625 168.621094 523.035156 166.585938 M 539.972656 148.910156 C 540.183594 148.933594 540.480469 148.949219 540.863281 148.949219 C 540.988281 148.949219 541.199219 148.925781 541.496094 148.875 L 541.921875 148.695312 L 541.921875 151.027344 C 541.441406 150.328125 540.789062 149.621094 539.972656 148.910156 "/>
<path style=" stroke:none;fill-rule:nonzero;fill:rgb(0%,0%,0%);fill-opacity:1;" d="M 558.636719 177.140625 L 559.4375 172.328125 L 558.414062 172.328125 C 558.320312 172.925781 558.222656 173.429688 558.128906 173.84375 C 558.03125 174.257812 557.90625 174.542969 557.746094 174.703125 C 557.703125 174.746094 557.398438 174.777344 556.839844 174.796875 C 556.28125 174.820312 555.628906 174.832031 554.890625 174.835938 C 554.152344 174.839844 553.445312 174.84375 552.773438 174.84375 L 550.304688 174.84375 L 553.585938 172.148438 C 553.867188 171.914062 554.472656 171.449219 555.398438 170.753906 C 556.324219 170.058594 557.050781 169.457031 557.574219 168.949219 C 558.101562 168.445312 558.542969 167.863281 558.902344 167.199219 C 559.257812 166.539062 559.4375 165.824219 559.4375 165.058594 C 559.4375 163.996094 559.140625 163.074219 558.539062 162.296875 C 557.941406 161.519531 557.15625 160.933594 556.183594 160.539062 C 555.214844 160.148438 554.1875 159.953125 553.101562 159.953125 C 552.191406 159.953125 551.308594 160.144531 550.449219 160.527344 C 549.59375 160.910156 548.898438 161.457031 548.363281 162.164062 C 547.832031 162.871094 547.5625 163.691406 547.5625 164.617188 C 547.5625 165.003906 547.707031 165.335938 547.996094 165.617188 C 548.285156 165.894531 548.632812 166.03125 549.046875 166.03125 C 549.46875 166.03125 549.816406 165.894531 550.097656 165.617188 C 550.375 165.335938 550.515625 165.003906 550.515625 164.617188 C 550.515625 164.210938 550.378906 163.871094 550.101562 163.597656 C 549.828125 163.324219 549.476562 163.1875 549.046875 163.1875 L 548.96875 163.1875 C 549.300781 162.503906 549.796875 161.96875 550.457031 161.578125 C 551.117188 161.183594 551.847656 160.988281 552.640625 160.988281 C 553.238281 160.988281 553.785156 161.089844 554.28125 161.285156 C 554.78125 161.484375 555.210938 161.769531 555.574219 162.140625 C 555.9375 162.507812 556.21875 162.945312 556.417969 163.445312 C 556.621094 163.949219 556.722656 164.484375 556.722656 165.058594 C 556.722656 166.101562 556.429688 167.066406 555.839844 167.949219 C 555.246094 168.828125 554.421875 169.777344 553.363281 170.796875 C 553.160156 170.992188 553.007812 171.140625 552.898438 171.246094 L 552.457031 171.683594 L 547.667969 176.183594 L 547.5625 176.394531 L 547.5625 177.140625 Z M 558.636719 177.140625 "/>
</g>
</svg>
