<?xml version="1.0" encoding="UTF-8"?>
<svg xmlns="http://www.w3.org/2000/svg" xmlns:xlink="http://www.w3.org/1999/xlink" width="399.322pt" height="322.216pt" viewBox="0 0 399.322 322.216" version="1.1">
<defs>
<clipPath id="clip1">
  <path d="M 56 43 L 305 43 L 305 322.214844 L 56 322.214844 Z M 56 43 "/>
</clipPath>
<clipPath id="clip2">
  <path d="M 391 136 L 399.320312 136 L 399.320312 170 L 391 170 Z M 391 136 "/>
</clipPath>
</defs>
<g id="surface1">
<path style=" stroke:none;fill-rule:nonzero;fill:rgb(100%,100%,0%);fill-opacity:1;" d="M 303.046875 186.539062 L 359.183594 183.167969 L 359.351562 185.972656 L 303.214844 189.339844 "/>
<path style=" stroke:none;fill-rule:evenodd;fill:rgb(100%,100%,0%);fill-opacity:1;" d="M 387.898438 182.699219 L 357.210938 174.464844 L 358.519531 194.675781 Z M 387.898438 182.699219 "/>
<path style=" stroke:none;fill-rule:nonzero;fill:rgb(39.99939%,100%,100%);fill-opacity:1;" d="M 305.304688 191.59375 L 281.351562 236.503906 L 278.875 235.183594 L 302.828125 190.273438 "/>
<path style=" stroke:none;fill-rule:evenodd;fill:rgb(39.99939%,100%,100%);fill-opacity:1;" d="M 266.453125 261.105469 L 289.65625 239.398438 L 271.878906 229.855469 Z M 266.453125 261.105469 "/>
<path style=" stroke:none;fill-rule:nonzero;fill:rgb(39.99939%,100%,100%);fill-opacity:1;" d="M 303.40625 191.398438 L 247.265625 194.953125 L 247.089844 192.152344 L 303.226562 188.597656 "/>
<path style=" stroke:none;fill-rule:evenodd;fill:rgb(39.99939%,100%,100%);fill-opacity:1;" d="M 218.546875 195.425781 L 249.238281 203.46875 L 247.925781 183.449219 Z M 218.546875 195.425781 "/>
<path style=" stroke:none;fill-rule:nonzero;fill:rgb(39.99939%,100%,100%);fill-opacity:1;" d="M 303.074219 191.925781 L 252.175781 141.027344 L 254.160156 139.042969 L 305.058594 189.941406 "/>
<path style=" stroke:none;fill-rule:evenodd;fill:rgb(39.99939%,100%,100%);fill-opacity:1;" d="M 232.769531 119.636719 L 246.992188 148.082031 L 261.214844 133.859375 Z M 232.769531 119.636719 "/>
<path style=" stroke:none;fill-rule:nonzero;fill:rgb(100%,39.99939%,0%);fill-opacity:1;" d="M 302.691406 191.210938 L 284.351562 101.015625 L 287.101562 100.457031 L 305.441406 190.652344 "/>
<path style=" stroke:none;fill-rule:evenodd;fill:rgb(100%,39.99939%,0%);fill-opacity:1;" d="M 279.925781 72.480469 L 276.183594 104.105469 L 295.832031 100.175781 Z M 279.925781 72.480469 "/>
<g clip-path="url(#clip1)" clip-rule="nonzero">
<path style=" stroke:none;fill-rule:nonzero;fill:rgb(100%,100%,100%);fill-opacity:1;" d="M 138.082031 50.398438 L 137.660156 49.0625 C 148.996094 45.46875 160.433594 43.742188 171.714844 43.742188 C 225.859375 43.75 276.269531 83.398438 296.234375 145.96875 C 301.78125 163.261719 304.429688 180.457031 304.429688 196.953125 C 304.429688 224.867188 296.847656 250.785156 282.902344 271.765625 C 268.964844 292.746094 248.648438 308.785156 223.28125 316.894531 L 223.277344 316.898438 C 211.9375 320.492188 200.5 322.214844 189.21875 322.214844 C 135.078125 322.207031 84.664062 282.558594 64.703125 219.988281 C 59.21875 202.773438 56.605469 185.652344 56.605469 169.222656 C 56.605469 141.265625 64.179688 115.296875 78.109375 94.277344 C 92.035156 73.257812 112.324219 57.1875 137.65625 49.0625 L 137.660156 49.0625 L 138.082031 50.398438 L 138.511719 51.734375 C 113.796875 59.667969 94.050781 75.304688 80.449219 95.828125 C 66.851562 116.347656 59.410156 141.769531 59.410156 169.222656 C 59.410156 185.355469 61.980469 202.1875 67.378906 219.136719 C 87.050781 280.75 136.503906 319.417969 189.21875 319.410156 C 200.214844 319.410156 211.359375 317.730469 222.425781 314.222656 L 222.421875 314.222656 C 247.179688 306.304688 266.949219 290.695312 280.566406 270.214844 C 294.179688 249.730469 301.625 224.363281 301.625 196.953125 C 301.625 180.757812 299.023438 163.851562 293.558594 146.824219 C 273.882812 85.210938 224.433594 46.542969 171.714844 46.550781 C 160.71875 46.550781 149.574219 48.230469 138.507812 51.738281 L 138.511719 51.734375 Z M 138.082031 50.398438 "/>
</g>
<path style=" stroke:none;fill-rule:nonzero;fill:rgb(100%,100%,100%);fill-opacity:1;" d="M 146.503906 79.40625 L 146.078125 78.066406 C 154.984375 75.230469 163.960938 73.871094 172.808594 73.871094 C 214.972656 73.878906 254.054688 104.730469 269.660156 153.453125 C 273.960938 166.871094 276.015625 180.222656 276.015625 193.035156 C 276.015625 214.792969 270.097656 235.011719 259.203125 251.382812 C 248.3125 267.753906 232.433594 280.273438 212.613281 286.582031 C 203.769531 289.410156 194.84375 290.765625 186.039062 290.765625 C 143.898438 290.757812 104.648438 259.769531 89.03125 211.011719 C 84.78125 197.667969 82.75 184.386719 82.75 171.625 C 82.75 149.894531 88.640625 129.675781 99.511719 113.296875 C 110.378906 96.917969 126.242188 84.382812 146.078125 78.066406 L 146.503906 79.40625 L 146.929688 80.742188 C 127.710938 86.867188 112.394531 98.96875 101.851562 114.847656 C 91.3125 130.726562 85.558594 150.398438 85.558594 171.625 C 85.558594 184.085938 87.542969 197.082031 91.703125 210.15625 C 107.035156 257.964844 145.332031 287.96875 186.039062 287.957031 C 194.558594 287.957031 203.1875 286.648438 211.757812 283.910156 C 230.96875 277.785156 246.300781 265.703125 256.867188 249.828125 C 267.429688 233.957031 273.207031 214.285156 273.207031 193.035156 C 273.207031 180.519531 271.203125 167.460938 266.988281 154.308594 C 251.664062 106.53125 213.546875 76.667969 172.808594 76.675781 C 164.246094 76.675781 155.5625 77.992188 146.929688 80.742188 Z M 146.503906 79.40625 "/>
<path style=" stroke:none;fill-rule:nonzero;fill:rgb(100%,100%,100%);fill-opacity:1;" d="M 161.101562 116.082031 L 160.671875 114.742188 C 166.621094 112.851562 172.621094 111.941406 178.539062 111.941406 C 206.773438 111.949219 232.957031 132.597656 243.460938 165.242188 L 243.464844 165.242188 C 246.296875 174.128906 247.648438 182.972656 247.648438 191.472656 C 247.648438 206.039062 243.675781 219.597656 236.363281 230.585938 C 229.058594 241.574219 218.402344 249.984375 205.128906 254.210938 L 205.132812 254.207031 C 199.144531 256.148438 193.097656 257.082031 187.136719 257.078125 C 173.050781 257.082031 159.457031 251.878906 148.097656 242.613281 C 136.734375 233.347656 127.589844 220.015625 122.339844 203.714844 L 122.335938 203.710938 C 119.503906 194.828125 118.152344 185.984375 118.152344 177.480469 C 118.152344 162.917969 122.125 149.355469 129.4375 138.367188 C 136.742188 127.378906 147.402344 118.96875 160.671875 114.742188 L 161.101562 116.082031 L 161.527344 117.417969 C 148.871094 121.453125 138.753906 129.429688 131.773438 139.921875 C 124.792969 150.414062 120.960938 163.425781 120.960938 177.480469 C 120.960938 185.6875 122.265625 194.242188 125.011719 202.855469 L 125.011719 202.851562 C 130.105469 218.675781 138.957031 231.539062 149.871094 240.4375 C 160.789062 249.335938 173.75 254.273438 187.136719 254.273438 C 192.808594 254.273438 198.554688 253.390625 204.269531 251.539062 L 204.273438 251.535156 C 216.929688 247.5 227.046875 239.523438 234.027344 229.03125 C 241.007812 218.542969 244.839844 205.527344 244.839844 191.472656 C 244.839844 183.269531 243.535156 174.710938 240.789062 166.097656 L 240.789062 166.101562 C 230.570312 134.402344 205.347656 114.738281 178.539062 114.746094 C 172.90625 114.746094 167.199219 115.613281 161.527344 117.417969 Z M 161.101562 116.082031 "/>
<path style=" stroke:none;fill-rule:nonzero;fill:rgb(100%,100%,100%);fill-opacity:1;" d="M 173.636719 155.566406 L 173.214844 154.226562 C 175.820312 153.40625 178.449219 153.007812 181.039062 153.007812 C 193.410156 153.015625 204.742188 161.976562 209.21875 175.90625 L 209.21875 175.914062 C 210.445312 179.757812 211.03125 183.597656 211.03125 187.292969 C 211.03125 193.640625 209.300781 199.566406 206.101562 204.382812 C 202.902344 209.195312 198.21875 212.890625 192.398438 214.726562 L 192.40625 214.722656 C 189.832031 215.546875 187.226562 215.945312 184.648438 215.945312 C 172.335938 215.9375 160.871094 206.953125 156.394531 192.855469 L 156.390625 192.84375 C 155.222656 189.078125 154.660156 185.308594 154.660156 181.675781 C 154.660156 175.355469 156.359375 169.429688 159.535156 164.605469 C 162.710938 159.78125 167.378906 156.066406 173.214844 154.226562 L 173.636719 155.566406 L 174.0625 156.902344 C 168.851562 158.550781 164.730469 161.824219 161.878906 166.148438 C 159.03125 170.472656 157.464844 175.859375 157.464844 181.675781 C 157.464844 185.023438 157.984375 188.507812 159.070312 192.015625 L 159.070312 192.003906 C 163.253906 205.132812 173.753906 213.144531 184.648438 213.136719 C 186.9375 213.136719 189.253906 212.785156 191.546875 212.050781 L 191.554688 212.050781 C 196.75 210.40625 200.890625 207.144531 203.761719 202.828125 C 206.632812 198.511719 208.222656 193.128906 208.222656 187.292969 C 208.222656 183.894531 207.683594 180.34375 206.542969 176.761719 L 206.546875 176.765625 C 202.359375 163.789062 191.996094 155.8125 181.039062 155.816406 C 178.734375 155.816406 176.394531 156.167969 174.0625 156.902344 Z M 173.636719 155.566406 "/>
<path style=" stroke:none;fill-rule:nonzero;fill:rgb(39.99939%,100%,100%);fill-opacity:1;" d="M 294.613281 18.886719 L 310.519531 310.804688 L 307.714844 310.957031 L 291.808594 19.039062 "/>
<path style=" stroke:none;fill-rule:evenodd;fill:rgb(0%,0%,0%);fill-opacity:1;" d="M 303.316406 181.390625 C 307.808594 181.390625 311.175781 184.945312 311.175781 189.4375 C 311.175781 193.925781 307.808594 197.296875 303.316406 197.296875 C 298.824219 197.296875 295.269531 193.925781 295.269531 189.4375 C 295.269531 184.945312 298.824219 181.390625 303.316406 181.390625 "/>
<path style=" stroke:none;fill-rule:nonzero;fill:rgb(100%,100%,100%);fill-opacity:1;" d="M 303.316406 181.390625 L 303.316406 179.984375 C 305.9375 179.980469 308.285156 181.035156 309.941406 182.75 C 311.597656 184.464844 312.582031 186.839844 312.578125 189.4375 C 312.582031 192.035156 311.59375 194.375 309.921875 196.042969 C 308.257812 197.710938 305.914062 198.703125 303.316406 198.699219 C 300.71875 198.699219 298.347656 197.71875 296.632812 196.058594 C 294.917969 194.402344 293.863281 192.054688 293.867188 189.4375 C 293.867188 186.816406 294.910156 184.441406 296.617188 182.738281 C 298.320312 181.03125 300.699219 179.984375 303.316406 179.984375 L 303.316406 182.792969 C 299.585938 182.804688 296.683594 185.707031 296.675781 189.4375 C 296.679688 191.308594 297.402344 192.890625 298.585938 194.042969 C 299.773438 195.1875 301.421875 195.890625 303.316406 195.890625 C 305.210938 195.886719 306.796875 195.195312 307.9375 194.058594 C 309.074219 192.917969 309.769531 191.328125 309.773438 189.4375 C 309.769531 187.542969 309.070312 185.890625 307.921875 184.707031 C 306.773438 183.519531 305.1875 182.796875 303.316406 182.792969 Z M 303.316406 181.390625 "/>
<path style=" stroke:none;fill-rule:nonzero;fill:rgb(100%,100%,0%);fill-opacity:1;" d="M 322.835938 162.066406 L 323.289062 162.066406 C 323.578125 162.066406 323.777344 161.945312 323.886719 161.703125 L 335.269531 139.242188 L 335.292969 139.195312 L 335.300781 139.144531 C 335.300781 138.96875 335.210938 138.878906 335.027344 138.878906 L 311.097656 138.878906 C 310.914062 138.878906 310.824219 138.96875 310.824219 139.144531 L 310.847656 139.1875 L 310.855469 139.242188 L 322.238281 161.703125 C 322.347656 161.945312 322.546875 162.066406 322.835938 162.066406 M 315.117188 141.3125 L 332.910156 141.3125 L 324.015625 158.890625 Z M 315.117188 141.3125 "/>
<path style=" stroke:none;fill-rule:nonzero;fill:rgb(100%,100%,0%);fill-opacity:1;" d="M 341.464844 165.757812 C 341.820312 165.371094 341.996094 164.949219 341.996094 164.484375 C 341.996094 164.136719 341.871094 163.855469 341.621094 163.640625 C 341.371094 163.425781 341.058594 163.316406 340.6875 163.316406 C 340.132812 163.316406 339.671875 163.519531 339.304688 163.925781 C 338.941406 164.332031 338.757812 164.808594 338.757812 165.355469 C 338.757812 166.042969 339.054688 166.589844 339.644531 167.007812 C 340.238281 167.425781 340.90625 167.632812 341.65625 167.632812 C 342.632812 167.632812 343.480469 167.210938 344.199219 166.367188 C 344.914062 165.523438 345.5 164.480469 345.964844 163.230469 C 346.425781 161.980469 346.785156 160.765625 347.039062 159.578125 C 347.292969 158.394531 347.519531 157.226562 347.714844 156.078125 L 349.261719 148.171875 L 352.824219 148.171875 L 353.046875 148.054688 L 353.183594 147.738281 L 353.25 147.460938 C 353.25 147.175781 353.140625 147.035156 352.921875 147.035156 L 349.484375 147.035156 L 349.890625 144.898438 C 350.371094 142.476562 350.679688 140.988281 350.820312 140.441406 C 350.90625 140.09375 351.101562 139.765625 351.398438 139.460938 C 351.699219 139.15625 352.015625 139 352.355469 139 C 352.964844 139 353.476562 139.15625 353.886719 139.457031 C 353.394531 139.511719 352.984375 139.714844 352.652344 140.066406 C 352.320312 140.414062 352.152344 140.828125 352.152344 141.300781 C 352.152344 141.648438 352.28125 141.929688 352.539062 142.144531 C 352.792969 142.359375 353.101562 142.464844 353.460938 142.464844 C 353.996094 142.464844 354.453125 142.265625 354.828125 141.859375 C 355.203125 141.457031 355.394531 140.980469 355.394531 140.433594 C 355.394531 139.964844 355.246094 139.554688 354.953125 139.207031 C 354.660156 138.859375 354.28125 138.601562 353.820312 138.425781 C 353.359375 138.253906 352.882812 138.167969 352.394531 138.167969 C 351.644531 138.167969 350.945312 138.398438 350.300781 138.855469 C 349.65625 139.3125 349.140625 139.894531 348.761719 140.601562 C 348.511719 141.097656 348.324219 141.542969 348.199219 141.945312 C 348.074219 142.34375 347.957031 142.78125 347.851562 143.25 C 347.738281 143.71875 347.621094 144.28125 347.492188 144.933594 L 347.101562 147.035156 L 344.128906 147.035156 C 343.933594 147.035156 343.792969 147.273438 343.707031 147.746094 C 343.707031 148.03125 343.8125 148.171875 344.03125 148.171875 L 346.886719 148.171875 L 345.359375 156.109375 C 344.433594 160.703125 343.871094 163.410156 343.664062 164.234375 C 343.167969 165.941406 342.519531 166.792969 341.726562 166.792969 C 341.140625 166.792969 340.640625 166.640625 340.230469 166.335938 C 340.699219 166.335938 341.113281 166.144531 341.464844 165.757812 "/>
<path style=" stroke:none;fill-rule:nonzero;fill:rgb(100%,100%,0%);fill-opacity:1;" d="M 367.5625 169.085938 L 367.875 169.085938 L 368.046875 168.984375 L 368.136719 168.800781 L 368.035156 168.53125 C 364.246094 164.972656 362.347656 159.757812 362.347656 152.898438 C 362.347656 151.351562 362.449219 149.863281 362.644531 148.433594 C 362.839844 147.007812 363.160156 145.625 363.597656 144.292969 C 364.042969 142.960938 364.625 141.703125 365.347656 140.523438 C 366.074219 139.34375 366.980469 138.234375 368.070312 137.203125 L 368.136719 136.996094 L 368.054688 136.796875 L 367.875 136.710938 L 367.5625 136.710938 L 367.398438 136.777344 C 366.1875 137.691406 365.132812 138.761719 364.230469 139.984375 C 363.324219 141.207031 362.582031 142.519531 361.996094 143.921875 C 361.414062 145.324219 360.984375 146.78125 360.699219 148.300781 C 360.417969 149.816406 360.273438 151.351562 360.273438 152.898438 C 360.273438 154.429688 360.417969 155.949219 360.699219 157.46875 C 360.984375 158.984375 361.410156 160.4375 361.984375 161.832031 C 362.554688 163.222656 363.289062 164.53125 364.1875 165.757812 C 365.085938 166.984375 366.15625 168.074219 367.398438 169.023438 Z M 367.5625 169.085938 "/>
<path style=" stroke:none;fill-rule:nonzero;fill:rgb(100%,100%,0%);fill-opacity:1;" d="M 376.984375 160.992188 L 376.984375 159.347656 C 376.777344 159.347656 376.515625 159.320312 376.191406 159.269531 C 375.871094 159.214844 375.710938 159.152344 375.710938 159.082031 L 379.054688 155.398438 L 382.5 159.347656 L 381.257812 159.347656 L 381.257812 160.992188 L 389.140625 160.992188 L 389.140625 159.347656 L 386.644531 159.347656 L 381.226562 153.027344 L 385.304688 148.566406 C 385.5 148.367188 386.542969 148.269531 388.4375 148.269531 L 388.4375 146.621094 L 381.765625 146.621094 L 381.765625 148.269531 C 381.960938 148.269531 382.21875 148.289062 382.539062 148.332031 C 382.859375 148.371094 383.019531 148.441406 383.019531 148.539062 L 380.117188 151.730469 L 377.113281 148.269531 L 378.320312 148.269531 L 378.320312 146.621094 L 370.457031 146.621094 L 370.457031 148.269531 L 372.9375 148.269531 L 377.945312 154.101562 L 373.445312 159.046875 C 373.234375 159.25 372.1875 159.347656 370.292969 159.347656 L 370.292969 160.992188 Z M 376.984375 160.992188 "/>
<g clip-path="url(#clip2)" clip-rule="nonzero">
<path style=" stroke:none;fill-rule:nonzero;fill:rgb(100%,100%,0%);fill-opacity:1;" d="M 392.066406 169.085938 L 392.230469 169.023438 C 393.472656 168.074219 394.539062 166.992188 395.433594 165.773438 C 396.324219 164.558594 397.066406 163.230469 397.648438 161.792969 C 398.230469 160.351562 398.65625 158.894531 398.921875 157.414062 C 399.1875 155.933594 399.320312 154.429688 399.320312 152.898438 C 399.320312 150.832031 399.074219 148.8125 398.578125 146.828125 C 398.082031 144.847656 397.300781 142.984375 396.234375 141.234375 C 395.164062 139.484375 393.832031 138 392.230469 136.777344 L 392.066406 136.710938 L 391.757812 136.710938 L 391.550781 136.796875 L 391.460938 136.996094 L 391.59375 137.265625 C 395.363281 140.828125 397.246094 146.039062 397.246094 152.898438 C 397.246094 159.757812 395.339844 164.992188 391.527344 168.59375 L 391.460938 168.800781 C 391.460938 168.992188 391.558594 169.085938 391.757812 169.085938 Z M 392.066406 169.085938 "/>
</g>
<path style=" stroke:none;fill-rule:nonzero;fill:rgb(0%,100%,100%);fill-opacity:1;" d="M 11.976562 29.957031 L 12.429688 29.957031 C 12.71875 29.957031 12.917969 29.832031 13.023438 29.59375 L 24.375 7.128906 L 24.398438 7.082031 L 24.40625 7.035156 C 24.40625 6.855469 24.316406 6.765625 24.132812 6.765625 L 0.273438 6.765625 C 0.0898438 6.765625 0 6.855469 0 7.035156 L 0.0234375 7.074219 L 0.03125 7.128906 L 11.382812 29.59375 C 11.488281 29.832031 11.6875 29.957031 11.976562 29.957031 M 4.28125 9.199219 L 22.023438 9.199219 L 13.152344 26.777344 Z M 4.28125 9.199219 "/>
<path style=" stroke:none;fill-rule:nonzero;fill:rgb(0%,100%,100%);fill-opacity:1;" d="M 28.53125 15.476562 L 28.726562 15.59375 L 37.242188 15.59375 L 37.492188 15.394531 L 37.582031 15.027344 C 37.582031 14.855469 37.492188 14.738281 37.3125 14.679688 C 35.941406 14.679688 35.058594 14.636719 34.664062 14.546875 C 34.496094 14.523438 34.410156 14.421875 34.410156 14.246094 L 34.429688 14.152344 L 34.433594 14.046875 L 37.582031 1.714844 C 37.691406 1.332031 37.808594 1.097656 37.9375 1.023438 C 38.066406 0.949219 38.347656 0.914062 38.785156 0.914062 L 40.394531 0.914062 C 41.414062 0.914062 42.152344 1.023438 42.617188 1.238281 C 43.082031 1.453125 43.3125 1.992188 43.3125 2.855469 C 43.3125 3.269531 43.246094 3.976562 43.109375 4.980469 C 43.109375 5.167969 43.199219 5.285156 43.382812 5.339844 L 43.691406 5.339844 L 44 5.046875 L 44.695312 0.34375 C 44.695312 0.167969 44.601562 0.0507812 44.410156 0 L 29.195312 0 L 28.917969 0.1875 L 27.230469 4.882812 L 27.207031 5.027344 C 27.207031 5.183594 27.304688 5.285156 27.492188 5.339844 L 27.792969 5.339844 L 28.074219 5.136719 C 28.394531 4.238281 28.664062 3.550781 28.886719 3.078125 C 29.105469 2.601562 29.378906 2.203125 29.703125 1.882812 C 30.027344 1.5625 30.453125 1.324219 30.980469 1.15625 C 31.507812 0.996094 32.207031 0.914062 33.074219 0.914062 L 34.683594 0.914062 C 35.203125 0.914062 35.460938 0.949219 35.460938 1.023438 C 35.4375 1.195312 35.398438 1.371094 35.347656 1.550781 L 32.183594 13.878906 C 32.101562 14.234375 31.90625 14.457031 31.601562 14.546875 C 31.167969 14.636719 30.234375 14.679688 28.792969 14.679688 L 28.542969 14.859375 L 28.453125 15.226562 Z M 28.53125 15.476562 "/>
<path style=" stroke:none;fill-rule:nonzero;fill:rgb(0%,100%,100%);fill-opacity:1;" d="M 51.605469 33.644531 C 51.957031 33.261719 52.136719 32.835938 52.136719 32.375 C 52.136719 32.027344 52.011719 31.742188 51.761719 31.527344 C 51.507812 31.3125 51.199219 31.203125 50.828125 31.203125 C 50.273438 31.203125 49.808594 31.40625 49.445312 31.8125 C 49.082031 32.21875 48.898438 32.695312 48.898438 33.242188 C 48.898438 33.929688 49.191406 34.480469 49.785156 34.894531 C 50.378906 35.3125 51.046875 35.519531 51.796875 35.519531 C 52.773438 35.519531 53.621094 35.097656 54.335938 34.253906 C 55.050781 33.414062 55.640625 32.367188 56.101562 31.117188 C 56.5625 29.867188 56.921875 28.652344 57.175781 27.464844 C 57.433594 26.28125 57.65625 25.113281 57.851562 23.964844 L 59.398438 16.058594 L 62.964844 16.058594 L 63.1875 15.941406 L 63.324219 15.625 L 63.390625 15.347656 C 63.390625 15.0625 63.28125 14.921875 63.0625 14.921875 L 59.621094 14.921875 L 60.03125 12.785156 C 60.511719 10.363281 60.820312 8.875 60.960938 8.328125 C 61.046875 7.980469 61.238281 7.652344 61.539062 7.347656 C 61.839844 7.042969 62.15625 6.890625 62.492188 6.890625 C 63.105469 6.890625 63.613281 7.042969 64.027344 7.34375 C 63.535156 7.398438 63.125 7.601562 62.792969 7.953125 C 62.460938 8.304688 62.292969 8.71875 62.292969 9.1875 C 62.292969 9.535156 62.421875 9.816406 62.675781 10.03125 C 62.933594 10.246094 63.242188 10.355469 63.601562 10.355469 C 64.136719 10.355469 64.589844 10.152344 64.96875 9.75 C 65.34375 9.34375 65.53125 8.867188 65.53125 8.320312 C 65.53125 7.851562 65.382812 7.441406 65.09375 7.09375 C 64.800781 6.75 64.421875 6.488281 63.960938 6.3125 C 63.5 6.140625 63.023438 6.054688 62.535156 6.054688 C 61.785156 6.054688 61.085938 6.285156 60.441406 6.742188 C 59.796875 7.203125 59.28125 7.785156 58.902344 8.488281 C 58.652344 8.984375 58.460938 9.433594 58.339844 9.832031 C 58.214844 10.234375 58.097656 10.667969 57.988281 11.136719 C 57.878906 11.605469 57.761719 12.167969 57.628906 12.820312 L 57.238281 14.921875 L 54.265625 14.921875 C 54.074219 14.921875 53.933594 15.160156 53.84375 15.632812 C 53.84375 15.917969 53.953125 16.058594 54.171875 16.058594 L 57.027344 16.058594 L 55.496094 23.996094 C 54.574219 28.589844 54.011719 31.300781 53.804688 32.121094 C 53.304688 33.828125 52.660156 34.679688 51.867188 34.679688 C 51.28125 34.679688 50.78125 34.53125 50.371094 34.222656 C 50.839844 34.222656 51.25 34.03125 51.605469 33.644531 "/>
<path style=" stroke:none;fill-rule:nonzero;fill:rgb(0%,100%,100%);fill-opacity:1;" d="M 77.480469 36.972656 L 77.789062 36.972656 L 77.960938 36.871094 L 78.050781 36.6875 L 77.953125 36.417969 C 74.175781 32.859375 72.285156 27.648438 72.285156 20.789062 C 72.285156 19.238281 72.382812 17.75 72.578125 16.324219 C 72.773438 14.894531 73.089844 13.511719 73.53125 12.179688 C 73.96875 10.847656 74.550781 9.589844 75.273438 8.410156 C 75.996094 7.230469 76.898438 6.125 77.984375 5.089844 L 78.050781 4.886719 L 77.96875 4.6875 L 77.789062 4.601562 L 77.480469 4.601562 L 77.316406 4.664062 C 76.113281 5.582031 75.058594 6.648438 74.15625 7.875 C 73.257812 9.09375 72.515625 10.40625 71.933594 11.808594 C 71.355469 13.210938 70.921875 14.671875 70.640625 16.1875 C 70.355469 17.707031 70.214844 19.238281 70.214844 20.789062 C 70.214844 22.316406 70.355469 23.835938 70.640625 25.355469 C 70.921875 26.871094 71.347656 28.328125 71.917969 29.71875 C 72.488281 31.109375 73.222656 32.417969 74.117188 33.648438 C 75.011719 34.875 76.078125 35.960938 77.316406 36.910156 Z M 77.480469 36.972656 "/>
<path style=" stroke:none;fill-rule:nonzero;fill:rgb(0%,100%,100%);fill-opacity:1;" d="M 87.457031 28.878906 L 87.457031 27.234375 C 87.25 27.234375 86.988281 27.210938 86.667969 27.15625 C 86.347656 27.105469 86.191406 27.039062 86.191406 26.96875 L 89.515625 23.285156 L 92.9375 27.234375 L 91.703125 27.234375 L 91.703125 28.878906 L 99.542969 28.878906 L 99.542969 27.234375 L 97.058594 27.234375 L 91.671875 20.914062 L 95.726562 16.457031 C 95.921875 16.257812 96.960938 16.15625 98.84375 16.15625 L 98.84375 14.511719 L 92.207031 14.511719 L 92.207031 16.15625 C 92.402344 16.15625 92.660156 16.175781 92.980469 16.21875 C 93.296875 16.261719 93.457031 16.328125 93.457031 16.425781 L 90.570312 19.617188 L 87.585938 16.15625 L 88.785156 16.15625 L 88.785156 14.511719 L 80.964844 14.511719 L 80.964844 16.15625 L 83.433594 16.15625 L 88.410156 21.988281 L 83.933594 26.9375 C 83.730469 27.136719 82.683594 27.234375 80.804688 27.234375 L 80.804688 28.878906 Z M 87.457031 28.878906 "/>
<path style=" stroke:none;fill-rule:nonzero;fill:rgb(0%,100%,100%);fill-opacity:1;" d="M 102.386719 36.972656 L 102.546875 36.910156 C 103.785156 35.960938 104.847656 34.878906 105.742188 33.660156 C 106.632812 32.445312 107.367188 31.117188 107.945312 29.679688 C 108.527344 28.242188 108.953125 26.78125 109.21875 25.300781 C 109.484375 23.820312 109.617188 22.316406 109.617188 20.789062 C 109.617188 18.722656 109.371094 16.699219 108.875 14.714844 C 108.378906 12.738281 107.601562 10.871094 106.539062 9.121094 C 105.472656 7.371094 104.144531 5.886719 102.546875 4.664062 L 102.386719 4.601562 L 102.078125 4.601562 L 101.871094 4.6875 L 101.78125 4.886719 L 101.914062 5.15625 C 105.667969 8.714844 107.546875 13.925781 107.546875 20.789062 C 107.546875 27.648438 105.648438 32.878906 101.847656 36.484375 L 101.78125 36.6875 C 101.78125 36.878906 101.878906 36.972656 102.078125 36.972656 Z M 102.386719 36.972656 "/>
<path style=" stroke:none;fill-rule:nonzero;fill:rgb(0%,100%,100%);fill-opacity:1;" d="M 123.140625 36.972656 L 123.449219 36.972656 L 123.621094 36.871094 L 123.710938 36.6875 L 123.609375 36.417969 C 119.832031 32.859375 117.941406 27.648438 117.941406 20.789062 C 117.941406 19.238281 118.042969 17.75 118.234375 16.324219 C 118.433594 14.894531 118.75 13.511719 119.1875 12.179688 C 119.628906 10.847656 120.210938 9.589844 120.933594 8.410156 C 121.652344 7.230469 122.558594 6.125 123.644531 5.089844 L 123.710938 4.886719 L 123.628906 4.6875 L 123.449219 4.601562 L 123.140625 4.601562 L 122.976562 4.664062 C 121.769531 5.582031 120.71875 6.648438 119.816406 7.875 C 118.914062 9.09375 118.175781 10.40625 117.59375 11.808594 C 117.011719 13.210938 116.578125 14.671875 116.296875 16.1875 C 116.015625 17.707031 115.875 19.238281 115.875 20.789062 C 115.875 22.316406 116.015625 23.835938 116.296875 25.355469 C 116.578125 26.871094 117.007812 28.328125 117.578125 29.71875 C 118.144531 31.109375 118.878906 32.417969 119.777344 33.648438 C 120.671875 34.875 121.738281 35.960938 122.976562 36.910156 Z M 123.140625 36.972656 "/>
<path style=" stroke:none;fill-rule:nonzero;fill:rgb(0%,100%,100%);fill-opacity:1;" d="M 127.167969 34.492188 C 127.886719 35.070312 128.703125 35.363281 129.609375 35.363281 C 130.8125 35.363281 131.90625 34.976562 132.898438 34.207031 C 133.886719 33.4375 134.640625 32.496094 135.160156 31.378906 L 142.304688 16.425781 C 142.464844 16.246094 143.242188 16.15625 144.632812 16.15625 L 144.632812 14.511719 L 138.855469 14.511719 L 138.855469 16.15625 C 139.191406 16.15625 139.539062 16.175781 139.90625 16.210938 C 140.273438 16.25 140.457031 16.320312 140.457031 16.425781 L 136.5625 24.582031 L 132.527344 16.15625 L 134.273438 16.15625 L 134.273438 14.511719 L 126.21875 14.511719 L 126.21875 16.15625 L 128.410156 16.15625 L 134.5 28.878906 L 133.296875 31.378906 C 132.953125 32.136719 132.449219 32.773438 131.796875 33.289062 C 131.140625 33.808594 130.410156 34.066406 129.609375 34.066406 C 129.488281 34.066406 129.3125 34.042969 129.074219 34 C 129.722656 33.632812 130.046875 33.058594 130.046875 32.277344 C 130.046875 31.742188 129.855469 31.289062 129.480469 30.917969 C 129.101562 30.550781 128.636719 30.367188 128.085938 30.367188 C 127.511719 30.367188 127.035156 30.550781 126.65625 30.917969 C 126.277344 31.289062 126.089844 31.742188 126.089844 32.277344 C 126.089844 33.175781 126.449219 33.910156 127.167969 34.492188 "/>
<path style=" stroke:none;fill-rule:nonzero;fill:rgb(0%,100%,100%);fill-opacity:1;" d="M 176.269531 21.433594 C 176.441406 21.433594 176.585938 21.367188 176.699219 21.230469 L 176.867188 20.789062 L 176.699219 20.34375 C 176.585938 20.207031 176.441406 20.136719 176.269531 20.136719 L 157.355469 20.136719 C 157.171875 20.136719 157.019531 20.207031 156.902344 20.34375 L 156.726562 20.789062 L 156.902344 21.230469 C 157.019531 21.367188 157.171875 21.433594 157.355469 21.433594 Z M 176.269531 21.433594 "/>
<path style=" stroke:none;fill-rule:nonzero;fill:rgb(0%,100%,100%);fill-opacity:1;" d="M 194.304688 28.878906 L 194.304688 27.234375 C 194.097656 27.234375 193.835938 27.210938 193.519531 27.15625 C 193.199219 27.105469 193.039062 27.039062 193.039062 26.96875 L 196.367188 23.285156 L 199.789062 27.234375 L 198.554688 27.234375 L 198.554688 28.878906 L 206.390625 28.878906 L 206.390625 27.234375 L 203.910156 27.234375 L 198.523438 20.914062 L 202.578125 16.457031 C 202.773438 16.257812 203.8125 16.15625 205.695312 16.15625 L 205.695312 14.511719 L 199.058594 14.511719 L 199.058594 16.15625 C 199.253906 16.15625 199.507812 16.175781 199.828125 16.21875 C 200.148438 16.261719 200.308594 16.328125 200.308594 16.425781 L 197.421875 19.617188 L 194.433594 16.15625 L 195.636719 16.15625 L 195.636719 14.511719 L 187.816406 14.511719 L 187.816406 16.15625 L 190.28125 16.15625 L 195.261719 21.988281 L 190.785156 26.9375 C 190.578125 27.136719 189.535156 27.234375 187.65625 27.234375 L 187.65625 28.878906 Z M 194.304688 28.878906 "/>
<path style=" stroke:none;fill-rule:nonzero;fill:rgb(0%,100%,100%);fill-opacity:1;" d="M 209.421875 36.972656 L 209.585938 36.910156 C 210.824219 35.960938 211.886719 34.878906 212.777344 33.660156 C 213.667969 32.445312 214.402344 31.117188 214.984375 29.679688 C 215.566406 28.242188 215.988281 26.78125 216.253906 25.300781 C 216.519531 23.820312 216.65625 22.316406 216.65625 20.789062 C 216.65625 18.722656 216.40625 16.699219 215.914062 14.714844 C 215.417969 12.738281 214.640625 10.871094 213.578125 9.121094 C 212.511719 7.371094 211.179688 5.886719 209.585938 4.664062 L 209.421875 4.601562 L 209.113281 4.601562 L 208.910156 4.6875 L 208.820312 4.886719 L 208.949219 5.15625 C 212.707031 8.714844 214.585938 13.925781 214.585938 20.789062 C 214.585938 27.648438 212.6875 32.878906 208.886719 36.484375 L 208.820312 36.6875 C 208.820312 36.878906 208.917969 36.972656 209.113281 36.972656 Z M 209.421875 36.972656 "/>
<path style=" stroke:none;fill-rule:nonzero;fill:rgb(0%,100%,100%);fill-opacity:1;" d="M 251.582031 33.289062 L 251.8125 33.324219 C 251.996094 33.324219 252.15625 33.257812 252.285156 33.132812 C 252.417969 33.007812 252.484375 32.851562 252.484375 32.675781 C 252.484375 32.390625 252.351562 32.195312 252.089844 32.089844 L 232.929688 23.347656 L 232.667969 23.316406 C 232.460938 23.316406 232.300781 23.378906 232.179688 23.503906 C 232.058594 23.632812 231.996094 23.785156 231.996094 23.964844 C 231.996094 24.238281 232.144531 24.433594 232.441406 24.550781 Z M 251.582031 26.96875 L 251.8125 27.03125 C 251.996094 27.03125 252.15625 26.972656 252.285156 26.851562 C 252.417969 26.726562 252.484375 26.574219 252.484375 26.382812 C 252.484375 26.121094 252.386719 25.933594 252.1875 25.828125 L 234.242188 17.640625 L 252.089844 9.515625 C 252.351562 9.410156 252.484375 9.214844 252.484375 8.933594 C 252.484375 8.753906 252.417969 8.597656 252.285156 8.472656 C 252.15625 8.347656 251.996094 8.28125 251.8125 8.28125 L 251.582031 8.332031 L 232.441406 17.058594 C 232.144531 17.171875 231.996094 17.367188 231.996094 17.640625 C 231.996094 17.949219 232.109375 18.132812 232.324219 18.195312 Z M 251.582031 26.96875 "/>
<path style=" stroke:none;fill-rule:nonzero;fill:rgb(0%,100%,100%);fill-opacity:1;" d="M 276.382812 27.890625 C 277.414062 26.761719 278.105469 25.386719 278.460938 23.765625 C 278.8125 22.148438 278.988281 20.414062 278.988281 18.558594 C 278.988281 17.175781 278.898438 15.859375 278.71875 14.597656 C 278.539062 13.339844 278.207031 12.160156 277.71875 11.058594 C 277.230469 9.957031 276.519531 9.058594 275.585938 8.363281 C 274.648438 7.667969 273.449219 7.320312 271.984375 7.320312 C 270.09375 7.320312 268.625 7.894531 267.578125 9.050781 C 266.53125 10.203125 265.832031 11.609375 265.480469 13.261719 C 265.125 14.917969 264.949219 16.683594 264.949219 18.558594 C 264.949219 21.5625 265.441406 24.152344 266.421875 26.328125 C 267.40625 28.503906 269.257812 29.589844 271.984375 29.589844 C 273.886719 29.589844 275.351562 29.023438 276.382812 27.890625 M 269.679688 27.59375 C 269.101562 26.816406 268.679688 25.863281 268.417969 24.730469 C 268.15625 23.597656 267.996094 22.5 267.9375 21.433594 C 267.878906 20.371094 267.847656 19.238281 267.847656 18.035156 C 267.847656 16.414062 267.917969 14.921875 268.058594 13.554688 C 268.203125 12.191406 268.574219 10.949219 269.183594 9.832031 C 269.792969 8.714844 270.726562 8.15625 271.984375 8.15625 C 273.234375 8.15625 274.160156 8.714844 274.761719 9.824219 C 275.363281 10.9375 275.738281 12.175781 275.878906 13.546875 C 276.019531 14.917969 276.089844 16.414062 276.089844 18.035156 C 276.089844 19.722656 276.019531 21.316406 275.878906 22.808594 C 275.738281 24.308594 275.363281 25.671875 274.753906 26.90625 C 274.148438 28.136719 273.222656 28.753906 271.984375 28.753906 C 271.03125 28.753906 270.261719 28.367188 269.679688 27.59375 "/>
</g>
</svg>
