<?xml version="1.0" encoding="UTF-8"?>
<svg xmlns="http://www.w3.org/2000/svg" xmlns:xlink="http://www.w3.org/1999/xlink" width="353.148pt" height="390.11pt" viewBox="0 0 353.148 390.11" version="1.1">
<defs>
<clipPath id="clip1">
  <path d="M 8 343 L 353.148438 343 L 353.148438 347 L 8 347 Z M 8 343 "/>
</clipPath>
<clipPath id="clip2">
  <path d="M 45 360 L 53 360 L 53 390.109375 L 45 390.109375 Z M 45 360 "/>
</clipPath>
<clipPath id="clip3">
  <path d="M 89 360 L 97 360 L 97 390.109375 L 89 390.109375 Z M 89 360 "/>
</clipPath>
</defs>
<g id="surface1">
<path style=" stroke:none;fill-rule:nonzero;fill:rgb(100%,100%,40%);fill-opacity:0.5;" d="M 8.429688 14.769531 L 8.429688 344.71875 L 338.378906 344.71875 L 338.378906 14.769531 Z M 8.429688 14.769531 "/>
<path style=" stroke:none;fill-rule:evenodd;fill:rgb(39.99939%,79.998779%,100%);fill-opacity:1;" d="M 219.1875 14.769531 C 22.503906 141.085938 8.429688 344.71875 8.429688 344.71875 C 8.429688 344.71875 170.015625 344.71875 338.378906 134.132812 C 332.820312 140.738281 215.015625 18.9375 219.1875 14.769531 "/>
<path style=" stroke:none;fill-rule:nonzero;fill:rgb(100%,100%,0%);fill-opacity:1;" d="M 7.128906 344.71875 L 7.128906 0 L 9.734375 0 L 9.734375 344.71875 "/>
<g clip-path="url(#clip1)" clip-rule="nonzero">
<path style=" stroke:none;fill-rule:nonzero;fill:rgb(100%,100%,0%);fill-opacity:1;" d="M 8.429688 343.414062 L 353.148438 343.414062 L 353.148438 346.019531 L 8.429688 346.019531 "/>
</g>
<path style=" stroke:none;fill-rule:evenodd;fill:rgb(0%,0%,0%);fill-opacity:1;" d="M 8.605469 337.421875 C 12.773438 337.421875 16.074219 340.722656 16.074219 344.890625 C 16.074219 349.0625 12.773438 352.191406 8.605469 352.191406 C 4.433594 352.191406 1.308594 349.0625 1.308594 344.890625 C 1.308594 340.722656 4.433594 337.421875 8.605469 337.421875 "/>
<path style=" stroke:none;fill-rule:nonzero;fill:rgb(100%,100%,100%);fill-opacity:1;" d="M 8.605469 337.421875 L 8.605469 336.117188 C 11.035156 336.117188 13.242188 337.085938 14.824219 338.671875 C 16.410156 340.253906 17.378906 342.460938 17.378906 344.890625 C 17.382812 347.324219 16.402344 349.503906 14.808594 351.039062 C 13.21875 352.582031 11.015625 353.492188 8.605469 353.492188 C 6.191406 353.496094 4.019531 352.578125 2.46875 351.027344 C 0.917969 349.480469 0 347.304688 0.00390625 344.890625 C 0.00390625 342.480469 0.914062 340.277344 2.453125 338.6875 C 3.992188 337.09375 6.171875 336.113281 8.605469 336.117188 L 8.605469 338.722656 C 6.867188 338.726562 5.398438 339.398438 4.328125 340.5 C 3.261719 341.601562 2.609375 343.132812 2.609375 344.890625 C 2.613281 346.652344 3.257812 348.125 4.3125 349.183594 C 5.371094 350.238281 6.847656 350.882812 8.605469 350.886719 C 10.363281 350.886719 11.894531 350.234375 12.996094 349.167969 C 14.097656 348.101562 14.769531 346.628906 14.773438 344.890625 C 14.769531 343.152344 14.089844 341.625 12.980469 340.515625 C 11.871094 339.40625 10.34375 338.726562 8.605469 338.722656 Z M 8.605469 337.421875 "/>
<path style=" stroke:none;fill-rule:evenodd;fill:rgb(100%,0%,0%);fill-opacity:1;" d="M 109.378906 108.417969 C 113.546875 108.417969 116.847656 111.546875 116.847656 115.71875 C 116.847656 119.886719 113.546875 123.1875 109.378906 123.1875 C 105.207031 123.1875 102.082031 119.886719 102.082031 115.71875 C 102.082031 111.546875 105.207031 108.417969 109.378906 108.417969 "/>
<path style=" stroke:none;fill-rule:nonzero;fill:rgb(100%,100%,100%);fill-opacity:1;" d="M 109.378906 108.421875 L 109.378906 107.117188 C 111.789062 107.113281 113.992188 108.027344 115.585938 109.570312 C 117.175781 111.105469 118.15625 113.285156 118.152344 115.71875 C 118.15625 118.148438 117.183594 120.355469 115.597656 121.9375 C 114.015625 123.523438 111.808594 124.492188 109.378906 124.492188 C 106.945312 124.496094 104.765625 123.515625 103.230469 121.921875 C 101.6875 120.332031 100.777344 118.128906 100.777344 115.71875 C 100.773438 113.304688 101.691406 111.132812 103.246094 109.585938 C 104.792969 108.03125 106.964844 107.113281 109.378906 107.117188 L 109.378906 109.722656 C 107.621094 109.726562 106.144531 110.371094 105.085938 111.425781 C 104.03125 112.484375 103.386719 113.960938 103.382812 115.71875 C 103.386719 117.476562 104.039062 119.007812 105.101562 120.109375 C 106.171875 121.210938 107.640625 121.882812 109.378906 121.886719 C 111.117188 121.882812 112.644531 121.203125 113.757812 120.09375 C 114.863281 118.984375 115.546875 117.457031 115.546875 115.71875 C 115.542969 113.980469 114.871094 112.511719 113.769531 111.441406 C 112.667969 110.378906 111.136719 109.726562 109.378906 109.722656 Z M 109.378906 108.421875 "/>
<path style=" stroke:none;fill-rule:evenodd;fill:rgb(100%,0%,0%);fill-opacity:1;" d="M 183.222656 221.703125 C 187.566406 221.703125 190.691406 224.832031 190.691406 229 C 190.691406 233.171875 187.566406 236.472656 183.222656 236.472656 C 179.050781 236.472656 175.925781 233.171875 175.925781 229 C 175.925781 224.832031 179.050781 221.703125 183.222656 221.703125 "/>
<path style=" stroke:none;fill-rule:nonzero;fill:rgb(100%,100%,100%);fill-opacity:1;" d="M 183.222656 221.703125 L 183.222656 220.402344 C 185.707031 220.398438 187.925781 221.308594 189.5 222.859375 C 191.078125 224.410156 192 226.589844 191.996094 229 C 191.996094 231.414062 191.085938 233.621094 189.515625 235.214844 C 187.949219 236.8125 185.722656 237.777344 183.222656 237.777344 C 180.789062 237.777344 178.609375 236.800781 177.074219 235.207031 C 175.53125 233.617188 174.621094 231.414062 174.621094 229 C 174.617188 226.589844 175.535156 224.414062 177.085938 222.867188 C 178.636719 221.316406 180.808594 220.398438 183.222656 220.402344 L 183.222656 223.007812 C 181.464844 223.011719 179.988281 223.65625 178.929688 224.710938 C 177.875 225.769531 177.230469 227.242188 177.226562 229 C 177.226562 230.761719 177.878906 232.292969 178.945312 233.394531 C 180.015625 234.496094 181.484375 235.167969 183.222656 235.167969 C 185.0625 235.167969 186.574219 234.484375 187.65625 233.386719 C 188.738281 232.285156 189.386719 230.761719 189.390625 229 C 189.386719 227.242188 188.742188 225.777344 187.671875 224.71875 C 186.597656 223.664062 185.082031 223.011719 183.222656 223.007812 Z M 183.222656 221.703125 "/>
<path style=" stroke:none;fill-rule:nonzero;fill:rgb(100%,100%,0%);fill-opacity:1;" d="M 17.960938 387.019531 C 18.292969 386.664062 18.457031 386.269531 18.457031 385.839844 C 18.457031 385.515625 18.339844 385.253906 18.105469 385.054688 C 17.875 384.855469 17.585938 384.753906 17.242188 384.753906 C 16.722656 384.753906 16.296875 384.941406 15.957031 385.316406 C 15.617188 385.695312 15.449219 386.136719 15.449219 386.648438 C 15.449219 387.28125 15.722656 387.792969 16.273438 388.179688 C 16.820312 388.566406 17.445312 388.757812 18.140625 388.757812 C 19.046875 388.757812 19.832031 388.367188 20.5 387.585938 C 21.164062 386.800781 21.710938 385.832031 22.140625 384.671875 C 22.566406 383.511719 22.898438 382.382812 23.136719 381.28125 C 23.375 380.179688 23.582031 379.097656 23.765625 378.03125 L 25.199219 370.691406 L 28.511719 370.691406 L 28.714844 370.582031 C 28.769531 370.507812 28.8125 370.410156 28.84375 370.289062 C 28.875 370.167969 28.894531 370.082031 28.90625 370.03125 C 28.90625 369.769531 28.804688 369.636719 28.601562 369.636719 L 25.410156 369.636719 L 25.785156 367.652344 C 26.230469 365.402344 26.519531 364.023438 26.648438 363.511719 C 26.730469 363.191406 26.910156 362.886719 27.1875 362.601562 C 27.464844 362.320312 27.761719 362.175781 28.074219 362.175781 C 28.636719 362.175781 29.113281 362.320312 29.496094 362.601562 C 29.042969 362.648438 28.660156 362.835938 28.351562 363.164062 C 28.042969 363.492188 27.886719 363.875 27.886719 364.3125 C 27.886719 364.632812 28.003906 364.894531 28.242188 365.09375 C 28.480469 365.292969 28.765625 365.394531 29.101562 365.394531 C 29.597656 365.394531 30.019531 365.207031 30.371094 364.832031 C 30.71875 364.457031 30.894531 364.015625 30.894531 363.507812 C 30.894531 363.070312 30.757812 362.6875 30.484375 362.367188 C 30.214844 362.046875 29.863281 361.804688 29.433594 361.644531 C 29.003906 361.484375 28.5625 361.402344 28.109375 361.402344 C 27.414062 361.402344 26.765625 361.613281 26.167969 362.039062 C 25.566406 362.464844 25.089844 363.007812 24.738281 363.660156 C 24.503906 364.121094 24.332031 364.539062 24.214844 364.910156 C 24.097656 365.28125 23.992188 365.6875 23.890625 366.121094 C 23.789062 366.554688 23.679688 367.078125 23.558594 367.683594 L 23.195312 369.636719 L 20.433594 369.636719 C 20.253906 369.636719 20.125 369.855469 20.042969 370.296875 C 20.042969 370.5625 20.144531 370.691406 20.34375 370.691406 L 22.996094 370.691406 L 21.578125 378.0625 C 20.71875 382.328125 20.195312 384.839844 20.003906 385.605469 C 19.542969 387.191406 18.941406 387.980469 18.207031 387.980469 C 17.664062 387.980469 17.199219 387.839844 16.816406 387.558594 C 17.25 387.558594 17.632812 387.378906 17.960938 387.019531 "/>
<path style=" stroke:none;fill-rule:nonzero;fill:rgb(100%,100%,0%);fill-opacity:1;" d="M 38.246094 386.148438 C 39 385.457031 39.515625 384.585938 39.796875 383.535156 C 40.078125 382.488281 40.21875 381.335938 40.21875 380.082031 C 40.21875 378.03125 39.851562 376.304688 39.121094 374.902344 C 38.386719 373.503906 37.058594 372.804688 35.132812 372.804688 C 33.214844 372.804688 31.886719 373.503906 31.148438 374.902344 C 30.410156 376.304688 30.039062 378.03125 30.039062 380.082031 C 30.039062 381.335938 30.179688 382.488281 30.460938 383.535156 C 30.742188 384.585938 31.261719 385.457031 32.015625 386.148438 C 32.773438 386.839844 33.8125 387.1875 35.132812 387.1875 C 36.457031 387.1875 37.492188 386.839844 38.246094 386.148438 M 33.449219 385.816406 C 33.023438 385.355469 32.71875 384.773438 32.535156 384.074219 C 32.347656 383.378906 32.234375 382.6875 32.1875 382.003906 C 32.140625 381.316406 32.117188 380.558594 32.117188 379.722656 C 32.117188 378.910156 32.140625 378.1875 32.1875 377.550781 C 32.234375 376.917969 32.347656 376.289062 32.53125 375.664062 C 32.710938 375.039062 33.011719 374.519531 33.433594 374.101562 C 33.859375 373.6875 34.425781 373.480469 35.132812 373.480469 C 36.050781 373.480469 36.730469 373.816406 37.171875 374.488281 C 37.609375 375.160156 37.882812 375.921875 37.984375 376.777344 C 38.089844 377.632812 38.140625 378.613281 38.140625 379.722656 C 38.140625 380.878906 38.089844 381.925781 37.984375 382.859375 C 37.882812 383.792969 37.609375 384.636719 37.164062 385.382812 C 36.71875 386.132812 36.042969 386.507812 35.132812 386.507812 C 34.4375 386.507812 33.878906 386.277344 33.449219 385.816406 "/>
<g clip-path="url(#clip2)" clip-rule="nonzero">
<path style=" stroke:none;fill-rule:nonzero;fill:rgb(100%,100%,0%);fill-opacity:1;" d="M 52.273438 390.109375 L 52.558594 390.109375 L 52.71875 390.015625 L 52.800781 389.847656 C 52.800781 389.738281 52.773438 389.65625 52.710938 389.597656 C 49.191406 386.289062 47.429688 381.449219 47.429688 375.082031 C 47.429688 373.640625 47.523438 372.261719 47.703125 370.933594 C 47.886719 369.609375 48.183594 368.328125 48.59375 367.089844 C 49 365.851562 49.542969 364.683594 50.214844 363.589844 C 50.886719 362.492188 51.730469 361.464844 52.742188 360.507812 L 52.800781 360.316406 L 52.726562 360.132812 L 52.558594 360.050781 L 52.273438 360.050781 C 52.171875 360.050781 52.121094 360.070312 52.121094 360.109375 C 50.996094 360.960938 50.015625 361.953125 49.175781 363.089844 C 48.335938 364.226562 47.648438 365.441406 47.105469 366.746094 C 46.5625 368.046875 46.160156 369.402344 45.898438 370.808594 C 45.636719 372.21875 45.503906 373.640625 45.503906 375.082031 C 45.503906 376.5 45.636719 377.914062 45.898438 379.320312 C 46.160156 380.730469 46.558594 382.082031 47.089844 383.375 C 47.621094 384.664062 48.304688 385.878906 49.136719 387.019531 C 49.972656 388.160156 50.964844 389.171875 52.121094 390.050781 C 52.121094 390.089844 52.171875 390.109375 52.273438 390.109375 "/>
</g>
<path style=" stroke:none;fill-rule:nonzero;fill:rgb(100%,100%,0%);fill-opacity:1;" d="M 61.539062 382.59375 L 61.539062 381.070312 C 61.347656 381.070312 61.101562 381.042969 60.804688 380.996094 C 60.507812 380.945312 60.359375 380.886719 60.359375 380.820312 L 63.464844 377.398438 L 66.660156 381.070312 L 65.507812 381.070312 L 65.507812 382.59375 L 72.828125 382.59375 L 72.828125 381.070312 L 70.507812 381.070312 L 65.480469 375.199219 L 69.265625 371.058594 C 69.449219 370.875 70.417969 370.78125 72.175781 370.78125 L 72.175781 369.253906 L 65.980469 369.253906 L 65.980469 370.78125 C 66.160156 370.78125 66.402344 370.800781 66.699219 370.839844 C 66.996094 370.878906 67.144531 370.941406 67.144531 371.03125 L 64.449219 373.996094 L 61.660156 370.78125 L 62.78125 370.78125 L 62.78125 369.253906 L 55.480469 369.253906 L 55.480469 370.78125 L 57.785156 370.78125 L 62.433594 376.195312 L 58.253906 380.789062 C 58.0625 380.976562 57.085938 381.070312 55.328125 381.070312 L 55.328125 382.59375 Z M 61.539062 382.59375 "/>
<path style=" stroke:none;fill-rule:nonzero;fill:rgb(100%,100%,0%);fill-opacity:1;" d="M 76.058594 367.550781 L 79.105469 365.609375 L 78.773438 368.851562 L 78.75 368.914062 C 78.75 369.097656 78.828125 369.25 78.976562 369.367188 C 79.128906 369.480469 79.296875 369.542969 79.480469 369.542969 C 79.675781 369.542969 79.84375 369.480469 79.992188 369.367188 C 80.136719 369.25 80.210938 369.097656 80.210938 368.914062 L 80.210938 368.851562 L 79.855469 365.609375 L 82.914062 367.550781 C 83.007812 367.617188 83.117188 367.652344 83.238281 367.652344 C 83.4375 367.652344 83.609375 367.578125 83.75 367.425781 C 83.894531 367.273438 83.964844 367.109375 83.964844 366.933594 C 83.964844 366.644531 83.839844 366.453125 83.589844 366.347656 L 80.277344 365.003906 L 83.589844 363.679688 C 83.839844 363.578125 83.964844 363.382812 83.964844 363.09375 C 83.964844 362.917969 83.894531 362.753906 83.75 362.601562 C 83.609375 362.453125 83.4375 362.375 83.238281 362.375 C 83.109375 362.375 83 362.410156 82.914062 362.476562 L 79.855469 364.417969 L 80.210938 361.15625 L 80.210938 361.113281 C 80.210938 360.929688 80.136719 360.777344 79.992188 360.660156 C 79.84375 360.546875 79.675781 360.484375 79.480469 360.484375 C 79.296875 360.484375 79.128906 360.546875 78.976562 360.660156 C 78.828125 360.777344 78.75 360.929688 78.75 361.113281 L 78.773438 361.15625 L 79.105469 364.417969 L 76.058594 362.476562 C 75.957031 362.410156 75.847656 362.375 75.726562 362.375 C 75.539062 362.375 75.371094 362.453125 75.222656 362.601562 C 75.070312 362.753906 74.996094 362.917969 74.996094 363.09375 C 74.996094 363.375 75.121094 363.570312 75.371094 363.679688 L 78.6875 365.003906 L 75.371094 366.347656 C 75.121094 366.457031 74.996094 366.652344 74.996094 366.933594 C 74.996094 367.109375 75.070312 367.273438 75.222656 367.425781 C 75.371094 367.578125 75.539062 367.652344 75.726562 367.652344 C 75.847656 367.652344 75.957031 367.617188 76.058594 367.550781 "/>
<g clip-path="url(#clip3)" clip-rule="nonzero">
<path style=" stroke:none;fill-rule:nonzero;fill:rgb(100%,100%,0%);fill-opacity:1;" d="M 89.964844 390.109375 L 90.117188 390.050781 C 91.269531 389.171875 92.261719 388.164062 93.09375 387.035156 C 93.921875 385.90625 94.605469 384.671875 95.148438 383.335938 C 95.6875 382 96.082031 380.644531 96.332031 379.269531 C 96.578125 377.894531 96.703125 376.5 96.703125 375.082031 C 96.703125 373.164062 96.472656 371.285156 96.011719 369.445312 C 95.550781 367.605469 94.824219 365.875 93.835938 364.25 C 92.84375 362.625 91.605469 361.246094 90.117188 360.109375 L 89.964844 360.050781 L 89.679688 360.050781 L 89.488281 360.132812 L 89.40625 360.316406 C 89.40625 360.433594 89.445312 360.515625 89.527344 360.566406 C 93.027344 363.871094 94.777344 368.710938 94.777344 375.082031 C 94.777344 381.449219 93.007812 386.308594 89.464844 389.65625 L 89.40625 389.847656 C 89.40625 390.023438 89.496094 390.109375 89.679688 390.109375 Z M 89.964844 390.109375 "/>
</g>
<path style=" stroke:none;fill-rule:nonzero;fill:rgb(100%,0%,0%);fill-opacity:1;" d="M 205.089844 212.402344 C 205.417969 212.046875 205.582031 211.652344 205.582031 211.222656 C 205.582031 210.898438 205.46875 210.636719 205.234375 210.4375 C 205 210.234375 204.710938 210.136719 204.367188 210.136719 C 203.851562 210.136719 203.421875 210.324219 203.085938 210.699219 C 202.746094 211.078125 202.574219 211.519531 202.574219 212.027344 C 202.574219 212.664062 202.851562 213.175781 203.398438 213.5625 C 203.949219 213.949219 204.570312 214.140625 205.269531 214.140625 C 206.175781 214.140625 206.960938 213.75 207.625 212.96875 C 208.289062 212.183594 208.835938 211.214844 209.265625 210.054688 C 209.695312 208.894531 210.027344 207.765625 210.265625 206.664062 C 210.5 205.5625 210.710938 204.480469 210.890625 203.414062 L 212.328125 196.074219 L 215.640625 196.074219 L 215.84375 195.964844 C 215.898438 195.890625 215.941406 195.792969 215.972656 195.671875 C 216 195.550781 216.023438 195.464844 216.03125 195.414062 C 216.03125 195.148438 215.929688 195.019531 215.730469 195.019531 L 212.535156 195.019531 L 212.914062 193.035156 C 213.359375 190.785156 213.644531 189.402344 213.777344 188.894531 C 213.859375 188.570312 214.035156 188.269531 214.316406 187.984375 C 214.59375 187.699219 214.886719 187.558594 215.199219 187.558594 C 215.765625 187.558594 216.242188 187.699219 216.625 187.984375 C 216.167969 188.03125 215.785156 188.21875 215.476562 188.546875 C 215.167969 188.875 215.015625 189.257812 215.015625 189.695312 C 215.015625 190.015625 215.132812 190.277344 215.371094 190.476562 C 215.609375 190.675781 215.894531 190.777344 216.230469 190.777344 C 216.726562 190.777344 217.148438 190.589844 217.496094 190.214844 C 217.847656 189.839844 218.023438 189.398438 218.023438 188.890625 C 218.023438 188.449219 217.886719 188.070312 217.613281 187.75 C 217.339844 187.429688 216.992188 187.1875 216.5625 187.023438 C 216.132812 186.863281 215.691406 186.785156 215.238281 186.785156 C 214.542969 186.785156 213.894531 186.996094 213.292969 187.421875 C 212.695312 187.847656 212.21875 188.390625 211.863281 189.042969 C 211.632812 189.503906 211.457031 189.921875 211.34375 190.292969 C 211.226562 190.664062 211.117188 191.066406 211.019531 191.503906 C 210.917969 191.9375 210.804688 192.460938 210.683594 193.066406 L 210.320312 195.019531 L 207.5625 195.019531 C 207.382812 195.019531 207.25 195.238281 207.171875 195.679688 C 207.171875 195.941406 207.269531 196.074219 207.472656 196.074219 L 210.125 196.074219 L 208.703125 203.441406 C 207.847656 207.710938 207.324219 210.222656 207.132812 210.988281 C 206.667969 212.570312 206.070312 213.363281 205.332031 213.363281 C 204.789062 213.363281 204.324219 213.222656 203.941406 212.9375 C 204.378906 212.9375 204.761719 212.761719 205.089844 212.402344 "/>
<path style=" stroke:none;fill-rule:nonzero;fill:rgb(100%,0%,0%);fill-opacity:1;" d="M 225.375 211.707031 C 226.125 211.015625 226.644531 210.144531 226.925781 209.09375 C 227.203125 208.042969 227.34375 206.890625 227.34375 205.640625 C 227.34375 203.585938 226.980469 201.859375 226.246094 200.460938 C 225.515625 199.0625 224.1875 198.359375 222.261719 198.359375 C 220.34375 198.359375 219.015625 199.0625 218.277344 200.460938 C 217.539062 201.859375 217.167969 203.585938 217.167969 205.640625 C 217.167969 206.890625 217.308594 208.042969 217.589844 209.09375 C 217.871094 210.144531 218.390625 211.015625 219.144531 211.707031 C 219.902344 212.398438 220.941406 212.742188 222.261719 212.742188 C 223.582031 212.742188 224.621094 212.398438 225.375 211.707031 M 220.578125 211.371094 C 220.152344 210.910156 219.847656 210.328125 219.660156 209.632812 C 219.476562 208.933594 219.363281 208.242188 219.316406 207.558594 C 219.269531 206.875 219.246094 206.113281 219.246094 205.28125 C 219.246094 204.464844 219.269531 203.742188 219.316406 203.109375 C 219.363281 202.476562 219.476562 201.847656 219.65625 201.21875 C 219.839844 200.59375 220.140625 200.074219 220.5625 199.660156 C 220.984375 199.246094 221.550781 199.039062 222.261719 199.039062 C 223.179688 199.039062 223.855469 199.375 224.296875 200.042969 C 224.738281 200.714844 225.011719 201.476562 225.113281 202.332031 C 225.214844 203.1875 225.265625 204.171875 225.265625 205.28125 C 225.265625 206.4375 225.214844 207.480469 225.113281 208.414062 C 225.011719 209.351562 224.734375 210.191406 224.292969 210.941406 C 223.847656 211.691406 223.171875 212.066406 222.261719 212.066406 C 221.566406 212.066406 221.003906 211.832031 220.578125 211.371094 "/>
<path style=" stroke:none;fill-rule:nonzero;fill:rgb(100%,0%,0%);fill-opacity:1;" d="M 239.398438 215.492188 L 239.6875 215.492188 L 239.847656 215.398438 L 239.929688 215.230469 C 239.929688 215.121094 239.898438 215.039062 239.839844 214.980469 C 236.320312 211.671875 234.558594 206.832031 234.558594 200.464844 C 234.558594 199.023438 234.648438 197.644531 234.832031 196.316406 C 235.015625 194.992188 235.308594 193.710938 235.71875 192.472656 C 236.128906 191.234375 236.671875 190.066406 237.34375 188.96875 C 238.015625 187.875 238.859375 186.847656 239.867188 185.890625 L 239.929688 185.699219 L 239.855469 185.515625 L 239.6875 185.433594 L 239.398438 185.433594 C 239.296875 185.433594 239.246094 185.453125 239.246094 185.492188 C 238.125 186.34375 237.144531 187.335938 236.304688 188.472656 C 235.464844 189.609375 234.773438 190.824219 234.234375 192.125 C 233.691406 193.425781 233.289062 194.785156 233.027344 196.191406 C 232.761719 197.601562 232.632812 199.023438 232.632812 200.464844 C 232.632812 201.882812 232.761719 203.296875 233.027344 204.703125 C 233.289062 206.113281 233.6875 207.464844 234.21875 208.753906 C 234.746094 210.046875 235.429688 211.261719 236.265625 212.402344 C 237.101562 213.542969 238.09375 214.554688 239.246094 215.433594 C 239.246094 215.472656 239.296875 215.492188 239.398438 215.492188 "/>
<path style=" stroke:none;fill-rule:nonzero;fill:rgb(100%,0%,0%);fill-opacity:1;" d="M 246.578125 207.976562 L 248.078125 206.320312 C 248.652344 206.886719 249.335938 207.335938 250.128906 207.660156 C 250.921875 207.988281 251.75 208.152344 252.605469 208.152344 C 254.0625 208.152344 255.375 207.886719 256.554688 207.347656 C 257.730469 206.808594 258.664062 206.019531 259.355469 204.976562 C 260.046875 203.933594 260.394531 202.710938 260.394531 201.300781 C 260.394531 200.273438 260.210938 199.332031 259.847656 198.476562 C 259.484375 197.617188 258.980469 196.894531 258.339844 196.300781 C 257.699219 195.710938 256.925781 195.253906 256.023438 194.929688 C 255.121094 194.605469 254.132812 194.445312 253.0625 194.445312 C 251.292969 194.445312 249.761719 194.910156 248.472656 195.839844 L 248.472656 187.121094 L 242.867188 187.355469 L 242.867188 188.898438 C 243.480469 188.898438 243.992188 188.945312 244.394531 189.035156 C 244.800781 189.128906 245 189.363281 245 189.734375 L 245 207.976562 Z M 248.667969 197.484375 C 249.152344 196.898438 249.742188 196.445312 250.4375 196.125 C 251.128906 195.808594 251.875 195.648438 252.675781 195.648438 C 253.496094 195.648438 254.152344 195.8125 254.648438 196.140625 C 255.144531 196.46875 255.507812 196.894531 255.742188 197.417969 C 255.972656 197.941406 256.125 198.519531 256.199219 199.15625 C 256.265625 199.792969 256.304688 200.488281 256.304688 201.242188 L 256.304688 201.328125 C 256.304688 203.070312 256.042969 204.441406 255.519531 205.445312 C 255 206.449219 253.914062 206.949219 252.265625 206.949219 C 251.546875 206.949219 250.871094 206.769531 250.230469 206.40625 C 249.59375 206.046875 249.074219 205.554688 248.667969 204.941406 Z M 248.667969 197.484375 "/>
<path style=" stroke:none;fill-rule:nonzero;fill:rgb(100%,0%,0%);fill-opacity:1;" d="M 263.539062 215.492188 L 263.691406 215.433594 C 264.847656 214.554688 265.835938 213.546875 266.667969 212.417969 C 267.496094 211.289062 268.179688 210.054688 268.722656 208.71875 C 269.265625 207.382812 269.65625 206.027344 269.90625 204.652344 C 270.152344 203.277344 270.277344 201.882812 270.277344 200.464844 C 270.277344 198.546875 270.046875 196.667969 269.585938 194.828125 C 269.128906 192.988281 268.402344 191.253906 267.410156 189.632812 C 266.417969 188.007812 265.179688 186.628906 263.691406 185.492188 L 263.539062 185.433594 L 263.253906 185.433594 L 263.0625 185.515625 L 262.980469 185.699219 C 262.980469 185.816406 263.019531 185.898438 263.101562 185.949219 C 266.601562 189.253906 268.351562 194.09375 268.351562 200.464844 C 268.351562 206.832031 266.582031 211.691406 263.039062 215.039062 L 262.980469 215.230469 C 262.980469 215.40625 263.070312 215.492188 263.253906 215.492188 Z M 263.539062 215.492188 "/>
<path style=" stroke:none;fill-rule:nonzero;fill:rgb(100%,0%,0%);fill-opacity:1;" d="M 137.5 113.886719 C 137.832031 113.53125 137.996094 113.136719 137.996094 112.707031 C 137.996094 112.382812 137.878906 112.121094 137.644531 111.921875 C 137.414062 111.71875 137.125 111.621094 136.78125 111.621094 C 136.261719 111.621094 135.835938 111.808594 135.496094 112.183594 C 135.15625 112.5625 134.988281 113.003906 134.988281 113.511719 C 134.988281 114.148438 135.261719 114.660156 135.8125 115.046875 C 136.359375 115.433594 136.984375 115.625 137.679688 115.625 C 138.585938 115.625 139.371094 115.234375 140.039062 114.453125 C 140.703125 113.667969 141.25 112.699219 141.679688 111.539062 C 142.105469 110.378906 142.441406 109.25 142.675781 108.148438 C 142.914062 107.046875 143.121094 105.964844 143.304688 104.898438 L 144.738281 97.558594 L 148.050781 97.558594 L 148.253906 97.449219 C 148.308594 97.375 148.351562 97.277344 148.382812 97.15625 C 148.414062 97.035156 148.433594 96.949219 148.445312 96.898438 C 148.445312 96.632812 148.34375 96.503906 148.140625 96.503906 L 144.949219 96.503906 L 145.324219 94.519531 C 145.769531 92.269531 146.058594 90.886719 146.1875 90.378906 C 146.269531 90.054688 146.449219 89.753906 146.726562 89.46875 C 147.003906 89.183594 147.300781 89.042969 147.613281 89.042969 C 148.175781 89.042969 148.652344 89.183594 149.035156 89.46875 C 148.582031 89.515625 148.199219 89.703125 147.890625 90.03125 C 147.582031 90.359375 147.425781 90.742188 147.425781 91.179688 C 147.425781 91.5 147.542969 91.761719 147.78125 91.960938 C 148.019531 92.160156 148.304688 92.261719 148.640625 92.261719 C 149.136719 92.261719 149.558594 92.074219 149.910156 91.699219 C 150.257812 91.324219 150.433594 90.882812 150.433594 90.375 C 150.433594 89.933594 150.296875 89.554688 150.023438 89.234375 C 149.753906 88.914062 149.402344 88.671875 148.972656 88.507812 C 148.542969 88.347656 148.101562 88.269531 147.648438 88.269531 C 146.953125 88.269531 146.304688 88.480469 145.707031 88.90625 C 145.105469 89.332031 144.628906 89.875 144.277344 90.527344 C 144.042969 90.988281 143.871094 91.40625 143.753906 91.777344 C 143.636719 92.148438 143.53125 92.550781 143.429688 92.988281 C 143.328125 93.421875 143.21875 93.945312 143.097656 94.550781 L 142.734375 96.503906 L 139.972656 96.503906 C 139.792969 96.503906 139.664062 96.722656 139.582031 97.164062 C 139.582031 97.425781 139.683594 97.558594 139.882812 97.558594 L 142.535156 97.558594 L 141.117188 104.925781 C 140.257812 109.195312 139.734375 111.707031 139.542969 112.472656 C 139.082031 114.054688 138.480469 114.847656 137.746094 114.847656 C 137.203125 114.847656 136.738281 114.707031 136.355469 114.421875 C 136.789062 114.421875 137.171875 114.246094 137.5 113.886719 "/>
<path style=" stroke:none;fill-rule:nonzero;fill:rgb(100%,0%,0%);fill-opacity:1;" d="M 157.785156 113.191406 C 158.539062 112.5 159.054688 111.628906 159.335938 110.578125 C 159.617188 109.527344 159.757812 108.375 159.757812 107.125 C 159.757812 105.070312 159.390625 103.34375 158.660156 101.945312 C 157.925781 100.546875 156.597656 99.84375 154.671875 99.84375 C 152.753906 99.84375 151.425781 100.546875 150.6875 101.945312 C 149.949219 103.34375 149.578125 105.070312 149.578125 107.125 C 149.578125 108.375 149.71875 109.527344 150 110.578125 C 150.28125 111.628906 150.800781 112.5 151.558594 113.191406 C 152.3125 113.882812 153.351562 114.226562 154.671875 114.226562 C 155.996094 114.226562 157.03125 113.882812 157.785156 113.191406 M 152.988281 112.855469 C 152.5625 112.394531 152.257812 111.8125 152.074219 111.117188 C 151.890625 110.417969 151.773438 109.726562 151.726562 109.042969 C 151.679688 108.359375 151.65625 107.597656 151.65625 106.765625 C 151.65625 105.949219 151.679688 105.226562 151.726562 104.59375 C 151.773438 103.960938 151.886719 103.332031 152.070312 102.703125 C 152.25 102.078125 152.550781 101.558594 152.976562 101.144531 C 153.398438 100.730469 153.964844 100.523438 154.671875 100.523438 C 155.589844 100.523438 156.269531 100.859375 156.710938 101.527344 C 157.148438 102.199219 157.421875 102.960938 157.523438 103.816406 C 157.628906 104.671875 157.679688 105.65625 157.679688 106.765625 C 157.679688 107.921875 157.628906 108.964844 157.523438 109.898438 C 157.421875 110.835938 157.148438 111.675781 156.703125 112.425781 C 156.257812 113.175781 155.582031 113.550781 154.671875 113.550781 C 153.976562 113.550781 153.417969 113.316406 152.988281 112.855469 "/>
<path style=" stroke:none;fill-rule:nonzero;fill:rgb(100%,0%,0%);fill-opacity:1;" d="M 171.8125 116.976562 L 172.097656 116.976562 L 172.257812 116.882812 L 172.34375 116.714844 C 172.34375 116.605469 172.3125 116.523438 172.25 116.464844 C 168.730469 113.15625 166.972656 108.316406 166.972656 101.949219 C 166.972656 100.507812 167.0625 99.128906 167.242188 97.800781 C 167.425781 96.476562 167.722656 95.195312 168.132812 93.957031 C 168.539062 92.71875 169.082031 91.550781 169.753906 90.457031 C 170.429688 89.359375 171.269531 88.332031 172.28125 87.375 L 172.34375 87.183594 L 172.265625 87 L 172.097656 86.917969 L 171.8125 86.917969 C 171.710938 86.917969 171.660156 86.9375 171.660156 86.976562 C 170.535156 87.828125 169.554688 88.820312 168.714844 89.957031 C 167.875 91.09375 167.1875 92.308594 166.644531 93.609375 C 166.101562 94.910156 165.699219 96.269531 165.4375 97.675781 C 165.175781 99.085938 165.042969 100.507812 165.042969 101.949219 C 165.042969 103.367188 165.175781 104.78125 165.4375 106.1875 C 165.699219 107.597656 166.097656 108.949219 166.628906 110.238281 C 167.160156 111.53125 167.84375 112.746094 168.679688 113.886719 C 169.511719 115.027344 170.503906 116.039062 171.660156 116.917969 C 171.660156 116.957031 171.710938 116.976562 171.8125 116.976562 "/>
<path style=" stroke:none;fill-rule:nonzero;fill:rgb(100%,0%,0%);fill-opacity:1;" d="M 177.015625 108.832031 C 178.242188 109.371094 179.625 109.636719 181.164062 109.636719 C 182.113281 109.636719 183.003906 109.441406 183.828125 109.042969 C 184.652344 108.648438 185.285156 108.066406 185.730469 107.304688 L 185.730469 107.65625 C 185.730469 108.324219 186.054688 108.789062 186.699219 109.058594 C 187.347656 109.328125 188.070312 109.460938 188.867188 109.460938 L 191.003906 109.460938 C 191.273438 109.402344 191.441406 109.242188 191.503906 108.976562 L 191.503906 108.40625 C 191.441406 108.152344 191.273438 107.996094 191.003906 107.9375 C 189.578125 107.9375 188.867188 107.691406 188.867188 107.203125 L 188.867188 100.230469 C 188.867188 99.417969 188.660156 98.730469 188.246094 98.167969 C 187.832031 97.605469 187.289062 97.152344 186.613281 96.804688 C 185.933594 96.457031 185.210938 96.210938 184.441406 96.0625 C 183.667969 95.914062 182.890625 95.84375 182.101562 95.84375 C 180.539062 95.84375 179.191406 96.019531 178.0625 96.371094 C 176.933594 96.722656 176.367188 97.492188 176.367188 98.675781 C 176.367188 99.214844 176.558594 99.671875 176.941406 100.054688 C 177.324219 100.4375 177.800781 100.625 178.375 100.625 C 178.9375 100.625 179.410156 100.441406 179.792969 100.070312 C 180.175781 99.699219 180.367188 99.230469 180.367188 98.675781 C 180.367188 98.078125 180.152344 97.59375 179.71875 97.222656 C 180.3125 97.105469 181.097656 97.046875 182.066406 97.046875 C 183.042969 97.046875 183.8125 97.347656 184.367188 97.957031 C 184.921875 98.5625 185.199219 99.351562 185.199219 100.316406 L 185.199219 101.433594 C 184.300781 101.433594 183.28125 101.5 182.140625 101.632812 C 181.003906 101.765625 179.914062 101.996094 178.867188 102.324219 C 177.820312 102.648438 176.941406 103.125 176.234375 103.746094 C 175.527344 104.367188 175.171875 105.152344 175.171875 106.101562 C 175.171875 107.382812 175.785156 108.292969 177.015625 108.832031 M 179.957031 104.003906 C 180.644531 103.464844 181.46875 103.078125 182.425781 102.84375 C 183.386719 102.609375 184.3125 102.492188 185.199219 102.492188 L 185.199219 105.53125 C 185.199219 106.097656 185.023438 106.605469 184.667969 107.054688 C 184.316406 107.503906 183.863281 107.847656 183.304688 108.082031 C 182.75 108.316406 182.179688 108.433594 181.59375 108.433594 C 180.898438 108.433594 180.277344 108.210938 179.738281 107.765625 C 179.199219 107.324219 178.929688 106.765625 178.929688 106.101562 C 178.929688 105.242188 179.273438 104.539062 179.957031 104.003906 "/>
<path style=" stroke:none;fill-rule:nonzero;fill:rgb(100%,0%,0%);fill-opacity:1;" d="M 193.519531 116.976562 L 193.671875 116.917969 C 194.824219 116.039062 195.816406 115.03125 196.644531 113.902344 C 197.476562 112.773438 198.160156 111.539062 198.703125 110.203125 C 199.242188 108.867188 199.636719 107.511719 199.886719 106.136719 C 200.132812 104.761719 200.257812 103.367188 200.257812 101.949219 C 200.257812 100.03125 200.027344 98.152344 199.566406 96.3125 C 199.105469 94.472656 198.378906 92.738281 197.390625 91.117188 C 196.398438 89.492188 195.160156 88.113281 193.671875 86.976562 L 193.519531 86.917969 L 193.230469 86.917969 L 193.042969 87 L 192.960938 87.183594 C 192.960938 87.300781 193 87.382812 193.082031 87.433594 C 196.582031 90.738281 198.332031 95.578125 198.332031 101.949219 C 198.332031 108.316406 196.558594 113.175781 193.019531 116.523438 L 192.960938 116.714844 C 192.960938 116.890625 193.050781 116.976562 193.230469 116.976562 Z M 193.519531 116.976562 "/>
<path style=" stroke:none;fill-rule:nonzero;fill:rgb(100%,100%,0%);fill-opacity:1;" d="M 41.042969 48.476562 C 41.363281 48.410156 41.523438 48.226562 41.523438 47.933594 C 41.523438 47.796875 41.476562 47.675781 41.382812 47.574219 C 41.285156 47.472656 41.171875 47.417969 41.042969 47.417969 C 40.367188 47.417969 39.890625 47.394531 39.609375 47.339844 C 39.328125 47.285156 39.125 47.136719 39 46.898438 C 38.875 46.660156 38.8125 46.265625 38.8125 45.71875 L 38.8125 39.933594 L 39.683594 39.128906 L 45.582031 45.980469 C 46.152344 46.609375 46.4375 47.027344 46.4375 47.242188 C 46.4375 47.363281 46.171875 47.417969 45.640625 47.417969 C 45.308594 47.488281 45.144531 47.660156 45.144531 47.933594 C 45.144531 48.0625 45.191406 48.183594 45.292969 48.300781 C 45.394531 48.417969 45.511719 48.476562 45.640625 48.476562 L 53.570312 48.476562 C 53.902344 48.410156 54.066406 48.226562 54.066406 47.933594 C 54.066406 47.796875 54.019531 47.675781 53.925781 47.574219 C 53.828125 47.472656 53.710938 47.417969 53.570312 47.417969 C 53.332031 47.417969 53.0625 47.308594 52.773438 47.089844 C 52.480469 46.871094 52.222656 46.632812 51.996094 46.378906 C 51.769531 46.125 51.480469 45.78125 51.128906 45.351562 L 43.078125 35.941406 L 46.46875 32.757812 C 47.324219 31.957031 48.019531 31.324219 48.558594 30.863281 C 49.09375 30.40625 49.714844 29.96875 50.421875 29.558594 C 51.125 29.148438 51.78125 28.941406 52.394531 28.941406 C 52.726562 28.871094 52.890625 28.691406 52.890625 28.398438 C 52.890625 28.261719 52.84375 28.140625 52.75 28.039062 C 52.652344 27.9375 52.535156 27.882812 52.394531 27.882812 L 44.839844 27.882812 C 44.511719 27.953125 44.34375 28.125 44.34375 28.398438 C 44.34375 28.515625 44.390625 28.636719 44.488281 28.757812 C 44.582031 28.878906 44.699219 28.941406 44.839844 28.941406 C 45.242188 28.941406 45.570312 29.089844 45.820312 29.382812 C 46.070312 29.675781 46.199219 30.019531 46.199219 30.410156 C 46.199219 30.957031 45.972656 31.460938 45.519531 31.921875 L 38.8125 38.203125 L 38.8125 30.71875 C 38.8125 30.128906 38.867188 29.714844 38.976562 29.46875 C 39.085938 29.226562 39.273438 29.074219 39.535156 29.023438 C 39.796875 28.96875 40.269531 28.941406 40.953125 28.941406 L 41.042969 28.941406 C 41.363281 28.871094 41.523438 28.691406 41.523438 28.398438 C 41.523438 28.261719 41.476562 28.140625 41.382812 28.039062 C 41.285156 27.9375 41.171875 27.882812 41.042969 27.882812 L 31.558594 27.882812 C 31.226562 27.953125 31.0625 28.125 31.0625 28.398438 C 31.0625 28.515625 31.109375 28.636719 31.203125 28.757812 C 31.300781 28.878906 31.417969 28.941406 31.558594 28.941406 C 32.230469 28.941406 32.710938 28.96875 32.992188 29.023438 C 33.273438 29.074219 33.472656 29.226562 33.59375 29.46875 C 33.714844 29.714844 33.773438 30.109375 33.773438 30.660156 L 33.773438 45.644531 C 33.773438 46.222656 33.722656 46.632812 33.617188 46.882812 C 33.511719 47.132812 33.324219 47.285156 33.058594 47.339844 C 32.792969 47.394531 32.324219 47.417969 31.648438 47.417969 L 31.558594 47.417969 C 31.226562 47.488281 31.0625 47.660156 31.0625 47.933594 C 31.0625 48.0625 31.109375 48.183594 31.210938 48.300781 C 31.3125 48.417969 31.429688 48.476562 31.558594 48.476562 Z M 34.859375 45.71875 L 34.859375 30.660156 C 34.859375 29.925781 34.769531 29.351562 34.589844 28.941406 L 38 28.941406 C 37.816406 29.351562 37.726562 29.925781 37.726562 30.660156 L 37.726562 45.71875 C 37.726562 46.441406 37.816406 47.007812 38 47.417969 L 34.589844 47.417969 C 34.769531 47.007812 34.859375 46.441406 34.859375 45.71875 M 40.484375 38.378906 L 42.308594 36.660156 L 50.269531 45.980469 C 50.710938 46.519531 51.144531 47 51.566406 47.417969 L 47.523438 47.417969 L 47.523438 47.242188 C 47.523438 46.921875 47.433594 46.621094 47.246094 46.339844 C 47.058594 46.0625 46.792969 45.730469 46.4375 45.351562 Z M 47.261719 30.511719 L 47.269531 30.410156 C 47.269531 29.878906 47.117188 29.390625 46.816406 28.941406 L 49.410156 28.941406 C 48.757812 29.371094 48.03125 29.929688 47.238281 30.613281 Z M 47.261719 30.511719 "/>
<path style=" stroke:none;fill-rule:nonzero;fill:rgb(100%,100%,0%);fill-opacity:1;" d="M 84.664062 44.484375 C 84.816406 44.484375 84.945312 44.421875 85.058594 44.292969 C 85.167969 44.167969 85.222656 44.03125 85.222656 43.882812 C 85.222656 43.714844 85.167969 43.574219 85.058594 43.457031 C 84.945312 43.339844 84.816406 43.28125 84.664062 43.28125 L 65.152344 43.28125 C 64.976562 43.28125 64.835938 43.339844 64.726562 43.457031 C 64.613281 43.574219 64.558594 43.714844 64.558594 43.882812 C 64.558594 44.03125 64.613281 44.167969 64.726562 44.292969 C 64.835938 44.421875 64.976562 44.484375 65.152344 44.484375 Z M 84.664062 38.644531 C 84.816406 38.644531 84.945312 38.585938 85.058594 38.464844 C 85.167969 38.347656 85.222656 38.207031 85.222656 38.042969 C 85.222656 37.894531 85.167969 37.757812 85.058594 37.628906 C 84.945312 37.503906 84.816406 37.4375 84.664062 37.4375 L 65.152344 37.4375 C 64.976562 37.4375 64.835938 37.503906 64.726562 37.628906 C 64.613281 37.757812 64.558594 37.894531 64.558594 38.042969 C 64.558594 38.207031 64.613281 38.347656 64.726562 38.464844 C 64.835938 38.585938 64.976562 38.644531 65.152344 38.644531 Z M 84.664062 38.644531 "/>
<path style=" stroke:none;fill-rule:nonzero;fill:rgb(100%,100%,0%);fill-opacity:1;" d="M 106.175781 48.476562 C 106.507812 48.410156 106.671875 48.226562 106.671875 47.933594 C 106.671875 47.796875 106.625 47.675781 106.53125 47.574219 C 106.433594 47.472656 106.316406 47.417969 106.175781 47.417969 C 105.5 47.417969 105.023438 47.394531 104.742188 47.339844 C 104.460938 47.285156 104.253906 47.136719 104.125 46.898438 C 103.996094 46.660156 103.929688 46.265625 103.929688 45.71875 L 103.929688 39.039062 L 105.042969 39.039062 L 111.148438 48.273438 C 111.289062 48.410156 111.414062 48.476562 111.527344 48.476562 L 116.863281 48.476562 C 117.195312 48.410156 117.363281 48.226562 117.363281 47.933594 C 117.363281 47.804688 117.3125 47.6875 117.210938 47.582031 C 117.113281 47.472656 116.996094 47.417969 116.863281 47.417969 C 116.382812 47.417969 115.660156 46.863281 114.703125 45.746094 C 113.742188 44.632812 112.859375 43.484375 112.054688 42.304688 C 111.25 41.125 110.449219 39.925781 109.644531 38.703125 C 110.75 38.515625 111.703125 38.222656 112.507812 37.820312 C 113.3125 37.417969 113.941406 36.863281 114.394531 36.148438 C 114.84375 35.433594 115.070312 34.542969 115.070312 33.476562 C 115.070312 32.175781 114.65625 31.105469 113.828125 30.269531 C 112.996094 29.433594 111.949219 28.828125 110.675781 28.449219 C 109.40625 28.074219 108.128906 27.882812 106.855469 27.882812 L 96.648438 27.882812 C 96.316406 27.953125 96.148438 28.125 96.148438 28.398438 C 96.148438 28.515625 96.199219 28.636719 96.292969 28.757812 C 96.386719 28.878906 96.507812 28.941406 96.648438 28.941406 C 97.320312 28.941406 97.796875 28.96875 98.078125 29.023438 C 98.359375 29.074219 98.566406 29.222656 98.699219 29.460938 C 98.828125 29.703125 98.894531 30.101562 98.894531 30.660156 L 98.894531 45.644531 C 98.894531 46.230469 98.835938 46.648438 98.71875 46.890625 C 98.605469 47.136719 98.414062 47.285156 98.148438 47.339844 C 97.878906 47.394531 97.410156 47.417969 96.738281 47.417969 L 96.648438 47.417969 C 96.316406 47.488281 96.148438 47.660156 96.148438 47.933594 C 96.148438 48.0625 96.199219 48.183594 96.300781 48.300781 C 96.402344 48.417969 96.515625 48.476562 96.648438 48.476562 Z M 99.980469 45.71875 L 99.980469 30.660156 C 99.980469 29.914062 99.882812 29.34375 99.691406 28.941406 L 103.25 28.941406 C 102.980469 29.285156 102.84375 29.664062 102.84375 30.085938 L 102.84375 45.71875 C 102.84375 46.453125 102.9375 47.019531 103.128906 47.417969 L 99.691406 47.417969 C 99.882812 47.019531 99.980469 46.453125 99.980469 45.71875 M 106.3125 39.007812 C 106.863281 38.992188 107.582031 38.941406 108.46875 38.863281 C 109.574219 40.535156 110.382812 41.757812 110.902344 42.53125 C 111.417969 43.304688 112.03125 44.148438 112.738281 45.054688 C 113.449219 45.964844 114.152344 46.753906 114.855469 47.417969 L 111.855469 47.417969 Z M 103.929688 30.144531 C 103.929688 29.742188 104.109375 29.441406 104.472656 29.242188 C 104.832031 29.042969 105.242188 28.941406 105.695312 28.941406 C 107.25 28.941406 108.320312 29.300781 108.898438 30.019531 C 109.472656 30.738281 109.761719 31.890625 109.761719 33.476562 C 109.761719 34.574219 109.652344 35.425781 109.433594 36.039062 C 109.210938 36.648438 108.875 37.089844 108.429688 37.359375 C 107.984375 37.628906 107.4375 37.796875 106.792969 37.871094 C 106.152344 37.945312 105.195312 37.984375 103.929688 37.984375 Z M 110.683594 35.867188 C 110.792969 35.222656 110.847656 34.425781 110.847656 33.476562 C 110.847656 31.558594 110.449219 30.144531 109.644531 29.234375 C 110.875 29.519531 111.90625 30.011719 112.738281 30.710938 C 113.570312 31.410156 113.984375 32.332031 113.984375 33.476562 C 113.984375 34.320312 113.816406 35.015625 113.472656 35.566406 C 113.132812 36.121094 112.660156 36.554688 112.054688 36.867188 C 111.449219 37.179688 110.714844 37.425781 109.855469 37.601562 C 110.296875 37.09375 110.574219 36.515625 110.683594 35.867188 "/>
<path style=" stroke:none;fill-rule:nonzero;fill:rgb(100%,100%,0%);fill-opacity:1;" d="M 128.085938 36.3125 L 128.738281 32.402344 L 127.90625 32.402344 C 127.828125 32.890625 127.75 33.300781 127.671875 33.636719 C 127.59375 33.96875 127.488281 34.203125 127.363281 34.332031 C 127.328125 34.367188 127.082031 34.394531 126.628906 34.410156 C 126.171875 34.425781 125.644531 34.4375 125.046875 34.441406 C 124.445312 34.445312 123.871094 34.445312 123.324219 34.445312 L 121.320312 34.445312 L 123.984375 32.257812 C 124.210938 32.066406 124.703125 31.6875 125.457031 31.125 C 126.207031 30.558594 126.796875 30.074219 127.222656 29.664062 C 127.648438 29.25 128.007812 28.777344 128.300781 28.238281 C 128.589844 27.703125 128.738281 27.125 128.738281 26.5 C 128.738281 25.636719 128.492188 24.890625 128.007812 24.257812 C 127.519531 23.625 126.882812 23.148438 126.09375 22.832031 C 125.304688 22.511719 124.472656 22.351562 123.589844 22.351562 C 122.851562 22.351562 122.132812 22.507812 121.4375 22.820312 C 120.742188 23.132812 120.175781 23.574219 119.742188 24.148438 C 119.308594 24.722656 119.09375 25.386719 119.09375 26.140625 C 119.09375 26.457031 119.210938 26.726562 119.445312 26.953125 C 119.679688 27.179688 119.964844 27.292969 120.296875 27.292969 C 120.636719 27.292969 120.921875 27.179688 121.148438 26.953125 C 121.378906 26.726562 121.492188 26.457031 121.492188 26.140625 C 121.492188 25.8125 121.378906 25.539062 121.15625 25.316406 C 120.929688 25.09375 120.644531 24.980469 120.296875 24.980469 L 120.234375 24.980469 C 120.503906 24.425781 120.90625 23.988281 121.441406 23.671875 C 121.980469 23.355469 122.570312 23.195312 123.21875 23.195312 C 123.699219 23.195312 124.144531 23.273438 124.550781 23.4375 C 124.953125 23.597656 125.304688 23.828125 125.597656 24.128906 C 125.894531 24.429688 126.125 24.785156 126.285156 25.191406 C 126.449219 25.597656 126.53125 26.035156 126.53125 26.5 C 126.53125 27.347656 126.292969 28.132812 125.8125 28.847656 C 125.332031 29.5625 124.664062 30.332031 123.804688 31.160156 C 123.640625 31.316406 123.511719 31.441406 123.425781 31.523438 C 123.335938 31.609375 123.21875 31.730469 123.066406 31.878906 L 119.179688 35.535156 L 119.09375 35.707031 L 119.09375 36.3125 Z M 128.085938 36.3125 "/>
<path style=" stroke:none;fill-rule:nonzero;fill:rgb(100%,100%,0%);fill-opacity:1;" d="M 126.929688 58.507812 C 127.027344 58.601562 127.148438 58.648438 127.300781 58.648438 C 127.597656 58.648438 127.769531 58.488281 127.820312 58.164062 L 127.820312 51.390625 L 134.8125 51.390625 C 134.953125 51.367188 135.074219 51.3125 135.167969 51.21875 C 135.265625 51.128906 135.3125 51.007812 135.3125 50.867188 C 135.3125 50.578125 135.144531 50.410156 134.8125 50.363281 L 127.820312 50.363281 L 127.820312 43.585938 C 127.769531 43.265625 127.597656 43.105469 127.300781 43.105469 C 127.148438 43.105469 127.027344 43.152344 126.929688 43.242188 C 126.835938 43.335938 126.777344 43.449219 126.753906 43.585938 L 126.753906 50.363281 L 119.742188 50.363281 C 119.410156 50.410156 119.242188 50.578125 119.242188 50.867188 C 119.242188 51.007812 119.289062 51.128906 119.386719 51.21875 C 119.480469 51.3125 119.601562 51.367188 119.742188 51.390625 L 126.753906 51.390625 L 126.753906 58.164062 C 126.777344 58.300781 126.835938 58.417969 126.929688 58.507812 "/>
</g>
</svg>
