<?xml version="1.0" encoding="UTF-8"?>
<svg xmlns="http://www.w3.org/2000/svg" xmlns:xlink="http://www.w3.org/1999/xlink" width="585.993pt" height="414.726pt" viewBox="0 0 585.993 414.726" version="1.1">
<defs>
<clipPath id="clip1">
  <path d="M 225 54 L 585.992188 54 L 585.992188 370 L 225 370 Z M 225 54 "/>
</clipPath>
<clipPath id="clip2">
  <path d="M 249 175 L 252 175 L 252 414.726562 L 249 414.726562 Z M 249 175 "/>
</clipPath>
</defs>
<g id="surface1">
<path style=" stroke:none;fill-rule:nonzero;fill:rgb(100%,100%,40%);fill-opacity:0.5;" d="M 4.453125 175.398438 L 4.453125 410.273438 L 251.253906 410.273438 L 251.253906 175.398438 Z M 4.453125 175.398438 "/>
<g clip-path="url(#clip1)" clip-rule="nonzero">
<path style=" stroke:none;fill-rule:evenodd;fill:rgb(39.99939%,79.998779%,100%);fill-opacity:1;" d="M 225.332031 54.066406 C 243.144531 264.453125 305.480469 221.199219 390.078125 177.945312 C 474.679688 134.53125 483.582031 190.1875 505.847656 276.855469 C 528.109375 363.523438 585.992188 369.722656 585.992188 369.722656 L 585.992188 54.066406 Z M 225.332031 54.066406 "/>
</g>
<g clip-path="url(#clip2)" clip-rule="nonzero">
<path style=" stroke:none;fill-rule:nonzero;fill:rgb(100%,100%,0%);fill-opacity:1;" d="M 251.492188 175.878906 L 251.492188 414.726562 L 249.105469 414.726562 L 249.105469 175.878906 "/>
</g>
<path style=" stroke:none;fill-rule:nonzero;fill:rgb(100%,100%,0%);fill-opacity:1;" d="M 247.914062 177.070312 L 0 177.070312 L 0 174.683594 L 247.914062 174.683594 "/>
<path style=" stroke:none;fill-rule:nonzero;fill:rgb(100%,100%,0%);fill-opacity:1;" d="M 405.664062 177.070312 L 400.890625 177.070312 L 400.890625 174.683594 L 405.664062 174.683594 "/>
<path style=" stroke:none;fill-rule:nonzero;fill:rgb(100%,100%,0%);fill-opacity:1;" d="M 396.28125 177.070312 L 391.511719 177.070312 L 391.511719 174.683594 L 396.28125 174.683594 "/>
<path style=" stroke:none;fill-rule:nonzero;fill:rgb(100%,100%,0%);fill-opacity:1;" d="M 386.738281 177.070312 L 382.128906 177.070312 L 382.128906 174.683594 L 386.738281 174.683594 "/>
<path style=" stroke:none;fill-rule:nonzero;fill:rgb(100%,100%,0%);fill-opacity:1;" d="M 377.515625 177.070312 L 372.746094 177.070312 L 372.746094 174.683594 L 377.515625 174.683594 "/>
<path style=" stroke:none;fill-rule:nonzero;fill:rgb(100%,100%,0%);fill-opacity:1;" d="M 367.976562 177.070312 L 363.363281 177.070312 L 363.363281 174.683594 L 367.976562 174.683594 "/>
<path style=" stroke:none;fill-rule:nonzero;fill:rgb(100%,100%,0%);fill-opacity:1;" d="M 358.59375 177.070312 L 353.820312 177.070312 L 353.820312 174.683594 L 358.59375 174.683594 "/>
<path style=" stroke:none;fill-rule:nonzero;fill:rgb(100%,100%,0%);fill-opacity:1;" d="M 349.210938 177.070312 L 344.441406 177.070312 L 344.441406 174.683594 L 349.210938 174.683594 "/>
<path style=" stroke:none;fill-rule:nonzero;fill:rgb(100%,100%,0%);fill-opacity:1;" d="M 339.828125 177.070312 L 335.058594 177.070312 L 335.058594 174.683594 L 339.828125 174.683594 "/>
<path style=" stroke:none;fill-rule:nonzero;fill:rgb(100%,100%,0%);fill-opacity:1;" d="M 330.289062 177.070312 L 325.675781 177.070312 L 325.675781 174.683594 L 330.289062 174.683594 "/>
<path style=" stroke:none;fill-rule:nonzero;fill:rgb(100%,100%,0%);fill-opacity:1;" d="M 320.90625 177.070312 L 316.292969 177.070312 L 316.292969 174.683594 L 320.90625 174.683594 "/>
<path style=" stroke:none;fill-rule:nonzero;fill:rgb(100%,100%,0%);fill-opacity:1;" d="M 311.523438 177.070312 L 306.75 177.070312 L 306.75 174.683594 L 311.523438 174.683594 "/>
<path style=" stroke:none;fill-rule:nonzero;fill:rgb(100%,100%,0%);fill-opacity:1;" d="M 302.140625 177.070312 L 297.371094 177.070312 L 297.371094 174.683594 L 302.140625 174.683594 "/>
<path style=" stroke:none;fill-rule:nonzero;fill:rgb(100%,100%,0%);fill-opacity:1;" d="M 292.757812 177.070312 L 287.988281 177.070312 L 287.988281 174.683594 L 292.757812 174.683594 "/>
<path style=" stroke:none;fill-rule:nonzero;fill:rgb(100%,100%,0%);fill-opacity:1;" d="M 283.21875 177.070312 L 278.605469 177.070312 L 278.605469 174.683594 L 283.21875 174.683594 "/>
<path style=" stroke:none;fill-rule:nonzero;fill:rgb(100%,100%,0%);fill-opacity:1;" d="M 273.835938 177.070312 L 269.222656 177.070312 L 269.222656 174.683594 L 273.835938 174.683594 "/>
<path style=" stroke:none;fill-rule:nonzero;fill:rgb(100%,100%,0%);fill-opacity:1;" d="M 264.453125 177.070312 L 259.679688 177.070312 L 259.679688 174.683594 L 264.453125 174.683594 "/>
<path style=" stroke:none;fill-rule:nonzero;fill:rgb(100%,100%,0%);fill-opacity:1;" d="M 255.070312 177.070312 L 250.300781 177.070312 L 250.300781 174.683594 L 255.070312 174.683594 "/>
<path style=" stroke:none;fill-rule:nonzero;fill:rgb(100%,100%,0%);fill-opacity:1;" d="M 251.492188 0 L 251.492188 4.769531 L 249.105469 4.769531 L 249.105469 0 "/>
<path style=" stroke:none;fill-rule:nonzero;fill:rgb(100%,100%,0%);fill-opacity:1;" d="M 251.492188 9.382812 L 251.492188 14.152344 L 249.105469 14.152344 L 249.105469 9.382812 "/>
<path style=" stroke:none;fill-rule:nonzero;fill:rgb(100%,100%,0%);fill-opacity:1;" d="M 251.492188 18.921875 L 251.492188 23.535156 L 249.105469 23.535156 L 249.105469 18.921875 "/>
<path style=" stroke:none;fill-rule:nonzero;fill:rgb(100%,100%,0%);fill-opacity:1;" d="M 251.492188 28.304688 L 251.492188 32.917969 L 249.105469 32.917969 L 249.105469 28.304688 "/>
<path style=" stroke:none;fill-rule:nonzero;fill:rgb(100%,100%,0%);fill-opacity:1;" d="M 251.492188 37.6875 L 251.492188 42.457031 L 249.105469 42.457031 L 249.105469 37.6875 "/>
<path style=" stroke:none;fill-rule:nonzero;fill:rgb(100%,100%,0%);fill-opacity:1;" d="M 251.492188 47.070312 L 251.492188 51.839844 L 249.105469 51.839844 L 249.105469 47.070312 "/>
<path style=" stroke:none;fill-rule:nonzero;fill:rgb(100%,100%,0%);fill-opacity:1;" d="M 251.492188 56.453125 L 251.492188 61.222656 L 249.105469 61.222656 L 249.105469 56.453125 "/>
<path style=" stroke:none;fill-rule:nonzero;fill:rgb(100%,100%,0%);fill-opacity:1;" d="M 251.492188 65.992188 L 251.492188 70.605469 L 249.105469 70.605469 L 249.105469 65.992188 "/>
<path style=" stroke:none;fill-rule:nonzero;fill:rgb(100%,100%,0%);fill-opacity:1;" d="M 251.492188 75.375 L 251.492188 79.988281 L 249.105469 79.988281 L 249.105469 75.375 "/>
<path style=" stroke:none;fill-rule:nonzero;fill:rgb(100%,100%,0%);fill-opacity:1;" d="M 251.492188 84.757812 L 251.492188 89.527344 L 249.105469 89.527344 L 249.105469 84.757812 "/>
<path style=" stroke:none;fill-rule:nonzero;fill:rgb(100%,100%,0%);fill-opacity:1;" d="M 251.492188 94.140625 L 251.492188 98.910156 L 249.105469 98.910156 L 249.105469 94.140625 "/>
<path style=" stroke:none;fill-rule:nonzero;fill:rgb(100%,100%,0%);fill-opacity:1;" d="M 251.492188 103.523438 L 251.492188 108.292969 L 249.105469 108.292969 L 249.105469 103.523438 "/>
<path style=" stroke:none;fill-rule:nonzero;fill:rgb(100%,100%,0%);fill-opacity:1;" d="M 251.492188 113.0625 L 251.492188 117.675781 L 249.105469 117.675781 L 249.105469 113.0625 "/>
<path style=" stroke:none;fill-rule:nonzero;fill:rgb(100%,100%,0%);fill-opacity:1;" d="M 251.492188 122.445312 L 251.492188 127.058594 L 249.105469 127.058594 L 249.105469 122.445312 "/>
<path style=" stroke:none;fill-rule:nonzero;fill:rgb(100%,100%,0%);fill-opacity:1;" d="M 251.492188 131.828125 L 251.492188 136.597656 L 249.105469 136.597656 L 249.105469 131.828125 "/>
<path style=" stroke:none;fill-rule:nonzero;fill:rgb(100%,100%,0%);fill-opacity:1;" d="M 251.492188 141.210938 L 251.492188 145.980469 L 249.105469 145.980469 L 249.105469 141.210938 "/>
<path style=" stroke:none;fill-rule:nonzero;fill:rgb(100%,100%,0%);fill-opacity:1;" d="M 251.492188 150.59375 L 251.492188 155.363281 L 249.105469 155.363281 L 249.105469 150.59375 "/>
<path style=" stroke:none;fill-rule:nonzero;fill:rgb(100%,100%,0%);fill-opacity:1;" d="M 251.492188 160.132812 L 251.492188 164.746094 L 249.105469 164.746094 L 249.105469 160.132812 "/>
<path style=" stroke:none;fill-rule:nonzero;fill:rgb(100%,100%,0%);fill-opacity:1;" d="M 251.492188 169.515625 L 251.492188 174.128906 L 249.105469 174.128906 L 249.105469 169.515625 "/>
<path style=" stroke:none;fill-rule:evenodd;fill:rgb(0%,0%,0%);fill-opacity:1;" d="M 249.824219 169.675781 C 253.640625 169.675781 256.660156 172.695312 256.660156 176.511719 C 256.660156 180.328125 253.640625 183.191406 249.824219 183.191406 C 246.007812 183.191406 243.144531 180.328125 243.144531 176.511719 C 243.144531 172.695312 246.007812 169.675781 249.824219 169.675781 "/>
<path style=" stroke:none;fill-rule:nonzero;fill:rgb(100%,100%,100%);fill-opacity:1;" d="M 249.824219 169.675781 L 249.824219 168.480469 C 252.046875 168.480469 254.070312 169.371094 255.515625 170.820312 C 256.964844 172.265625 257.855469 174.289062 257.855469 176.511719 C 257.855469 178.738281 256.960938 180.734375 255.503906 182.140625 C 254.046875 183.550781 252.03125 184.386719 249.824219 184.382812 C 247.617188 184.386719 245.625 183.546875 244.207031 182.128906 C 242.789062 180.710938 241.949219 178.71875 241.949219 176.511719 C 241.949219 174.304688 242.785156 172.289062 244.195312 170.832031 C 245.601562 169.375 247.597656 168.480469 249.824219 168.480469 L 249.824219 170.867188 C 248.230469 170.871094 246.886719 171.484375 245.910156 172.492188 C 244.933594 173.5 244.335938 174.902344 244.335938 176.511719 C 244.339844 178.121094 244.929688 179.472656 245.894531 180.441406 C 246.863281 181.40625 248.214844 181.996094 249.824219 182 C 251.433594 182 252.835938 181.402344 253.84375 180.425781 C 254.851562 179.449219 255.464844 178.105469 255.46875 176.511719 C 255.464844 174.921875 254.84375 173.523438 253.828125 172.507812 C 252.8125 171.492188 251.414062 170.871094 249.824219 170.867188 Z M 249.824219 169.675781 "/>
<path style=" stroke:none;fill-rule:nonzero;fill:rgb(100%,100%,0%);fill-opacity:1;" d="M 277.761719 28.78125 C 278.058594 28.71875 278.203125 28.554688 278.203125 28.285156 C 278.203125 28.160156 278.160156 28.050781 278.074219 27.953125 C 277.984375 27.859375 277.882812 27.8125 277.761719 27.8125 C 277.148438 27.8125 276.710938 27.789062 276.453125 27.738281 C 276.195312 27.691406 276.007812 27.558594 275.894531 27.335938 C 275.777344 27.117188 275.722656 26.757812 275.722656 26.257812 L 275.722656 20.964844 L 276.519531 20.222656 L 281.914062 26.496094 C 282.441406 27.070312 282.703125 27.457031 282.703125 27.652344 C 282.703125 27.761719 282.460938 27.8125 281.972656 27.8125 C 281.667969 27.875 281.515625 28.03125 281.515625 28.285156 C 281.515625 28.398438 281.5625 28.511719 281.652344 28.621094 C 281.746094 28.726562 281.851562 28.78125 281.972656 28.78125 L 289.230469 28.78125 C 289.53125 28.71875 289.683594 28.554688 289.683594 28.285156 C 289.683594 28.160156 289.640625 28.050781 289.554688 27.953125 C 289.464844 27.859375 289.359375 27.8125 289.230469 27.8125 C 289.007812 27.8125 288.765625 27.714844 288.496094 27.511719 C 288.230469 27.308594 287.996094 27.09375 287.789062 26.859375 C 287.582031 26.625 287.316406 26.3125 286.992188 25.917969 L 279.625 17.308594 L 282.730469 14.394531 C 283.511719 13.660156 284.148438 13.082031 284.640625 12.660156 C 285.132812 12.242188 285.703125 11.84375 286.347656 11.464844 C 286.988281 11.089844 287.59375 10.902344 288.152344 10.902344 C 288.457031 10.839844 288.609375 10.675781 288.609375 10.40625 C 288.609375 10.28125 288.566406 10.167969 288.476562 10.074219 C 288.390625 9.980469 288.28125 9.933594 288.152344 9.933594 L 281.238281 9.933594 C 280.9375 9.996094 280.785156 10.152344 280.785156 10.40625 C 280.785156 10.511719 280.828125 10.621094 280.914062 10.734375 C 281.003906 10.847656 281.109375 10.902344 281.238281 10.902344 C 281.609375 10.902344 281.90625 11.035156 282.136719 11.304688 C 282.367188 11.574219 282.480469 11.886719 282.480469 12.246094 C 282.480469 12.746094 282.273438 13.207031 281.859375 13.628906 L 275.722656 19.378906 L 275.722656 12.527344 C 275.722656 11.988281 275.769531 11.609375 275.871094 11.386719 C 275.972656 11.160156 276.144531 11.023438 276.382812 10.976562 C 276.621094 10.925781 277.054688 10.902344 277.679688 10.902344 L 277.761719 10.902344 C 278.058594 10.839844 278.203125 10.675781 278.203125 10.40625 C 278.203125 10.28125 278.160156 10.167969 278.074219 10.074219 C 277.984375 9.980469 277.882812 9.933594 277.761719 9.933594 L 269.085938 9.933594 C 268.78125 9.996094 268.628906 10.152344 268.628906 10.40625 C 268.628906 10.511719 268.671875 10.621094 268.757812 10.734375 C 268.847656 10.847656 268.953125 10.902344 269.085938 10.902344 C 269.699219 10.902344 270.136719 10.925781 270.394531 10.976562 C 270.652344 11.023438 270.835938 11.160156 270.945312 11.386719 C 271.058594 11.609375 271.113281 11.972656 271.113281 12.472656 L 271.113281 26.1875 C 271.113281 26.71875 271.0625 27.09375 270.96875 27.324219 C 270.871094 27.550781 270.699219 27.691406 270.457031 27.738281 C 270.214844 27.789062 269.78125 27.8125 269.164062 27.8125 L 269.085938 27.8125 C 268.78125 27.875 268.628906 28.03125 268.628906 28.285156 C 268.628906 28.398438 268.675781 28.511719 268.765625 28.621094 C 268.859375 28.726562 268.964844 28.78125 269.085938 28.78125 Z M 272.105469 26.257812 L 272.105469 12.472656 C 272.105469 11.800781 272.023438 11.277344 271.855469 10.902344 L 274.980469 10.902344 C 274.8125 11.277344 274.726562 11.800781 274.726562 12.472656 L 274.726562 26.257812 C 274.726562 26.917969 274.8125 27.4375 274.980469 27.8125 L 271.855469 27.8125 C 272.023438 27.4375 272.105469 26.917969 272.105469 26.257812 M 277.253906 19.539062 L 278.921875 17.96875 L 286.207031 26.496094 C 286.613281 26.988281 287.007812 27.429688 287.394531 27.8125 L 283.695312 27.8125 L 283.695312 27.652344 C 283.695312 27.355469 283.609375 27.082031 283.441406 26.828125 C 283.269531 26.570312 283.023438 26.269531 282.703125 25.917969 Z M 283.453125 12.339844 L 283.460938 12.246094 C 283.460938 11.761719 283.324219 11.3125 283.046875 10.902344 L 285.421875 10.902344 C 284.824219 11.296875 284.160156 11.808594 283.433594 12.433594 Z M 283.453125 12.339844 "/>
<path style=" stroke:none;fill-rule:nonzero;fill:rgb(100%,100%,0%);fill-opacity:1;" d="M 317.527344 25.128906 C 317.664062 25.128906 317.785156 25.070312 317.886719 24.953125 C 317.988281 24.835938 318.039062 24.710938 318.039062 24.574219 C 318.039062 24.425781 317.988281 24.292969 317.886719 24.1875 C 317.785156 24.078125 317.664062 24.023438 317.527344 24.023438 L 299.667969 24.023438 C 299.511719 24.023438 299.382812 24.078125 299.28125 24.1875 C 299.175781 24.292969 299.125 24.425781 299.125 24.574219 C 299.125 24.710938 299.175781 24.835938 299.28125 24.953125 C 299.382812 25.070312 299.511719 25.128906 299.667969 25.128906 Z M 317.527344 19.78125 C 317.664062 19.78125 317.785156 19.726562 317.886719 19.621094 C 317.988281 19.511719 318.039062 19.382812 318.039062 19.230469 C 318.039062 19.097656 317.988281 18.96875 317.886719 18.855469 C 317.785156 18.738281 317.664062 18.679688 317.527344 18.679688 L 299.667969 18.679688 C 299.511719 18.679688 299.382812 18.738281 299.28125 18.855469 C 299.175781 18.96875 299.125 19.097656 299.125 19.230469 C 299.125 19.382812 299.175781 19.511719 299.28125 19.621094 C 299.382812 19.726562 299.511719 19.78125 299.667969 19.78125 Z M 317.527344 19.78125 "/>
<path style=" stroke:none;fill-rule:nonzero;fill:rgb(100%,100%,0%);fill-opacity:1;" d="M 337.375 28.78125 C 337.679688 28.71875 337.832031 28.554688 337.832031 28.285156 C 337.832031 28.160156 337.789062 28.050781 337.699219 27.953125 C 337.613281 27.859375 337.503906 27.8125 337.375 27.8125 C 336.757812 27.8125 336.324219 27.789062 336.066406 27.738281 C 335.808594 27.691406 335.617188 27.558594 335.5 27.335938 C 335.378906 27.117188 335.320312 26.757812 335.320312 26.257812 L 335.320312 20.144531 L 336.339844 20.144531 L 341.925781 28.59375 C 342.058594 28.71875 342.171875 28.78125 342.273438 28.78125 L 347.160156 28.78125 C 347.460938 28.71875 347.613281 28.554688 347.613281 28.285156 C 347.613281 28.167969 347.566406 28.058594 347.476562 27.960938 C 347.382812 27.863281 347.277344 27.8125 347.160156 27.8125 C 346.71875 27.8125 346.058594 27.304688 345.179688 26.28125 C 344.300781 25.261719 343.492188 24.210938 342.757812 23.132812 C 342.019531 22.054688 341.285156 20.953125 340.550781 19.835938 C 341.5625 19.664062 342.433594 19.394531 343.171875 19.027344 C 343.90625 18.660156 344.480469 18.152344 344.894531 17.496094 C 345.308594 16.84375 345.515625 16.027344 345.515625 15.054688 C 345.515625 13.863281 345.136719 12.882812 344.378906 12.117188 C 343.621094 11.351562 342.65625 10.796875 341.496094 10.453125 C 340.332031 10.105469 339.164062 9.933594 337.996094 9.933594 L 328.65625 9.933594 C 328.351562 9.996094 328.199219 10.152344 328.199219 10.40625 C 328.199219 10.511719 328.242188 10.621094 328.332031 10.734375 C 328.417969 10.847656 328.527344 10.902344 328.65625 10.902344 C 329.269531 10.902344 329.707031 10.925781 329.964844 10.976562 C 330.222656 11.023438 330.410156 11.160156 330.53125 11.378906 C 330.652344 11.597656 330.710938 11.964844 330.710938 12.472656 L 330.710938 26.1875 C 330.710938 26.726562 330.65625 27.105469 330.550781 27.328125 C 330.445312 27.554688 330.273438 27.691406 330.027344 27.738281 C 329.785156 27.789062 329.355469 27.8125 328.738281 27.8125 L 328.65625 27.8125 C 328.351562 27.875 328.199219 28.03125 328.199219 28.285156 C 328.199219 28.398438 328.246094 28.511719 328.335938 28.621094 C 328.429688 28.726562 328.535156 28.78125 328.65625 28.78125 Z M 331.703125 26.257812 L 331.703125 12.472656 C 331.703125 11.792969 331.617188 11.269531 331.441406 10.902344 L 334.699219 10.902344 C 334.449219 11.214844 334.328125 11.566406 334.328125 11.949219 L 334.328125 26.257812 C 334.328125 26.925781 334.414062 27.445312 334.589844 27.8125 L 331.441406 27.8125 C 331.617188 27.445312 331.703125 26.925781 331.703125 26.257812 M 337.5 20.117188 C 338.003906 20.097656 338.664062 20.054688 339.472656 19.980469 C 340.484375 21.515625 341.226562 22.632812 341.699219 23.339844 C 342.171875 24.046875 342.734375 24.816406 343.382812 25.652344 C 344.03125 26.484375 344.675781 27.203125 345.320312 27.8125 L 342.574219 27.8125 Z M 335.320312 12.003906 C 335.320312 11.636719 335.484375 11.359375 335.816406 11.175781 C 336.148438 10.992188 336.519531 10.902344 336.933594 10.902344 C 338.359375 10.902344 339.335938 11.230469 339.867188 11.890625 C 340.394531 12.546875 340.660156 13.601562 340.660156 15.054688 C 340.660156 16.054688 340.558594 16.835938 340.355469 17.398438 C 340.152344 17.957031 339.847656 18.359375 339.4375 18.605469 C 339.027344 18.851562 338.53125 19.007812 337.941406 19.074219 C 337.351562 19.144531 336.480469 19.175781 335.320312 19.175781 Z M 341.5 17.242188 C 341.601562 16.652344 341.652344 15.921875 341.652344 15.054688 C 341.652344 13.296875 341.285156 12.003906 340.550781 11.171875 C 341.675781 11.429688 342.621094 11.878906 343.382812 12.519531 C 344.144531 13.160156 344.523438 14.003906 344.523438 15.054688 C 344.523438 15.824219 344.367188 16.460938 344.054688 16.96875 C 343.742188 17.472656 343.3125 17.867188 342.757812 18.15625 C 342.203125 18.441406 341.53125 18.664062 340.742188 18.828125 C 341.148438 18.363281 341.398438 17.832031 341.5 17.242188 "/>
<path style=" stroke:none;fill-rule:nonzero;fill:rgb(100%,100%,0%);fill-opacity:1;" d="M 357.429688 17.648438 L 358.027344 14.070312 L 357.265625 14.070312 C 357.195312 14.515625 357.121094 14.890625 357.050781 15.199219 C 356.976562 15.503906 356.882812 15.71875 356.765625 15.835938 C 356.734375 15.867188 356.511719 15.890625 356.09375 15.90625 C 355.675781 15.921875 355.195312 15.929688 354.644531 15.933594 C 354.097656 15.9375 353.570312 15.9375 353.070312 15.9375 L 351.238281 15.9375 L 353.675781 13.9375 C 353.882812 13.761719 354.332031 13.417969 355.019531 12.902344 C 355.710938 12.382812 356.25 11.9375 356.640625 11.5625 C 357.03125 11.183594 357.359375 10.75 357.625 10.261719 C 357.890625 9.769531 358.027344 9.238281 358.027344 8.667969 C 358.027344 7.878906 357.800781 7.195312 357.355469 6.613281 C 356.910156 6.035156 356.328125 5.601562 355.605469 5.308594 C 354.882812 5.015625 354.121094 4.871094 353.3125 4.871094 C 352.636719 4.871094 351.980469 5.015625 351.34375 5.300781 C 350.707031 5.585938 350.1875 5.992188 349.792969 6.515625 C 349.394531 7.042969 349.199219 7.648438 349.199219 8.339844 C 349.199219 8.625 349.304688 8.875 349.519531 9.082031 C 349.734375 9.289062 349.996094 9.390625 350.300781 9.390625 C 350.613281 9.390625 350.871094 9.289062 351.082031 9.082031 C 351.289062 8.875 351.390625 8.625 351.390625 8.339844 C 351.390625 8.039062 351.289062 7.785156 351.085938 7.582031 C 350.878906 7.378906 350.617188 7.277344 350.300781 7.277344 L 350.242188 7.277344 C 350.488281 6.769531 350.855469 6.371094 351.347656 6.078125 C 351.839844 5.789062 352.382812 5.640625 352.972656 5.640625 C 353.414062 5.640625 353.820312 5.714844 354.191406 5.863281 C 354.5625 6.011719 354.882812 6.222656 355.152344 6.496094 C 355.421875 6.773438 355.632812 7.097656 355.78125 7.46875 C 355.929688 7.84375 356.007812 8.242188 356.007812 8.667969 C 356.007812 9.445312 355.785156 10.160156 355.347656 10.8125 C 354.910156 11.46875 354.296875 12.175781 353.507812 12.933594 C 353.359375 13.078125 353.246094 13.1875 353.164062 13.265625 C 353.082031 13.34375 352.972656 13.453125 352.835938 13.589844 L 349.277344 16.933594 L 349.199219 17.09375 L 349.199219 17.648438 Z M 357.429688 17.648438 "/>
<path style=" stroke:none;fill-rule:nonzero;fill:rgb(100%,100%,0%);fill-opacity:1;" d="M 356.371094 37.960938 C 356.460938 38.046875 356.570312 38.089844 356.707031 38.089844 C 356.980469 38.089844 357.140625 37.941406 357.1875 37.648438 L 357.1875 31.445312 L 363.585938 31.445312 C 363.714844 31.429688 363.824219 31.375 363.910156 31.292969 C 364 31.207031 364.042969 31.097656 364.042969 30.96875 C 364.042969 30.703125 363.890625 30.550781 363.585938 30.507812 L 357.1875 30.507812 L 357.1875 24.304688 C 357.140625 24.011719 356.980469 23.863281 356.707031 23.863281 C 356.570312 23.863281 356.460938 23.90625 356.371094 23.992188 C 356.285156 24.074219 356.230469 24.179688 356.210938 24.304688 L 356.210938 30.507812 L 349.792969 30.507812 C 349.488281 30.550781 349.335938 30.703125 349.335938 30.96875 C 349.335938 31.097656 349.378906 31.207031 349.464844 31.292969 C 349.554688 31.375 349.664062 31.429688 349.792969 31.445312 L 356.210938 31.445312 L 356.210938 37.648438 C 356.230469 37.773438 356.285156 37.878906 356.371094 37.960938 "/>
<path style=" stroke:none;fill-rule:nonzero;fill:rgb(100%,100%,0%);fill-opacity:1;" d="M 161.875 163.226562 C 162.175781 162.902344 162.328125 162.542969 162.328125 162.148438 C 162.328125 161.851562 162.222656 161.613281 162.007812 161.429688 C 161.792969 161.246094 161.527344 161.152344 161.214844 161.152344 C 160.738281 161.152344 160.347656 161.324219 160.035156 161.671875 C 159.722656 162.015625 159.566406 162.421875 159.566406 162.886719 C 159.566406 163.46875 159.820312 163.933594 160.324219 164.289062 C 160.828125 164.644531 161.398438 164.820312 162.039062 164.820312 C 162.871094 164.820312 163.59375 164.460938 164.203125 163.746094 C 164.8125 163.03125 165.316406 162.140625 165.710938 161.078125 C 166.101562 160.019531 166.410156 158.984375 166.625 157.976562 C 166.84375 156.96875 167.035156 155.976562 167.203125 155 L 168.519531 148.285156 L 171.5625 148.285156 L 171.75 148.183594 C 171.800781 148.117188 171.839844 148.027344 171.867188 147.914062 C 171.894531 147.804688 171.910156 147.722656 171.921875 147.679688 C 171.921875 147.4375 171.828125 147.316406 171.644531 147.316406 L 168.710938 147.316406 L 169.058594 145.503906 C 169.46875 143.441406 169.730469 142.179688 169.851562 141.714844 C 169.925781 141.417969 170.089844 141.140625 170.34375 140.878906 C 170.601562 140.621094 170.871094 140.492188 171.15625 140.492188 C 171.679688 140.492188 172.113281 140.621094 172.464844 140.878906 C 172.046875 140.921875 171.695312 141.09375 171.414062 141.394531 C 171.128906 141.695312 170.988281 142.042969 170.988281 142.445312 C 170.988281 142.738281 171.097656 142.976562 171.316406 143.160156 C 171.53125 143.34375 171.796875 143.433594 172.101562 143.433594 C 172.558594 143.433594 172.945312 143.261719 173.265625 142.917969 C 173.589844 142.578125 173.75 142.171875 173.75 141.707031 C 173.75 141.308594 173.625 140.960938 173.375 140.664062 C 173.125 140.371094 172.800781 140.148438 172.40625 140.003906 C 172.015625 139.855469 171.609375 139.78125 171.191406 139.78125 C 170.554688 139.78125 169.960938 139.976562 169.40625 140.367188 C 168.855469 140.753906 168.417969 141.25 168.09375 141.851562 C 167.882812 142.269531 167.722656 142.652344 167.617188 142.992188 C 167.511719 143.332031 167.410156 143.703125 167.316406 144.101562 C 167.226562 144.5 167.125 144.976562 167.011719 145.53125 L 166.679688 147.316406 L 164.144531 147.316406 C 163.980469 147.316406 163.859375 147.519531 163.785156 147.921875 C 163.785156 148.164062 163.878906 148.285156 164.0625 148.285156 L 166.5 148.285156 L 165.195312 155.027344 C 164.40625 158.933594 163.925781 161.234375 163.75 161.933594 C 163.324219 163.382812 162.773438 164.109375 162.097656 164.109375 C 161.597656 164.109375 161.175781 163.976562 160.820312 163.71875 C 161.222656 163.71875 161.574219 163.554688 161.875 163.226562 "/>
<path style=" stroke:none;fill-rule:nonzero;fill:rgb(100%,100%,0%);fill-opacity:1;" d="M 180.355469 162.425781 C 181.039062 161.789062 181.507812 160.984375 181.761719 160.015625 C 182.015625 159.046875 182.144531 157.984375 182.144531 156.828125 C 182.144531 154.933594 181.8125 153.339844 181.148438 152.046875 C 180.484375 150.757812 179.277344 150.113281 177.53125 150.113281 C 175.789062 150.113281 174.585938 150.757812 173.914062 152.046875 C 173.242188 153.339844 172.910156 154.933594 172.910156 156.828125 C 172.910156 157.984375 173.035156 159.046875 173.289062 160.015625 C 173.546875 160.984375 174.015625 161.789062 174.703125 162.425781 C 175.390625 163.066406 176.332031 163.382812 177.53125 163.382812 C 178.730469 163.382812 179.671875 163.066406 180.355469 162.425781 M 176.003906 162.117188 C 175.617188 161.691406 175.339844 161.15625 175.171875 160.511719 C 175.003906 159.867188 174.898438 159.230469 174.859375 158.597656 C 174.816406 157.96875 174.792969 157.265625 174.792969 156.496094 C 174.792969 155.746094 174.816406 155.078125 174.859375 154.492188 C 174.898438 153.910156 175.003906 153.328125 175.167969 152.75 C 175.332031 152.171875 175.605469 151.691406 175.988281 151.308594 C 176.371094 150.929688 176.886719 150.738281 177.53125 150.738281 C 178.363281 150.738281 178.980469 151.046875 179.378906 151.664062 C 179.777344 152.285156 180.023438 152.988281 180.117188 153.777344 C 180.210938 154.566406 180.257812 155.472656 180.257812 156.496094 C 180.257812 157.5625 180.210938 158.527344 180.117188 159.390625 C 180.023438 160.253906 179.777344 161.03125 179.371094 161.71875 C 178.972656 162.414062 178.355469 162.757812 177.53125 162.757812 C 176.898438 162.757812 176.390625 162.542969 176.003906 162.117188 "/>
<path style=" stroke:none;fill-rule:nonzero;fill:rgb(100%,100%,0%);fill-opacity:1;" d="M 193.265625 166.054688 L 193.527344 166.054688 L 193.671875 165.96875 L 193.75 165.8125 C 193.75 165.714844 193.722656 165.640625 193.667969 165.585938 C 190.445312 162.558594 188.832031 158.132812 188.832031 152.300781 C 188.832031 150.984375 188.917969 149.71875 189.082031 148.507812 C 189.25 147.292969 189.523438 146.121094 189.898438 144.988281 C 190.269531 143.855469 190.765625 142.785156 191.382812 141.78125 C 191.996094 140.78125 192.769531 139.839844 193.695312 138.960938 L 193.75 138.785156 L 193.679688 138.617188 L 193.527344 138.546875 L 193.265625 138.546875 C 193.171875 138.546875 193.125 138.5625 193.125 138.597656 C 192.097656 139.378906 191.199219 140.285156 190.429688 141.324219 C 189.664062 142.363281 189.03125 143.480469 188.535156 144.671875 C 188.039062 145.863281 187.671875 147.101562 187.433594 148.390625 C 187.191406 149.679688 187.070312 150.984375 187.070312 152.300781 C 187.070312 153.597656 187.191406 154.894531 187.433594 156.183594 C 187.671875 157.472656 188.035156 158.707031 188.523438 159.890625 C 189.007812 161.070312 189.632812 162.183594 190.394531 163.226562 C 191.160156 164.273438 192.070312 165.195312 193.125 166.003906 C 193.125 166.039062 193.171875 166.054688 193.265625 166.054688 "/>
<path style=" stroke:none;fill-rule:nonzero;fill:rgb(100%,100%,0%);fill-opacity:1;" d="M 201.730469 159.179688 L 201.730469 157.78125 C 201.554688 157.78125 201.332031 157.757812 201.058594 157.714844 C 200.785156 157.667969 200.652344 157.617188 200.652344 157.554688 L 203.484375 154.421875 L 206.402344 157.78125 L 205.351562 157.78125 L 205.351562 159.179688 L 212.027344 159.179688 L 212.027344 157.78125 L 209.914062 157.78125 L 205.324219 152.410156 L 208.78125 148.621094 C 208.945312 148.449219 209.832031 148.367188 211.433594 148.367188 L 211.433594 146.96875 L 205.78125 146.96875 L 205.78125 148.367188 C 205.945312 148.367188 206.164062 148.382812 206.4375 148.417969 C 206.707031 148.453125 206.84375 148.511719 206.84375 148.59375 L 204.382812 151.304688 L 201.839844 148.367188 L 202.863281 148.367188 L 202.863281 146.96875 L 196.199219 146.96875 L 196.199219 148.367188 L 198.300781 148.367188 L 202.546875 153.320312 L 198.730469 157.527344 C 198.554688 157.695312 197.664062 157.78125 196.058594 157.78125 L 196.058594 159.179688 Z M 201.730469 159.179688 "/>
<path style=" stroke:none;fill-rule:nonzero;fill:rgb(100%,100%,0%);fill-opacity:1;" d="M 217.539062 152.035156 L 217.863281 152.035156 L 218.011719 151.960938 L 218.082031 151.828125 C 218.152344 151.179688 218.21875 150.414062 218.277344 149.539062 C 218.335938 148.664062 218.382812 147.902344 218.417969 147.246094 C 218.449219 146.59375 218.472656 145.925781 218.484375 145.246094 C 218.5 144.5625 218.503906 143.863281 218.503906 143.152344 L 218.503906 143.132812 C 218.503906 142.859375 218.480469 142.597656 218.433594 142.34375 C 218.390625 142.085938 218.332031 141.8125 218.269531 141.523438 C 218.203125 141.230469 218.136719 140.933594 218.078125 140.628906 C 218.011719 140.320312 217.980469 140.050781 217.980469 139.816406 C 218.238281 139.84375 218.652344 139.933594 219.226562 140.085938 C 219.800781 140.242188 220.25 140.320312 220.570312 140.320312 C 220.792969 140.320312 220.980469 140.238281 221.136719 140.082031 C 221.296875 139.925781 221.375 139.738281 221.375 139.523438 C 221.375 139.308594 221.296875 139.125 221.136719 138.972656 C 220.980469 138.820312 220.792969 138.746094 220.570312 138.746094 C 220.25 138.746094 219.800781 138.824219 219.222656 138.980469 C 218.644531 139.132812 218.230469 139.226562 217.980469 139.257812 C 217.980469 138.9375 217.996094 138.675781 218.027344 138.472656 C 218.054688 138.269531 218.121094 137.878906 218.222656 137.292969 C 218.324219 136.707031 218.398438 136.265625 218.441406 135.964844 C 218.484375 135.664062 218.503906 135.347656 218.503906 135.003906 C 218.503906 134.789062 218.429688 134.605469 218.277344 134.453125 C 218.128906 134.304688 217.9375 134.226562 217.707031 134.226562 C 217.46875 134.226562 217.273438 134.304688 217.113281 134.453125 C 216.957031 134.605469 216.878906 134.789062 216.878906 135.003906 C 216.878906 135.347656 216.914062 135.726562 216.976562 136.152344 C 217.042969 136.574219 217.109375 136.964844 217.175781 137.316406 C 217.238281 137.671875 217.292969 138 217.335938 138.3125 C 217.378906 138.621094 217.402344 138.9375 217.402344 139.257812 C 217.152344 139.226562 216.746094 139.132812 216.175781 138.980469 C 215.605469 138.824219 215.160156 138.746094 214.839844 138.746094 C 214.621094 138.746094 214.425781 138.820312 214.265625 138.972656 C 214.101562 139.125 214.019531 139.308594 214.019531 139.523438 C 214.019531 139.738281 214.101562 139.925781 214.265625 140.082031 C 214.425781 140.238281 214.621094 140.320312 214.839844 140.320312 C 215.160156 140.320312 215.601562 140.242188 216.171875 140.085938 C 216.738281 139.933594 217.148438 139.84375 217.402344 139.816406 C 217.402344 140.050781 217.382812 140.277344 217.34375 140.5 C 217.300781 140.71875 217.230469 141.054688 217.128906 141.503906 C 217.027344 141.953125 216.960938 142.265625 216.929688 142.449219 C 216.894531 142.632812 216.878906 142.859375 216.878906 143.132812 C 216.878906 146.132812 217.027344 149.03125 217.320312 151.828125 C 217.320312 151.96875 217.394531 152.035156 217.539062 152.035156 "/>
<path style=" stroke:none;fill-rule:nonzero;fill:rgb(100%,100%,0%);fill-opacity:1;" d="M 226.332031 166.054688 L 226.472656 166.003906 C 227.527344 165.195312 228.433594 164.277344 229.191406 163.242188 C 229.953125 162.207031 230.578125 161.078125 231.074219 159.855469 C 231.570312 158.632812 231.929688 157.394531 232.15625 156.136719 C 232.382812 154.878906 232.496094 153.597656 232.496094 152.300781 C 232.496094 150.546875 232.285156 148.824219 231.867188 147.144531 C 231.445312 145.460938 230.78125 143.875 229.871094 142.386719 C 228.964844 140.902344 227.832031 139.636719 226.472656 138.597656 L 226.332031 138.546875 L 226.066406 138.546875 L 225.894531 138.617188 L 225.816406 138.785156 C 225.816406 138.894531 225.855469 138.972656 225.929688 139.015625 C 229.132812 142.042969 230.734375 146.472656 230.734375 152.300781 C 230.734375 158.132812 229.113281 162.578125 225.875 165.640625 L 225.816406 165.8125 C 225.816406 165.976562 225.902344 166.054688 226.066406 166.054688 Z M 226.332031 166.054688 "/>
<path style=" stroke:none;fill-rule:nonzero;fill:rgb(100%,100%,0%);fill-opacity:1;" d="M 100.640625 393.492188 C 100.941406 393.164062 101.089844 392.804688 101.089844 392.410156 C 101.089844 392.113281 100.984375 391.875 100.773438 391.691406 C 100.558594 391.507812 100.292969 391.417969 99.980469 391.417969 C 99.507812 391.417969 99.113281 391.589844 98.804688 391.933594 C 98.496094 392.277344 98.339844 392.683594 98.339844 393.148438 C 98.339844 393.730469 98.589844 394.199219 99.09375 394.550781 C 99.59375 394.90625 100.164062 395.082031 100.800781 395.082031 C 101.632812 395.082031 102.351562 394.726562 102.960938 394.007812 C 103.570312 393.292969 104.070312 392.402344 104.460938 391.34375 C 104.855469 390.28125 105.160156 389.246094 105.375 388.238281 C 105.59375 387.230469 105.785156 386.242188 105.949219 385.261719 L 107.265625 378.546875 L 110.292969 378.546875 L 110.480469 378.445312 C 110.53125 378.378906 110.570312 378.289062 110.597656 378.179688 C 110.625 378.066406 110.644531 377.988281 110.652344 377.941406 C 110.652344 377.703125 110.5625 377.582031 110.375 377.582031 L 107.453125 377.582031 L 107.800781 375.765625 C 108.207031 373.707031 108.46875 372.441406 108.589844 371.976562 C 108.664062 371.679688 108.828125 371.402344 109.082031 371.144531 C 109.335938 370.882812 109.605469 370.753906 109.894531 370.753906 C 110.410156 370.753906 110.84375 370.882812 111.195312 371.140625 C 110.777344 371.1875 110.429688 371.359375 110.148438 371.65625 C 109.863281 371.957031 109.722656 372.304688 109.722656 372.707031 C 109.722656 373.003906 109.832031 373.242188 110.046875 373.421875 C 110.265625 373.605469 110.527344 373.699219 110.835938 373.699219 C 111.289062 373.699219 111.675781 373.527344 111.996094 373.183594 C 112.316406 372.839844 112.472656 372.433594 112.472656 371.972656 C 112.472656 371.570312 112.351562 371.222656 112.101562 370.925781 C 111.851562 370.632812 111.53125 370.414062 111.136719 370.265625 C 110.746094 370.117188 110.34375 370.042969 109.925781 370.042969 C 109.289062 370.042969 108.699219 370.238281 108.148438 370.628906 C 107.597656 371.019531 107.164062 371.511719 106.839844 372.113281 C 106.628906 372.535156 106.46875 372.914062 106.363281 373.253906 C 106.253906 373.59375 106.15625 373.964844 106.066406 374.363281 C 105.972656 374.761719 105.871094 375.238281 105.757812 375.792969 L 105.425781 377.582031 L 102.902344 377.582031 C 102.738281 377.582031 102.617188 377.78125 102.542969 378.183594 C 102.542969 378.425781 102.636719 378.546875 102.820312 378.546875 L 105.246094 378.546875 L 103.949219 385.289062 C 103.164062 389.195312 102.683594 391.496094 102.507812 392.195312 C 102.085938 393.644531 101.535156 394.371094 100.863281 394.371094 C 100.363281 394.371094 99.941406 394.242188 99.589844 393.980469 C 99.988281 393.980469 100.339844 393.816406 100.640625 393.492188 "/>
<path style=" stroke:none;fill-rule:nonzero;fill:rgb(100%,100%,0%);fill-opacity:1;" d="M 119.132812 392.6875 C 119.816406 392.050781 120.285156 391.25 120.539062 390.277344 C 120.792969 389.308594 120.921875 388.246094 120.921875 387.089844 C 120.921875 385.195312 120.589844 383.601562 119.925781 382.3125 C 119.261719 381.019531 118.054688 380.375 116.308594 380.375 C 114.566406 380.375 113.363281 381.019531 112.691406 382.3125 C 112.019531 383.601562 111.6875 385.195312 111.6875 387.089844 C 111.6875 388.246094 111.8125 389.308594 112.066406 390.277344 C 112.324219 391.25 112.792969 392.050781 113.480469 392.6875 C 114.164062 393.328125 115.109375 393.644531 116.308594 393.644531 C 117.507812 393.644531 118.449219 393.328125 119.132812 392.6875 M 114.78125 392.382812 C 114.394531 391.957031 114.117188 391.421875 113.949219 390.777344 C 113.78125 390.132812 113.675781 389.496094 113.632812 388.863281 C 113.59375 388.230469 113.570312 387.53125 113.570312 386.757812 C 113.570312 386.007812 113.59375 385.339844 113.632812 384.753906 C 113.675781 384.171875 113.78125 383.589844 113.945312 383.011719 C 114.109375 382.433594 114.382812 381.957031 114.765625 381.574219 C 115.148438 381.191406 115.664062 381 116.308594 381 C 117.140625 381 117.753906 381.308594 118.15625 381.929688 C 118.554688 382.546875 118.800781 383.25 118.894531 384.039062 C 118.988281 384.832031 119.035156 385.738281 119.035156 386.757812 C 119.035156 387.828125 118.988281 388.792969 118.894531 389.652344 C 118.800781 390.515625 118.550781 391.292969 118.148438 391.984375 C 117.746094 392.675781 117.132812 393.019531 116.308594 393.019531 C 115.675781 393.019531 115.167969 392.808594 114.78125 392.382812 "/>
<path style=" stroke:none;fill-rule:nonzero;fill:rgb(100%,100%,0%);fill-opacity:1;" d="M 132.011719 396.320312 L 132.273438 396.320312 L 132.417969 396.230469 L 132.496094 396.078125 C 132.496094 395.980469 132.46875 395.902344 132.410156 395.847656 C 129.199219 392.820312 127.597656 388.394531 127.597656 382.5625 C 127.597656 381.246094 127.679688 379.984375 127.84375 378.769531 C 128.011719 377.554688 128.28125 376.382812 128.65625 375.25 C 129.027344 374.117188 129.523438 373.050781 130.136719 372.046875 C 130.75 371.042969 131.515625 370.101562 132.441406 369.226562 L 132.496094 369.050781 L 132.425781 368.882812 L 132.273438 368.808594 L 132.011719 368.808594 C 131.917969 368.808594 131.871094 368.828125 131.871094 368.863281 C 130.847656 369.640625 129.953125 370.550781 129.1875 371.589844 C 128.421875 372.628906 127.792969 373.742188 127.296875 374.933594 C 126.804688 376.125 126.4375 377.363281 126.199219 378.65625 C 125.957031 379.945312 125.839844 381.246094 125.839844 382.5625 C 125.839844 383.863281 125.957031 385.15625 126.199219 386.445312 C 126.4375 387.734375 126.800781 388.972656 127.285156 390.152344 C 127.769531 391.335938 128.390625 392.449219 129.152344 393.492188 C 129.914062 394.535156 130.820312 395.457031 131.871094 396.265625 C 131.871094 396.300781 131.917969 396.320312 132.011719 396.320312 "/>
<path style=" stroke:none;fill-rule:nonzero;fill:rgb(100%,100%,0%);fill-opacity:1;" d="M 140.488281 389.441406 L 140.488281 388.042969 C 140.3125 388.042969 140.089844 388.023438 139.820312 387.976562 C 139.546875 387.933594 139.414062 387.878906 139.414062 387.816406 L 142.238281 384.6875 L 145.148438 388.042969 L 144.101562 388.042969 L 144.101562 389.441406 L 150.757812 389.441406 L 150.757812 388.042969 L 148.648438 388.042969 L 144.070312 382.671875 L 147.519531 378.882812 C 147.683594 378.714844 148.566406 378.628906 150.164062 378.628906 L 150.164062 377.230469 L 144.527344 377.230469 L 144.527344 378.628906 C 144.691406 378.628906 144.910156 378.644531 145.183594 378.679688 C 145.453125 378.71875 145.589844 378.773438 145.589844 378.855469 L 143.136719 381.570312 L 140.597656 378.628906 L 141.617188 378.628906 L 141.617188 377.230469 L 134.972656 377.230469 L 134.972656 378.628906 L 137.070312 378.628906 L 141.300781 383.585938 L 137.496094 387.789062 C 137.320312 387.960938 136.433594 388.042969 134.835938 388.042969 L 134.835938 389.441406 Z M 140.488281 389.441406 "/>
<path style=" stroke:none;fill-rule:nonzero;fill:rgb(100%,100%,0%);fill-opacity:1;" d="M 156.316406 382.300781 L 156.640625 382.300781 L 156.789062 382.222656 L 156.859375 382.09375 C 156.929688 381.441406 156.996094 380.679688 157.054688 379.804688 C 157.113281 378.929688 157.160156 378.164062 157.191406 377.511719 C 157.226562 376.859375 157.246094 376.191406 157.261719 375.507812 C 157.273438 374.824219 157.28125 374.128906 157.28125 373.414062 L 157.28125 373.394531 C 157.28125 373.125 157.257812 372.859375 157.210938 372.605469 C 157.164062 372.347656 157.109375 372.074219 157.046875 371.785156 C 156.980469 371.496094 156.914062 371.195312 156.851562 370.890625 C 156.789062 370.582031 156.757812 370.3125 156.757812 370.078125 C 157.015625 370.105469 157.429688 370.195312 158.003906 370.351562 C 158.578125 370.503906 159.027344 370.582031 159.347656 370.582031 C 159.570312 370.582031 159.757812 370.503906 159.914062 370.34375 C 160.070312 370.1875 160.148438 370 160.148438 369.785156 C 160.148438 369.570312 160.070312 369.386719 159.914062 369.238281 C 159.757812 369.085938 159.570312 369.011719 159.347656 369.011719 C 159.027344 369.011719 158.578125 369.085938 158 369.242188 C 157.421875 369.394531 157.007812 369.488281 156.757812 369.519531 C 156.757812 369.199219 156.773438 368.9375 156.804688 368.734375 C 156.832031 368.53125 156.898438 368.140625 157 367.554688 C 157.101562 366.972656 157.175781 366.527344 157.21875 366.230469 C 157.261719 365.929688 157.28125 365.609375 157.28125 365.269531 C 157.28125 365.054688 157.207031 364.871094 157.054688 364.71875 C 156.902344 364.566406 156.714844 364.492188 156.484375 364.492188 C 156.246094 364.492188 156.050781 364.566406 155.890625 364.71875 C 155.734375 364.871094 155.65625 365.054688 155.65625 365.269531 C 155.65625 365.609375 155.6875 365.992188 155.753906 366.414062 C 155.820312 366.835938 155.886719 367.226562 155.953125 367.578125 C 156.015625 367.933594 156.070312 368.265625 156.113281 368.574219 C 156.15625 368.882812 156.179688 369.199219 156.179688 369.519531 C 155.929688 369.488281 155.523438 369.394531 154.953125 369.242188 C 154.382812 369.085938 153.9375 369.011719 153.617188 369.011719 C 153.394531 369.011719 153.203125 369.085938 153.039062 369.238281 C 152.878906 369.386719 152.796875 369.570312 152.796875 369.785156 C 152.796875 370 152.878906 370.1875 153.039062 370.34375 C 153.203125 370.503906 153.394531 370.582031 153.617188 370.582031 C 153.9375 370.582031 154.378906 370.503906 154.945312 370.351562 C 155.515625 370.195312 155.925781 370.105469 156.179688 370.078125 C 156.179688 370.3125 156.15625 370.539062 156.117188 370.761719 C 156.078125 370.984375 156.007812 371.316406 155.90625 371.765625 C 155.804688 372.214844 155.738281 372.53125 155.703125 372.714844 C 155.671875 372.898438 155.65625 373.125 155.65625 373.394531 C 155.65625 376.394531 155.804688 379.292969 156.097656 382.09375 C 156.097656 382.230469 156.171875 382.300781 156.316406 382.300781 "/>
<path style=" stroke:none;fill-rule:nonzero;fill:rgb(100%,100%,0%);fill-opacity:1;" d="M 165.101562 396.320312 L 165.238281 396.265625 C 166.292969 395.457031 167.195312 394.539062 167.953125 393.503906 C 168.710938 392.46875 169.335938 391.34375 169.828125 390.121094 C 170.320312 388.898438 170.683594 387.65625 170.90625 386.398438 C 171.132812 385.140625 171.246094 383.863281 171.246094 382.5625 C 171.246094 380.808594 171.035156 379.089844 170.617188 377.40625 C 170.199219 375.722656 169.535156 374.136719 168.632812 372.648438 C 167.726562 371.164062 166.597656 369.902344 165.238281 368.863281 L 165.101562 368.808594 L 164.839844 368.808594 L 164.664062 368.882812 L 164.589844 369.050781 C 164.589844 369.15625 164.625 369.234375 164.699219 369.277344 C 167.894531 372.304688 169.488281 376.734375 169.488281 382.5625 C 169.488281 388.394531 167.875 392.839844 164.644531 395.902344 L 164.589844 396.078125 C 164.589844 396.238281 164.671875 396.320312 164.839844 396.320312 Z M 165.101562 396.320312 "/>
<path style=" stroke:none;fill-rule:nonzero;fill:rgb(100%,100%,0%);fill-opacity:1;" d="M 199.105469 383.113281 C 199.253906 383.113281 199.375 383.054688 199.46875 382.9375 C 199.566406 382.824219 199.613281 382.699219 199.613281 382.5625 C 199.613281 382.429688 199.566406 382.304688 199.46875 382.1875 C 199.375 382.070312 199.253906 382.011719 199.105469 382.011719 L 183.03125 382.011719 C 182.875 382.011719 182.75 382.070312 182.648438 382.1875 C 182.546875 382.304688 182.5 382.429688 182.5 382.5625 C 182.5 382.699219 182.546875 382.824219 182.648438 382.9375 C 182.75 383.054688 182.875 383.113281 183.03125 383.113281 Z M 199.105469 383.113281 "/>
<path style=" stroke:none;fill-rule:nonzero;fill:rgb(100%,100%,0%);fill-opacity:1;" d="M 218.105469 389.441406 C 218.398438 389.378906 218.542969 389.214844 218.542969 388.945312 C 218.542969 388.820312 218.5 388.710938 218.414062 388.617188 C 218.328125 388.519531 218.222656 388.472656 218.105469 388.472656 C 217.488281 388.472656 217.054688 388.449219 216.796875 388.398438 C 216.539062 388.351562 216.355469 388.21875 216.238281 387.996094 C 216.125 387.777344 216.066406 387.417969 216.066406 386.917969 L 216.066406 381.625 L 216.863281 380.882812 L 222.246094 387.15625 C 222.769531 387.730469 223.03125 388.117188 223.03125 388.3125 C 223.03125 388.421875 222.789062 388.472656 222.300781 388.472656 C 222 388.539062 221.847656 388.691406 221.847656 388.945312 C 221.847656 389.058594 221.894531 389.171875 221.984375 389.28125 C 222.078125 389.386719 222.183594 389.441406 222.300781 389.441406 L 229.539062 389.441406 C 229.84375 389.378906 229.996094 389.214844 229.996094 388.945312 C 229.996094 388.820312 229.953125 388.710938 229.863281 388.617188 C 229.777344 388.519531 229.667969 388.472656 229.539062 388.472656 C 229.320312 388.472656 229.078125 388.375 228.8125 388.171875 C 228.546875 387.96875 228.308594 387.753906 228.101562 387.519531 C 227.894531 387.289062 227.632812 386.972656 227.3125 386.582031 L 219.960938 377.96875 L 223.058594 375.054688 C 223.839844 374.320312 224.472656 373.742188 224.964844 373.324219 C 225.457031 372.902344 226.023438 372.503906 226.664062 372.125 C 227.304688 371.75 227.90625 371.5625 228.46875 371.5625 C 228.769531 371.5 228.921875 371.335938 228.921875 371.066406 C 228.921875 370.941406 228.878906 370.832031 228.789062 370.734375 C 228.703125 370.640625 228.59375 370.59375 228.46875 370.59375 L 221.570312 370.59375 C 221.269531 370.65625 221.117188 370.8125 221.117188 371.066406 C 221.117188 371.171875 221.160156 371.28125 221.25 371.394531 C 221.335938 371.507812 221.445312 371.5625 221.570312 371.5625 C 221.9375 371.5625 222.238281 371.695312 222.46875 371.964844 C 222.695312 372.234375 222.8125 372.546875 222.8125 372.90625 C 222.8125 373.40625 222.605469 373.867188 222.191406 374.289062 L 216.066406 380.039062 L 216.066406 373.1875 C 216.066406 372.648438 216.117188 372.269531 216.21875 372.046875 C 216.320312 371.824219 216.488281 371.683594 216.726562 371.636719 C 216.964844 371.585938 217.398438 371.5625 218.019531 371.5625 L 218.105469 371.5625 C 218.398438 371.5 218.542969 371.335938 218.542969 371.066406 C 218.542969 370.941406 218.5 370.832031 218.414062 370.734375 C 218.328125 370.640625 218.222656 370.59375 218.105469 370.59375 L 209.449219 370.59375 C 209.144531 370.65625 208.992188 370.8125 208.992188 371.066406 C 208.992188 371.171875 209.039062 371.28125 209.125 371.394531 C 209.210938 371.507812 209.320312 371.5625 209.449219 371.5625 C 210.0625 371.5625 210.5 371.585938 210.753906 371.636719 C 211.011719 371.683594 211.195312 371.824219 211.304688 372.046875 C 211.417969 372.269531 211.472656 372.632812 211.472656 373.132812 L 211.472656 386.847656 C 211.472656 387.378906 211.421875 387.753906 211.328125 387.984375 C 211.230469 388.210938 211.058594 388.351562 210.816406 388.398438 C 210.574219 388.449219 210.144531 388.472656 209.53125 388.472656 L 209.449219 388.472656 C 209.144531 388.539062 208.992188 388.691406 208.992188 388.945312 C 208.992188 389.058594 209.039062 389.171875 209.132812 389.28125 C 209.222656 389.386719 209.328125 389.441406 209.449219 389.441406 Z M 212.460938 386.917969 L 212.460938 373.132812 C 212.460938 372.460938 212.378906 371.9375 212.214844 371.5625 L 215.328125 371.5625 C 215.160156 371.9375 215.078125 372.460938 215.078125 373.132812 L 215.078125 386.917969 C 215.078125 387.578125 215.160156 388.097656 215.328125 388.472656 L 212.214844 388.472656 C 212.378906 388.097656 212.460938 387.578125 212.460938 386.917969 M 217.59375 380.199219 L 219.261719 378.628906 L 226.527344 387.15625 C 226.929688 387.648438 227.324219 388.089844 227.710938 388.472656 L 224.023438 388.472656 L 224.023438 388.3125 C 224.023438 388.015625 223.9375 387.742188 223.765625 387.488281 C 223.597656 387.230469 223.351562 386.929688 223.03125 386.582031 Z M 223.78125 373 L 223.789062 372.90625 C 223.789062 372.421875 223.648438 371.972656 223.375 371.5625 L 225.742188 371.5625 C 225.144531 371.957031 224.484375 372.46875 223.761719 373.09375 Z M 223.78125 373 "/>
</g>
</svg>
