<?xml version="1.0" encoding="utf-8" standalone="no"?>
<!DOCTYPE svg PUBLIC "-//W3C//DTD SVG 1.1//EN"
  "http://www.w3.org/Graphics/SVG/1.1/DTD/svg11.dtd">
<!-- Created with matplotlib (http://matplotlib.org/) -->
<svg height="357pt" version="1.1" viewBox="0 0 576 357" width="576pt" xmlns="http://www.w3.org/2000/svg" xmlns:xlink="http://www.w3.org/1999/xlink">
 <defs>
  <style type="text/css">
*{stroke-linecap:butt;stroke-linejoin:round;}
  </style>
 </defs>
 <g id="figure_1">
  <g id="patch_1">
   <path d="M 0 357.84 
L 576 357.84 
L 576 0 
L 0 0 
z
" style="fill:#ffffff;"/>
  </g>
  <g id="axes_1">
   <g id="patch_2">
    <path d="M 72 76.57776 
L 518.4 76.57776 
L 518.4 17.892 
L 72 17.892 
z
" style="fill:#ffffff;"/>
   </g>
   <g id="matplotlib.axis_1">
    <g id="xtick_1">
     <g id="line2d_1">
      <defs>
       <path d="M 0 0 
L 0 3.5 
" id="m2eddf8f82d" style="stroke:#000000;stroke-width:0.8;"/>
      </defs>
      <g>
       <use style="stroke:#000000;stroke-width:0.8;" x="92.290909" xlink:href="#m2eddf8f82d" y="76.57776"/>
      </g>
     </g>
    </g>
    <g id="xtick_2">
     <g id="line2d_2">
      <g>
       <use style="stroke:#000000;stroke-width:0.8;" x="143.660299" xlink:href="#m2eddf8f82d" y="76.57776"/>
      </g>
     </g>
    </g>
    <g id="xtick_3">
     <g id="line2d_3">
      <g>
       <use style="stroke:#000000;stroke-width:0.8;" x="195.029689" xlink:href="#m2eddf8f82d" y="76.57776"/>
      </g>
     </g>
    </g>
    <g id="xtick_4">
     <g id="line2d_4">
      <g>
       <use style="stroke:#000000;stroke-width:0.8;" x="246.399079" xlink:href="#m2eddf8f82d" y="76.57776"/>
      </g>
     </g>
    </g>
    <g id="xtick_5">
     <g id="line2d_5">
      <g>
       <use style="stroke:#000000;stroke-width:0.8;" x="297.76847" xlink:href="#m2eddf8f82d" y="76.57776"/>
      </g>
     </g>
    </g>
    <g id="xtick_6">
     <g id="line2d_6">
      <g>
       <use style="stroke:#000000;stroke-width:0.8;" x="349.13786" xlink:href="#m2eddf8f82d" y="76.57776"/>
      </g>
     </g>
    </g>
    <g id="xtick_7">
     <g id="line2d_7">
      <g>
       <use style="stroke:#000000;stroke-width:0.8;" x="400.50725" xlink:href="#m2eddf8f82d" y="76.57776"/>
      </g>
     </g>
    </g>
    <g id="xtick_8">
     <g id="line2d_8">
      <g>
       <use style="stroke:#000000;stroke-width:0.8;" x="451.87664" xlink:href="#m2eddf8f82d" y="76.57776"/>
      </g>
     </g>
    </g>
    <g id="xtick_9">
     <g id="line2d_9">
      <g>
       <use style="stroke:#000000;stroke-width:0.8;" x="503.24603" xlink:href="#m2eddf8f82d" y="76.57776"/>
      </g>
     </g>
    </g>
   </g>
   <g id="matplotlib.axis_2">
    <g id="ytick_1">
     <g id="line2d_10">
      <defs>
       <path d="M 0 0 
L -3.5 0 
" id="m77b79982b8" style="stroke:#000000;stroke-width:0.8;"/>
      </defs>
      <g>
       <use style="stroke:#000000;stroke-width:0.8;" x="72" xlink:href="#m77b79982b8" y="69.806326"/>
      </g>
     </g>
     <g id="text_1">
      <!-- -0.69 -->
      <defs>
       <path d="M 4.890625 31.390625 
L 31.203125 31.390625 
L 31.203125 23.390625 
L 4.890625 23.390625 
z
" id="DejaVuSans-2d"/>
       <path d="M 31.78125 66.40625 
Q 24.171875 66.40625 20.328125 58.90625 
Q 16.5 51.421875 16.5 36.375 
Q 16.5 21.390625 20.328125 13.890625 
Q 24.171875 6.390625 31.78125 6.390625 
Q 39.453125 6.390625 43.28125 13.890625 
Q 47.125 21.390625 47.125 36.375 
Q 47.125 51.421875 43.28125 58.90625 
Q 39.453125 66.40625 31.78125 66.40625 
z
M 31.78125 74.21875 
Q 44.046875 74.21875 50.515625 64.515625 
Q 56.984375 54.828125 56.984375 36.375 
Q 56.984375 17.96875 50.515625 8.265625 
Q 44.046875 -1.421875 31.78125 -1.421875 
Q 19.53125 -1.421875 13.0625 8.265625 
Q 6.59375 17.96875 6.59375 36.375 
Q 6.59375 54.828125 13.0625 64.515625 
Q 19.53125 74.21875 31.78125 74.21875 
z
" id="DejaVuSans-30"/>
       <path d="M 10.6875 12.40625 
L 21 12.40625 
L 21 0 
L 10.6875 0 
z
" id="DejaVuSans-2e"/>
       <path d="M 33.015625 40.375 
Q 26.375 40.375 22.484375 35.828125 
Q 18.609375 31.296875 18.609375 23.390625 
Q 18.609375 15.53125 22.484375 10.953125 
Q 26.375 6.390625 33.015625 6.390625 
Q 39.65625 6.390625 43.53125 10.953125 
Q 47.40625 15.53125 47.40625 23.390625 
Q 47.40625 31.296875 43.53125 35.828125 
Q 39.65625 40.375 33.015625 40.375 
z
M 52.59375 71.296875 
L 52.59375 62.3125 
Q 48.875 64.0625 45.09375 64.984375 
Q 41.3125 65.921875 37.59375 65.921875 
Q 27.828125 65.921875 22.671875 59.328125 
Q 17.53125 52.734375 16.796875 39.40625 
Q 19.671875 43.65625 24.015625 45.921875 
Q 28.375 48.1875 33.59375 48.1875 
Q 44.578125 48.1875 50.953125 41.515625 
Q 57.328125 34.859375 57.328125 23.390625 
Q 57.328125 12.15625 50.6875 5.359375 
Q 44.046875 -1.421875 33.015625 -1.421875 
Q 20.359375 -1.421875 13.671875 8.265625 
Q 6.984375 17.96875 6.984375 36.375 
Q 6.984375 53.65625 15.1875 63.9375 
Q 23.390625 74.21875 37.203125 74.21875 
Q 40.921875 74.21875 44.703125 73.484375 
Q 48.484375 72.75 52.59375 71.296875 
z
" id="DejaVuSans-36"/>
       <path d="M 10.984375 1.515625 
L 10.984375 10.5 
Q 14.703125 8.734375 18.5 7.8125 
Q 22.3125 6.890625 25.984375 6.890625 
Q 35.75 6.890625 40.890625 13.453125 
Q 46.046875 20.015625 46.78125 33.40625 
Q 43.953125 29.203125 39.59375 26.953125 
Q 35.25 24.703125 29.984375 24.703125 
Q 19.046875 24.703125 12.671875 31.3125 
Q 6.296875 37.9375 6.296875 49.421875 
Q 6.296875 60.640625 12.9375 67.421875 
Q 19.578125 74.21875 30.609375 74.21875 
Q 43.265625 74.21875 49.921875 64.515625 
Q 56.59375 54.828125 56.59375 36.375 
Q 56.59375 19.140625 48.40625 8.859375 
Q 40.234375 -1.421875 26.421875 -1.421875 
Q 22.703125 -1.421875 18.890625 -0.6875 
Q 15.09375 0.046875 10.984375 1.515625 
z
M 30.609375 32.421875 
Q 37.25 32.421875 41.125 36.953125 
Q 45.015625 41.5 45.015625 49.421875 
Q 45.015625 57.28125 41.125 61.84375 
Q 37.25 66.40625 30.609375 66.40625 
Q 23.96875 66.40625 20.09375 61.84375 
Q 16.21875 57.28125 16.21875 49.421875 
Q 16.21875 41.5 20.09375 36.953125 
Q 23.96875 32.421875 30.609375 32.421875 
z
" id="DejaVuSans-39"/>
      </defs>
      <g transform="translate(39.126562 73.605545)scale(0.1 -0.1)">
       <use xlink:href="#DejaVuSans-2d"/>
       <use x="36.083984" xlink:href="#DejaVuSans-30"/>
       <use x="99.707031" xlink:href="#DejaVuSans-2e"/>
       <use x="131.494141" xlink:href="#DejaVuSans-36"/>
       <use x="195.117188" xlink:href="#DejaVuSans-39"/>
      </g>
     </g>
    </g>
    <g id="ytick_2">
     <g id="line2d_11">
      <g>
       <use style="stroke:#000000;stroke-width:0.8;" x="72" xlink:href="#m77b79982b8" y="54.758695"/>
      </g>
     </g>
     <g id="text_2">
      <!-- -0.50 -->
      <defs>
       <path d="M 10.796875 72.90625 
L 49.515625 72.90625 
L 49.515625 64.59375 
L 19.828125 64.59375 
L 19.828125 46.734375 
Q 21.96875 47.46875 24.109375 47.828125 
Q 26.265625 48.1875 28.421875 48.1875 
Q 40.625 48.1875 47.75 41.5 
Q 54.890625 34.8125 54.890625 23.390625 
Q 54.890625 11.625 47.5625 5.09375 
Q 40.234375 -1.421875 26.90625 -1.421875 
Q 22.3125 -1.421875 17.546875 -0.640625 
Q 12.796875 0.140625 7.71875 1.703125 
L 7.71875 11.625 
Q 12.109375 9.234375 16.796875 8.0625 
Q 21.484375 6.890625 26.703125 6.890625 
Q 35.15625 6.890625 40.078125 11.328125 
Q 45.015625 15.765625 45.015625 23.390625 
Q 45.015625 31 40.078125 35.4375 
Q 35.15625 39.890625 26.703125 39.890625 
Q 22.75 39.890625 18.8125 39.015625 
Q 14.890625 38.140625 10.796875 36.28125 
z
" id="DejaVuSans-35"/>
      </defs>
      <g transform="translate(39.126562 58.557914)scale(0.1 -0.1)">
       <use xlink:href="#DejaVuSans-2d"/>
       <use x="36.083984" xlink:href="#DejaVuSans-30"/>
       <use x="99.707031" xlink:href="#DejaVuSans-2e"/>
       <use x="131.494141" xlink:href="#DejaVuSans-35"/>
       <use x="195.117188" xlink:href="#DejaVuSans-30"/>
      </g>
     </g>
    </g>
    <g id="ytick_3">
     <g id="line2d_12">
      <g>
       <use style="stroke:#000000;stroke-width:0.8;" x="72" xlink:href="#m77b79982b8" y="39.711065"/>
      </g>
     </g>
     <g id="text_3">
      <!-- -0.31 -->
      <defs>
       <path d="M 40.578125 39.3125 
Q 47.65625 37.796875 51.625 33 
Q 55.609375 28.21875 55.609375 21.1875 
Q 55.609375 10.40625 48.1875 4.484375 
Q 40.765625 -1.421875 27.09375 -1.421875 
Q 22.515625 -1.421875 17.65625 -0.515625 
Q 12.796875 0.390625 7.625 2.203125 
L 7.625 11.71875 
Q 11.71875 9.328125 16.59375 8.109375 
Q 21.484375 6.890625 26.8125 6.890625 
Q 36.078125 6.890625 40.9375 10.546875 
Q 45.796875 14.203125 45.796875 21.1875 
Q 45.796875 27.640625 41.28125 31.265625 
Q 36.765625 34.90625 28.71875 34.90625 
L 20.21875 34.90625 
L 20.21875 43.015625 
L 29.109375 43.015625 
Q 36.375 43.015625 40.234375 45.921875 
Q 44.09375 48.828125 44.09375 54.296875 
Q 44.09375 59.90625 40.109375 62.90625 
Q 36.140625 65.921875 28.71875 65.921875 
Q 24.65625 65.921875 20.015625 65.03125 
Q 15.375 64.15625 9.8125 62.3125 
L 9.8125 71.09375 
Q 15.4375 72.65625 20.34375 73.4375 
Q 25.25 74.21875 29.59375 74.21875 
Q 40.828125 74.21875 47.359375 69.109375 
Q 53.90625 64.015625 53.90625 55.328125 
Q 53.90625 49.265625 50.4375 45.09375 
Q 46.96875 40.921875 40.578125 39.3125 
z
" id="DejaVuSans-33"/>
       <path d="M 12.40625 8.296875 
L 28.515625 8.296875 
L 28.515625 63.921875 
L 10.984375 60.40625 
L 10.984375 69.390625 
L 28.421875 72.90625 
L 38.28125 72.90625 
L 38.28125 8.296875 
L 54.390625 8.296875 
L 54.390625 0 
L 12.40625 0 
z
" id="DejaVuSans-31"/>
      </defs>
      <g transform="translate(39.126562 43.510283)scale(0.1 -0.1)">
       <use xlink:href="#DejaVuSans-2d"/>
       <use x="36.083984" xlink:href="#DejaVuSans-30"/>
       <use x="99.707031" xlink:href="#DejaVuSans-2e"/>
       <use x="131.494141" xlink:href="#DejaVuSans-33"/>
       <use x="195.117188" xlink:href="#DejaVuSans-31"/>
      </g>
     </g>
    </g>
    <g id="ytick_4">
     <g id="line2d_13">
      <g>
       <use style="stroke:#000000;stroke-width:0.8;" x="72" xlink:href="#m77b79982b8" y="24.663434"/>
      </g>
     </g>
     <g id="text_4">
      <!-- -0.13 -->
      <g transform="translate(39.126562 28.462652)scale(0.1 -0.1)">
       <use xlink:href="#DejaVuSans-2d"/>
       <use x="36.083984" xlink:href="#DejaVuSans-30"/>
       <use x="99.707031" xlink:href="#DejaVuSans-2e"/>
       <use x="131.494141" xlink:href="#DejaVuSans-31"/>
       <use x="195.117188" xlink:href="#DejaVuSans-33"/>
      </g>
     </g>
    </g>
    <g id="text_5">
     <!-- $s_{1}$ -->
     <defs>
      <path d="M 50 53.078125 
L 48.296875 44.578125 
Q 44.734375 46.53125 40.765625 47.5 
Q 36.8125 48.484375 32.625 48.484375 
Q 25.53125 48.484375 21.453125 46.0625 
Q 17.390625 43.65625 17.390625 39.5 
Q 17.390625 34.671875 26.859375 32.078125 
Q 27.59375 31.890625 27.9375 31.78125 
L 30.8125 30.90625 
Q 39.796875 28.421875 42.796875 25.6875 
Q 45.796875 22.953125 45.796875 18.21875 
Q 45.796875 9.515625 38.890625 4.046875 
Q 31.984375 -1.421875 20.796875 -1.421875 
Q 16.453125 -1.421875 11.671875 -0.578125 
Q 6.890625 0.25 1.125 2 
L 2.875 11.28125 
Q 7.8125 8.734375 12.59375 7.421875 
Q 17.390625 6.109375 21.78125 6.109375 
Q 28.375 6.109375 32.5 8.9375 
Q 36.625 11.765625 36.625 16.109375 
Q 36.625 20.796875 25.78125 23.6875 
L 24.859375 23.921875 
L 21.78125 24.703125 
Q 14.9375 26.515625 11.765625 29.46875 
Q 8.59375 32.421875 8.59375 37.015625 
Q 8.59375 45.75 15.15625 50.875 
Q 21.734375 56 33.015625 56 
Q 37.453125 56 41.671875 55.265625 
Q 45.90625 54.546875 50 53.078125 
z
" id="DejaVuSans-Oblique-73"/>
     </defs>
     <g transform="translate(33.046875 52.23488)rotate(-90)scale(0.1 -0.1)">
      <use xlink:href="#DejaVuSans-Oblique-73"/>
      <use transform="translate(52.099609 -16.40625)scale(0.7)" xlink:href="#DejaVuSans-31"/>
     </g>
    </g>
   </g>
   <g id="line2d_14">
    <path clip-path="url(#p0da85e802a)" d="M 92.290909 39.466985 
L 97.427848 38.968907 
L 102.564787 37.904742 
L 107.701726 36.533698 
L 112.838665 35.04104 
L 117.975604 33.422744 
L 123.112543 32.045984 
L 128.249482 31.004121 
L 133.386421 30.573897 
L 138.52336 30.355259 
L 143.660299 29.848525 
L 148.797238 29.435826 
L 153.934177 29.487574 
L 159.071116 29.636899 
L 164.208055 29.344839 
L 169.344994 29.189291 
L 174.481933 29.072295 
L 179.618872 29.044689 
L 184.755811 29.08213 
L 189.89275 29.165364 
L 195.029689 29.294433 
L 200.166628 29.508598 
L 205.303567 29.724461 
L 210.440506 29.988167 
L 215.577445 30.2836 
L 220.714384 30.665668 
L 225.851323 31.040285 
L 230.988262 31.497943 
L 236.125201 32.027708 
L 241.26214 32.540678 
L 246.399079 32.961714 
L 251.536018 33.253451 
L 256.672957 33.516974 
L 261.809896 33.806907 
L 266.946835 34.18932 
L 272.083774 34.667396 
L 277.220713 35.204956 
L 282.357652 35.761204 
L 287.494591 36.204546 
L 292.63153 36.628906 
L 297.76847 37.300382 
L 302.905409 38.081514 
L 308.042348 38.624225 
L 313.179287 39.028439 
L 318.316226 39.220142 
L 323.453165 39.358141 
L 328.590104 39.745366 
L 333.727043 40.73012 
L 338.863982 42.535695 
L 344.000921 45.544628 
L 349.13786 50.478888 
L 354.274799 56.909887 
L 359.411738 63.957461 
L 364.548677 67.313921 
L 369.685616 68.985183 
L 374.822555 69.712308 
L 379.959494 69.806326 
L 385.096433 69.188746 
L 390.233372 67.827655 
L 395.370311 64.317856 
L 400.50725 57.564419 
L 405.644189 50.306892 
L 410.781128 44.098152 
L 415.918067 40.54574 
L 421.055006 39.106029 
L 426.191945 38.002094 
L 431.328884 36.746316 
L 436.465823 35.857144 
L 441.602762 35.240763 
L 446.739701 34.791433 
L 451.87664 34.536657 
L 457.013579 34.51064 
L 462.150518 34.454858 
L 467.287457 34.465018 
L 472.424396 34.46064 
L 477.561335 34.459843 
L 482.698274 34.66978 
L 487.835213 34.816834 
L 492.972152 34.902308 
L 498.109091 34.902484 
" style="fill:none;stroke:#1f77b4;stroke-linecap:square;stroke-width:1.5;"/>
   </g>
   <g id="line2d_15">
    <path clip-path="url(#p0da85e802a)" d="M 92.290909 35.901503 
L 97.427848 35.548597 
L 102.564787 34.818766 
L 107.701726 33.726763 
L 112.838665 32.359242 
L 117.975604 30.857094 
L 123.112543 29.37704 
L 128.249482 28.050394 
L 133.386421 26.957505 
L 138.52336 26.124091 
L 143.660299 25.533283 
L 148.797238 25.143483 
L 153.934177 24.90472 
L 159.071116 24.770078 
L 164.208055 24.70165 
L 169.344994 24.672085 
L 174.481933 24.663434 
L 179.618872 24.664886 
L 184.755811 24.670476 
L 189.89275 24.67725 
L 195.029689 24.684032 
L 200.166628 24.690688 
L 205.303567 24.697752 
L 210.440506 24.706271 
L 215.577445 24.717757 
L 220.714384 24.734139 
L 225.851323 24.75761 
L 230.988262 24.790357 
L 236.125201 24.834163 
L 241.26214 24.889994 
L 246.399079 24.957757 
L 251.536018 25.036377 
L 256.672957 25.124206 
L 261.809896 25.219676 
L 266.946835 25.32194 
L 272.083774 25.431333 
L 277.220713 25.549577 
L 282.357652 25.679864 
L 287.494591 25.827039 
L 292.63153 25.998133 
L 297.76847 26.203531 
L 302.905409 26.458992 
L 308.042348 26.78883 
L 313.179287 27.230495 
L 318.316226 27.840748 
L 323.453165 28.703179 
L 328.590104 29.935961 
L 333.727043 31.69646 
L 338.863982 34.174699 
L 344.000921 37.558526 
L 349.13786 41.943111 
L 354.274799 47.169824 
L 359.411738 52.669211 
L 364.548677 57.536519 
L 369.685616 60.991305 
L 374.822555 62.823146 
L 379.959494 63.187655 
L 385.096433 62.010944 
L 390.233372 58.984782 
L 395.370311 54.201903 
L 400.50725 48.441758 
L 405.644189 42.72832 
L 410.781128 37.784253 
L 415.918067 33.882979 
L 421.055006 30.990523 
L 426.191945 28.941012 
L 431.328884 27.543935 
L 436.465823 26.630087 
L 441.602762 26.064362 
L 446.739701 25.744547 
L 451.87664 25.595448 
L 457.013579 25.562343 
L 462.150518 25.605253 
L 467.287457 25.69452 
L 472.424396 25.807682 
L 477.561335 25.927476 
L 482.698274 26.040727 
L 487.835213 26.137845 
L 492.972152 26.212639 
L 498.109091 26.262135 
" style="fill:none;stroke:#ff7f0e;stroke-linecap:square;stroke-width:1.5;"/>
   </g>
   <g id="patch_3">
    <path d="M 72 76.57776 
L 72 17.892 
" style="fill:none;stroke:#000000;stroke-linecap:square;stroke-linejoin:miter;stroke-width:0.8;"/>
   </g>
   <g id="patch_4">
    <path d="M 518.4 76.57776 
L 518.4 17.892 
" style="fill:none;stroke:#000000;stroke-linecap:square;stroke-linejoin:miter;stroke-width:0.8;"/>
   </g>
   <g id="patch_5">
    <path d="M 72 76.57776 
L 518.4 76.57776 
" style="fill:none;stroke:#000000;stroke-linecap:square;stroke-linejoin:miter;stroke-width:0.8;"/>
   </g>
   <g id="patch_6">
    <path d="M 72 17.892 
L 518.4 17.892 
" style="fill:none;stroke:#000000;stroke-linecap:square;stroke-linejoin:miter;stroke-width:0.8;"/>
   </g>
  </g>
  <g id="axes_2">
   <g id="patch_7">
    <path d="M 72 135.26352 
L 518.4 135.26352 
L 518.4 76.57776 
L 72 76.57776 
z
" style="fill:#ffffff;"/>
   </g>
   <g id="matplotlib.axis_3">
    <g id="xtick_10">
     <g id="line2d_16">
      <g>
       <use style="stroke:#000000;stroke-width:0.8;" x="92.290909" xlink:href="#m2eddf8f82d" y="135.26352"/>
      </g>
     </g>
    </g>
    <g id="xtick_11">
     <g id="line2d_17">
      <g>
       <use style="stroke:#000000;stroke-width:0.8;" x="143.660299" xlink:href="#m2eddf8f82d" y="135.26352"/>
      </g>
     </g>
    </g>
    <g id="xtick_12">
     <g id="line2d_18">
      <g>
       <use style="stroke:#000000;stroke-width:0.8;" x="195.029689" xlink:href="#m2eddf8f82d" y="135.26352"/>
      </g>
     </g>
    </g>
    <g id="xtick_13">
     <g id="line2d_19">
      <g>
       <use style="stroke:#000000;stroke-width:0.8;" x="246.399079" xlink:href="#m2eddf8f82d" y="135.26352"/>
      </g>
     </g>
    </g>
    <g id="xtick_14">
     <g id="line2d_20">
      <g>
       <use style="stroke:#000000;stroke-width:0.8;" x="297.76847" xlink:href="#m2eddf8f82d" y="135.26352"/>
      </g>
     </g>
    </g>
    <g id="xtick_15">
     <g id="line2d_21">
      <g>
       <use style="stroke:#000000;stroke-width:0.8;" x="349.13786" xlink:href="#m2eddf8f82d" y="135.26352"/>
      </g>
     </g>
    </g>
    <g id="xtick_16">
     <g id="line2d_22">
      <g>
       <use style="stroke:#000000;stroke-width:0.8;" x="400.50725" xlink:href="#m2eddf8f82d" y="135.26352"/>
      </g>
     </g>
    </g>
    <g id="xtick_17">
     <g id="line2d_23">
      <g>
       <use style="stroke:#000000;stroke-width:0.8;" x="451.87664" xlink:href="#m2eddf8f82d" y="135.26352"/>
      </g>
     </g>
    </g>
    <g id="xtick_18">
     <g id="line2d_24">
      <g>
       <use style="stroke:#000000;stroke-width:0.8;" x="503.24603" xlink:href="#m2eddf8f82d" y="135.26352"/>
      </g>
     </g>
    </g>
   </g>
   <g id="matplotlib.axis_4">
    <g id="ytick_5">
     <g id="line2d_25">
      <g>
       <use style="stroke:#000000;stroke-width:0.8;" x="72" xlink:href="#m77b79982b8" y="128.492086"/>
      </g>
     </g>
     <g id="text_6">
      <!-- 0.97 -->
      <defs>
       <path d="M 8.203125 72.90625 
L 55.078125 72.90625 
L 55.078125 68.703125 
L 28.609375 0 
L 18.3125 0 
L 43.21875 64.59375 
L 8.203125 64.59375 
z
" id="DejaVuSans-37"/>
      </defs>
      <g transform="translate(42.734375 132.291305)scale(0.1 -0.1)">
       <use xlink:href="#DejaVuSans-30"/>
       <use x="63.623047" xlink:href="#DejaVuSans-2e"/>
       <use x="95.410156" xlink:href="#DejaVuSans-39"/>
       <use x="159.033203" xlink:href="#DejaVuSans-37"/>
      </g>
     </g>
    </g>
    <g id="ytick_6">
     <g id="line2d_26">
      <g>
       <use style="stroke:#000000;stroke-width:0.8;" x="72" xlink:href="#m77b79982b8" y="113.444455"/>
      </g>
     </g>
     <g id="text_7">
      <!-- 2.16 -->
      <defs>
       <path d="M 19.1875 8.296875 
L 53.609375 8.296875 
L 53.609375 0 
L 7.328125 0 
L 7.328125 8.296875 
Q 12.9375 14.109375 22.625 23.890625 
Q 32.328125 33.6875 34.8125 36.53125 
Q 39.546875 41.84375 41.421875 45.53125 
Q 43.3125 49.21875 43.3125 52.78125 
Q 43.3125 58.59375 39.234375 62.25 
Q 35.15625 65.921875 28.609375 65.921875 
Q 23.96875 65.921875 18.8125 64.3125 
Q 13.671875 62.703125 7.8125 59.421875 
L 7.8125 69.390625 
Q 13.765625 71.78125 18.9375 73 
Q 24.125 74.21875 28.421875 74.21875 
Q 39.75 74.21875 46.484375 68.546875 
Q 53.21875 62.890625 53.21875 53.421875 
Q 53.21875 48.921875 51.53125 44.890625 
Q 49.859375 40.875 45.40625 35.40625 
Q 44.1875 33.984375 37.640625 27.21875 
Q 31.109375 20.453125 19.1875 8.296875 
z
" id="DejaVuSans-32"/>
      </defs>
      <g transform="translate(42.734375 117.243674)scale(0.1 -0.1)">
       <use xlink:href="#DejaVuSans-32"/>
       <use x="63.623047" xlink:href="#DejaVuSans-2e"/>
       <use x="95.410156" xlink:href="#DejaVuSans-31"/>
       <use x="159.033203" xlink:href="#DejaVuSans-36"/>
      </g>
     </g>
    </g>
    <g id="ytick_7">
     <g id="line2d_27">
      <g>
       <use style="stroke:#000000;stroke-width:0.8;" x="72" xlink:href="#m77b79982b8" y="98.396825"/>
      </g>
     </g>
     <g id="text_8">
      <!-- 3.35 -->
      <g transform="translate(42.734375 102.196043)scale(0.1 -0.1)">
       <use xlink:href="#DejaVuSans-33"/>
       <use x="63.623047" xlink:href="#DejaVuSans-2e"/>
       <use x="95.410156" xlink:href="#DejaVuSans-33"/>
       <use x="159.033203" xlink:href="#DejaVuSans-35"/>
      </g>
     </g>
    </g>
    <g id="ytick_8">
     <g id="line2d_28">
      <g>
       <use style="stroke:#000000;stroke-width:0.8;" x="72" xlink:href="#m77b79982b8" y="83.349194"/>
      </g>
     </g>
     <g id="text_9">
      <!-- 4.54 -->
      <defs>
       <path d="M 37.796875 64.3125 
L 12.890625 25.390625 
L 37.796875 25.390625 
z
M 35.203125 72.90625 
L 47.609375 72.90625 
L 47.609375 25.390625 
L 58.015625 25.390625 
L 58.015625 17.1875 
L 47.609375 17.1875 
L 47.609375 0 
L 37.796875 0 
L 37.796875 17.1875 
L 4.890625 17.1875 
L 4.890625 26.703125 
z
" id="DejaVuSans-34"/>
      </defs>
      <g transform="translate(42.734375 87.148413)scale(0.1 -0.1)">
       <use xlink:href="#DejaVuSans-34"/>
       <use x="63.623047" xlink:href="#DejaVuSans-2e"/>
       <use x="95.410156" xlink:href="#DejaVuSans-35"/>
       <use x="159.033203" xlink:href="#DejaVuSans-34"/>
      </g>
     </g>
    </g>
    <g id="text_10">
     <!-- $s_{25}$ -->
     <g transform="translate(36.654688 113.12064)rotate(-90)scale(0.1 -0.1)">
      <use xlink:href="#DejaVuSans-Oblique-73"/>
      <use transform="translate(52.099609 -16.40625)scale(0.7)" xlink:href="#DejaVuSans-32"/>
      <use transform="translate(96.635742 -16.40625)scale(0.7)" xlink:href="#DejaVuSans-35"/>
     </g>
    </g>
   </g>
   <g id="line2d_29">
    <path clip-path="url(#p1a21963249)" d="M 92.290909 110.052433 
L 97.427848 110.412796 
L 102.564787 111.202269 
L 107.701726 112.350812 
L 112.838665 113.658386 
L 117.975604 115.375536 
L 123.112543 117.416906 
L 128.249482 119.73263 
L 133.386421 121.87125 
L 138.52336 124.059548 
L 143.660299 125.734157 
L 148.797238 126.889397 
L 153.934177 126.881587 
L 159.071116 126.551666 
L 164.208055 126.598318 
L 169.344994 126.619493 
L 174.481933 126.668864 
L 179.618872 126.643501 
L 184.755811 126.551856 
L 189.89275 126.413202 
L 195.029689 126.243034 
L 200.166628 126.000321 
L 205.303567 125.755333 
L 210.440506 125.505644 
L 215.577445 125.260889 
L 220.714384 124.953242 
L 225.851323 124.63691 
L 230.988262 124.267131 
L 236.125201 123.850415 
L 241.26214 123.401001 
L 246.399079 123.014929 
L 251.536018 122.725878 
L 256.672957 122.432171 
L 261.809896 122.071595 
L 266.946835 121.628873 
L 272.083774 121.160613 
L 277.220713 120.660441 
L 282.357652 120.098491 
L 287.494591 119.543265 
L 292.63153 118.94514 
L 297.76847 118.216244 
L 302.905409 117.09075 
L 308.042348 116.008912 
L 313.179287 114.957952 
L 318.316226 114.421423 
L 323.453165 113.701281 
L 328.590104 111.93691 
L 333.727043 109.304072 
L 338.863982 105.962769 
L 344.000921 102.137985 
L 349.13786 97.66318 
L 354.274799 92.771882 
L 359.411738 88.265053 
L 364.548677 86.012463 
L 369.685616 84.565913 
L 374.822555 83.703508 
L 379.959494 83.349194 
L 385.096433 83.493453 
L 390.233372 84.313116 
L 395.370311 86.82141 
L 400.50725 91.458533 
L 405.644189 96.899196 
L 410.781128 102.177032 
L 415.918067 106.670861 
L 421.055006 109.742165 
L 426.191945 112.670199 
L 431.328884 114.919734 
L 436.465823 116.557526 
L 441.602762 117.64715 
L 446.739701 118.522282 
L 451.87664 119.214992 
L 457.013579 119.218525 
L 462.150518 119.257851 
L 467.287457 119.288598 
L 472.424396 119.345078 
L 477.561335 119.38106 
L 482.698274 119.234874 
L 487.835213 119.159963 
L 492.972152 119.123553 
L 498.109091 119.165282 
" style="fill:none;stroke:#1f77b4;stroke-linecap:square;stroke-width:1.5;"/>
   </g>
   <g id="line2d_30">
    <path clip-path="url(#p1a21963249)" d="M 92.290909 110.337356 
L 97.427848 110.744745 
L 102.564787 111.603028 
L 107.701726 112.925598 
L 112.838665 114.65041 
L 117.975604 116.643037 
L 123.112543 118.726112 
L 128.249482 120.725575 
L 133.386421 122.51143 
L 138.52336 124.01546 
L 143.660299 125.225064 
L 148.797238 126.164485 
L 153.934177 126.875326 
L 159.071116 127.402561 
L 164.208055 127.786886 
L 169.344994 128.061748 
L 174.481933 128.253041 
L 179.618872 128.379986 
L 184.755811 128.456355 
L 189.89275 128.491647 
L 195.029689 128.492086 
L 200.166628 128.461427 
L 205.303567 128.401637 
L 210.440506 128.313489 
L 215.577445 128.197161 
L 220.714384 128.05285 
L 225.851323 127.881424 
L 230.988262 127.685028 
L 236.125201 127.467536 
L 241.26214 127.234653 
L 246.399079 126.993507 
L 251.536018 126.751682 
L 256.672957 126.515816 
L 261.809896 126.290107 
L 266.946835 126.075086 
L 272.083774 125.866951 
L 277.220713 125.657491 
L 282.357652 125.434339 
L 287.494591 125.181205 
L 292.63153 124.87766 
L 297.76847 124.498188 
L 302.905409 124.010265 
L 308.042348 123.371347 
L 313.179287 122.524734 
L 318.316226 121.394586 
L 323.453165 119.88118 
L 328.590104 117.859377 
L 333.727043 115.186987 
L 338.863982 111.735083 
L 344.000921 107.455461 
L 349.13786 102.487212 
L 354.274799 97.25396 
L 359.411738 92.429068 
L 364.548677 88.670027 
L 369.685616 86.269578 
L 374.822555 85.091758 
L 379.959494 84.907689 
L 385.096433 85.765148 
L 390.233372 87.981052 
L 395.370311 91.754661 
L 400.50725 96.809258 
L 405.644189 102.444067 
L 410.781128 107.903327 
L 415.918067 112.679893 
L 421.055006 116.574806 
L 426.191945 119.603803 
L 431.328884 121.883675 
L 436.465823 123.556608 
L 441.602762 124.754093 
L 446.739701 125.585285 
L 451.87664 126.136922 
L 457.013579 126.477346 
L 462.150518 126.661148 
L 467.287457 126.733119 
L 472.424396 126.73102 
L 477.561335 126.687183 
L 482.698274 126.629036 
L 487.835213 126.578816 
L 492.972152 126.552874 
L 498.109091 126.561041 
" style="fill:none;stroke:#ff7f0e;stroke-linecap:square;stroke-width:1.5;"/>
   </g>
   <g id="patch_8">
    <path d="M 72 135.26352 
L 72 76.57776 
" style="fill:none;stroke:#000000;stroke-linecap:square;stroke-linejoin:miter;stroke-width:0.8;"/>
   </g>
   <g id="patch_9">
    <path d="M 518.4 135.26352 
L 518.4 76.57776 
" style="fill:none;stroke:#000000;stroke-linecap:square;stroke-linejoin:miter;stroke-width:0.8;"/>
   </g>
   <g id="patch_10">
    <path d="M 72 135.26352 
L 518.4 135.26352 
" style="fill:none;stroke:#000000;stroke-linecap:square;stroke-linejoin:miter;stroke-width:0.8;"/>
   </g>
   <g id="patch_11">
    <path d="M 72 76.57776 
L 518.4 76.57776 
" style="fill:none;stroke:#000000;stroke-linecap:square;stroke-linejoin:miter;stroke-width:0.8;"/>
   </g>
  </g>
  <g id="axes_3">
   <g id="patch_12">
    <path d="M 72 193.94928 
L 518.4 193.94928 
L 518.4 135.26352 
L 72 135.26352 
z
" style="fill:#ffffff;"/>
   </g>
   <g id="matplotlib.axis_5">
    <g id="xtick_19">
     <g id="line2d_31">
      <g>
       <use style="stroke:#000000;stroke-width:0.8;" x="92.290909" xlink:href="#m2eddf8f82d" y="193.94928"/>
      </g>
     </g>
    </g>
    <g id="xtick_20">
     <g id="line2d_32">
      <g>
       <use style="stroke:#000000;stroke-width:0.8;" x="143.660299" xlink:href="#m2eddf8f82d" y="193.94928"/>
      </g>
     </g>
    </g>
    <g id="xtick_21">
     <g id="line2d_33">
      <g>
       <use style="stroke:#000000;stroke-width:0.8;" x="195.029689" xlink:href="#m2eddf8f82d" y="193.94928"/>
      </g>
     </g>
    </g>
    <g id="xtick_22">
     <g id="line2d_34">
      <g>
       <use style="stroke:#000000;stroke-width:0.8;" x="246.399079" xlink:href="#m2eddf8f82d" y="193.94928"/>
      </g>
     </g>
    </g>
    <g id="xtick_23">
     <g id="line2d_35">
      <g>
       <use style="stroke:#000000;stroke-width:0.8;" x="297.76847" xlink:href="#m2eddf8f82d" y="193.94928"/>
      </g>
     </g>
    </g>
    <g id="xtick_24">
     <g id="line2d_36">
      <g>
       <use style="stroke:#000000;stroke-width:0.8;" x="349.13786" xlink:href="#m2eddf8f82d" y="193.94928"/>
      </g>
     </g>
    </g>
    <g id="xtick_25">
     <g id="line2d_37">
      <g>
       <use style="stroke:#000000;stroke-width:0.8;" x="400.50725" xlink:href="#m2eddf8f82d" y="193.94928"/>
      </g>
     </g>
    </g>
    <g id="xtick_26">
     <g id="line2d_38">
      <g>
       <use style="stroke:#000000;stroke-width:0.8;" x="451.87664" xlink:href="#m2eddf8f82d" y="193.94928"/>
      </g>
     </g>
    </g>
    <g id="xtick_27">
     <g id="line2d_39">
      <g>
       <use style="stroke:#000000;stroke-width:0.8;" x="503.24603" xlink:href="#m2eddf8f82d" y="193.94928"/>
      </g>
     </g>
    </g>
   </g>
   <g id="matplotlib.axis_6">
    <g id="ytick_9">
     <g id="line2d_40">
      <g>
       <use style="stroke:#000000;stroke-width:0.8;" x="72" xlink:href="#m77b79982b8" y="187.177846"/>
      </g>
     </g>
     <g id="text_11">
      <!-- 0.68 -->
      <defs>
       <path d="M 31.78125 34.625 
Q 24.75 34.625 20.71875 30.859375 
Q 16.703125 27.09375 16.703125 20.515625 
Q 16.703125 13.921875 20.71875 10.15625 
Q 24.75 6.390625 31.78125 6.390625 
Q 38.8125 6.390625 42.859375 10.171875 
Q 46.921875 13.96875 46.921875 20.515625 
Q 46.921875 27.09375 42.890625 30.859375 
Q 38.875 34.625 31.78125 34.625 
z
M 21.921875 38.8125 
Q 15.578125 40.375 12.03125 44.71875 
Q 8.5 49.078125 8.5 55.328125 
Q 8.5 64.0625 14.71875 69.140625 
Q 20.953125 74.21875 31.78125 74.21875 
Q 42.671875 74.21875 48.875 69.140625 
Q 55.078125 64.0625 55.078125 55.328125 
Q 55.078125 49.078125 51.53125 44.71875 
Q 48 40.375 41.703125 38.8125 
Q 48.828125 37.15625 52.796875 32.3125 
Q 56.78125 27.484375 56.78125 20.515625 
Q 56.78125 9.90625 50.3125 4.234375 
Q 43.84375 -1.421875 31.78125 -1.421875 
Q 19.734375 -1.421875 13.25 4.234375 
Q 6.78125 9.90625 6.78125 20.515625 
Q 6.78125 27.484375 10.78125 32.3125 
Q 14.796875 37.15625 21.921875 38.8125 
z
M 18.3125 54.390625 
Q 18.3125 48.734375 21.84375 45.5625 
Q 25.390625 42.390625 31.78125 42.390625 
Q 38.140625 42.390625 41.71875 45.5625 
Q 45.3125 48.734375 45.3125 54.390625 
Q 45.3125 60.0625 41.71875 63.234375 
Q 38.140625 66.40625 31.78125 66.40625 
Q 25.390625 66.40625 21.84375 63.234375 
Q 18.3125 60.0625 18.3125 54.390625 
z
" id="DejaVuSans-38"/>
      </defs>
      <g transform="translate(42.734375 190.977065)scale(0.1 -0.1)">
       <use xlink:href="#DejaVuSans-30"/>
       <use x="63.623047" xlink:href="#DejaVuSans-2e"/>
       <use x="95.410156" xlink:href="#DejaVuSans-36"/>
       <use x="159.033203" xlink:href="#DejaVuSans-38"/>
      </g>
     </g>
    </g>
    <g id="ytick_10">
     <g id="line2d_41">
      <g>
       <use style="stroke:#000000;stroke-width:0.8;" x="72" xlink:href="#m77b79982b8" y="172.130215"/>
      </g>
     </g>
     <g id="text_12">
      <!-- 0.77 -->
      <g transform="translate(42.734375 175.929434)scale(0.1 -0.1)">
       <use xlink:href="#DejaVuSans-30"/>
       <use x="63.623047" xlink:href="#DejaVuSans-2e"/>
       <use x="95.410156" xlink:href="#DejaVuSans-37"/>
       <use x="159.033203" xlink:href="#DejaVuSans-37"/>
      </g>
     </g>
    </g>
    <g id="ytick_11">
     <g id="line2d_42">
      <g>
       <use style="stroke:#000000;stroke-width:0.8;" x="72" xlink:href="#m77b79982b8" y="157.082585"/>
      </g>
     </g>
     <g id="text_13">
      <!-- 0.86 -->
      <g transform="translate(42.734375 160.881803)scale(0.1 -0.1)">
       <use xlink:href="#DejaVuSans-30"/>
       <use x="63.623047" xlink:href="#DejaVuSans-2e"/>
       <use x="95.410156" xlink:href="#DejaVuSans-38"/>
       <use x="159.033203" xlink:href="#DejaVuSans-36"/>
      </g>
     </g>
    </g>
    <g id="ytick_12">
     <g id="line2d_43">
      <g>
       <use style="stroke:#000000;stroke-width:0.8;" x="72" xlink:href="#m77b79982b8" y="142.034954"/>
      </g>
     </g>
     <g id="text_14">
      <!-- 0.95 -->
      <g transform="translate(42.734375 145.834173)scale(0.1 -0.1)">
       <use xlink:href="#DejaVuSans-30"/>
       <use x="63.623047" xlink:href="#DejaVuSans-2e"/>
       <use x="95.410156" xlink:href="#DejaVuSans-39"/>
       <use x="159.033203" xlink:href="#DejaVuSans-35"/>
      </g>
     </g>
    </g>
    <g id="text_15">
     <!-- $s_{50}$ -->
     <g transform="translate(36.654688 171.8064)rotate(-90)scale(0.1 -0.1)">
      <use xlink:href="#DejaVuSans-Oblique-73"/>
      <use transform="translate(52.099609 -16.40625)scale(0.7)" xlink:href="#DejaVuSans-35"/>
      <use transform="translate(96.635742 -16.40625)scale(0.7)" xlink:href="#DejaVuSans-30"/>
     </g>
    </g>
   </g>
   <g id="line2d_44">
    <path clip-path="url(#pbd2b89a188)" d="M 92.290909 142.034954 
L 97.427848 142.134144 
L 102.564787 142.309281 
L 107.701726 142.481431 
L 112.838665 142.814438 
L 117.975604 143.554434 
L 123.112543 144.940148 
L 128.249482 146.67677 
L 133.386421 148.602402 
L 138.52336 151.304183 
L 143.660299 154.833979 
L 148.797238 157.921757 
L 153.934177 159.499938 
L 159.071116 161.254749 
L 164.208055 163.960704 
L 169.344994 166.442233 
L 174.481933 168.650744 
L 179.618872 170.40889 
L 184.755811 171.700385 
L 189.89275 172.433671 
L 195.029689 172.781654 
L 200.166628 172.561771 
L 205.303567 171.89944 
L 210.440506 170.912963 
L 215.577445 169.626542 
L 220.714384 168.129526 
L 225.851323 166.748334 
L 230.988262 165.268935 
L 236.125201 163.663666 
L 241.26214 162.403597 
L 246.399079 161.359279 
L 251.536018 160.572818 
L 256.672957 159.793395 
L 261.809896 158.709037 
L 266.946835 157.644013 
L 272.083774 156.770618 
L 277.220713 156.343986 
L 282.357652 156.063255 
L 287.494591 155.817387 
L 292.63153 155.67026 
L 297.76847 155.48434 
L 302.905409 155.427952 
L 308.042348 155.447082 
L 313.179287 154.427991 
L 318.316226 152.486237 
L 323.453165 150.344119 
L 328.590104 148.571303 
L 333.727043 147.994004 
L 338.863982 148.395163 
L 344.000921 148.612325 
L 349.13786 149.110239 
L 354.274799 149.657789 
L 359.411738 150.488546 
L 364.548677 151.18707 
L 369.685616 151.736134 
L 374.822555 151.828858 
L 379.959494 151.673137 
L 385.096433 151.460374 
L 390.233372 150.889091 
L 395.370311 150.401816 
L 400.50725 150.189871 
L 405.644189 149.403942 
L 410.781128 148.783984 
L 415.918067 147.624476 
L 421.055006 147.098655 
L 426.191945 147.298467 
L 431.328884 149.285867 
L 436.465823 151.475473 
L 441.602762 152.986115 
L 446.739701 154.043569 
L 451.87664 154.774686 
L 457.013579 155.223066 
L 462.150518 155.765419 
L 467.287457 156.239211 
L 472.424396 156.645669 
L 477.561335 157.128545 
L 482.698274 157.632433 
L 487.835213 158.232565 
L 492.972152 158.949687 
L 498.109091 159.942958 
" style="fill:none;stroke:#1f77b4;stroke-linecap:square;stroke-width:1.5;"/>
   </g>
   <g id="line2d_45">
    <path clip-path="url(#pbd2b89a188)" d="M 92.290909 155.275883 
L 97.427848 155.374736 
L 102.564787 155.601872 
L 107.701726 155.996443 
L 112.838665 156.604646 
L 117.975604 157.478298 
L 123.112543 158.669375 
L 128.249482 160.220671 
L 133.386421 162.15373 
L 138.52336 164.457462 
L 143.660299 167.081167 
L 148.797238 169.935467 
L 153.934177 172.901233 
L 159.071116 175.84439 
L 164.208055 178.631867 
L 169.344994 181.145028 
L 174.481933 183.288282 
L 179.618872 184.992864 
L 184.755811 186.216902 
L 189.89275 186.943477 
L 195.029689 187.177846 
L 200.166628 186.944725 
L 205.303567 186.285883 
L 210.440506 185.2578 
L 215.577445 183.929017 
L 220.714384 182.376851 
L 225.851323 180.683093 
L 230.988262 178.928813 
L 236.125201 177.188805 
L 241.26214 175.526237 
L 246.399079 173.988414 
L 251.536018 172.604123 
L 256.672957 171.382877 
L 261.809896 170.315716 
L 266.946835 169.377329 
L 272.083774 168.529161 
L 277.220713 167.723048 
L 282.357652 166.9056 
L 287.494591 166.022967 
L 292.63153 165.026157 
L 297.76847 163.876541 
L 302.905409 162.551359 
L 308.042348 161.048615 
L 313.179287 159.390845 
L 318.316226 157.626469 
L 323.453165 155.827842 
L 328.590104 154.084693 
L 333.727043 152.493009 
L 338.863982 151.140247 
L 344.000921 150.089903 
L 349.13786 149.369262 
L 354.274799 148.963694 
L 359.411738 148.819308 
L 364.548677 148.85364 
L 369.685616 148.972502 
L 374.822555 149.089871 
L 379.959494 149.146934 
L 385.096433 149.125737 
L 390.233372 149.053708 
L 395.370311 148.997146 
L 400.50725 149.045125 
L 405.644189 149.28775 
L 410.781128 149.794666 
L 415.918067 150.599255 
L 421.055006 151.692032 
L 426.191945 153.023966 
L 431.328884 154.5178 
L 436.465823 156.083531 
L 441.602762 157.633793 
L 446.739701 159.096047 
L 451.87664 160.419961 
L 457.013579 161.580226 
L 462.150518 162.575758 
L 467.287457 163.426361 
L 472.424396 164.168076 
L 477.561335 164.847848 
L 482.698274 165.518158 
L 487.835213 166.231822 
L 492.972152 167.037342 
L 498.109091 167.974552 
" style="fill:none;stroke:#ff7f0e;stroke-linecap:square;stroke-width:1.5;"/>
   </g>
   <g id="patch_13">
    <path d="M 72 193.94928 
L 72 135.26352 
" style="fill:none;stroke:#000000;stroke-linecap:square;stroke-linejoin:miter;stroke-width:0.8;"/>
   </g>
   <g id="patch_14">
    <path d="M 518.4 193.94928 
L 518.4 135.26352 
" style="fill:none;stroke:#000000;stroke-linecap:square;stroke-linejoin:miter;stroke-width:0.8;"/>
   </g>
   <g id="patch_15">
    <path d="M 72 193.94928 
L 518.4 193.94928 
" style="fill:none;stroke:#000000;stroke-linecap:square;stroke-linejoin:miter;stroke-width:0.8;"/>
   </g>
   <g id="patch_16">
    <path d="M 72 135.26352 
L 518.4 135.26352 
" style="fill:none;stroke:#000000;stroke-linecap:square;stroke-linejoin:miter;stroke-width:0.8;"/>
   </g>
  </g>
  <g id="axes_4">
   <g id="patch_17">
    <path d="M 72 252.63504 
L 518.4 252.63504 
L 518.4 193.94928 
L 72 193.94928 
z
" style="fill:#ffffff;"/>
   </g>
   <g id="matplotlib.axis_7">
    <g id="xtick_28">
     <g id="line2d_46">
      <g>
       <use style="stroke:#000000;stroke-width:0.8;" x="92.290909" xlink:href="#m2eddf8f82d" y="252.63504"/>
      </g>
     </g>
    </g>
    <g id="xtick_29">
     <g id="line2d_47">
      <g>
       <use style="stroke:#000000;stroke-width:0.8;" x="143.660299" xlink:href="#m2eddf8f82d" y="252.63504"/>
      </g>
     </g>
    </g>
    <g id="xtick_30">
     <g id="line2d_48">
      <g>
       <use style="stroke:#000000;stroke-width:0.8;" x="195.029689" xlink:href="#m2eddf8f82d" y="252.63504"/>
      </g>
     </g>
    </g>
    <g id="xtick_31">
     <g id="line2d_49">
      <g>
       <use style="stroke:#000000;stroke-width:0.8;" x="246.399079" xlink:href="#m2eddf8f82d" y="252.63504"/>
      </g>
     </g>
    </g>
    <g id="xtick_32">
     <g id="line2d_50">
      <g>
       <use style="stroke:#000000;stroke-width:0.8;" x="297.76847" xlink:href="#m2eddf8f82d" y="252.63504"/>
      </g>
     </g>
    </g>
    <g id="xtick_33">
     <g id="line2d_51">
      <g>
       <use style="stroke:#000000;stroke-width:0.8;" x="349.13786" xlink:href="#m2eddf8f82d" y="252.63504"/>
      </g>
     </g>
    </g>
    <g id="xtick_34">
     <g id="line2d_52">
      <g>
       <use style="stroke:#000000;stroke-width:0.8;" x="400.50725" xlink:href="#m2eddf8f82d" y="252.63504"/>
      </g>
     </g>
    </g>
    <g id="xtick_35">
     <g id="line2d_53">
      <g>
       <use style="stroke:#000000;stroke-width:0.8;" x="451.87664" xlink:href="#m2eddf8f82d" y="252.63504"/>
      </g>
     </g>
    </g>
    <g id="xtick_36">
     <g id="line2d_54">
      <g>
       <use style="stroke:#000000;stroke-width:0.8;" x="503.24603" xlink:href="#m2eddf8f82d" y="252.63504"/>
      </g>
     </g>
    </g>
   </g>
   <g id="matplotlib.axis_8">
    <g id="ytick_13">
     <g id="line2d_55">
      <g>
       <use style="stroke:#000000;stroke-width:0.8;" x="72" xlink:href="#m77b79982b8" y="245.863606"/>
      </g>
     </g>
     <g id="text_16">
      <!-- 3.37 -->
      <g transform="translate(42.734375 249.662825)scale(0.1 -0.1)">
       <use xlink:href="#DejaVuSans-33"/>
       <use x="63.623047" xlink:href="#DejaVuSans-2e"/>
       <use x="95.410156" xlink:href="#DejaVuSans-33"/>
       <use x="159.033203" xlink:href="#DejaVuSans-37"/>
      </g>
     </g>
    </g>
    <g id="ytick_14">
     <g id="line2d_56">
      <g>
       <use style="stroke:#000000;stroke-width:0.8;" x="72" xlink:href="#m77b79982b8" y="230.815975"/>
      </g>
     </g>
     <g id="text_17">
      <!-- 4.16 -->
      <g transform="translate(42.734375 234.615194)scale(0.1 -0.1)">
       <use xlink:href="#DejaVuSans-34"/>
       <use x="63.623047" xlink:href="#DejaVuSans-2e"/>
       <use x="95.410156" xlink:href="#DejaVuSans-31"/>
       <use x="159.033203" xlink:href="#DejaVuSans-36"/>
      </g>
     </g>
    </g>
    <g id="ytick_15">
     <g id="line2d_57">
      <g>
       <use style="stroke:#000000;stroke-width:0.8;" x="72" xlink:href="#m77b79982b8" y="215.768345"/>
      </g>
     </g>
     <g id="text_18">
      <!-- 4.96 -->
      <g transform="translate(42.734375 219.567563)scale(0.1 -0.1)">
       <use xlink:href="#DejaVuSans-34"/>
       <use x="63.623047" xlink:href="#DejaVuSans-2e"/>
       <use x="95.410156" xlink:href="#DejaVuSans-39"/>
       <use x="159.033203" xlink:href="#DejaVuSans-36"/>
      </g>
     </g>
    </g>
    <g id="ytick_16">
     <g id="line2d_58">
      <g>
       <use style="stroke:#000000;stroke-width:0.8;" x="72" xlink:href="#m77b79982b8" y="200.720714"/>
      </g>
     </g>
     <g id="text_19">
      <!-- 5.75 -->
      <g transform="translate(42.734375 204.519933)scale(0.1 -0.1)">
       <use xlink:href="#DejaVuSans-35"/>
       <use x="63.623047" xlink:href="#DejaVuSans-2e"/>
       <use x="95.410156" xlink:href="#DejaVuSans-37"/>
       <use x="159.033203" xlink:href="#DejaVuSans-35"/>
      </g>
     </g>
    </g>
    <g id="text_20">
     <!-- $s_{75}$ -->
     <g transform="translate(36.654688 230.49216)rotate(-90)scale(0.1 -0.1)">
      <use xlink:href="#DejaVuSans-Oblique-73"/>
      <use transform="translate(52.099609 -16.40625)scale(0.7)" xlink:href="#DejaVuSans-37"/>
      <use transform="translate(96.635742 -16.40625)scale(0.7)" xlink:href="#DejaVuSans-35"/>
     </g>
    </g>
   </g>
   <g id="line2d_59">
    <path clip-path="url(#p9a188fda96)" d="M 92.290909 245.863606 
L 97.427848 245.608328 
L 102.564787 245.134926 
L 107.701726 244.393711 
L 112.838665 243.28004 
L 117.975604 241.867506 
L 123.112543 239.871127 
L 128.249482 236.96167 
L 133.386421 234.09021 
L 138.52336 231.390589 
L 143.660299 230.326816 
L 148.797238 228.443299 
L 153.934177 224.379729 
L 159.071116 221.456061 
L 164.208055 220.062295 
L 169.344994 218.827071 
L 174.481933 217.973633 
L 179.618872 217.269119 
L 184.755811 216.730774 
L 189.89275 216.281782 
L 195.029689 216.041902 
L 200.166628 215.760611 
L 205.303567 215.526972 
L 210.440506 215.288006 
L 215.577445 215.168184 
L 220.714384 215.031207 
L 225.851323 214.933168 
L 230.988262 214.719373 
L 236.125201 214.104384 
L 241.26214 213.332038 
L 246.399079 212.125789 
L 251.536018 211.061102 
L 256.672957 210.204104 
L 261.809896 209.344741 
L 266.946835 208.2454 
L 272.083774 207.033355 
L 277.220713 206.054967 
L 282.357652 204.955308 
L 287.494591 204.085793 
L 292.63153 203.634917 
L 297.76847 203.349369 
L 302.905409 203.190771 
L 308.042348 203.94099 
L 313.179287 204.418404 
L 318.316226 205.314168 
L 323.453165 206.583158 
L 328.590104 209.009069 
L 333.727043 211.031909 
L 338.863982 212.992778 
L 344.000921 214.3913 
L 349.13786 215.140794 
L 354.274799 215.422873 
L 359.411738 215.97705 
L 364.548677 217.270332 
L 369.685616 218.162238 
L 374.822555 218.148054 
L 379.959494 216.895359 
L 385.096433 214.851686 
L 390.233372 212.100039 
L 395.370311 209.082734 
L 400.50725 208.220573 
L 405.644189 209.843097 
L 410.781128 209.360574 
L 415.918067 207.873759 
L 421.055006 206.097873 
L 426.191945 203.685639 
L 431.328884 202.337767 
L 436.465823 202.076747 
L 441.602762 202.059809 
L 446.739701 201.805147 
L 451.87664 201.57744 
L 457.013579 201.022792 
L 462.150518 200.866876 
L 467.287457 200.755531 
L 472.424396 200.720714 
L 477.561335 200.981272 
L 482.698274 201.288486 
L 487.835213 201.770864 
L 492.972152 202.371534 
L 498.109091 203.058522 
" style="fill:none;stroke:#1f77b4;stroke-linecap:square;stroke-width:1.5;"/>
   </g>
   <g id="line2d_60">
    <path clip-path="url(#p9a188fda96)" d="M 92.290909 243.480877 
L 97.427848 243.209776 
L 102.564787 242.642977 
L 107.701726 241.746973 
L 112.838665 240.512995 
L 117.975604 238.960771 
L 123.112543 237.138949 
L 128.249482 235.121729 
L 133.386421 233.001728 
L 138.52336 230.879789 
L 143.660299 228.853271 
L 148.797238 227.004652 
L 153.934177 225.39268 
L 159.071116 224.047689 
L 164.208055 222.971815 
L 169.344994 222.143665 
L 174.481933 221.525795 
L 179.618872 221.073235 
L 184.755811 220.741267 
L 189.89275 220.491314 
L 195.029689 220.294412 
L 200.166628 220.132219 
L 205.303567 219.995939 
L 210.440506 219.883761 
L 215.577445 219.79728 
L 220.714384 219.737998 
L 225.851323 219.704268 
L 230.988262 219.68964 
L 236.125201 219.682738 
L 241.26214 219.668735 
L 246.399079 219.631807 
L 251.536018 219.558133 
L 256.672957 219.43832 
L 261.809896 219.26898 
L 266.946835 219.052967 
L 272.083774 218.798603 
L 277.220713 218.518136 
L 282.357652 218.225949 
L 287.494591 217.937013 
L 292.63153 217.665776 
L 297.76847 217.42547 
L 302.905409 217.227508 
L 308.042348 217.080694 
L 313.179287 216.989775 
L 318.316226 216.9533 
L 323.453165 216.960945 
L 328.590104 216.991315 
L 333.727043 217.011323 
L 338.863982 216.978417 
L 344.000921 216.846656 
L 349.13786 216.575926 
L 354.274799 216.142504 
L 359.411738 215.547523 
L 364.548677 214.819604 
L 369.685616 214.009914 
L 374.822555 213.180414 
L 379.959494 212.389509 
L 385.096433 211.679968 
L 390.233372 211.072559 
L 395.370311 210.566677 
L 400.50725 210.146769 
L 405.644189 209.791949 
L 410.781128 209.485079 
L 415.918067 209.218099 
L 421.055006 208.992448 
L 426.191945 208.815599 
L 431.328884 208.696221 
L 436.465823 208.640227 
L 441.602762 208.648805 
L 446.739701 208.718638 
L 451.87664 208.843406 
L 457.013579 209.015617 
L 462.150518 209.228071 
L 467.287457 209.474572 
L 472.424396 209.74994 
L 477.561335 210.049536 
L 482.698274 210.368752 
L 487.835213 210.702749 
L 492.972152 211.046555 
L 498.109091 211.395715 
" style="fill:none;stroke:#ff7f0e;stroke-linecap:square;stroke-width:1.5;"/>
   </g>
   <g id="patch_18">
    <path d="M 72 252.63504 
L 72 193.94928 
" style="fill:none;stroke:#000000;stroke-linecap:square;stroke-linejoin:miter;stroke-width:0.8;"/>
   </g>
   <g id="patch_19">
    <path d="M 518.4 252.63504 
L 518.4 193.94928 
" style="fill:none;stroke:#000000;stroke-linecap:square;stroke-linejoin:miter;stroke-width:0.8;"/>
   </g>
   <g id="patch_20">
    <path d="M 72 252.63504 
L 518.4 252.63504 
" style="fill:none;stroke:#000000;stroke-linecap:square;stroke-linejoin:miter;stroke-width:0.8;"/>
   </g>
   <g id="patch_21">
    <path d="M 72 193.94928 
L 518.4 193.94928 
" style="fill:none;stroke:#000000;stroke-linecap:square;stroke-linejoin:miter;stroke-width:0.8;"/>
   </g>
  </g>
  <g id="axes_5">
   <g id="patch_22">
    <path d="M 72 311.3208 
L 518.4 311.3208 
L 518.4 252.63504 
L 72 252.63504 
z
" style="fill:#ffffff;"/>
   </g>
   <g id="matplotlib.axis_9">
    <g id="xtick_37">
     <g id="line2d_61">
      <g>
       <use style="stroke:#000000;stroke-width:0.8;" x="92.290909" xlink:href="#m2eddf8f82d" y="311.3208"/>
      </g>
     </g>
     <g id="text_21">
      <!-- 0 -->
      <g transform="translate(89.109659 325.919237)scale(0.1 -0.1)">
       <use xlink:href="#DejaVuSans-30"/>
      </g>
     </g>
    </g>
    <g id="xtick_38">
     <g id="line2d_62">
      <g>
       <use style="stroke:#000000;stroke-width:0.8;" x="143.660299" xlink:href="#m2eddf8f82d" y="311.3208"/>
      </g>
     </g>
     <g id="text_22">
      <!-- 10 -->
      <g transform="translate(137.297799 325.919237)scale(0.1 -0.1)">
       <use xlink:href="#DejaVuSans-31"/>
       <use x="63.623047" xlink:href="#DejaVuSans-30"/>
      </g>
     </g>
    </g>
    <g id="xtick_39">
     <g id="line2d_63">
      <g>
       <use style="stroke:#000000;stroke-width:0.8;" x="195.029689" xlink:href="#m2eddf8f82d" y="311.3208"/>
      </g>
     </g>
     <g id="text_23">
      <!-- 20 -->
      <g transform="translate(188.667189 325.919237)scale(0.1 -0.1)">
       <use xlink:href="#DejaVuSans-32"/>
       <use x="63.623047" xlink:href="#DejaVuSans-30"/>
      </g>
     </g>
    </g>
    <g id="xtick_40">
     <g id="line2d_64">
      <g>
       <use style="stroke:#000000;stroke-width:0.8;" x="246.399079" xlink:href="#m2eddf8f82d" y="311.3208"/>
      </g>
     </g>
     <g id="text_24">
      <!-- 30 -->
      <g transform="translate(240.036579 325.919237)scale(0.1 -0.1)">
       <use xlink:href="#DejaVuSans-33"/>
       <use x="63.623047" xlink:href="#DejaVuSans-30"/>
      </g>
     </g>
    </g>
    <g id="xtick_41">
     <g id="line2d_65">
      <g>
       <use style="stroke:#000000;stroke-width:0.8;" x="297.76847" xlink:href="#m2eddf8f82d" y="311.3208"/>
      </g>
     </g>
     <g id="text_25">
      <!-- 40 -->
      <g transform="translate(291.40597 325.919237)scale(0.1 -0.1)">
       <use xlink:href="#DejaVuSans-34"/>
       <use x="63.623047" xlink:href="#DejaVuSans-30"/>
      </g>
     </g>
    </g>
    <g id="xtick_42">
     <g id="line2d_66">
      <g>
       <use style="stroke:#000000;stroke-width:0.8;" x="349.13786" xlink:href="#m2eddf8f82d" y="311.3208"/>
      </g>
     </g>
     <g id="text_26">
      <!-- 50 -->
      <g transform="translate(342.77536 325.919237)scale(0.1 -0.1)">
       <use xlink:href="#DejaVuSans-35"/>
       <use x="63.623047" xlink:href="#DejaVuSans-30"/>
      </g>
     </g>
    </g>
    <g id="xtick_43">
     <g id="line2d_67">
      <g>
       <use style="stroke:#000000;stroke-width:0.8;" x="400.50725" xlink:href="#m2eddf8f82d" y="311.3208"/>
      </g>
     </g>
     <g id="text_27">
      <!-- 60 -->
      <g transform="translate(394.14475 325.919237)scale(0.1 -0.1)">
       <use xlink:href="#DejaVuSans-36"/>
       <use x="63.623047" xlink:href="#DejaVuSans-30"/>
      </g>
     </g>
    </g>
    <g id="xtick_44">
     <g id="line2d_68">
      <g>
       <use style="stroke:#000000;stroke-width:0.8;" x="451.87664" xlink:href="#m2eddf8f82d" y="311.3208"/>
      </g>
     </g>
     <g id="text_28">
      <!-- 70 -->
      <g transform="translate(445.51414 325.919237)scale(0.1 -0.1)">
       <use xlink:href="#DejaVuSans-37"/>
       <use x="63.623047" xlink:href="#DejaVuSans-30"/>
      </g>
     </g>
    </g>
    <g id="xtick_45">
     <g id="line2d_69">
      <g>
       <use style="stroke:#000000;stroke-width:0.8;" x="503.24603" xlink:href="#m2eddf8f82d" y="311.3208"/>
      </g>
     </g>
     <g id="text_29">
      <!-- 80 -->
      <g transform="translate(496.88353 325.919237)scale(0.1 -0.1)">
       <use xlink:href="#DejaVuSans-38"/>
       <use x="63.623047" xlink:href="#DejaVuSans-30"/>
      </g>
     </g>
    </g>
   </g>
   <g id="matplotlib.axis_10">
    <g id="ytick_17">
     <g id="line2d_70">
      <g>
       <use style="stroke:#000000;stroke-width:0.8;" x="72" xlink:href="#m77b79982b8" y="304.549366"/>
      </g>
     </g>
     <g id="text_30">
      <!-- -10.45 -->
      <g transform="translate(32.764063 308.348585)scale(0.1 -0.1)">
       <use xlink:href="#DejaVuSans-2d"/>
       <use x="36.083984" xlink:href="#DejaVuSans-31"/>
       <use x="99.707031" xlink:href="#DejaVuSans-30"/>
       <use x="163.330078" xlink:href="#DejaVuSans-2e"/>
       <use x="195.117188" xlink:href="#DejaVuSans-34"/>
       <use x="258.740234" xlink:href="#DejaVuSans-35"/>
      </g>
     </g>
    </g>
    <g id="ytick_18">
     <g id="line2d_71">
      <g>
       <use style="stroke:#000000;stroke-width:0.8;" x="72" xlink:href="#m77b79982b8" y="289.501735"/>
      </g>
     </g>
     <g id="text_31">
      <!-- -9.45 -->
      <g transform="translate(39.126562 293.300954)scale(0.1 -0.1)">
       <use xlink:href="#DejaVuSans-2d"/>
       <use x="36.083984" xlink:href="#DejaVuSans-39"/>
       <use x="99.707031" xlink:href="#DejaVuSans-2e"/>
       <use x="131.494141" xlink:href="#DejaVuSans-34"/>
       <use x="195.117188" xlink:href="#DejaVuSans-35"/>
      </g>
     </g>
    </g>
    <g id="ytick_19">
     <g id="line2d_72">
      <g>
       <use style="stroke:#000000;stroke-width:0.8;" x="72" xlink:href="#m77b79982b8" y="274.454105"/>
      </g>
     </g>
     <g id="text_32">
      <!-- -8.44 -->
      <g transform="translate(39.126562 278.253323)scale(0.1 -0.1)">
       <use xlink:href="#DejaVuSans-2d"/>
       <use x="36.083984" xlink:href="#DejaVuSans-38"/>
       <use x="99.707031" xlink:href="#DejaVuSans-2e"/>
       <use x="131.494141" xlink:href="#DejaVuSans-34"/>
       <use x="195.117188" xlink:href="#DejaVuSans-34"/>
      </g>
     </g>
    </g>
    <g id="ytick_20">
     <g id="line2d_73">
      <g>
       <use style="stroke:#000000;stroke-width:0.8;" x="72" xlink:href="#m77b79982b8" y="259.406474"/>
      </g>
     </g>
     <g id="text_33">
      <!-- -7.44 -->
      <g transform="translate(39.126562 263.205693)scale(0.1 -0.1)">
       <use xlink:href="#DejaVuSans-2d"/>
       <use x="36.083984" xlink:href="#DejaVuSans-37"/>
       <use x="99.707031" xlink:href="#DejaVuSans-2e"/>
       <use x="131.494141" xlink:href="#DejaVuSans-34"/>
       <use x="195.117188" xlink:href="#DejaVuSans-34"/>
      </g>
     </g>
    </g>
    <g id="text_34">
     <!-- $s_{92}$ -->
     <g transform="translate(26.684375 289.17792)rotate(-90)scale(0.1 -0.1)">
      <use xlink:href="#DejaVuSans-Oblique-73"/>
      <use transform="translate(52.099609 -16.40625)scale(0.7)" xlink:href="#DejaVuSans-39"/>
      <use transform="translate(96.624805 -16.40625)scale(0.7)" xlink:href="#DejaVuSans-32"/>
     </g>
    </g>
   </g>
   <g id="line2d_74">
    <path clip-path="url(#pcd312d99df)" d="M 92.290909 294.112073 
L 97.427848 293.83412 
L 102.564787 293.275339 
L 107.701726 292.390505 
L 112.838665 291.249916 
L 117.975604 290.092034 
L 123.112543 289.028764 
L 128.249482 287.644132 
L 133.386421 285.237363 
L 138.52336 282.741119 
L 143.660299 280.21431 
L 148.797238 277.817882 
L 153.934177 275.607628 
L 159.071116 273.427739 
L 164.208055 271.028465 
L 169.344994 268.101059 
L 174.481933 265.500421 
L 179.618872 263.297627 
L 184.755811 261.417516 
L 189.89275 260.083701 
L 195.029689 259.406474 
L 200.166628 259.445498 
L 205.303567 260.047616 
L 210.440506 260.852849 
L 215.577445 261.813493 
L 220.714384 263.172809 
L 225.851323 264.837711 
L 230.988262 266.792817 
L 236.125201 268.312335 
L 241.26214 269.824987 
L 246.399079 270.925945 
L 251.536018 271.986026 
L 256.672957 272.849506 
L 261.809896 273.78979 
L 266.946835 274.678128 
L 272.083774 275.770161 
L 277.220713 277.031563 
L 282.357652 278.477896 
L 287.494591 279.836468 
L 292.63153 280.984981 
L 297.76847 282.318954 
L 302.905409 284.21597 
L 308.042348 286.75977 
L 313.179287 289.506121 
L 318.316226 292.502293 
L 323.453165 294.565231 
L 328.590104 296.206506 
L 333.727043 297.858564 
L 338.863982 299.147971 
L 344.000921 300.58103 
L 349.13786 301.965991 
L 354.274799 302.199421 
L 359.411738 302.766469 
L 364.548677 303.652118 
L 369.685616 303.826536 
L 374.822555 303.847832 
L 379.959494 303.445877 
L 385.096433 302.992404 
L 390.233372 302.450343 
L 395.370311 301.006256 
L 400.50725 300.357598 
L 405.644189 300.944998 
L 410.781128 300.341451 
L 415.918067 299.267167 
L 421.055006 297.353818 
L 426.191945 295.956385 
L 431.328884 293.945951 
L 436.465823 292.123894 
L 441.602762 290.666835 
L 446.739701 289.380332 
L 451.87664 288.440062 
L 457.013579 287.711425 
L 462.150518 287.131118 
L 467.287457 286.518331 
L 472.424396 285.817984 
L 477.561335 285.097772 
L 482.698274 284.417391 
L 487.835213 283.717788 
L 492.972152 283.000007 
L 498.109091 282.183539 
" style="fill:none;stroke:#1f77b4;stroke-linecap:square;stroke-width:1.5;"/>
   </g>
   <g id="line2d_75">
    <path clip-path="url(#pcd312d99df)" d="M 92.290909 304.549366 
L 97.427848 304.391224 
L 102.564787 304.055132 
L 107.701726 303.507249 
L 112.838665 302.716411 
L 117.975604 301.655014 
L 123.112543 300.300574 
L 128.249482 298.638332 
L 133.386421 296.665156 
L 138.52336 294.394003 
L 143.660299 291.858312 
L 148.797238 289.114421 
L 153.934177 286.24105 
L 159.071116 283.334998 
L 164.208055 280.503734 
L 169.344994 277.856169 
L 174.481933 275.493095 
L 179.618872 273.498879 
L 184.755811 271.935496 
L 189.89275 270.838843 
L 195.029689 270.217632 
L 200.166628 270.054384 
L 205.303567 270.308123 
L 210.440506 270.918594 
L 215.577445 271.811537 
L 220.714384 272.904814 
L 225.851323 274.114856 
L 230.988262 275.362728 
L 236.125201 276.579449 
L 241.26214 277.709999 
L 246.399079 278.715788 
L 251.536018 279.575592 
L 256.672957 280.285321 
L 261.809896 280.856746 
L 266.946835 281.31551 
L 272.083774 281.698672 
L 277.220713 282.051599 
L 282.357652 282.424392 
L 287.494591 282.867767 
L 292.63153 283.428608 
L 297.76847 284.145373 
L 302.905409 285.043923 
L 308.042348 286.13424 
L 313.179287 287.408614 
L 318.316226 288.841731 
L 323.453165 290.392857 
L 328.590104 292.010089 
L 333.727043 293.635817 
L 338.863982 295.212588 
L 344.000921 296.688054 
L 349.13786 298.017993 
L 354.274799 299.167179 
L 359.411738 300.10865 
L 364.548677 300.821983 
L 369.685616 301.292061 
L 374.822555 301.508442 
L 379.959494 301.465349 
L 385.096433 301.161952 
L 390.233372 300.602498 
L 395.370311 299.796071 
L 400.50725 298.756714 
L 405.644189 297.503907 
L 410.781128 296.063896 
L 415.918067 294.471265 
L 421.055006 292.769777 
L 426.191945 291.011623 
L 431.328884 289.254528 
L 436.465823 287.556887 
L 441.602762 285.971979 
L 446.739701 284.542323 
L 451.87664 283.295309 
L 457.013579 282.240777 
L 462.150518 281.370646 
L 467.287457 280.66066 
L 472.424396 280.073517 
L 477.561335 279.562992 
L 482.698274 279.078554 
L 487.835213 278.56986 
L 492.972152 277.990984 
L 498.109091 277.304082 
" style="fill:none;stroke:#ff7f0e;stroke-linecap:square;stroke-width:1.5;"/>
   </g>
   <g id="patch_23">
    <path d="M 72 311.3208 
L 72 252.63504 
" style="fill:none;stroke:#000000;stroke-linecap:square;stroke-linejoin:miter;stroke-width:0.8;"/>
   </g>
   <g id="patch_24">
    <path d="M 518.4 311.3208 
L 518.4 252.63504 
" style="fill:none;stroke:#000000;stroke-linecap:square;stroke-linejoin:miter;stroke-width:0.8;"/>
   </g>
   <g id="patch_25">
    <path d="M 72 311.3208 
L 518.4 311.3208 
" style="fill:none;stroke:#000000;stroke-linecap:square;stroke-linejoin:miter;stroke-width:0.8;"/>
   </g>
   <g id="patch_26">
    <path d="M 72 252.63504 
L 518.4 252.63504 
" style="fill:none;stroke:#000000;stroke-linecap:square;stroke-linejoin:miter;stroke-width:0.8;"/>
   </g>
  </g>
  <g id="legend_1">
   <g id="patch_27">
    <path d="M 190.564063 352.84 
L 385.435938 352.84 
Q 387.435938 352.84 387.435938 350.84 
L 387.435938 337.161875 
Q 387.435938 335.161875 385.435938 335.161875 
L 190.564063 335.161875 
Q 188.564063 335.161875 188.564063 337.161875 
L 188.564063 350.84 
Q 188.564063 352.84 190.564063 352.84 
z
" style="fill:#ffffff;opacity:0.8;stroke:#cccccc;stroke-linejoin:miter;"/>
   </g>
   <g id="line2d_76">
    <path d="M 192.564063 343.260312 
L 212.564063 343.260312 
" style="fill:none;stroke:#1f77b4;stroke-linecap:square;stroke-width:1.5;"/>
   </g>
   <g id="line2d_77"/>
   <g id="text_35">
    <!-- Prediction -->
    <defs>
     <path d="M 19.671875 64.796875 
L 19.671875 37.40625 
L 32.078125 37.40625 
Q 38.96875 37.40625 42.71875 40.96875 
Q 46.484375 44.53125 46.484375 51.125 
Q 46.484375 57.671875 42.71875 61.234375 
Q 38.96875 64.796875 32.078125 64.796875 
z
M 9.8125 72.90625 
L 32.078125 72.90625 
Q 44.34375 72.90625 50.609375 67.359375 
Q 56.890625 61.8125 56.890625 51.125 
Q 56.890625 40.328125 50.609375 34.8125 
Q 44.34375 29.296875 32.078125 29.296875 
L 19.671875 29.296875 
L 19.671875 0 
L 9.8125 0 
z
" id="DejaVuSans-50"/>
     <path d="M 41.109375 46.296875 
Q 39.59375 47.171875 37.8125 47.578125 
Q 36.03125 48 33.890625 48 
Q 26.265625 48 22.1875 43.046875 
Q 18.109375 38.09375 18.109375 28.8125 
L 18.109375 0 
L 9.078125 0 
L 9.078125 54.6875 
L 18.109375 54.6875 
L 18.109375 46.1875 
Q 20.953125 51.171875 25.484375 53.578125 
Q 30.03125 56 36.53125 56 
Q 37.453125 56 38.578125 55.875 
Q 39.703125 55.765625 41.0625 55.515625 
z
" id="DejaVuSans-72"/>
     <path d="M 56.203125 29.59375 
L 56.203125 25.203125 
L 14.890625 25.203125 
Q 15.484375 15.921875 20.484375 11.0625 
Q 25.484375 6.203125 34.421875 6.203125 
Q 39.59375 6.203125 44.453125 7.46875 
Q 49.3125 8.734375 54.109375 11.28125 
L 54.109375 2.78125 
Q 49.265625 0.734375 44.1875 -0.34375 
Q 39.109375 -1.421875 33.890625 -1.421875 
Q 20.796875 -1.421875 13.15625 6.1875 
Q 5.515625 13.8125 5.515625 26.8125 
Q 5.515625 40.234375 12.765625 48.109375 
Q 20.015625 56 32.328125 56 
Q 43.359375 56 49.78125 48.890625 
Q 56.203125 41.796875 56.203125 29.59375 
z
M 47.21875 32.234375 
Q 47.125 39.59375 43.09375 43.984375 
Q 39.0625 48.390625 32.421875 48.390625 
Q 24.90625 48.390625 20.390625 44.140625 
Q 15.875 39.890625 15.1875 32.171875 
z
" id="DejaVuSans-65"/>
     <path d="M 45.40625 46.390625 
L 45.40625 75.984375 
L 54.390625 75.984375 
L 54.390625 0 
L 45.40625 0 
L 45.40625 8.203125 
Q 42.578125 3.328125 38.25 0.953125 
Q 33.9375 -1.421875 27.875 -1.421875 
Q 17.96875 -1.421875 11.734375 6.484375 
Q 5.515625 14.40625 5.515625 27.296875 
Q 5.515625 40.1875 11.734375 48.09375 
Q 17.96875 56 27.875 56 
Q 33.9375 56 38.25 53.625 
Q 42.578125 51.265625 45.40625 46.390625 
z
M 14.796875 27.296875 
Q 14.796875 17.390625 18.875 11.75 
Q 22.953125 6.109375 30.078125 6.109375 
Q 37.203125 6.109375 41.296875 11.75 
Q 45.40625 17.390625 45.40625 27.296875 
Q 45.40625 37.203125 41.296875 42.84375 
Q 37.203125 48.484375 30.078125 48.484375 
Q 22.953125 48.484375 18.875 42.84375 
Q 14.796875 37.203125 14.796875 27.296875 
z
" id="DejaVuSans-64"/>
     <path d="M 9.421875 54.6875 
L 18.40625 54.6875 
L 18.40625 0 
L 9.421875 0 
z
M 9.421875 75.984375 
L 18.40625 75.984375 
L 18.40625 64.59375 
L 9.421875 64.59375 
z
" id="DejaVuSans-69"/>
     <path d="M 48.78125 52.59375 
L 48.78125 44.1875 
Q 44.96875 46.296875 41.140625 47.34375 
Q 37.3125 48.390625 33.40625 48.390625 
Q 24.65625 48.390625 19.8125 42.84375 
Q 14.984375 37.3125 14.984375 27.296875 
Q 14.984375 17.28125 19.8125 11.734375 
Q 24.65625 6.203125 33.40625 6.203125 
Q 37.3125 6.203125 41.140625 7.25 
Q 44.96875 8.296875 48.78125 10.40625 
L 48.78125 2.09375 
Q 45.015625 0.34375 40.984375 -0.53125 
Q 36.96875 -1.421875 32.421875 -1.421875 
Q 20.0625 -1.421875 12.78125 6.34375 
Q 5.515625 14.109375 5.515625 27.296875 
Q 5.515625 40.671875 12.859375 48.328125 
Q 20.21875 56 33.015625 56 
Q 37.15625 56 41.109375 55.140625 
Q 45.0625 54.296875 48.78125 52.59375 
z
" id="DejaVuSans-63"/>
     <path d="M 18.3125 70.21875 
L 18.3125 54.6875 
L 36.8125 54.6875 
L 36.8125 47.703125 
L 18.3125 47.703125 
L 18.3125 18.015625 
Q 18.3125 11.328125 20.140625 9.421875 
Q 21.96875 7.515625 27.59375 7.515625 
L 36.8125 7.515625 
L 36.8125 0 
L 27.59375 0 
Q 17.1875 0 13.234375 3.875 
Q 9.28125 7.765625 9.28125 18.015625 
L 9.28125 47.703125 
L 2.6875 47.703125 
L 2.6875 54.6875 
L 9.28125 54.6875 
L 9.28125 70.21875 
z
" id="DejaVuSans-74"/>
     <path d="M 30.609375 48.390625 
Q 23.390625 48.390625 19.1875 42.75 
Q 14.984375 37.109375 14.984375 27.296875 
Q 14.984375 17.484375 19.15625 11.84375 
Q 23.34375 6.203125 30.609375 6.203125 
Q 37.796875 6.203125 41.984375 11.859375 
Q 46.1875 17.53125 46.1875 27.296875 
Q 46.1875 37.015625 41.984375 42.703125 
Q 37.796875 48.390625 30.609375 48.390625 
z
M 30.609375 56 
Q 42.328125 56 49.015625 48.375 
Q 55.71875 40.765625 55.71875 27.296875 
Q 55.71875 13.875 49.015625 6.21875 
Q 42.328125 -1.421875 30.609375 -1.421875 
Q 18.84375 -1.421875 12.171875 6.21875 
Q 5.515625 13.875 5.515625 27.296875 
Q 5.515625 40.765625 12.171875 48.375 
Q 18.84375 56 30.609375 56 
z
" id="DejaVuSans-6f"/>
     <path d="M 54.890625 33.015625 
L 54.890625 0 
L 45.90625 0 
L 45.90625 32.71875 
Q 45.90625 40.484375 42.875 44.328125 
Q 39.84375 48.1875 33.796875 48.1875 
Q 26.515625 48.1875 22.3125 43.546875 
Q 18.109375 38.921875 18.109375 30.90625 
L 18.109375 0 
L 9.078125 0 
L 9.078125 54.6875 
L 18.109375 54.6875 
L 18.109375 46.1875 
Q 21.34375 51.125 25.703125 53.5625 
Q 30.078125 56 35.796875 56 
Q 45.21875 56 50.046875 50.171875 
Q 54.890625 44.34375 54.890625 33.015625 
z
" id="DejaVuSans-6e"/>
    </defs>
    <g transform="translate(220.564063 346.760312)scale(0.1 -0.1)">
     <use xlink:href="#DejaVuSans-50"/>
     <use x="60.287109" xlink:href="#DejaVuSans-72"/>
     <use x="101.369141" xlink:href="#DejaVuSans-65"/>
     <use x="162.892578" xlink:href="#DejaVuSans-64"/>
     <use x="226.369141" xlink:href="#DejaVuSans-69"/>
     <use x="254.152344" xlink:href="#DejaVuSans-63"/>
     <use x="309.132812" xlink:href="#DejaVuSans-74"/>
     <use x="348.341797" xlink:href="#DejaVuSans-69"/>
     <use x="376.125" xlink:href="#DejaVuSans-6f"/>
     <use x="437.306641" xlink:href="#DejaVuSans-6e"/>
    </g>
   </g>
   <g id="line2d_78">
    <path d="M 290.632812 343.260312 
L 310.632812 343.260312 
" style="fill:none;stroke:#ff7f0e;stroke-linecap:square;stroke-width:1.5;"/>
   </g>
   <g id="line2d_79"/>
   <g id="text_36">
    <!-- Ground truth -->
    <defs>
     <path d="M 59.515625 10.40625 
L 59.515625 29.984375 
L 43.40625 29.984375 
L 43.40625 38.09375 
L 69.28125 38.09375 
L 69.28125 6.78125 
Q 63.578125 2.734375 56.6875 0.65625 
Q 49.8125 -1.421875 42 -1.421875 
Q 24.90625 -1.421875 15.25 8.5625 
Q 5.609375 18.5625 5.609375 36.375 
Q 5.609375 54.25 15.25 64.234375 
Q 24.90625 74.21875 42 74.21875 
Q 49.125 74.21875 55.546875 72.453125 
Q 61.96875 70.703125 67.390625 67.28125 
L 67.390625 56.78125 
Q 61.921875 61.421875 55.765625 63.765625 
Q 49.609375 66.109375 42.828125 66.109375 
Q 29.4375 66.109375 22.71875 58.640625 
Q 16.015625 51.171875 16.015625 36.375 
Q 16.015625 21.625 22.71875 14.15625 
Q 29.4375 6.6875 42.828125 6.6875 
Q 48.046875 6.6875 52.140625 7.59375 
Q 56.25 8.5 59.515625 10.40625 
z
" id="DejaVuSans-47"/>
     <path d="M 8.5 21.578125 
L 8.5 54.6875 
L 17.484375 54.6875 
L 17.484375 21.921875 
Q 17.484375 14.15625 20.5 10.265625 
Q 23.53125 6.390625 29.59375 6.390625 
Q 36.859375 6.390625 41.078125 11.03125 
Q 45.3125 15.671875 45.3125 23.6875 
L 45.3125 54.6875 
L 54.296875 54.6875 
L 54.296875 0 
L 45.3125 0 
L 45.3125 8.40625 
Q 42.046875 3.421875 37.71875 1 
Q 33.40625 -1.421875 27.6875 -1.421875 
Q 18.265625 -1.421875 13.375 4.4375 
Q 8.5 10.296875 8.5 21.578125 
z
M 31.109375 56 
z
" id="DejaVuSans-75"/>
     <path id="DejaVuSans-20"/>
     <path d="M 54.890625 33.015625 
L 54.890625 0 
L 45.90625 0 
L 45.90625 32.71875 
Q 45.90625 40.484375 42.875 44.328125 
Q 39.84375 48.1875 33.796875 48.1875 
Q 26.515625 48.1875 22.3125 43.546875 
Q 18.109375 38.921875 18.109375 30.90625 
L 18.109375 0 
L 9.078125 0 
L 9.078125 75.984375 
L 18.109375 75.984375 
L 18.109375 46.1875 
Q 21.34375 51.125 25.703125 53.5625 
Q 30.078125 56 35.796875 56 
Q 45.21875 56 50.046875 50.171875 
Q 54.890625 44.34375 54.890625 33.015625 
z
" id="DejaVuSans-68"/>
    </defs>
    <g transform="translate(318.632812 346.760312)scale(0.1 -0.1)">
     <use xlink:href="#DejaVuSans-47"/>
     <use x="77.490234" xlink:href="#DejaVuSans-72"/>
     <use x="118.572266" xlink:href="#DejaVuSans-6f"/>
     <use x="179.753906" xlink:href="#DejaVuSans-75"/>
     <use x="243.132812" xlink:href="#DejaVuSans-6e"/>
     <use x="306.511719" xlink:href="#DejaVuSans-64"/>
     <use x="369.988281" xlink:href="#DejaVuSans-20"/>
     <use x="401.775391" xlink:href="#DejaVuSans-74"/>
     <use x="440.984375" xlink:href="#DejaVuSans-72"/>
     <use x="482.097656" xlink:href="#DejaVuSans-75"/>
     <use x="545.476562" xlink:href="#DejaVuSans-74"/>
     <use x="584.685547" xlink:href="#DejaVuSans-68"/>
    </g>
   </g>
  </g>
 </g>
 <defs>
  <clipPath id="p0da85e802a">
   <rect height="58.68576" width="446.4" x="72" y="17.892"/>
  </clipPath>
  <clipPath id="p1a21963249">
   <rect height="58.68576" width="446.4" x="72" y="76.57776"/>
  </clipPath>
  <clipPath id="pbd2b89a188">
   <rect height="58.68576" width="446.4" x="72" y="135.26352"/>
  </clipPath>
  <clipPath id="p9a188fda96">
   <rect height="58.68576" width="446.4" x="72" y="193.94928"/>
  </clipPath>
  <clipPath id="pcd312d99df">
   <rect height="58.68576" width="446.4" x="72" y="252.63504"/>
  </clipPath>
 </defs>
</svg>
