<?xml version="1.0" encoding="utf-8" standalone="no"?>
<!DOCTYPE svg PUBLIC "-//W3C//DTD SVG 1.1//EN"
  "http://www.w3.org/Graphics/SVG/1.1/DTD/svg11.dtd">
<!-- Created with matplotlib (http://matplotlib.org/) -->
<svg height="357pt" version="1.1" viewBox="0 0 576 357" width="576pt" xmlns="http://www.w3.org/2000/svg" xmlns:xlink="http://www.w3.org/1999/xlink">
 <defs>
  <style type="text/css">
*{stroke-linecap:butt;stroke-linejoin:round;}
  </style>
 </defs>
 <g id="figure_1">
  <g id="patch_1">
   <path d="M 0 357.84 
L 576 357.84 
L 576 0 
L 0 0 
z
" style="fill:#ffffff;"/>
  </g>
  <g id="axes_1">
   <g id="patch_2">
    <path d="M 72 76.57776 
L 518.4 76.57776 
L 518.4 17.892 
L 72 17.892 
z
" style="fill:#ffffff;"/>
   </g>
   <g id="matplotlib.axis_1">
    <g id="xtick_1">
     <g id="line2d_1">
      <defs>
       <path d="M 0 0 
L 0 3.5 
" id="m4a35d5e5af" style="stroke:#000000;stroke-width:0.8;"/>
      </defs>
      <g>
       <use style="stroke:#000000;stroke-width:0.8;" x="92.290909" xlink:href="#m4a35d5e5af" y="76.57776"/>
      </g>
     </g>
    </g>
    <g id="xtick_2">
     <g id="line2d_2">
      <g>
       <use style="stroke:#000000;stroke-width:0.8;" x="143.660299" xlink:href="#m4a35d5e5af" y="76.57776"/>
      </g>
     </g>
    </g>
    <g id="xtick_3">
     <g id="line2d_3">
      <g>
       <use style="stroke:#000000;stroke-width:0.8;" x="195.029689" xlink:href="#m4a35d5e5af" y="76.57776"/>
      </g>
     </g>
    </g>
    <g id="xtick_4">
     <g id="line2d_4">
      <g>
       <use style="stroke:#000000;stroke-width:0.8;" x="246.399079" xlink:href="#m4a35d5e5af" y="76.57776"/>
      </g>
     </g>
    </g>
    <g id="xtick_5">
     <g id="line2d_5">
      <g>
       <use style="stroke:#000000;stroke-width:0.8;" x="297.76847" xlink:href="#m4a35d5e5af" y="76.57776"/>
      </g>
     </g>
    </g>
    <g id="xtick_6">
     <g id="line2d_6">
      <g>
       <use style="stroke:#000000;stroke-width:0.8;" x="349.13786" xlink:href="#m4a35d5e5af" y="76.57776"/>
      </g>
     </g>
    </g>
    <g id="xtick_7">
     <g id="line2d_7">
      <g>
       <use style="stroke:#000000;stroke-width:0.8;" x="400.50725" xlink:href="#m4a35d5e5af" y="76.57776"/>
      </g>
     </g>
    </g>
    <g id="xtick_8">
     <g id="line2d_8">
      <g>
       <use style="stroke:#000000;stroke-width:0.8;" x="451.87664" xlink:href="#m4a35d5e5af" y="76.57776"/>
      </g>
     </g>
    </g>
    <g id="xtick_9">
     <g id="line2d_9">
      <g>
       <use style="stroke:#000000;stroke-width:0.8;" x="503.24603" xlink:href="#m4a35d5e5af" y="76.57776"/>
      </g>
     </g>
    </g>
   </g>
   <g id="matplotlib.axis_2">
    <g id="ytick_1">
     <g id="line2d_10">
      <defs>
       <path d="M 0 0 
L -3.5 0 
" id="m7249c66385" style="stroke:#000000;stroke-width:0.8;"/>
      </defs>
      <g>
       <use style="stroke:#000000;stroke-width:0.8;" x="72" xlink:href="#m7249c66385" y="69.806326"/>
      </g>
     </g>
     <g id="text_1">
      <!-- -0.60 -->
      <defs>
       <path d="M 4.890625 31.390625 
L 31.203125 31.390625 
L 31.203125 23.390625 
L 4.890625 23.390625 
z
" id="DejaVuSans-2d"/>
       <path d="M 31.78125 66.40625 
Q 24.171875 66.40625 20.328125 58.90625 
Q 16.5 51.421875 16.5 36.375 
Q 16.5 21.390625 20.328125 13.890625 
Q 24.171875 6.390625 31.78125 6.390625 
Q 39.453125 6.390625 43.28125 13.890625 
Q 47.125 21.390625 47.125 36.375 
Q 47.125 51.421875 43.28125 58.90625 
Q 39.453125 66.40625 31.78125 66.40625 
z
M 31.78125 74.21875 
Q 44.046875 74.21875 50.515625 64.515625 
Q 56.984375 54.828125 56.984375 36.375 
Q 56.984375 17.96875 50.515625 8.265625 
Q 44.046875 -1.421875 31.78125 -1.421875 
Q 19.53125 -1.421875 13.0625 8.265625 
Q 6.59375 17.96875 6.59375 36.375 
Q 6.59375 54.828125 13.0625 64.515625 
Q 19.53125 74.21875 31.78125 74.21875 
z
" id="DejaVuSans-30"/>
       <path d="M 10.6875 12.40625 
L 21 12.40625 
L 21 0 
L 10.6875 0 
z
" id="DejaVuSans-2e"/>
       <path d="M 33.015625 40.375 
Q 26.375 40.375 22.484375 35.828125 
Q 18.609375 31.296875 18.609375 23.390625 
Q 18.609375 15.53125 22.484375 10.953125 
Q 26.375 6.390625 33.015625 6.390625 
Q 39.65625 6.390625 43.53125 10.953125 
Q 47.40625 15.53125 47.40625 23.390625 
Q 47.40625 31.296875 43.53125 35.828125 
Q 39.65625 40.375 33.015625 40.375 
z
M 52.59375 71.296875 
L 52.59375 62.3125 
Q 48.875 64.0625 45.09375 64.984375 
Q 41.3125 65.921875 37.59375 65.921875 
Q 27.828125 65.921875 22.671875 59.328125 
Q 17.53125 52.734375 16.796875 39.40625 
Q 19.671875 43.65625 24.015625 45.921875 
Q 28.375 48.1875 33.59375 48.1875 
Q 44.578125 48.1875 50.953125 41.515625 
Q 57.328125 34.859375 57.328125 23.390625 
Q 57.328125 12.15625 50.6875 5.359375 
Q 44.046875 -1.421875 33.015625 -1.421875 
Q 20.359375 -1.421875 13.671875 8.265625 
Q 6.984375 17.96875 6.984375 36.375 
Q 6.984375 53.65625 15.1875 63.9375 
Q 23.390625 74.21875 37.203125 74.21875 
Q 40.921875 74.21875 44.703125 73.484375 
Q 48.484375 72.75 52.59375 71.296875 
z
" id="DejaVuSans-36"/>
      </defs>
      <g transform="translate(39.126562 73.605545)scale(0.1 -0.1)">
       <use xlink:href="#DejaVuSans-2d"/>
       <use x="36.083984" xlink:href="#DejaVuSans-30"/>
       <use x="99.707031" xlink:href="#DejaVuSans-2e"/>
       <use x="131.494141" xlink:href="#DejaVuSans-36"/>
       <use x="195.117188" xlink:href="#DejaVuSans-30"/>
      </g>
     </g>
    </g>
    <g id="ytick_2">
     <g id="line2d_11">
      <g>
       <use style="stroke:#000000;stroke-width:0.8;" x="72" xlink:href="#m7249c66385" y="54.758695"/>
      </g>
     </g>
     <g id="text_2">
      <!-- -0.45 -->
      <defs>
       <path d="M 37.796875 64.3125 
L 12.890625 25.390625 
L 37.796875 25.390625 
z
M 35.203125 72.90625 
L 47.609375 72.90625 
L 47.609375 25.390625 
L 58.015625 25.390625 
L 58.015625 17.1875 
L 47.609375 17.1875 
L 47.609375 0 
L 37.796875 0 
L 37.796875 17.1875 
L 4.890625 17.1875 
L 4.890625 26.703125 
z
" id="DejaVuSans-34"/>
       <path d="M 10.796875 72.90625 
L 49.515625 72.90625 
L 49.515625 64.59375 
L 19.828125 64.59375 
L 19.828125 46.734375 
Q 21.96875 47.46875 24.109375 47.828125 
Q 26.265625 48.1875 28.421875 48.1875 
Q 40.625 48.1875 47.75 41.5 
Q 54.890625 34.8125 54.890625 23.390625 
Q 54.890625 11.625 47.5625 5.09375 
Q 40.234375 -1.421875 26.90625 -1.421875 
Q 22.3125 -1.421875 17.546875 -0.640625 
Q 12.796875 0.140625 7.71875 1.703125 
L 7.71875 11.625 
Q 12.109375 9.234375 16.796875 8.0625 
Q 21.484375 6.890625 26.703125 6.890625 
Q 35.15625 6.890625 40.078125 11.328125 
Q 45.015625 15.765625 45.015625 23.390625 
Q 45.015625 31 40.078125 35.4375 
Q 35.15625 39.890625 26.703125 39.890625 
Q 22.75 39.890625 18.8125 39.015625 
Q 14.890625 38.140625 10.796875 36.28125 
z
" id="DejaVuSans-35"/>
      </defs>
      <g transform="translate(39.126562 58.557914)scale(0.1 -0.1)">
       <use xlink:href="#DejaVuSans-2d"/>
       <use x="36.083984" xlink:href="#DejaVuSans-30"/>
       <use x="99.707031" xlink:href="#DejaVuSans-2e"/>
       <use x="131.494141" xlink:href="#DejaVuSans-34"/>
       <use x="195.117188" xlink:href="#DejaVuSans-35"/>
      </g>
     </g>
    </g>
    <g id="ytick_3">
     <g id="line2d_12">
      <g>
       <use style="stroke:#000000;stroke-width:0.8;" x="72" xlink:href="#m7249c66385" y="39.711065"/>
      </g>
     </g>
     <g id="text_3">
      <!-- -0.29 -->
      <defs>
       <path d="M 19.1875 8.296875 
L 53.609375 8.296875 
L 53.609375 0 
L 7.328125 0 
L 7.328125 8.296875 
Q 12.9375 14.109375 22.625 23.890625 
Q 32.328125 33.6875 34.8125 36.53125 
Q 39.546875 41.84375 41.421875 45.53125 
Q 43.3125 49.21875 43.3125 52.78125 
Q 43.3125 58.59375 39.234375 62.25 
Q 35.15625 65.921875 28.609375 65.921875 
Q 23.96875 65.921875 18.8125 64.3125 
Q 13.671875 62.703125 7.8125 59.421875 
L 7.8125 69.390625 
Q 13.765625 71.78125 18.9375 73 
Q 24.125 74.21875 28.421875 74.21875 
Q 39.75 74.21875 46.484375 68.546875 
Q 53.21875 62.890625 53.21875 53.421875 
Q 53.21875 48.921875 51.53125 44.890625 
Q 49.859375 40.875 45.40625 35.40625 
Q 44.1875 33.984375 37.640625 27.21875 
Q 31.109375 20.453125 19.1875 8.296875 
z
" id="DejaVuSans-32"/>
       <path d="M 10.984375 1.515625 
L 10.984375 10.5 
Q 14.703125 8.734375 18.5 7.8125 
Q 22.3125 6.890625 25.984375 6.890625 
Q 35.75 6.890625 40.890625 13.453125 
Q 46.046875 20.015625 46.78125 33.40625 
Q 43.953125 29.203125 39.59375 26.953125 
Q 35.25 24.703125 29.984375 24.703125 
Q 19.046875 24.703125 12.671875 31.3125 
Q 6.296875 37.9375 6.296875 49.421875 
Q 6.296875 60.640625 12.9375 67.421875 
Q 19.578125 74.21875 30.609375 74.21875 
Q 43.265625 74.21875 49.921875 64.515625 
Q 56.59375 54.828125 56.59375 36.375 
Q 56.59375 19.140625 48.40625 8.859375 
Q 40.234375 -1.421875 26.421875 -1.421875 
Q 22.703125 -1.421875 18.890625 -0.6875 
Q 15.09375 0.046875 10.984375 1.515625 
z
M 30.609375 32.421875 
Q 37.25 32.421875 41.125 36.953125 
Q 45.015625 41.5 45.015625 49.421875 
Q 45.015625 57.28125 41.125 61.84375 
Q 37.25 66.40625 30.609375 66.40625 
Q 23.96875 66.40625 20.09375 61.84375 
Q 16.21875 57.28125 16.21875 49.421875 
Q 16.21875 41.5 20.09375 36.953125 
Q 23.96875 32.421875 30.609375 32.421875 
z
" id="DejaVuSans-39"/>
      </defs>
      <g transform="translate(39.126562 43.510283)scale(0.1 -0.1)">
       <use xlink:href="#DejaVuSans-2d"/>
       <use x="36.083984" xlink:href="#DejaVuSans-30"/>
       <use x="99.707031" xlink:href="#DejaVuSans-2e"/>
       <use x="131.494141" xlink:href="#DejaVuSans-32"/>
       <use x="195.117188" xlink:href="#DejaVuSans-39"/>
      </g>
     </g>
    </g>
    <g id="ytick_4">
     <g id="line2d_13">
      <g>
       <use style="stroke:#000000;stroke-width:0.8;" x="72" xlink:href="#m7249c66385" y="24.663434"/>
      </g>
     </g>
     <g id="text_4">
      <!-- -0.13 -->
      <defs>
       <path d="M 12.40625 8.296875 
L 28.515625 8.296875 
L 28.515625 63.921875 
L 10.984375 60.40625 
L 10.984375 69.390625 
L 28.421875 72.90625 
L 38.28125 72.90625 
L 38.28125 8.296875 
L 54.390625 8.296875 
L 54.390625 0 
L 12.40625 0 
z
" id="DejaVuSans-31"/>
       <path d="M 40.578125 39.3125 
Q 47.65625 37.796875 51.625 33 
Q 55.609375 28.21875 55.609375 21.1875 
Q 55.609375 10.40625 48.1875 4.484375 
Q 40.765625 -1.421875 27.09375 -1.421875 
Q 22.515625 -1.421875 17.65625 -0.515625 
Q 12.796875 0.390625 7.625 2.203125 
L 7.625 11.71875 
Q 11.71875 9.328125 16.59375 8.109375 
Q 21.484375 6.890625 26.8125 6.890625 
Q 36.078125 6.890625 40.9375 10.546875 
Q 45.796875 14.203125 45.796875 21.1875 
Q 45.796875 27.640625 41.28125 31.265625 
Q 36.765625 34.90625 28.71875 34.90625 
L 20.21875 34.90625 
L 20.21875 43.015625 
L 29.109375 43.015625 
Q 36.375 43.015625 40.234375 45.921875 
Q 44.09375 48.828125 44.09375 54.296875 
Q 44.09375 59.90625 40.109375 62.90625 
Q 36.140625 65.921875 28.71875 65.921875 
Q 24.65625 65.921875 20.015625 65.03125 
Q 15.375 64.15625 9.8125 62.3125 
L 9.8125 71.09375 
Q 15.4375 72.65625 20.34375 73.4375 
Q 25.25 74.21875 29.59375 74.21875 
Q 40.828125 74.21875 47.359375 69.109375 
Q 53.90625 64.015625 53.90625 55.328125 
Q 53.90625 49.265625 50.4375 45.09375 
Q 46.96875 40.921875 40.578125 39.3125 
z
" id="DejaVuSans-33"/>
      </defs>
      <g transform="translate(39.126562 28.462652)scale(0.1 -0.1)">
       <use xlink:href="#DejaVuSans-2d"/>
       <use x="36.083984" xlink:href="#DejaVuSans-30"/>
       <use x="99.707031" xlink:href="#DejaVuSans-2e"/>
       <use x="131.494141" xlink:href="#DejaVuSans-31"/>
       <use x="195.117188" xlink:href="#DejaVuSans-33"/>
      </g>
     </g>
    </g>
    <g id="text_5">
     <!-- $s_{1}$ -->
     <defs>
      <path d="M 50 53.078125 
L 48.296875 44.578125 
Q 44.734375 46.53125 40.765625 47.5 
Q 36.8125 48.484375 32.625 48.484375 
Q 25.53125 48.484375 21.453125 46.0625 
Q 17.390625 43.65625 17.390625 39.5 
Q 17.390625 34.671875 26.859375 32.078125 
Q 27.59375 31.890625 27.9375 31.78125 
L 30.8125 30.90625 
Q 39.796875 28.421875 42.796875 25.6875 
Q 45.796875 22.953125 45.796875 18.21875 
Q 45.796875 9.515625 38.890625 4.046875 
Q 31.984375 -1.421875 20.796875 -1.421875 
Q 16.453125 -1.421875 11.671875 -0.578125 
Q 6.890625 0.25 1.125 2 
L 2.875 11.28125 
Q 7.8125 8.734375 12.59375 7.421875 
Q 17.390625 6.109375 21.78125 6.109375 
Q 28.375 6.109375 32.5 8.9375 
Q 36.625 11.765625 36.625 16.109375 
Q 36.625 20.796875 25.78125 23.6875 
L 24.859375 23.921875 
L 21.78125 24.703125 
Q 14.9375 26.515625 11.765625 29.46875 
Q 8.59375 32.421875 8.59375 37.015625 
Q 8.59375 45.75 15.15625 50.875 
Q 21.734375 56 33.015625 56 
Q 37.453125 56 41.671875 55.265625 
Q 45.90625 54.546875 50 53.078125 
z
" id="DejaVuSans-Oblique-73"/>
     </defs>
     <g transform="translate(33.046875 52.23488)rotate(-90)scale(0.1 -0.1)">
      <use xlink:href="#DejaVuSans-Oblique-73"/>
      <use transform="translate(52.099609 -16.40625)scale(0.7)" xlink:href="#DejaVuSans-31"/>
     </g>
    </g>
   </g>
   <g id="line2d_14">
    <path clip-path="url(#p797dcdd99e)" d="M 92.290909 40.018358 
L 97.427848 39.68128 
L 102.564787 39.153979 
L 107.701726 38.314332 
L 112.838665 36.706532 
L 117.975604 35.728421 
L 123.112543 34.511471 
L 128.249482 33.222626 
L 133.386421 32.285808 
L 138.52336 31.421446 
L 143.660299 31.255724 
L 148.797238 31.183421 
L 153.934177 31.033454 
L 159.071116 31.394526 
L 164.208055 31.348515 
L 169.344994 31.164595 
L 174.481933 31.050933 
L 179.618872 31.084613 
L 184.755811 31.275102 
L 189.89275 31.508061 
L 195.029689 31.590527 
L 200.166628 31.581508 
L 205.303567 31.496759 
L 210.440506 31.392362 
L 215.577445 31.270299 
L 220.714384 31.228081 
L 225.851323 31.356533 
L 230.988262 31.532444 
L 236.125201 31.832047 
L 241.26214 32.172002 
L 246.399079 32.584928 
L 251.536018 32.847225 
L 256.672957 33.14173 
L 261.809896 33.443096 
L 266.946835 33.732782 
L 272.083774 33.884945 
L 277.220713 33.944997 
L 282.357652 33.947152 
L 287.494591 33.903272 
L 292.63153 33.824573 
L 297.76847 33.770018 
L 302.905409 33.727725 
L 308.042348 33.741173 
L 313.179287 34.030849 
L 318.316226 34.123031 
L 323.453165 34.395755 
L 328.590104 34.85677 
L 333.727043 36.057243 
L 338.863982 37.554077 
L 344.000921 38.518274 
L 349.13786 42.183589 
L 354.274799 47.353263 
L 359.411738 52.61463 
L 364.548677 58.10059 
L 369.685616 62.451155 
L 374.822555 64.821772 
L 379.959494 65.379785 
L 385.096433 63.888806 
L 390.233372 60.064397 
L 395.370311 54.713944 
L 400.50725 49.463468 
L 405.644189 45.708373 
L 410.781128 41.61161 
L 415.918067 38.505752 
L 421.055006 36.61408 
L 426.191945 35.391275 
L 431.328884 34.421309 
L 436.465823 33.619433 
L 441.602762 33.239043 
L 446.739701 33.225868 
L 451.87664 33.242742 
L 457.013579 33.038875 
L 462.150518 33.104858 
L 467.287457 33.225927 
L 472.424396 33.208136 
L 477.561335 33.204308 
L 482.698274 33.134458 
L 487.835213 32.990176 
L 492.972152 32.850653 
L 498.109091 32.844681 
" style="fill:none;stroke:#1f77b4;stroke-linecap:square;stroke-width:1.5;"/>
   </g>
   <g id="line2d_15">
    <path clip-path="url(#p797dcdd99e)" d="M 92.290909 37.832265 
L 97.427848 37.418728 
L 102.564787 36.563508 
L 107.701726 35.283892 
L 112.838665 33.681424 
L 117.975604 31.921199 
L 123.112543 30.186864 
L 128.249482 28.632292 
L 133.386421 27.351639 
L 138.52336 26.37504 
L 143.660299 25.682728 
L 148.797238 25.225958 
L 153.934177 24.946174 
L 159.071116 24.7884 
L 164.208055 24.708216 
L 169.344994 24.673571 
L 174.481933 24.663434 
L 179.618872 24.665136 
L 184.755811 24.671686 
L 189.89275 24.679623 
L 195.029689 24.687571 
L 200.166628 24.69537 
L 205.303567 24.703648 
L 210.440506 24.71363 
L 215.577445 24.72709 
L 220.714384 24.746286 
L 225.851323 24.773789 
L 230.988262 24.812163 
L 236.125201 24.863495 
L 241.26214 24.928918 
L 246.399079 25.008324 
L 251.536018 25.10045 
L 256.672957 25.20337 
L 261.809896 25.315241 
L 266.946835 25.435075 
L 272.083774 25.563262 
L 277.220713 25.701821 
L 282.357652 25.854492 
L 287.494591 26.026952 
L 292.63153 26.227442 
L 297.76847 26.468128 
L 302.905409 26.767479 
L 308.042348 27.153985 
L 313.179287 27.671531 
L 318.316226 28.386628 
L 323.453165 29.39723 
L 328.590104 30.84181 
L 333.727043 32.904772 
L 338.863982 35.808787 
L 344.000921 39.773973 
L 349.13786 44.911854 
L 354.274799 51.036545 
L 359.411738 57.480757 
L 364.548677 63.184294 
L 369.685616 67.232631 
L 374.822555 69.379192 
L 379.959494 69.806326 
L 385.096433 68.427449 
L 390.233372 64.881377 
L 395.370311 59.276773 
L 400.50725 52.527004 
L 405.644189 45.831965 
L 410.781128 40.038481 
L 415.918067 35.466947 
L 421.055006 32.077551 
L 426.191945 29.675923 
L 431.328884 28.03882 
L 436.465823 26.967969 
L 441.602762 26.30505 
L 446.739701 25.930288 
L 451.87664 25.755573 
L 457.013579 25.71678 
L 462.150518 25.767063 
L 467.287457 25.871666 
L 472.424396 26.00427 
L 477.561335 26.144646 
L 482.698274 26.277353 
L 487.835213 26.391157 
L 492.972152 26.478801 
L 498.109091 26.536801 
" style="fill:none;stroke:#ff7f0e;stroke-linecap:square;stroke-width:1.5;"/>
   </g>
   <g id="patch_3">
    <path d="M 72 76.57776 
L 72 17.892 
" style="fill:none;stroke:#000000;stroke-linecap:square;stroke-linejoin:miter;stroke-width:0.8;"/>
   </g>
   <g id="patch_4">
    <path d="M 518.4 76.57776 
L 518.4 17.892 
" style="fill:none;stroke:#000000;stroke-linecap:square;stroke-linejoin:miter;stroke-width:0.8;"/>
   </g>
   <g id="patch_5">
    <path d="M 72 76.57776 
L 518.4 76.57776 
" style="fill:none;stroke:#000000;stroke-linecap:square;stroke-linejoin:miter;stroke-width:0.8;"/>
   </g>
   <g id="patch_6">
    <path d="M 72 17.892 
L 518.4 17.892 
" style="fill:none;stroke:#000000;stroke-linecap:square;stroke-linejoin:miter;stroke-width:0.8;"/>
   </g>
  </g>
  <g id="axes_2">
   <g id="patch_7">
    <path d="M 72 135.26352 
L 518.4 135.26352 
L 518.4 76.57776 
L 72 76.57776 
z
" style="fill:#ffffff;"/>
   </g>
   <g id="matplotlib.axis_3">
    <g id="xtick_10">
     <g id="line2d_16">
      <g>
       <use style="stroke:#000000;stroke-width:0.8;" x="92.290909" xlink:href="#m4a35d5e5af" y="135.26352"/>
      </g>
     </g>
    </g>
    <g id="xtick_11">
     <g id="line2d_17">
      <g>
       <use style="stroke:#000000;stroke-width:0.8;" x="143.660299" xlink:href="#m4a35d5e5af" y="135.26352"/>
      </g>
     </g>
    </g>
    <g id="xtick_12">
     <g id="line2d_18">
      <g>
       <use style="stroke:#000000;stroke-width:0.8;" x="195.029689" xlink:href="#m4a35d5e5af" y="135.26352"/>
      </g>
     </g>
    </g>
    <g id="xtick_13">
     <g id="line2d_19">
      <g>
       <use style="stroke:#000000;stroke-width:0.8;" x="246.399079" xlink:href="#m4a35d5e5af" y="135.26352"/>
      </g>
     </g>
    </g>
    <g id="xtick_14">
     <g id="line2d_20">
      <g>
       <use style="stroke:#000000;stroke-width:0.8;" x="297.76847" xlink:href="#m4a35d5e5af" y="135.26352"/>
      </g>
     </g>
    </g>
    <g id="xtick_15">
     <g id="line2d_21">
      <g>
       <use style="stroke:#000000;stroke-width:0.8;" x="349.13786" xlink:href="#m4a35d5e5af" y="135.26352"/>
      </g>
     </g>
    </g>
    <g id="xtick_16">
     <g id="line2d_22">
      <g>
       <use style="stroke:#000000;stroke-width:0.8;" x="400.50725" xlink:href="#m4a35d5e5af" y="135.26352"/>
      </g>
     </g>
    </g>
    <g id="xtick_17">
     <g id="line2d_23">
      <g>
       <use style="stroke:#000000;stroke-width:0.8;" x="451.87664" xlink:href="#m4a35d5e5af" y="135.26352"/>
      </g>
     </g>
    </g>
    <g id="xtick_18">
     <g id="line2d_24">
      <g>
       <use style="stroke:#000000;stroke-width:0.8;" x="503.24603" xlink:href="#m4a35d5e5af" y="135.26352"/>
      </g>
     </g>
    </g>
   </g>
   <g id="matplotlib.axis_4">
    <g id="ytick_5">
     <g id="line2d_25">
      <g>
       <use style="stroke:#000000;stroke-width:0.8;" x="72" xlink:href="#m7249c66385" y="128.492086"/>
      </g>
     </g>
     <g id="text_6">
      <!-- 0.97 -->
      <defs>
       <path d="M 8.203125 72.90625 
L 55.078125 72.90625 
L 55.078125 68.703125 
L 28.609375 0 
L 18.3125 0 
L 43.21875 64.59375 
L 8.203125 64.59375 
z
" id="DejaVuSans-37"/>
      </defs>
      <g transform="translate(42.734375 132.291305)scale(0.1 -0.1)">
       <use xlink:href="#DejaVuSans-30"/>
       <use x="63.623047" xlink:href="#DejaVuSans-2e"/>
       <use x="95.410156" xlink:href="#DejaVuSans-39"/>
       <use x="159.033203" xlink:href="#DejaVuSans-37"/>
      </g>
     </g>
    </g>
    <g id="ytick_6">
     <g id="line2d_26">
      <g>
       <use style="stroke:#000000;stroke-width:0.8;" x="72" xlink:href="#m7249c66385" y="113.444455"/>
      </g>
     </g>
     <g id="text_7">
      <!-- 2.14 -->
      <g transform="translate(42.734375 117.243674)scale(0.1 -0.1)">
       <use xlink:href="#DejaVuSans-32"/>
       <use x="63.623047" xlink:href="#DejaVuSans-2e"/>
       <use x="95.410156" xlink:href="#DejaVuSans-31"/>
       <use x="159.033203" xlink:href="#DejaVuSans-34"/>
      </g>
     </g>
    </g>
    <g id="ytick_7">
     <g id="line2d_27">
      <g>
       <use style="stroke:#000000;stroke-width:0.8;" x="72" xlink:href="#m7249c66385" y="98.396825"/>
      </g>
     </g>
     <g id="text_8">
      <!-- 3.32 -->
      <g transform="translate(42.734375 102.196043)scale(0.1 -0.1)">
       <use xlink:href="#DejaVuSans-33"/>
       <use x="63.623047" xlink:href="#DejaVuSans-2e"/>
       <use x="95.410156" xlink:href="#DejaVuSans-33"/>
       <use x="159.033203" xlink:href="#DejaVuSans-32"/>
      </g>
     </g>
    </g>
    <g id="ytick_8">
     <g id="line2d_28">
      <g>
       <use style="stroke:#000000;stroke-width:0.8;" x="72" xlink:href="#m7249c66385" y="83.349194"/>
      </g>
     </g>
     <g id="text_9">
      <!-- 4.49 -->
      <g transform="translate(42.734375 87.148413)scale(0.1 -0.1)">
       <use xlink:href="#DejaVuSans-34"/>
       <use x="63.623047" xlink:href="#DejaVuSans-2e"/>
       <use x="95.410156" xlink:href="#DejaVuSans-34"/>
       <use x="159.033203" xlink:href="#DejaVuSans-39"/>
      </g>
     </g>
    </g>
    <g id="text_10">
     <!-- $s_{25}$ -->
     <g transform="translate(36.654688 113.12064)rotate(-90)scale(0.1 -0.1)">
      <use xlink:href="#DejaVuSans-Oblique-73"/>
      <use transform="translate(52.099609 -16.40625)scale(0.7)" xlink:href="#DejaVuSans-32"/>
      <use transform="translate(96.635742 -16.40625)scale(0.7)" xlink:href="#DejaVuSans-35"/>
     </g>
    </g>
   </g>
   <g id="line2d_29">
    <path clip-path="url(#p2b9b5c95da)" d="M 92.290909 107.485093 
L 97.427848 107.726717 
L 102.564787 108.162279 
L 107.701726 108.918163 
L 112.838665 110.23821 
L 117.975604 112.026385 
L 123.112543 113.905523 
L 128.249482 115.645367 
L 133.386421 117.316542 
L 138.52336 119.044341 
L 143.660299 120.492839 
L 148.797238 121.573844 
L 153.934177 122.673552 
L 159.071116 123.450038 
L 164.208055 123.85666 
L 169.344994 124.13962 
L 174.481933 124.352318 
L 179.618872 124.454926 
L 184.755811 124.353071 
L 189.89275 124.23134 
L 195.029689 124.179077 
L 200.166628 124.168805 
L 205.303567 124.152272 
L 210.440506 124.121796 
L 215.577445 124.084444 
L 220.714384 124.019944 
L 225.851323 123.896337 
L 230.988262 123.792485 
L 236.125201 123.62998 
L 241.26214 123.418726 
L 246.399079 123.175456 
L 251.536018 122.801945 
L 256.672957 122.353182 
L 261.809896 121.910331 
L 266.946835 121.51943 
L 272.083774 121.239031 
L 277.220713 120.986337 
L 282.357652 120.712131 
L 287.494591 120.399111 
L 292.63153 120.047032 
L 297.76847 119.623892 
L 302.905409 119.146115 
L 308.042348 118.494118 
L 313.179287 117.681464 
L 318.316226 116.673327 
L 323.453165 115.129434 
L 328.590104 113.14127 
L 333.727043 110.982845 
L 338.863982 108.040061 
L 344.000921 104.36613 
L 349.13786 98.197066 
L 354.274799 94.469308 
L 359.411738 91.745771 
L 364.548677 88.134262 
L 369.685616 85.237566 
L 374.822555 83.684166 
L 379.959494 83.349194 
L 385.096433 84.27197 
L 390.233372 86.830224 
L 395.370311 90.24811 
L 400.50725 93.439507 
L 405.644189 96.31457 
L 410.781128 101.608775 
L 415.918067 105.391629 
L 421.055006 108.340836 
L 426.191945 111.442314 
L 431.328884 114.005875 
L 436.465823 116.246188 
L 441.602762 118.039346 
L 446.739701 119.415009 
L 451.87664 120.418095 
L 457.013579 121.267418 
L 462.150518 121.713858 
L 467.287457 122.021955 
L 472.424396 122.341013 
L 477.561335 122.495984 
L 482.698274 122.600589 
L 487.835213 122.768271 
L 492.972152 122.892153 
L 498.109091 123.119239 
" style="fill:none;stroke:#1f77b4;stroke-linecap:square;stroke-width:1.5;"/>
   </g>
   <g id="line2d_30">
    <path clip-path="url(#p2b9b5c95da)" d="M 92.290909 110.069781 
L 97.427848 110.483175 
L 102.564787 111.354107 
L 107.701726 112.69617 
L 112.838665 114.446403 
L 117.975604 116.468399 
L 123.112543 118.582175 
L 128.249482 120.611108 
L 133.386421 122.423284 
L 138.52336 123.949481 
L 143.660299 125.176913 
L 148.797238 126.130179 
L 153.934177 126.851497 
L 159.071116 127.386503 
L 164.208055 127.776493 
L 169.344994 128.055406 
L 174.481933 128.249518 
L 179.618872 128.378334 
L 184.755811 128.455828 
L 189.89275 128.49164 
L 195.029689 128.492086 
L 200.166628 128.460975 
L 205.303567 128.400304 
L 210.440506 128.310857 
L 215.577445 128.192814 
L 220.714384 128.046376 
L 225.851323 127.872423 
L 230.988262 127.673133 
L 236.125201 127.452436 
L 241.26214 127.216121 
L 246.399079 126.97142 
L 251.536018 126.726031 
L 256.672957 126.486688 
L 261.809896 126.257653 
L 266.946835 126.039463 
L 272.083774 125.82826 
L 277.220713 125.615713 
L 282.357652 125.389272 
L 287.494591 125.132407 
L 292.63153 124.824388 
L 297.76847 124.439323 
L 302.905409 123.944209 
L 308.042348 123.295874 
L 313.179287 122.436784 
L 318.316226 121.289979 
L 323.453165 119.754268 
L 328.590104 117.702666 
L 333.727043 114.990888 
L 338.863982 111.488109 
L 344.000921 107.145412 
L 349.13786 102.103938 
L 354.274799 96.793555 
L 359.411738 91.897551 
L 364.548677 88.083107 
L 369.685616 85.647278 
L 374.822555 84.452099 
L 379.959494 84.265318 
L 385.096433 85.135415 
L 390.233372 87.383978 
L 395.370311 91.213204 
L 400.50725 96.342298 
L 405.644189 102.060157 
L 410.781128 107.599878 
L 415.918067 112.446844 
L 421.055006 116.399163 
L 426.191945 119.472803 
L 431.328884 121.786277 
L 436.465823 123.483866 
L 441.602762 124.699 
L 446.739701 125.542443 
L 451.87664 126.10221 
L 457.013579 126.447652 
L 462.150518 126.634162 
L 467.287457 126.707194 
L 472.424396 126.705065 
L 477.561335 126.660581 
L 482.698274 126.601578 
L 487.835213 126.550617 
L 492.972152 126.524293 
L 498.109091 126.53258 
" style="fill:none;stroke:#ff7f0e;stroke-linecap:square;stroke-width:1.5;"/>
   </g>
   <g id="patch_8">
    <path d="M 72 135.26352 
L 72 76.57776 
" style="fill:none;stroke:#000000;stroke-linecap:square;stroke-linejoin:miter;stroke-width:0.8;"/>
   </g>
   <g id="patch_9">
    <path d="M 518.4 135.26352 
L 518.4 76.57776 
" style="fill:none;stroke:#000000;stroke-linecap:square;stroke-linejoin:miter;stroke-width:0.8;"/>
   </g>
   <g id="patch_10">
    <path d="M 72 135.26352 
L 518.4 135.26352 
" style="fill:none;stroke:#000000;stroke-linecap:square;stroke-linejoin:miter;stroke-width:0.8;"/>
   </g>
   <g id="patch_11">
    <path d="M 72 76.57776 
L 518.4 76.57776 
" style="fill:none;stroke:#000000;stroke-linecap:square;stroke-linejoin:miter;stroke-width:0.8;"/>
   </g>
  </g>
  <g id="axes_3">
   <g id="patch_12">
    <path d="M 72 193.94928 
L 518.4 193.94928 
L 518.4 135.26352 
L 72 135.26352 
z
" style="fill:#ffffff;"/>
   </g>
   <g id="matplotlib.axis_5">
    <g id="xtick_19">
     <g id="line2d_31">
      <g>
       <use style="stroke:#000000;stroke-width:0.8;" x="92.290909" xlink:href="#m4a35d5e5af" y="193.94928"/>
      </g>
     </g>
    </g>
    <g id="xtick_20">
     <g id="line2d_32">
      <g>
       <use style="stroke:#000000;stroke-width:0.8;" x="143.660299" xlink:href="#m4a35d5e5af" y="193.94928"/>
      </g>
     </g>
    </g>
    <g id="xtick_21">
     <g id="line2d_33">
      <g>
       <use style="stroke:#000000;stroke-width:0.8;" x="195.029689" xlink:href="#m4a35d5e5af" y="193.94928"/>
      </g>
     </g>
    </g>
    <g id="xtick_22">
     <g id="line2d_34">
      <g>
       <use style="stroke:#000000;stroke-width:0.8;" x="246.399079" xlink:href="#m4a35d5e5af" y="193.94928"/>
      </g>
     </g>
    </g>
    <g id="xtick_23">
     <g id="line2d_35">
      <g>
       <use style="stroke:#000000;stroke-width:0.8;" x="297.76847" xlink:href="#m4a35d5e5af" y="193.94928"/>
      </g>
     </g>
    </g>
    <g id="xtick_24">
     <g id="line2d_36">
      <g>
       <use style="stroke:#000000;stroke-width:0.8;" x="349.13786" xlink:href="#m4a35d5e5af" y="193.94928"/>
      </g>
     </g>
    </g>
    <g id="xtick_25">
     <g id="line2d_37">
      <g>
       <use style="stroke:#000000;stroke-width:0.8;" x="400.50725" xlink:href="#m4a35d5e5af" y="193.94928"/>
      </g>
     </g>
    </g>
    <g id="xtick_26">
     <g id="line2d_38">
      <g>
       <use style="stroke:#000000;stroke-width:0.8;" x="451.87664" xlink:href="#m4a35d5e5af" y="193.94928"/>
      </g>
     </g>
    </g>
    <g id="xtick_27">
     <g id="line2d_39">
      <g>
       <use style="stroke:#000000;stroke-width:0.8;" x="503.24603" xlink:href="#m4a35d5e5af" y="193.94928"/>
      </g>
     </g>
    </g>
   </g>
   <g id="matplotlib.axis_6">
    <g id="ytick_9">
     <g id="line2d_40">
      <g>
       <use style="stroke:#000000;stroke-width:0.8;" x="72" xlink:href="#m7249c66385" y="187.177846"/>
      </g>
     </g>
     <g id="text_11">
      <!-- 0.66 -->
      <g transform="translate(42.734375 190.977065)scale(0.1 -0.1)">
       <use xlink:href="#DejaVuSans-30"/>
       <use x="63.623047" xlink:href="#DejaVuSans-2e"/>
       <use x="95.410156" xlink:href="#DejaVuSans-36"/>
       <use x="159.033203" xlink:href="#DejaVuSans-36"/>
      </g>
     </g>
    </g>
    <g id="ytick_10">
     <g id="line2d_41">
      <g>
       <use style="stroke:#000000;stroke-width:0.8;" x="72" xlink:href="#m7249c66385" y="172.130215"/>
      </g>
     </g>
     <g id="text_12">
      <!-- 0.74 -->
      <g transform="translate(42.734375 175.929434)scale(0.1 -0.1)">
       <use xlink:href="#DejaVuSans-30"/>
       <use x="63.623047" xlink:href="#DejaVuSans-2e"/>
       <use x="95.410156" xlink:href="#DejaVuSans-37"/>
       <use x="159.033203" xlink:href="#DejaVuSans-34"/>
      </g>
     </g>
    </g>
    <g id="ytick_11">
     <g id="line2d_42">
      <g>
       <use style="stroke:#000000;stroke-width:0.8;" x="72" xlink:href="#m7249c66385" y="157.082585"/>
      </g>
     </g>
     <g id="text_13">
      <!-- 0.83 -->
      <defs>
       <path d="M 31.78125 34.625 
Q 24.75 34.625 20.71875 30.859375 
Q 16.703125 27.09375 16.703125 20.515625 
Q 16.703125 13.921875 20.71875 10.15625 
Q 24.75 6.390625 31.78125 6.390625 
Q 38.8125 6.390625 42.859375 10.171875 
Q 46.921875 13.96875 46.921875 20.515625 
Q 46.921875 27.09375 42.890625 30.859375 
Q 38.875 34.625 31.78125 34.625 
z
M 21.921875 38.8125 
Q 15.578125 40.375 12.03125 44.71875 
Q 8.5 49.078125 8.5 55.328125 
Q 8.5 64.0625 14.71875 69.140625 
Q 20.953125 74.21875 31.78125 74.21875 
Q 42.671875 74.21875 48.875 69.140625 
Q 55.078125 64.0625 55.078125 55.328125 
Q 55.078125 49.078125 51.53125 44.71875 
Q 48 40.375 41.703125 38.8125 
Q 48.828125 37.15625 52.796875 32.3125 
Q 56.78125 27.484375 56.78125 20.515625 
Q 56.78125 9.90625 50.3125 4.234375 
Q 43.84375 -1.421875 31.78125 -1.421875 
Q 19.734375 -1.421875 13.25 4.234375 
Q 6.78125 9.90625 6.78125 20.515625 
Q 6.78125 27.484375 10.78125 32.3125 
Q 14.796875 37.15625 21.921875 38.8125 
z
M 18.3125 54.390625 
Q 18.3125 48.734375 21.84375 45.5625 
Q 25.390625 42.390625 31.78125 42.390625 
Q 38.140625 42.390625 41.71875 45.5625 
Q 45.3125 48.734375 45.3125 54.390625 
Q 45.3125 60.0625 41.71875 63.234375 
Q 38.140625 66.40625 31.78125 66.40625 
Q 25.390625 66.40625 21.84375 63.234375 
Q 18.3125 60.0625 18.3125 54.390625 
z
" id="DejaVuSans-38"/>
      </defs>
      <g transform="translate(42.734375 160.881803)scale(0.1 -0.1)">
       <use xlink:href="#DejaVuSans-30"/>
       <use x="63.623047" xlink:href="#DejaVuSans-2e"/>
       <use x="95.410156" xlink:href="#DejaVuSans-38"/>
       <use x="159.033203" xlink:href="#DejaVuSans-33"/>
      </g>
     </g>
    </g>
    <g id="ytick_12">
     <g id="line2d_43">
      <g>
       <use style="stroke:#000000;stroke-width:0.8;" x="72" xlink:href="#m7249c66385" y="142.034954"/>
      </g>
     </g>
     <g id="text_14">
      <!-- 0.91 -->
      <g transform="translate(42.734375 145.834173)scale(0.1 -0.1)">
       <use xlink:href="#DejaVuSans-30"/>
       <use x="63.623047" xlink:href="#DejaVuSans-2e"/>
       <use x="95.410156" xlink:href="#DejaVuSans-39"/>
       <use x="159.033203" xlink:href="#DejaVuSans-31"/>
      </g>
     </g>
    </g>
    <g id="text_15">
     <!-- $s_{50}$ -->
     <g transform="translate(36.654688 171.8064)rotate(-90)scale(0.1 -0.1)">
      <use xlink:href="#DejaVuSans-Oblique-73"/>
      <use transform="translate(52.099609 -16.40625)scale(0.7)" xlink:href="#DejaVuSans-35"/>
      <use transform="translate(96.635742 -16.40625)scale(0.7)" xlink:href="#DejaVuSans-30"/>
     </g>
    </g>
   </g>
   <g id="line2d_44">
    <path clip-path="url(#p78e89c1061)" d="M 92.290909 164.531508 
L 97.427848 164.22704 
L 102.564787 163.446634 
L 107.701726 162.61259 
L 112.838665 161.515764 
L 117.975604 161.201363 
L 123.112543 161.678963 
L 128.249482 162.064942 
L 133.386421 163.930089 
L 138.52336 165.87872 
L 143.660299 168.754702 
L 148.797238 170.946047 
L 153.934177 173.488337 
L 159.071116 176.501419 
L 164.208055 179.381127 
L 169.344994 181.801727 
L 174.481933 183.617448 
L 179.618872 184.947209 
L 184.755811 186.092063 
L 189.89275 186.741245 
L 195.029689 187.099772 
L 200.166628 187.177846 
L 205.303567 186.738717 
L 210.440506 185.975806 
L 215.577445 184.998541 
L 220.714384 183.713904 
L 225.851323 182.191076 
L 230.988262 180.46385 
L 236.125201 178.942885 
L 241.26214 177.479771 
L 246.399079 176.04719 
L 251.536018 174.814927 
L 256.672957 173.464411 
L 261.809896 172.137732 
L 266.946835 170.80225 
L 272.083774 169.697309 
L 277.220713 168.549972 
L 282.357652 167.280767 
L 287.494591 165.832399 
L 292.63153 164.330702 
L 297.76847 162.747273 
L 302.905409 161.448378 
L 308.042348 160.002538 
L 313.179287 159.150621 
L 318.316226 158.551575 
L 323.453165 158.057388 
L 328.590104 158.704662 
L 333.727043 159.574185 
L 338.863982 160.574953 
L 344.000921 160.224431 
L 349.13786 161.635414 
L 354.274799 162.05237 
L 359.411738 161.454432 
L 364.548677 159.366705 
L 369.685616 158.068142 
L 374.822555 157.785449 
L 379.959494 157.428628 
L 385.096433 156.856523 
L 390.233372 157.388605 
L 395.370311 159.294307 
L 400.50725 160.811503 
L 405.644189 160.391355 
L 410.781128 158.292053 
L 415.918067 157.01919 
L 421.055006 157.257403 
L 426.191945 158.561753 
L 431.328884 162.010594 
L 436.465823 164.349861 
L 441.602762 166.211992 
L 446.739701 168.080464 
L 451.87664 169.526793 
L 457.013579 170.53836 
L 462.150518 171.171732 
L 467.287457 171.521368 
L 472.424396 171.478661 
L 477.561335 171.29779 
L 482.698274 170.96199 
L 487.835213 170.85019 
L 492.972152 170.77511 
L 498.109091 170.833272 
" style="fill:none;stroke:#1f77b4;stroke-linecap:square;stroke-width:1.5;"/>
   </g>
   <g id="line2d_45">
    <path clip-path="url(#p78e89c1061)" d="M 92.290909 149.032353 
L 97.427848 149.139485 
L 102.564787 149.385648 
L 107.701726 149.813269 
L 112.838665 150.472417 
L 117.975604 151.419248 
L 123.112543 152.710094 
L 128.249482 154.391332 
L 133.386421 156.48631 
L 138.52336 158.98301 
L 143.660299 161.826485 
L 148.797238 164.919871 
L 153.934177 168.134058 
L 159.071116 171.323744 
L 164.208055 174.34471 
L 169.344994 177.068381 
L 174.481933 179.391161 
L 179.618872 181.238524 
L 184.755811 182.565092 
L 189.89275 183.352527 
L 195.029689 183.606528 
L 200.166628 183.35388 
L 205.303567 182.639851 
L 210.440506 181.525652 
L 215.577445 180.085566 
L 220.714384 178.403386 
L 225.851323 176.567752 
L 230.988262 174.666529 
L 236.125201 172.780772 
L 241.26214 170.978942 
L 246.399079 169.312306 
L 251.536018 167.812062 
L 256.672957 166.488521 
L 261.809896 165.33197 
L 266.946835 164.314981 
L 272.083774 163.395768 
L 277.220713 162.522132 
L 282.357652 161.636212 
L 287.494591 160.679647 
L 292.63153 159.599341 
L 297.76847 158.35343 
L 302.905409 156.917246 
L 308.042348 155.288627 
L 313.179287 153.491997 
L 318.316226 151.579831 
L 323.453165 149.630546 
L 328.590104 147.741385 
L 333.727043 146.016376 
L 338.863982 144.550302 
L 344.000921 143.411978 
L 349.13786 142.630974 
L 354.274799 142.191434 
L 359.411738 142.034954 
L 364.548677 142.072161 
L 369.685616 142.20098 
L 374.822555 142.32818 
L 379.959494 142.390022 
L 385.096433 142.36705 
L 390.233372 142.288988 
L 395.370311 142.227688 
L 400.50725 142.279686 
L 405.644189 142.542633 
L 410.781128 143.092011 
L 415.918067 143.963994 
L 421.055006 145.148306 
L 426.191945 146.591808 
L 431.328884 148.21077 
L 436.465823 149.907651 
L 441.602762 151.587769 
L 446.739701 153.172506 
L 451.87664 154.607316 
L 457.013579 155.864768 
L 462.150518 156.943688 
L 467.287457 157.86554 
L 472.424396 158.669384 
L 477.561335 159.406096 
L 482.698274 160.132554 
L 487.835213 160.905997 
L 492.972152 161.778989 
L 498.109091 162.794703 
" style="fill:none;stroke:#ff7f0e;stroke-linecap:square;stroke-width:1.5;"/>
   </g>
   <g id="patch_13">
    <path d="M 72 193.94928 
L 72 135.26352 
" style="fill:none;stroke:#000000;stroke-linecap:square;stroke-linejoin:miter;stroke-width:0.8;"/>
   </g>
   <g id="patch_14">
    <path d="M 518.4 193.94928 
L 518.4 135.26352 
" style="fill:none;stroke:#000000;stroke-linecap:square;stroke-linejoin:miter;stroke-width:0.8;"/>
   </g>
   <g id="patch_15">
    <path d="M 72 193.94928 
L 518.4 193.94928 
" style="fill:none;stroke:#000000;stroke-linecap:square;stroke-linejoin:miter;stroke-width:0.8;"/>
   </g>
   <g id="patch_16">
    <path d="M 72 135.26352 
L 518.4 135.26352 
" style="fill:none;stroke:#000000;stroke-linecap:square;stroke-linejoin:miter;stroke-width:0.8;"/>
   </g>
  </g>
  <g id="axes_4">
   <g id="patch_17">
    <path d="M 72 252.63504 
L 518.4 252.63504 
L 518.4 193.94928 
L 72 193.94928 
z
" style="fill:#ffffff;"/>
   </g>
   <g id="matplotlib.axis_7">
    <g id="xtick_28">
     <g id="line2d_46">
      <g>
       <use style="stroke:#000000;stroke-width:0.8;" x="92.290909" xlink:href="#m4a35d5e5af" y="252.63504"/>
      </g>
     </g>
    </g>
    <g id="xtick_29">
     <g id="line2d_47">
      <g>
       <use style="stroke:#000000;stroke-width:0.8;" x="143.660299" xlink:href="#m4a35d5e5af" y="252.63504"/>
      </g>
     </g>
    </g>
    <g id="xtick_30">
     <g id="line2d_48">
      <g>
       <use style="stroke:#000000;stroke-width:0.8;" x="195.029689" xlink:href="#m4a35d5e5af" y="252.63504"/>
      </g>
     </g>
    </g>
    <g id="xtick_31">
     <g id="line2d_49">
      <g>
       <use style="stroke:#000000;stroke-width:0.8;" x="246.399079" xlink:href="#m4a35d5e5af" y="252.63504"/>
      </g>
     </g>
    </g>
    <g id="xtick_32">
     <g id="line2d_50">
      <g>
       <use style="stroke:#000000;stroke-width:0.8;" x="297.76847" xlink:href="#m4a35d5e5af" y="252.63504"/>
      </g>
     </g>
    </g>
    <g id="xtick_33">
     <g id="line2d_51">
      <g>
       <use style="stroke:#000000;stroke-width:0.8;" x="349.13786" xlink:href="#m4a35d5e5af" y="252.63504"/>
      </g>
     </g>
    </g>
    <g id="xtick_34">
     <g id="line2d_52">
      <g>
       <use style="stroke:#000000;stroke-width:0.8;" x="400.50725" xlink:href="#m4a35d5e5af" y="252.63504"/>
      </g>
     </g>
    </g>
    <g id="xtick_35">
     <g id="line2d_53">
      <g>
       <use style="stroke:#000000;stroke-width:0.8;" x="451.87664" xlink:href="#m4a35d5e5af" y="252.63504"/>
      </g>
     </g>
    </g>
    <g id="xtick_36">
     <g id="line2d_54">
      <g>
       <use style="stroke:#000000;stroke-width:0.8;" x="503.24603" xlink:href="#m4a35d5e5af" y="252.63504"/>
      </g>
     </g>
    </g>
   </g>
   <g id="matplotlib.axis_8">
    <g id="ytick_13">
     <g id="line2d_55">
      <g>
       <use style="stroke:#000000;stroke-width:0.8;" x="72" xlink:href="#m7249c66385" y="245.863606"/>
      </g>
     </g>
     <g id="text_16">
      <!-- 3.06 -->
      <g transform="translate(42.734375 249.662825)scale(0.1 -0.1)">
       <use xlink:href="#DejaVuSans-33"/>
       <use x="63.623047" xlink:href="#DejaVuSans-2e"/>
       <use x="95.410156" xlink:href="#DejaVuSans-30"/>
       <use x="159.033203" xlink:href="#DejaVuSans-36"/>
      </g>
     </g>
    </g>
    <g id="ytick_14">
     <g id="line2d_56">
      <g>
       <use style="stroke:#000000;stroke-width:0.8;" x="72" xlink:href="#m7249c66385" y="230.815975"/>
      </g>
     </g>
     <g id="text_17">
      <!-- 3.82 -->
      <g transform="translate(42.734375 234.615194)scale(0.1 -0.1)">
       <use xlink:href="#DejaVuSans-33"/>
       <use x="63.623047" xlink:href="#DejaVuSans-2e"/>
       <use x="95.410156" xlink:href="#DejaVuSans-38"/>
       <use x="159.033203" xlink:href="#DejaVuSans-32"/>
      </g>
     </g>
    </g>
    <g id="ytick_15">
     <g id="line2d_57">
      <g>
       <use style="stroke:#000000;stroke-width:0.8;" x="72" xlink:href="#m7249c66385" y="215.768345"/>
      </g>
     </g>
     <g id="text_18">
      <!-- 4.57 -->
      <g transform="translate(42.734375 219.567563)scale(0.1 -0.1)">
       <use xlink:href="#DejaVuSans-34"/>
       <use x="63.623047" xlink:href="#DejaVuSans-2e"/>
       <use x="95.410156" xlink:href="#DejaVuSans-35"/>
       <use x="159.033203" xlink:href="#DejaVuSans-37"/>
      </g>
     </g>
    </g>
    <g id="ytick_16">
     <g id="line2d_58">
      <g>
       <use style="stroke:#000000;stroke-width:0.8;" x="72" xlink:href="#m7249c66385" y="200.720714"/>
      </g>
     </g>
     <g id="text_19">
      <!-- 5.33 -->
      <g transform="translate(42.734375 204.519933)scale(0.1 -0.1)">
       <use xlink:href="#DejaVuSans-35"/>
       <use x="63.623047" xlink:href="#DejaVuSans-2e"/>
       <use x="95.410156" xlink:href="#DejaVuSans-33"/>
       <use x="159.033203" xlink:href="#DejaVuSans-33"/>
      </g>
     </g>
    </g>
    <g id="text_20">
     <!-- $s_{75}$ -->
     <g transform="translate(36.654688 230.49216)rotate(-90)scale(0.1 -0.1)">
      <use xlink:href="#DejaVuSans-Oblique-73"/>
      <use transform="translate(52.099609 -16.40625)scale(0.7)" xlink:href="#DejaVuSans-37"/>
      <use transform="translate(96.635742 -16.40625)scale(0.7)" xlink:href="#DejaVuSans-35"/>
     </g>
    </g>
   </g>
   <g id="line2d_59">
    <path clip-path="url(#p7c299fb939)" d="M 92.290909 245.863606 
L 97.427848 245.076205 
L 102.564787 243.359056 
L 107.701726 240.885186 
L 112.838665 238.117959 
L 117.975604 234.500797 
L 123.112543 230.895394 
L 128.249482 228.415611 
L 133.386421 225.27752 
L 138.52336 221.487387 
L 143.660299 217.259941 
L 148.797238 213.508598 
L 153.934177 211.463563 
L 159.071116 210.056302 
L 164.208055 209.281502 
L 169.344994 208.473594 
L 174.481933 207.641004 
L 179.618872 206.558551 
L 184.755811 205.412655 
L 189.89275 204.482131 
L 195.029689 203.84982 
L 200.166628 203.532822 
L 205.303567 203.378953 
L 210.440506 203.430117 
L 215.577445 203.762822 
L 220.714384 204.144569 
L 225.851323 204.482273 
L 230.988262 204.670879 
L 236.125201 204.983332 
L 241.26214 205.018761 
L 246.399079 204.861313 
L 251.536018 204.375184 
L 256.672957 203.92026 
L 261.809896 203.507222 
L 266.946835 203.24224 
L 272.083774 202.93719 
L 277.220713 202.694684 
L 282.357652 202.616812 
L 287.494591 202.740565 
L 292.63153 203.063546 
L 297.76847 203.410765 
L 302.905409 204.284379 
L 308.042348 205.39958 
L 313.179287 207.08737 
L 318.316226 208.989244 
L 323.453165 210.786745 
L 328.590104 213.859377 
L 333.727043 216.254338 
L 338.863982 217.367608 
L 344.000921 217.479185 
L 349.13786 220.431312 
L 354.274799 224.163928 
L 359.411738 229.016678 
L 364.548677 231.206474 
L 369.685616 232.070583 
L 374.822555 232.297259 
L 379.959494 232.251264 
L 385.096433 231.544784 
L 390.233372 229.897204 
L 395.370311 227.83293 
L 400.50725 223.996113 
L 405.644189 222.487395 
L 410.781128 221.431831 
L 415.918067 221.423831 
L 421.055006 220.632908 
L 426.191945 218.325854 
L 431.328884 216.428449 
L 436.465823 214.350808 
L 441.602762 212.479751 
L 446.739701 210.458395 
L 451.87664 209.304272 
L 457.013579 208.977504 
L 462.150518 208.613508 
L 467.287457 208.48968 
L 472.424396 208.663015 
L 477.561335 208.611444 
L 482.698274 208.23514 
L 487.835213 207.544452 
L 492.972152 206.437554 
L 498.109091 205.390226 
" style="fill:none;stroke:#1f77b4;stroke-linecap:square;stroke-width:1.5;"/>
   </g>
   <g id="line2d_60">
    <path clip-path="url(#p7c299fb939)" d="M 92.290909 237.139083 
L 97.427848 236.855705 
L 102.564787 236.26324 
L 107.701726 235.326661 
L 112.838665 234.036803 
L 117.975604 232.414289 
L 123.112543 230.509968 
L 128.249482 228.4014 
L 133.386421 226.185397 
L 138.52336 223.967369 
L 143.660299 221.849082 
L 148.797238 219.916751 
L 153.934177 218.231783 
L 159.071116 216.825885 
L 164.208055 215.701291 
L 169.344994 214.835639 
L 174.481933 214.18979 
L 179.618872 213.716736 
L 184.755811 213.369735 
L 189.89275 213.108464 
L 195.029689 212.902646 
L 200.166628 212.733107 
L 205.303567 212.590656 
L 210.440506 212.473399 
L 215.577445 212.383001 
L 220.714384 212.321035 
L 225.851323 212.285777 
L 230.988262 212.270487 
L 236.125201 212.263272 
L 241.26214 212.248635 
L 246.399079 212.210035 
L 251.536018 212.133025 
L 256.672957 212.007786 
L 261.809896 211.830778 
L 266.946835 211.604982 
L 272.083774 211.339101 
L 277.220713 211.045933 
L 282.357652 210.740514 
L 287.494591 210.438494 
L 292.63153 210.154974 
L 297.76847 209.903786 
L 302.905409 209.69686 
L 308.042348 209.543398 
L 313.179287 209.448361 
L 318.316226 209.410235 
L 323.453165 209.418225 
L 328.590104 209.449971 
L 333.727043 209.470885 
L 338.863982 209.436489 
L 344.000921 209.298762 
L 349.13786 209.015772 
L 354.274799 208.562723 
L 359.411738 207.940799 
L 364.548677 207.179917 
L 369.685616 206.33356 
L 374.822555 205.466498 
L 379.959494 204.639778 
L 385.096433 203.898106 
L 390.233372 203.263192 
L 395.370311 202.734401 
L 400.50725 202.295478 
L 405.644189 201.92459 
L 410.781128 201.603824 
L 415.918067 201.324754 
L 421.055006 201.088885 
L 426.191945 200.904028 
L 431.328884 200.779243 
L 436.465823 200.720714 
L 441.602762 200.72968 
L 446.739701 200.802676 
L 451.87664 200.933094 
L 457.013579 201.113103 
L 462.150518 201.335178 
L 467.287457 201.592841 
L 472.424396 201.880679 
L 477.561335 202.193842 
L 482.698274 202.527513 
L 487.835213 202.876634 
L 492.972152 203.23601 
L 498.109091 203.600981 
" style="fill:none;stroke:#ff7f0e;stroke-linecap:square;stroke-width:1.5;"/>
   </g>
   <g id="patch_18">
    <path d="M 72 252.63504 
L 72 193.94928 
" style="fill:none;stroke:#000000;stroke-linecap:square;stroke-linejoin:miter;stroke-width:0.8;"/>
   </g>
   <g id="patch_19">
    <path d="M 518.4 252.63504 
L 518.4 193.94928 
" style="fill:none;stroke:#000000;stroke-linecap:square;stroke-linejoin:miter;stroke-width:0.8;"/>
   </g>
   <g id="patch_20">
    <path d="M 72 252.63504 
L 518.4 252.63504 
" style="fill:none;stroke:#000000;stroke-linecap:square;stroke-linejoin:miter;stroke-width:0.8;"/>
   </g>
   <g id="patch_21">
    <path d="M 72 193.94928 
L 518.4 193.94928 
" style="fill:none;stroke:#000000;stroke-linecap:square;stroke-linejoin:miter;stroke-width:0.8;"/>
   </g>
  </g>
  <g id="axes_5">
   <g id="patch_22">
    <path d="M 72 311.3208 
L 518.4 311.3208 
L 518.4 252.63504 
L 72 252.63504 
z
" style="fill:#ffffff;"/>
   </g>
   <g id="matplotlib.axis_9">
    <g id="xtick_37">
     <g id="line2d_61">
      <g>
       <use style="stroke:#000000;stroke-width:0.8;" x="92.290909" xlink:href="#m4a35d5e5af" y="311.3208"/>
      </g>
     </g>
     <g id="text_21">
      <!-- 0 -->
      <g transform="translate(89.109659 325.919237)scale(0.1 -0.1)">
       <use xlink:href="#DejaVuSans-30"/>
      </g>
     </g>
    </g>
    <g id="xtick_38">
     <g id="line2d_62">
      <g>
       <use style="stroke:#000000;stroke-width:0.8;" x="143.660299" xlink:href="#m4a35d5e5af" y="311.3208"/>
      </g>
     </g>
     <g id="text_22">
      <!-- 10 -->
      <g transform="translate(137.297799 325.919237)scale(0.1 -0.1)">
       <use xlink:href="#DejaVuSans-31"/>
       <use x="63.623047" xlink:href="#DejaVuSans-30"/>
      </g>
     </g>
    </g>
    <g id="xtick_39">
     <g id="line2d_63">
      <g>
       <use style="stroke:#000000;stroke-width:0.8;" x="195.029689" xlink:href="#m4a35d5e5af" y="311.3208"/>
      </g>
     </g>
     <g id="text_23">
      <!-- 20 -->
      <g transform="translate(188.667189 325.919237)scale(0.1 -0.1)">
       <use xlink:href="#DejaVuSans-32"/>
       <use x="63.623047" xlink:href="#DejaVuSans-30"/>
      </g>
     </g>
    </g>
    <g id="xtick_40">
     <g id="line2d_64">
      <g>
       <use style="stroke:#000000;stroke-width:0.8;" x="246.399079" xlink:href="#m4a35d5e5af" y="311.3208"/>
      </g>
     </g>
     <g id="text_24">
      <!-- 30 -->
      <g transform="translate(240.036579 325.919237)scale(0.1 -0.1)">
       <use xlink:href="#DejaVuSans-33"/>
       <use x="63.623047" xlink:href="#DejaVuSans-30"/>
      </g>
     </g>
    </g>
    <g id="xtick_41">
     <g id="line2d_65">
      <g>
       <use style="stroke:#000000;stroke-width:0.8;" x="297.76847" xlink:href="#m4a35d5e5af" y="311.3208"/>
      </g>
     </g>
     <g id="text_25">
      <!-- 40 -->
      <g transform="translate(291.40597 325.919237)scale(0.1 -0.1)">
       <use xlink:href="#DejaVuSans-34"/>
       <use x="63.623047" xlink:href="#DejaVuSans-30"/>
      </g>
     </g>
    </g>
    <g id="xtick_42">
     <g id="line2d_66">
      <g>
       <use style="stroke:#000000;stroke-width:0.8;" x="349.13786" xlink:href="#m4a35d5e5af" y="311.3208"/>
      </g>
     </g>
     <g id="text_26">
      <!-- 50 -->
      <g transform="translate(342.77536 325.919237)scale(0.1 -0.1)">
       <use xlink:href="#DejaVuSans-35"/>
       <use x="63.623047" xlink:href="#DejaVuSans-30"/>
      </g>
     </g>
    </g>
    <g id="xtick_43">
     <g id="line2d_67">
      <g>
       <use style="stroke:#000000;stroke-width:0.8;" x="400.50725" xlink:href="#m4a35d5e5af" y="311.3208"/>
      </g>
     </g>
     <g id="text_27">
      <!-- 60 -->
      <g transform="translate(394.14475 325.919237)scale(0.1 -0.1)">
       <use xlink:href="#DejaVuSans-36"/>
       <use x="63.623047" xlink:href="#DejaVuSans-30"/>
      </g>
     </g>
    </g>
    <g id="xtick_44">
     <g id="line2d_68">
      <g>
       <use style="stroke:#000000;stroke-width:0.8;" x="451.87664" xlink:href="#m4a35d5e5af" y="311.3208"/>
      </g>
     </g>
     <g id="text_28">
      <!-- 70 -->
      <g transform="translate(445.51414 325.919237)scale(0.1 -0.1)">
       <use xlink:href="#DejaVuSans-37"/>
       <use x="63.623047" xlink:href="#DejaVuSans-30"/>
      </g>
     </g>
    </g>
    <g id="xtick_45">
     <g id="line2d_69">
      <g>
       <use style="stroke:#000000;stroke-width:0.8;" x="503.24603" xlink:href="#m4a35d5e5af" y="311.3208"/>
      </g>
     </g>
     <g id="text_29">
      <!-- 80 -->
      <g transform="translate(496.88353 325.919237)scale(0.1 -0.1)">
       <use xlink:href="#DejaVuSans-38"/>
       <use x="63.623047" xlink:href="#DejaVuSans-30"/>
      </g>
     </g>
    </g>
   </g>
   <g id="matplotlib.axis_10">
    <g id="ytick_17">
     <g id="line2d_70">
      <g>
       <use style="stroke:#000000;stroke-width:0.8;" x="72" xlink:href="#m7249c66385" y="304.549366"/>
      </g>
     </g>
     <g id="text_30">
      <!-- -11.82 -->
      <g transform="translate(32.764063 308.348585)scale(0.1 -0.1)">
       <use xlink:href="#DejaVuSans-2d"/>
       <use x="36.083984" xlink:href="#DejaVuSans-31"/>
       <use x="99.707031" xlink:href="#DejaVuSans-31"/>
       <use x="163.330078" xlink:href="#DejaVuSans-2e"/>
       <use x="195.117188" xlink:href="#DejaVuSans-38"/>
       <use x="258.740234" xlink:href="#DejaVuSans-32"/>
      </g>
     </g>
    </g>
    <g id="ytick_18">
     <g id="line2d_71">
      <g>
       <use style="stroke:#000000;stroke-width:0.8;" x="72" xlink:href="#m7249c66385" y="289.501735"/>
      </g>
     </g>
     <g id="text_31">
      <!-- -10.60 -->
      <g transform="translate(32.764063 293.300954)scale(0.1 -0.1)">
       <use xlink:href="#DejaVuSans-2d"/>
       <use x="36.083984" xlink:href="#DejaVuSans-31"/>
       <use x="99.707031" xlink:href="#DejaVuSans-30"/>
       <use x="163.330078" xlink:href="#DejaVuSans-2e"/>
       <use x="195.117188" xlink:href="#DejaVuSans-36"/>
       <use x="258.740234" xlink:href="#DejaVuSans-30"/>
      </g>
     </g>
    </g>
    <g id="ytick_19">
     <g id="line2d_72">
      <g>
       <use style="stroke:#000000;stroke-width:0.8;" x="72" xlink:href="#m7249c66385" y="274.454105"/>
      </g>
     </g>
     <g id="text_32">
      <!-- -9.37 -->
      <g transform="translate(39.126562 278.253323)scale(0.1 -0.1)">
       <use xlink:href="#DejaVuSans-2d"/>
       <use x="36.083984" xlink:href="#DejaVuSans-39"/>
       <use x="99.707031" xlink:href="#DejaVuSans-2e"/>
       <use x="131.494141" xlink:href="#DejaVuSans-33"/>
       <use x="195.117188" xlink:href="#DejaVuSans-37"/>
      </g>
     </g>
    </g>
    <g id="ytick_20">
     <g id="line2d_73">
      <g>
       <use style="stroke:#000000;stroke-width:0.8;" x="72" xlink:href="#m7249c66385" y="259.406474"/>
      </g>
     </g>
     <g id="text_33">
      <!-- -8.15 -->
      <g transform="translate(39.126562 263.205693)scale(0.1 -0.1)">
       <use xlink:href="#DejaVuSans-2d"/>
       <use x="36.083984" xlink:href="#DejaVuSans-38"/>
       <use x="99.707031" xlink:href="#DejaVuSans-2e"/>
       <use x="131.494141" xlink:href="#DejaVuSans-31"/>
       <use x="195.117188" xlink:href="#DejaVuSans-35"/>
      </g>
     </g>
    </g>
    <g id="text_34">
     <!-- $s_{92}$ -->
     <g transform="translate(26.684375 289.17792)rotate(-90)scale(0.1 -0.1)">
      <use xlink:href="#DejaVuSans-Oblique-73"/>
      <use transform="translate(52.099609 -16.40625)scale(0.7)" xlink:href="#DejaVuSans-39"/>
      <use transform="translate(96.624805 -16.40625)scale(0.7)" xlink:href="#DejaVuSans-32"/>
     </g>
    </g>
   </g>
   <g id="line2d_74">
    <path clip-path="url(#p1fba4a0dbe)" d="M 92.290909 299.741811 
L 97.427848 299.387608 
L 102.564787 298.537086 
L 107.701726 297.452324 
L 112.838665 296.131336 
L 117.975604 294.739895 
L 123.112543 293.289624 
L 128.249482 292.101876 
L 133.386421 290.009039 
L 138.52336 287.84347 
L 143.660299 284.530681 
L 148.797238 281.150316 
L 153.934177 277.311799 
L 159.071116 273.711597 
L 164.208055 271.292428 
L 169.344994 269.025671 
L 174.481933 267.048545 
L 179.618872 265.441471 
L 184.755811 264.473089 
L 189.89275 264.042411 
L 195.029689 263.878259 
L 200.166628 264.010149 
L 205.303567 264.536369 
L 210.440506 265.256269 
L 215.577445 266.160161 
L 220.714384 267.142971 
L 225.851323 268.099988 
L 230.988262 269.050548 
L 236.125201 269.992373 
L 241.26214 270.895315 
L 246.399079 271.714807 
L 251.536018 272.332038 
L 256.672957 273.081746 
L 261.809896 273.845107 
L 266.946835 274.605581 
L 272.083774 274.928496 
L 277.220713 275.302575 
L 282.357652 275.686082 
L 287.494591 276.276944 
L 292.63153 277.001739 
L 297.76847 278.013654 
L 302.905409 279.528696 
L 308.042348 281.494586 
L 313.179287 283.440565 
L 318.316226 286.153511 
L 323.453165 288.610859 
L 328.590104 290.716317 
L 333.727043 292.221357 
L 338.863982 293.373579 
L 344.000921 294.804561 
L 349.13786 297.769651 
L 354.274799 298.944555 
L 359.411738 300.448655 
L 364.548677 301.963356 
L 369.685616 302.709155 
L 374.822555 303.229118 
L 379.959494 303.933227 
L 385.096433 304.437306 
L 390.233372 304.549366 
L 395.370311 303.536888 
L 400.50725 302.070521 
L 405.644189 300.636534 
L 410.781128 299.011145 
L 415.918067 299.13855 
L 421.055006 299.779145 
L 426.191945 299.604966 
L 431.328884 297.92697 
L 436.465823 296.478518 
L 441.602762 294.765982 
L 446.739701 292.527624 
L 451.87664 290.91758 
L 457.013579 289.831397 
L 462.150518 288.719914 
L 467.287457 287.677052 
L 472.424396 286.621805 
L 477.561335 285.655455 
L 482.698274 284.571643 
L 487.835213 283.344824 
L 492.972152 282.027534 
L 498.109091 280.613411 
" style="fill:none;stroke:#1f77b4;stroke-linecap:square;stroke-width:1.5;"/>
   </g>
   <g id="line2d_75">
    <path clip-path="url(#p1fba4a0dbe)" d="M 92.290909 287.7219 
L 97.427848 287.592088 
L 102.564787 287.316205 
L 107.701726 286.866471 
L 112.838665 286.217307 
L 117.975604 285.346052 
L 123.112543 284.234252 
L 128.249482 282.86979 
L 133.386421 281.250096 
L 138.52336 279.385805 
L 143.660299 277.304367 
L 148.797238 275.052027 
L 153.934177 272.693402 
L 159.071116 270.307951 
L 164.208055 267.983889 
L 169.344994 265.810619 
L 174.481933 263.870874 
L 179.618872 262.23391 
L 184.755811 260.950596 
L 189.89275 260.050402 
L 195.029689 259.540477 
L 200.166628 259.406474 
L 205.303567 259.614757 
L 210.440506 260.115866 
L 215.577445 260.848844 
L 220.714384 261.746267 
L 225.851323 262.739538 
L 230.988262 263.763862 
L 236.125201 264.762615 
L 241.26214 265.690634 
L 246.399079 266.516242 
L 251.536018 267.222018 
L 256.672957 267.804604 
L 261.809896 268.273662 
L 266.946835 268.650241 
L 272.083774 268.964762 
L 277.220713 269.254464 
L 282.357652 269.560474 
L 287.494591 269.924421 
L 292.63153 270.384791 
L 297.76847 270.973152 
L 302.905409 271.710733 
L 308.042348 272.605726 
L 313.179287 273.651804 
L 318.316226 274.828188 
L 323.453165 276.10144 
L 328.590104 277.428955 
L 333.727043 278.763444 
L 338.863982 280.057746 
L 344.000921 281.268892 
L 349.13786 282.360581 
L 354.274799 283.303897 
L 359.411738 284.07671 
L 364.548677 284.662254 
L 369.685616 285.04812 
L 374.822555 285.225738 
L 379.959494 285.190365 
L 385.096433 284.94132 
L 390.233372 284.482089 
L 395.370311 283.820127 
L 400.50725 282.966964 
L 405.644189 281.93859 
L 410.781128 280.756548 
L 415.918067 279.449226 
L 421.055006 278.052549 
L 426.191945 276.609357 
L 431.328884 275.167034 
L 436.465823 273.773515 
L 441.602762 272.472533 
L 446.739701 271.298991 
L 451.87664 270.275372 
L 457.013579 269.409752 
L 462.150518 268.6955 
L 467.287457 268.112703 
L 472.424396 267.630743 
L 477.561335 267.211675 
L 482.698274 266.814022 
L 487.835213 266.396457 
L 492.972152 265.921283 
L 498.109091 265.357434 
" style="fill:none;stroke:#ff7f0e;stroke-linecap:square;stroke-width:1.5;"/>
   </g>
   <g id="patch_23">
    <path d="M 72 311.3208 
L 72 252.63504 
" style="fill:none;stroke:#000000;stroke-linecap:square;stroke-linejoin:miter;stroke-width:0.8;"/>
   </g>
   <g id="patch_24">
    <path d="M 518.4 311.3208 
L 518.4 252.63504 
" style="fill:none;stroke:#000000;stroke-linecap:square;stroke-linejoin:miter;stroke-width:0.8;"/>
   </g>
   <g id="patch_25">
    <path d="M 72 311.3208 
L 518.4 311.3208 
" style="fill:none;stroke:#000000;stroke-linecap:square;stroke-linejoin:miter;stroke-width:0.8;"/>
   </g>
   <g id="patch_26">
    <path d="M 72 252.63504 
L 518.4 252.63504 
" style="fill:none;stroke:#000000;stroke-linecap:square;stroke-linejoin:miter;stroke-width:0.8;"/>
   </g>
  </g>
  <g id="legend_1">
   <g id="patch_27">
    <path d="M 190.564063 352.84 
L 385.435938 352.84 
Q 387.435938 352.84 387.435938 350.84 
L 387.435938 337.161875 
Q 387.435938 335.161875 385.435938 335.161875 
L 190.564063 335.161875 
Q 188.564063 335.161875 188.564063 337.161875 
L 188.564063 350.84 
Q 188.564063 352.84 190.564063 352.84 
z
" style="fill:#ffffff;opacity:0.8;stroke:#cccccc;stroke-linejoin:miter;"/>
   </g>
   <g id="line2d_76">
    <path d="M 192.564063 343.260312 
L 212.564063 343.260312 
" style="fill:none;stroke:#1f77b4;stroke-linecap:square;stroke-width:1.5;"/>
   </g>
   <g id="line2d_77"/>
   <g id="text_35">
    <!-- Prediction -->
    <defs>
     <path d="M 19.671875 64.796875 
L 19.671875 37.40625 
L 32.078125 37.40625 
Q 38.96875 37.40625 42.71875 40.96875 
Q 46.484375 44.53125 46.484375 51.125 
Q 46.484375 57.671875 42.71875 61.234375 
Q 38.96875 64.796875 32.078125 64.796875 
z
M 9.8125 72.90625 
L 32.078125 72.90625 
Q 44.34375 72.90625 50.609375 67.359375 
Q 56.890625 61.8125 56.890625 51.125 
Q 56.890625 40.328125 50.609375 34.8125 
Q 44.34375 29.296875 32.078125 29.296875 
L 19.671875 29.296875 
L 19.671875 0 
L 9.8125 0 
z
" id="DejaVuSans-50"/>
     <path d="M 41.109375 46.296875 
Q 39.59375 47.171875 37.8125 47.578125 
Q 36.03125 48 33.890625 48 
Q 26.265625 48 22.1875 43.046875 
Q 18.109375 38.09375 18.109375 28.8125 
L 18.109375 0 
L 9.078125 0 
L 9.078125 54.6875 
L 18.109375 54.6875 
L 18.109375 46.1875 
Q 20.953125 51.171875 25.484375 53.578125 
Q 30.03125 56 36.53125 56 
Q 37.453125 56 38.578125 55.875 
Q 39.703125 55.765625 41.0625 55.515625 
z
" id="DejaVuSans-72"/>
     <path d="M 56.203125 29.59375 
L 56.203125 25.203125 
L 14.890625 25.203125 
Q 15.484375 15.921875 20.484375 11.0625 
Q 25.484375 6.203125 34.421875 6.203125 
Q 39.59375 6.203125 44.453125 7.46875 
Q 49.3125 8.734375 54.109375 11.28125 
L 54.109375 2.78125 
Q 49.265625 0.734375 44.1875 -0.34375 
Q 39.109375 -1.421875 33.890625 -1.421875 
Q 20.796875 -1.421875 13.15625 6.1875 
Q 5.515625 13.8125 5.515625 26.8125 
Q 5.515625 40.234375 12.765625 48.109375 
Q 20.015625 56 32.328125 56 
Q 43.359375 56 49.78125 48.890625 
Q 56.203125 41.796875 56.203125 29.59375 
z
M 47.21875 32.234375 
Q 47.125 39.59375 43.09375 43.984375 
Q 39.0625 48.390625 32.421875 48.390625 
Q 24.90625 48.390625 20.390625 44.140625 
Q 15.875 39.890625 15.1875 32.171875 
z
" id="DejaVuSans-65"/>
     <path d="M 45.40625 46.390625 
L 45.40625 75.984375 
L 54.390625 75.984375 
L 54.390625 0 
L 45.40625 0 
L 45.40625 8.203125 
Q 42.578125 3.328125 38.25 0.953125 
Q 33.9375 -1.421875 27.875 -1.421875 
Q 17.96875 -1.421875 11.734375 6.484375 
Q 5.515625 14.40625 5.515625 27.296875 
Q 5.515625 40.1875 11.734375 48.09375 
Q 17.96875 56 27.875 56 
Q 33.9375 56 38.25 53.625 
Q 42.578125 51.265625 45.40625 46.390625 
z
M 14.796875 27.296875 
Q 14.796875 17.390625 18.875 11.75 
Q 22.953125 6.109375 30.078125 6.109375 
Q 37.203125 6.109375 41.296875 11.75 
Q 45.40625 17.390625 45.40625 27.296875 
Q 45.40625 37.203125 41.296875 42.84375 
Q 37.203125 48.484375 30.078125 48.484375 
Q 22.953125 48.484375 18.875 42.84375 
Q 14.796875 37.203125 14.796875 27.296875 
z
" id="DejaVuSans-64"/>
     <path d="M 9.421875 54.6875 
L 18.40625 54.6875 
L 18.40625 0 
L 9.421875 0 
z
M 9.421875 75.984375 
L 18.40625 75.984375 
L 18.40625 64.59375 
L 9.421875 64.59375 
z
" id="DejaVuSans-69"/>
     <path d="M 48.78125 52.59375 
L 48.78125 44.1875 
Q 44.96875 46.296875 41.140625 47.34375 
Q 37.3125 48.390625 33.40625 48.390625 
Q 24.65625 48.390625 19.8125 42.84375 
Q 14.984375 37.3125 14.984375 27.296875 
Q 14.984375 17.28125 19.8125 11.734375 
Q 24.65625 6.203125 33.40625 6.203125 
Q 37.3125 6.203125 41.140625 7.25 
Q 44.96875 8.296875 48.78125 10.40625 
L 48.78125 2.09375 
Q 45.015625 0.34375 40.984375 -0.53125 
Q 36.96875 -1.421875 32.421875 -1.421875 
Q 20.0625 -1.421875 12.78125 6.34375 
Q 5.515625 14.109375 5.515625 27.296875 
Q 5.515625 40.671875 12.859375 48.328125 
Q 20.21875 56 33.015625 56 
Q 37.15625 56 41.109375 55.140625 
Q 45.0625 54.296875 48.78125 52.59375 
z
" id="DejaVuSans-63"/>
     <path d="M 18.3125 70.21875 
L 18.3125 54.6875 
L 36.8125 54.6875 
L 36.8125 47.703125 
L 18.3125 47.703125 
L 18.3125 18.015625 
Q 18.3125 11.328125 20.140625 9.421875 
Q 21.96875 7.515625 27.59375 7.515625 
L 36.8125 7.515625 
L 36.8125 0 
L 27.59375 0 
Q 17.1875 0 13.234375 3.875 
Q 9.28125 7.765625 9.28125 18.015625 
L 9.28125 47.703125 
L 2.6875 47.703125 
L 2.6875 54.6875 
L 9.28125 54.6875 
L 9.28125 70.21875 
z
" id="DejaVuSans-74"/>
     <path d="M 30.609375 48.390625 
Q 23.390625 48.390625 19.1875 42.75 
Q 14.984375 37.109375 14.984375 27.296875 
Q 14.984375 17.484375 19.15625 11.84375 
Q 23.34375 6.203125 30.609375 6.203125 
Q 37.796875 6.203125 41.984375 11.859375 
Q 46.1875 17.53125 46.1875 27.296875 
Q 46.1875 37.015625 41.984375 42.703125 
Q 37.796875 48.390625 30.609375 48.390625 
z
M 30.609375 56 
Q 42.328125 56 49.015625 48.375 
Q 55.71875 40.765625 55.71875 27.296875 
Q 55.71875 13.875 49.015625 6.21875 
Q 42.328125 -1.421875 30.609375 -1.421875 
Q 18.84375 -1.421875 12.171875 6.21875 
Q 5.515625 13.875 5.515625 27.296875 
Q 5.515625 40.765625 12.171875 48.375 
Q 18.84375 56 30.609375 56 
z
" id="DejaVuSans-6f"/>
     <path d="M 54.890625 33.015625 
L 54.890625 0 
L 45.90625 0 
L 45.90625 32.71875 
Q 45.90625 40.484375 42.875 44.328125 
Q 39.84375 48.1875 33.796875 48.1875 
Q 26.515625 48.1875 22.3125 43.546875 
Q 18.109375 38.921875 18.109375 30.90625 
L 18.109375 0 
L 9.078125 0 
L 9.078125 54.6875 
L 18.109375 54.6875 
L 18.109375 46.1875 
Q 21.34375 51.125 25.703125 53.5625 
Q 30.078125 56 35.796875 56 
Q 45.21875 56 50.046875 50.171875 
Q 54.890625 44.34375 54.890625 33.015625 
z
" id="DejaVuSans-6e"/>
    </defs>
    <g transform="translate(220.564063 346.760312)scale(0.1 -0.1)">
     <use xlink:href="#DejaVuSans-50"/>
     <use x="60.287109" xlink:href="#DejaVuSans-72"/>
     <use x="101.369141" xlink:href="#DejaVuSans-65"/>
     <use x="162.892578" xlink:href="#DejaVuSans-64"/>
     <use x="226.369141" xlink:href="#DejaVuSans-69"/>
     <use x="254.152344" xlink:href="#DejaVuSans-63"/>
     <use x="309.132812" xlink:href="#DejaVuSans-74"/>
     <use x="348.341797" xlink:href="#DejaVuSans-69"/>
     <use x="376.125" xlink:href="#DejaVuSans-6f"/>
     <use x="437.306641" xlink:href="#DejaVuSans-6e"/>
    </g>
   </g>
   <g id="line2d_78">
    <path d="M 290.632812 343.260312 
L 310.632812 343.260312 
" style="fill:none;stroke:#ff7f0e;stroke-linecap:square;stroke-width:1.5;"/>
   </g>
   <g id="line2d_79"/>
   <g id="text_36">
    <!-- Ground truth -->
    <defs>
     <path d="M 59.515625 10.40625 
L 59.515625 29.984375 
L 43.40625 29.984375 
L 43.40625 38.09375 
L 69.28125 38.09375 
L 69.28125 6.78125 
Q 63.578125 2.734375 56.6875 0.65625 
Q 49.8125 -1.421875 42 -1.421875 
Q 24.90625 -1.421875 15.25 8.5625 
Q 5.609375 18.5625 5.609375 36.375 
Q 5.609375 54.25 15.25 64.234375 
Q 24.90625 74.21875 42 74.21875 
Q 49.125 74.21875 55.546875 72.453125 
Q 61.96875 70.703125 67.390625 67.28125 
L 67.390625 56.78125 
Q 61.921875 61.421875 55.765625 63.765625 
Q 49.609375 66.109375 42.828125 66.109375 
Q 29.4375 66.109375 22.71875 58.640625 
Q 16.015625 51.171875 16.015625 36.375 
Q 16.015625 21.625 22.71875 14.15625 
Q 29.4375 6.6875 42.828125 6.6875 
Q 48.046875 6.6875 52.140625 7.59375 
Q 56.25 8.5 59.515625 10.40625 
z
" id="DejaVuSans-47"/>
     <path d="M 8.5 21.578125 
L 8.5 54.6875 
L 17.484375 54.6875 
L 17.484375 21.921875 
Q 17.484375 14.15625 20.5 10.265625 
Q 23.53125 6.390625 29.59375 6.390625 
Q 36.859375 6.390625 41.078125 11.03125 
Q 45.3125 15.671875 45.3125 23.6875 
L 45.3125 54.6875 
L 54.296875 54.6875 
L 54.296875 0 
L 45.3125 0 
L 45.3125 8.40625 
Q 42.046875 3.421875 37.71875 1 
Q 33.40625 -1.421875 27.6875 -1.421875 
Q 18.265625 -1.421875 13.375 4.4375 
Q 8.5 10.296875 8.5 21.578125 
z
M 31.109375 56 
z
" id="DejaVuSans-75"/>
     <path id="DejaVuSans-20"/>
     <path d="M 54.890625 33.015625 
L 54.890625 0 
L 45.90625 0 
L 45.90625 32.71875 
Q 45.90625 40.484375 42.875 44.328125 
Q 39.84375 48.1875 33.796875 48.1875 
Q 26.515625 48.1875 22.3125 43.546875 
Q 18.109375 38.921875 18.109375 30.90625 
L 18.109375 0 
L 9.078125 0 
L 9.078125 75.984375 
L 18.109375 75.984375 
L 18.109375 46.1875 
Q 21.34375 51.125 25.703125 53.5625 
Q 30.078125 56 35.796875 56 
Q 45.21875 56 50.046875 50.171875 
Q 54.890625 44.34375 54.890625 33.015625 
z
" id="DejaVuSans-68"/>
    </defs>
    <g transform="translate(318.632812 346.760312)scale(0.1 -0.1)">
     <use xlink:href="#DejaVuSans-47"/>
     <use x="77.490234" xlink:href="#DejaVuSans-72"/>
     <use x="118.572266" xlink:href="#DejaVuSans-6f"/>
     <use x="179.753906" xlink:href="#DejaVuSans-75"/>
     <use x="243.132812" xlink:href="#DejaVuSans-6e"/>
     <use x="306.511719" xlink:href="#DejaVuSans-64"/>
     <use x="369.988281" xlink:href="#DejaVuSans-20"/>
     <use x="401.775391" xlink:href="#DejaVuSans-74"/>
     <use x="440.984375" xlink:href="#DejaVuSans-72"/>
     <use x="482.097656" xlink:href="#DejaVuSans-75"/>
     <use x="545.476562" xlink:href="#DejaVuSans-74"/>
     <use x="584.685547" xlink:href="#DejaVuSans-68"/>
    </g>
   </g>
  </g>
 </g>
 <defs>
  <clipPath id="p797dcdd99e">
   <rect height="58.68576" width="446.4" x="72" y="17.892"/>
  </clipPath>
  <clipPath id="p2b9b5c95da">
   <rect height="58.68576" width="446.4" x="72" y="76.57776"/>
  </clipPath>
  <clipPath id="p78e89c1061">
   <rect height="58.68576" width="446.4" x="72" y="135.26352"/>
  </clipPath>
  <clipPath id="p7c299fb939">
   <rect height="58.68576" width="446.4" x="72" y="193.94928"/>
  </clipPath>
  <clipPath id="p1fba4a0dbe">
   <rect height="58.68576" width="446.4" x="72" y="252.63504"/>
  </clipPath>
 </defs>
</svg>
