<?xml version="1.0" encoding="utf-8" standalone="no"?>
<!DOCTYPE svg PUBLIC "-//W3C//DTD SVG 1.1//EN"
  "http://www.w3.org/Graphics/SVG/1.1/DTD/svg11.dtd">
<!-- Created with matplotlib (http://matplotlib.org/) -->
<svg height="357pt" version="1.1" viewBox="0 0 576 357" width="576pt" xmlns="http://www.w3.org/2000/svg" xmlns:xlink="http://www.w3.org/1999/xlink">
 <defs>
  <style type="text/css">
*{stroke-linecap:butt;stroke-linejoin:round;}
  </style>
 </defs>
 <g id="figure_1">
  <g id="patch_1">
   <path d="M 0 357.84 
L 576 357.84 
L 576 0 
L 0 0 
z
" style="fill:#ffffff;"/>
  </g>
  <g id="axes_1">
   <g id="patch_2">
    <path d="M 72 76.57776 
L 518.4 76.57776 
L 518.4 17.892 
L 72 17.892 
z
" style="fill:#ffffff;"/>
   </g>
   <g id="matplotlib.axis_1">
    <g id="xtick_1">
     <g id="line2d_1">
      <defs>
       <path d="M 0 0 
L 0 3.5 
" id="mece2a39073" style="stroke:#000000;stroke-width:0.8;"/>
      </defs>
      <g>
       <use style="stroke:#000000;stroke-width:0.8;" x="92.290909" xlink:href="#mece2a39073" y="76.57776"/>
      </g>
     </g>
    </g>
    <g id="xtick_2">
     <g id="line2d_2">
      <g>
       <use style="stroke:#000000;stroke-width:0.8;" x="143.660299" xlink:href="#mece2a39073" y="76.57776"/>
      </g>
     </g>
    </g>
    <g id="xtick_3">
     <g id="line2d_3">
      <g>
       <use style="stroke:#000000;stroke-width:0.8;" x="195.029689" xlink:href="#mece2a39073" y="76.57776"/>
      </g>
     </g>
    </g>
    <g id="xtick_4">
     <g id="line2d_4">
      <g>
       <use style="stroke:#000000;stroke-width:0.8;" x="246.399079" xlink:href="#mece2a39073" y="76.57776"/>
      </g>
     </g>
    </g>
    <g id="xtick_5">
     <g id="line2d_5">
      <g>
       <use style="stroke:#000000;stroke-width:0.8;" x="297.76847" xlink:href="#mece2a39073" y="76.57776"/>
      </g>
     </g>
    </g>
    <g id="xtick_6">
     <g id="line2d_6">
      <g>
       <use style="stroke:#000000;stroke-width:0.8;" x="349.13786" xlink:href="#mece2a39073" y="76.57776"/>
      </g>
     </g>
    </g>
    <g id="xtick_7">
     <g id="line2d_7">
      <g>
       <use style="stroke:#000000;stroke-width:0.8;" x="400.50725" xlink:href="#mece2a39073" y="76.57776"/>
      </g>
     </g>
    </g>
    <g id="xtick_8">
     <g id="line2d_8">
      <g>
       <use style="stroke:#000000;stroke-width:0.8;" x="451.87664" xlink:href="#mece2a39073" y="76.57776"/>
      </g>
     </g>
    </g>
    <g id="xtick_9">
     <g id="line2d_9">
      <g>
       <use style="stroke:#000000;stroke-width:0.8;" x="503.24603" xlink:href="#mece2a39073" y="76.57776"/>
      </g>
     </g>
    </g>
   </g>
   <g id="matplotlib.axis_2">
    <g id="ytick_1">
     <g id="line2d_10">
      <defs>
       <path d="M 0 0 
L -3.5 0 
" id="m2ed2e3114c" style="stroke:#000000;stroke-width:0.8;"/>
      </defs>
      <g>
       <use style="stroke:#000000;stroke-width:0.8;" x="72" xlink:href="#m2ed2e3114c" y="69.806326"/>
      </g>
     </g>
     <g id="text_1">
      <!-- -0.60 -->
      <defs>
       <path d="M 4.890625 31.390625 
L 31.203125 31.390625 
L 31.203125 23.390625 
L 4.890625 23.390625 
z
" id="DejaVuSans-2d"/>
       <path d="M 31.78125 66.40625 
Q 24.171875 66.40625 20.328125 58.90625 
Q 16.5 51.421875 16.5 36.375 
Q 16.5 21.390625 20.328125 13.890625 
Q 24.171875 6.390625 31.78125 6.390625 
Q 39.453125 6.390625 43.28125 13.890625 
Q 47.125 21.390625 47.125 36.375 
Q 47.125 51.421875 43.28125 58.90625 
Q 39.453125 66.40625 31.78125 66.40625 
z
M 31.78125 74.21875 
Q 44.046875 74.21875 50.515625 64.515625 
Q 56.984375 54.828125 56.984375 36.375 
Q 56.984375 17.96875 50.515625 8.265625 
Q 44.046875 -1.421875 31.78125 -1.421875 
Q 19.53125 -1.421875 13.0625 8.265625 
Q 6.59375 17.96875 6.59375 36.375 
Q 6.59375 54.828125 13.0625 64.515625 
Q 19.53125 74.21875 31.78125 74.21875 
z
" id="DejaVuSans-30"/>
       <path d="M 10.6875 12.40625 
L 21 12.40625 
L 21 0 
L 10.6875 0 
z
" id="DejaVuSans-2e"/>
       <path d="M 33.015625 40.375 
Q 26.375 40.375 22.484375 35.828125 
Q 18.609375 31.296875 18.609375 23.390625 
Q 18.609375 15.53125 22.484375 10.953125 
Q 26.375 6.390625 33.015625 6.390625 
Q 39.65625 6.390625 43.53125 10.953125 
Q 47.40625 15.53125 47.40625 23.390625 
Q 47.40625 31.296875 43.53125 35.828125 
Q 39.65625 40.375 33.015625 40.375 
z
M 52.59375 71.296875 
L 52.59375 62.3125 
Q 48.875 64.0625 45.09375 64.984375 
Q 41.3125 65.921875 37.59375 65.921875 
Q 27.828125 65.921875 22.671875 59.328125 
Q 17.53125 52.734375 16.796875 39.40625 
Q 19.671875 43.65625 24.015625 45.921875 
Q 28.375 48.1875 33.59375 48.1875 
Q 44.578125 48.1875 50.953125 41.515625 
Q 57.328125 34.859375 57.328125 23.390625 
Q 57.328125 12.15625 50.6875 5.359375 
Q 44.046875 -1.421875 33.015625 -1.421875 
Q 20.359375 -1.421875 13.671875 8.265625 
Q 6.984375 17.96875 6.984375 36.375 
Q 6.984375 53.65625 15.1875 63.9375 
Q 23.390625 74.21875 37.203125 74.21875 
Q 40.921875 74.21875 44.703125 73.484375 
Q 48.484375 72.75 52.59375 71.296875 
z
" id="DejaVuSans-36"/>
      </defs>
      <g transform="translate(39.126562 73.605545)scale(0.1 -0.1)">
       <use xlink:href="#DejaVuSans-2d"/>
       <use x="36.083984" xlink:href="#DejaVuSans-30"/>
       <use x="99.707031" xlink:href="#DejaVuSans-2e"/>
       <use x="131.494141" xlink:href="#DejaVuSans-36"/>
       <use x="195.117188" xlink:href="#DejaVuSans-30"/>
      </g>
     </g>
    </g>
    <g id="ytick_2">
     <g id="line2d_11">
      <g>
       <use style="stroke:#000000;stroke-width:0.8;" x="72" xlink:href="#m2ed2e3114c" y="54.758695"/>
      </g>
     </g>
     <g id="text_2">
      <!-- -0.45 -->
      <defs>
       <path d="M 37.796875 64.3125 
L 12.890625 25.390625 
L 37.796875 25.390625 
z
M 35.203125 72.90625 
L 47.609375 72.90625 
L 47.609375 25.390625 
L 58.015625 25.390625 
L 58.015625 17.1875 
L 47.609375 17.1875 
L 47.609375 0 
L 37.796875 0 
L 37.796875 17.1875 
L 4.890625 17.1875 
L 4.890625 26.703125 
z
" id="DejaVuSans-34"/>
       <path d="M 10.796875 72.90625 
L 49.515625 72.90625 
L 49.515625 64.59375 
L 19.828125 64.59375 
L 19.828125 46.734375 
Q 21.96875 47.46875 24.109375 47.828125 
Q 26.265625 48.1875 28.421875 48.1875 
Q 40.625 48.1875 47.75 41.5 
Q 54.890625 34.8125 54.890625 23.390625 
Q 54.890625 11.625 47.5625 5.09375 
Q 40.234375 -1.421875 26.90625 -1.421875 
Q 22.3125 -1.421875 17.546875 -0.640625 
Q 12.796875 0.140625 7.71875 1.703125 
L 7.71875 11.625 
Q 12.109375 9.234375 16.796875 8.0625 
Q 21.484375 6.890625 26.703125 6.890625 
Q 35.15625 6.890625 40.078125 11.328125 
Q 45.015625 15.765625 45.015625 23.390625 
Q 45.015625 31 40.078125 35.4375 
Q 35.15625 39.890625 26.703125 39.890625 
Q 22.75 39.890625 18.8125 39.015625 
Q 14.890625 38.140625 10.796875 36.28125 
z
" id="DejaVuSans-35"/>
      </defs>
      <g transform="translate(39.126562 58.557914)scale(0.1 -0.1)">
       <use xlink:href="#DejaVuSans-2d"/>
       <use x="36.083984" xlink:href="#DejaVuSans-30"/>
       <use x="99.707031" xlink:href="#DejaVuSans-2e"/>
       <use x="131.494141" xlink:href="#DejaVuSans-34"/>
       <use x="195.117188" xlink:href="#DejaVuSans-35"/>
      </g>
     </g>
    </g>
    <g id="ytick_3">
     <g id="line2d_12">
      <g>
       <use style="stroke:#000000;stroke-width:0.8;" x="72" xlink:href="#m2ed2e3114c" y="39.711065"/>
      </g>
     </g>
     <g id="text_3">
      <!-- -0.29 -->
      <defs>
       <path d="M 19.1875 8.296875 
L 53.609375 8.296875 
L 53.609375 0 
L 7.328125 0 
L 7.328125 8.296875 
Q 12.9375 14.109375 22.625 23.890625 
Q 32.328125 33.6875 34.8125 36.53125 
Q 39.546875 41.84375 41.421875 45.53125 
Q 43.3125 49.21875 43.3125 52.78125 
Q 43.3125 58.59375 39.234375 62.25 
Q 35.15625 65.921875 28.609375 65.921875 
Q 23.96875 65.921875 18.8125 64.3125 
Q 13.671875 62.703125 7.8125 59.421875 
L 7.8125 69.390625 
Q 13.765625 71.78125 18.9375 73 
Q 24.125 74.21875 28.421875 74.21875 
Q 39.75 74.21875 46.484375 68.546875 
Q 53.21875 62.890625 53.21875 53.421875 
Q 53.21875 48.921875 51.53125 44.890625 
Q 49.859375 40.875 45.40625 35.40625 
Q 44.1875 33.984375 37.640625 27.21875 
Q 31.109375 20.453125 19.1875 8.296875 
z
" id="DejaVuSans-32"/>
       <path d="M 10.984375 1.515625 
L 10.984375 10.5 
Q 14.703125 8.734375 18.5 7.8125 
Q 22.3125 6.890625 25.984375 6.890625 
Q 35.75 6.890625 40.890625 13.453125 
Q 46.046875 20.015625 46.78125 33.40625 
Q 43.953125 29.203125 39.59375 26.953125 
Q 35.25 24.703125 29.984375 24.703125 
Q 19.046875 24.703125 12.671875 31.3125 
Q 6.296875 37.9375 6.296875 49.421875 
Q 6.296875 60.640625 12.9375 67.421875 
Q 19.578125 74.21875 30.609375 74.21875 
Q 43.265625 74.21875 49.921875 64.515625 
Q 56.59375 54.828125 56.59375 36.375 
Q 56.59375 19.140625 48.40625 8.859375 
Q 40.234375 -1.421875 26.421875 -1.421875 
Q 22.703125 -1.421875 18.890625 -0.6875 
Q 15.09375 0.046875 10.984375 1.515625 
z
M 30.609375 32.421875 
Q 37.25 32.421875 41.125 36.953125 
Q 45.015625 41.5 45.015625 49.421875 
Q 45.015625 57.28125 41.125 61.84375 
Q 37.25 66.40625 30.609375 66.40625 
Q 23.96875 66.40625 20.09375 61.84375 
Q 16.21875 57.28125 16.21875 49.421875 
Q 16.21875 41.5 20.09375 36.953125 
Q 23.96875 32.421875 30.609375 32.421875 
z
" id="DejaVuSans-39"/>
      </defs>
      <g transform="translate(39.126562 43.510283)scale(0.1 -0.1)">
       <use xlink:href="#DejaVuSans-2d"/>
       <use x="36.083984" xlink:href="#DejaVuSans-30"/>
       <use x="99.707031" xlink:href="#DejaVuSans-2e"/>
       <use x="131.494141" xlink:href="#DejaVuSans-32"/>
       <use x="195.117188" xlink:href="#DejaVuSans-39"/>
      </g>
     </g>
    </g>
    <g id="ytick_4">
     <g id="line2d_13">
      <g>
       <use style="stroke:#000000;stroke-width:0.8;" x="72" xlink:href="#m2ed2e3114c" y="24.663434"/>
      </g>
     </g>
     <g id="text_4">
      <!-- -0.13 -->
      <defs>
       <path d="M 12.40625 8.296875 
L 28.515625 8.296875 
L 28.515625 63.921875 
L 10.984375 60.40625 
L 10.984375 69.390625 
L 28.421875 72.90625 
L 38.28125 72.90625 
L 38.28125 8.296875 
L 54.390625 8.296875 
L 54.390625 0 
L 12.40625 0 
z
" id="DejaVuSans-31"/>
       <path d="M 40.578125 39.3125 
Q 47.65625 37.796875 51.625 33 
Q 55.609375 28.21875 55.609375 21.1875 
Q 55.609375 10.40625 48.1875 4.484375 
Q 40.765625 -1.421875 27.09375 -1.421875 
Q 22.515625 -1.421875 17.65625 -0.515625 
Q 12.796875 0.390625 7.625 2.203125 
L 7.625 11.71875 
Q 11.71875 9.328125 16.59375 8.109375 
Q 21.484375 6.890625 26.8125 6.890625 
Q 36.078125 6.890625 40.9375 10.546875 
Q 45.796875 14.203125 45.796875 21.1875 
Q 45.796875 27.640625 41.28125 31.265625 
Q 36.765625 34.90625 28.71875 34.90625 
L 20.21875 34.90625 
L 20.21875 43.015625 
L 29.109375 43.015625 
Q 36.375 43.015625 40.234375 45.921875 
Q 44.09375 48.828125 44.09375 54.296875 
Q 44.09375 59.90625 40.109375 62.90625 
Q 36.140625 65.921875 28.71875 65.921875 
Q 24.65625 65.921875 20.015625 65.03125 
Q 15.375 64.15625 9.8125 62.3125 
L 9.8125 71.09375 
Q 15.4375 72.65625 20.34375 73.4375 
Q 25.25 74.21875 29.59375 74.21875 
Q 40.828125 74.21875 47.359375 69.109375 
Q 53.90625 64.015625 53.90625 55.328125 
Q 53.90625 49.265625 50.4375 45.09375 
Q 46.96875 40.921875 40.578125 39.3125 
z
" id="DejaVuSans-33"/>
      </defs>
      <g transform="translate(39.126562 28.462652)scale(0.1 -0.1)">
       <use xlink:href="#DejaVuSans-2d"/>
       <use x="36.083984" xlink:href="#DejaVuSans-30"/>
       <use x="99.707031" xlink:href="#DejaVuSans-2e"/>
       <use x="131.494141" xlink:href="#DejaVuSans-31"/>
       <use x="195.117188" xlink:href="#DejaVuSans-33"/>
      </g>
     </g>
    </g>
    <g id="text_5">
     <!-- $s_{1}$ -->
     <defs>
      <path d="M 50 53.078125 
L 48.296875 44.578125 
Q 44.734375 46.53125 40.765625 47.5 
Q 36.8125 48.484375 32.625 48.484375 
Q 25.53125 48.484375 21.453125 46.0625 
Q 17.390625 43.65625 17.390625 39.5 
Q 17.390625 34.671875 26.859375 32.078125 
Q 27.59375 31.890625 27.9375 31.78125 
L 30.8125 30.90625 
Q 39.796875 28.421875 42.796875 25.6875 
Q 45.796875 22.953125 45.796875 18.21875 
Q 45.796875 9.515625 38.890625 4.046875 
Q 31.984375 -1.421875 20.796875 -1.421875 
Q 16.453125 -1.421875 11.671875 -0.578125 
Q 6.890625 0.25 1.125 2 
L 2.875 11.28125 
Q 7.8125 8.734375 12.59375 7.421875 
Q 17.390625 6.109375 21.78125 6.109375 
Q 28.375 6.109375 32.5 8.9375 
Q 36.625 11.765625 36.625 16.109375 
Q 36.625 20.796875 25.78125 23.6875 
L 24.859375 23.921875 
L 21.78125 24.703125 
Q 14.9375 26.515625 11.765625 29.46875 
Q 8.59375 32.421875 8.59375 37.015625 
Q 8.59375 45.75 15.15625 50.875 
Q 21.734375 56 33.015625 56 
Q 37.453125 56 41.671875 55.265625 
Q 45.90625 54.546875 50 53.078125 
z
" id="DejaVuSans-Oblique-73"/>
     </defs>
     <g transform="translate(33.046875 52.23488)rotate(-90)scale(0.1 -0.1)">
      <use xlink:href="#DejaVuSans-Oblique-73"/>
      <use transform="translate(52.099609 -16.40625)scale(0.7)" xlink:href="#DejaVuSans-31"/>
     </g>
    </g>
   </g>
   <g id="line2d_14">
    <path clip-path="url(#pa577cc6813)" d="M 92.290909 41.00718 
L 97.427848 40.950765 
L 102.564787 40.867289 
L 107.701726 40.902215 
L 112.838665 40.951544 
L 117.975604 41.015852 
L 123.112543 41.095018 
L 128.249482 41.194468 
L 133.386421 41.456625 
L 138.52336 41.784357 
L 143.660299 42.090894 
L 148.797238 42.365121 
L 153.934177 42.600296 
L 159.071116 42.855174 
L 164.208055 43.081452 
L 169.344994 43.29155 
L 174.481933 43.480548 
L 179.618872 43.64459 
L 184.755811 43.780967 
L 189.89275 43.888324 
L 195.029689 43.966688 
L 200.166628 44.01737 
L 205.303567 44.042891 
L 210.440506 44.0468 
L 215.577445 44.033353 
L 220.714384 44.00735 
L 225.851323 43.973728 
L 230.988262 43.937276 
L 236.125201 43.902361 
L 241.26214 43.87263 
L 246.399079 43.850816 
L 251.536018 43.833083 
L 256.672957 43.744831 
L 261.809896 43.670091 
L 266.946835 43.587952 
L 272.083774 43.508075 
L 277.220713 43.431452 
L 282.357652 43.357892 
L 287.494591 43.279387 
L 292.63153 43.190214 
L 297.76847 43.086394 
L 302.905409 42.964814 
L 308.042348 42.818631 
L 313.179287 42.574293 
L 318.316226 42.283835 
L 323.453165 41.928991 
L 328.590104 41.555816 
L 333.727043 41.382151 
L 338.863982 41.217112 
L 344.000921 41.055511 
L 349.13786 41.244314 
L 354.274799 41.845591 
L 359.411738 42.338754 
L 364.548677 42.345712 
L 369.685616 42.281893 
L 374.822555 42.184583 
L 379.959494 42.052019 
L 385.096433 41.884378 
L 390.233372 41.683897 
L 395.370311 41.323588 
L 400.50725 40.447508 
L 405.644189 39.472503 
L 410.781128 38.857683 
L 415.918067 38.791942 
L 421.055006 38.753175 
L 426.191945 38.773318 
L 431.328884 39.015976 
L 436.465823 39.278083 
L 441.602762 39.555073 
L 446.739701 39.843945 
L 451.87664 40.143326 
L 457.013579 40.413841 
L 462.150518 40.68852 
L 467.287457 40.986614 
L 472.424396 41.305782 
L 477.561335 41.476336 
L 482.698274 41.657922 
L 487.835213 41.853681 
L 492.972152 42.071044 
L 498.109091 42.329589 
" style="fill:none;stroke:#1f77b4;stroke-linecap:square;stroke-width:1.5;"/>
   </g>
   <g id="line2d_15">
    <path clip-path="url(#pa577cc6813)" d="M 92.290909 37.832265 
L 97.427848 37.418728 
L 102.564787 36.563508 
L 107.701726 35.283892 
L 112.838665 33.681424 
L 117.975604 31.921199 
L 123.112543 30.186864 
L 128.249482 28.632292 
L 133.386421 27.351639 
L 138.52336 26.37504 
L 143.660299 25.682728 
L 148.797238 25.225958 
L 153.934177 24.946174 
L 159.071116 24.7884 
L 164.208055 24.708216 
L 169.344994 24.673571 
L 174.481933 24.663434 
L 179.618872 24.665136 
L 184.755811 24.671686 
L 189.89275 24.679623 
L 195.029689 24.687571 
L 200.166628 24.69537 
L 205.303567 24.703648 
L 210.440506 24.71363 
L 215.577445 24.72709 
L 220.714384 24.746286 
L 225.851323 24.773789 
L 230.988262 24.812163 
L 236.125201 24.863495 
L 241.26214 24.928918 
L 246.399079 25.008324 
L 251.536018 25.10045 
L 256.672957 25.20337 
L 261.809896 25.315241 
L 266.946835 25.435075 
L 272.083774 25.563262 
L 277.220713 25.701821 
L 282.357652 25.854492 
L 287.494591 26.026952 
L 292.63153 26.227442 
L 297.76847 26.468128 
L 302.905409 26.767479 
L 308.042348 27.153985 
L 313.179287 27.671531 
L 318.316226 28.386628 
L 323.453165 29.39723 
L 328.590104 30.84181 
L 333.727043 32.904772 
L 338.863982 35.808787 
L 344.000921 39.773973 
L 349.13786 44.911854 
L 354.274799 51.036545 
L 359.411738 57.480757 
L 364.548677 63.184294 
L 369.685616 67.232631 
L 374.822555 69.379192 
L 379.959494 69.806326 
L 385.096433 68.427449 
L 390.233372 64.881377 
L 395.370311 59.276773 
L 400.50725 52.527004 
L 405.644189 45.831965 
L 410.781128 40.038481 
L 415.918067 35.466947 
L 421.055006 32.077551 
L 426.191945 29.675923 
L 431.328884 28.03882 
L 436.465823 26.967969 
L 441.602762 26.30505 
L 446.739701 25.930288 
L 451.87664 25.755573 
L 457.013579 25.71678 
L 462.150518 25.767063 
L 467.287457 25.871666 
L 472.424396 26.00427 
L 477.561335 26.144646 
L 482.698274 26.277353 
L 487.835213 26.391157 
L 492.972152 26.478801 
L 498.109091 26.536801 
" style="fill:none;stroke:#ff7f0e;stroke-linecap:square;stroke-width:1.5;"/>
   </g>
   <g id="patch_3">
    <path d="M 72 76.57776 
L 72 17.892 
" style="fill:none;stroke:#000000;stroke-linecap:square;stroke-linejoin:miter;stroke-width:0.8;"/>
   </g>
   <g id="patch_4">
    <path d="M 518.4 76.57776 
L 518.4 17.892 
" style="fill:none;stroke:#000000;stroke-linecap:square;stroke-linejoin:miter;stroke-width:0.8;"/>
   </g>
   <g id="patch_5">
    <path d="M 72 76.57776 
L 518.4 76.57776 
" style="fill:none;stroke:#000000;stroke-linecap:square;stroke-linejoin:miter;stroke-width:0.8;"/>
   </g>
   <g id="patch_6">
    <path d="M 72 17.892 
L 518.4 17.892 
" style="fill:none;stroke:#000000;stroke-linecap:square;stroke-linejoin:miter;stroke-width:0.8;"/>
   </g>
  </g>
  <g id="axes_2">
   <g id="patch_7">
    <path d="M 72 135.26352 
L 518.4 135.26352 
L 518.4 76.57776 
L 72 76.57776 
z
" style="fill:#ffffff;"/>
   </g>
   <g id="matplotlib.axis_3">
    <g id="xtick_10">
     <g id="line2d_16">
      <g>
       <use style="stroke:#000000;stroke-width:0.8;" x="92.290909" xlink:href="#mece2a39073" y="135.26352"/>
      </g>
     </g>
    </g>
    <g id="xtick_11">
     <g id="line2d_17">
      <g>
       <use style="stroke:#000000;stroke-width:0.8;" x="143.660299" xlink:href="#mece2a39073" y="135.26352"/>
      </g>
     </g>
    </g>
    <g id="xtick_12">
     <g id="line2d_18">
      <g>
       <use style="stroke:#000000;stroke-width:0.8;" x="195.029689" xlink:href="#mece2a39073" y="135.26352"/>
      </g>
     </g>
    </g>
    <g id="xtick_13">
     <g id="line2d_19">
      <g>
       <use style="stroke:#000000;stroke-width:0.8;" x="246.399079" xlink:href="#mece2a39073" y="135.26352"/>
      </g>
     </g>
    </g>
    <g id="xtick_14">
     <g id="line2d_20">
      <g>
       <use style="stroke:#000000;stroke-width:0.8;" x="297.76847" xlink:href="#mece2a39073" y="135.26352"/>
      </g>
     </g>
    </g>
    <g id="xtick_15">
     <g id="line2d_21">
      <g>
       <use style="stroke:#000000;stroke-width:0.8;" x="349.13786" xlink:href="#mece2a39073" y="135.26352"/>
      </g>
     </g>
    </g>
    <g id="xtick_16">
     <g id="line2d_22">
      <g>
       <use style="stroke:#000000;stroke-width:0.8;" x="400.50725" xlink:href="#mece2a39073" y="135.26352"/>
      </g>
     </g>
    </g>
    <g id="xtick_17">
     <g id="line2d_23">
      <g>
       <use style="stroke:#000000;stroke-width:0.8;" x="451.87664" xlink:href="#mece2a39073" y="135.26352"/>
      </g>
     </g>
    </g>
    <g id="xtick_18">
     <g id="line2d_24">
      <g>
       <use style="stroke:#000000;stroke-width:0.8;" x="503.24603" xlink:href="#mece2a39073" y="135.26352"/>
      </g>
     </g>
    </g>
   </g>
   <g id="matplotlib.axis_4">
    <g id="ytick_5">
     <g id="line2d_25">
      <g>
       <use style="stroke:#000000;stroke-width:0.8;" x="72" xlink:href="#m2ed2e3114c" y="128.492086"/>
      </g>
     </g>
     <g id="text_6">
      <!-- 0.97 -->
      <defs>
       <path d="M 8.203125 72.90625 
L 55.078125 72.90625 
L 55.078125 68.703125 
L 28.609375 0 
L 18.3125 0 
L 43.21875 64.59375 
L 8.203125 64.59375 
z
" id="DejaVuSans-37"/>
      </defs>
      <g transform="translate(42.734375 132.291305)scale(0.1 -0.1)">
       <use xlink:href="#DejaVuSans-30"/>
       <use x="63.623047" xlink:href="#DejaVuSans-2e"/>
       <use x="95.410156" xlink:href="#DejaVuSans-39"/>
       <use x="159.033203" xlink:href="#DejaVuSans-37"/>
      </g>
     </g>
    </g>
    <g id="ytick_6">
     <g id="line2d_26">
      <g>
       <use style="stroke:#000000;stroke-width:0.8;" x="72" xlink:href="#m2ed2e3114c" y="113.444455"/>
      </g>
     </g>
     <g id="text_7">
      <!-- 2.12 -->
      <g transform="translate(42.734375 117.243674)scale(0.1 -0.1)">
       <use xlink:href="#DejaVuSans-32"/>
       <use x="63.623047" xlink:href="#DejaVuSans-2e"/>
       <use x="95.410156" xlink:href="#DejaVuSans-31"/>
       <use x="159.033203" xlink:href="#DejaVuSans-32"/>
      </g>
     </g>
    </g>
    <g id="ytick_7">
     <g id="line2d_27">
      <g>
       <use style="stroke:#000000;stroke-width:0.8;" x="72" xlink:href="#m2ed2e3114c" y="98.396825"/>
      </g>
     </g>
     <g id="text_8">
      <!-- 3.27 -->
      <g transform="translate(42.734375 102.196043)scale(0.1 -0.1)">
       <use xlink:href="#DejaVuSans-33"/>
       <use x="63.623047" xlink:href="#DejaVuSans-2e"/>
       <use x="95.410156" xlink:href="#DejaVuSans-32"/>
       <use x="159.033203" xlink:href="#DejaVuSans-37"/>
      </g>
     </g>
    </g>
    <g id="ytick_8">
     <g id="line2d_28">
      <g>
       <use style="stroke:#000000;stroke-width:0.8;" x="72" xlink:href="#m2ed2e3114c" y="83.349194"/>
      </g>
     </g>
     <g id="text_9">
      <!-- 4.42 -->
      <g transform="translate(42.734375 87.148413)scale(0.1 -0.1)">
       <use xlink:href="#DejaVuSans-34"/>
       <use x="63.623047" xlink:href="#DejaVuSans-2e"/>
       <use x="95.410156" xlink:href="#DejaVuSans-34"/>
       <use x="159.033203" xlink:href="#DejaVuSans-32"/>
      </g>
     </g>
    </g>
    <g id="text_10">
     <!-- $s_{25}$ -->
     <g transform="translate(36.654688 113.12064)rotate(-90)scale(0.1 -0.1)">
      <use xlink:href="#DejaVuSans-Oblique-73"/>
      <use transform="translate(52.099609 -16.40625)scale(0.7)" xlink:href="#DejaVuSans-32"/>
      <use transform="translate(96.635742 -16.40625)scale(0.7)" xlink:href="#DejaVuSans-35"/>
     </g>
    </g>
   </g>
   <g id="line2d_29">
    <path clip-path="url(#pf66baa75bb)" d="M 92.290909 113.974739 
L 97.427848 114.078813 
L 102.564787 114.269847 
L 107.701726 114.422819 
L 112.838665 114.640473 
L 117.975604 114.925578 
L 123.112543 115.277536 
L 128.249482 115.687836 
L 133.386421 115.849912 
L 138.52336 115.82615 
L 143.660299 115.860013 
L 148.797238 115.937942 
L 153.934177 116.055929 
L 159.071116 116.100459 
L 164.208055 116.061483 
L 169.344994 116.022631 
L 174.481933 115.984342 
L 179.618872 115.946988 
L 184.755811 115.910832 
L 189.89275 115.876051 
L 195.029689 115.842687 
L 200.166628 115.810712 
L 205.303567 115.779979 
L 210.440506 115.750266 
L 215.577445 115.721301 
L 220.714384 115.692765 
L 225.851323 115.664349 
L 230.988262 115.635712 
L 236.125201 115.606575 
L 241.26214 115.576737 
L 246.399079 115.546049 
L 251.536018 115.513566 
L 256.672957 115.530241 
L 261.809896 115.545806 
L 266.946835 115.572983 
L 272.083774 115.606899 
L 277.220713 115.641131 
L 282.357652 115.669548 
L 287.494591 115.69406 
L 292.63153 115.71438 
L 297.76847 115.729107 
L 302.905409 115.737103 
L 308.042348 115.744502 
L 313.179287 115.854835 
L 318.316226 115.988112 
L 323.453165 116.164413 
L 328.590104 116.342967 
L 333.727043 115.997899 
L 338.863982 115.63275 
L 344.000921 115.273921 
L 349.13786 114.681941 
L 354.274799 113.860003 
L 359.411738 113.190892 
L 364.548677 113.51321 
L 369.685616 113.87417 
L 374.822555 114.136431 
L 379.959494 114.295746 
L 385.096433 114.351593 
L 390.233372 114.307155 
L 395.370311 114.376598 
L 400.50725 115.501829 
L 405.644189 116.765555 
L 410.781128 117.796816 
L 415.918067 118.433302 
L 421.055006 119.048886 
L 426.191945 119.557854 
L 431.328884 119.53732 
L 436.465823 119.47413 
L 441.602762 119.3684 
L 446.739701 119.220344 
L 451.87664 119.030303 
L 457.013579 118.85513 
L 462.150518 118.650836 
L 467.287457 118.394917 
L 472.424396 118.096527 
L 477.561335 117.981546 
L 482.698274 117.851308 
L 487.835213 117.708802 
L 492.972152 117.551132 
L 498.109091 117.352865 
" style="fill:none;stroke:#1f77b4;stroke-linecap:square;stroke-width:1.5;"/>
   </g>
   <g id="line2d_30">
    <path clip-path="url(#pf66baa75bb)" d="M 92.290909 109.688177 
L 97.427848 110.110134 
L 102.564787 110.999107 
L 107.701726 112.36897 
L 112.838665 114.155458 
L 117.975604 116.219337 
L 123.112543 118.376899 
L 128.249482 120.447859 
L 133.386421 122.297573 
L 138.52336 123.855385 
L 143.660299 125.108242 
L 148.797238 126.081254 
L 153.934177 126.817513 
L 159.071116 127.363601 
L 164.208055 127.76167 
L 169.344994 128.04636 
L 174.481933 128.244494 
L 179.618872 128.375978 
L 184.755811 128.455077 
L 189.89275 128.491631 
L 195.029689 128.492086 
L 200.166628 128.460331 
L 205.303567 128.398403 
L 210.440506 128.307103 
L 215.577445 128.186615 
L 220.714384 128.037144 
L 225.851323 127.859587 
L 230.988262 127.656169 
L 236.125201 127.4309 
L 241.26214 127.18969 
L 246.399079 126.939921 
L 251.536018 126.689448 
L 256.672957 126.445148 
L 261.809896 126.211368 
L 266.946835 125.988659 
L 272.083774 125.773081 
L 277.220713 125.556131 
L 282.357652 125.325 
L 287.494591 125.062814 
L 292.63153 124.748415 
L 297.76847 124.355373 
L 302.905409 123.850003 
L 308.042348 123.188239 
L 313.179287 122.311353 
L 318.316226 121.140792 
L 323.453165 119.573271 
L 328.590104 117.479172 
L 333.727043 114.711222 
L 338.863982 111.135884 
L 344.000921 106.703232 
L 349.13786 101.557327 
L 354.274799 96.136944 
L 359.411738 91.139523 
L 364.548677 87.246065 
L 369.685616 84.759781 
L 374.822555 83.539845 
L 379.959494 83.349194 
L 385.096433 84.237314 
L 390.233372 86.532455 
L 395.370311 90.441001 
L 400.50725 95.67634 
L 405.644189 101.51264 
L 410.781128 107.167112 
L 415.918067 112.114479 
L 421.055006 116.148667 
L 426.191945 119.285975 
L 431.328884 121.647371 
L 436.465823 123.380125 
L 441.602762 124.62043 
L 446.739701 125.481343 
L 451.87664 126.052706 
L 457.013579 126.405303 
L 462.150518 126.595677 
L 467.287457 126.670222 
L 472.424396 126.668048 
L 477.561335 126.622643 
L 482.698274 126.562417 
L 487.835213 126.510401 
L 492.972152 126.483531 
L 498.109091 126.491991 
" style="fill:none;stroke:#ff7f0e;stroke-linecap:square;stroke-width:1.5;"/>
   </g>
   <g id="patch_8">
    <path d="M 72 135.26352 
L 72 76.57776 
" style="fill:none;stroke:#000000;stroke-linecap:square;stroke-linejoin:miter;stroke-width:0.8;"/>
   </g>
   <g id="patch_9">
    <path d="M 518.4 135.26352 
L 518.4 76.57776 
" style="fill:none;stroke:#000000;stroke-linecap:square;stroke-linejoin:miter;stroke-width:0.8;"/>
   </g>
   <g id="patch_10">
    <path d="M 72 135.26352 
L 518.4 135.26352 
" style="fill:none;stroke:#000000;stroke-linecap:square;stroke-linejoin:miter;stroke-width:0.8;"/>
   </g>
   <g id="patch_11">
    <path d="M 72 76.57776 
L 518.4 76.57776 
" style="fill:none;stroke:#000000;stroke-linecap:square;stroke-linejoin:miter;stroke-width:0.8;"/>
   </g>
  </g>
  <g id="axes_3">
   <g id="patch_12">
    <path d="M 72 193.94928 
L 518.4 193.94928 
L 518.4 135.26352 
L 72 135.26352 
z
" style="fill:#ffffff;"/>
   </g>
   <g id="matplotlib.axis_5">
    <g id="xtick_19">
     <g id="line2d_31">
      <g>
       <use style="stroke:#000000;stroke-width:0.8;" x="92.290909" xlink:href="#mece2a39073" y="193.94928"/>
      </g>
     </g>
    </g>
    <g id="xtick_20">
     <g id="line2d_32">
      <g>
       <use style="stroke:#000000;stroke-width:0.8;" x="143.660299" xlink:href="#mece2a39073" y="193.94928"/>
      </g>
     </g>
    </g>
    <g id="xtick_21">
     <g id="line2d_33">
      <g>
       <use style="stroke:#000000;stroke-width:0.8;" x="195.029689" xlink:href="#mece2a39073" y="193.94928"/>
      </g>
     </g>
    </g>
    <g id="xtick_22">
     <g id="line2d_34">
      <g>
       <use style="stroke:#000000;stroke-width:0.8;" x="246.399079" xlink:href="#mece2a39073" y="193.94928"/>
      </g>
     </g>
    </g>
    <g id="xtick_23">
     <g id="line2d_35">
      <g>
       <use style="stroke:#000000;stroke-width:0.8;" x="297.76847" xlink:href="#mece2a39073" y="193.94928"/>
      </g>
     </g>
    </g>
    <g id="xtick_24">
     <g id="line2d_36">
      <g>
       <use style="stroke:#000000;stroke-width:0.8;" x="349.13786" xlink:href="#mece2a39073" y="193.94928"/>
      </g>
     </g>
    </g>
    <g id="xtick_25">
     <g id="line2d_37">
      <g>
       <use style="stroke:#000000;stroke-width:0.8;" x="400.50725" xlink:href="#mece2a39073" y="193.94928"/>
      </g>
     </g>
    </g>
    <g id="xtick_26">
     <g id="line2d_38">
      <g>
       <use style="stroke:#000000;stroke-width:0.8;" x="451.87664" xlink:href="#mece2a39073" y="193.94928"/>
      </g>
     </g>
    </g>
    <g id="xtick_27">
     <g id="line2d_39">
      <g>
       <use style="stroke:#000000;stroke-width:0.8;" x="503.24603" xlink:href="#mece2a39073" y="193.94928"/>
      </g>
     </g>
    </g>
   </g>
   <g id="matplotlib.axis_6">
    <g id="ytick_9">
     <g id="line2d_40">
      <g>
       <use style="stroke:#000000;stroke-width:0.8;" x="72" xlink:href="#m2ed2e3114c" y="187.177846"/>
      </g>
     </g>
     <g id="text_11">
      <!-- 0.60 -->
      <g transform="translate(42.734375 190.977065)scale(0.1 -0.1)">
       <use xlink:href="#DejaVuSans-30"/>
       <use x="63.623047" xlink:href="#DejaVuSans-2e"/>
       <use x="95.410156" xlink:href="#DejaVuSans-36"/>
       <use x="159.033203" xlink:href="#DejaVuSans-30"/>
      </g>
     </g>
    </g>
    <g id="ytick_10">
     <g id="line2d_41">
      <g>
       <use style="stroke:#000000;stroke-width:0.8;" x="72" xlink:href="#m2ed2e3114c" y="172.130215"/>
      </g>
     </g>
     <g id="text_12">
      <!-- 0.70 -->
      <g transform="translate(42.734375 175.929434)scale(0.1 -0.1)">
       <use xlink:href="#DejaVuSans-30"/>
       <use x="63.623047" xlink:href="#DejaVuSans-2e"/>
       <use x="95.410156" xlink:href="#DejaVuSans-37"/>
       <use x="159.033203" xlink:href="#DejaVuSans-30"/>
      </g>
     </g>
    </g>
    <g id="ytick_11">
     <g id="line2d_42">
      <g>
       <use style="stroke:#000000;stroke-width:0.8;" x="72" xlink:href="#m2ed2e3114c" y="157.082585"/>
      </g>
     </g>
     <g id="text_13">
      <!-- 0.80 -->
      <defs>
       <path d="M 31.78125 34.625 
Q 24.75 34.625 20.71875 30.859375 
Q 16.703125 27.09375 16.703125 20.515625 
Q 16.703125 13.921875 20.71875 10.15625 
Q 24.75 6.390625 31.78125 6.390625 
Q 38.8125 6.390625 42.859375 10.171875 
Q 46.921875 13.96875 46.921875 20.515625 
Q 46.921875 27.09375 42.890625 30.859375 
Q 38.875 34.625 31.78125 34.625 
z
M 21.921875 38.8125 
Q 15.578125 40.375 12.03125 44.71875 
Q 8.5 49.078125 8.5 55.328125 
Q 8.5 64.0625 14.71875 69.140625 
Q 20.953125 74.21875 31.78125 74.21875 
Q 42.671875 74.21875 48.875 69.140625 
Q 55.078125 64.0625 55.078125 55.328125 
Q 55.078125 49.078125 51.53125 44.71875 
Q 48 40.375 41.703125 38.8125 
Q 48.828125 37.15625 52.796875 32.3125 
Q 56.78125 27.484375 56.78125 20.515625 
Q 56.78125 9.90625 50.3125 4.234375 
Q 43.84375 -1.421875 31.78125 -1.421875 
Q 19.734375 -1.421875 13.25 4.234375 
Q 6.78125 9.90625 6.78125 20.515625 
Q 6.78125 27.484375 10.78125 32.3125 
Q 14.796875 37.15625 21.921875 38.8125 
z
M 18.3125 54.390625 
Q 18.3125 48.734375 21.84375 45.5625 
Q 25.390625 42.390625 31.78125 42.390625 
Q 38.140625 42.390625 41.71875 45.5625 
Q 45.3125 48.734375 45.3125 54.390625 
Q 45.3125 60.0625 41.71875 63.234375 
Q 38.140625 66.40625 31.78125 66.40625 
Q 25.390625 66.40625 21.84375 63.234375 
Q 18.3125 60.0625 18.3125 54.390625 
z
" id="DejaVuSans-38"/>
      </defs>
      <g transform="translate(42.734375 160.881803)scale(0.1 -0.1)">
       <use xlink:href="#DejaVuSans-30"/>
       <use x="63.623047" xlink:href="#DejaVuSans-2e"/>
       <use x="95.410156" xlink:href="#DejaVuSans-38"/>
       <use x="159.033203" xlink:href="#DejaVuSans-30"/>
      </g>
     </g>
    </g>
    <g id="ytick_12">
     <g id="line2d_43">
      <g>
       <use style="stroke:#000000;stroke-width:0.8;" x="72" xlink:href="#m2ed2e3114c" y="142.034954"/>
      </g>
     </g>
     <g id="text_14">
      <!-- 0.91 -->
      <g transform="translate(42.734375 145.834173)scale(0.1 -0.1)">
       <use xlink:href="#DejaVuSans-30"/>
       <use x="63.623047" xlink:href="#DejaVuSans-2e"/>
       <use x="95.410156" xlink:href="#DejaVuSans-39"/>
       <use x="159.033203" xlink:href="#DejaVuSans-31"/>
      </g>
     </g>
    </g>
    <g id="text_15">
     <!-- $s_{50}$ -->
     <g transform="translate(36.654688 171.8064)rotate(-90)scale(0.1 -0.1)">
      <use xlink:href="#DejaVuSans-Oblique-73"/>
      <use transform="translate(52.099609 -16.40625)scale(0.7)" xlink:href="#DejaVuSans-35"/>
      <use transform="translate(96.635742 -16.40625)scale(0.7)" xlink:href="#DejaVuSans-30"/>
     </g>
    </g>
   </g>
   <g id="line2d_44">
    <path clip-path="url(#p64f2a99a25)" d="M 92.290909 172.616993 
L 97.427848 172.600443 
L 102.564787 172.699986 
L 107.701726 172.891186 
L 112.838665 173.161063 
L 117.975604 173.512772 
L 123.112543 173.945567 
L 128.249482 174.453738 
L 133.386421 174.995928 
L 138.52336 175.575394 
L 143.660299 176.246146 
L 148.797238 176.967846 
L 153.934177 177.785598 
L 159.071116 178.545944 
L 164.208055 179.214512 
L 169.344994 179.830223 
L 174.481933 180.377785 
L 179.618872 180.845127 
L 184.755811 181.223975 
L 189.89275 181.510194 
L 195.029689 181.703924 
L 200.166628 181.809428 
L 205.303567 181.834713 
L 210.440506 181.790946 
L 215.577445 181.691698 
L 220.714384 181.552029 
L 225.851323 181.387534 
L 230.988262 181.213369 
L 236.125201 181.043294 
L 241.26214 180.888894 
L 246.399079 180.758859 
L 251.536018 180.654222 
L 256.672957 180.480768 
L 261.809896 180.33453 
L 266.946835 180.207312 
L 272.083774 180.098827 
L 277.220713 179.997551 
L 282.357652 179.91072 
L 287.494591 179.814167 
L 292.63153 179.692694 
L 297.76847 179.53721 
L 302.905409 179.340569 
L 308.042348 179.104415 
L 313.179287 178.92162 
L 318.316226 178.680562 
L 323.453165 178.3488 
L 328.590104 177.998209 
L 333.727043 177.427962 
L 338.863982 176.849345 
L 344.000921 176.306999 
L 349.13786 176.811159 
L 354.274799 178.925433 
L 359.411738 181.376659 
L 364.548677 184.039656 
L 369.685616 186.116507 
L 374.822555 187.177846 
L 379.959494 187.177162 
L 385.096433 186.112382 
L 390.233372 184.026018 
L 395.370311 181.204756 
L 400.50725 178.665659 
L 405.644189 176.191557 
L 410.781128 175.154427 
L 415.918067 175.478971 
L 421.055006 175.949338 
L 426.191945 176.406351 
L 431.328884 176.673742 
L 436.465823 176.938178 
L 441.602762 177.19446 
L 446.739701 177.439278 
L 451.87664 177.671238 
L 457.013579 177.942216 
L 462.150518 178.214026 
L 467.287457 178.469476 
L 472.424396 178.715187 
L 477.561335 178.913865 
L 482.698274 179.116962 
L 487.835213 179.333602 
L 492.972152 179.586704 
L 498.109091 179.865758 
" style="fill:none;stroke:#1f77b4;stroke-linecap:square;stroke-width:1.5;"/>
   </g>
   <g id="line2d_45">
    <path clip-path="url(#p64f2a99a25)" d="M 92.290909 147.503746 
L 97.427848 147.587475 
L 102.564787 147.779862 
L 107.701726 148.114068 
L 112.838665 148.629223 
L 117.975604 149.369216 
L 123.112543 150.378072 
L 128.249482 151.692037 
L 133.386421 153.329359 
L 138.52336 155.280646 
L 143.660299 157.502954 
L 148.797238 159.920578 
L 153.934177 162.432615 
L 159.071116 164.925503 
L 164.208055 167.286528 
L 169.344994 169.415203 
L 174.481933 171.230563 
L 179.618872 172.674363 
L 184.755811 173.711138 
L 189.89275 174.326555 
L 195.029689 174.525068 
L 200.166628 174.327612 
L 205.303567 173.769565 
L 210.440506 172.898767 
L 215.577445 171.773273 
L 220.714384 170.458571 
L 225.851323 169.023939 
L 230.988262 167.538044 
L 236.125201 166.064237 
L 241.26214 164.656024 
L 246.399079 163.353471 
L 251.536018 162.18096 
L 256.672957 161.146551 
L 261.809896 160.242653 
L 266.946835 159.447829 
L 272.083774 158.729421 
L 277.220713 158.046634 
L 282.357652 157.354247 
L 287.494591 156.606647 
L 292.63153 155.762337 
L 297.76847 154.7886 
L 302.905409 153.666156 
L 308.042348 152.393314 
L 313.179287 150.989165 
L 318.316226 149.494718 
L 323.453165 147.971261 
L 328.590104 146.494794 
L 333.727043 145.14662 
L 338.863982 144.000815 
L 344.000921 143.111162 
L 349.13786 142.500771 
L 354.274799 142.15725 
L 359.411738 142.034954 
L 364.548677 142.064033 
L 369.685616 142.164711 
L 374.822555 142.264124 
L 379.959494 142.312456 
L 385.096433 142.294503 
L 390.233372 142.233493 
L 395.370311 142.185585 
L 400.50725 142.226223 
L 405.644189 142.431729 
L 410.781128 142.861093 
L 415.918067 143.542588 
L 421.055006 144.468183 
L 426.191945 145.596347 
L 431.328884 146.861641 
L 436.465823 148.187832 
L 441.602762 149.500922 
L 446.739701 150.739468 
L 451.87664 151.860838 
L 457.013579 152.843595 
L 462.150518 153.686822 
L 467.287457 154.407292 
L 472.424396 155.035533 
L 477.561335 155.611308 
L 482.698274 156.179068 
L 487.835213 156.78355 
L 492.972152 157.465834 
L 498.109091 158.259661 
" style="fill:none;stroke:#ff7f0e;stroke-linecap:square;stroke-width:1.5;"/>
   </g>
   <g id="patch_13">
    <path d="M 72 193.94928 
L 72 135.26352 
" style="fill:none;stroke:#000000;stroke-linecap:square;stroke-linejoin:miter;stroke-width:0.8;"/>
   </g>
   <g id="patch_14">
    <path d="M 518.4 193.94928 
L 518.4 135.26352 
" style="fill:none;stroke:#000000;stroke-linecap:square;stroke-linejoin:miter;stroke-width:0.8;"/>
   </g>
   <g id="patch_15">
    <path d="M 72 193.94928 
L 518.4 193.94928 
" style="fill:none;stroke:#000000;stroke-linecap:square;stroke-linejoin:miter;stroke-width:0.8;"/>
   </g>
   <g id="patch_16">
    <path d="M 72 135.26352 
L 518.4 135.26352 
" style="fill:none;stroke:#000000;stroke-linecap:square;stroke-linejoin:miter;stroke-width:0.8;"/>
   </g>
  </g>
  <g id="axes_4">
   <g id="patch_17">
    <path d="M 72 252.63504 
L 518.4 252.63504 
L 518.4 193.94928 
L 72 193.94928 
z
" style="fill:#ffffff;"/>
   </g>
   <g id="matplotlib.axis_7">
    <g id="xtick_28">
     <g id="line2d_46">
      <g>
       <use style="stroke:#000000;stroke-width:0.8;" x="92.290909" xlink:href="#mece2a39073" y="252.63504"/>
      </g>
     </g>
    </g>
    <g id="xtick_29">
     <g id="line2d_47">
      <g>
       <use style="stroke:#000000;stroke-width:0.8;" x="143.660299" xlink:href="#mece2a39073" y="252.63504"/>
      </g>
     </g>
    </g>
    <g id="xtick_30">
     <g id="line2d_48">
      <g>
       <use style="stroke:#000000;stroke-width:0.8;" x="195.029689" xlink:href="#mece2a39073" y="252.63504"/>
      </g>
     </g>
    </g>
    <g id="xtick_31">
     <g id="line2d_49">
      <g>
       <use style="stroke:#000000;stroke-width:0.8;" x="246.399079" xlink:href="#mece2a39073" y="252.63504"/>
      </g>
     </g>
    </g>
    <g id="xtick_32">
     <g id="line2d_50">
      <g>
       <use style="stroke:#000000;stroke-width:0.8;" x="297.76847" xlink:href="#mece2a39073" y="252.63504"/>
      </g>
     </g>
    </g>
    <g id="xtick_33">
     <g id="line2d_51">
      <g>
       <use style="stroke:#000000;stroke-width:0.8;" x="349.13786" xlink:href="#mece2a39073" y="252.63504"/>
      </g>
     </g>
    </g>
    <g id="xtick_34">
     <g id="line2d_52">
      <g>
       <use style="stroke:#000000;stroke-width:0.8;" x="400.50725" xlink:href="#mece2a39073" y="252.63504"/>
      </g>
     </g>
    </g>
    <g id="xtick_35">
     <g id="line2d_53">
      <g>
       <use style="stroke:#000000;stroke-width:0.8;" x="451.87664" xlink:href="#mece2a39073" y="252.63504"/>
      </g>
     </g>
    </g>
    <g id="xtick_36">
     <g id="line2d_54">
      <g>
       <use style="stroke:#000000;stroke-width:0.8;" x="503.24603" xlink:href="#mece2a39073" y="252.63504"/>
      </g>
     </g>
    </g>
   </g>
   <g id="matplotlib.axis_8">
    <g id="ytick_13">
     <g id="line2d_55">
      <g>
       <use style="stroke:#000000;stroke-width:0.8;" x="72" xlink:href="#m2ed2e3114c" y="245.863606"/>
      </g>
     </g>
     <g id="text_16">
      <!-- -0.45 -->
      <g transform="translate(39.126562 249.662825)scale(0.1 -0.1)">
       <use xlink:href="#DejaVuSans-2d"/>
       <use x="36.083984" xlink:href="#DejaVuSans-30"/>
       <use x="99.707031" xlink:href="#DejaVuSans-2e"/>
       <use x="131.494141" xlink:href="#DejaVuSans-34"/>
       <use x="195.117188" xlink:href="#DejaVuSans-35"/>
      </g>
     </g>
    </g>
    <g id="ytick_14">
     <g id="line2d_56">
      <g>
       <use style="stroke:#000000;stroke-width:0.8;" x="72" xlink:href="#m2ed2e3114c" y="230.815975"/>
      </g>
     </g>
     <g id="text_17">
      <!-- 1.48 -->
      <g transform="translate(42.734375 234.615194)scale(0.1 -0.1)">
       <use xlink:href="#DejaVuSans-31"/>
       <use x="63.623047" xlink:href="#DejaVuSans-2e"/>
       <use x="95.410156" xlink:href="#DejaVuSans-34"/>
       <use x="159.033203" xlink:href="#DejaVuSans-38"/>
      </g>
     </g>
    </g>
    <g id="ytick_15">
     <g id="line2d_57">
      <g>
       <use style="stroke:#000000;stroke-width:0.8;" x="72" xlink:href="#m2ed2e3114c" y="215.768345"/>
      </g>
     </g>
     <g id="text_18">
      <!-- 3.41 -->
      <g transform="translate(42.734375 219.567563)scale(0.1 -0.1)">
       <use xlink:href="#DejaVuSans-33"/>
       <use x="63.623047" xlink:href="#DejaVuSans-2e"/>
       <use x="95.410156" xlink:href="#DejaVuSans-34"/>
       <use x="159.033203" xlink:href="#DejaVuSans-31"/>
      </g>
     </g>
    </g>
    <g id="ytick_16">
     <g id="line2d_58">
      <g>
       <use style="stroke:#000000;stroke-width:0.8;" x="72" xlink:href="#m2ed2e3114c" y="200.720714"/>
      </g>
     </g>
     <g id="text_19">
      <!-- 5.33 -->
      <g transform="translate(42.734375 204.519932)scale(0.1 -0.1)">
       <use xlink:href="#DejaVuSans-35"/>
       <use x="63.623047" xlink:href="#DejaVuSans-2e"/>
       <use x="95.410156" xlink:href="#DejaVuSans-33"/>
       <use x="159.033203" xlink:href="#DejaVuSans-33"/>
      </g>
     </g>
    </g>
    <g id="text_20">
     <!-- $s_{75}$ -->
     <g transform="translate(33.046875 230.49216)rotate(-90)scale(0.1 -0.1)">
      <use xlink:href="#DejaVuSans-Oblique-73"/>
      <use transform="translate(52.099609 -16.40625)scale(0.7)" xlink:href="#DejaVuSans-37"/>
      <use transform="translate(96.635742 -16.40625)scale(0.7)" xlink:href="#DejaVuSans-35"/>
     </g>
    </g>
   </g>
   <g id="line2d_59">
    <path clip-path="url(#pe20646b003)" d="M 92.290909 236.384224 
L 97.427848 236.30824 
L 102.564787 236.164861 
L 107.701726 235.787834 
L 112.838665 235.249293 
L 117.975604 234.542073 
L 123.112543 233.667663 
L 128.249482 232.625432 
L 133.386421 231.343 
L 138.52336 230.082535 
L 143.660299 228.895499 
L 148.797238 227.886439 
L 153.934177 227.234196 
L 159.071116 226.773244 
L 164.208055 226.57981 
L 169.344994 226.407474 
L 174.481933 226.261533 
L 179.618872 226.14614 
L 184.755811 226.06412 
L 189.89275 226.016806 
L 195.029689 226.004024 
L 200.166628 226.024147 
L 205.303567 226.074217 
L 210.440506 226.150155 
L 215.577445 226.247026 
L 220.714384 226.359361 
L 225.851323 226.481515 
L 230.988262 226.607992 
L 236.125201 226.733772 
L 241.26214 226.85462 
L 246.399079 226.967307 
L 251.536018 227.081005 
L 256.672957 227.272828 
L 261.809896 227.45546 
L 266.946835 227.798501 
L 272.083774 228.132708 
L 277.220713 228.454131 
L 282.357652 228.810161 
L 287.494591 229.20321 
L 292.63153 229.647654 
L 297.76847 230.162717 
L 302.905409 230.763471 
L 308.042348 231.476617 
L 313.179287 232.564057 
L 318.316226 233.787259 
L 323.453165 235.13602 
L 328.590104 236.574485 
L 333.727043 237.79329 
L 338.863982 239.011842 
L 344.000921 240.215841 
L 349.13786 241.558296 
L 354.274799 243.160351 
L 359.411738 244.646391 
L 364.548677 245.20552 
L 369.685616 245.542649 
L 374.822555 245.76373 
L 379.959494 245.863606 
L 385.096433 245.841851 
L 390.233372 245.7027 
L 395.370311 245.395353 
L 400.50725 244.111556 
L 405.644189 242.662889 
L 410.781128 241.266422 
L 415.918067 240.150037 
L 421.055006 239.061347 
L 426.191945 237.946179 
L 431.328884 236.621882 
L 436.465823 235.382565 
L 441.602762 234.254398 
L 446.739701 233.253948 
L 451.87664 232.387647 
L 457.013579 231.792608 
L 462.150518 231.345052 
L 467.287457 230.966787 
L 472.424396 230.638465 
L 477.561335 230.32614 
L 482.698274 230.018297 
L 487.835213 229.693156 
L 492.972152 229.358254 
L 498.109091 229.058411 
" style="fill:none;stroke:#1f77b4;stroke-linecap:square;stroke-width:1.5;"/>
   </g>
   <g id="line2d_60">
    <path clip-path="url(#pe20646b003)" d="M 92.290909 215.047881 
L 97.427848 214.936399 
L 102.564787 214.70332 
L 107.701726 214.334865 
L 112.838665 213.827429 
L 117.975604 213.189124 
L 123.112543 212.439954 
L 128.249482 211.610433 
L 133.386421 210.738647 
L 138.52336 209.866063 
L 143.660299 209.032719 
L 148.797238 208.27253 
L 153.934177 207.609655 
L 159.071116 207.056568 
L 164.208055 206.614147 
L 169.344994 206.273596 
L 174.481933 206.019515 
L 179.618872 205.833414 
L 184.755811 205.696902 
L 189.89275 205.594116 
L 195.029689 205.513146 
L 200.166628 205.446449 
L 205.303567 205.390408 
L 210.440506 205.344278 
L 215.577445 205.308715 
L 220.714384 205.284338 
L 225.851323 205.270467 
L 230.988262 205.264452 
L 236.125201 205.261614 
L 241.26214 205.255855 
L 246.399079 205.24067 
L 251.536018 205.210374 
L 256.672957 205.161104 
L 261.809896 205.091468 
L 266.946835 205.002639 
L 272.083774 204.89804 
L 277.220713 204.782706 
L 282.357652 204.662553 
L 287.494591 204.543737 
L 292.63153 204.432199 
L 297.76847 204.33338 
L 302.905409 204.251974 
L 308.042348 204.191602 
L 313.179287 204.154214 
L 318.316226 204.139214 
L 323.453165 204.142358 
L 328.590104 204.154847 
L 333.727043 204.163075 
L 338.863982 204.149543 
L 344.000921 204.095361 
L 349.13786 203.984031 
L 354.274799 203.805799 
L 359.411738 203.561131 
L 364.548677 203.261796 
L 369.685616 202.928835 
L 374.822555 202.587729 
L 379.959494 202.262493 
L 385.096433 201.970715 
L 390.233372 201.720937 
L 395.370311 201.512908 
L 400.50725 201.340234 
L 405.644189 201.194325 
L 410.781128 201.068134 
L 415.918067 200.958346 
L 421.055006 200.865554 
L 426.191945 200.79283 
L 431.328884 200.743739 
L 436.465823 200.720714 
L 441.602762 200.724241 
L 446.739701 200.752958 
L 451.87664 200.804265 
L 457.013579 200.875082 
L 462.150518 200.962447 
L 467.287457 201.063813 
L 472.424396 201.17705 
L 477.561335 201.30025 
L 482.698274 201.431517 
L 487.835213 201.568864 
L 492.972152 201.710244 
L 498.109091 201.853825 
" style="fill:none;stroke:#ff7f0e;stroke-linecap:square;stroke-width:1.5;"/>
   </g>
   <g id="patch_18">
    <path d="M 72 252.63504 
L 72 193.94928 
" style="fill:none;stroke:#000000;stroke-linecap:square;stroke-linejoin:miter;stroke-width:0.8;"/>
   </g>
   <g id="patch_19">
    <path d="M 518.4 252.63504 
L 518.4 193.94928 
" style="fill:none;stroke:#000000;stroke-linecap:square;stroke-linejoin:miter;stroke-width:0.8;"/>
   </g>
   <g id="patch_20">
    <path d="M 72 252.63504 
L 518.4 252.63504 
" style="fill:none;stroke:#000000;stroke-linecap:square;stroke-linejoin:miter;stroke-width:0.8;"/>
   </g>
   <g id="patch_21">
    <path d="M 72 193.94928 
L 518.4 193.94928 
" style="fill:none;stroke:#000000;stroke-linecap:square;stroke-linejoin:miter;stroke-width:0.8;"/>
   </g>
  </g>
  <g id="axes_5">
   <g id="patch_22">
    <path d="M 72 311.3208 
L 518.4 311.3208 
L 518.4 252.63504 
L 72 252.63504 
z
" style="fill:#ffffff;"/>
   </g>
   <g id="matplotlib.axis_9">
    <g id="xtick_37">
     <g id="line2d_61">
      <g>
       <use style="stroke:#000000;stroke-width:0.8;" x="92.290909" xlink:href="#mece2a39073" y="311.3208"/>
      </g>
     </g>
     <g id="text_21">
      <!-- 0 -->
      <g transform="translate(89.109659 325.919237)scale(0.1 -0.1)">
       <use xlink:href="#DejaVuSans-30"/>
      </g>
     </g>
    </g>
    <g id="xtick_38">
     <g id="line2d_62">
      <g>
       <use style="stroke:#000000;stroke-width:0.8;" x="143.660299" xlink:href="#mece2a39073" y="311.3208"/>
      </g>
     </g>
     <g id="text_22">
      <!-- 10 -->
      <g transform="translate(137.297799 325.919237)scale(0.1 -0.1)">
       <use xlink:href="#DejaVuSans-31"/>
       <use x="63.623047" xlink:href="#DejaVuSans-30"/>
      </g>
     </g>
    </g>
    <g id="xtick_39">
     <g id="line2d_63">
      <g>
       <use style="stroke:#000000;stroke-width:0.8;" x="195.029689" xlink:href="#mece2a39073" y="311.3208"/>
      </g>
     </g>
     <g id="text_23">
      <!-- 20 -->
      <g transform="translate(188.667189 325.919237)scale(0.1 -0.1)">
       <use xlink:href="#DejaVuSans-32"/>
       <use x="63.623047" xlink:href="#DejaVuSans-30"/>
      </g>
     </g>
    </g>
    <g id="xtick_40">
     <g id="line2d_64">
      <g>
       <use style="stroke:#000000;stroke-width:0.8;" x="246.399079" xlink:href="#mece2a39073" y="311.3208"/>
      </g>
     </g>
     <g id="text_24">
      <!-- 30 -->
      <g transform="translate(240.036579 325.919237)scale(0.1 -0.1)">
       <use xlink:href="#DejaVuSans-33"/>
       <use x="63.623047" xlink:href="#DejaVuSans-30"/>
      </g>
     </g>
    </g>
    <g id="xtick_41">
     <g id="line2d_65">
      <g>
       <use style="stroke:#000000;stroke-width:0.8;" x="297.76847" xlink:href="#mece2a39073" y="311.3208"/>
      </g>
     </g>
     <g id="text_25">
      <!-- 40 -->
      <g transform="translate(291.40597 325.919237)scale(0.1 -0.1)">
       <use xlink:href="#DejaVuSans-34"/>
       <use x="63.623047" xlink:href="#DejaVuSans-30"/>
      </g>
     </g>
    </g>
    <g id="xtick_42">
     <g id="line2d_66">
      <g>
       <use style="stroke:#000000;stroke-width:0.8;" x="349.13786" xlink:href="#mece2a39073" y="311.3208"/>
      </g>
     </g>
     <g id="text_26">
      <!-- 50 -->
      <g transform="translate(342.77536 325.919237)scale(0.1 -0.1)">
       <use xlink:href="#DejaVuSans-35"/>
       <use x="63.623047" xlink:href="#DejaVuSans-30"/>
      </g>
     </g>
    </g>
    <g id="xtick_43">
     <g id="line2d_67">
      <g>
       <use style="stroke:#000000;stroke-width:0.8;" x="400.50725" xlink:href="#mece2a39073" y="311.3208"/>
      </g>
     </g>
     <g id="text_27">
      <!-- 60 -->
      <g transform="translate(394.14475 325.919237)scale(0.1 -0.1)">
       <use xlink:href="#DejaVuSans-36"/>
       <use x="63.623047" xlink:href="#DejaVuSans-30"/>
      </g>
     </g>
    </g>
    <g id="xtick_44">
     <g id="line2d_68">
      <g>
       <use style="stroke:#000000;stroke-width:0.8;" x="451.87664" xlink:href="#mece2a39073" y="311.3208"/>
      </g>
     </g>
     <g id="text_28">
      <!-- 70 -->
      <g transform="translate(445.51414 325.919237)scale(0.1 -0.1)">
       <use xlink:href="#DejaVuSans-37"/>
       <use x="63.623047" xlink:href="#DejaVuSans-30"/>
      </g>
     </g>
    </g>
    <g id="xtick_45">
     <g id="line2d_69">
      <g>
       <use style="stroke:#000000;stroke-width:0.8;" x="503.24603" xlink:href="#mece2a39073" y="311.3208"/>
      </g>
     </g>
     <g id="text_29">
      <!-- 80 -->
      <g transform="translate(496.88353 325.919237)scale(0.1 -0.1)">
       <use xlink:href="#DejaVuSans-38"/>
       <use x="63.623047" xlink:href="#DejaVuSans-30"/>
      </g>
     </g>
    </g>
   </g>
   <g id="matplotlib.axis_10">
    <g id="ytick_17">
     <g id="line2d_70">
      <g>
       <use style="stroke:#000000;stroke-width:0.8;" x="72" xlink:href="#m2ed2e3114c" y="304.549366"/>
      </g>
     </g>
     <g id="text_30">
      <!-- -10.45 -->
      <g transform="translate(32.764063 308.348585)scale(0.1 -0.1)">
       <use xlink:href="#DejaVuSans-2d"/>
       <use x="36.083984" xlink:href="#DejaVuSans-31"/>
       <use x="99.707031" xlink:href="#DejaVuSans-30"/>
       <use x="163.330078" xlink:href="#DejaVuSans-2e"/>
       <use x="195.117188" xlink:href="#DejaVuSans-34"/>
       <use x="258.740234" xlink:href="#DejaVuSans-35"/>
      </g>
     </g>
    </g>
    <g id="ytick_18">
     <g id="line2d_71">
      <g>
       <use style="stroke:#000000;stroke-width:0.8;" x="72" xlink:href="#m2ed2e3114c" y="289.501735"/>
      </g>
     </g>
     <g id="text_31">
      <!-- -8.67 -->
      <g transform="translate(39.126562 293.300954)scale(0.1 -0.1)">
       <use xlink:href="#DejaVuSans-2d"/>
       <use x="36.083984" xlink:href="#DejaVuSans-38"/>
       <use x="99.707031" xlink:href="#DejaVuSans-2e"/>
       <use x="131.494141" xlink:href="#DejaVuSans-36"/>
       <use x="195.117188" xlink:href="#DejaVuSans-37"/>
      </g>
     </g>
    </g>
    <g id="ytick_19">
     <g id="line2d_72">
      <g>
       <use style="stroke:#000000;stroke-width:0.8;" x="72" xlink:href="#m2ed2e3114c" y="274.454105"/>
      </g>
     </g>
     <g id="text_32">
      <!-- -6.88 -->
      <g transform="translate(39.126562 278.253323)scale(0.1 -0.1)">
       <use xlink:href="#DejaVuSans-2d"/>
       <use x="36.083984" xlink:href="#DejaVuSans-36"/>
       <use x="99.707031" xlink:href="#DejaVuSans-2e"/>
       <use x="131.494141" xlink:href="#DejaVuSans-38"/>
       <use x="195.117188" xlink:href="#DejaVuSans-38"/>
      </g>
     </g>
    </g>
    <g id="ytick_20">
     <g id="line2d_73">
      <g>
       <use style="stroke:#000000;stroke-width:0.8;" x="72" xlink:href="#m2ed2e3114c" y="259.406474"/>
      </g>
     </g>
     <g id="text_33">
      <!-- -5.09 -->
      <g transform="translate(39.126562 263.205693)scale(0.1 -0.1)">
       <use xlink:href="#DejaVuSans-2d"/>
       <use x="36.083984" xlink:href="#DejaVuSans-35"/>
       <use x="99.707031" xlink:href="#DejaVuSans-2e"/>
       <use x="131.494141" xlink:href="#DejaVuSans-30"/>
       <use x="195.117188" xlink:href="#DejaVuSans-39"/>
      </g>
     </g>
    </g>
    <g id="text_34">
     <!-- $s_{92}$ -->
     <g transform="translate(26.684375 289.17792)rotate(-90)scale(0.1 -0.1)">
      <use xlink:href="#DejaVuSans-Oblique-73"/>
      <use transform="translate(52.099609 -16.40625)scale(0.7)" xlink:href="#DejaVuSans-39"/>
      <use transform="translate(96.624805 -16.40625)scale(0.7)" xlink:href="#DejaVuSans-32"/>
     </g>
    </g>
   </g>
   <g id="line2d_74">
    <path clip-path="url(#p2f95304796)" d="M 92.290909 286.895734 
L 97.427848 286.621168 
L 102.564787 286.090089 
L 107.701726 285.136842 
L 112.838665 283.778972 
L 117.975604 281.998932 
L 123.112543 279.800462 
L 128.249482 277.246688 
L 133.386421 274.584831 
L 138.52336 271.924559 
L 143.660299 269.227996 
L 148.797238 266.671678 
L 153.934177 264.56216 
L 159.071116 262.944131 
L 164.208055 262.085627 
L 169.344994 261.315778 
L 174.481933 260.657363 
L 179.618872 260.12827 
L 184.755811 259.740618 
L 189.89275 259.500233 
L 195.029689 259.406474 
L 200.166628 259.452437 
L 205.303567 259.625544 
L 210.440506 259.908396 
L 215.577445 260.27998 
L 220.714384 260.71699 
L 225.851323 261.195318 
L 230.988262 261.69151 
L 236.125201 262.184201 
L 241.26214 262.655347 
L 246.399079 263.09124 
L 251.536018 263.512774 
L 256.672957 263.907928 
L 261.809896 264.248141 
L 266.946835 264.755372 
L 272.083774 265.211882 
L 277.220713 265.640071 
L 282.357652 266.141861 
L 287.494591 266.731622 
L 292.63153 267.446787 
L 297.76847 268.333274 
L 302.905409 269.427225 
L 308.042348 270.765989 
L 313.179287 272.571411 
L 318.316226 274.598238 
L 323.453165 276.763328 
L 328.590104 279.116604 
L 333.727043 281.678002 
L 338.863982 284.309729 
L 344.000921 286.912099 
L 349.13786 289.861678 
L 354.274799 293.645259 
L 359.411738 297.121111 
L 364.548677 298.877584 
L 369.685616 299.911143 
L 374.822555 300.379432 
L 379.959494 300.256336 
L 385.096433 299.540962 
L 390.233372 298.257689 
L 395.370311 296.36567 
L 400.50725 292.675221 
L 405.644189 288.539816 
L 410.781128 284.975012 
L 415.918067 282.075611 
L 421.055006 279.212203 
L 426.191945 276.412855 
L 431.328884 273.835491 
L 436.465823 271.454132 
L 441.602762 269.319918 
L 446.739701 267.465101 
L 451.87664 265.902046 
L 457.013579 264.739803 
L 462.150518 263.861278 
L 467.287457 263.178127 
L 472.424396 262.644589 
L 477.561335 262.229147 
L 482.698274 261.857097 
L 487.835213 261.4751 
L 492.972152 261.089394 
L 498.109091 260.80188 
" style="fill:none;stroke:#1f77b4;stroke-linecap:square;stroke-width:1.5;"/>
   </g>
   <g id="line2d_75">
    <path clip-path="url(#p2f95304796)" d="M 92.290909 304.549366 
L 97.427848 304.460494 
L 102.564787 304.271618 
L 107.701726 303.96372 
L 112.838665 303.519287 
L 117.975604 302.922806 
L 123.112543 302.161641 
L 128.249482 301.227499 
L 133.386421 300.118619 
L 138.52336 298.842282 
L 143.660299 297.417282 
L 148.797238 295.875277 
L 153.934177 294.260508 
L 159.071116 292.627373 
L 164.208055 291.036266 
L 169.344994 289.548395 
L 174.481933 288.220401 
L 179.618872 287.099697 
L 184.755811 286.221111 
L 189.89275 285.604817 
L 195.029689 285.25571 
L 200.166628 285.163969 
L 205.303567 285.306565 
L 210.440506 285.649635 
L 215.577445 286.151449 
L 220.714384 286.765846 
L 225.851323 287.445862 
L 230.988262 288.147138 
L 236.125201 288.830908 
L 241.26214 289.466251 
L 246.399079 290.031481 
L 251.536018 290.514672 
L 256.672957 290.913524 
L 261.809896 291.234651 
L 266.946835 291.492466 
L 272.083774 291.707795 
L 277.220713 291.906131 
L 282.357652 292.115632 
L 287.494591 292.364799 
L 292.63153 292.679979 
L 297.76847 293.082785 
L 302.905409 293.58775 
L 308.042348 294.200483 
L 313.179287 294.916652 
L 318.316226 295.722032 
L 323.453165 296.593729 
L 328.590104 297.502577 
L 333.727043 298.416199 
L 338.863982 299.302308 
L 344.000921 300.131487 
L 349.13786 300.878883 
L 354.274799 301.524699 
L 359.411738 302.053784 
L 364.548677 302.454662 
L 369.685616 302.718835 
L 374.822555 302.840436 
L 379.959494 302.816219 
L 385.096433 302.645716 
L 390.233372 302.331316 
L 395.370311 301.878122 
L 400.50725 301.294027 
L 405.644189 300.589978 
L 410.781128 299.780725 
L 415.918067 298.885702 
L 421.055006 297.929504 
L 426.191945 296.941462 
L 431.328884 295.954014 
L 436.465823 294.999979 
L 441.602762 294.109296 
L 446.739701 293.305862 
L 451.87664 292.605068 
L 457.013579 292.012445 
L 462.150518 291.523452 
L 467.287457 291.124455 
L 472.424396 290.794494 
L 477.561335 290.507591 
L 482.698274 290.235348 
L 487.835213 289.949473 
L 492.972152 289.624158 
L 498.109091 289.238134 
" style="fill:none;stroke:#ff7f0e;stroke-linecap:square;stroke-width:1.5;"/>
   </g>
   <g id="patch_23">
    <path d="M 72 311.3208 
L 72 252.63504 
" style="fill:none;stroke:#000000;stroke-linecap:square;stroke-linejoin:miter;stroke-width:0.8;"/>
   </g>
   <g id="patch_24">
    <path d="M 518.4 311.3208 
L 518.4 252.63504 
" style="fill:none;stroke:#000000;stroke-linecap:square;stroke-linejoin:miter;stroke-width:0.8;"/>
   </g>
   <g id="patch_25">
    <path d="M 72 311.3208 
L 518.4 311.3208 
" style="fill:none;stroke:#000000;stroke-linecap:square;stroke-linejoin:miter;stroke-width:0.8;"/>
   </g>
   <g id="patch_26">
    <path d="M 72 252.63504 
L 518.4 252.63504 
" style="fill:none;stroke:#000000;stroke-linecap:square;stroke-linejoin:miter;stroke-width:0.8;"/>
   </g>
  </g>
  <g id="legend_1">
   <g id="patch_27">
    <path d="M 190.564063 352.84 
L 385.435938 352.84 
Q 387.435938 352.84 387.435938 350.84 
L 387.435938 337.161875 
Q 387.435938 335.161875 385.435938 335.161875 
L 190.564063 335.161875 
Q 188.564063 335.161875 188.564063 337.161875 
L 188.564063 350.84 
Q 188.564063 352.84 190.564063 352.84 
z
" style="fill:#ffffff;opacity:0.8;stroke:#cccccc;stroke-linejoin:miter;"/>
   </g>
   <g id="line2d_76">
    <path d="M 192.564063 343.260312 
L 212.564063 343.260312 
" style="fill:none;stroke:#1f77b4;stroke-linecap:square;stroke-width:1.5;"/>
   </g>
   <g id="line2d_77"/>
   <g id="text_35">
    <!-- Prediction -->
    <defs>
     <path d="M 19.671875 64.796875 
L 19.671875 37.40625 
L 32.078125 37.40625 
Q 38.96875 37.40625 42.71875 40.96875 
Q 46.484375 44.53125 46.484375 51.125 
Q 46.484375 57.671875 42.71875 61.234375 
Q 38.96875 64.796875 32.078125 64.796875 
z
M 9.8125 72.90625 
L 32.078125 72.90625 
Q 44.34375 72.90625 50.609375 67.359375 
Q 56.890625 61.8125 56.890625 51.125 
Q 56.890625 40.328125 50.609375 34.8125 
Q 44.34375 29.296875 32.078125 29.296875 
L 19.671875 29.296875 
L 19.671875 0 
L 9.8125 0 
z
" id="DejaVuSans-50"/>
     <path d="M 41.109375 46.296875 
Q 39.59375 47.171875 37.8125 47.578125 
Q 36.03125 48 33.890625 48 
Q 26.265625 48 22.1875 43.046875 
Q 18.109375 38.09375 18.109375 28.8125 
L 18.109375 0 
L 9.078125 0 
L 9.078125 54.6875 
L 18.109375 54.6875 
L 18.109375 46.1875 
Q 20.953125 51.171875 25.484375 53.578125 
Q 30.03125 56 36.53125 56 
Q 37.453125 56 38.578125 55.875 
Q 39.703125 55.765625 41.0625 55.515625 
z
" id="DejaVuSans-72"/>
     <path d="M 56.203125 29.59375 
L 56.203125 25.203125 
L 14.890625 25.203125 
Q 15.484375 15.921875 20.484375 11.0625 
Q 25.484375 6.203125 34.421875 6.203125 
Q 39.59375 6.203125 44.453125 7.46875 
Q 49.3125 8.734375 54.109375 11.28125 
L 54.109375 2.78125 
Q 49.265625 0.734375 44.1875 -0.34375 
Q 39.109375 -1.421875 33.890625 -1.421875 
Q 20.796875 -1.421875 13.15625 6.1875 
Q 5.515625 13.8125 5.515625 26.8125 
Q 5.515625 40.234375 12.765625 48.109375 
Q 20.015625 56 32.328125 56 
Q 43.359375 56 49.78125 48.890625 
Q 56.203125 41.796875 56.203125 29.59375 
z
M 47.21875 32.234375 
Q 47.125 39.59375 43.09375 43.984375 
Q 39.0625 48.390625 32.421875 48.390625 
Q 24.90625 48.390625 20.390625 44.140625 
Q 15.875 39.890625 15.1875 32.171875 
z
" id="DejaVuSans-65"/>
     <path d="M 45.40625 46.390625 
L 45.40625 75.984375 
L 54.390625 75.984375 
L 54.390625 0 
L 45.40625 0 
L 45.40625 8.203125 
Q 42.578125 3.328125 38.25 0.953125 
Q 33.9375 -1.421875 27.875 -1.421875 
Q 17.96875 -1.421875 11.734375 6.484375 
Q 5.515625 14.40625 5.515625 27.296875 
Q 5.515625 40.1875 11.734375 48.09375 
Q 17.96875 56 27.875 56 
Q 33.9375 56 38.25 53.625 
Q 42.578125 51.265625 45.40625 46.390625 
z
M 14.796875 27.296875 
Q 14.796875 17.390625 18.875 11.75 
Q 22.953125 6.109375 30.078125 6.109375 
Q 37.203125 6.109375 41.296875 11.75 
Q 45.40625 17.390625 45.40625 27.296875 
Q 45.40625 37.203125 41.296875 42.84375 
Q 37.203125 48.484375 30.078125 48.484375 
Q 22.953125 48.484375 18.875 42.84375 
Q 14.796875 37.203125 14.796875 27.296875 
z
" id="DejaVuSans-64"/>
     <path d="M 9.421875 54.6875 
L 18.40625 54.6875 
L 18.40625 0 
L 9.421875 0 
z
M 9.421875 75.984375 
L 18.40625 75.984375 
L 18.40625 64.59375 
L 9.421875 64.59375 
z
" id="DejaVuSans-69"/>
     <path d="M 48.78125 52.59375 
L 48.78125 44.1875 
Q 44.96875 46.296875 41.140625 47.34375 
Q 37.3125 48.390625 33.40625 48.390625 
Q 24.65625 48.390625 19.8125 42.84375 
Q 14.984375 37.3125 14.984375 27.296875 
Q 14.984375 17.28125 19.8125 11.734375 
Q 24.65625 6.203125 33.40625 6.203125 
Q 37.3125 6.203125 41.140625 7.25 
Q 44.96875 8.296875 48.78125 10.40625 
L 48.78125 2.09375 
Q 45.015625 0.34375 40.984375 -0.53125 
Q 36.96875 -1.421875 32.421875 -1.421875 
Q 20.0625 -1.421875 12.78125 6.34375 
Q 5.515625 14.109375 5.515625 27.296875 
Q 5.515625 40.671875 12.859375 48.328125 
Q 20.21875 56 33.015625 56 
Q 37.15625 56 41.109375 55.140625 
Q 45.0625 54.296875 48.78125 52.59375 
z
" id="DejaVuSans-63"/>
     <path d="M 18.3125 70.21875 
L 18.3125 54.6875 
L 36.8125 54.6875 
L 36.8125 47.703125 
L 18.3125 47.703125 
L 18.3125 18.015625 
Q 18.3125 11.328125 20.140625 9.421875 
Q 21.96875 7.515625 27.59375 7.515625 
L 36.8125 7.515625 
L 36.8125 0 
L 27.59375 0 
Q 17.1875 0 13.234375 3.875 
Q 9.28125 7.765625 9.28125 18.015625 
L 9.28125 47.703125 
L 2.6875 47.703125 
L 2.6875 54.6875 
L 9.28125 54.6875 
L 9.28125 70.21875 
z
" id="DejaVuSans-74"/>
     <path d="M 30.609375 48.390625 
Q 23.390625 48.390625 19.1875 42.75 
Q 14.984375 37.109375 14.984375 27.296875 
Q 14.984375 17.484375 19.15625 11.84375 
Q 23.34375 6.203125 30.609375 6.203125 
Q 37.796875 6.203125 41.984375 11.859375 
Q 46.1875 17.53125 46.1875 27.296875 
Q 46.1875 37.015625 41.984375 42.703125 
Q 37.796875 48.390625 30.609375 48.390625 
z
M 30.609375 56 
Q 42.328125 56 49.015625 48.375 
Q 55.71875 40.765625 55.71875 27.296875 
Q 55.71875 13.875 49.015625 6.21875 
Q 42.328125 -1.421875 30.609375 -1.421875 
Q 18.84375 -1.421875 12.171875 6.21875 
Q 5.515625 13.875 5.515625 27.296875 
Q 5.515625 40.765625 12.171875 48.375 
Q 18.84375 56 30.609375 56 
z
" id="DejaVuSans-6f"/>
     <path d="M 54.890625 33.015625 
L 54.890625 0 
L 45.90625 0 
L 45.90625 32.71875 
Q 45.90625 40.484375 42.875 44.328125 
Q 39.84375 48.1875 33.796875 48.1875 
Q 26.515625 48.1875 22.3125 43.546875 
Q 18.109375 38.921875 18.109375 30.90625 
L 18.109375 0 
L 9.078125 0 
L 9.078125 54.6875 
L 18.109375 54.6875 
L 18.109375 46.1875 
Q 21.34375 51.125 25.703125 53.5625 
Q 30.078125 56 35.796875 56 
Q 45.21875 56 50.046875 50.171875 
Q 54.890625 44.34375 54.890625 33.015625 
z
" id="DejaVuSans-6e"/>
    </defs>
    <g transform="translate(220.564063 346.760312)scale(0.1 -0.1)">
     <use xlink:href="#DejaVuSans-50"/>
     <use x="60.287109" xlink:href="#DejaVuSans-72"/>
     <use x="101.369141" xlink:href="#DejaVuSans-65"/>
     <use x="162.892578" xlink:href="#DejaVuSans-64"/>
     <use x="226.369141" xlink:href="#DejaVuSans-69"/>
     <use x="254.152344" xlink:href="#DejaVuSans-63"/>
     <use x="309.132812" xlink:href="#DejaVuSans-74"/>
     <use x="348.341797" xlink:href="#DejaVuSans-69"/>
     <use x="376.125" xlink:href="#DejaVuSans-6f"/>
     <use x="437.306641" xlink:href="#DejaVuSans-6e"/>
    </g>
   </g>
   <g id="line2d_78">
    <path d="M 290.632812 343.260312 
L 310.632812 343.260312 
" style="fill:none;stroke:#ff7f0e;stroke-linecap:square;stroke-width:1.5;"/>
   </g>
   <g id="line2d_79"/>
   <g id="text_36">
    <!-- Ground truth -->
    <defs>
     <path d="M 59.515625 10.40625 
L 59.515625 29.984375 
L 43.40625 29.984375 
L 43.40625 38.09375 
L 69.28125 38.09375 
L 69.28125 6.78125 
Q 63.578125 2.734375 56.6875 0.65625 
Q 49.8125 -1.421875 42 -1.421875 
Q 24.90625 -1.421875 15.25 8.5625 
Q 5.609375 18.5625 5.609375 36.375 
Q 5.609375 54.25 15.25 64.234375 
Q 24.90625 74.21875 42 74.21875 
Q 49.125 74.21875 55.546875 72.453125 
Q 61.96875 70.703125 67.390625 67.28125 
L 67.390625 56.78125 
Q 61.921875 61.421875 55.765625 63.765625 
Q 49.609375 66.109375 42.828125 66.109375 
Q 29.4375 66.109375 22.71875 58.640625 
Q 16.015625 51.171875 16.015625 36.375 
Q 16.015625 21.625 22.71875 14.15625 
Q 29.4375 6.6875 42.828125 6.6875 
Q 48.046875 6.6875 52.140625 7.59375 
Q 56.25 8.5 59.515625 10.40625 
z
" id="DejaVuSans-47"/>
     <path d="M 8.5 21.578125 
L 8.5 54.6875 
L 17.484375 54.6875 
L 17.484375 21.921875 
Q 17.484375 14.15625 20.5 10.265625 
Q 23.53125 6.390625 29.59375 6.390625 
Q 36.859375 6.390625 41.078125 11.03125 
Q 45.3125 15.671875 45.3125 23.6875 
L 45.3125 54.6875 
L 54.296875 54.6875 
L 54.296875 0 
L 45.3125 0 
L 45.3125 8.40625 
Q 42.046875 3.421875 37.71875 1 
Q 33.40625 -1.421875 27.6875 -1.421875 
Q 18.265625 -1.421875 13.375 4.4375 
Q 8.5 10.296875 8.5 21.578125 
z
M 31.109375 56 
z
" id="DejaVuSans-75"/>
     <path id="DejaVuSans-20"/>
     <path d="M 54.890625 33.015625 
L 54.890625 0 
L 45.90625 0 
L 45.90625 32.71875 
Q 45.90625 40.484375 42.875 44.328125 
Q 39.84375 48.1875 33.796875 48.1875 
Q 26.515625 48.1875 22.3125 43.546875 
Q 18.109375 38.921875 18.109375 30.90625 
L 18.109375 0 
L 9.078125 0 
L 9.078125 75.984375 
L 18.109375 75.984375 
L 18.109375 46.1875 
Q 21.34375 51.125 25.703125 53.5625 
Q 30.078125 56 35.796875 56 
Q 45.21875 56 50.046875 50.171875 
Q 54.890625 44.34375 54.890625 33.015625 
z
" id="DejaVuSans-68"/>
    </defs>
    <g transform="translate(318.632812 346.760312)scale(0.1 -0.1)">
     <use xlink:href="#DejaVuSans-47"/>
     <use x="77.490234" xlink:href="#DejaVuSans-72"/>
     <use x="118.572266" xlink:href="#DejaVuSans-6f"/>
     <use x="179.753906" xlink:href="#DejaVuSans-75"/>
     <use x="243.132812" xlink:href="#DejaVuSans-6e"/>
     <use x="306.511719" xlink:href="#DejaVuSans-64"/>
     <use x="369.988281" xlink:href="#DejaVuSans-20"/>
     <use x="401.775391" xlink:href="#DejaVuSans-74"/>
     <use x="440.984375" xlink:href="#DejaVuSans-72"/>
     <use x="482.097656" xlink:href="#DejaVuSans-75"/>
     <use x="545.476562" xlink:href="#DejaVuSans-74"/>
     <use x="584.685547" xlink:href="#DejaVuSans-68"/>
    </g>
   </g>
  </g>
 </g>
 <defs>
  <clipPath id="pa577cc6813">
   <rect height="58.68576" width="446.4" x="72" y="17.892"/>
  </clipPath>
  <clipPath id="pf66baa75bb">
   <rect height="58.68576" width="446.4" x="72" y="76.57776"/>
  </clipPath>
  <clipPath id="p64f2a99a25">
   <rect height="58.68576" width="446.4" x="72" y="135.26352"/>
  </clipPath>
  <clipPath id="pe20646b003">
   <rect height="58.68576" width="446.4" x="72" y="193.94928"/>
  </clipPath>
  <clipPath id="p2f95304796">
   <rect height="58.68576" width="446.4" x="72" y="252.63504"/>
  </clipPath>
 </defs>
</svg>
