<?xml version="1.0" encoding="utf-8" standalone="no"?>
<!DOCTYPE svg PUBLIC "-//W3C//DTD SVG 1.1//EN"
  "http://www.w3.org/Graphics/SVG/1.1/DTD/svg11.dtd">
<!-- Created with matplotlib (http://matplotlib.org/) -->
<svg height="357pt" version="1.1" viewBox="0 0 576 357" width="576pt" xmlns="http://www.w3.org/2000/svg" xmlns:xlink="http://www.w3.org/1999/xlink">
 <defs>
  <style type="text/css">
*{stroke-linecap:butt;stroke-linejoin:round;}
  </style>
 </defs>
 <g id="figure_1">
  <g id="patch_1">
   <path d="M 0 357.84 
L 576 357.84 
L 576 0 
L 0 0 
z
" style="fill:#ffffff;"/>
  </g>
  <g id="axes_1">
   <g id="patch_2">
    <path d="M 72 76.57776 
L 518.4 76.57776 
L 518.4 17.892 
L 72 17.892 
z
" style="fill:#ffffff;"/>
   </g>
   <g id="matplotlib.axis_1">
    <g id="xtick_1">
     <g id="line2d_1">
      <defs>
       <path d="M 0 0 
L 0 3.5 
" id="mc96cc3cd8f" style="stroke:#000000;stroke-width:0.8;"/>
      </defs>
      <g>
       <use style="stroke:#000000;stroke-width:0.8;" x="92.290909" xlink:href="#mc96cc3cd8f" y="76.57776"/>
      </g>
     </g>
    </g>
    <g id="xtick_2">
     <g id="line2d_2">
      <g>
       <use style="stroke:#000000;stroke-width:0.8;" x="143.660299" xlink:href="#mc96cc3cd8f" y="76.57776"/>
      </g>
     </g>
    </g>
    <g id="xtick_3">
     <g id="line2d_3">
      <g>
       <use style="stroke:#000000;stroke-width:0.8;" x="195.029689" xlink:href="#mc96cc3cd8f" y="76.57776"/>
      </g>
     </g>
    </g>
    <g id="xtick_4">
     <g id="line2d_4">
      <g>
       <use style="stroke:#000000;stroke-width:0.8;" x="246.399079" xlink:href="#mc96cc3cd8f" y="76.57776"/>
      </g>
     </g>
    </g>
    <g id="xtick_5">
     <g id="line2d_5">
      <g>
       <use style="stroke:#000000;stroke-width:0.8;" x="297.76847" xlink:href="#mc96cc3cd8f" y="76.57776"/>
      </g>
     </g>
    </g>
    <g id="xtick_6">
     <g id="line2d_6">
      <g>
       <use style="stroke:#000000;stroke-width:0.8;" x="349.13786" xlink:href="#mc96cc3cd8f" y="76.57776"/>
      </g>
     </g>
    </g>
    <g id="xtick_7">
     <g id="line2d_7">
      <g>
       <use style="stroke:#000000;stroke-width:0.8;" x="400.50725" xlink:href="#mc96cc3cd8f" y="76.57776"/>
      </g>
     </g>
    </g>
    <g id="xtick_8">
     <g id="line2d_8">
      <g>
       <use style="stroke:#000000;stroke-width:0.8;" x="451.87664" xlink:href="#mc96cc3cd8f" y="76.57776"/>
      </g>
     </g>
    </g>
    <g id="xtick_9">
     <g id="line2d_9">
      <g>
       <use style="stroke:#000000;stroke-width:0.8;" x="503.24603" xlink:href="#mc96cc3cd8f" y="76.57776"/>
      </g>
     </g>
    </g>
   </g>
   <g id="matplotlib.axis_2">
    <g id="ytick_1">
     <g id="line2d_10">
      <defs>
       <path d="M 0 0 
L -3.5 0 
" id="m0780d622bb" style="stroke:#000000;stroke-width:0.8;"/>
      </defs>
      <g>
       <use style="stroke:#000000;stroke-width:0.8;" x="72" xlink:href="#m0780d622bb" y="69.806326"/>
      </g>
     </g>
     <g id="text_1">
      <!-- -0.60 -->
      <defs>
       <path d="M 4.890625 31.390625 
L 31.203125 31.390625 
L 31.203125 23.390625 
L 4.890625 23.390625 
z
" id="DejaVuSans-2d"/>
       <path d="M 31.78125 66.40625 
Q 24.171875 66.40625 20.328125 58.90625 
Q 16.5 51.421875 16.5 36.375 
Q 16.5 21.390625 20.328125 13.890625 
Q 24.171875 6.390625 31.78125 6.390625 
Q 39.453125 6.390625 43.28125 13.890625 
Q 47.125 21.390625 47.125 36.375 
Q 47.125 51.421875 43.28125 58.90625 
Q 39.453125 66.40625 31.78125 66.40625 
z
M 31.78125 74.21875 
Q 44.046875 74.21875 50.515625 64.515625 
Q 56.984375 54.828125 56.984375 36.375 
Q 56.984375 17.96875 50.515625 8.265625 
Q 44.046875 -1.421875 31.78125 -1.421875 
Q 19.53125 -1.421875 13.0625 8.265625 
Q 6.59375 17.96875 6.59375 36.375 
Q 6.59375 54.828125 13.0625 64.515625 
Q 19.53125 74.21875 31.78125 74.21875 
z
" id="DejaVuSans-30"/>
       <path d="M 10.6875 12.40625 
L 21 12.40625 
L 21 0 
L 10.6875 0 
z
" id="DejaVuSans-2e"/>
       <path d="M 33.015625 40.375 
Q 26.375 40.375 22.484375 35.828125 
Q 18.609375 31.296875 18.609375 23.390625 
Q 18.609375 15.53125 22.484375 10.953125 
Q 26.375 6.390625 33.015625 6.390625 
Q 39.65625 6.390625 43.53125 10.953125 
Q 47.40625 15.53125 47.40625 23.390625 
Q 47.40625 31.296875 43.53125 35.828125 
Q 39.65625 40.375 33.015625 40.375 
z
M 52.59375 71.296875 
L 52.59375 62.3125 
Q 48.875 64.0625 45.09375 64.984375 
Q 41.3125 65.921875 37.59375 65.921875 
Q 27.828125 65.921875 22.671875 59.328125 
Q 17.53125 52.734375 16.796875 39.40625 
Q 19.671875 43.65625 24.015625 45.921875 
Q 28.375 48.1875 33.59375 48.1875 
Q 44.578125 48.1875 50.953125 41.515625 
Q 57.328125 34.859375 57.328125 23.390625 
Q 57.328125 12.15625 50.6875 5.359375 
Q 44.046875 -1.421875 33.015625 -1.421875 
Q 20.359375 -1.421875 13.671875 8.265625 
Q 6.984375 17.96875 6.984375 36.375 
Q 6.984375 53.65625 15.1875 63.9375 
Q 23.390625 74.21875 37.203125 74.21875 
Q 40.921875 74.21875 44.703125 73.484375 
Q 48.484375 72.75 52.59375 71.296875 
z
" id="DejaVuSans-36"/>
      </defs>
      <g transform="translate(39.126562 73.605545)scale(0.1 -0.1)">
       <use xlink:href="#DejaVuSans-2d"/>
       <use x="36.083984" xlink:href="#DejaVuSans-30"/>
       <use x="99.707031" xlink:href="#DejaVuSans-2e"/>
       <use x="131.494141" xlink:href="#DejaVuSans-36"/>
       <use x="195.117188" xlink:href="#DejaVuSans-30"/>
      </g>
     </g>
    </g>
    <g id="ytick_2">
     <g id="line2d_11">
      <g>
       <use style="stroke:#000000;stroke-width:0.8;" x="72" xlink:href="#m0780d622bb" y="54.758695"/>
      </g>
     </g>
     <g id="text_2">
      <!-- -0.45 -->
      <defs>
       <path d="M 37.796875 64.3125 
L 12.890625 25.390625 
L 37.796875 25.390625 
z
M 35.203125 72.90625 
L 47.609375 72.90625 
L 47.609375 25.390625 
L 58.015625 25.390625 
L 58.015625 17.1875 
L 47.609375 17.1875 
L 47.609375 0 
L 37.796875 0 
L 37.796875 17.1875 
L 4.890625 17.1875 
L 4.890625 26.703125 
z
" id="DejaVuSans-34"/>
       <path d="M 10.796875 72.90625 
L 49.515625 72.90625 
L 49.515625 64.59375 
L 19.828125 64.59375 
L 19.828125 46.734375 
Q 21.96875 47.46875 24.109375 47.828125 
Q 26.265625 48.1875 28.421875 48.1875 
Q 40.625 48.1875 47.75 41.5 
Q 54.890625 34.8125 54.890625 23.390625 
Q 54.890625 11.625 47.5625 5.09375 
Q 40.234375 -1.421875 26.90625 -1.421875 
Q 22.3125 -1.421875 17.546875 -0.640625 
Q 12.796875 0.140625 7.71875 1.703125 
L 7.71875 11.625 
Q 12.109375 9.234375 16.796875 8.0625 
Q 21.484375 6.890625 26.703125 6.890625 
Q 35.15625 6.890625 40.078125 11.328125 
Q 45.015625 15.765625 45.015625 23.390625 
Q 45.015625 31 40.078125 35.4375 
Q 35.15625 39.890625 26.703125 39.890625 
Q 22.75 39.890625 18.8125 39.015625 
Q 14.890625 38.140625 10.796875 36.28125 
z
" id="DejaVuSans-35"/>
      </defs>
      <g transform="translate(39.126562 58.557914)scale(0.1 -0.1)">
       <use xlink:href="#DejaVuSans-2d"/>
       <use x="36.083984" xlink:href="#DejaVuSans-30"/>
       <use x="99.707031" xlink:href="#DejaVuSans-2e"/>
       <use x="131.494141" xlink:href="#DejaVuSans-34"/>
       <use x="195.117188" xlink:href="#DejaVuSans-35"/>
      </g>
     </g>
    </g>
    <g id="ytick_3">
     <g id="line2d_12">
      <g>
       <use style="stroke:#000000;stroke-width:0.8;" x="72" xlink:href="#m0780d622bb" y="39.711065"/>
      </g>
     </g>
     <g id="text_3">
      <!-- -0.29 -->
      <defs>
       <path d="M 19.1875 8.296875 
L 53.609375 8.296875 
L 53.609375 0 
L 7.328125 0 
L 7.328125 8.296875 
Q 12.9375 14.109375 22.625 23.890625 
Q 32.328125 33.6875 34.8125 36.53125 
Q 39.546875 41.84375 41.421875 45.53125 
Q 43.3125 49.21875 43.3125 52.78125 
Q 43.3125 58.59375 39.234375 62.25 
Q 35.15625 65.921875 28.609375 65.921875 
Q 23.96875 65.921875 18.8125 64.3125 
Q 13.671875 62.703125 7.8125 59.421875 
L 7.8125 69.390625 
Q 13.765625 71.78125 18.9375 73 
Q 24.125 74.21875 28.421875 74.21875 
Q 39.75 74.21875 46.484375 68.546875 
Q 53.21875 62.890625 53.21875 53.421875 
Q 53.21875 48.921875 51.53125 44.890625 
Q 49.859375 40.875 45.40625 35.40625 
Q 44.1875 33.984375 37.640625 27.21875 
Q 31.109375 20.453125 19.1875 8.296875 
z
" id="DejaVuSans-32"/>
       <path d="M 10.984375 1.515625 
L 10.984375 10.5 
Q 14.703125 8.734375 18.5 7.8125 
Q 22.3125 6.890625 25.984375 6.890625 
Q 35.75 6.890625 40.890625 13.453125 
Q 46.046875 20.015625 46.78125 33.40625 
Q 43.953125 29.203125 39.59375 26.953125 
Q 35.25 24.703125 29.984375 24.703125 
Q 19.046875 24.703125 12.671875 31.3125 
Q 6.296875 37.9375 6.296875 49.421875 
Q 6.296875 60.640625 12.9375 67.421875 
Q 19.578125 74.21875 30.609375 74.21875 
Q 43.265625 74.21875 49.921875 64.515625 
Q 56.59375 54.828125 56.59375 36.375 
Q 56.59375 19.140625 48.40625 8.859375 
Q 40.234375 -1.421875 26.421875 -1.421875 
Q 22.703125 -1.421875 18.890625 -0.6875 
Q 15.09375 0.046875 10.984375 1.515625 
z
M 30.609375 32.421875 
Q 37.25 32.421875 41.125 36.953125 
Q 45.015625 41.5 45.015625 49.421875 
Q 45.015625 57.28125 41.125 61.84375 
Q 37.25 66.40625 30.609375 66.40625 
Q 23.96875 66.40625 20.09375 61.84375 
Q 16.21875 57.28125 16.21875 49.421875 
Q 16.21875 41.5 20.09375 36.953125 
Q 23.96875 32.421875 30.609375 32.421875 
z
" id="DejaVuSans-39"/>
      </defs>
      <g transform="translate(39.126562 43.510283)scale(0.1 -0.1)">
       <use xlink:href="#DejaVuSans-2d"/>
       <use x="36.083984" xlink:href="#DejaVuSans-30"/>
       <use x="99.707031" xlink:href="#DejaVuSans-2e"/>
       <use x="131.494141" xlink:href="#DejaVuSans-32"/>
       <use x="195.117188" xlink:href="#DejaVuSans-39"/>
      </g>
     </g>
    </g>
    <g id="ytick_4">
     <g id="line2d_13">
      <g>
       <use style="stroke:#000000;stroke-width:0.8;" x="72" xlink:href="#m0780d622bb" y="24.663434"/>
      </g>
     </g>
     <g id="text_4">
      <!-- -0.13 -->
      <defs>
       <path d="M 12.40625 8.296875 
L 28.515625 8.296875 
L 28.515625 63.921875 
L 10.984375 60.40625 
L 10.984375 69.390625 
L 28.421875 72.90625 
L 38.28125 72.90625 
L 38.28125 8.296875 
L 54.390625 8.296875 
L 54.390625 0 
L 12.40625 0 
z
" id="DejaVuSans-31"/>
       <path d="M 40.578125 39.3125 
Q 47.65625 37.796875 51.625 33 
Q 55.609375 28.21875 55.609375 21.1875 
Q 55.609375 10.40625 48.1875 4.484375 
Q 40.765625 -1.421875 27.09375 -1.421875 
Q 22.515625 -1.421875 17.65625 -0.515625 
Q 12.796875 0.390625 7.625 2.203125 
L 7.625 11.71875 
Q 11.71875 9.328125 16.59375 8.109375 
Q 21.484375 6.890625 26.8125 6.890625 
Q 36.078125 6.890625 40.9375 10.546875 
Q 45.796875 14.203125 45.796875 21.1875 
Q 45.796875 27.640625 41.28125 31.265625 
Q 36.765625 34.90625 28.71875 34.90625 
L 20.21875 34.90625 
L 20.21875 43.015625 
L 29.109375 43.015625 
Q 36.375 43.015625 40.234375 45.921875 
Q 44.09375 48.828125 44.09375 54.296875 
Q 44.09375 59.90625 40.109375 62.90625 
Q 36.140625 65.921875 28.71875 65.921875 
Q 24.65625 65.921875 20.015625 65.03125 
Q 15.375 64.15625 9.8125 62.3125 
L 9.8125 71.09375 
Q 15.4375 72.65625 20.34375 73.4375 
Q 25.25 74.21875 29.59375 74.21875 
Q 40.828125 74.21875 47.359375 69.109375 
Q 53.90625 64.015625 53.90625 55.328125 
Q 53.90625 49.265625 50.4375 45.09375 
Q 46.96875 40.921875 40.578125 39.3125 
z
" id="DejaVuSans-33"/>
      </defs>
      <g transform="translate(39.126562 28.462652)scale(0.1 -0.1)">
       <use xlink:href="#DejaVuSans-2d"/>
       <use x="36.083984" xlink:href="#DejaVuSans-30"/>
       <use x="99.707031" xlink:href="#DejaVuSans-2e"/>
       <use x="131.494141" xlink:href="#DejaVuSans-31"/>
       <use x="195.117188" xlink:href="#DejaVuSans-33"/>
      </g>
     </g>
    </g>
    <g id="text_5">
     <!-- $s_{1}$ -->
     <defs>
      <path d="M 50 53.078125 
L 48.296875 44.578125 
Q 44.734375 46.53125 40.765625 47.5 
Q 36.8125 48.484375 32.625 48.484375 
Q 25.53125 48.484375 21.453125 46.0625 
Q 17.390625 43.65625 17.390625 39.5 
Q 17.390625 34.671875 26.859375 32.078125 
Q 27.59375 31.890625 27.9375 31.78125 
L 30.8125 30.90625 
Q 39.796875 28.421875 42.796875 25.6875 
Q 45.796875 22.953125 45.796875 18.21875 
Q 45.796875 9.515625 38.890625 4.046875 
Q 31.984375 -1.421875 20.796875 -1.421875 
Q 16.453125 -1.421875 11.671875 -0.578125 
Q 6.890625 0.25 1.125 2 
L 2.875 11.28125 
Q 7.8125 8.734375 12.59375 7.421875 
Q 17.390625 6.109375 21.78125 6.109375 
Q 28.375 6.109375 32.5 8.9375 
Q 36.625 11.765625 36.625 16.109375 
Q 36.625 20.796875 25.78125 23.6875 
L 24.859375 23.921875 
L 21.78125 24.703125 
Q 14.9375 26.515625 11.765625 29.46875 
Q 8.59375 32.421875 8.59375 37.015625 
Q 8.59375 45.75 15.15625 50.875 
Q 21.734375 56 33.015625 56 
Q 37.453125 56 41.671875 55.265625 
Q 45.90625 54.546875 50 53.078125 
z
" id="DejaVuSans-Oblique-73"/>
     </defs>
     <g transform="translate(33.046875 52.23488)rotate(-90)scale(0.1 -0.1)">
      <use xlink:href="#DejaVuSans-Oblique-73"/>
      <use transform="translate(52.099609 -16.40625)scale(0.7)" xlink:href="#DejaVuSans-31"/>
     </g>
    </g>
   </g>
   <g id="line2d_14">
    <path clip-path="url(#p623c981dd1)" d="M 92.290909 31.560143 
L 97.427848 31.098812 
L 102.564787 30.495678 
L 107.701726 29.739181 
L 112.838665 28.997036 
L 117.975604 28.00007 
L 123.112543 27.067249 
L 128.249482 26.724013 
L 133.386421 26.086259 
L 138.52336 26.23007 
L 143.660299 26.744134 
L 148.797238 26.513743 
L 153.934177 26.228468 
L 159.071116 26.064668 
L 164.208055 26.290376 
L 169.344994 26.802587 
L 174.481933 27.322886 
L 179.618872 27.454863 
L 184.755811 27.502849 
L 189.89275 27.590987 
L 195.029689 27.683396 
L 200.166628 27.819359 
L 205.303567 27.981848 
L 210.440506 28.14089 
L 215.577445 28.290779 
L 220.714384 28.475301 
L 225.851323 28.490469 
L 230.988262 28.281227 
L 236.125201 28.105898 
L 241.26214 27.911573 
L 246.399079 27.872738 
L 251.536018 27.958971 
L 256.672957 27.998972 
L 261.809896 28.032409 
L 266.946835 28.120151 
L 272.083774 28.229169 
L 277.220713 28.315453 
L 282.357652 28.384355 
L 287.494591 28.456558 
L 292.63153 28.610738 
L 297.76847 28.972293 
L 302.905409 29.443662 
L 308.042348 30.0442 
L 313.179287 30.608527 
L 318.316226 31.216782 
L 323.453165 33.105209 
L 328.590104 35.520097 
L 333.727043 37.493524 
L 338.863982 39.998235 
L 344.000921 44.03814 
L 349.13786 48.411157 
L 354.274799 53.091989 
L 359.411738 59.617052 
L 364.548677 62.47106 
L 369.685616 63.810081 
L 374.822555 64.970298 
L 379.959494 64.997317 
L 385.096433 63.871729 
L 390.233372 62.688382 
L 395.370311 59.363772 
L 400.50725 53.039624 
L 405.644189 47.26039 
L 410.781128 42.239296 
L 415.918067 39.508247 
L 421.055006 37.064213 
L 426.191945 34.970944 
L 431.328884 32.084623 
L 436.465823 30.818386 
L 441.602762 30.40964 
L 446.739701 30.001219 
L 451.87664 29.674236 
L 457.013579 29.472128 
L 462.150518 29.490048 
L 467.287457 29.562981 
L 472.424396 29.700095 
L 477.561335 29.90985 
L 482.698274 30.037285 
L 487.835213 30.064894 
L 492.972152 30.146984 
L 498.109091 30.22227 
" style="fill:none;stroke:#1f77b4;stroke-linecap:square;stroke-width:1.5;"/>
   </g>
   <g id="line2d_15">
    <path clip-path="url(#p623c981dd1)" d="M 92.290909 37.832265 
L 97.427848 37.418728 
L 102.564787 36.563508 
L 107.701726 35.283892 
L 112.838665 33.681424 
L 117.975604 31.921199 
L 123.112543 30.186864 
L 128.249482 28.632292 
L 133.386421 27.351639 
L 138.52336 26.37504 
L 143.660299 25.682728 
L 148.797238 25.225958 
L 153.934177 24.946174 
L 159.071116 24.7884 
L 164.208055 24.708216 
L 169.344994 24.673571 
L 174.481933 24.663434 
L 179.618872 24.665136 
L 184.755811 24.671686 
L 189.89275 24.679623 
L 195.029689 24.687571 
L 200.166628 24.69537 
L 205.303567 24.703648 
L 210.440506 24.71363 
L 215.577445 24.72709 
L 220.714384 24.746286 
L 225.851323 24.773789 
L 230.988262 24.812163 
L 236.125201 24.863495 
L 241.26214 24.928918 
L 246.399079 25.008324 
L 251.536018 25.10045 
L 256.672957 25.20337 
L 261.809896 25.315241 
L 266.946835 25.435075 
L 272.083774 25.563262 
L 277.220713 25.701821 
L 282.357652 25.854492 
L 287.494591 26.026952 
L 292.63153 26.227442 
L 297.76847 26.468128 
L 302.905409 26.767479 
L 308.042348 27.153985 
L 313.179287 27.671531 
L 318.316226 28.386628 
L 323.453165 29.39723 
L 328.590104 30.84181 
L 333.727043 32.904772 
L 338.863982 35.808787 
L 344.000921 39.773973 
L 349.13786 44.911854 
L 354.274799 51.036545 
L 359.411738 57.480757 
L 364.548677 63.184294 
L 369.685616 67.232631 
L 374.822555 69.379192 
L 379.959494 69.806326 
L 385.096433 68.427449 
L 390.233372 64.881377 
L 395.370311 59.276773 
L 400.50725 52.527004 
L 405.644189 45.831965 
L 410.781128 40.038481 
L 415.918067 35.466947 
L 421.055006 32.077551 
L 426.191945 29.675923 
L 431.328884 28.03882 
L 436.465823 26.967969 
L 441.602762 26.30505 
L 446.739701 25.930288 
L 451.87664 25.755573 
L 457.013579 25.71678 
L 462.150518 25.767063 
L 467.287457 25.871666 
L 472.424396 26.00427 
L 477.561335 26.144646 
L 482.698274 26.277353 
L 487.835213 26.391157 
L 492.972152 26.478801 
L 498.109091 26.536801 
" style="fill:none;stroke:#ff7f0e;stroke-linecap:square;stroke-width:1.5;"/>
   </g>
   <g id="patch_3">
    <path d="M 72 76.57776 
L 72 17.892 
" style="fill:none;stroke:#000000;stroke-linecap:square;stroke-linejoin:miter;stroke-width:0.8;"/>
   </g>
   <g id="patch_4">
    <path d="M 518.4 76.57776 
L 518.4 17.892 
" style="fill:none;stroke:#000000;stroke-linecap:square;stroke-linejoin:miter;stroke-width:0.8;"/>
   </g>
   <g id="patch_5">
    <path d="M 72 76.57776 
L 518.4 76.57776 
" style="fill:none;stroke:#000000;stroke-linecap:square;stroke-linejoin:miter;stroke-width:0.8;"/>
   </g>
   <g id="patch_6">
    <path d="M 72 17.892 
L 518.4 17.892 
" style="fill:none;stroke:#000000;stroke-linecap:square;stroke-linejoin:miter;stroke-width:0.8;"/>
   </g>
  </g>
  <g id="axes_2">
   <g id="patch_7">
    <path d="M 72 135.26352 
L 518.4 135.26352 
L 518.4 76.57776 
L 72 76.57776 
z
" style="fill:#ffffff;"/>
   </g>
   <g id="matplotlib.axis_3">
    <g id="xtick_10">
     <g id="line2d_16">
      <g>
       <use style="stroke:#000000;stroke-width:0.8;" x="92.290909" xlink:href="#mc96cc3cd8f" y="135.26352"/>
      </g>
     </g>
    </g>
    <g id="xtick_11">
     <g id="line2d_17">
      <g>
       <use style="stroke:#000000;stroke-width:0.8;" x="143.660299" xlink:href="#mc96cc3cd8f" y="135.26352"/>
      </g>
     </g>
    </g>
    <g id="xtick_12">
     <g id="line2d_18">
      <g>
       <use style="stroke:#000000;stroke-width:0.8;" x="195.029689" xlink:href="#mc96cc3cd8f" y="135.26352"/>
      </g>
     </g>
    </g>
    <g id="xtick_13">
     <g id="line2d_19">
      <g>
       <use style="stroke:#000000;stroke-width:0.8;" x="246.399079" xlink:href="#mc96cc3cd8f" y="135.26352"/>
      </g>
     </g>
    </g>
    <g id="xtick_14">
     <g id="line2d_20">
      <g>
       <use style="stroke:#000000;stroke-width:0.8;" x="297.76847" xlink:href="#mc96cc3cd8f" y="135.26352"/>
      </g>
     </g>
    </g>
    <g id="xtick_15">
     <g id="line2d_21">
      <g>
       <use style="stroke:#000000;stroke-width:0.8;" x="349.13786" xlink:href="#mc96cc3cd8f" y="135.26352"/>
      </g>
     </g>
    </g>
    <g id="xtick_16">
     <g id="line2d_22">
      <g>
       <use style="stroke:#000000;stroke-width:0.8;" x="400.50725" xlink:href="#mc96cc3cd8f" y="135.26352"/>
      </g>
     </g>
    </g>
    <g id="xtick_17">
     <g id="line2d_23">
      <g>
       <use style="stroke:#000000;stroke-width:0.8;" x="451.87664" xlink:href="#mc96cc3cd8f" y="135.26352"/>
      </g>
     </g>
    </g>
    <g id="xtick_18">
     <g id="line2d_24">
      <g>
       <use style="stroke:#000000;stroke-width:0.8;" x="503.24603" xlink:href="#mc96cc3cd8f" y="135.26352"/>
      </g>
     </g>
    </g>
   </g>
   <g id="matplotlib.axis_4">
    <g id="ytick_5">
     <g id="line2d_25">
      <g>
       <use style="stroke:#000000;stroke-width:0.8;" x="72" xlink:href="#m0780d622bb" y="128.492086"/>
      </g>
     </g>
     <g id="text_6">
      <!-- 0.93 -->
      <g transform="translate(42.734375 132.291305)scale(0.1 -0.1)">
       <use xlink:href="#DejaVuSans-30"/>
       <use x="63.623047" xlink:href="#DejaVuSans-2e"/>
       <use x="95.410156" xlink:href="#DejaVuSans-39"/>
       <use x="159.033203" xlink:href="#DejaVuSans-33"/>
      </g>
     </g>
    </g>
    <g id="ytick_6">
     <g id="line2d_26">
      <g>
       <use style="stroke:#000000;stroke-width:0.8;" x="72" xlink:href="#m0780d622bb" y="113.444455"/>
      </g>
     </g>
     <g id="text_7">
      <!-- 2.09 -->
      <g transform="translate(42.734375 117.243674)scale(0.1 -0.1)">
       <use xlink:href="#DejaVuSans-32"/>
       <use x="63.623047" xlink:href="#DejaVuSans-2e"/>
       <use x="95.410156" xlink:href="#DejaVuSans-30"/>
       <use x="159.033203" xlink:href="#DejaVuSans-39"/>
      </g>
     </g>
    </g>
    <g id="ytick_7">
     <g id="line2d_27">
      <g>
       <use style="stroke:#000000;stroke-width:0.8;" x="72" xlink:href="#m0780d622bb" y="98.396825"/>
      </g>
     </g>
     <g id="text_8">
      <!-- 3.25 -->
      <g transform="translate(42.734375 102.196043)scale(0.1 -0.1)">
       <use xlink:href="#DejaVuSans-33"/>
       <use x="63.623047" xlink:href="#DejaVuSans-2e"/>
       <use x="95.410156" xlink:href="#DejaVuSans-32"/>
       <use x="159.033203" xlink:href="#DejaVuSans-35"/>
      </g>
     </g>
    </g>
    <g id="ytick_8">
     <g id="line2d_28">
      <g>
       <use style="stroke:#000000;stroke-width:0.8;" x="72" xlink:href="#m0780d622bb" y="83.349194"/>
      </g>
     </g>
     <g id="text_9">
      <!-- 4.42 -->
      <g transform="translate(42.734375 87.148413)scale(0.1 -0.1)">
       <use xlink:href="#DejaVuSans-34"/>
       <use x="63.623047" xlink:href="#DejaVuSans-2e"/>
       <use x="95.410156" xlink:href="#DejaVuSans-34"/>
       <use x="159.033203" xlink:href="#DejaVuSans-32"/>
      </g>
     </g>
    </g>
    <g id="text_10">
     <!-- $s_{25}$ -->
     <g transform="translate(36.654688 113.12064)rotate(-90)scale(0.1 -0.1)">
      <use xlink:href="#DejaVuSans-Oblique-73"/>
      <use transform="translate(52.099609 -16.40625)scale(0.7)" xlink:href="#DejaVuSans-32"/>
      <use transform="translate(96.635742 -16.40625)scale(0.7)" xlink:href="#DejaVuSans-35"/>
     </g>
    </g>
   </g>
   <g id="line2d_29">
    <path clip-path="url(#p84c6d0957f)" d="M 92.290909 110.325678 
L 97.427848 110.630824 
L 102.564787 111.189895 
L 107.701726 111.962278 
L 112.838665 112.686168 
L 117.975604 113.531859 
L 123.112543 114.67303 
L 128.249482 116.356165 
L 133.386421 119.23505 
L 138.52336 121.1719 
L 143.660299 122.590864 
L 148.797238 123.797088 
L 153.934177 124.969796 
L 159.071116 125.992487 
L 164.208055 126.863263 
L 169.344994 127.333531 
L 174.481933 127.838007 
L 179.618872 128.180767 
L 184.755811 128.379328 
L 189.89275 128.466865 
L 195.029689 128.492086 
L 200.166628 128.434429 
L 205.303567 128.317739 
L 210.440506 128.179365 
L 215.577445 127.995687 
L 220.714384 127.728759 
L 225.851323 127.401984 
L 230.988262 127.01014 
L 236.125201 126.774745 
L 241.26214 126.462987 
L 246.399079 126.085831 
L 251.536018 125.685968 
L 256.672957 125.390229 
L 261.809896 125.160049 
L 266.946835 124.924782 
L 272.083774 124.696664 
L 277.220713 124.465406 
L 282.357652 124.224351 
L 287.494591 123.946865 
L 292.63153 123.559362 
L 297.76847 123.006713 
L 302.905409 122.35445 
L 308.042348 121.534035 
L 313.179287 120.580262 
L 318.316226 119.565943 
L 323.453165 117.131469 
L 328.590104 113.58623 
L 333.727043 111.000111 
L 338.863982 108.820268 
L 344.000921 106.986296 
L 349.13786 105.03252 
L 354.274799 103.003322 
L 359.411738 99.726579 
L 364.548677 97.037023 
L 369.685616 95.10405 
L 374.822555 93.76239 
L 379.959494 93.607367 
L 385.096433 94.54088 
L 390.233372 95.955744 
L 395.370311 98.723725 
L 400.50725 102.404557 
L 405.644189 105.110437 
L 410.781128 107.722717 
L 415.918067 109.768998 
L 421.055006 111.968469 
L 426.191945 114.936505 
L 431.328884 119.328005 
L 436.465823 121.702208 
L 441.602762 122.858995 
L 446.739701 123.709316 
L 451.87664 124.409081 
L 457.013579 125.027741 
L 462.150518 125.458375 
L 467.287457 125.808077 
L 472.424396 126.100197 
L 477.561335 126.314316 
L 482.698274 126.547593 
L 487.835213 126.816236 
L 492.972152 127.053416 
L 498.109091 127.28859 
" style="fill:none;stroke:#1f77b4;stroke-linecap:square;stroke-width:1.5;"/>
   </g>
   <g id="line2d_30">
    <path clip-path="url(#p84c6d0957f)" d="M 92.290909 109.363061 
L 97.427848 109.77981 
L 102.564787 110.65781 
L 107.701726 112.010763 
L 112.838665 113.7752 
L 117.975604 115.813604 
L 123.112543 117.944534 
L 128.249482 119.989931 
L 133.386421 121.816813 
L 138.52336 123.355395 
L 143.660299 124.592788 
L 148.797238 125.55379 
L 153.934177 126.280961 
L 159.071116 126.820308 
L 164.208055 127.213463 
L 169.344994 127.49464 
L 174.481933 127.690327 
L 179.618872 127.820188 
L 184.755811 127.898311 
L 189.89275 127.934414 
L 195.029689 127.934864 
L 200.166628 127.9035 
L 205.303567 127.842337 
L 210.440506 127.752163 
L 215.577445 127.633163 
L 220.714384 127.485537 
L 225.851323 127.310172 
L 230.988262 127.109264 
L 236.125201 126.886776 
L 241.26214 126.648544 
L 246.399079 126.401857 
L 251.536018 126.154477 
L 256.672957 125.913192 
L 261.809896 125.682298 
L 266.946835 125.462337 
L 272.083774 125.249421 
L 277.220713 125.035149 
L 282.357652 124.80687 
L 287.494591 124.547921 
L 292.63153 124.237402 
L 297.76847 123.849212 
L 302.905409 123.350081 
L 308.042348 122.696485 
L 313.179287 121.830423 
L 318.316226 120.674311 
L 323.453165 119.126138 
L 328.590104 117.057887 
L 333.727043 114.324103 
L 338.863982 110.792899 
L 344.000921 106.41496 
L 349.13786 101.332575 
L 354.274799 95.979098 
L 359.411738 91.043363 
L 364.548677 87.197964 
L 369.685616 84.742369 
L 374.822555 83.537491 
L 379.959494 83.349194 
L 385.096433 84.226352 
L 390.233372 86.493162 
L 395.370311 90.353463 
L 400.50725 95.52418 
L 405.644189 101.288439 
L 410.781128 106.873115 
L 415.918067 111.759414 
L 421.055006 115.743806 
L 426.191945 118.842388 
L 431.328884 121.174636 
L 436.465823 122.886002 
L 441.602762 124.110997 
L 446.739701 124.961284 
L 451.87664 125.525594 
L 457.013579 125.873838 
L 462.150518 126.061863 
L 467.287457 126.135487 
L 472.424396 126.13334 
L 477.561335 126.088496 
L 482.698274 126.029014 
L 487.835213 125.977639 
L 492.972152 125.951101 
L 498.109091 125.959456 
" style="fill:none;stroke:#ff7f0e;stroke-linecap:square;stroke-width:1.5;"/>
   </g>
   <g id="patch_8">
    <path d="M 72 135.26352 
L 72 76.57776 
" style="fill:none;stroke:#000000;stroke-linecap:square;stroke-linejoin:miter;stroke-width:0.8;"/>
   </g>
   <g id="patch_9">
    <path d="M 518.4 135.26352 
L 518.4 76.57776 
" style="fill:none;stroke:#000000;stroke-linecap:square;stroke-linejoin:miter;stroke-width:0.8;"/>
   </g>
   <g id="patch_10">
    <path d="M 72 135.26352 
L 518.4 135.26352 
" style="fill:none;stroke:#000000;stroke-linecap:square;stroke-linejoin:miter;stroke-width:0.8;"/>
   </g>
   <g id="patch_11">
    <path d="M 72 76.57776 
L 518.4 76.57776 
" style="fill:none;stroke:#000000;stroke-linecap:square;stroke-linejoin:miter;stroke-width:0.8;"/>
   </g>
  </g>
  <g id="axes_3">
   <g id="patch_12">
    <path d="M 72 193.94928 
L 518.4 193.94928 
L 518.4 135.26352 
L 72 135.26352 
z
" style="fill:#ffffff;"/>
   </g>
   <g id="matplotlib.axis_5">
    <g id="xtick_19">
     <g id="line2d_31">
      <g>
       <use style="stroke:#000000;stroke-width:0.8;" x="92.290909" xlink:href="#mc96cc3cd8f" y="193.94928"/>
      </g>
     </g>
    </g>
    <g id="xtick_20">
     <g id="line2d_32">
      <g>
       <use style="stroke:#000000;stroke-width:0.8;" x="143.660299" xlink:href="#mc96cc3cd8f" y="193.94928"/>
      </g>
     </g>
    </g>
    <g id="xtick_21">
     <g id="line2d_33">
      <g>
       <use style="stroke:#000000;stroke-width:0.8;" x="195.029689" xlink:href="#mc96cc3cd8f" y="193.94928"/>
      </g>
     </g>
    </g>
    <g id="xtick_22">
     <g id="line2d_34">
      <g>
       <use style="stroke:#000000;stroke-width:0.8;" x="246.399079" xlink:href="#mc96cc3cd8f" y="193.94928"/>
      </g>
     </g>
    </g>
    <g id="xtick_23">
     <g id="line2d_35">
      <g>
       <use style="stroke:#000000;stroke-width:0.8;" x="297.76847" xlink:href="#mc96cc3cd8f" y="193.94928"/>
      </g>
     </g>
    </g>
    <g id="xtick_24">
     <g id="line2d_36">
      <g>
       <use style="stroke:#000000;stroke-width:0.8;" x="349.13786" xlink:href="#mc96cc3cd8f" y="193.94928"/>
      </g>
     </g>
    </g>
    <g id="xtick_25">
     <g id="line2d_37">
      <g>
       <use style="stroke:#000000;stroke-width:0.8;" x="400.50725" xlink:href="#mc96cc3cd8f" y="193.94928"/>
      </g>
     </g>
    </g>
    <g id="xtick_26">
     <g id="line2d_38">
      <g>
       <use style="stroke:#000000;stroke-width:0.8;" x="451.87664" xlink:href="#mc96cc3cd8f" y="193.94928"/>
      </g>
     </g>
    </g>
    <g id="xtick_27">
     <g id="line2d_39">
      <g>
       <use style="stroke:#000000;stroke-width:0.8;" x="503.24603" xlink:href="#mc96cc3cd8f" y="193.94928"/>
      </g>
     </g>
    </g>
   </g>
   <g id="matplotlib.axis_6">
    <g id="ytick_9">
     <g id="line2d_40">
      <g>
       <use style="stroke:#000000;stroke-width:0.8;" x="72" xlink:href="#m0780d622bb" y="187.177846"/>
      </g>
     </g>
     <g id="text_11">
      <!-- 0.64 -->
      <g transform="translate(42.734375 190.977065)scale(0.1 -0.1)">
       <use xlink:href="#DejaVuSans-30"/>
       <use x="63.623047" xlink:href="#DejaVuSans-2e"/>
       <use x="95.410156" xlink:href="#DejaVuSans-36"/>
       <use x="159.033203" xlink:href="#DejaVuSans-34"/>
      </g>
     </g>
    </g>
    <g id="ytick_10">
     <g id="line2d_41">
      <g>
       <use style="stroke:#000000;stroke-width:0.8;" x="72" xlink:href="#m0780d622bb" y="172.130215"/>
      </g>
     </g>
     <g id="text_12">
      <!-- 0.73 -->
      <defs>
       <path d="M 8.203125 72.90625 
L 55.078125 72.90625 
L 55.078125 68.703125 
L 28.609375 0 
L 18.3125 0 
L 43.21875 64.59375 
L 8.203125 64.59375 
z
" id="DejaVuSans-37"/>
      </defs>
      <g transform="translate(42.734375 175.929434)scale(0.1 -0.1)">
       <use xlink:href="#DejaVuSans-30"/>
       <use x="63.623047" xlink:href="#DejaVuSans-2e"/>
       <use x="95.410156" xlink:href="#DejaVuSans-37"/>
       <use x="159.033203" xlink:href="#DejaVuSans-33"/>
      </g>
     </g>
    </g>
    <g id="ytick_11">
     <g id="line2d_42">
      <g>
       <use style="stroke:#000000;stroke-width:0.8;" x="72" xlink:href="#m0780d622bb" y="157.082585"/>
      </g>
     </g>
     <g id="text_13">
      <!-- 0.82 -->
      <defs>
       <path d="M 31.78125 34.625 
Q 24.75 34.625 20.71875 30.859375 
Q 16.703125 27.09375 16.703125 20.515625 
Q 16.703125 13.921875 20.71875 10.15625 
Q 24.75 6.390625 31.78125 6.390625 
Q 38.8125 6.390625 42.859375 10.171875 
Q 46.921875 13.96875 46.921875 20.515625 
Q 46.921875 27.09375 42.890625 30.859375 
Q 38.875 34.625 31.78125 34.625 
z
M 21.921875 38.8125 
Q 15.578125 40.375 12.03125 44.71875 
Q 8.5 49.078125 8.5 55.328125 
Q 8.5 64.0625 14.71875 69.140625 
Q 20.953125 74.21875 31.78125 74.21875 
Q 42.671875 74.21875 48.875 69.140625 
Q 55.078125 64.0625 55.078125 55.328125 
Q 55.078125 49.078125 51.53125 44.71875 
Q 48 40.375 41.703125 38.8125 
Q 48.828125 37.15625 52.796875 32.3125 
Q 56.78125 27.484375 56.78125 20.515625 
Q 56.78125 9.90625 50.3125 4.234375 
Q 43.84375 -1.421875 31.78125 -1.421875 
Q 19.734375 -1.421875 13.25 4.234375 
Q 6.78125 9.90625 6.78125 20.515625 
Q 6.78125 27.484375 10.78125 32.3125 
Q 14.796875 37.15625 21.921875 38.8125 
z
M 18.3125 54.390625 
Q 18.3125 48.734375 21.84375 45.5625 
Q 25.390625 42.390625 31.78125 42.390625 
Q 38.140625 42.390625 41.71875 45.5625 
Q 45.3125 48.734375 45.3125 54.390625 
Q 45.3125 60.0625 41.71875 63.234375 
Q 38.140625 66.40625 31.78125 66.40625 
Q 25.390625 66.40625 21.84375 63.234375 
Q 18.3125 60.0625 18.3125 54.390625 
z
" id="DejaVuSans-38"/>
      </defs>
      <g transform="translate(42.734375 160.881803)scale(0.1 -0.1)">
       <use xlink:href="#DejaVuSans-30"/>
       <use x="63.623047" xlink:href="#DejaVuSans-2e"/>
       <use x="95.410156" xlink:href="#DejaVuSans-38"/>
       <use x="159.033203" xlink:href="#DejaVuSans-32"/>
      </g>
     </g>
    </g>
    <g id="ytick_12">
     <g id="line2d_43">
      <g>
       <use style="stroke:#000000;stroke-width:0.8;" x="72" xlink:href="#m0780d622bb" y="142.034954"/>
      </g>
     </g>
     <g id="text_14">
      <!-- 0.91 -->
      <g transform="translate(42.734375 145.834173)scale(0.1 -0.1)">
       <use xlink:href="#DejaVuSans-30"/>
       <use x="63.623047" xlink:href="#DejaVuSans-2e"/>
       <use x="95.410156" xlink:href="#DejaVuSans-39"/>
       <use x="159.033203" xlink:href="#DejaVuSans-31"/>
      </g>
     </g>
    </g>
    <g id="text_15">
     <!-- $s_{50}$ -->
     <g transform="translate(36.654688 171.8064)rotate(-90)scale(0.1 -0.1)">
      <use xlink:href="#DejaVuSans-Oblique-73"/>
      <use transform="translate(52.099609 -16.40625)scale(0.7)" xlink:href="#DejaVuSans-35"/>
      <use transform="translate(96.635742 -16.40625)scale(0.7)" xlink:href="#DejaVuSans-30"/>
     </g>
    </g>
   </g>
   <g id="line2d_44">
    <path clip-path="url(#pacaa18af8e)" d="M 92.290909 147.439572 
L 97.427848 147.545763 
L 102.564787 147.986807 
L 107.701726 148.690624 
L 112.838665 149.530815 
L 117.975604 150.765661 
L 123.112543 153.181362 
L 128.249482 156.939672 
L 133.386421 160.3397 
L 138.52336 163.429207 
L 143.660299 167.633582 
L 148.797238 171.627374 
L 153.934177 175.002043 
L 159.071116 177.650845 
L 164.208055 179.777853 
L 169.344994 181.963913 
L 174.481933 183.901496 
L 179.618872 185.666991 
L 184.755811 186.68055 
L 189.89275 187.123015 
L 195.029689 187.177846 
L 200.166628 186.861312 
L 205.303567 186.208274 
L 210.440506 185.238573 
L 215.577445 183.951676 
L 220.714384 182.166803 
L 225.851323 180.190975 
L 230.988262 178.421909 
L 236.125201 176.734015 
L 241.26214 175.392206 
L 246.399079 174.222696 
L 251.536018 173.026215 
L 256.672957 171.988126 
L 261.809896 171.011422 
L 266.946835 170.06698 
L 272.083774 169.210923 
L 277.220713 168.192042 
L 282.357652 166.984546 
L 287.494591 165.741227 
L 292.63153 164.60563 
L 297.76847 163.318403 
L 302.905409 161.48234 
L 308.042348 159.154454 
L 313.179287 156.701838 
L 318.316226 154.347431 
L 323.453165 151.361376 
L 328.590104 148.373659 
L 333.727043 146.183977 
L 338.863982 145.436963 
L 344.000921 145.372548 
L 349.13786 145.316296 
L 354.274799 144.218063 
L 359.411738 144.854254 
L 364.548677 146.179926 
L 369.685616 146.753121 
L 374.822555 147.456618 
L 379.959494 147.78999 
L 385.096433 147.344574 
L 390.233372 146.157847 
L 395.370311 145.057754 
L 400.50725 144.627695 
L 405.644189 145.341286 
L 410.781128 145.827677 
L 415.918067 146.138399 
L 421.055006 146.053536 
L 426.191945 147.143125 
L 431.328884 149.655834 
L 436.465823 152.600293 
L 441.602762 154.760064 
L 446.739701 156.896985 
L 451.87664 158.663921 
L 457.013579 160.062481 
L 462.150518 161.023579 
L 467.287457 161.781418 
L 472.424396 162.503982 
L 477.561335 163.140323 
L 482.698274 163.766679 
L 487.835213 164.412364 
L 492.972152 165.223343 
L 498.109091 166.519963 
" style="fill:none;stroke:#1f77b4;stroke-linecap:square;stroke-width:1.5;"/>
   </g>
   <g id="line2d_45">
    <path clip-path="url(#pacaa18af8e)" d="M 92.290909 148.34886 
L 97.427848 148.445528 
L 102.564787 148.667645 
L 107.701726 149.053497 
L 112.838665 149.648261 
L 117.975604 150.502607 
L 123.112543 151.667366 
L 128.249482 153.184383 
L 133.386421 155.074727 
L 138.52336 157.327554 
L 143.660299 159.893284 
L 148.797238 162.684513 
L 153.934177 165.584745 
L 159.071116 168.462868 
L 164.208055 171.188751 
L 169.344994 173.646379 
L 174.481933 175.742274 
L 179.618872 177.40919 
L 184.755811 178.606182 
L 189.89275 179.316701 
L 195.029689 179.545892 
L 200.166628 179.317922 
L 205.303567 178.673638 
L 210.440506 177.668272 
L 215.577445 176.368851 
L 220.714384 174.850983 
L 225.851323 173.194651 
L 230.988262 171.479136 
L 236.125201 169.777576 
L 241.26214 168.151746 
L 246.399079 166.647904 
L 251.536018 165.294201 
L 256.672957 164.099941 
L 261.809896 163.05636 
L 266.946835 162.138708 
L 272.083774 161.309282 
L 277.220713 160.520982 
L 282.357652 159.721597 
L 287.494591 158.858467 
L 292.63153 157.883683 
L 297.76847 156.759471 
L 302.905409 155.463571 
L 308.042348 153.994032 
L 313.179287 152.372894 
L 318.316226 150.647505 
L 323.453165 148.888622 
L 328.590104 147.183991 
L 333.727043 145.627478 
L 338.863982 144.304607 
L 344.000921 143.277473 
L 349.13786 142.572756 
L 354.274799 142.176149 
L 359.411738 142.034954 
L 364.548677 142.068527 
L 369.685616 142.184763 
L 374.822555 142.299538 
L 379.959494 142.35534 
L 385.096433 142.334612 
L 390.233372 142.264174 
L 395.370311 142.208862 
L 400.50725 142.255781 
L 405.644189 142.493044 
L 410.781128 142.988759 
L 415.918067 143.775569 
L 421.055006 144.8442 
L 426.191945 146.146703 
L 431.328884 147.607528 
L 436.465823 149.138661 
L 441.602762 150.654667 
L 446.739701 152.08461 
L 451.87664 153.37927 
L 457.013579 154.513897 
L 462.150518 155.48743 
L 467.287457 156.319237 
L 472.424396 157.044563 
L 477.561335 157.709315 
L 482.698274 158.364813 
L 487.835213 159.062708 
L 492.972152 159.850428 
L 498.109091 160.766928 
" style="fill:none;stroke:#ff7f0e;stroke-linecap:square;stroke-width:1.5;"/>
   </g>
   <g id="patch_13">
    <path d="M 72 193.94928 
L 72 135.26352 
" style="fill:none;stroke:#000000;stroke-linecap:square;stroke-linejoin:miter;stroke-width:0.8;"/>
   </g>
   <g id="patch_14">
    <path d="M 518.4 193.94928 
L 518.4 135.26352 
" style="fill:none;stroke:#000000;stroke-linecap:square;stroke-linejoin:miter;stroke-width:0.8;"/>
   </g>
   <g id="patch_15">
    <path d="M 72 193.94928 
L 518.4 193.94928 
" style="fill:none;stroke:#000000;stroke-linecap:square;stroke-linejoin:miter;stroke-width:0.8;"/>
   </g>
   <g id="patch_16">
    <path d="M 72 135.26352 
L 518.4 135.26352 
" style="fill:none;stroke:#000000;stroke-linecap:square;stroke-linejoin:miter;stroke-width:0.8;"/>
   </g>
  </g>
  <g id="axes_4">
   <g id="patch_17">
    <path d="M 72 252.63504 
L 518.4 252.63504 
L 518.4 193.94928 
L 72 193.94928 
z
" style="fill:#ffffff;"/>
   </g>
   <g id="matplotlib.axis_7">
    <g id="xtick_28">
     <g id="line2d_46">
      <g>
       <use style="stroke:#000000;stroke-width:0.8;" x="92.290909" xlink:href="#mc96cc3cd8f" y="252.63504"/>
      </g>
     </g>
    </g>
    <g id="xtick_29">
     <g id="line2d_47">
      <g>
       <use style="stroke:#000000;stroke-width:0.8;" x="143.660299" xlink:href="#mc96cc3cd8f" y="252.63504"/>
      </g>
     </g>
    </g>
    <g id="xtick_30">
     <g id="line2d_48">
      <g>
       <use style="stroke:#000000;stroke-width:0.8;" x="195.029689" xlink:href="#mc96cc3cd8f" y="252.63504"/>
      </g>
     </g>
    </g>
    <g id="xtick_31">
     <g id="line2d_49">
      <g>
       <use style="stroke:#000000;stroke-width:0.8;" x="246.399079" xlink:href="#mc96cc3cd8f" y="252.63504"/>
      </g>
     </g>
    </g>
    <g id="xtick_32">
     <g id="line2d_50">
      <g>
       <use style="stroke:#000000;stroke-width:0.8;" x="297.76847" xlink:href="#mc96cc3cd8f" y="252.63504"/>
      </g>
     </g>
    </g>
    <g id="xtick_33">
     <g id="line2d_51">
      <g>
       <use style="stroke:#000000;stroke-width:0.8;" x="349.13786" xlink:href="#mc96cc3cd8f" y="252.63504"/>
      </g>
     </g>
    </g>
    <g id="xtick_34">
     <g id="line2d_52">
      <g>
       <use style="stroke:#000000;stroke-width:0.8;" x="400.50725" xlink:href="#mc96cc3cd8f" y="252.63504"/>
      </g>
     </g>
    </g>
    <g id="xtick_35">
     <g id="line2d_53">
      <g>
       <use style="stroke:#000000;stroke-width:0.8;" x="451.87664" xlink:href="#mc96cc3cd8f" y="252.63504"/>
      </g>
     </g>
    </g>
    <g id="xtick_36">
     <g id="line2d_54">
      <g>
       <use style="stroke:#000000;stroke-width:0.8;" x="503.24603" xlink:href="#mc96cc3cd8f" y="252.63504"/>
      </g>
     </g>
    </g>
   </g>
   <g id="matplotlib.axis_8">
    <g id="ytick_13">
     <g id="line2d_55">
      <g>
       <use style="stroke:#000000;stroke-width:0.8;" x="72" xlink:href="#m0780d622bb" y="245.863606"/>
      </g>
     </g>
     <g id="text_16">
      <!-- 3.50 -->
      <g transform="translate(42.734375 249.662825)scale(0.1 -0.1)">
       <use xlink:href="#DejaVuSans-33"/>
       <use x="63.623047" xlink:href="#DejaVuSans-2e"/>
       <use x="95.410156" xlink:href="#DejaVuSans-35"/>
       <use x="159.033203" xlink:href="#DejaVuSans-30"/>
      </g>
     </g>
    </g>
    <g id="ytick_14">
     <g id="line2d_56">
      <g>
       <use style="stroke:#000000;stroke-width:0.8;" x="72" xlink:href="#m0780d622bb" y="230.815975"/>
      </g>
     </g>
     <g id="text_17">
      <!-- 4.20 -->
      <g transform="translate(42.734375 234.615194)scale(0.1 -0.1)">
       <use xlink:href="#DejaVuSans-34"/>
       <use x="63.623047" xlink:href="#DejaVuSans-2e"/>
       <use x="95.410156" xlink:href="#DejaVuSans-32"/>
       <use x="159.033203" xlink:href="#DejaVuSans-30"/>
      </g>
     </g>
    </g>
    <g id="ytick_15">
     <g id="line2d_57">
      <g>
       <use style="stroke:#000000;stroke-width:0.8;" x="72" xlink:href="#m0780d622bb" y="215.768345"/>
      </g>
     </g>
     <g id="text_18">
      <!-- 4.89 -->
      <g transform="translate(42.734375 219.567563)scale(0.1 -0.1)">
       <use xlink:href="#DejaVuSans-34"/>
       <use x="63.623047" xlink:href="#DejaVuSans-2e"/>
       <use x="95.410156" xlink:href="#DejaVuSans-38"/>
       <use x="159.033203" xlink:href="#DejaVuSans-39"/>
      </g>
     </g>
    </g>
    <g id="ytick_16">
     <g id="line2d_58">
      <g>
       <use style="stroke:#000000;stroke-width:0.8;" x="72" xlink:href="#m0780d622bb" y="200.720714"/>
      </g>
     </g>
     <g id="text_19">
      <!-- 5.59 -->
      <g transform="translate(42.734375 204.519933)scale(0.1 -0.1)">
       <use xlink:href="#DejaVuSans-35"/>
       <use x="63.623047" xlink:href="#DejaVuSans-2e"/>
       <use x="95.410156" xlink:href="#DejaVuSans-35"/>
       <use x="159.033203" xlink:href="#DejaVuSans-39"/>
      </g>
     </g>
    </g>
    <g id="text_20">
     <!-- $s_{75}$ -->
     <g transform="translate(36.654688 230.49216)rotate(-90)scale(0.1 -0.1)">
      <use xlink:href="#DejaVuSans-Oblique-73"/>
      <use transform="translate(52.099609 -16.40625)scale(0.7)" xlink:href="#DejaVuSans-37"/>
      <use transform="translate(96.635742 -16.40625)scale(0.7)" xlink:href="#DejaVuSans-35"/>
     </g>
    </g>
   </g>
   <g id="line2d_59">
    <path clip-path="url(#p9f97484454)" d="M 92.290909 240.724832 
L 97.427848 240.256088 
L 102.564787 239.421535 
L 107.701726 238.645516 
L 112.838665 238.15771 
L 117.975604 237.492836 
L 123.112543 235.53431 
L 128.249482 232.775563 
L 133.386421 230.705856 
L 138.52336 227.980582 
L 143.660299 226.011353 
L 148.797238 224.618416 
L 153.934177 224.244021 
L 159.071116 224.410458 
L 164.208055 224.054142 
L 169.344994 222.458722 
L 174.481933 220.300435 
L 179.618872 219.169338 
L 184.755811 218.629532 
L 189.89275 218.338704 
L 195.029689 218.221925 
L 200.166628 218.196449 
L 205.303567 218.28956 
L 210.440506 218.545184 
L 215.577445 218.946165 
L 220.714384 219.300889 
L 225.851323 220.225147 
L 230.988262 221.219341 
L 236.125201 221.734246 
L 241.26214 221.428183 
L 246.399079 221.070963 
L 251.536018 220.625913 
L 256.672957 220.256211 
L 261.809896 220.062141 
L 266.946835 219.834356 
L 272.083774 219.512104 
L 277.220713 219.062133 
L 282.357652 218.497919 
L 287.494591 217.805083 
L 292.63153 217.143793 
L 297.76847 216.310211 
L 302.905409 215.695652 
L 308.042348 215.073111 
L 313.179287 214.606447 
L 318.316226 213.8375 
L 323.453165 213.546847 
L 328.590104 212.522379 
L 333.727043 211.959717 
L 338.863982 211.191952 
L 344.000921 210.325323 
L 349.13786 209.786976 
L 354.274799 209.242137 
L 359.411738 212.133365 
L 364.548677 215.579962 
L 369.685616 216.009111 
L 374.822555 215.283433 
L 379.959494 214.045901 
L 385.096433 212.316526 
L 390.233372 210.009738 
L 395.370311 204.941424 
L 400.50725 202.196879 
L 405.644189 201.193778 
L 410.781128 201.27637 
L 415.918067 201.577049 
L 421.055006 201.656036 
L 426.191945 201.893128 
L 431.328884 202.740968 
L 436.465823 201.790258 
L 441.602762 201.332479 
L 446.739701 200.926762 
L 451.87664 200.720714 
L 457.013579 200.91765 
L 462.150518 201.209125 
L 467.287457 201.581385 
L 472.424396 202.000466 
L 477.561335 202.344958 
L 482.698274 202.804011 
L 487.835213 203.562767 
L 492.972152 204.511587 
L 498.109091 205.693297 
" style="fill:none;stroke:#1f77b4;stroke-linecap:square;stroke-width:1.5;"/>
   </g>
   <g id="line2d_60">
    <path clip-path="url(#p9f97484454)" d="M 92.290909 245.863606 
L 97.427848 245.556136 
L 102.564787 244.913302 
L 107.701726 243.897099 
L 112.838665 242.497583 
L 117.975604 240.737129 
L 123.112543 238.67091 
L 128.249482 236.38308 
L 133.386421 233.978681 
L 138.52336 231.572085 
L 143.660299 229.27371 
L 148.797238 227.177099 
L 153.934177 225.348882 
L 159.071116 223.82346 
L 164.208055 222.603258 
L 169.344994 221.664012 
L 174.481933 220.963255 
L 179.618872 220.449984 
L 184.755811 220.073482 
L 189.89275 219.789999 
L 195.029689 219.566682 
L 200.166628 219.382731 
L 205.303567 219.228169 
L 210.440506 219.100943 
L 215.577445 219.00286 
L 220.714384 218.935625 
L 225.851323 218.89737 
L 230.988262 218.88078 
L 236.125201 218.872952 
L 241.26214 218.857071 
L 246.399079 218.815189 
L 251.536018 218.731632 
L 256.672957 218.595745 
L 261.809896 218.403689 
L 266.946835 218.158697 
L 272.083774 217.870211 
L 277.220713 217.55212 
L 282.357652 217.220735 
L 287.494591 216.893039 
L 292.63153 216.585415 
L 297.76847 216.312872 
L 302.905409 216.088354 
L 308.042348 215.921845 
L 313.179287 215.818728 
L 318.316226 215.777361 
L 323.453165 215.786031 
L 328.590104 215.820475 
L 333.727043 215.843167 
L 338.863982 215.805847 
L 344.000921 215.656411 
L 349.13786 215.349362 
L 354.274799 214.857797 
L 359.411738 214.182999 
L 364.548677 213.35743 
L 369.685616 212.43912 
L 374.822555 211.498343 
L 379.959494 210.601338 
L 385.096433 209.796612 
L 390.233372 209.10772 
L 395.370311 208.533974 
L 400.50725 208.057735 
L 405.644189 207.655316 
L 410.781128 207.30728 
L 415.918067 207.004484 
L 421.055006 206.748562 
L 426.191945 206.547989 
L 431.328884 206.412596 
L 436.465823 206.349091 
L 441.602762 206.358819 
L 446.739701 206.438021 
L 451.87664 206.579526 
L 457.013579 206.77484 
L 462.150518 207.015794 
L 467.287457 207.295363 
L 472.424396 207.607671 
L 477.561335 207.947459 
L 482.698274 208.309497 
L 487.835213 208.688299 
L 492.972152 209.078227 
L 498.109091 209.474227 
" style="fill:none;stroke:#ff7f0e;stroke-linecap:square;stroke-width:1.5;"/>
   </g>
   <g id="patch_18">
    <path d="M 72 252.63504 
L 72 193.94928 
" style="fill:none;stroke:#000000;stroke-linecap:square;stroke-linejoin:miter;stroke-width:0.8;"/>
   </g>
   <g id="patch_19">
    <path d="M 518.4 252.63504 
L 518.4 193.94928 
" style="fill:none;stroke:#000000;stroke-linecap:square;stroke-linejoin:miter;stroke-width:0.8;"/>
   </g>
   <g id="patch_20">
    <path d="M 72 252.63504 
L 518.4 252.63504 
" style="fill:none;stroke:#000000;stroke-linecap:square;stroke-linejoin:miter;stroke-width:0.8;"/>
   </g>
   <g id="patch_21">
    <path d="M 72 193.94928 
L 518.4 193.94928 
" style="fill:none;stroke:#000000;stroke-linecap:square;stroke-linejoin:miter;stroke-width:0.8;"/>
   </g>
  </g>
  <g id="axes_5">
   <g id="patch_22">
    <path d="M 72 311.3208 
L 518.4 311.3208 
L 518.4 252.63504 
L 72 252.63504 
z
" style="fill:#ffffff;"/>
   </g>
   <g id="matplotlib.axis_9">
    <g id="xtick_37">
     <g id="line2d_61">
      <g>
       <use style="stroke:#000000;stroke-width:0.8;" x="92.290909" xlink:href="#mc96cc3cd8f" y="311.3208"/>
      </g>
     </g>
     <g id="text_21">
      <!-- 0 -->
      <g transform="translate(89.109659 325.919237)scale(0.1 -0.1)">
       <use xlink:href="#DejaVuSans-30"/>
      </g>
     </g>
    </g>
    <g id="xtick_38">
     <g id="line2d_62">
      <g>
       <use style="stroke:#000000;stroke-width:0.8;" x="143.660299" xlink:href="#mc96cc3cd8f" y="311.3208"/>
      </g>
     </g>
     <g id="text_22">
      <!-- 10 -->
      <g transform="translate(137.297799 325.919237)scale(0.1 -0.1)">
       <use xlink:href="#DejaVuSans-31"/>
       <use x="63.623047" xlink:href="#DejaVuSans-30"/>
      </g>
     </g>
    </g>
    <g id="xtick_39">
     <g id="line2d_63">
      <g>
       <use style="stroke:#000000;stroke-width:0.8;" x="195.029689" xlink:href="#mc96cc3cd8f" y="311.3208"/>
      </g>
     </g>
     <g id="text_23">
      <!-- 20 -->
      <g transform="translate(188.667189 325.919237)scale(0.1 -0.1)">
       <use xlink:href="#DejaVuSans-32"/>
       <use x="63.623047" xlink:href="#DejaVuSans-30"/>
      </g>
     </g>
    </g>
    <g id="xtick_40">
     <g id="line2d_64">
      <g>
       <use style="stroke:#000000;stroke-width:0.8;" x="246.399079" xlink:href="#mc96cc3cd8f" y="311.3208"/>
      </g>
     </g>
     <g id="text_24">
      <!-- 30 -->
      <g transform="translate(240.036579 325.919237)scale(0.1 -0.1)">
       <use xlink:href="#DejaVuSans-33"/>
       <use x="63.623047" xlink:href="#DejaVuSans-30"/>
      </g>
     </g>
    </g>
    <g id="xtick_41">
     <g id="line2d_65">
      <g>
       <use style="stroke:#000000;stroke-width:0.8;" x="297.76847" xlink:href="#mc96cc3cd8f" y="311.3208"/>
      </g>
     </g>
     <g id="text_25">
      <!-- 40 -->
      <g transform="translate(291.40597 325.919237)scale(0.1 -0.1)">
       <use xlink:href="#DejaVuSans-34"/>
       <use x="63.623047" xlink:href="#DejaVuSans-30"/>
      </g>
     </g>
    </g>
    <g id="xtick_42">
     <g id="line2d_66">
      <g>
       <use style="stroke:#000000;stroke-width:0.8;" x="349.13786" xlink:href="#mc96cc3cd8f" y="311.3208"/>
      </g>
     </g>
     <g id="text_26">
      <!-- 50 -->
      <g transform="translate(342.77536 325.919237)scale(0.1 -0.1)">
       <use xlink:href="#DejaVuSans-35"/>
       <use x="63.623047" xlink:href="#DejaVuSans-30"/>
      </g>
     </g>
    </g>
    <g id="xtick_43">
     <g id="line2d_67">
      <g>
       <use style="stroke:#000000;stroke-width:0.8;" x="400.50725" xlink:href="#mc96cc3cd8f" y="311.3208"/>
      </g>
     </g>
     <g id="text_27">
      <!-- 60 -->
      <g transform="translate(394.14475 325.919237)scale(0.1 -0.1)">
       <use xlink:href="#DejaVuSans-36"/>
       <use x="63.623047" xlink:href="#DejaVuSans-30"/>
      </g>
     </g>
    </g>
    <g id="xtick_44">
     <g id="line2d_68">
      <g>
       <use style="stroke:#000000;stroke-width:0.8;" x="451.87664" xlink:href="#mc96cc3cd8f" y="311.3208"/>
      </g>
     </g>
     <g id="text_28">
      <!-- 70 -->
      <g transform="translate(445.51414 325.919237)scale(0.1 -0.1)">
       <use xlink:href="#DejaVuSans-37"/>
       <use x="63.623047" xlink:href="#DejaVuSans-30"/>
      </g>
     </g>
    </g>
    <g id="xtick_45">
     <g id="line2d_69">
      <g>
       <use style="stroke:#000000;stroke-width:0.8;" x="503.24603" xlink:href="#mc96cc3cd8f" y="311.3208"/>
      </g>
     </g>
     <g id="text_29">
      <!-- 80 -->
      <g transform="translate(496.88353 325.919237)scale(0.1 -0.1)">
       <use xlink:href="#DejaVuSans-38"/>
       <use x="63.623047" xlink:href="#DejaVuSans-30"/>
      </g>
     </g>
    </g>
   </g>
   <g id="matplotlib.axis_10">
    <g id="ytick_17">
     <g id="line2d_70">
      <g>
       <use style="stroke:#000000;stroke-width:0.8;" x="72" xlink:href="#m0780d622bb" y="304.549366"/>
      </g>
     </g>
     <g id="text_30">
      <!-- -11.53 -->
      <g transform="translate(32.764063 308.348585)scale(0.1 -0.1)">
       <use xlink:href="#DejaVuSans-2d"/>
       <use x="36.083984" xlink:href="#DejaVuSans-31"/>
       <use x="99.707031" xlink:href="#DejaVuSans-31"/>
       <use x="163.330078" xlink:href="#DejaVuSans-2e"/>
       <use x="195.117188" xlink:href="#DejaVuSans-35"/>
       <use x="258.740234" xlink:href="#DejaVuSans-33"/>
      </g>
     </g>
    </g>
    <g id="ytick_18">
     <g id="line2d_71">
      <g>
       <use style="stroke:#000000;stroke-width:0.8;" x="72" xlink:href="#m0780d622bb" y="289.501735"/>
      </g>
     </g>
     <g id="text_31">
      <!-- -10.40 -->
      <g transform="translate(32.764063 293.300954)scale(0.1 -0.1)">
       <use xlink:href="#DejaVuSans-2d"/>
       <use x="36.083984" xlink:href="#DejaVuSans-31"/>
       <use x="99.707031" xlink:href="#DejaVuSans-30"/>
       <use x="163.330078" xlink:href="#DejaVuSans-2e"/>
       <use x="195.117188" xlink:href="#DejaVuSans-34"/>
       <use x="258.740234" xlink:href="#DejaVuSans-30"/>
      </g>
     </g>
    </g>
    <g id="ytick_19">
     <g id="line2d_72">
      <g>
       <use style="stroke:#000000;stroke-width:0.8;" x="72" xlink:href="#m0780d622bb" y="274.454105"/>
      </g>
     </g>
     <g id="text_32">
      <!-- -9.28 -->
      <g transform="translate(39.126562 278.253323)scale(0.1 -0.1)">
       <use xlink:href="#DejaVuSans-2d"/>
       <use x="36.083984" xlink:href="#DejaVuSans-39"/>
       <use x="99.707031" xlink:href="#DejaVuSans-2e"/>
       <use x="131.494141" xlink:href="#DejaVuSans-32"/>
       <use x="195.117188" xlink:href="#DejaVuSans-38"/>
      </g>
     </g>
    </g>
    <g id="ytick_20">
     <g id="line2d_73">
      <g>
       <use style="stroke:#000000;stroke-width:0.8;" x="72" xlink:href="#m0780d622bb" y="259.406474"/>
      </g>
     </g>
     <g id="text_33">
      <!-- -8.15 -->
      <g transform="translate(39.126562 263.205693)scale(0.1 -0.1)">
       <use xlink:href="#DejaVuSans-2d"/>
       <use x="36.083984" xlink:href="#DejaVuSans-38"/>
       <use x="99.707031" xlink:href="#DejaVuSans-2e"/>
       <use x="131.494141" xlink:href="#DejaVuSans-31"/>
       <use x="195.117188" xlink:href="#DejaVuSans-35"/>
      </g>
     </g>
    </g>
    <g id="text_34">
     <!-- $s_{92}$ -->
     <g transform="translate(26.684375 289.17792)rotate(-90)scale(0.1 -0.1)">
      <use xlink:href="#DejaVuSans-Oblique-73"/>
      <use transform="translate(52.099609 -16.40625)scale(0.7)" xlink:href="#DejaVuSans-39"/>
      <use transform="translate(96.624805 -16.40625)scale(0.7)" xlink:href="#DejaVuSans-32"/>
     </g>
    </g>
   </g>
   <g id="line2d_74">
    <path clip-path="url(#p75c8d8e2ed)" d="M 92.290909 296.477949 
L 97.427848 296.366057 
L 102.564787 296.122838 
L 107.701726 295.721607 
L 112.838665 295.080382 
L 117.975604 294.047394 
L 123.112543 292.642958 
L 128.249482 291.489361 
L 133.386421 290.246748 
L 138.52336 288.895632 
L 143.660299 286.592542 
L 148.797238 283.9968 
L 153.934177 281.844599 
L 159.071116 280.177051 
L 164.208055 278.793527 
L 169.344994 275.717414 
L 174.481933 271.718434 
L 179.618872 269.054256 
L 184.755811 267.284221 
L 189.89275 266.223732 
L 195.029689 265.76904 
L 200.166628 265.768109 
L 205.303567 266.171736 
L 210.440506 267.063177 
L 215.577445 268.454168 
L 220.714384 270.035644 
L 225.851323 272.055129 
L 230.988262 274.087346 
L 236.125201 275.519513 
L 241.26214 276.447261 
L 246.399079 276.960652 
L 251.536018 277.030221 
L 256.672957 277.200519 
L 261.809896 277.816142 
L 266.946835 278.441807 
L 272.083774 279.009844 
L 277.220713 279.428343 
L 282.357652 279.966571 
L 287.494591 280.540891 
L 292.63153 281.277824 
L 297.76847 282.120302 
L 302.905409 283.524254 
L 308.042348 284.964947 
L 313.179287 286.663526 
L 318.316226 288.13144 
L 323.453165 289.147708 
L 328.590104 290.21629 
L 333.727043 292.07436 
L 338.863982 293.907261 
L 344.000921 295.16439 
L 349.13786 296.454092 
L 354.274799 298.180224 
L 359.411738 301.539725 
L 364.548677 304.236132 
L 369.685616 304.549366 
L 374.822555 304.224115 
L 379.959494 304.051612 
L 385.096433 303.843274 
L 390.233372 302.9455 
L 395.370311 299.865308 
L 400.50725 296.594467 
L 405.644189 294.328819 
L 410.781128 293.202915 
L 415.918067 291.892109 
L 421.055006 290.475884 
L 426.191945 289.130937 
L 431.328884 288.487265 
L 436.465823 287.384261 
L 441.602762 285.598564 
L 446.739701 283.449345 
L 451.87664 281.36995 
L 457.013579 279.694985 
L 462.150518 278.415439 
L 467.287457 277.407761 
L 472.424396 276.720721 
L 477.561335 275.96898 
L 482.698274 275.081414 
L 487.835213 274.554234 
L 492.972152 274.264092 
L 498.109091 273.916386 
" style="fill:none;stroke:#1f77b4;stroke-linecap:square;stroke-width:1.5;"/>
   </g>
   <g id="line2d_75">
    <path clip-path="url(#p75c8d8e2ed)" d="M 92.290909 290.142731 
L 97.427848 290.001821 
L 102.564787 289.702351 
L 107.701726 289.214168 
L 112.838665 288.509503 
L 117.975604 287.56376 
L 123.112543 286.356907 
L 128.249482 284.87579 
L 133.386421 283.117619 
L 138.52336 281.093941 
L 143.660299 278.83455 
L 148.797238 276.389646 
L 153.934177 273.82937 
L 159.071116 271.239974 
L 164.208055 268.717216 
L 169.344994 266.358142 
L 174.481933 264.252559 
L 179.618872 262.475642 
L 184.755811 261.082611 
L 189.89275 260.105455 
L 195.029689 259.551933 
L 200.166628 259.406474 
L 205.303567 259.632565 
L 210.440506 260.176515 
L 215.577445 260.972159 
L 220.714384 261.946308 
L 225.851323 263.024499 
L 230.988262 264.136397 
L 236.125201 265.220539 
L 241.26214 266.227899 
L 246.399079 267.124093 
L 251.536018 267.890209 
L 256.672957 268.522603 
L 261.809896 269.031763 
L 266.946835 269.440539 
L 272.083774 269.781949 
L 277.220713 270.09642 
L 282.357652 270.428591 
L 287.494591 270.823654 
L 292.63153 271.323383 
L 297.76847 271.962047 
L 302.905409 272.762687 
L 308.042348 273.734198 
L 313.179287 274.869711 
L 318.316226 276.146669 
L 323.453165 277.528778 
L 328.590104 278.969789 
L 333.727043 280.418371 
L 338.863982 281.823329 
L 344.000921 283.138022 
L 349.13786 284.323046 
L 354.274799 285.347011 
L 359.411738 286.185895 
L 364.548677 286.821501 
L 369.685616 287.240357 
L 374.822555 287.43316 
L 379.959494 287.394762 
L 385.096433 287.124425 
L 390.233372 286.625932 
L 395.370311 285.907376 
L 400.50725 284.981272 
L 405.644189 283.864977 
L 410.781128 282.581876 
L 415.918067 281.162784 
L 421.055006 279.646698 
L 426.191945 278.08012 
L 431.328884 276.514486 
L 436.465823 275.001828 
L 441.602762 273.589618 
L 446.739701 272.315743 
L 451.87664 271.20461 
L 457.013579 270.264984 
L 462.150518 269.489667 
L 467.287457 268.857043 
L 472.424396 268.333878 
L 477.561335 267.878982 
L 482.698274 267.447331 
L 487.835213 266.994066 
L 492.972152 266.478267 
L 498.109091 265.866213 
" style="fill:none;stroke:#ff7f0e;stroke-linecap:square;stroke-width:1.5;"/>
   </g>
   <g id="patch_23">
    <path d="M 72 311.3208 
L 72 252.63504 
" style="fill:none;stroke:#000000;stroke-linecap:square;stroke-linejoin:miter;stroke-width:0.8;"/>
   </g>
   <g id="patch_24">
    <path d="M 518.4 311.3208 
L 518.4 252.63504 
" style="fill:none;stroke:#000000;stroke-linecap:square;stroke-linejoin:miter;stroke-width:0.8;"/>
   </g>
   <g id="patch_25">
    <path d="M 72 311.3208 
L 518.4 311.3208 
" style="fill:none;stroke:#000000;stroke-linecap:square;stroke-linejoin:miter;stroke-width:0.8;"/>
   </g>
   <g id="patch_26">
    <path d="M 72 252.63504 
L 518.4 252.63504 
" style="fill:none;stroke:#000000;stroke-linecap:square;stroke-linejoin:miter;stroke-width:0.8;"/>
   </g>
  </g>
  <g id="legend_1">
   <g id="patch_27">
    <path d="M 190.564063 352.84 
L 385.435938 352.84 
Q 387.435938 352.84 387.435938 350.84 
L 387.435938 337.161875 
Q 387.435938 335.161875 385.435938 335.161875 
L 190.564063 335.161875 
Q 188.564063 335.161875 188.564063 337.161875 
L 188.564063 350.84 
Q 188.564063 352.84 190.564063 352.84 
z
" style="fill:#ffffff;opacity:0.8;stroke:#cccccc;stroke-linejoin:miter;"/>
   </g>
   <g id="line2d_76">
    <path d="M 192.564063 343.260312 
L 212.564063 343.260312 
" style="fill:none;stroke:#1f77b4;stroke-linecap:square;stroke-width:1.5;"/>
   </g>
   <g id="line2d_77"/>
   <g id="text_35">
    <!-- Prediction -->
    <defs>
     <path d="M 19.671875 64.796875 
L 19.671875 37.40625 
L 32.078125 37.40625 
Q 38.96875 37.40625 42.71875 40.96875 
Q 46.484375 44.53125 46.484375 51.125 
Q 46.484375 57.671875 42.71875 61.234375 
Q 38.96875 64.796875 32.078125 64.796875 
z
M 9.8125 72.90625 
L 32.078125 72.90625 
Q 44.34375 72.90625 50.609375 67.359375 
Q 56.890625 61.8125 56.890625 51.125 
Q 56.890625 40.328125 50.609375 34.8125 
Q 44.34375 29.296875 32.078125 29.296875 
L 19.671875 29.296875 
L 19.671875 0 
L 9.8125 0 
z
" id="DejaVuSans-50"/>
     <path d="M 41.109375 46.296875 
Q 39.59375 47.171875 37.8125 47.578125 
Q 36.03125 48 33.890625 48 
Q 26.265625 48 22.1875 43.046875 
Q 18.109375 38.09375 18.109375 28.8125 
L 18.109375 0 
L 9.078125 0 
L 9.078125 54.6875 
L 18.109375 54.6875 
L 18.109375 46.1875 
Q 20.953125 51.171875 25.484375 53.578125 
Q 30.03125 56 36.53125 56 
Q 37.453125 56 38.578125 55.875 
Q 39.703125 55.765625 41.0625 55.515625 
z
" id="DejaVuSans-72"/>
     <path d="M 56.203125 29.59375 
L 56.203125 25.203125 
L 14.890625 25.203125 
Q 15.484375 15.921875 20.484375 11.0625 
Q 25.484375 6.203125 34.421875 6.203125 
Q 39.59375 6.203125 44.453125 7.46875 
Q 49.3125 8.734375 54.109375 11.28125 
L 54.109375 2.78125 
Q 49.265625 0.734375 44.1875 -0.34375 
Q 39.109375 -1.421875 33.890625 -1.421875 
Q 20.796875 -1.421875 13.15625 6.1875 
Q 5.515625 13.8125 5.515625 26.8125 
Q 5.515625 40.234375 12.765625 48.109375 
Q 20.015625 56 32.328125 56 
Q 43.359375 56 49.78125 48.890625 
Q 56.203125 41.796875 56.203125 29.59375 
z
M 47.21875 32.234375 
Q 47.125 39.59375 43.09375 43.984375 
Q 39.0625 48.390625 32.421875 48.390625 
Q 24.90625 48.390625 20.390625 44.140625 
Q 15.875 39.890625 15.1875 32.171875 
z
" id="DejaVuSans-65"/>
     <path d="M 45.40625 46.390625 
L 45.40625 75.984375 
L 54.390625 75.984375 
L 54.390625 0 
L 45.40625 0 
L 45.40625 8.203125 
Q 42.578125 3.328125 38.25 0.953125 
Q 33.9375 -1.421875 27.875 -1.421875 
Q 17.96875 -1.421875 11.734375 6.484375 
Q 5.515625 14.40625 5.515625 27.296875 
Q 5.515625 40.1875 11.734375 48.09375 
Q 17.96875 56 27.875 56 
Q 33.9375 56 38.25 53.625 
Q 42.578125 51.265625 45.40625 46.390625 
z
M 14.796875 27.296875 
Q 14.796875 17.390625 18.875 11.75 
Q 22.953125 6.109375 30.078125 6.109375 
Q 37.203125 6.109375 41.296875 11.75 
Q 45.40625 17.390625 45.40625 27.296875 
Q 45.40625 37.203125 41.296875 42.84375 
Q 37.203125 48.484375 30.078125 48.484375 
Q 22.953125 48.484375 18.875 42.84375 
Q 14.796875 37.203125 14.796875 27.296875 
z
" id="DejaVuSans-64"/>
     <path d="M 9.421875 54.6875 
L 18.40625 54.6875 
L 18.40625 0 
L 9.421875 0 
z
M 9.421875 75.984375 
L 18.40625 75.984375 
L 18.40625 64.59375 
L 9.421875 64.59375 
z
" id="DejaVuSans-69"/>
     <path d="M 48.78125 52.59375 
L 48.78125 44.1875 
Q 44.96875 46.296875 41.140625 47.34375 
Q 37.3125 48.390625 33.40625 48.390625 
Q 24.65625 48.390625 19.8125 42.84375 
Q 14.984375 37.3125 14.984375 27.296875 
Q 14.984375 17.28125 19.8125 11.734375 
Q 24.65625 6.203125 33.40625 6.203125 
Q 37.3125 6.203125 41.140625 7.25 
Q 44.96875 8.296875 48.78125 10.40625 
L 48.78125 2.09375 
Q 45.015625 0.34375 40.984375 -0.53125 
Q 36.96875 -1.421875 32.421875 -1.421875 
Q 20.0625 -1.421875 12.78125 6.34375 
Q 5.515625 14.109375 5.515625 27.296875 
Q 5.515625 40.671875 12.859375 48.328125 
Q 20.21875 56 33.015625 56 
Q 37.15625 56 41.109375 55.140625 
Q 45.0625 54.296875 48.78125 52.59375 
z
" id="DejaVuSans-63"/>
     <path d="M 18.3125 70.21875 
L 18.3125 54.6875 
L 36.8125 54.6875 
L 36.8125 47.703125 
L 18.3125 47.703125 
L 18.3125 18.015625 
Q 18.3125 11.328125 20.140625 9.421875 
Q 21.96875 7.515625 27.59375 7.515625 
L 36.8125 7.515625 
L 36.8125 0 
L 27.59375 0 
Q 17.1875 0 13.234375 3.875 
Q 9.28125 7.765625 9.28125 18.015625 
L 9.28125 47.703125 
L 2.6875 47.703125 
L 2.6875 54.6875 
L 9.28125 54.6875 
L 9.28125 70.21875 
z
" id="DejaVuSans-74"/>
     <path d="M 30.609375 48.390625 
Q 23.390625 48.390625 19.1875 42.75 
Q 14.984375 37.109375 14.984375 27.296875 
Q 14.984375 17.484375 19.15625 11.84375 
Q 23.34375 6.203125 30.609375 6.203125 
Q 37.796875 6.203125 41.984375 11.859375 
Q 46.1875 17.53125 46.1875 27.296875 
Q 46.1875 37.015625 41.984375 42.703125 
Q 37.796875 48.390625 30.609375 48.390625 
z
M 30.609375 56 
Q 42.328125 56 49.015625 48.375 
Q 55.71875 40.765625 55.71875 27.296875 
Q 55.71875 13.875 49.015625 6.21875 
Q 42.328125 -1.421875 30.609375 -1.421875 
Q 18.84375 -1.421875 12.171875 6.21875 
Q 5.515625 13.875 5.515625 27.296875 
Q 5.515625 40.765625 12.171875 48.375 
Q 18.84375 56 30.609375 56 
z
" id="DejaVuSans-6f"/>
     <path d="M 54.890625 33.015625 
L 54.890625 0 
L 45.90625 0 
L 45.90625 32.71875 
Q 45.90625 40.484375 42.875 44.328125 
Q 39.84375 48.1875 33.796875 48.1875 
Q 26.515625 48.1875 22.3125 43.546875 
Q 18.109375 38.921875 18.109375 30.90625 
L 18.109375 0 
L 9.078125 0 
L 9.078125 54.6875 
L 18.109375 54.6875 
L 18.109375 46.1875 
Q 21.34375 51.125 25.703125 53.5625 
Q 30.078125 56 35.796875 56 
Q 45.21875 56 50.046875 50.171875 
Q 54.890625 44.34375 54.890625 33.015625 
z
" id="DejaVuSans-6e"/>
    </defs>
    <g transform="translate(220.564063 346.760312)scale(0.1 -0.1)">
     <use xlink:href="#DejaVuSans-50"/>
     <use x="60.287109" xlink:href="#DejaVuSans-72"/>
     <use x="101.369141" xlink:href="#DejaVuSans-65"/>
     <use x="162.892578" xlink:href="#DejaVuSans-64"/>
     <use x="226.369141" xlink:href="#DejaVuSans-69"/>
     <use x="254.152344" xlink:href="#DejaVuSans-63"/>
     <use x="309.132812" xlink:href="#DejaVuSans-74"/>
     <use x="348.341797" xlink:href="#DejaVuSans-69"/>
     <use x="376.125" xlink:href="#DejaVuSans-6f"/>
     <use x="437.306641" xlink:href="#DejaVuSans-6e"/>
    </g>
   </g>
   <g id="line2d_78">
    <path d="M 290.632812 343.260312 
L 310.632812 343.260312 
" style="fill:none;stroke:#ff7f0e;stroke-linecap:square;stroke-width:1.5;"/>
   </g>
   <g id="line2d_79"/>
   <g id="text_36">
    <!-- Ground truth -->
    <defs>
     <path d="M 59.515625 10.40625 
L 59.515625 29.984375 
L 43.40625 29.984375 
L 43.40625 38.09375 
L 69.28125 38.09375 
L 69.28125 6.78125 
Q 63.578125 2.734375 56.6875 0.65625 
Q 49.8125 -1.421875 42 -1.421875 
Q 24.90625 -1.421875 15.25 8.5625 
Q 5.609375 18.5625 5.609375 36.375 
Q 5.609375 54.25 15.25 64.234375 
Q 24.90625 74.21875 42 74.21875 
Q 49.125 74.21875 55.546875 72.453125 
Q 61.96875 70.703125 67.390625 67.28125 
L 67.390625 56.78125 
Q 61.921875 61.421875 55.765625 63.765625 
Q 49.609375 66.109375 42.828125 66.109375 
Q 29.4375 66.109375 22.71875 58.640625 
Q 16.015625 51.171875 16.015625 36.375 
Q 16.015625 21.625 22.71875 14.15625 
Q 29.4375 6.6875 42.828125 6.6875 
Q 48.046875 6.6875 52.140625 7.59375 
Q 56.25 8.5 59.515625 10.40625 
z
" id="DejaVuSans-47"/>
     <path d="M 8.5 21.578125 
L 8.5 54.6875 
L 17.484375 54.6875 
L 17.484375 21.921875 
Q 17.484375 14.15625 20.5 10.265625 
Q 23.53125 6.390625 29.59375 6.390625 
Q 36.859375 6.390625 41.078125 11.03125 
Q 45.3125 15.671875 45.3125 23.6875 
L 45.3125 54.6875 
L 54.296875 54.6875 
L 54.296875 0 
L 45.3125 0 
L 45.3125 8.40625 
Q 42.046875 3.421875 37.71875 1 
Q 33.40625 -1.421875 27.6875 -1.421875 
Q 18.265625 -1.421875 13.375 4.4375 
Q 8.5 10.296875 8.5 21.578125 
z
M 31.109375 56 
z
" id="DejaVuSans-75"/>
     <path id="DejaVuSans-20"/>
     <path d="M 54.890625 33.015625 
L 54.890625 0 
L 45.90625 0 
L 45.90625 32.71875 
Q 45.90625 40.484375 42.875 44.328125 
Q 39.84375 48.1875 33.796875 48.1875 
Q 26.515625 48.1875 22.3125 43.546875 
Q 18.109375 38.921875 18.109375 30.90625 
L 18.109375 0 
L 9.078125 0 
L 9.078125 75.984375 
L 18.109375 75.984375 
L 18.109375 46.1875 
Q 21.34375 51.125 25.703125 53.5625 
Q 30.078125 56 35.796875 56 
Q 45.21875 56 50.046875 50.171875 
Q 54.890625 44.34375 54.890625 33.015625 
z
" id="DejaVuSans-68"/>
    </defs>
    <g transform="translate(318.632812 346.760312)scale(0.1 -0.1)">
     <use xlink:href="#DejaVuSans-47"/>
     <use x="77.490234" xlink:href="#DejaVuSans-72"/>
     <use x="118.572266" xlink:href="#DejaVuSans-6f"/>
     <use x="179.753906" xlink:href="#DejaVuSans-75"/>
     <use x="243.132812" xlink:href="#DejaVuSans-6e"/>
     <use x="306.511719" xlink:href="#DejaVuSans-64"/>
     <use x="369.988281" xlink:href="#DejaVuSans-20"/>
     <use x="401.775391" xlink:href="#DejaVuSans-74"/>
     <use x="440.984375" xlink:href="#DejaVuSans-72"/>
     <use x="482.097656" xlink:href="#DejaVuSans-75"/>
     <use x="545.476562" xlink:href="#DejaVuSans-74"/>
     <use x="584.685547" xlink:href="#DejaVuSans-68"/>
    </g>
   </g>
  </g>
 </g>
 <defs>
  <clipPath id="p623c981dd1">
   <rect height="58.68576" width="446.4" x="72" y="17.892"/>
  </clipPath>
  <clipPath id="p84c6d0957f">
   <rect height="58.68576" width="446.4" x="72" y="76.57776"/>
  </clipPath>
  <clipPath id="pacaa18af8e">
   <rect height="58.68576" width="446.4" x="72" y="135.26352"/>
  </clipPath>
  <clipPath id="p9f97484454">
   <rect height="58.68576" width="446.4" x="72" y="193.94928"/>
  </clipPath>
  <clipPath id="p75c8d8e2ed">
   <rect height="58.68576" width="446.4" x="72" y="252.63504"/>
  </clipPath>
 </defs>
</svg>
