<?xml version="1.0" encoding="utf-8" standalone="no"?>
<!DOCTYPE svg PUBLIC "-//W3C//DTD SVG 1.1//EN"
  "http://www.w3.org/Graphics/SVG/1.1/DTD/svg11.dtd">
<!-- Created with matplotlib (http://matplotlib.org/) -->
<svg height="357pt" version="1.1" viewBox="0 0 576 357" width="576pt" xmlns="http://www.w3.org/2000/svg" xmlns:xlink="http://www.w3.org/1999/xlink">
 <defs>
  <style type="text/css">
*{stroke-linecap:butt;stroke-linejoin:round;}
  </style>
 </defs>
 <g id="figure_1">
  <g id="patch_1">
   <path d="M 0 357.84 
L 576 357.84 
L 576 0 
L 0 0 
z
" style="fill:#ffffff;"/>
  </g>
  <g id="axes_1">
   <g id="patch_2">
    <path d="M 72 76.57776 
L 518.4 76.57776 
L 518.4 17.892 
L 72 17.892 
z
" style="fill:#ffffff;"/>
   </g>
   <g id="matplotlib.axis_1">
    <g id="xtick_1">
     <g id="line2d_1">
      <defs>
       <path d="M 0 0 
L 0 3.5 
" id="md6cbb896c0" style="stroke:#000000;stroke-width:0.8;"/>
      </defs>
      <g>
       <use style="stroke:#000000;stroke-width:0.8;" x="92.290909" xlink:href="#md6cbb896c0" y="76.57776"/>
      </g>
     </g>
    </g>
    <g id="xtick_2">
     <g id="line2d_2">
      <g>
       <use style="stroke:#000000;stroke-width:0.8;" x="143.660299" xlink:href="#md6cbb896c0" y="76.57776"/>
      </g>
     </g>
    </g>
    <g id="xtick_3">
     <g id="line2d_3">
      <g>
       <use style="stroke:#000000;stroke-width:0.8;" x="195.029689" xlink:href="#md6cbb896c0" y="76.57776"/>
      </g>
     </g>
    </g>
    <g id="xtick_4">
     <g id="line2d_4">
      <g>
       <use style="stroke:#000000;stroke-width:0.8;" x="246.399079" xlink:href="#md6cbb896c0" y="76.57776"/>
      </g>
     </g>
    </g>
    <g id="xtick_5">
     <g id="line2d_5">
      <g>
       <use style="stroke:#000000;stroke-width:0.8;" x="297.76847" xlink:href="#md6cbb896c0" y="76.57776"/>
      </g>
     </g>
    </g>
    <g id="xtick_6">
     <g id="line2d_6">
      <g>
       <use style="stroke:#000000;stroke-width:0.8;" x="349.13786" xlink:href="#md6cbb896c0" y="76.57776"/>
      </g>
     </g>
    </g>
    <g id="xtick_7">
     <g id="line2d_7">
      <g>
       <use style="stroke:#000000;stroke-width:0.8;" x="400.50725" xlink:href="#md6cbb896c0" y="76.57776"/>
      </g>
     </g>
    </g>
    <g id="xtick_8">
     <g id="line2d_8">
      <g>
       <use style="stroke:#000000;stroke-width:0.8;" x="451.87664" xlink:href="#md6cbb896c0" y="76.57776"/>
      </g>
     </g>
    </g>
    <g id="xtick_9">
     <g id="line2d_9">
      <g>
       <use style="stroke:#000000;stroke-width:0.8;" x="503.24603" xlink:href="#md6cbb896c0" y="76.57776"/>
      </g>
     </g>
    </g>
   </g>
   <g id="matplotlib.axis_2">
    <g id="ytick_1">
     <g id="line2d_10">
      <defs>
       <path d="M 0 0 
L -3.5 0 
" id="mda8ba49ca6" style="stroke:#000000;stroke-width:0.8;"/>
      </defs>
      <g>
       <use style="stroke:#000000;stroke-width:0.8;" x="72" xlink:href="#mda8ba49ca6" y="69.806326"/>
      </g>
     </g>
     <g id="text_1">
      <!-- -0.60 -->
      <defs>
       <path d="M 4.890625 31.390625 
L 31.203125 31.390625 
L 31.203125 23.390625 
L 4.890625 23.390625 
z
" id="DejaVuSans-2d"/>
       <path d="M 31.78125 66.40625 
Q 24.171875 66.40625 20.328125 58.90625 
Q 16.5 51.421875 16.5 36.375 
Q 16.5 21.390625 20.328125 13.890625 
Q 24.171875 6.390625 31.78125 6.390625 
Q 39.453125 6.390625 43.28125 13.890625 
Q 47.125 21.390625 47.125 36.375 
Q 47.125 51.421875 43.28125 58.90625 
Q 39.453125 66.40625 31.78125 66.40625 
z
M 31.78125 74.21875 
Q 44.046875 74.21875 50.515625 64.515625 
Q 56.984375 54.828125 56.984375 36.375 
Q 56.984375 17.96875 50.515625 8.265625 
Q 44.046875 -1.421875 31.78125 -1.421875 
Q 19.53125 -1.421875 13.0625 8.265625 
Q 6.59375 17.96875 6.59375 36.375 
Q 6.59375 54.828125 13.0625 64.515625 
Q 19.53125 74.21875 31.78125 74.21875 
z
" id="DejaVuSans-30"/>
       <path d="M 10.6875 12.40625 
L 21 12.40625 
L 21 0 
L 10.6875 0 
z
" id="DejaVuSans-2e"/>
       <path d="M 33.015625 40.375 
Q 26.375 40.375 22.484375 35.828125 
Q 18.609375 31.296875 18.609375 23.390625 
Q 18.609375 15.53125 22.484375 10.953125 
Q 26.375 6.390625 33.015625 6.390625 
Q 39.65625 6.390625 43.53125 10.953125 
Q 47.40625 15.53125 47.40625 23.390625 
Q 47.40625 31.296875 43.53125 35.828125 
Q 39.65625 40.375 33.015625 40.375 
z
M 52.59375 71.296875 
L 52.59375 62.3125 
Q 48.875 64.0625 45.09375 64.984375 
Q 41.3125 65.921875 37.59375 65.921875 
Q 27.828125 65.921875 22.671875 59.328125 
Q 17.53125 52.734375 16.796875 39.40625 
Q 19.671875 43.65625 24.015625 45.921875 
Q 28.375 48.1875 33.59375 48.1875 
Q 44.578125 48.1875 50.953125 41.515625 
Q 57.328125 34.859375 57.328125 23.390625 
Q 57.328125 12.15625 50.6875 5.359375 
Q 44.046875 -1.421875 33.015625 -1.421875 
Q 20.359375 -1.421875 13.671875 8.265625 
Q 6.984375 17.96875 6.984375 36.375 
Q 6.984375 53.65625 15.1875 63.9375 
Q 23.390625 74.21875 37.203125 74.21875 
Q 40.921875 74.21875 44.703125 73.484375 
Q 48.484375 72.75 52.59375 71.296875 
z
" id="DejaVuSans-36"/>
      </defs>
      <g transform="translate(39.126562 73.605545)scale(0.1 -0.1)">
       <use xlink:href="#DejaVuSans-2d"/>
       <use x="36.083984" xlink:href="#DejaVuSans-30"/>
       <use x="99.707031" xlink:href="#DejaVuSans-2e"/>
       <use x="131.494141" xlink:href="#DejaVuSans-36"/>
       <use x="195.117188" xlink:href="#DejaVuSans-30"/>
      </g>
     </g>
    </g>
    <g id="ytick_2">
     <g id="line2d_11">
      <g>
       <use style="stroke:#000000;stroke-width:0.8;" x="72" xlink:href="#mda8ba49ca6" y="54.758695"/>
      </g>
     </g>
     <g id="text_2">
      <!-- -0.39 -->
      <defs>
       <path d="M 40.578125 39.3125 
Q 47.65625 37.796875 51.625 33 
Q 55.609375 28.21875 55.609375 21.1875 
Q 55.609375 10.40625 48.1875 4.484375 
Q 40.765625 -1.421875 27.09375 -1.421875 
Q 22.515625 -1.421875 17.65625 -0.515625 
Q 12.796875 0.390625 7.625 2.203125 
L 7.625 11.71875 
Q 11.71875 9.328125 16.59375 8.109375 
Q 21.484375 6.890625 26.8125 6.890625 
Q 36.078125 6.890625 40.9375 10.546875 
Q 45.796875 14.203125 45.796875 21.1875 
Q 45.796875 27.640625 41.28125 31.265625 
Q 36.765625 34.90625 28.71875 34.90625 
L 20.21875 34.90625 
L 20.21875 43.015625 
L 29.109375 43.015625 
Q 36.375 43.015625 40.234375 45.921875 
Q 44.09375 48.828125 44.09375 54.296875 
Q 44.09375 59.90625 40.109375 62.90625 
Q 36.140625 65.921875 28.71875 65.921875 
Q 24.65625 65.921875 20.015625 65.03125 
Q 15.375 64.15625 9.8125 62.3125 
L 9.8125 71.09375 
Q 15.4375 72.65625 20.34375 73.4375 
Q 25.25 74.21875 29.59375 74.21875 
Q 40.828125 74.21875 47.359375 69.109375 
Q 53.90625 64.015625 53.90625 55.328125 
Q 53.90625 49.265625 50.4375 45.09375 
Q 46.96875 40.921875 40.578125 39.3125 
z
" id="DejaVuSans-33"/>
       <path d="M 10.984375 1.515625 
L 10.984375 10.5 
Q 14.703125 8.734375 18.5 7.8125 
Q 22.3125 6.890625 25.984375 6.890625 
Q 35.75 6.890625 40.890625 13.453125 
Q 46.046875 20.015625 46.78125 33.40625 
Q 43.953125 29.203125 39.59375 26.953125 
Q 35.25 24.703125 29.984375 24.703125 
Q 19.046875 24.703125 12.671875 31.3125 
Q 6.296875 37.9375 6.296875 49.421875 
Q 6.296875 60.640625 12.9375 67.421875 
Q 19.578125 74.21875 30.609375 74.21875 
Q 43.265625 74.21875 49.921875 64.515625 
Q 56.59375 54.828125 56.59375 36.375 
Q 56.59375 19.140625 48.40625 8.859375 
Q 40.234375 -1.421875 26.421875 -1.421875 
Q 22.703125 -1.421875 18.890625 -0.6875 
Q 15.09375 0.046875 10.984375 1.515625 
z
M 30.609375 32.421875 
Q 37.25 32.421875 41.125 36.953125 
Q 45.015625 41.5 45.015625 49.421875 
Q 45.015625 57.28125 41.125 61.84375 
Q 37.25 66.40625 30.609375 66.40625 
Q 23.96875 66.40625 20.09375 61.84375 
Q 16.21875 57.28125 16.21875 49.421875 
Q 16.21875 41.5 20.09375 36.953125 
Q 23.96875 32.421875 30.609375 32.421875 
z
" id="DejaVuSans-39"/>
      </defs>
      <g transform="translate(39.126562 58.557914)scale(0.1 -0.1)">
       <use xlink:href="#DejaVuSans-2d"/>
       <use x="36.083984" xlink:href="#DejaVuSans-30"/>
       <use x="99.707031" xlink:href="#DejaVuSans-2e"/>
       <use x="131.494141" xlink:href="#DejaVuSans-33"/>
       <use x="195.117188" xlink:href="#DejaVuSans-39"/>
      </g>
     </g>
    </g>
    <g id="ytick_3">
     <g id="line2d_12">
      <g>
       <use style="stroke:#000000;stroke-width:0.8;" x="72" xlink:href="#mda8ba49ca6" y="39.711065"/>
      </g>
     </g>
     <g id="text_3">
      <!-- -0.17 -->
      <defs>
       <path d="M 12.40625 8.296875 
L 28.515625 8.296875 
L 28.515625 63.921875 
L 10.984375 60.40625 
L 10.984375 69.390625 
L 28.421875 72.90625 
L 38.28125 72.90625 
L 38.28125 8.296875 
L 54.390625 8.296875 
L 54.390625 0 
L 12.40625 0 
z
" id="DejaVuSans-31"/>
       <path d="M 8.203125 72.90625 
L 55.078125 72.90625 
L 55.078125 68.703125 
L 28.609375 0 
L 18.3125 0 
L 43.21875 64.59375 
L 8.203125 64.59375 
z
" id="DejaVuSans-37"/>
      </defs>
      <g transform="translate(39.126562 43.510283)scale(0.1 -0.1)">
       <use xlink:href="#DejaVuSans-2d"/>
       <use x="36.083984" xlink:href="#DejaVuSans-30"/>
       <use x="99.707031" xlink:href="#DejaVuSans-2e"/>
       <use x="131.494141" xlink:href="#DejaVuSans-31"/>
       <use x="195.117188" xlink:href="#DejaVuSans-37"/>
      </g>
     </g>
    </g>
    <g id="ytick_4">
     <g id="line2d_13">
      <g>
       <use style="stroke:#000000;stroke-width:0.8;" x="72" xlink:href="#mda8ba49ca6" y="24.663434"/>
      </g>
     </g>
     <g id="text_4">
      <!-- 0.04 -->
      <defs>
       <path d="M 37.796875 64.3125 
L 12.890625 25.390625 
L 37.796875 25.390625 
z
M 35.203125 72.90625 
L 47.609375 72.90625 
L 47.609375 25.390625 
L 58.015625 25.390625 
L 58.015625 17.1875 
L 47.609375 17.1875 
L 47.609375 0 
L 37.796875 0 
L 37.796875 17.1875 
L 4.890625 17.1875 
L 4.890625 26.703125 
z
" id="DejaVuSans-34"/>
      </defs>
      <g transform="translate(42.734375 28.462653)scale(0.1 -0.1)">
       <use xlink:href="#DejaVuSans-30"/>
       <use x="63.623047" xlink:href="#DejaVuSans-2e"/>
       <use x="95.410156" xlink:href="#DejaVuSans-30"/>
       <use x="159.033203" xlink:href="#DejaVuSans-34"/>
      </g>
     </g>
    </g>
    <g id="text_5">
     <!-- $s_{1}$ -->
     <defs>
      <path d="M 50 53.078125 
L 48.296875 44.578125 
Q 44.734375 46.53125 40.765625 47.5 
Q 36.8125 48.484375 32.625 48.484375 
Q 25.53125 48.484375 21.453125 46.0625 
Q 17.390625 43.65625 17.390625 39.5 
Q 17.390625 34.671875 26.859375 32.078125 
Q 27.59375 31.890625 27.9375 31.78125 
L 30.8125 30.90625 
Q 39.796875 28.421875 42.796875 25.6875 
Q 45.796875 22.953125 45.796875 18.21875 
Q 45.796875 9.515625 38.890625 4.046875 
Q 31.984375 -1.421875 20.796875 -1.421875 
Q 16.453125 -1.421875 11.671875 -0.578125 
Q 6.890625 0.25 1.125 2 
L 2.875 11.28125 
Q 7.8125 8.734375 12.59375 7.421875 
Q 17.390625 6.109375 21.78125 6.109375 
Q 28.375 6.109375 32.5 8.9375 
Q 36.625 11.765625 36.625 16.109375 
Q 36.625 20.796875 25.78125 23.6875 
L 24.859375 23.921875 
L 21.78125 24.703125 
Q 14.9375 26.515625 11.765625 29.46875 
Q 8.59375 32.421875 8.59375 37.015625 
Q 8.59375 45.75 15.15625 50.875 
Q 21.734375 56 33.015625 56 
Q 37.453125 56 41.671875 55.265625 
Q 45.90625 54.546875 50 53.078125 
z
" id="DejaVuSans-Oblique-73"/>
     </defs>
     <g transform="translate(33.046875 52.23488)rotate(-90)scale(0.1 -0.1)">
      <use xlink:href="#DejaVuSans-Oblique-73"/>
      <use transform="translate(52.099609 -16.40625)scale(0.7)" xlink:href="#DejaVuSans-31"/>
     </g>
    </g>
   </g>
   <g id="line2d_14">
    <path clip-path="url(#p2b2ccc18e5)" d="M 92.290909 29.928186 
L 97.427848 29.820621 
L 102.564787 29.599693 
L 107.701726 29.324279 
L 112.838665 28.989099 
L 117.975604 28.902516 
L 123.112543 28.854274 
L 128.249482 28.517953 
L 133.386421 28.127008 
L 138.52336 28.184284 
L 143.660299 28.253305 
L 148.797238 28.092435 
L 153.934177 27.872771 
L 159.071116 27.793048 
L 164.208055 27.825226 
L 169.344994 27.993827 
L 174.481933 28.084843 
L 179.618872 28.291545 
L 184.755811 28.507729 
L 189.89275 28.641247 
L 195.029689 28.746966 
L 200.166628 28.797817 
L 205.303567 28.792041 
L 210.440506 28.773461 
L 215.577445 28.735505 
L 220.714384 28.681238 
L 225.851323 28.57978 
L 230.988262 28.446822 
L 236.125201 28.272891 
L 241.26214 28.148303 
L 246.399079 28.044827 
L 251.536018 28.096064 
L 256.672957 28.167182 
L 261.809896 28.232404 
L 266.946835 28.327663 
L 272.083774 28.441235 
L 277.220713 28.5224 
L 282.357652 28.561219 
L 287.494591 28.583562 
L 292.63153 28.63299 
L 297.76847 28.773641 
L 302.905409 29.001292 
L 308.042348 29.233105 
L 313.179287 29.609998 
L 318.316226 30.278433 
L 323.453165 30.861999 
L 328.590104 31.496476 
L 333.727043 32.725332 
L 338.863982 34.285326 
L 344.000921 35.955001 
L 349.13786 37.337834 
L 354.274799 39.306192 
L 359.411738 43.869602 
L 364.548677 49.557162 
L 369.685616 53.897979 
L 374.822555 55.732968 
L 379.959494 56.003657 
L 385.096433 54.435458 
L 390.233372 50.144984 
L 395.370311 44.032191 
L 400.50725 39.60916 
L 405.644189 37.521637 
L 410.781128 34.374288 
L 415.918067 31.212098 
L 421.055006 28.832262 
L 426.191945 27.317031 
L 431.328884 26.546375 
L 436.465823 25.672703 
L 441.602762 25.175297 
L 446.739701 24.870433 
L 451.87664 24.700116 
L 457.013579 24.663434 
L 462.150518 24.757485 
L 467.287457 24.863587 
L 472.424396 24.893297 
L 477.561335 25.120985 
L 482.698274 25.448531 
L 487.835213 25.857339 
L 492.972152 26.237135 
L 498.109091 26.681926 
" style="fill:none;stroke:#1f77b4;stroke-linecap:square;stroke-width:1.5;"/>
   </g>
   <g id="line2d_15">
    <path clip-path="url(#p2b2ccc18e5)" d="M 92.290909 46.330163 
L 97.427848 46.026533 
L 102.564787 45.398609 
L 107.701726 44.459083 
L 112.838665 43.282511 
L 117.975604 41.990109 
L 123.112543 40.716716 
L 128.249482 39.57531 
L 133.386421 38.635022 
L 138.52336 37.917979 
L 143.660299 37.409666 
L 148.797238 37.074294 
L 153.934177 36.86887 
L 159.071116 36.753028 
L 164.208055 36.694155 
L 169.344994 36.668718 
L 174.481933 36.661274 
L 179.618872 36.662524 
L 184.755811 36.667333 
L 189.89275 36.673161 
L 195.029689 36.678996 
L 200.166628 36.684723 
L 205.303567 36.6908 
L 210.440506 36.69813 
L 215.577445 36.708013 
L 220.714384 36.722107 
L 225.851323 36.7423 
L 230.988262 36.770475 
L 236.125201 36.808165 
L 241.26214 36.856199 
L 246.399079 36.914501 
L 251.536018 36.982143 
L 256.672957 37.057709 
L 261.809896 37.139848 
L 266.946835 37.227833 
L 272.083774 37.321951 
L 277.220713 37.423685 
L 282.357652 37.53578 
L 287.494591 37.662404 
L 292.63153 37.809608 
L 297.76847 37.986326 
L 302.905409 38.206118 
L 308.042348 38.4899 
L 313.179287 38.869895 
L 318.316226 39.394937 
L 323.453165 40.136947 
L 328.590104 41.197594 
L 333.727043 42.712273 
L 338.863982 44.844474 
L 344.000921 47.755814 
L 349.13786 51.528176 
L 354.274799 56.025078 
L 359.411738 60.756581 
L 364.548677 64.944263 
L 369.685616 67.916654 
L 374.822555 69.492713 
L 379.959494 69.806326 
L 385.096433 68.79392 
L 390.233372 66.190304 
L 395.370311 62.075262 
L 400.50725 57.119411 
L 405.644189 52.203745 
L 410.781128 47.950023 
L 415.918067 44.593486 
L 421.055006 42.104906 
L 426.191945 40.34157 
L 431.328884 39.139568 
L 436.465823 38.353322 
L 441.602762 37.86659 
L 446.739701 37.591431 
L 451.87664 37.46315 
L 457.013579 37.434668 
L 462.150518 37.471587 
L 467.287457 37.548389 
L 472.424396 37.64575 
L 477.561335 37.748817 
L 482.698274 37.846255 
L 487.835213 37.929812 
L 492.972152 37.994163 
L 498.109091 38.036748 
" style="fill:none;stroke:#ff7f0e;stroke-linecap:square;stroke-width:1.5;"/>
   </g>
   <g id="patch_3">
    <path d="M 72 76.57776 
L 72 17.892 
" style="fill:none;stroke:#000000;stroke-linecap:square;stroke-linejoin:miter;stroke-width:0.8;"/>
   </g>
   <g id="patch_4">
    <path d="M 518.4 76.57776 
L 518.4 17.892 
" style="fill:none;stroke:#000000;stroke-linecap:square;stroke-linejoin:miter;stroke-width:0.8;"/>
   </g>
   <g id="patch_5">
    <path d="M 72 76.57776 
L 518.4 76.57776 
" style="fill:none;stroke:#000000;stroke-linecap:square;stroke-linejoin:miter;stroke-width:0.8;"/>
   </g>
   <g id="patch_6">
    <path d="M 72 17.892 
L 518.4 17.892 
" style="fill:none;stroke:#000000;stroke-linecap:square;stroke-linejoin:miter;stroke-width:0.8;"/>
   </g>
  </g>
  <g id="axes_2">
   <g id="patch_7">
    <path d="M 72 135.26352 
L 518.4 135.26352 
L 518.4 76.57776 
L 72 76.57776 
z
" style="fill:#ffffff;"/>
   </g>
   <g id="matplotlib.axis_3">
    <g id="xtick_10">
     <g id="line2d_16">
      <g>
       <use style="stroke:#000000;stroke-width:0.8;" x="92.290909" xlink:href="#md6cbb896c0" y="135.26352"/>
      </g>
     </g>
    </g>
    <g id="xtick_11">
     <g id="line2d_17">
      <g>
       <use style="stroke:#000000;stroke-width:0.8;" x="143.660299" xlink:href="#md6cbb896c0" y="135.26352"/>
      </g>
     </g>
    </g>
    <g id="xtick_12">
     <g id="line2d_18">
      <g>
       <use style="stroke:#000000;stroke-width:0.8;" x="195.029689" xlink:href="#md6cbb896c0" y="135.26352"/>
      </g>
     </g>
    </g>
    <g id="xtick_13">
     <g id="line2d_19">
      <g>
       <use style="stroke:#000000;stroke-width:0.8;" x="246.399079" xlink:href="#md6cbb896c0" y="135.26352"/>
      </g>
     </g>
    </g>
    <g id="xtick_14">
     <g id="line2d_20">
      <g>
       <use style="stroke:#000000;stroke-width:0.8;" x="297.76847" xlink:href="#md6cbb896c0" y="135.26352"/>
      </g>
     </g>
    </g>
    <g id="xtick_15">
     <g id="line2d_21">
      <g>
       <use style="stroke:#000000;stroke-width:0.8;" x="349.13786" xlink:href="#md6cbb896c0" y="135.26352"/>
      </g>
     </g>
    </g>
    <g id="xtick_16">
     <g id="line2d_22">
      <g>
       <use style="stroke:#000000;stroke-width:0.8;" x="400.50725" xlink:href="#md6cbb896c0" y="135.26352"/>
      </g>
     </g>
    </g>
    <g id="xtick_17">
     <g id="line2d_23">
      <g>
       <use style="stroke:#000000;stroke-width:0.8;" x="451.87664" xlink:href="#md6cbb896c0" y="135.26352"/>
      </g>
     </g>
    </g>
    <g id="xtick_18">
     <g id="line2d_24">
      <g>
       <use style="stroke:#000000;stroke-width:0.8;" x="503.24603" xlink:href="#md6cbb896c0" y="135.26352"/>
      </g>
     </g>
    </g>
   </g>
   <g id="matplotlib.axis_4">
    <g id="ytick_5">
     <g id="line2d_25">
      <g>
       <use style="stroke:#000000;stroke-width:0.8;" x="72" xlink:href="#mda8ba49ca6" y="128.492086"/>
      </g>
     </g>
     <g id="text_6">
      <!-- 0.32 -->
      <defs>
       <path d="M 19.1875 8.296875 
L 53.609375 8.296875 
L 53.609375 0 
L 7.328125 0 
L 7.328125 8.296875 
Q 12.9375 14.109375 22.625 23.890625 
Q 32.328125 33.6875 34.8125 36.53125 
Q 39.546875 41.84375 41.421875 45.53125 
Q 43.3125 49.21875 43.3125 52.78125 
Q 43.3125 58.59375 39.234375 62.25 
Q 35.15625 65.921875 28.609375 65.921875 
Q 23.96875 65.921875 18.8125 64.3125 
Q 13.671875 62.703125 7.8125 59.421875 
L 7.8125 69.390625 
Q 13.765625 71.78125 18.9375 73 
Q 24.125 74.21875 28.421875 74.21875 
Q 39.75 74.21875 46.484375 68.546875 
Q 53.21875 62.890625 53.21875 53.421875 
Q 53.21875 48.921875 51.53125 44.890625 
Q 49.859375 40.875 45.40625 35.40625 
Q 44.1875 33.984375 37.640625 27.21875 
Q 31.109375 20.453125 19.1875 8.296875 
z
" id="DejaVuSans-32"/>
      </defs>
      <g transform="translate(42.734375 132.291305)scale(0.1 -0.1)">
       <use xlink:href="#DejaVuSans-30"/>
       <use x="63.623047" xlink:href="#DejaVuSans-2e"/>
       <use x="95.410156" xlink:href="#DejaVuSans-33"/>
       <use x="159.033203" xlink:href="#DejaVuSans-32"/>
      </g>
     </g>
    </g>
    <g id="ytick_6">
     <g id="line2d_26">
      <g>
       <use style="stroke:#000000;stroke-width:0.8;" x="72" xlink:href="#mda8ba49ca6" y="113.444455"/>
      </g>
     </g>
     <g id="text_7">
      <!-- 1.68 -->
      <defs>
       <path d="M 31.78125 34.625 
Q 24.75 34.625 20.71875 30.859375 
Q 16.703125 27.09375 16.703125 20.515625 
Q 16.703125 13.921875 20.71875 10.15625 
Q 24.75 6.390625 31.78125 6.390625 
Q 38.8125 6.390625 42.859375 10.171875 
Q 46.921875 13.96875 46.921875 20.515625 
Q 46.921875 27.09375 42.890625 30.859375 
Q 38.875 34.625 31.78125 34.625 
z
M 21.921875 38.8125 
Q 15.578125 40.375 12.03125 44.71875 
Q 8.5 49.078125 8.5 55.328125 
Q 8.5 64.0625 14.71875 69.140625 
Q 20.953125 74.21875 31.78125 74.21875 
Q 42.671875 74.21875 48.875 69.140625 
Q 55.078125 64.0625 55.078125 55.328125 
Q 55.078125 49.078125 51.53125 44.71875 
Q 48 40.375 41.703125 38.8125 
Q 48.828125 37.15625 52.796875 32.3125 
Q 56.78125 27.484375 56.78125 20.515625 
Q 56.78125 9.90625 50.3125 4.234375 
Q 43.84375 -1.421875 31.78125 -1.421875 
Q 19.734375 -1.421875 13.25 4.234375 
Q 6.78125 9.90625 6.78125 20.515625 
Q 6.78125 27.484375 10.78125 32.3125 
Q 14.796875 37.15625 21.921875 38.8125 
z
M 18.3125 54.390625 
Q 18.3125 48.734375 21.84375 45.5625 
Q 25.390625 42.390625 31.78125 42.390625 
Q 38.140625 42.390625 41.71875 45.5625 
Q 45.3125 48.734375 45.3125 54.390625 
Q 45.3125 60.0625 41.71875 63.234375 
Q 38.140625 66.40625 31.78125 66.40625 
Q 25.390625 66.40625 21.84375 63.234375 
Q 18.3125 60.0625 18.3125 54.390625 
z
" id="DejaVuSans-38"/>
      </defs>
      <g transform="translate(42.734375 117.243674)scale(0.1 -0.1)">
       <use xlink:href="#DejaVuSans-31"/>
       <use x="63.623047" xlink:href="#DejaVuSans-2e"/>
       <use x="95.410156" xlink:href="#DejaVuSans-36"/>
       <use x="159.033203" xlink:href="#DejaVuSans-38"/>
      </g>
     </g>
    </g>
    <g id="ytick_7">
     <g id="line2d_27">
      <g>
       <use style="stroke:#000000;stroke-width:0.8;" x="72" xlink:href="#mda8ba49ca6" y="98.396825"/>
      </g>
     </g>
     <g id="text_8">
      <!-- 3.05 -->
      <defs>
       <path d="M 10.796875 72.90625 
L 49.515625 72.90625 
L 49.515625 64.59375 
L 19.828125 64.59375 
L 19.828125 46.734375 
Q 21.96875 47.46875 24.109375 47.828125 
Q 26.265625 48.1875 28.421875 48.1875 
Q 40.625 48.1875 47.75 41.5 
Q 54.890625 34.8125 54.890625 23.390625 
Q 54.890625 11.625 47.5625 5.09375 
Q 40.234375 -1.421875 26.90625 -1.421875 
Q 22.3125 -1.421875 17.546875 -0.640625 
Q 12.796875 0.140625 7.71875 1.703125 
L 7.71875 11.625 
Q 12.109375 9.234375 16.796875 8.0625 
Q 21.484375 6.890625 26.703125 6.890625 
Q 35.15625 6.890625 40.078125 11.328125 
Q 45.015625 15.765625 45.015625 23.390625 
Q 45.015625 31 40.078125 35.4375 
Q 35.15625 39.890625 26.703125 39.890625 
Q 22.75 39.890625 18.8125 39.015625 
Q 14.890625 38.140625 10.796875 36.28125 
z
" id="DejaVuSans-35"/>
      </defs>
      <g transform="translate(42.734375 102.196043)scale(0.1 -0.1)">
       <use xlink:href="#DejaVuSans-33"/>
       <use x="63.623047" xlink:href="#DejaVuSans-2e"/>
       <use x="95.410156" xlink:href="#DejaVuSans-30"/>
       <use x="159.033203" xlink:href="#DejaVuSans-35"/>
      </g>
     </g>
    </g>
    <g id="ytick_8">
     <g id="line2d_28">
      <g>
       <use style="stroke:#000000;stroke-width:0.8;" x="72" xlink:href="#mda8ba49ca6" y="83.349194"/>
      </g>
     </g>
     <g id="text_9">
      <!-- 4.42 -->
      <g transform="translate(42.734375 87.148413)scale(0.1 -0.1)">
       <use xlink:href="#DejaVuSans-34"/>
       <use x="63.623047" xlink:href="#DejaVuSans-2e"/>
       <use x="95.410156" xlink:href="#DejaVuSans-34"/>
       <use x="159.033203" xlink:href="#DejaVuSans-32"/>
      </g>
     </g>
    </g>
    <g id="text_10">
     <!-- $s_{25}$ -->
     <g transform="translate(36.654688 113.12064)rotate(-90)scale(0.1 -0.1)">
      <use xlink:href="#DejaVuSans-Oblique-73"/>
      <use transform="translate(52.099609 -16.40625)scale(0.7)" xlink:href="#DejaVuSans-32"/>
      <use transform="translate(96.635742 -16.40625)scale(0.7)" xlink:href="#DejaVuSans-35"/>
     </g>
    </g>
   </g>
   <g id="line2d_29">
    <path clip-path="url(#pbf1f5f5361)" d="M 92.290909 115.375881 
L 97.427848 115.526382 
L 102.564787 115.841225 
L 107.701726 116.275515 
L 112.838665 116.94397 
L 117.975604 117.626886 
L 123.112543 118.244824 
L 128.249482 119.404465 
L 133.386421 120.988081 
L 138.52336 122.14134 
L 143.660299 122.611347 
L 148.797238 123.126735 
L 153.934177 123.636674 
L 159.071116 124.019147 
L 164.208055 124.348786 
L 169.344994 124.59221 
L 174.481933 124.826578 
L 179.618872 124.896214 
L 184.755811 124.985529 
L 189.89275 125.094411 
L 195.029689 125.150982 
L 200.166628 125.181846 
L 205.303567 125.193772 
L 210.440506 125.170124 
L 215.577445 125.142848 
L 220.714384 125.10756 
L 225.851323 125.087728 
L 230.988262 125.076639 
L 236.125201 125.107434 
L 241.26214 125.104381 
L 246.399079 125.087035 
L 251.536018 125.031897 
L 256.672957 125.034192 
L 261.809896 125.054554 
L 266.946835 125.070154 
L 272.083774 125.067897 
L 277.220713 125.069431 
L 282.357652 125.086382 
L 287.494591 125.081542 
L 292.63153 125.030138 
L 297.76847 124.926119 
L 302.905409 124.734003 
L 308.042348 124.469915 
L 313.179287 124.025461 
L 318.316226 123.372191 
L 323.453165 122.530599 
L 328.590104 121.366967 
L 333.727043 119.304669 
L 338.863982 116.838673 
L 344.000921 114.1797 
L 349.13786 111.983085 
L 354.274799 109.331936 
L 359.411738 104.216963 
L 364.548677 98.41882 
L 369.685616 93.878092 
L 374.822555 91.996683 
L 379.959494 91.787341 
L 385.096433 93.508875 
L 390.233372 97.951295 
L 395.370311 103.958805 
L 400.50725 109.346936 
L 405.644189 112.61393 
L 410.781128 116.245571 
L 415.918067 120.098715 
L 421.055006 122.964751 
L 426.191945 124.851746 
L 431.328884 126.128852 
L 436.465823 127.175345 
L 441.602762 127.801922 
L 446.739701 128.172496 
L 451.87664 128.395652 
L 457.013579 128.492086 
L 462.150518 128.422364 
L 467.287457 128.310683 
L 472.424396 128.24059 
L 477.561335 128.015254 
L 482.698274 127.756994 
L 487.835213 127.433124 
L 492.972152 127.092049 
L 498.109091 126.704744 
" style="fill:none;stroke:#1f77b4;stroke-linecap:square;stroke-width:1.5;"/>
   </g>
   <g id="line2d_30">
    <path clip-path="url(#pbf1f5f5361)" d="M 92.290909 105.475156 
L 97.427848 105.82962 
L 102.564787 106.576398 
L 107.701726 107.727146 
L 112.838665 109.227878 
L 117.975604 110.961632 
L 123.112543 112.774084 
L 128.249482 114.513786 
L 133.386421 116.067631 
L 138.52336 117.376265 
L 143.660299 118.428723 
L 148.797238 119.246098 
L 153.934177 119.86459 
L 159.071116 120.323329 
L 164.208055 120.657725 
L 169.344994 120.896878 
L 174.481933 121.063319 
L 179.618872 121.173772 
L 184.755811 121.240219 
L 189.89275 121.270926 
L 195.029689 121.271308 
L 200.166628 121.244632 
L 205.303567 121.19261 
L 210.440506 121.115914 
L 215.577445 121.014698 
L 220.714384 120.889136 
L 225.851323 120.73998 
L 230.988262 120.569099 
L 236.125201 120.379863 
L 241.26214 120.177235 
L 246.399079 119.967417 
L 251.536018 119.757009 
L 256.672957 119.551786 
L 261.809896 119.3554 
L 266.946835 119.168314 
L 272.083774 118.987219 
L 277.220713 118.804971 
L 282.357652 118.61081 
L 287.494591 118.390561 
L 292.63153 118.126451 
L 297.76847 117.796278 
L 302.905409 117.371744 
L 308.042348 116.815832 
L 313.179287 116.079207 
L 318.316226 115.095882 
L 323.453165 113.779091 
L 328.590104 112.019952 
L 333.727043 109.694746 
L 338.863982 106.691297 
L 344.000921 102.967664 
L 349.13786 98.644867 
L 354.274799 94.091495 
L 359.411738 89.89343 
L 364.548677 86.622746 
L 369.685616 84.534152 
L 374.822555 83.509349 
L 379.959494 83.349194 
L 385.096433 84.095256 
L 390.233372 86.02328 
L 395.370311 89.306639 
L 400.50725 93.704566 
L 405.644189 98.607327 
L 410.781128 103.357345 
L 415.918067 107.513362 
L 421.055006 110.902266 
L 426.191945 113.53775 
L 431.328884 115.521431 
L 436.465823 116.977025 
L 441.602762 118.018938 
L 446.739701 118.742145 
L 451.87664 119.222116 
L 457.013579 119.518314 
L 462.150518 119.678237 
L 467.287457 119.740858 
L 472.424396 119.739032 
L 477.561335 119.70089 
L 482.698274 119.650297 
L 487.835213 119.606601 
L 492.972152 119.584029 
L 498.109091 119.591136 
" style="fill:none;stroke:#ff7f0e;stroke-linecap:square;stroke-width:1.5;"/>
   </g>
   <g id="patch_8">
    <path d="M 72 135.26352 
L 72 76.57776 
" style="fill:none;stroke:#000000;stroke-linecap:square;stroke-linejoin:miter;stroke-width:0.8;"/>
   </g>
   <g id="patch_9">
    <path d="M 518.4 135.26352 
L 518.4 76.57776 
" style="fill:none;stroke:#000000;stroke-linecap:square;stroke-linejoin:miter;stroke-width:0.8;"/>
   </g>
   <g id="patch_10">
    <path d="M 72 135.26352 
L 518.4 135.26352 
" style="fill:none;stroke:#000000;stroke-linecap:square;stroke-linejoin:miter;stroke-width:0.8;"/>
   </g>
   <g id="patch_11">
    <path d="M 72 76.57776 
L 518.4 76.57776 
" style="fill:none;stroke:#000000;stroke-linecap:square;stroke-linejoin:miter;stroke-width:0.8;"/>
   </g>
  </g>
  <g id="axes_3">
   <g id="patch_12">
    <path d="M 72 193.94928 
L 518.4 193.94928 
L 518.4 135.26352 
L 72 135.26352 
z
" style="fill:#ffffff;"/>
   </g>
   <g id="matplotlib.axis_5">
    <g id="xtick_19">
     <g id="line2d_31">
      <g>
       <use style="stroke:#000000;stroke-width:0.8;" x="92.290909" xlink:href="#md6cbb896c0" y="193.94928"/>
      </g>
     </g>
    </g>
    <g id="xtick_20">
     <g id="line2d_32">
      <g>
       <use style="stroke:#000000;stroke-width:0.8;" x="143.660299" xlink:href="#md6cbb896c0" y="193.94928"/>
      </g>
     </g>
    </g>
    <g id="xtick_21">
     <g id="line2d_33">
      <g>
       <use style="stroke:#000000;stroke-width:0.8;" x="195.029689" xlink:href="#md6cbb896c0" y="193.94928"/>
      </g>
     </g>
    </g>
    <g id="xtick_22">
     <g id="line2d_34">
      <g>
       <use style="stroke:#000000;stroke-width:0.8;" x="246.399079" xlink:href="#md6cbb896c0" y="193.94928"/>
      </g>
     </g>
    </g>
    <g id="xtick_23">
     <g id="line2d_35">
      <g>
       <use style="stroke:#000000;stroke-width:0.8;" x="297.76847" xlink:href="#md6cbb896c0" y="193.94928"/>
      </g>
     </g>
    </g>
    <g id="xtick_24">
     <g id="line2d_36">
      <g>
       <use style="stroke:#000000;stroke-width:0.8;" x="349.13786" xlink:href="#md6cbb896c0" y="193.94928"/>
      </g>
     </g>
    </g>
    <g id="xtick_25">
     <g id="line2d_37">
      <g>
       <use style="stroke:#000000;stroke-width:0.8;" x="400.50725" xlink:href="#md6cbb896c0" y="193.94928"/>
      </g>
     </g>
    </g>
    <g id="xtick_26">
     <g id="line2d_38">
      <g>
       <use style="stroke:#000000;stroke-width:0.8;" x="451.87664" xlink:href="#md6cbb896c0" y="193.94928"/>
      </g>
     </g>
    </g>
    <g id="xtick_27">
     <g id="line2d_39">
      <g>
       <use style="stroke:#000000;stroke-width:0.8;" x="503.24603" xlink:href="#md6cbb896c0" y="193.94928"/>
      </g>
     </g>
    </g>
   </g>
   <g id="matplotlib.axis_6">
    <g id="ytick_9">
     <g id="line2d_40">
      <g>
       <use style="stroke:#000000;stroke-width:0.8;" x="72" xlink:href="#mda8ba49ca6" y="187.177846"/>
      </g>
     </g>
     <g id="text_11">
      <!-- 0.68 -->
      <g transform="translate(42.734375 190.977065)scale(0.1 -0.1)">
       <use xlink:href="#DejaVuSans-30"/>
       <use x="63.623047" xlink:href="#DejaVuSans-2e"/>
       <use x="95.410156" xlink:href="#DejaVuSans-36"/>
       <use x="159.033203" xlink:href="#DejaVuSans-38"/>
      </g>
     </g>
    </g>
    <g id="ytick_10">
     <g id="line2d_41">
      <g>
       <use style="stroke:#000000;stroke-width:0.8;" x="72" xlink:href="#mda8ba49ca6" y="172.130215"/>
      </g>
     </g>
     <g id="text_12">
      <!-- 0.77 -->
      <g transform="translate(42.734375 175.929434)scale(0.1 -0.1)">
       <use xlink:href="#DejaVuSans-30"/>
       <use x="63.623047" xlink:href="#DejaVuSans-2e"/>
       <use x="95.410156" xlink:href="#DejaVuSans-37"/>
       <use x="159.033203" xlink:href="#DejaVuSans-37"/>
      </g>
     </g>
    </g>
    <g id="ytick_11">
     <g id="line2d_42">
      <g>
       <use style="stroke:#000000;stroke-width:0.8;" x="72" xlink:href="#mda8ba49ca6" y="157.082585"/>
      </g>
     </g>
     <g id="text_13">
      <!-- 0.86 -->
      <g transform="translate(42.734375 160.881803)scale(0.1 -0.1)">
       <use xlink:href="#DejaVuSans-30"/>
       <use x="63.623047" xlink:href="#DejaVuSans-2e"/>
       <use x="95.410156" xlink:href="#DejaVuSans-38"/>
       <use x="159.033203" xlink:href="#DejaVuSans-36"/>
      </g>
     </g>
    </g>
    <g id="ytick_12">
     <g id="line2d_43">
      <g>
       <use style="stroke:#000000;stroke-width:0.8;" x="72" xlink:href="#mda8ba49ca6" y="142.034954"/>
      </g>
     </g>
     <g id="text_14">
      <!-- 0.94 -->
      <g transform="translate(42.734375 145.834173)scale(0.1 -0.1)">
       <use xlink:href="#DejaVuSans-30"/>
       <use x="63.623047" xlink:href="#DejaVuSans-2e"/>
       <use x="95.410156" xlink:href="#DejaVuSans-39"/>
       <use x="159.033203" xlink:href="#DejaVuSans-34"/>
      </g>
     </g>
    </g>
    <g id="text_15">
     <!-- $s_{50}$ -->
     <g transform="translate(36.654688 171.8064)rotate(-90)scale(0.1 -0.1)">
      <use xlink:href="#DejaVuSans-Oblique-73"/>
      <use transform="translate(52.099609 -16.40625)scale(0.7)" xlink:href="#DejaVuSans-35"/>
      <use transform="translate(96.635742 -16.40625)scale(0.7)" xlink:href="#DejaVuSans-30"/>
     </g>
    </g>
   </g>
   <g id="line2d_44">
    <path clip-path="url(#p3c3097ffbb)" d="M 92.290909 142.034954 
L 97.427848 142.300644 
L 102.564787 142.869245 
L 107.701726 143.746015 
L 112.838665 144.709196 
L 117.975604 146.034936 
L 123.112543 147.91513 
L 128.249482 149.921251 
L 133.386421 151.776177 
L 138.52336 153.57808 
L 143.660299 155.210126 
L 148.797238 157.263968 
L 153.934177 159.818351 
L 159.071116 162.521714 
L 164.208055 165.5546 
L 169.344994 168.463838 
L 174.481933 170.965012 
L 179.618872 172.688822 
L 184.755811 174.054846 
L 189.89275 174.790332 
L 195.029689 175.072188 
L 200.166628 174.885554 
L 205.303567 174.304568 
L 210.440506 173.329489 
L 215.577445 172.050392 
L 220.714384 170.66755 
L 225.851323 169.441931 
L 230.988262 168.229961 
L 236.125201 167.030832 
L 241.26214 165.998392 
L 246.399079 165.01102 
L 251.536018 164.090589 
L 256.672957 163.270734 
L 261.809896 162.699151 
L 266.946835 162.277584 
L 272.083774 162.112387 
L 277.220713 161.850838 
L 282.357652 161.548778 
L 287.494591 161.142227 
L 292.63153 160.805018 
L 297.76847 160.324194 
L 302.905409 159.621423 
L 308.042348 158.450711 
L 313.179287 156.747913 
L 318.316226 154.995553 
L 323.453165 152.860769 
L 328.590104 150.602089 
L 333.727043 147.966557 
L 338.863982 146.240148 
L 344.000921 144.897652 
L 349.13786 143.116233 
L 354.274799 142.24435 
L 359.411738 144.05897 
L 364.548677 146.305452 
L 369.685616 148.107915 
L 374.822555 149.767342 
L 379.959494 150.271798 
L 385.096433 149.410395 
L 390.233372 147.763395 
L 395.370311 145.418864 
L 400.50725 143.642498 
L 405.644189 143.546354 
L 410.781128 144.006839 
L 415.918067 145.020369 
L 421.055006 146.877801 
L 426.191945 148.888811 
L 431.328884 151.077693 
L 436.465823 151.758365 
L 441.602762 152.885541 
L 446.739701 153.815914 
L 451.87664 154.597472 
L 457.013579 155.288106 
L 462.150518 155.664998 
L 467.287457 155.888437 
L 472.424396 155.824562 
L 477.561335 156.357103 
L 482.698274 157.21689 
L 487.835213 158.061765 
L 492.972152 159.300246 
L 498.109091 161.041609 
" style="fill:none;stroke:#1f77b4;stroke-linecap:square;stroke-width:1.5;"/>
   </g>
   <g id="line2d_45">
    <path clip-path="url(#p3c3097ffbb)" d="M 92.290909 154.883274 
L 97.427848 154.983343 
L 102.564787 155.213275 
L 107.701726 155.612701 
L 112.838665 156.22839 
L 117.975604 157.112793 
L 123.112543 158.318529 
L 128.249482 159.888916 
L 133.386421 161.845764 
L 138.52336 164.177848 
L 143.660299 166.833842 
L 148.797238 169.723269 
L 153.934177 172.725534 
L 159.071116 175.704912 
L 164.208055 178.526694 
L 169.344994 181.070783 
L 174.481933 183.240414 
L 179.618872 184.965974 
L 184.755811 186.205076 
L 189.89275 186.940593 
L 195.029689 187.177846 
L 200.166628 186.941856 
L 205.303567 186.274906 
L 210.440506 185.234171 
L 215.577445 183.889034 
L 220.714384 182.317767 
L 225.851323 180.603163 
L 230.988262 178.827294 
L 236.125201 177.065872 
L 241.26214 175.382844 
L 246.399079 173.826095 
L 251.536018 172.424768 
L 256.672957 171.188493 
L 261.809896 170.108198 
L 266.946835 169.158262 
L 272.083774 168.299656 
L 277.220713 167.483622 
L 282.357652 166.656115 
L 287.494591 165.762619 
L 292.63153 164.753542 
L 297.76847 163.589778 
L 302.905409 162.248287 
L 308.042348 160.727049 
L 313.179287 159.048877 
L 318.316226 157.262787 
L 323.453165 155.442026 
L 328.590104 153.677424 
L 333.727043 152.066152 
L 338.863982 150.696741 
L 344.000921 149.633471 
L 349.13786 148.903961 
L 354.274799 148.493402 
L 359.411738 148.347239 
L 364.548677 148.381994 
L 369.685616 148.502319 
L 374.822555 148.621132 
L 379.959494 148.678897 
L 385.096433 148.657439 
L 390.233372 148.584524 
L 395.370311 148.527266 
L 400.50725 148.575835 
L 405.644189 148.821446 
L 410.781128 149.334601 
L 415.918067 150.149091 
L 421.055006 151.255317 
L 426.191945 152.603643 
L 431.328884 154.115861 
L 436.465823 155.700861 
L 441.602762 157.270202 
L 446.739701 158.750452 
L 451.87664 160.090659 
L 457.013579 161.265203 
L 462.150518 162.272986 
L 467.287457 163.134057 
L 472.424396 163.8849 
L 477.561335 164.573039 
L 482.698274 165.251598 
L 487.835213 165.974045 
L 492.972152 166.789478 
L 498.109091 167.738222 
" style="fill:none;stroke:#ff7f0e;stroke-linecap:square;stroke-width:1.5;"/>
   </g>
   <g id="patch_13">
    <path d="M 72 193.94928 
L 72 135.26352 
" style="fill:none;stroke:#000000;stroke-linecap:square;stroke-linejoin:miter;stroke-width:0.8;"/>
   </g>
   <g id="patch_14">
    <path d="M 518.4 193.94928 
L 518.4 135.26352 
" style="fill:none;stroke:#000000;stroke-linecap:square;stroke-linejoin:miter;stroke-width:0.8;"/>
   </g>
   <g id="patch_15">
    <path d="M 72 193.94928 
L 518.4 193.94928 
" style="fill:none;stroke:#000000;stroke-linecap:square;stroke-linejoin:miter;stroke-width:0.8;"/>
   </g>
   <g id="patch_16">
    <path d="M 72 135.26352 
L 518.4 135.26352 
" style="fill:none;stroke:#000000;stroke-linecap:square;stroke-linejoin:miter;stroke-width:0.8;"/>
   </g>
  </g>
  <g id="axes_4">
   <g id="patch_17">
    <path d="M 72 252.63504 
L 518.4 252.63504 
L 518.4 193.94928 
L 72 193.94928 
z
" style="fill:#ffffff;"/>
   </g>
   <g id="matplotlib.axis_7">
    <g id="xtick_28">
     <g id="line2d_46">
      <g>
       <use style="stroke:#000000;stroke-width:0.8;" x="92.290909" xlink:href="#md6cbb896c0" y="252.63504"/>
      </g>
     </g>
    </g>
    <g id="xtick_29">
     <g id="line2d_47">
      <g>
       <use style="stroke:#000000;stroke-width:0.8;" x="143.660299" xlink:href="#md6cbb896c0" y="252.63504"/>
      </g>
     </g>
    </g>
    <g id="xtick_30">
     <g id="line2d_48">
      <g>
       <use style="stroke:#000000;stroke-width:0.8;" x="195.029689" xlink:href="#md6cbb896c0" y="252.63504"/>
      </g>
     </g>
    </g>
    <g id="xtick_31">
     <g id="line2d_49">
      <g>
       <use style="stroke:#000000;stroke-width:0.8;" x="246.399079" xlink:href="#md6cbb896c0" y="252.63504"/>
      </g>
     </g>
    </g>
    <g id="xtick_32">
     <g id="line2d_50">
      <g>
       <use style="stroke:#000000;stroke-width:0.8;" x="297.76847" xlink:href="#md6cbb896c0" y="252.63504"/>
      </g>
     </g>
    </g>
    <g id="xtick_33">
     <g id="line2d_51">
      <g>
       <use style="stroke:#000000;stroke-width:0.8;" x="349.13786" xlink:href="#md6cbb896c0" y="252.63504"/>
      </g>
     </g>
    </g>
    <g id="xtick_34">
     <g id="line2d_52">
      <g>
       <use style="stroke:#000000;stroke-width:0.8;" x="400.50725" xlink:href="#md6cbb896c0" y="252.63504"/>
      </g>
     </g>
    </g>
    <g id="xtick_35">
     <g id="line2d_53">
      <g>
       <use style="stroke:#000000;stroke-width:0.8;" x="451.87664" xlink:href="#md6cbb896c0" y="252.63504"/>
      </g>
     </g>
    </g>
    <g id="xtick_36">
     <g id="line2d_54">
      <g>
       <use style="stroke:#000000;stroke-width:0.8;" x="503.24603" xlink:href="#md6cbb896c0" y="252.63504"/>
      </g>
     </g>
    </g>
   </g>
   <g id="matplotlib.axis_8">
    <g id="ytick_13">
     <g id="line2d_55">
      <g>
       <use style="stroke:#000000;stroke-width:0.8;" x="72" xlink:href="#mda8ba49ca6" y="245.863606"/>
      </g>
     </g>
     <g id="text_16">
      <!-- 3.50 -->
      <g transform="translate(42.734375 249.662825)scale(0.1 -0.1)">
       <use xlink:href="#DejaVuSans-33"/>
       <use x="63.623047" xlink:href="#DejaVuSans-2e"/>
       <use x="95.410156" xlink:href="#DejaVuSans-35"/>
       <use x="159.033203" xlink:href="#DejaVuSans-30"/>
      </g>
     </g>
    </g>
    <g id="ytick_14">
     <g id="line2d_56">
      <g>
       <use style="stroke:#000000;stroke-width:0.8;" x="72" xlink:href="#mda8ba49ca6" y="230.815975"/>
      </g>
     </g>
     <g id="text_17">
      <!-- 4.16 -->
      <g transform="translate(42.734375 234.615194)scale(0.1 -0.1)">
       <use xlink:href="#DejaVuSans-34"/>
       <use x="63.623047" xlink:href="#DejaVuSans-2e"/>
       <use x="95.410156" xlink:href="#DejaVuSans-31"/>
       <use x="159.033203" xlink:href="#DejaVuSans-36"/>
      </g>
     </g>
    </g>
    <g id="ytick_15">
     <g id="line2d_57">
      <g>
       <use style="stroke:#000000;stroke-width:0.8;" x="72" xlink:href="#mda8ba49ca6" y="215.768345"/>
      </g>
     </g>
     <g id="text_18">
      <!-- 4.82 -->
      <g transform="translate(42.734375 219.567563)scale(0.1 -0.1)">
       <use xlink:href="#DejaVuSans-34"/>
       <use x="63.623047" xlink:href="#DejaVuSans-2e"/>
       <use x="95.410156" xlink:href="#DejaVuSans-38"/>
       <use x="159.033203" xlink:href="#DejaVuSans-32"/>
      </g>
     </g>
    </g>
    <g id="ytick_16">
     <g id="line2d_58">
      <g>
       <use style="stroke:#000000;stroke-width:0.8;" x="72" xlink:href="#mda8ba49ca6" y="200.720714"/>
      </g>
     </g>
     <g id="text_19">
      <!-- 5.47 -->
      <g transform="translate(42.734375 204.519933)scale(0.1 -0.1)">
       <use xlink:href="#DejaVuSans-35"/>
       <use x="63.623047" xlink:href="#DejaVuSans-2e"/>
       <use x="95.410156" xlink:href="#DejaVuSans-34"/>
       <use x="159.033203" xlink:href="#DejaVuSans-37"/>
      </g>
     </g>
    </g>
    <g id="text_20">
     <!-- $s_{75}$ -->
     <g transform="translate(36.654688 230.49216)rotate(-90)scale(0.1 -0.1)">
      <use xlink:href="#DejaVuSans-Oblique-73"/>
      <use transform="translate(52.099609 -16.40625)scale(0.7)" xlink:href="#DejaVuSans-37"/>
      <use transform="translate(96.635742 -16.40625)scale(0.7)" xlink:href="#DejaVuSans-35"/>
     </g>
    </g>
   </g>
   <g id="line2d_59">
    <path clip-path="url(#pc9832a7923)" d="M 92.290909 237.381101 
L 97.427848 237.378722 
L 102.564787 237.468042 
L 107.701726 237.891047 
L 112.838665 239.469219 
L 117.975604 239.084646 
L 123.112543 237.467225 
L 128.249482 236.414744 
L 133.386421 234.222002 
L 138.52336 230.275071 
L 143.660299 226.841794 
L 148.797238 224.592839 
L 153.934177 222.423491 
L 159.071116 219.968195 
L 164.208055 218.441684 
L 169.344994 217.861359 
L 174.481933 217.698115 
L 179.618872 217.223629 
L 184.755811 216.652287 
L 189.89275 216.347076 
L 195.029689 216.120417 
L 200.166628 215.981912 
L 205.303567 215.915404 
L 210.440506 215.871904 
L 215.577445 215.836385 
L 220.714384 215.794986 
L 225.851323 215.888313 
L 230.988262 216.536562 
L 236.125201 217.715897 
L 241.26214 218.898324 
L 246.399079 220.241055 
L 251.536018 221.385296 
L 256.672957 222.369363 
L 261.809896 223.251741 
L 266.946835 223.857557 
L 272.083774 224.681016 
L 277.220713 225.525773 
L 282.357652 226.225939 
L 287.494591 226.869473 
L 292.63153 227.335652 
L 297.76847 227.30549 
L 302.905409 227.020521 
L 308.042348 226.233126 
L 313.179287 224.958177 
L 318.316226 224.062896 
L 323.453165 223.966422 
L 328.590104 223.691754 
L 333.727043 222.418602 
L 338.863982 219.989504 
L 344.000921 217.303497 
L 349.13786 218.491478 
L 354.274799 214.926709 
L 359.411738 209.052378 
L 364.548677 205.116281 
L 369.685616 202.941086 
L 374.822555 201.669785 
L 379.959494 201.046047 
L 385.096433 200.850747 
L 390.233372 200.720714 
L 395.370311 203.048384 
L 400.50725 209.121956 
L 405.644189 212.63458 
L 410.781128 214.079436 
L 415.918067 217.203528 
L 421.055006 218.495931 
L 426.191945 218.883679 
L 431.328884 218.815896 
L 436.465823 218.531559 
L 441.602762 218.400067 
L 446.739701 218.539171 
L 451.87664 218.890887 
L 457.013579 219.222873 
L 462.150518 219.748014 
L 467.287457 220.364021 
L 472.424396 221.206296 
L 477.561335 221.796051 
L 482.698274 222.186008 
L 487.835213 222.580354 
L 492.972152 222.868665 
L 498.109091 222.80563 
" style="fill:none;stroke:#1f77b4;stroke-linecap:square;stroke-width:1.5;"/>
   </g>
   <g id="line2d_60">
    <path clip-path="url(#pc9832a7923)" d="M 92.290909 245.863606 
L 97.427848 245.537696 
L 102.564787 244.856307 
L 107.701726 243.779158 
L 112.838665 242.295706 
L 117.975604 240.429669 
L 123.112543 238.239529 
L 128.249482 235.814487 
L 133.386421 233.265885 
L 138.52336 230.714954 
L 143.660299 228.278734 
L 148.797238 226.05638 
L 153.934177 224.118515 
L 159.071116 222.501607 
L 164.208055 221.208223 
L 169.344994 220.212646 
L 174.481933 219.469862 
L 179.618872 218.925807 
L 184.755811 218.526725 
L 189.89275 218.22624 
L 195.029689 217.98953 
L 200.166628 217.794546 
L 205.303567 217.630714 
L 210.440506 217.495857 
L 215.577445 217.391892 
L 220.714384 217.320625 
L 225.851323 217.280076 
L 230.988262 217.26249 
L 236.125201 217.254193 
L 241.26214 217.237359 
L 246.399079 217.192966 
L 251.536018 217.104397 
L 256.672957 216.960361 
L 261.809896 216.756786 
L 266.946835 216.497101 
L 272.083774 216.191313 
L 277.220713 215.854144 
L 282.357652 215.502885 
L 287.494591 215.155535 
L 292.63153 214.829462 
L 297.76847 214.540573 
L 302.905409 214.302589 
L 308.042348 214.126094 
L 313.179287 214.016793 
L 318.316226 213.972944 
L 323.453165 213.982134 
L 328.590104 214.018644 
L 333.727043 214.042697 
L 338.863982 214.003139 
L 344.000921 213.844741 
L 349.13786 213.519277 
L 354.274799 212.99823 
L 359.411738 212.282961 
L 364.548677 211.407879 
L 369.685616 210.434493 
L 374.822555 209.437294 
L 379.959494 208.486491 
L 385.096433 207.633502 
L 390.233372 206.903294 
L 395.370311 206.295137 
L 400.50725 205.790336 
L 405.644189 205.363782 
L 410.781128 204.994872 
L 415.918067 204.673916 
L 421.055006 204.402646 
L 426.191945 204.190044 
L 431.328884 204.04653 
L 436.465823 203.979216 
L 441.602762 203.989528 
L 446.739701 204.07348 
L 451.87664 204.223472 
L 457.013579 204.430499 
L 462.150518 204.685905 
L 467.287457 204.982241 
L 472.424396 205.31328 
L 477.561335 205.673446 
L 482.698274 206.057197 
L 487.835213 206.458718 
L 492.972152 206.872032 
L 498.109091 207.291781 
" style="fill:none;stroke:#ff7f0e;stroke-linecap:square;stroke-width:1.5;"/>
   </g>
   <g id="patch_18">
    <path d="M 72 252.63504 
L 72 193.94928 
" style="fill:none;stroke:#000000;stroke-linecap:square;stroke-linejoin:miter;stroke-width:0.8;"/>
   </g>
   <g id="patch_19">
    <path d="M 518.4 252.63504 
L 518.4 193.94928 
" style="fill:none;stroke:#000000;stroke-linecap:square;stroke-linejoin:miter;stroke-width:0.8;"/>
   </g>
   <g id="patch_20">
    <path d="M 72 252.63504 
L 518.4 252.63504 
" style="fill:none;stroke:#000000;stroke-linecap:square;stroke-linejoin:miter;stroke-width:0.8;"/>
   </g>
   <g id="patch_21">
    <path d="M 72 193.94928 
L 518.4 193.94928 
" style="fill:none;stroke:#000000;stroke-linecap:square;stroke-linejoin:miter;stroke-width:0.8;"/>
   </g>
  </g>
  <g id="axes_5">
   <g id="patch_22">
    <path d="M 72 311.3208 
L 518.4 311.3208 
L 518.4 252.63504 
L 72 252.63504 
z
" style="fill:#ffffff;"/>
   </g>
   <g id="matplotlib.axis_9">
    <g id="xtick_37">
     <g id="line2d_61">
      <g>
       <use style="stroke:#000000;stroke-width:0.8;" x="92.290909" xlink:href="#md6cbb896c0" y="311.3208"/>
      </g>
     </g>
     <g id="text_21">
      <!-- 0 -->
      <g transform="translate(89.109659 325.919237)scale(0.1 -0.1)">
       <use xlink:href="#DejaVuSans-30"/>
      </g>
     </g>
    </g>
    <g id="xtick_38">
     <g id="line2d_62">
      <g>
       <use style="stroke:#000000;stroke-width:0.8;" x="143.660299" xlink:href="#md6cbb896c0" y="311.3208"/>
      </g>
     </g>
     <g id="text_22">
      <!-- 10 -->
      <g transform="translate(137.297799 325.919237)scale(0.1 -0.1)">
       <use xlink:href="#DejaVuSans-31"/>
       <use x="63.623047" xlink:href="#DejaVuSans-30"/>
      </g>
     </g>
    </g>
    <g id="xtick_39">
     <g id="line2d_63">
      <g>
       <use style="stroke:#000000;stroke-width:0.8;" x="195.029689" xlink:href="#md6cbb896c0" y="311.3208"/>
      </g>
     </g>
     <g id="text_23">
      <!-- 20 -->
      <g transform="translate(188.667189 325.919237)scale(0.1 -0.1)">
       <use xlink:href="#DejaVuSans-32"/>
       <use x="63.623047" xlink:href="#DejaVuSans-30"/>
      </g>
     </g>
    </g>
    <g id="xtick_40">
     <g id="line2d_64">
      <g>
       <use style="stroke:#000000;stroke-width:0.8;" x="246.399079" xlink:href="#md6cbb896c0" y="311.3208"/>
      </g>
     </g>
     <g id="text_24">
      <!-- 30 -->
      <g transform="translate(240.036579 325.919237)scale(0.1 -0.1)">
       <use xlink:href="#DejaVuSans-33"/>
       <use x="63.623047" xlink:href="#DejaVuSans-30"/>
      </g>
     </g>
    </g>
    <g id="xtick_41">
     <g id="line2d_65">
      <g>
       <use style="stroke:#000000;stroke-width:0.8;" x="297.76847" xlink:href="#md6cbb896c0" y="311.3208"/>
      </g>
     </g>
     <g id="text_25">
      <!-- 40 -->
      <g transform="translate(291.40597 325.919237)scale(0.1 -0.1)">
       <use xlink:href="#DejaVuSans-34"/>
       <use x="63.623047" xlink:href="#DejaVuSans-30"/>
      </g>
     </g>
    </g>
    <g id="xtick_42">
     <g id="line2d_66">
      <g>
       <use style="stroke:#000000;stroke-width:0.8;" x="349.13786" xlink:href="#md6cbb896c0" y="311.3208"/>
      </g>
     </g>
     <g id="text_26">
      <!-- 50 -->
      <g transform="translate(342.77536 325.919237)scale(0.1 -0.1)">
       <use xlink:href="#DejaVuSans-35"/>
       <use x="63.623047" xlink:href="#DejaVuSans-30"/>
      </g>
     </g>
    </g>
    <g id="xtick_43">
     <g id="line2d_67">
      <g>
       <use style="stroke:#000000;stroke-width:0.8;" x="400.50725" xlink:href="#md6cbb896c0" y="311.3208"/>
      </g>
     </g>
     <g id="text_27">
      <!-- 60 -->
      <g transform="translate(394.14475 325.919237)scale(0.1 -0.1)">
       <use xlink:href="#DejaVuSans-36"/>
       <use x="63.623047" xlink:href="#DejaVuSans-30"/>
      </g>
     </g>
    </g>
    <g id="xtick_44">
     <g id="line2d_68">
      <g>
       <use style="stroke:#000000;stroke-width:0.8;" x="451.87664" xlink:href="#md6cbb896c0" y="311.3208"/>
      </g>
     </g>
     <g id="text_28">
      <!-- 70 -->
      <g transform="translate(445.51414 325.919237)scale(0.1 -0.1)">
       <use xlink:href="#DejaVuSans-37"/>
       <use x="63.623047" xlink:href="#DejaVuSans-30"/>
      </g>
     </g>
    </g>
    <g id="xtick_45">
     <g id="line2d_69">
      <g>
       <use style="stroke:#000000;stroke-width:0.8;" x="503.24603" xlink:href="#md6cbb896c0" y="311.3208"/>
      </g>
     </g>
     <g id="text_29">
      <!-- 80 -->
      <g transform="translate(496.88353 325.919237)scale(0.1 -0.1)">
       <use xlink:href="#DejaVuSans-38"/>
       <use x="63.623047" xlink:href="#DejaVuSans-30"/>
      </g>
     </g>
    </g>
   </g>
   <g id="matplotlib.axis_10">
    <g id="ytick_17">
     <g id="line2d_70">
      <g>
       <use style="stroke:#000000;stroke-width:0.8;" x="72" xlink:href="#mda8ba49ca6" y="304.549366"/>
      </g>
     </g>
     <g id="text_30">
      <!-- -10.53 -->
      <g transform="translate(32.764063 308.348585)scale(0.1 -0.1)">
       <use xlink:href="#DejaVuSans-2d"/>
       <use x="36.083984" xlink:href="#DejaVuSans-31"/>
       <use x="99.707031" xlink:href="#DejaVuSans-30"/>
       <use x="163.330078" xlink:href="#DejaVuSans-2e"/>
       <use x="195.117188" xlink:href="#DejaVuSans-35"/>
       <use x="258.740234" xlink:href="#DejaVuSans-33"/>
      </g>
     </g>
    </g>
    <g id="ytick_18">
     <g id="line2d_71">
      <g>
       <use style="stroke:#000000;stroke-width:0.8;" x="72" xlink:href="#mda8ba49ca6" y="289.501735"/>
      </g>
     </g>
     <g id="text_31">
      <!-- -9.74 -->
      <g transform="translate(39.126562 293.300954)scale(0.1 -0.1)">
       <use xlink:href="#DejaVuSans-2d"/>
       <use x="36.083984" xlink:href="#DejaVuSans-39"/>
       <use x="99.707031" xlink:href="#DejaVuSans-2e"/>
       <use x="131.494141" xlink:href="#DejaVuSans-37"/>
       <use x="195.117188" xlink:href="#DejaVuSans-34"/>
      </g>
     </g>
    </g>
    <g id="ytick_19">
     <g id="line2d_72">
      <g>
       <use style="stroke:#000000;stroke-width:0.8;" x="72" xlink:href="#mda8ba49ca6" y="274.454105"/>
      </g>
     </g>
     <g id="text_32">
      <!-- -8.95 -->
      <g transform="translate(39.126562 278.253323)scale(0.1 -0.1)">
       <use xlink:href="#DejaVuSans-2d"/>
       <use x="36.083984" xlink:href="#DejaVuSans-38"/>
       <use x="99.707031" xlink:href="#DejaVuSans-2e"/>
       <use x="131.494141" xlink:href="#DejaVuSans-39"/>
       <use x="195.117188" xlink:href="#DejaVuSans-35"/>
      </g>
     </g>
    </g>
    <g id="ytick_20">
     <g id="line2d_73">
      <g>
       <use style="stroke:#000000;stroke-width:0.8;" x="72" xlink:href="#mda8ba49ca6" y="259.406474"/>
      </g>
     </g>
     <g id="text_33">
      <!-- -8.15 -->
      <g transform="translate(39.126562 263.205693)scale(0.1 -0.1)">
       <use xlink:href="#DejaVuSans-2d"/>
       <use x="36.083984" xlink:href="#DejaVuSans-38"/>
       <use x="99.707031" xlink:href="#DejaVuSans-2e"/>
       <use x="131.494141" xlink:href="#DejaVuSans-31"/>
       <use x="195.117188" xlink:href="#DejaVuSans-35"/>
      </g>
     </g>
    </g>
    <g id="text_34">
     <!-- $s_{92}$ -->
     <g transform="translate(26.684375 289.17792)rotate(-90)scale(0.1 -0.1)">
      <use xlink:href="#DejaVuSans-Oblique-73"/>
      <use transform="translate(52.099609 -16.40625)scale(0.7)" xlink:href="#DejaVuSans-39"/>
      <use transform="translate(96.624805 -16.40625)scale(0.7)" xlink:href="#DejaVuSans-32"/>
     </g>
    </g>
   </g>
   <g id="line2d_74">
    <path clip-path="url(#pab89b4e5b1)" d="M 92.290909 298.683755 
L 97.427848 298.901577 
L 102.564787 299.44244 
L 107.701726 300.303869 
L 112.838665 302.423313 
L 117.975604 303.52844 
L 123.112543 303.786908 
L 128.249482 304.549366 
L 133.386421 303.855777 
L 138.52336 301.560981 
L 143.660299 299.128681 
L 148.797238 296.615719 
L 153.934177 293.721303 
L 159.071116 289.279616 
L 164.208055 284.455571 
L 169.344994 279.741872 
L 174.481933 275.849877 
L 179.618872 272.368337 
L 184.755811 269.266283 
L 189.89275 267.216123 
L 195.029689 265.987396 
L 200.166628 265.657494 
L 205.303567 266.139527 
L 210.440506 267.293353 
L 215.577445 268.951657 
L 220.714384 271.021047 
L 225.851323 273.51178 
L 230.988262 276.060657 
L 236.125201 278.802509 
L 241.26214 281.473867 
L 246.399079 284.189121 
L 251.536018 286.375936 
L 256.672957 288.056685 
L 261.809896 289.338662 
L 266.946835 290.149134 
L 272.083774 291.610382 
L 277.220713 293.121051 
L 282.357652 294.092158 
L 287.494591 294.946058 
L 292.63153 295.787985 
L 297.76847 296.206727 
L 302.905409 296.514437 
L 308.042348 296.667308 
L 313.179287 296.631465 
L 318.316226 297.117344 
L 323.453165 297.272129 
L 328.590104 296.34546 
L 333.727043 294.30218 
L 338.863982 291.806589 
L 344.000921 289.110458 
L 349.13786 289.251411 
L 354.274799 285.964525 
L 359.411738 282.08656 
L 364.548677 280.601026 
L 369.685616 279.29655 
L 374.822555 279.259118 
L 379.959494 279.582898 
L 385.096433 280.032916 
L 390.233372 280.772514 
L 395.370311 282.687932 
L 400.50725 287.870084 
L 405.644189 290.949566 
L 410.781128 292.034794 
L 415.918067 294.329988 
L 421.055006 296.743455 
L 426.191945 297.373338 
L 431.328884 297.129496 
L 436.465823 296.109924 
L 441.602762 295.013952 
L 446.739701 293.848118 
L 451.87664 292.92739 
L 457.013579 292.019969 
L 462.150518 291.089075 
L 467.287457 289.887 
L 472.424396 288.233193 
L 477.561335 286.976513 
L 482.698274 286.340725 
L 487.835213 285.555623 
L 492.972152 284.850605 
L 498.109091 283.733163 
" style="fill:none;stroke:#1f77b4;stroke-linecap:square;stroke-width:1.5;"/>
   </g>
   <g id="line2d_75">
    <path clip-path="url(#pab89b4e5b1)" d="M 92.290909 302.956934 
L 97.427848 302.757278 
L 102.564787 302.332955 
L 107.701726 301.641245 
L 112.838665 300.642799 
L 117.975604 299.302768 
L 123.112543 297.592767 
L 128.249482 295.494161 
L 133.386421 293.002994 
L 138.52336 290.135628 
L 143.660299 286.934278 
L 148.797238 283.470072 
L 153.934177 279.842396 
L 159.071116 276.173459 
L 164.208055 272.598943 
L 169.344994 269.256351 
L 174.481933 266.272932 
L 179.618872 263.755204 
L 184.755811 261.781407 
L 189.89275 260.396866 
L 195.029689 259.612577 
L 200.166628 259.406474 
L 205.303567 259.726824 
L 210.440506 260.497552 
L 215.577445 261.624907 
L 220.714384 263.005187 
L 225.851323 264.532884 
L 230.988262 266.108342 
L 236.125201 267.644472 
L 241.26214 269.071808 
L 246.399079 270.341633 
L 251.536018 271.42715 
L 256.672957 272.323194 
L 261.809896 273.044627 
L 266.946835 273.623824 
L 272.083774 274.107572 
L 277.220713 274.553147 
L 282.357652 275.023804 
L 287.494591 275.583572 
L 292.63153 276.291643 
L 297.76847 277.196571 
L 302.905409 278.331004 
L 308.042348 279.707546 
L 313.179287 281.316464 
L 318.316226 283.125797 
L 323.453165 285.084118 
L 328.590104 287.125899 
L 333.727043 289.178406 
L 338.863982 291.169104 
L 344.000921 293.031904 
L 349.13786 294.710973 
L 354.274799 296.161838 
L 359.411738 297.35046 
L 364.548677 298.251055 
L 369.685616 298.844535 
L 374.822555 299.11772 
L 379.959494 299.063314 
L 385.096433 298.68027 
L 390.233372 297.973951 
L 395.370311 296.955824 
L 400.50725 295.643619 
L 405.644189 294.061931 
L 410.781128 292.243895 
L 415.918067 290.233172 
L 421.055006 288.085017 
L 426.191945 285.86532 
L 431.328884 283.646959 
L 436.465823 281.503661 
L 441.602762 279.502689 
L 446.739701 277.697726 
L 451.87664 276.123351 
L 457.013579 274.791988 
L 462.150518 273.693434 
L 467.287457 272.797065 
L 472.424396 272.055787 
L 477.561335 271.411242 
L 482.698274 270.799632 
L 487.835213 270.157397 
L 492.972152 269.426557 
L 498.109091 268.559332 
" style="fill:none;stroke:#ff7f0e;stroke-linecap:square;stroke-width:1.5;"/>
   </g>
   <g id="patch_23">
    <path d="M 72 311.3208 
L 72 252.63504 
" style="fill:none;stroke:#000000;stroke-linecap:square;stroke-linejoin:miter;stroke-width:0.8;"/>
   </g>
   <g id="patch_24">
    <path d="M 518.4 311.3208 
L 518.4 252.63504 
" style="fill:none;stroke:#000000;stroke-linecap:square;stroke-linejoin:miter;stroke-width:0.8;"/>
   </g>
   <g id="patch_25">
    <path d="M 72 311.3208 
L 518.4 311.3208 
" style="fill:none;stroke:#000000;stroke-linecap:square;stroke-linejoin:miter;stroke-width:0.8;"/>
   </g>
   <g id="patch_26">
    <path d="M 72 252.63504 
L 518.4 252.63504 
" style="fill:none;stroke:#000000;stroke-linecap:square;stroke-linejoin:miter;stroke-width:0.8;"/>
   </g>
  </g>
  <g id="legend_1">
   <g id="patch_27">
    <path d="M 190.564063 352.84 
L 385.435938 352.84 
Q 387.435938 352.84 387.435938 350.84 
L 387.435938 337.161875 
Q 387.435938 335.161875 385.435938 335.161875 
L 190.564063 335.161875 
Q 188.564063 335.161875 188.564063 337.161875 
L 188.564063 350.84 
Q 188.564063 352.84 190.564063 352.84 
z
" style="fill:#ffffff;opacity:0.8;stroke:#cccccc;stroke-linejoin:miter;"/>
   </g>
   <g id="line2d_76">
    <path d="M 192.564063 343.260312 
L 212.564063 343.260312 
" style="fill:none;stroke:#1f77b4;stroke-linecap:square;stroke-width:1.5;"/>
   </g>
   <g id="line2d_77"/>
   <g id="text_35">
    <!-- Prediction -->
    <defs>
     <path d="M 19.671875 64.796875 
L 19.671875 37.40625 
L 32.078125 37.40625 
Q 38.96875 37.40625 42.71875 40.96875 
Q 46.484375 44.53125 46.484375 51.125 
Q 46.484375 57.671875 42.71875 61.234375 
Q 38.96875 64.796875 32.078125 64.796875 
z
M 9.8125 72.90625 
L 32.078125 72.90625 
Q 44.34375 72.90625 50.609375 67.359375 
Q 56.890625 61.8125 56.890625 51.125 
Q 56.890625 40.328125 50.609375 34.8125 
Q 44.34375 29.296875 32.078125 29.296875 
L 19.671875 29.296875 
L 19.671875 0 
L 9.8125 0 
z
" id="DejaVuSans-50"/>
     <path d="M 41.109375 46.296875 
Q 39.59375 47.171875 37.8125 47.578125 
Q 36.03125 48 33.890625 48 
Q 26.265625 48 22.1875 43.046875 
Q 18.109375 38.09375 18.109375 28.8125 
L 18.109375 0 
L 9.078125 0 
L 9.078125 54.6875 
L 18.109375 54.6875 
L 18.109375 46.1875 
Q 20.953125 51.171875 25.484375 53.578125 
Q 30.03125 56 36.53125 56 
Q 37.453125 56 38.578125 55.875 
Q 39.703125 55.765625 41.0625 55.515625 
z
" id="DejaVuSans-72"/>
     <path d="M 56.203125 29.59375 
L 56.203125 25.203125 
L 14.890625 25.203125 
Q 15.484375 15.921875 20.484375 11.0625 
Q 25.484375 6.203125 34.421875 6.203125 
Q 39.59375 6.203125 44.453125 7.46875 
Q 49.3125 8.734375 54.109375 11.28125 
L 54.109375 2.78125 
Q 49.265625 0.734375 44.1875 -0.34375 
Q 39.109375 -1.421875 33.890625 -1.421875 
Q 20.796875 -1.421875 13.15625 6.1875 
Q 5.515625 13.8125 5.515625 26.8125 
Q 5.515625 40.234375 12.765625 48.109375 
Q 20.015625 56 32.328125 56 
Q 43.359375 56 49.78125 48.890625 
Q 56.203125 41.796875 56.203125 29.59375 
z
M 47.21875 32.234375 
Q 47.125 39.59375 43.09375 43.984375 
Q 39.0625 48.390625 32.421875 48.390625 
Q 24.90625 48.390625 20.390625 44.140625 
Q 15.875 39.890625 15.1875 32.171875 
z
" id="DejaVuSans-65"/>
     <path d="M 45.40625 46.390625 
L 45.40625 75.984375 
L 54.390625 75.984375 
L 54.390625 0 
L 45.40625 0 
L 45.40625 8.203125 
Q 42.578125 3.328125 38.25 0.953125 
Q 33.9375 -1.421875 27.875 -1.421875 
Q 17.96875 -1.421875 11.734375 6.484375 
Q 5.515625 14.40625 5.515625 27.296875 
Q 5.515625 40.1875 11.734375 48.09375 
Q 17.96875 56 27.875 56 
Q 33.9375 56 38.25 53.625 
Q 42.578125 51.265625 45.40625 46.390625 
z
M 14.796875 27.296875 
Q 14.796875 17.390625 18.875 11.75 
Q 22.953125 6.109375 30.078125 6.109375 
Q 37.203125 6.109375 41.296875 11.75 
Q 45.40625 17.390625 45.40625 27.296875 
Q 45.40625 37.203125 41.296875 42.84375 
Q 37.203125 48.484375 30.078125 48.484375 
Q 22.953125 48.484375 18.875 42.84375 
Q 14.796875 37.203125 14.796875 27.296875 
z
" id="DejaVuSans-64"/>
     <path d="M 9.421875 54.6875 
L 18.40625 54.6875 
L 18.40625 0 
L 9.421875 0 
z
M 9.421875 75.984375 
L 18.40625 75.984375 
L 18.40625 64.59375 
L 9.421875 64.59375 
z
" id="DejaVuSans-69"/>
     <path d="M 48.78125 52.59375 
L 48.78125 44.1875 
Q 44.96875 46.296875 41.140625 47.34375 
Q 37.3125 48.390625 33.40625 48.390625 
Q 24.65625 48.390625 19.8125 42.84375 
Q 14.984375 37.3125 14.984375 27.296875 
Q 14.984375 17.28125 19.8125 11.734375 
Q 24.65625 6.203125 33.40625 6.203125 
Q 37.3125 6.203125 41.140625 7.25 
Q 44.96875 8.296875 48.78125 10.40625 
L 48.78125 2.09375 
Q 45.015625 0.34375 40.984375 -0.53125 
Q 36.96875 -1.421875 32.421875 -1.421875 
Q 20.0625 -1.421875 12.78125 6.34375 
Q 5.515625 14.109375 5.515625 27.296875 
Q 5.515625 40.671875 12.859375 48.328125 
Q 20.21875 56 33.015625 56 
Q 37.15625 56 41.109375 55.140625 
Q 45.0625 54.296875 48.78125 52.59375 
z
" id="DejaVuSans-63"/>
     <path d="M 18.3125 70.21875 
L 18.3125 54.6875 
L 36.8125 54.6875 
L 36.8125 47.703125 
L 18.3125 47.703125 
L 18.3125 18.015625 
Q 18.3125 11.328125 20.140625 9.421875 
Q 21.96875 7.515625 27.59375 7.515625 
L 36.8125 7.515625 
L 36.8125 0 
L 27.59375 0 
Q 17.1875 0 13.234375 3.875 
Q 9.28125 7.765625 9.28125 18.015625 
L 9.28125 47.703125 
L 2.6875 47.703125 
L 2.6875 54.6875 
L 9.28125 54.6875 
L 9.28125 70.21875 
z
" id="DejaVuSans-74"/>
     <path d="M 30.609375 48.390625 
Q 23.390625 48.390625 19.1875 42.75 
Q 14.984375 37.109375 14.984375 27.296875 
Q 14.984375 17.484375 19.15625 11.84375 
Q 23.34375 6.203125 30.609375 6.203125 
Q 37.796875 6.203125 41.984375 11.859375 
Q 46.1875 17.53125 46.1875 27.296875 
Q 46.1875 37.015625 41.984375 42.703125 
Q 37.796875 48.390625 30.609375 48.390625 
z
M 30.609375 56 
Q 42.328125 56 49.015625 48.375 
Q 55.71875 40.765625 55.71875 27.296875 
Q 55.71875 13.875 49.015625 6.21875 
Q 42.328125 -1.421875 30.609375 -1.421875 
Q 18.84375 -1.421875 12.171875 6.21875 
Q 5.515625 13.875 5.515625 27.296875 
Q 5.515625 40.765625 12.171875 48.375 
Q 18.84375 56 30.609375 56 
z
" id="DejaVuSans-6f"/>
     <path d="M 54.890625 33.015625 
L 54.890625 0 
L 45.90625 0 
L 45.90625 32.71875 
Q 45.90625 40.484375 42.875 44.328125 
Q 39.84375 48.1875 33.796875 48.1875 
Q 26.515625 48.1875 22.3125 43.546875 
Q 18.109375 38.921875 18.109375 30.90625 
L 18.109375 0 
L 9.078125 0 
L 9.078125 54.6875 
L 18.109375 54.6875 
L 18.109375 46.1875 
Q 21.34375 51.125 25.703125 53.5625 
Q 30.078125 56 35.796875 56 
Q 45.21875 56 50.046875 50.171875 
Q 54.890625 44.34375 54.890625 33.015625 
z
" id="DejaVuSans-6e"/>
    </defs>
    <g transform="translate(220.564063 346.760312)scale(0.1 -0.1)">
     <use xlink:href="#DejaVuSans-50"/>
     <use x="60.287109" xlink:href="#DejaVuSans-72"/>
     <use x="101.369141" xlink:href="#DejaVuSans-65"/>
     <use x="162.892578" xlink:href="#DejaVuSans-64"/>
     <use x="226.369141" xlink:href="#DejaVuSans-69"/>
     <use x="254.152344" xlink:href="#DejaVuSans-63"/>
     <use x="309.132812" xlink:href="#DejaVuSans-74"/>
     <use x="348.341797" xlink:href="#DejaVuSans-69"/>
     <use x="376.125" xlink:href="#DejaVuSans-6f"/>
     <use x="437.306641" xlink:href="#DejaVuSans-6e"/>
    </g>
   </g>
   <g id="line2d_78">
    <path d="M 290.632812 343.260312 
L 310.632812 343.260312 
" style="fill:none;stroke:#ff7f0e;stroke-linecap:square;stroke-width:1.5;"/>
   </g>
   <g id="line2d_79"/>
   <g id="text_36">
    <!-- Ground truth -->
    <defs>
     <path d="M 59.515625 10.40625 
L 59.515625 29.984375 
L 43.40625 29.984375 
L 43.40625 38.09375 
L 69.28125 38.09375 
L 69.28125 6.78125 
Q 63.578125 2.734375 56.6875 0.65625 
Q 49.8125 -1.421875 42 -1.421875 
Q 24.90625 -1.421875 15.25 8.5625 
Q 5.609375 18.5625 5.609375 36.375 
Q 5.609375 54.25 15.25 64.234375 
Q 24.90625 74.21875 42 74.21875 
Q 49.125 74.21875 55.546875 72.453125 
Q 61.96875 70.703125 67.390625 67.28125 
L 67.390625 56.78125 
Q 61.921875 61.421875 55.765625 63.765625 
Q 49.609375 66.109375 42.828125 66.109375 
Q 29.4375 66.109375 22.71875 58.640625 
Q 16.015625 51.171875 16.015625 36.375 
Q 16.015625 21.625 22.71875 14.15625 
Q 29.4375 6.6875 42.828125 6.6875 
Q 48.046875 6.6875 52.140625 7.59375 
Q 56.25 8.5 59.515625 10.40625 
z
" id="DejaVuSans-47"/>
     <path d="M 8.5 21.578125 
L 8.5 54.6875 
L 17.484375 54.6875 
L 17.484375 21.921875 
Q 17.484375 14.15625 20.5 10.265625 
Q 23.53125 6.390625 29.59375 6.390625 
Q 36.859375 6.390625 41.078125 11.03125 
Q 45.3125 15.671875 45.3125 23.6875 
L 45.3125 54.6875 
L 54.296875 54.6875 
L 54.296875 0 
L 45.3125 0 
L 45.3125 8.40625 
Q 42.046875 3.421875 37.71875 1 
Q 33.40625 -1.421875 27.6875 -1.421875 
Q 18.265625 -1.421875 13.375 4.4375 
Q 8.5 10.296875 8.5 21.578125 
z
M 31.109375 56 
z
" id="DejaVuSans-75"/>
     <path id="DejaVuSans-20"/>
     <path d="M 54.890625 33.015625 
L 54.890625 0 
L 45.90625 0 
L 45.90625 32.71875 
Q 45.90625 40.484375 42.875 44.328125 
Q 39.84375 48.1875 33.796875 48.1875 
Q 26.515625 48.1875 22.3125 43.546875 
Q 18.109375 38.921875 18.109375 30.90625 
L 18.109375 0 
L 9.078125 0 
L 9.078125 75.984375 
L 18.109375 75.984375 
L 18.109375 46.1875 
Q 21.34375 51.125 25.703125 53.5625 
Q 30.078125 56 35.796875 56 
Q 45.21875 56 50.046875 50.171875 
Q 54.890625 44.34375 54.890625 33.015625 
z
" id="DejaVuSans-68"/>
    </defs>
    <g transform="translate(318.632812 346.760312)scale(0.1 -0.1)">
     <use xlink:href="#DejaVuSans-47"/>
     <use x="77.490234" xlink:href="#DejaVuSans-72"/>
     <use x="118.572266" xlink:href="#DejaVuSans-6f"/>
     <use x="179.753906" xlink:href="#DejaVuSans-75"/>
     <use x="243.132812" xlink:href="#DejaVuSans-6e"/>
     <use x="306.511719" xlink:href="#DejaVuSans-64"/>
     <use x="369.988281" xlink:href="#DejaVuSans-20"/>
     <use x="401.775391" xlink:href="#DejaVuSans-74"/>
     <use x="440.984375" xlink:href="#DejaVuSans-72"/>
     <use x="482.097656" xlink:href="#DejaVuSans-75"/>
     <use x="545.476562" xlink:href="#DejaVuSans-74"/>
     <use x="584.685547" xlink:href="#DejaVuSans-68"/>
    </g>
   </g>
  </g>
 </g>
 <defs>
  <clipPath id="p2b2ccc18e5">
   <rect height="58.68576" width="446.4" x="72" y="17.892"/>
  </clipPath>
  <clipPath id="pbf1f5f5361">
   <rect height="58.68576" width="446.4" x="72" y="76.57776"/>
  </clipPath>
  <clipPath id="p3c3097ffbb">
   <rect height="58.68576" width="446.4" x="72" y="135.26352"/>
  </clipPath>
  <clipPath id="pc9832a7923">
   <rect height="58.68576" width="446.4" x="72" y="193.94928"/>
  </clipPath>
  <clipPath id="pab89b4e5b1">
   <rect height="58.68576" width="446.4" x="72" y="252.63504"/>
  </clipPath>
 </defs>
</svg>
