<?xml version="1.0" encoding="UTF-8" standalone="no"?>
<svg
   xmlns:dc="http://purl.org/dc/elements/1.1/"
   xmlns:cc="http://creativecommons.org/ns#"
   xmlns:rdf="http://www.w3.org/1999/02/22-rdf-syntax-ns#"
   xmlns:svg="http://www.w3.org/2000/svg"
   xmlns="http://www.w3.org/2000/svg"
   viewBox="0 0 1728 576"
   height="576"
   width="1728"
   xml:space="preserve"
   id="svg2"
   version="1.1"><metadata
     id="metadata8"><rdf:RDF><cc:Work
         rdf:about=""><dc:format>image/svg+xml</dc:format><dc:type
           rdf:resource="http://purl.org/dc/dcmitype/StillImage" /></cc:Work></rdf:RDF></metadata><defs
     id="defs6"><clipPath
       id="clipPath14"
       clipPathUnits="userSpaceOnUse"><path
         id="path12"
         d="M 0,0 H 1728 V 2592 H 0 Z" /></clipPath><clipPath
       id="clipPath38"
       clipPathUnits="userSpaceOnUse"><path
         style="clip-rule:evenodd"
         id="path36"
         d="m 192.354,504.432 h 1713.824 v 1211.77 H 192.354 Z" /></clipPath><clipPath
       id="clipPath62"
       clipPathUnits="userSpaceOnUse"><path
         style="clip-rule:evenodd"
         id="path60"
         d="m 192.354,504.432 h 1713.824 v 1211.77 H 192.354 Z" /></clipPath><clipPath
       id="clipPath82"
       clipPathUnits="userSpaceOnUse"><path
         style="clip-rule:evenodd"
         id="path80"
         d="m 192.354,504.432 h 1713.824 v 1211.77 H 192.354 Z" /></clipPath><clipPath
       id="clipPath106"
       clipPathUnits="userSpaceOnUse"><path
         style="clip-rule:evenodd"
         id="path104"
         d="m 192.354,504.432 h 1713.824 v 1211.77 H 192.354 Z" /></clipPath><clipPath
       id="clipPath146"
       clipPathUnits="userSpaceOnUse"><path
         style="clip-rule:evenodd"
         id="path144"
         d="m 192.354,504.432 h 1713.824 v 1211.77 H 192.354 Z" /></clipPath><clipPath
       id="clipPath222"
       clipPathUnits="userSpaceOnUse"><path
         style="clip-rule:evenodd"
         id="path220"
         d="m 192.354,504.432 h 1713.824 v 1211.77 H 192.354 Z" /></clipPath><clipPath
       id="clipPath246"
       clipPathUnits="userSpaceOnUse"><path
         style="clip-rule:evenodd"
         id="path244"
         d="m 192.354,504.432 h 1713.824 v 1211.77 H 192.354 Z" /></clipPath><clipPath
       id="clipPath266"
       clipPathUnits="userSpaceOnUse"><path
         style="clip-rule:evenodd"
         id="path264"
         d="m 192.354,504.432 h 1713.824 v 1211.77 H 192.354 Z" /></clipPath><clipPath
       id="clipPath338"
       clipPathUnits="userSpaceOnUse"><path
         style="clip-rule:evenodd"
         id="path336"
         d="m 192.354,504.432 h 1713.824 v 1211.77 H 192.354 Z" /></clipPath><clipPath
       id="clipPath370"
       clipPathUnits="userSpaceOnUse"><path
         style="clip-rule:evenodd"
         id="path368"
         d="m 192.354,504.432 h 1713.824 v 1211.77 H 192.354 Z" /></clipPath><clipPath
       id="clipPath402"
       clipPathUnits="userSpaceOnUse"><path
         style="clip-rule:evenodd"
         id="path400"
         d="m 192.354,504.432 h 1713.824 v 1211.77 H 192.354 Z" /></clipPath><clipPath
       id="clipPath454"
       clipPathUnits="userSpaceOnUse"><path
         style="clip-rule:evenodd"
         id="path452"
         d="m 192.354,504.432 h 1713.824 v 1211.77 H 192.354 Z" /></clipPath><clipPath
       id="clipPath498"
       clipPathUnits="userSpaceOnUse"><path
         style="clip-rule:evenodd"
         id="path496"
         d="m 192.354,504.432 h 1713.824 v 1211.77 H 192.354 Z" /></clipPath></defs><g
     clip-path="url(#clipPath14)"
     transform="matrix(1.3333333,0,0,-1.3333333,-348,2196)"
     id="g10"><g
       transform="translate(423.2255,1569.0063)"
       id="g16"><path
         id="path18"
         style="fill:#ffffff;fill-opacity:1;fill-rule:evenodd;stroke:none"
         d="M 0,0 V -31.76 H -115.436 V 31.76 H 0 Z" /></g><g
       transform="translate(423.2255,1569.0063)"
       id="g20"><path
         id="path22"
         style="fill:none;stroke:#000000;stroke-width:4.66599989;stroke-linecap:butt;stroke-linejoin:round;stroke-miterlimit:10;stroke-dasharray:none;stroke-opacity:1"
         d="M 0,0 V -31.76 H -115.436 V 31.76 H 0 Z" /></g><g
       transform="translate(358.9829,1562.083)"
       id="g24"><path
         id="path26"
         style="fill:#000000;fill-opacity:1;fill-rule:nonzero;stroke:none"
         d="m 0,0 v 1.809 c -0.229,0 -0.522,0.029 -0.878,0.087 -0.356,0.058 -0.534,0.128 -0.534,0.209 L 2.299,6.158 6.118,1.809 H 4.742 V 0 h 8.743 v 1.809 h -2.769 l -6.01,6.959 4.525,4.906 c 0.218,0.22 1.376,0.33 3.476,0.33 v 1.809 H 5.304 v -1.809 c 0.217,0 0.503,-0.023 0.859,-0.069 0.356,-0.047 0.534,-0.122 0.534,-0.227 l -3.222,-3.514 -3.33,3.81 h 1.339 v 1.809 H -7.24 v -1.809 h 2.751 L 1.068,7.585 -3.928,2.14 C -4.157,1.919 -5.322,1.809 -7.421,1.809 V 0 Z" /></g><g
       transform="translate(376.1423,1557.5961)"
       id="g28"><path
         id="path30"
         style="fill:#000000;fill-opacity:1;fill-rule:nonzero;stroke:none"
         d="m 0,0 c 0.561,-0.429 1.219,-0.644 1.973,-0.644 0.67,0 1.304,0.18 1.903,0.539 0.599,0.36 1.114,0.824 1.545,1.391 0.432,0.568 0.781,1.179 1.05,1.832 L 6.496,3.216 6.42,3.417 6.219,3.509 H 5.805 C 5.696,3.509 5.599,3.428 5.516,3.265 5.189,2.467 4.714,1.751 4.09,1.116 3.466,0.48 2.777,0.163 2.023,0.163 c -0.293,0 -0.505,0.12 -0.635,0.36 -0.13,0.24 -0.194,0.511 -0.194,0.812 0,0.212 0.033,0.505 0.1,0.88 l 1.86,7.18 h 3.04 c 0.168,0.041 0.26,0.114 0.277,0.22 l 0.1,0.403 c 0,0.188 -0.1,0.314 -0.301,0.379 H 3.405 l 0.98,3.803 c 0.017,0.049 0.025,0.13 0.025,0.245 0,0.236 -0.088,0.43 -0.264,0.581 -0.176,0.15 -0.377,0.226 -0.603,0.226 -0.285,0 -0.54,-0.088 -0.766,-0.263 C 2.551,14.813 2.4,14.591 2.324,14.322 L 1.294,10.397 H -1.759 C -1.927,10.365 -2.031,10.295 -2.073,10.19 L -2.174,9.798 c 0,-0.212 0.113,-0.346 0.34,-0.403 H 1.043 L -0.754,2.386 C -0.813,2.181 -0.842,1.956 -0.842,1.711 -0.842,1 -0.561,0.429 0,0" /></g><g
       id="g32"><g
         clip-path="url(#clipPath38)"
         id="g34"><g
           transform="translate(423.2255,1459.4746)"
           id="g40"><path
             id="path42"
             style="fill:#ffffff;fill-opacity:1;fill-rule:evenodd;stroke:none"
             d="M 0,0 V -31.76 H -115.436 V 31.557 H 0 Z" /></g><g
           transform="translate(423.2255,1459.4746)"
           id="g44"><path
             id="path46"
             style="fill:none;stroke:#000000;stroke-width:4.66599989;stroke-linecap:butt;stroke-linejoin:round;stroke-miterlimit:10;stroke-dasharray:none;stroke-opacity:1"
             d="M 0,0 V -31.76 H -115.436 V 31.557 H 0 Z" /></g></g></g><g
       transform="translate(361.6488,1452.2079)"
       id="g48"><path
         id="path50"
         style="fill:#000000;fill-opacity:1;fill-rule:nonzero;stroke:none"
         d="M 0,0 H 0.596 C 1.09,0 1.433,0.216 1.625,0.647 l 6.376,13.28 c 0.144,0.198 0.99,0.297 2.538,0.297 v 1.82 H 4.114 v -1.82 c 0.372,0 0.762,-0.02 1.17,-0.061 0.408,-0.041 0.612,-0.12 0.612,-0.236 L 1.56,4.794 l -4.521,9.43 h 1.968 v 1.82 h -8.952 v -1.82 h 2.436 L -1.03,0.647 C -0.837,0.216 -0.494,0 0,0" /></g><g
       transform="translate(376.1423,1447.861)"
       id="g52"><path
         id="path54"
         style="fill:#000000;fill-opacity:1;fill-rule:nonzero;stroke:none"
         d="m 0,0 c 0.561,-0.429 1.219,-0.644 1.973,-0.644 0.67,0 1.304,0.18 1.903,0.539 0.599,0.36 1.114,0.824 1.545,1.391 0.432,0.568 0.781,1.179 1.05,1.832 L 6.496,3.216 6.42,3.417 6.219,3.509 H 5.805 C 5.696,3.509 5.599,3.428 5.516,3.265 5.189,2.467 4.714,1.751 4.09,1.116 3.466,0.48 2.777,0.163 2.023,0.163 c -0.293,0 -0.505,0.12 -0.635,0.36 -0.13,0.24 -0.194,0.511 -0.194,0.812 0,0.212 0.033,0.505 0.1,0.88 l 1.86,7.18 h 3.04 c 0.168,0.041 0.26,0.114 0.277,0.22 l 0.1,0.403 c 0,0.188 -0.1,0.314 -0.301,0.379 H 3.405 l 0.98,3.803 c 0.017,0.049 0.025,0.13 0.025,0.245 0,0.236 -0.088,0.43 -0.264,0.581 -0.176,0.15 -0.377,0.226 -0.603,0.226 -0.285,0 -0.54,-0.088 -0.766,-0.263 C 2.551,14.813 2.4,14.591 2.324,14.322 L 1.294,10.397 H -1.759 C -1.927,10.365 -2.031,10.295 -2.073,10.19 L -2.174,9.798 c 0,-0.212 0.113,-0.346 0.34,-0.403 H 1.043 L -0.754,2.386 C -0.813,2.181 -0.842,1.956 -0.842,1.711 -0.842,1 -0.561,0.429 0,0" /></g><g
       id="g56"><g
         clip-path="url(#clipPath62)"
         id="g58"><g
           transform="translate(423.2255,1280.5188)"
           id="g64"><path
             id="path66"
             style="fill:#ffffff;fill-opacity:1;fill-rule:evenodd;stroke:none"
             d="M 0,0 V -31.76 H -115.436 V 31.76 H 0 Z" /></g><g
           transform="translate(423.2255,1280.5188)"
           id="g68"><path
             id="path70"
             style="fill:none;stroke:#000000;stroke-width:4.66599989;stroke-linecap:butt;stroke-linejoin:round;stroke-miterlimit:10;stroke-dasharray:none;stroke-opacity:1"
             d="M 0,0 V -31.76 H -115.436 V 31.76 H 0 Z" /></g></g></g><g
       transform="translate(355.4121,1267.553)"
       id="g72"><path
         id="path74"
         style="fill:#000000;fill-opacity:1;fill-rule:nonzero;stroke:none"
         d="m 0,0 c 0.803,-0.645 1.711,-0.968 2.725,-0.968 1.34,0 2.562,0.429 3.667,1.285 1.104,0.856 1.946,1.906 2.526,3.149 l 7.967,16.646 c 0.18,0.199 1.046,0.299 2.599,0.299 v 1.83 H 13.04 v -1.83 c 0.373,0 0.764,-0.021 1.173,-0.062 0.409,-0.041 0.614,-0.12 0.614,-0.237 l -4.344,-9.08 -4.501,9.379 h 1.945 v 1.83 h -8.986 v -1.83 H 1.384 L 8.181,6.246 6.839,3.466 C 6.452,2.622 5.894,1.912 5.163,1.337 4.431,0.763 3.619,0.475 2.725,0.475 2.592,0.475 2.392,0.499 2.126,0.545 2.85,0.956 3.212,1.595 3.212,2.463 3.212,3.062 3.001,3.566 2.579,3.977 2.156,4.387 1.638,4.592 1.022,4.592 0.383,4.592 -0.148,4.387 -0.57,3.977 -0.993,3.566 -1.204,3.062 -1.204,2.463 -1.204,1.466 -0.803,0.645 0,0" /></g><g
       id="g76"><g
         clip-path="url(#clipPath82)"
         id="g78"><g
           transform="translate(596.2773,1344.0391)"
           id="g84"><path
             id="path86"
             style="fill:#ffff99;fill-opacity:1;fill-rule:evenodd;stroke:none"
             d="M 0,0 V -31.76 H -115.436 V 31.76 H 0 Z" /></g><g
           transform="translate(596.2773,1344.0391)"
           id="g88"><path
             id="path90"
             style="fill:none;stroke:#000000;stroke-width:4.66599989;stroke-linecap:butt;stroke-linejoin:round;stroke-miterlimit:10;stroke-dasharray:none;stroke-opacity:1"
             d="M 0,0 V -31.76 H -115.436 V 31.76 H 0 Z" /></g></g></g><g
       transform="translate(538.4114,1331.2117)"
       id="g92"><path
         id="path94"
         style="fill:#000000;fill-opacity:1;fill-rule:nonzero;stroke:none"
         d="m 0,0 c 1.167,0 2.298,0.125 3.393,0.376 1.095,0.251 2.094,0.645 2.996,1.181 0.902,0.537 1.621,1.231 2.157,2.082 0.535,0.851 0.803,1.872 0.803,3.062 0,1.236 -0.364,2.298 -1.092,3.184 -0.728,0.886 -1.655,1.572 -2.78,2.056 -1.125,0.484 -2.325,0.79 -3.6,0.919 1.059,0.186 2.066,0.507 3.023,0.962 0.956,0.455 1.742,1.067 2.355,1.837 0.614,0.77 0.921,1.668 0.921,2.694 0,1.47 -0.47,2.671 -1.408,3.605 -0.939,0.933 -2.121,1.603 -3.547,2.011 -1.425,0.409 -2.896,0.613 -4.412,0.613 h -15.846 v -1.82 h 4.007 V 1.82 h -4.007 V 0 Z m -8.049,12.072 h 7.453 c 0.734,0 1.387,-0.151 1.959,-0.455 0.571,-0.303 1.031,-0.711 1.38,-1.224 C 3.092,9.879 3.351,9.314 3.519,8.696 3.688,8.077 3.772,7.412 3.772,6.701 3.772,5.255 3.318,4.079 2.409,3.176 1.501,2.271 0.301,1.82 -1.191,1.82 h -6.858 z m 0,10.69 h 6.858 c 1.251,0 2.226,-0.423 2.924,-1.271 0.697,-0.847 1.046,-1.89 1.046,-3.128 0,-0.97 -0.219,-1.821 -0.658,-2.551 -0.44,-0.73 -1.05,-1.297 -1.832,-1.7 -0.783,-0.404 -1.667,-0.605 -2.653,-0.605 h -5.685 z" /></g><g
       transform="translate(552.8585,1326.3177)"
       id="g96"><path
         id="path98"
         style="fill:#000000;fill-opacity:1;fill-rule:nonzero;stroke:none"
         d="m 0,0 c 0.561,-0.429 1.219,-0.644 1.973,-0.644 0.67,0 1.304,0.18 1.903,0.539 0.599,0.36 1.114,0.824 1.546,1.391 0.431,0.568 0.78,1.179 1.049,1.832 L 6.496,3.216 6.42,3.417 6.219,3.509 H 5.805 C 5.696,3.509 5.599,3.428 5.516,3.265 5.189,2.467 4.714,1.751 4.09,1.116 3.466,0.48 2.777,0.163 2.023,0.163 c -0.293,0 -0.505,0.12 -0.635,0.36 -0.13,0.24 -0.194,0.511 -0.194,0.812 0,0.212 0.033,0.505 0.1,0.88 l 1.86,7.18 h 3.04 c 0.168,0.041 0.26,0.114 0.277,0.22 l 0.1,0.403 c 0,0.188 -0.1,0.314 -0.301,0.379 H 3.405 l 0.98,3.803 c 0.017,0.049 0.025,0.13 0.025,0.245 0,0.236 -0.088,0.43 -0.264,0.581 -0.176,0.15 -0.377,0.226 -0.603,0.226 -0.285,0 -0.54,-0.088 -0.766,-0.263 C 2.551,14.813 2.4,14.591 2.324,14.322 L 1.294,10.397 H -1.759 C -1.927,10.365 -2.031,10.295 -2.073,10.19 L -2.174,9.798 c 0,-0.212 0.114,-0.346 0.34,-0.403 H 1.043 L -0.754,2.386 C -0.812,2.181 -0.842,1.956 -0.842,1.711 -0.842,1 -0.561,0.429 0,0" /></g><g
       id="g100"><g
         clip-path="url(#clipPath106)"
         id="g102"><g
           transform="translate(711.7131,1459.4746)"
           id="g108"><path
             id="path110"
             style="fill:#cfe7f5;fill-opacity:1;fill-rule:evenodd;stroke:none"
             d="M 0,0 V -31.76 H -173.052 V 31.557 H 0 Z" /></g><g
           transform="translate(711.7131,1459.4746)"
           id="g112"><path
             id="path114"
             style="fill:none;stroke:#000000;stroke-width:4.66599989;stroke-linecap:butt;stroke-linejoin:round;stroke-miterlimit:10;stroke-dasharray:none;stroke-opacity:1"
             d="M 0,0 V -31.76 H -173.052 V 31.557 H 0 Z" /></g></g></g><g
       transform="translate(581.6138,1451.3232)"
       id="g116"><path
         id="path118"
         style="fill:#000000;fill-opacity:1;fill-rule:nonzero;stroke:none"
         d="M 0,0 C 1.358,0.537 2.619,1.289 3.782,2.256 4,1.348 4.404,0.611 4.996,0.044 c 0.592,-0.566 1.335,-0.849 2.229,-0.849 0.688,0 1.386,0.28 2.092,0.841 0.707,0.56 1.06,1.141 1.06,1.743 0,0.236 -0.097,0.354 -0.29,0.354 H 9.633 C 9.572,2.121 9.43,1.922 9.206,1.535 8.982,1.148 8.721,0.822 8.425,0.558 8.128,0.295 7.75,0.163 7.29,0.163 c -0.715,0 -1.072,1.488 -1.072,4.463 0.69,0.773 1.329,1.634 1.916,2.583 0.587,0.95 1.099,1.931 1.535,2.944 0.436,1.014 0.799,2.071 1.09,3.173 l 0.036,0.105 c 0,0.222 -0.115,0.333 -0.345,0.333 h -0.436 c -0.145,0 -0.242,-0.071 -0.29,-0.211 C 9.409,12.241 8.958,10.973 8.37,9.749 7.783,8.525 7.065,7.344 6.218,6.208 L 6.182,8.616 c 0,1.207 -0.249,2.34 -0.745,3.401 -0.497,1.06 -1.223,1.91 -2.18,2.549 -0.956,0.638 -2.064,0.957 -3.323,0.957 -1.708,0 -3.34,-0.498 -4.895,-1.495 -1.557,-0.997 -2.804,-2.294 -3.742,-3.889 -0.939,-1.595 -1.408,-3.208 -1.408,-4.839 0,-1.161 0.249,-2.199 0.746,-3.114 0.497,-0.915 1.203,-1.642 2.118,-2.182 0.916,-0.539 1.961,-0.809 3.137,-0.809 1.382,0 2.752,0.268 4.11,0.805 m -6.413,1.252 c -0.552,0.726 -0.828,1.611 -0.828,2.654 0,1.382 0.276,2.908 0.828,4.578 0.552,1.669 1.374,3.105 2.465,4.305 1.091,1.201 2.365,1.802 3.821,1.802 2.426,0 3.639,-2.174 3.639,-6.52 V 4.187 C 3.512,4.163 3.524,4.049 3.548,3.844 3.572,3.639 3.59,3.466 3.602,3.326 1.164,1.217 -1.383,0.163 -4.039,0.163 c -1.031,0 -1.823,0.363 -2.374,1.089" /></g><g
       transform="translate(596.6688,1446.2356)"
       id="g120"><path
         id="path122"
         style="fill:#000000;fill-opacity:1;fill-rule:nonzero;stroke:none"
         d="m 0,0 c 0.568,-0.433 1.233,-0.649 1.996,-0.649 0.678,0 1.32,0.181 1.926,0.543 0.606,0.363 1.128,0.83 1.564,1.403 0.437,0.572 0.791,1.188 1.062,1.847 L 6.574,3.242 6.497,3.445 6.294,3.538 H 5.874 C 5.764,3.538 5.666,3.455 5.582,3.291 5.251,2.487 4.77,1.765 4.139,1.125 3.507,0.484 2.81,0.164 2.047,0.164 1.75,0.164 1.536,0.285 1.405,0.527 1.273,0.77 1.208,1.042 1.208,1.346 c 0,0.214 0.034,0.509 0.102,0.887 l 1.881,7.238 h 3.077 c 0.17,0.041 0.263,0.115 0.28,0.222 L 6.65,10.1 c 0,0.189 -0.102,0.316 -0.305,0.382 H 3.446 l 0.991,3.834 c 0.017,0.049 0.026,0.131 0.026,0.246 0,0.238 -0.089,0.433 -0.267,0.586 C 4.018,15.3 3.814,15.376 3.586,15.376 3.297,15.376 3.039,15.287 2.81,15.111 2.581,14.934 2.429,14.71 2.352,14.439 L 1.31,10.482 h -3.09 c -0.17,-0.033 -0.276,-0.103 -0.318,-0.21 L -2.2,9.878 c 0,-0.214 0.115,-0.349 0.344,-0.407 H 1.055 L -0.763,2.405 C -0.822,2.199 -0.852,1.972 -0.852,1.725 -0.852,1.008 -0.568,0.433 0,0" /></g><g
       transform="translate(625.2971,1450.9227)"
       id="g124"><path
         id="path126"
         style="fill:#000000;fill-opacity:1;fill-rule:nonzero;stroke:none"
         d="m 0,0 c 1.177,0 2.317,0.126 3.422,0.378 1.104,0.252 2.111,0.648 3.021,1.188 0.91,0.539 1.635,1.237 2.175,2.094 0.54,0.856 0.81,1.883 0.81,3.079 0,1.243 -0.367,2.311 -1.101,3.202 -0.735,0.892 -1.669,1.581 -2.803,2.068 -1.135,0.486 -2.345,0.794 -3.631,0.924 1.067,0.187 2.084,0.51 3.048,0.967 0.965,0.458 1.757,1.074 2.376,1.848 0.618,0.774 0.928,1.677 0.928,2.71 0,1.478 -0.473,2.686 -1.42,3.624 -0.946,0.939 -2.138,1.613 -3.576,2.024 -1.438,0.41 -2.921,0.616 -4.45,0.616 h -15.98 v -1.83 h 4.04 V 1.83 h -4.04 V 0 Z m -8.117,12.141 h 7.516 c 0.74,0 1.399,-0.153 1.975,-0.458 C 1.95,11.378 2.414,10.968 2.766,10.452 3.118,9.935 3.379,9.367 3.549,8.745 3.719,8.123 3.804,7.454 3.804,6.739 3.804,5.284 3.346,4.103 2.43,3.194 1.513,2.284 0.303,1.83 -1.201,1.83 h -6.916 z m 0,10.751 h 6.916 c 1.262,0 2.244,-0.427 2.948,-1.278 0.704,-0.853 1.056,-1.902 1.056,-3.147 0,-0.976 -0.222,-1.831 -0.664,-2.565 -0.444,-0.735 -1.059,-1.305 -1.848,-1.71 -0.789,-0.406 -1.68,-0.608 -2.675,-0.608 h -5.733 z" /></g><g
       transform="translate(640.2371,1446.2356)"
       id="g128"><path
         id="path130"
         style="fill:#000000;fill-opacity:1;fill-rule:nonzero;stroke:none"
         d="m 0,0 c 0.568,-0.433 1.233,-0.649 1.996,-0.649 0.678,0 1.32,0.181 1.926,0.543 0.606,0.363 1.128,0.83 1.564,1.403 0.437,0.572 0.791,1.188 1.062,1.847 L 6.574,3.242 6.497,3.445 6.294,3.538 H 5.874 C 5.764,3.538 5.666,3.455 5.582,3.291 5.251,2.487 4.77,1.765 4.139,1.125 3.507,0.484 2.81,0.164 2.047,0.164 1.75,0.164 1.536,0.285 1.405,0.527 1.273,0.77 1.208,1.042 1.208,1.346 c 0,0.214 0.034,0.509 0.102,0.887 l 1.881,7.238 h 3.077 c 0.17,0.041 0.263,0.115 0.28,0.222 L 6.65,10.1 c 0,0.189 -0.102,0.316 -0.305,0.382 H 3.446 l 0.991,3.834 c 0.017,0.049 0.026,0.131 0.026,0.246 0,0.238 -0.089,0.433 -0.267,0.586 C 4.018,15.3 3.814,15.376 3.586,15.376 3.297,15.376 3.039,15.287 2.81,15.111 2.581,14.934 2.429,14.71 2.352,14.439 L 1.31,10.482 h -3.09 c -0.17,-0.033 -0.276,-0.103 -0.318,-0.21 L -2.2,9.878 c 0,-0.214 0.115,-0.349 0.344,-0.407 H 1.055 L -0.763,2.405 C -0.822,2.199 -0.852,1.972 -0.852,1.725 -0.852,1.008 -0.568,0.433 0,0" /></g><g
       transform="translate(661.0185,1450.782)"
       id="g132"><path
         id="path134"
         style="fill:#000000;fill-opacity:1;fill-rule:nonzero;stroke:none"
         d="m 0,0 h 0.601 c 0.498,0 0.844,0.217 1.038,0.651 l 6.43,13.355 c 0.145,0.199 0.998,0.299 2.559,0.299 v 1.83 H 4.149 v -1.83 c 0.375,0 0.768,-0.021 1.179,-0.061 0.412,-0.042 0.618,-0.121 0.618,-0.238 L 1.573,4.821 -2.986,14.305 h 1.984 v 1.83 h -9.027 v -1.83 h 2.457 L -1.038,0.651 C -0.844,0.217 -0.498,0 0,0" /></g><g
       transform="translate(675.4582,1446.2356)"
       id="g136"><path
         id="path138"
         style="fill:#000000;fill-opacity:1;fill-rule:nonzero;stroke:none"
         d="m 0,0 c 0.568,-0.433 1.233,-0.649 1.996,-0.649 0.678,0 1.32,0.181 1.926,0.543 0.606,0.363 1.128,0.83 1.564,1.403 0.437,0.572 0.791,1.188 1.062,1.847 L 6.574,3.242 6.497,3.445 6.294,3.538 H 5.874 C 5.764,3.538 5.666,3.455 5.582,3.291 5.251,2.487 4.77,1.765 4.139,1.125 3.507,0.484 2.81,0.164 2.047,0.164 1.75,0.164 1.536,0.285 1.405,0.527 1.273,0.77 1.208,1.042 1.208,1.346 c 0,0.214 0.034,0.509 0.102,0.887 l 1.881,7.238 h 3.077 c 0.17,0.041 0.263,0.115 0.28,0.222 L 6.65,10.1 c 0,0.189 -0.102,0.316 -0.305,0.382 H 3.446 l 0.991,3.834 c 0.017,0.049 0.026,0.131 0.026,0.246 0,0.238 -0.089,0.433 -0.267,0.586 C 4.018,15.3 3.814,15.376 3.586,15.376 3.297,15.376 3.039,15.287 2.81,15.111 2.581,14.934 2.429,14.71 2.352,14.439 L 1.31,10.482 h -3.09 c -0.17,-0.033 -0.276,-0.103 -0.318,-0.21 L -2.2,9.878 c 0,-0.214 0.115,-0.349 0.344,-0.407 H 1.055 L -0.763,2.405 C -0.822,2.199 -0.852,1.972 -0.852,1.725 -0.852,1.008 -0.568,0.433 0,0" /></g><g
       id="g140"><g
         clip-path="url(#clipPath146)"
         id="g142"><g
           transform="translate(786.6343,1600.7664)"
           id="g148"><path
             id="path150"
             style="fill:#ccff99;fill-opacity:1;fill-rule:evenodd;stroke:none"
             d="M 0,0 C -8.551,0 -17.102,-8.551 -17.102,-17.102 V -155.95 c 0,-8.551 8.551,-17.305 17.102,-17.305 h 196.465 c 8.551,0 17.305,8.754 17.305,17.305 V -17.102 C 213.77,-8.551 205.016,0 196.465,0 Z" /></g><g
           transform="translate(786.6343,1600.7664)"
           id="g152"><path
             id="path154"
             style="fill:none;stroke:#000000;stroke-width:4.66599989;stroke-linecap:butt;stroke-linejoin:round;stroke-miterlimit:10;stroke-dasharray:none;stroke-opacity:1"
             d="M 0,0 C -8.551,0 -17.102,-8.551 -17.102,-17.102 V -155.95 c 0,-8.551 8.551,-17.305 17.102,-17.305 h 196.465 c 8.551,0 17.305,8.754 17.305,17.305 V -17.102 C 213.77,-8.551 205.016,0 196.465,0 Z" /></g></g></g><g
       transform="translate(820.2228,1569.7876)"
       id="g156"><path
         id="path158"
         style="fill:#000000;fill-opacity:1;fill-rule:nonzero;stroke:none"
         d="m 0,0 v -0.795 l 0.127,-0.112 c 1.124,-0.042 1.829,-0.1 2.116,-0.175 0.286,-0.074 0.479,-0.169 0.58,-0.286 0.101,-0.117 0.175,-0.35 0.223,-0.7 0.048,-0.35 0.077,-1.129 0.087,-2.338 l 0.032,-3.101 v -7.365 L 3.149,-18.228 C 3.139,-19.362 3.099,-20.094 3.03,-20.423 2.961,-20.751 2.871,-20.966 2.76,-21.067 2.648,-21.168 2.428,-21.25 2.1,-21.313 1.771,-21.377 1.113,-21.43 0.127,-21.472 L 0,-21.568 v -0.795 l 0.127,-0.127 c 2.672,0.085 4.189,0.127 4.549,0.127 0.339,0 1.861,-0.042 4.565,-0.127 l 0.127,0.127 v 0.795 l -0.127,0.096 c -1.124,0.042 -1.829,0.103 -2.115,0.183 -0.287,0.079 -0.48,0.177 -0.581,0.294 -0.101,0.116 -0.178,0.35 -0.23,0.7 -0.054,0.35 -0.086,1.123 -0.096,2.322 l -0.016,3.101 v 7.365 c 0,3.128 0.048,5.1 0.143,5.917 1.156,0.36 2.216,0.54 3.181,0.54 1.771,0 3.094,-0.429 3.969,-1.288 0.875,-0.859 1.312,-2.01 1.312,-3.452 0,-1.431 -0.421,-2.606 -1.264,-3.523 -0.843,-0.917 -1.96,-1.375 -3.349,-1.375 -0.498,0 -1.145,0.089 -1.94,0.27 l -0.143,-0.159 0.27,-0.97 c 0.806,-0.149 1.538,-0.223 2.195,-0.223 0.88,0 1.728,0.135 2.545,0.406 0.816,0.27 1.622,0.718 2.418,1.344 0.795,0.625 1.415,1.383 1.861,2.274 0.445,0.891 0.668,1.813 0.668,2.768 0,1.155 -0.318,2.141 -0.955,2.958 -0.636,0.817 -1.439,1.378 -2.409,1.686 -0.971,0.308 -2.198,0.461 -3.682,0.461 -0.308,0 -1.119,-0.021 -2.434,-0.063 -1.241,-0.054 -2.36,-0.08 -3.356,-0.08 -0.732,0 -2.434,0.042 -5.106,0.127 z m 19.72,-8.398 -0.128,-0.127 v -0.684 l 0.144,-0.127 1.336,-0.016 c 0.413,0 0.689,-0.04 0.827,-0.12 0.137,-0.079 0.22,-0.204 0.246,-0.373 0.027,-0.17 0.061,-0.621 0.104,-1.352 0.042,-0.732 0.063,-1.31 0.063,-1.734 v -3.133 c 0,-0.594 -0.024,-1.472 -0.071,-2.633 -0.048,-1.161 -0.09,-1.845 -0.128,-2.052 -0.037,-0.206 -0.106,-0.36 -0.206,-0.461 -0.101,-0.101 -0.218,-0.167 -0.35,-0.199 -0.133,-0.032 -0.713,-0.079 -1.742,-0.143 l -0.143,-0.127 v -0.668 l 0.143,-0.143 c 1.326,0.085 2.598,0.127 3.817,0.127 1.538,0 3.012,-0.042 4.422,-0.127 l 0.143,0.143 v 0.668 l -0.143,0.127 c -1.347,0.074 -2.102,0.127 -2.266,0.159 -0.165,0.032 -0.297,0.093 -0.398,0.183 -0.101,0.09 -0.175,0.231 -0.223,0.422 -0.047,0.19 -0.093,0.906 -0.135,2.147 -0.042,1.24 -0.063,2.02 -0.063,2.338 v 1.765 c 0,0.965 0.082,1.763 0.246,2.394 0.164,0.631 0.49,1.156 0.978,1.575 0.488,0.419 1.06,0.628 1.718,0.628 0.944,0 1.628,-0.488 2.052,-1.463 h 0.716 c 0.021,1.071 0.116,2.311 0.286,3.722 l -0.111,0.222 c -0.414,0.191 -0.854,0.287 -1.321,0.287 -0.424,0 -0.837,-0.075 -1.24,-0.223 -0.403,-0.149 -0.756,-0.358 -1.058,-0.628 -0.302,-0.271 -0.65,-0.655 -1.042,-1.153 L 25,-10.688 c 0.032,1.569 0.08,2.661 0.143,3.276 l -0.302,0.207 C 23.452,-7.757 21.745,-8.154 19.72,-8.398 m 13.765,-10.45 c 0.556,-1.156 1.418,-2.134 2.584,-2.934 1.167,-0.801 2.492,-1.201 3.977,-1.201 2.269,0 4.207,0.784 5.813,2.354 1.607,1.569 2.41,3.568 2.41,5.996 0,2.205 -0.7,4.011 -2.1,5.416 -1.399,1.405 -3.213,2.107 -5.439,2.107 -1.771,0 -3.301,-0.427 -4.589,-1.28 -1.288,-0.854 -2.193,-1.866 -2.712,-3.038 -0.52,-1.172 -0.779,-2.389 -0.779,-3.65 0,-1.358 0.278,-2.614 0.835,-3.77 m 3.332,9.177 c 0.774,0.997 1.85,1.496 3.229,1.496 1.664,0 2.939,-0.722 3.825,-2.164 0.885,-1.442 1.328,-3.292 1.328,-5.551 0,-1.993 -0.408,-3.485 -1.225,-4.477 -0.816,-0.992 -1.85,-1.487 -3.101,-1.487 -1.061,0 -2.004,0.355 -2.831,1.066 -0.828,0.71 -1.432,1.651 -1.814,2.823 -0.381,1.171 -0.572,2.499 -0.572,3.984 0,1.877 0.387,3.314 1.161,4.31 m 14.702,-12.692 c 0.138,0 0.567,-0.037 1.288,-0.111 1.835,2.841 3.298,4.883 4.39,6.123 L 58.82,-18.8 c 0.88,-1.358 1.755,-2.582 2.624,-3.674 1.23,0.074 1.909,0.111 2.036,0.111 0.424,0 1.028,-0.037 1.813,-0.111 l 0.127,0.127 v 0.652 l -0.127,0.127 c -0.403,0 -0.692,0.04 -0.867,0.12 -0.175,0.079 -0.466,0.355 -0.874,0.827 -0.409,0.471 -1.119,1.41 -2.132,2.815 -1.013,1.405 -1.651,2.298 -1.916,2.68 l -0.589,0.907 0.986,1.272 c 0.18,0.233 0.366,0.461 0.557,0.684 l 0.954,1.145 c 0.711,0.859 1.278,1.495 1.702,1.909 0.424,0.413 0.716,0.657 0.875,0.731 0.159,0.075 0.414,0.128 0.763,0.16 l 0.128,0.127 v 0.636 l -0.128,0.127 c -0.466,-0.074 -0.837,-0.111 -1.113,-0.111 -0.297,0 -0.695,0.037 -1.193,0.111 -1.4,-2.015 -2.487,-3.526 -3.261,-4.533 l -1.002,-1.272 -1.177,1.861 c -1.431,2.226 -2.513,3.642 -3.244,4.246 -1.305,-0.275 -2.497,-0.477 -3.579,-0.604 l -0.127,-0.159 0.127,-0.636 0.159,-0.112 c 0.159,0.011 0.286,0.016 0.382,0.016 0.212,0 0.421,-0.053 0.628,-0.159 0.207,-0.106 0.522,-0.379 0.946,-0.819 0.424,-0.44 0.952,-1.095 1.583,-1.964 0.631,-0.87 1.047,-1.453 1.249,-1.75 l 1.352,-2.02 -2.561,-3.165 c -0.902,-1.103 -1.53,-1.832 -1.885,-2.187 -0.355,-0.355 -0.658,-0.589 -0.907,-0.7 -0.249,-0.111 -0.57,-0.172 -0.962,-0.183 l -0.143,-0.127 v -0.636 l 0.127,-0.143 c 0.7,0.074 1.156,0.111 1.368,0.111 M 69.641,-0.62 c -0.355,-0.35 -0.532,-0.774 -0.532,-1.273 0,-0.498 0.177,-0.92 0.532,-1.264 0.356,-0.345 0.777,-0.517 1.265,-0.517 0.498,0 0.922,0.175 1.272,0.525 0.35,0.35 0.525,0.769 0.525,1.256 0,0.499 -0.175,0.923 -0.525,1.273 -0.35,0.35 -0.774,0.525 -1.272,0.525 -0.488,0 -0.909,-0.175 -1.265,-0.525 m -2.505,-7.778 -0.127,-0.127 v -0.684 l 0.143,-0.127 1.336,-0.016 c 0.414,0 0.689,-0.04 0.827,-0.12 0.138,-0.079 0.22,-0.204 0.247,-0.373 0.026,-0.17 0.061,-0.621 0.103,-1.352 0.042,-0.732 0.064,-1.31 0.064,-1.734 v -3.133 c 0,-0.594 -0.024,-1.472 -0.072,-2.633 -0.047,-1.161 -0.09,-1.845 -0.127,-2.052 -0.037,-0.206 -0.106,-0.36 -0.207,-0.461 -0.101,-0.101 -0.217,-0.167 -0.35,-0.199 -0.132,-0.032 -0.713,-0.079 -1.741,-0.143 l -0.143,-0.127 v -0.668 l 0.143,-0.143 c 1.325,0.085 2.597,0.127 3.817,0.127 1.23,0 2.508,-0.042 3.833,-0.127 l 0.127,0.143 v 0.668 l -0.143,0.127 c -1.007,0.064 -1.58,0.109 -1.718,0.135 -0.137,0.027 -0.254,0.088 -0.349,0.183 -0.096,0.096 -0.167,0.249 -0.215,0.462 -0.048,0.211 -0.093,0.951 -0.135,2.218 -0.043,1.267 -0.064,2.018 -0.064,2.251 v 3.595 c 0,2.141 0.058,3.907 0.175,5.296 l -0.302,0.207 c -1.389,-0.552 -3.097,-0.949 -5.122,-1.193 m 9.27,0 -0.128,-0.127 v -0.684 l 0.144,-0.127 1.336,-0.016 c 0.413,0 0.689,-0.04 0.827,-0.12 0.137,-0.079 0.22,-0.204 0.246,-0.373 0.027,-0.17 0.061,-0.621 0.104,-1.352 0.042,-0.732 0.063,-1.31 0.063,-1.734 v -3.133 c 0,-0.594 -0.024,-1.472 -0.071,-2.633 -0.048,-1.161 -0.091,-1.845 -0.128,-2.052 -0.037,-0.206 -0.106,-0.36 -0.206,-0.461 -0.101,-0.101 -0.218,-0.167 -0.35,-0.199 -0.133,-0.032 -0.714,-0.079 -1.742,-0.143 l -0.143,-0.127 v -0.668 l 0.143,-0.143 c 1.325,0.085 2.598,0.127 3.817,0.127 1.23,0 2.508,-0.042 3.834,-0.127 l 0.127,0.143 v 0.668 l -0.143,0.127 c -1.008,0.064 -1.578,0.109 -1.71,0.135 -0.133,0.027 -0.249,0.085 -0.35,0.175 -0.101,0.09 -0.175,0.241 -0.223,0.454 -0.048,0.212 -0.093,0.959 -0.135,2.242 -0.042,1.283 -0.064,2.158 -0.064,2.625 v 2.354 c 0,1.06 0.04,1.749 0.12,2.067 0.079,0.318 0.286,0.661 0.62,1.026 0.334,0.366 0.763,0.674 1.288,0.923 0.525,0.249 1.106,0.374 1.742,0.374 0.816,0 1.495,-0.223 2.036,-0.668 0.541,-0.446 0.893,-0.992 1.058,-1.639 0.164,-0.647 0.246,-1.569 0.246,-2.767 v -1.813 c 0,-0.594 -0.024,-1.472 -0.071,-2.633 -0.048,-1.161 -0.091,-1.845 -0.128,-2.052 -0.037,-0.206 -0.106,-0.36 -0.206,-0.461 -0.101,-0.101 -0.218,-0.167 -0.35,-0.199 -0.133,-0.032 -0.714,-0.079 -1.742,-0.143 l -0.143,-0.127 v -0.668 l 0.143,-0.143 c 1.41,0.085 2.683,0.127 3.817,0.127 1.23,0 2.508,-0.042 3.834,-0.127 l 0.127,0.143 v 0.668 l -0.143,0.127 c -1.008,0.064 -1.578,0.109 -1.71,0.135 -0.133,0.027 -0.249,0.085 -0.35,0.175 -0.101,0.09 -0.175,0.241 -0.223,0.454 -0.048,0.212 -0.093,0.959 -0.135,2.242 -0.043,1.283 -0.064,2.158 -0.064,2.625 v 1.988 c 0,1.039 0.021,1.752 0.064,2.139 0.042,0.387 0.262,0.806 0.66,1.257 0.398,0.45 0.846,0.789 1.344,1.018 0.498,0.227 1.034,0.342 1.607,0.342 0.805,0 1.5,-0.215 2.083,-0.645 0.583,-0.429 0.954,-0.98 1.114,-1.654 0.159,-0.673 0.238,-1.853 0.238,-3.539 v -1.908 c 0,-2.217 -0.069,-4.014 -0.207,-5.392 l 0.207,-0.175 c 1.273,0.085 2.041,0.127 2.306,0.127 0.478,0 1.389,-0.042 2.736,-0.127 l 0.127,0.127 v 0.684 l -0.127,0.127 c -1.103,0 -1.755,0.096 -1.956,0.286 -0.202,0.191 -0.313,0.79 -0.334,1.798 -0.064,2.46 -0.096,3.78 -0.096,3.96 v 1.67 c 0,1.188 -0.034,2.121 -0.103,2.8 -0.069,0.678 -0.31,1.309 -0.724,1.892 -0.413,0.583 -0.97,1.055 -1.67,1.416 -0.7,0.36 -1.469,0.541 -2.306,0.541 -0.52,0 -1.039,-0.077 -1.559,-0.231 -0.52,-0.154 -0.899,-0.305 -1.137,-0.453 -0.239,-0.149 -1.074,-0.902 -2.505,-2.259 -0.382,0.923 -0.97,1.647 -1.766,2.171 -0.795,0.525 -1.723,0.788 -2.783,0.788 -0.562,0 -1.098,-0.075 -1.607,-0.223 -0.509,-0.149 -0.832,-0.278 -0.97,-0.39 -0.138,-0.111 -0.419,-0.363 -0.843,-0.755 l -1.511,-1.384 c 0.021,0.976 0.064,1.813 0.127,2.513 l -0.302,0.207 c -1.389,-0.552 -3.096,-0.949 -5.121,-1.193 m 31.449,-3.102 c 0.499,1.188 0.785,1.838 0.859,1.949 0.074,0.111 0.363,0.257 0.867,0.437 0.503,0.18 1.063,0.271 1.678,0.271 1.177,0 2.115,-0.321 2.815,-0.963 0.7,-0.641 1.05,-1.747 1.05,-3.316 -4.348,-0.615 -7.009,-1.36 -7.984,-2.235 -0.976,-0.874 -1.464,-2.091 -1.464,-3.65 0,-0.785 0.162,-1.453 0.485,-2.004 0.324,-0.551 0.79,-0.981 1.4,-1.288 0.61,-0.308 1.339,-0.462 2.187,-0.462 0.689,0 1.325,0.122 1.909,0.366 l 3.467,2.704 -0.064,-2.561 0.239,-0.222 c 0.891,0.063 1.654,0.095 2.29,0.095 0.668,0 1.389,-0.032 2.164,-0.095 l 0.127,0.127 v 0.636 l -0.127,0.143 -0.907,0.08 c -0.318,0.032 -0.536,0.071 -0.652,0.119 -0.117,0.048 -0.22,0.14 -0.31,0.278 -0.091,0.138 -0.136,0.53 -0.136,1.177 v 4.74 l 0.08,3.197 c 0,0.912 -0.18,1.71 -0.541,2.394 -0.36,0.684 -0.944,1.254 -1.749,1.71 -0.806,0.456 -1.819,0.684 -3.038,0.684 -1.782,0 -3.616,-0.7 -5.504,-2.1 v -1.972 l 0.128,-0.159 0.62,-0.159 z m 7.269,-6.887 c -1.379,-1.633 -2.773,-2.449 -4.183,-2.449 -1.644,0 -2.465,0.827 -2.465,2.481 0,1.198 0.365,2.084 1.097,2.656 0.732,0.573 2.582,1.108 5.551,1.607 z m 6.362,18.403 -0.127,-0.143 v -0.668 l 0.143,-0.143 c 1.124,0 1.766,-0.022 1.925,-0.064 0.159,-0.042 0.27,-0.106 0.334,-0.191 0.063,-0.085 0.114,-0.355 0.151,-0.811 0.037,-0.456 0.071,-1.272 0.103,-2.449 l 0.064,-3.372 v -8.239 c 0,-0.594 -0.024,-1.472 -0.072,-2.633 -0.047,-1.161 -0.09,-1.845 -0.127,-2.052 -0.037,-0.206 -0.106,-0.36 -0.207,-0.461 -0.101,-0.101 -0.217,-0.167 -0.35,-0.199 -0.132,-0.032 -0.713,-0.079 -1.741,-0.143 l -0.143,-0.127 v -0.668 l 0.143,-0.143 c 1.325,0.085 2.598,0.127 3.817,0.127 1.23,0 2.508,-0.042 3.833,-0.127 l 0.127,0.143 v 0.668 l -0.143,0.127 c -1.007,0.064 -1.58,0.109 -1.717,0.135 -0.138,0.027 -0.255,0.088 -0.35,0.183 -0.096,0.096 -0.167,0.249 -0.215,0.462 -0.048,0.211 -0.093,0.951 -0.135,2.218 -0.043,1.267 -0.064,2.018 -0.064,2.251 v 9.973 c 0,3.668 0.058,6.113 0.175,7.332 l -0.302,0.191 c -1.389,-0.552 -3.097,-0.944 -5.122,-1.177" /></g><g
       transform="translate(837.0412,1517.6495)"
       id="g160"><path
         id="path162"
         style="fill:#000000;fill-opacity:1;fill-rule:nonzero;stroke:none"
         d="m 0,0 c -1.198,0.859 -2.46,1.288 -3.785,1.288 -0.764,0 -1.61,-0.135 -2.537,-0.405 -0.928,-0.271 -1.766,-0.639 -2.513,-1.106 -0.748,-0.466 -1.307,-1.089 -1.678,-1.869 -0.372,-0.779 -0.557,-1.598 -0.557,-2.457 0,-0.933 0.262,-1.792 0.787,-2.577 0.525,-0.785 1.54,-1.373 3.046,-1.765 l -2.561,-1.845 c -0.265,-0.552 -0.397,-1.029 -0.397,-1.432 0,-0.392 0.119,-0.729 0.357,-1.01 0.239,-0.281 0.82,-0.564 1.742,-0.851 l -2.879,-1.606 c -0.329,-0.498 -0.551,-0.962 -0.668,-1.392 -0.117,-0.429 -0.175,-0.84 -0.175,-1.233 0,-0.71 0.186,-1.394 0.557,-2.051 0.371,-0.658 0.861,-1.19 1.471,-1.599 0.61,-0.408 1.32,-0.713 2.132,-0.914 0.811,-0.202 1.678,-0.303 2.6,-0.303 1.622,0 3.149,0.303 4.581,0.907 1.431,0.604 2.526,1.487 3.284,2.648 0.758,1.161 1.138,2.325 1.138,3.492 0,0.763 -0.186,1.487 -0.557,2.171 -0.371,0.684 -0.857,1.158 -1.455,1.423 -0.6,0.265 -1.461,0.398 -2.585,0.398 l -3.563,-0.048 c -1.347,0 -2.235,0.096 -2.664,0.286 -0.43,0.191 -0.644,0.52 -0.644,0.987 0,0.254 0.09,0.503 0.27,0.747 0.18,0.244 0.583,0.615 1.209,1.113 h 0.732 c 0.996,0 1.884,0.149 2.664,0.446 0.779,0.297 1.476,0.694 2.091,1.193 0.615,0.498 1.095,1.102 1.44,1.813 0.344,0.71 0.517,1.442 0.517,2.195 0,0.636 -0.149,1.246 -0.446,1.829 h 2.959 c 0.106,0.201 0.376,0.636 0.811,1.304 L 4.597,0.064 C 3.452,0.021 1.919,0 0,0 m -7.356,-0.819 c 0.652,0.631 1.46,0.946 2.425,0.946 1.146,0 2.031,-0.44 2.657,-1.32 0.625,-0.88 0.938,-1.872 0.938,-2.974 0,-1.304 -0.342,-2.264 -1.026,-2.879 -0.684,-0.615 -1.498,-0.923 -2.441,-0.923 -0.711,0 -1.35,0.191 -1.917,0.573 -0.567,0.382 -0.978,0.944 -1.233,1.686 -0.254,0.742 -0.381,1.437 -0.381,2.084 0,1.24 0.326,2.176 0.978,2.807 m 6.728,-13.647 c 0.599,-0.111 1.087,-0.424 1.463,-0.938 0.376,-0.515 0.565,-1.132 0.565,-1.853 0,-0.721 -0.226,-1.474 -0.676,-2.259 -0.451,-0.785 -1.148,-1.41 -2.092,-1.877 -0.944,-0.466 -1.972,-0.7 -3.085,-0.7 -1.485,0 -2.673,0.377 -3.563,1.13 -0.891,0.753 -1.336,1.728 -1.336,2.926 0,0.679 0.151,1.291 0.453,1.837 0.302,0.547 0.692,0.978 1.169,1.297 0.477,0.318 0.845,0.498 1.105,0.54 0.26,0.043 1.244,0.064 2.951,0.064 1.431,0 2.447,-0.056 3.046,-0.167 M 6.151,-0.032 6.023,-0.159 V -0.843 L 6.166,-0.97 7.502,-0.986 c 0.414,0 0.69,-0.04 0.828,-0.119 0.137,-0.08 0.219,-0.205 0.246,-0.374 0.026,-0.17 0.061,-0.62 0.104,-1.352 0.042,-0.732 0.063,-1.31 0.063,-1.734 v -3.133 c 0,-0.594 -0.024,-1.472 -0.071,-2.633 -0.048,-1.161 -0.091,-1.845 -0.128,-2.051 -0.037,-0.207 -0.106,-0.361 -0.206,-0.462 -0.101,-0.101 -0.218,-0.167 -0.35,-0.198 -0.133,-0.032 -0.714,-0.08 -1.742,-0.144 l -0.143,-0.127 v -0.668 l 0.143,-0.143 c 1.325,0.085 2.598,0.127 3.817,0.127 1.538,0 3.012,-0.042 4.422,-0.127 l 0.143,0.143 v 0.668 l -0.143,0.127 c -1.347,0.074 -2.102,0.128 -2.267,0.159 -0.164,0.032 -0.297,0.093 -0.397,0.183 -0.101,0.09 -0.175,0.231 -0.223,0.422 -0.048,0.191 -0.093,0.906 -0.135,2.147 -0.043,1.241 -0.064,2.02 -0.064,2.338 v 1.766 c 0,0.964 0.082,1.762 0.247,2.393 0.164,0.631 0.49,1.156 0.978,1.575 0.488,0.419 1.06,0.628 1.718,0.628 0.943,0 1.627,-0.488 2.052,-1.463 h 0.715 c 0.021,1.071 0.117,2.312 0.287,3.722 l -0.112,0.223 c -0.413,0.19 -0.853,0.286 -1.32,0.286 -0.424,0 -0.838,-0.074 -1.24,-0.223 C 14.32,0.822 13.968,0.612 13.666,0.342 13.364,0.072 13.016,-0.313 12.624,-0.811 l -1.193,-1.511 c 0.032,1.569 0.08,2.661 0.143,3.276 L 11.272,1.161 C 9.883,0.61 8.176,0.212 6.151,-0.032 m 15.331,-3.101 c 0.498,1.187 0.785,1.837 0.859,1.948 0.074,0.111 0.363,0.257 0.867,0.437 0.503,0.181 1.063,0.271 1.678,0.271 1.177,0 2.115,-0.321 2.815,-0.962 0.7,-0.642 1.05,-1.748 1.05,-3.317 -4.348,-0.615 -7.009,-1.36 -7.985,-2.234 -0.975,-0.875 -1.463,-2.092 -1.463,-3.651 0,-0.785 0.162,-1.453 0.485,-2.004 0.323,-0.551 0.79,-0.981 1.4,-1.288 0.609,-0.308 1.338,-0.461 2.187,-0.461 0.689,0 1.325,0.122 1.909,0.365 l 3.467,2.704 -0.064,-2.56 0.239,-0.223 c 0.891,0.063 1.654,0.095 2.29,0.095 0.668,0 1.389,-0.032 2.163,-0.095 l 0.128,0.127 v 0.636 l -0.128,0.143 -0.906,0.08 c -0.318,0.032 -0.536,0.072 -0.652,0.119 -0.117,0.048 -0.221,0.141 -0.311,0.279 -0.09,0.137 -0.135,0.53 -0.135,1.177 v 4.74 l 0.08,3.196 c 0,0.912 -0.181,1.71 -0.541,2.394 -0.361,0.684 -0.944,1.254 -1.75,1.71 -0.806,0.456 -1.818,0.684 -3.038,0.684 -1.781,0 -3.616,-0.7 -5.503,-2.099 v -1.973 l 0.127,-0.159 0.621,-0.159 z m 7.269,-6.888 c -1.379,-1.632 -2.773,-2.449 -4.183,-2.449 -1.644,0 -2.466,0.827 -2.466,2.481 0,1.198 0.366,2.084 1.098,2.657 0.732,0.572 2.582,1.108 5.551,1.606 z M 45.296,7.428 c 1.135,0 1.779,-0.022 1.933,-0.064 0.154,-0.042 0.262,-0.109 0.326,-0.199 0.064,-0.09 0.117,-0.376 0.159,-0.858 0.042,-0.483 0.074,-1.339 0.095,-2.569 l 0.064,-3.547 c -1.219,0.668 -2.503,1.002 -3.849,1.002 -0.965,0 -1.938,-0.273 -2.919,-0.819 -0.981,-0.546 -1.887,-1.074 -2.72,-1.583 -0.832,-0.509 -1.474,-1.317 -1.924,-2.425 -0.451,-1.109 -0.676,-2.262 -0.676,-3.46 0,-1.177 0.217,-2.325 0.652,-3.443 0.435,-1.119 1.164,-2.039 2.187,-2.76 1.023,-0.721 2.267,-1.082 3.73,-1.082 0.901,0 1.596,0.122 2.084,0.366 0.264,0.191 0.827,0.668 1.685,1.432 0.583,0.519 1.167,0.991 1.75,1.415 -0.011,-0.35 -0.016,-0.551 -0.016,-0.604 0,-0.414 -0.016,-1.14 -0.048,-2.179 l 0.175,-0.175 c 1.061,0.074 1.877,0.111 2.45,0.111 0.636,0 1.527,-0.037 2.672,-0.111 l 0.143,0.143 v 0.605 l -0.143,0.127 c -1.018,0.084 -1.636,0.175 -1.853,0.27 -0.217,0.096 -0.374,0.217 -0.469,0.366 -0.096,0.148 -0.162,0.623 -0.199,1.424 -0.037,0.8 -0.056,1.736 -0.056,2.807 V 2.036 c 0,3.669 0.058,6.113 0.175,7.332 L 50.402,9.559 C 49.013,9.008 47.306,8.615 45.28,8.382 L 45.153,8.239 V 7.571 Z m 2.577,-12.677 c 0,-1.612 -0.032,-2.72 -0.095,-3.324 -0.064,-0.604 -0.289,-1.209 -0.676,-1.813 -0.388,-0.605 -0.881,-1.085 -1.48,-1.44 -0.599,-0.355 -1.285,-0.533 -2.059,-0.533 -1.421,0 -2.601,0.562 -3.539,1.686 -0.939,1.124 -1.408,2.614 -1.408,4.47 0,1.113 0.17,2.144 0.509,3.094 0.339,0.948 0.893,1.664 1.662,2.147 0.769,0.482 1.599,0.723 2.489,0.723 0.806,0 1.609,-0.196 2.41,-0.588 0.801,-0.392 1.529,-0.96 2.187,-1.702 z M 57.505,7.746 C 57.15,7.396 56.972,6.972 56.972,6.474 c 0,-0.499 0.178,-0.921 0.533,-1.265 0.355,-0.345 0.777,-0.517 1.265,-0.517 0.498,0 0.922,0.175 1.272,0.525 0.35,0.35 0.525,0.769 0.525,1.257 0,0.498 -0.175,0.922 -0.525,1.272 -0.35,0.35 -0.774,0.525 -1.272,0.525 -0.488,0 -0.91,-0.175 -1.265,-0.525 M 55,-0.032 54.873,-0.159 v -0.684 l 0.143,-0.127 1.336,-0.016 c 0.414,0 0.689,-0.04 0.827,-0.119 0.138,-0.08 0.22,-0.205 0.247,-0.374 0.026,-0.17 0.061,-0.62 0.103,-1.352 0.042,-0.732 0.064,-1.31 0.064,-1.734 v -3.133 c 0,-0.594 -0.024,-1.472 -0.072,-2.633 -0.048,-1.161 -0.09,-1.845 -0.127,-2.051 -0.037,-0.207 -0.106,-0.361 -0.207,-0.462 -0.101,-0.101 -0.217,-0.167 -0.35,-0.198 -0.132,-0.032 -0.713,-0.08 -1.741,-0.144 l -0.144,-0.127 v -0.668 l 0.144,-0.143 c 1.325,0.085 2.597,0.127 3.817,0.127 1.23,0 2.507,-0.042 3.833,-0.127 l 0.127,0.143 v 0.668 l -0.143,0.127 c -1.007,0.064 -1.58,0.109 -1.718,0.136 -0.137,0.026 -0.254,0.087 -0.35,0.182 -0.095,0.096 -0.167,0.249 -0.214,0.462 -0.048,0.212 -0.093,0.951 -0.135,2.218 -0.043,1.267 -0.064,2.018 -0.064,2.251 v 3.595 c 0,2.142 0.058,3.907 0.175,5.296 L 60.122,1.161 C 58.732,0.61 57.025,0.212 55,-0.032 m 22.539,-11.356 c -0.763,-0.456 -1.487,-0.811 -2.171,-1.066 -0.684,-0.254 -1.397,-0.382 -2.139,-0.382 -1.57,0 -2.895,0.52 -3.976,1.559 -1.082,1.039 -1.634,2.656 -1.655,4.851 h 5.106 c 0.392,0 1.198,0.026 2.418,0.08 1.219,0.053 2.189,0.159 2.91,0.318 l 0.175,0.175 c 0.032,0.307 0.048,0.625 0.048,0.954 0,1.05 -0.196,2.041 -0.589,2.974 -0.392,0.933 -1.073,1.7 -2.043,2.299 -0.971,0.599 -2.092,0.898 -3.364,0.898 -0.934,0 -1.803,-0.159 -2.609,-0.477 -0.806,-0.318 -1.569,-0.742 -2.29,-1.272 -0.722,-0.531 -1.233,-1.013 -1.535,-1.448 -0.302,-0.434 -0.591,-1.1 -0.867,-1.996 -0.276,-0.896 -0.414,-1.9 -0.414,-3.014 0,-1.675 0.358,-3.107 1.074,-4.294 0.716,-1.188 1.644,-2.031 2.784,-2.529 1.139,-0.499 2.346,-0.748 3.618,-0.748 0.678,0 1.45,0.106 2.314,0.318 0.864,0.212 1.848,0.674 2.951,1.384 l 0.509,1.145 z m -8.883,10.243 c 0.705,0.901 1.688,1.352 2.951,1.352 1.155,0 2.067,-0.401 2.735,-1.201 0.668,-0.801 1.002,-2.023 1.002,-3.666 0,-0.138 -0.005,-0.334 -0.016,-0.589 -0.318,-0.053 -1.214,-0.079 -2.688,-0.079 -0.615,0 -1.561,0.021 -2.839,0.063 -1.278,0.042 -2.012,0.08 -2.203,0.112 0,1.77 0.353,3.106 1.058,4.008 m 10.868,1.113 -0.127,-0.127 v -0.684 l 0.143,-0.127 1.336,-0.016 c 0.414,0 0.689,-0.04 0.827,-0.119 0.138,-0.08 0.22,-0.205 0.247,-0.374 0.026,-0.17 0.061,-0.62 0.103,-1.352 0.042,-0.732 0.064,-1.31 0.064,-1.734 v -3.133 c 0,-0.594 -0.024,-1.472 -0.072,-2.633 -0.048,-1.161 -0.09,-1.845 -0.127,-2.051 -0.037,-0.207 -0.106,-0.361 -0.207,-0.462 -0.101,-0.101 -0.217,-0.167 -0.35,-0.198 -0.132,-0.032 -0.713,-0.08 -1.741,-0.144 l -0.144,-0.127 v -0.668 l 0.144,-0.143 c 1.325,0.085 2.597,0.127 3.817,0.127 1.23,0 2.508,-0.042 3.833,-0.127 l 0.127,0.143 v 0.668 l -0.143,0.127 c -1.007,0.064 -1.58,0.109 -1.718,0.136 -0.138,0.026 -0.254,0.087 -0.349,0.182 -0.096,0.096 -0.167,0.249 -0.215,0.462 -0.048,0.212 -0.093,0.951 -0.135,2.218 -0.043,1.267 -0.064,2.018 -0.064,2.251 v 2.768 c 0,0.848 0.024,1.402 0.072,1.662 0.047,0.26 0.188,0.541 0.421,0.843 0.233,0.302 0.594,0.625 1.082,0.97 0.487,0.345 0.927,0.573 1.32,0.684 0.392,0.111 0.864,0.167 1.415,0.167 0.69,0 1.283,-0.125 1.782,-0.374 0.498,-0.249 0.896,-0.599 1.193,-1.05 0.296,-0.45 0.474,-0.951 0.533,-1.503 0.058,-0.551 0.087,-1.453 0.087,-2.704 v -2.083 c 0,-2.216 -0.069,-4.014 -0.207,-5.392 l 0.191,-0.175 c 1.273,0.085 2.046,0.127 2.322,0.127 0.477,0 1.389,-0.042 2.736,-0.127 l 0.127,0.127 v 0.684 l -0.127,0.127 c -1.113,0 -1.771,0.096 -1.972,0.287 -0.202,0.191 -0.313,0.79 -0.334,1.797 -0.053,2.46 -0.08,3.78 -0.08,3.96 v 2.8 c 0,0.901 -0.074,1.659 -0.222,2.274 -0.149,0.615 -0.417,1.148 -0.804,1.599 -0.387,0.45 -0.959,0.84 -1.717,1.169 C 91.832,1.028 91.05,1.193 90.244,1.193 89.767,1.193 89.301,1.14 88.845,1.034 88.389,0.928 88.063,0.827 87.867,0.732 87.67,0.636 87.461,0.488 87.238,0.286 c -0.763,-0.721 -1.569,-1.431 -2.417,-2.131 0.021,1.156 0.063,2.089 0.127,2.799 L 84.646,1.161 C 83.256,0.61 81.549,0.212 79.524,-0.032 m 19.483,-1.606 c 0.615,0.042 1.161,0.063 1.638,0.063 h 0.652 v -6.6 c 0,-0.191 -0.005,-0.377 -0.016,-0.557 -0.042,-0.594 -0.063,-1.315 -0.063,-2.163 0,-2.312 1.193,-3.468 3.578,-3.468 0.573,0 1.135,0.128 1.686,0.382 0.965,0.88 1.575,1.41 1.83,1.591 l -0.382,0.572 c -0.605,-0.371 -1.262,-0.557 -1.972,-0.557 -0.616,0 -1.08,0.13 -1.392,0.39 -0.313,0.26 -0.504,0.62 -0.573,1.082 -0.069,0.461 -0.103,1.439 -0.103,2.934 l 0.095,6.474 c 0.933,0.01 1.697,0.016 2.291,0.016 0.657,0 1.256,-0.006 1.797,-0.016 l 0.127,0.143 0.302,1.336 -0.111,0.111 C 107.85,0.032 106.954,0 105.703,0 c -0.615,0 -1.188,0.005 -1.718,0.016 0.149,3.213 0.276,5.153 0.382,5.821 l -0.382,0.318 c -0.7,-0.435 -1.596,-0.843 -2.688,-1.224 0.064,-0.456 0.096,-2.068 0.096,-4.836 -0.615,-0.318 -1.421,-0.662 -2.418,-1.033 l -0.111,-0.16 v -0.413 z" /></g><g
       transform="translate(804.6724,1451.8774)"
       id="g164"><path
         id="path166"
         style="fill:#000000;fill-opacity:1;fill-rule:nonzero;stroke:none"
         d="m 0,0 v 1.252 c -0.836,0 -1.53,0.07 -2.081,0.211 -0.552,0.141 -0.827,0.459 -0.827,0.953 v 6.311 c 1.248,-1.431 2.775,-2.146 4.58,-2.146 1.515,0 2.905,0.372 4.172,1.117 1.266,0.745 2.265,1.745 2.999,3 0.733,1.255 1.099,2.61 1.099,4.065 0,1.395 -0.33,2.718 -0.99,3.967 -0.661,1.25 -1.579,2.258 -2.754,3.027 -1.176,0.768 -2.497,1.152 -3.963,1.152 -1.018,0 -1.978,-0.191 -2.881,-0.572 -0.903,-0.381 -1.694,-0.935 -2.372,-1.662 v 2.234 l -5.525,-0.387 v -1.266 c 0.97,0 1.697,-0.082 2.181,-0.246 0.485,-0.165 0.727,-0.575 0.727,-1.232 V 2.411 C -5.635,1.918 -5.907,1.601 -6.453,1.46 -6.998,1.32 -7.695,1.249 -8.543,1.249 V 0 Z m -2.908,19.094 c 0.497,0.856 1.166,1.532 2.008,2.03 0.842,0.498 1.766,0.747 2.772,0.747 1.042,0 1.93,-0.384 2.663,-1.151 0.733,-0.768 1.278,-1.711 1.636,-2.83 0.357,-1.119 0.536,-2.158 0.536,-3.119 0,-0.773 -0.106,-1.573 -0.318,-2.399 C 6.177,11.546 5.846,10.758 5.398,10.009 4.95,9.259 4.396,8.661 3.735,8.216 3.075,7.771 2.314,7.548 1.454,7.548 c -0.921,0 -1.769,0.279 -2.545,0.835 -0.775,0.557 -1.381,1.263 -1.817,2.118 z" /></g><g
       transform="translate(825.6302,1458.8628)"
       id="g168"><path
         id="path170"
         style="fill:#000000;fill-opacity:1;fill-rule:nonzero;stroke:none"
         d="m 0,0 v 1.267 c -2.411,0 -3.617,0.381 -3.617,1.144 v 5.912 c 0,0.95 0.133,1.947 0.4,2.991 0.266,1.044 0.718,1.918 1.354,2.622 0.636,0.703 1.457,1.055 2.463,1.055 H 0.818 C 0.345,14.721 0.109,14.264 0.109,13.619 0.109,13.173 0.273,12.792 0.6,12.475 0.927,12.158 1.321,12 1.781,12 c 0.473,0 0.87,0.161 1.191,0.484 0.321,0.322 0.481,0.701 0.481,1.135 0,0.692 -0.29,1.249 -0.872,1.671 -0.582,0.423 -1.242,0.634 -1.981,0.634 -1.054,0 -1.951,-0.326 -2.69,-0.977 -0.739,-0.651 -1.309,-1.498 -1.709,-2.542 v 3.519 L -9.124,15.537 V 14.27 c 0.787,0 1.369,-0.033 1.744,-0.097 0.376,-0.064 0.664,-0.241 0.864,-0.528 0.2,-0.287 0.3,-0.754 0.3,-1.399 V 2.411 C -6.216,1.906 -6.489,1.589 -7.034,1.46 -7.579,1.331 -8.276,1.267 -9.124,1.267 V 0 Z" /></g><g
       transform="translate(843.8236,1459.5579)"
       id="g172"><path
         id="path174"
         style="fill:#000000;fill-opacity:1;fill-rule:nonzero;stroke:none"
         d="m 0,0 c 1.268,0.733 2.271,1.718 3.011,2.956 0.74,1.237 1.11,2.578 1.11,4.021 0,1.478 -0.364,2.87 -1.091,4.178 -0.728,1.308 -1.72,2.352 -2.975,3.132 -1.256,0.78 -2.648,1.171 -4.176,1.171 -1.177,0 -2.269,-0.226 -3.276,-0.678 -1.007,-0.452 -1.889,-1.079 -2.647,-1.883 -0.759,-0.803 -1.341,-1.715 -1.747,-2.736 -0.407,-1.02 -0.61,-2.082 -0.61,-3.184 0,-1.455 0.37,-2.798 1.11,-4.03 0.74,-1.232 1.747,-2.214 3.021,-2.947 1.273,-0.733 2.656,-1.1 4.149,-1.1 1.48,0 2.853,0.367 4.121,1.1 m -7.306,1.062 c -0.732,0.725 -1.218,1.623 -1.46,2.694 -0.242,1.071 -0.363,2.279 -0.363,3.625 0,1.123 0.063,2.092 0.191,2.905 0.127,0.813 0.42,1.559 0.879,2.238 0.46,0.632 1.038,1.117 1.733,1.457 0.695,0.339 1.43,0.509 2.205,0.509 0.507,0 1,-0.079 1.478,-0.237 0.478,-0.158 0.932,-0.386 1.361,-0.685 0.429,-0.298 0.783,-0.646 1.061,-1.044 0.448,-0.644 0.738,-1.361 0.871,-2.15 0.133,-0.79 0.2,-1.788 0.2,-2.993 0,-2.153 -0.333,-3.926 -0.998,-5.319 -0.665,-1.392 -1.99,-2.088 -3.973,-2.088 -1.392,0 -2.453,0.362 -3.185,1.088" /></g><g
       transform="translate(855.3696,1458.8628)"
       id="g176"><path
         id="path178"
         style="fill:#000000;fill-opacity:1;fill-rule:nonzero;stroke:none"
         d="m 0,0 v 1.267 c -0.279,0 -0.521,0.105 -0.727,0.317 -0.206,0.211 -0.309,0.463 -0.309,0.756 0,0.399 0.139,0.751 0.418,1.056 L 2.054,6.704 5.398,2.411 C 5.471,2.305 5.507,2.199 5.507,2.094 5.507,1.824 5.368,1.619 5.089,1.478 4.81,1.337 4.52,1.267 4.217,1.267 V 0 h 7.743 v 1.267 c -0.945,0 -1.672,0.058 -2.181,0.176 -0.509,0.117 -1,0.44 -1.472,0.968 l -4.763,6.088 2.945,3.642 c 0.582,0.704 1.293,1.234 2.136,1.592 0.842,0.358 1.741,0.537 2.699,0.537 v 1.267 H 4.471 V 14.27 c 0.328,0 0.591,-0.106 0.791,-0.317 0.2,-0.211 0.3,-0.463 0.3,-0.756 0,-0.352 -0.152,-0.704 -0.455,-1.056 l -2.235,-2.78 -2.981,3.748 c -0.073,0.129 -0.109,0.24 -0.109,0.334 0,0.27 0.142,0.475 0.427,0.616 0.285,0.14 0.591,0.211 0.918,0.211 v 1.267 H -6.616 V 14.27 c 0.933,0 1.657,-0.062 2.172,-0.185 0.515,-0.123 0.991,-0.449 1.427,-0.976 L 1.381,7.566 -1.999,3.396 C -2.581,2.692 -3.29,2.161 -4.126,1.804 -4.962,1.446 -5.853,1.267 -6.798,1.267 V 0 Z" /></g><g
       transform="translate(869.245,1452.1796)"
       id="g180"><path
         id="path182"
         style="fill:#000000;fill-opacity:1;fill-rule:nonzero;stroke:none"
         d="m 0,0 c 0.42,-0.67 0.994,-1.19 1.723,-1.559 0.729,-0.37 1.534,-0.555 2.416,-0.555 1.085,0 2.138,0.19 3.159,0.57 1.022,0.38 1.982,0.909 2.88,1.587 0.212,-0.653 0.555,-1.176 1.03,-1.568 0.475,-0.393 1.051,-0.589 1.729,-0.589 0.314,0 0.668,0.083 1.062,0.248 0.394,0.165 0.727,0.382 0.998,0.651 0.271,0.268 0.407,0.56 0.407,0.874 l -0.083,0.211 -0.197,0.087 h -0.419 c -0.077,-0.009 -0.193,-0.14 -0.35,-0.395 -0.157,-0.255 -0.337,-0.462 -0.54,-0.622 -0.204,-0.16 -0.479,-0.241 -0.827,-0.241 -0.254,0 -0.449,0.199 -0.585,0.597 -0.135,0.397 -0.22,0.807 -0.254,1.229 -0.034,0.423 -0.051,0.83 -0.051,1.224 0.534,0.582 1.011,1.188 1.431,1.819 0.419,0.632 0.784,1.287 1.093,1.968 0.309,0.68 0.562,1.389 0.757,2.127 v 0.074 l -0.07,0.22 c -0.047,0.057 -0.117,0.086 -0.21,0.086 h -0.42 c -0.135,0 -0.22,-0.07 -0.254,-0.209 C 13.984,6.113 13.183,4.519 12.022,3.052 l -0.051,1.417 c 0,0.674 -0.129,1.307 -0.388,1.898 C 11.325,6.959 10.967,7.47 10.509,7.902 10.051,8.333 9.515,8.668 8.9,8.906 8.286,9.144 7.627,9.264 6.923,9.264 5.703,9.264 4.507,8.941 3.338,8.296 2.168,7.651 1.214,6.788 0.477,5.707 -0.261,4.626 -0.629,3.49 -0.629,2.299 -0.629,1.436 -0.42,0.67 0,0 M 2.333,-0.532 C 1.867,-0.02 1.634,0.622 1.634,1.392 1.634,2.113 1.75,2.888 1.984,3.716 2.217,4.544 2.556,5.319 3.001,6.04 3.446,6.761 3.997,7.343 4.654,7.786 5.31,8.228 6.05,8.45 6.872,8.45 7.576,8.45 8.148,8.218 8.589,7.755 9.03,7.292 9.343,6.72 9.53,6.04 9.716,5.36 9.81,4.683 9.81,4.011 L 9.937,1.368 9.956,1.177 C 9.96,1.115 9.962,1.036 9.962,0.937 9.131,0.257 8.22,-0.286 7.228,-0.692 6.237,-1.098 5.232,-1.301 4.215,-1.301 c -0.788,0 -1.416,0.257 -1.882,0.769" /></g><g
       transform="translate(889.3444,1447.2233)"
       id="g184"><path
         id="path186"
         style="fill:#000000;fill-opacity:1;fill-rule:nonzero;stroke:none"
         d="m 0,0 c 0.233,-0.266 0.526,-0.462 0.878,-0.589 0.353,-0.127 0.714,-0.19 1.085,-0.19 0.765,0 1.474,0.265 2.129,0.797 0.654,0.531 1.14,1.169 1.456,1.913 l 0.018,0.106 c 0,0.118 -0.08,0.204 -0.242,0.257 H 4.939 C 4.831,2.241 4.765,2.185 4.742,2.126 4.574,1.73 4.356,1.368 4.087,1.04 3.818,0.713 3.5,0.439 3.133,0.221 2.765,0.002 2.387,-0.107 1.999,-0.107 1.76,-0.107 1.582,-0.014 1.466,0.172 1.349,0.358 1.291,0.575 1.291,0.823 c 0,0.189 0.024,0.364 0.071,0.523 L 2.626,6.369 H 5.091 C 5.318,6.428 5.432,6.62 5.432,6.947 L 5.351,7.145 5.163,7.236 H 2.85 l 0.673,2.699 0.026,0.177 c 0,0.189 -0.068,0.345 -0.206,0.469 -0.137,0.124 -0.301,0.186 -0.493,0.186 -0.203,0 -0.4,-0.068 -0.591,-0.204 C 2.067,10.427 1.945,10.259 1.891,10.059 L 1.174,7.236 H -1.282 C -1.515,7.19 -1.631,7.003 -1.631,6.676 l 0.085,-0.21 0.192,-0.097 H 0.959 L -0.296,1.399 C -0.332,1.275 -0.35,1.136 -0.35,0.983 -0.35,0.593 -0.233,0.266 0,0" /></g><g
       transform="translate(900.5663,1450.2625)"
       id="g188"><path
         id="path190"
         style="fill:#000000;fill-opacity:1;fill-rule:nonzero;stroke:none"
         d="m 0,0 c 0.178,-0.172 0.39,-0.259 0.636,-0.259 0.331,0 0.636,0.144 0.917,0.432 l 6.795,7.026 2.826,-6.471 c 0.093,-0.214 0.252,-0.409 0.477,-0.586 0.224,-0.177 0.447,-0.29 0.668,-0.339 h 1.54 l 0.203,0.086 0.077,0.21 c 0,0.09 -0.043,0.168 -0.128,0.234 -0.11,0.082 -0.218,0.21 -0.324,0.382 -0.106,0.173 -0.21,0.376 -0.312,0.61 -0.102,0.235 -0.178,0.397 -0.229,0.487 L 6.923,16.136 c -0.255,0.6 -0.709,0.988 -1.362,1.165 -0.653,0.176 -1.442,0.265 -2.367,0.265 -0.28,0 -0.445,-0.134 -0.496,-0.401 0,-0.1 0.04,-0.194 0.121,-0.281 0.08,-0.088 0.172,-0.132 0.273,-0.132 0.45,0 0.813,-0.158 1.088,-0.474 0.276,-0.316 0.528,-0.741 0.758,-1.275 L 7.916,8.204 0.089,1.417 C -0.148,1.203 -0.267,0.94 -0.267,0.628 -0.267,0.382 -0.178,0.172 0,0" /></g><g
       transform="translate(920.5642,1444.0007)"
       id="g192"><path
         id="path194"
         style="fill:#000000;fill-opacity:1;fill-rule:nonzero;stroke:none"
         d="M 0,0 C 0.358,0 0.566,0.193 0.626,0.579 V 24.666 C 0.566,25.052 0.358,25.245 0,25.245 c -0.375,0 -0.592,-0.193 -0.652,-0.579 V 0.579 C -0.592,0.193 -0.375,0 0,0" /></g><g
       transform="translate(928.423,1455.5509)"
       id="g196"><path
         id="path198"
         style="fill:#000000;fill-opacity:1;fill-rule:nonzero;stroke:none"
         d="m 0,0 c 0.315,-0.296 0.682,-0.444 1.099,-0.444 0.417,0 0.78,0.148 1.086,0.444 0.307,0.296 0.46,0.653 0.46,1.072 0,0.403 -0.153,0.752 -0.46,1.048 C 1.879,2.416 1.516,2.564 1.099,2.564 0.682,2.564 0.315,2.416 0,2.12 -0.315,1.824 -0.473,1.475 -0.473,1.072 -0.473,0.653 -0.315,0.296 0,0" /></g><g
       transform="translate(937.8699,1444.0007)"
       id="g200"><path
         id="path202"
         style="fill:#000000;fill-opacity:1;fill-rule:nonzero;stroke:none"
         d="M 0,0 C 0.358,0 0.566,0.193 0.626,0.579 V 24.666 C 0.566,25.052 0.358,25.245 0,25.245 c -0.375,0 -0.592,-0.193 -0.652,-0.579 V 0.579 C -0.592,0.193 -0.375,0 0,0" /></g><g
       transform="translate(955.7324,1449.8539)"
       id="g204"><path
         id="path206"
         style="fill:#000000;fill-opacity:1;fill-rule:nonzero;stroke:none"
         d="m 0,0 h 0.345 l 0.191,0.114 0.1,0.203 c 0,0.129 -0.036,0.229 -0.109,0.299 -4.217,3.965 -6.325,9.765 -6.325,17.402 0,1.724 0.109,3.381 0.327,4.971 0.218,1.589 0.573,3.125 1.063,4.61 0.491,1.483 1.139,2.882 1.945,4.196 0.806,1.314 1.815,2.545 3.026,3.695 0.049,0.047 0.073,0.123 0.073,0.229 l -0.091,0.22 -0.2,0.097 H 0 c -0.121,0 -0.182,-0.024 -0.182,-0.071 -1.345,-1.02 -2.52,-2.211 -3.526,-3.572 -1.006,-1.361 -1.833,-2.821 -2.481,-4.381 -0.648,-1.56 -1.13,-3.185 -1.445,-4.874 -0.315,-1.689 -0.473,-3.396 -0.473,-5.12 0,-1.701 0.158,-3.396 0.473,-5.085 0.315,-1.689 0.791,-3.308 1.427,-4.857 C -5.571,6.528 -4.753,5.071 -3.753,3.704 -2.754,2.338 -1.563,1.126 -0.182,0.07 -0.182,0.024 -0.121,0 0,0" /></g><g
       transform="translate(961.7264,1466.4877)"
       id="g208"><path
         id="path210"
         style="fill:#000000;fill-opacity:1;fill-rule:nonzero;stroke:none"
         d="M 0,0 C 0.399,-0.391 0.872,-0.587 1.42,-0.587 1.979,-0.587 2.452,-0.391 2.839,0 3.226,0.391 3.42,0.856 3.42,1.393 3.42,1.731 3.331,2.053 3.152,2.356 2.973,2.66 2.726,2.905 2.411,3.092 2.095,3.279 1.765,3.372 1.42,3.372 1.063,3.372 0.726,3.279 0.411,3.092 0.095,2.905 -0.152,2.66 -0.33,2.356 -0.509,2.053 -0.598,1.731 -0.598,1.393 -0.598,0.856 -0.399,0.391 0,0" /></g><g
       transform="translate(971.2023,1449.8539)"
       id="g212"><path
         id="path214"
         style="fill:#000000;fill-opacity:1;fill-rule:nonzero;stroke:none"
         d="m 0,0 0.182,0.07 c 1.381,1.056 2.569,2.261 3.562,3.616 0.994,1.355 1.815,2.833 2.463,4.434 0.648,1.602 1.121,3.226 1.418,4.874 0.297,1.648 0.445,3.323 0.445,5.024 0,2.299 -0.276,4.551 -0.827,6.756 C 6.692,26.98 5.822,29.056 4.635,31.003 3.447,32.95 1.963,34.604 0.182,35.965 L 0,36.036 h -0.345 l -0.228,-0.097 -0.099,-0.22 c 0,-0.141 0.048,-0.241 0.145,-0.299 C 3.665,31.455 5.762,25.654 5.762,18.018 5.762,10.381 3.641,4.557 -0.6,0.546 -0.648,0.499 -0.672,0.422 -0.672,0.317 -0.672,0.106 -0.563,0 -0.345,0 Z" /></g><g
       id="g216"><g
         clip-path="url(#clipPath222)"
         id="g218"><g
           transform="translate(769.5327,1344.0391)"
           id="g224"><path
             id="path226"
             style="fill:#ffff99;fill-opacity:1;fill-rule:evenodd;stroke:none"
             d="M 0,0 V -31.76 H -115.436 V 31.76 H 0 Z" /></g><g
           transform="translate(769.5327,1344.0391)"
           id="g228"><path
             id="path230"
             style="fill:none;stroke:#000000;stroke-width:4.66599989;stroke-linecap:butt;stroke-linejoin:round;stroke-miterlimit:10;stroke-dasharray:none;stroke-opacity:1"
             d="M 0,0 V -31.76 H -115.436 V 31.76 H 0 Z" /></g></g></g><g
       transform="translate(704.5458,1338.5343)"
       id="g232"><path
         id="path234"
         style="fill:#000000;fill-opacity:1;fill-rule:nonzero;stroke:none"
         d="M 0,0 C 1.353,0.537 2.61,1.289 3.771,2.256 3.987,1.348 4.39,0.611 4.981,0.044 c 0.59,-0.566 1.33,-0.849 2.221,-0.849 0.687,0 1.382,0.28 2.086,0.841 0.705,0.56 1.057,1.141 1.057,1.743 0,0.236 -0.097,0.354 -0.29,0.354 H 9.602 C 9.542,2.121 9.4,1.922 9.177,1.535 8.953,1.148 8.694,0.822 8.398,0.558 8.102,0.295 7.725,0.163 7.267,0.163 c -0.713,0 -1.068,1.488 -1.068,4.463 0.688,0.773 1.324,1.634 1.91,2.583 0.585,0.95 1.095,1.931 1.53,2.944 0.434,1.014 0.796,2.071 1.086,3.173 l 0.036,0.105 c 0,0.222 -0.115,0.333 -0.344,0.333 H 9.983 c -0.145,0 -0.242,-0.071 -0.29,-0.211 C 9.379,12.241 8.929,10.973 8.344,9.749 7.758,8.525 7.043,7.344 6.199,6.208 L 6.162,8.616 c 0,1.207 -0.247,2.34 -0.742,3.401 -0.495,1.06 -1.219,1.91 -2.173,2.549 -0.953,0.638 -2.058,0.957 -3.313,0.957 -1.702,0 -3.329,-0.498 -4.88,-1.495 -1.551,-0.997 -2.794,-2.294 -3.73,-3.889 -0.935,-1.595 -1.403,-3.208 -1.403,-4.839 0,-1.161 0.248,-2.199 0.743,-3.114 0.496,-0.915 1.2,-1.642 2.112,-2.182 0.913,-0.539 1.955,-0.809 3.127,-0.809 1.378,0 2.744,0.268 4.097,0.805 m -6.393,1.252 c -0.55,0.726 -0.825,1.611 -0.825,2.654 0,1.382 0.275,2.908 0.825,4.578 0.55,1.669 1.369,3.105 2.457,4.305 1.089,1.201 2.358,1.802 3.809,1.802 2.419,0 3.628,-2.174 3.628,-6.52 V 4.187 C 3.501,4.163 3.513,4.049 3.537,3.844 3.56,3.639 3.578,3.466 3.591,3.326 1.16,1.217 -1.379,0.163 -4.026,0.163 c -1.028,0 -1.817,0.363 -2.367,1.089" /></g><g
       transform="translate(719.6249,1333.6501)"
       id="g236"><path
         id="path238"
         style="fill:#000000;fill-opacity:1;fill-rule:nonzero;stroke:none"
         d="m 0,0 c 0.566,-0.433 1.229,-0.649 1.989,-0.649 0.675,0 1.315,0.181 1.919,0.543 0.603,0.363 1.123,0.83 1.558,1.403 C 5.9,1.869 6.253,2.485 6.523,3.144 L 6.549,3.242 6.473,3.445 6.27,3.538 H 5.852 C 5.742,3.538 5.645,3.455 5.561,3.291 5.231,2.487 4.752,1.765 4.123,1.125 3.494,0.484 2.799,0.164 2.039,0.164 1.744,0.164 1.53,0.285 1.4,0.527 1.269,0.77 1.203,1.042 1.203,1.346 c 0,0.214 0.034,0.509 0.102,0.887 L 3.179,9.471 H 6.245 C 6.413,9.512 6.506,9.586 6.523,9.693 L 6.625,10.1 c 0,0.189 -0.102,0.316 -0.304,0.382 H 3.433 l 0.988,3.834 c 0.016,0.049 0.025,0.131 0.025,0.246 0,0.238 -0.089,0.433 -0.266,0.586 C 4.003,15.3 3.8,15.376 3.572,15.376 3.285,15.376 3.027,15.287 2.799,15.111 2.571,14.934 2.419,14.71 2.343,14.439 L 1.305,10.482 H -1.773 C -1.942,10.449 -2.048,10.379 -2.09,10.272 L -2.191,9.878 c 0,-0.214 0.114,-0.349 0.342,-0.407 h 2.9 L -0.76,2.405 C -0.819,2.199 -0.849,1.972 -0.849,1.725 -0.849,1.008 -0.566,0.433 0,0" /></g><g
       id="g240"><g
         clip-path="url(#clipPath246)"
         id="g242"><g
           transform="translate(625.1871,1528.899)"
           id="g248"><path
             id="path250"
             style="fill:#ffcc00;fill-opacity:1;fill-rule:evenodd;stroke:none"
             d="m 0,0 c -7.533,0 -13.641,1.629 -20.155,5.293 -6.515,3.665 -11.198,8.348 -14.863,14.863 -3.664,6.514 -5.293,12.622 -5.293,20.155 0,7.533 1.629,13.64 5.293,20.155 3.665,6.515 8.348,11.198 14.863,14.862 6.514,3.665 12.622,5.294 20.155,5.294 7.533,0 13.641,-1.629 20.155,-5.294 6.515,-3.664 11.198,-8.347 14.863,-14.862 3.664,-6.515 5.293,-12.622 5.293,-20.155 0,-7.533 -1.629,-13.641 -5.293,-20.155 C 31.353,13.641 26.67,8.958 20.155,5.293 13.641,1.629 7.533,0 0,0" /></g><g
           transform="translate(625.1871,1528.899)"
           id="g252"><path
             id="path254"
             style="fill:none;stroke:#000000;stroke-width:4.66599989;stroke-linecap:butt;stroke-linejoin:round;stroke-miterlimit:10;stroke-dasharray:none;stroke-opacity:1"
             d="m 0,0 c -7.533,0 -13.641,1.629 -20.155,5.293 -6.515,3.665 -11.198,8.348 -14.863,14.863 -3.664,6.514 -5.293,12.622 -5.293,20.155 0,7.533 1.629,13.64 5.293,20.155 3.665,6.515 8.348,11.198 14.863,14.862 6.514,3.665 12.622,5.294 20.155,5.294 7.533,0 13.641,-1.629 20.155,-5.294 6.515,-3.664 11.198,-8.347 14.863,-14.862 3.664,-6.515 5.293,-12.622 5.293,-20.155 0,-7.533 -1.629,-13.641 -5.293,-20.155 C 31.353,13.641 26.67,8.958 20.155,5.293 13.641,1.629 7.533,0 0,0 Z" /></g></g></g><g
       transform="translate(625.447,1566.9094)"
       id="g256"><path
         id="path258"
         style="fill:#000000;fill-opacity:1;fill-rule:nonzero;stroke:none"
         d="m 0,0 v -10.628 c 0,-0.187 0.072,-0.343 0.217,-0.466 0.145,-0.123 0.32,-0.185 0.526,-0.185 0.181,0 0.35,0.062 0.507,0.185 0.157,0.123 0.236,0.279 0.236,0.466 V 0 h 10.907 c 0.181,0 0.338,0.076 0.471,0.229 0.133,0.152 0.199,0.316 0.199,0.492 0,0.176 -0.066,0.341 -0.199,0.493 -0.133,0.152 -0.29,0.229 -0.471,0.229 H 1.486 V 12.07 c 0,0.188 -0.079,0.344 -0.236,0.467 C 1.093,12.66 0.924,12.721 0.743,12.721 0.537,12.721 0.362,12.66 0.217,12.537 0.072,12.414 0,12.258 0,12.07 V 1.443 h -10.907 c -0.206,0 -0.375,-0.077 -0.508,-0.229 -0.133,-0.152 -0.199,-0.317 -0.199,-0.493 0,-0.176 0.066,-0.34 0.199,-0.492 C -11.282,0.076 -11.113,0 -10.907,0 Z" /></g><g
       id="g260"><g
         clip-path="url(#clipPath266)"
         id="g262"><g
           transform="translate(423.2255,1569.0063)"
           id="g268"><path
             id="path270"
             style="fill:none;stroke:#ffffff;stroke-width:3.0539999;stroke-linecap:butt;stroke-linejoin:round;stroke-miterlimit:10;stroke-dasharray:none;stroke-opacity:1"
             d="m 0,0 h 80.825 v 0.204 h 57.616" /></g><g
           transform="translate(584.8762,1569.21)"
           id="g272"><path
             id="path274"
             style="fill:#ffffff;fill-opacity:1;fill-rule:evenodd;stroke:none"
             d="M 0,0 -24.227,7.94 V -8.144 Z" /></g><g
           transform="translate(665.498,1569.21)"
           id="g276"><path
             id="path278"
             style="fill:none;stroke:#ffffff;stroke-width:3.0539999;stroke-linecap:butt;stroke-linejoin:round;stroke-miterlimit:10;stroke-dasharray:none;stroke-opacity:1"
             d="m 0,0 h 46.215 v -54.969 h 34.61" /></g><g
           transform="translate(769.5327,1514.2405)"
           id="g280"><path
             id="path282"
             style="fill:#ffffff;fill-opacity:1;fill-rule:evenodd;stroke:none"
             d="M 0,0 -24.227,7.94 V -8.144 Z" /></g><g
           transform="translate(625.1871,1491.0313)"
           id="g284"><path
             id="path286"
             style="fill:none;stroke:#ffffff;stroke-width:3.0539999;stroke-linecap:butt;stroke-linejoin:round;stroke-miterlimit:10;stroke-dasharray:none;stroke-opacity:1"
             d="M 0,0 V 14.658" /></g><g
           transform="translate(625.1871,1528.899)"
           id="g288"><path
             id="path290"
             style="fill:#ffffff;fill-opacity:1;fill-rule:evenodd;stroke:none"
             d="M 0,0 -7.94,-24.227 H 8.144 Z" /></g><g
           transform="translate(423.2255,1459.4746)"
           id="g292"><path
             id="path294"
             style="fill:none;stroke:#ffffff;stroke-width:3.0539999;stroke-linecap:butt;stroke-linejoin:round;stroke-miterlimit:10;stroke-dasharray:none;stroke-opacity:1"
             d="M 0,0 H 92.226" /></g><g
           transform="translate(538.6613,1459.4746)"
           id="g296"><path
             id="path298"
             style="fill:#ffffff;fill-opacity:1;fill-rule:evenodd;stroke:none"
             d="M 0,0 -24.227,7.94 V -8.144 Z" /></g><g
           transform="translate(538.6613,1375.7991)"
           id="g300"><path
             id="path302"
             style="fill:none;stroke:#ffffff;stroke-width:3.0539999;stroke-linecap:butt;stroke-linejoin:round;stroke-miterlimit:10;stroke-dasharray:none;stroke-opacity:1"
             d="M 0,0 V 17.305 H 57.616 V 28.706" /></g><g
           transform="translate(596.2773,1427.7146)"
           id="g304"><path
             id="path306"
             style="fill:#ffffff;fill-opacity:1;fill-rule:evenodd;stroke:none"
             d="M 0,0 -7.94,-24.227 H 8.144 Z" /></g><g
           transform="translate(711.7131,1375.7991)"
           id="g308"><path
             id="path310"
             style="fill:none;stroke:#ffffff;stroke-width:3.0539999;stroke-linecap:butt;stroke-linejoin:round;stroke-miterlimit:10;stroke-dasharray:none;stroke-opacity:1"
             d="M 0,0 V 17.305 H -57.616 V 28.706" /></g><g
           transform="translate(654.097,1427.7146)"
           id="g312"><path
             id="path314"
             style="fill:#ffffff;fill-opacity:1;fill-rule:evenodd;stroke:none"
             d="M 0,0 -8.144,-24.227 H 7.94 Z" /></g><g
           transform="translate(1202.366,1344.0391)"
           id="g316"><path
             id="path318"
             style="fill:#ffff99;fill-opacity:1;fill-rule:evenodd;stroke:none"
             d="M 0,0 V -31.76 H -115.436 V 31.76 H 0 Z" /></g><g
           transform="translate(1202.366,1344.0391)"
           id="g320"><path
             id="path322"
             style="fill:none;stroke:#000000;stroke-width:4.66599989;stroke-linecap:butt;stroke-linejoin:round;stroke-miterlimit:10;stroke-dasharray:none;stroke-opacity:1"
             d="M 0,0 V -31.76 H -115.436 V 31.76 H 0 Z" /></g></g></g><g
       transform="translate(1136.6796,1331.2117)"
       id="g324"><path
         id="path326"
         style="fill:#000000;fill-opacity:1;fill-rule:nonzero;stroke:none"
         d="m 0,0 v 1.82 c -0.854,0 -1.642,0.04 -2.364,0.122 -0.638,0 -0.957,0.058 -0.957,0.175 l 1.949,4.619 H 8.392 L 10.468,1.82 H 6.984 V 0 H 19.708 V 1.82 H 16.081 L 6.587,24.372 c -0.072,0.186 -0.207,0.341 -0.406,0.464 -0.198,0.122 -0.4,0.183 -0.604,0.183 H 4.765 C 4.56,25.019 4.359,24.955 4.16,24.827 3.961,24.698 3.832,24.547 3.772,24.372 L -5.577,2.152 C -5.745,1.93 -7.003,1.82 -9.349,1.82 V 0 Z M 3.519,18.353 7.616,8.556 h -8.212 z" /></g><g
       transform="translate(1160.9823,1326.5212)"
       id="g328"><path
         id="path330"
         style="fill:#000000;fill-opacity:1;fill-rule:nonzero;stroke:none"
         d="m 0,0 c 0.561,-0.429 1.219,-0.644 1.973,-0.644 0.67,0 1.304,0.18 1.903,0.539 0.599,0.36 1.114,0.824 1.546,1.391 0.431,0.568 0.78,1.179 1.049,1.832 L 6.496,3.216 6.42,3.417 6.219,3.509 H 5.805 C 5.696,3.509 5.599,3.428 5.516,3.265 5.189,2.467 4.714,1.751 4.09,1.116 3.466,0.48 2.777,0.163 2.023,0.163 c -0.293,0 -0.505,0.12 -0.635,0.36 -0.13,0.24 -0.194,0.511 -0.194,0.812 0,0.212 0.033,0.505 0.1,0.88 l 1.86,7.18 h 3.04 c 0.168,0.041 0.26,0.114 0.277,0.22 l 0.1,0.403 c 0,0.188 -0.1,0.314 -0.301,0.379 H 3.405 l 0.98,3.803 c 0.017,0.049 0.025,0.13 0.025,0.245 0,0.236 -0.088,0.43 -0.264,0.581 -0.176,0.15 -0.377,0.226 -0.603,0.226 -0.285,0 -0.54,-0.088 -0.766,-0.263 C 2.551,14.813 2.4,14.591 2.324,14.322 L 1.294,10.397 H -1.759 C -1.927,10.365 -2.031,10.295 -2.073,10.19 L -2.174,9.798 c 0,-0.212 0.113,-0.346 0.34,-0.403 H 1.043 L -0.754,2.386 C -0.812,2.181 -0.842,1.956 -0.842,1.711 -0.842,1 -0.561,0.429 0,0" /></g><g
       id="g332"><g
         clip-path="url(#clipPath338)"
         id="g334"><g
           transform="translate(1519.7634,1569.0063)"
           id="g340"><path
             id="path342"
             style="fill:#ffffff;fill-opacity:1;fill-rule:evenodd;stroke:none"
             d="M 0,0 V -31.76 H -115.436 V 31.76 H 0 Z" /></g><g
           transform="translate(1519.7634,1569.0063)"
           id="g344"><path
             id="path346"
             style="fill:none;stroke:#000000;stroke-width:4.66599989;stroke-linecap:butt;stroke-linejoin:round;stroke-miterlimit:10;stroke-dasharray:none;stroke-opacity:1"
             d="M 0,0 V -31.76 H -115.436 V 31.76 H 0 Z" /></g></g></g><g
       transform="translate(1438.2128,1562.083)"
       id="g348"><path
         id="path350"
         style="fill:#000000;fill-opacity:1;fill-rule:nonzero;stroke:none"
         d="m 0,0 v 1.82 c -0.229,0 -0.522,0.029 -0.878,0.087 -0.356,0.058 -0.534,0.128 -0.534,0.21 L 2.298,6.194 6.117,1.82 H 4.742 V 0 h 8.741 V 1.82 H 10.714 L 4.705,8.818 9.23,13.752 c 0.217,0.221 1.375,0.332 3.474,0.332 v 1.82 H 5.303 v -1.82 c 0.217,0 0.503,-0.023 0.859,-0.07 0.356,-0.046 0.534,-0.122 0.534,-0.227 l -3.221,-3.534 -3.33,3.831 h 1.339 v 1.82 h -8.723 v -1.82 h 2.751 L 1.068,7.628 -3.927,2.152 C -4.156,1.93 -5.321,1.82 -7.42,1.82 V 0 Z" /></g><g
       transform="translate(1455.3737,1557.3925)"
       id="g352"><path
         id="path354"
         style="fill:#000000;fill-opacity:1;fill-rule:nonzero;stroke:none"
         d="m 0,0 c 0.561,-0.429 1.219,-0.644 1.973,-0.644 0.67,0 1.304,0.18 1.903,0.539 0.599,0.36 1.114,0.824 1.546,1.391 0.431,0.568 0.78,1.179 1.049,1.832 L 6.496,3.216 6.42,3.417 6.219,3.509 H 5.805 C 5.696,3.509 5.599,3.428 5.516,3.265 5.189,2.467 4.714,1.751 4.09,1.116 3.466,0.48 2.777,0.163 2.023,0.163 c -0.293,0 -0.505,0.12 -0.635,0.36 -0.13,0.24 -0.194,0.511 -0.194,0.812 0,0.212 0.033,0.505 0.1,0.88 l 1.86,7.18 h 3.04 c 0.168,0.041 0.26,0.114 0.277,0.22 l 0.1,0.403 c 0,0.188 -0.1,0.314 -0.301,0.379 H 3.405 l 0.98,3.803 c 0.017,0.049 0.025,0.13 0.025,0.245 0,0.236 -0.088,0.43 -0.264,0.581 -0.176,0.15 -0.377,0.226 -0.603,0.226 -0.285,0 -0.54,-0.088 -0.766,-0.263 C 2.551,14.813 2.4,14.591 2.324,14.322 L 1.294,10.397 H -1.759 C -1.927,10.365 -2.031,10.295 -2.073,10.19 L -2.174,9.798 c 0,-0.212 0.113,-0.346 0.34,-0.403 H 1.043 L -0.754,2.386 C -0.812,2.181 -0.842,1.956 -0.842,1.711 -0.842,1 -0.561,0.429 0,0" /></g><g
       transform="translate(1474.1309,1554.1503)"
       id="g356"><path
         id="path358"
         style="fill:#000000;fill-opacity:1;fill-rule:nonzero;stroke:none"
         d="m 0,0 c 0.114,-0.11 0.26,-0.165 0.438,-0.165 0.355,0 0.562,0.192 0.621,0.575 v 8.07 h 8.322 c 0.17,0.024 0.311,0.091 0.425,0.201 0.115,0.111 0.172,0.251 0.172,0.422 0,0.343 -0.199,0.542 -0.597,0.599 H 1.059 v 8.07 C 1,18.156 0.793,18.347 0.438,18.347 0.26,18.347 0.114,18.292 0,18.182 -0.114,18.072 -0.184,17.935 -0.209,17.772 V 9.702 H -8.557 C -8.954,9.645 -9.153,9.446 -9.153,9.103 c 0,-0.171 0.057,-0.311 0.171,-0.422 0.114,-0.11 0.256,-0.177 0.425,-0.201 h 8.348 V 0.41 C -0.184,0.247 -0.114,0.11 0,0" /></g><g
       transform="translate(1497.902,1556.9932)"
       id="g360"><path
         id="path362"
         style="fill:#000000;fill-opacity:1;fill-rule:nonzero;stroke:none"
         d="m 0,0 v 1.003 c -2.394,0 -3.59,0.248 -3.59,0.746 v 14.574 c -0.043,0.163 -0.144,0.265 -0.305,0.306 h -0.469 c -0.634,-0.587 -1.402,-1.001 -2.303,-1.241 -0.9,-0.24 -1.867,-0.361 -2.898,-0.361 v -1.002 c 1.539,0 2.795,0.224 3.767,0.672 V 1.749 c 0,-0.498 -1.196,-0.746 -3.59,-0.746 V 0 Z" /></g><g
       id="g364"><g
         clip-path="url(#clipPath370)"
         id="g366"><g
           transform="translate(1519.7634,1459.4746)"
           id="g372"><path
             id="path374"
             style="fill:#ffffff;fill-opacity:1;fill-rule:evenodd;stroke:none"
             d="M 0,0 V -31.76 H -115.436 V 31.557 H 0 Z" /></g><g
           transform="translate(1519.7634,1459.4746)"
           id="g376"><path
             id="path378"
             style="fill:none;stroke:#000000;stroke-width:4.66599989;stroke-linecap:butt;stroke-linejoin:round;stroke-miterlimit:10;stroke-dasharray:none;stroke-opacity:1"
             d="M 0,0 V -31.76 H -115.436 V 31.557 H 0 Z" /></g></g></g><g
       transform="translate(1440.9102,1452.2079)"
       id="g380"><path
         id="path382"
         style="fill:#000000;fill-opacity:1;fill-rule:nonzero;stroke:none"
         d="M 0,0 H 0.598 C 1.093,0 1.437,0.216 1.63,0.647 l 6.393,13.28 c 0.145,0.198 0.993,0.297 2.545,0.297 v 1.82 H 4.125 v -1.82 c 0.373,0 0.764,-0.02 1.173,-0.061 0.409,-0.041 0.614,-0.12 0.614,-0.236 l -4.347,-9.133 -4.534,9.43 h 1.973 v 1.82 h -8.977 v -1.82 h 2.444 L -1.032,0.647 C -0.839,0.216 -0.495,0 0,0" /></g><g
       transform="translate(1455.3737,1447.861)"
       id="g384"><path
         id="path386"
         style="fill:#000000;fill-opacity:1;fill-rule:nonzero;stroke:none"
         d="m 0,0 c 0.561,-0.429 1.219,-0.644 1.973,-0.644 0.67,0 1.304,0.18 1.903,0.539 0.599,0.36 1.114,0.824 1.546,1.391 0.431,0.568 0.78,1.179 1.049,1.832 L 6.496,3.216 6.42,3.417 6.219,3.509 H 5.805 C 5.696,3.509 5.599,3.428 5.516,3.265 5.189,2.467 4.714,1.751 4.09,1.116 3.466,0.48 2.777,0.163 2.023,0.163 c -0.293,0 -0.505,0.12 -0.635,0.36 -0.13,0.24 -0.194,0.511 -0.194,0.812 0,0.212 0.033,0.505 0.1,0.88 l 1.86,7.18 h 3.04 c 0.168,0.041 0.26,0.114 0.277,0.22 l 0.1,0.403 c 0,0.188 -0.1,0.314 -0.301,0.379 H 3.405 l 0.98,3.803 c 0.017,0.049 0.025,0.13 0.025,0.245 0,0.236 -0.088,0.43 -0.264,0.581 -0.176,0.15 -0.377,0.226 -0.603,0.226 -0.285,0 -0.54,-0.088 -0.766,-0.263 C 2.551,14.813 2.4,14.591 2.324,14.322 L 1.294,10.397 H -1.759 C -1.927,10.365 -2.031,10.295 -2.073,10.19 L -2.174,9.798 c 0,-0.212 0.113,-0.346 0.34,-0.403 H 1.043 L -0.754,2.386 C -0.812,2.181 -0.842,1.956 -0.842,1.711 -0.842,1 -0.561,0.429 0,0" /></g><g
       transform="translate(1474.1309,1444.6188)"
       id="g388"><path
         id="path390"
         style="fill:#000000;fill-opacity:1;fill-rule:nonzero;stroke:none"
         d="m 0,0 c 0.114,-0.11 0.26,-0.165 0.438,-0.165 0.355,0 0.562,0.192 0.621,0.575 v 8.07 h 8.322 c 0.17,0.024 0.311,0.091 0.425,0.201 0.115,0.111 0.172,0.251 0.172,0.422 0,0.343 -0.199,0.542 -0.597,0.599 H 1.059 v 8.07 C 1,18.156 0.793,18.347 0.438,18.347 0.26,18.347 0.114,18.292 0,18.182 -0.114,18.072 -0.184,17.935 -0.209,17.772 V 9.702 H -8.557 C -8.954,9.645 -9.153,9.446 -9.153,9.103 c 0,-0.171 0.057,-0.311 0.171,-0.422 0.114,-0.11 0.256,-0.177 0.425,-0.201 h 8.348 V 0.41 C -0.184,0.247 -0.114,0.11 0,0" /></g><g
       transform="translate(1497.902,1447.4617)"
       id="g392"><path
         id="path394"
         style="fill:#000000;fill-opacity:1;fill-rule:nonzero;stroke:none"
         d="m 0,0 v 1.003 c -2.394,0 -3.59,0.248 -3.59,0.746 v 14.574 c -0.043,0.163 -0.144,0.265 -0.305,0.306 h -0.469 c -0.634,-0.587 -1.402,-1.001 -2.303,-1.241 -0.9,-0.24 -1.867,-0.361 -2.898,-0.361 v -1.002 c 1.539,0 2.795,0.224 3.767,0.672 V 1.749 c 0,-0.498 -1.196,-0.746 -3.59,-0.746 V 0 Z" /></g><g
       id="g396"><g
         clip-path="url(#clipPath402)"
         id="g398"><g
           transform="translate(1058.0204,1541.7252)"
           id="g404"><path
             id="path406"
             style="fill:none;stroke:#ffffff;stroke-width:3.0539999;stroke-linecap:butt;stroke-linejoin:round;stroke-miterlimit:10;stroke-dasharray:none;stroke-opacity:1"
             d="m 0,0 v 1.425 h 86.526 v -28.91" /></g><g
           transform="translate(1144.5463,1491.0313)"
           id="g408"><path
             id="path410"
             style="fill:#ffffff;fill-opacity:1;fill-rule:evenodd;stroke:none"
             d="M 0,0 8.144,24.227 H -7.94 Z" /></g><g
           transform="translate(1231.0723,1459.4746)"
           id="g412"><path
             id="path414"
             style="fill:#cfe7f5;fill-opacity:1;fill-rule:evenodd;stroke:none"
             d="M 0,0 V -31.76 H -173.052 V 31.557 H 0 Z" /></g><g
           transform="translate(1231.0723,1459.4746)"
           id="g416"><path
             id="path418"
             style="fill:none;stroke:#000000;stroke-width:4.66599989;stroke-linecap:butt;stroke-linejoin:round;stroke-miterlimit:10;stroke-dasharray:none;stroke-opacity:1"
             d="M 0,0 V -31.76 H -173.052 V 31.557 H 0 Z" /></g></g></g><g
       transform="translate(1096.7827,1459.2102)"
       id="g420"><path
         id="path422"
         style="fill:#000000;fill-opacity:1;fill-rule:nonzero;stroke:none"
         d="M 0,0 C 0.19,0 0.348,0.076 0.473,0.229 0.598,0.381 0.661,0.545 0.661,0.721 0.661,0.897 0.598,1.062 0.473,1.214 0.348,1.366 0.19,1.443 0,1.443 h -20.983 c -0.203,0 -0.37,-0.077 -0.5,-0.229 -0.132,-0.152 -0.197,-0.317 -0.197,-0.493 0,-0.176 0.065,-0.34 0.197,-0.492 0.13,-0.153 0.297,-0.229 0.5,-0.229 z" /></g><g
       transform="translate(1111.5262,1450.9227)"
       id="g424"><path
         id="path426"
         style="fill:#000000;fill-opacity:1;fill-rule:nonzero;stroke:none"
         d="m 0,0 v 1.83 c -0.862,0 -1.656,0.041 -2.384,0.123 -0.644,0 -0.965,0.059 -0.965,0.176 l 1.966,4.645 H 8.463 L 10.556,1.83 H 7.044 V 0 H 19.875 V 1.83 H 16.217 L 6.643,24.51 C 6.57,24.698 6.434,24.854 6.234,24.977 6.033,25.1 5.83,25.161 5.624,25.161 H 4.805 c -0.207,0 -0.41,-0.064 -0.61,-0.193 C 3.995,24.839 3.864,24.686 3.804,24.51 L -5.624,2.164 C -5.794,1.941 -7.062,1.83 -9.428,1.83 V 0 Z M 3.549,18.458 7.681,8.604 h -8.282 z" /></g><g
       transform="translate(1136.1827,1446.2356)"
       id="g428"><path
         id="path430"
         style="fill:#000000;fill-opacity:1;fill-rule:nonzero;stroke:none"
         d="m 0,0 c 0.568,-0.433 1.233,-0.649 1.996,-0.649 0.678,0 1.32,0.181 1.926,0.543 0.606,0.363 1.128,0.83 1.564,1.403 0.437,0.572 0.791,1.188 1.062,1.847 L 6.574,3.242 6.497,3.445 6.294,3.538 H 5.874 C 5.764,3.538 5.666,3.455 5.582,3.291 5.251,2.487 4.77,1.765 4.139,1.125 3.507,0.484 2.81,0.164 2.047,0.164 1.75,0.164 1.536,0.285 1.405,0.527 1.273,0.77 1.208,1.042 1.208,1.346 c 0,0.214 0.034,0.509 0.102,0.887 l 1.881,7.238 h 3.077 c 0.17,0.041 0.263,0.115 0.28,0.222 L 6.65,10.1 c 0,0.189 -0.102,0.316 -0.305,0.382 H 3.446 l 0.991,3.834 c 0.017,0.049 0.026,0.131 0.026,0.246 0,0.238 -0.089,0.433 -0.267,0.586 C 4.018,15.3 3.814,15.376 3.586,15.376 3.297,15.376 3.039,15.287 2.81,15.111 2.581,14.934 2.428,14.71 2.352,14.439 L 1.31,10.482 h -3.09 c -0.17,-0.033 -0.276,-0.103 -0.318,-0.21 L -2.2,9.878 c 0,-0.214 0.115,-0.349 0.344,-0.407 H 1.055 L -0.763,2.405 C -0.822,2.199 -0.852,1.972 -0.852,1.725 -0.852,1.008 -0.568,0.433 0,0" /></g><g
       transform="translate(1154.0477,1450.9227)"
       id="g432"><path
         id="path434"
         style="fill:#000000;fill-opacity:1;fill-rule:nonzero;stroke:none"
         d="m 0,0 v 1.83 c -0.231,0 -0.525,0.029 -0.883,0.088 -0.358,0.058 -0.537,0.129 -0.537,0.211 l 3.732,4.1 3.84,-4.399 H 4.769 V 0 h 8.79 v 1.83 h -2.784 l -6.043,7.038 4.55,4.962 c 0.219,0.223 1.384,0.334 3.495,0.334 v 1.83 H 5.333 v -1.83 c 0.218,0 0.506,-0.023 0.864,-0.07 0.358,-0.047 0.537,-0.123 0.537,-0.229 L 3.495,10.311 0.146,14.164 h 1.346 v 1.83 H -7.28 v -1.83 h 2.766 L 1.074,7.672 -3.949,2.164 C -4.18,1.941 -5.351,1.83 -7.462,1.83 V 0 Z" /></g><g
       transform="translate(1170.9967,1446.2356)"
       id="g436"><path
         id="path438"
         style="fill:#000000;fill-opacity:1;fill-rule:nonzero;stroke:none"
         d="m 0,0 c 0.568,-0.433 1.233,-0.649 1.996,-0.649 0.678,0 1.32,0.181 1.926,0.543 0.606,0.363 1.128,0.83 1.564,1.403 0.437,0.572 0.791,1.188 1.062,1.847 L 6.574,3.242 6.497,3.445 6.294,3.538 H 5.874 C 5.764,3.538 5.666,3.455 5.582,3.291 5.251,2.487 4.77,1.765 4.139,1.125 3.507,0.484 2.81,0.164 2.047,0.164 1.75,0.164 1.536,0.285 1.405,0.527 1.273,0.77 1.208,1.042 1.208,1.346 c 0,0.214 0.034,0.509 0.102,0.887 l 1.881,7.238 h 3.077 c 0.17,0.041 0.263,0.115 0.28,0.222 L 6.65,10.1 c 0,0.189 -0.102,0.316 -0.305,0.382 H 3.446 l 0.991,3.834 c 0.017,0.049 0.026,0.131 0.026,0.246 0,0.238 -0.089,0.433 -0.267,0.586 C 4.018,15.3 3.814,15.376 3.586,15.376 3.297,15.376 3.039,15.287 2.81,15.111 2.581,14.934 2.428,14.71 2.352,14.439 L 1.31,10.482 h -3.09 c -0.17,-0.033 -0.276,-0.103 -0.318,-0.21 L -2.2,9.878 c 0,-0.214 0.115,-0.349 0.344,-0.407 H 1.055 L -0.763,2.405 C -0.822,2.199 -0.852,1.972 -0.852,1.725 -0.852,1.008 -0.568,0.433 0,0" /></g><g
       transform="translate(1189.8716,1442.967)"
       id="g440"><path
         id="path442"
         style="fill:#000000;fill-opacity:1;fill-rule:nonzero;stroke:none"
         d="m 0,0 c 0.114,-0.111 0.259,-0.166 0.436,-0.166 0.353,0 0.56,0.193 0.619,0.579 v 8.136 h 8.286 c 0.168,0.024 0.309,0.092 0.423,0.203 0.114,0.111 0.17,0.253 0.17,0.425 0,0.345 -0.198,0.547 -0.593,0.604 H 1.055 v 8.136 C 0.996,18.303 0.789,18.496 0.436,18.496 0.259,18.496 0.114,18.441 0,18.33 -0.114,18.219 -0.183,18.081 -0.208,17.917 V 9.781 H -8.52 C -8.916,9.724 -9.114,9.522 -9.114,9.177 c 0,-0.172 0.057,-0.314 0.171,-0.425 0.114,-0.111 0.255,-0.179 0.423,-0.203 h 8.312 V 0.413 C -0.183,0.249 -0.114,0.111 0,0" /></g><g
       transform="translate(1213.8419,1445.833)"
       id="g444"><path
         id="path446"
         style="fill:#000000;fill-opacity:1;fill-rule:nonzero;stroke:none"
         d="m 0,0 v 1.011 c -2.383,0 -3.575,0.25 -3.575,0.752 v 14.693 c -0.042,0.164 -0.143,0.267 -0.303,0.308 H -4.345 C -4.977,16.173 -5.741,15.755 -6.638,15.513 -7.535,15.271 -8.497,15.15 -9.524,15.15 v -1.011 c 1.533,0 2.783,0.226 3.751,0.678 V 1.763 c 0,-0.502 -1.191,-0.752 -3.574,-0.752 V 0 Z" /></g><g
       id="g448"><g
         clip-path="url(#clipPath454)"
         id="g450"><g
           transform="translate(1000.4042,1514.2405)"
           id="g456"><path
             id="path458"
             style="fill:none;stroke:#ffffff;stroke-width:3.0539999;stroke-linecap:butt;stroke-linejoin:round;stroke-miterlimit:10;stroke-dasharray:none;stroke-opacity:1"
             d="M 0,0 H 57.616 V 54.766 H 380.714" /></g><g
           transform="translate(1404.3276,1569.0063)"
           id="g460"><path
             id="path462"
             style="fill:#ffffff;fill-opacity:1;fill-rule:evenodd;stroke:none"
             d="M 0,0 -24.227,8.144 V -8.144 Z" /></g><g
           transform="translate(1144.5463,1375.7991)"
           id="g464"><path
             id="path466"
             style="fill:none;stroke:#ffffff;stroke-width:3.0539999;stroke-linecap:butt;stroke-linejoin:round;stroke-miterlimit:10;stroke-dasharray:none;stroke-opacity:1"
             d="M 0,0 V 28.706" /></g><g
           transform="translate(1144.5463,1427.7146)"
           id="g468"><path
             id="path470"
             style="fill:#ffffff;fill-opacity:1;fill-rule:evenodd;stroke:none"
             d="M 0,0 -7.94,-24.227 H 8.144 Z" /></g><g
           transform="translate(1358.1125,1458.6604)"
           id="g472"><path
             id="path474"
             style="fill:none;stroke:#ffffff;stroke-width:3.0539999;stroke-linecap:butt;stroke-linejoin:round;stroke-miterlimit:10;stroke-dasharray:none;stroke-opacity:1"
             d="M 0,0 H 23.006 V 0.814" /></g><g
           transform="translate(1404.3276,1459.4746)"
           id="g476"><path
             id="path478"
             style="fill:#ffffff;fill-opacity:1;fill-rule:evenodd;stroke:none"
             d="M 0,0 -24.431,7.126 -23.82,-8.958 Z" /></g><g
           transform="translate(1317.8016,1418.1459)"
           id="g480"><path
             id="path482"
             style="fill:#ffcc00;fill-opacity:1;fill-rule:evenodd;stroke:none"
             d="m 0,0 c -7.533,0 -13.844,1.629 -20.359,5.497 -6.311,3.664 -10.994,8.347 -14.659,14.658 -3.868,6.515 -5.497,12.827 -5.497,20.36 0,7.329 1.629,13.64 5.497,20.155 3.665,6.515 8.348,10.994 14.659,14.658 6.515,3.869 12.826,5.497 20.359,5.497 7.329,0 13.641,-1.628 20.156,-5.497 6.514,-3.664 10.993,-8.143 14.658,-14.658 3.868,-6.515 5.497,-12.826 5.497,-20.155 0,-7.533 -1.629,-13.845 -5.497,-20.36 C 31.149,13.844 26.67,9.161 20.156,5.497 13.641,1.629 7.329,0 0,0" /></g><g
           transform="translate(1317.8016,1418.1459)"
           id="g484"><path
             id="path486"
             style="fill:none;stroke:#000000;stroke-width:4.66599989;stroke-linecap:butt;stroke-linejoin:round;stroke-miterlimit:10;stroke-dasharray:none;stroke-opacity:1"
             d="m 0,0 c -7.533,0 -13.844,1.629 -20.359,5.497 -6.311,3.664 -10.994,8.347 -14.659,14.658 -3.868,6.515 -5.497,12.827 -5.497,20.36 0,7.329 1.629,13.64 5.497,20.155 3.665,6.515 8.348,10.994 14.659,14.658 6.515,3.869 12.826,5.497 20.359,5.497 7.329,0 13.641,-1.628 20.156,-5.497 6.514,-3.664 10.993,-8.143 14.658,-14.658 3.868,-6.515 5.497,-12.826 5.497,-20.155 0,-7.533 -1.629,-13.845 -5.497,-20.36 C 31.149,13.844 26.67,9.161 20.156,5.497 13.641,1.629 7.329,0 0,0 Z" /></g></g></g><g
       transform="translate(1318.0607,1456.36)"
       id="g488"><path
         id="path490"
         style="fill:#000000;fill-opacity:1;fill-rule:nonzero;stroke:none"
         d="m 0,0 v -10.628 c 0,-0.187 0.073,-0.343 0.217,-0.466 0.145,-0.123 0.32,-0.185 0.526,-0.185 0.181,0 0.35,0.062 0.507,0.185 0.157,0.123 0.236,0.279 0.236,0.466 V 0 h 10.907 c 0.181,0 0.338,0.076 0.471,0.229 0.133,0.152 0.199,0.316 0.199,0.492 0,0.176 -0.066,0.341 -0.199,0.493 -0.133,0.152 -0.29,0.229 -0.471,0.229 H 1.486 V 12.07 c 0,0.188 -0.079,0.344 -0.236,0.467 C 1.093,12.66 0.924,12.721 0.743,12.721 0.537,12.721 0.362,12.66 0.217,12.537 0.073,12.414 0,12.258 0,12.07 V 1.443 h -10.907 c -0.206,0 -0.375,-0.077 -0.507,-0.229 -0.133,-0.152 -0.2,-0.317 -0.2,-0.493 0,-0.176 0.067,-0.34 0.2,-0.492 C -11.282,0.076 -11.113,0 -10.907,0 Z" /></g><g
       id="g492"><g
         clip-path="url(#clipPath498)"
         id="g494"><g
           transform="translate(1231.0723,1459.4746)"
           id="g500"><path
             id="path502"
             style="fill:none;stroke:#ffffff;stroke-width:3.0539999;stroke-linecap:butt;stroke-linejoin:round;stroke-miterlimit:10;stroke-dasharray:none;stroke-opacity:1"
             d="M 0,0 H 23.209 V -0.814" /></g><g
           transform="translate(1277.2872,1458.6604)"
           id="g504"><path
             id="path506"
             style="fill:#ffffff;fill-opacity:1;fill-rule:evenodd;stroke:none"
             d="M 0,0 -23.82,8.754 -24.431,-7.329 Z" /></g><g
           transform="translate(423.2255,1280.5188)"
           id="g508"><path
             id="path510"
             style="fill:none;stroke:#ffffff;stroke-width:3.0539999;stroke-linecap:butt;stroke-linejoin:round;stroke-miterlimit:10;stroke-dasharray:none;stroke-opacity:1"
             d="M 0,0 H 894.576 V 114.621" /></g><g
           transform="translate(1317.8016,1418.1459)"
           id="g512"><path
             id="path514"
             style="fill:#ffffff;fill-opacity:1;fill-rule:evenodd;stroke:none"
             d="M 0,0 -8.144,-24.227 H 7.94 Z" /></g></g></g></g></svg>