<?xml version="1.0" encoding="UTF-8" standalone="no"?>
<svg
   xmlns:dc="http://purl.org/dc/elements/1.1/"
   xmlns:cc="http://creativecommons.org/ns#"
   xmlns:rdf="http://www.w3.org/1999/02/22-rdf-syntax-ns#"
   xmlns:svg="http://www.w3.org/2000/svg"
   xmlns="http://www.w3.org/2000/svg"
   viewBox="0 0 1062.6667 481.33334"
   height="481.33334"
   width="1062.6667"
   xml:space="preserve"
   id="svg2"
   version="1.1"><metadata
     id="metadata8"><rdf:RDF><cc:Work
         rdf:about=""><dc:format>image/svg+xml</dc:format><dc:type
           rdf:resource="http://purl.org/dc/dcmitype/StillImage" /></cc:Work></rdf:RDF></metadata><defs
     id="defs6"><clipPath
       id="clipPath14"
       clipPathUnits="userSpaceOnUse"><path
         id="path12"
         d="M 0,0 H 842 V 595 H 0 Z" /></clipPath><clipPath
       id="clipPath34"
       clipPathUnits="userSpaceOnUse"><path
         style="clip-rule:evenodd"
         id="path32"
         d="M -47.894,-484.495 H 1514.849 V 620.452 H -47.894 Z" /></clipPath><clipPath
       id="clipPath54"
       clipPathUnits="userSpaceOnUse"><path
         style="clip-rule:evenodd"
         id="path52"
         d="M -47.894,-484.495 H 1514.849 V 620.452 H -47.894 Z" /></clipPath><clipPath
       id="clipPath74"
       clipPathUnits="userSpaceOnUse"><path
         style="clip-rule:evenodd"
         id="path72"
         d="M -47.894,-484.495 H 1514.849 V 620.452 H -47.894 Z" /></clipPath><clipPath
       id="clipPath142"
       clipPathUnits="userSpaceOnUse"><path
         style="clip-rule:evenodd"
         id="path140"
         d="M -47.894,-484.495 H 1514.849 V 620.452 H -47.894 Z" /></clipPath><clipPath
       id="clipPath186"
       clipPathUnits="userSpaceOnUse"><path
         style="clip-rule:evenodd"
         id="path184"
         d="M -47.894,-484.495 H 1514.849 V 620.452 H -47.894 Z" /></clipPath><clipPath
       id="clipPath274"
       clipPathUnits="userSpaceOnUse"><path
         style="clip-rule:evenodd"
         id="path272"
         d="m 188.801,383.572 h 326.175 v 87.252 H 188.801 Z" /></clipPath></defs><g
     clip-path="url(#clipPath14)"
     transform="matrix(1.3333333,0,0,-1.3333333,-36,769.33333)"
     id="g10"><g
       transform="translate(109.9023,383.5715)"
       id="g16"><path
         id="path18"
         style="fill:#ffffff;fill-opacity:1;fill-rule:evenodd;stroke:none"
         d="M 0,0 V -131.435 H -52.537 V 131.621 H 0 Z" /></g><g
       transform="translate(109.9023,383.5715)"
       id="g20"><path
         id="path22"
         style="fill:none;stroke:#000000;stroke-width:4.25500011;stroke-linecap:butt;stroke-linejoin:round;stroke-miterlimit:10;stroke-dasharray:none;stroke-opacity:1"
         d="M 0,0 V -131.435 H -52.537 V 131.621 H 0 Z" /></g><g
       transform="translate(73.4264,346.0563)"
       id="g24"><path
         id="path26"
         style="fill:#000000;fill-opacity:1;fill-rule:nonzero;stroke:none"
         d="M 0,0 C 0,-1.012 -0.027,-2.039 -0.082,-3.084 1.3,-3.606 3.563,-4.623 6.706,-6.135 l 11.633,-5.58 -12.694,-6.184 C 3.938,-18.736 2.029,-19.612 -0.082,-20.526 -0.027,-21.418 0,-22.462 0,-23.658 c 0,-1.273 -0.027,-2.284 -0.082,-3.035 l 0.147,-0.147 h 0.783 l 0.131,0.131 c 0.022,1.272 0.087,2.045 0.196,2.317 0.109,0.271 0.275,0.459 0.497,0.562 0.223,0.104 1.045,0.169 2.464,0.196 1.42,0.027 2.624,0.041 3.614,0.041 h 7.473 c 2.774,-0.033 4.443,-0.057 5.009,-0.073 0.566,-0.017 0.952,-0.088 1.158,-0.212 0.207,-0.126 0.354,-0.33 0.441,-0.612 0.087,-0.283 0.141,-1.023 0.163,-2.219 l 0.147,-0.131 h 0.783 l 0.131,0.131 c -0.088,2.251 -0.131,3.551 -0.131,3.899 0,0.772 0.027,1.697 0.082,2.774 l 0.049,1.044 -0.147,0.147 h -0.783 l -0.131,-0.131 c -0.022,-1.272 -0.087,-2.045 -0.196,-2.316 -0.108,-0.272 -0.272,-0.463 -0.489,-0.571 -0.218,-0.109 -1.02,-0.177 -2.407,-0.204 -1.387,-0.028 -2.613,-0.041 -3.679,-0.041 H 3.818 l 16.202,7.799 c 0.837,0.391 1.958,0.892 3.361,1.501 v 0.636 c -2.6,1.055 -5.373,2.29 -8.321,3.704 L 3.28,-2.839 h 11.975 c 2.709,-0.033 4.362,-0.06 4.961,-0.082 0.598,-0.021 0.998,-0.092 1.199,-0.212 0.201,-0.119 0.345,-0.323 0.432,-0.612 0.087,-0.288 0.147,-1.03 0.18,-2.227 l 0.13,-0.13 h 0.783 l 0.131,0.147 c -0.098,2.142 -0.147,3.66 -0.147,4.552 0,1.316 0.049,2.86 0.147,4.634 L 22.94,3.377 H 22.141 L 22.027,3.247 C 21.994,1.974 21.926,1.202 21.823,0.93 21.719,0.658 21.556,0.47 21.333,0.367 21.11,0.264 20.313,0.196 18.943,0.163 17.572,0.131 16.343,0.114 15.255,0.114 H 7.734 C 5.004,0.158 3.345,0.188 2.757,0.204 2.17,0.22 1.776,0.288 1.574,0.408 1.373,0.527 1.229,0.731 1.142,1.02 1.055,1.308 0.995,2.05 0.963,3.247 L 0.848,3.377 H 0.049 L -0.082,3.231 C -0.027,1.991 0,0.914 0,0 m 19.318,6.065 c 1.186,0.571 2.189,1.455 3.01,2.652 0.822,1.196 1.232,2.556 1.232,4.079 0,2.327 -0.805,4.315 -2.414,5.963 -1.61,1.648 -3.661,2.472 -6.152,2.472 -2.262,0 -4.114,-0.718 -5.555,-2.154 -1.441,-1.436 -2.162,-3.296 -2.162,-5.58 0,-1.816 0.438,-3.385 1.313,-4.707 0.876,-1.322 1.915,-2.249 3.117,-2.782 1.202,-0.533 2.45,-0.799 3.744,-0.799 1.393,0 2.682,0.285 3.867,0.856 M 9.904,9.483 c -1.022,0.794 -1.534,1.898 -1.534,3.313 0,1.707 0.74,3.015 2.219,3.924 1.479,0.908 3.378,1.362 5.694,1.362 2.045,0 3.576,-0.419 4.593,-1.256 1.018,-0.838 1.526,-1.899 1.526,-3.182 0,-1.088 -0.364,-2.056 -1.093,-2.904 C 20.58,9.891 19.615,9.271 18.413,8.88 17.211,8.488 15.848,8.292 14.325,8.292 12.4,8.292 10.926,8.689 9.904,9.483 M 0.946,33.419 c 0,1.164 0.022,1.825 0.066,1.983 0.043,0.157 0.111,0.269 0.204,0.334 0.092,0.066 0.386,0.12 0.881,0.163 0.495,0.044 1.373,0.076 2.635,0.098 L 8.37,36.063 C 7.685,34.812 7.342,33.495 7.342,32.114 c 0,-0.99 0.28,-1.988 0.84,-2.994 0.561,-1.006 1.102,-1.936 1.624,-2.79 0.522,-0.854 1.352,-1.512 2.488,-1.974 1.137,-0.463 2.32,-0.694 3.549,-0.694 1.207,0 2.385,0.223 3.532,0.669 1.148,0.446 2.092,1.194 2.831,2.244 0.74,1.049 1.11,2.325 1.11,3.826 0,0.924 -0.126,1.637 -0.376,2.137 -0.195,0.272 -0.685,0.849 -1.468,1.73 -0.533,0.598 -1.017,1.196 -1.452,1.795 0.359,-0.011 0.565,-0.017 0.62,-0.017 0.424,0 1.169,-0.016 2.235,-0.049 l 0.18,0.18 c -0.077,1.087 -0.115,1.925 -0.115,2.512 0,0.653 0.038,1.567 0.115,2.742 l -0.147,0.146 h -0.62 L 22.157,41.431 C 22.07,40.386 21.978,39.753 21.88,39.53 21.782,39.307 21.657,39.146 21.505,39.048 21.352,38.951 20.866,38.882 20.044,38.844 19.223,38.806 18.263,38.787 17.164,38.787 H 6.477 c -3.763,0 -6.27,0.06 -7.521,0.18 l -0.196,-0.31 c 0.566,-1.425 0.968,-3.176 1.207,-5.254 l 0.147,-0.13 h 0.685 z m 13.004,2.644 c 1.654,0 2.79,-0.033 3.41,-0.098 0.62,-0.066 1.24,-0.297 1.86,-0.694 0.62,-0.397 1.113,-0.903 1.477,-1.517 0.364,-0.615 0.546,-1.319 0.546,-2.113 0,-1.458 -0.576,-2.668 -1.729,-3.63 -1.153,-0.963 -2.681,-1.444 -4.585,-1.444 -1.142,0 -2.2,0.174 -3.173,0.522 -0.974,0.348 -1.708,0.916 -2.203,1.705 -0.495,0.788 -0.742,1.64 -0.742,2.553 0,0.827 0.201,1.651 0.603,2.472 0.403,0.821 0.985,1.569 1.746,2.244 z m 6.298,20.997 c 0.468,-0.783 0.832,-1.525 1.093,-2.227 0.261,-0.701 0.392,-1.433 0.392,-2.194 0,-1.61 -0.533,-2.97 -1.599,-4.079 -1.066,-1.11 -2.725,-1.676 -4.976,-1.697 V 52.1 c 0,0.402 -0.027,1.229 -0.082,2.48 -0.054,1.251 -0.163,2.246 -0.326,2.986 l -0.18,0.179 c -0.315,0.033 -0.641,0.049 -0.979,0.049 -1.077,0 -2.094,-0.201 -3.051,-0.603 C 9.583,56.788 8.797,56.089 8.182,55.094 7.568,54.099 7.261,52.949 7.261,51.643 c 0,-0.957 0.163,-1.849 0.489,-2.676 0.326,-0.826 0.762,-1.609 1.305,-2.349 0.544,-0.74 1.039,-1.265 1.485,-1.575 0.446,-0.31 1.129,-0.606 2.048,-0.889 0.919,-0.283 1.95,-0.424 3.092,-0.424 1.718,0 3.187,0.367 4.405,1.101 1.218,0.735 2.083,1.686 2.594,2.856 0.511,1.169 0.767,2.406 0.767,3.712 0,0.696 -0.109,1.487 -0.326,2.374 -0.218,0.886 -0.691,1.895 -1.42,3.026 l -1.174,0.522 z M 9.741,47.948 c -0.925,0.723 -1.387,1.732 -1.387,3.026 0,1.186 0.41,2.121 1.232,2.807 0.821,0.685 2.075,1.028 3.76,1.028 0.142,0 0.343,-0.006 0.604,-0.017 0.055,-0.326 0.082,-1.245 0.082,-2.757 0,-0.631 -0.022,-1.602 -0.065,-2.913 -0.044,-1.31 -0.082,-2.063 -0.115,-2.259 -1.816,0 -3.187,0.361 -4.111,1.085 m -9.774,11.764 0.147,-0.131 h 0.685 l 0.147,0.147 c 0,1.153 0.022,1.811 0.066,1.974 0.043,0.163 0.108,0.277 0.195,0.343 0.088,0.065 0.365,0.116 0.833,0.155 0.467,0.038 1.305,0.073 2.512,0.106 l 3.459,0.065 h 8.452 c 0.609,0 1.509,-0.024 2.7,-0.073 1.191,-0.049 1.893,-0.093 2.105,-0.131 0.212,-0.038 0.37,-0.109 0.473,-0.212 0.104,-0.104 0.171,-0.223 0.204,-0.359 0.033,-0.136 0.082,-0.732 0.147,-1.787 l 0.13,-0.146 h 0.686 l 0.147,0.146 c -0.088,1.36 -0.131,2.665 -0.131,3.916 0,1.262 0.043,2.573 0.131,3.932 l -0.147,0.131 h -0.686 l -0.13,-0.147 C 22.027,66.608 21.98,66.02 21.953,65.879 21.926,65.737 21.863,65.618 21.766,65.52 21.668,65.422 21.51,65.349 21.292,65.3 21.075,65.251 20.316,65.204 19.016,65.161 17.717,65.117 16.947,65.096 16.708,65.096 H 6.477 c -3.763,0 -6.27,0.059 -7.521,0.179 l -0.196,-0.31 c 0.566,-1.425 0.968,-3.176 1.207,-5.253" /></g><g
       id="g28"><g
         clip-path="url(#clipPath34)"
         id="g30"><g
           transform="translate(185.459,515.1924)"
           id="g36"><path
             id="path38"
             style="fill:#ccff99;fill-opacity:1;fill-rule:evenodd;stroke:none"
             d="m 0,0 c -11.51,0 -22.834,-11.324 -22.834,-22.834 v -91.151 c 0,-11.51 11.324,-22.834 22.834,-22.834 h 322.648 c 11.509,0 22.834,11.324 22.834,22.834 v 91.151 C 345.482,-11.324 334.157,0 322.648,0 Z" /></g><g
           transform="translate(185.459,515.1924)"
           id="g40"><path
             id="path42"
             style="fill:none;stroke:#000000;stroke-width:4.25500011;stroke-linecap:butt;stroke-linejoin:round;stroke-miterlimit:10;stroke-dasharray:none;stroke-opacity:1"
             d="m 0,0 c -11.51,0 -22.834,-11.324 -22.834,-22.834 v -91.151 c 0,-11.51 11.324,-22.834 22.834,-22.834 h 322.648 c 11.509,0 22.834,11.324 22.834,22.834 v 91.151 C 345.482,-11.324 334.157,0 322.648,0 Z" /></g></g></g><g
       transform="translate(272.1621,484.3372)"
       id="g44"><path
         id="path46"
         style="fill:#000000;fill-opacity:1;fill-rule:nonzero;stroke:none"
         d="m 0,0 c 0.473,-1.545 1.234,-2.904 2.284,-4.079 1.05,-1.175 2.32,-2.059 3.81,-2.651 1.49,-0.593 3.122,-0.89 4.895,-0.89 2.502,0 4.756,0.544 6.763,1.632 2.007,1.088 3.549,2.611 4.625,4.569 1.077,1.957 1.616,4.165 1.616,6.624 0,3.491 -1.099,6.246 -3.296,8.264 -2.197,2.017 -5.151,3.026 -8.86,3.026 -2.001,0 -3.796,-0.329 -5.384,-0.987 C 4.865,14.85 3.508,13.92 2.382,12.718 1.256,11.516 0.459,10.208 -0.008,8.794 -0.476,7.38 -0.71,5.857 -0.71,4.226 -0.71,2.953 -0.473,1.544 0,0 m 4.968,12.629 c 1.523,1.653 3.606,2.48 6.249,2.48 1.762,0 3.367,-0.403 4.813,-1.208 1.447,-0.805 2.562,-2.094 3.345,-3.867 0.783,-1.773 1.175,-3.758 1.175,-5.955 0,-2.023 -0.343,-3.848 -1.028,-5.474 -0.685,-1.626 -1.686,-2.826 -3.002,-3.598 -1.316,-0.772 -2.817,-1.158 -4.503,-1.158 -1.425,0 -2.695,0.266 -3.81,0.799 -1.115,0.533 -2.099,1.346 -2.953,2.44 C 4.4,-1.819 3.758,-0.509 3.328,1.02 2.899,2.548 2.684,3.975 2.684,5.303 c 0,3.23 0.761,5.672 2.284,7.326 M 25.638,7.505 25.507,7.375 V 6.673 l 0.147,-0.13 1.37,-0.017 c 0.435,0 0.716,-0.038 0.841,-0.114 0.125,-0.076 0.204,-0.174 0.236,-0.294 0.033,-0.119 0.074,-0.552 0.123,-1.297 0.049,-0.745 0.073,-1.4 0.073,-1.966 V -9.643 c 0,-0.62 -0.024,-1.544 -0.073,-2.774 -0.049,-1.229 -0.093,-1.957 -0.131,-2.186 -0.038,-0.228 -0.109,-0.394 -0.212,-0.497 -0.103,-0.104 -0.226,-0.172 -0.367,-0.204 -0.142,-0.033 -0.734,-0.082 -1.779,-0.147 l -0.146,-0.131 v -0.685 l 0.146,-0.147 c 1.36,0.087 2.665,0.131 3.916,0.131 1.251,0 2.556,-0.044 3.916,-0.131 l 0.131,0.147 v 0.685 l -0.147,0.131 c -1.034,0.065 -1.621,0.111 -1.762,0.138 -0.142,0.028 -0.261,0.09 -0.359,0.188 -0.098,0.098 -0.172,0.256 -0.22,0.473 -0.049,0.218 -0.096,0.977 -0.139,2.276 -0.044,1.3 -0.065,2.07 -0.065,2.309 v 3.475 c 1.12,-0.576 2.246,-0.864 3.377,-0.864 0.489,0 0.952,0.049 1.387,0.146 0.435,0.098 0.745,0.196 0.93,0.294 0.185,0.098 0.511,0.315 0.979,0.653 0.674,0.478 1.354,0.924 2.039,1.338 0.762,0.446 1.265,0.78 1.51,1.003 0.244,0.223 0.571,0.677 0.979,1.362 0.407,0.686 0.736,1.431 0.987,2.236 0.25,0.805 0.375,1.599 0.375,2.382 0,1.109 -0.18,2.086 -0.539,2.929 -0.358,0.842 -0.848,1.544 -1.468,2.104 -0.62,0.56 -1.295,0.963 -2.023,1.208 C 38.81,8.444 38,8.566 37.108,8.566 35.683,8.566 34.679,8.348 34.097,7.913 33.515,7.478 32.485,6.586 31.006,5.237 c 0.01,0.957 0.07,2.056 0.179,3.296 l -0.31,0.196 C 29.461,8.163 27.715,7.755 25.638,7.505 m 5.368,-4.96 c 0,0.283 0.005,0.541 0.016,0.775 0.011,0.234 0.119,0.528 0.326,0.881 0.207,0.354 0.547,0.726 1.02,1.118 0.473,0.392 0.981,0.688 1.525,0.889 0.544,0.201 1.104,0.302 1.681,0.302 0.935,0 1.819,-0.25 2.651,-0.75 0.833,-0.501 1.447,-1.186 1.844,-2.056 0.397,-0.871 0.596,-1.811 0.596,-2.823 0,-1.251 -0.223,-2.39 -0.669,-3.418 -0.446,-1.028 -1.075,-1.809 -1.885,-2.342 -0.81,-0.533 -1.743,-0.799 -2.798,-0.799 -0.892,0 -1.708,0.188 -2.447,0.563 -0.74,0.375 -1.36,0.818 -1.86,1.33 z m 14.779,3.117 c 0.63,0.043 1.191,0.065 1.68,0.065 h 0.669 v -6.771 c 0,-0.196 -0.006,-0.386 -0.016,-0.571 -0.044,-0.61 -0.066,-1.349 -0.066,-2.219 0,-2.372 1.224,-3.557 3.672,-3.557 0.587,0 1.163,0.13 1.729,0.391 0.99,0.903 1.615,1.447 1.876,1.632 l -0.391,0.587 c -0.62,-0.38 -1.295,-0.571 -2.023,-0.571 -0.631,0 -1.107,0.133 -1.428,0.4 -0.321,0.266 -0.517,0.636 -0.587,1.11 -0.071,0.473 -0.106,1.476 -0.106,3.01 l 0.097,6.641 c 0.957,0.01 1.741,0.016 2.35,0.016 0.674,0 1.289,-0.006 1.844,-0.016 l 0.13,0.146 0.31,1.371 -0.114,0.114 C 54.856,7.375 53.937,7.342 52.654,7.342 c -0.631,0 -1.219,0.006 -1.763,0.017 0.153,3.295 0.283,5.286 0.392,5.971 l -0.392,0.326 C 50.174,13.21 49.254,12.792 48.134,12.4 48.199,11.932 48.232,10.279 48.232,7.44 47.601,7.114 46.774,6.76 45.752,6.38 L 45.638,6.216 V 5.792 Z m 13.431,9.626 c -0.365,-0.359 -0.547,-0.794 -0.547,-1.305 0,-0.512 0.182,-0.944 0.547,-1.297 0.364,-0.354 0.797,-0.531 1.297,-0.531 0.511,0 0.946,0.18 1.305,0.539 0.359,0.359 0.539,0.788 0.539,1.289 0,0.511 -0.18,0.946 -0.539,1.305 -0.359,0.359 -0.794,0.539 -1.305,0.539 -0.5,0 -0.933,-0.18 -1.297,-0.539 M 56.646,7.31 56.516,7.179 V 6.477 l 0.146,-0.13 1.371,-0.016 c 0.424,0 0.707,-0.041 0.848,-0.123 0.142,-0.081 0.226,-0.209 0.253,-0.383 0.027,-0.174 0.063,-0.637 0.106,-1.387 0.044,-0.751 0.066,-1.344 0.066,-1.779 v -3.214 c 0,-0.609 -0.025,-1.509 -0.074,-2.7 C 59.183,-4.446 59.14,-5.148 59.102,-5.36 59.064,-5.572 58.993,-5.73 58.89,-5.833 58.786,-5.936 58.667,-6.004 58.531,-6.037 58.395,-6.07 57.799,-6.119 56.744,-6.184 l -0.147,-0.13 V -7 l 0.147,-0.146 c 1.36,0.087 2.665,0.13 3.916,0.13 1.262,0 2.572,-0.043 3.932,-0.13 L 64.723,-7 v 0.686 l -0.147,0.13 c -1.034,0.065 -1.621,0.112 -1.762,0.139 -0.142,0.027 -0.261,0.09 -0.359,0.188 -0.098,0.097 -0.172,0.255 -0.221,0.473 -0.049,0.217 -0.095,0.976 -0.138,2.276 -0.044,1.299 -0.066,2.069 -0.066,2.309 v 3.687 c 0,2.197 0.06,4.008 0.18,5.433 L 61.9,8.533 C 60.475,7.968 58.724,7.56 56.646,7.31 m 9.709,0 -0.13,-0.131 V 6.477 l 0.147,-0.13 1.37,-0.016 c 0.424,0 0.707,-0.041 0.849,-0.123 0.141,-0.081 0.225,-0.209 0.252,-0.383 0.027,-0.174 0.063,-0.637 0.107,-1.387 0.043,-0.751 0.065,-1.344 0.065,-1.779 v -3.214 c 0,-0.609 -0.025,-1.509 -0.074,-2.7 -0.049,-1.191 -0.092,-1.893 -0.13,-2.105 -0.038,-0.212 -0.109,-0.37 -0.212,-0.473 -0.104,-0.103 -0.223,-0.171 -0.359,-0.204 -0.136,-0.033 -0.732,-0.082 -1.787,-0.147 l -0.147,-0.13 V -7 l 0.147,-0.146 c 1.36,0.087 2.665,0.13 3.916,0.13 1.262,0 2.572,-0.043 3.932,-0.13 L 74.432,-7 v 0.686 l -0.147,0.13 c -1.034,0.065 -1.618,0.112 -1.754,0.139 -0.136,0.027 -0.256,0.087 -0.359,0.179 -0.104,0.093 -0.18,0.248 -0.228,0.465 -0.049,0.218 -0.096,0.985 -0.139,2.301 -0.044,1.316 -0.065,2.213 -0.065,2.692 v 2.415 c 0,1.087 0.04,1.795 0.122,2.121 0.082,0.326 0.294,0.677 0.636,1.052 0.343,0.376 0.783,0.691 1.322,0.947 0.538,0.255 1.134,0.383 1.786,0.383 0.838,0 1.534,-0.228 2.089,-0.685 0.555,-0.457 0.916,-1.017 1.085,-1.681 0.168,-0.663 0.253,-1.61 0.253,-2.839 v -1.86 c 0,-0.609 -0.025,-1.509 -0.074,-2.7 C 78.91,-4.446 78.867,-5.148 78.829,-5.36 78.791,-5.572 78.72,-5.73 78.617,-5.833 78.513,-5.936 78.394,-6.004 78.258,-6.037 78.122,-6.07 77.526,-6.119 76.471,-6.184 l -0.147,-0.13 V -7 l 0.147,-0.146 c 1.447,0.087 2.752,0.13 3.916,0.13 1.262,0 2.572,-0.043 3.932,-0.13 L 84.45,-7 v 0.686 l -0.147,0.13 c -1.034,0.065 -1.618,0.112 -1.754,0.139 -0.136,0.027 -0.256,0.087 -0.359,0.179 -0.104,0.093 -0.18,0.248 -0.228,0.465 -0.049,0.218 -0.096,0.985 -0.139,2.301 -0.044,1.316 -0.065,2.213 -0.065,2.692 v 2.04 c 0,1.065 0.021,1.797 0.065,2.194 0.043,0.397 0.269,0.827 0.677,1.289 0.408,0.462 0.867,0.81 1.379,1.044 0.511,0.234 1.06,0.351 1.648,0.351 0.826,0 1.539,-0.22 2.137,-0.661 0.598,-0.44 0.979,-1.006 1.142,-1.697 0.163,-0.69 0.245,-1.9 0.245,-3.63 v -1.958 c 0,-2.273 -0.071,-4.117 -0.212,-5.531 l 0.212,-0.179 c 1.305,0.087 2.094,0.13 2.366,0.13 0.489,0 1.425,-0.043 2.806,-0.13 l 0.131,0.13 v 0.702 l -0.131,0.13 c -1.131,0 -1.8,0.098 -2.007,0.294 -0.207,0.196 -0.321,0.81 -0.342,1.844 -0.066,2.523 -0.098,3.877 -0.098,4.062 v 1.713 c 0,1.219 -0.036,2.176 -0.106,2.872 C 91.599,5.297 91.351,5.944 90.927,6.543 90.503,7.141 89.932,7.625 89.214,7.995 88.496,8.365 87.707,8.55 86.848,8.55 86.315,8.55 85.782,8.471 85.249,8.313 84.716,8.155 84.327,8 84.083,7.848 83.838,7.696 82.981,6.923 81.513,5.531 81.121,6.477 80.518,7.22 79.702,7.758 78.886,8.297 77.934,8.566 76.846,8.566 76.27,8.566 75.721,8.49 75.199,8.337 74.676,8.185 74.345,8.052 74.203,7.938 74.062,7.824 73.773,7.565 73.339,7.163 l -1.55,-1.42 c 0.021,1.001 0.065,1.86 0.13,2.578 l -0.31,0.212 C 70.184,7.968 68.433,7.56 66.355,7.31 m 31.99,7.978 c -0.364,-0.359 -0.546,-0.794 -0.546,-1.305 0,-0.512 0.182,-0.944 0.546,-1.297 0.365,-0.354 0.797,-0.531 1.297,-0.531 0.512,0 0.947,0.18 1.306,0.539 0.359,0.359 0.538,0.788 0.538,1.289 0,0.511 -0.179,0.946 -0.538,1.305 -0.359,0.359 -0.794,0.539 -1.306,0.539 -0.5,0 -0.932,-0.18 -1.297,-0.539 M 95.776,7.31 95.645,7.179 V 6.477 l 0.147,-0.13 1.37,-0.016 c 0.425,0 0.707,-0.041 0.849,-0.123 0.141,-0.081 0.225,-0.209 0.253,-0.383 0.027,-0.174 0.062,-0.637 0.106,-1.387 0.043,-0.751 0.065,-1.344 0.065,-1.779 v -3.214 c 0,-0.609 -0.024,-1.509 -0.073,-2.7 C 98.313,-4.446 98.269,-5.148 98.231,-5.36 98.193,-5.572 98.122,-5.73 98.019,-5.833 97.915,-5.936 97.796,-6.004 97.66,-6.037 97.524,-6.07 96.928,-6.119 95.873,-6.184 l -0.146,-0.13 V -7 l 0.146,-0.146 c 1.36,0.087 2.665,0.13 3.916,0.13 1.262,0 2.573,-0.043 3.932,-0.13 L 103.852,-7 v 0.686 l -0.147,0.13 c -1.033,0.065 -1.621,0.112 -1.762,0.139 -0.142,0.027 -0.261,0.09 -0.359,0.188 -0.098,0.097 -0.171,0.255 -0.22,0.473 -0.049,0.217 -0.096,0.976 -0.139,2.276 -0.044,1.299 -0.065,2.069 -0.065,2.309 v 3.687 c 0,2.197 0.059,4.008 0.179,5.433 l -0.31,0.212 C 99.604,7.968 97.853,7.56 95.776,7.31 M 112.272,-7 c 1.686,0 4.161,-0.049 7.424,-0.146 l 0.13,0.13 c 0.033,1.044 0.18,2.534 0.441,4.471 l -0.147,0.147 h -0.734 l -0.147,-0.131 c -0.087,-0.544 -0.21,-1.131 -0.367,-1.762 -0.158,-0.631 -0.253,-0.971 -0.286,-1.02 -0.032,-0.049 -0.117,-0.103 -0.253,-0.163 -0.136,-0.06 -0.611,-0.133 -1.427,-0.22 -0.816,-0.087 -1.822,-0.136 -3.019,-0.147 l -3.263,-0.049 h -1.142 c 0.511,0.718 1.398,1.876 2.66,3.475 l 4.274,5.433 c 1.588,2.024 2.758,3.448 3.508,4.275 v 0.783 l -0.13,0.131 c -0.74,-0.087 -1.752,-0.131 -3.035,-0.131 -2.404,0 -5.629,0.044 -9.675,0.131 l -0.131,-0.114 c 0.022,-0.479 0.033,-0.849 0.033,-1.11 0,-0.272 -0.055,-1.267 -0.163,-2.986 l 0.146,-0.146 h 0.653 l 0.131,0.13 0.097,0.522 c 0.207,1.295 0.37,2.004 0.49,2.129 0.119,0.125 0.729,0.213 1.827,0.261 1.099,0.049 1.8,0.074 2.105,0.074 h 3.851 c -0.979,-1.458 -2.034,-2.872 -3.166,-4.242 l -3.605,-4.471 c -1.284,-1.61 -2.627,-3.16 -4.031,-4.65 l 0.147,-0.62 0.147,-0.13 c 2.948,0.097 5.167,0.146 6.657,0.146 m 23.332,2.66 c -0.783,-0.468 -1.526,-0.832 -2.227,-1.093 -0.702,-0.261 -1.433,-0.392 -2.195,-0.392 -1.61,0 -2.969,0.533 -4.079,1.599 -1.109,1.066 -1.675,2.725 -1.697,4.977 h 5.238 c 0.402,0 1.229,0.027 2.48,0.081 1.251,0.054 2.246,0.163 2.986,0.326 l 0.179,0.18 c 0.033,0.315 0.049,0.642 0.049,0.979 0,1.077 -0.201,2.094 -0.604,3.051 -0.402,0.957 -1.101,1.743 -2.096,2.358 -0.995,0.614 -2.146,0.921 -3.451,0.921 -0.957,0 -1.849,-0.163 -2.676,-0.489 -0.827,-0.326 -1.61,-0.762 -2.349,-1.305 -0.74,-0.544 -1.265,-1.039 -1.575,-1.485 -0.31,-0.446 -0.606,-1.129 -0.889,-2.048 -0.283,-0.919 -0.424,-1.949 -0.424,-3.092 0,-1.718 0.367,-3.187 1.101,-4.405 0.734,-1.218 1.686,-2.083 2.855,-2.594 1.17,-0.511 2.407,-0.767 3.712,-0.767 0.696,0 1.488,0.109 2.374,0.326 0.887,0.218 1.895,0.691 3.027,1.42 l 0.522,1.175 z m -9.113,10.507 c 0.724,0.925 1.733,1.387 3.027,1.387 1.186,0 2.121,-0.41 2.806,-1.232 0.686,-0.821 1.028,-2.075 1.028,-3.76 0,-0.142 -0.005,-0.343 -0.016,-0.604 -0.326,-0.055 -1.246,-0.082 -2.757,-0.082 -0.631,0 -1.602,0.022 -2.913,0.066 -1.311,0.043 -2.064,0.081 -2.26,0.114 0,1.816 0.362,3.187 1.085,4.111 M 138.426,7.31 138.295,7.179 V 6.477 l 0.147,-0.13 1.371,-0.016 c 0.424,0 0.707,-0.041 0.848,-0.123 0.141,-0.081 0.226,-0.209 0.253,-0.383 0.027,-0.174 0.063,-0.637 0.106,-1.387 0.043,-0.751 0.065,-1.344 0.065,-1.779 v -3.214 c 0,-0.609 -0.024,-1.509 -0.073,-2.7 -0.049,-1.191 -0.093,-1.893 -0.131,-2.105 -0.038,-0.212 -0.108,-0.37 -0.212,-0.473 -0.103,-0.103 -0.223,-0.171 -0.359,-0.204 -0.136,-0.033 -0.731,-0.082 -1.786,-0.147 l -0.147,-0.13 V -7 l 0.147,-0.146 c 1.359,0.087 2.665,0.13 3.916,0.13 1.577,0 3.089,-0.043 4.535,-0.13 L 147.122,-7 v 0.686 l -0.147,0.13 c -1.381,0.076 -2.156,0.131 -2.325,0.163 -0.168,0.033 -0.304,0.095 -0.408,0.188 -0.103,0.092 -0.179,0.237 -0.228,0.432 -0.049,0.196 -0.095,0.93 -0.139,2.203 -0.043,1.273 -0.065,2.072 -0.065,2.399 v 1.811 c 0,0.989 0.084,1.808 0.253,2.455 0.169,0.647 0.503,1.186 1.003,1.615 0.501,0.43 1.088,0.645 1.763,0.645 0.968,0 1.669,-0.501 2.104,-1.501 h 0.735 c 0.021,1.098 0.119,2.371 0.293,3.818 l -0.114,0.228 c -0.424,0.196 -0.876,0.294 -1.354,0.294 -0.435,0 -0.86,-0.076 -1.273,-0.229 -0.413,-0.152 -0.775,-0.367 -1.085,-0.644 -0.31,-0.277 -0.666,-0.672 -1.069,-1.183 l -1.223,-1.55 c 0.032,1.61 0.081,2.73 0.147,3.361 l -0.31,0.212 C 142.254,7.968 140.503,7.56 138.426,7.31" /></g><g
       id="g48"><g
         clip-path="url(#clipPath54)"
         id="g50"><g
           transform="translate(180.0754,352.0123)"
           id="g56"><path
             id="path58"
             style="fill:#ccff99;fill-opacity:1;fill-rule:evenodd;stroke:none"
             d="m 0,0 c -8.725,0 -17.45,-8.725 -17.45,-17.45 v -70.174 c 0,-8.91 8.725,-17.636 17.45,-17.636 h 333.415 c 8.725,0 17.45,8.726 17.45,17.636 v 70.174 c 0,8.725 -8.725,17.45 -17.45,17.45 z" /></g><g
           transform="translate(180.0754,352.0123)"
           id="g60"><path
             id="path62"
             style="fill:none;stroke:#000000;stroke-width:4.25500011;stroke-linecap:butt;stroke-linejoin:round;stroke-miterlimit:10;stroke-dasharray:none;stroke-opacity:1"
             d="m 0,0 c -8.725,0 -17.45,-8.725 -17.45,-17.45 v -70.174 c 0,-8.91 8.725,-17.636 17.45,-17.636 h 333.415 c 8.725,0 17.45,8.726 17.45,17.636 v 70.174 c 0,8.725 -8.725,17.45 -17.45,17.45 z" /></g></g></g><g
       transform="translate(241.4636,319.4321)"
       id="g64"><path
         id="path66"
         style="fill:#000000;fill-opacity:1;fill-rule:nonzero;stroke:none"
         d="M 0,0 C 1.24,0 2.159,-0.033 2.757,-0.098 3.355,-0.163 3.742,-0.234 3.916,-0.31 4.09,-0.386 4.215,-0.549 4.291,-0.799 4.367,-1.05 4.422,-1.447 4.454,-1.991 L 4.52,-3.377 4.634,-3.508 H 5.45 l 0.146,0.131 c 0,0.489 -0.022,1.18 -0.065,2.072 C 5.499,-0.522 5.482,0.076 5.482,0.49 L 5.596,4.063 5.466,4.21 H 4.634 L 4.52,4.079 4.422,3.198 C 4.356,2.589 4.288,2.195 4.218,2.015 4.147,1.836 4.046,1.713 3.916,1.648 3.785,1.583 3.388,1.515 2.725,1.444 2.061,1.373 1.267,1.338 0.343,1.338 c -0.501,0 -1.442,0.011 -2.823,0.033 v 2.822 c 0,3.285 0.06,5.352 0.179,6.2 1.197,0.131 2.241,0.196 3.133,0.196 1.991,0 3.551,-0.19 4.683,-0.571 C 5.634,9.518 5.721,8.968 5.776,8.37 5.852,7.609 5.901,7.19 5.923,7.114 L 6.037,6.983 h 0.767 l 0.13,0.131 c 0.066,1.261 0.125,2.238 0.18,2.929 0.054,0.69 0.168,1.307 0.342,1.851 l -0.13,0.115 c -2.72,-0.066 -5.374,-0.098 -7.962,-0.098 -0.773,0 -3.465,0.032 -8.077,0.098 l -0.13,-0.115 v -0.815 l 0.13,-0.115 c 1.153,-0.043 1.877,-0.103 2.17,-0.179 0.294,-0.076 0.492,-0.174 0.596,-0.294 0.103,-0.12 0.179,-0.359 0.228,-0.718 0.049,-0.359 0.079,-1.158 0.09,-2.398 l 0.033,-3.182 v -7.554 l -0.017,-3.475 c -0.011,-1.153 -0.051,-1.893 -0.122,-2.219 -0.071,-0.327 -0.163,-0.544 -0.277,-0.653 -0.115,-0.109 -0.338,-0.196 -0.669,-0.261 -0.332,-0.065 -1.009,-0.12 -2.032,-0.163 l -0.13,-0.098 v -0.816 l 0.13,-0.13 c 2.763,0.087 4.318,0.13 4.667,0.13 0.359,0 1.919,-0.043 4.682,-0.13 l 0.131,0.13 v 0.816 l -0.131,0.098 c -1.153,0.043 -1.876,0.106 -2.17,0.187 -0.293,0.082 -0.492,0.18 -0.595,0.294 -0.104,0.114 -0.183,0.364 -0.237,0.751 -0.054,0.386 -0.087,1.172 -0.098,2.357 l -0.016,3.182 v 3.312 C -1.925,-0.016 -1.099,0 0,0 m 10.951,-7.44 c 0.571,-1.186 1.455,-2.189 2.651,-3.01 1.197,-0.822 2.556,-1.232 4.079,-1.232 2.328,0 4.316,0.805 5.964,2.415 1.648,1.609 2.472,3.66 2.472,6.151 0,2.262 -0.718,4.114 -2.154,5.555 -1.436,1.441 -3.296,2.162 -5.58,2.162 -1.817,0 -3.386,-0.438 -4.707,-1.313 -1.322,-0.876 -2.249,-1.915 -2.782,-3.117 -0.533,-1.202 -0.799,-2.45 -0.799,-3.744 0,-1.393 0.285,-2.682 0.856,-3.867 m 3.418,9.414 c 0.794,1.023 1.898,1.534 3.312,1.534 1.708,0 3.016,-0.74 3.924,-2.219 0.909,-1.479 1.363,-3.377 1.363,-5.694 0,-2.045 -0.419,-3.576 -1.256,-4.593 -0.838,-1.017 -1.899,-1.526 -3.182,-1.526 -1.088,0 -2.056,0.364 -2.904,1.093 -0.849,0.729 -1.469,1.694 -1.86,2.896 -0.392,1.202 -0.588,2.565 -0.588,4.088 0,1.925 0.397,3.399 1.191,4.421 M 28.342,3.28 28.211,3.149 V 2.447 l 0.147,-0.13 1.37,-0.016 c 0.425,0 0.707,-0.041 0.849,-0.123 0.141,-0.081 0.225,-0.209 0.253,-0.383 0.027,-0.174 0.062,-0.637 0.106,-1.387 0.043,-0.751 0.065,-1.344 0.065,-1.779 v -3.214 c 0,-0.609 -0.024,-1.509 -0.073,-2.7 -0.049,-1.191 -0.093,-1.893 -0.131,-2.105 -0.038,-0.212 -0.109,-0.37 -0.212,-0.473 -0.104,-0.104 -0.223,-0.171 -0.359,-0.204 -0.136,-0.033 -0.732,-0.082 -1.787,-0.147 l -0.146,-0.13 v -0.686 l 0.146,-0.146 c 1.36,0.087 2.665,0.13 3.916,0.13 1.577,0 3.089,-0.043 4.536,-0.13 l 0.147,0.146 v 0.686 l -0.147,0.13 c -1.381,0.076 -2.156,0.131 -2.325,0.163 -0.169,0.033 -0.305,0.095 -0.408,0.188 -0.103,0.092 -0.179,0.237 -0.228,0.432 -0.049,0.196 -0.096,0.93 -0.139,2.203 -0.044,1.273 -0.065,2.072 -0.065,2.398 v 1.812 c 0,0.989 0.084,1.808 0.253,2.455 0.168,0.647 0.503,1.186 1.003,1.615 0.5,0.43 1.088,0.645 1.762,0.645 0.968,0 1.67,-0.501 2.105,-1.501 h 0.734 c 0.022,1.098 0.12,2.371 0.294,3.818 L 39.763,4.242 C 39.338,4.438 38.887,4.536 38.408,4.536 37.973,4.536 37.549,4.46 37.136,4.307 36.722,4.155 36.361,3.94 36.051,3.663 35.741,3.386 35.384,2.991 34.982,2.48 L 33.758,0.93 c 0.033,1.61 0.082,2.73 0.147,3.361 l -0.31,0.212 C 32.17,3.938 30.419,3.53 28.342,3.28 m 20.552,-14.636 1.599,3.965 1.812,4.046 1.566,3.378 3.72,-9.349 0.783,-2.04 h 1.534 c 0.163,0.609 0.424,1.387 0.783,2.333 l 1.158,3.035 0.735,1.827 1.615,3.835 c 0.544,1.283 0.949,2.134 1.215,2.553 0.267,0.419 0.506,0.683 0.718,0.791 0.212,0.109 0.612,0.174 1.2,0.196 l 0.13,0.147 V 4.03 l -0.13,0.131 c -0.958,-0.077 -1.98,-0.115 -3.068,-0.115 -0.859,0 -1.92,0.038 -3.181,0.115 L 60.936,4.03 V 3.345 l 0.147,-0.131 c 1.044,-0.032 1.685,-0.103 1.925,-0.212 0.239,-0.109 0.359,-0.337 0.359,-0.685 0,-0.348 -0.196,-1.137 -0.588,-2.366 -0.391,-1.229 -0.941,-2.763 -1.648,-4.601 l -1.223,-3.214 -1.452,3.589 -1.877,4.732 -1.468,3.948 h -0.8 C 53.822,3.111 53.289,1.827 52.712,0.555 l -2.398,-5.368 c -0.533,-1.186 -0.946,-2.132 -1.24,-2.839 -0.37,1.087 -0.675,2.039 -0.914,2.855 l -1.517,5.254 c -0.316,1.087 -0.473,1.756 -0.473,2.007 0,0.25 0.111,0.435 0.334,0.554 0.223,0.12 0.927,0.185 2.113,0.196 l 0.114,0.131 V 4.014 L 48.584,4.161 C 47.692,4.084 46.36,4.046 44.587,4.046 c -1.643,0 -2.855,0.038 -3.638,0.115 L 40.802,4.014 V 3.345 L 40.916,3.214 C 41.677,3.127 42.14,3.056 42.303,3.002 42.466,2.948 42.618,2.85 42.76,2.708 c 0.141,-0.141 0.274,-0.372 0.399,-0.693 0.125,-0.321 0.381,-1.069 0.767,-2.243 0.386,-1.175 0.786,-2.448 1.199,-3.818 l 2.203,-7.31 z M 71.001,0.098 c 0.511,1.218 0.805,1.884 0.881,1.999 0.076,0.114 0.373,0.263 0.89,0.448 0.516,0.185 1.09,0.278 1.721,0.278 1.207,0 2.17,-0.329 2.888,-0.987 0.718,-0.659 1.077,-1.793 1.077,-3.402 -4.46,-0.631 -7.19,-1.395 -8.191,-2.293 -1.001,-0.897 -1.501,-2.145 -1.501,-3.744 0,-0.805 0.166,-1.491 0.498,-2.056 0.331,-0.566 0.81,-1.006 1.435,-1.322 0.626,-0.315 1.374,-0.473 2.244,-0.473 0.707,0 1.359,0.125 1.958,0.375 l 3.557,2.774 -0.066,-2.627 0.245,-0.228 c 0.914,0.065 1.697,0.098 2.35,0.098 0.685,0 1.425,-0.033 2.219,-0.098 l 0.13,0.13 v 0.653 l -0.13,0.147 -0.93,0.081 c -0.327,0.033 -0.55,0.074 -0.669,0.123 -0.12,0.049 -0.226,0.144 -0.319,0.285 -0.092,0.142 -0.138,0.544 -0.138,1.208 v 4.862 l 0.081,3.279 c 0,0.936 -0.185,1.754 -0.554,2.456 -0.37,0.702 -0.969,1.286 -1.795,1.754 -0.827,0.468 -1.866,0.702 -3.116,0.702 -1.828,0 -3.71,-0.718 -5.646,-2.154 V 0.343 l 0.131,-0.164 0.636,-0.163 z m 7.457,-7.065 c -1.414,-1.675 -2.845,-2.513 -4.291,-2.513 -1.687,0 -2.529,0.849 -2.529,2.546 0,1.229 0.375,2.137 1.125,2.724 0.751,0.588 2.649,1.137 5.695,1.648 z M 84.947,3.28 84.816,3.149 V 2.447 l 0.147,-0.13 1.371,-0.016 c 0.424,0 0.707,-0.041 0.848,-0.123 0.141,-0.081 0.226,-0.209 0.253,-0.383 0.027,-0.174 0.062,-0.637 0.106,-1.387 0.043,-0.751 0.065,-1.344 0.065,-1.779 v -3.214 c 0,-0.609 -0.024,-1.509 -0.073,-2.7 -0.049,-1.191 -0.093,-1.893 -0.131,-2.105 -0.038,-0.212 -0.109,-0.37 -0.212,-0.473 -0.103,-0.104 -0.223,-0.171 -0.359,-0.204 -0.136,-0.033 -0.731,-0.082 -1.786,-0.147 l -0.147,-0.13 v -0.686 l 0.147,-0.146 c 1.359,0.087 2.664,0.13 3.915,0.13 1.578,0 3.09,-0.043 4.536,-0.13 l 0.147,0.146 v 0.686 l -0.147,0.13 c -1.381,0.076 -2.156,0.131 -2.325,0.163 -0.168,0.033 -0.304,0.095 -0.408,0.188 -0.103,0.092 -0.179,0.237 -0.228,0.432 -0.049,0.196 -0.095,0.93 -0.139,2.203 -0.043,1.273 -0.065,2.072 -0.065,2.398 v 1.812 c 0,0.989 0.084,1.808 0.253,2.455 0.168,0.647 0.503,1.186 1.003,1.615 0.501,0.43 1.088,0.645 1.762,0.645 0.968,0 1.67,-0.501 2.105,-1.501 h 0.734 c 0.022,1.098 0.12,2.371 0.294,3.818 L 96.368,4.242 C 95.944,4.438 95.492,4.536 95.014,4.536 94.579,4.536 94.154,4.46 93.741,4.307 93.328,4.155 92.966,3.94 92.656,3.663 92.346,3.386 91.99,2.991 91.587,2.48 L 90.364,0.93 c 0.032,1.61 0.081,2.73 0.146,3.361 L 90.2,4.503 C 88.775,3.938 87.024,3.53 84.947,3.28 m 23.281,7.652 c 1.164,0 1.825,-0.022 1.983,-0.066 0.157,-0.043 0.269,-0.111 0.334,-0.203 0.066,-0.093 0.12,-0.387 0.163,-0.882 0.044,-0.495 0.076,-1.373 0.098,-2.635 l 0.066,-3.638 c -1.251,0.685 -2.568,1.028 -3.949,1.028 -0.99,0 -1.988,-0.28 -2.994,-0.84 -1.006,-0.561 -1.936,-1.102 -2.79,-1.624 -0.854,-0.522 -1.512,-1.352 -1.974,-2.488 -0.463,-1.137 -0.694,-2.32 -0.694,-3.549 0,-1.207 0.223,-2.385 0.669,-3.532 0.446,-1.148 1.194,-2.091 2.244,-2.831 1.049,-0.74 2.325,-1.11 3.826,-1.11 0.924,0 1.637,0.126 2.137,0.376 0.272,0.196 0.849,0.685 1.73,1.468 0.598,0.533 1.196,1.017 1.795,1.452 -0.011,-0.359 -0.017,-0.565 -0.017,-0.62 0,-0.424 -0.016,-1.169 -0.049,-2.235 l 0.18,-0.179 c 1.087,0.076 1.925,0.114 2.512,0.114 0.653,0 1.567,-0.038 2.742,-0.114 l 0.146,0.146 v 0.62 l -0.146,0.131 c -1.045,0.087 -1.678,0.179 -1.901,0.277 -0.223,0.098 -0.384,0.223 -0.482,0.376 -0.097,0.152 -0.166,0.638 -0.204,1.46 -0.038,0.821 -0.057,1.781 -0.057,2.88 V 5.401 c 0,3.763 0.06,6.27 0.18,7.521 l -0.31,0.196 c -1.425,-0.566 -3.176,-0.968 -5.254,-1.207 l -0.13,-0.147 v -0.685 z m 2.644,-13.004 c 0,-1.654 -0.033,-2.79 -0.098,-3.41 -0.066,-0.62 -0.297,-1.24 -0.694,-1.86 -0.397,-0.62 -0.903,-1.112 -1.517,-1.477 -0.615,-0.364 -1.319,-0.546 -2.113,-0.546 -1.458,0 -2.668,0.576 -3.63,1.729 -0.963,1.153 -1.444,2.681 -1.444,4.585 0,1.142 0.174,2.2 0.522,3.173 0.348,0.974 0.916,1.708 1.705,2.203 0.788,0.495 1.64,0.742 2.553,0.742 0.827,0 1.651,-0.201 2.472,-0.603 0.821,-0.403 1.569,-0.985 2.244,-1.746 z M 126.789,3.28 126.658,3.149 V 2.447 l 0.147,-0.13 1.371,-0.016 c 0.424,0 0.707,-0.041 0.848,-0.123 0.142,-0.081 0.226,-0.209 0.253,-0.383 0.027,-0.174 0.063,-0.637 0.106,-1.387 0.044,-0.751 0.066,-1.344 0.066,-1.779 v -3.214 c 0,-0.609 -0.025,-1.509 -0.074,-2.7 -0.049,-1.191 -0.092,-1.893 -0.13,-2.105 -0.039,-0.212 -0.109,-0.37 -0.213,-0.473 -0.103,-0.104 -0.223,-0.171 -0.358,-0.204 -0.137,-0.033 -0.732,-0.082 -1.787,-0.147 l -0.147,-0.13 v -0.686 l 0.147,-0.146 c 1.359,0.087 2.665,0.13 3.916,0.13 1.261,0 2.572,-0.043 3.932,-0.13 l 0.13,0.146 v 0.686 l -0.146,0.13 c -1.034,0.065 -1.618,0.112 -1.754,0.139 -0.137,0.027 -0.256,0.087 -0.359,0.179 -0.104,0.093 -0.18,0.248 -0.229,0.465 -0.049,0.218 -0.095,0.985 -0.138,2.301 -0.044,1.316 -0.066,2.213 -0.066,2.692 v 2.415 c 0,1.087 0.041,1.795 0.123,2.121 0.081,0.326 0.293,0.677 0.636,1.052 0.343,0.376 0.783,0.691 1.322,0.947 0.538,0.255 1.134,0.383 1.786,0.383 0.838,0 1.534,-0.228 2.089,-0.685 0.554,-0.457 0.916,-1.017 1.085,-1.681 0.168,-0.663 0.253,-1.61 0.253,-2.839 v -1.86 c 0,-0.609 -0.025,-1.509 -0.074,-2.7 -0.049,-1.191 -0.092,-1.893 -0.13,-2.105 -0.039,-0.212 -0.109,-0.37 -0.213,-0.473 -0.103,-0.104 -0.223,-0.171 -0.358,-0.204 -0.137,-0.033 -0.732,-0.082 -1.787,-0.147 l -0.147,-0.13 v -0.686 l 0.147,-0.146 c 1.446,0.087 2.752,0.13 3.916,0.13 1.261,0 2.572,-0.043 3.932,-0.13 l 0.13,0.146 v 0.686 l -0.146,0.13 c -1.034,0.065 -1.618,0.112 -1.754,0.139 -0.136,0.027 -0.256,0.087 -0.359,0.179 -0.104,0.093 -0.18,0.248 -0.229,0.465 -0.049,0.218 -0.095,0.985 -0.138,2.301 -0.044,1.316 -0.066,2.213 -0.066,2.692 v 2.04 c 0,1.065 0.022,1.797 0.066,2.194 0.043,0.397 0.269,0.827 0.677,1.289 0.408,0.462 0.867,0.81 1.378,1.044 0.512,0.234 1.061,0.351 1.648,0.351 0.827,0 1.539,-0.22 2.138,-0.661 0.598,-0.44 0.979,-1.006 1.142,-1.697 0.163,-0.691 0.245,-1.9 0.245,-3.63 v -1.958 c 0,-2.273 -0.071,-4.117 -0.213,-5.531 l 0.213,-0.179 c 1.305,0.087 2.093,0.13 2.365,0.13 0.49,0 1.425,-0.043 2.807,-0.13 l 0.13,0.13 v 0.702 l -0.13,0.13 c -1.132,0 -1.801,0.098 -2.007,0.294 -0.207,0.196 -0.321,0.81 -0.343,1.844 -0.065,2.523 -0.098,3.877 -0.098,4.062 v 1.713 c 0,1.219 -0.035,2.176 -0.106,2.872 -0.071,0.696 -0.318,1.343 -0.742,1.942 -0.424,0.598 -0.995,1.082 -1.713,1.452 -0.718,0.369 -1.507,0.555 -2.366,0.555 -0.533,0 -1.066,-0.079 -1.599,-0.237 -0.533,-0.158 -0.922,-0.313 -1.167,-0.465 -0.244,-0.153 -1.101,-0.925 -2.569,-2.317 -0.392,0.946 -0.996,1.689 -1.811,2.227 -0.816,0.539 -1.768,0.808 -2.856,0.808 -0.576,0 -1.126,-0.076 -1.648,-0.229 -0.522,-0.152 -0.854,-0.285 -0.995,-0.399 -0.141,-0.115 -0.43,-0.373 -0.865,-0.775 l -1.55,-1.42 c 0.022,1.001 0.065,1.86 0.131,2.578 l -0.31,0.212 C 130.618,3.938 128.867,3.53 126.789,3.28 m 30.688,-10.72 c 0.571,-1.186 1.455,-2.189 2.651,-3.01 1.197,-0.822 2.556,-1.232 4.079,-1.232 2.328,0 4.316,0.805 5.964,2.415 1.648,1.609 2.472,3.66 2.472,6.151 0,2.262 -0.718,4.114 -2.154,5.555 -1.436,1.441 -3.296,2.162 -5.58,2.162 -1.817,0 -3.386,-0.438 -4.707,-1.313 -1.322,-0.876 -2.249,-1.915 -2.782,-3.117 -0.533,-1.202 -0.8,-2.45 -0.8,-3.744 0,-1.393 0.286,-2.682 0.857,-3.867 m 3.418,9.414 c 0.794,1.023 1.898,1.534 3.312,1.534 1.708,0 3.016,-0.74 3.924,-2.219 0.908,-1.479 1.363,-3.377 1.363,-5.694 0,-2.045 -0.419,-3.576 -1.257,-4.593 -0.837,-1.017 -1.898,-1.526 -3.181,-1.526 -1.088,0 -2.056,0.364 -2.905,1.093 -0.848,0.729 -1.468,1.694 -1.86,2.896 -0.391,1.202 -0.587,2.565 -0.587,4.088 0,1.925 0.397,3.399 1.191,4.421 m 23.921,8.958 c 1.164,0 1.825,-0.022 1.983,-0.066 0.157,-0.043 0.269,-0.111 0.334,-0.203 0.065,-0.093 0.12,-0.387 0.163,-0.882 0.044,-0.495 0.076,-1.373 0.098,-2.635 l 0.065,-3.638 c -1.251,0.685 -2.567,1.028 -3.948,1.028 -0.99,0 -1.988,-0.28 -2.994,-0.84 -1.006,-0.561 -1.936,-1.102 -2.79,-1.624 -0.854,-0.522 -1.512,-1.352 -1.974,-2.488 -0.463,-1.137 -0.694,-2.32 -0.694,-3.549 0,-1.207 0.223,-2.385 0.669,-3.532 0.446,-1.148 1.194,-2.091 2.244,-2.831 1.049,-0.74 2.325,-1.11 3.826,-1.11 0.924,0 1.637,0.126 2.137,0.376 0.272,0.196 0.848,0.685 1.73,1.468 0.598,0.533 1.196,1.017 1.794,1.452 -0.011,-0.359 -0.016,-0.565 -0.016,-0.62 0,-0.424 -0.016,-1.169 -0.049,-2.235 l 0.18,-0.179 c 1.087,0.076 1.925,0.114 2.512,0.114 0.653,0 1.567,-0.038 2.741,-0.114 l 0.147,0.146 v 0.62 l -0.147,0.131 c -1.044,0.087 -1.678,0.179 -1.901,0.277 -0.223,0.098 -0.383,0.223 -0.481,0.376 -0.098,0.152 -0.166,0.638 -0.204,1.46 -0.038,0.821 -0.057,1.781 -0.057,2.88 V 5.401 c 0,3.763 0.06,6.27 0.18,7.521 l -0.31,0.196 c -1.426,-0.566 -3.177,-0.968 -5.254,-1.207 l -0.131,-0.147 v -0.685 z m 2.643,-13.004 c 0,-1.654 -0.032,-2.79 -0.098,-3.41 -0.065,-0.62 -0.296,-1.24 -0.693,-1.86 -0.397,-0.62 -0.903,-1.112 -1.517,-1.477 -0.615,-0.364 -1.319,-0.546 -2.113,-0.546 -1.458,0 -2.668,0.576 -3.631,1.729 -0.962,1.153 -1.444,2.681 -1.444,4.585 0,1.142 0.174,2.2 0.523,3.173 0.348,0.974 0.916,1.708 1.705,2.203 0.788,0.495 1.639,0.742 2.553,0.742 0.827,0 1.65,-0.201 2.472,-0.603 0.821,-0.403 1.569,-0.985 2.243,-1.746 z m 20.976,-6.298 c -0.783,-0.468 -1.526,-0.832 -2.227,-1.093 -0.702,-0.261 -1.434,-0.392 -2.195,-0.392 -1.61,0 -2.969,0.533 -4.079,1.599 -1.109,1.066 -1.675,2.725 -1.697,4.976 h 5.238 c 0.402,0 1.229,0.028 2.48,0.082 1.25,0.054 2.246,0.163 2.986,0.326 l 0.179,0.18 c 0.033,0.315 0.049,0.642 0.049,0.979 0,1.077 -0.201,2.094 -0.604,3.051 -0.402,0.957 -1.101,1.743 -2.096,2.358 -0.996,0.614 -2.146,0.921 -3.451,0.921 -0.957,0 -1.85,-0.163 -2.676,-0.489 -0.827,-0.326 -1.61,-0.762 -2.35,-1.305 -0.739,-0.544 -1.264,-1.039 -1.574,-1.485 -0.31,-0.446 -0.607,-1.129 -0.889,-2.048 -0.283,-0.919 -0.424,-1.949 -0.424,-3.092 0,-1.718 0.367,-3.187 1.101,-4.405 0.734,-1.218 1.686,-2.083 2.855,-2.594 1.169,-0.511 2.407,-0.767 3.712,-0.767 0.696,0 1.487,0.109 2.374,0.326 0.886,0.218 1.895,0.691 3.027,1.42 l 0.522,1.175 z m -9.113,10.507 c 0.723,0.925 1.732,1.387 3.027,1.387 1.185,0 2.121,-0.41 2.806,-1.232 0.685,-0.821 1.028,-2.075 1.028,-3.76 0,-0.142 -0.005,-0.343 -0.016,-0.604 -0.327,-0.055 -1.246,-0.082 -2.758,-0.082 -0.631,0 -1.601,0.022 -2.912,0.066 -1.311,0.043 -2.064,0.081 -2.26,0.114 0,1.816 0.362,3.187 1.085,4.111 m 11.771,9.774 -0.13,-0.147 v -0.685 l 0.147,-0.147 c 1.153,0 1.811,-0.022 1.974,-0.066 0.163,-0.043 0.277,-0.108 0.343,-0.195 0.065,-0.088 0.116,-0.365 0.155,-0.832 0.038,-0.468 0.073,-1.306 0.106,-2.513 l 0.065,-3.459 v -8.452 c 0,-0.609 -0.025,-1.509 -0.073,-2.7 -0.049,-1.191 -0.093,-1.893 -0.131,-2.105 -0.038,-0.212 -0.109,-0.37 -0.212,-0.473 -0.104,-0.104 -0.223,-0.171 -0.359,-0.204 -0.136,-0.033 -0.732,-0.082 -1.787,-0.147 l -0.146,-0.13 v -0.686 l 0.146,-0.146 c 1.36,0.087 2.665,0.13 3.916,0.13 1.262,0 2.573,-0.043 3.932,-0.13 l 0.131,0.146 v 0.686 l -0.147,0.13 c -1.033,0.065 -1.621,0.112 -1.762,0.139 -0.142,0.027 -0.261,0.09 -0.359,0.188 -0.098,0.097 -0.171,0.255 -0.22,0.473 -0.049,0.217 -0.096,0.976 -0.139,2.276 -0.044,1.299 -0.065,2.069 -0.065,2.308 V 5.401 c 0,3.763 0.059,6.27 0.179,7.521 l -0.31,0.196 c -1.425,-0.566 -3.176,-0.968 -5.254,-1.207" /></g><g
       id="g68"><g
         clip-path="url(#clipPath74)"
         id="g70"><g
           transform="translate(162.6249,446.8759)"
           id="g76"><path
             id="path78"
             style="fill:none;stroke:#ffffff;stroke-width:2.78500009;stroke-linecap:butt;stroke-linejoin:round;stroke-miterlimit:10;stroke-dasharray:none;stroke-opacity:1"
             d="M 0,0 H -31.559" /></g><g
           transform="translate(109.9023,446.8759)"
           id="g80"><path
             id="path82"
             style="fill:#ffffff;fill-opacity:1;fill-rule:evenodd;stroke:none"
             d="M 0,0 22.092,-7.426 V 7.24 Z" /></g><g
           transform="translate(109.9023,299.4753)"
           id="g84"><path
             id="path86"
             style="fill:none;stroke:#ffffff;stroke-width:2.78500009;stroke-linecap:butt;stroke-linejoin:round;stroke-miterlimit:10;stroke-dasharray:none;stroke-opacity:1"
             d="M 0,0 H 31.559" /></g><g
           transform="translate(162.6249,299.4753)"
           id="g88"><path
             id="path90"
             style="fill:#ffffff;fill-opacity:1;fill-rule:evenodd;stroke:none"
             d="M 0,0 -22.092,7.24 V -7.426 Z" /></g><g
           transform="translate(636.2003,331.0346)"
           id="g92"><path
             id="path94"
             style="fill:#ffffff;fill-opacity:1;fill-rule:evenodd;stroke:none"
             d="M 0,0 V -78.898 H -52.537 V 78.898 H 0 Z" /></g><g
           transform="translate(636.2003,331.0346)"
           id="g96"><path
             id="path98"
             style="fill:none;stroke:#000000;stroke-width:4.25500011;stroke-linecap:butt;stroke-linejoin:round;stroke-miterlimit:10;stroke-dasharray:none;stroke-opacity:1"
             d="M 0,0 V -78.898 H -52.537 V 78.898 H 0 Z" /></g></g></g><g
       transform="translate(600.3382,279.5441)"
       id="g100"><path
         id="path102"
         style="fill:#000000;fill-opacity:1;fill-rule:nonzero;stroke:none"
         d="m 0,0 0.114,0.131 0.098,1.24 c 0.044,0.38 0.095,0.649 0.155,0.807 0.06,0.158 0.133,0.272 0.22,0.343 0.088,0.07 0.24,0.133 0.457,0.187 0.218,0.055 0.579,0.093 1.085,0.115 0.506,0.021 1.161,0.032 1.966,0.032 l 3.704,0.017 h 5.988 c 0.957,0 2.347,-0.03 4.169,-0.09 1.822,-0.06 2.773,-0.136 2.855,-0.229 0.082,-0.092 0.286,-0.459 0.612,-1.101 l 0.163,-0.13 h 0.539 l 0.13,0.13 c -0.087,1.066 -0.13,1.974 -0.13,2.725 0,0.25 0.01,0.761 0.032,1.534 0.065,2.349 0.098,3.948 0.098,4.797 0,1.261 -0.117,2.496 -0.351,3.703 -0.234,1.208 -0.699,2.412 -1.395,3.614 -0.696,1.202 -1.612,2.274 -2.749,3.215 -1.137,0.94 -2.423,1.666 -3.859,2.178 -1.436,0.511 -2.888,0.767 -4.356,0.767 -1.512,0 -2.934,-0.281 -4.267,-0.841 C 3.946,22.584 2.777,21.763 1.77,20.681 0.764,19.598 0.057,18.361 -0.351,16.969 -0.759,15.576 -0.963,13.792 -0.963,11.617 l 0.164,-7.636 c 0,-0.685 -0.044,-1.969 -0.131,-3.85 L -0.816,0 Z M 16.708,5.939 11.911,5.906 H 6.787 c -2.24,0 -4.252,0.044 -6.036,0.131 -0.218,1.349 -0.327,2.752 -0.327,4.209 0,3.535 0.849,6.124 2.545,7.767 1.697,1.642 4.085,2.464 7.163,2.464 2.089,0 3.965,-0.376 5.629,-1.126 1.664,-0.751 2.921,-1.885 3.769,-3.402 0.849,-1.517 1.273,-3.543 1.273,-6.078 0,-1.447 -0.109,-2.725 -0.326,-3.834 C 18.9,5.972 17.643,5.939 16.708,5.939 m -5.727,23.134 c -1.218,0.511 -1.885,0.805 -1.999,0.881 -0.114,0.076 -0.264,0.373 -0.449,0.889 -0.185,0.517 -0.277,1.091 -0.277,1.722 0,1.207 0.329,2.17 0.987,2.888 0.658,0.718 1.792,1.077 3.402,1.077 0.631,-4.46 1.395,-7.19 2.292,-8.191 0.898,-1.001 2.146,-1.501 3.745,-1.501 0.805,0 1.49,0.166 2.056,0.498 0.565,0.331 1.006,0.81 1.321,1.435 0.316,0.626 0.473,1.373 0.473,2.244 0,0.707 -0.125,1.359 -0.375,1.958 l -2.774,3.557 2.627,-0.066 0.229,0.245 c -0.066,0.914 -0.098,1.697 -0.098,2.35 0,0.685 0.032,1.424 0.098,2.219 l -0.131,0.13 h -0.652 l -0.147,-0.13 -0.082,-0.93 c -0.032,-0.327 -0.073,-0.55 -0.122,-0.669 -0.049,-0.12 -0.144,-0.226 -0.286,-0.319 -0.141,-0.092 -0.544,-0.138 -1.207,-0.138 H 14.75 l -3.28,0.081 c -0.935,0 -1.754,-0.185 -2.455,-0.554 C 8.313,38.379 7.728,37.78 7.261,36.954 6.793,36.127 6.559,35.088 6.559,33.837 c 0,-1.827 0.718,-3.709 2.154,-5.645 h 2.023 l 0.163,0.131 0.163,0.636 z m 7.065,7.457 c 1.675,-1.415 2.512,-2.845 2.512,-4.292 0,-1.686 -0.848,-2.528 -2.545,-2.528 -1.229,0 -2.138,0.375 -2.725,1.125 -0.587,0.751 -1.136,2.649 -1.648,5.695 z m -8.599,6.575 c -0.043,0.631 -0.065,1.191 -0.065,1.681 v 0.668 h 6.771 c 0.196,0 0.386,-0.005 0.571,-0.016 0.609,-0.043 1.349,-0.065 2.219,-0.065 2.371,0 3.557,1.224 3.557,3.671 0,0.587 -0.131,1.164 -0.392,1.729 -0.903,0.99 -1.446,1.616 -1.631,1.877 l -0.588,-0.392 c 0.381,-0.62 0.571,-1.294 0.571,-2.023 0,-0.631 -0.133,-1.107 -0.399,-1.428 -0.267,-0.321 -0.637,-0.516 -1.11,-0.587 -0.473,-0.071 -1.477,-0.106 -3.01,-0.106 L 9.3,48.212 c -0.011,0.957 -0.016,1.74 -0.016,2.349 0,0.675 0.005,1.289 0.016,1.844 l -0.147,0.131 -1.37,0.31 -0.114,-0.115 c 0.065,-0.554 0.097,-1.474 0.097,-2.757 0,-0.631 -0.005,-1.218 -0.016,-1.762 -3.296,0.152 -5.286,0.283 -5.972,0.391 L 1.452,48.212 c 0.446,-0.718 0.865,-1.637 1.256,-2.758 0.468,0.066 2.122,0.098 4.961,0.098 0.326,-0.631 0.679,-1.457 1.06,-2.48 l 0.163,-0.114 h 0.424 z m 1.534,13.443 c -1.218,0.511 -1.885,0.805 -1.999,0.881 -0.114,0.076 -0.264,0.373 -0.449,0.889 -0.185,0.517 -0.277,1.091 -0.277,1.722 0,1.207 0.329,2.17 0.987,2.888 0.658,0.718 1.792,1.076 3.402,1.076 0.631,-4.459 1.395,-7.19 2.292,-8.19 0.898,-1.001 2.146,-1.501 3.745,-1.501 0.805,0 1.49,0.165 2.056,0.497 0.565,0.332 1.006,0.811 1.321,1.436 0.316,0.626 0.473,1.373 0.473,2.244 0,0.707 -0.125,1.359 -0.375,1.958 l -2.774,3.556 2.627,-0.065 0.229,0.245 c -0.066,0.914 -0.098,1.697 -0.098,2.349 0,0.686 0.032,1.425 0.098,2.219 l -0.131,0.131 h -0.652 l -0.147,-0.131 -0.082,-0.93 C 21.195,67.496 21.154,67.273 21.105,67.153 21.056,67.034 20.961,66.928 20.819,66.835 20.678,66.743 20.275,66.697 19.612,66.697 H 14.75 l -3.28,0.081 c -0.935,0 -1.754,-0.185 -2.455,-0.555 C 8.313,65.854 7.728,65.255 7.261,64.429 6.793,63.602 6.559,62.563 6.559,61.312 c 0,-1.827 0.718,-3.709 2.154,-5.645 h 2.023 l 0.163,0.13 0.163,0.637 z m 7.065,7.456 c 1.675,-1.414 2.512,-2.844 2.512,-4.291 0,-1.686 -0.848,-2.529 -2.545,-2.529 -1.229,0 -2.138,0.376 -2.725,1.126 -0.587,0.751 -1.136,2.649 -1.648,5.694 z" /></g><g
       transform="translate(94.6796,444.3387)"
       id="g104"><path
         id="path106"
         style="fill:#000000;fill-opacity:1;fill-rule:nonzero;stroke:none"
         d="m 0,0 h -1.659 c 0,-0.209 -0.027,-0.475 -0.08,-0.798 -0.053,-0.324 -0.117,-0.486 -0.191,-0.486 L -5.648,2.09 -1.659,5.562 V 4.312 H 0 V 12.26 H -1.659 V 9.742 l -6.382,-5.463 -4.498,4.114 c -0.202,0.197 -0.304,1.25 -0.304,3.159 h -1.659 v -6.73 h 1.659 c 0,0.197 0.022,0.458 0.064,0.781 0.043,0.324 0.112,0.486 0.208,0.486 L -9.349,3.16 -12.843,0.132 v 1.217 h -1.659 v -7.931 h 1.659 v 2.501 l 5.887,5.052 4.994,-4.542 c 0.202,-0.209 0.303,-1.267 0.303,-3.176 l 1.659,0 z" /></g><g
       transform="translate(630.3217,361.8354)"
       id="g108"><path
         id="path110"
         style="fill:#000000;fill-opacity:1;fill-rule:nonzero;stroke:none"
         d="m 0,0 c 0.581,0.732 0.872,1.56 0.872,2.485 0,1.222 -0.386,2.336 -1.158,3.344 -0.772,1.007 -1.718,1.774 -2.839,2.303 l -15.006,7.265 c -0.18,0.164 -0.27,0.954 -0.27,2.37 h -1.65 v -5.876 h 1.65 c 0,0.34 0.019,0.697 0.056,1.07 0.037,0.373 0.108,0.56 0.214,0.56 L -9.946,9.56 -18.401,5.454 v 1.774 h -1.65 v -8.194 h 1.65 v 2.228 l 12.77,6.198 2.506,-1.223 c 0.761,-0.353 1.401,-0.863 1.919,-1.529 0.518,-0.667 0.778,-1.408 0.778,-2.224 0,-0.121 -0.022,-0.303 -0.064,-0.545 -0.37,0.66 -0.946,0.99 -1.729,0.99 -0.539,0 -0.994,-0.192 -1.364,-0.577 -0.37,-0.386 -0.555,-0.859 -0.555,-1.42 0,-0.583 0.185,-1.067 0.555,-1.452 0.37,-0.385 0.825,-0.578 1.364,-0.578 0.899,0 1.639,0.366 2.221,1.098" /></g><g
       transform="translate(290.3416,265.562)"
       id="g112"><path
         id="path114"
         style="fill:#000000;fill-opacity:1;fill-rule:nonzero;stroke:none"
         d="m 0,0 c 0.736,-0.588 1.569,-0.882 2.499,-0.882 1.229,0 2.349,0.39 3.362,1.171 1.013,0.781 1.785,1.738 2.316,2.872 l 7.306,15.177 c 0.165,0.182 0.959,0.273 2.383,0.273 v 1.669 h -5.909 v -1.669 c 0.342,0 0.701,-0.019 1.076,-0.056 0.375,-0.038 0.563,-0.11 0.563,-0.217 L 9.613,10.06 5.485,18.611 h 1.784 v 1.669 h -8.24 v -1.669 h 2.24 L 7.501,5.696 6.271,3.161 C 5.917,2.391 5.404,1.744 4.734,1.219 4.063,0.695 3.318,0.433 2.498,0.433 2.376,0.433 2.194,0.455 1.95,0.497 2.614,0.872 2.946,1.455 2.946,2.246 2.946,2.792 2.752,3.252 2.365,3.626 1.977,4 1.502,4.187 0.937,4.187 0.351,4.187 -0.136,4 -0.523,3.626 -0.91,3.252 -1.104,2.792 -1.104,2.246 -1.104,1.337 -0.736,0.588 0,0" /></g><g
       transform="translate(342.9884,275.6216)"
       id="g116"><path
         id="path118"
         style="fill:#000000;fill-opacity:1;fill-rule:nonzero;stroke:none"
         d="M 0,0 C 0.166,0 0.309,0.069 0.431,0.209 0.552,0.347 0.613,0.497 0.613,0.658 0.613,0.84 0.552,0.995 0.431,1.123 0.309,1.251 0.166,1.316 0,1.316 h -21.314 c -0.188,0 -0.343,-0.065 -0.464,-0.193 C -21.9,0.995 -21.96,0.84 -21.96,0.658 c 0,-0.161 0.06,-0.311 0.182,-0.449 C -21.657,0.069 -21.502,0 -21.314,0 Z m 0,6.386 c 0.166,0 0.309,0.064 0.431,0.192 0.121,0.128 0.182,0.283 0.182,0.465 0,0.161 -0.061,0.31 -0.182,0.45 C 0.309,7.631 0.166,7.701 0,7.701 h -21.314 c -0.188,0 -0.343,-0.07 -0.464,-0.208 -0.122,-0.14 -0.182,-0.289 -0.182,-0.45 0,-0.182 0.06,-0.337 0.182,-0.465 0.121,-0.128 0.276,-0.192 0.464,-0.192 z" /></g><g
       transform="translate(356.4458,270.8485)"
       id="g120"><path
         id="path122"
         style="fill:#000000;fill-opacity:1;fill-rule:nonzero;stroke:none"
         d="m 0,0 c 0.695,-0.454 1.476,-0.682 2.345,-0.682 h 0.179 c 1.02,0 2.041,0.361 3.061,1.083 1.02,0.722 1.808,1.57 2.361,2.543 1.336,2.439 2.492,4.888 3.469,7.348 h 6.301 v -0.064 c 0,-0.086 0.082,-0.171 0.245,-0.257 h 0.195 c 0.575,0.054 1.124,0.265 1.645,0.634 0.521,0.369 0.852,0.816 0.993,1.34 0,0.117 -0.076,0.214 -0.228,0.289 h -8.419 c 0.999,2.716 1.813,5.61 2.443,8.679 h 5.276 c 1.845,0 2.768,-0.24 2.768,-0.722 l -0.016,-0.16 -0.033,-0.209 c 0,-0.042 0.082,-0.107 0.244,-0.192 h 0.163 c 0.565,0.053 1.14,0.275 1.726,0.666 0.587,0.39 0.88,0.826 0.88,1.307 0,0.835 -1.081,1.252 -3.241,1.252 h -9.77 c -1.227,0 -2.497,-0.268 -3.81,-0.802 C 7.463,21.518 6.31,20.78 5.317,19.839 4.323,18.897 3.658,17.844 3.322,16.678 c 0,-0.129 0.076,-0.241 0.228,-0.337 h 0.195 c 0.467,0.043 0.947,0.208 1.441,0.497 0.494,0.289 0.85,0.626 1.067,1.011 0.586,2.043 1.986,3.064 4.201,3.064 h 1.4 C 11.583,19.287 11.206,17.595 10.723,15.836 10.24,14.076 9.694,12.372 9.086,10.725 7.968,7.698 6.611,4.73 5.015,1.821 4.907,1.639 4.776,1.452 4.625,1.259 3.865,1.259 3.276,1.412 2.858,1.717 2.44,2.022 2.087,2.407 1.799,2.872 1.512,3.337 1.33,3.591 1.254,3.634 H 1.042 C 0.619,3.591 0.092,3.385 -0.537,3.016 -1.167,2.647 -1.482,2.27 -1.482,1.885 -1.189,1.083 -0.695,0.454 0,0" /></g><g
       transform="translate(392.7451,263.043)"
       id="g124"><path
         id="path126"
         style="fill:#000000;fill-opacity:1;fill-rule:nonzero;stroke:none"
         d="M 0,0 H 0.315 L 0.489,0.104 0.58,0.289 c 0,0.118 -0.033,0.208 -0.099,0.273 -3.846,3.615 -5.768,8.904 -5.768,15.867 0,1.572 0.099,3.083 0.298,4.533 0.199,1.449 0.522,2.85 0.97,4.203 0.447,1.353 1.038,2.629 1.773,3.827 0.735,1.197 1.655,2.321 2.76,3.369 0.044,0.043 0.066,0.112 0.066,0.208 L 0.497,32.77 0.315,32.858 H 0 c -0.111,0 -0.166,-0.021 -0.166,-0.064 -1.226,-0.93 -2.298,-2.016 -3.215,-3.257 -0.917,-1.241 -1.671,-2.572 -2.262,-3.995 -0.592,-1.422 -1.031,-2.904 -1.318,-4.444 -0.287,-1.54 -0.431,-3.097 -0.431,-4.669 0,-1.551 0.144,-3.096 0.431,-4.637 0.287,-1.54 0.721,-3.016 1.301,-4.428 0.58,-1.412 1.326,-2.741 2.237,-3.987 0.912,-1.246 1.998,-2.35 3.257,-3.313 C -0.166,0.022 -0.111,0 0,0" /></g><g
       transform="translate(402.4156,271.2576)"
       id="g128"><path
         id="path130"
         style="fill:#000000;fill-opacity:1;fill-rule:nonzero;stroke:none"
         d="m 0,0 v 1.669 c -0.21,0 -0.479,0.026 -0.805,0.08 -0.326,0.053 -0.489,0.117 -0.489,0.192 L 2.108,5.68 5.61,1.669 H 4.348 V 0 h 8.016 V 1.669 H 9.825 l -5.51,6.417 4.149,4.525 c 0.199,0.203 1.261,0.304 3.187,0.304 v 1.669 H 4.863 v -1.669 c 0.199,0 0.462,-0.021 0.788,-0.064 0.326,-0.043 0.49,-0.112 0.49,-0.208 L 3.186,9.402 0.133,12.915 h 1.228 v 1.669 h -8 v -1.669 h 2.523 L 0.979,6.995 -3.601,1.973 C -3.812,1.77 -4.879,1.669 -6.805,1.669 V 0 Z" /></g><g
       transform="translate(417.8043,263.043)"
       id="g132"><path
         id="path134"
         style="fill:#000000;fill-opacity:1;fill-rule:nonzero;stroke:none"
         d="m 0,0 0.166,0.064 c 1.259,0.963 2.342,2.062 3.248,3.297 0.906,1.236 1.655,2.583 2.246,4.043 0.591,1.46 1.022,2.942 1.293,4.445 0.27,1.502 0.406,3.029 0.406,4.58 0,2.096 -0.252,4.15 -0.754,6.161 -0.503,2.011 -1.296,3.904 -2.379,5.68 -1.083,1.775 -2.436,3.283 -4.06,4.524 L 0,32.858 H -0.315 L -0.522,32.77 -0.613,32.569 c 0,-0.128 0.044,-0.219 0.132,-0.272 C 3.342,28.681 5.254,23.392 5.254,16.429 5.254,9.466 3.32,4.155 -0.547,0.497 -0.591,0.455 -0.613,0.385 -0.613,0.289 -0.613,0.096 -0.514,0 -0.315,0 Z" /></g><g
       id="g136"><g
         clip-path="url(#clipPath142)"
         id="g138"><g
           transform="translate(530.9406,299.4753)"
           id="g144"><path
             id="path146"
             style="fill:none;stroke:#ffffff;stroke-width:2.78500009;stroke-linecap:butt;stroke-linejoin:round;stroke-miterlimit:10;stroke-dasharray:none;stroke-opacity:1"
             d="M 0,0 H 31.559" /></g><g
           transform="translate(583.6633,299.4753)"
           id="g148"><path
             id="path150"
             style="fill:#ffffff;fill-opacity:1;fill-rule:evenodd;stroke:none"
             d="M 0,0 -22.092,7.24 V -7.426 Z" /></g><g
           transform="translate(688.9229,446.8759)"
           id="g152"><path
             id="path154"
             style="fill:none;stroke:#ffffff;stroke-width:2.78500009;stroke-linecap:butt;stroke-linejoin:round;stroke-miterlimit:10;stroke-dasharray:none;stroke-opacity:1"
             d="M 0,0 H -137.005" /></g><g
           transform="translate(530.9406,446.8759)"
           id="g156"><path
             id="path158"
             style="fill:#ffffff;fill-opacity:1;fill-rule:evenodd;stroke:none"
             d="M 0,0 22.092,-7.426 V 7.24 Z" /></g><g
           transform="translate(83.7267,515.1924)"
           id="g160"><path
             id="path162"
             style="fill:none;stroke:#ffffff;stroke-width:2.78500009;stroke-linecap:butt;stroke-linejoin:round;stroke-miterlimit:10;stroke-dasharray:none;stroke-opacity:1"
             d="M 0,0 V 36.757 H 263.056 V 20.978" /></g><g
           transform="translate(346.7828,515.1924)"
           id="g164"><path
             id="path166"
             style="fill:#ffffff;fill-opacity:1;fill-rule:evenodd;stroke:none"
             d="M 0,0 7.426,22.092 H -7.24 Z" /></g><g
           transform="translate(793.9968,383.5715)"
           id="g168"><path
             id="path170"
             style="fill:#ffffff;fill-opacity:1;fill-rule:evenodd;stroke:none"
             d="M 0,0 V -131.435 H -105.074 V 131.621 L 0,131.621 Z" /></g><g
           transform="translate(793.9968,383.5715)"
           id="g172"><path
             id="path174"
             style="fill:none;stroke:#000000;stroke-width:4.25500011;stroke-linecap:butt;stroke-linejoin:round;stroke-miterlimit:10;stroke-dasharray:none;stroke-opacity:1"
             d="M 0,0 V -131.435 H -105.074 V 131.621 L 0,131.621 Z" /></g></g></g><g
       transform="translate(710.2388,302.0069)"
       id="g176"><path
         id="path178"
         style="fill:#000000;fill-opacity:1;fill-rule:nonzero;stroke:none"
         d="m 0,0 0.114,0.131 0.098,1.24 c 0.044,0.38 0.095,0.649 0.155,0.807 0.06,0.158 0.133,0.272 0.22,0.343 0.088,0.07 0.24,0.133 0.457,0.187 0.218,0.055 0.579,0.093 1.085,0.115 0.506,0.021 1.161,0.032 1.966,0.032 l 3.704,0.017 h 5.988 c 0.957,0 2.347,-0.03 4.169,-0.09 1.822,-0.06 2.773,-0.136 2.855,-0.229 0.082,-0.092 0.286,-0.459 0.612,-1.101 l 0.163,-0.13 h 0.539 l 0.13,0.13 c -0.087,1.066 -0.13,1.974 -0.13,2.725 0,0.25 0.01,0.761 0.032,1.534 0.065,2.349 0.098,3.948 0.098,4.797 0,1.261 -0.117,2.496 -0.351,3.703 -0.234,1.208 -0.699,2.412 -1.395,3.614 -0.696,1.202 -1.612,2.274 -2.749,3.215 -1.137,0.94 -2.423,1.666 -3.859,2.178 -1.436,0.511 -2.888,0.767 -4.356,0.767 -1.512,0 -2.934,-0.281 -4.267,-0.841 C 3.946,22.584 2.777,21.763 1.77,20.681 0.764,19.598 0.057,18.361 -0.351,16.969 -0.759,15.576 -0.963,13.792 -0.963,11.617 l 0.164,-7.636 c 0,-0.685 -0.044,-1.969 -0.131,-3.85 L -0.816,0 Z M 16.708,5.939 11.911,5.906 H 6.787 c -2.24,0 -4.252,0.044 -6.036,0.131 -0.218,1.349 -0.327,2.752 -0.327,4.209 0,3.535 0.849,6.124 2.545,7.767 1.697,1.642 4.085,2.464 7.163,2.464 2.089,0 3.965,-0.376 5.629,-1.126 1.664,-0.751 2.921,-1.885 3.769,-3.402 0.849,-1.517 1.273,-3.543 1.273,-6.078 0,-1.447 -0.109,-2.725 -0.326,-3.834 C 18.9,5.972 17.643,5.939 16.708,5.939 m -5.727,23.134 c -1.218,0.511 -1.885,0.805 -1.999,0.881 -0.114,0.076 -0.264,0.373 -0.449,0.889 -0.185,0.517 -0.277,1.091 -0.277,1.722 0,1.207 0.329,2.17 0.987,2.888 0.658,0.718 1.792,1.077 3.402,1.077 0.631,-4.46 1.395,-7.19 2.292,-8.191 0.898,-1.001 2.146,-1.501 3.745,-1.501 0.805,0 1.49,0.166 2.056,0.498 0.565,0.331 1.006,0.81 1.321,1.435 0.316,0.626 0.473,1.373 0.473,2.244 0,0.707 -0.125,1.359 -0.375,1.958 l -2.774,3.557 2.627,-0.066 0.229,0.245 c -0.066,0.914 -0.098,1.697 -0.098,2.35 0,0.685 0.032,1.424 0.098,2.219 l -0.131,0.13 h -0.652 l -0.147,-0.13 -0.082,-0.93 c -0.032,-0.327 -0.073,-0.55 -0.122,-0.669 -0.049,-0.12 -0.144,-0.226 -0.286,-0.319 -0.141,-0.092 -0.544,-0.138 -1.207,-0.138 H 14.75 l -3.28,0.081 c -0.935,0 -1.754,-0.185 -2.455,-0.554 C 8.313,38.379 7.728,37.78 7.261,36.954 6.793,36.127 6.559,35.088 6.559,33.837 c 0,-1.827 0.718,-3.709 2.154,-5.645 h 2.023 l 0.163,0.131 0.163,0.636 z m 7.065,7.457 c 1.675,-1.415 2.512,-2.845 2.512,-4.292 0,-1.686 -0.848,-2.528 -2.545,-2.528 -1.229,0 -2.138,0.375 -2.725,1.125 -0.587,0.751 -1.136,2.649 -1.648,5.695 z m -8.599,6.575 c -0.043,0.631 -0.065,1.191 -0.065,1.681 v 0.668 h 6.771 c 0.196,0 0.386,-0.005 0.571,-0.016 0.609,-0.043 1.349,-0.065 2.219,-0.065 2.371,0 3.557,1.224 3.557,3.671 0,0.587 -0.131,1.164 -0.392,1.729 -0.903,0.99 -1.446,1.616 -1.631,1.877 l -0.588,-0.392 c 0.381,-0.62 0.571,-1.294 0.571,-2.023 0,-0.631 -0.133,-1.107 -0.399,-1.428 -0.267,-0.321 -0.637,-0.516 -1.11,-0.587 -0.473,-0.071 -1.477,-0.106 -3.01,-0.106 L 9.3,48.212 c -0.011,0.957 -0.016,1.74 -0.016,2.349 0,0.675 0.005,1.289 0.016,1.844 l -0.147,0.131 -1.37,0.31 -0.114,-0.115 c 0.065,-0.554 0.097,-1.474 0.097,-2.757 0,-0.631 -0.005,-1.218 -0.016,-1.762 -3.296,0.152 -5.286,0.283 -5.972,0.391 L 1.452,48.212 c 0.446,-0.718 0.865,-1.637 1.256,-2.758 0.468,0.066 2.122,0.098 4.961,0.098 0.326,-0.631 0.679,-1.457 1.06,-2.48 l 0.163,-0.114 h 0.424 z m 1.534,13.443 c -1.218,0.511 -1.885,0.805 -1.999,0.881 -0.114,0.076 -0.264,0.373 -0.449,0.889 -0.185,0.517 -0.277,1.091 -0.277,1.722 0,1.207 0.329,2.17 0.987,2.888 0.658,0.718 1.792,1.076 3.402,1.076 0.631,-4.459 1.395,-7.19 2.292,-8.19 0.898,-1.001 2.146,-1.501 3.745,-1.501 0.805,0 1.49,0.165 2.056,0.497 0.565,0.332 1.006,0.811 1.321,1.436 0.316,0.626 0.473,1.373 0.473,2.244 0,0.707 -0.125,1.359 -0.375,1.958 l -2.774,3.556 2.627,-0.065 0.229,0.245 c -0.066,0.914 -0.098,1.697 -0.098,2.349 0,0.686 0.032,1.425 0.098,2.219 l -0.131,0.131 h -0.652 l -0.147,-0.131 -0.082,-0.93 C 21.195,67.496 21.154,67.273 21.105,67.153 21.056,67.034 20.961,66.928 20.819,66.835 20.678,66.743 20.275,66.697 19.612,66.697 H 14.75 l -3.28,0.081 c -0.935,0 -1.754,-0.185 -2.455,-0.555 C 8.313,65.854 7.728,65.255 7.261,64.429 6.793,63.602 6.559,62.563 6.559,61.312 c 0,-1.827 0.718,-3.709 2.154,-5.645 h 2.023 l 0.163,0.13 0.163,0.637 z m 7.065,7.456 c 1.675,-1.414 2.512,-2.844 2.512,-4.291 0,-1.686 -0.848,-2.529 -2.545,-2.529 -1.229,0 -2.138,0.376 -2.725,1.126 -0.587,0.751 -1.136,2.649 -1.648,5.694 z M 7.799,78.972 7.93,78.842 h 0.701 l 0.131,0.147 0.016,1.37 c 0,0.424 0.041,0.707 0.122,0.849 0.082,0.141 0.21,0.225 0.384,0.253 0.174,0.027 0.636,0.062 1.387,0.106 0.75,0.043 1.343,0.065 1.778,0.065 h 3.214 c 0.61,0 1.51,-0.025 2.701,-0.073 1.191,-0.049 1.892,-0.093 2.104,-0.131 0.213,-0.038 0.37,-0.109 0.474,-0.212 0.103,-0.104 0.171,-0.223 0.204,-0.359 0.032,-0.136 0.081,-0.732 0.146,-1.787 l 0.131,-0.147 h 0.685 l 0.147,0.147 c -0.087,1.36 -0.13,2.665 -0.13,3.916 0,1.262 0.043,2.572 0.13,3.932 l -0.147,0.131 h -0.685 l -0.131,-0.147 c -0.065,-1.034 -0.111,-1.618 -0.138,-1.754 -0.027,-0.136 -0.087,-0.256 -0.18,-0.359 -0.092,-0.103 -0.247,-0.179 -0.465,-0.228 -0.217,-0.049 -0.984,-0.096 -2.3,-0.139 -1.316,-0.044 -2.214,-0.065 -2.692,-0.065 h -2.415 c -1.088,0 -1.795,0.04 -2.121,0.122 -0.327,0.082 -0.677,0.294 -1.053,0.636 -0.375,0.343 -0.69,0.784 -0.946,1.322 -0.255,0.538 -0.383,1.134 -0.383,1.787 0,0.837 0.228,1.533 0.685,2.088 0.457,0.555 1.017,0.916 1.68,1.085 0.664,0.169 1.61,0.253 2.839,0.253 h 1.86 c 0.61,0 1.51,-0.025 2.701,-0.073 1.191,-0.049 1.892,-0.093 2.104,-0.131 0.213,-0.038 0.37,-0.109 0.474,-0.212 0.103,-0.104 0.171,-0.223 0.204,-0.359 0.032,-0.136 0.081,-0.732 0.146,-1.787 l 0.131,-0.147 h 0.685 l 0.147,0.147 c -0.087,1.447 -0.13,2.752 -0.13,3.916 0,1.262 0.043,2.573 0.13,3.932 l -0.147,0.131 H 21.423 L 21.292,96.92 C 21.227,95.887 21.181,95.302 21.154,95.166 21.127,95.03 21.067,94.91 20.974,94.807 20.882,94.704 20.727,94.628 20.509,94.579 20.292,94.53 19.525,94.483 18.209,94.44 16.893,94.396 15.995,94.375 15.517,94.375 h -2.04 c -1.066,0 -1.797,0.021 -2.194,0.065 -0.397,0.043 -0.827,0.269 -1.289,0.677 -0.463,0.408 -0.811,0.867 -1.045,1.379 -0.233,0.511 -0.35,1.06 -0.35,1.648 0,0.826 0.22,1.539 0.66,2.137 0.441,0.598 1.007,0.979 1.697,1.142 0.691,0.163 1.901,0.245 3.63,0.245 h 1.958 c 2.274,0 4.118,-0.071 5.532,-0.212 l 0.179,0.212 c -0.087,1.305 -0.13,2.094 -0.13,2.366 0,0.489 0.043,1.425 0.13,2.806 l -0.13,0.131 h -0.702 l -0.131,-0.131 c 0,-1.131 -0.097,-1.8 -0.293,-2.007 -0.196,-0.206 -0.81,-0.321 -1.844,-0.342 -2.523,-0.066 -3.878,-0.098 -4.063,-0.098 h -1.713 c -1.218,0 -2.175,-0.036 -2.871,-0.106 -0.696,-0.071 -1.344,-0.318 -1.942,-0.743 -0.598,-0.424 -1.082,-0.995 -1.452,-1.713 -0.37,-0.718 -0.555,-1.507 -0.555,-2.366 0,-0.533 0.079,-1.066 0.237,-1.599 C 6.953,97.333 7.108,96.944 7.261,96.7 7.413,96.455 8.185,95.598 9.578,94.13 8.631,93.738 7.889,93.135 7.35,92.319 6.812,91.503 6.543,90.551 6.543,89.464 c 0,-0.577 0.076,-1.126 0.228,-1.648 0.153,-0.522 0.286,-0.854 0.4,-0.996 0.114,-0.141 0.373,-0.429 0.775,-0.864 l 1.419,-1.55 c -1,0.021 -1.86,0.065 -2.578,0.13 L 6.575,84.226 C 7.141,82.801 7.549,81.05 7.799,78.972 m -7.979,31.983 c 0.359,-0.365 0.795,-0.547 1.306,-0.547 0.511,0 0.944,0.182 1.297,0.547 0.354,0.364 0.53,0.797 0.53,1.297 0,0.511 -0.179,0.946 -0.538,1.305 -0.359,0.359 -0.789,0.539 -1.289,0.539 -0.511,0 -0.947,-0.18 -1.306,-0.539 -0.358,-0.359 -0.538,-0.794 -0.538,-1.305 0,-0.5 0.18,-0.933 0.538,-1.297 m 7.979,-2.57 0.131,-0.13 h 0.701 l 0.131,0.147 0.016,1.37 c 0,0.424 0.041,0.707 0.122,0.849 0.082,0.141 0.21,0.225 0.384,0.252 0.174,0.027 0.636,0.063 1.387,0.106 0.75,0.044 1.343,0.066 1.778,0.066 h 3.214 c 0.61,0 1.51,-0.025 2.701,-0.074 1.191,-0.049 1.892,-0.092 2.104,-0.13 0.213,-0.038 0.37,-0.109 0.474,-0.212 0.103,-0.104 0.171,-0.223 0.204,-0.359 0.032,-0.136 0.081,-0.732 0.146,-1.787 l 0.131,-0.147 h 0.685 l 0.147,0.147 c -0.087,1.36 -0.13,2.665 -0.13,3.916 0,1.262 0.043,2.572 0.13,3.932 l -0.147,0.131 h -0.685 l -0.131,-0.147 c -0.065,-1.034 -0.111,-1.621 -0.138,-1.762 -0.027,-0.142 -0.09,-0.261 -0.188,-0.359 -0.098,-0.098 -0.255,-0.172 -0.473,-0.221 -0.218,-0.048 -0.976,-0.095 -2.276,-0.138 -1.3,-0.044 -2.069,-0.065 -2.309,-0.065 h -3.687 c -2.197,0 -4.008,0.059 -5.434,0.179 l -0.212,-0.31 c 0.566,-1.425 0.974,-3.176 1.224,-5.254 m 9.675,10.508 c 1.099,-0.011 1.82,-0.022 2.162,-0.032 0.343,-0.011 0.683,-0.044 1.02,-0.098 l 1.093,-0.164 0.212,0.082 c 0.185,0.718 0.354,1.585 0.506,2.602 0.152,1.017 0.229,1.869 0.229,2.554 0,1.947 -0.539,3.54 -1.616,4.78 -1.077,1.24 -2.366,1.861 -3.867,1.861 -0.783,0 -1.449,-0.18 -1.998,-0.539 -0.549,-0.359 -0.96,-0.867 -1.232,-1.525 -0.272,-0.659 -0.593,-1.749 -0.963,-3.272 l -0.457,-1.778 c -0.087,-0.381 -0.231,-0.745 -0.432,-1.093 -0.201,-0.349 -0.465,-0.607 -0.791,-0.775 -0.327,-0.169 -0.696,-0.253 -1.11,-0.253 -0.565,0 -1.047,0.138 -1.444,0.416 -0.397,0.277 -0.693,0.641 -0.889,1.093 -0.196,0.451 -0.294,1.009 -0.294,1.672 0,0.642 0.106,1.251 0.318,1.828 0.213,0.576 0.474,1.022 0.784,1.338 0.31,0.315 0.598,0.511 0.864,0.587 0.267,0.076 0.732,0.136 1.395,0.179 l 0.147,0.147 v 0.653 l -0.147,0.147 c -1.849,0.021 -2.991,0.076 -3.426,0.163 L 7.31,129.319 c -0.185,-0.446 -0.378,-1.099 -0.58,-1.958 -0.201,-0.859 -0.301,-1.653 -0.301,-2.382 0,-1.729 0.438,-3.173 1.313,-4.332 0.876,-1.158 2.042,-1.738 3.5,-1.738 0.609,0 1.166,0.109 1.672,0.327 0.506,0.217 0.933,0.533 1.281,0.946 0.348,0.413 0.595,0.843 0.742,1.289 0.147,0.446 0.351,1.229 0.612,2.35 0.305,1.305 0.569,2.21 0.791,2.716 0.224,0.506 0.506,0.884 0.849,1.134 0.343,0.25 0.748,0.375 1.215,0.375 0.86,0 1.599,-0.345 2.219,-1.036 0.62,-0.691 0.93,-1.612 0.93,-2.765 0,-0.805 -0.16,-1.621 -0.481,-2.448 -0.321,-0.826 -0.737,-1.408 -1.248,-1.745 -0.653,-0.088 -1.436,-0.142 -2.35,-0.164 l -0.146,-0.146 v -0.702 z m 3.704,19.948 c -0.043,-0.234 -0.114,-0.403 -0.212,-0.506 -0.098,-0.103 -0.255,-0.177 -0.473,-0.22 -0.218,-0.044 -0.949,-0.09 -2.195,-0.139 -1.245,-0.049 -2.042,-0.073 -2.39,-0.073 H 9.333 v 1.256 l 0.016,2.121 c 0,0.098 0.006,0.31 0.016,0.637 l -0.163,0.146 -1.436,0.294 -0.179,-0.147 c 0.065,-0.805 0.098,-1.659 0.098,-2.561 v -1.746 H 4.307 c -1.218,0 -2.091,0.076 -2.618,0.228 -0.528,0.152 -0.908,0.435 -1.142,0.849 -0.234,0.413 -0.351,0.902 -0.351,1.468 0,0.805 0.272,1.512 0.816,2.121 l -0.147,0.376 -2.676,0.016 c -0.163,-0.479 -0.245,-0.925 -0.245,-1.338 0,-0.501 0.079,-0.936 0.237,-1.305 0.158,-0.37 0.468,-0.805 0.93,-1.306 0.462,-0.5 1.055,-1.082 1.778,-1.745 0.724,-0.664 1.322,-1.129 1.795,-1.395 0.473,-0.267 0.99,-0.449 1.55,-0.547 0.56,-0.098 1.384,-0.147 2.472,-0.147 h 0.979 l 1.093,-2.137 0.163,-0.115 h 0.408 l 0.131,0.147 -0.115,2.105 h 6.298 c 0.61,0 1.51,-0.024 2.701,-0.073 1.191,-0.049 1.892,-0.093 2.104,-0.131 0.213,-0.038 0.37,-0.106 0.474,-0.204 0.103,-0.098 0.171,-0.218 0.204,-0.359 0.032,-0.141 0.081,-0.74 0.146,-1.795 l 0.131,-0.13 h 0.685 l 0.147,0.13 c -0.087,1.447 -0.13,2.758 -0.13,3.933 0,0.902 0.021,1.778 0.065,2.627 0.043,0.935 0.065,1.571 0.065,1.908 l -0.147,0.131 h -0.685 l -0.131,-0.131 c -0.032,-1.261 -0.07,-2.009 -0.114,-2.243 m -21.358,7.374 c 0.359,-0.364 0.795,-0.546 1.306,-0.546 0.511,0 0.944,0.182 1.297,0.546 0.354,0.365 0.53,0.797 0.53,1.298 0,0.511 -0.179,0.946 -0.538,1.305 -0.359,0.359 -0.789,0.538 -1.289,0.538 -0.511,0 -0.947,-0.179 -1.306,-0.538 -0.358,-0.359 -0.538,-0.794 -0.538,-1.305 0,-0.501 0.18,-0.933 0.538,-1.298 m 7.979,-2.569 0.131,-0.131 h 0.701 l 0.131,0.147 0.016,1.37 c 0,0.425 0.041,0.707 0.122,0.849 0.082,0.141 0.21,0.226 0.384,0.253 0.174,0.027 0.636,0.062 1.387,0.106 0.75,0.043 1.343,0.065 1.778,0.065 h 3.214 c 0.61,0 1.51,-0.024 2.701,-0.073 1.191,-0.049 1.892,-0.093 2.104,-0.131 0.213,-0.038 0.37,-0.109 0.474,-0.212 0.103,-0.103 0.171,-0.223 0.204,-0.359 0.032,-0.136 0.081,-0.732 0.146,-1.786 l 0.131,-0.147 h 0.685 l 0.147,0.147 c -0.087,1.359 -0.13,2.664 -0.13,3.915 0,1.262 0.043,2.573 0.13,3.933 l -0.147,0.13 h -0.685 l -0.131,-0.147 c -0.065,-1.033 -0.111,-1.621 -0.138,-1.762 -0.027,-0.141 -0.09,-0.261 -0.188,-0.359 -0.098,-0.098 -0.255,-0.171 -0.473,-0.22 -0.218,-0.049 -0.976,-0.095 -2.276,-0.139 -1.3,-0.043 -2.069,-0.065 -2.309,-0.065 h -3.687 c -2.197,0 -4.008,0.06 -5.434,0.179 l -0.212,-0.31 c 0.566,-1.425 0.974,-3.176 1.224,-5.253 m 1.648,9.904 c -0.043,0.631 -0.065,1.191 -0.065,1.68 v 0.669 h 6.771 c 0.196,0 0.386,-0.005 0.571,-0.016 0.609,-0.044 1.349,-0.065 2.219,-0.065 2.371,0 3.557,1.223 3.557,3.671 0,0.587 -0.131,1.164 -0.392,1.729 -0.903,0.99 -1.446,1.616 -1.631,1.877 l -0.588,-0.392 c 0.381,-0.62 0.571,-1.294 0.571,-2.023 0,-0.631 -0.133,-1.107 -0.399,-1.428 -0.267,-0.321 -0.637,-0.517 -1.11,-0.587 -0.473,-0.071 -1.477,-0.106 -3.01,-0.106 L 9.3,158.657 c -0.011,0.957 -0.016,1.74 -0.016,2.349 0,0.675 0.005,1.289 0.016,1.844 l -0.147,0.13 -1.37,0.31 -0.114,-0.114 c 0.065,-0.555 0.097,-1.474 0.097,-2.757 0,-0.631 -0.005,-1.219 -0.016,-1.762 -3.296,0.152 -5.286,0.282 -5.972,0.391 l -0.326,-0.391 c 0.446,-0.718 0.865,-1.637 1.256,-2.758 0.468,0.066 2.122,0.098 4.961,0.098 0.326,-0.631 0.679,-1.458 1.06,-2.48 l 0.163,-0.114 h 0.424 z" /></g><g
       id="g180"><g
         clip-path="url(#clipPath186)"
         id="g182"><g
           transform="translate(636.2003,299.4753)"
           id="g188"><path
             id="path190"
             style="fill:none;stroke:#ffffff;stroke-width:2.78500009;stroke-linecap:butt;stroke-linejoin:round;stroke-miterlimit:10;stroke-dasharray:none;stroke-opacity:1"
             d="M 0,0 H 36.757" /></g><g
           transform="translate(694.1209,299.4753)"
           id="g192"><path
             id="path194"
             style="fill:#ffffff;fill-opacity:1;fill-rule:evenodd;stroke:none"
             d="M 0,0 -22.092,7.24 V -7.426 Z" /></g></g></g><g
       transform="translate(770.3954,318.9162)"
       id="g196"><path
         id="path198"
         style="fill:#000000;fill-opacity:1;fill-rule:nonzero;stroke:none"
         d="m 0,0 c -0.138,1.053 -0.739,2.074 -1.803,3.063 0.011,0.771 0.096,1.539 0.256,2.305 0.159,0.765 0.388,1.686 0.686,2.761 0.297,1.075 0.515,1.982 0.654,2.72 C -0.069,11.588 0,12.342 0,13.114 v 0.195 c 0,0.858 -0.242,1.8 -0.726,2.827 -0.484,1.026 -1.138,1.941 -1.962,2.744 -0.824,0.804 -1.662,1.314 -2.513,1.532 l -0.096,0.032 -0.159,-0.065 -0.064,-0.163 v -0.195 c 0.064,-0.489 0.229,-0.978 0.495,-1.466 0.266,-0.489 0.58,-0.902 0.941,-1.238 0.128,-0.098 0.38,-0.22 0.758,-0.367 0.377,-0.147 0.672,-0.296 0.885,-0.448 0.213,-0.152 0.319,-0.348 0.319,-0.586 C -2.132,15.123 -2.21,14.368 -2.353,13.651 -2.497,12.935 -2.717,12.039 -3.015,10.963 -3.313,9.888 -3.539,8.965 -3.693,8.194 -3.847,7.423 -3.925,6.652 -3.925,5.881 V 5.669 c 0,-0.38 0.043,-0.7 0.128,-0.961 -0.872,0.586 -1.8,1.094 -2.784,1.523 -0.983,0.429 -2.012,0.779 -3.087,1.051 -0.989,0.249 -2.05,0.537 -3.182,0.863 -1.133,0.326 -2.26,0.698 -3.383,1.116 -1.122,0.418 -2.164,0.907 -3.126,1.466 -0.963,0.559 -1.652,1.143 -2.066,1.751 -0.139,0 -0.208,0.413 -0.208,1.238 0,0.706 0.261,1.239 0.782,1.597 0.521,0.358 1.133,0.537 1.835,0.537 0.212,0 0.473,-0.027 0.781,-0.081 0.309,-0.054 0.474,-0.081 0.495,-0.081 0.149,0 0.223,0.065 0.223,0.195 v 0.196 c -0.138,1.053 -0.617,1.965 -1.436,2.736 -0.319,0.272 -0.893,0.408 -1.723,0.408 -0.542,0 -1.05,-0.101 -1.523,-0.302 -0.473,-0.201 -0.851,-0.497 -1.133,-0.888 -0.282,-0.391 -0.423,-0.874 -0.423,-1.449 v -0.196 c 0,-1.173 0.253,-2.321 0.758,-3.445 0.505,-1.124 1.181,-2.148 2.026,-3.071 0.846,-0.923 1.779,-1.7 2.8,-2.33 1.319,-0.803 2.718,-1.452 4.196,-1.946 1.478,-0.495 3.403,-1.046 5.775,-1.654 1.489,-0.413 2.808,-0.901 3.956,-1.466 0.617,-0.326 1.325,-0.771 2.122,-1.336 0.181,-0.141 0.428,-0.374 0.742,-0.7 0.314,-0.326 0.598,-0.57 0.854,-0.733 0.116,-0.076 0.217,-0.114 0.303,-0.114 0.148,0 0.223,0.07 0.223,0.212 z" /></g><g
       transform="translate(777.8456,351.1322)"
       id="g200"><path
         id="path202"
         style="fill:#000000;fill-opacity:1;fill-rule:nonzero;stroke:none"
         d="m 0,0 v 0.313 l -0.104,0.173 -0.183,0.091 c -0.117,0 -0.208,-0.033 -0.271,-0.099 -3.595,-3.823 -8.855,-5.735 -15.778,-5.735 -1.564,0 -3.066,0.099 -4.507,0.296 -1.441,0.198 -2.834,0.52 -4.18,0.965 -1.345,0.444 -2.614,1.032 -3.805,1.763 -1.191,0.73 -2.308,1.645 -3.35,2.744 -0.042,0.044 -0.112,0.066 -0.207,0.066 l -0.2,-0.083 -0.088,-0.181 V 0 c 0,-0.11 0.022,-0.165 0.064,-0.165 0.925,-1.219 2.005,-2.285 3.239,-3.197 1.234,-0.912 2.558,-1.662 3.972,-2.25 1.415,-0.587 2.888,-1.024 4.419,-1.31 1.532,-0.286 3.079,-0.428 4.643,-0.428 1.542,0 3.079,0.142 4.61,0.428 1.532,0.286 2.999,0.717 4.403,1.294 1.404,0.577 2.726,1.318 3.965,2.225 1.239,0.906 2.337,1.986 3.294,3.238 C -0.021,-0.165 0,-0.11 0,0" /></g><g
       transform="translate(775.3409,355.5234)"
       id="g204"><path
         id="path206"
         style="fill:#000000;fill-opacity:1;fill-rule:nonzero;stroke:none"
         d="m 0,0 c 0.585,0.732 0.877,1.56 0.877,2.485 0,1.222 -0.388,2.336 -1.164,3.343 -0.777,1.007 -1.729,1.775 -2.856,2.303 l -15.092,7.264 c -0.18,0.165 -0.271,0.954 -0.271,2.37 h -1.659 V 11.89 h 1.659 c 0,0.34 0.019,0.696 0.056,1.069 0.037,0.373 0.109,0.56 0.215,0.56 l 8.232,-3.96 -8.503,-4.105 v 1.774 h -1.659 v -8.194 h 1.659 v 2.228 l 12.843,6.197 2.52,-1.223 c 0.766,-0.353 1.409,-0.862 1.931,-1.529 0.521,-0.667 0.781,-1.408 0.781,-2.223 0,-0.121 -0.021,-0.303 -0.064,-0.545 -0.372,0.66 -0.952,0.99 -1.738,0.99 -0.543,0 -1,-0.193 -1.372,-0.578 -0.373,-0.385 -0.559,-0.858 -0.559,-1.419 0,-0.583 0.186,-1.067 0.559,-1.452 0.372,-0.385 0.829,-0.578 1.372,-0.578 0.903,0 1.648,0.366 2.233,1.098" /></g><g
       transform="translate(775.8674,377.7971)"
       id="g208"><path
         id="path210"
         style="fill:#000000;fill-opacity:1;fill-rule:nonzero;stroke:none"
         d="M 0,0 C 0.096,0.11 0.144,0.219 0.144,0.329 L 0.08,0.543 c -0.872,0.912 -1.854,1.617 -2.944,2.117 -1.09,0.499 -2.241,0.749 -3.454,0.749 -0.872,0 -1.667,-0.17 -2.385,-0.511 -0.718,-0.34 -1.076,-0.911 -1.076,-1.712 0,-0.516 0.17,-0.955 0.51,-1.318 0.341,-0.362 0.766,-0.543 1.276,-0.543 0.5,0 0.926,0.181 1.277,0.543 0.351,0.363 0.526,0.802 0.526,1.318 0,0.538 -0.175,0.988 -0.526,1.35 h 0.398 c 1.096,0 2.138,-0.225 3.127,-0.675 0.989,-0.45 1.861,-1.082 2.617,-1.894 0.085,-0.088 0.175,-0.132 0.271,-0.132 0.106,0 0.207,0.055 0.303,0.165" /></g><g
       transform="translate(775.3409,402.8623)"
       id="g212"><path
         id="path214"
         style="fill:#000000;fill-opacity:1;fill-rule:nonzero;stroke:none"
         d="m 0,0 c 0.585,0.732 0.877,1.56 0.877,2.485 0,1.222 -0.388,2.336 -1.164,3.343 -0.777,1.007 -1.729,1.775 -2.856,2.303 l -15.092,7.264 c -0.18,0.165 -0.271,0.954 -0.271,2.37 h -1.659 V 11.89 h 1.659 c 0,0.34 0.019,0.696 0.056,1.069 0.037,0.373 0.109,0.56 0.215,0.56 l 8.232,-3.96 -8.503,-4.105 v 1.774 h -1.659 v -8.194 h 1.659 v 2.228 l 12.843,6.197 2.52,-1.223 c 0.766,-0.353 1.409,-0.862 1.931,-1.529 0.521,-0.667 0.781,-1.408 0.781,-2.223 0,-0.121 -0.021,-0.303 -0.064,-0.545 -0.372,0.66 -0.952,0.99 -1.738,0.99 -0.543,0 -1,-0.193 -1.372,-0.578 -0.373,-0.385 -0.559,-0.858 -0.559,-1.419 0,-0.583 0.186,-1.067 0.559,-1.452 0.372,-0.385 0.829,-0.578 1.372,-0.578 0.903,0 1.648,0.366 2.233,1.098" /></g><g
       transform="translate(773.4641,431.4079)"
       id="g216"><path
         id="path218"
         style="fill:#000000;fill-opacity:1;fill-rule:nonzero;stroke:none"
         d="m 0,0 c -0.751,0.821 -1.696,1.384 -2.838,1.69 -1.14,0.306 -2.391,0.459 -3.751,0.459 -2.23,0 -4.105,-0.399 -5.625,-1.197 -1.52,-0.797 -2.28,-2.245 -2.28,-4.343 0,-2.091 0.76,-3.539 2.28,-4.344 1.52,-0.805 3.395,-1.208 5.625,-1.208 1.36,0 2.611,0.153 3.751,0.459 1.142,0.306 2.087,0.871 2.838,1.696 0.751,0.824 1.126,1.957 1.126,3.397 0,1.44 -0.375,2.57 -1.126,3.391 m -0.362,-5.226 c -0.502,-0.465 -1.132,-0.798 -1.89,-0.999 -0.758,-0.202 -1.509,-0.327 -2.252,-0.378 -0.743,-0.05 -1.569,-0.075 -2.475,-0.075 -0.885,0 -1.671,0.025 -2.359,0.075 -0.687,0.051 -1.371,0.175 -2.051,0.372 -0.68,0.197 -1.245,0.526 -1.695,0.987 -0.449,0.461 -0.674,1.078 -0.674,1.853 0,0.998 0.364,1.738 1.092,2.218 0.729,0.48 1.558,0.776 2.487,0.888 0.929,0.113 1.995,0.169 3.2,0.169 1.256,0 2.391,-0.056 3.406,-0.169 1.014,-0.112 1.928,-0.41 2.742,-0.894 0.814,-0.484 1.221,-1.221 1.221,-2.212 0,-0.759 -0.251,-1.371 -0.752,-1.835" /></g><g
       transform="translate(777.8456,439.1705)"
       id="g220"><path
         id="path222"
         style="fill:#000000;fill-opacity:1;fill-rule:nonzero;stroke:none"
         d="m 0,0 -0.064,0.165 c -0.957,1.252 -2.05,2.329 -3.278,3.23 -1.229,0.901 -2.569,1.645 -4.02,2.233 -1.452,0.588 -2.925,1.016 -4.42,1.285 -1.494,0.27 -3.012,0.404 -4.554,0.404 -2.085,0 -4.127,-0.25 -6.126,-0.75 -2,-0.5 -3.882,-1.288 -5.648,-2.365 -1.765,-1.076 -3.265,-2.422 -4.499,-4.037 L -32.673,0 v -0.313 l 0.088,-0.206 0.2,-0.091 c 0.127,0 0.218,0.044 0.271,0.132 3.595,3.801 8.854,5.702 15.778,5.702 6.923,0 12.204,-1.923 15.841,-5.768 0.043,-0.044 0.112,-0.066 0.208,-0.066 0.191,0 0.287,0.099 0.287,0.297 z" /></g><g
       transform="translate(204.8197,418.3097)"
       id="g224"><path
         id="path226"
         style="fill:#000000;fill-opacity:1;fill-rule:nonzero;stroke:none"
         d="m 0,0 h 0.455 c 0.292,0 0.492,0.123 0.6,0.369 l 11.447,22.799 0.024,0.048 0.008,0.048 c 0,0.182 -0.092,0.273 -0.276,0.273 h -24.062 c -0.184,0 -0.276,-0.091 -0.276,-0.273 l 0.025,-0.04 0.008,-0.056 L -0.601,0.369 C -0.493,0.123 -0.292,0 0,0 M -7.761,21.066 H 10.131 L 1.185,3.225 Z" /></g><g
       transform="translate(226.983,419.4007)"
       id="g228"><path
         id="path230"
         style="fill:#000000;fill-opacity:1;fill-rule:nonzero;stroke:none"
         d="m 0,0 v 1.669 c -0.21,0 -0.479,0.026 -0.805,0.08 -0.326,0.053 -0.49,0.117 -0.49,0.192 L 2.108,5.68 5.61,1.669 H 4.348 V 0 h 8.016 V 1.669 H 9.825 l -5.51,6.417 4.149,4.525 c 0.199,0.203 1.261,0.304 3.187,0.304 v 1.669 H 4.863 v -1.669 c 0.199,0 0.462,-0.021 0.788,-0.064 0.326,-0.043 0.49,-0.112 0.49,-0.208 L 3.187,9.402 0.133,12.915 h 1.228 v 1.669 h -8 v -1.669 h 2.523 L 0.979,6.995 -3.601,1.973 C -3.812,1.77 -4.879,1.669 -6.804,1.669 V 0 Z" /></g><g
       transform="translate(272.8152,423.7647)"
       id="g232"><path
         id="path234"
         style="fill:#000000;fill-opacity:1;fill-rule:nonzero;stroke:none"
         d="M 0,0 C 0.166,0 0.309,0.069 0.431,0.209 0.552,0.347 0.613,0.497 0.613,0.658 0.613,0.84 0.552,0.995 0.431,1.123 0.309,1.251 0.166,1.316 0,1.316 h -21.314 c -0.188,0 -0.343,-0.065 -0.464,-0.193 C -21.9,0.995 -21.96,0.84 -21.96,0.658 c 0,-0.161 0.06,-0.311 0.182,-0.449 C -21.657,0.069 -21.502,0 -21.314,0 Z m 0,6.386 c 0.166,0 0.309,0.064 0.431,0.192 0.121,0.128 0.182,0.283 0.182,0.465 0,0.161 -0.061,0.31 -0.182,0.45 C 0.309,7.631 0.166,7.701 0,7.701 h -21.314 c -0.188,0 -0.343,-0.07 -0.464,-0.208 -0.122,-0.14 -0.182,-0.289 -0.182,-0.45 0,-0.182 0.06,-0.337 0.182,-0.465 0.121,-0.128 0.276,-0.192 0.464,-0.192 z" /></g><g
       transform="translate(291.8244,415.4859)"
       id="g236"><path
         id="path238"
         style="fill:#000000;fill-opacity:1;fill-rule:nonzero;stroke:none"
         d="M 0,0 H 0.162 C 1.299,0 2.37,0.238 3.377,0.714 4.384,1.19 5.295,1.835 6.113,2.647 6.93,3.46 7.62,4.364 8.183,5.359 8.605,6.075 9,6.888 9.368,7.797 c 0.368,0.909 0.682,1.779 0.942,2.608 0.26,0.828 0.479,1.593 0.657,2.294 0.179,0.7 0.436,1.735 0.772,3.104 0,0.129 -0.076,0.23 -0.228,0.305 H 11.349 C 10.894,16.076 10.383,15.894 9.815,15.563 9.246,15.231 8.903,14.873 8.784,14.488 8.599,13.782 8.31,13.038 7.915,12.258 7.52,11.477 7.049,10.774 6.503,10.148 5.956,9.522 5.342,9.022 4.66,8.648 3.978,8.273 3.247,8.086 2.468,8.086 c -0.855,0 -1.602,0.169 -2.241,0.506 -0.638,0.337 -1.171,0.799 -1.599,1.387 -0.428,0.589 -0.744,1.246 -0.95,1.974 -0.205,0.727 -0.308,1.497 -0.308,2.31 0,1.23 0.2,2.484 0.601,3.763 0.4,1.278 0.957,2.446 1.672,3.505 0.563,0.824 1.174,1.498 1.834,2.022 0.661,0.524 1.399,0.92 2.217,1.187 0.817,0.267 1.723,0.401 2.719,0.401 0.931,0 1.754,-0.11 2.468,-0.329 0.714,-0.219 1.072,-0.676 1.072,-1.372 0,-0.374 -0.138,-0.794 -0.414,-1.259 C 9.263,21.716 8.919,21.199 8.508,20.633 8.096,20.066 7.891,19.729 7.891,19.622 c 0,-0.075 0.075,-0.15 0.227,-0.225 H 8.28 c 0.725,0.064 1.413,0.38 2.062,0.947 0.368,0.363 0.75,0.818 1.145,1.364 0.395,0.545 0.731,1.107 1.007,1.684 0.276,0.578 0.414,1.075 0.414,1.492 0,0.867 -0.401,1.45 -1.202,1.749 -0.801,0.299 -1.753,0.449 -2.857,0.449 H 8.654 c -1.873,0 -3.678,-0.382 -5.415,-1.147 -1.737,-0.765 -3.263,-1.81 -4.578,-3.136 -1.316,-1.327 -2.352,-2.851 -3.11,-4.573 -0.757,-1.722 -1.136,-3.514 -1.136,-5.375 0,-1.251 0.211,-2.382 0.633,-3.393 0.422,-1.011 1.069,-1.816 1.94,-2.415 0.871,-0.599 1.957,-0.898 3.256,-0.898 1.201,0 2.421,0.27 3.661,0.81 C 5.144,7.495 6.272,8.177 7.29,9.001 6.857,7.599 6.321,6.233 5.683,4.901 5.044,3.57 4.324,2.647 3.523,2.134 3.242,2.006 2.858,1.941 2.37,1.941 1.396,1.941 0.582,2.04 -0.073,2.238 -0.728,2.436 -1.58,2.786 -2.63,3.289 H -2.793 C -3.204,3.246 -3.734,3.048 -4.384,2.695 -5.033,2.342 -5.358,1.984 -5.358,1.62 -5.358,1.514 -5.331,1.444 -5.277,1.412 -3.696,0.471 -1.938,0 0,0" /></g><g
       transform="translate(334.9123,387.9312)"
       id="g240"><path
         id="path242"
         style="fill:#000000;fill-opacity:1;fill-rule:nonzero;stroke:none"
         d="M 0,0 H 0.872 L 1.053,0.096 1.152,0.289 1.086,0.481 c -2.545,2.471 -4.705,5.22 -6.482,8.247 -1.777,3.027 -3.192,6.236 -4.245,9.626 -1.053,3.391 -1.799,6.827 -2.237,10.309 -0.439,3.481 -0.658,7.057 -0.658,10.725 0,3.68 0.222,7.284 0.666,10.814 0.444,3.53 1.187,6.969 2.229,10.316 1.042,3.348 2.449,6.536 4.22,9.563 1.771,3.027 3.94,5.775 6.507,8.246 L 1.152,78.52 1.061,78.728 0.872,78.825 H 0 c -0.11,0 -0.165,-0.022 -0.165,-0.065 -2.763,-2.385 -5.135,-5.104 -7.115,-8.158 -1.98,-3.054 -3.565,-6.27 -4.755,-9.651 -1.19,-3.379 -2.059,-6.885 -2.607,-10.516 -0.549,-3.632 -0.823,-7.314 -0.823,-11.047 0,-3.711 0.274,-7.377 0.823,-10.998 0.548,-3.62 1.42,-7.126 2.616,-10.517 1.195,-3.39 2.78,-6.61 4.754,-9.658 C -5.298,5.166 -2.928,2.449 -0.165,0.064 -0.165,0.022 -0.11,0 0,0" /></g><g
       transform="translate(338.9894,418.9916)"
       id="g244"><path
         id="path246"
         style="fill:#000000;fill-opacity:1;fill-rule:nonzero;stroke:none"
         d="m 0,0 c 0.693,-0.454 1.472,-0.682 2.338,-0.682 h 0.179 c 1.017,0 2.034,0.361 3.052,1.083 1.017,0.722 1.802,1.57 2.354,2.543 1.332,2.439 2.484,4.888 3.458,7.348 h 6.284 v -0.064 c 0,-0.086 0.081,-0.171 0.243,-0.257 h 0.195 c 0.574,0.054 1.12,0.265 1.64,0.634 0.519,0.369 0.85,0.816 0.99,1.34 0,0.117 -0.076,0.214 -0.227,0.289 h -8.394 c 0.996,2.716 1.808,5.61 2.435,8.679 h 5.261 c 1.84,0 2.76,-0.24 2.76,-0.722 l -0.016,-0.16 -0.033,-0.209 c 0,-0.042 0.081,-0.107 0.244,-0.192 h 0.162 c 0.563,0.053 1.137,0.275 1.721,0.666 0.585,0.39 0.877,0.826 0.877,1.307 0,0.835 -1.077,1.252 -3.231,1.252 H 12.55 c -1.223,0 -2.489,-0.268 -3.799,-0.802 -1.31,-0.535 -2.46,-1.273 -3.45,-2.214 -0.99,-0.942 -1.653,-1.995 -1.989,-3.161 0,-0.129 0.076,-0.241 0.227,-0.337 h 0.195 c 0.466,0.043 0.944,0.208 1.437,0.497 0.493,0.289 0.847,0.626 1.064,1.011 0.584,2.043 1.98,3.064 4.188,3.064 H 11.82 C 11.549,19.287 11.173,17.595 10.691,15.836 10.21,14.076 9.666,12.372 9.06,10.725 7.945,7.698 6.592,4.73 5.001,1.821 4.892,1.639 4.762,1.452 4.611,1.259 3.853,1.259 3.266,1.412 2.849,1.717 2.433,2.022 2.081,2.407 1.794,2.872 1.507,3.337 1.326,3.591 1.25,3.634 H 1.039 C 0.617,3.591 0.092,3.385 -0.536,3.016 -1.164,2.647 -1.477,2.27 -1.477,1.885 -1.185,1.083 -0.693,0.454 0,0" /></g><g
       transform="translate(367.7608,413.1756)"
       id="g248"><path
         id="path250"
         style="fill:#000000;fill-opacity:1;fill-rule:nonzero;stroke:none"
         d="M 0,0 C 0.11,-0.096 0.221,-0.144 0.331,-0.144 L 0.547,-0.08 C 1.463,0.797 2.172,1.784 2.675,2.88 3.177,3.976 3.428,5.134 3.428,6.353 3.428,7.23 3.257,8.03 2.915,8.752 2.573,9.474 1.998,9.835 1.192,9.835 0.673,9.835 0.232,9.664 -0.132,9.322 -0.497,8.979 -0.679,8.551 -0.679,8.038 c 0,-0.503 0.182,-0.93 0.547,-1.283 0.364,-0.353 0.805,-0.53 1.324,-0.53 0.541,0 0.994,0.177 1.359,0.53 V 6.353 C 2.551,5.252 2.324,4.204 1.871,3.209 1.419,2.214 0.784,1.337 -0.033,0.578 -0.122,0.492 -0.166,0.401 -0.166,0.305 -0.166,0.198 -0.111,0.096 0,0" /></g><g
       transform="translate(397.9602,419.4007)"
       id="g252"><path
         id="path254"
         style="fill:#000000;fill-opacity:1;fill-rule:nonzero;stroke:none"
         d="m 0,0 v 1.669 c -0.21,0 -0.479,0.026 -0.805,0.08 -0.326,0.053 -0.489,0.117 -0.489,0.192 L 2.108,5.68 5.61,1.669 H 4.348 V 0 h 8.016 V 1.669 H 9.825 l -5.51,6.417 4.149,4.525 c 0.199,0.203 1.261,0.304 3.187,0.304 v 1.669 H 4.863 v -1.669 c 0.199,0 0.462,-0.021 0.788,-0.064 0.326,-0.043 0.49,-0.112 0.49,-0.208 L 3.186,9.402 0.133,12.915 h 1.228 v 1.669 h -8 v -1.669 h 2.523 L 0.979,6.995 -3.601,1.973 C -3.812,1.77 -4.879,1.669 -6.805,1.669 V 0 Z" /></g><g
       transform="translate(414.1717,413.1756)"
       id="g256"><path
         id="path258"
         style="fill:#000000;fill-opacity:1;fill-rule:nonzero;stroke:none"
         d="M 0,0 C 0.11,-0.096 0.221,-0.144 0.331,-0.144 L 0.547,-0.08 C 1.463,0.797 2.172,1.784 2.675,2.88 3.177,3.976 3.428,5.134 3.428,6.353 3.428,7.23 3.257,8.03 2.915,8.752 2.573,9.474 1.998,9.835 1.192,9.835 0.673,9.835 0.232,9.664 -0.132,9.322 -0.497,8.979 -0.679,8.551 -0.679,8.038 c 0,-0.503 0.182,-0.93 0.547,-1.283 0.364,-0.353 0.805,-0.53 1.324,-0.53 0.541,0 0.994,0.177 1.359,0.53 V 6.353 C 2.551,5.252 2.324,4.204 1.871,3.209 1.419,2.214 0.784,1.337 -0.033,0.578 -0.122,0.492 -0.166,0.401 -0.166,0.305 -0.166,0.198 -0.111,0.096 0,0" /></g><g
       transform="translate(443.2929,443.5856)"
       id="g260"><path
         id="path262"
         style="fill:#000000;fill-opacity:1;fill-rule:nonzero;stroke:none"
         d="m 0,0 c 0.563,-0.904 1.322,-1.599 2.277,-2.086 0.955,-0.486 2.018,-0.73 3.188,-0.73 1.745,0 3.338,0.519 4.778,1.557 1.441,1.037 2.656,2.358 3.644,3.962 0.988,1.605 1.753,3.332 2.294,5.183 0.541,1.85 0.811,3.54 0.811,5.07 0,1.101 -0.154,2.158 -0.464,3.168 -0.309,1.011 -0.771,1.912 -1.385,2.704 -0.613,0.791 -1.379,1.422 -2.296,1.893 -0.918,0.47 -1.979,0.706 -3.184,0.706 -0.575,0 -1.144,-0.064 -1.708,-0.193 C 7.391,21.106 6.861,20.911 6.363,20.649 5.866,20.387 5.413,20.058 5.004,19.662 4.716,19.384 4.434,19.039 4.158,18.627 3.882,18.215 3.65,17.787 3.462,17.344 3.274,16.9 3.18,16.501 3.18,16.148 c 0,-0.353 0.127,-0.639 0.383,-0.858 0.255,-0.219 0.571,-0.329 0.949,-0.329 0.521,0 0.973,0.185 1.356,0.554 0.383,0.369 0.575,0.799 0.575,1.291 0,0.353 -0.125,0.642 -0.375,0.867 -0.25,0.224 -0.569,0.336 -0.957,0.336 L 4.994,18.001 4.878,17.977 c 0.508,0.813 1.179,1.434 2.014,1.862 0.834,0.427 1.737,0.641 2.71,0.641 1.061,0 1.947,-0.267 2.66,-0.802 0.713,-0.535 1.238,-1.241 1.575,-2.118 0.337,-0.877 0.505,-1.818 0.505,-2.824 0,-0.898 -0.085,-1.796 -0.256,-2.695 -0.172,-0.898 -0.389,-1.818 -0.654,-2.76 -0.199,1.124 -0.685,2.027 -1.458,2.712 C 11.201,12.677 10.229,13.02 9.059,13.02 7.767,13.02 6.52,12.736 5.316,12.169 4.113,11.602 3.05,10.843 2.128,9.891 1.206,8.939 0.48,7.862 -0.05,6.658 -0.58,5.455 -0.845,4.244 -0.845,3.024 -0.845,1.912 -0.563,0.904 0,0 m 2.493,5.174 c 0.391,1.48 0.781,2.599 1.167,3.358 0.342,0.673 0.792,1.287 1.35,1.843 0.557,0.555 1.19,0.993 1.896,1.314 0.707,0.32 1.458,0.48 2.253,0.48 0.772,0 1.432,-0.187 1.979,-0.561 0.546,-0.374 0.952,-0.876 1.217,-1.506 0.265,-0.63 0.398,-1.33 0.398,-2.099 0,-0.94 -0.161,-1.859 -0.481,-2.757 L 12.239,5.15 V 5.07 C 11.831,3.863 11.353,2.762 10.807,1.769 10.26,0.775 9.548,-0.061 8.67,-0.739 7.792,-1.418 6.757,-1.757 5.565,-1.757 c -1.149,0 -2.046,0.313 -2.692,0.938 -0.645,0.624 -0.968,1.498 -0.968,2.62 0,0.769 0.195,1.893 0.588,3.373" /></g><g
       transform="translate(462.1964,440.7702)"
       id="g264"><path
         id="path266"
         style="fill:#000000;fill-opacity:1;fill-rule:nonzero;stroke:none"
         d="M 0,0 C 1.05,0.139 2.067,0.743 3.052,1.813 3.821,1.802 4.587,1.717 5.35,1.556 6.113,1.396 7.03,1.166 8.102,0.866 9.173,0.567 10.077,0.348 10.813,0.209 11.549,0.07 12.301,0 13.07,0 h 0.195 c 0.855,0 1.794,0.243 2.817,0.73 1.023,0.487 1.934,1.144 2.735,1.973 0.801,0.829 1.31,1.672 1.527,2.527 l 0.032,0.097 -0.065,0.16 -0.162,0.064 H 19.954 C 19.467,5.487 18.98,5.321 18.493,5.054 18.006,4.786 17.594,4.471 17.259,4.107 17.161,3.979 17.04,3.725 16.893,3.345 16.747,2.965 16.598,2.669 16.447,2.455 16.295,2.241 16.1,2.134 15.863,2.134 15.072,2.144 14.32,2.222 13.606,2.367 12.891,2.511 11.998,2.733 10.927,3.032 9.855,3.332 8.935,3.559 8.167,3.714 7.398,3.869 6.63,3.947 5.861,3.947 H 5.65 c -0.379,0 -0.698,-0.043 -0.958,-0.129 0.585,0.877 1.091,1.811 1.518,2.8 0.428,0.989 0.777,2.024 1.047,3.105 0.249,0.994 0.536,2.061 0.861,3.201 0.325,1.139 0.695,2.272 1.112,3.401 0.417,1.128 0.904,2.176 1.461,3.144 0.558,0.968 1.139,1.661 1.746,2.078 0,0.139 0.411,0.209 1.234,0.209 0.703,0 1.234,-0.262 1.591,-0.786 0.357,-0.525 0.536,-1.14 0.536,-1.845 0,-0.215 -0.028,-0.477 -0.082,-0.787 -0.054,-0.31 -0.081,-0.476 -0.081,-0.497 0,-0.15 0.065,-0.225 0.195,-0.225 h 0.195 c 1.05,0.139 1.959,0.621 2.728,1.444 0.27,0.321 0.405,0.899 0.405,1.733 0,0.546 -0.1,1.056 -0.3,1.532 -0.2,0.476 -0.495,0.856 -0.885,1.139 -0.389,0.284 -0.871,0.426 -1.445,0.426 h -0.195 c -1.169,0 -2.313,-0.255 -3.434,-0.762 C 11.779,22.619 10.759,21.94 9.839,21.09 8.919,20.24 8.145,19.301 7.517,18.274 6.716,16.948 6.069,15.541 5.577,14.055 5.084,12.568 4.535,10.632 3.929,8.247 3.518,6.749 3.031,5.423 2.468,4.268 2.143,3.647 1.699,2.936 1.137,2.134 0.996,1.952 0.763,1.703 0.438,1.388 0.114,1.072 -0.13,0.786 -0.292,0.529 -0.368,0.412 -0.406,0.31 -0.406,0.225 -0.406,0.075 -0.336,0 -0.195,0 Z" /></g><g
       id="g268"><g
         clip-path="url(#clipPath274)"
         id="g270"><path
           id="path276"
           style="fill:#000000;fill-opacity:1;fill-rule:evenodd;stroke:none"
           d="m 441.089,429.24 h 42.698 v -2.042 h -42.698 z" /></g></g><g
       transform="translate(444.5916,399.2173)"
       id="g278"><path
         id="path280"
         style="fill:#000000;fill-opacity:1;fill-rule:nonzero;stroke:none"
         d="m 0,0 c 0.563,-0.904 1.322,-1.599 2.277,-2.086 0.955,-0.486 2.018,-0.73 3.188,-0.73 1.745,0 3.338,0.519 4.778,1.557 1.441,1.037 2.656,2.358 3.644,3.962 0.988,1.605 1.753,3.332 2.294,5.183 0.541,1.85 0.811,3.54 0.811,5.07 0,1.101 -0.154,2.158 -0.464,3.168 -0.309,1.011 -0.771,1.912 -1.385,2.704 -0.613,0.791 -1.379,1.422 -2.296,1.893 -0.918,0.47 -1.979,0.706 -3.184,0.706 -0.575,0 -1.144,-0.064 -1.708,-0.193 C 7.391,21.106 6.861,20.911 6.363,20.649 5.866,20.387 5.413,20.058 5.004,19.662 4.716,19.384 4.434,19.039 4.158,18.627 3.882,18.215 3.65,17.787 3.462,17.344 3.274,16.9 3.18,16.501 3.18,16.148 c 0,-0.353 0.127,-0.639 0.383,-0.858 0.255,-0.219 0.571,-0.329 0.949,-0.329 0.521,0 0.973,0.185 1.356,0.554 0.383,0.369 0.575,0.799 0.575,1.291 0,0.353 -0.125,0.642 -0.375,0.867 -0.25,0.224 -0.569,0.336 -0.957,0.336 L 4.994,18.001 4.878,17.977 c 0.508,0.813 1.179,1.434 2.014,1.862 0.834,0.427 1.737,0.641 2.71,0.641 1.061,0 1.947,-0.267 2.66,-0.802 0.713,-0.535 1.238,-1.241 1.575,-2.118 0.337,-0.877 0.505,-1.818 0.505,-2.824 0,-0.898 -0.085,-1.796 -0.256,-2.695 -0.172,-0.898 -0.389,-1.818 -0.654,-2.76 -0.199,1.124 -0.685,2.027 -1.458,2.712 C 11.201,12.677 10.229,13.02 9.059,13.02 7.767,13.02 6.52,12.736 5.316,12.169 4.113,11.602 3.05,10.843 2.128,9.891 1.206,8.939 0.48,7.862 -0.05,6.658 -0.58,5.455 -0.845,4.244 -0.845,3.024 -0.845,1.912 -0.563,0.904 0,0 m 2.493,5.174 c 0.391,1.48 0.781,2.599 1.167,3.358 0.342,0.673 0.792,1.287 1.35,1.843 0.557,0.555 1.19,0.993 1.896,1.314 0.707,0.32 1.458,0.48 2.253,0.48 0.772,0 1.432,-0.187 1.979,-0.561 0.546,-0.374 0.952,-0.876 1.217,-1.506 0.265,-0.63 0.398,-1.33 0.398,-2.099 0,-0.94 -0.161,-1.859 -0.481,-2.757 L 12.239,5.15 V 5.07 C 11.831,3.863 11.353,2.762 10.807,1.769 10.26,0.775 9.548,-0.061 8.67,-0.739 7.792,-1.418 6.757,-1.757 5.565,-1.757 c -1.149,0 -2.046,0.313 -2.692,0.938 -0.645,0.624 -0.968,1.498 -0.968,2.62 0,0.769 0.195,1.893 0.588,3.373" /></g><g
       transform="translate(464.1034,391.4279)"
       id="g282"><path
         id="path284"
         style="fill:#000000;fill-opacity:1;fill-rule:nonzero;stroke:none"
         d="m 0,0 c 0.736,-0.588 1.569,-0.882 2.499,-0.882 1.229,0 2.349,0.39 3.362,1.171 1.013,0.781 1.785,1.738 2.316,2.872 l 7.306,15.177 c 0.165,0.182 0.959,0.273 2.383,0.273 v 1.669 h -5.909 v -1.669 c 0.342,0 0.701,-0.019 1.076,-0.056 0.375,-0.038 0.563,-0.11 0.563,-0.217 L 9.613,10.06 5.485,18.611 h 1.784 v 1.669 h -8.24 v -1.669 h 2.24 L 7.501,5.696 6.271,3.161 C 5.917,2.391 5.404,1.744 4.734,1.219 4.063,0.695 3.318,0.433 2.498,0.433 2.376,0.433 2.194,0.455 1.95,0.497 2.614,0.872 2.946,1.455 2.946,2.246 2.946,2.792 2.752,3.252 2.365,3.626 1.977,4 1.502,4.187 0.937,4.187 0.351,4.187 -0.136,4 -0.523,3.626 -0.91,3.252 -1.104,2.792 -1.104,2.246 -1.104,1.337 -0.736,0.588 0,0" /></g><g
       transform="translate(490.1912,387.9312)"
       id="g286"><path
         id="path288"
         style="fill:#000000;fill-opacity:1;fill-rule:nonzero;stroke:none"
         d="m 0,0 0.181,0.064 c 2.775,2.396 5.149,5.121 7.124,8.175 1.974,3.054 3.553,6.278 4.738,9.674 1.184,3.396 2.045,6.897 2.583,10.501 0.537,3.605 0.806,7.263 0.806,10.974 0,3.733 -0.269,7.407 -0.806,11.023 -0.538,3.615 -1.399,7.118 -2.583,10.508 C 10.858,64.31 9.279,67.532 7.305,70.586 5.33,73.64 2.956,76.365 0.181,78.76 L 0,78.825 h -0.872 c -0.197,0 -0.296,-0.102 -0.296,-0.305 l 0.066,-0.193 c 2.544,-2.449 4.71,-5.201 6.498,-8.254 1.788,-3.054 3.197,-6.244 4.228,-9.571 1.031,-3.326 1.769,-6.722 2.213,-10.188 0.444,-3.465 0.667,-7.097 0.667,-10.894 0,-3.754 -0.223,-7.377 -0.667,-10.87 C 11.393,25.058 10.65,21.641 9.608,18.298 8.566,14.956 7.162,11.768 5.396,8.736 3.63,5.704 1.464,2.952 -1.102,0.481 L -1.168,0.289 C -1.168,0.096 -1.069,0 -0.872,0 Z" /></g></g></svg>