<?xml version="1.0" encoding="UTF-8" standalone="no"?>
<svg
   xmlns:dc="http://purl.org/dc/elements/1.1/"
   xmlns:cc="http://creativecommons.org/ns#"
   xmlns:rdf="http://www.w3.org/1999/02/22-rdf-syntax-ns#"
   xmlns:svg="http://www.w3.org/2000/svg"
   xmlns="http://www.w3.org/2000/svg"
   viewBox="0 0 799.45599 313.76801"
   height="313.76801"
   width="799.45599"
   xml:space="preserve"
   id="svg2"
   version="1.1"><metadata
     id="metadata8"><rdf:RDF><cc:Work
         rdf:about=""><dc:format>image/svg+xml</dc:format><dc:type
           rdf:resource="http://purl.org/dc/dcmitype/StillImage" /></cc:Work></rdf:RDF></metadata><defs
     id="defs6"><clipPath
       id="clipPath14"
       clipPathUnits="userSpaceOnUse"><path
         id="path12"
         d="M 0,0 H 842 V 595 H 0 Z" /></clipPath><clipPath
       id="clipPath22"
       clipPathUnits="userSpaceOnUse"><path
         style="clip-rule:evenodd"
         id="path20"
         d="M 0,-0.2 H 841.8 V 595 H 0 Z" /></clipPath></defs><g
     clip-path="url(#clipPath14)"
     transform="matrix(1.3333333,0,0,-1.3333333,-110.472,720.59467)"
     id="g10"><g
       id="g16"><g
         clip-path="url(#clipPath22)"
         id="g18"><g
           transform="translate(212.6,337)"
           id="g24"><path
             id="path26"
             style="fill:#ffffff;fill-opacity:1;fill-rule:evenodd;stroke:none"
             d="M 0,0 H -127.6 V 201.3 H 127.6 V 0 Z" /></g><g
           transform="translate(212.6,337)"
           id="g28"><path
             id="path30"
             style="fill:none;stroke:#000000;stroke-width:2.29200006;stroke-linecap:butt;stroke-linejoin:round;stroke-miterlimit:10;stroke-dasharray:none;stroke-opacity:1"
             d="M 0,0 H -127.6 V 201.3 H 127.6 V 0 Z" /></g><g
           transform="translate(124.7,495.8)"
           id="g32"><path
             id="path34"
             style="fill:#66ffff;fill-opacity:1;fill-rule:evenodd;stroke:none"
             d="m 0,0 h -8.5 v 17 h 17 V 0 Z" /></g><g
           transform="translate(164.4,495.8)"
           id="g36"><path
             id="path38"
             style="fill:#66ffff;fill-opacity:1;fill-rule:evenodd;stroke:none"
             d="m 0,0 h -8.5 v 17 h 17 V 0 Z" /></g><g
           transform="translate(164.4,504.3)"
           id="g40"><path
             id="path42"
             style="fill:none;stroke:#000000;stroke-width:0.99000001;stroke-linecap:butt;stroke-linejoin:round;stroke-miterlimit:10;stroke-dasharray:none;stroke-opacity:1"
             d="M 0,0 90.7,-12.3" /></g><g
           transform="translate(269.3,490.1)"
           id="g44"><path
             id="path46"
             style="fill:#000000;fill-opacity:1;fill-rule:evenodd;stroke:none"
             d="m 0,0 -14.2,7 -1.3,-9.9 z" /></g><g
           transform="translate(252.3,393.7)"
           id="g48"><path
             id="path50"
             style="fill:#66ffff;fill-opacity:1;fill-rule:evenodd;stroke:none"
             d="m 0,0 h -8.5 v 17 h 17 V 0 Z" /></g><g
           transform="translate(252.3,402.2)"
           id="g52"><path
             id="path54"
             style="fill:none;stroke:#000000;stroke-width:0.99000001;stroke-linecap:butt;stroke-linejoin:round;stroke-miterlimit:10;stroke-dasharray:none;stroke-opacity:1"
             d="M 0,0 2.3,56.6" /></g><g
           transform="translate(255.1,473.1)"
           id="g56"><path
             id="path58"
             style="fill:#000000;fill-opacity:1;fill-rule:evenodd;stroke:none"
             d="m 0,0 -5.6,-14.8 10,-0.4 z" /></g><g
           transform="translate(164.4,430.6)"
           id="g60"><path
             id="path62"
             style="fill:#66ffff;fill-opacity:1;fill-rule:evenodd;stroke:none"
             d="m 0,0 h -8.5 v 17 h 17 V 0 Z" /></g><g
           transform="translate(124.7,504.3)"
           id="g64"><path
             id="path66"
             style="fill:none;stroke:#000000;stroke-width:0.99000001;stroke-linecap:butt;stroke-linejoin:round;stroke-miterlimit:10;stroke-dasharray:none;stroke-opacity:1"
             d="M 0,0 32.3,-53" /></g><g
           transform="translate(164.4,439.1)"
           id="g68"><path
             id="path70"
             style="fill:#000000;fill-opacity:1;fill-rule:evenodd;stroke:none"
             d="M 0,0 -3.5,15.4 -12,10.2 Z" /></g><g
           transform="translate(164.4,439.1)"
           id="g72"><path
             id="path74"
             style="fill:none;stroke:#000000;stroke-width:0.99000001;stroke-linecap:butt;stroke-linejoin:round;stroke-miterlimit:10;stroke-dasharray:none;stroke-opacity:1"
             d="M 0,0 V 50.9" /></g><g
           transform="translate(164.4,504.3)"
           id="g76"><path
             id="path78"
             style="fill:#000000;fill-opacity:1;fill-rule:evenodd;stroke:none"
             d="M 0,0 -5,-15 H 5 Z" /></g><g
           transform="translate(552.8,337)"
           id="g80"><path
             id="path82"
             style="fill:#ffffff;fill-opacity:1;fill-rule:evenodd;stroke:none"
             d="M 0,0 H -127.6 V 201.3 H 127.5 V 0 Z" /></g><g
           transform="translate(552.8,337)"
           id="g84"><path
             id="path86"
             style="fill:none;stroke:#000000;stroke-width:2.29200006;stroke-linecap:butt;stroke-linejoin:round;stroke-miterlimit:10;stroke-dasharray:none;stroke-opacity:1"
             d="M 0,0 H -127.6 V 201.3 H 127.5 V 0 Z" /></g><g
           transform="translate(504.6,430.6)"
           id="g88"><path
             id="path90"
             style="fill:#ffff00;fill-opacity:1;fill-rule:evenodd;stroke:none"
             d="m 0,0 h -8.5 v 17 h 17 V 0 Z" /></g><g
           transform="translate(609.4,481.6)"
           id="g92"><path
             id="path94"
             style="fill:#ffff00;fill-opacity:1;fill-rule:evenodd;stroke:none"
             d="M 0,0 H -8.5 V 17 H 8.6 V 0 Z" /></g><g
           transform="translate(595.3,464.6)"
           id="g96"><path
             id="path98"
             style="fill:#ffff00;fill-opacity:1;fill-rule:evenodd;stroke:none"
             d="m 0,0 h -8.5 v 17 h 17 V 0 Z" /></g><g
           transform="translate(592.8,412.5)"
           id="g100"><path
             id="path102"
             style="fill:none;stroke:#000000;stroke-width:0.99000001;stroke-linecap:butt;stroke-linejoin:round;stroke-miterlimit:10;stroke-dasharray:none;stroke-opacity:1"
             d="M 0,0 2.5,60.6" /></g><g
           transform="translate(592.4,402.2)"
           id="g104"><path
             id="path106"
             style="fill:#000000;fill-opacity:1;fill-rule:evenodd;stroke:none"
             d="m 0,0 4,10.6 -7.1,0.3 z" /></g><g
           transform="translate(504.6,495.8)"
           id="g108"><path
             id="path110"
             style="fill:#ffff00;fill-opacity:1;fill-rule:evenodd;stroke:none"
             d="m 0,0 h -8.5 v 17 h 17 V 0 Z" /></g><g
           transform="translate(470.2,495.5)"
           id="g112"><path
             id="path114"
             style="fill:none;stroke:#000000;stroke-width:0.99000001;stroke-linecap:butt;stroke-linejoin:round;stroke-miterlimit:10;stroke-dasharray:none;stroke-opacity:1"
             d="M 0,0 34.4,-56.4" /></g><g
           transform="translate(464.9,504.3)"
           id="g116"><path
             id="path118"
             style="fill:#000000;fill-opacity:1;fill-rule:evenodd;stroke:none"
             d="m 0,0 2.5,-11 6.1,3.7 z" /></g><g
           transform="translate(504.6,449.3)"
           id="g120"><path
             id="path122"
             style="fill:none;stroke:#000000;stroke-width:0.99000001;stroke-linecap:butt;stroke-linejoin:round;stroke-miterlimit:10;stroke-dasharray:none;stroke-opacity:1"
             d="M 0,0 V 55" /></g><g
           transform="translate(504.6,439.1)"
           id="g124"><path
             id="path126"
             style="fill:#000000;fill-opacity:1;fill-rule:evenodd;stroke:none"
             d="M 0,0 3.5,10.7 H -3.6 Z" /></g><g
           transform="translate(514.7,502.9)"
           id="g128"><path
             id="path130"
             style="fill:none;stroke:#000000;stroke-width:0.99000001;stroke-linecap:butt;stroke-linejoin:round;stroke-miterlimit:10;stroke-dasharray:none;stroke-opacity:1"
             d="M 0,0 94.7,-12.8" /></g><g
           transform="translate(504.6,504.3)"
           id="g132"><path
             id="path134"
             style="fill:#000000;fill-opacity:1;fill-rule:evenodd;stroke:none"
             d="m 0,0 10.1,-5 1,7.1 z" /></g><g
           transform="translate(610,490.7)"
           id="g136"><path
             id="path138"
             style="fill:none;stroke:#000000;stroke-width:0.99000001;stroke-linecap:butt;stroke-linejoin:round;stroke-miterlimit:10;stroke-dasharray:none;stroke-opacity:1"
             d="m 0,0 c 10.6,0 11.8,4.7 11.8,11.7 0,7.1 0,11.8 -12.9,11.8 -13,0 -10.6,-11.8 -10.6,-11.8 0,0 0,-2.5 1.4,-5.7" /></g><g
           transform="translate(606.5,490.7)"
           id="g140"><path
             id="path142"
             style="fill:#000000;fill-opacity:1;fill-rule:evenodd;stroke:none"
             d="M 0,0 -5.5,9.9 -10.3,4.6 Z" /></g><g
           transform="translate(594.9,475.3)"
           id="g144"><path
             id="path146"
             style="fill:none;stroke:#000000;stroke-width:0.99000001;stroke-linecap:butt;stroke-linejoin:round;stroke-miterlimit:10;stroke-dasharray:none;stroke-opacity:1"
             d="m 0,0 c 0,10.6 -4.7,11.8 -11.8,11.8 -7,0 -11.7,0 -11.7,-12.9 0,-13 11.7,-10.6 11.7,-10.6 0,0 2.6,0 5.8,1.4" /></g><g
           transform="translate(594.9,471.8)"
           id="g148"><path
             id="path150"
             style="fill:#000000;fill-opacity:1;fill-rule:evenodd;stroke:none"
             d="m 0,0 -9.9,-5.5 5.3,-4.8 z" /></g><g
           transform="translate(360,444.1)"
           id="g152"><path
             id="path154"
             style="fill:#ffffff;fill-opacity:1;fill-rule:evenodd;stroke:none"
             d="M 0,0 H 36.1 V 6.3 L 48.2,-6.4 36.1,-19.2 v 6.4 l -36.1,0 z" /></g><g
           transform="translate(360,444.1)"
           id="g156"><path
             id="path158"
             style="fill:none;stroke:#808080;stroke-width:1.5;stroke-linecap:butt;stroke-linejoin:round;stroke-miterlimit:10;stroke-dasharray:none;stroke-opacity:1"
             d="M 0,0 H 36.1 V 6.3 L 48.2,-6.4 36.1,-19.2 v 6.4 l -36.1,0 z" /></g><text
           id="text162"
           style="font-variant:normal;font-weight:normal;font-size:18.30887985px;font-family:Cmbx10;-inkscape-font-specification:Cmbx10;writing-mode:lr-tb;fill:#ffffff;fill-opacity:1;fill-rule:nonzero;stroke:none"
           transform="matrix(1,0,0,-0.96674401,517.2,312.2)"><tspan
             id="tspan160"
             y="0"
             x="0">I</tspan></text>
<text
           id="text166"
           style="font-variant:normal;font-weight:normal;font-size:12.75712013px;font-family:Cmr7;-inkscape-font-specification:Cmr7;writing-mode:lr-tb;fill:#ffffff;fill-opacity:1;fill-rule:nonzero;stroke:none"
           transform="matrix(1,0,0,-0.97200622,525,309.8)"><tspan
             id="tspan164"
             y="0"
             x="0 9.8003492 17.100714 22.700472">warp</tspan></text>
<text
           id="text170"
           style="font-variant:normal;font-weight:normal;font-size:18.28409958px;font-family:Cmr10;-inkscape-font-specification:Cmr10;writing-mode:lr-tb;fill:#ffffff;fill-opacity:1;fill-rule:nonzero;stroke:none"
           transform="matrix(1,0,0,-0.96805421,556.8,312.2)"><tspan
             id="tspan168"
             y="0"
             x="0">(</tspan></text>
<text
           id="text174"
           style="font-variant:normal;font-weight:normal;font-size:18.26993942px;font-family:Cmmi10;-inkscape-font-specification:Cmmi10;writing-mode:lr-tb;fill:#ffffff;fill-opacity:1;fill-rule:nonzero;stroke:none"
           transform="matrix(1,0,0,-0.9688045,563.9,312.2)"><tspan
             id="tspan172"
             y="0"
             x="0">t</tspan></text>
<text
           id="text178"
           style="font-variant:normal;font-weight:normal;font-size:18.28409958px;font-family:Cmr10;-inkscape-font-specification:Cmr10;writing-mode:lr-tb;fill:#ffffff;fill-opacity:1;fill-rule:nonzero;stroke:none"
           transform="matrix(1,0,0,-0.96805421,574.5,312.2)"><tspan
             id="tspan176"
             y="0"
             x="0 18.200426 27.199923">+1)</tspan></text>
<text
           id="text182"
           style="font-variant:normal;font-weight:normal;font-size:18.30887985px;font-family:Cmbx10;-inkscape-font-specification:Cmbx10;writing-mode:lr-tb;fill:#ffffff;fill-opacity:1;fill-rule:nonzero;stroke:none"
           transform="matrix(1,0,0,-0.96674401,199.7,312.3)"><tspan
             id="tspan180"
             y="0"
             x="0">I</tspan></text>
<text
           id="text186"
           style="font-variant:normal;font-weight:normal;font-size:18.28409958px;font-family:Cmr10;-inkscape-font-specification:Cmr10;writing-mode:lr-tb;fill:#ffffff;fill-opacity:1;fill-rule:nonzero;stroke:none"
           transform="matrix(1,0,0,-0.96805421,207.5,312.3)"><tspan
             id="tspan184"
             y="0"
             x="0">(</tspan></text>
<text
           id="text190"
           style="font-variant:normal;font-weight:normal;font-size:18.26993942px;font-family:Cmmi10;-inkscape-font-specification:Cmmi10;writing-mode:lr-tb;fill:#ffffff;fill-opacity:1;fill-rule:nonzero;stroke:none"
           transform="matrix(1,0,0,-0.9688045,214.4,312.3)"><tspan
             id="tspan188"
             y="0"
             x="0">t</tspan></text>
<text
           id="text194"
           style="font-variant:normal;font-weight:normal;font-size:18.28409958px;font-family:Cmr10;-inkscape-font-specification:Cmr10;writing-mode:lr-tb;fill:#ffffff;fill-opacity:1;fill-rule:nonzero;stroke:none"
           transform="matrix(1,0,0,-0.96805421,220.9,312.3)"><tspan
             id="tspan192"
             y="0"
             x="0">)</tspan></text>
</g></g></g></svg>