<?xml version="1.0" encoding="UTF-8" standalone="no"?>
<svg
   xmlns:dc="http://purl.org/dc/elements/1.1/"
   xmlns:cc="http://creativecommons.org/ns#"
   xmlns:rdf="http://www.w3.org/1999/02/22-rdf-syntax-ns#"
   xmlns:svg="http://www.w3.org/2000/svg"
   xmlns="http://www.w3.org/2000/svg"
   viewBox="0 0 816 138.11467"
   height="138.11467"
   width="816"
   xml:space="preserve"
   id="svg2"
   version="1.1"><metadata
     id="metadata8"><rdf:RDF><cc:Work
         rdf:about=""><dc:format>image/svg+xml</dc:format><dc:type
           rdf:resource="http://purl.org/dc/dcmitype/StillImage" /></cc:Work></rdf:RDF></metadata><defs
     id="defs6"><clipPath
       id="clipPath14"
       clipPathUnits="userSpaceOnUse"><path
         id="path12"
         d="M 0,0 H 612 V 792 H 0 Z" /></clipPath><clipPath
       id="clipPath24"
       clipPathUnits="userSpaceOnUse"><path
         id="path22"
         d="M 0,515.95 H 612 V 619.536 H 0 Z" /></clipPath></defs><g
     clip-path="url(#clipPath14)"
     transform="matrix(1.3333333,0,0,-1.3333333,0,826.048)"
     id="g10"><g
       id="g16"><g
         id="g18"><g
           clip-path="url(#clipPath24)"
           id="g20"><path
             id="path26"
             style="fill:#ffffff;fill-opacity:1;fill-rule:nonzero;stroke:none"
             d="M 0,515.95 H 612 V 619.536 H 0 Z" /></g></g></g><g
       transform="matrix(1.5213013,0,0,1.5213013,5.7658081,611.95282)"
       id="g28"><path
         id="path30"
         style="fill:none;stroke:#000000;stroke-width:0.79699999;stroke-linecap:butt;stroke-linejoin:miter;stroke-miterlimit:10;stroke-dasharray:none;stroke-opacity:1"
         d="M 0,0 H 394.654" /></g><text
       id="text34"
       style="font-variant:normal;font-weight:bold;font-size:10.60954666px;font-family:'Times New Roman';-inkscape-font-specification:NimbusRomNo9L-Regu;writing-mode:lr-tb;fill:#000000;fill-opacity:1;fill-rule:nonzero;stroke:none"
       transform="matrix(1,0,0,-1,53.9012,592.5562)"><tspan
         id="tspan32"
         y="0"
         x="0 9.4318867 14.142525 17.091978 22.396751 27.701525">Method</tspan></text>
<g
       transform="matrix(1.5213013,0,0,1.5213013,135.34555,594.98126)"
       id="g36"><path
         id="path38"
         style="fill:none;stroke:#000000;stroke-width:0.398;stroke-linecap:butt;stroke-linejoin:miter;stroke-miterlimit:10;stroke-dasharray:none;stroke-opacity:1"
         d="M 0,0 V 7.97" /></g><text
       id="text42"
       style="font-variant:normal;font-weight:bold;font-size:10.60954666px;font-family:'Times New Roman';-inkscape-font-specification:NimbusRomNo9L-Regu;writing-mode:lr-tb;fill:#000000;fill-opacity:1;fill-rule:nonzero;stroke:none"
       transform="matrix(1,0,0,-1,144.7411,592.5562)"><tspan
         id="tspan40"
         y="0"
         x="0 6.1110878 9.6440668 14.354706 17.304159 22.608932 25.558386 30.863159 38.82032 46.480412 51.191051 54.140503 58.851143 62.978256 67.688896 70.638351">TrainingDatasets</tspan></text>
<g
       transform="matrix(1.5213013,0,0,1.5213013,228.90088,594.98126)"
       id="g44"><path
         id="path46"
         style="fill:none;stroke:#000000;stroke-width:0.398;stroke-linecap:butt;stroke-linejoin:miter;stroke-miterlimit:10;stroke-dasharray:none;stroke-opacity:1"
         d="M 0,0 V 7.97" /></g><text
       id="text50"
       style="font-variant:normal;font-size:10.60954666px;font-family:'Times New Roman';-inkscape-font-specification:NimbusRomNo9L-Regu;writing-mode:lr-tb;fill:#000000;fill-opacity:1;fill-rule:nonzero;stroke:none"
       transform="matrix(1,0,0,-1,238.298,598.6186)"><tspan
         id="tspan48"
         y="0"
         x="0 5.8989077 8.848362 14.153134 17.102589 21.813227 24.76268 28.29566 35.372227 38.321682 43.032318 47.742958 71.230309 77.129219 80.078667 85.383446 88.332893 93.043533 95.992989 99.52597 105.42487 108.37433 113.6791 118.38974 139.53212 147.19221 150.72519 157.20763 163.69005 169.87541 175.18019 180.48497 185.78973 221.43593 229.09602 232.629 239.11143 245.59387 251.77908 257.08386 262.38864 267.69342 303.35025 309.24915 312.19861 317.50339 320.45282 325.7576 331.06238 338.13895 343.44373 348.15436 351.10382 354.63678">Sintel-CleanSintel-FinalKITTI2012KITTI2015FlyingChairs</tspan></text>
<g
       transform="matrix(1.5213013,0,0,1.5213013,135.34555,582.85651)"
       id="g52"><path
         id="path54"
         style="fill:none;stroke:#000000;stroke-width:0.398;stroke-linecap:butt;stroke-linejoin:miter;stroke-miterlimit:10;stroke-dasharray:none;stroke-opacity:1"
         d="M 0,0 V 7.97" /></g><g
       transform="matrix(1.5213013,0,0,1.5213013,228.90088,582.85651)"
       id="g56"><path
         id="path58"
         style="fill:none;stroke:#000000;stroke-width:0.398;stroke-linecap:butt;stroke-linejoin:miter;stroke-miterlimit:10;stroke-dasharray:none;stroke-opacity:1"
         d="M 0,0 V 7.97" /></g><text
       id="text62"
       style="font-variant:normal;font-size:10.60954666px;font-family:'Times New Roman';-inkscape-font-specification:NimbusRomNo9L-Regu;writing-mode:lr-tb;fill:#000000;fill-opacity:1;fill-rule:nonzero;stroke:none"
       transform="matrix(1,0,0,-1,255.3898,586.4939)"><tspan
         id="tspan60"
         y="0"
         x="0 6.4824328 12.38134 69.766785 76.249214 82.148125 138.78067 145.26311 151.16202 194.69145 201.17389 207.0728 246.729 252.62791 304.5278 311.01022 316.90912">EPEEPEEPEEPEFlEPE</tspan></text>
<g
       transform="matrix(1.5213013,0,0,1.5213013,5.7658081,579.86859)"
       id="g64"><path
         id="path66"
         style="fill:none;stroke:#000000;stroke-width:0.498;stroke-linecap:butt;stroke-linejoin:miter;stroke-miterlimit:10;stroke-dasharray:none;stroke-opacity:1"
         d="M 0,0 H 394.654" /></g><g
       transform="matrix(1.5213013,0,0,1.5213013,135.34555,563.12366)"
       id="g68"><path
         id="path70"
         style="fill:none;stroke:#000000;stroke-width:0.398;stroke-linecap:butt;stroke-linejoin:miter;stroke-miterlimit:10;stroke-dasharray:none;stroke-opacity:1"
         d="M 0,0 V 7.97" /></g><text
       id="text74"
       style="font-variant:normal;font-size:10.60954666px;font-family:'Times New Roman';-inkscape-font-specification:NimbusRomNo9L-Regu;writing-mode:lr-tb;fill:#000000;fill-opacity:1;fill-rule:nonzero;stroke:none"
       transform="matrix(1,0,0,-1,168.2725,566.7611)"><tspan
         id="tspan72"
         y="0"
         x="0 7.0765672 12.38134 17.091978 20.041433 23.574411">Chairs</tspan></text>
<g
       transform="matrix(1.5213013,0,0,1.5213013,228.90088,563.12366)"
       id="g76"><path
         id="path78"
         style="fill:none;stroke:#000000;stroke-width:0.398;stroke-linecap:butt;stroke-linejoin:miter;stroke-miterlimit:10;stroke-dasharray:none;stroke-opacity:1"
         d="M 0,0 V 7.97" /></g><text
       id="text82"
       style="font-variant:normal;font-size:10.60954666px;font-family:'Times New Roman';-inkscape-font-specification:NimbusRomNo9L-Regu;writing-mode:lr-tb;fill:#000000;fill-opacity:1;fill-rule:nonzero;stroke:none"
       transform="matrix(1,0,0,-1,255.5373,566.7611)"><tspan
         id="tspan80"
         y="0"
         x="0 5.3047733 7.9571595 13.261932 69.76683 75.071602 77.723984 83.028763 138.78973 144.09451 146.74689 152.05167 192.03676 197.34154 202.64632 205.29869 210.60347 234.09158 239.39636 244.70113 247.35352 252.65829">3.514.707.6917.1940.82</tspan></text>
<text
       id="text86"
       style="font-variant:normal;font-weight:normal;font-size:10.60954666px;font-family:CMR7;-inkscape-font-specification:CMR7;writing-mode:lr-tb;fill:#000000;fill-opacity:1;fill-rule:nonzero;stroke:none"
       transform="matrix(1,0,0,-1,513.50036,566.7611)"><tspan
         id="tspan84"
         y="0"
         x="0">%</tspan></text>
<text
       id="text90"
       style="font-variant:normal;font-size:10.60954666px;font-family:'Times New Roman';-inkscape-font-specification:NimbusRomNo9L-Regu;writing-mode:lr-tb;fill:#000000;fill-opacity:1;fill-rule:nonzero;stroke:none"
       transform="matrix(1,0,0,-1,560.06809,566.7611)"><tspan
         id="tspan88"
         y="0"
         x="0 5.3047733 7.9571595 13.261932">2.15</tspan></text>
<g
       transform="matrix(1.5213013,0,0,1.5213013,135.34555,550.9989)"
       id="g92"><path
         id="path94"
         style="fill:none;stroke:#000000;stroke-width:0.398;stroke-linecap:butt;stroke-linejoin:miter;stroke-miterlimit:10;stroke-dasharray:none;stroke-opacity:1"
         d="M 0,0 V 7.97" /></g><text
       id="text98"
       style="font-variant:normal;font-size:10.60954666px;font-family:'Times New Roman';-inkscape-font-specification:NimbusRomNo9L-Regu;writing-mode:lr-tb;fill:#000000;fill-opacity:1;fill-rule:nonzero;stroke:none"
       transform="matrix(1,0,0,-1,168.2786,554.6363)"><tspan
         id="tspan96"
         y="0"
         x="0 7.6600924 11.193071 17.675505 24.157936">KITTI</tspan></text>
<g
       transform="matrix(1.5213013,0,0,1.5213013,228.90088,550.9989)"
       id="g100"><path
         id="path102"
         style="fill:none;stroke:#000000;stroke-width:0.398;stroke-linecap:butt;stroke-linejoin:miter;stroke-miterlimit:10;stroke-dasharray:none;stroke-opacity:1"
         d="M 0,0 V 7.97" /></g><text
       id="text106"
       style="font-variant:normal;font-size:10.60954666px;font-family:'Times New Roman';-inkscape-font-specification:NimbusRomNo9L-Regu;writing-mode:lr-tb;fill:#000000;fill-opacity:1;fill-rule:nonzero;stroke:none"
       transform="matrix(1,0,0,-1,255.5373,554.6363)"><tspan
         id="tspan104"
         y="0"
         x="0 5.3047733 7.9571595 13.261932 69.76683 75.071602 77.723984 83.028763 136.13811 141.44289 146.74765 149.40004 154.70482 192.03828 197.34305 202.64783 205.30022 210.60498 234.09309 239.39787 244.70265 247.35504 252.65981">8.018.9716.5425.5354.40</tspan></text>
<text
       id="text110"
       style="font-variant:normal;font-weight:normal;font-size:10.60954666px;font-family:CMR7;-inkscape-font-specification:CMR7;writing-mode:lr-tb;fill:#000000;fill-opacity:1;fill-rule:nonzero;stroke:none"
       transform="matrix(1,0,0,-1,513.50188,554.6363)"><tspan
         id="tspan108"
         y="0"
         x="0">%</tspan></text>
<text
       id="text114"
       style="font-variant:normal;font-size:10.60954666px;font-family:'Times New Roman';-inkscape-font-specification:NimbusRomNo9L-Regu;writing-mode:lr-tb;fill:#000000;fill-opacity:1;fill-rule:nonzero;stroke:none"
       transform="matrix(1,0,0,-1,560.06961,554.6363)"><tspan
         id="tspan112"
         y="0"
         x="0 5.3047733 7.9571595 13.261932">6.66</tspan></text>
<g
       transform="matrix(1.5213013,0,0,1.5213013,135.34555,538.87421)"
       id="g116"><path
         id="path118"
         style="fill:none;stroke:#000000;stroke-width:0.398;stroke-linecap:butt;stroke-linejoin:miter;stroke-miterlimit:10;stroke-dasharray:none;stroke-opacity:1"
         d="M 0,0 V 7.97" /></g><text
       id="text122"
       style="font-variant:normal;font-size:10.60954666px;font-family:'Times New Roman';-inkscape-font-specification:NimbusRomNo9L-Regu;writing-mode:lr-tb;fill:#000000;fill-opacity:1;fill-rule:nonzero;stroke:none"
       transform="matrix(1,0,0,-1,148.7831,542.5116)"><tspan
         id="tspan120"
         y="0"
         x="0 7.0765672 12.38134 17.091978 20.041433 23.574411 30.353912 38.990082 46.650173 50.183155 56.665585 63.148018">Chairs+KITTI</tspan></text>
<g
       transform="matrix(1.5213013,0,0,1.5213013,228.90088,538.87421)"
       id="g124"><path
         id="path126"
         style="fill:none;stroke:#000000;stroke-width:0.398;stroke-linecap:butt;stroke-linejoin:miter;stroke-miterlimit:10;stroke-dasharray:none;stroke-opacity:1"
         d="M 0,0 V 7.97" /></g><text
       id="text130"
       style="font-variant:normal;font-size:10.60954666px;font-family:'Times New Roman';-inkscape-font-specification:NimbusRomNo9L-Regu;writing-mode:lr-tb;fill:#000000;fill-opacity:1;fill-rule:nonzero;stroke:none"
       transform="matrix(1,0,0,-1,255.5373,542.5116)"><tspan
         id="tspan128"
         y="0"
         x="0 5.3047733 7.9571595 13.261932 69.76683 75.071602 77.723984 83.028763 136.13811 141.44289 146.74765 149.40004 154.70482 192.03828 197.34305 202.64783 205.30022 210.60498 234.09309 239.39787 244.70265 247.35504 252.65981">3.694.8610.3818.0739.33</tspan></text>
<text
       id="text134"
       style="font-variant:normal;font-weight:normal;font-size:10.60954666px;font-family:CMR7;-inkscape-font-specification:CMR7;writing-mode:lr-tb;fill:#000000;fill-opacity:1;fill-rule:nonzero;stroke:none"
       transform="matrix(1,0,0,-1,513.50188,542.5116)"><tspan
         id="tspan132"
         y="0"
         x="0">%</tspan></text>
<text
       id="text146"
       style="font-variant:normal;font-size:10.60954666px;font-family:'Times New Roman';-inkscape-font-specification:NimbusRomNo9L-Regu;writing-mode:lr-tb;fill:#000000;fill-opacity:1;fill-rule:nonzero;stroke:none"
       transform="matrix(1,0,0,-1,560.06961,542.5116)"><tspan
         id="tspan136"
         y="0"
         x="0 5.3047733 7.9571595 13.261932">2.11</tspan><tspan
         id="tspan138"
         y="-24.249521"
         x="-513.23944 -507.34055 -502.03577 -496.73102 -492.02036 -488.4874 -483.18262 -480.23315 -476.10605 -471.39542">Supervised</tspan><tspan
         id="tspan140"
         y="-12.124761"
         x="-518.8363 -511.17624 -505.87146 -501.74435 -496.43958 -491.1348 -486.42416 -482.89117 -477.5864 -474.63696 -470.50983 -465.79919">Unsupervised</tspan><tspan
         id="tspan142"
         y="2.7023718e-15"
         x="-543.73541 -536.65887 -531.94824 -527.82111 -523.11047 -520.16101 -517.21155 -511.9068 -504.54385 -500.41675 -495.70609 -487.45187 -484.50241 -480.96945 -476.84232 -471.53757 -466.23279 -461.52213 -457.98917 -452.68439 -449.73492 -445.60782 -440.89719">Baselinesemi-supervised</tspan><tspan
         id="tspan144"
         y="12.124761"
         x="-545.21112 -539.31219 -535.77924 -530.47443 -525.16968 -519.86487 -515.73779 -511.02713 -503.07007 -498.94293 -494.2323 -485.97809 -483.02863 -479.49564 -475.36853 -470.06375 -464.75897 -460.04834 -456.51538 -451.2106 -448.26114 -444.13403 -439.4234">Proposedsemi-supervised</tspan></text>
<g
       transform="matrix(1.5213013,0,0,1.5213013,135.34555,526.74933)"
       id="g148"><path
         id="path150"
         style="fill:none;stroke:#000000;stroke-width:0.398;stroke-linecap:butt;stroke-linejoin:miter;stroke-miterlimit:10;stroke-dasharray:none;stroke-opacity:1"
         d="M 0,0 V 7.97" /></g><text
       id="text154"
       style="font-variant:normal;font-size:10.60954666px;font-family:'Times New Roman';-inkscape-font-specification:NimbusRomNo9L-Regu;writing-mode:lr-tb;fill:#000000;fill-opacity:1;fill-rule:nonzero;stroke:none"
       transform="matrix(1,0,0,-1,148.7831,530.3868)"><tspan
         id="tspan152"
         y="0"
         x="0 7.0765672 12.38134 17.091978 20.041433 23.574411 30.353912 38.990082 46.650173 50.183155 56.665585 63.148018">Chairs+KITTI</tspan></text>
<g
       transform="matrix(1.5213013,0,0,1.5213013,228.90088,526.74933)"
       id="g156"><path
         id="path158"
         style="fill:none;stroke:#000000;stroke-width:0.398;stroke-linecap:butt;stroke-linejoin:miter;stroke-miterlimit:10;stroke-dasharray:none;stroke-opacity:1"
         d="M 0,0 V 7.97" /></g><text
       id="text162"
       style="font-variant:normal;font-size:10.60954666px;font-family:'Times New Roman';-inkscape-font-specification:NimbusRomNo9L-Medi;writing-mode:lr-tb;fill:#ff0000;fill-opacity:1;fill-rule:nonzero;stroke:none"
       transform="matrix(1,0,0,-1,255.5373,530.3868)"><tspan
         id="tspan160"
         y="0"
         x="0 5.3047733 7.9571595 13.261932 69.76683 75.071602 77.723984 83.028763 138.78973 144.09451 146.74689 152.05167 192.03676 197.34154 202.64632 205.29869 210.60347 234.09158 239.39636 244.70113 247.35352 252.65829">3.304.687.1616.0238.77</tspan></text>
<text
       id="text166"
       style="font-variant:normal;font-weight:normal;font-size:10.60954666px;font-family:CMR7;-inkscape-font-specification:CMR7;writing-mode:lr-tb;fill:#ff0000;fill-opacity:1;fill-rule:nonzero;stroke:none"
       transform="matrix(1,0,0,-1,513.50036,530.3868)"><tspan
         id="tspan164"
         y="0"
         x="0">%</tspan></text>
<text
       id="text170"
       style="font-variant:normal;font-size:10.60954666px;font-family:'Times New Roman';-inkscape-font-specification:NimbusRomNo9L-Medi;writing-mode:lr-tb;fill:#ff0000;fill-opacity:1;fill-rule:nonzero;stroke:none"
       transform="matrix(1,0,0,-1,560.06809,530.3868)"><tspan
         id="tspan168"
         y="0"
         x="0 5.3047733 7.9571595 13.261932">1.95</tspan></text>
<g
       transform="matrix(1.5213013,0,0,1.5213013,5.7658081,523.53339)"
       id="g172"><path
         id="path174"
         style="fill:none;stroke:#000000;stroke-width:0.79699999;stroke-linecap:butt;stroke-linejoin:miter;stroke-miterlimit:10;stroke-dasharray:none;stroke-opacity:1"
         d="M 0,0 H 394.654" /></g></g></svg>