<?xml version="1.0" encoding="utf-8" standalone="no"?>
<!DOCTYPE svg PUBLIC "-//W3C//DTD SVG 1.1//EN"
  "http://www.w3.org/Graphics/SVG/1.1/DTD/svg11.dtd">
<!-- Created with matplotlib (http://matplotlib.org/) -->
<svg height="357pt" version="1.1" viewBox="0 0 576 357" width="576pt" xmlns="http://www.w3.org/2000/svg" xmlns:xlink="http://www.w3.org/1999/xlink">
 <defs>
  <style type="text/css">
*{stroke-linecap:butt;stroke-linejoin:round;}
  </style>
 </defs>
 <g id="figure_1">
  <g id="patch_1">
   <path d="M 0 357.84 
L 576 357.84 
L 576 0 
L 0 0 
z
" style="fill:#ffffff;"/>
  </g>
  <g id="axes_1">
   <g id="patch_2">
    <path d="M 72 76.57776 
L 518.4 76.57776 
L 518.4 17.892 
L 72 17.892 
z
" style="fill:#ffffff;"/>
   </g>
   <g id="matplotlib.axis_1">
    <g id="xtick_1">
     <g id="line2d_1">
      <defs>
       <path d="M 0 0 
L 0 3.5 
" id="mcaf6e71f9d" style="stroke:#000000;stroke-width:0.8;"/>
      </defs>
      <g>
       <use style="stroke:#000000;stroke-width:0.8;" x="92.290909" xlink:href="#mcaf6e71f9d" y="76.57776"/>
      </g>
     </g>
    </g>
    <g id="xtick_2">
     <g id="line2d_2">
      <g>
       <use style="stroke:#000000;stroke-width:0.8;" x="143.660299" xlink:href="#mcaf6e71f9d" y="76.57776"/>
      </g>
     </g>
    </g>
    <g id="xtick_3">
     <g id="line2d_3">
      <g>
       <use style="stroke:#000000;stroke-width:0.8;" x="195.029689" xlink:href="#mcaf6e71f9d" y="76.57776"/>
      </g>
     </g>
    </g>
    <g id="xtick_4">
     <g id="line2d_4">
      <g>
       <use style="stroke:#000000;stroke-width:0.8;" x="246.399079" xlink:href="#mcaf6e71f9d" y="76.57776"/>
      </g>
     </g>
    </g>
    <g id="xtick_5">
     <g id="line2d_5">
      <g>
       <use style="stroke:#000000;stroke-width:0.8;" x="297.76847" xlink:href="#mcaf6e71f9d" y="76.57776"/>
      </g>
     </g>
    </g>
    <g id="xtick_6">
     <g id="line2d_6">
      <g>
       <use style="stroke:#000000;stroke-width:0.8;" x="349.13786" xlink:href="#mcaf6e71f9d" y="76.57776"/>
      </g>
     </g>
    </g>
    <g id="xtick_7">
     <g id="line2d_7">
      <g>
       <use style="stroke:#000000;stroke-width:0.8;" x="400.50725" xlink:href="#mcaf6e71f9d" y="76.57776"/>
      </g>
     </g>
    </g>
    <g id="xtick_8">
     <g id="line2d_8">
      <g>
       <use style="stroke:#000000;stroke-width:0.8;" x="451.87664" xlink:href="#mcaf6e71f9d" y="76.57776"/>
      </g>
     </g>
    </g>
    <g id="xtick_9">
     <g id="line2d_9">
      <g>
       <use style="stroke:#000000;stroke-width:0.8;" x="503.24603" xlink:href="#mcaf6e71f9d" y="76.57776"/>
      </g>
     </g>
    </g>
   </g>
   <g id="matplotlib.axis_2">
    <g id="ytick_1">
     <g id="line2d_10">
      <defs>
       <path d="M 0 0 
L -3.5 0 
" id="m3be09d5e44" style="stroke:#000000;stroke-width:0.8;"/>
      </defs>
      <g>
       <use style="stroke:#000000;stroke-width:0.8;" x="72" xlink:href="#m3be09d5e44" y="69.806326"/>
      </g>
     </g>
     <g id="text_1">
      <!-- -0.60 -->
      <defs>
       <path d="M 4.890625 31.390625 
L 31.203125 31.390625 
L 31.203125 23.390625 
L 4.890625 23.390625 
z
" id="DejaVuSans-2d"/>
       <path d="M 31.78125 66.40625 
Q 24.171875 66.40625 20.328125 58.90625 
Q 16.5 51.421875 16.5 36.375 
Q 16.5 21.390625 20.328125 13.890625 
Q 24.171875 6.390625 31.78125 6.390625 
Q 39.453125 6.390625 43.28125 13.890625 
Q 47.125 21.390625 47.125 36.375 
Q 47.125 51.421875 43.28125 58.90625 
Q 39.453125 66.40625 31.78125 66.40625 
z
M 31.78125 74.21875 
Q 44.046875 74.21875 50.515625 64.515625 
Q 56.984375 54.828125 56.984375 36.375 
Q 56.984375 17.96875 50.515625 8.265625 
Q 44.046875 -1.421875 31.78125 -1.421875 
Q 19.53125 -1.421875 13.0625 8.265625 
Q 6.59375 17.96875 6.59375 36.375 
Q 6.59375 54.828125 13.0625 64.515625 
Q 19.53125 74.21875 31.78125 74.21875 
z
" id="DejaVuSans-30"/>
       <path d="M 10.6875 12.40625 
L 21 12.40625 
L 21 0 
L 10.6875 0 
z
" id="DejaVuSans-2e"/>
       <path d="M 33.015625 40.375 
Q 26.375 40.375 22.484375 35.828125 
Q 18.609375 31.296875 18.609375 23.390625 
Q 18.609375 15.53125 22.484375 10.953125 
Q 26.375 6.390625 33.015625 6.390625 
Q 39.65625 6.390625 43.53125 10.953125 
Q 47.40625 15.53125 47.40625 23.390625 
Q 47.40625 31.296875 43.53125 35.828125 
Q 39.65625 40.375 33.015625 40.375 
z
M 52.59375 71.296875 
L 52.59375 62.3125 
Q 48.875 64.0625 45.09375 64.984375 
Q 41.3125 65.921875 37.59375 65.921875 
Q 27.828125 65.921875 22.671875 59.328125 
Q 17.53125 52.734375 16.796875 39.40625 
Q 19.671875 43.65625 24.015625 45.921875 
Q 28.375 48.1875 33.59375 48.1875 
Q 44.578125 48.1875 50.953125 41.515625 
Q 57.328125 34.859375 57.328125 23.390625 
Q 57.328125 12.15625 50.6875 5.359375 
Q 44.046875 -1.421875 33.015625 -1.421875 
Q 20.359375 -1.421875 13.671875 8.265625 
Q 6.984375 17.96875 6.984375 36.375 
Q 6.984375 53.65625 15.1875 63.9375 
Q 23.390625 74.21875 37.203125 74.21875 
Q 40.921875 74.21875 44.703125 73.484375 
Q 48.484375 72.75 52.59375 71.296875 
z
" id="DejaVuSans-36"/>
      </defs>
      <g transform="translate(39.126562 73.605545)scale(0.1 -0.1)">
       <use xlink:href="#DejaVuSans-2d"/>
       <use x="36.083984" xlink:href="#DejaVuSans-30"/>
       <use x="99.707031" xlink:href="#DejaVuSans-2e"/>
       <use x="131.494141" xlink:href="#DejaVuSans-36"/>
       <use x="195.117188" xlink:href="#DejaVuSans-30"/>
      </g>
     </g>
    </g>
    <g id="ytick_2">
     <g id="line2d_11">
      <g>
       <use style="stroke:#000000;stroke-width:0.8;" x="72" xlink:href="#m3be09d5e44" y="54.758695"/>
      </g>
     </g>
     <g id="text_2">
      <!-- -0.37 -->
      <defs>
       <path d="M 40.578125 39.3125 
Q 47.65625 37.796875 51.625 33 
Q 55.609375 28.21875 55.609375 21.1875 
Q 55.609375 10.40625 48.1875 4.484375 
Q 40.765625 -1.421875 27.09375 -1.421875 
Q 22.515625 -1.421875 17.65625 -0.515625 
Q 12.796875 0.390625 7.625 2.203125 
L 7.625 11.71875 
Q 11.71875 9.328125 16.59375 8.109375 
Q 21.484375 6.890625 26.8125 6.890625 
Q 36.078125 6.890625 40.9375 10.546875 
Q 45.796875 14.203125 45.796875 21.1875 
Q 45.796875 27.640625 41.28125 31.265625 
Q 36.765625 34.90625 28.71875 34.90625 
L 20.21875 34.90625 
L 20.21875 43.015625 
L 29.109375 43.015625 
Q 36.375 43.015625 40.234375 45.921875 
Q 44.09375 48.828125 44.09375 54.296875 
Q 44.09375 59.90625 40.109375 62.90625 
Q 36.140625 65.921875 28.71875 65.921875 
Q 24.65625 65.921875 20.015625 65.03125 
Q 15.375 64.15625 9.8125 62.3125 
L 9.8125 71.09375 
Q 15.4375 72.65625 20.34375 73.4375 
Q 25.25 74.21875 29.59375 74.21875 
Q 40.828125 74.21875 47.359375 69.109375 
Q 53.90625 64.015625 53.90625 55.328125 
Q 53.90625 49.265625 50.4375 45.09375 
Q 46.96875 40.921875 40.578125 39.3125 
z
" id="DejaVuSans-33"/>
       <path d="M 8.203125 72.90625 
L 55.078125 72.90625 
L 55.078125 68.703125 
L 28.609375 0 
L 18.3125 0 
L 43.21875 64.59375 
L 8.203125 64.59375 
z
" id="DejaVuSans-37"/>
      </defs>
      <g transform="translate(39.126562 58.557914)scale(0.1 -0.1)">
       <use xlink:href="#DejaVuSans-2d"/>
       <use x="36.083984" xlink:href="#DejaVuSans-30"/>
       <use x="99.707031" xlink:href="#DejaVuSans-2e"/>
       <use x="131.494141" xlink:href="#DejaVuSans-33"/>
       <use x="195.117188" xlink:href="#DejaVuSans-37"/>
      </g>
     </g>
    </g>
    <g id="ytick_3">
     <g id="line2d_12">
      <g>
       <use style="stroke:#000000;stroke-width:0.8;" x="72" xlink:href="#m3be09d5e44" y="39.711065"/>
      </g>
     </g>
     <g id="text_3">
      <!-- -0.14 -->
      <defs>
       <path d="M 12.40625 8.296875 
L 28.515625 8.296875 
L 28.515625 63.921875 
L 10.984375 60.40625 
L 10.984375 69.390625 
L 28.421875 72.90625 
L 38.28125 72.90625 
L 38.28125 8.296875 
L 54.390625 8.296875 
L 54.390625 0 
L 12.40625 0 
z
" id="DejaVuSans-31"/>
       <path d="M 37.796875 64.3125 
L 12.890625 25.390625 
L 37.796875 25.390625 
z
M 35.203125 72.90625 
L 47.609375 72.90625 
L 47.609375 25.390625 
L 58.015625 25.390625 
L 58.015625 17.1875 
L 47.609375 17.1875 
L 47.609375 0 
L 37.796875 0 
L 37.796875 17.1875 
L 4.890625 17.1875 
L 4.890625 26.703125 
z
" id="DejaVuSans-34"/>
      </defs>
      <g transform="translate(39.126562 43.510283)scale(0.1 -0.1)">
       <use xlink:href="#DejaVuSans-2d"/>
       <use x="36.083984" xlink:href="#DejaVuSans-30"/>
       <use x="99.707031" xlink:href="#DejaVuSans-2e"/>
       <use x="131.494141" xlink:href="#DejaVuSans-31"/>
       <use x="195.117188" xlink:href="#DejaVuSans-34"/>
      </g>
     </g>
    </g>
    <g id="ytick_4">
     <g id="line2d_13">
      <g>
       <use style="stroke:#000000;stroke-width:0.8;" x="72" xlink:href="#m3be09d5e44" y="24.663434"/>
      </g>
     </g>
     <g id="text_4">
      <!-- 0.09 -->
      <defs>
       <path d="M 10.984375 1.515625 
L 10.984375 10.5 
Q 14.703125 8.734375 18.5 7.8125 
Q 22.3125 6.890625 25.984375 6.890625 
Q 35.75 6.890625 40.890625 13.453125 
Q 46.046875 20.015625 46.78125 33.40625 
Q 43.953125 29.203125 39.59375 26.953125 
Q 35.25 24.703125 29.984375 24.703125 
Q 19.046875 24.703125 12.671875 31.3125 
Q 6.296875 37.9375 6.296875 49.421875 
Q 6.296875 60.640625 12.9375 67.421875 
Q 19.578125 74.21875 30.609375 74.21875 
Q 43.265625 74.21875 49.921875 64.515625 
Q 56.59375 54.828125 56.59375 36.375 
Q 56.59375 19.140625 48.40625 8.859375 
Q 40.234375 -1.421875 26.421875 -1.421875 
Q 22.703125 -1.421875 18.890625 -0.6875 
Q 15.09375 0.046875 10.984375 1.515625 
z
M 30.609375 32.421875 
Q 37.25 32.421875 41.125 36.953125 
Q 45.015625 41.5 45.015625 49.421875 
Q 45.015625 57.28125 41.125 61.84375 
Q 37.25 66.40625 30.609375 66.40625 
Q 23.96875 66.40625 20.09375 61.84375 
Q 16.21875 57.28125 16.21875 49.421875 
Q 16.21875 41.5 20.09375 36.953125 
Q 23.96875 32.421875 30.609375 32.421875 
z
" id="DejaVuSans-39"/>
      </defs>
      <g transform="translate(42.734375 28.462653)scale(0.1 -0.1)">
       <use xlink:href="#DejaVuSans-30"/>
       <use x="63.623047" xlink:href="#DejaVuSans-2e"/>
       <use x="95.410156" xlink:href="#DejaVuSans-30"/>
       <use x="159.033203" xlink:href="#DejaVuSans-39"/>
      </g>
     </g>
    </g>
    <g id="text_5">
     <!-- $s_{1}$ -->
     <defs>
      <path d="M 50 53.078125 
L 48.296875 44.578125 
Q 44.734375 46.53125 40.765625 47.5 
Q 36.8125 48.484375 32.625 48.484375 
Q 25.53125 48.484375 21.453125 46.0625 
Q 17.390625 43.65625 17.390625 39.5 
Q 17.390625 34.671875 26.859375 32.078125 
Q 27.59375 31.890625 27.9375 31.78125 
L 30.8125 30.90625 
Q 39.796875 28.421875 42.796875 25.6875 
Q 45.796875 22.953125 45.796875 18.21875 
Q 45.796875 9.515625 38.890625 4.046875 
Q 31.984375 -1.421875 20.796875 -1.421875 
Q 16.453125 -1.421875 11.671875 -0.578125 
Q 6.890625 0.25 1.125 2 
L 2.875 11.28125 
Q 7.8125 8.734375 12.59375 7.421875 
Q 17.390625 6.109375 21.78125 6.109375 
Q 28.375 6.109375 32.5 8.9375 
Q 36.625 11.765625 36.625 16.109375 
Q 36.625 20.796875 25.78125 23.6875 
L 24.859375 23.921875 
L 21.78125 24.703125 
Q 14.9375 26.515625 11.765625 29.46875 
Q 8.59375 32.421875 8.59375 37.015625 
Q 8.59375 45.75 15.15625 50.875 
Q 21.734375 56 33.015625 56 
Q 37.453125 56 41.671875 55.265625 
Q 45.90625 54.546875 50 53.078125 
z
" id="DejaVuSans-Oblique-73"/>
     </defs>
     <g transform="translate(33.046875 52.23488)rotate(-90)scale(0.1 -0.1)">
      <use xlink:href="#DejaVuSans-Oblique-73"/>
      <use transform="translate(52.099609 -16.40625)scale(0.7)" xlink:href="#DejaVuSans-31"/>
     </g>
    </g>
   </g>
   <g id="line2d_14">
    <path clip-path="url(#p02221e474a)" d="M 92.290909 47.936084 
L 97.427848 47.653226 
L 102.564787 47.068254 
L 107.701726 46.192998 
L 112.838665 45.096912 
L 117.975604 43.892918 
L 123.112543 42.706633 
L 128.249482 41.643307 
L 133.386421 40.767341 
L 138.52336 40.099348 
L 143.660299 39.625807 
L 148.797238 39.313378 
L 153.934177 39.122005 
L 159.071116 39.014087 
L 164.208055 38.959242 
L 169.344994 38.935545 
L 174.481933 38.92861 
L 179.618872 38.929775 
L 184.755811 38.934255 
L 189.89275 38.939685 
L 195.029689 38.94512 
L 200.166628 38.950455 
L 205.303567 38.956117 
L 210.440506 38.962945 
L 215.577445 38.972152 
L 220.714384 38.985281 
L 225.851323 39.004093 
L 230.988262 39.030341 
L 236.125201 39.065453 
L 241.26214 39.110202 
L 246.399079 39.164515 
L 251.536018 39.22753 
L 256.672957 39.297926 
L 261.809896 39.374447 
L 266.946835 39.456413 
L 272.083774 39.544093 
L 277.220713 39.638867 
L 282.357652 39.743294 
L 287.494591 39.861256 
L 292.63153 39.998391 
L 297.76847 40.16302 
L 302.905409 40.367776 
L 308.042348 40.632146 
L 313.179287 40.986148 
L 318.316226 41.475273 
L 323.453165 42.166524 
L 328.590104 43.154617 
L 333.727043 44.565682 
L 338.863982 46.552027 
L 344.000921 49.264213 
L 349.13786 52.778519 
L 354.274799 56.967807 
L 359.411738 61.375643 
L 364.548677 65.276861 
L 369.685616 68.04592 
L 374.822555 69.514168 
L 379.959494 69.806326 
L 385.096433 68.863176 
L 390.233372 66.437663 
L 395.370311 62.604115 
L 400.50725 57.987279 
L 405.644189 53.407877 
L 410.781128 49.445135 
L 415.918067 46.318207 
L 421.055006 43.999863 
L 426.191945 42.35715 
L 431.328884 41.237373 
L 436.465823 40.504912 
L 441.602762 40.051476 
L 446.739701 39.795138 
L 451.87664 39.675633 
L 457.013579 39.649099 
L 462.150518 39.683492 
L 467.287457 39.755041 
L 472.424396 39.845742 
L 477.561335 39.941759 
L 482.698274 40.032531 
L 487.835213 40.110372 
L 492.972152 40.170321 
L 498.109091 40.209993 
" style="fill:none;stroke:#1f77b4;stroke-linecap:square;stroke-width:1.5;"/>
   </g>
   <g id="line2d_15">
    <path clip-path="url(#p02221e474a)" d="M 92.290909 39.46695 
L 97.427848 48.666624 
L 102.564787 45.857544 
L 107.701726 45.435194 
L 112.838665 30.204735 
L 117.975604 35.806637 
L 123.112543 42.102317 
L 128.249482 51.861757 
L 133.386421 28.977348 
L 138.52336 36.473086 
L 143.660299 45.899387 
L 148.797238 37.03449 
L 153.934177 38.991734 
L 159.071116 42.450728 
L 164.208055 37.441053 
L 169.344994 33.371625 
L 174.481933 40.593218 
L 179.618872 46.093043 
L 184.755811 41.982545 
L 189.89275 36.852482 
L 195.029689 39.24815 
L 200.166628 39.628572 
L 205.303567 48.112318 
L 210.440506 55.604268 
L 215.577445 40.27954 
L 220.714384 37.618622 
L 225.851323 51.76532 
L 230.988262 29.258392 
L 236.125201 46.12133 
L 241.26214 34.779438 
L 246.399079 35.990389 
L 251.536018 38.668714 
L 256.672957 44.138262 
L 261.809896 37.125359 
L 266.946835 36.738647 
L 272.083774 45.913424 
L 277.220713 32.891666 
L 282.357652 29.008966 
L 287.494591 43.128555 
L 292.63153 41.034541 
L 297.76847 34.077126 
L 302.905409 38.123451 
L 308.042348 36.626928 
L 313.179287 44.42802 
L 318.316226 47.954927 
L 323.453165 36.701814 
L 328.590104 40.834506 
L 333.727043 35.279737 
L 338.863982 47.595158 
L 344.000921 47.669397 
L 349.13786 38.186811 
L 354.274799 46.917319 
L 359.411738 57.668433 
L 364.548677 48.050196 
L 369.685616 58.172403 
L 374.822555 55.289295 
L 379.959494 56.374413 
L 385.096433 57.786272 
L 390.233372 52.342528 
L 395.370311 47.353581 
L 400.50725 58.026008 
L 405.644189 44.885884 
L 410.781128 41.624407 
L 415.918067 31.8857 
L 421.055006 40.245483 
L 426.191945 37.177402 
L 431.328884 31.779495 
L 436.465823 45.450617 
L 441.602762 42.982234 
L 446.739701 39.223171 
L 451.87664 34.344986 
L 457.013579 27.242767 
L 462.150518 35.677834 
L 467.287457 42.926113 
L 472.424396 33.674442 
L 477.561335 46.945944 
L 482.698274 33.431342 
L 487.835213 24.663434 
L 492.972152 37.929117 
L 498.109091 34.828402 
" style="fill:none;stroke:#ff7f0e;stroke-linecap:square;stroke-width:1.5;"/>
   </g>
   <g id="patch_3">
    <path d="M 72 76.57776 
L 72 17.892 
" style="fill:none;stroke:#000000;stroke-linecap:square;stroke-linejoin:miter;stroke-width:0.8;"/>
   </g>
   <g id="patch_4">
    <path d="M 518.4 76.57776 
L 518.4 17.892 
" style="fill:none;stroke:#000000;stroke-linecap:square;stroke-linejoin:miter;stroke-width:0.8;"/>
   </g>
   <g id="patch_5">
    <path d="M 72 76.57776 
L 518.4 76.57776 
" style="fill:none;stroke:#000000;stroke-linecap:square;stroke-linejoin:miter;stroke-width:0.8;"/>
   </g>
   <g id="patch_6">
    <path d="M 72 17.892 
L 518.4 17.892 
" style="fill:none;stroke:#000000;stroke-linecap:square;stroke-linejoin:miter;stroke-width:0.8;"/>
   </g>
  </g>
  <g id="axes_2">
   <g id="patch_7">
    <path d="M 72 135.26352 
L 518.4 135.26352 
L 518.4 76.57776 
L 72 76.57776 
z
" style="fill:#ffffff;"/>
   </g>
   <g id="matplotlib.axis_3">
    <g id="xtick_10">
     <g id="line2d_16">
      <g>
       <use style="stroke:#000000;stroke-width:0.8;" x="92.290909" xlink:href="#mcaf6e71f9d" y="135.26352"/>
      </g>
     </g>
    </g>
    <g id="xtick_11">
     <g id="line2d_17">
      <g>
       <use style="stroke:#000000;stroke-width:0.8;" x="143.660299" xlink:href="#mcaf6e71f9d" y="135.26352"/>
      </g>
     </g>
    </g>
    <g id="xtick_12">
     <g id="line2d_18">
      <g>
       <use style="stroke:#000000;stroke-width:0.8;" x="195.029689" xlink:href="#mcaf6e71f9d" y="135.26352"/>
      </g>
     </g>
    </g>
    <g id="xtick_13">
     <g id="line2d_19">
      <g>
       <use style="stroke:#000000;stroke-width:0.8;" x="246.399079" xlink:href="#mcaf6e71f9d" y="135.26352"/>
      </g>
     </g>
    </g>
    <g id="xtick_14">
     <g id="line2d_20">
      <g>
       <use style="stroke:#000000;stroke-width:0.8;" x="297.76847" xlink:href="#mcaf6e71f9d" y="135.26352"/>
      </g>
     </g>
    </g>
    <g id="xtick_15">
     <g id="line2d_21">
      <g>
       <use style="stroke:#000000;stroke-width:0.8;" x="349.13786" xlink:href="#mcaf6e71f9d" y="135.26352"/>
      </g>
     </g>
    </g>
    <g id="xtick_16">
     <g id="line2d_22">
      <g>
       <use style="stroke:#000000;stroke-width:0.8;" x="400.50725" xlink:href="#mcaf6e71f9d" y="135.26352"/>
      </g>
     </g>
    </g>
    <g id="xtick_17">
     <g id="line2d_23">
      <g>
       <use style="stroke:#000000;stroke-width:0.8;" x="451.87664" xlink:href="#mcaf6e71f9d" y="135.26352"/>
      </g>
     </g>
    </g>
    <g id="xtick_18">
     <g id="line2d_24">
      <g>
       <use style="stroke:#000000;stroke-width:0.8;" x="503.24603" xlink:href="#mcaf6e71f9d" y="135.26352"/>
      </g>
     </g>
    </g>
   </g>
   <g id="matplotlib.axis_4">
    <g id="ytick_5">
     <g id="line2d_25">
      <g>
       <use style="stroke:#000000;stroke-width:0.8;" x="72" xlink:href="#m3be09d5e44" y="128.492086"/>
      </g>
     </g>
     <g id="text_6">
      <!-- 0.91 -->
      <g transform="translate(42.734375 132.291305)scale(0.1 -0.1)">
       <use xlink:href="#DejaVuSans-30"/>
       <use x="63.623047" xlink:href="#DejaVuSans-2e"/>
       <use x="95.410156" xlink:href="#DejaVuSans-39"/>
       <use x="159.033203" xlink:href="#DejaVuSans-31"/>
      </g>
     </g>
    </g>
    <g id="ytick_6">
     <g id="line2d_26">
      <g>
       <use style="stroke:#000000;stroke-width:0.8;" x="72" xlink:href="#m3be09d5e44" y="113.444455"/>
      </g>
     </g>
     <g id="text_7">
      <!-- 2.17 -->
      <defs>
       <path d="M 19.1875 8.296875 
L 53.609375 8.296875 
L 53.609375 0 
L 7.328125 0 
L 7.328125 8.296875 
Q 12.9375 14.109375 22.625 23.890625 
Q 32.328125 33.6875 34.8125 36.53125 
Q 39.546875 41.84375 41.421875 45.53125 
Q 43.3125 49.21875 43.3125 52.78125 
Q 43.3125 58.59375 39.234375 62.25 
Q 35.15625 65.921875 28.609375 65.921875 
Q 23.96875 65.921875 18.8125 64.3125 
Q 13.671875 62.703125 7.8125 59.421875 
L 7.8125 69.390625 
Q 13.765625 71.78125 18.9375 73 
Q 24.125 74.21875 28.421875 74.21875 
Q 39.75 74.21875 46.484375 68.546875 
Q 53.21875 62.890625 53.21875 53.421875 
Q 53.21875 48.921875 51.53125 44.890625 
Q 49.859375 40.875 45.40625 35.40625 
Q 44.1875 33.984375 37.640625 27.21875 
Q 31.109375 20.453125 19.1875 8.296875 
z
" id="DejaVuSans-32"/>
      </defs>
      <g transform="translate(42.734375 117.243674)scale(0.1 -0.1)">
       <use xlink:href="#DejaVuSans-32"/>
       <use x="63.623047" xlink:href="#DejaVuSans-2e"/>
       <use x="95.410156" xlink:href="#DejaVuSans-31"/>
       <use x="159.033203" xlink:href="#DejaVuSans-37"/>
      </g>
     </g>
    </g>
    <g id="ytick_7">
     <g id="line2d_27">
      <g>
       <use style="stroke:#000000;stroke-width:0.8;" x="72" xlink:href="#m3be09d5e44" y="98.396825"/>
      </g>
     </g>
     <g id="text_8">
      <!-- 3.42 -->
      <g transform="translate(42.734375 102.196043)scale(0.1 -0.1)">
       <use xlink:href="#DejaVuSans-33"/>
       <use x="63.623047" xlink:href="#DejaVuSans-2e"/>
       <use x="95.410156" xlink:href="#DejaVuSans-34"/>
       <use x="159.033203" xlink:href="#DejaVuSans-32"/>
      </g>
     </g>
    </g>
    <g id="ytick_8">
     <g id="line2d_28">
      <g>
       <use style="stroke:#000000;stroke-width:0.8;" x="72" xlink:href="#m3be09d5e44" y="83.349194"/>
      </g>
     </g>
     <g id="text_9">
      <!-- 4.67 -->
      <g transform="translate(42.734375 87.148413)scale(0.1 -0.1)">
       <use xlink:href="#DejaVuSans-34"/>
       <use x="63.623047" xlink:href="#DejaVuSans-2e"/>
       <use x="95.410156" xlink:href="#DejaVuSans-36"/>
       <use x="159.033203" xlink:href="#DejaVuSans-37"/>
      </g>
     </g>
    </g>
    <g id="text_10">
     <!-- $s_{25}$ -->
     <defs>
      <path d="M 10.796875 72.90625 
L 49.515625 72.90625 
L 49.515625 64.59375 
L 19.828125 64.59375 
L 19.828125 46.734375 
Q 21.96875 47.46875 24.109375 47.828125 
Q 26.265625 48.1875 28.421875 48.1875 
Q 40.625 48.1875 47.75 41.5 
Q 54.890625 34.8125 54.890625 23.390625 
Q 54.890625 11.625 47.5625 5.09375 
Q 40.234375 -1.421875 26.90625 -1.421875 
Q 22.3125 -1.421875 17.546875 -0.640625 
Q 12.796875 0.140625 7.71875 1.703125 
L 7.71875 11.625 
Q 12.109375 9.234375 16.796875 8.0625 
Q 21.484375 6.890625 26.703125 6.890625 
Q 35.15625 6.890625 40.078125 11.328125 
Q 45.015625 15.765625 45.015625 23.390625 
Q 45.015625 31 40.078125 35.4375 
Q 35.15625 39.890625 26.703125 39.890625 
Q 22.75 39.890625 18.8125 39.015625 
Q 14.890625 38.140625 10.796875 36.28125 
z
" id="DejaVuSans-35"/>
     </defs>
     <g transform="translate(36.654688 113.12064)rotate(-90)scale(0.1 -0.1)">
      <use xlink:href="#DejaVuSans-Oblique-73"/>
      <use transform="translate(52.099609 -16.40625)scale(0.7)" xlink:href="#DejaVuSans-32"/>
      <use transform="translate(96.635742 -16.40625)scale(0.7)" xlink:href="#DejaVuSans-35"/>
     </g>
    </g>
   </g>
   <g id="line2d_29">
    <path clip-path="url(#p9dc6ac6421)" d="M 92.290909 110.538245 
L 97.427848 110.925749 
L 102.564787 111.742139 
L 107.701726 113.000151 
L 112.838665 114.640772 
L 117.975604 116.536138 
L 123.112543 118.517536 
L 128.249482 120.419401 
L 133.386421 122.118087 
L 138.52336 123.548704 
L 143.660299 124.699266 
L 148.797238 125.592831 
L 153.934177 126.268975 
L 159.071116 126.770476 
L 164.208055 127.136042 
L 169.344994 127.397488 
L 174.481933 127.579443 
L 179.618872 127.700191 
L 184.755811 127.772832 
L 189.89275 127.806402 
L 195.029689 127.806819 
L 200.166628 127.777658 
L 205.303567 127.720786 
L 210.440506 127.63694 
L 215.577445 127.52629 
L 220.714384 127.389023 
L 225.851323 127.225964 
L 230.988262 127.039155 
L 236.125201 126.832279 
L 241.26214 126.610763 
L 246.399079 126.381388 
L 251.536018 126.151366 
L 256.672957 125.927014 
L 261.809896 125.712322 
L 266.946835 125.507796 
L 272.083774 125.309821 
L 277.220713 125.110584 
L 282.357652 124.898325 
L 287.494591 124.657547 
L 292.63153 124.368818 
L 297.76847 124.007868 
L 302.905409 123.543762 
L 308.042348 122.936031 
L 313.179287 122.130741 
L 318.316226 121.055757 
L 323.453165 119.616223 
L 328.590104 117.693107 
L 333.727043 115.151158 
L 338.863982 111.867745 
L 344.000921 107.797018 
L 349.13786 103.071277 
L 354.274799 98.093466 
L 359.411738 93.504083 
L 364.548677 89.928525 
L 369.685616 87.645245 
L 374.822555 86.524919 
L 379.959494 86.349833 
L 385.096433 87.165437 
L 390.233372 89.273183 
L 395.370311 92.862595 
L 400.50725 97.67047 
L 405.644189 103.030236 
L 410.781128 108.223025 
L 415.918067 112.76644 
L 421.055006 116.471237 
L 426.191945 119.352386 
L 431.328884 121.520974 
L 436.465823 123.112248 
L 441.602762 124.251282 
L 446.739701 125.041903 
L 451.87664 125.566614 
L 457.013579 125.890421 
L 462.150518 126.065253 
L 467.287457 126.13371 
L 472.424396 126.131713 
L 477.561335 126.090017 
L 482.698274 126.034707 
L 487.835213 125.986938 
L 492.972152 125.962262 
L 498.109091 125.970032 
" style="fill:none;stroke:#1f77b4;stroke-linecap:square;stroke-width:1.5;"/>
   </g>
   <g id="line2d_30">
    <path clip-path="url(#p9dc6ac6421)" d="M 92.290909 110.082115 
L 97.427848 109.958905 
L 102.564787 109.639289 
L 107.701726 110.916021 
L 112.838665 112.332828 
L 117.975604 114.905176 
L 123.112543 116.626315 
L 128.249482 118.738208 
L 133.386421 120.801455 
L 138.52336 121.456484 
L 143.660299 123.443986 
L 148.797238 125.656128 
L 153.934177 123.931358 
L 159.071116 124.694573 
L 164.208055 125.765518 
L 169.344994 127.249935 
L 174.481933 125.423245 
L 179.618872 125.714954 
L 184.755811 125.33407 
L 189.89275 125.985441 
L 195.029689 126.168763 
L 200.166628 128.492086 
L 205.303567 128.089141 
L 210.440506 124.998455 
L 215.577445 126.234951 
L 220.714384 125.700572 
L 225.851323 125.181496 
L 230.988262 126.638569 
L 236.125201 124.527061 
L 241.26214 126.245902 
L 246.399079 125.126484 
L 251.536018 123.394687 
L 256.672957 123.368719 
L 261.809896 125.995453 
L 266.946835 121.900028 
L 272.083774 124.587069 
L 277.220713 122.707444 
L 282.357652 125.197746 
L 287.494591 124.167026 
L 292.63153 122.359971 
L 297.76847 123.488256 
L 302.905409 121.81945 
L 308.042348 119.423303 
L 313.179287 120.727442 
L 318.316226 116.766328 
L 323.453165 117.717301 
L 328.590104 115.556355 
L 333.727043 111.131262 
L 338.863982 109.81908 
L 344.000921 105.81305 
L 349.13786 100.314112 
L 354.274799 95.585753 
L 359.411738 90.933636 
L 364.548677 86.980934 
L 369.685616 84.927581 
L 374.822555 84.98532 
L 379.959494 83.531443 
L 385.096433 83.349194 
L 390.233372 88.880636 
L 395.370311 92.609099 
L 400.50725 93.785304 
L 405.644189 102.758817 
L 410.781128 108.048886 
L 415.918067 109.876154 
L 421.055006 112.372655 
L 426.191945 118.453404 
L 431.328884 123.406073 
L 436.465823 121.529397 
L 441.602762 123.625107 
L 446.739701 125.398344 
L 451.87664 124.877721 
L 457.013579 124.496835 
L 462.150518 125.118984 
L 467.287457 124.422348 
L 472.424396 124.683343 
L 477.561335 123.657211 
L 482.698274 123.040719 
L 487.835213 125.437372 
L 492.972152 122.685739 
L 498.109091 125.811983 
" style="fill:none;stroke:#ff7f0e;stroke-linecap:square;stroke-width:1.5;"/>
   </g>
   <g id="patch_8">
    <path d="M 72 135.26352 
L 72 76.57776 
" style="fill:none;stroke:#000000;stroke-linecap:square;stroke-linejoin:miter;stroke-width:0.8;"/>
   </g>
   <g id="patch_9">
    <path d="M 518.4 135.26352 
L 518.4 76.57776 
" style="fill:none;stroke:#000000;stroke-linecap:square;stroke-linejoin:miter;stroke-width:0.8;"/>
   </g>
   <g id="patch_10">
    <path d="M 72 135.26352 
L 518.4 135.26352 
" style="fill:none;stroke:#000000;stroke-linecap:square;stroke-linejoin:miter;stroke-width:0.8;"/>
   </g>
   <g id="patch_11">
    <path d="M 72 76.57776 
L 518.4 76.57776 
" style="fill:none;stroke:#000000;stroke-linecap:square;stroke-linejoin:miter;stroke-width:0.8;"/>
   </g>
  </g>
  <g id="axes_3">
   <g id="patch_12">
    <path d="M 72 193.94928 
L 518.4 193.94928 
L 518.4 135.26352 
L 72 135.26352 
z
" style="fill:#ffffff;"/>
   </g>
   <g id="matplotlib.axis_5">
    <g id="xtick_19">
     <g id="line2d_31">
      <g>
       <use style="stroke:#000000;stroke-width:0.8;" x="92.290909" xlink:href="#mcaf6e71f9d" y="193.94928"/>
      </g>
     </g>
    </g>
    <g id="xtick_20">
     <g id="line2d_32">
      <g>
       <use style="stroke:#000000;stroke-width:0.8;" x="143.660299" xlink:href="#mcaf6e71f9d" y="193.94928"/>
      </g>
     </g>
    </g>
    <g id="xtick_21">
     <g id="line2d_33">
      <g>
       <use style="stroke:#000000;stroke-width:0.8;" x="195.029689" xlink:href="#mcaf6e71f9d" y="193.94928"/>
      </g>
     </g>
    </g>
    <g id="xtick_22">
     <g id="line2d_34">
      <g>
       <use style="stroke:#000000;stroke-width:0.8;" x="246.399079" xlink:href="#mcaf6e71f9d" y="193.94928"/>
      </g>
     </g>
    </g>
    <g id="xtick_23">
     <g id="line2d_35">
      <g>
       <use style="stroke:#000000;stroke-width:0.8;" x="297.76847" xlink:href="#mcaf6e71f9d" y="193.94928"/>
      </g>
     </g>
    </g>
    <g id="xtick_24">
     <g id="line2d_36">
      <g>
       <use style="stroke:#000000;stroke-width:0.8;" x="349.13786" xlink:href="#mcaf6e71f9d" y="193.94928"/>
      </g>
     </g>
    </g>
    <g id="xtick_25">
     <g id="line2d_37">
      <g>
       <use style="stroke:#000000;stroke-width:0.8;" x="400.50725" xlink:href="#mcaf6e71f9d" y="193.94928"/>
      </g>
     </g>
    </g>
    <g id="xtick_26">
     <g id="line2d_38">
      <g>
       <use style="stroke:#000000;stroke-width:0.8;" x="451.87664" xlink:href="#mcaf6e71f9d" y="193.94928"/>
      </g>
     </g>
    </g>
    <g id="xtick_27">
     <g id="line2d_39">
      <g>
       <use style="stroke:#000000;stroke-width:0.8;" x="503.24603" xlink:href="#mcaf6e71f9d" y="193.94928"/>
      </g>
     </g>
    </g>
   </g>
   <g id="matplotlib.axis_6">
    <g id="ytick_9">
     <g id="line2d_40">
      <g>
       <use style="stroke:#000000;stroke-width:0.8;" x="72" xlink:href="#m3be09d5e44" y="187.177846"/>
      </g>
     </g>
     <g id="text_11">
      <!-- 0.49 -->
      <g transform="translate(42.734375 190.977065)scale(0.1 -0.1)">
       <use xlink:href="#DejaVuSans-30"/>
       <use x="63.623047" xlink:href="#DejaVuSans-2e"/>
       <use x="95.410156" xlink:href="#DejaVuSans-34"/>
       <use x="159.033203" xlink:href="#DejaVuSans-39"/>
      </g>
     </g>
    </g>
    <g id="ytick_10">
     <g id="line2d_41">
      <g>
       <use style="stroke:#000000;stroke-width:0.8;" x="72" xlink:href="#m3be09d5e44" y="172.130215"/>
      </g>
     </g>
     <g id="text_12">
      <!-- 0.69 -->
      <g transform="translate(42.734375 175.929434)scale(0.1 -0.1)">
       <use xlink:href="#DejaVuSans-30"/>
       <use x="63.623047" xlink:href="#DejaVuSans-2e"/>
       <use x="95.410156" xlink:href="#DejaVuSans-36"/>
       <use x="159.033203" xlink:href="#DejaVuSans-39"/>
      </g>
     </g>
    </g>
    <g id="ytick_11">
     <g id="line2d_42">
      <g>
       <use style="stroke:#000000;stroke-width:0.8;" x="72" xlink:href="#m3be09d5e44" y="157.082585"/>
      </g>
     </g>
     <g id="text_13">
      <!-- 0.90 -->
      <g transform="translate(42.734375 160.881803)scale(0.1 -0.1)">
       <use xlink:href="#DejaVuSans-30"/>
       <use x="63.623047" xlink:href="#DejaVuSans-2e"/>
       <use x="95.410156" xlink:href="#DejaVuSans-39"/>
       <use x="159.033203" xlink:href="#DejaVuSans-30"/>
      </g>
     </g>
    </g>
    <g id="ytick_12">
     <g id="line2d_43">
      <g>
       <use style="stroke:#000000;stroke-width:0.8;" x="72" xlink:href="#m3be09d5e44" y="142.034954"/>
      </g>
     </g>
     <g id="text_14">
      <!-- 1.10 -->
      <g transform="translate(42.734375 145.834173)scale(0.1 -0.1)">
       <use xlink:href="#DejaVuSans-31"/>
       <use x="63.623047" xlink:href="#DejaVuSans-2e"/>
       <use x="95.410156" xlink:href="#DejaVuSans-31"/>
       <use x="159.033203" xlink:href="#DejaVuSans-30"/>
      </g>
     </g>
    </g>
    <g id="text_15">
     <!-- $s_{50}$ -->
     <g transform="translate(36.654688 171.8064)rotate(-90)scale(0.1 -0.1)">
      <use xlink:href="#DejaVuSans-Oblique-73"/>
      <use transform="translate(52.099609 -16.40625)scale(0.7)" xlink:href="#DejaVuSans-35"/>
      <use transform="translate(96.635742 -16.40625)scale(0.7)" xlink:href="#DejaVuSans-30"/>
     </g>
    </g>
   </g>
   <g id="line2d_44">
    <path clip-path="url(#p9f70147c70)" d="M 92.290909 159.04187 
L 97.427848 159.084209 
L 102.564787 159.181497 
L 107.701726 159.350498 
L 112.838665 159.611007 
L 117.975604 159.985209 
L 123.112543 160.495374 
L 128.249482 161.159826 
L 133.386421 161.987799 
L 138.52336 162.974534 
L 143.660299 164.098326 
L 148.797238 165.32088 
L 153.934177 166.591184 
L 159.071116 167.8518 
L 164.208055 169.045736 
L 169.344994 170.122175 
L 174.481933 171.040178 
L 179.618872 171.770287 
L 184.755811 172.294569 
L 189.89275 172.605779 
L 195.029689 172.706161 
L 200.166628 172.606312 
L 205.303567 172.324118 
L 210.440506 171.883764 
L 215.577445 171.314619 
L 220.714384 170.649794 
L 225.851323 169.924318 
L 230.988262 169.172925 
L 236.125201 168.427644 
L 241.26214 167.715531 
L 246.399079 167.056846 
L 251.536018 166.463924 
L 256.672957 165.940839 
L 261.809896 165.483749 
L 266.946835 165.081822 
L 272.083774 164.718531 
L 277.220713 164.373256 
L 282.357652 164.023124 
L 287.494591 163.645075 
L 292.63153 163.218121 
L 297.76847 162.725717 
L 302.905409 162.158109 
L 308.042348 161.514453 
L 313.179287 160.804393 
L 318.316226 160.048677 
L 323.453165 159.278283 
L 328.590104 158.531656 
L 333.727043 157.849905 
L 338.863982 157.270488 
L 344.000921 156.820604 
L 349.13786 156.511937 
L 354.274799 156.338221 
L 359.411738 156.276377 
L 364.548677 156.291085 
L 369.685616 156.341997 
L 374.822555 156.392268 
L 379.959494 156.416707 
L 385.096433 156.407631 
L 390.233372 156.376778 
L 395.370311 156.352551 
L 400.50725 156.373101 
L 405.644189 156.477022 
L 410.781128 156.694145 
L 415.918067 157.038767 
L 421.055006 157.506828 
L 426.191945 158.077325 
L 431.328884 158.717167 
L 436.465823 159.387801 
L 441.602762 160.051813 
L 446.739701 160.678128 
L 451.87664 161.245186 
L 457.013579 161.742154 
L 462.150518 162.168562 
L 467.287457 162.532894 
L 472.424396 162.850585 
L 477.561335 163.141748 
L 482.698274 163.428853 
L 487.835213 163.734533 
L 492.972152 164.079551 
L 498.109091 164.480979 
" style="fill:none;stroke:#1f77b4;stroke-linecap:square;stroke-width:1.5;"/>
   </g>
   <g id="line2d_45">
    <path clip-path="url(#p9f70147c70)" d="M 92.290909 161.019555 
L 97.427848 175.863188 
L 102.564787 163.88315 
L 107.701726 160.165404 
L 112.838665 152.236662 
L 117.975604 170.008304 
L 123.112543 171.418718 
L 128.249482 171.163122 
L 133.386421 173.179349 
L 138.52336 154.013714 
L 143.660299 161.189674 
L 148.797238 163.738942 
L 153.934177 169.646878 
L 159.071116 167.07667 
L 164.208055 167.066014 
L 169.344994 180.244615 
L 174.481933 175.329669 
L 179.618872 168.019914 
L 184.755811 178.284055 
L 189.89275 178.777168 
L 195.029689 174.672967 
L 200.166628 173.674951 
L 205.303567 176.386958 
L 210.440506 187.177846 
L 215.577445 175.999797 
L 220.714384 185.632849 
L 225.851323 170.297223 
L 230.988262 170.838451 
L 236.125201 173.718292 
L 241.26214 163.901608 
L 246.399079 179.13974 
L 251.536018 164.051585 
L 256.672957 170.200367 
L 261.809896 173.418433 
L 266.946835 178.573169 
L 272.083774 169.015014 
L 277.220713 162.531156 
L 282.357652 165.16026 
L 287.494591 164.409162 
L 292.63153 156.326539 
L 297.76847 159.068652 
L 302.905409 159.276409 
L 308.042348 176.969174 
L 313.179287 156.125278 
L 318.316226 156.444511 
L 323.453165 175.680444 
L 328.590104 162.873142 
L 333.727043 164.531689 
L 338.863982 150.55833 
L 344.000921 142.034954 
L 349.13786 161.372429 
L 354.274799 157.920627 
L 359.411738 163.188937 
L 364.548677 149.866716 
L 369.685616 165.158295 
L 374.822555 158.067026 
L 379.959494 146.91842 
L 385.096433 153.177294 
L 390.233372 152.908227 
L 395.370311 161.747973 
L 400.50725 160.521242 
L 405.644189 156.797715 
L 410.781128 170.266602 
L 415.918067 161.936849 
L 421.055006 156.45 
L 426.191945 153.117943 
L 431.328884 165.718798 
L 436.465823 166.452332 
L 441.602762 173.722913 
L 446.739701 160.805424 
L 451.87664 159.038011 
L 457.013579 159.791763 
L 462.150518 155.158175 
L 467.287457 144.006444 
L 472.424396 184.248899 
L 477.561335 174.21474 
L 482.698274 158.051874 
L 487.835213 158.9437 
L 492.972152 157.272113 
L 498.109091 165.263508 
" style="fill:none;stroke:#ff7f0e;stroke-linecap:square;stroke-width:1.5;"/>
   </g>
   <g id="patch_13">
    <path d="M 72 193.94928 
L 72 135.26352 
" style="fill:none;stroke:#000000;stroke-linecap:square;stroke-linejoin:miter;stroke-width:0.8;"/>
   </g>
   <g id="patch_14">
    <path d="M 518.4 193.94928 
L 518.4 135.26352 
" style="fill:none;stroke:#000000;stroke-linecap:square;stroke-linejoin:miter;stroke-width:0.8;"/>
   </g>
   <g id="patch_15">
    <path d="M 72 193.94928 
L 518.4 193.94928 
" style="fill:none;stroke:#000000;stroke-linecap:square;stroke-linejoin:miter;stroke-width:0.8;"/>
   </g>
   <g id="patch_16">
    <path d="M 72 135.26352 
L 518.4 135.26352 
" style="fill:none;stroke:#000000;stroke-linecap:square;stroke-linejoin:miter;stroke-width:0.8;"/>
   </g>
  </g>
  <g id="axes_4">
   <g id="patch_17">
    <path d="M 72 252.63504 
L 518.4 252.63504 
L 518.4 193.94928 
L 72 193.94928 
z
" style="fill:#ffffff;"/>
   </g>
   <g id="matplotlib.axis_7">
    <g id="xtick_28">
     <g id="line2d_46">
      <g>
       <use style="stroke:#000000;stroke-width:0.8;" x="92.290909" xlink:href="#mcaf6e71f9d" y="252.63504"/>
      </g>
     </g>
    </g>
    <g id="xtick_29">
     <g id="line2d_47">
      <g>
       <use style="stroke:#000000;stroke-width:0.8;" x="143.660299" xlink:href="#mcaf6e71f9d" y="252.63504"/>
      </g>
     </g>
    </g>
    <g id="xtick_30">
     <g id="line2d_48">
      <g>
       <use style="stroke:#000000;stroke-width:0.8;" x="195.029689" xlink:href="#mcaf6e71f9d" y="252.63504"/>
      </g>
     </g>
    </g>
    <g id="xtick_31">
     <g id="line2d_49">
      <g>
       <use style="stroke:#000000;stroke-width:0.8;" x="246.399079" xlink:href="#mcaf6e71f9d" y="252.63504"/>
      </g>
     </g>
    </g>
    <g id="xtick_32">
     <g id="line2d_50">
      <g>
       <use style="stroke:#000000;stroke-width:0.8;" x="297.76847" xlink:href="#mcaf6e71f9d" y="252.63504"/>
      </g>
     </g>
    </g>
    <g id="xtick_33">
     <g id="line2d_51">
      <g>
       <use style="stroke:#000000;stroke-width:0.8;" x="349.13786" xlink:href="#mcaf6e71f9d" y="252.63504"/>
      </g>
     </g>
    </g>
    <g id="xtick_34">
     <g id="line2d_52">
      <g>
       <use style="stroke:#000000;stroke-width:0.8;" x="400.50725" xlink:href="#mcaf6e71f9d" y="252.63504"/>
      </g>
     </g>
    </g>
    <g id="xtick_35">
     <g id="line2d_53">
      <g>
       <use style="stroke:#000000;stroke-width:0.8;" x="451.87664" xlink:href="#mcaf6e71f9d" y="252.63504"/>
      </g>
     </g>
    </g>
    <g id="xtick_36">
     <g id="line2d_54">
      <g>
       <use style="stroke:#000000;stroke-width:0.8;" x="503.24603" xlink:href="#mcaf6e71f9d" y="252.63504"/>
      </g>
     </g>
    </g>
   </g>
   <g id="matplotlib.axis_8">
    <g id="ytick_13">
     <g id="line2d_55">
      <g>
       <use style="stroke:#000000;stroke-width:0.8;" x="72" xlink:href="#m3be09d5e44" y="245.863606"/>
      </g>
     </g>
     <g id="text_16">
      <!-- 3.27 -->
      <g transform="translate(42.734375 249.662825)scale(0.1 -0.1)">
       <use xlink:href="#DejaVuSans-33"/>
       <use x="63.623047" xlink:href="#DejaVuSans-2e"/>
       <use x="95.410156" xlink:href="#DejaVuSans-32"/>
       <use x="159.033203" xlink:href="#DejaVuSans-37"/>
      </g>
     </g>
    </g>
    <g id="ytick_14">
     <g id="line2d_56">
      <g>
       <use style="stroke:#000000;stroke-width:0.8;" x="72" xlink:href="#m3be09d5e44" y="230.815975"/>
      </g>
     </g>
     <g id="text_17">
      <!-- 4.04 -->
      <g transform="translate(42.734375 234.615194)scale(0.1 -0.1)">
       <use xlink:href="#DejaVuSans-34"/>
       <use x="63.623047" xlink:href="#DejaVuSans-2e"/>
       <use x="95.410156" xlink:href="#DejaVuSans-30"/>
       <use x="159.033203" xlink:href="#DejaVuSans-34"/>
      </g>
     </g>
    </g>
    <g id="ytick_15">
     <g id="line2d_57">
      <g>
       <use style="stroke:#000000;stroke-width:0.8;" x="72" xlink:href="#m3be09d5e44" y="215.768345"/>
      </g>
     </g>
     <g id="text_18">
      <!-- 4.82 -->
      <defs>
       <path d="M 31.78125 34.625 
Q 24.75 34.625 20.71875 30.859375 
Q 16.703125 27.09375 16.703125 20.515625 
Q 16.703125 13.921875 20.71875 10.15625 
Q 24.75 6.390625 31.78125 6.390625 
Q 38.8125 6.390625 42.859375 10.171875 
Q 46.921875 13.96875 46.921875 20.515625 
Q 46.921875 27.09375 42.890625 30.859375 
Q 38.875 34.625 31.78125 34.625 
z
M 21.921875 38.8125 
Q 15.578125 40.375 12.03125 44.71875 
Q 8.5 49.078125 8.5 55.328125 
Q 8.5 64.0625 14.71875 69.140625 
Q 20.953125 74.21875 31.78125 74.21875 
Q 42.671875 74.21875 48.875 69.140625 
Q 55.078125 64.0625 55.078125 55.328125 
Q 55.078125 49.078125 51.53125 44.71875 
Q 48 40.375 41.703125 38.8125 
Q 48.828125 37.15625 52.796875 32.3125 
Q 56.78125 27.484375 56.78125 20.515625 
Q 56.78125 9.90625 50.3125 4.234375 
Q 43.84375 -1.421875 31.78125 -1.421875 
Q 19.734375 -1.421875 13.25 4.234375 
Q 6.78125 9.90625 6.78125 20.515625 
Q 6.78125 27.484375 10.78125 32.3125 
Q 14.796875 37.15625 21.921875 38.8125 
z
M 18.3125 54.390625 
Q 18.3125 48.734375 21.84375 45.5625 
Q 25.390625 42.390625 31.78125 42.390625 
Q 38.140625 42.390625 41.71875 45.5625 
Q 45.3125 48.734375 45.3125 54.390625 
Q 45.3125 60.0625 41.71875 63.234375 
Q 38.140625 66.40625 31.78125 66.40625 
Q 25.390625 66.40625 21.84375 63.234375 
Q 18.3125 60.0625 18.3125 54.390625 
z
" id="DejaVuSans-38"/>
      </defs>
      <g transform="translate(42.734375 219.567563)scale(0.1 -0.1)">
       <use xlink:href="#DejaVuSans-34"/>
       <use x="63.623047" xlink:href="#DejaVuSans-2e"/>
       <use x="95.410156" xlink:href="#DejaVuSans-38"/>
       <use x="159.033203" xlink:href="#DejaVuSans-32"/>
      </g>
     </g>
    </g>
    <g id="ytick_16">
     <g id="line2d_58">
      <g>
       <use style="stroke:#000000;stroke-width:0.8;" x="72" xlink:href="#m3be09d5e44" y="200.720714"/>
      </g>
     </g>
     <g id="text_19">
      <!-- 5.59 -->
      <g transform="translate(42.734375 204.519933)scale(0.1 -0.1)">
       <use xlink:href="#DejaVuSans-35"/>
       <use x="63.623047" xlink:href="#DejaVuSans-2e"/>
       <use x="95.410156" xlink:href="#DejaVuSans-35"/>
       <use x="159.033203" xlink:href="#DejaVuSans-39"/>
      </g>
     </g>
    </g>
    <g id="text_20">
     <!-- $s_{75}$ -->
     <g transform="translate(36.654688 230.49216)rotate(-90)scale(0.1 -0.1)">
      <use xlink:href="#DejaVuSans-Oblique-73"/>
      <use transform="translate(52.099609 -16.40625)scale(0.7)" xlink:href="#DejaVuSans-37"/>
      <use transform="translate(96.635742 -16.40625)scale(0.7)" xlink:href="#DejaVuSans-35"/>
     </g>
    </g>
   </g>
   <g id="line2d_59">
    <path clip-path="url(#p3be9583e8c)" d="M 92.290909 241.363306 
L 97.427848 241.086425 
L 102.564787 240.507534 
L 107.701726 239.592422 
L 112.838665 238.332128 
L 117.975604 236.746797 
L 123.112543 234.886123 
L 128.249482 232.825885 
L 133.386421 230.660668 
L 138.52336 228.493475 
L 143.660299 226.42374 
L 148.797238 224.535701 
L 153.934177 222.889349 
L 159.071116 221.515669 
L 164.208055 220.416855 
L 169.344994 219.571044 
L 174.481933 218.939996 
L 179.618872 218.477782 
L 184.755811 218.138734 
L 189.89275 217.883452 
L 195.029689 217.682351 
L 200.166628 217.516695 
L 205.303567 217.377515 
L 210.440506 217.262939 
L 215.577445 217.17462 
L 220.714384 217.114069 
L 225.851323 217.079617 
L 230.988262 217.064676 
L 236.125201 217.057636 
L 241.26214 217.043328 
L 246.399079 217.005618 
L 251.536018 216.930371 
L 256.672957 216.808005 
L 261.809896 216.635047 
L 266.946835 216.414426 
L 272.083774 216.154643 
L 277.220713 215.868194 
L 282.357652 215.569773 
L 287.494591 215.274675 
L 292.63153 214.997659 
L 297.76847 214.752225 
L 302.905409 214.550038 
L 308.042348 214.400091 
L 313.179287 214.30724 
L 318.316226 214.269981 
L 323.453165 214.277787 
L 328.590104 214.308812 
L 333.727043 214.32924 
L 338.863982 214.295638 
L 344.000921 214.161069 
L 349.13786 213.884558 
L 354.274799 213.441897 
L 359.411738 212.834222 
L 364.548677 212.090784 
L 369.685616 211.263825 
L 374.822555 210.416631 
L 379.959494 209.608863 
L 385.096433 208.884188 
L 390.233372 208.263826 
L 395.370311 207.747156 
L 400.50725 207.318291 
L 405.644189 206.955905 
L 410.781128 206.642492 
L 415.918067 206.36982 
L 421.055006 206.139354 
L 426.191945 205.95873 
L 431.328884 205.836812 
L 436.465823 205.779621 
L 441.602762 205.78838 
L 446.739701 205.859706 
L 451.87664 205.987138 
L 457.013579 206.16302 
L 462.150518 206.380002 
L 467.287457 206.631761 
L 472.424396 206.912999 
L 477.561335 207.218983 
L 482.698274 207.54501 
L 487.835213 207.886125 
L 492.972152 208.237272 
L 498.109091 208.593869 
" style="fill:none;stroke:#1f77b4;stroke-linecap:square;stroke-width:1.5;"/>
   </g>
   <g id="line2d_60">
    <path clip-path="url(#p3be9583e8c)" d="M 92.290909 245.863606 
L 97.427848 241.351422 
L 102.564787 241.300423 
L 107.701726 242.213645 
L 112.838665 236.861108 
L 117.975604 235.102696 
L 123.112543 235.026097 
L 128.249482 233.917797 
L 133.386421 227.851355 
L 138.52336 227.013514 
L 143.660299 221.670696 
L 148.797238 221.391405 
L 153.934177 219.153598 
L 159.071116 217.93977 
L 164.208055 219.520036 
L 169.344994 218.056911 
L 174.481933 219.224981 
L 179.618872 216.680069 
L 184.755811 216.483682 
L 189.89275 215.030196 
L 195.029689 217.584235 
L 200.166628 216.895345 
L 205.303567 214.344673 
L 210.440506 215.807315 
L 215.577445 212.222717 
L 220.714384 212.127989 
L 225.851323 215.988027 
L 230.988262 213.344842 
L 236.125201 215.872911 
L 241.26214 217.433757 
L 246.399079 216.232228 
L 251.536018 217.828771 
L 256.672957 212.65765 
L 261.809896 216.395624 
L 266.946835 214.826313 
L 272.083774 211.669051 
L 277.220713 214.469854 
L 282.357652 213.674052 
L 287.494591 214.338356 
L 292.63153 215.577987 
L 297.76847 219.097911 
L 302.905409 213.757919 
L 308.042348 210.741326 
L 313.179287 212.960909 
L 318.316226 212.380957 
L 323.453165 213.455129 
L 328.590104 214.959098 
L 333.727043 210.090378 
L 338.863982 214.186828 
L 344.000921 213.233644 
L 349.13786 211.060991 
L 354.274799 213.125051 
L 359.411738 207.271574 
L 364.548677 210.350658 
L 369.685616 210.055191 
L 374.822555 210.256875 
L 379.959494 208.91423 
L 385.096433 207.943231 
L 390.233372 206.231665 
L 395.370311 205.701558 
L 400.50725 208.397892 
L 405.644189 206.368173 
L 410.781128 206.062983 
L 415.918067 205.249512 
L 421.055006 204.153786 
L 426.191945 204.12627 
L 431.328884 206.194532 
L 436.465823 204.162815 
L 441.602762 203.291379 
L 446.739701 203.478453 
L 451.87664 204.914976 
L 457.013579 206.303114 
L 462.150518 207.629357 
L 467.287457 206.110715 
L 472.424396 203.243388 
L 477.561335 206.48934 
L 482.698274 200.720714 
L 487.835213 206.167589 
L 492.972152 205.944714 
L 498.109091 207.042088 
" style="fill:none;stroke:#ff7f0e;stroke-linecap:square;stroke-width:1.5;"/>
   </g>
   <g id="patch_18">
    <path d="M 72 252.63504 
L 72 193.94928 
" style="fill:none;stroke:#000000;stroke-linecap:square;stroke-linejoin:miter;stroke-width:0.8;"/>
   </g>
   <g id="patch_19">
    <path d="M 518.4 252.63504 
L 518.4 193.94928 
" style="fill:none;stroke:#000000;stroke-linecap:square;stroke-linejoin:miter;stroke-width:0.8;"/>
   </g>
   <g id="patch_20">
    <path d="M 72 252.63504 
L 518.4 252.63504 
" style="fill:none;stroke:#000000;stroke-linecap:square;stroke-linejoin:miter;stroke-width:0.8;"/>
   </g>
   <g id="patch_21">
    <path d="M 72 193.94928 
L 518.4 193.94928 
" style="fill:none;stroke:#000000;stroke-linecap:square;stroke-linejoin:miter;stroke-width:0.8;"/>
   </g>
  </g>
  <g id="axes_5">
   <g id="patch_22">
    <path d="M 72 311.3208 
L 518.4 311.3208 
L 518.4 252.63504 
L 72 252.63504 
z
" style="fill:#ffffff;"/>
   </g>
   <g id="matplotlib.axis_9">
    <g id="xtick_37">
     <g id="line2d_61">
      <g>
       <use style="stroke:#000000;stroke-width:0.8;" x="92.290909" xlink:href="#mcaf6e71f9d" y="311.3208"/>
      </g>
     </g>
     <g id="text_21">
      <!-- 0 -->
      <g transform="translate(89.109659 325.919237)scale(0.1 -0.1)">
       <use xlink:href="#DejaVuSans-30"/>
      </g>
     </g>
    </g>
    <g id="xtick_38">
     <g id="line2d_62">
      <g>
       <use style="stroke:#000000;stroke-width:0.8;" x="143.660299" xlink:href="#mcaf6e71f9d" y="311.3208"/>
      </g>
     </g>
     <g id="text_22">
      <!-- 10 -->
      <g transform="translate(137.297799 325.919237)scale(0.1 -0.1)">
       <use xlink:href="#DejaVuSans-31"/>
       <use x="63.623047" xlink:href="#DejaVuSans-30"/>
      </g>
     </g>
    </g>
    <g id="xtick_39">
     <g id="line2d_63">
      <g>
       <use style="stroke:#000000;stroke-width:0.8;" x="195.029689" xlink:href="#mcaf6e71f9d" y="311.3208"/>
      </g>
     </g>
     <g id="text_23">
      <!-- 20 -->
      <g transform="translate(188.667189 325.919237)scale(0.1 -0.1)">
       <use xlink:href="#DejaVuSans-32"/>
       <use x="63.623047" xlink:href="#DejaVuSans-30"/>
      </g>
     </g>
    </g>
    <g id="xtick_40">
     <g id="line2d_64">
      <g>
       <use style="stroke:#000000;stroke-width:0.8;" x="246.399079" xlink:href="#mcaf6e71f9d" y="311.3208"/>
      </g>
     </g>
     <g id="text_24">
      <!-- 30 -->
      <g transform="translate(240.036579 325.919237)scale(0.1 -0.1)">
       <use xlink:href="#DejaVuSans-33"/>
       <use x="63.623047" xlink:href="#DejaVuSans-30"/>
      </g>
     </g>
    </g>
    <g id="xtick_41">
     <g id="line2d_65">
      <g>
       <use style="stroke:#000000;stroke-width:0.8;" x="297.76847" xlink:href="#mcaf6e71f9d" y="311.3208"/>
      </g>
     </g>
     <g id="text_25">
      <!-- 40 -->
      <g transform="translate(291.40597 325.919237)scale(0.1 -0.1)">
       <use xlink:href="#DejaVuSans-34"/>
       <use x="63.623047" xlink:href="#DejaVuSans-30"/>
      </g>
     </g>
    </g>
    <g id="xtick_42">
     <g id="line2d_66">
      <g>
       <use style="stroke:#000000;stroke-width:0.8;" x="349.13786" xlink:href="#mcaf6e71f9d" y="311.3208"/>
      </g>
     </g>
     <g id="text_26">
      <!-- 50 -->
      <g transform="translate(342.77536 325.919237)scale(0.1 -0.1)">
       <use xlink:href="#DejaVuSans-35"/>
       <use x="63.623047" xlink:href="#DejaVuSans-30"/>
      </g>
     </g>
    </g>
    <g id="xtick_43">
     <g id="line2d_67">
      <g>
       <use style="stroke:#000000;stroke-width:0.8;" x="400.50725" xlink:href="#mcaf6e71f9d" y="311.3208"/>
      </g>
     </g>
     <g id="text_27">
      <!-- 60 -->
      <g transform="translate(394.14475 325.919237)scale(0.1 -0.1)">
       <use xlink:href="#DejaVuSans-36"/>
       <use x="63.623047" xlink:href="#DejaVuSans-30"/>
      </g>
     </g>
    </g>
    <g id="xtick_44">
     <g id="line2d_68">
      <g>
       <use style="stroke:#000000;stroke-width:0.8;" x="451.87664" xlink:href="#mcaf6e71f9d" y="311.3208"/>
      </g>
     </g>
     <g id="text_28">
      <!-- 70 -->
      <g transform="translate(445.51414 325.919237)scale(0.1 -0.1)">
       <use xlink:href="#DejaVuSans-37"/>
       <use x="63.623047" xlink:href="#DejaVuSans-30"/>
      </g>
     </g>
    </g>
    <g id="xtick_45">
     <g id="line2d_69">
      <g>
       <use style="stroke:#000000;stroke-width:0.8;" x="503.24603" xlink:href="#mcaf6e71f9d" y="311.3208"/>
      </g>
     </g>
     <g id="text_29">
      <!-- 80 -->
      <g transform="translate(496.88353 325.919237)scale(0.1 -0.1)">
       <use xlink:href="#DejaVuSans-38"/>
       <use x="63.623047" xlink:href="#DejaVuSans-30"/>
      </g>
     </g>
    </g>
   </g>
   <g id="matplotlib.axis_10">
    <g id="ytick_17">
     <g id="line2d_70">
      <g>
       <use style="stroke:#000000;stroke-width:0.8;" x="72" xlink:href="#m3be09d5e44" y="304.549366"/>
      </g>
     </g>
     <g id="text_30">
      <!-- -10.52 -->
      <g transform="translate(32.764063 308.348585)scale(0.1 -0.1)">
       <use xlink:href="#DejaVuSans-2d"/>
       <use x="36.083984" xlink:href="#DejaVuSans-31"/>
       <use x="99.707031" xlink:href="#DejaVuSans-30"/>
       <use x="163.330078" xlink:href="#DejaVuSans-2e"/>
       <use x="195.117188" xlink:href="#DejaVuSans-35"/>
       <use x="258.740234" xlink:href="#DejaVuSans-32"/>
      </g>
     </g>
    </g>
    <g id="ytick_18">
     <g id="line2d_71">
      <g>
       <use style="stroke:#000000;stroke-width:0.8;" x="72" xlink:href="#m3be09d5e44" y="289.501735"/>
      </g>
     </g>
     <g id="text_31">
      <!-- -9.73 -->
      <g transform="translate(39.126562 293.300954)scale(0.1 -0.1)">
       <use xlink:href="#DejaVuSans-2d"/>
       <use x="36.083984" xlink:href="#DejaVuSans-39"/>
       <use x="99.707031" xlink:href="#DejaVuSans-2e"/>
       <use x="131.494141" xlink:href="#DejaVuSans-37"/>
       <use x="195.117188" xlink:href="#DejaVuSans-33"/>
      </g>
     </g>
    </g>
    <g id="ytick_19">
     <g id="line2d_72">
      <g>
       <use style="stroke:#000000;stroke-width:0.8;" x="72" xlink:href="#m3be09d5e44" y="274.454105"/>
      </g>
     </g>
     <g id="text_32">
      <!-- -8.94 -->
      <g transform="translate(39.126562 278.253323)scale(0.1 -0.1)">
       <use xlink:href="#DejaVuSans-2d"/>
       <use x="36.083984" xlink:href="#DejaVuSans-38"/>
       <use x="99.707031" xlink:href="#DejaVuSans-2e"/>
       <use x="131.494141" xlink:href="#DejaVuSans-39"/>
       <use x="195.117188" xlink:href="#DejaVuSans-34"/>
      </g>
     </g>
    </g>
    <g id="ytick_20">
     <g id="line2d_73">
      <g>
       <use style="stroke:#000000;stroke-width:0.8;" x="72" xlink:href="#m3be09d5e44" y="259.406474"/>
      </g>
     </g>
     <g id="text_33">
      <!-- -8.15 -->
      <g transform="translate(39.126562 263.205693)scale(0.1 -0.1)">
       <use xlink:href="#DejaVuSans-2d"/>
       <use x="36.083984" xlink:href="#DejaVuSans-38"/>
       <use x="99.707031" xlink:href="#DejaVuSans-2e"/>
       <use x="131.494141" xlink:href="#DejaVuSans-31"/>
       <use x="195.117188" xlink:href="#DejaVuSans-35"/>
      </g>
     </g>
    </g>
    <g id="text_34">
     <!-- $s_{92}$ -->
     <g transform="translate(26.684375 289.17792)rotate(-90)scale(0.1 -0.1)">
      <use xlink:href="#DejaVuSans-Oblique-73"/>
      <use transform="translate(52.099609 -16.40625)scale(0.7)" xlink:href="#DejaVuSans-39"/>
      <use transform="translate(96.624805 -16.40625)scale(0.7)" xlink:href="#DejaVuSans-32"/>
     </g>
    </g>
   </g>
   <g id="line2d_74">
    <path clip-path="url(#pe9fa8dd359)" d="M 92.290909 303.16847 
L 97.427848 302.967847 
L 102.564787 302.54146 
L 107.701726 301.846383 
L 112.838665 300.843086 
L 117.975604 299.496551 
L 123.112543 297.778243 
L 128.249482 295.669456 
L 133.386421 293.166174 
L 138.52336 290.28488 
L 143.660299 287.06798 
L 148.797238 283.586967 
L 153.934177 279.941665 
L 159.071116 276.254896 
L 164.208055 272.663024 
L 169.344994 269.304203 
L 174.481933 266.306281 
L 179.618872 263.776338 
L 184.755811 261.792958 
L 189.89275 260.401675 
L 195.029689 259.61358 
L 200.166628 259.406474 
L 205.303567 259.728386 
L 210.440506 260.502861 
L 215.577445 261.635683 
L 220.714384 263.02268 
L 225.851323 264.557797 
L 230.988262 266.140898 
L 236.125201 267.68449 
L 241.26214 269.118766 
L 246.399079 270.394751 
L 251.536018 271.485548 
L 256.672957 272.385941 
L 261.809896 273.110868 
L 266.946835 273.692879 
L 272.083774 274.178977 
L 277.220713 274.626718 
L 282.357652 275.099662 
L 287.494591 275.662159 
L 292.63153 276.37367 
L 297.76847 277.282986 
L 302.905409 278.422921 
L 308.042348 279.80615 
L 313.179287 281.422888 
L 318.316226 283.241003 
L 323.453165 285.208842 
L 328.590104 287.260535 
L 333.727043 289.323009 
L 338.863982 291.323387 
L 344.000921 293.19523 
L 349.13786 294.88245 
L 354.274799 296.340376 
L 359.411738 297.534755 
L 364.548677 298.439725 
L 369.685616 299.036103 
L 374.822555 299.310611 
L 379.959494 299.255931 
L 385.096433 298.871035 
L 390.233372 298.161274 
L 395.370311 297.138213 
L 400.50725 295.81963 
L 405.644189 294.230256 
L 410.781128 292.403398 
L 415.918067 290.382914 
L 421.055006 288.224323 
L 426.191945 285.993845 
L 431.328884 283.7647 
L 436.465823 281.61099 
L 441.602762 279.600301 
L 446.739701 277.786574 
L 451.87664 276.204561 
L 457.013579 274.866715 
L 462.150518 273.762825 
L 467.287457 272.862107 
L 472.424396 272.117231 
L 477.561335 271.46956 
L 482.698274 270.85498 
L 487.835213 270.209626 
L 492.972152 269.475229 
L 498.109091 268.6038 
" style="fill:none;stroke:#1f77b4;stroke-linecap:square;stroke-width:1.5;"/>
   </g>
   <g id="line2d_75">
    <path clip-path="url(#pe9fa8dd359)" d="M 92.290909 304.549366 
L 97.427848 299.843566 
L 102.564787 302.911933 
L 107.701726 304.073211 
L 112.838665 300.79778 
L 117.975604 301.314539 
L 123.112543 298.75369 
L 128.249482 294.374532 
L 133.386421 294.809098 
L 138.52336 293.219801 
L 143.660299 286.207038 
L 148.797238 286.962855 
L 153.934177 280.560199 
L 159.071116 276.197468 
L 164.208055 272.921231 
L 169.344994 271.022092 
L 174.481933 268.378976 
L 179.618872 267.542322 
L 184.755811 262.792632 
L 189.89275 263.501645 
L 195.029689 265.018889 
L 200.166628 259.890984 
L 205.303567 261.73759 
L 210.440506 266.329781 
L 215.577445 265.008609 
L 220.714384 265.779145 
L 225.851323 267.465703 
L 230.988262 271.151559 
L 236.125201 270.854057 
L 241.26214 272.231619 
L 246.399079 273.142143 
L 251.536018 271.323967 
L 256.672957 271.308844 
L 261.809896 273.365178 
L 266.946835 273.359303 
L 272.083774 275.889116 
L 277.220713 275.733996 
L 282.357652 277.742594 
L 287.494591 275.174197 
L 292.63153 276.355301 
L 297.76847 276.563284 
L 302.905409 280.106759 
L 308.042348 278.854821 
L 313.179287 281.325193 
L 318.316226 285.143844 
L 323.453165 284.157735 
L 328.590104 287.681959 
L 333.727043 288.875662 
L 338.863982 294.300544 
L 344.000921 292.477854 
L 349.13786 295.090484 
L 354.274799 296.410102 
L 359.411738 296.888986 
L 364.548677 299.234991 
L 369.685616 299.319379 
L 374.822555 300.373431 
L 379.959494 296.824792 
L 385.096433 299.47988 
L 390.233372 297.849711 
L 395.370311 297.264259 
L 400.50725 296.138163 
L 405.644189 294.656778 
L 410.781128 291.515686 
L 415.918067 292.377929 
L 421.055006 286.394694 
L 426.191945 288.377205 
L 431.328884 286.392708 
L 436.465823 286.487809 
L 441.602762 279.762049 
L 446.739701 281.957589 
L 451.87664 276.02124 
L 457.013579 275.540458 
L 462.150518 273.648803 
L 467.287457 274.858225 
L 472.424396 273.71314 
L 477.561335 274.455628 
L 482.698274 274.796433 
L 487.835213 270.745874 
L 492.972152 271.166269 
L 498.109091 269.237231 
" style="fill:none;stroke:#ff7f0e;stroke-linecap:square;stroke-width:1.5;"/>
   </g>
   <g id="patch_23">
    <path d="M 72 311.3208 
L 72 252.63504 
" style="fill:none;stroke:#000000;stroke-linecap:square;stroke-linejoin:miter;stroke-width:0.8;"/>
   </g>
   <g id="patch_24">
    <path d="M 518.4 311.3208 
L 518.4 252.63504 
" style="fill:none;stroke:#000000;stroke-linecap:square;stroke-linejoin:miter;stroke-width:0.8;"/>
   </g>
   <g id="patch_25">
    <path d="M 72 311.3208 
L 518.4 311.3208 
" style="fill:none;stroke:#000000;stroke-linecap:square;stroke-linejoin:miter;stroke-width:0.8;"/>
   </g>
   <g id="patch_26">
    <path d="M 72 252.63504 
L 518.4 252.63504 
" style="fill:none;stroke:#000000;stroke-linecap:square;stroke-linejoin:miter;stroke-width:0.8;"/>
   </g>
  </g>
  <g id="legend_1">
   <g id="patch_27">
    <path d="M 143.544531 352.84 
L 432.455469 352.84 
Q 434.455469 352.84 434.455469 350.84 
L 434.455469 337.161875 
Q 434.455469 335.161875 432.455469 335.161875 
L 143.544531 335.161875 
Q 141.544531 335.161875 141.544531 337.161875 
L 141.544531 350.84 
Q 141.544531 352.84 143.544531 352.84 
z
" style="fill:#ffffff;opacity:0.8;stroke:#cccccc;stroke-linejoin:miter;"/>
   </g>
   <g id="line2d_76">
    <path d="M 145.544531 343.260312 
L 165.544531 343.260312 
" style="fill:none;stroke:#1f77b4;stroke-linecap:square;stroke-width:1.5;"/>
   </g>
   <g id="line2d_77"/>
   <g id="text_35">
    <!-- Python (without noise) -->
    <defs>
     <path d="M 19.671875 64.796875 
L 19.671875 37.40625 
L 32.078125 37.40625 
Q 38.96875 37.40625 42.71875 40.96875 
Q 46.484375 44.53125 46.484375 51.125 
Q 46.484375 57.671875 42.71875 61.234375 
Q 38.96875 64.796875 32.078125 64.796875 
z
M 9.8125 72.90625 
L 32.078125 72.90625 
Q 44.34375 72.90625 50.609375 67.359375 
Q 56.890625 61.8125 56.890625 51.125 
Q 56.890625 40.328125 50.609375 34.8125 
Q 44.34375 29.296875 32.078125 29.296875 
L 19.671875 29.296875 
L 19.671875 0 
L 9.8125 0 
z
" id="DejaVuSans-50"/>
     <path d="M 32.171875 -5.078125 
Q 28.375 -14.84375 24.75 -17.8125 
Q 21.140625 -20.796875 15.09375 -20.796875 
L 7.90625 -20.796875 
L 7.90625 -13.28125 
L 13.1875 -13.28125 
Q 16.890625 -13.28125 18.9375 -11.515625 
Q 21 -9.765625 23.484375 -3.21875 
L 25.09375 0.875 
L 2.984375 54.6875 
L 12.5 54.6875 
L 29.59375 11.921875 
L 46.6875 54.6875 
L 56.203125 54.6875 
z
" id="DejaVuSans-79"/>
     <path d="M 18.3125 70.21875 
L 18.3125 54.6875 
L 36.8125 54.6875 
L 36.8125 47.703125 
L 18.3125 47.703125 
L 18.3125 18.015625 
Q 18.3125 11.328125 20.140625 9.421875 
Q 21.96875 7.515625 27.59375 7.515625 
L 36.8125 7.515625 
L 36.8125 0 
L 27.59375 0 
Q 17.1875 0 13.234375 3.875 
Q 9.28125 7.765625 9.28125 18.015625 
L 9.28125 47.703125 
L 2.6875 47.703125 
L 2.6875 54.6875 
L 9.28125 54.6875 
L 9.28125 70.21875 
z
" id="DejaVuSans-74"/>
     <path d="M 54.890625 33.015625 
L 54.890625 0 
L 45.90625 0 
L 45.90625 32.71875 
Q 45.90625 40.484375 42.875 44.328125 
Q 39.84375 48.1875 33.796875 48.1875 
Q 26.515625 48.1875 22.3125 43.546875 
Q 18.109375 38.921875 18.109375 30.90625 
L 18.109375 0 
L 9.078125 0 
L 9.078125 75.984375 
L 18.109375 75.984375 
L 18.109375 46.1875 
Q 21.34375 51.125 25.703125 53.5625 
Q 30.078125 56 35.796875 56 
Q 45.21875 56 50.046875 50.171875 
Q 54.890625 44.34375 54.890625 33.015625 
z
" id="DejaVuSans-68"/>
     <path d="M 30.609375 48.390625 
Q 23.390625 48.390625 19.1875 42.75 
Q 14.984375 37.109375 14.984375 27.296875 
Q 14.984375 17.484375 19.15625 11.84375 
Q 23.34375 6.203125 30.609375 6.203125 
Q 37.796875 6.203125 41.984375 11.859375 
Q 46.1875 17.53125 46.1875 27.296875 
Q 46.1875 37.015625 41.984375 42.703125 
Q 37.796875 48.390625 30.609375 48.390625 
z
M 30.609375 56 
Q 42.328125 56 49.015625 48.375 
Q 55.71875 40.765625 55.71875 27.296875 
Q 55.71875 13.875 49.015625 6.21875 
Q 42.328125 -1.421875 30.609375 -1.421875 
Q 18.84375 -1.421875 12.171875 6.21875 
Q 5.515625 13.875 5.515625 27.296875 
Q 5.515625 40.765625 12.171875 48.375 
Q 18.84375 56 30.609375 56 
z
" id="DejaVuSans-6f"/>
     <path d="M 54.890625 33.015625 
L 54.890625 0 
L 45.90625 0 
L 45.90625 32.71875 
Q 45.90625 40.484375 42.875 44.328125 
Q 39.84375 48.1875 33.796875 48.1875 
Q 26.515625 48.1875 22.3125 43.546875 
Q 18.109375 38.921875 18.109375 30.90625 
L 18.109375 0 
L 9.078125 0 
L 9.078125 54.6875 
L 18.109375 54.6875 
L 18.109375 46.1875 
Q 21.34375 51.125 25.703125 53.5625 
Q 30.078125 56 35.796875 56 
Q 45.21875 56 50.046875 50.171875 
Q 54.890625 44.34375 54.890625 33.015625 
z
" id="DejaVuSans-6e"/>
     <path id="DejaVuSans-20"/>
     <path d="M 31 75.875 
Q 24.46875 64.65625 21.28125 53.65625 
Q 18.109375 42.671875 18.109375 31.390625 
Q 18.109375 20.125 21.3125 9.0625 
Q 24.515625 -2 31 -13.1875 
L 23.1875 -13.1875 
Q 15.875 -1.703125 12.234375 9.375 
Q 8.59375 20.453125 8.59375 31.390625 
Q 8.59375 42.28125 12.203125 53.3125 
Q 15.828125 64.359375 23.1875 75.875 
z
" id="DejaVuSans-28"/>
     <path d="M 4.203125 54.6875 
L 13.1875 54.6875 
L 24.421875 12.015625 
L 35.59375 54.6875 
L 46.1875 54.6875 
L 57.421875 12.015625 
L 68.609375 54.6875 
L 77.59375 54.6875 
L 63.28125 0 
L 52.6875 0 
L 40.921875 44.828125 
L 29.109375 0 
L 18.5 0 
z
" id="DejaVuSans-77"/>
     <path d="M 9.421875 54.6875 
L 18.40625 54.6875 
L 18.40625 0 
L 9.421875 0 
z
M 9.421875 75.984375 
L 18.40625 75.984375 
L 18.40625 64.59375 
L 9.421875 64.59375 
z
" id="DejaVuSans-69"/>
     <path d="M 8.5 21.578125 
L 8.5 54.6875 
L 17.484375 54.6875 
L 17.484375 21.921875 
Q 17.484375 14.15625 20.5 10.265625 
Q 23.53125 6.390625 29.59375 6.390625 
Q 36.859375 6.390625 41.078125 11.03125 
Q 45.3125 15.671875 45.3125 23.6875 
L 45.3125 54.6875 
L 54.296875 54.6875 
L 54.296875 0 
L 45.3125 0 
L 45.3125 8.40625 
Q 42.046875 3.421875 37.71875 1 
Q 33.40625 -1.421875 27.6875 -1.421875 
Q 18.265625 -1.421875 13.375 4.4375 
Q 8.5 10.296875 8.5 21.578125 
z
M 31.109375 56 
z
" id="DejaVuSans-75"/>
     <path d="M 44.28125 53.078125 
L 44.28125 44.578125 
Q 40.484375 46.53125 36.375 47.5 
Q 32.28125 48.484375 27.875 48.484375 
Q 21.1875 48.484375 17.84375 46.4375 
Q 14.5 44.390625 14.5 40.28125 
Q 14.5 37.15625 16.890625 35.375 
Q 19.28125 33.59375 26.515625 31.984375 
L 29.59375 31.296875 
Q 39.15625 29.25 43.1875 25.515625 
Q 47.21875 21.78125 47.21875 15.09375 
Q 47.21875 7.46875 41.1875 3.015625 
Q 35.15625 -1.421875 24.609375 -1.421875 
Q 20.21875 -1.421875 15.453125 -0.5625 
Q 10.6875 0.296875 5.421875 2 
L 5.421875 11.28125 
Q 10.40625 8.6875 15.234375 7.390625 
Q 20.0625 6.109375 24.8125 6.109375 
Q 31.15625 6.109375 34.5625 8.28125 
Q 37.984375 10.453125 37.984375 14.40625 
Q 37.984375 18.0625 35.515625 20.015625 
Q 33.0625 21.96875 24.703125 23.78125 
L 21.578125 24.515625 
Q 13.234375 26.265625 9.515625 29.90625 
Q 5.8125 33.546875 5.8125 39.890625 
Q 5.8125 47.609375 11.28125 51.796875 
Q 16.75 56 26.8125 56 
Q 31.78125 56 36.171875 55.265625 
Q 40.578125 54.546875 44.28125 53.078125 
z
" id="DejaVuSans-73"/>
     <path d="M 56.203125 29.59375 
L 56.203125 25.203125 
L 14.890625 25.203125 
Q 15.484375 15.921875 20.484375 11.0625 
Q 25.484375 6.203125 34.421875 6.203125 
Q 39.59375 6.203125 44.453125 7.46875 
Q 49.3125 8.734375 54.109375 11.28125 
L 54.109375 2.78125 
Q 49.265625 0.734375 44.1875 -0.34375 
Q 39.109375 -1.421875 33.890625 -1.421875 
Q 20.796875 -1.421875 13.15625 6.1875 
Q 5.515625 13.8125 5.515625 26.8125 
Q 5.515625 40.234375 12.765625 48.109375 
Q 20.015625 56 32.328125 56 
Q 43.359375 56 49.78125 48.890625 
Q 56.203125 41.796875 56.203125 29.59375 
z
M 47.21875 32.234375 
Q 47.125 39.59375 43.09375 43.984375 
Q 39.0625 48.390625 32.421875 48.390625 
Q 24.90625 48.390625 20.390625 44.140625 
Q 15.875 39.890625 15.1875 32.171875 
z
" id="DejaVuSans-65"/>
     <path d="M 8.015625 75.875 
L 15.828125 75.875 
Q 23.140625 64.359375 26.78125 53.3125 
Q 30.421875 42.28125 30.421875 31.390625 
Q 30.421875 20.453125 26.78125 9.375 
Q 23.140625 -1.703125 15.828125 -13.1875 
L 8.015625 -13.1875 
Q 14.5 -2 17.703125 9.0625 
Q 20.90625 20.125 20.90625 31.390625 
Q 20.90625 42.671875 17.703125 53.65625 
Q 14.5 64.65625 8.015625 75.875 
z
" id="DejaVuSans-29"/>
    </defs>
    <g transform="translate(173.544531 346.760312)scale(0.1 -0.1)">
     <use xlink:href="#DejaVuSans-50"/>
     <use x="60.302734" xlink:href="#DejaVuSans-79"/>
     <use x="119.482422" xlink:href="#DejaVuSans-74"/>
     <use x="158.691406" xlink:href="#DejaVuSans-68"/>
     <use x="222.070312" xlink:href="#DejaVuSans-6f"/>
     <use x="283.251953" xlink:href="#DejaVuSans-6e"/>
     <use x="346.630859" xlink:href="#DejaVuSans-20"/>
     <use x="378.417969" xlink:href="#DejaVuSans-28"/>
     <use x="417.431641" xlink:href="#DejaVuSans-77"/>
     <use x="499.21875" xlink:href="#DejaVuSans-69"/>
     <use x="527.001953" xlink:href="#DejaVuSans-74"/>
     <use x="566.210938" xlink:href="#DejaVuSans-68"/>
     <use x="629.589844" xlink:href="#DejaVuSans-6f"/>
     <use x="690.771484" xlink:href="#DejaVuSans-75"/>
     <use x="754.150391" xlink:href="#DejaVuSans-74"/>
     <use x="793.359375" xlink:href="#DejaVuSans-20"/>
     <use x="825.146484" xlink:href="#DejaVuSans-6e"/>
     <use x="888.525391" xlink:href="#DejaVuSans-6f"/>
     <use x="949.707031" xlink:href="#DejaVuSans-69"/>
     <use x="977.490234" xlink:href="#DejaVuSans-73"/>
     <use x="1029.589844" xlink:href="#DejaVuSans-65"/>
     <use x="1091.113281" xlink:href="#DejaVuSans-29"/>
    </g>
   </g>
   <g id="line2d_78">
    <path d="M 306.553906 343.260312 
L 326.553906 343.260312 
" style="fill:none;stroke:#ff7f0e;stroke-linecap:square;stroke-width:1.5;"/>
   </g>
   <g id="line2d_79"/>
   <g id="text_36">
    <!-- Matlab (with noise) -->
    <defs>
     <path d="M 9.8125 72.90625 
L 24.515625 72.90625 
L 43.109375 23.296875 
L 61.8125 72.90625 
L 76.515625 72.90625 
L 76.515625 0 
L 66.890625 0 
L 66.890625 64.015625 
L 48.09375 14.015625 
L 38.1875 14.015625 
L 19.390625 64.015625 
L 19.390625 0 
L 9.8125 0 
z
" id="DejaVuSans-4d"/>
     <path d="M 34.28125 27.484375 
Q 23.390625 27.484375 19.1875 25 
Q 14.984375 22.515625 14.984375 16.5 
Q 14.984375 11.71875 18.140625 8.90625 
Q 21.296875 6.109375 26.703125 6.109375 
Q 34.1875 6.109375 38.703125 11.40625 
Q 43.21875 16.703125 43.21875 25.484375 
L 43.21875 27.484375 
z
M 52.203125 31.203125 
L 52.203125 0 
L 43.21875 0 
L 43.21875 8.296875 
Q 40.140625 3.328125 35.546875 0.953125 
Q 30.953125 -1.421875 24.3125 -1.421875 
Q 15.921875 -1.421875 10.953125 3.296875 
Q 6 8.015625 6 15.921875 
Q 6 25.140625 12.171875 29.828125 
Q 18.359375 34.515625 30.609375 34.515625 
L 43.21875 34.515625 
L 43.21875 35.40625 
Q 43.21875 41.609375 39.140625 45 
Q 35.0625 48.390625 27.6875 48.390625 
Q 23 48.390625 18.546875 47.265625 
Q 14.109375 46.140625 10.015625 43.890625 
L 10.015625 52.203125 
Q 14.9375 54.109375 19.578125 55.046875 
Q 24.21875 56 28.609375 56 
Q 40.484375 56 46.34375 49.84375 
Q 52.203125 43.703125 52.203125 31.203125 
z
" id="DejaVuSans-61"/>
     <path d="M 9.421875 75.984375 
L 18.40625 75.984375 
L 18.40625 0 
L 9.421875 0 
z
" id="DejaVuSans-6c"/>
     <path d="M 48.6875 27.296875 
Q 48.6875 37.203125 44.609375 42.84375 
Q 40.53125 48.484375 33.40625 48.484375 
Q 26.265625 48.484375 22.1875 42.84375 
Q 18.109375 37.203125 18.109375 27.296875 
Q 18.109375 17.390625 22.1875 11.75 
Q 26.265625 6.109375 33.40625 6.109375 
Q 40.53125 6.109375 44.609375 11.75 
Q 48.6875 17.390625 48.6875 27.296875 
z
M 18.109375 46.390625 
Q 20.953125 51.265625 25.265625 53.625 
Q 29.59375 56 35.59375 56 
Q 45.5625 56 51.78125 48.09375 
Q 58.015625 40.1875 58.015625 27.296875 
Q 58.015625 14.40625 51.78125 6.484375 
Q 45.5625 -1.421875 35.59375 -1.421875 
Q 29.59375 -1.421875 25.265625 0.953125 
Q 20.953125 3.328125 18.109375 8.203125 
L 18.109375 0 
L 9.078125 0 
L 9.078125 75.984375 
L 18.109375 75.984375 
z
" id="DejaVuSans-62"/>
    </defs>
    <g transform="translate(334.553906 346.760312)scale(0.1 -0.1)">
     <use xlink:href="#DejaVuSans-4d"/>
     <use x="86.279297" xlink:href="#DejaVuSans-61"/>
     <use x="147.558594" xlink:href="#DejaVuSans-74"/>
     <use x="186.767578" xlink:href="#DejaVuSans-6c"/>
     <use x="214.550781" xlink:href="#DejaVuSans-61"/>
     <use x="275.830078" xlink:href="#DejaVuSans-62"/>
     <use x="339.306641" xlink:href="#DejaVuSans-20"/>
     <use x="371.09375" xlink:href="#DejaVuSans-28"/>
     <use x="410.107422" xlink:href="#DejaVuSans-77"/>
     <use x="491.894531" xlink:href="#DejaVuSans-69"/>
     <use x="519.677734" xlink:href="#DejaVuSans-74"/>
     <use x="558.886719" xlink:href="#DejaVuSans-68"/>
     <use x="622.265625" xlink:href="#DejaVuSans-20"/>
     <use x="654.052734" xlink:href="#DejaVuSans-6e"/>
     <use x="717.431641" xlink:href="#DejaVuSans-6f"/>
     <use x="778.613281" xlink:href="#DejaVuSans-69"/>
     <use x="806.396484" xlink:href="#DejaVuSans-73"/>
     <use x="858.496094" xlink:href="#DejaVuSans-65"/>
     <use x="920.019531" xlink:href="#DejaVuSans-29"/>
    </g>
   </g>
  </g>
 </g>
 <defs>
  <clipPath id="p02221e474a">
   <rect height="58.68576" width="446.4" x="72" y="17.892"/>
  </clipPath>
  <clipPath id="p9dc6ac6421">
   <rect height="58.68576" width="446.4" x="72" y="76.57776"/>
  </clipPath>
  <clipPath id="p9f70147c70">
   <rect height="58.68576" width="446.4" x="72" y="135.26352"/>
  </clipPath>
  <clipPath id="p3be9583e8c">
   <rect height="58.68576" width="446.4" x="72" y="193.94928"/>
  </clipPath>
  <clipPath id="pe9fa8dd359">
   <rect height="58.68576" width="446.4" x="72" y="252.63504"/>
  </clipPath>
 </defs>
</svg>
