<?xml version="1.0" encoding="utf-8" standalone="no"?>
<!DOCTYPE svg PUBLIC "-//W3C//DTD SVG 1.1//EN"
  "http://www.w3.org/Graphics/SVG/1.1/DTD/svg11.dtd">
<!-- Created with matplotlib (http://matplotlib.org/) -->
<svg height="285pt" version="1.1" viewBox="0 0 576 285" width="576pt" xmlns="http://www.w3.org/2000/svg" xmlns:xlink="http://www.w3.org/1999/xlink">
 <defs>
  <style type="text/css">
*{stroke-linecap:butt;stroke-linejoin:round;}
  </style>
 </defs>
 <g id="figure_1">
  <g id="patch_1">
   <path d="M 0 285.84 
L 576 285.84 
L 576 0 
L 0 0 
z
" style="fill:#ffffff;"/>
  </g>
  <g id="axes_1">
   <g id="patch_2">
    <path d="M 72 225.8136 
L 274.909091 225.8136 
L 274.909091 34.3008 
L 72 34.3008 
z
" style="fill:#ffffff;"/>
   </g>
   <g id="matplotlib.axis_1">
    <g id="xtick_1">
     <g id="line2d_1">
      <defs>
       <path d="M 0 0 
L 0 3.5 
" id="mf8e45d5914" style="stroke:#000000;stroke-width:0.8;"/>
      </defs>
      <g>
       <use style="stroke:#000000;stroke-width:0.8;" x="81.22314" xlink:href="#mf8e45d5914" y="225.8136"/>
      </g>
     </g>
     <g id="text_1">
      <!-- 0 -->
      <defs>
       <path d="M 31.78125 66.40625 
Q 24.171875 66.40625 20.328125 58.90625 
Q 16.5 51.421875 16.5 36.375 
Q 16.5 21.390625 20.328125 13.890625 
Q 24.171875 6.390625 31.78125 6.390625 
Q 39.453125 6.390625 43.28125 13.890625 
Q 47.125 21.390625 47.125 36.375 
Q 47.125 51.421875 43.28125 58.90625 
Q 39.453125 66.40625 31.78125 66.40625 
z
M 31.78125 74.21875 
Q 44.046875 74.21875 50.515625 64.515625 
Q 56.984375 54.828125 56.984375 36.375 
Q 56.984375 17.96875 50.515625 8.265625 
Q 44.046875 -1.421875 31.78125 -1.421875 
Q 19.53125 -1.421875 13.0625 8.265625 
Q 6.59375 17.96875 6.59375 36.375 
Q 6.59375 54.828125 13.0625 64.515625 
Q 19.53125 74.21875 31.78125 74.21875 
z
" id="DejaVuSans-30"/>
      </defs>
      <g transform="translate(78.04189 240.412038)scale(0.1 -0.1)">
       <use xlink:href="#DejaVuSans-30"/>
      </g>
     </g>
    </g>
    <g id="xtick_2">
     <g id="line2d_2">
      <g>
       <use style="stroke:#000000;stroke-width:0.8;" x="127.922586" xlink:href="#mf8e45d5914" y="225.8136"/>
      </g>
     </g>
     <g id="text_2">
      <!-- 20 -->
      <defs>
       <path d="M 19.1875 8.296875 
L 53.609375 8.296875 
L 53.609375 0 
L 7.328125 0 
L 7.328125 8.296875 
Q 12.9375 14.109375 22.625 23.890625 
Q 32.328125 33.6875 34.8125 36.53125 
Q 39.546875 41.84375 41.421875 45.53125 
Q 43.3125 49.21875 43.3125 52.78125 
Q 43.3125 58.59375 39.234375 62.25 
Q 35.15625 65.921875 28.609375 65.921875 
Q 23.96875 65.921875 18.8125 64.3125 
Q 13.671875 62.703125 7.8125 59.421875 
L 7.8125 69.390625 
Q 13.765625 71.78125 18.9375 73 
Q 24.125 74.21875 28.421875 74.21875 
Q 39.75 74.21875 46.484375 68.546875 
Q 53.21875 62.890625 53.21875 53.421875 
Q 53.21875 48.921875 51.53125 44.890625 
Q 49.859375 40.875 45.40625 35.40625 
Q 44.1875 33.984375 37.640625 27.21875 
Q 31.109375 20.453125 19.1875 8.296875 
z
" id="DejaVuSans-32"/>
      </defs>
      <g transform="translate(121.560086 240.412038)scale(0.1 -0.1)">
       <use xlink:href="#DejaVuSans-32"/>
       <use x="63.623047" xlink:href="#DejaVuSans-30"/>
      </g>
     </g>
    </g>
    <g id="xtick_3">
     <g id="line2d_3">
      <g>
       <use style="stroke:#000000;stroke-width:0.8;" x="174.622032" xlink:href="#mf8e45d5914" y="225.8136"/>
      </g>
     </g>
     <g id="text_3">
      <!-- 40 -->
      <defs>
       <path d="M 37.796875 64.3125 
L 12.890625 25.390625 
L 37.796875 25.390625 
z
M 35.203125 72.90625 
L 47.609375 72.90625 
L 47.609375 25.390625 
L 58.015625 25.390625 
L 58.015625 17.1875 
L 47.609375 17.1875 
L 47.609375 0 
L 37.796875 0 
L 37.796875 17.1875 
L 4.890625 17.1875 
L 4.890625 26.703125 
z
" id="DejaVuSans-34"/>
      </defs>
      <g transform="translate(168.259532 240.412038)scale(0.1 -0.1)">
       <use xlink:href="#DejaVuSans-34"/>
       <use x="63.623047" xlink:href="#DejaVuSans-30"/>
      </g>
     </g>
    </g>
    <g id="xtick_4">
     <g id="line2d_4">
      <g>
       <use style="stroke:#000000;stroke-width:0.8;" x="221.321477" xlink:href="#mf8e45d5914" y="225.8136"/>
      </g>
     </g>
     <g id="text_4">
      <!-- 60 -->
      <defs>
       <path d="M 33.015625 40.375 
Q 26.375 40.375 22.484375 35.828125 
Q 18.609375 31.296875 18.609375 23.390625 
Q 18.609375 15.53125 22.484375 10.953125 
Q 26.375 6.390625 33.015625 6.390625 
Q 39.65625 6.390625 43.53125 10.953125 
Q 47.40625 15.53125 47.40625 23.390625 
Q 47.40625 31.296875 43.53125 35.828125 
Q 39.65625 40.375 33.015625 40.375 
z
M 52.59375 71.296875 
L 52.59375 62.3125 
Q 48.875 64.0625 45.09375 64.984375 
Q 41.3125 65.921875 37.59375 65.921875 
Q 27.828125 65.921875 22.671875 59.328125 
Q 17.53125 52.734375 16.796875 39.40625 
Q 19.671875 43.65625 24.015625 45.921875 
Q 28.375 48.1875 33.59375 48.1875 
Q 44.578125 48.1875 50.953125 41.515625 
Q 57.328125 34.859375 57.328125 23.390625 
Q 57.328125 12.15625 50.6875 5.359375 
Q 44.046875 -1.421875 33.015625 -1.421875 
Q 20.359375 -1.421875 13.671875 8.265625 
Q 6.984375 17.96875 6.984375 36.375 
Q 6.984375 53.65625 15.1875 63.9375 
Q 23.390625 74.21875 37.203125 74.21875 
Q 40.921875 74.21875 44.703125 73.484375 
Q 48.484375 72.75 52.59375 71.296875 
z
" id="DejaVuSans-36"/>
      </defs>
      <g transform="translate(214.958977 240.412038)scale(0.1 -0.1)">
       <use xlink:href="#DejaVuSans-36"/>
       <use x="63.623047" xlink:href="#DejaVuSans-30"/>
      </g>
     </g>
    </g>
    <g id="xtick_5">
     <g id="line2d_5">
      <g>
       <use style="stroke:#000000;stroke-width:0.8;" x="268.020923" xlink:href="#mf8e45d5914" y="225.8136"/>
      </g>
     </g>
     <g id="text_5">
      <!-- 80 -->
      <defs>
       <path d="M 31.78125 34.625 
Q 24.75 34.625 20.71875 30.859375 
Q 16.703125 27.09375 16.703125 20.515625 
Q 16.703125 13.921875 20.71875 10.15625 
Q 24.75 6.390625 31.78125 6.390625 
Q 38.8125 6.390625 42.859375 10.171875 
Q 46.921875 13.96875 46.921875 20.515625 
Q 46.921875 27.09375 42.890625 30.859375 
Q 38.875 34.625 31.78125 34.625 
z
M 21.921875 38.8125 
Q 15.578125 40.375 12.03125 44.71875 
Q 8.5 49.078125 8.5 55.328125 
Q 8.5 64.0625 14.71875 69.140625 
Q 20.953125 74.21875 31.78125 74.21875 
Q 42.671875 74.21875 48.875 69.140625 
Q 55.078125 64.0625 55.078125 55.328125 
Q 55.078125 49.078125 51.53125 44.71875 
Q 48 40.375 41.703125 38.8125 
Q 48.828125 37.15625 52.796875 32.3125 
Q 56.78125 27.484375 56.78125 20.515625 
Q 56.78125 9.90625 50.3125 4.234375 
Q 43.84375 -1.421875 31.78125 -1.421875 
Q 19.734375 -1.421875 13.25 4.234375 
Q 6.78125 9.90625 6.78125 20.515625 
Q 6.78125 27.484375 10.78125 32.3125 
Q 14.796875 37.15625 21.921875 38.8125 
z
M 18.3125 54.390625 
Q 18.3125 48.734375 21.84375 45.5625 
Q 25.390625 42.390625 31.78125 42.390625 
Q 38.140625 42.390625 41.71875 45.5625 
Q 45.3125 48.734375 45.3125 54.390625 
Q 45.3125 60.0625 41.71875 63.234375 
Q 38.140625 66.40625 31.78125 66.40625 
Q 25.390625 66.40625 21.84375 63.234375 
Q 18.3125 60.0625 18.3125 54.390625 
z
" id="DejaVuSans-38"/>
      </defs>
      <g transform="translate(261.658423 240.412038)scale(0.1 -0.1)">
       <use xlink:href="#DejaVuSans-38"/>
       <use x="63.623047" xlink:href="#DejaVuSans-30"/>
      </g>
     </g>
    </g>
    <g id="text_6">
     <!-- Python (without noise) -->
     <defs>
      <path d="M 19.671875 64.796875 
L 19.671875 37.40625 
L 32.078125 37.40625 
Q 38.96875 37.40625 42.71875 40.96875 
Q 46.484375 44.53125 46.484375 51.125 
Q 46.484375 57.671875 42.71875 61.234375 
Q 38.96875 64.796875 32.078125 64.796875 
z
M 9.8125 72.90625 
L 32.078125 72.90625 
Q 44.34375 72.90625 50.609375 67.359375 
Q 56.890625 61.8125 56.890625 51.125 
Q 56.890625 40.328125 50.609375 34.8125 
Q 44.34375 29.296875 32.078125 29.296875 
L 19.671875 29.296875 
L 19.671875 0 
L 9.8125 0 
z
" id="DejaVuSans-50"/>
      <path d="M 32.171875 -5.078125 
Q 28.375 -14.84375 24.75 -17.8125 
Q 21.140625 -20.796875 15.09375 -20.796875 
L 7.90625 -20.796875 
L 7.90625 -13.28125 
L 13.1875 -13.28125 
Q 16.890625 -13.28125 18.9375 -11.515625 
Q 21 -9.765625 23.484375 -3.21875 
L 25.09375 0.875 
L 2.984375 54.6875 
L 12.5 54.6875 
L 29.59375 11.921875 
L 46.6875 54.6875 
L 56.203125 54.6875 
z
" id="DejaVuSans-79"/>
      <path d="M 18.3125 70.21875 
L 18.3125 54.6875 
L 36.8125 54.6875 
L 36.8125 47.703125 
L 18.3125 47.703125 
L 18.3125 18.015625 
Q 18.3125 11.328125 20.140625 9.421875 
Q 21.96875 7.515625 27.59375 7.515625 
L 36.8125 7.515625 
L 36.8125 0 
L 27.59375 0 
Q 17.1875 0 13.234375 3.875 
Q 9.28125 7.765625 9.28125 18.015625 
L 9.28125 47.703125 
L 2.6875 47.703125 
L 2.6875 54.6875 
L 9.28125 54.6875 
L 9.28125 70.21875 
z
" id="DejaVuSans-74"/>
      <path d="M 54.890625 33.015625 
L 54.890625 0 
L 45.90625 0 
L 45.90625 32.71875 
Q 45.90625 40.484375 42.875 44.328125 
Q 39.84375 48.1875 33.796875 48.1875 
Q 26.515625 48.1875 22.3125 43.546875 
Q 18.109375 38.921875 18.109375 30.90625 
L 18.109375 0 
L 9.078125 0 
L 9.078125 75.984375 
L 18.109375 75.984375 
L 18.109375 46.1875 
Q 21.34375 51.125 25.703125 53.5625 
Q 30.078125 56 35.796875 56 
Q 45.21875 56 50.046875 50.171875 
Q 54.890625 44.34375 54.890625 33.015625 
z
" id="DejaVuSans-68"/>
      <path d="M 30.609375 48.390625 
Q 23.390625 48.390625 19.1875 42.75 
Q 14.984375 37.109375 14.984375 27.296875 
Q 14.984375 17.484375 19.15625 11.84375 
Q 23.34375 6.203125 30.609375 6.203125 
Q 37.796875 6.203125 41.984375 11.859375 
Q 46.1875 17.53125 46.1875 27.296875 
Q 46.1875 37.015625 41.984375 42.703125 
Q 37.796875 48.390625 30.609375 48.390625 
z
M 30.609375 56 
Q 42.328125 56 49.015625 48.375 
Q 55.71875 40.765625 55.71875 27.296875 
Q 55.71875 13.875 49.015625 6.21875 
Q 42.328125 -1.421875 30.609375 -1.421875 
Q 18.84375 -1.421875 12.171875 6.21875 
Q 5.515625 13.875 5.515625 27.296875 
Q 5.515625 40.765625 12.171875 48.375 
Q 18.84375 56 30.609375 56 
z
" id="DejaVuSans-6f"/>
      <path d="M 54.890625 33.015625 
L 54.890625 0 
L 45.90625 0 
L 45.90625 32.71875 
Q 45.90625 40.484375 42.875 44.328125 
Q 39.84375 48.1875 33.796875 48.1875 
Q 26.515625 48.1875 22.3125 43.546875 
Q 18.109375 38.921875 18.109375 30.90625 
L 18.109375 0 
L 9.078125 0 
L 9.078125 54.6875 
L 18.109375 54.6875 
L 18.109375 46.1875 
Q 21.34375 51.125 25.703125 53.5625 
Q 30.078125 56 35.796875 56 
Q 45.21875 56 50.046875 50.171875 
Q 54.890625 44.34375 54.890625 33.015625 
z
" id="DejaVuSans-6e"/>
      <path id="DejaVuSans-20"/>
      <path d="M 31 75.875 
Q 24.46875 64.65625 21.28125 53.65625 
Q 18.109375 42.671875 18.109375 31.390625 
Q 18.109375 20.125 21.3125 9.0625 
Q 24.515625 -2 31 -13.1875 
L 23.1875 -13.1875 
Q 15.875 -1.703125 12.234375 9.375 
Q 8.59375 20.453125 8.59375 31.390625 
Q 8.59375 42.28125 12.203125 53.3125 
Q 15.828125 64.359375 23.1875 75.875 
z
" id="DejaVuSans-28"/>
      <path d="M 4.203125 54.6875 
L 13.1875 54.6875 
L 24.421875 12.015625 
L 35.59375 54.6875 
L 46.1875 54.6875 
L 57.421875 12.015625 
L 68.609375 54.6875 
L 77.59375 54.6875 
L 63.28125 0 
L 52.6875 0 
L 40.921875 44.828125 
L 29.109375 0 
L 18.5 0 
z
" id="DejaVuSans-77"/>
      <path d="M 9.421875 54.6875 
L 18.40625 54.6875 
L 18.40625 0 
L 9.421875 0 
z
M 9.421875 75.984375 
L 18.40625 75.984375 
L 18.40625 64.59375 
L 9.421875 64.59375 
z
" id="DejaVuSans-69"/>
      <path d="M 8.5 21.578125 
L 8.5 54.6875 
L 17.484375 54.6875 
L 17.484375 21.921875 
Q 17.484375 14.15625 20.5 10.265625 
Q 23.53125 6.390625 29.59375 6.390625 
Q 36.859375 6.390625 41.078125 11.03125 
Q 45.3125 15.671875 45.3125 23.6875 
L 45.3125 54.6875 
L 54.296875 54.6875 
L 54.296875 0 
L 45.3125 0 
L 45.3125 8.40625 
Q 42.046875 3.421875 37.71875 1 
Q 33.40625 -1.421875 27.6875 -1.421875 
Q 18.265625 -1.421875 13.375 4.4375 
Q 8.5 10.296875 8.5 21.578125 
z
M 31.109375 56 
z
" id="DejaVuSans-75"/>
      <path d="M 44.28125 53.078125 
L 44.28125 44.578125 
Q 40.484375 46.53125 36.375 47.5 
Q 32.28125 48.484375 27.875 48.484375 
Q 21.1875 48.484375 17.84375 46.4375 
Q 14.5 44.390625 14.5 40.28125 
Q 14.5 37.15625 16.890625 35.375 
Q 19.28125 33.59375 26.515625 31.984375 
L 29.59375 31.296875 
Q 39.15625 29.25 43.1875 25.515625 
Q 47.21875 21.78125 47.21875 15.09375 
Q 47.21875 7.46875 41.1875 3.015625 
Q 35.15625 -1.421875 24.609375 -1.421875 
Q 20.21875 -1.421875 15.453125 -0.5625 
Q 10.6875 0.296875 5.421875 2 
L 5.421875 11.28125 
Q 10.40625 8.6875 15.234375 7.390625 
Q 20.0625 6.109375 24.8125 6.109375 
Q 31.15625 6.109375 34.5625 8.28125 
Q 37.984375 10.453125 37.984375 14.40625 
Q 37.984375 18.0625 35.515625 20.015625 
Q 33.0625 21.96875 24.703125 23.78125 
L 21.578125 24.515625 
Q 13.234375 26.265625 9.515625 29.90625 
Q 5.8125 33.546875 5.8125 39.890625 
Q 5.8125 47.609375 11.28125 51.796875 
Q 16.75 56 26.8125 56 
Q 31.78125 56 36.171875 55.265625 
Q 40.578125 54.546875 44.28125 53.078125 
z
" id="DejaVuSans-73"/>
      <path d="M 56.203125 29.59375 
L 56.203125 25.203125 
L 14.890625 25.203125 
Q 15.484375 15.921875 20.484375 11.0625 
Q 25.484375 6.203125 34.421875 6.203125 
Q 39.59375 6.203125 44.453125 7.46875 
Q 49.3125 8.734375 54.109375 11.28125 
L 54.109375 2.78125 
Q 49.265625 0.734375 44.1875 -0.34375 
Q 39.109375 -1.421875 33.890625 -1.421875 
Q 20.796875 -1.421875 13.15625 6.1875 
Q 5.515625 13.8125 5.515625 26.8125 
Q 5.515625 40.234375 12.765625 48.109375 
Q 20.015625 56 32.328125 56 
Q 43.359375 56 49.78125 48.890625 
Q 56.203125 41.796875 56.203125 29.59375 
z
M 47.21875 32.234375 
Q 47.125 39.59375 43.09375 43.984375 
Q 39.0625 48.390625 32.421875 48.390625 
Q 24.90625 48.390625 20.390625 44.140625 
Q 15.875 39.890625 15.1875 32.171875 
z
" id="DejaVuSans-65"/>
      <path d="M 8.015625 75.875 
L 15.828125 75.875 
Q 23.140625 64.359375 26.78125 53.3125 
Q 30.421875 42.28125 30.421875 31.390625 
Q 30.421875 20.453125 26.78125 9.375 
Q 23.140625 -1.703125 15.828125 -13.1875 
L 8.015625 -13.1875 
Q 14.5 -2 17.703125 9.0625 
Q 20.90625 20.125 20.90625 31.390625 
Q 20.90625 42.671875 17.703125 53.65625 
Q 14.5 64.65625 8.015625 75.875 
z
" id="DejaVuSans-29"/>
     </defs>
     <g transform="translate(116.949858 254.090163)scale(0.1 -0.1)">
      <use xlink:href="#DejaVuSans-50"/>
      <use x="60.302734" xlink:href="#DejaVuSans-79"/>
      <use x="119.482422" xlink:href="#DejaVuSans-74"/>
      <use x="158.691406" xlink:href="#DejaVuSans-68"/>
      <use x="222.070312" xlink:href="#DejaVuSans-6f"/>
      <use x="283.251953" xlink:href="#DejaVuSans-6e"/>
      <use x="346.630859" xlink:href="#DejaVuSans-20"/>
      <use x="378.417969" xlink:href="#DejaVuSans-28"/>
      <use x="417.431641" xlink:href="#DejaVuSans-77"/>
      <use x="499.21875" xlink:href="#DejaVuSans-69"/>
      <use x="527.001953" xlink:href="#DejaVuSans-74"/>
      <use x="566.210938" xlink:href="#DejaVuSans-68"/>
      <use x="629.589844" xlink:href="#DejaVuSans-6f"/>
      <use x="690.771484" xlink:href="#DejaVuSans-75"/>
      <use x="754.150391" xlink:href="#DejaVuSans-74"/>
      <use x="793.359375" xlink:href="#DejaVuSans-20"/>
      <use x="825.146484" xlink:href="#DejaVuSans-6e"/>
      <use x="888.525391" xlink:href="#DejaVuSans-6f"/>
      <use x="949.707031" xlink:href="#DejaVuSans-69"/>
      <use x="977.490234" xlink:href="#DejaVuSans-73"/>
      <use x="1029.589844" xlink:href="#DejaVuSans-65"/>
      <use x="1091.113281" xlink:href="#DejaVuSans-29"/>
     </g>
    </g>
   </g>
   <g id="matplotlib.axis_2">
    <g id="ytick_1">
     <g id="line2d_6">
      <defs>
       <path d="M 0 0 
L -3.5 0 
" id="m7a42d17c42" style="stroke:#000000;stroke-width:0.8;"/>
      </defs>
      <g>
       <use style="stroke:#000000;stroke-width:0.8;" x="72" xlink:href="#m7a42d17c42" y="211.455146"/>
      </g>
     </g>
     <g id="text_7">
      <!-- −10 -->
      <defs>
       <path d="M 10.59375 35.5 
L 73.1875 35.5 
L 73.1875 27.203125 
L 10.59375 27.203125 
z
" id="DejaVuSans-2212"/>
       <path d="M 12.40625 8.296875 
L 28.515625 8.296875 
L 28.515625 63.921875 
L 10.984375 60.40625 
L 10.984375 69.390625 
L 28.421875 72.90625 
L 38.28125 72.90625 
L 38.28125 8.296875 
L 54.390625 8.296875 
L 54.390625 0 
L 12.40625 0 
z
" id="DejaVuSans-31"/>
      </defs>
      <g transform="translate(43.895313 215.254364)scale(0.1 -0.1)">
       <use xlink:href="#DejaVuSans-2212"/>
       <use x="83.789062" xlink:href="#DejaVuSans-31"/>
       <use x="147.412109" xlink:href="#DejaVuSans-30"/>
      </g>
     </g>
    </g>
    <g id="ytick_2">
     <g id="line2d_7">
      <g>
       <use style="stroke:#000000;stroke-width:0.8;" x="72" xlink:href="#m7a42d17c42" y="189.849199"/>
      </g>
     </g>
     <g id="text_8">
      <!-- −8 -->
      <g transform="translate(50.257812 193.648418)scale(0.1 -0.1)">
       <use xlink:href="#DejaVuSans-2212"/>
       <use x="83.789062" xlink:href="#DejaVuSans-38"/>
      </g>
     </g>
    </g>
    <g id="ytick_3">
     <g id="line2d_8">
      <g>
       <use style="stroke:#000000;stroke-width:0.8;" x="72" xlink:href="#m7a42d17c42" y="168.243253"/>
      </g>
     </g>
     <g id="text_9">
      <!-- −6 -->
      <g transform="translate(50.257812 172.042471)scale(0.1 -0.1)">
       <use xlink:href="#DejaVuSans-2212"/>
       <use x="83.789062" xlink:href="#DejaVuSans-36"/>
      </g>
     </g>
    </g>
    <g id="ytick_4">
     <g id="line2d_9">
      <g>
       <use style="stroke:#000000;stroke-width:0.8;" x="72" xlink:href="#m7a42d17c42" y="146.637306"/>
      </g>
     </g>
     <g id="text_10">
      <!-- −4 -->
      <g transform="translate(50.257812 150.436525)scale(0.1 -0.1)">
       <use xlink:href="#DejaVuSans-2212"/>
       <use x="83.789062" xlink:href="#DejaVuSans-34"/>
      </g>
     </g>
    </g>
    <g id="ytick_5">
     <g id="line2d_10">
      <g>
       <use style="stroke:#000000;stroke-width:0.8;" x="72" xlink:href="#m7a42d17c42" y="125.03136"/>
      </g>
     </g>
     <g id="text_11">
      <!-- −2 -->
      <g transform="translate(50.257812 128.830579)scale(0.1 -0.1)">
       <use xlink:href="#DejaVuSans-2212"/>
       <use x="83.789062" xlink:href="#DejaVuSans-32"/>
      </g>
     </g>
    </g>
    <g id="ytick_6">
     <g id="line2d_11">
      <g>
       <use style="stroke:#000000;stroke-width:0.8;" x="72" xlink:href="#m7a42d17c42" y="103.425413"/>
      </g>
     </g>
     <g id="text_12">
      <!-- 0 -->
      <g transform="translate(58.6375 107.224632)scale(0.1 -0.1)">
       <use xlink:href="#DejaVuSans-30"/>
      </g>
     </g>
    </g>
    <g id="ytick_7">
     <g id="line2d_12">
      <g>
       <use style="stroke:#000000;stroke-width:0.8;" x="72" xlink:href="#m7a42d17c42" y="81.819467"/>
      </g>
     </g>
     <g id="text_13">
      <!-- 2 -->
      <g transform="translate(58.6375 85.618686)scale(0.1 -0.1)">
       <use xlink:href="#DejaVuSans-32"/>
      </g>
     </g>
    </g>
    <g id="ytick_8">
     <g id="line2d_13">
      <g>
       <use style="stroke:#000000;stroke-width:0.8;" x="72" xlink:href="#m7a42d17c42" y="60.213521"/>
      </g>
     </g>
     <g id="text_14">
      <!-- 4 -->
      <g transform="translate(58.6375 64.012739)scale(0.1 -0.1)">
       <use xlink:href="#DejaVuSans-34"/>
      </g>
     </g>
    </g>
    <g id="ytick_9">
     <g id="line2d_14">
      <g>
       <use style="stroke:#000000;stroke-width:0.8;" x="72" xlink:href="#m7a42d17c42" y="38.607574"/>
      </g>
     </g>
     <g id="text_15">
      <!-- 6 -->
      <g transform="translate(58.6375 42.406793)scale(0.1 -0.1)">
       <use xlink:href="#DejaVuSans-36"/>
      </g>
     </g>
    </g>
    <g id="text_16">
     <!-- Response -->
     <defs>
      <path d="M 44.390625 34.1875 
Q 47.5625 33.109375 50.5625 29.59375 
Q 53.5625 26.078125 56.59375 19.921875 
L 66.609375 0 
L 56 0 
L 46.6875 18.703125 
Q 43.0625 26.03125 39.671875 28.421875 
Q 36.28125 30.8125 30.421875 30.8125 
L 19.671875 30.8125 
L 19.671875 0 
L 9.8125 0 
L 9.8125 72.90625 
L 32.078125 72.90625 
Q 44.578125 72.90625 50.734375 67.671875 
Q 56.890625 62.453125 56.890625 51.90625 
Q 56.890625 45.015625 53.6875 40.46875 
Q 50.484375 35.9375 44.390625 34.1875 
z
M 19.671875 64.796875 
L 19.671875 38.921875 
L 32.078125 38.921875 
Q 39.203125 38.921875 42.84375 42.21875 
Q 46.484375 45.515625 46.484375 51.90625 
Q 46.484375 58.296875 42.84375 61.546875 
Q 39.203125 64.796875 32.078125 64.796875 
z
" id="DejaVuSans-52"/>
      <path d="M 18.109375 8.203125 
L 18.109375 -20.796875 
L 9.078125 -20.796875 
L 9.078125 54.6875 
L 18.109375 54.6875 
L 18.109375 46.390625 
Q 20.953125 51.265625 25.265625 53.625 
Q 29.59375 56 35.59375 56 
Q 45.5625 56 51.78125 48.09375 
Q 58.015625 40.1875 58.015625 27.296875 
Q 58.015625 14.40625 51.78125 6.484375 
Q 45.5625 -1.421875 35.59375 -1.421875 
Q 29.59375 -1.421875 25.265625 0.953125 
Q 20.953125 3.328125 18.109375 8.203125 
z
M 48.6875 27.296875 
Q 48.6875 37.203125 44.609375 42.84375 
Q 40.53125 48.484375 33.40625 48.484375 
Q 26.265625 48.484375 22.1875 42.84375 
Q 18.109375 37.203125 18.109375 27.296875 
Q 18.109375 17.390625 22.1875 11.75 
Q 26.265625 6.109375 33.40625 6.109375 
Q 40.53125 6.109375 44.609375 11.75 
Q 48.6875 17.390625 48.6875 27.296875 
z
" id="DejaVuSans-70"/>
     </defs>
     <g transform="translate(37.815625 154.293138)rotate(-90)scale(0.1 -0.1)">
      <use xlink:href="#DejaVuSans-52"/>
      <use x="69.419922" xlink:href="#DejaVuSans-65"/>
      <use x="130.943359" xlink:href="#DejaVuSans-73"/>
      <use x="183.042969" xlink:href="#DejaVuSans-70"/>
      <use x="246.519531" xlink:href="#DejaVuSans-6f"/>
      <use x="307.701172" xlink:href="#DejaVuSans-6e"/>
      <use x="371.080078" xlink:href="#DejaVuSans-73"/>
      <use x="423.179688" xlink:href="#DejaVuSans-65"/>
     </g>
    </g>
   </g>
   <g id="line2d_15">
    <path clip-path="url(#pa3536f5086)" d="M 81.22314 106.310919 
L 83.558113 106.263752 
L 85.893085 106.166207 
L 88.228057 106.020257 
L 90.56303 105.837483 
L 92.898002 105.636715 
L 95.232974 105.438901 
L 97.567946 105.26159 
L 99.902919 105.115521 
L 102.237891 105.004132 
L 104.572863 104.925169 
L 106.907836 104.873071 
L 109.242808 104.841159 
L 111.57778 104.823164 
L 113.912752 104.814018 
L 116.247725 104.810066 
L 118.582697 104.80891 
L 120.917669 104.809104 
L 123.252641 104.809851 
L 125.587614 104.810757 
L 127.922586 104.811663 
L 130.257558 104.812553 
L 132.592531 104.813497 
L 134.927503 104.814635 
L 137.262475 104.816171 
L 139.597447 104.81836 
L 141.93242 104.821497 
L 144.267392 104.825874 
L 146.602364 104.831729 
L 148.937337 104.839191 
L 151.272309 104.848248 
L 153.607281 104.858755 
L 155.942253 104.870494 
L 158.277226 104.883254 
L 160.612198 104.896922 
L 162.94717 104.911543 
L 165.282142 104.927346 
L 167.617115 104.94476 
L 169.952087 104.96443 
L 172.287059 104.987298 
L 174.622032 105.01475 
L 176.957004 105.048893 
L 179.291976 105.092977 
L 181.626948 105.152007 
L 183.961921 105.23357 
L 186.296893 105.348837 
L 188.631865 105.513603 
L 190.966838 105.7489 
L 193.30181 106.080126 
L 195.636782 106.532387 
L 197.971754 107.118402 
L 200.306727 107.816972 
L 202.641699 108.551985 
L 204.976671 109.202519 
L 207.311643 109.664263 
L 209.646616 109.909095 
L 211.981588 109.957813 
L 214.31656 109.800542 
L 216.651533 109.396084 
L 218.986505 108.756834 
L 221.321477 107.98697 
L 223.656449 107.223348 
L 225.991422 106.562556 
L 228.326394 106.041136 
L 230.661366 105.654549 
L 232.996339 105.380624 
L 235.331311 105.1939 
L 237.666283 105.071761 
L 240.001255 104.996149 
L 242.336228 104.953405 
L 244.6712 104.933477 
L 247.006172 104.929053 
L 249.341144 104.934788 
L 251.676117 104.946719 
L 254.011089 104.961843 
L 256.346061 104.977854 
L 258.681034 104.99299 
L 261.016006 105.005971 
L 263.350978 105.015967 
L 265.68595 105.022583 
" style="fill:none;stroke:#1f77b4;stroke-linecap:square;stroke-width:1.5;"/>
   </g>
   <g id="line2d_16">
    <path clip-path="url(#pa3536f5086)" d="M 81.22314 77.421359 
L 83.558113 77.769329 
L 85.893085 78.502427 
L 88.228057 79.632095 
L 90.56303 81.105337 
L 92.898002 82.807334 
L 95.232974 84.586585 
L 97.567946 86.294419 
L 99.902919 87.8198 
L 102.237891 89.104463 
L 104.572863 90.137641 
L 106.907836 90.940044 
L 109.242808 91.547206 
L 111.57778 91.997543 
L 113.912752 92.325813 
L 116.247725 92.560586 
L 118.582697 92.723978 
L 120.917669 92.832407 
L 123.252641 92.897637 
L 125.587614 92.927781 
L 127.922586 92.928156 
L 130.257558 92.90197 
L 132.592531 92.8509 
L 134.927503 92.775609 
L 137.262475 92.676247 
L 139.597447 92.552985 
L 141.93242 92.406561 
L 144.267392 92.23881 
L 146.602364 92.053041 
L 148.937337 91.854124 
L 151.272309 91.648151 
L 153.607281 91.441596 
L 155.942253 91.240133 
L 158.277226 91.047344 
L 160.612198 90.863684 
L 162.94717 90.685907 
L 165.282142 90.506997 
L 167.617115 90.316393 
L 169.952087 90.100179 
L 172.287059 89.840907 
L 174.622032 89.516782 
L 176.957004 89.100025 
L 179.291976 88.554296 
L 181.626948 87.831164 
L 183.961921 86.865852 
L 186.296893 85.573181 
L 188.631865 83.846266 
L 190.966838 81.563652 
L 193.30181 78.61522 
L 195.636782 74.959797 
L 197.971754 70.716186 
L 200.306727 66.246222 
L 202.641699 62.125057 
L 204.976671 58.914285 
L 207.311643 56.86395 
L 209.646616 55.857922 
L 211.981588 55.700699 
L 214.31656 56.433093 
L 216.651533 58.325803 
L 218.986505 61.549015 
L 221.321477 65.866381 
L 223.656449 70.679333 
L 225.991422 75.342342 
L 228.326394 79.422228 
L 230.661366 82.749054 
L 232.996339 85.336262 
L 235.331311 87.283605 
L 237.666283 88.712536 
L 240.001255 89.735363 
L 242.336228 90.445322 
L 244.6712 90.916502 
L 247.006172 91.207273 
L 249.341144 91.364268 
L 251.676117 91.425741 
L 254.011089 91.423949 
L 256.346061 91.386506 
L 258.681034 91.336839 
L 261.016006 91.293943 
L 263.350978 91.271785 
L 265.68595 91.278762 
" style="fill:none;stroke:#ff7f0e;stroke-linecap:square;stroke-width:1.5;"/>
   </g>
   <g id="line2d_17">
    <path clip-path="url(#pa3536f5086)" d="M 81.22314 94.038547 
L 83.558113 94.044769 
L 85.893085 94.059066 
L 88.228057 94.083901 
L 90.56303 94.122184 
L 92.898002 94.177174 
L 95.232974 94.252144 
L 97.567946 94.349787 
L 99.902919 94.471461 
L 102.237891 94.616464 
L 104.572863 94.781609 
L 106.907836 94.961267 
L 109.242808 95.147942 
L 111.57778 95.333193 
L 113.912752 95.508645 
L 116.247725 95.666832 
L 118.582697 95.801735 
L 120.917669 95.909026 
L 123.252641 95.986072 
L 125.587614 96.031805 
L 127.922586 96.046556 
L 130.257558 96.031883 
L 132.592531 95.990414 
L 134.927503 95.925703 
L 137.262475 95.842065 
L 139.597447 95.744367 
L 141.93242 95.637756 
L 144.267392 95.527336 
L 146.602364 95.417815 
L 148.937337 95.313168 
L 151.272309 95.216372 
L 153.607281 95.129241 
L 155.942253 95.052372 
L 158.277226 94.985201 
L 160.612198 94.926136 
L 162.94717 94.87275 
L 165.282142 94.822011 
L 167.617115 94.770558 
L 169.952087 94.715002 
L 172.287059 94.65226 
L 174.622032 94.5799 
L 176.957004 94.496488 
L 179.291976 94.401901 
L 181.626948 94.297556 
L 183.961921 94.186501 
L 186.296893 94.073289 
L 188.631865 93.96357 
L 190.966838 93.863385 
L 193.30181 93.778238 
L 195.636782 93.712126 
L 197.971754 93.666766 
L 200.306727 93.641238 
L 202.641699 93.63215 
L 204.976671 93.634311 
L 207.311643 93.641793 
L 209.646616 93.64918 
L 211.981588 93.652772 
L 214.31656 93.651438 
L 216.651533 93.646904 
L 218.986505 93.643344 
L 221.321477 93.646364 
L 223.656449 93.661635 
L 225.991422 93.693542 
L 228.326394 93.744185 
L 230.661366 93.812968 
L 232.996339 93.896805 
L 235.331311 93.990831 
L 237.666283 94.089383 
L 240.001255 94.186962 
L 242.336228 94.279 
L 244.6712 94.362331 
L 247.006172 94.435362 
L 249.341144 94.498024 
L 251.676117 94.551564 
L 254.011089 94.59825 
L 256.346061 94.641037 
L 258.681034 94.683228 
L 261.016006 94.728148 
L 263.350978 94.77885 
L 265.68595 94.837841 
" style="fill:none;stroke:#2ca02c;stroke-linecap:square;stroke-width:1.5;"/>
   </g>
   <g id="line2d_18">
    <path clip-path="url(#pa3536f5086)" d="M 81.22314 65.637746 
L 83.558113 65.483564 
L 85.893085 65.161209 
L 88.228057 64.651629 
L 90.56303 63.949835 
L 92.898002 63.067044 
L 95.232974 62.030928 
L 97.567946 60.883685 
L 99.902919 59.677984 
L 102.237891 58.471183 
L 104.572863 57.318652 
L 106.907836 56.267297 
L 109.242808 55.350527 
L 111.57778 54.585593 
L 113.912752 53.973719 
L 116.247725 53.50273 
L 118.582697 53.151331 
L 120.917669 52.893947 
L 123.252641 52.705148 
L 125.587614 52.562995 
L 127.922586 52.451011 
L 130.257558 52.358765 
L 132.592531 52.281263 
L 134.927503 52.217461 
L 137.262475 52.168281 
L 139.597447 52.134563 
L 141.93242 52.115379 
L 144.267392 52.107059 
L 146.602364 52.103139 
L 148.937337 52.095171 
L 151.272309 52.074173 
L 153.607281 52.032271 
L 155.942253 51.964132 
L 158.277226 51.86782 
L 160.612198 51.744967 
L 162.94717 51.600307 
L 165.282142 51.440798 
L 167.617115 51.274623 
L 169.952087 51.110297 
L 172.287059 50.956041 
L 174.622032 50.819371 
L 176.957004 50.706783 
L 179.291976 50.623285 
L 181.626948 50.571581 
L 183.961921 50.550834 
L 186.296893 50.555181 
L 188.631865 50.572457 
L 190.966838 50.583832 
L 193.30181 50.565121 
L 195.636782 50.490186 
L 197.971754 50.336211 
L 200.306727 50.089715 
L 202.641699 49.751332 
L 204.976671 49.337349 
L 207.311643 48.876856 
L 209.646616 48.405097 
L 211.981588 47.955291 
L 214.31656 47.551756 
L 216.651533 47.206308 
L 218.986505 46.9186 
L 221.321477 46.679787 
L 223.656449 46.477992 
L 225.991422 46.303468 
L 228.326394 46.151631 
L 230.661366 46.023296 
L 232.996339 45.922715 
L 235.331311 45.854825 
L 237.666283 45.822979 
L 240.001255 45.827856 
L 242.336228 45.867574 
L 244.6712 45.938534 
L 247.006172 46.036474 
L 249.341144 46.157301 
L 251.676117 46.297492 
L 254.011089 46.4541 
L 256.346061 46.624487 
L 258.681034 46.806035 
L 261.016006 46.995985 
L 263.350978 47.191521 
L 265.68595 47.390092 
" style="fill:none;stroke:#d62728;stroke-linecap:square;stroke-width:1.5;"/>
   </g>
   <g id="line2d_19">
    <path clip-path="url(#pa3536f5086)" d="M 81.22314 216.324405 
L 83.558113 216.210491 
L 85.893085 215.968391 
L 88.228057 215.573728 
L 90.56303 215.004061 
L 92.898002 214.239503 
L 95.232974 213.263853 
L 97.567946 212.066491 
L 99.902919 210.645137 
L 102.237891 209.009148 
L 104.572863 207.182604 
L 106.907836 205.206096 
L 109.242808 203.136308 
L 111.57778 201.042973 
L 113.912752 199.003521 
L 116.247725 197.096394 
L 118.582697 195.394185 
L 120.917669 193.957693 
L 123.252641 192.831533 
L 125.587614 192.041571 
L 127.922586 191.594092 
L 130.257558 191.476499 
L 132.592531 191.659281 
L 134.927503 192.099021 
L 137.262475 192.742236 
L 139.597447 193.529767 
L 141.93242 194.401401 
L 144.267392 195.300282 
L 146.602364 196.176728 
L 148.937337 196.991105 
L 151.272309 197.715605 
L 153.607281 198.334953 
L 155.942253 198.846195 
L 158.277226 199.257805 
L 160.612198 199.588269 
L 162.94717 199.864273 
L 165.282142 200.118499 
L 167.617115 200.387035 
L 169.952087 200.706419 
L 172.287059 201.110413 
L 174.622032 201.626719 
L 176.957004 202.27397 
L 179.291976 203.059363 
L 181.626948 203.97734 
L 183.961921 205.00966 
L 186.296893 206.126992 
L 188.631865 207.291936 
L 190.966838 208.463001 
L 193.30181 209.598809 
L 195.636782 210.661634 
L 197.971754 211.619632 
L 200.306727 212.447437 
L 202.641699 213.125601 
L 204.976671 213.63944 
L 207.311643 213.978061 
L 209.646616 214.133926 
L 211.981588 214.102879 
L 214.31656 213.884336 
L 216.651533 213.481337 
L 218.986505 212.900446 
L 221.321477 212.15176 
L 223.656449 211.249318 
L 225.991422 210.212035 
L 228.326394 209.064812 
L 230.661366 207.839171 
L 232.996339 206.572714 
L 235.331311 205.307014 
L 237.666283 204.084144 
L 240.001255 202.942482 
L 242.336228 201.912655 
L 244.6712 201.014392 
L 247.006172 200.254768 
L 249.341144 199.627984 
L 251.676117 199.11656 
L 254.011089 198.693621 
L 256.346061 198.325877 
L 258.681034 197.97692 
L 261.016006 197.61049 
L 263.350978 197.193502 
L 265.68595 196.698709 
" style="fill:none;stroke:#9467bd;stroke-linecap:square;stroke-width:1.5;"/>
   </g>
   <g id="patch_3">
    <path d="M 72 225.8136 
L 72 34.3008 
" style="fill:none;stroke:#000000;stroke-linecap:square;stroke-linejoin:miter;stroke-width:0.8;"/>
   </g>
   <g id="patch_4">
    <path d="M 274.909091 225.8136 
L 274.909091 34.3008 
" style="fill:none;stroke:#000000;stroke-linecap:square;stroke-linejoin:miter;stroke-width:0.8;"/>
   </g>
   <g id="patch_5">
    <path d="M 72 225.8136 
L 274.909091 225.8136 
" style="fill:none;stroke:#000000;stroke-linecap:square;stroke-linejoin:miter;stroke-width:0.8;"/>
   </g>
   <g id="patch_6">
    <path d="M 72 34.3008 
L 274.909091 34.3008 
" style="fill:none;stroke:#000000;stroke-linecap:square;stroke-linejoin:miter;stroke-width:0.8;"/>
   </g>
  </g>
  <g id="axes_2">
   <g id="patch_7">
    <path d="M 315.490909 225.8136 
L 518.4 225.8136 
L 518.4 34.3008 
L 315.490909 34.3008 
z
" style="fill:#ffffff;"/>
   </g>
   <g id="matplotlib.axis_3">
    <g id="xtick_6">
     <g id="line2d_20">
      <g>
       <use style="stroke:#000000;stroke-width:0.8;" x="324.71405" xlink:href="#mf8e45d5914" y="225.8136"/>
      </g>
     </g>
     <g id="text_17">
      <!-- 0 -->
      <g transform="translate(321.5328 240.412038)scale(0.1 -0.1)">
       <use xlink:href="#DejaVuSans-30"/>
      </g>
     </g>
    </g>
    <g id="xtick_7">
     <g id="line2d_21">
      <g>
       <use style="stroke:#000000;stroke-width:0.8;" x="371.413495" xlink:href="#mf8e45d5914" y="225.8136"/>
      </g>
     </g>
     <g id="text_18">
      <!-- 20 -->
      <g transform="translate(365.050995 240.412038)scale(0.1 -0.1)">
       <use xlink:href="#DejaVuSans-32"/>
       <use x="63.623047" xlink:href="#DejaVuSans-30"/>
      </g>
     </g>
    </g>
    <g id="xtick_8">
     <g id="line2d_22">
      <g>
       <use style="stroke:#000000;stroke-width:0.8;" x="418.112941" xlink:href="#mf8e45d5914" y="225.8136"/>
      </g>
     </g>
     <g id="text_19">
      <!-- 40 -->
      <g transform="translate(411.750441 240.412038)scale(0.1 -0.1)">
       <use xlink:href="#DejaVuSans-34"/>
       <use x="63.623047" xlink:href="#DejaVuSans-30"/>
      </g>
     </g>
    </g>
    <g id="xtick_9">
     <g id="line2d_23">
      <g>
       <use style="stroke:#000000;stroke-width:0.8;" x="464.812386" xlink:href="#mf8e45d5914" y="225.8136"/>
      </g>
     </g>
     <g id="text_20">
      <!-- 60 -->
      <g transform="translate(458.449886 240.412038)scale(0.1 -0.1)">
       <use xlink:href="#DejaVuSans-36"/>
       <use x="63.623047" xlink:href="#DejaVuSans-30"/>
      </g>
     </g>
    </g>
    <g id="xtick_10">
     <g id="line2d_24">
      <g>
       <use style="stroke:#000000;stroke-width:0.8;" x="511.511832" xlink:href="#mf8e45d5914" y="225.8136"/>
      </g>
     </g>
     <g id="text_21">
      <!-- 80 -->
      <g transform="translate(505.149332 240.412038)scale(0.1 -0.1)">
       <use xlink:href="#DejaVuSans-38"/>
       <use x="63.623047" xlink:href="#DejaVuSans-30"/>
      </g>
     </g>
    </g>
    <g id="text_22">
     <!-- Matlab (with noise) -->
     <defs>
      <path d="M 9.8125 72.90625 
L 24.515625 72.90625 
L 43.109375 23.296875 
L 61.8125 72.90625 
L 76.515625 72.90625 
L 76.515625 0 
L 66.890625 0 
L 66.890625 64.015625 
L 48.09375 14.015625 
L 38.1875 14.015625 
L 19.390625 64.015625 
L 19.390625 0 
L 9.8125 0 
z
" id="DejaVuSans-4d"/>
      <path d="M 34.28125 27.484375 
Q 23.390625 27.484375 19.1875 25 
Q 14.984375 22.515625 14.984375 16.5 
Q 14.984375 11.71875 18.140625 8.90625 
Q 21.296875 6.109375 26.703125 6.109375 
Q 34.1875 6.109375 38.703125 11.40625 
Q 43.21875 16.703125 43.21875 25.484375 
L 43.21875 27.484375 
z
M 52.203125 31.203125 
L 52.203125 0 
L 43.21875 0 
L 43.21875 8.296875 
Q 40.140625 3.328125 35.546875 0.953125 
Q 30.953125 -1.421875 24.3125 -1.421875 
Q 15.921875 -1.421875 10.953125 3.296875 
Q 6 8.015625 6 15.921875 
Q 6 25.140625 12.171875 29.828125 
Q 18.359375 34.515625 30.609375 34.515625 
L 43.21875 34.515625 
L 43.21875 35.40625 
Q 43.21875 41.609375 39.140625 45 
Q 35.0625 48.390625 27.6875 48.390625 
Q 23 48.390625 18.546875 47.265625 
Q 14.109375 46.140625 10.015625 43.890625 
L 10.015625 52.203125 
Q 14.9375 54.109375 19.578125 55.046875 
Q 24.21875 56 28.609375 56 
Q 40.484375 56 46.34375 49.84375 
Q 52.203125 43.703125 52.203125 31.203125 
z
" id="DejaVuSans-61"/>
      <path d="M 9.421875 75.984375 
L 18.40625 75.984375 
L 18.40625 0 
L 9.421875 0 
z
" id="DejaVuSans-6c"/>
      <path d="M 48.6875 27.296875 
Q 48.6875 37.203125 44.609375 42.84375 
Q 40.53125 48.484375 33.40625 48.484375 
Q 26.265625 48.484375 22.1875 42.84375 
Q 18.109375 37.203125 18.109375 27.296875 
Q 18.109375 17.390625 22.1875 11.75 
Q 26.265625 6.109375 33.40625 6.109375 
Q 40.53125 6.109375 44.609375 11.75 
Q 48.6875 17.390625 48.6875 27.296875 
z
M 18.109375 46.390625 
Q 20.953125 51.265625 25.265625 53.625 
Q 29.59375 56 35.59375 56 
Q 45.5625 56 51.78125 48.09375 
Q 58.015625 40.1875 58.015625 27.296875 
Q 58.015625 14.40625 51.78125 6.484375 
Q 45.5625 -1.421875 35.59375 -1.421875 
Q 29.59375 -1.421875 25.265625 0.953125 
Q 20.953125 3.328125 18.109375 8.203125 
L 18.109375 0 
L 9.078125 0 
L 9.078125 75.984375 
L 18.109375 75.984375 
z
" id="DejaVuSans-62"/>
     </defs>
     <g transform="translate(368.994673 254.090163)scale(0.1 -0.1)">
      <use xlink:href="#DejaVuSans-4d"/>
      <use x="86.279297" xlink:href="#DejaVuSans-61"/>
      <use x="147.558594" xlink:href="#DejaVuSans-74"/>
      <use x="186.767578" xlink:href="#DejaVuSans-6c"/>
      <use x="214.550781" xlink:href="#DejaVuSans-61"/>
      <use x="275.830078" xlink:href="#DejaVuSans-62"/>
      <use x="339.306641" xlink:href="#DejaVuSans-20"/>
      <use x="371.09375" xlink:href="#DejaVuSans-28"/>
      <use x="410.107422" xlink:href="#DejaVuSans-77"/>
      <use x="491.894531" xlink:href="#DejaVuSans-69"/>
      <use x="519.677734" xlink:href="#DejaVuSans-74"/>
      <use x="558.886719" xlink:href="#DejaVuSans-68"/>
      <use x="622.265625" xlink:href="#DejaVuSans-20"/>
      <use x="654.052734" xlink:href="#DejaVuSans-6e"/>
      <use x="717.431641" xlink:href="#DejaVuSans-6f"/>
      <use x="778.613281" xlink:href="#DejaVuSans-69"/>
      <use x="806.396484" xlink:href="#DejaVuSans-73"/>
      <use x="858.496094" xlink:href="#DejaVuSans-65"/>
      <use x="920.019531" xlink:href="#DejaVuSans-29"/>
     </g>
    </g>
   </g>
   <g id="matplotlib.axis_4">
    <g id="ytick_10">
     <g id="line2d_25">
      <g>
       <use style="stroke:#000000;stroke-width:0.8;" x="315.490909" xlink:href="#m7a42d17c42" y="211.455146"/>
      </g>
     </g>
    </g>
    <g id="ytick_11">
     <g id="line2d_26">
      <g>
       <use style="stroke:#000000;stroke-width:0.8;" x="315.490909" xlink:href="#m7a42d17c42" y="189.849199"/>
      </g>
     </g>
    </g>
    <g id="ytick_12">
     <g id="line2d_27">
      <g>
       <use style="stroke:#000000;stroke-width:0.8;" x="315.490909" xlink:href="#m7a42d17c42" y="168.243253"/>
      </g>
     </g>
    </g>
    <g id="ytick_13">
     <g id="line2d_28">
      <g>
       <use style="stroke:#000000;stroke-width:0.8;" x="315.490909" xlink:href="#m7a42d17c42" y="146.637306"/>
      </g>
     </g>
    </g>
    <g id="ytick_14">
     <g id="line2d_29">
      <g>
       <use style="stroke:#000000;stroke-width:0.8;" x="315.490909" xlink:href="#m7a42d17c42" y="125.03136"/>
      </g>
     </g>
    </g>
    <g id="ytick_15">
     <g id="line2d_30">
      <g>
       <use style="stroke:#000000;stroke-width:0.8;" x="315.490909" xlink:href="#m7a42d17c42" y="103.425413"/>
      </g>
     </g>
    </g>
    <g id="ytick_16">
     <g id="line2d_31">
      <g>
       <use style="stroke:#000000;stroke-width:0.8;" x="315.490909" xlink:href="#m7a42d17c42" y="81.819467"/>
      </g>
     </g>
    </g>
    <g id="ytick_17">
     <g id="line2d_32">
      <g>
       <use style="stroke:#000000;stroke-width:0.8;" x="315.490909" xlink:href="#m7a42d17c42" y="60.213521"/>
      </g>
     </g>
    </g>
    <g id="ytick_18">
     <g id="line2d_33">
      <g>
       <use style="stroke:#000000;stroke-width:0.8;" x="315.490909" xlink:href="#m7a42d17c42" y="38.607574"/>
      </g>
     </g>
    </g>
   </g>
   <g id="line2d_34">
    <path clip-path="url(#p6a70b13b15)" d="M 324.71405 104.898679 
L 327.049022 106.432738 
L 329.383994 105.96432 
L 331.718966 105.893892 
L 334.053939 103.354191 
L 336.388911 104.288317 
L 338.723883 105.33813 
L 341.058856 106.965531 
L 343.393828 103.149523 
L 345.7288 104.399448 
L 348.063772 105.971297 
L 350.398745 104.493063 
L 352.733717 104.819436 
L 355.068689 105.396228 
L 357.403661 104.560858 
L 359.738634 103.882275 
L 362.073606 105.086486 
L 364.408578 106.00359 
L 366.743551 105.318158 
L 369.078523 104.462713 
L 371.413495 104.862194 
L 373.748467 104.92563 
L 376.08344 106.340307 
L 378.418412 107.5896 
L 380.753384 105.03418 
L 383.088357 104.590468 
L 385.423329 106.94945 
L 387.758301 103.196387 
L 390.093273 106.008306 
L 392.428246 104.11703 
L 394.763218 104.318957 
L 397.09819 104.765572 
L 399.433162 105.677627 
L 401.768135 104.508215 
L 404.103107 104.443731 
L 406.438079 105.973638 
L 408.773052 103.802241 
L 411.108024 103.154795 
L 413.442996 105.509257 
L 415.777968 105.160077 
L 418.112941 103.999918 
L 420.447913 104.674649 
L 422.782885 104.425101 
L 425.117858 105.725944 
L 427.45283 106.314061 
L 429.787802 104.437589 
L 432.122774 105.126721 
L 434.457747 104.200455 
L 436.792719 106.254069 
L 439.127691 106.266449 
L 441.462663 104.685214 
L 443.797636 106.141039 
L 446.132608 107.933802 
L 448.46758 106.329947 
L 450.802553 108.01784 
L 453.137525 107.537078 
L 455.472497 107.718023 
L 457.807469 107.953452 
L 460.142442 107.0457 
L 462.477414 106.213786 
L 464.812386 107.993428 
L 467.147359 105.802294 
L 469.482331 105.258438 
L 471.817303 103.634495 
L 474.152275 105.028501 
L 476.487248 104.516894 
L 478.82222 103.616785 
L 481.157192 105.896464 
L 483.492164 105.484858 
L 485.827137 104.858029 
L 488.162109 104.044584 
L 490.497081 102.860279 
L 492.832054 104.266839 
L 495.167026 105.475499 
L 497.501998 103.93277 
L 499.83697 106.145812 
L 502.171943 103.892233 
L 504.506915 102.430172 
L 506.841887 104.642243 
L 509.17686 104.125194 
" style="fill:none;stroke:#1f77b4;stroke-linecap:square;stroke-width:1.5;"/>
   </g>
   <g id="line2d_35">
    <path clip-path="url(#p6a70b13b15)" d="M 324.71405 77.011763 
L 327.049022 76.901123 
L 329.383994 76.614115 
L 331.718966 77.760593 
L 334.053939 79.032854 
L 336.388911 81.342765 
L 338.723883 82.888311 
L 341.058856 84.784744 
L 343.393828 86.637494 
L 345.7288 87.225696 
L 348.063772 89.010429 
L 350.398745 90.996883 
L 352.733717 89.448078 
L 355.068689 90.133428 
L 357.403661 91.095113 
L 359.738634 92.428086 
L 362.073606 90.787759 
L 364.408578 91.049707 
L 366.743551 90.707682 
L 369.078523 91.292599 
L 371.413495 91.457218 
L 373.748467 93.543511 
L 376.08344 93.181675 
L 378.418412 90.406307 
L 380.753384 91.516653 
L 383.088357 91.036793 
L 385.423329 90.570674 
L 387.758301 91.879093 
L 390.093273 89.983006 
L 392.428246 91.526487 
L 394.763218 90.521275 
L 397.09819 88.966159 
L 399.433162 88.942841 
L 401.768135 91.301589 
L 404.103107 87.623988 
L 406.438079 90.036891 
L 408.773052 88.34903 
L 411.108024 90.585266 
L 413.442996 89.659702 
L 415.777968 88.037007 
L 418.112941 89.050182 
L 420.447913 87.551631 
L 422.782885 85.399944 
L 425.117858 86.571032 
L 427.45283 83.01404 
L 429.787802 83.867992 
L 432.122774 81.92751 
L 434.457747 77.953875 
L 436.792719 76.775564 
L 439.127691 73.178238 
L 441.462663 68.240313 
L 443.797636 63.994351 
L 446.132608 59.816853 
L 448.46758 56.267413 
L 450.802553 54.423548 
L 453.137525 54.475396 
L 455.472497 53.169847 
L 457.807469 53.006191 
L 460.142442 57.973304 
L 462.477414 61.321381 
L 464.812386 62.377587 
L 467.147359 70.435604 
L 469.482331 75.185969 
L 471.817303 76.826815 
L 474.152275 79.068618 
L 476.487248 84.528996 
L 478.82222 88.976383 
L 481.157192 87.29117 
L 483.492164 89.173071 
L 485.827137 90.765399 
L 488.162109 90.297891 
L 490.497081 89.955864 
L 492.832054 90.51454 
L 495.167026 89.888976 
L 497.501998 90.123344 
L 499.83697 89.2019 
L 502.171943 88.648303 
L 504.506915 90.800445 
L 506.841887 88.329539 
L 509.17686 91.136837 
" style="fill:none;stroke:#ff7f0e;stroke-linecap:square;stroke-width:1.5;"/>
   </g>
   <g id="line2d_36">
    <path clip-path="url(#p6a70b13b15)" d="M 324.71405 94.329174 
L 327.049022 96.510491 
L 329.383994 94.749988 
L 331.718966 94.203654 
L 334.053939 93.038502 
L 336.388911 95.650098 
L 338.723883 95.857362 
L 341.058856 95.819802 
L 343.393828 96.116092 
L 345.7288 93.299645 
L 348.063772 94.354174 
L 350.398745 94.728796 
L 352.733717 95.596985 
L 355.068689 95.219285 
L 357.403661 95.217719 
L 359.738634 97.154354 
L 362.073606 96.432088 
L 364.408578 95.357898 
L 366.743551 96.866244 
L 369.078523 96.938709 
L 371.413495 96.335584 
L 373.748467 96.188923 
L 376.08344 96.58746 
L 378.418412 98.173214 
L 380.753384 96.530566 
L 383.088357 97.946172 
L 385.423329 95.692555 
L 387.758301 95.77209 
L 390.093273 96.195292 
L 392.428246 94.7527 
L 394.763218 96.99199 
L 397.09819 94.77474 
L 399.433162 95.678322 
L 401.768135 96.151226 
L 404.103107 96.90873 
L 406.438079 95.504131 
L 408.773052 94.551308 
L 411.108024 94.937663 
L 413.442996 94.827287 
L 415.777968 93.639521 
L 418.112941 94.042483 
L 420.447913 94.073014 
L 422.782885 96.673019 
L 425.117858 93.609945 
L 427.45283 93.656858 
L 429.787802 96.483636 
L 432.122774 94.601564 
L 434.457747 94.845293 
L 436.792719 92.791866 
L 439.127691 91.53933 
L 441.462663 94.38103 
L 443.797636 93.873777 
L 446.132608 94.647971 
L 448.46758 92.690231 
L 450.802553 94.937374 
L 453.137525 93.895291 
L 455.472497 92.25697 
L 457.807469 93.17673 
L 460.142442 93.13719 
L 462.477414 94.436217 
L 464.812386 94.255945 
L 467.147359 93.708762 
L 469.482331 95.688055 
L 471.817303 94.463973 
L 474.152275 93.657664 
L 476.487248 93.168008 
L 478.82222 95.019742 
L 481.157192 95.127537 
L 483.492164 96.195971 
L 485.827137 94.297707 
L 488.162109 94.03798 
L 490.497081 94.148746 
L 492.832054 93.467827 
L 495.167026 91.829046 
L 497.501998 97.742796 
L 499.83697 96.268246 
L 502.171943 93.893064 
L 504.506915 94.024121 
L 506.841887 93.778476 
L 509.17686 94.952836 
" style="fill:none;stroke:#2ca02c;stroke-linecap:square;stroke-width:1.5;"/>
   </g>
   <g id="line2d_37">
    <path clip-path="url(#p6a70b13b15)" d="M 324.71405 68.143737 
L 327.049022 65.631128 
L 329.383994 65.602729 
L 331.718966 66.111257 
L 334.053939 63.130698 
L 336.388911 62.151526 
L 338.723883 62.108872 
L 341.058856 61.491716 
L 343.393828 58.113619 
L 345.7288 57.647067 
L 348.063772 54.67192 
L 350.398745 54.516397 
L 352.733717 53.270275 
L 355.068689 52.594355 
L 357.403661 53.474326 
L 359.738634 52.659585 
L 362.073606 53.310024 
L 364.408578 51.89289 
L 366.743551 51.783533 
L 369.078523 50.974159 
L 371.413495 52.396375 
L 373.748467 52.012767 
L 376.08344 50.592426 
L 378.418412 51.406898 
L 380.753384 49.410815 
L 383.088357 49.358066 
L 385.423329 51.507527 
L 387.758301 50.03567 
L 390.093273 51.443425 
L 392.428246 52.312582 
L 394.763218 51.643511 
L 397.09819 52.532545 
L 399.433162 49.653007 
L 401.768135 51.734497 
L 404.103107 50.860627 
L 406.438079 49.102507 
L 408.773052 50.662133 
L 411.108024 50.218991 
L 413.442996 50.588908 
L 415.777968 51.279197 
L 418.112941 53.239265 
L 420.447913 50.265692 
L 422.782885 48.585903 
L 425.117858 49.821877 
L 427.45283 49.498931 
L 429.787802 50.097083 
L 432.122774 50.934568 
L 434.457747 48.223423 
L 436.792719 50.50453 
L 439.127691 49.97375 
L 441.462663 48.763908 
L 443.797636 49.913279 
L 446.132608 46.653772 
L 448.46758 48.36836 
L 450.802553 48.203829 
L 453.137525 48.316137 
L 455.472497 47.568485 
L 457.807469 47.027785 
L 460.142442 46.074699 
L 462.477414 45.779509 
L 464.812386 47.280962 
L 467.147359 46.150714 
L 469.482331 45.980769 
L 471.817303 45.527788 
L 474.152275 44.917633 
L 476.487248 44.90231 
L 478.82222 46.054022 
L 481.157192 44.92266 
L 483.492164 44.437402 
L 485.827137 44.541574 
L 488.162109 45.341501 
L 490.497081 46.114486 
L 492.832054 46.853004 
L 495.167026 46.007348 
L 497.501998 44.410678 
L 499.83697 46.218185 
L 502.171943 43.005927 
L 504.506915 46.039018 
L 506.841887 45.914911 
L 509.17686 46.525983 
" style="fill:none;stroke:#d62728;stroke-linecap:square;stroke-width:1.5;"/>
   </g>
   <g id="line2d_38">
    <path clip-path="url(#p6a70b13b15)" d="M 324.71405 217.108473 
L 327.049022 214.436536 
L 329.383994 216.178744 
L 331.718966 216.838114 
L 334.053939 214.978335 
L 336.388911 215.271749 
L 338.723883 213.817708 
L 341.058856 211.331238 
L 343.393828 211.577983 
L 345.7288 210.675586 
L 348.063772 206.693764 
L 350.398745 207.122914 
L 352.733717 203.487509 
L 355.068689 201.010365 
L 357.403661 199.15013 
L 359.738634 198.071805 
L 362.073606 196.571053 
L 364.408578 196.096005 
L 366.743551 193.399147 
L 369.078523 193.801722 
L 371.413495 194.663208 
L 373.748467 191.751602 
L 376.08344 192.800098 
L 378.418412 195.407528 
L 380.753384 194.657371 
L 383.088357 195.094879 
L 385.423329 196.0525 
L 387.758301 198.145316 
L 390.093273 197.976396 
L 392.428246 198.75857 
L 394.763218 199.275563 
L 397.09819 198.243209 
L 399.433162 198.234622 
L 401.768135 199.402201 
L 404.103107 199.398866 
L 406.438079 200.835285 
L 408.773052 200.747208 
L 411.108024 201.887683 
L 413.442996 200.429356 
L 415.777968 201.099983 
L 418.112941 201.218075 
L 420.447913 203.230047 
L 422.782885 202.519201 
L 425.117858 203.92187 
L 427.45283 206.090086 
L 429.787802 205.530177 
L 432.122774 207.531219 
L 434.457747 208.208999 
L 436.792719 211.289228 
L 439.127691 210.254311 
L 441.462663 211.737753 
L 443.797636 212.487027 
L 446.132608 212.758936 
L 448.46758 214.090989 
L 450.802553 214.138905 
L 453.137525 214.737392 
L 455.472497 212.722487 
L 457.807469 214.230036 
L 460.142442 213.304433 
L 462.477414 212.972015 
L 464.812386 212.332622 
L 467.147359 211.491497 
L 469.482331 209.707995 
L 471.817303 210.197574 
L 474.152275 206.800315 
L 476.487248 207.925977 
L 478.82222 206.799187 
L 481.157192 206.853184 
L 483.492164 203.034322 
L 485.827137 204.280942 
L 488.162109 200.910304 
L 490.497081 200.637318 
L 492.832054 199.563242 
L 495.167026 200.249948 
L 497.501998 199.599773 
L 499.83697 200.021355 
L 502.171943 200.214863 
L 504.506915 197.91497 
L 506.841887 198.153669 
L 509.17686 197.058368 
" style="fill:none;stroke:#9467bd;stroke-linecap:square;stroke-width:1.5;"/>
   </g>
   <g id="patch_8">
    <path d="M 315.490909 225.8136 
L 315.490909 34.3008 
" style="fill:none;stroke:#000000;stroke-linecap:square;stroke-linejoin:miter;stroke-width:0.8;"/>
   </g>
   <g id="patch_9">
    <path d="M 518.4 225.8136 
L 518.4 34.3008 
" style="fill:none;stroke:#000000;stroke-linecap:square;stroke-linejoin:miter;stroke-width:0.8;"/>
   </g>
   <g id="patch_10">
    <path d="M 315.490909 225.8136 
L 518.4 225.8136 
" style="fill:none;stroke:#000000;stroke-linecap:square;stroke-linejoin:miter;stroke-width:0.8;"/>
   </g>
   <g id="patch_11">
    <path d="M 315.490909 34.3008 
L 518.4 34.3008 
" style="fill:none;stroke:#000000;stroke-linecap:square;stroke-linejoin:miter;stroke-width:0.8;"/>
   </g>
  </g>
  <g id="legend_1">
   <g id="patch_12">
    <path d="M 142.2 280.84 
L 433.8 280.84 
Q 435.8 280.84 435.8 278.84 
L 435.8 265.161875 
Q 435.8 263.161875 433.8 263.161875 
L 142.2 263.161875 
Q 140.2 263.161875 140.2 265.161875 
L 140.2 278.84 
Q 140.2 280.84 142.2 280.84 
z
" style="fill:#ffffff;opacity:0.8;stroke:#cccccc;stroke-linejoin:miter;"/>
   </g>
   <g id="line2d_39">
    <path d="M 144.2 271.260313 
L 164.2 271.260313 
" style="fill:none;stroke:#1f77b4;stroke-linecap:square;stroke-width:1.5;"/>
   </g>
   <g id="line2d_40"/>
   <g id="text_23">
    <!-- $s_1$ -->
    <defs>
     <path d="M 50 53.078125 
L 48.296875 44.578125 
Q 44.734375 46.53125 40.765625 47.5 
Q 36.8125 48.484375 32.625 48.484375 
Q 25.53125 48.484375 21.453125 46.0625 
Q 17.390625 43.65625 17.390625 39.5 
Q 17.390625 34.671875 26.859375 32.078125 
Q 27.59375 31.890625 27.9375 31.78125 
L 30.8125 30.90625 
Q 39.796875 28.421875 42.796875 25.6875 
Q 45.796875 22.953125 45.796875 18.21875 
Q 45.796875 9.515625 38.890625 4.046875 
Q 31.984375 -1.421875 20.796875 -1.421875 
Q 16.453125 -1.421875 11.671875 -0.578125 
Q 6.890625 0.25 1.125 2 
L 2.875 11.28125 
Q 7.8125 8.734375 12.59375 7.421875 
Q 17.390625 6.109375 21.78125 6.109375 
Q 28.375 6.109375 32.5 8.9375 
Q 36.625 11.765625 36.625 16.109375 
Q 36.625 20.796875 25.78125 23.6875 
L 24.859375 23.921875 
L 21.78125 24.703125 
Q 14.9375 26.515625 11.765625 29.46875 
Q 8.59375 32.421875 8.59375 37.015625 
Q 8.59375 45.75 15.15625 50.875 
Q 21.734375 56 33.015625 56 
Q 37.453125 56 41.671875 55.265625 
Q 45.90625 54.546875 50 53.078125 
z
" id="DejaVuSans-Oblique-73"/>
    </defs>
    <g transform="translate(172.2 274.760313)scale(0.1 -0.1)">
     <use xlink:href="#DejaVuSans-Oblique-73"/>
     <use transform="translate(52.099609 -16.40625)scale(0.7)" xlink:href="#DejaVuSans-31"/>
    </g>
   </g>
   <g id="line2d_41">
    <path d="M 202.2 271.260313 
L 222.2 271.260313 
" style="fill:none;stroke:#ff7f0e;stroke-linecap:square;stroke-width:1.5;"/>
   </g>
   <g id="line2d_42"/>
   <g id="text_24">
    <!-- $s_{25}$ -->
    <defs>
     <path d="M 10.796875 72.90625 
L 49.515625 72.90625 
L 49.515625 64.59375 
L 19.828125 64.59375 
L 19.828125 46.734375 
Q 21.96875 47.46875 24.109375 47.828125 
Q 26.265625 48.1875 28.421875 48.1875 
Q 40.625 48.1875 47.75 41.5 
Q 54.890625 34.8125 54.890625 23.390625 
Q 54.890625 11.625 47.5625 5.09375 
Q 40.234375 -1.421875 26.90625 -1.421875 
Q 22.3125 -1.421875 17.546875 -0.640625 
Q 12.796875 0.140625 7.71875 1.703125 
L 7.71875 11.625 
Q 12.109375 9.234375 16.796875 8.0625 
Q 21.484375 6.890625 26.703125 6.890625 
Q 35.15625 6.890625 40.078125 11.328125 
Q 45.015625 15.765625 45.015625 23.390625 
Q 45.015625 31 40.078125 35.4375 
Q 35.15625 39.890625 26.703125 39.890625 
Q 22.75 39.890625 18.8125 39.015625 
Q 14.890625 38.140625 10.796875 36.28125 
z
" id="DejaVuSans-35"/>
    </defs>
    <g transform="translate(230.2 274.760313)scale(0.1 -0.1)">
     <use xlink:href="#DejaVuSans-Oblique-73"/>
     <use transform="translate(52.099609 -16.40625)scale(0.7)" xlink:href="#DejaVuSans-32"/>
     <use transform="translate(96.635742 -16.40625)scale(0.7)" xlink:href="#DejaVuSans-35"/>
    </g>
   </g>
   <g id="line2d_43">
    <path d="M 264.6 271.260313 
L 284.6 271.260313 
" style="fill:none;stroke:#2ca02c;stroke-linecap:square;stroke-width:1.5;"/>
   </g>
   <g id="line2d_44"/>
   <g id="text_25">
    <!-- $s_{50}$ -->
    <g transform="translate(292.6 274.760313)scale(0.1 -0.1)">
     <use xlink:href="#DejaVuSans-Oblique-73"/>
     <use transform="translate(52.099609 -16.40625)scale(0.7)" xlink:href="#DejaVuSans-35"/>
     <use transform="translate(96.635742 -16.40625)scale(0.7)" xlink:href="#DejaVuSans-30"/>
    </g>
   </g>
   <g id="line2d_45">
    <path d="M 327 271.260313 
L 347 271.260313 
" style="fill:none;stroke:#d62728;stroke-linecap:square;stroke-width:1.5;"/>
   </g>
   <g id="line2d_46"/>
   <g id="text_26">
    <!-- $s_{75}$ -->
    <defs>
     <path d="M 8.203125 72.90625 
L 55.078125 72.90625 
L 55.078125 68.703125 
L 28.609375 0 
L 18.3125 0 
L 43.21875 64.59375 
L 8.203125 64.59375 
z
" id="DejaVuSans-37"/>
    </defs>
    <g transform="translate(355 274.760313)scale(0.1 -0.1)">
     <use xlink:href="#DejaVuSans-Oblique-73"/>
     <use transform="translate(52.099609 -16.40625)scale(0.7)" xlink:href="#DejaVuSans-37"/>
     <use transform="translate(96.635742 -16.40625)scale(0.7)" xlink:href="#DejaVuSans-35"/>
    </g>
   </g>
   <g id="line2d_47">
    <path d="M 389.4 271.260313 
L 409.4 271.260313 
" style="fill:none;stroke:#9467bd;stroke-linecap:square;stroke-width:1.5;"/>
   </g>
   <g id="line2d_48"/>
   <g id="text_27">
    <!-- $s_{92}$ -->
    <defs>
     <path d="M 10.984375 1.515625 
L 10.984375 10.5 
Q 14.703125 8.734375 18.5 7.8125 
Q 22.3125 6.890625 25.984375 6.890625 
Q 35.75 6.890625 40.890625 13.453125 
Q 46.046875 20.015625 46.78125 33.40625 
Q 43.953125 29.203125 39.59375 26.953125 
Q 35.25 24.703125 29.984375 24.703125 
Q 19.046875 24.703125 12.671875 31.3125 
Q 6.296875 37.9375 6.296875 49.421875 
Q 6.296875 60.640625 12.9375 67.421875 
Q 19.578125 74.21875 30.609375 74.21875 
Q 43.265625 74.21875 49.921875 64.515625 
Q 56.59375 54.828125 56.59375 36.375 
Q 56.59375 19.140625 48.40625 8.859375 
Q 40.234375 -1.421875 26.421875 -1.421875 
Q 22.703125 -1.421875 18.890625 -0.6875 
Q 15.09375 0.046875 10.984375 1.515625 
z
M 30.609375 32.421875 
Q 37.25 32.421875 41.125 36.953125 
Q 45.015625 41.5 45.015625 49.421875 
Q 45.015625 57.28125 41.125 61.84375 
Q 37.25 66.40625 30.609375 66.40625 
Q 23.96875 66.40625 20.09375 61.84375 
Q 16.21875 57.28125 16.21875 49.421875 
Q 16.21875 41.5 20.09375 36.953125 
Q 23.96875 32.421875 30.609375 32.421875 
z
" id="DejaVuSans-39"/>
    </defs>
    <g transform="translate(417.4 274.760313)scale(0.1 -0.1)">
     <use xlink:href="#DejaVuSans-Oblique-73"/>
     <use transform="translate(52.099609 -16.40625)scale(0.7)" xlink:href="#DejaVuSans-39"/>
     <use transform="translate(96.624805 -16.40625)scale(0.7)" xlink:href="#DejaVuSans-32"/>
    </g>
   </g>
  </g>
 </g>
 <defs>
  <clipPath id="pa3536f5086">
   <rect height="191.5128" width="202.909091" x="72" y="34.3008"/>
  </clipPath>
  <clipPath id="p6a70b13b15">
   <rect height="191.5128" width="202.909091" x="315.490909" y="34.3008"/>
  </clipPath>
 </defs>
</svg>
