<?xml version="1.0" encoding="UTF-8" standalone="no"?>
<svg
   xmlns:dc="http://purl.org/dc/elements/1.1/"
   xmlns:cc="http://creativecommons.org/ns#"
   xmlns:rdf="http://www.w3.org/1999/02/22-rdf-syntax-ns#"
   xmlns:svg="http://www.w3.org/2000/svg"
   xmlns="http://www.w3.org/2000/svg"
   viewBox="0 0 1098.6667 349.33334"
   height="349.33334"
   width="1098.6667"
   xml:space="preserve"
   id="svg2"
   version="1.1"><metadata
     id="metadata8"><rdf:RDF><cc:Work
         rdf:about=""><dc:format>image/svg+xml</dc:format><dc:type
           rdf:resource="http://purl.org/dc/dcmitype/StillImage" /></cc:Work></rdf:RDF></metadata><defs
     id="defs6"><clipPath
       id="clipPath14"
       clipPathUnits="userSpaceOnUse"><path
         id="path12"
         d="M 0,0 H 842 V 595 H 0 Z" /></clipPath><clipPath
       id="clipPath24"
       clipPathUnits="userSpaceOnUse"><path
         id="path22"
         d="M 9,297 H 833 V 559 H 9 Z" /></clipPath><clipPath
       id="clipPath282"
       clipPathUnits="userSpaceOnUse"><path
         style="clip-rule:evenodd"
         id="path280"
         d="M -56.538,-373.042 H 1377.525 V 640.921 H -56.538 Z" /></clipPath></defs><g
     clip-path="url(#clipPath14)"
     transform="matrix(1.3333333,0,0,-1.3333333,-12,745.33333)"
     id="g10"><g
       id="g16"><g
         id="g18"><g
           clip-path="url(#clipPath24)"
           id="g20"><path
             id="path26"
             style="fill:#ffffff;fill-opacity:1;fill-rule:nonzero;stroke:none"
             d="M 9,297 H 833 V 559 H 9 Z" /></g></g></g><g
       transform="translate(105.3017,511.6234)"
       id="g28"><path
         id="path30"
         style="fill:#cccccc;fill-opacity:1;fill-rule:evenodd;stroke:none"
         d="m 0,0 v -16.865 h -53.151 v 33.73 H 0 Z" /></g><g
       transform="translate(119.7821,511.6234)"
       id="g32"><path
         id="path34"
         style="fill:#666666;fill-opacity:1;fill-rule:evenodd;stroke:none"
         d="m 0,0 v -16.865 h -14.48 v 33.73 H 0 Z" /></g><g
       transform="translate(172.7633,511.6234)"
       id="g36"><path
         id="path38"
         style="fill:#cccccc;fill-opacity:1;fill-rule:evenodd;stroke:none"
         d="m 0,0 v -16.865 h -52.981 v 33.73 H 0 Z" /></g><g
       transform="translate(187.2436,511.6234)"
       id="g40"><path
         id="path42"
         style="fill:#dddddd;fill-opacity:1;fill-rule:evenodd;stroke:none"
         d="m 0,0 v -16.865 h -14.48 v 33.73 H 0 Z" /></g><g
       transform="translate(235.6251,511.6234)"
       id="g44"><path
         id="path46"
         style="fill:#cccccc;fill-opacity:1;fill-rule:evenodd;stroke:none"
         d="m 0,0 v -16.865 h -48.381 v 33.73 H 0 Z" /></g><g
       transform="translate(250.1054,511.6234)"
       id="g48"><path
         id="path50"
         style="fill:#dddddd;fill-opacity:1;fill-rule:evenodd;stroke:none"
         d="m 0,0 v -16.865 h -14.48 v 33.73 H 0 Z" /></g><g
       transform="translate(312.9673,511.6234)"
       id="g52"><path
         id="path54"
         style="fill:#cccccc;fill-opacity:1;fill-rule:evenodd;stroke:none"
         d="m 0,0 v -16.865 h -62.862 v 33.73 H 0 Z" /></g><g
       transform="translate(327.4477,511.6234)"
       id="g56"><path
         id="path58"
         style="fill:#666666;fill-opacity:1;fill-rule:evenodd;stroke:none"
         d="m 0,0 v -16.865 h -14.48 v 33.73 H 0 Z" /></g><g
       transform="translate(390.1392,511.6234)"
       id="g60"><path
         id="path62"
         style="fill:#cccccc;fill-opacity:1;fill-rule:evenodd;stroke:none"
         d="m 0,0 v -16.865 h -62.691 v 33.73 H 0 Z" /></g><g
       transform="translate(404.6196,511.6234)"
       id="g64"><path
         id="path66"
         style="fill:#dddddd;fill-opacity:1;fill-rule:evenodd;stroke:none"
         d="m 0,0 v -16.865 h -14.48 v 33.73 H 0 Z" /></g><g
       transform="translate(453.001,511.6234)"
       id="g68"><path
         id="path70"
         style="fill:#cccccc;fill-opacity:1;fill-rule:evenodd;stroke:none"
         d="m 0,0 v -16.865 h -48.381 v 33.73 H 0 Z" /></g><g
       transform="translate(467.4814,511.6234)"
       id="g72"><path
         id="path74"
         style="fill:#dddddd;fill-opacity:1;fill-rule:evenodd;stroke:none"
         d="m 0,0 v -16.865 h -14.48 v 33.73 H 0 Z" /></g><g
       transform="translate(525.4029,511.6234)"
       id="g76"><path
         id="path78"
         style="fill:#cccccc;fill-opacity:1;fill-rule:evenodd;stroke:none"
         d="m 0,0 v -16.865 h -57.921 v 33.73 H 0 Z" /></g><g
       transform="translate(539.8833,511.6234)"
       id="g80"><path
         id="path82"
         style="fill:#666666;fill-opacity:1;fill-rule:evenodd;stroke:none"
         d="m 0,0 v -16.865 h -14.48 v 33.73 H 0 Z" /></g><g
       transform="translate(593.0347,511.6234)"
       id="g84"><path
         id="path86"
         style="fill:#cccccc;fill-opacity:1;fill-rule:evenodd;stroke:none"
         d="m 0,0 v -16.865 h -53.151 v 33.73 H 0 Z" /></g><g
       transform="translate(607.5151,511.6234)"
       id="g88"><path
         id="path90"
         style="fill:#dddddd;fill-opacity:1;fill-rule:evenodd;stroke:none"
         d="m 0,0 v -16.865 h -14.48 v 33.73 H 0 Z" /></g><g
       transform="translate(655.7263,511.6234)"
       id="g92"><path
         id="path94"
         style="fill:#cccccc;fill-opacity:1;fill-rule:evenodd;stroke:none"
         d="m 0,0 v -16.865 h -48.211 v 33.73 H 0 Z" /></g><g
       transform="translate(670.2066,511.6234)"
       id="g96"><path
         id="path98"
         style="fill:#dddddd;fill-opacity:1;fill-rule:evenodd;stroke:none"
         d="m 0,0 v -16.865 h -14.48 v 33.73 H 0 Z" /></g><g
       transform="translate(728.1281,511.6234)"
       id="g100"><path
         id="path102"
         style="fill:#cccccc;fill-opacity:1;fill-rule:evenodd;stroke:none"
         d="m 0,0 v -16.865 h -57.921 v 33.73 H 0 Z" /></g><g
       transform="translate(742.6085,511.6234)"
       id="g104"><path
         id="path106"
         style="fill:#666666;fill-opacity:1;fill-rule:evenodd;stroke:none"
         d="m 0,0 v -16.865 h -14.48 v 33.73 H 0 Z" /></g><g
       transform="translate(805.4703,511.6234)"
       id="g108"><path
         id="path110"
         style="fill:#cccccc;fill-opacity:1;fill-rule:evenodd;stroke:none"
         d="m 0,0 v -16.865 h -62.862 v 33.73 H 0 Z" /></g><g
       transform="translate(61.6903,444.581)"
       id="g112"><path
         id="path114"
         style="fill:#666666;fill-opacity:1;fill-rule:nonzero;stroke:none"
         d="M 0,0 H 748.548 V -3.905 H 0" /></g><g
       transform="translate(108.1195,423.208)"
       id="g116"><path
         id="path118"
         style="fill:#ff3333;fill-opacity:1;fill-rule:nonzero;stroke:none"
         d="M 0,0 V 28.62 H 3.905 V 0" /></g><g
       transform="translate(110.0717,466.649)"
       id="g120"><path
         id="path122"
         style="fill:#ff3333;fill-opacity:1;fill-rule:evenodd;stroke:none"
         d="M 0,0 -10.221,-16.184 H 10.221 Z" /></g><g
       transform="translate(320.555,422.1859)"
       id="g124"><path
         id="path126"
         style="fill:#ff3333;fill-opacity:1;fill-rule:nonzero;stroke:none"
         d="M 0,0 V 28.62 H 3.905 V 0" /></g><g
       transform="translate(322.5073,465.7973)"
       id="g128"><path
         id="path130"
         style="fill:#ff3333;fill-opacity:1;fill-rule:evenodd;stroke:none"
         d="M 0,0 -10.051,-16.354 H 10.221 Z" /></g><g
       transform="translate(532.9907,422.1859)"
       id="g132"><path
         id="path134"
         style="fill:#ff3333;fill-opacity:1;fill-rule:nonzero;stroke:none"
         d="M 0,0 V 28.62 H 3.905 V 0" /></g><g
       transform="translate(534.9429,465.7973)"
       id="g136"><path
         id="path138"
         style="fill:#ff3333;fill-opacity:1;fill-rule:evenodd;stroke:none"
         d="M 0,0 -10.051,-16.354 H 10.221 Z" /></g><g
       transform="translate(731.1162,423.208)"
       id="g140"><path
         id="path142"
         style="fill:#ff3333;fill-opacity:1;fill-rule:nonzero;stroke:none"
         d="M 0,0 V 28.62 H 3.905 V 0" /></g><g
       transform="translate(732.8981,466.649)"
       id="g144"><path
         id="path146"
         style="fill:#ff3333;fill-opacity:1;fill-rule:evenodd;stroke:none"
         d="M 0,0 -10.051,-16.184 H 10.221 Z" /></g><g
       transform="translate(158.2829,444.581)"
       id="g148"><path
         id="path150"
         style="fill:#000000;fill-opacity:1;fill-rule:nonzero;stroke:none"
         d="M 0,0 H 38.33 V -3.905 H 0" /></g><g
       transform="translate(211.4344,442.6287)"
       id="g152"><path
         id="path154"
         style="fill:#000000;fill-opacity:1;fill-rule:evenodd;stroke:none"
         d="M 0,0 -16.184,10.051 V -10.221 Z" /></g><g
       transform="translate(221.1447,444.581)"
       id="g156"><path
         id="path158"
         style="fill:#000000;fill-opacity:1;fill-rule:nonzero;stroke:none"
         d="M 0,0 H 38.16 V -3.905 H 0" /></g><g
       transform="translate(274.2962,442.6287)"
       id="g160"><path
         id="path162"
         style="fill:#000000;fill-opacity:1;fill-rule:evenodd;stroke:none"
         d="M 0,0 -16.354,10.051 V -10.221 Z" /></g><g
       transform="translate(375.6588,444.581)"
       id="g164"><path
         id="path166"
         style="fill:#000000;fill-opacity:1;fill-rule:nonzero;stroke:none"
         d="M 0,0 H 38.33 V -3.905 H 0" /></g><g
       transform="translate(428.8103,442.6287)"
       id="g168"><path
         id="path170"
         style="fill:#000000;fill-opacity:1;fill-rule:evenodd;stroke:none"
         d="M 0,0 -16.184,10.051 V -10.221 Z" /></g><g
       transform="translate(443.2907,444.581)"
       id="g172"><path
         id="path174"
         style="fill:#000000;fill-opacity:1;fill-rule:nonzero;stroke:none"
         d="M 0,0 H 38.16 V -3.905 H 0" /></g><g
       transform="translate(496.4421,442.6287)"
       id="g176"><path
         id="path178"
         style="fill:#000000;fill-opacity:1;fill-rule:evenodd;stroke:none"
         d="M 0,0 -16.354,10.051 V -10.221 Z" /></g><g
       transform="translate(578.5544,444.581)"
       id="g180"><path
         id="path182"
         style="fill:#000000;fill-opacity:1;fill-rule:nonzero;stroke:none"
         d="M 0,0 H 38.16 V -3.905 H 0" /></g><g
       transform="translate(631.5355,442.6287)"
       id="g184"><path
         id="path186"
         style="fill:#000000;fill-opacity:1;fill-rule:evenodd;stroke:none"
         d="M 0,0 -16.184,10.051 V -10.221 Z" /></g><g
       transform="translate(641.2459,444.581)"
       id="g188"><path
         id="path190"
         style="fill:#000000;fill-opacity:1;fill-rule:nonzero;stroke:none"
         d="M 0,0 H 38.33 V -3.905 H 0" /></g><g
       transform="translate(694.3973,442.6287)"
       id="g192"><path
         id="path194"
         style="fill:#000000;fill-opacity:1;fill-rule:evenodd;stroke:none"
         d="M 0,0 -16.184,10.051 V -10.221 Z" /></g><g
       transform="translate(114.5951,409.2935)"
       id="g196"><path
         id="path198"
         style="fill:#000000;fill-opacity:1;fill-rule:nonzero;stroke:none"
         d="M 0,0 H 7.207 V 2.484 H -10.029 V 0 h 7.238 V -19.476 H 0 Z" /></g><g
       transform="translate(131.0579,391.9263)"
       id="g200"><path
         id="path202"
         style="fill:#000000;fill-opacity:1;fill-rule:nonzero;stroke:none"
         d="m 0,0 h -6.36 l -0.921,-6.714 h 1.399 c 0.709,0.85 1.311,1.151 2.268,1.151 1.665,0 2.693,-1.133 2.693,-2.94 0,-1.772 -1.028,-2.853 -2.693,-2.853 -1.346,0 -2.161,0.674 -2.516,2.055 h -1.541 c 0.195,-0.956 0.372,-1.417 0.673,-1.877 0.691,-0.957 1.985,-1.542 3.419,-1.542 2.481,0 4.217,1.807 4.217,4.411 0,2.445 -1.612,4.11 -3.986,4.11 -0.868,0 -1.541,-0.23 -2.268,-0.744 l 0.479,3.437 H 0 Z" /></g><g
       transform="translate(187.1684,408.9528)"
       id="g204"><path
         id="path206"
         style="fill:#000000;fill-opacity:1;fill-rule:nonzero;stroke:none"
         d="M 0,0 H 7.207 V 2.484 H -10.029 V 0 h 7.238 V -19.476 H 0 Z" /></g><g
       transform="translate(199.032,385.0772)"
       id="g208"><path
         id="path210"
         style="fill:#000000;fill-opacity:1;fill-rule:nonzero;stroke:none"
         d="m 0,0 h 0.195 l 0.638,0.018 c 1.7,0 2.568,-0.762 2.568,-2.25 0,-1.541 -0.956,-2.48 -2.551,-2.48 -1.683,0 -2.498,0.832 -2.604,2.639 h -1.541 c 0.23,-2.746 1.506,-3.986 4.092,-3.986 2.534,0 4.163,1.506 4.163,3.845 0,1.576 -0.602,2.427 -2.09,2.94 1.151,0.461 1.718,1.311 1.718,2.551 0,2.126 -1.417,3.402 -3.755,3.402 -2.481,0 -3.809,-1.364 -3.862,-3.986 h 1.541 c 0,0.708 0.071,1.134 0.248,1.488 0.337,0.726 1.116,1.151 2.09,1.151 1.364,0 2.179,-0.797 2.179,-2.108 C 3.029,1.772 2.321,1.329 0,1.311 Z" /></g><g
       transform="translate(256.3346,409.2935)"
       id="g212"><path
         id="path214"
         style="fill:#000000;fill-opacity:1;fill-rule:nonzero;stroke:none"
         d="M 0,0 H 7.208 V 2.484 H -10.029 V 0 h 7.238 V -19.476 H 0 Z" /></g><g
       transform="translate(269.024,388.3832)"
       id="g216"><path
         id="path218"
         style="fill:#000000;fill-opacity:1;fill-rule:nonzero;stroke:none"
         d="M 0,0 V -8.787 H 1.524 V 3.543 H 0.514 C -0.018,1.665 -0.372,1.4 -2.746,1.098 V 0 Z" /></g><g
       transform="translate(315.7008,397.5914)"
       id="g220"><path
         id="path222"
         style="fill:#000000;fill-opacity:1;fill-rule:nonzero;stroke:none"
         d="m 0,0 h 4.14 c 2.423,0 3.558,-1.349 7.883,-9.477 h 3.404 c -4.692,8.128 -4.784,8.25 -6.625,9.876 2.117,0.613 3.037,1.135 3.987,2.392 0.859,1.073 1.227,2.27 1.227,3.834 0,3.772 -2.392,5.858 -6.717,5.858 H -2.791 V -9.477 H 0 Z m 0,2.454 v 7.544 h 6.778 c 2.975,0 4.325,-1.165 4.325,-3.772 0,-2.607 -1.35,-3.772 -4.325,-3.772 z" /></g><g
       transform="translate(335.8311,383.7144)"
       id="g224"><path
         id="path226"
         style="fill:#000000;fill-opacity:1;fill-rule:nonzero;stroke:none"
         d="m 0,0 h 0.195 l 0.638,0.018 c 1.7,0 2.568,-0.762 2.568,-2.25 0,-1.541 -0.956,-2.48 -2.551,-2.48 -1.683,0 -2.498,0.832 -2.604,2.639 h -1.541 c 0.23,-2.746 1.506,-3.986 4.092,-3.986 2.534,0 4.163,1.506 4.163,3.845 0,1.576 -0.602,2.427 -2.09,2.94 1.151,0.461 1.718,1.311 1.718,2.551 0,2.126 -1.417,3.402 -3.755,3.402 -2.481,0 -3.809,-1.364 -3.862,-3.986 h 1.541 c 0,0.708 0.071,1.134 0.248,1.488 0.336,0.726 1.116,1.151 2.09,1.151 1.364,0 2.179,-0.797 2.179,-2.108 C 3.029,1.772 2.321,1.329 0,1.311 Z" /></g><g
       transform="translate(389.8074,397.5914)"
       id="g228"><path
         id="path230"
         style="fill:#000000;fill-opacity:1;fill-rule:nonzero;stroke:none"
         d="m 0,0 h 4.14 c 2.423,0 3.558,-1.349 7.883,-9.477 h 3.404 c -4.692,8.128 -4.784,8.25 -6.625,9.876 2.117,0.613 3.037,1.135 3.987,2.392 0.859,1.073 1.227,2.27 1.227,3.834 0,3.772 -2.392,5.858 -6.717,5.858 H -2.791 V -9.477 H 0 Z m 0,2.454 v 7.544 h 6.778 c 2.975,0 4.325,-1.165 4.325,-3.772 0,-2.607 -1.35,-3.772 -4.325,-3.772 z" /></g><g
       transform="translate(410.5932,386.85)"
       id="g232"><path
         id="path234"
         style="fill:#000000;fill-opacity:1;fill-rule:nonzero;stroke:none"
         d="M 0,0 V -8.787 H 1.524 V 3.543 H 0.514 C -0.018,1.665 -0.372,1.4 -2.746,1.098 V 0 Z" /></g><g
       transform="translate(460.5068,397.5914)"
       id="g236"><path
         id="path238"
         style="fill:#000000;fill-opacity:1;fill-rule:nonzero;stroke:none"
         d="m 0,0 h 4.14 c 2.423,0 3.558,-1.349 7.883,-9.477 h 3.404 c -4.692,8.128 -4.784,8.25 -6.625,9.876 2.117,0.613 3.037,1.135 3.987,2.392 0.859,1.073 1.227,2.27 1.227,3.834 0,3.772 -2.392,5.858 -6.717,5.858 H -2.791 V -9.477 H 0 Z m 0,2.454 v 7.544 h 6.778 c 2.975,0 4.325,-1.165 4.325,-3.772 0,-2.607 -1.35,-3.772 -4.325,-3.772 z" /></g><g
       transform="translate(485.7501,379.5689)"
       id="g240"><path
         id="path242"
         style="fill:#000000;fill-opacity:1;fill-rule:nonzero;stroke:none"
         d="m 0,0 h -6.484 c 0.142,1.028 0.709,1.648 2.232,2.551 l 1.736,0.939 c 1.719,0.939 2.605,2.197 2.605,3.72 0,2.144 -1.613,3.614 -3.951,3.614 -1.506,0 -2.657,-0.514 -3.348,-1.506 -0.479,-0.673 -0.691,-1.47 -0.727,-2.763 h 1.542 c 0.035,0.797 0.141,1.275 0.336,1.665 0.372,0.779 1.187,1.258 2.162,1.258 1.381,0 2.427,-0.992 2.427,-2.303 0,-0.975 -0.567,-1.807 -1.666,-2.427 L -4.748,3.827 C -7.299,2.409 -8.114,1.134 -8.202,-1.506 H 0 Z" /></g><g
       transform="translate(529.8433,397.5914)"
       id="g244"><path
         id="path246"
         style="fill:#000000;fill-opacity:1;fill-rule:nonzero;stroke:none"
         d="m 0,0 h 4.141 c 2.422,0 3.557,-1.349 7.882,-9.477 h 3.404 c -4.692,8.128 -4.784,8.25 -6.625,9.876 2.117,0.613 3.037,1.135 3.987,2.392 0.859,1.073 1.227,2.27 1.227,3.834 0,3.772 -2.392,5.858 -6.716,5.858 H -2.791 V -9.477 H 0 Z m 0,2.454 v 7.544 h 6.778 c 2.975,0 4.325,-1.165 4.325,-3.772 0,-2.607 -1.35,-3.772 -4.325,-3.772 z" /></g><g
       transform="translate(551.816,381.0216)"
       id="g248"><path
         id="path250"
         style="fill:#000000;fill-opacity:1;fill-rule:nonzero;stroke:none"
         d="M 0,0 V -2.958 H 1.523 V 0 H 3.348 V 1.382 H 1.523 V 9.371 H 0.39 L -5.208,1.63 V 0 Z M 0,1.382 H -3.862 L 0,6.767 Z" /></g><g
       transform="translate(602.3358,409.2935)"
       id="g252"><path
         id="path254"
         style="fill:#000000;fill-opacity:1;fill-rule:nonzero;stroke:none"
         d="M 0,0 H 7.207 V 2.484 H -10.029 V 0 h 7.238 V -19.476 H 0 Z" /></g><g
       transform="translate(619.3124,381.1022)"
       id="g256"><path
         id="path258"
         style="fill:#000000;fill-opacity:1;fill-rule:nonzero;stroke:none"
         d="m 0,0 h -6.484 c 0.142,1.028 0.709,1.648 2.232,2.551 l 1.736,0.939 c 1.719,0.939 2.605,2.197 2.605,3.72 0,2.144 -1.613,3.614 -3.951,3.614 -1.506,0 -2.657,-0.514 -3.348,-1.506 -0.479,-0.673 -0.691,-1.47 -0.727,-2.763 h 1.542 c 0.035,0.797 0.141,1.275 0.336,1.665 0.372,0.779 1.187,1.258 2.162,1.258 1.381,0 2.427,-0.992 2.427,-2.303 0,-0.975 -0.567,-1.807 -1.666,-2.427 L -4.748,3.827 C -7.299,2.409 -8.114,1.134 -8.202,-1.506 H 0 Z" /></g><g
       transform="translate(671.6724,409.2935)"
       id="g260"><path
         id="path262"
         style="fill:#000000;fill-opacity:1;fill-rule:nonzero;stroke:none"
         d="M 0,0 H 7.207 V 2.484 H -10.029 V 0 h 7.238 V -19.476 H 0 Z" /></g><g
       transform="translate(685.3784,382.5549)"
       id="g264"><path
         id="path266"
         style="fill:#000000;fill-opacity:1;fill-rule:nonzero;stroke:none"
         d="M 0,0 V -2.958 H 1.523 V 0 H 3.348 V 1.382 H 1.523 V 9.371 H 0.39 L -5.208,1.63 V 0 Z M 0,1.382 H -3.862 L 0,6.767 Z" /></g><g
       transform="translate(737.6017,409.2935)"
       id="g268"><path
         id="path270"
         style="fill:#000000;fill-opacity:1;fill-rule:nonzero;stroke:none"
         d="M 0,0 H 7.207 V 2.484 H -10.029 V 0 h 7.238 V -19.476 H 0 Z" /></g><g
       transform="translate(754.2661,388.7198)"
       id="g272"><path
         id="path274"
         style="fill:#000000;fill-opacity:1;fill-rule:nonzero;stroke:none"
         d="m 0,0 c -0.301,2.002 -1.612,3.206 -3.508,3.206 -1.346,0 -2.568,-0.655 -3.295,-1.753 -0.779,-1.205 -1.116,-2.711 -1.116,-4.961 0,-2.072 0.301,-3.383 1.045,-4.482 0.674,-0.992 1.754,-1.523 3.101,-1.523 2.356,0 4.039,1.736 4.039,4.163 0,2.285 -1.559,3.897 -3.774,3.897 -1.222,0 -2.179,-0.46 -2.852,-1.364 0.018,3.012 0.992,4.677 2.746,4.677 1.098,0 1.843,-0.673 2.091,-1.86 z m -3.72,-2.817 c 1.488,0 2.409,-1.027 2.409,-2.657 0,-1.541 -1.027,-2.675 -2.445,-2.675 -1.452,0 -2.515,1.169 -2.515,2.746 0,1.541 1.045,2.586 2.551,2.586" /></g><g
       id="g276"><g
         clip-path="url(#clipPath282)"
         id="g278"><g
           transform="translate(59.4756,328.3972)"
           id="g284"><path
             id="path286"
             style="fill:#000000;fill-opacity:1;fill-rule:nonzero;stroke:none"
             d="M 0,0 H 33.39 V -3.905 H 0" /></g><g
           transform="translate(107.6867,326.445)"
           id="g288"><path
             id="path290"
             style="fill:#000000;fill-opacity:1;fill-rule:evenodd;stroke:none"
             d="M 0,0 -16.184,10.221 V -10.221 Z" /></g><g
           transform="translate(38.1026,350.6357)"
           id="g292"><path
             id="path294"
             style="fill:#000000;fill-opacity:1;fill-rule:nonzero;stroke:none"
             d="M 0,0 V 28.62 H 3.905 V 0" /></g><g
           transform="translate(40.0549,394.0769)"
           id="g296"><path
             id="path298"
             style="fill:#000000;fill-opacity:1;fill-rule:evenodd;stroke:none"
             d="M 0,0 -10.051,-16.184 H 10.221 Z" /></g><g
           transform="translate(59.4756,324.4927)"
           id="g300"><path
             id="path302"
             style="fill:#000000;fill-opacity:1;fill-rule:nonzero;stroke:none"
             d="m 0,0 h -19.421 c -0.514,0 -1.017,0.208 -1.38,0.572 -0.364,0.363 -0.572,0.866 -0.572,1.38 v 24.191 h 3.905 V 3.905 L 0,3.905 Z" /></g></g></g><g
       transform="translate(102.1096,344.2016)"
       id="g304"><path
         id="path306"
         style="fill:#000000;fill-opacity:1;fill-rule:nonzero;stroke:none"
         d="m 0,0 c 0.675,1.104 1.135,1.534 1.656,1.534 0.828,0 1.779,-2.055 2.423,-5.153 -1.901,-3.251 -3.251,-4.969 -3.926,-4.969 -0.092,0 -0.214,0.031 -0.337,0.123 -0.429,0.337 -0.583,0.399 -0.859,0.399 -0.521,0 -0.859,-0.46 -0.859,-1.166 0,-0.797 0.368,-1.288 0.982,-1.288 0.705,0 1.319,0.368 2.147,1.319 0.889,0.981 2.269,2.914 3.159,4.416 l 0.123,-0.49 c 0.613,-2.485 0.797,-3.159 1.042,-3.65 0.552,-1.135 1.258,-1.687 2.178,-1.687 1.104,0 2.055,0.675 2.944,2.055 0.338,0.491 0.614,1.012 0.767,1.411 l 0.184,0.46 -0.675,0.337 -0.306,-0.582 C 10.121,-7.882 9.324,-8.588 8.68,-8.588 c -0.491,0 -0.89,0.276 -1.288,0.982 -0.645,1.043 -1.197,2.821 -1.503,4.662 0.552,0.92 1.38,2.116 2.024,3.005 0.889,1.166 1.349,1.565 1.809,1.565 0.276,0 0.399,-0.185 0.491,-0.675 0.092,-0.491 0.307,-0.675 0.798,-0.675 0.613,0 0.981,0.552 0.981,1.442 0,1.042 -0.521,1.748 -1.319,1.748 -1.104,0 -2.147,-0.767 -3.159,-2.301 L 5.919,-1.257 5.613,-1.656 C 5.459,-1.165 5.398,-0.981 5.091,0.337 4.601,2.454 3.772,3.466 2.515,3.466 1.319,3.466 0.705,2.852 -0.613,0.307 Z" /></g><g
       transform="translate(60.2439,399.6782)"
       id="g308"><path
         id="path310"
         style="fill:#000000;fill-opacity:1;fill-rule:nonzero;stroke:none"
         d="m 0,0 h -6.011 c -2.914,0 -2.914,0 -3.435,1.073 l -0.767,-0.03 -1.196,-3.957 c 0.245,-0.184 0.398,-0.214 0.797,-0.276 1.196,2.147 1.35,2.209 4.509,2.209 0.736,0 0.92,0 3.005,-0.062 L -13.28,-12.728 v -0.522 h 10.796 l 0.981,2.914 c 0.123,0.307 0.215,0.552 0.215,0.614 0,0.061 -0.092,0.122 -0.246,0.184 l -0.153,0.03 -0.153,0.031 c -0.246,0 -0.399,-0.153 -0.736,-0.705 -0.583,-0.982 -1.135,-1.473 -1.902,-1.657 -0.981,-0.245 -2.208,-0.398 -3.435,-0.398 -0.491,0 -0.92,0.03 -2.085,0.122 l 3.22,3.803 3.926,4.54 2.269,2.484 c 0.215,0.276 0.399,0.521 0.614,0.736 z" /></g></g></svg>