<?xml version="1.0" encoding="UTF-8" standalone="no"?>
<svg
   xmlns:dc="http://purl.org/dc/elements/1.1/"
   xmlns:cc="http://creativecommons.org/ns#"
   xmlns:rdf="http://www.w3.org/1999/02/22-rdf-syntax-ns#"
   xmlns:svg="http://www.w3.org/2000/svg"
   xmlns="http://www.w3.org/2000/svg"
   viewBox="0 0 726.66669 397.33334"
   height="397.33334"
   width="726.66669"
   xml:space="preserve"
   id="svg2"
   version="1.1"><metadata
     id="metadata8"><rdf:RDF><cc:Work
         rdf:about=""><dc:format>image/svg+xml</dc:format><dc:type
           rdf:resource="http://purl.org/dc/dcmitype/StillImage" /></cc:Work></rdf:RDF></metadata><defs
     id="defs6"><clipPath
       id="clipPath14"
       clipPathUnits="userSpaceOnUse"><path
         id="path12"
         d="M 0,0 H 842 V 595 H 0 Z" /></clipPath><clipPath
       id="clipPath22"
       clipPathUnits="userSpaceOnUse"><path
         style="clip-rule:evenodd"
         id="path20"
         d="M 0,-0.2 H 841.8 V 595 H 0 Z" /></clipPath></defs><g
     clip-path="url(#clipPath14)"
     transform="matrix(1.3333333,0,0,-1.3333333,-12,781.33333)"
     id="g10"><g
       id="g16"><g
         clip-path="url(#clipPath22)"
         id="g18"><g
           transform="translate(282,498.6)"
           id="g24"><path
             id="path26"
             style="fill:#999999;fill-opacity:1;fill-rule:evenodd;stroke:none"
             d="M 0,0 H -253.7 V 68 H 253.7 V 0 Z" /></g><g
           transform="translate(282,498.6)"
           id="g28"><path
             id="path30"
             style="fill:#eeeeee;fill-opacity:1;fill-rule:evenodd;stroke:none"
             d="M 0,0 H 253.7 V -130.4 H -253.7 V 0 Z" /></g><g
           transform="translate(282,368.2)"
           id="g32"><path
             id="path34"
             style="fill:#808080;fill-opacity:1;fill-rule:evenodd;stroke:none"
             d="M 0,0 H 253.7 V -56.7 H -253.7 V 0 Z" /></g><g
           transform="translate(95,437.7)"
           id="g36"><path
             id="path38"
             style="fill:#999999;fill-opacity:1;fill-rule:evenodd;stroke:none"
             d="M 0,0 V -9.9 H -31.2 V 9.9 H 0 Z" /></g><g
           transform="translate(103.5,437.7)"
           id="g40"><path
             id="path42"
             style="fill:#111111;fill-opacity:1;fill-rule:evenodd;stroke:none"
             d="M 0,0 V -9.9 H -8.5 V 9.9 H 0 Z" /></g><g
           transform="translate(134.6,437.7)"
           id="g44"><path
             id="path46"
             style="fill:#999999;fill-opacity:1;fill-rule:evenodd;stroke:none"
             d="M 0,0 V -9.9 H -31.1 V 9.9 H 0 Z" /></g><g
           transform="translate(143.1,437.7)"
           id="g48"><path
             id="path50"
             style="fill:#cccccc;fill-opacity:1;fill-rule:evenodd;stroke:none"
             d="M 0,0 V -9.9 H -8.5 V 9.9 H 0 Z" /></g><g
           transform="translate(171.5,437.7)"
           id="g52"><path
             id="path54"
             style="fill:#999999;fill-opacity:1;fill-rule:evenodd;stroke:none"
             d="M 0,0 V -9.9 H -28.4 V 9.9 H 0 Z" /></g><g
           transform="translate(180,437.7)"
           id="g56"><path
             id="path58"
             style="fill:#cccccc;fill-opacity:1;fill-rule:evenodd;stroke:none"
             d="M 0,0 V -9.9 H -8.5 V 9.9 H 0 Z" /></g><g
           transform="translate(216.9,437.7)"
           id="g60"><path
             id="path62"
             style="fill:#999999;fill-opacity:1;fill-rule:evenodd;stroke:none"
             d="M 0,0 V -9.9 H -36.9 V 9.9 H 0 Z" /></g><g
           transform="translate(225.4,437.7)"
           id="g64"><path
             id="path66"
             style="fill:#111111;fill-opacity:1;fill-rule:evenodd;stroke:none"
             d="M 0,0 V -9.9 H -8.5 V 9.9 H 0 Z" /></g><g
           transform="translate(262.2,437.7)"
           id="g68"><path
             id="path70"
             style="fill:#999999;fill-opacity:1;fill-rule:evenodd;stroke:none"
             d="M 0,0 V -9.9 H -36.8 V 9.9 H 0 Z" /></g><g
           transform="translate(270.7,437.7)"
           id="g72"><path
             id="path74"
             style="fill:#cccccc;fill-opacity:1;fill-rule:evenodd;stroke:none"
             d="M 0,0 V -9.9 H -8.5 V 9.9 H 0 Z" /></g><g
           transform="translate(299.1,437.7)"
           id="g76"><path
             id="path78"
             style="fill:#999999;fill-opacity:1;fill-rule:evenodd;stroke:none"
             d="M 0,0 V -9.9 H -28.4 V 9.9 H 0 Z" /></g><g
           transform="translate(307.6,437.7)"
           id="g80"><path
             id="path82"
             style="fill:#cccccc;fill-opacity:1;fill-rule:evenodd;stroke:none"
             d="M 0,0 V -9.9 H -8.5 V 9.9 H 0 Z" /></g><g
           transform="translate(341.6,437.7)"
           id="g84"><path
             id="path86"
             style="fill:#999999;fill-opacity:1;fill-rule:evenodd;stroke:none"
             d="M 0,0 V -9.9 H -34 V 9.9 H 0 Z" /></g><g
           transform="translate(350.1,437.7)"
           id="g88"><path
             id="path90"
             style="fill:#111111;fill-opacity:1;fill-rule:evenodd;stroke:none"
             d="M 0,0 V -9.9 H -8.5 V 9.9 H 0 Z" /></g><g
           transform="translate(381.3,437.7)"
           id="g92"><path
             id="path94"
             style="fill:#999999;fill-opacity:1;fill-rule:evenodd;stroke:none"
             d="M 0,0 V -9.9 H -31.2 V 9.9 H 0 Z" /></g><g
           transform="translate(389.8,437.7)"
           id="g96"><path
             id="path98"
             style="fill:#cccccc;fill-opacity:1;fill-rule:evenodd;stroke:none"
             d="M 0,0 V -9.9 H -8.5 V 9.9 H 0 Z" /></g><g
           transform="translate(418.1,437.7)"
           id="g100"><path
             id="path102"
             style="fill:#999999;fill-opacity:1;fill-rule:evenodd;stroke:none"
             d="M 0,0 V -9.9 H -28.3 V 9.9 H 0 Z" /></g><g
           transform="translate(426.6,437.7)"
           id="g104"><path
             id="path106"
             style="fill:#cccccc;fill-opacity:1;fill-rule:evenodd;stroke:none"
             d="M 0,0 V -9.9 H -8.5 V 9.9 H 0 Z" /></g><g
           transform="translate(460.6,437.7)"
           id="g108"><path
             id="path110"
             style="fill:#999999;fill-opacity:1;fill-rule:evenodd;stroke:none"
             d="M 0,0 V -9.9 H -34 V 9.9 H 0 Z" /></g><g
           transform="translate(469.1,437.7)"
           id="g112"><path
             id="path114"
             style="fill:#111111;fill-opacity:1;fill-rule:evenodd;stroke:none"
             d="M 0,0 V -9.9 H -8.5 V 9.9 H 0 Z" /></g><g
           transform="translate(506,437.7)"
           id="g116"><path
             id="path118"
             style="fill:#999999;fill-opacity:1;fill-rule:evenodd;stroke:none"
             d="M 0,0 V -9.9 H -36.9 V 9.9 H 0 Z" /></g><g
           transform="translate(99.2,447.6)"
           id="g120"><path
             id="path122"
             style="fill:none;stroke:#ff3333;stroke-width:0.99000001;stroke-linecap:butt;stroke-linejoin:round;stroke-miterlimit:10;stroke-dasharray:none;stroke-opacity:1"
             d="M 0,0 83.6,51 158.5,5.3" /></g><g
           transform="translate(266.5,447.6)"
           id="g124"><path
             id="path126"
             style="fill:#ff3333;fill-opacity:1;fill-rule:evenodd;stroke:none"
             d="M 0,0 -7.3,8.6 -11,2.5 Z" /></g><g
           transform="translate(99.2,447.6)"
           id="g128"><path
             id="path130"
             style="fill:none;stroke:#ff3333;stroke-width:0.99000001;stroke-linecap:butt;stroke-linejoin:round;stroke-miterlimit:10;stroke-dasharray:none;stroke-opacity:1"
             d="M 0,0 102.1,51 195,4.6" /></g><g
           transform="translate(303.3,447.6)"
           id="g132"><path
             id="path134"
             style="fill:#ff3333;fill-opacity:1;fill-rule:evenodd;stroke:none"
             d="M 0,0 -8,8 -11.2,1.6 Z" /></g><g
           transform="translate(99.2,447.6)"
           id="g136"><path
             id="path138"
             style="fill:none;stroke:#ff3333;stroke-width:0.99000001;stroke-linecap:butt;stroke-linejoin:round;stroke-miterlimit:10;stroke-dasharray:none;stroke-opacity:1"
             d="M 0,0 123.3,51 237.2,3.9" /></g><g
           transform="translate(345.8,447.6)"
           id="g140"><path
             id="path142"
             style="fill:#ff3333;fill-opacity:1;fill-rule:evenodd;stroke:none"
             d="M 0,0 -8.5,7.4 -11.2,0.8 Z" /></g><g
           transform="translate(138.9,427.8)"
           id="g144"><path
             id="path146"
             style="fill:none;stroke:#ff3333;stroke-width:0.99000001;stroke-linecap:butt;stroke-linejoin:round;stroke-miterlimit:10;stroke-dasharray:none;stroke-opacity:1"
             d="M 0,0 63.8,-59.6 120.1,-7" /></g><g
           transform="translate(266.5,427.8)"
           id="g148"><path
             id="path150"
             style="fill:#ff3333;fill-opacity:1;fill-rule:evenodd;stroke:none"
             d="M 0,0 -10.3,-4.7 -5.4,-10 Z" /></g><g
           transform="translate(139.2,427.8)"
           id="g152"><path
             id="path154"
             style="fill:none;stroke:#ff3333;stroke-width:0.99000001;stroke-linecap:butt;stroke-linejoin:round;stroke-miterlimit:10;stroke-dasharray:none;stroke-opacity:1"
             d="m 0,0 103.3,-59.6 94.5,54.5" /></g><g
           transform="translate(345.8,427.8)"
           id="g156"><path
             id="path158"
             style="fill:#ff3333;fill-opacity:1;fill-rule:evenodd;stroke:none"
             d="m 0,0 -11,-2.3 3.5,-6.2 z" /></g><g
           transform="translate(139.2,427.8)"
           id="g160"><path
             id="path162"
             style="fill:none;stroke:#ff3333;stroke-width:0.99000001;stroke-linecap:butt;stroke-linejoin:round;stroke-miterlimit:10;stroke-dasharray:none;stroke-opacity:1"
             d="m 0,0 22.5,-59.6 18.9,50" /></g><g
           transform="translate(184.3,427.8)"
           id="g164"><path
             id="path166"
             style="fill:#ff3333;fill-opacity:1;fill-rule:evenodd;stroke:none"
             d="m 0,0 -7.2,-8.8 6.7,-2.5 z" /></g><g
           transform="translate(139.2,427.8)"
           id="g168"><path
             id="path170"
             style="fill:none;stroke:#ff3333;stroke-width:0.99000001;stroke-linecap:butt;stroke-linejoin:round;stroke-miterlimit:10;stroke-dasharray:none;stroke-opacity:1"
             d="M 0,0 40.9,-59.6 76.1,-8.5" /></g><g
           transform="translate(221.1,427.8)"
           id="g172"><path
             id="path174"
             style="fill:#ff3333;fill-opacity:1;fill-rule:evenodd;stroke:none"
             d="m 0,0 -9,-6.8 5.9,-4.1 z" /></g><g
           transform="translate(139.2,427.8)"
           id="g176"><path
             id="path178"
             style="fill:none;stroke:#ff3333;stroke-width:0.99000001;stroke-linecap:butt;stroke-linejoin:round;stroke-miterlimit:10;stroke-dasharray:none;stroke-opacity:1"
             d="m 0,0 82,-59.6 73.8,53.5" /></g><g
           transform="translate(303.3,427.8)"
           id="g180"><path
             id="path182"
             style="fill:#ff3333;fill-opacity:1;fill-rule:evenodd;stroke:none"
             d="m 0,0 -10.8,-3.4 4.2,-5.8 z" /></g><text
           id="text186"
           style="font-variant:normal;font-weight:normal;font-size:18px;font-family:Arial;-inkscape-font-specification:Arial;writing-mode:lr-tb;fill:#000000;fill-opacity:1;fill-rule:nonzero;stroke:none"
           transform="matrix(1,0,0,-1,95,401.6)"><tspan
             id="tspan184"
             y="0"
             x="0 121.9">TR</tspan></text>
<g
           transform="translate(99,447.6)"
           id="g188"><path
             id="path190"
             style="fill:none;stroke:#ff3333;stroke-width:0.99000001;stroke-linecap:butt;stroke-linejoin:round;stroke-miterlimit:10;stroke-dasharray:none;stroke-opacity:1"
             d="M 0,0 61,51 114.3,6.6" /></g><g
           transform="translate(221.1,447.6)"
           id="g192"><path
             id="path194"
             style="fill:#ff3333;fill-opacity:1;fill-rule:evenodd;stroke:none"
             d="M 0,0 -5.9,9.6 -10.5,4.1 Z" /></g></g></g></g></svg>