<?xml version="1.0" encoding="utf-8" standalone="no"?>
<!DOCTYPE svg PUBLIC "-//W3C//DTD SVG 1.1//EN"
  "http://www.w3.org/Graphics/SVG/1.1/DTD/svg11.dtd">
<!-- Created with matplotlib (https://matplotlib.org/) -->
<svg height="335.52pt" version="1.1" viewBox="0 0 360 335.52" width="360pt" xmlns="http://www.w3.org/2000/svg" xmlns:xlink="http://www.w3.org/1999/xlink">
 <defs>
  <style type="text/css">
*{stroke-linecap:butt;stroke-linejoin:round;}
  </style>
 </defs>
 <g id="figure_1">
  <g id="patch_1">
   <path d="M 0 335.52 
L 360 335.52 
L 360 0 
L 0 0 
z
" style="fill:#ffffff;"/>
  </g>
  <g id="axes_1">
   <g id="patch_2">
    <path d="M 24.19 296.41328 
L 346.68 296.41328 
L 346.68 12.41424 
L 24.19 12.41424 
z
" style="fill:#ffffff;"/>
   </g>
   <g id="matplotlib.axis_1">
    <g id="xtick_1">
     <g id="line2d_1">
      <defs>
       <path d="M 0 0 
L 0 3.5 
" id="m91c0a53d5a" style="stroke:#000000;stroke-width:0.8;"/>
      </defs>
      <g>
       <use style="stroke:#000000;stroke-width:0.8;" x="28.739232" xlink:href="#m91c0a53d5a" y="296.41328"/>
      </g>
     </g>
     <g id="text_1">
      <!-- 0 -->
      <defs>
       <path d="M 31.78125 66.40625 
Q 24.171875 66.40625 20.328125 58.90625 
Q 16.5 51.421875 16.5 36.375 
Q 16.5 21.390625 20.328125 13.890625 
Q 24.171875 6.390625 31.78125 6.390625 
Q 39.453125 6.390625 43.28125 13.890625 
Q 47.125 21.390625 47.125 36.375 
Q 47.125 51.421875 43.28125 58.90625 
Q 39.453125 66.40625 31.78125 66.40625 
z
M 31.78125 74.21875 
Q 44.046875 74.21875 50.515625 64.515625 
Q 56.984375 54.828125 56.984375 36.375 
Q 56.984375 17.96875 50.515625 8.265625 
Q 44.046875 -1.421875 31.78125 -1.421875 
Q 19.53125 -1.421875 13.0625 8.265625 
Q 6.59375 17.96875 6.59375 36.375 
Q 6.59375 54.828125 13.0625 64.515625 
Q 19.53125 74.21875 31.78125 74.21875 
z
" id="DejaVuSans-48"/>
      </defs>
      <g transform="translate(25.557982 311.011717)scale(0.1 -0.1)">
       <use xlink:href="#DejaVuSans-48"/>
      </g>
     </g>
    </g>
    <g id="xtick_2">
     <g id="line2d_2">
      <g>
       <use style="stroke:#000000;stroke-width:0.8;" x="79.286254" xlink:href="#m91c0a53d5a" y="296.41328"/>
      </g>
     </g>
     <g id="text_2">
      <!-- 5 -->
      <defs>
       <path d="M 10.796875 72.90625 
L 49.515625 72.90625 
L 49.515625 64.59375 
L 19.828125 64.59375 
L 19.828125 46.734375 
Q 21.96875 47.46875 24.109375 47.828125 
Q 26.265625 48.1875 28.421875 48.1875 
Q 40.625 48.1875 47.75 41.5 
Q 54.890625 34.8125 54.890625 23.390625 
Q 54.890625 11.625 47.5625 5.09375 
Q 40.234375 -1.421875 26.90625 -1.421875 
Q 22.3125 -1.421875 17.546875 -0.640625 
Q 12.796875 0.140625 7.71875 1.703125 
L 7.71875 11.625 
Q 12.109375 9.234375 16.796875 8.0625 
Q 21.484375 6.890625 26.703125 6.890625 
Q 35.15625 6.890625 40.078125 11.328125 
Q 45.015625 15.765625 45.015625 23.390625 
Q 45.015625 31 40.078125 35.4375 
Q 35.15625 39.890625 26.703125 39.890625 
Q 22.75 39.890625 18.8125 39.015625 
Q 14.890625 38.140625 10.796875 36.28125 
z
" id="DejaVuSans-53"/>
      </defs>
      <g transform="translate(76.105004 311.011717)scale(0.1 -0.1)">
       <use xlink:href="#DejaVuSans-53"/>
      </g>
     </g>
    </g>
    <g id="xtick_3">
     <g id="line2d_3">
      <g>
       <use style="stroke:#000000;stroke-width:0.8;" x="129.833276" xlink:href="#m91c0a53d5a" y="296.41328"/>
      </g>
     </g>
     <g id="text_3">
      <!-- 10 -->
      <defs>
       <path d="M 12.40625 8.296875 
L 28.515625 8.296875 
L 28.515625 63.921875 
L 10.984375 60.40625 
L 10.984375 69.390625 
L 28.421875 72.90625 
L 38.28125 72.90625 
L 38.28125 8.296875 
L 54.390625 8.296875 
L 54.390625 0 
L 12.40625 0 
z
" id="DejaVuSans-49"/>
      </defs>
      <g transform="translate(123.470776 311.011717)scale(0.1 -0.1)">
       <use xlink:href="#DejaVuSans-49"/>
       <use x="63.623047" xlink:href="#DejaVuSans-48"/>
      </g>
     </g>
    </g>
    <g id="xtick_4">
     <g id="line2d_4">
      <g>
       <use style="stroke:#000000;stroke-width:0.8;" x="180.380298" xlink:href="#m91c0a53d5a" y="296.41328"/>
      </g>
     </g>
     <g id="text_4">
      <!-- 15 -->
      <g transform="translate(174.017798 311.011717)scale(0.1 -0.1)">
       <use xlink:href="#DejaVuSans-49"/>
       <use x="63.623047" xlink:href="#DejaVuSans-53"/>
      </g>
     </g>
    </g>
    <g id="xtick_5">
     <g id="line2d_5">
      <g>
       <use style="stroke:#000000;stroke-width:0.8;" x="230.92732" xlink:href="#m91c0a53d5a" y="296.41328"/>
      </g>
     </g>
     <g id="text_5">
      <!-- 20 -->
      <defs>
       <path d="M 19.1875 8.296875 
L 53.609375 8.296875 
L 53.609375 0 
L 7.328125 0 
L 7.328125 8.296875 
Q 12.9375 14.109375 22.625 23.890625 
Q 32.328125 33.6875 34.8125 36.53125 
Q 39.546875 41.84375 41.421875 45.53125 
Q 43.3125 49.21875 43.3125 52.78125 
Q 43.3125 58.59375 39.234375 62.25 
Q 35.15625 65.921875 28.609375 65.921875 
Q 23.96875 65.921875 18.8125 64.3125 
Q 13.671875 62.703125 7.8125 59.421875 
L 7.8125 69.390625 
Q 13.765625 71.78125 18.9375 73 
Q 24.125 74.21875 28.421875 74.21875 
Q 39.75 74.21875 46.484375 68.546875 
Q 53.21875 62.890625 53.21875 53.421875 
Q 53.21875 48.921875 51.53125 44.890625 
Q 49.859375 40.875 45.40625 35.40625 
Q 44.1875 33.984375 37.640625 27.21875 
Q 31.109375 20.453125 19.1875 8.296875 
z
" id="DejaVuSans-50"/>
      </defs>
      <g transform="translate(224.56482 311.011717)scale(0.1 -0.1)">
       <use xlink:href="#DejaVuSans-50"/>
       <use x="63.623047" xlink:href="#DejaVuSans-48"/>
      </g>
     </g>
    </g>
    <g id="xtick_6">
     <g id="line2d_6">
      <g>
       <use style="stroke:#000000;stroke-width:0.8;" x="281.474342" xlink:href="#m91c0a53d5a" y="296.41328"/>
      </g>
     </g>
     <g id="text_6">
      <!-- 25 -->
      <g transform="translate(275.111842 311.011717)scale(0.1 -0.1)">
       <use xlink:href="#DejaVuSans-50"/>
       <use x="63.623047" xlink:href="#DejaVuSans-53"/>
      </g>
     </g>
    </g>
    <g id="xtick_7">
     <g id="line2d_7">
      <g>
       <use style="stroke:#000000;stroke-width:0.8;" x="332.021364" xlink:href="#m91c0a53d5a" y="296.41328"/>
      </g>
     </g>
     <g id="text_7">
      <!-- 30 -->
      <defs>
       <path d="M 40.578125 39.3125 
Q 47.65625 37.796875 51.625 33 
Q 55.609375 28.21875 55.609375 21.1875 
Q 55.609375 10.40625 48.1875 4.484375 
Q 40.765625 -1.421875 27.09375 -1.421875 
Q 22.515625 -1.421875 17.65625 -0.515625 
Q 12.796875 0.390625 7.625 2.203125 
L 7.625 11.71875 
Q 11.71875 9.328125 16.59375 8.109375 
Q 21.484375 6.890625 26.8125 6.890625 
Q 36.078125 6.890625 40.9375 10.546875 
Q 45.796875 14.203125 45.796875 21.1875 
Q 45.796875 27.640625 41.28125 31.265625 
Q 36.765625 34.90625 28.71875 34.90625 
L 20.21875 34.90625 
L 20.21875 43.015625 
L 29.109375 43.015625 
Q 36.375 43.015625 40.234375 45.921875 
Q 44.09375 48.828125 44.09375 54.296875 
Q 44.09375 59.90625 40.109375 62.90625 
Q 36.140625 65.921875 28.71875 65.921875 
Q 24.65625 65.921875 20.015625 65.03125 
Q 15.375 64.15625 9.8125 62.3125 
L 9.8125 71.09375 
Q 15.4375 72.65625 20.34375 73.4375 
Q 25.25 74.21875 29.59375 74.21875 
Q 40.828125 74.21875 47.359375 69.109375 
Q 53.90625 64.015625 53.90625 55.328125 
Q 53.90625 49.265625 50.4375 45.09375 
Q 46.96875 40.921875 40.578125 39.3125 
z
" id="DejaVuSans-51"/>
      </defs>
      <g transform="translate(325.658864 311.011717)scale(0.1 -0.1)">
       <use xlink:href="#DejaVuSans-51"/>
       <use x="63.623047" xlink:href="#DejaVuSans-48"/>
      </g>
     </g>
    </g>
    <g id="text_8">
     <!-- T -->
     <defs>
      <path d="M -0.296875 72.90625 
L 61.375 72.90625 
L 61.375 64.59375 
L 35.5 64.59375 
L 35.5 0 
L 25.59375 0 
L 25.59375 64.59375 
L -0.296875 64.59375 
z
" id="DejaVuSans-84"/>
     </defs>
     <g transform="translate(182.381094 324.689842)scale(0.1 -0.1)">
      <use xlink:href="#DejaVuSans-84"/>
     </g>
    </g>
   </g>
   <g id="matplotlib.axis_2">
    <g id="ytick_1">
     <g id="line2d_8">
      <defs>
       <path d="M 0 0 
L -3.5 0 
" id="ma264f936ad" style="stroke:#000000;stroke-width:0.8;"/>
      </defs>
      <g>
       <use style="stroke:#000000;stroke-width:0.8;" x="24.19" xlink:href="#ma264f936ad" y="284.261219"/>
      </g>
     </g>
     <g id="text_9">
      <!-- 0 -->
      <g transform="translate(10.8275 288.060438)scale(0.1 -0.1)">
       <use xlink:href="#DejaVuSans-48"/>
      </g>
     </g>
    </g>
    <g id="ytick_2">
     <g id="line2d_9">
      <g>
       <use style="stroke:#000000;stroke-width:0.8;" x="24.19" xlink:href="#ma264f936ad" y="246.820728"/>
      </g>
     </g>
     <g id="text_10">
      <!-- 1 -->
      <g transform="translate(10.8275 250.619946)scale(0.1 -0.1)">
       <use xlink:href="#DejaVuSans-49"/>
      </g>
     </g>
    </g>
    <g id="ytick_3">
     <g id="line2d_10">
      <g>
       <use style="stroke:#000000;stroke-width:0.8;" x="24.19" xlink:href="#ma264f936ad" y="209.380236"/>
      </g>
     </g>
     <g id="text_11">
      <!-- 2 -->
      <g transform="translate(10.8275 213.179454)scale(0.1 -0.1)">
       <use xlink:href="#DejaVuSans-50"/>
      </g>
     </g>
    </g>
    <g id="ytick_4">
     <g id="line2d_11">
      <g>
       <use style="stroke:#000000;stroke-width:0.8;" x="24.19" xlink:href="#ma264f936ad" y="171.939744"/>
      </g>
     </g>
     <g id="text_12">
      <!-- 3 -->
      <g transform="translate(10.8275 175.738962)scale(0.1 -0.1)">
       <use xlink:href="#DejaVuSans-51"/>
      </g>
     </g>
    </g>
    <g id="ytick_5">
     <g id="line2d_12">
      <g>
       <use style="stroke:#000000;stroke-width:0.8;" x="24.19" xlink:href="#ma264f936ad" y="134.499252"/>
      </g>
     </g>
     <g id="text_13">
      <!-- 4 -->
      <defs>
       <path d="M 37.796875 64.3125 
L 12.890625 25.390625 
L 37.796875 25.390625 
z
M 35.203125 72.90625 
L 47.609375 72.90625 
L 47.609375 25.390625 
L 58.015625 25.390625 
L 58.015625 17.1875 
L 47.609375 17.1875 
L 47.609375 0 
L 37.796875 0 
L 37.796875 17.1875 
L 4.890625 17.1875 
L 4.890625 26.703125 
z
" id="DejaVuSans-52"/>
      </defs>
      <g transform="translate(10.8275 138.29847)scale(0.1 -0.1)">
       <use xlink:href="#DejaVuSans-52"/>
      </g>
     </g>
    </g>
    <g id="ytick_6">
     <g id="line2d_13">
      <g>
       <use style="stroke:#000000;stroke-width:0.8;" x="24.19" xlink:href="#ma264f936ad" y="97.05876"/>
      </g>
     </g>
     <g id="text_14">
      <!-- 5 -->
      <g transform="translate(10.8275 100.857978)scale(0.1 -0.1)">
       <use xlink:href="#DejaVuSans-53"/>
      </g>
     </g>
    </g>
    <g id="ytick_7">
     <g id="line2d_14">
      <g>
       <use style="stroke:#000000;stroke-width:0.8;" x="24.19" xlink:href="#ma264f936ad" y="59.618268"/>
      </g>
     </g>
     <g id="text_15">
      <!-- 6 -->
      <defs>
       <path d="M 33.015625 40.375 
Q 26.375 40.375 22.484375 35.828125 
Q 18.609375 31.296875 18.609375 23.390625 
Q 18.609375 15.53125 22.484375 10.953125 
Q 26.375 6.390625 33.015625 6.390625 
Q 39.65625 6.390625 43.53125 10.953125 
Q 47.40625 15.53125 47.40625 23.390625 
Q 47.40625 31.296875 43.53125 35.828125 
Q 39.65625 40.375 33.015625 40.375 
z
M 52.59375 71.296875 
L 52.59375 62.3125 
Q 48.875 64.0625 45.09375 64.984375 
Q 41.3125 65.921875 37.59375 65.921875 
Q 27.828125 65.921875 22.671875 59.328125 
Q 17.53125 52.734375 16.796875 39.40625 
Q 19.671875 43.65625 24.015625 45.921875 
Q 28.375 48.1875 33.59375 48.1875 
Q 44.578125 48.1875 50.953125 41.515625 
Q 57.328125 34.859375 57.328125 23.390625 
Q 57.328125 12.15625 50.6875 5.359375 
Q 44.046875 -1.421875 33.015625 -1.421875 
Q 20.359375 -1.421875 13.671875 8.265625 
Q 6.984375 17.96875 6.984375 36.375 
Q 6.984375 53.65625 15.1875 63.9375 
Q 23.390625 74.21875 37.203125 74.21875 
Q 40.921875 74.21875 44.703125 73.484375 
Q 48.484375 72.75 52.59375 71.296875 
z
" id="DejaVuSans-54"/>
      </defs>
      <g transform="translate(10.8275 63.417486)scale(0.1 -0.1)">
       <use xlink:href="#DejaVuSans-54"/>
      </g>
     </g>
    </g>
    <g id="ytick_8">
     <g id="line2d_15">
      <g>
       <use style="stroke:#000000;stroke-width:0.8;" x="24.19" xlink:href="#ma264f936ad" y="22.177776"/>
      </g>
     </g>
     <g id="text_16">
      <!-- 7 -->
      <defs>
       <path d="M 8.203125 72.90625 
L 55.078125 72.90625 
L 55.078125 68.703125 
L 28.609375 0 
L 18.3125 0 
L 43.21875 64.59375 
L 8.203125 64.59375 
z
" id="DejaVuSans-55"/>
      </defs>
      <g transform="translate(10.8275 25.976994)scale(0.1 -0.1)">
       <use xlink:href="#DejaVuSans-55"/>
      </g>
     </g>
    </g>
   </g>
   <g id="line2d_16">
    <path clip-path="url(#p76e4da4671)" d="M 38.848636 263.713372 
L 48.958041 257.484178 
L 59.067445 261.693462 
L 69.17685 263.860525 
L 79.286254 268.399375 
L 89.395658 260.078626 
L 99.505063 267.877739 
L 109.614467 250.8728 
L 119.723871 248.181212 
L 129.833276 269.90498 
L 139.94268 254.618645 
L 150.052085 264.459133 
L 160.161489 262.993352 
L 170.270893 249.606426 
L 180.380298 281.601595 
L 190.489702 280.999056 
L 200.599107 283.504233 
L 210.708511 253.087523 
L 220.817915 255.126648 
L 230.92732 251.687537 
L 241.036724 247.621267 
L 251.146129 254.34033 
L 261.255533 266.983205 
L 271.364937 255.037823 
L 281.474342 279.832967 
L 291.583746 260.302262 
L 301.69315 278.894002 
L 311.802555 248.89235 
L 321.911959 264.722962 
L 332.021364 268.736072 
" style="fill:none;stroke:#1f77b4;stroke-linecap:square;stroke-width:1.5;"/>
   </g>
   <g id="line2d_17">
    <path clip-path="url(#p76e4da4671)" d="M 38.848636 263.713372 
L 48.958041 244.779144 
L 59.067445 231.749643 
L 69.17685 221.549296 
L 79.286254 214.455664 
L 89.395658 204.583161 
L 99.505063 198.390788 
L 109.614467 186.586199 
L 119.723871 174.559529 
L 129.833276 170.019688 
L 139.94268 161.082115 
L 150.052085 155.365746 
L 160.161489 149.4671 
L 170.270893 140.205217 
L 180.380298 139.518505 
L 190.489702 138.702964 
L 200.599107 138.519368 
L 210.708511 131.171657 
L 220.817915 124.487728 
L 230.92732 117.204031 
L 241.036724 109.208538 
L 251.146129 102.829383 
L 261.255533 99.226668 
L 271.364937 93.261467 
L 281.474342 92.375816 
L 291.583746 87.677078 
L 301.69315 86.644157 
L 311.802555 79.960069 
L 321.911959 76.331905 
L 332.021364 73.497414 
" style="fill:none;stroke:#ff7f0e;stroke-linecap:square;stroke-width:1.5;"/>
   </g>
   <g id="line2d_18">
    <path clip-path="url(#p76e4da4671)" d="M 38.848636 244.044218 
L 48.958041 218.199799 
L 59.067445 204.793369 
L 69.17685 195.326056 
L 79.286254 190.063135 
L 89.395658 178.840594 
L 99.505063 174.071569 
L 109.614467 156.150892 
L 119.723871 137.977136 
L 129.833276 135.302964 
L 139.94268 124.403169 
L 150.052085 119.771919 
L 160.161489 114.586605 
L 170.270893 101.53174 
L 180.380298 101.457609 
L 190.489702 101.346141 
L 200.599107 101.34014 
L 210.708511 91.432626 
L 220.817915 83.17786 
L 230.92732 73.313022 
L 241.036724 61.456586 
L 251.146129 53.888818 
L 261.255533 51.419977 
L 271.364937 44.497685 
L 281.474342 44.341083 
L 291.583746 39.801288 
L 301.69315 39.575683 
L 311.802555 29.971726 
L 321.911959 27.112391 
L 332.021364 25.323287 
" style="fill:none;stroke:#2ca02c;stroke-linecap:square;stroke-width:1.5;"/>
   </g>
   <g id="line2d_19">
    <path clip-path="url(#p76e4da4671)" d="M 38.848636 264.592066 
L 48.958041 257.681874 
L 59.067445 257.304945 
L 69.17685 258.037979 
L 79.286254 259.86869 
L 89.395658 258.518652 
L 99.505063 259.942001 
L 109.614467 253.825912 
L 119.723871 247.678826 
L 129.833276 249.544495 
L 139.94268 247.582273 
L 150.052085 248.667393 
L 160.161489 249.380724 
L 170.270893 245.587742 
L 180.380298 246.200323 
L 190.489702 246.904396 
L 200.599107 247.081992 
L 210.708511 244.522189 
L 220.817915 242.951351 
L 230.92732 240.37021 
L 241.036724 236.509267 
L 251.146129 235.320654 
L 261.255533 236.454529 
L 271.364937 235.497437 
L 281.474342 236.226486 
L 291.583746 236.385429 
L 301.69315 237.192746 
L 311.802555 234.272877 
L 321.911959 235.041705 
L 332.021364 236.087092 
" style="fill:none;stroke:#d62728;stroke-linecap:square;stroke-width:1.5;"/>
   </g>
   <g id="patch_3">
    <path d="M 24.19 296.41328 
L 24.19 12.41424 
" style="fill:none;stroke:#000000;stroke-linecap:square;stroke-linejoin:miter;stroke-width:0.8;"/>
   </g>
   <g id="patch_4">
    <path d="M 346.68 296.41328 
L 346.68 12.41424 
" style="fill:none;stroke:#000000;stroke-linecap:square;stroke-linejoin:miter;stroke-width:0.8;"/>
   </g>
   <g id="patch_5">
    <path d="M 24.19 296.41328 
L 346.68 296.41328 
" style="fill:none;stroke:#000000;stroke-linecap:square;stroke-linejoin:miter;stroke-width:0.8;"/>
   </g>
   <g id="patch_6">
    <path d="M 24.19 12.41424 
L 346.68 12.41424 
" style="fill:none;stroke:#000000;stroke-linecap:square;stroke-linejoin:miter;stroke-width:0.8;"/>
   </g>
   <g id="legend_1">
    <g id="patch_7">
     <path d="M 31.19 118.290802 
L 134.69 118.290802 
Q 136.69 118.290802 136.69 116.290802 
L 136.69 19.41424 
Q 136.69 17.41424 134.69 17.41424 
L 31.19 17.41424 
Q 29.19 17.41424 29.19 19.41424 
L 29.19 116.290802 
Q 29.19 118.290802 31.19 118.290802 
z
" style="fill:#ffffff;opacity:0.8;stroke:#cccccc;stroke-linejoin:miter;"/>
    </g>
    <g id="line2d_20">
     <path d="M 33.19 25.512677 
L 53.19 25.512677 
" style="fill:none;stroke:#1f77b4;stroke-linecap:square;stroke-width:1.5;"/>
    </g>
    <g id="line2d_21"/>
    <g id="text_17">
     <!-- $g_T$ -->
     <defs>
      <path d="M 59.625 54.6875 
L 50.296875 6.78125 
Q 47.609375 -7.125 40.015625 -13.953125 
Q 32.421875 -20.796875 19.578125 -20.796875 
Q 14.84375 -20.796875 10.78125 -20.09375 
Q 6.734375 -19.390625 3.21875 -17.921875 
L 4.890625 -9.1875 
Q 8.203125 -11.328125 11.90625 -12.34375 
Q 15.625 -13.375 19.828125 -13.375 
Q 28.375 -13.375 33.859375 -8.703125 
Q 39.359375 -4.046875 41.109375 4.6875 
L 41.890625 8.796875 
Q 38.140625 4.5 33.15625 2.25 
Q 28.171875 0 22.40625 0 
Q 14.109375 0 9.34375 5.484375 
Q 4.59375 10.984375 4.59375 20.609375 
Q 4.59375 28.171875 7.46875 35.421875 
Q 10.359375 42.671875 15.578125 48.296875 
Q 19.046875 52 23.65625 54 
Q 28.265625 56 33.296875 56 
Q 38.8125 56 42.90625 53.4375 
Q 47.015625 50.875 49.03125 46.1875 
L 50.59375 54.6875 
z
M 46.09375 34.625 
Q 46.09375 41.265625 42.96875 44.875 
Q 39.84375 48.484375 34.078125 48.484375 
Q 30.515625 48.484375 27.296875 47.0625 
Q 24.078125 45.65625 21.78125 43.109375 
Q 18.0625 38.921875 15.984375 33.234375 
Q 13.921875 27.546875 13.921875 21.484375 
Q 13.921875 14.75 17.0625 11.125 
Q 20.21875 7.515625 26.125 7.515625 
Q 34.671875 7.515625 40.375 15.25 
Q 46.09375 23 46.09375 34.625 
z
" id="DejaVuSans-Oblique-103"/>
      <path d="M 5.90625 72.90625 
L 67.578125 72.90625 
L 66.015625 64.59375 
L 39.984375 64.59375 
L 27.484375 0 
L 17.578125 0 
L 30.078125 64.59375 
L 4.296875 64.59375 
z
" id="DejaVuSans-Oblique-84"/>
     </defs>
     <g transform="translate(61.19 29.012677)scale(0.1 -0.1)">
      <use xlink:href="#DejaVuSans-Oblique-103"/>
      <use transform="translate(63.476562 -16.40625)scale(0.7)" xlink:href="#DejaVuSans-Oblique-84"/>
     </g>
    </g>
    <g id="line2d_22">
     <path d="M 33.19 52.512677 
L 53.19 52.512677 
" style="fill:none;stroke:#ff7f0e;stroke-linecap:square;stroke-width:1.5;"/>
    </g>
    <g id="line2d_23"/>
    <g id="text_18">
     <!-- $l(T) = \sum_{t=1}^T \sqrt{\dfrac{g^2_t}{t}}$ -->
     <defs>
      <path d="M 18.3125 75.984375 
L 27.296875 75.984375 
L 12.5 0 
L 3.515625 0 
z
" id="DejaVuSans-Oblique-108"/>
      <path d="M 31 75.875 
Q 24.46875 64.65625 21.28125 53.65625 
Q 18.109375 42.671875 18.109375 31.390625 
Q 18.109375 20.125 21.3125 9.0625 
Q 24.515625 -2 31 -13.1875 
L 23.1875 -13.1875 
Q 15.875 -1.703125 12.234375 9.375 
Q 8.59375 20.453125 8.59375 31.390625 
Q 8.59375 42.28125 12.203125 53.3125 
Q 15.828125 64.359375 23.1875 75.875 
z
" id="DejaVuSans-40"/>
      <path d="M 8.015625 75.875 
L 15.828125 75.875 
Q 23.140625 64.359375 26.78125 53.3125 
Q 30.421875 42.28125 30.421875 31.390625 
Q 30.421875 20.453125 26.78125 9.375 
Q 23.140625 -1.703125 15.828125 -13.1875 
L 8.015625 -13.1875 
Q 14.5 -2 17.703125 9.0625 
Q 20.90625 20.125 20.90625 31.390625 
Q 20.90625 42.671875 17.703125 53.65625 
Q 14.5 64.65625 8.015625 75.875 
z
" id="DejaVuSans-41"/>
      <path d="M 10.59375 45.40625 
L 73.1875 45.40625 
L 73.1875 37.203125 
L 10.59375 37.203125 
z
M 10.59375 25.484375 
L 73.1875 25.484375 
L 73.1875 17.1875 
L 10.59375 17.1875 
z
" id="DejaVuSans-61"/>
      <path d="M 3.8125 101.703125 
L 90.671875 101.703125 
L 90.671875 88.375 
L 24.46875 88.375 
L 70.84375 38.875 
L 22.953125 -13.875 
L 92.484375 -13.875 
L 92.484375 -27.15625 
L 1.703125 -27.15625 
L 1.703125 -16.84375 
L 51.8125 38.484375 
L 3.8125 89.5 
z
" id="DejaVuSansDisplay-8721"/>
      <path d="M 42.28125 54.6875 
L 40.921875 47.703125 
L 23 47.703125 
L 17.1875 18.015625 
Q 16.890625 16.359375 16.75 15.234375 
Q 16.609375 14.109375 16.609375 13.484375 
Q 16.609375 10.359375 18.484375 8.9375 
Q 20.359375 7.515625 24.515625 7.515625 
L 33.59375 7.515625 
L 32.078125 0 
L 23.484375 0 
Q 15.484375 0 11.546875 3.125 
Q 7.625 6.25 7.625 12.59375 
Q 7.625 13.71875 7.765625 15.0625 
Q 7.90625 16.40625 8.203125 18.015625 
L 14.015625 47.703125 
L 6.390625 47.703125 
L 7.8125 54.6875 
L 15.28125 54.6875 
L 18.3125 70.21875 
L 27.296875 70.21875 
L 24.3125 54.6875 
z
" id="DejaVuSans-Oblique-116"/>
      <path d="M 115.703125 205.59375 
L 56.703125 -40.40625 
L 50.796875 -40.40625 
L 25.796875 62.796875 
Q 24.796875 66.796875 23.390625 68.890625 
Q 22 71 19.40625 71 
Q 16.09375 71 12.5 68.203125 
L 11 70.90625 
L 29.296875 83.59375 
L 32.09375 83.59375 
L 56 -15.296875 
L 56.703125 -15.296875 
L 109.59375 205.59375 
z
" id="STIXSizeTwoSym-Regular-8730"/>
     </defs>
     <g transform="translate(61.19 56.012677)scale(0.1 -0.1)">
      <use transform="translate(0 0.40625)" xlink:href="#DejaVuSans-Oblique-108"/>
      <use transform="translate(27.783203 0.40625)" xlink:href="#DejaVuSans-40"/>
      <use transform="translate(66.796875 0.40625)" xlink:href="#DejaVuSans-Oblique-84"/>
      <use transform="translate(127.880859 0.40625)" xlink:href="#DejaVuSans-41"/>
      <use transform="translate(186.376953 0.40625)" xlink:href="#DejaVuSans-61"/>
      <use transform="translate(346.648438 139.609375)scale(0.7)" xlink:href="#DejaVuSans-Oblique-84"/>
      <use transform="translate(323.648438 19.15625)" xlink:href="#DejaVuSansDisplay-8721"/>
      <use transform="translate(289.648438 -77.784375)scale(0.7)" xlink:href="#DejaVuSans-Oblique-116"/>
      <use transform="translate(330.732422 -77.784375)scale(0.7)" xlink:href="#DejaVuSans-61"/>
      <use transform="translate(403.022461 -77.784375)scale(0.7)" xlink:href="#DejaVuSans-49"/>
      <use transform="translate(447.558594 -16.171875)scale(1.017467)" xlink:href="#STIXSizeTwoSym-Regular-8730"/>
      <use transform="translate(574.40802 71.515625)" xlink:href="#DejaVuSans-Oblique-103"/>
      <use transform="translate(642.534478 109.796875)scale(0.7)" xlink:href="#DejaVuSans-50"/>
      <use transform="translate(637.884583 44.171875)scale(0.7)" xlink:href="#DejaVuSans-Oblique-116"/>
      <use transform="translate(612.40802 -57.296875)" xlink:href="#DejaVuSans-Oblique-116"/>
      <path d="M 561.90802 186.5 
L 561.90802 192.75 
L 714.804986 192.75 
L 714.804986 186.5 
L 561.90802 186.5 
z
"/>
      <path d="M 574.40802 19.171875 
L 574.40802 25.421875 
L 689.804986 25.421875 
L 689.804986 19.171875 
L 574.40802 19.171875 
z
"/>
     </g>
    </g>
    <g id="line2d_24">
     <path d="M 33.19 88.212677 
L 53.19 88.212677 
" style="fill:none;stroke:#2ca02c;stroke-linecap:square;stroke-width:1.5;"/>
    </g>
    <g id="line2d_25"/>
    <g id="text_19">
     <!-- $r(T) = \sqrt{\sum_{t=1}^T g^2_t}$ -->
     <defs>
      <path d="M 44.578125 46.390625 
Q 43.21875 47.125 41.453125 47.515625 
Q 39.703125 47.90625 37.703125 47.90625 
Q 30.515625 47.90625 25.140625 42.453125 
Q 19.78125 37.015625 18.015625 27.875 
L 12.5 0 
L 3.515625 0 
L 14.203125 54.6875 
L 23.1875 54.6875 
L 21.484375 46.1875 
Q 25.046875 50.921875 30 53.453125 
Q 34.96875 56 40.578125 56 
Q 42.046875 56 43.453125 55.828125 
Q 44.875 55.671875 46.296875 55.28125 
z
" id="DejaVuSans-Oblique-114"/>
      <path d="M 111 256.5 
L 56.796875 -51 
L 51.09375 -51 
L 28.59375 75.40625 
Q 27.40625 81.90625 25.90625 84.90625 
Q 24.40625 87.90625 21.5 87.90625 
Q 16.90625 87.90625 13 84.59375 
L 11.203125 88 
L 33.203125 101.90625 
L 37.09375 101.90625 
L 57 -9.90625 
L 57.40625 -9.90625 
L 104.296875 256.5 
z
" id="STIXSizeThreeSym-Regular-8730"/>
     </defs>
     <g transform="translate(61.19 91.712677)scale(0.1 -0.1)">
      <use transform="translate(0 0.51875)" xlink:href="#DejaVuSans-Oblique-114"/>
      <use transform="translate(41.113281 0.51875)" xlink:href="#DejaVuSans-40"/>
      <use transform="translate(80.126953 0.51875)" xlink:href="#DejaVuSans-Oblique-84"/>
      <use transform="translate(141.210938 0.51875)" xlink:href="#DejaVuSans-41"/>
      <use transform="translate(199.707031 0.51875)" xlink:href="#DejaVuSans-61"/>
      <use transform="translate(302.978516 -27.96875)scale(0.974563)" xlink:href="#STIXSizeThreeSym-Regular-8730"/>
      <use transform="translate(477.338058 139.715625)scale(0.7)" xlink:href="#DejaVuSans-Oblique-84"/>
      <use transform="translate(454.338058 19.2625)" xlink:href="#DejaVuSansDisplay-8721"/>
      <use transform="translate(420.338058 -77.678125)scale(0.7)" xlink:href="#DejaVuSans-Oblique-116"/>
      <use transform="translate(461.422043 -77.678125)scale(0.7)" xlink:href="#DejaVuSans-61"/>
      <use transform="translate(533.712082 -77.678125)scale(0.7)" xlink:href="#DejaVuSans-49"/>
      <use transform="translate(578.248215 0.5125)" xlink:href="#DejaVuSans-Oblique-103"/>
      <use transform="translate(646.374673 38.79375)scale(0.7)" xlink:href="#DejaVuSans-50"/>
      <use transform="translate(641.724777 -26.83125)scale(0.7)" xlink:href="#DejaVuSans-Oblique-116"/>
      <path d="M 407.838058 215.5 
L 407.838058 221.75 
L 706.145181 221.75 
L 706.145181 215.5 
L 407.838058 215.5 
z
"/>
     </g>
    </g>
    <g id="line2d_26">
     <path d="M 33.19 108.711115 
L 53.19 108.711115 
" style="fill:none;stroke:#d62728;stroke-linecap:square;stroke-width:1.5;"/>
    </g>
    <g id="line2d_27"/>
    <g id="text_20">
     <!-- $r(t) - l(t)$ -->
     <defs>
      <path d="M 10.59375 35.5 
L 73.1875 35.5 
L 73.1875 27.203125 
L 10.59375 27.203125 
z
" id="DejaVuSans-8722"/>
     </defs>
     <g transform="translate(61.19 112.211115)scale(0.1 -0.1)">
      <use transform="translate(0 0.015625)" xlink:href="#DejaVuSans-Oblique-114"/>
      <use transform="translate(41.113281 0.015625)" xlink:href="#DejaVuSans-40"/>
      <use transform="translate(80.126953 0.015625)" xlink:href="#DejaVuSans-Oblique-116"/>
      <use transform="translate(119.335938 0.015625)" xlink:href="#DejaVuSans-41"/>
      <use transform="translate(177.832031 0.015625)" xlink:href="#DejaVuSans-8722"/>
      <use transform="translate(281.103516 0.015625)" xlink:href="#DejaVuSans-Oblique-108"/>
      <use transform="translate(308.886719 0.015625)" xlink:href="#DejaVuSans-40"/>
      <use transform="translate(347.900391 0.015625)" xlink:href="#DejaVuSans-Oblique-116"/>
      <use transform="translate(387.109375 0.015625)" xlink:href="#DejaVuSans-41"/>
     </g>
    </g>
   </g>
  </g>
 </g>
 <defs>
  <clipPath id="p76e4da4671">
   <rect height="283.99904" width="322.49" x="24.19" y="12.41424"/>
  </clipPath>
 </defs>
</svg>
