<?xml version="1.0" encoding="utf-8" standalone="no"?>
<!DOCTYPE svg PUBLIC "-//W3C//DTD SVG 1.1//EN"
  "http://www.w3.org/Graphics/SVG/1.1/DTD/svg11.dtd">
<!-- Created with matplotlib (https://matplotlib.org/) -->
<svg height="335.52pt" version="1.1" viewBox="0 0 360 335.52" width="360pt" xmlns="http://www.w3.org/2000/svg" xmlns:xlink="http://www.w3.org/1999/xlink">
 <defs>
  <style type="text/css">
*{stroke-linecap:butt;stroke-linejoin:round;}
  </style>
 </defs>
 <g id="figure_1">
  <g id="patch_1">
   <path d="M 0 335.52 
L 360 335.52 
L 360 0 
L 0 0 
z
" style="fill:#ffffff;"/>
  </g>
  <g id="axes_1">
   <g id="patch_2">
    <path d="M 71.317 296.41328 
L 346.68 296.41328 
L 346.68 25.05216 
L 71.317 25.05216 
z
" style="fill:#ffffff;"/>
   </g>
   <g id="matplotlib.axis_1">
    <g id="xtick_1">
     <g id="line2d_1">
      <defs>
       <path d="M 0 0 
L 0 3.5 
" id="mf634591609" style="stroke:#000000;stroke-width:0.8;"/>
      </defs>
      <g>
       <use style="stroke:#000000;stroke-width:0.8;" x="83.582919" xlink:href="#mf634591609" y="296.41328"/>
      </g>
     </g>
     <g id="text_1">
      <!-- 0 -->
      <defs>
       <path d="M 31.78125 66.40625 
Q 24.171875 66.40625 20.328125 58.90625 
Q 16.5 51.421875 16.5 36.375 
Q 16.5 21.390625 20.328125 13.890625 
Q 24.171875 6.390625 31.78125 6.390625 
Q 39.453125 6.390625 43.28125 13.890625 
Q 47.125 21.390625 47.125 36.375 
Q 47.125 51.421875 43.28125 58.90625 
Q 39.453125 66.40625 31.78125 66.40625 
z
M 31.78125 74.21875 
Q 44.046875 74.21875 50.515625 64.515625 
Q 56.984375 54.828125 56.984375 36.375 
Q 56.984375 17.96875 50.515625 8.265625 
Q 44.046875 -1.421875 31.78125 -1.421875 
Q 19.53125 -1.421875 13.0625 8.265625 
Q 6.59375 17.96875 6.59375 36.375 
Q 6.59375 54.828125 13.0625 64.515625 
Q 19.53125 74.21875 31.78125 74.21875 
z
" id="DejaVuSans-48"/>
      </defs>
      <g transform="translate(80.401669 311.011717)scale(0.1 -0.1)">
       <use xlink:href="#DejaVuSans-48"/>
      </g>
     </g>
    </g>
    <g id="xtick_2">
     <g id="line2d_2">
      <g>
       <use style="stroke:#000000;stroke-width:0.8;" x="133.699036" xlink:href="#mf634591609" y="296.41328"/>
      </g>
     </g>
     <g id="text_2">
      <!-- 200 -->
      <defs>
       <path d="M 19.1875 8.296875 
L 53.609375 8.296875 
L 53.609375 0 
L 7.328125 0 
L 7.328125 8.296875 
Q 12.9375 14.109375 22.625 23.890625 
Q 32.328125 33.6875 34.8125 36.53125 
Q 39.546875 41.84375 41.421875 45.53125 
Q 43.3125 49.21875 43.3125 52.78125 
Q 43.3125 58.59375 39.234375 62.25 
Q 35.15625 65.921875 28.609375 65.921875 
Q 23.96875 65.921875 18.8125 64.3125 
Q 13.671875 62.703125 7.8125 59.421875 
L 7.8125 69.390625 
Q 13.765625 71.78125 18.9375 73 
Q 24.125 74.21875 28.421875 74.21875 
Q 39.75 74.21875 46.484375 68.546875 
Q 53.21875 62.890625 53.21875 53.421875 
Q 53.21875 48.921875 51.53125 44.890625 
Q 49.859375 40.875 45.40625 35.40625 
Q 44.1875 33.984375 37.640625 27.21875 
Q 31.109375 20.453125 19.1875 8.296875 
z
" id="DejaVuSans-50"/>
      </defs>
      <g transform="translate(124.155286 311.011717)scale(0.1 -0.1)">
       <use xlink:href="#DejaVuSans-50"/>
       <use x="63.623047" xlink:href="#DejaVuSans-48"/>
       <use x="127.246094" xlink:href="#DejaVuSans-48"/>
      </g>
     </g>
    </g>
    <g id="xtick_3">
     <g id="line2d_3">
      <g>
       <use style="stroke:#000000;stroke-width:0.8;" x="183.815152" xlink:href="#mf634591609" y="296.41328"/>
      </g>
     </g>
     <g id="text_3">
      <!-- 400 -->
      <defs>
       <path d="M 37.796875 64.3125 
L 12.890625 25.390625 
L 37.796875 25.390625 
z
M 35.203125 72.90625 
L 47.609375 72.90625 
L 47.609375 25.390625 
L 58.015625 25.390625 
L 58.015625 17.1875 
L 47.609375 17.1875 
L 47.609375 0 
L 37.796875 0 
L 37.796875 17.1875 
L 4.890625 17.1875 
L 4.890625 26.703125 
z
" id="DejaVuSans-52"/>
      </defs>
      <g transform="translate(174.271402 311.011717)scale(0.1 -0.1)">
       <use xlink:href="#DejaVuSans-52"/>
       <use x="63.623047" xlink:href="#DejaVuSans-48"/>
       <use x="127.246094" xlink:href="#DejaVuSans-48"/>
      </g>
     </g>
    </g>
    <g id="xtick_4">
     <g id="line2d_4">
      <g>
       <use style="stroke:#000000;stroke-width:0.8;" x="233.931268" xlink:href="#mf634591609" y="296.41328"/>
      </g>
     </g>
     <g id="text_4">
      <!-- 600 -->
      <defs>
       <path d="M 33.015625 40.375 
Q 26.375 40.375 22.484375 35.828125 
Q 18.609375 31.296875 18.609375 23.390625 
Q 18.609375 15.53125 22.484375 10.953125 
Q 26.375 6.390625 33.015625 6.390625 
Q 39.65625 6.390625 43.53125 10.953125 
Q 47.40625 15.53125 47.40625 23.390625 
Q 47.40625 31.296875 43.53125 35.828125 
Q 39.65625 40.375 33.015625 40.375 
z
M 52.59375 71.296875 
L 52.59375 62.3125 
Q 48.875 64.0625 45.09375 64.984375 
Q 41.3125 65.921875 37.59375 65.921875 
Q 27.828125 65.921875 22.671875 59.328125 
Q 17.53125 52.734375 16.796875 39.40625 
Q 19.671875 43.65625 24.015625 45.921875 
Q 28.375 48.1875 33.59375 48.1875 
Q 44.578125 48.1875 50.953125 41.515625 
Q 57.328125 34.859375 57.328125 23.390625 
Q 57.328125 12.15625 50.6875 5.359375 
Q 44.046875 -1.421875 33.015625 -1.421875 
Q 20.359375 -1.421875 13.671875 8.265625 
Q 6.984375 17.96875 6.984375 36.375 
Q 6.984375 53.65625 15.1875 63.9375 
Q 23.390625 74.21875 37.203125 74.21875 
Q 40.921875 74.21875 44.703125 73.484375 
Q 48.484375 72.75 52.59375 71.296875 
z
" id="DejaVuSans-54"/>
      </defs>
      <g transform="translate(224.387518 311.011717)scale(0.1 -0.1)">
       <use xlink:href="#DejaVuSans-54"/>
       <use x="63.623047" xlink:href="#DejaVuSans-48"/>
       <use x="127.246094" xlink:href="#DejaVuSans-48"/>
      </g>
     </g>
    </g>
    <g id="xtick_5">
     <g id="line2d_5">
      <g>
       <use style="stroke:#000000;stroke-width:0.8;" x="284.047384" xlink:href="#mf634591609" y="296.41328"/>
      </g>
     </g>
     <g id="text_5">
      <!-- 800 -->
      <defs>
       <path d="M 31.78125 34.625 
Q 24.75 34.625 20.71875 30.859375 
Q 16.703125 27.09375 16.703125 20.515625 
Q 16.703125 13.921875 20.71875 10.15625 
Q 24.75 6.390625 31.78125 6.390625 
Q 38.8125 6.390625 42.859375 10.171875 
Q 46.921875 13.96875 46.921875 20.515625 
Q 46.921875 27.09375 42.890625 30.859375 
Q 38.875 34.625 31.78125 34.625 
z
M 21.921875 38.8125 
Q 15.578125 40.375 12.03125 44.71875 
Q 8.5 49.078125 8.5 55.328125 
Q 8.5 64.0625 14.71875 69.140625 
Q 20.953125 74.21875 31.78125 74.21875 
Q 42.671875 74.21875 48.875 69.140625 
Q 55.078125 64.0625 55.078125 55.328125 
Q 55.078125 49.078125 51.53125 44.71875 
Q 48 40.375 41.703125 38.8125 
Q 48.828125 37.15625 52.796875 32.3125 
Q 56.78125 27.484375 56.78125 20.515625 
Q 56.78125 9.90625 50.3125 4.234375 
Q 43.84375 -1.421875 31.78125 -1.421875 
Q 19.734375 -1.421875 13.25 4.234375 
Q 6.78125 9.90625 6.78125 20.515625 
Q 6.78125 27.484375 10.78125 32.3125 
Q 14.796875 37.15625 21.921875 38.8125 
z
M 18.3125 54.390625 
Q 18.3125 48.734375 21.84375 45.5625 
Q 25.390625 42.390625 31.78125 42.390625 
Q 38.140625 42.390625 41.71875 45.5625 
Q 45.3125 48.734375 45.3125 54.390625 
Q 45.3125 60.0625 41.71875 63.234375 
Q 38.140625 66.40625 31.78125 66.40625 
Q 25.390625 66.40625 21.84375 63.234375 
Q 18.3125 60.0625 18.3125 54.390625 
z
" id="DejaVuSans-56"/>
      </defs>
      <g transform="translate(274.503634 311.011717)scale(0.1 -0.1)">
       <use xlink:href="#DejaVuSans-56"/>
       <use x="63.623047" xlink:href="#DejaVuSans-48"/>
       <use x="127.246094" xlink:href="#DejaVuSans-48"/>
      </g>
     </g>
    </g>
    <g id="xtick_6">
     <g id="line2d_6">
      <g>
       <use style="stroke:#000000;stroke-width:0.8;" x="334.1635" xlink:href="#mf634591609" y="296.41328"/>
      </g>
     </g>
     <g id="text_6">
      <!-- 1000 -->
      <defs>
       <path d="M 12.40625 8.296875 
L 28.515625 8.296875 
L 28.515625 63.921875 
L 10.984375 60.40625 
L 10.984375 69.390625 
L 28.421875 72.90625 
L 38.28125 72.90625 
L 38.28125 8.296875 
L 54.390625 8.296875 
L 54.390625 0 
L 12.40625 0 
z
" id="DejaVuSans-49"/>
      </defs>
      <g transform="translate(321.4385 311.011717)scale(0.1 -0.1)">
       <use xlink:href="#DejaVuSans-49"/>
       <use x="63.623047" xlink:href="#DejaVuSans-48"/>
       <use x="127.246094" xlink:href="#DejaVuSans-48"/>
       <use x="190.869141" xlink:href="#DejaVuSans-48"/>
      </g>
     </g>
    </g>
    <g id="text_7">
     <!-- t -->
     <defs>
      <path d="M 18.3125 70.21875 
L 18.3125 54.6875 
L 36.8125 54.6875 
L 36.8125 47.703125 
L 18.3125 47.703125 
L 18.3125 18.015625 
Q 18.3125 11.328125 20.140625 9.421875 
Q 21.96875 7.515625 27.59375 7.515625 
L 36.8125 7.515625 
L 36.8125 0 
L 27.59375 0 
Q 17.1875 0 13.234375 3.875 
Q 9.28125 7.765625 9.28125 18.015625 
L 9.28125 47.703125 
L 2.6875 47.703125 
L 2.6875 54.6875 
L 9.28125 54.6875 
L 9.28125 70.21875 
z
" id="DejaVuSans-116"/>
     </defs>
     <g transform="translate(207.038344 324.689842)scale(0.1 -0.1)">
      <use xlink:href="#DejaVuSans-116"/>
     </g>
    </g>
   </g>
   <g id="matplotlib.axis_2">
    <g id="ytick_1">
     <g id="line2d_7">
      <defs>
       <path d="M 0 0 
L -3.5 0 
" id="m532a913c7c" style="stroke:#000000;stroke-width:0.8;"/>
      </defs>
      <g>
       <use style="stroke:#000000;stroke-width:0.8;" x="71.317" xlink:href="#m532a913c7c" y="266.734193"/>
      </g>
     </g>
     <g id="text_8">
      <!-- 0.4 -->
      <defs>
       <path d="M 10.6875 12.40625 
L 21 12.40625 
L 21 0 
L 10.6875 0 
z
" id="DejaVuSans-46"/>
      </defs>
      <g transform="translate(48.413875 270.533412)scale(0.1 -0.1)">
       <use xlink:href="#DejaVuSans-48"/>
       <use x="63.623047" xlink:href="#DejaVuSans-46"/>
       <use x="95.410156" xlink:href="#DejaVuSans-52"/>
      </g>
     </g>
    </g>
    <g id="ytick_2">
     <g id="line2d_8">
      <g>
       <use style="stroke:#000000;stroke-width:0.8;" x="71.317" xlink:href="#m532a913c7c" y="228.508245"/>
      </g>
     </g>
     <g id="text_9">
      <!-- 0.5 -->
      <defs>
       <path d="M 10.796875 72.90625 
L 49.515625 72.90625 
L 49.515625 64.59375 
L 19.828125 64.59375 
L 19.828125 46.734375 
Q 21.96875 47.46875 24.109375 47.828125 
Q 26.265625 48.1875 28.421875 48.1875 
Q 40.625 48.1875 47.75 41.5 
Q 54.890625 34.8125 54.890625 23.390625 
Q 54.890625 11.625 47.5625 5.09375 
Q 40.234375 -1.421875 26.90625 -1.421875 
Q 22.3125 -1.421875 17.546875 -0.640625 
Q 12.796875 0.140625 7.71875 1.703125 
L 7.71875 11.625 
Q 12.109375 9.234375 16.796875 8.0625 
Q 21.484375 6.890625 26.703125 6.890625 
Q 35.15625 6.890625 40.078125 11.328125 
Q 45.015625 15.765625 45.015625 23.390625 
Q 45.015625 31 40.078125 35.4375 
Q 35.15625 39.890625 26.703125 39.890625 
Q 22.75 39.890625 18.8125 39.015625 
Q 14.890625 38.140625 10.796875 36.28125 
z
" id="DejaVuSans-53"/>
      </defs>
      <g transform="translate(48.413875 232.307464)scale(0.1 -0.1)">
       <use xlink:href="#DejaVuSans-48"/>
       <use x="63.623047" xlink:href="#DejaVuSans-46"/>
       <use x="95.410156" xlink:href="#DejaVuSans-53"/>
      </g>
     </g>
    </g>
    <g id="ytick_3">
     <g id="line2d_9">
      <g>
       <use style="stroke:#000000;stroke-width:0.8;" x="71.317" xlink:href="#m532a913c7c" y="190.282297"/>
      </g>
     </g>
     <g id="text_10">
      <!-- 0.6 -->
      <g transform="translate(48.413875 194.081516)scale(0.1 -0.1)">
       <use xlink:href="#DejaVuSans-48"/>
       <use x="63.623047" xlink:href="#DejaVuSans-46"/>
       <use x="95.410156" xlink:href="#DejaVuSans-54"/>
      </g>
     </g>
    </g>
    <g id="ytick_4">
     <g id="line2d_10">
      <g>
       <use style="stroke:#000000;stroke-width:0.8;" x="71.317" xlink:href="#m532a913c7c" y="152.056349"/>
      </g>
     </g>
     <g id="text_11">
      <!-- 0.7 -->
      <defs>
       <path d="M 8.203125 72.90625 
L 55.078125 72.90625 
L 55.078125 68.703125 
L 28.609375 0 
L 18.3125 0 
L 43.21875 64.59375 
L 8.203125 64.59375 
z
" id="DejaVuSans-55"/>
      </defs>
      <g transform="translate(48.413875 155.855568)scale(0.1 -0.1)">
       <use xlink:href="#DejaVuSans-48"/>
       <use x="63.623047" xlink:href="#DejaVuSans-46"/>
       <use x="95.410156" xlink:href="#DejaVuSans-55"/>
      </g>
     </g>
    </g>
    <g id="ytick_5">
     <g id="line2d_11">
      <g>
       <use style="stroke:#000000;stroke-width:0.8;" x="71.317" xlink:href="#m532a913c7c" y="113.830401"/>
      </g>
     </g>
     <g id="text_12">
      <!-- 0.8 -->
      <g transform="translate(48.413875 117.62962)scale(0.1 -0.1)">
       <use xlink:href="#DejaVuSans-48"/>
       <use x="63.623047" xlink:href="#DejaVuSans-46"/>
       <use x="95.410156" xlink:href="#DejaVuSans-56"/>
      </g>
     </g>
    </g>
    <g id="ytick_6">
     <g id="line2d_12">
      <g>
       <use style="stroke:#000000;stroke-width:0.8;" x="71.317" xlink:href="#m532a913c7c" y="75.604453"/>
      </g>
     </g>
     <g id="text_13">
      <!-- 0.9 -->
      <defs>
       <path d="M 10.984375 1.515625 
L 10.984375 10.5 
Q 14.703125 8.734375 18.5 7.8125 
Q 22.3125 6.890625 25.984375 6.890625 
Q 35.75 6.890625 40.890625 13.453125 
Q 46.046875 20.015625 46.78125 33.40625 
Q 43.953125 29.203125 39.59375 26.953125 
Q 35.25 24.703125 29.984375 24.703125 
Q 19.046875 24.703125 12.671875 31.3125 
Q 6.296875 37.9375 6.296875 49.421875 
Q 6.296875 60.640625 12.9375 67.421875 
Q 19.578125 74.21875 30.609375 74.21875 
Q 43.265625 74.21875 49.921875 64.515625 
Q 56.59375 54.828125 56.59375 36.375 
Q 56.59375 19.140625 48.40625 8.859375 
Q 40.234375 -1.421875 26.421875 -1.421875 
Q 22.703125 -1.421875 18.890625 -0.6875 
Q 15.09375 0.046875 10.984375 1.515625 
z
M 30.609375 32.421875 
Q 37.25 32.421875 41.125 36.953125 
Q 45.015625 41.5 45.015625 49.421875 
Q 45.015625 57.28125 41.125 61.84375 
Q 37.25 66.40625 30.609375 66.40625 
Q 23.96875 66.40625 20.09375 61.84375 
Q 16.21875 57.28125 16.21875 49.421875 
Q 16.21875 41.5 20.09375 36.953125 
Q 23.96875 32.421875 30.609375 32.421875 
z
" id="DejaVuSans-57"/>
      </defs>
      <g transform="translate(48.413875 79.403672)scale(0.1 -0.1)">
       <use xlink:href="#DejaVuSans-48"/>
       <use x="63.623047" xlink:href="#DejaVuSans-46"/>
       <use x="95.410156" xlink:href="#DejaVuSans-57"/>
      </g>
     </g>
    </g>
    <g id="ytick_7">
     <g id="line2d_13">
      <g>
       <use style="stroke:#000000;stroke-width:0.8;" x="71.317" xlink:href="#m532a913c7c" y="37.378505"/>
      </g>
     </g>
     <g id="text_14">
      <!-- 1.0 -->
      <g transform="translate(48.413875 41.177724)scale(0.1 -0.1)">
       <use xlink:href="#DejaVuSans-49"/>
       <use x="63.623047" xlink:href="#DejaVuSans-46"/>
       <use x="95.410156" xlink:href="#DejaVuSans-48"/>
      </g>
     </g>
    </g>
    <g id="text_15">
     <!-- $\dfrac{\sqrt{1 - \rho_2^t}}{1 - \rho_1^t}$ -->
     <defs>
      <path d="M 108.90625 155.203125 
L 52.703125 -29.5 
L 48.5 -29.5 
L 25.40625 45.59375 
Q 24.296875 49.203125 22.890625 50.796875 
Q 21.5 52.40625 19.203125 52.40625 
Q 15.796875 52.40625 12.40625 49.703125 
L 11.203125 51.703125 
L 27.59375 64.296875 
L 30.09375 64.296875 
L 52.796875 -9.40625 
L 53.203125 -9.40625 
L 103.203125 155.203125 
z
" id="STIXSizeOneSym-Regular-8730"/>
      <path d="M 10.59375 35.5 
L 73.1875 35.5 
L 73.1875 27.203125 
L 10.59375 27.203125 
z
" id="DejaVuSans-8722"/>
      <path d="M 18.796875 44.921875 
Q 22.703125 49.90625 30.953125 54.296875 
Q 34.1875 56 43.0625 56 
Q 53.03125 56 57.71875 48.09375 
Q 62.40625 40.1875 59.90625 27.296875 
Q 57.375 14.40625 49.609375 6.484375 
Q 41.84375 -1.421875 31.890625 -1.421875 
Q 25.875 -1.421875 22.015625 0.984375 
Q 18.171875 3.328125 16.3125 8.203125 
L 10.640625 -20.796875 
L 1.609375 -20.796875 
L 10.890625 26.8125 
Q 13.09375 38.09375 18.796875 44.921875 
z
M 50.59375 27.296875 
Q 52.484375 37.203125 49.515625 42.875 
Q 46.53125 48.484375 39.40625 48.484375 
Q 32.28125 48.484375 27.09375 42.875 
Q 21.921875 37.203125 20.015625 27.296875 
Q 18.0625 17.390625 21.046875 11.71875 
Q 24.03125 6.109375 31.15625 6.109375 
Q 38.28125 6.109375 43.453125 11.71875 
Q 48.640625 17.390625 50.59375 27.296875 
z
" id="DejaVuSans-Oblique-961"/>
      <path d="M 42.28125 54.6875 
L 40.921875 47.703125 
L 23 47.703125 
L 17.1875 18.015625 
Q 16.890625 16.359375 16.75 15.234375 
Q 16.609375 14.109375 16.609375 13.484375 
Q 16.609375 10.359375 18.484375 8.9375 
Q 20.359375 7.515625 24.515625 7.515625 
L 33.59375 7.515625 
L 32.078125 0 
L 23.484375 0 
Q 15.484375 0 11.546875 3.125 
Q 7.625 6.25 7.625 12.59375 
Q 7.625 13.71875 7.765625 15.0625 
Q 7.90625 16.40625 8.203125 18.015625 
L 14.015625 47.703125 
L 6.390625 47.703125 
L 7.8125 54.6875 
L 15.28125 54.6875 
L 18.3125 70.21875 
L 27.296875 70.21875 
L 24.3125 54.6875 
z
" id="DejaVuSans-Oblique-116"/>
     </defs>
     <g transform="translate(34.113875 181.68272)rotate(-90)scale(0.1 -0.1)">
      <use transform="translate(0 67.3125)scale(0.79061)" xlink:href="#STIXSizeOneSym-Regular-8730"/>
      <use transform="translate(96.052536 71.315625)" xlink:href="#DejaVuSans-49"/>
      <use transform="translate(179.158005 71.315625)" xlink:href="#DejaVuSans-8722"/>
      <use transform="translate(282.429489 71.315625)" xlink:href="#DejaVuSans-Oblique-961"/>
      <use transform="translate(350.555947 109.596875)scale(0.7)" xlink:href="#DejaVuSans-Oblique-116"/>
      <use transform="translate(345.906052 43.971875)scale(0.7)" xlink:href="#DejaVuSans-50"/>
      <use transform="translate(54 -74.684375)" xlink:href="#DejaVuSans-49"/>
      <use transform="translate(137.105469 -74.684375)" xlink:href="#DejaVuSans-8722"/>
      <use transform="translate(240.376953 -74.684375)" xlink:href="#DejaVuSans-Oblique-961"/>
      <use transform="translate(308.503411 -36.403125)scale(0.7)" xlink:href="#DejaVuSans-Oblique-116"/>
      <use transform="translate(303.853516 -102.028125)scale(0.7)" xlink:href="#DejaVuSans-49"/>
      <path d="M 83.552536 183.5 
L 83.552536 189.75 
L 405.676559 189.75 
L 405.676559 183.5 
L 83.552536 183.5 
z
"/>
      <path d="M 0 19 
L 0 25.25 
L 405.676559 25.25 
L 405.676559 19 
L 0 19 
z
"/>
     </g>
    </g>
   </g>
   <g id="line2d_14">
    <path clip-path="url(#pcb18e6487c)" d="M 83.8335 228.508245 
L 86.362086 284.078684 
L 88.890672 250.753419 
L 91.419258 220.934931 
L 93.947843 196.678553 
L 96.476429 176.735526 
L 99.005015 160.017286 
L 101.533601 145.78621 
L 104.062187 133.535568 
L 106.590773 122.901035 
L 109.119359 113.609779 
L 111.647944 105.450812 
L 114.17653 98.256809 
L 116.705116 91.892394 
L 119.233702 86.246256 
L 121.762288 81.225655 
L 124.290874 76.752474 
L 126.81946 72.760309 
L 129.348045 69.19227 
L 131.876631 65.999305 
L 134.405217 63.138875 
L 136.933803 60.573911 
L 139.462389 58.271979 
L 141.990975 56.204593 
L 144.519561 54.346655 
L 147.048146 52.675994 
L 149.576732 51.172972 
L 152.105318 49.82016 
L 154.633904 48.602061 
L 157.16249 47.504869 
L 159.691076 46.516269 
L 162.219662 45.62526 
L 164.748247 44.822005 
L 167.276833 44.097697 
L 169.805419 43.444443 
L 172.334005 42.855166 
L 174.862591 42.323512 
L 177.391177 41.843776 
L 179.919763 41.410831 
L 182.448348 41.020067 
L 184.976934 40.667336 
L 187.50552 40.348906 
L 190.034106 40.061416 
L 192.562692 39.80184 
L 195.091278 39.567451 
L 197.619864 39.355792 
L 200.148449 39.164647 
L 202.677035 38.992019 
L 205.205621 38.836108 
L 207.734207 38.695288 
L 210.262793 38.568094 
L 212.791379 38.453204 
L 215.319965 38.349424 
L 217.848551 38.255677 
L 220.377136 38.170991 
L 222.905722 38.094489 
L 225.434308 38.025378 
L 227.962894 37.962944 
L 230.49148 37.906539 
L 233.020066 37.855582 
L 235.548652 37.809545 
L 238.077237 37.767952 
L 240.605823 37.730375 
L 243.134409 37.696425 
L 245.662995 37.665752 
L 248.191581 37.63804 
L 250.720167 37.613001 
L 253.248753 37.590379 
L 255.777338 37.56994 
L 258.305924 37.551473 
L 260.83451 37.534788 
L 263.363096 37.519713 
L 265.891682 37.506092 
L 268.420268 37.493785 
L 270.948854 37.482666 
L 273.477439 37.472619 
L 276.006025 37.463541 
L 278.534611 37.455339 
L 281.063197 37.447928 
L 283.591783 37.441232 
L 286.120369 37.435182 
L 288.648955 37.429716 
L 291.17754 37.424776 
L 293.706126 37.420313 
L 296.234712 37.416281 
L 298.763298 37.412638 
L 301.291884 37.409346 
L 303.82047 37.406371 
L 306.349056 37.403684 
L 308.877641 37.401255 
L 311.406227 37.399061 
L 313.934813 37.397078 
L 316.463399 37.395287 
L 318.991985 37.393669 
L 321.520571 37.392206 
L 324.049157 37.390885 
L 326.577742 37.389691 
L 329.106328 37.388612 
L 331.634914 37.387637 
L 334.1635 37.386756 
" style="fill:none;stroke:#1f77b4;stroke-linecap:square;stroke-width:1.5;"/>
   </g>
   <g id="line2d_15">
    <path clip-path="url(#pcb18e6487c)" d="M 83.8335 228.508245 
L 86.362086 228.508245 
L 88.890672 228.508245 
L 91.419258 228.508245 
L 93.947843 228.508245 
L 96.476429 228.508245 
L 99.005015 228.508245 
L 101.533601 228.508245 
L 104.062187 228.508245 
L 106.590773 228.508245 
L 109.119359 228.508245 
L 111.647944 228.508245 
L 114.17653 228.508245 
L 116.705116 228.508245 
L 119.233702 228.508245 
L 121.762288 228.508245 
L 124.290874 228.508245 
L 126.81946 228.508245 
L 129.348045 228.508245 
L 131.876631 228.508245 
L 134.405217 228.508245 
L 136.933803 228.508245 
L 139.462389 228.508245 
L 141.990975 228.508245 
L 144.519561 228.508245 
L 147.048146 228.508245 
L 149.576732 228.508245 
L 152.105318 228.508245 
L 154.633904 228.508245 
L 157.16249 228.508245 
L 159.691076 228.508245 
L 162.219662 228.508245 
L 164.748247 228.508245 
L 167.276833 228.508245 
L 169.805419 228.508245 
L 172.334005 228.508245 
L 174.862591 228.508245 
L 177.391177 228.508245 
L 179.919763 228.508245 
L 182.448348 228.508245 
L 184.976934 228.508245 
L 187.50552 228.508245 
L 190.034106 228.508245 
L 192.562692 228.508245 
L 195.091278 228.508245 
L 197.619864 228.508245 
L 200.148449 228.508245 
L 202.677035 228.508245 
L 205.205621 228.508245 
L 207.734207 228.508245 
L 210.262793 228.508245 
L 212.791379 228.508245 
L 215.319965 228.508245 
L 217.848551 228.508245 
L 220.377136 228.508245 
L 222.905722 228.508245 
L 225.434308 228.508245 
L 227.962894 228.508245 
L 230.49148 228.508245 
L 233.020066 228.508245 
L 235.548652 228.508245 
L 238.077237 228.508245 
L 240.605823 228.508245 
L 243.134409 228.508245 
L 245.662995 228.508245 
L 248.191581 228.508245 
L 250.720167 228.508245 
L 253.248753 228.508245 
L 255.777338 228.508245 
L 258.305924 228.508245 
L 260.83451 228.508245 
L 263.363096 228.508245 
L 265.891682 228.508245 
L 268.420268 228.508245 
L 270.948854 228.508245 
L 273.477439 228.508245 
L 276.006025 228.508245 
L 278.534611 228.508245 
L 281.063197 228.508245 
L 283.591783 228.508245 
L 286.120369 228.508245 
L 288.648955 228.508245 
L 291.17754 228.508245 
L 293.706126 228.508245 
L 296.234712 228.508245 
L 298.763298 228.508245 
L 301.291884 228.508245 
L 303.82047 228.508245 
L 306.349056 228.508245 
L 308.877641 228.508245 
L 311.406227 228.508245 
L 313.934813 228.508245 
L 316.463399 228.508245 
L 318.991985 228.508245 
L 321.520571 228.508245 
L 324.049157 228.508245 
L 326.577742 228.508245 
L 329.106328 228.508245 
L 331.634914 228.508245 
L 334.1635 228.508245 
" style="fill:none;stroke:#ff7f0e;stroke-linecap:square;stroke-width:1.5;"/>
   </g>
   <g id="patch_3">
    <path d="M 71.317 296.41328 
L 71.317 25.05216 
" style="fill:none;stroke:#000000;stroke-linecap:square;stroke-linejoin:miter;stroke-width:0.8;"/>
   </g>
   <g id="patch_4">
    <path d="M 346.68 296.41328 
L 346.68 25.05216 
" style="fill:none;stroke:#000000;stroke-linecap:square;stroke-linejoin:miter;stroke-width:0.8;"/>
   </g>
   <g id="patch_5">
    <path d="M 71.317 296.41328 
L 346.68 296.41328 
" style="fill:none;stroke:#000000;stroke-linecap:square;stroke-linejoin:miter;stroke-width:0.8;"/>
   </g>
   <g id="patch_6">
    <path d="M 71.317 25.05216 
L 346.68 25.05216 
" style="fill:none;stroke:#000000;stroke-linecap:square;stroke-linejoin:miter;stroke-width:0.8;"/>
   </g>
   <g id="text_16">
    <!-- $\rho_1$=0.8, $\rho_2$=0.99 -->
    <defs>
     <path d="M 10.59375 45.40625 
L 73.1875 45.40625 
L 73.1875 37.203125 
L 10.59375 37.203125 
z
M 10.59375 25.484375 
L 73.1875 25.484375 
L 73.1875 17.1875 
L 10.59375 17.1875 
z
" id="DejaVuSans-61"/>
     <path d="M 11.71875 12.40625 
L 22.015625 12.40625 
L 22.015625 4 
L 14.015625 -11.625 
L 7.71875 -11.625 
L 11.71875 4 
z
" id="DejaVuSans-44"/>
     <path id="DejaVuSans-32"/>
    </defs>
    <g transform="translate(158.8985 19.05216)scale(0.12 -0.12)">
     <use transform="translate(0 0.78125)" xlink:href="#DejaVuSans-Oblique-961"/>
     <use transform="translate(63.476562 -15.625)scale(0.7)" xlink:href="#DejaVuSans-49"/>
     <use transform="translate(110.74707 0.78125)" xlink:href="#DejaVuSans-61"/>
     <use transform="translate(194.536133 0.78125)" xlink:href="#DejaVuSans-48"/>
     <use transform="translate(258.15918 0.78125)" xlink:href="#DejaVuSans-46"/>
     <use transform="translate(289.915039 0.78125)" xlink:href="#DejaVuSans-56"/>
     <use transform="translate(353.538086 0.78125)" xlink:href="#DejaVuSans-44"/>
     <use transform="translate(385.325195 0.78125)" xlink:href="#DejaVuSans-32"/>
     <use transform="translate(417.112305 0.78125)" xlink:href="#DejaVuSans-Oblique-961"/>
     <use transform="translate(480.588867 -15.625)scale(0.7)" xlink:href="#DejaVuSans-50"/>
     <use transform="translate(527.859375 0.78125)" xlink:href="#DejaVuSans-61"/>
     <use transform="translate(611.648438 0.78125)" xlink:href="#DejaVuSans-48"/>
     <use transform="translate(675.271484 0.78125)" xlink:href="#DejaVuSans-46"/>
     <use transform="translate(707.058594 0.78125)" xlink:href="#DejaVuSans-57"/>
     <use transform="translate(770.681641 0.78125)" xlink:href="#DejaVuSans-57"/>
    </g>
   </g>
   <g id="legend_1">
    <g id="patch_7">
     <path d="M 257.22375 291.41328 
L 339.68 291.41328 
Q 341.68 291.41328 341.68 289.41328 
L 341.68 261.05703 
Q 341.68 259.05703 339.68 259.05703 
L 257.22375 259.05703 
Q 255.22375 259.05703 255.22375 261.05703 
L 255.22375 289.41328 
Q 255.22375 291.41328 257.22375 291.41328 
z
" style="fill:#ffffff;opacity:0.8;stroke:#cccccc;stroke-linejoin:miter;"/>
    </g>
    <g id="line2d_16">
     <path d="M 259.22375 267.155467 
L 279.22375 267.155467 
" style="fill:none;stroke:#1f77b4;stroke-linecap:square;stroke-width:1.5;"/>
    </g>
    <g id="line2d_17"/>
    <g id="text_17">
     <!-- t=1,2,3,... -->
     <defs>
      <path d="M 40.578125 39.3125 
Q 47.65625 37.796875 51.625 33 
Q 55.609375 28.21875 55.609375 21.1875 
Q 55.609375 10.40625 48.1875 4.484375 
Q 40.765625 -1.421875 27.09375 -1.421875 
Q 22.515625 -1.421875 17.65625 -0.515625 
Q 12.796875 0.390625 7.625 2.203125 
L 7.625 11.71875 
Q 11.71875 9.328125 16.59375 8.109375 
Q 21.484375 6.890625 26.8125 6.890625 
Q 36.078125 6.890625 40.9375 10.546875 
Q 45.796875 14.203125 45.796875 21.1875 
Q 45.796875 27.640625 41.28125 31.265625 
Q 36.765625 34.90625 28.71875 34.90625 
L 20.21875 34.90625 
L 20.21875 43.015625 
L 29.109375 43.015625 
Q 36.375 43.015625 40.234375 45.921875 
Q 44.09375 48.828125 44.09375 54.296875 
Q 44.09375 59.90625 40.109375 62.90625 
Q 36.140625 65.921875 28.71875 65.921875 
Q 24.65625 65.921875 20.015625 65.03125 
Q 15.375 64.15625 9.8125 62.3125 
L 9.8125 71.09375 
Q 15.4375 72.65625 20.34375 73.4375 
Q 25.25 74.21875 29.59375 74.21875 
Q 40.828125 74.21875 47.359375 69.109375 
Q 53.90625 64.015625 53.90625 55.328125 
Q 53.90625 49.265625 50.4375 45.09375 
Q 46.96875 40.921875 40.578125 39.3125 
z
" id="DejaVuSans-51"/>
     </defs>
     <g transform="translate(287.22375 270.655467)scale(0.1 -0.1)">
      <use xlink:href="#DejaVuSans-116"/>
      <use x="39.208984" xlink:href="#DejaVuSans-61"/>
      <use x="122.998047" xlink:href="#DejaVuSans-49"/>
      <use x="186.621094" xlink:href="#DejaVuSans-44"/>
      <use x="218.408203" xlink:href="#DejaVuSans-50"/>
      <use x="282.03125" xlink:href="#DejaVuSans-44"/>
      <use x="313.818359" xlink:href="#DejaVuSans-51"/>
      <use x="377.441406" xlink:href="#DejaVuSans-44"/>
      <use x="409.228516" xlink:href="#DejaVuSans-46"/>
      <use x="441.015625" xlink:href="#DejaVuSans-46"/>
      <use x="472.802734" xlink:href="#DejaVuSans-46"/>
     </g>
    </g>
    <g id="line2d_18">
     <path d="M 259.22375 281.833593 
L 279.22375 281.833593 
" style="fill:none;stroke:#ff7f0e;stroke-linecap:square;stroke-width:1.5;"/>
    </g>
    <g id="line2d_19"/>
    <g id="text_18">
     <!-- t=0 -->
     <g transform="translate(287.22375 285.333593)scale(0.1 -0.1)">
      <use xlink:href="#DejaVuSans-116"/>
      <use x="39.208984" xlink:href="#DejaVuSans-61"/>
      <use x="122.998047" xlink:href="#DejaVuSans-48"/>
     </g>
    </g>
   </g>
  </g>
 </g>
 <defs>
  <clipPath id="pcb18e6487c">
   <rect height="271.36112" width="275.363" x="71.317" y="25.05216"/>
  </clipPath>
 </defs>
</svg>
