<?xml version="1.0" encoding="UTF-8" standalone="no"?>
<svg
   xmlns:dc="http://purl.org/dc/elements/1.1/"
   xmlns:cc="http://creativecommons.org/ns#"
   xmlns:rdf="http://www.w3.org/1999/02/22-rdf-syntax-ns#"
   xmlns:svg="http://www.w3.org/2000/svg"
   xmlns="http://www.w3.org/2000/svg"
   viewBox="0 0 845.33331 313.33334"
   height="313.33334"
   width="845.33331"
   xml:space="preserve"
   id="svg2"
   version="1.1"><metadata
     id="metadata8"><rdf:RDF><cc:Work
         rdf:about=""><dc:format>image/svg+xml</dc:format><dc:type
           rdf:resource="http://purl.org/dc/dcmitype/StillImage" /></cc:Work></rdf:RDF></metadata><defs
     id="defs6"><clipPath
       id="clipPath14"
       clipPathUnits="userSpaceOnUse"><path
         id="path12"
         d="M 0,0 H 1012 V 595 H 0 Z" /></clipPath><clipPath
       id="clipPath22"
       clipPathUnits="userSpaceOnUse"><path
         style="clip-rule:evenodd"
         id="path20"
         d="M 0,-0.2 H 1012 V 595 H 0 Z" /></clipPath><clipPath
       id="clipPath334"
       clipPathUnits="userSpaceOnUse"><path
         style="clip-rule:evenodd"
         id="path332"
         d="M 221.3,385.2 H 238 v 17.7 h -16.7 z" /></clipPath><clipPath
       id="clipPath346"
       clipPathUnits="userSpaceOnUse"><path
         style="clip-rule:evenodd"
         id="path344"
         d="m 300.4,388 h 25.4 v 16 h -25.4 z" /></clipPath><clipPath
       id="clipPath358"
       clipPathUnits="userSpaceOnUse"><path
         style="clip-rule:evenodd"
         id="path356"
         d="m 300.4,388 h 25.4 v 16 h -25.4 z" /></clipPath><clipPath
       id="clipPath370"
       clipPathUnits="userSpaceOnUse"><path
         style="clip-rule:evenodd"
         id="path368"
         d="m 300.4,388 h 25.4 v 16 h -25.4 z" /></clipPath><clipPath
       id="clipPath382"
       clipPathUnits="userSpaceOnUse"><path
         style="clip-rule:evenodd"
         id="path380"
         d="m 476.2,388 h 17 v 15 h -17 z" /></clipPath><clipPath
       id="clipPath394"
       clipPathUnits="userSpaceOnUse"><path
         style="clip-rule:evenodd"
         id="path392"
         d="m 552.7,388 h 25.4 v 16 h -25.4 z" /></clipPath><clipPath
       id="clipPath406"
       clipPathUnits="userSpaceOnUse"><path
         style="clip-rule:evenodd"
         id="path404"
         d="m 552.7,388 h 25.4 v 16 h -25.4 z" /></clipPath><clipPath
       id="clipPath418"
       clipPathUnits="userSpaceOnUse"><path
         style="clip-rule:evenodd"
         id="path416"
         d="m 552.7,388 h 25.4 v 16 h -25.4 z" /></clipPath></defs><g
     clip-path="url(#clipPath14)"
     transform="matrix(1.3333333,0,0,-1.3333333,-48,781.33333)"
     id="g10"><g
       id="g16"><g
         clip-path="url(#clipPath22)"
         id="g18"><g
           transform="translate(141.7,376.7)"
           id="g24"><path
             id="path26"
             style="fill:#000033;fill-opacity:1;fill-rule:evenodd;stroke:none"
             d="m 0,0 c -3.6,0 -6.7,0.9 -9.9,2.7 -3.2,1.8 -5.4,4.1 -7.2,7.3 -1.9,3.1 -2.7,6.2 -2.7,9.9 0,3.6 0.8,6.7 2.7,9.9 1.8,3.2 4,5.4 7.2,7.3 3.2,1.8 6.3,2.6 9.9,2.6 3.7,0 6.8,-0.8 10,-2.6 3.1,-1.9 5.4,-4.1 7.2,-7.3 1.9,-3.2 2.7,-6.3 2.7,-9.9 0,-3.7 -0.8,-6.8 -2.7,-9.9 C 15.4,6.8 13.1,4.5 10,2.7 6.8,0.9 3.7,0 0,0" /></g><g
           transform="translate(141.7,376.7)"
           id="g28"><path
             id="path30"
             style="fill:#ffffff;fill-opacity:1;fill-rule:nonzero;stroke:none"
             d="m 0,0 v -0.75 c -3.726,-0.004 -6.984,0.945 -10.268,2.796 -3.313,1.858 -5.638,4.292 -7.486,7.586 L -17.1,10 -17.739,9.608 c -1.973,3.209 -2.816,6.486 -2.811,10.292 -0.005,3.71 0.84,6.982 2.805,10.283 l 0.645,-0.383 -0.654,0.368 c 1.852,3.302 4.181,5.63 7.471,7.577 l 0.015,0.009 c 3.296,1.858 6.557,2.7 10.268,2.696 3.807,0.004 7.072,-0.838 10.368,-2.696 l 0.024,-0.015 c 3.179,-1.943 5.602,-4.258 7.462,-7.571 L 17.2,29.8 17.845,30.183 C 19.81,26.882 20.655,23.61 20.65,19.9 20.655,16.094 19.812,12.817 17.839,9.608 L 17.2,10 17.854,9.632 C 15.998,6.326 13.579,3.906 10.377,2.051 L 10.368,2.046 C 7.084,0.195 3.823,-0.754 0,-0.75 V 0 0.75 C 3.577,0.754 6.516,1.605 9.632,3.354 L 10,2.7 9.623,3.349 c 2.998,1.745 5.179,3.924 6.923,7.019 l 0.015,0.024 c 1.827,2.991 2.584,5.914 2.589,9.508 -0.005,3.49 -0.76,6.418 -2.595,9.517 l -0.009,0.015 c -1.741,3.087 -3.917,5.172 -6.938,7.029 L 10,37.1 9.632,36.446 C 6.528,38.188 3.593,38.946 0,38.95 -3.489,38.946 -6.428,38.188 -9.532,36.446 L -9.9,37.1 -9.517,36.455 c -3.11,-1.853 -5.181,-3.925 -6.929,-7.023 l -0.009,-0.015 c -1.835,-3.099 -2.59,-6.027 -2.595,-9.517 0.005,-3.594 0.762,-6.517 2.589,-9.508 l 0.015,-0.024 C -14.694,7.262 -12.619,5.096 -9.532,3.354 -6.416,1.605 -3.474,0.754 0,0.75 Z" /></g><g
           transform="translate(135.6226,395.0488)"
           id="g32"><path
             id="path34"
             style="fill:#ffffff;fill-opacity:1;fill-rule:nonzero;stroke:none"
             d="m 0,0 -1.537,6.595 c -0.08,0.368 -0.192,1.056 -0.192,1.232 0,0.368 0.24,0.576 0.705,0.608 h 0.24 l 0.08,0.032 c 0.032,0.016 0.048,0.064 0.08,0.161 l 0.032,0.192 c 0.032,0.096 0.032,0.096 0.032,0.144 0,0.08 -0.032,0.096 -0.144,0.096 -0.224,0 -0.689,-0.016 -1.089,-0.048 L -2.529,8.98 C -3.714,9.044 -4.178,9.06 -4.338,9.06 -4.466,9.06 -4.514,9.028 -4.53,8.9 L -4.594,8.676 -4.61,8.515 -4.53,8.435 c 0.688,-0.192 0.768,-0.288 0.961,-1.152 l 2.24,-9.668 h 0.705 l 2.705,4.53 1.008,-4.53 h 0.657 l 5.666,9.236 c 0.688,1.168 0.928,1.408 1.616,1.568 0.113,0.032 0.145,0.064 0.193,0.192 l 0.048,0.225 0.032,0.128 c 0,0.064 -0.032,0.096 -0.128,0.096 -0.145,0 -0.673,-0.016 -0.849,-0.032 L 9.748,8.98 C 8.948,9.028 8.499,9.06 8.243,9.06 8.115,9.06 8.067,9.012 8.035,8.852 L 7.987,8.659 7.971,8.595 7.955,8.515 8.051,8.435 c 0.689,0 0.865,-0.08 0.865,-0.384 0,-0.24 -0.273,-0.88 -0.625,-1.472 L 4.37,-0.08 3.329,4.274 5.41,7.507 c 0.432,0.704 0.608,0.848 1.121,0.896 l 0.304,0.032 0.08,0.016 0.096,0.16 0.032,0.161 0.016,0.176 C 7.059,9.028 7.011,9.06 6.915,9.06 6.643,9.06 6.307,9.044 5.506,8.98 5.49,8.98 5.282,8.996 4.994,9.028 4.818,9.044 4.338,9.06 4.194,9.06 4.082,9.06 4.034,9.012 4.002,8.884 L 3.954,8.643 3.922,8.483 4.018,8.403 c 0.4,0 0.592,-0.128 0.592,-0.368 0,-0.16 -0.176,-0.56 -0.368,-0.896 L 3.137,5.298 2.657,7.427 C 2.545,7.955 2.545,7.971 2.545,8.051 c 0,0.24 0.224,0.384 0.576,0.4 l 0.192,0.016 0.112,0.032 c 0.032,0.016 0.064,0.064 0.08,0.193 L 3.537,8.836 3.569,8.996 3.457,9.06 C 3.233,9.06 2.721,9.044 1.745,8.98 1.713,8.98 1.473,8.996 1.12,9.028 0.88,9.044 0.384,9.06 0.192,9.06 0.064,9.06 0.016,9.012 0,8.868 L -0.032,8.708 -0.048,8.531 c 0,-0.08 0.016,-0.096 0.192,-0.096 C 0.576,8.419 0.656,8.323 0.848,7.491 L 1.873,3.089 Z" /></g><g
           transform="translate(145.6089,387.7)"
           id="g36"><path
             id="path38"
             style="fill:#ffffff;fill-opacity:1;fill-rule:nonzero;stroke:none"
             d="M 0,0 H 3.262 L 3.671,0.697 H 0.929 c 0.075,0.074 0.363,0.353 0.874,0.836 0.808,0.762 1.375,1.441 1.691,2.063 0.195,0.4 0.297,0.799 0.297,1.19 0,0.455 -0.111,0.817 -0.353,1.078 C 3.215,6.105 2.927,6.226 2.555,6.226 1.97,6.226 1.366,5.901 0.753,5.25 0.632,5.12 0.567,5.046 0.567,5.009 L 0.623,4.934 0.706,4.86 0.762,4.832 0.799,4.851 C 1.013,5.055 1.152,5.176 1.217,5.222 1.533,5.436 1.849,5.548 2.184,5.548 2.435,5.548 2.621,5.455 2.769,5.269 2.918,5.083 2.992,4.841 2.992,4.526 2.992,4.079 2.862,3.615 2.593,3.132 2.342,2.676 1.877,2.1 1.199,1.403 0.762,0.948 0.362,0.567 0,0.251 Z" /></g><g
           transform="translate(152.7688,404.5353)"
           id="g40"><path
             id="path42"
             style="fill:#ffffff;fill-opacity:1;fill-rule:nonzero;stroke:none"
             d="m 0,0 c -0.409,0 -0.799,-0.177 -1.18,-0.558 -0.474,-0.473 -0.846,-1.152 -1.115,-2.053 -0.195,-0.651 -0.298,-1.245 -0.298,-1.766 0,-0.734 0.158,-1.245 0.484,-1.57 0.241,-0.242 0.539,-0.363 0.882,-0.363 0.353,0 0.688,0.13 1.004,0.391 0.409,0.343 0.771,0.873 1.078,1.607 0.344,0.827 0.511,1.673 0.511,2.5 0,0.409 -0.074,0.771 -0.232,1.106 -0.056,0.121 -0.149,0.241 -0.26,0.353 C 0.623,-0.112 0.335,0 0,0 m -0.177,-0.725 c 0.335,0 0.604,-0.121 0.8,-0.362 0.204,-0.251 0.306,-0.66 0.306,-1.199 0,-0.465 -0.074,-0.957 -0.241,-1.468 -0.205,-0.641 -0.474,-1.125 -0.818,-1.45 -0.27,-0.251 -0.576,-0.381 -0.92,-0.381 -0.335,0 -0.604,0.121 -0.799,0.363 -0.205,0.26 -0.316,0.659 -0.316,1.208 0,0.446 0.083,0.929 0.251,1.459 0.204,0.65 0.483,1.133 0.827,1.449 0.269,0.251 0.567,0.381 0.91,0.381" /></g><g
           transform="translate(229.6,376.7)"
           id="g44"><path
             id="path46"
             style="fill:#000033;fill-opacity:1;fill-rule:evenodd;stroke:none"
             d="m 0,0 c -3.7,0 -6.7,0.9 -9.9,2.7 -3.2,1.8 -5.5,4.1 -7.3,7.3 -1.8,3.1 -2.6,6.2 -2.6,9.9 0,3.6 0.8,6.7 2.6,9.9 1.8,3.2 4.1,5.4 7.3,7.3 3.2,1.8 6.2,2.6 9.9,2.6 3.7,0 6.8,-0.8 9.9,-2.6 3.2,-1.9 5.5,-4.1 7.3,-7.3 1.8,-3.2 2.6,-6.3 2.6,-9.9 C 19.8,16.2 19,13.1 17.2,10 15.4,6.8 13.1,4.5 9.9,2.7 6.8,0.9 3.7,0 0,0" /></g><g
           transform="translate(229.6,376.7)"
           id="g48"><path
             id="path50"
             style="fill:#ffffff;fill-opacity:1;fill-rule:nonzero;stroke:none"
             d="m 0,0 v -0.75 c -3.823,-0.005 -6.991,0.948 -10.268,2.796 -3.306,1.855 -5.731,4.28 -7.586,7.586 L -17.2,10 -17.849,9.623 c -1.864,3.203 -2.705,6.47 -2.701,10.277 -0.004,3.711 0.838,6.972 2.696,10.268 1.859,3.313 4.288,5.633 7.571,7.577 l 0.015,0.009 c 3.289,1.855 6.461,2.701 10.268,2.696 3.807,0.004 7.074,-0.837 10.277,-2.701 l 0.006,-0.004 c 3.283,-1.944 5.712,-4.264 7.571,-7.577 1.858,-3.296 2.7,-6.557 2.696,-10.268 0.004,-3.807 -0.837,-7.074 -2.701,-10.277 L 17.2,10 17.854,9.632 C 15.999,6.326 13.574,3.901 10.268,2.046 L 9.9,2.7 10.277,2.051 C 7.086,0.194 3.822,-0.754 0,-0.75 V 0 0.75 c 3.578,0.004 6.514,0.856 9.523,2.599 l 0.009,0.005 c 3.094,1.745 5.269,3.92 7.014,7.014 l 0.005,0.009 c 1.736,2.997 2.495,5.93 2.499,9.523 -0.004,3.489 -0.762,6.428 -2.504,9.532 -1.741,3.087 -3.912,5.167 -7.029,7.023 L 9.523,36.451 C 6.526,38.187 3.593,38.946 0,38.95 -3.593,38.945 -6.421,38.191 -9.532,36.446 L -9.9,37.1 -9.517,36.455 c -3.117,-1.856 -5.288,-3.936 -7.029,-7.023 -1.742,-3.104 -2.5,-6.043 -2.504,-9.532 0.004,-3.593 0.763,-6.526 2.499,-9.523 l 0.005,-0.009 c 1.745,-3.094 3.92,-5.269 7.014,-7.014 C -6.409,1.602 -3.577,0.755 0,0.75 Z" /></g><g
           transform="translate(229.6,461.8)"
           id="g52"><path
             id="path54"
             style="fill:#000033;fill-opacity:1;fill-rule:evenodd;stroke:none"
             d="m 0,0 c -3.7,0 -6.7,0.8 -9.9,2.6 -3.2,1.9 -5.5,4.1 -7.3,7.3 -1.8,3.2 -2.6,6.3 -2.6,9.9 0,3.7 0.8,6.8 2.6,9.9 1.8,3.2 4.1,5.5 7.3,7.3 3.2,1.8 6.2,2.7 9.9,2.7 3.7,0 6.8,-0.9 9.9,-2.7 3.2,-1.8 5.5,-4.1 7.3,-7.3 1.8,-3.1 2.6,-6.2 2.6,-9.9 C 19.8,16.2 19,13.1 17.2,9.9 15.4,6.7 13.1,4.5 9.9,2.6 6.8,0.8 3.7,0 0,0" /></g><g
           transform="translate(229.6,461.8)"
           id="g56"><path
             id="path58"
             style="fill:#ffffff;fill-opacity:1;fill-rule:nonzero;stroke:none"
             d="m 0,0 v -0.75 c -3.807,-0.005 -6.979,0.841 -10.268,2.696 l -0.015,0.009 c -3.283,1.944 -5.712,4.264 -7.571,7.577 -1.858,3.296 -2.7,6.557 -2.696,10.268 -0.004,3.807 0.837,7.074 2.701,10.277 l 0.649,-0.377 -0.654,0.368 c 1.855,3.306 4.28,5.731 7.586,7.586 3.277,1.848 6.445,2.801 10.268,2.796 3.822,0.004 7.086,-0.944 10.277,-2.801 L 9.9,37 l 0.368,0.654 c 3.306,-1.855 5.731,-4.28 7.586,-7.586 L 17.2,29.7 17.849,30.077 C 19.713,26.874 20.554,23.607 20.55,19.8 20.554,16.089 19.712,12.828 17.854,9.532 15.995,6.219 13.566,3.899 10.283,1.955 L 10.277,1.951 C 7.074,0.087 3.807,-0.754 0,-0.75 V 0 0.75 C 3.593,0.754 6.526,1.513 9.523,3.249 L 9.517,3.245 c 3.117,1.856 5.288,3.936 7.029,7.023 1.742,3.104 2.5,6.043 2.504,9.532 -0.004,3.593 -0.763,6.526 -2.499,9.523 l -0.005,0.009 c -1.745,3.094 -3.92,5.269 -7.014,7.014 L 9.523,36.351 C 6.514,38.094 3.578,38.946 0,38.95 c -3.577,-0.005 -6.409,-0.852 -9.532,-2.604 -3.094,-1.745 -5.269,-3.92 -7.014,-7.014 l -0.005,-0.009 c -1.736,-2.997 -2.495,-5.93 -2.499,-9.523 0.004,-3.489 0.762,-6.428 2.504,-9.532 1.741,-3.087 3.912,-5.167 7.029,-7.023 L -9.9,2.6 -9.532,3.254 C -6.421,1.509 -3.593,0.755 0,0.75 Z" /></g><g
           transform="translate(223.5226,480.0488)"
           id="g60"><path
             id="path62"
             style="fill:#ffffff;fill-opacity:1;fill-rule:nonzero;stroke:none"
             d="m 0,0 -1.537,6.595 c -0.08,0.368 -0.192,1.056 -0.192,1.232 0,0.368 0.24,0.576 0.705,0.608 h 0.24 l 0.08,0.032 c 0.032,0.016 0.048,0.064 0.08,0.161 l 0.032,0.192 c 0.032,0.096 0.032,0.096 0.032,0.144 0,0.08 -0.032,0.096 -0.144,0.096 -0.224,0 -0.689,-0.016 -1.089,-0.048 L -2.529,8.98 C -3.714,9.044 -4.178,9.06 -4.338,9.06 -4.466,9.06 -4.514,9.028 -4.53,8.9 L -4.594,8.676 -4.61,8.515 -4.53,8.435 c 0.688,-0.192 0.768,-0.288 0.961,-1.152 l 2.24,-9.668 h 0.705 l 2.705,4.53 1.008,-4.53 h 0.657 l 5.666,9.236 c 0.688,1.168 0.928,1.408 1.616,1.568 0.113,0.032 0.145,0.064 0.193,0.192 l 0.048,0.225 0.032,0.128 c 0,0.064 -0.032,0.096 -0.128,0.096 -0.145,0 -0.673,-0.016 -0.849,-0.032 L 9.748,8.98 C 8.948,9.028 8.499,9.06 8.243,9.06 8.115,9.06 8.067,9.012 8.035,8.852 L 7.987,8.659 7.971,8.595 7.955,8.515 8.051,8.435 c 0.689,0 0.865,-0.08 0.865,-0.384 0,-0.24 -0.273,-0.88 -0.625,-1.472 L 4.37,-0.08 3.329,4.274 5.41,7.507 c 0.432,0.704 0.608,0.848 1.121,0.896 l 0.304,0.032 0.08,0.016 0.096,0.16 0.032,0.161 0.016,0.176 C 7.059,9.028 7.011,9.06 6.915,9.06 6.643,9.06 6.307,9.044 5.506,8.98 5.49,8.98 5.282,8.996 4.994,9.028 4.818,9.044 4.338,9.06 4.194,9.06 4.082,9.06 4.034,9.012 4.002,8.884 L 3.954,8.643 3.922,8.483 4.018,8.403 c 0.4,0 0.592,-0.128 0.592,-0.368 0,-0.16 -0.176,-0.56 -0.368,-0.896 L 3.137,5.298 2.657,7.427 C 2.545,7.955 2.545,7.971 2.545,8.051 c 0,0.24 0.224,0.384 0.576,0.4 l 0.192,0.016 0.112,0.032 c 0.032,0.016 0.064,0.064 0.08,0.193 L 3.537,8.836 3.569,8.996 3.457,9.06 C 3.233,9.06 2.721,9.044 1.745,8.98 1.713,8.98 1.473,8.996 1.12,9.028 0.88,9.044 0.384,9.06 0.192,9.06 0.064,9.06 0.016,9.012 0,8.868 L -0.032,8.708 -0.048,8.531 c 0,-0.08 0.016,-0.096 0.192,-0.096 C 0.576,8.419 0.656,8.323 0.848,7.491 L 1.873,3.089 Z" /></g><g
           transform="translate(236.7635,479.0353)"
           id="g64"><path
             id="path66"
             style="fill:#ffffff;fill-opacity:1;fill-rule:nonzero;stroke:none"
             d="m 0,0 c -0.446,-0.418 -1.087,-0.799 -1.896,-1.134 -0.13,-0.055 -0.195,-0.093 -0.195,-0.102 l 0.019,-0.046 0.028,-0.038 0.037,-0.102 0.074,-0.093 c 0.037,0 0.223,0.084 0.548,0.233 0.335,0.158 0.549,0.26 0.642,0.297 L -1.868,-5.074 C -1.914,-5.26 -1.97,-5.408 -2.026,-5.52 c -0.056,-0.121 -0.139,-0.214 -0.241,-0.269 -0.14,-0.084 -0.326,-0.13 -0.567,-0.13 L -2.983,-5.938 -3.02,-6.022 -3.057,-6.17 -3.067,-6.235 c 0,-0.028 0.047,-0.047 0.158,-0.047 h 0.223 c 0.474,0.028 0.809,0.047 1.004,0.047 0.325,0 0.66,-0.01 1.004,-0.028 0.185,-0.01 0.334,-0.019 0.446,-0.019 l 0.093,0.028 0.027,0.084 0.019,0.074 v 0.056 l 0.009,0.046 c 0.01,0.047 -0.037,0.075 -0.13,0.075 -0.306,0 -0.52,0.027 -0.613,0.055 -0.121,0.038 -0.177,0.121 -0.177,0.242 0,0.13 0.075,0.465 0.223,1.004 L 0.493,0 Z" /></g><g
           transform="translate(240.7688,489.5353)"
           id="g68"><path
             id="path70"
             style="fill:#ffffff;fill-opacity:1;fill-rule:nonzero;stroke:none"
             d="m 0,0 c -0.409,0 -0.799,-0.177 -1.18,-0.558 -0.474,-0.473 -0.846,-1.152 -1.115,-2.053 -0.195,-0.651 -0.298,-1.245 -0.298,-1.766 0,-0.734 0.158,-1.245 0.484,-1.57 0.241,-0.242 0.539,-0.363 0.882,-0.363 0.353,0 0.688,0.13 1.004,0.391 0.409,0.343 0.771,0.873 1.078,1.607 0.344,0.827 0.511,1.673 0.511,2.5 0,0.409 -0.074,0.771 -0.232,1.106 -0.056,0.121 -0.149,0.241 -0.26,0.353 C 0.623,-0.112 0.335,0 0,0 m -0.177,-0.725 c 0.335,0 0.604,-0.121 0.8,-0.362 0.204,-0.251 0.306,-0.66 0.306,-1.199 0,-0.465 -0.074,-0.957 -0.241,-1.468 -0.205,-0.641 -0.474,-1.125 -0.818,-1.45 -0.27,-0.251 -0.576,-0.381 -0.92,-0.381 -0.335,0 -0.604,0.121 -0.799,0.363 -0.205,0.26 -0.316,0.659 -0.316,1.208 0,0.446 0.083,0.929 0.251,1.459 0.204,0.65 0.483,1.133 0.827,1.449 0.269,0.251 0.567,0.381 0.91,0.381" /></g><g
           transform="translate(311.8,376.7)"
           id="g72"><path
             id="path74"
             style="fill:#000033;fill-opacity:1;fill-rule:evenodd;stroke:none"
             d="m 0,0 c -3.6,0 -6.7,0.9 -9.9,2.7 -3.2,1.8 -5.5,4.1 -7.3,7.3 -1.8,3.1 -2.6,6.2 -2.6,9.9 0,3.6 0.8,6.7 2.6,9.9 1.8,3.2 4.1,5.4 7.3,7.3 3.2,1.8 6.3,2.6 9.9,2.6 3.7,0 6.8,-0.8 9.9,-2.6 3.2,-1.9 5.5,-4.1 7.3,-7.3 1.8,-3.2 2.7,-6.3 2.7,-9.9 C 19.9,16.2 19,13.1 17.2,10 15.4,6.8 13.1,4.5 9.9,2.7 6.8,0.9 3.7,0 0,0" /></g><g
           transform="translate(311.8,376.7)"
           id="g76"><path
             id="path78"
             style="fill:#ffffff;fill-opacity:1;fill-rule:nonzero;stroke:none"
             d="m 0,0 v -0.75 c -3.726,-0.004 -6.984,0.945 -10.268,2.796 -3.306,1.855 -5.731,4.28 -7.586,7.586 L -17.2,10 -17.849,9.623 c -1.864,3.203 -2.705,6.47 -2.701,10.277 -0.004,3.711 0.838,6.972 2.696,10.268 1.859,3.313 4.288,5.633 7.571,7.577 l 0.015,0.009 c 3.296,1.858 6.557,2.7 10.268,2.696 3.807,0.004 7.074,-0.837 10.277,-2.701 l 0.006,-0.004 c 3.283,-1.944 5.712,-4.264 7.571,-7.577 1.851,-3.284 2.8,-6.542 2.796,-10.268 0.004,-3.822 -0.944,-7.086 -2.801,-10.277 L 17.2,10 17.854,9.632 C 15.999,6.326 13.574,3.901 10.268,2.046 L 9.9,2.7 10.277,2.051 C 7.086,0.194 3.822,-0.754 0,-0.75 V 0 0.75 c 3.578,0.004 6.514,0.856 9.523,2.599 l 0.009,0.005 c 3.094,1.745 5.269,3.92 7.014,7.014 l 0.005,0.009 c 1.743,3.009 2.595,5.945 2.599,9.523 -0.004,3.474 -0.855,6.416 -2.604,9.532 -1.741,3.087 -3.912,5.167 -7.029,7.023 L 9.523,36.451 C 6.526,38.187 3.593,38.946 0,38.95 -3.489,38.946 -6.428,38.188 -9.532,36.446 L -9.9,37.1 -9.517,36.455 c -3.117,-1.856 -5.288,-3.936 -7.029,-7.023 -1.742,-3.104 -2.5,-6.043 -2.504,-9.532 0.004,-3.593 0.763,-6.526 2.499,-9.523 l 0.005,-0.009 c 1.745,-3.094 3.92,-5.269 7.014,-7.014 C -6.416,1.605 -3.474,0.754 0,0.75 Z" /></g><g
           transform="translate(161.6,397.095)"
           id="g80"><path
             id="path82"
             style="fill:#ffffff;fill-opacity:1;fill-rule:nonzero;stroke:none"
             d="M 0,0 H 33.8 V -0.99 H 0" /></g><g
           transform="translate(209.8,396.6)"
           id="g84"><path
             id="path86"
             style="fill:#ffffff;fill-opacity:1;fill-rule:evenodd;stroke:none"
             d="M 0,0 -15,5 V -5 Z" /></g><g
           transform="translate(230.095,461.8)"
           id="g88"><path
             id="path90"
             style="fill:#ffffff;fill-opacity:1;fill-rule:nonzero;stroke:none"
             d="M 0,0 V -31.1 H -0.99 V 0" /></g><g
           transform="translate(229.6,416.4)"
           id="g92"><path
             id="path94"
             style="fill:#ffffff;fill-opacity:1;fill-rule:evenodd;stroke:none"
             d="M 0,0 5,15 H -5 Z" /></g><g
           transform="translate(249.4,397.095)"
           id="g96"><path
             id="path98"
             style="fill:#ffffff;fill-opacity:1;fill-rule:nonzero;stroke:none"
             d="M 0,0 H 28.3 V -0.99 H 0" /></g><g
           transform="translate(292,396.6)"
           id="g100"><path
             id="path102"
             style="fill:#ffffff;fill-opacity:1;fill-rule:evenodd;stroke:none"
             d="M 0,0 -15,5 V -5 Z" /></g><g
           transform="translate(396.9,376.7)"
           id="g104"><path
             id="path106"
             style="fill:#000033;fill-opacity:1;fill-rule:evenodd;stroke:none"
             d="m 0,0 c -3.7,0 -6.8,0.9 -10,2.7 -3.1,1.8 -5.4,4.1 -7.2,7.3 -1.9,3.1 -2.7,6.2 -2.7,9.9 0,3.6 0.8,6.7 2.7,9.9 1.8,3.2 4.1,5.4 7.2,7.3 3.2,1.8 6.3,2.6 10,2.6 3.6,0 6.7,-0.8 9.9,-2.6 C 13,35.2 15.3,33 17.1,29.8 19,26.6 19.8,23.5 19.8,19.9 19.8,16.2 19,13.1 17.1,10 15.3,6.8 13,4.5 9.9,2.7 6.7,0.9 3.6,0 0,0" /></g><g
           transform="translate(396.9,376.7)"
           id="g108"><path
             id="path110"
             style="fill:#ffffff;fill-opacity:1;fill-rule:nonzero;stroke:none"
             d="m 0,0 v -0.75 c -3.823,-0.004 -7.084,0.945 -10.368,2.796 l -0.009,0.005 c -3.202,1.855 -5.622,4.275 -7.477,7.581 L -17.2,10 -17.839,9.608 c -1.973,3.209 -2.816,6.486 -2.811,10.292 -0.005,3.71 0.84,6.982 2.805,10.283 l 0.645,-0.383 -0.654,0.368 c 1.859,3.313 4.283,5.628 7.462,7.571 l 0.024,0.015 c 3.296,1.858 6.561,2.7 10.368,2.696 3.711,0.004 6.972,-0.838 10.268,-2.696 l 0.024,-0.015 c 3.179,-1.943 5.602,-4.258 7.462,-7.571 L 17.1,29.8 17.745,30.183 C 19.71,26.882 20.555,23.61 20.55,19.9 20.555,16.094 19.712,12.817 17.739,9.608 L 17.1,10 17.754,9.632 C 15.898,6.326 13.479,3.906 10.277,2.051 L 10.268,2.046 C 6.984,0.195 3.726,-0.754 0,-0.75 V 0 0.75 C 3.474,0.754 6.416,1.605 9.532,3.354 L 9.9,2.7 9.523,3.349 c 2.998,1.745 5.179,3.924 6.923,7.019 l 0.015,0.024 c 1.827,2.991 2.584,5.914 2.589,9.508 -0.005,3.49 -0.76,6.418 -2.595,9.517 l -0.009,0.015 c -1.741,3.087 -3.917,5.172 -6.938,7.029 L 9.9,37.1 9.532,36.446 C 6.428,38.188 3.489,38.946 0,38.95 -3.593,38.946 -6.528,38.188 -9.632,36.446 L -10,37.1 -9.608,36.461 c -3.021,-1.857 -5.198,-3.942 -6.938,-7.029 l -0.009,-0.015 c -1.835,-3.099 -2.591,-6.027 -2.595,-9.517 0.005,-3.594 0.762,-6.517 2.589,-9.508 l 0.015,-0.024 c 1.744,-3.095 3.925,-5.274 6.923,-7.019 L -10,2.7 -9.632,3.354 C -6.516,1.605 -3.577,0.754 0,0.75 Z" /></g><g
           transform="translate(390.8226,395.0488)"
           id="g112"><path
             id="path114"
             style="fill:#ffffff;fill-opacity:1;fill-rule:nonzero;stroke:none"
             d="m 0,0 -1.537,6.595 c -0.08,0.368 -0.192,1.056 -0.192,1.232 0,0.368 0.24,0.576 0.705,0.608 h 0.24 l 0.08,0.032 c 0.032,0.016 0.048,0.064 0.08,0.161 l 0.032,0.192 c 0.032,0.096 0.032,0.096 0.032,0.144 0,0.08 -0.032,0.096 -0.144,0.096 -0.224,0 -0.689,-0.016 -1.089,-0.048 L -2.529,8.98 C -3.714,9.044 -4.178,9.06 -4.338,9.06 -4.466,9.06 -4.514,9.028 -4.53,8.9 L -4.594,8.676 -4.61,8.515 -4.53,8.435 c 0.688,-0.192 0.768,-0.288 0.961,-1.152 l 2.24,-9.668 h 0.705 l 2.705,4.53 1.008,-4.53 h 0.656 l 5.667,9.236 c 0.688,1.168 0.928,1.408 1.616,1.568 0.113,0.032 0.144,0.064 0.193,0.192 l 0.048,0.225 0.032,0.128 c 0,0.064 -0.032,0.096 -0.129,0.096 -0.144,0 -0.672,-0.016 -0.848,-0.032 L 9.748,8.98 C 8.948,9.028 8.499,9.06 8.243,9.06 8.115,9.06 8.067,9.012 8.035,8.852 L 7.987,8.659 7.971,8.595 7.955,8.515 8.051,8.435 c 0.689,0 0.865,-0.08 0.865,-0.384 0,-0.24 -0.273,-0.88 -0.625,-1.472 L 4.37,-0.08 3.329,4.274 5.41,7.507 c 0.432,0.704 0.608,0.848 1.121,0.896 l 0.304,0.032 0.08,0.016 0.096,0.16 0.032,0.161 0.016,0.176 C 7.059,9.028 7.011,9.06 6.915,9.06 6.643,9.06 6.307,9.044 5.506,8.98 5.49,8.98 5.282,8.996 4.994,9.028 4.818,9.044 4.338,9.06 4.194,9.06 4.082,9.06 4.034,9.012 4.002,8.884 L 3.954,8.643 3.922,8.483 4.018,8.403 c 0.4,0 0.592,-0.128 0.592,-0.368 0,-0.16 -0.176,-0.56 -0.368,-0.896 L 3.137,5.298 2.657,7.427 C 2.545,7.955 2.545,7.971 2.545,8.051 c 0,0.24 0.224,0.384 0.576,0.4 l 0.192,0.016 0.112,0.032 c 0.032,0.016 0.064,0.064 0.08,0.193 L 3.537,8.836 3.569,8.996 3.457,9.06 C 3.233,9.06 2.721,9.044 1.745,8.98 1.713,8.98 1.473,8.996 1.12,9.028 0.88,9.044 0.384,9.06 0.192,9.06 0.064,9.06 0.016,9.012 0,8.868 L -0.032,8.708 -0.048,8.531 c 0,-0.08 0.016,-0.096 0.192,-0.096 C 0.576,8.419 0.656,8.323 0.848,7.491 L 1.873,3.089 Z" /></g><g
           transform="translate(400.7089,387.7)"
           id="g116"><path
             id="path118"
             style="fill:#ffffff;fill-opacity:1;fill-rule:nonzero;stroke:none"
             d="M 0,0 H 3.262 L 3.671,0.697 H 0.929 c 0.075,0.074 0.363,0.353 0.874,0.836 0.808,0.762 1.375,1.441 1.691,2.063 0.195,0.4 0.297,0.799 0.297,1.19 0,0.455 -0.111,0.817 -0.353,1.078 C 3.215,6.105 2.927,6.226 2.555,6.226 1.97,6.226 1.366,5.901 0.753,5.25 0.632,5.12 0.567,5.046 0.567,5.009 L 0.623,4.934 0.706,4.86 0.762,4.832 0.799,4.851 C 1.013,5.055 1.152,5.176 1.217,5.222 1.533,5.436 1.849,5.548 2.184,5.548 2.435,5.548 2.621,5.455 2.769,5.269 2.918,5.083 2.992,4.841 2.992,4.526 2.992,4.079 2.862,3.615 2.593,3.132 2.342,2.676 1.877,2.1 1.199,1.403 0.762,0.948 0.362,0.567 0,0.251 Z" /></g><g
           transform="translate(407.8665,403.6711)"
           id="g120"><path
             id="path122"
             style="fill:#ffffff;fill-opacity:1;fill-rule:nonzero;stroke:none"
             d="m 0,0 -1.162,-4.098 c -0.13,-0.437 -0.232,-0.706 -0.306,-0.799 -0.112,-0.149 -0.316,-0.242 -0.623,-0.251 -0.13,0 -0.195,-0.019 -0.204,-0.019 L -2.332,-5.222 -2.351,-5.325 -2.36,-5.39 -2.23,-5.418 h 2.295 l 0.139,0.065 0.019,0.103 v 0.028 0.027 c 0,0.019 -0.065,0.038 -0.214,0.038 -0.241,0 -0.427,0.046 -0.539,0.139 l -0.083,0.186 c 0,0.037 0.046,0.223 0.13,0.548 l 1.394,4.925 0.028,0.112 c 0,0.037 -0.038,0.055 -0.131,0.055 H 0.669 C 0.576,0.808 0.474,0.753 0.344,0.641 0.177,0.502 -0.046,0.335 -0.353,0.149 c -0.27,-0.158 -0.493,-0.27 -0.669,-0.335 -0.177,-0.074 -0.26,-0.121 -0.27,-0.13 L -1.32,-0.39 -1.329,-0.502 -1.338,-0.558 -1.32,-0.585 h 0.01 0.009 l 0.065,0.018 c 0.019,0 0.065,0.009 0.158,0.056 0.028,0.009 0.195,0.093 0.483,0.223 C -0.502,-0.251 -0.307,-0.149 0,0" /></g><g
           transform="translate(484.7,376.7)"
           id="g124"><path
             id="path126"
             style="fill:#000033;fill-opacity:1;fill-rule:evenodd;stroke:none"
             d="m 0,0 c -3.6,0 -6.7,0.9 -9.9,2.7 -3.2,1.8 -5.4,4.1 -7.3,7.3 -1.8,3.1 -2.6,6.2 -2.6,9.9 0,3.6 0.8,6.7 2.6,9.9 1.9,3.2 4.1,5.4 7.3,7.3 3.2,1.8 6.3,2.6 9.9,2.6 3.7,0 6.8,-0.8 9.9,-2.6 3.2,-1.9 5.5,-4.1 7.3,-7.3 1.8,-3.2 2.7,-6.3 2.7,-9.9 C 19.9,16.2 19,13.1 17.2,10 15.4,6.8 13.1,4.5 9.9,2.7 6.8,0.9 3.7,0 0,0" /></g><g
           transform="translate(484.7,376.7)"
           id="g128"><path
             id="path130"
             style="fill:#ffffff;fill-opacity:1;fill-rule:nonzero;stroke:none"
             d="m 0,0 v -0.75 c -3.726,-0.004 -6.984,0.945 -10.268,2.796 -3.313,1.859 -5.633,4.288 -7.577,7.571 l -0.004,0.006 c -1.864,3.203 -2.705,6.47 -2.701,10.277 -0.004,3.711 0.838,6.972 2.696,10.268 l 0.009,0.015 c 1.948,3.29 4.272,5.614 7.562,7.562 l 0.015,0.009 c 3.296,1.858 6.557,2.7 10.268,2.696 3.807,0.004 7.074,-0.837 10.277,-2.701 l 0.006,-0.004 c 3.283,-1.944 5.712,-4.264 7.571,-7.577 1.851,-3.284 2.8,-6.542 2.796,-10.268 0.004,-3.822 -0.944,-7.086 -2.801,-10.277 L 17.2,10 17.854,9.632 C 15.999,6.326 13.574,3.901 10.268,2.046 L 9.9,2.7 10.277,2.051 C 7.086,0.194 3.822,-0.754 0,-0.75 V 0 0.75 c 3.578,0.004 6.514,0.856 9.523,2.599 l 0.009,0.005 c 3.094,1.745 5.269,3.92 7.014,7.014 l 0.005,0.009 c 1.743,3.009 2.595,5.945 2.599,9.523 -0.004,3.474 -0.855,6.416 -2.604,9.532 -1.741,3.087 -3.912,5.167 -7.029,7.023 L 9.523,36.451 C 6.526,38.187 3.593,38.946 0,38.95 -3.489,38.946 -6.428,38.188 -9.532,36.446 L -9.9,37.1 -9.517,36.455 c -3.11,-1.852 -5.186,-3.928 -7.038,-7.038 l -0.645,0.383 0.654,-0.368 c -1.742,-3.104 -2.5,-6.043 -2.504,-9.532 0.004,-3.593 0.763,-6.526 2.499,-9.523 l -0.004,0.006 C -14.699,7.266 -12.619,5.095 -9.532,3.354 -6.416,1.605 -3.474,0.754 0,0.75 Z" /></g><g
           transform="translate(484.7,461.8)"
           id="g132"><path
             id="path134"
             style="fill:#000033;fill-opacity:1;fill-rule:evenodd;stroke:none"
             d="m 0,0 c -3.6,0 -6.7,0.8 -9.9,2.6 -3.2,1.9 -5.4,4.1 -7.3,7.3 -1.8,3.2 -2.6,6.3 -2.6,9.9 0,3.7 0.8,6.8 2.6,9.9 1.9,3.2 4.1,5.5 7.3,7.3 3.2,1.8 6.3,2.7 9.9,2.7 3.7,0 6.8,-0.9 9.9,-2.7 3.2,-1.8 5.5,-4.1 7.3,-7.3 1.8,-3.1 2.7,-6.2 2.7,-9.9 C 19.9,16.2 19,13.1 17.2,9.9 15.4,6.7 13.1,4.5 9.9,2.6 6.8,0.8 3.7,0 0,0" /></g><g
           transform="translate(484.7,461.8)"
           id="g136"><path
             id="path138"
             style="fill:#ffffff;fill-opacity:1;fill-rule:nonzero;stroke:none"
             d="m 0,0 v -0.75 c -3.711,-0.004 -6.972,0.838 -10.268,2.696 l -0.015,0.009 c -3.29,1.948 -5.614,4.272 -7.562,7.562 l -0.009,0.015 c -1.858,3.296 -2.7,6.557 -2.696,10.268 -0.004,3.807 0.837,7.074 2.701,10.277 l 0.004,0.006 c 1.944,3.283 4.264,5.712 7.577,7.571 3.284,1.851 6.542,2.8 10.268,2.796 3.822,0.004 7.086,-0.944 10.277,-2.801 L 9.9,37 l 0.368,0.654 c 3.306,-1.855 5.731,-4.28 7.586,-7.586 L 17.2,29.7 17.849,30.077 C 19.706,26.886 20.654,23.622 20.65,19.8 20.654,16.074 19.705,12.816 17.854,9.532 15.995,6.219 13.566,3.899 10.283,1.955 L 10.277,1.951 C 7.074,0.087 3.807,-0.754 0,-0.75 V 0 0.75 C 3.593,0.754 6.526,1.513 9.523,3.249 L 9.517,3.245 c 3.117,1.856 5.288,3.936 7.029,7.023 1.749,3.116 2.6,6.058 2.604,9.532 -0.004,3.578 -0.856,6.514 -2.599,9.523 l -0.005,0.009 c -1.745,3.094 -3.92,5.269 -7.014,7.014 L 9.523,36.351 C 6.514,38.094 3.578,38.946 0,38.95 c -3.474,-0.004 -6.416,-0.855 -9.532,-2.604 -3.087,-1.741 -5.167,-3.912 -7.023,-7.029 l 0.004,0.006 c -1.736,-2.997 -2.495,-5.93 -2.499,-9.523 0.004,-3.489 0.762,-6.428 2.504,-9.532 L -17.2,9.9 l 0.645,0.383 c 1.852,-3.11 3.928,-5.186 7.038,-7.038 L -9.9,2.6 -9.532,3.254 C -6.428,1.512 -3.489,0.754 0,0.75 Z" /></g><g
           transform="translate(478.6226,480.0488)"
           id="g140"><path
             id="path142"
             style="fill:#ffffff;fill-opacity:1;fill-rule:nonzero;stroke:none"
             d="m 0,0 -1.537,6.595 c -0.08,0.368 -0.192,1.056 -0.192,1.232 0,0.368 0.24,0.576 0.705,0.608 h 0.24 l 0.08,0.032 c 0.032,0.016 0.048,0.064 0.08,0.161 l 0.032,0.192 c 0.032,0.096 0.032,0.096 0.032,0.144 0,0.08 -0.032,0.096 -0.144,0.096 -0.224,0 -0.689,-0.016 -1.089,-0.048 L -2.529,8.98 C -3.714,9.044 -4.178,9.06 -4.338,9.06 -4.466,9.06 -4.514,9.028 -4.53,8.9 L -4.594,8.676 -4.61,8.515 -4.53,8.435 c 0.688,-0.192 0.768,-0.288 0.961,-1.152 l 2.24,-9.668 h 0.705 l 2.705,4.53 1.008,-4.53 h 0.656 l 5.667,9.236 c 0.688,1.168 0.928,1.408 1.616,1.568 0.113,0.032 0.144,0.064 0.193,0.192 l 0.048,0.225 0.032,0.128 c 0,0.064 -0.032,0.096 -0.129,0.096 -0.144,0 -0.672,-0.016 -0.848,-0.032 L 9.748,8.98 C 8.948,9.028 8.499,9.06 8.243,9.06 8.115,9.06 8.067,9.012 8.035,8.852 L 7.987,8.659 7.971,8.595 7.955,8.515 8.051,8.435 c 0.689,0 0.865,-0.08 0.865,-0.384 0,-0.24 -0.273,-0.88 -0.625,-1.472 L 4.37,-0.08 3.329,4.274 5.41,7.507 c 0.432,0.704 0.608,0.848 1.121,0.896 l 0.304,0.032 0.08,0.016 0.096,0.16 0.032,0.161 0.016,0.176 C 7.059,9.028 7.011,9.06 6.915,9.06 6.643,9.06 6.307,9.044 5.506,8.98 5.49,8.98 5.282,8.996 4.994,9.028 4.818,9.044 4.338,9.06 4.194,9.06 4.082,9.06 4.034,9.012 4.002,8.884 L 3.954,8.643 3.922,8.483 4.018,8.403 c 0.4,0 0.592,-0.128 0.592,-0.368 0,-0.16 -0.176,-0.56 -0.368,-0.896 L 3.137,5.298 2.657,7.427 C 2.545,7.955 2.545,7.971 2.545,8.051 c 0,0.24 0.224,0.384 0.576,0.4 l 0.192,0.016 0.112,0.032 c 0.032,0.016 0.064,0.064 0.08,0.193 L 3.537,8.836 3.569,8.996 3.457,9.06 C 3.233,9.06 2.721,9.044 1.745,8.98 1.713,8.98 1.473,8.996 1.12,9.028 0.88,9.044 0.384,9.06 0.192,9.06 0.064,9.06 0.016,9.012 0,8.868 L -0.032,8.708 -0.048,8.531 c 0,-0.08 0.016,-0.096 0.192,-0.096 C 0.576,8.419 0.656,8.323 0.848,7.491 L 1.873,3.089 Z" /></g><g
           transform="translate(491.8635,479.0353)"
           id="g144"><path
             id="path146"
             style="fill:#ffffff;fill-opacity:1;fill-rule:nonzero;stroke:none"
             d="m 0,0 c -0.446,-0.418 -1.087,-0.799 -1.896,-1.134 -0.13,-0.055 -0.195,-0.093 -0.195,-0.102 l 0.019,-0.046 0.028,-0.038 0.037,-0.102 0.074,-0.093 c 0.037,0 0.223,0.084 0.548,0.233 0.335,0.158 0.549,0.26 0.642,0.297 L -1.868,-5.074 C -1.914,-5.26 -1.97,-5.408 -2.026,-5.52 c -0.056,-0.121 -0.139,-0.214 -0.241,-0.269 -0.14,-0.084 -0.326,-0.13 -0.567,-0.13 L -2.983,-5.938 -3.02,-6.022 -3.057,-6.17 -3.067,-6.235 c 0,-0.028 0.047,-0.047 0.158,-0.047 h 0.223 c 0.474,0.028 0.809,0.047 1.004,0.047 0.325,0 0.66,-0.01 1.004,-0.028 0.186,-0.01 0.334,-0.019 0.446,-0.019 l 0.093,0.028 0.027,0.084 0.019,0.074 v 0.056 l 0.009,0.046 c 0.01,0.047 -0.037,0.075 -0.13,0.075 -0.306,0 -0.52,0.027 -0.613,0.055 -0.121,0.038 -0.177,0.121 -0.177,0.242 0,0.13 0.075,0.465 0.223,1.004 L 0.493,0 Z" /></g><g
           transform="translate(495.7665,488.6711)"
           id="g148"><path
             id="path150"
             style="fill:#ffffff;fill-opacity:1;fill-rule:nonzero;stroke:none"
             d="m 0,0 -1.162,-4.098 c -0.13,-0.437 -0.232,-0.706 -0.306,-0.799 -0.112,-0.149 -0.316,-0.242 -0.623,-0.251 -0.13,0 -0.195,-0.019 -0.204,-0.019 L -2.332,-5.222 -2.351,-5.325 -2.36,-5.39 -2.23,-5.418 h 2.295 l 0.139,0.065 0.019,0.103 v 0.028 0.027 c 0,0.019 -0.065,0.038 -0.214,0.038 -0.241,0 -0.427,0.046 -0.539,0.139 l -0.083,0.186 c 0,0.037 0.046,0.223 0.13,0.548 l 1.394,4.925 0.028,0.112 c 0,0.037 -0.038,0.055 -0.131,0.055 H 0.669 C 0.576,0.808 0.474,0.753 0.344,0.641 0.177,0.502 -0.046,0.335 -0.353,0.149 c -0.27,-0.158 -0.493,-0.27 -0.669,-0.335 -0.177,-0.074 -0.26,-0.121 -0.27,-0.13 L -1.32,-0.39 -1.329,-0.502 -1.338,-0.558 -1.32,-0.585 h 0.01 0.009 l 0.065,0.018 c 0.019,0 0.065,0.009 0.158,0.056 0.028,0.009 0.195,0.093 0.483,0.223 C -0.502,-0.251 -0.307,-0.149 0,0" /></g><g
           transform="translate(566.9,376.7)"
           id="g152"><path
             id="path154"
             style="fill:#000033;fill-opacity:1;fill-rule:evenodd;stroke:none"
             d="m 0,0 c -3.6,0 -6.7,0.9 -9.9,2.7 -3.2,1.8 -5.4,4.1 -7.2,7.3 -1.9,3.1 -2.7,6.2 -2.7,9.9 0,3.6 0.8,6.7 2.7,9.9 1.8,3.2 4,5.4 7.2,7.3 3.2,1.8 6.3,2.6 9.9,2.6 3.7,0 6.8,-0.8 10,-2.6 3.1,-1.9 5.4,-4.1 7.2,-7.3 1.8,-3.2 2.7,-6.3 2.7,-9.9 C 19.9,16.2 19,13.1 17.2,10 15.4,6.8 13.1,4.5 10,2.7 6.8,0.9 3.7,0 0,0" /></g><g
           transform="translate(566.9,376.7)"
           id="g156"><path
             id="path158"
             style="fill:#ffffff;fill-opacity:1;fill-rule:nonzero;stroke:none"
             d="m 0,0 v -0.75 c -3.727,-0.004 -6.984,0.945 -10.268,2.796 -3.313,1.858 -5.638,4.292 -7.486,7.586 L -17.1,10 -17.74,9.608 c -1.972,3.209 -2.815,6.486 -2.81,10.292 -0.005,3.71 0.84,6.982 2.805,10.283 l 0.645,-0.383 -0.654,0.368 c 1.852,3.302 4.181,5.63 7.471,7.577 l 0.015,0.009 c 3.296,1.858 6.557,2.7 10.268,2.696 3.807,0.004 7.072,-0.838 10.368,-2.696 l 0.024,-0.015 c 3.179,-1.943 5.602,-4.258 7.462,-7.571 1.851,-3.284 2.8,-6.542 2.796,-10.268 0.004,-3.822 -0.944,-7.086 -2.801,-10.277 L 17.2,10 17.854,9.632 C 15.998,6.326 13.579,3.906 10.377,2.051 L 10.368,2.046 C 7.084,0.195 3.823,-0.754 0,-0.75 V 0 0.75 C 3.577,0.754 6.516,1.605 9.632,3.354 L 10,2.7 9.623,3.349 c 2.998,1.745 5.178,3.924 6.923,7.019 l 0.005,0.009 c 1.743,3.009 2.595,5.945 2.599,9.523 -0.004,3.474 -0.855,6.416 -2.604,9.532 -1.741,3.087 -3.917,5.172 -6.938,7.029 L 10,37.1 9.632,36.446 C 6.528,38.188 3.593,38.946 0,38.95 -3.489,38.946 -6.428,38.188 -9.532,36.446 L -9.9,37.1 -9.517,36.455 c -3.11,-1.853 -5.181,-3.925 -6.929,-7.023 l -0.009,-0.015 c -1.835,-3.099 -2.591,-6.027 -2.595,-9.517 0.005,-3.594 0.762,-6.517 2.589,-9.508 l 0.015,-0.024 C -14.694,7.262 -12.619,5.096 -9.532,3.354 -6.416,1.605 -3.474,0.754 0,0.75 Z" /></g><g
           transform="translate(416.7,397.095)"
           id="g160"><path
             id="path162"
             style="fill:#ffffff;fill-opacity:1;fill-rule:nonzero;stroke:none"
             d="M 0,0 H 33.9 V -0.99 H 0" /></g><g
           transform="translate(464.9,396.6)"
           id="g164"><path
             id="path166"
             style="fill:#ffffff;fill-opacity:1;fill-rule:evenodd;stroke:none"
             d="M 0,0 -15,5 V -5 Z" /></g><g
           transform="translate(485.195,461.8)"
           id="g168"><path
             id="path170"
             style="fill:#ffffff;fill-opacity:1;fill-rule:nonzero;stroke:none"
             d="M 0,0 V -31.1 H -0.99 V 0" /></g><g
           transform="translate(484.7,416.4)"
           id="g172"><path
             id="path174"
             style="fill:#ffffff;fill-opacity:1;fill-rule:evenodd;stroke:none"
             d="M 0,0 5,15 H -5 Z" /></g><g
           transform="translate(504.6,397.095)"
           id="g176"><path
             id="path178"
             style="fill:#ffffff;fill-opacity:1;fill-rule:nonzero;stroke:none"
             d="M 0,0 H 28.2 V -0.99 H 0" /></g><g
           transform="translate(547.1,396.6)"
           id="g180"><path
             id="path182"
             style="fill:#ffffff;fill-opacity:1;fill-rule:evenodd;stroke:none"
             d="M 0,0 -15,5 V -5 Z" /></g><g
           transform="translate(331.7,397.095)"
           id="g184"><path
             id="path186"
             style="fill:#ffffff;fill-opacity:1;fill-rule:nonzero;stroke:none"
             d="M 0,0 H 31 V -0.99 H 0" /></g><g
           transform="translate(377,396.6)"
           id="g188"><path
             id="path190"
             style="fill:#ffffff;fill-opacity:1;fill-rule:evenodd;stroke:none"
             d="M 0,0 -15,5 V -5 Z" /></g><g
           transform="translate(90.7,397.095)"
           id="g192"><path
             id="path194"
             style="fill:#ffffff;fill-opacity:1;fill-rule:nonzero;stroke:none"
             d="M 0,0 H 16.9 V -0.99 H 0" /></g><g
           transform="translate(121.9,396.6)"
           id="g196"><path
             id="path198"
             style="fill:#ffffff;fill-opacity:1;fill-rule:evenodd;stroke:none"
             d="M 0,0 -15,5 V -5 Z" /></g><g
           transform="translate(85,390.9)"
           id="g200"><path
             id="path202"
             style="fill:#000000;fill-opacity:1;fill-rule:evenodd;stroke:none"
             d="m 0,0 c -1,0 -1.9,0.2 -2.8,0.8 -0.9,0.5 -1.6,1.1 -2.1,2 -0.5,0.9 -0.7,1.8 -0.7,2.9 0,1 0.2,1.9 0.7,2.8 0.5,0.9 1.2,1.6 2.1,2.1 0.9,0.5 1.8,0.7 2.8,0.7 1.1,0 2,-0.2 2.9,-0.7 C 3.8,10.1 4.4,9.4 4.9,8.5 5.5,7.6 5.7,6.7 5.7,5.7 5.7,4.6 5.5,3.7 4.9,2.8 4.4,1.9 3.8,1.3 2.9,0.8 2,0.2 1.1,0 0,0" /></g><g
           transform="translate(85,390.9)"
           id="g204"><path
             id="path206"
             style="fill:#ffffff;fill-opacity:1;fill-rule:nonzero;stroke:none"
             d="m 0,0 v -0.75 c -1.096,-0.005 -2.188,0.234 -3.216,0.926 L -2.8,0.8 -3.164,0.144 C -4.14,0.682 -4.981,1.394 -5.556,2.436 -6.122,3.447 -6.354,4.512 -6.35,5.7 c -0.003,1.098 0.229,2.153 0.794,3.164 0.563,1.017 1.375,1.829 2.392,2.392 1.011,0.565 2.066,0.797 3.164,0.794 1.188,0.004 2.253,-0.228 3.264,-0.794 C 4.306,10.681 5.018,9.84 5.556,8.864 L 4.9,8.5 5.524,8.916 C 6.216,7.888 6.455,6.796 6.45,5.7 6.456,4.515 6.217,3.413 5.524,2.384 L 4.9,2.8 5.556,2.436 C 5.007,1.434 4.266,0.693 3.264,0.144 L 2.9,0.8 3.316,0.176 C 2.287,-0.517 1.185,-0.756 0,-0.75 V 0 0.75 c 1.015,0.006 1.713,0.167 2.484,0.674 l 0.052,0.032 c 0.798,0.451 1.257,0.91 1.708,1.708 L 4.276,3.216 C 4.783,3.987 4.944,4.685 4.95,5.7 4.945,6.604 4.784,7.312 4.276,8.084 L 4.244,8.136 C 3.782,8.96 3.294,9.519 2.536,9.944 1.747,10.378 1.012,10.546 0,10.55 -0.902,10.547 -1.647,10.379 -2.436,9.944 -3.219,9.507 -3.807,8.919 -4.244,8.136 -4.679,7.347 -4.847,6.602 -4.85,5.7 -4.846,4.688 -4.678,3.953 -4.244,3.164 -3.819,2.406 -3.26,1.918 -2.436,1.456 L -2.384,1.424 C -1.612,0.916 -0.904,0.755 0,0.75 Z" /></g><g
           transform="translate(85,532.6)"
           id="g208"><path
             id="path210"
             style="fill:#000000;fill-opacity:1;fill-rule:evenodd;stroke:none"
             d="m 0,0 c -1,0 -1.9,0.3 -2.8,0.8 -0.9,0.5 -1.6,1.2 -2.1,2.1 -0.5,0.9 -0.7,1.8 -0.7,2.8 0,1.1 0.2,1.9 0.7,2.8 0.5,0.9 1.2,1.6 2.1,2.1 0.9,0.5 1.8,0.8 2.8,0.8 1.1,0 2,-0.3 2.9,-0.8 C 3.8,10.1 4.4,9.4 4.9,8.5 5.5,7.6 5.7,6.8 5.7,5.7 5.7,4.7 5.5,3.8 4.9,2.9 4.4,2 3.8,1.3 2.9,0.8 2,0.3 1.1,0 0,0" /></g><g
           transform="translate(85,532.6)"
           id="g212"><path
             id="path214"
             style="fill:#ffffff;fill-opacity:1;fill-rule:nonzero;stroke:none"
             d="m 0,0 v -0.75 c -1.154,-0.002 -2.194,0.353 -3.164,0.894 -1.017,0.563 -1.829,1.375 -2.392,2.392 -0.565,1.011 -0.797,2.066 -0.794,3.164 -0.007,1.187 0.238,2.177 0.794,3.164 0.563,1.017 1.375,1.829 2.392,2.392 0.97,0.541 2.01,0.895 3.164,0.894 1.239,0.003 2.294,-0.352 3.264,-0.894 C 4.306,10.681 5.018,9.84 5.556,8.864 L 4.9,8.5 5.524,8.916 C 6.205,7.913 6.46,6.884 6.45,5.7 6.455,4.604 6.216,3.512 5.524,2.484 L 4.9,2.9 5.556,2.536 C 5.018,1.56 4.306,0.719 3.264,0.144 2.294,-0.398 1.239,-0.753 0,-0.75 V 0 0.75 C 0.961,0.753 1.706,0.998 2.536,1.456 3.294,1.881 3.782,2.44 4.244,3.264 L 4.276,3.316 C 4.784,4.088 4.945,4.796 4.95,5.7 4.94,6.716 4.795,7.287 4.276,8.084 L 4.244,8.136 C 3.782,8.96 3.294,9.519 2.536,9.944 1.706,10.402 0.961,10.646 0,10.65 -0.846,10.648 -1.606,10.403 -2.436,9.944 -3.219,9.507 -3.807,8.919 -4.244,8.136 -4.688,7.323 -4.843,6.713 -4.85,5.7 -4.847,4.798 -4.679,4.053 -4.244,3.264 -3.807,2.481 -3.219,1.893 -2.436,1.456 -1.606,0.997 -0.846,0.752 0,0.75 Z" /></g><g
           transform="translate(90.7,538.795)"
           id="g216"><path
             id="path218"
             style="fill:#ffffff;fill-opacity:1;fill-rule:nonzero;stroke:none"
             d="M 0,0 H 121.8 V -0.99 H 0" /></g><g
           transform="translate(226.8,538.3)"
           id="g220"><path
             id="path222"
             style="fill:#ffffff;fill-opacity:1;fill-rule:evenodd;stroke:none"
             d="M 0,0 -15,5 V -5 Z" /></g><g
           transform="translate(229.6,535.5)"
           id="g224"><path
             id="path226"
             style="fill:#ffffff;fill-opacity:1;fill-rule:evenodd;stroke:none"
             d="m 0,0 c -0.5,0 -1,0.1 -1.4,0.3 -0.5,0.3 -0.8,0.6 -1.1,1.1 -0.2,0.4 -0.3,0.9 -0.3,1.4 0,0.5 0.1,1 0.3,1.4 0.3,0.5 0.6,0.8 1.1,1.1 C -1,5.5 -0.5,5.6 0,5.6 0.5,5.6 1,5.5 1.4,5.3 1.9,5 2.2,4.7 2.5,4.2 2.7,3.8 2.8,3.3 2.8,2.8 2.8,2.3 2.7,1.8 2.5,1.4 2.2,0.9 1.9,0.6 1.4,0.3 1,0.1 0.5,0 0,0" /></g><g
           transform="translate(229.6,535.5)"
           id="g228"><path
             id="path230"
             style="fill:#ffffff;fill-opacity:1;fill-rule:nonzero;stroke:none"
             d="m 0,0 v -0.75 c -0.6,0.002 -1.201,0.114 -1.735,0.379 l -0.051,0.028 c -0.577,0.337 -1.02,0.78 -1.357,1.357 L -3.171,1.065 C -3.436,1.599 -3.548,2.2 -3.55,2.8 c 0.002,0.6 0.114,1.201 0.379,1.735 l 0.028,0.051 c 0.337,0.577 0.78,1.02 1.357,1.357 l 0.051,0.028 C -1.201,6.236 -0.6,6.348 0,6.35 0.6,6.348 1.201,6.236 1.735,5.971 L 1.786,5.943 C 2.363,5.606 2.806,5.163 3.143,4.586 L 3.171,4.535 C 3.436,4.001 3.548,3.4 3.55,2.8 3.548,2.2 3.436,1.599 3.171,1.065 L 3.143,1.014 C 2.806,0.437 2.363,-0.006 1.786,-0.343 L 1.735,-0.371 C 1.201,-0.636 0.6,-0.748 0,-0.75 V 0 0.75 C 0.4,0.748 0.799,0.836 1.065,0.971 L 1.4,0.3 1.014,0.943 c 0.423,0.263 0.58,0.42 0.843,0.843 L 2.5,1.4 1.829,1.735 C 1.964,2.001 2.052,2.4 2.05,2.8 2.052,3.2 1.964,3.599 1.829,3.865 L 2.5,4.2 1.857,3.814 C 1.594,4.237 1.437,4.394 1.014,4.657 L 1.4,5.3 1.065,4.629 C 0.799,4.764 0.4,4.852 0,4.85 -0.4,4.852 -0.799,4.764 -1.065,4.629 L -1.4,5.3 -1.014,4.657 C -1.437,4.394 -1.594,4.237 -1.857,3.814 L -2.5,4.2 -1.829,3.864 C -1.964,3.599 -2.052,3.2 -2.05,2.8 -2.052,2.4 -1.964,2.001 -1.829,1.735 L -2.5,1.4 -1.857,1.786 c 0.263,-0.423 0.42,-0.58 0.843,-0.843 L -1.4,0.3 -1.065,0.971 C -0.799,0.836 -0.4,0.748 0,0.75 Z" /></g><g
           transform="translate(230.095,535.5)"
           id="g232"><path
             id="path234"
             style="fill:#ffffff;fill-opacity:1;fill-rule:nonzero;stroke:none"
             d="M 0,0 V -19.7 H -0.99 V 0" /></g><g
           transform="translate(229.6,501.5)"
           id="g236"><path
             id="path238"
             style="fill:#ffffff;fill-opacity:1;fill-rule:evenodd;stroke:none"
             d="M 0,0 5,14.9 H -5 Z" /></g><g
           transform="translate(232.4,538.795)"
           id="g240"><path
             id="path242"
             style="fill:#ffffff;fill-opacity:1;fill-rule:nonzero;stroke:none"
             d="M 0,0 H 235.2 V -0.99 H 0" /></g><g
           transform="translate(481.9,538.3)"
           id="g244"><path
             id="path246"
             style="fill:#ffffff;fill-opacity:1;fill-rule:evenodd;stroke:none"
             d="M 0,0 -15,5 V -5 Z" /></g><g
           transform="translate(484.7,535.5)"
           id="g248"><path
             id="path250"
             style="fill:#ffffff;fill-opacity:1;fill-rule:evenodd;stroke:none"
             d="m 0,0 c -0.5,0 -0.9,0.1 -1.4,0.3 -0.4,0.3 -0.8,0.6 -1,1.1 -0.3,0.4 -0.4,0.9 -0.4,1.4 0,0.5 0.1,1 0.4,1.4 0.2,0.5 0.6,0.8 1,1.1 C -0.9,5.5 -0.5,5.6 0,5.6 0.5,5.6 1,5.5 1.4,5.3 1.9,5 2.2,4.7 2.5,4.2 2.7,3.8 2.9,3.3 2.9,2.8 2.9,2.3 2.7,1.8 2.5,1.4 2.2,0.9 1.9,0.6 1.4,0.3 1,0.1 0.5,0 0,0" /></g><g
           transform="translate(484.7,535.5)"
           id="g252"><path
             id="path254"
             style="fill:#ffffff;fill-opacity:1;fill-rule:nonzero;stroke:none"
             d="m 0,0 v -0.75 c -0.603,-0.003 -1.136,0.134 -1.679,0.354 L -1.85,-0.3 c -0.2,0.15 -0.429,0.319 -0.655,0.545 -0.225,0.224 -0.447,0.513 -0.591,0.876 L -2.4,1.4 -3,0.95 C -3.435,1.533 -3.549,2.206 -3.55,2.8 -3.549,3.394 -3.435,4.067 -3,4.65 L -2.4,4.2 -3.096,4.478 c 0.144,0.364 0.366,0.653 0.591,0.877 0.226,0.226 0.455,0.395 0.655,0.545 l 0.171,0.096 C -1.136,6.216 -0.603,6.353 0,6.35 0.6,6.348 1.201,6.236 1.735,5.971 L 1.786,5.943 C 2.363,5.606 2.806,5.163 3.143,4.586 L 3.171,4.535 C 3.39,4.089 3.645,3.501 3.65,2.8 3.645,2.099 3.39,1.51 3.171,1.065 L 3.143,1.014 C 2.806,0.437 2.363,-0.006 1.786,-0.343 L 1.735,-0.371 C 1.201,-0.636 0.6,-0.748 0,-0.75 V 0 0.75 C 0.4,0.748 0.799,0.836 1.065,0.971 L 1.4,0.3 1.014,0.943 c 0.423,0.263 0.58,0.42 0.843,0.843 L 2.5,1.4 1.829,1.735 C 2.01,2.089 2.155,2.501 2.15,2.8 2.155,3.099 2.01,3.51 1.829,3.865 L 2.5,4.2 1.857,3.814 C 1.594,4.237 1.437,4.394 1.014,4.657 L 1.4,5.3 1.065,4.629 C 0.799,4.764 0.4,4.852 0,4.85 -0.397,4.847 -0.664,4.784 -1.121,4.604 L -1.4,5.3 -0.95,4.7 C -1.15,4.55 -1.321,4.419 -1.445,4.295 -1.57,4.169 -1.648,4.058 -1.704,3.921 L -1.8,3.75 C -1.966,3.533 -2.051,3.206 -2.05,2.8 -2.051,2.394 -1.966,2.067 -1.8,1.85 L -1.704,1.678 C -1.648,1.542 -1.57,1.431 -1.445,1.305 -1.321,1.18 -1.15,1.05 -0.95,0.9 L -1.4,0.3 -1.121,0.996 C -0.664,0.816 -0.397,0.753 0,0.75 Z" /></g><g
           transform="translate(485.195,535.5)"
           id="g256"><path
             id="path258"
             style="fill:#ffffff;fill-opacity:1;fill-rule:nonzero;stroke:none"
             d="M 0,0 V -19.7 H -0.99 V 0" /></g><g
           transform="translate(484.7,501.5)"
           id="g260"><path
             id="path262"
             style="fill:#ffffff;fill-opacity:1;fill-rule:evenodd;stroke:none"
             d="M 0,0 5,14.9 H -5 Z" /></g><g
           transform="translate(623.6,390.9)"
           id="g264"><path
             id="path266"
             style="fill:#000000;fill-opacity:1;fill-rule:evenodd;stroke:none"
             d="m 0,0 c -1,0 -1.9,0.2 -2.8,0.8 -0.9,0.5 -1.6,1.1 -2.1,2 -0.5,0.9 -0.7,1.8 -0.7,2.9 0,1 0.2,1.9 0.7,2.8 0.5,0.9 1.2,1.6 2.1,2.1 0.9,0.5 1.8,0.7 2.8,0.7 1.1,0 1.9,-0.2 2.9,-0.7 C 3.8,10.1 4.4,9.4 4.9,8.5 5.5,7.6 5.7,6.7 5.7,5.7 5.7,4.6 5.5,3.7 4.9,2.8 4.4,1.9 3.8,1.3 2.9,0.8 1.9,0.2 1.1,0 0,0" /></g><g
           transform="translate(623.6,390.9)"
           id="g268"><path
             id="path270"
             style="fill:#ffffff;fill-opacity:1;fill-rule:nonzero;stroke:none"
             d="m 0,0 v -0.75 c -1.096,-0.005 -2.188,0.234 -3.216,0.926 L -2.8,0.8 -3.164,0.144 C -4.14,0.682 -4.981,1.394 -5.556,2.436 -6.122,3.447 -6.354,4.512 -6.35,5.7 c -0.003,1.098 0.229,2.153 0.794,3.164 0.563,1.017 1.375,1.829 2.392,2.392 1.011,0.565 2.066,0.797 3.164,0.794 1.19,0.007 2.17,-0.239 3.235,-0.779 L 3.264,11.256 C 4.306,10.681 5.018,9.84 5.556,8.864 L 4.9,8.5 5.524,8.916 C 6.216,7.888 6.455,6.796 6.45,5.7 6.456,4.515 6.217,3.413 5.524,2.384 L 4.9,2.8 5.556,2.436 C 5.007,1.434 4.266,0.693 3.264,0.144 L 2.9,0.8 3.286,0.157 C 2.205,-0.503 1.187,-0.76 0,-0.75 V 0 0.75 c 1.013,0.01 1.595,0.153 2.514,0.693 l 0.022,0.013 c 0.798,0.451 1.257,0.91 1.708,1.708 L 4.276,3.216 C 4.783,3.987 4.944,4.685 4.95,5.7 4.945,6.604 4.784,7.312 4.276,8.084 L 4.244,8.136 C 3.782,8.96 3.294,9.519 2.536,9.944 L 2.9,10.6 2.565,9.929 C 1.63,10.389 1.01,10.543 0,10.55 -0.902,10.547 -1.647,10.379 -2.436,9.944 -3.219,9.507 -3.807,8.919 -4.244,8.136 -4.679,7.347 -4.847,6.602 -4.85,5.7 -4.846,4.688 -4.678,3.953 -4.244,3.164 -3.819,2.406 -3.26,1.918 -2.436,1.456 L -2.384,1.424 C -1.612,0.916 -0.904,0.755 0,0.75 Z" /></g><g
           transform="translate(623.6,532.6)"
           id="g272"><path
             id="path274"
             style="fill:#000000;fill-opacity:1;fill-rule:evenodd;stroke:none"
             d="m 0,0 c -1,0 -1.9,0.3 -2.8,0.8 -0.9,0.5 -1.6,1.2 -2.1,2.1 -0.5,0.9 -0.7,1.8 -0.7,2.8 0,1.1 0.2,1.9 0.7,2.8 0.5,0.9 1.2,1.6 2.1,2.1 0.9,0.5 1.8,0.8 2.8,0.8 1.1,0 1.9,-0.3 2.9,-0.8 C 3.8,10.1 4.4,9.4 4.9,8.5 5.5,7.6 5.7,6.8 5.7,5.7 5.7,4.7 5.5,3.8 4.9,2.9 4.4,2 3.8,1.3 2.9,0.8 1.9,0.3 1.1,0 0,0" /></g><g
           transform="translate(623.6,532.6)"
           id="g276"><path
             id="path278"
             style="fill:#ffffff;fill-opacity:1;fill-rule:nonzero;stroke:none"
             d="m 0,0 v -0.75 c -1.154,-0.002 -2.194,0.353 -3.164,0.894 -1.017,0.563 -1.829,1.375 -2.392,2.392 -0.565,1.011 -0.797,2.066 -0.794,3.164 -0.007,1.187 0.238,2.177 0.794,3.164 0.563,1.017 1.375,1.829 2.392,2.392 0.97,0.541 2.01,0.895 3.164,0.894 1.244,0.005 2.211,-0.362 3.235,-0.879 L 3.264,11.256 C 4.306,10.681 5.018,9.84 5.556,8.864 L 4.9,8.5 5.524,8.916 C 6.205,7.913 6.46,6.884 6.45,5.7 6.455,4.604 6.216,3.512 5.524,2.484 L 4.9,2.9 5.556,2.536 C 5.018,1.56 4.306,0.719 3.264,0.144 L 3.235,0.129 C 2.211,-0.388 1.244,-0.755 0,-0.75 V 0 0.75 C 0.956,0.755 1.589,0.988 2.565,1.471 L 2.9,0.8 2.536,1.456 C 3.294,1.881 3.782,2.44 4.244,3.264 L 4.276,3.316 C 4.784,4.088 4.945,4.796 4.95,5.7 4.94,6.716 4.795,7.287 4.276,8.084 L 4.244,8.136 C 3.782,8.96 3.294,9.519 2.536,9.944 L 2.9,10.6 2.565,9.929 C 1.589,10.412 0.956,10.645 0,10.65 -0.846,10.648 -1.606,10.403 -2.436,9.944 -3.219,9.507 -3.807,8.919 -4.244,8.136 -4.688,7.323 -4.843,6.713 -4.85,5.7 -4.847,4.798 -4.679,4.053 -4.244,3.264 -3.807,2.481 -3.219,1.893 -2.436,1.456 -1.606,0.997 -0.846,0.752 0,0.75 Z" /></g><g
           transform="translate(586.8,397.095)"
           id="g280"><path
             id="path282"
             style="fill:#ffffff;fill-opacity:1;fill-rule:nonzero;stroke:none"
             d="M 0,0 H 16.8 V -0.99 H 0" /></g><g
           transform="translate(618,396.6)"
           id="g284"><path
             id="path286"
             style="fill:#ffffff;fill-opacity:1;fill-rule:evenodd;stroke:none"
             d="M 0,0 -15,5 V -5 Z" /></g><g
           transform="translate(487.6,538.795)"
           id="g288"><path
             id="path290"
             style="fill:#ffffff;fill-opacity:1;fill-rule:nonzero;stroke:none"
             d="M 0,0 H 116 V -0.99 H 0" /></g><g
           transform="translate(618,538.3)"
           id="g292"><path
             id="path294"
             style="fill:#ffffff;fill-opacity:1;fill-rule:evenodd;stroke:none"
             d="M 0,0 -15,5 V -5 Z" /></g><g
           transform="translate(81.5124,415.2661)"
           id="g296"><path
             id="path298"
             style="fill:#ffffff;fill-opacity:1;fill-rule:nonzero;stroke:none"
             d="M 0,0 C 0.352,0.576 0.592,0.8 0.864,0.8 1.297,0.8 1.793,-0.272 2.129,-1.889 1.136,-3.585 0.432,-4.482 0.08,-4.482 l -0.176,0.064 c -0.224,0.176 -0.304,0.208 -0.448,0.208 -0.272,0 -0.448,-0.24 -0.448,-0.608 0,-0.416 0.192,-0.672 0.512,-0.672 0.368,0 0.688,0.192 1.12,0.688 0.464,0.512 1.185,1.521 1.649,2.305 l 0.064,-0.256 c 0.32,-1.297 0.416,-1.649 0.544,-1.905 0.288,-0.592 0.656,-0.88 1.137,-0.88 0.576,0 1.072,0.352 1.536,1.072 0.176,0.256 0.32,0.528 0.4,0.737 l 0.096,0.24 -0.352,0.176 -0.16,-0.304 C 5.282,-4.114 4.866,-4.482 4.53,-4.482 c -0.256,0 -0.464,0.144 -0.672,0.512 -0.337,0.545 -0.625,1.473 -0.785,2.433 0.288,0.481 0.721,1.105 1.057,1.569 0.464,0.608 0.704,0.816 0.944,0.816 0.144,0 0.208,-0.096 0.256,-0.352 0.048,-0.256 0.16,-0.352 0.416,-0.352 0.32,0 0.513,0.288 0.513,0.752 0,0.545 -0.273,0.913 -0.689,0.913 -0.576,0 -1.12,-0.4 -1.648,-1.201 L 3.089,-0.656 2.929,-0.864 C 2.849,-0.608 2.817,-0.512 2.657,0.176 2.401,1.281 1.969,1.809 1.313,1.809 0.688,1.809 0.368,1.489 -0.32,0.16 Z" /></g><g
           transform="translate(91.0688,421.5353)"
           id="g300"><path
             id="path302"
             style="fill:#ffffff;fill-opacity:1;fill-rule:nonzero;stroke:none"
             d="m 0,0 c -0.409,0 -0.799,-0.177 -1.18,-0.558 -0.474,-0.473 -0.846,-1.152 -1.115,-2.053 -0.195,-0.651 -0.298,-1.245 -0.298,-1.766 0,-0.734 0.158,-1.245 0.484,-1.57 0.241,-0.242 0.539,-0.363 0.882,-0.363 0.353,0 0.688,0.13 1.004,0.391 0.409,0.343 0.771,0.873 1.078,1.607 0.344,0.827 0.511,1.673 0.511,2.5 0,0.409 -0.074,0.771 -0.232,1.106 -0.056,0.121 -0.149,0.241 -0.26,0.353 C 0.623,-0.112 0.335,0 0,0 m -0.177,-0.725 c 0.335,0 0.604,-0.121 0.8,-0.362 0.204,-0.251 0.306,-0.66 0.306,-1.199 0,-0.465 -0.074,-0.957 -0.241,-1.468 -0.205,-0.641 -0.474,-1.125 -0.818,-1.45 -0.27,-0.251 -0.576,-0.381 -0.92,-0.381 -0.335,0 -0.604,0.121 -0.799,0.363 -0.205,0.26 -0.316,0.659 -0.316,1.208 0,0.446 0.083,0.929 0.251,1.459 0.204,0.65 0.483,1.133 0.827,1.449 0.269,0.251 0.567,0.381 0.91,0.381" /></g><g
           transform="translate(85.081,563.3367)"
           id="g304"><path
             id="path306"
             style="fill:#ffffff;fill-opacity:1;fill-rule:nonzero;stroke:none"
             d="M 0,0 C 0.8,-0.096 0.992,-0.208 0.992,-0.576 0.992,-0.768 0.944,-1.072 0.864,-1.377 0.752,-1.777 0.656,-2.161 0.56,-2.545 0.288,-3.682 -0.256,-5.602 -0.64,-6.883 L -1.345,-9.14 c -0.48,-1.632 -0.48,-1.632 -0.48,-1.808 0,-0.497 0.641,-0.961 1.361,-0.961 2.465,0 5.954,3.394 5.954,5.763 0,0.896 -0.56,1.584 -1.28,1.584 -1.169,0 -2.385,-1.008 -4.242,-3.521 L 2.257,-0.64 2.529,0.176 C 2.561,0.288 2.593,0.384 2.625,0.464 L 2.673,0.64 c 0,0.08 -0.064,0.128 -0.16,0.128 H 2.369 c -0.096,0 -0.16,0 -0.4,-0.064 C 1.713,0.656 1.457,0.592 1.184,0.528 0.96,0.496 0.72,0.464 0.448,0.432 l -0.4,-0.064 z m 3.714,-5.362 c 0.32,-0.032 0.528,-0.352 0.528,-0.8 0,-0.865 -0.801,-2.337 -2.001,-3.682 -0.752,-0.848 -1.521,-1.345 -2.081,-1.345 -0.496,0 -0.832,0.337 -0.832,0.817 0,0.384 0.304,0.992 1.008,2.001 1.249,1.808 2.673,3.073 3.378,3.009" /></g><g
           transform="translate(345.1124,415.2661)"
           id="g308"><path
             id="path310"
             style="fill:#ffffff;fill-opacity:1;fill-rule:nonzero;stroke:none"
             d="M 0,0 C 0.352,0.576 0.592,0.8 0.864,0.8 1.297,0.8 1.793,-0.272 2.129,-1.889 1.136,-3.585 0.432,-4.482 0.08,-4.482 l -0.176,0.064 c -0.224,0.176 -0.304,0.208 -0.448,0.208 -0.272,0 -0.448,-0.24 -0.448,-0.608 0,-0.416 0.192,-0.672 0.512,-0.672 0.368,0 0.688,0.192 1.12,0.688 0.464,0.512 1.185,1.521 1.649,2.305 l 0.064,-0.256 c 0.32,-1.297 0.416,-1.649 0.544,-1.905 0.288,-0.592 0.656,-0.88 1.137,-0.88 0.576,0 1.072,0.352 1.536,1.072 0.176,0.256 0.32,0.528 0.4,0.737 l 0.096,0.24 -0.352,0.176 -0.16,-0.304 C 5.282,-4.114 4.866,-4.482 4.53,-4.482 c -0.256,0 -0.464,0.144 -0.672,0.512 -0.337,0.545 -0.625,1.473 -0.785,2.433 0.288,0.481 0.721,1.105 1.057,1.569 0.464,0.608 0.704,0.816 0.944,0.816 0.144,0 0.208,-0.096 0.256,-0.352 0.048,-0.256 0.16,-0.352 0.416,-0.352 0.32,0 0.513,0.288 0.513,0.752 0,0.545 -0.273,0.913 -0.689,0.913 -0.576,0 -1.12,-0.4 -1.648,-1.201 L 3.089,-0.656 2.929,-0.864 C 2.849,-0.608 2.817,-0.512 2.657,0.176 2.401,1.281 1.969,1.809 1.313,1.809 0.688,1.809 0.368,1.489 -0.32,0.16 Z" /></g><g
           transform="translate(354.5666,420.6711)"
           id="g312"><path
             id="path314"
             style="fill:#ffffff;fill-opacity:1;fill-rule:nonzero;stroke:none"
             d="m 0,0 -1.162,-4.098 c -0.13,-0.437 -0.232,-0.706 -0.306,-0.799 -0.112,-0.149 -0.316,-0.242 -0.623,-0.251 -0.13,0 -0.195,-0.019 -0.204,-0.019 L -2.332,-5.222 -2.351,-5.325 -2.36,-5.39 -2.23,-5.418 h 2.295 l 0.139,0.065 0.019,0.103 v 0.028 0.027 c 0,0.019 -0.065,0.038 -0.214,0.038 -0.241,0 -0.427,0.046 -0.539,0.139 l -0.083,0.186 c 0,0.037 0.046,0.223 0.13,0.548 l 1.394,4.925 0.028,0.112 c 0,0.037 -0.038,0.055 -0.131,0.055 H 0.669 C 0.576,0.808 0.474,0.753 0.344,0.641 0.177,0.502 -0.046,0.335 -0.353,0.149 c -0.27,-0.158 -0.493,-0.27 -0.669,-0.335 -0.177,-0.074 -0.26,-0.121 -0.27,-0.13 L -1.32,-0.39 -1.329,-0.502 -1.338,-0.558 -1.32,-0.585 h 0.01 0.009 l 0.065,0.018 c 0.019,0 0.065,0.009 0.158,0.056 0.028,0.009 0.195,0.093 0.483,0.223 C -0.502,-0.251 -0.307,-0.149 0,0" /></g><g
           transform="translate(617.2123,415.2661)"
           id="g316"><path
             id="path318"
             style="fill:#ffffff;fill-opacity:1;fill-rule:nonzero;stroke:none"
             d="M 0,0 C 0.352,0.576 0.592,0.8 0.864,0.8 1.297,0.8 1.793,-0.272 2.129,-1.889 1.136,-3.585 0.432,-4.482 0.08,-4.482 l -0.176,0.064 c -0.224,0.176 -0.304,0.208 -0.448,0.208 -0.272,0 -0.448,-0.24 -0.448,-0.608 0,-0.416 0.192,-0.672 0.512,-0.672 0.368,0 0.688,0.192 1.12,0.688 0.464,0.512 1.185,1.521 1.649,2.305 l 0.064,-0.256 c 0.32,-1.297 0.416,-1.649 0.544,-1.905 0.288,-0.592 0.656,-0.88 1.137,-0.88 0.576,0 1.072,0.352 1.536,1.072 0.176,0.256 0.32,0.528 0.4,0.737 l 0.096,0.24 -0.352,0.176 -0.16,-0.304 C 5.282,-4.114 4.866,-4.482 4.53,-4.482 c -0.256,0 -0.464,0.144 -0.672,0.512 -0.337,0.545 -0.625,1.473 -0.785,2.433 0.288,0.481 0.721,1.105 1.057,1.569 0.464,0.608 0.704,0.816 0.944,0.816 0.144,0 0.208,-0.096 0.256,-0.352 0.048,-0.256 0.16,-0.352 0.416,-0.352 0.32,0 0.513,0.288 0.513,0.752 0,0.545 -0.273,0.913 -0.689,0.913 -0.576,0 -1.12,-0.4 -1.648,-1.201 L 3.089,-0.656 2.929,-0.864 C 2.849,-0.608 2.817,-0.512 2.657,0.176 2.401,1.281 1.969,1.809 1.313,1.809 0.688,1.809 0.368,1.489 -0.32,0.16 Z" /></g><g
           transform="translate(624.0089,415.2999)"
           id="g320"><path
             id="path322"
             style="fill:#ffffff;fill-opacity:1;fill-rule:nonzero;stroke:none"
             d="M 0,0 H 3.262 L 3.671,0.697 H 0.929 c 0.075,0.074 0.363,0.353 0.874,0.836 0.808,0.762 1.375,1.441 1.691,2.063 0.195,0.4 0.297,0.799 0.297,1.19 0,0.455 -0.111,0.817 -0.353,1.078 C 3.215,6.105 2.927,6.226 2.555,6.226 1.97,6.226 1.366,5.901 0.753,5.25 0.632,5.12 0.567,5.046 0.567,5.009 L 0.623,4.934 0.706,4.86 0.762,4.832 0.799,4.851 C 1.013,5.055 1.152,5.176 1.217,5.222 1.533,5.436 1.849,5.548 2.184,5.548 2.435,5.548 2.621,5.455 2.769,5.269 2.918,5.083 2.992,4.841 2.992,4.526 2.992,4.079 2.862,3.615 2.593,3.132 2.342,2.676 1.877,2.1 1.199,1.403 0.762,0.948 0.362,0.567 0,0.251 Z" /></g><g
           transform="translate(623.681,563.3367)"
           id="g324"><path
             id="path326"
             style="fill:#ffffff;fill-opacity:1;fill-rule:nonzero;stroke:none"
             d="M 0,0 C 0.8,-0.096 0.992,-0.208 0.992,-0.576 0.992,-0.768 0.944,-1.072 0.864,-1.377 0.752,-1.777 0.656,-2.161 0.56,-2.545 0.288,-3.682 -0.256,-5.602 -0.64,-6.883 L -1.345,-9.14 c -0.48,-1.632 -0.48,-1.632 -0.48,-1.808 0,-0.497 0.64,-0.961 1.361,-0.961 2.465,0 5.954,3.394 5.954,5.763 0,0.896 -0.56,1.584 -1.28,1.584 -1.169,0 -2.385,-1.008 -4.242,-3.521 L 2.257,-0.64 2.529,0.176 C 2.561,0.288 2.593,0.384 2.625,0.464 L 2.673,0.64 c 0,0.08 -0.064,0.128 -0.16,0.128 H 2.369 c -0.096,0 -0.16,0 -0.4,-0.064 C 1.713,0.656 1.457,0.592 1.184,0.528 0.96,0.496 0.72,0.464 0.448,0.432 l -0.4,-0.064 z m 3.714,-5.362 c 0.32,-0.032 0.528,-0.352 0.528,-0.8 0,-0.865 -0.801,-2.337 -2.001,-3.682 -0.752,-0.848 -1.521,-1.345 -2.081,-1.345 -0.496,0 -0.832,0.337 -0.832,0.817 0,0.384 0.304,0.992 1.008,2.001 1.249,1.808 2.673,3.073 3.378,3.009" /></g></g></g><g
       id="g328"><g
         clip-path="url(#clipPath334)"
         id="g330"><g
           transform="translate(229.3063,395.3706)"
           id="g336"><path
             id="path338"
             style="fill:#ffffff;fill-opacity:1;fill-rule:nonzero;stroke:none"
             d="M 0,0 V -5.22 C 0,-5.312 0.035,-5.389 0.106,-5.449 0.177,-5.51 0.263,-5.54 0.364,-5.54 l 0.248,0.091 c 0.077,0.06 0.115,0.137 0.115,0.229 V 0 H 6.068 L 6.298,0.112 6.396,0.354 6.298,0.596 6.068,0.709 H 0.727 v 5.22 c 0,0.092 -0.038,0.168 -0.115,0.229 L 0.364,6.249 C 0.263,6.249 0.177,6.218 0.106,6.158 0.035,6.097 0,6.021 0,5.929 v -5.22 h -5.34 c -0.101,0 -0.184,-0.038 -0.249,-0.113 L -5.686,0.354 -5.589,0.112 C -5.524,0.037 -5.441,0 -5.34,0 Z" /></g></g></g><g
       id="g340"><g
         clip-path="url(#clipPath346)"
         id="g342"><g
           transform="translate(305.9261,394.1742)"
           id="g348"><path
             id="path350"
             style="fill:#ffffff;fill-opacity:1;fill-rule:nonzero;stroke:none"
             d="M 0,0 C 0.145,0.115 0.238,0.252 0.279,0.413 L 1.512,5.216 C 2.299,6.637 3.286,7.348 4.475,7.348 4.789,7.348 5.016,7.233 5.158,7.004 5.3,6.775 5.371,6.497 5.371,6.17 5.371,5.849 5.309,5.448 5.185,4.967 L 3.1,-3.145 3.082,-3.283 c 0,-0.149 0.054,-0.268 0.16,-0.356 0.107,-0.089 0.234,-0.134 0.382,-0.134 0.177,0 0.337,0.052 0.479,0.155 0.142,0.103 0.23,0.238 0.266,0.404 L 6.48,4.933 C 6.563,5.231 6.604,5.554 6.604,5.904 6.604,6.511 6.413,6.979 6.032,7.309 5.65,7.638 5.143,7.803 4.511,7.803 3.949,7.803 3.428,7.671 2.949,7.408 2.47,7.144 2.053,6.783 1.699,6.325 1.699,6.76 1.523,7.116 1.171,7.391 0.819,7.666 0.418,7.803 -0.031,7.803 -0.416,7.803 -0.736,7.657 -0.993,7.365 -1.251,7.073 -1.44,6.749 -1.561,6.394 -1.682,6.038 -1.808,5.606 -1.938,5.096 L -1.894,4.98 -1.787,4.916 h 0.212 l 0.098,0.03 0.053,0.081 c 0.172,0.671 0.349,1.225 0.532,1.663 0.184,0.439 0.465,0.658 0.843,0.658 0.355,0 0.532,-0.253 0.532,-0.757 C 0.483,6.345 0.439,6.059 0.35,5.732 L -1.007,0.481 -1.025,0.327 c 0,-0.149 0.054,-0.27 0.16,-0.361 0.107,-0.092 0.234,-0.138 0.382,-0.138 0.177,0 0.338,0.057 0.483,0.172" /></g></g></g><g
       transform="translate(0,-3)"
       id="g352"><g
         clip-path="url(#clipPath358)"
         id="g354"><g
           transform="translate(315.0648,391.6799)"
           id="g360"><path
             id="path362"
             style="fill:#ffffff;fill-opacity:1;fill-rule:nonzero;stroke:none"
             d="M 0,0 C 0.475,0 0.928,0.168 1.36,0.504 1.791,0.841 2.175,1.255 2.512,1.748 2.849,2.24 3.114,2.719 3.308,3.183 3.733,4.208 3.946,5.179 3.946,6.096 3.946,6.508 3.889,6.919 3.776,7.327 3.662,7.736 3.473,8.08 3.209,8.36 2.945,8.64 2.598,8.781 2.168,8.781 H 2.156 C 1.685,8.781 1.23,8.61 0.79,8.27 0.35,7.93 -0.035,7.518 -0.366,7.036 -0.696,6.553 -0.96,6.072 -1.158,5.591 -1.58,4.566 -1.79,3.599 -1.79,2.691 V 2.679 c 0,-0.405 0.055,-0.813 0.167,-1.226 C -1.512,1.041 -1.324,0.696 -1.059,0.417 -0.795,0.139 -0.446,0 -0.012,0 Z m -0.629,0.888 c -0.113,0.328 -0.17,0.68 -0.17,1.055 0,0.32 0.028,0.632 0.083,0.936 0.056,0.304 0.15,0.725 0.282,1.265 H 2.447 C 2.311,3.628 2.138,3.098 1.93,2.552 1.721,2.006 1.448,1.511 1.109,1.065 0.77,0.619 0.405,0.396 0.012,0.396 c -0.314,0 -0.527,0.164 -0.641,0.492 M 0.675,7.18 c 0.409,0.803 0.899,1.204 1.468,1.204 0.318,0 0.531,-0.16 0.639,-0.48 C 2.889,7.583 2.943,7.227 2.943,6.835 2.943,6.494 2.911,6.151 2.847,5.805 2.783,5.458 2.691,5.069 2.571,4.637 h -2.875 c 0.244,0.892 0.57,1.74 0.979,2.543" /></g></g></g><g
       transform="translate(0,-3)"
       id="g364"><g
         clip-path="url(#clipPath370)"
         id="g366"><g
           transform="translate(323.5845,389.9451)"
           id="g372"><path
             id="path374"
             style="fill:#ffffff;fill-opacity:1;fill-rule:nonzero;stroke:none"
             d="m 0,0 c 0.308,0.159 0.552,0.379 0.731,0.66 0.18,0.28 0.307,0.597 0.381,0.949 0.075,0.353 0.112,0.736 0.112,1.152 0,0.896 -0.177,1.63 -0.532,2.2 -0.355,0.57 -0.964,0.855 -1.828,0.855 -0.862,0 -1.47,-0.285 -1.824,-0.855 -0.355,-0.57 -0.533,-1.304 -0.533,-2.2 0,-0.888 0.179,-1.61 0.535,-2.166 0.356,-0.556 0.963,-0.833 1.822,-0.833 0.449,0 0.828,0.079 1.136,0.238 m -2.1,0.529 c -0.21,0.293 -0.339,0.631 -0.387,1.014 -0.049,0.382 -0.073,0.835 -0.073,1.36 0,0.507 0.024,0.934 0.073,1.282 0.048,0.348 0.176,0.653 0.385,0.913 0.209,0.261 0.53,0.391 0.966,0.391 0.438,0 0.761,-0.13 0.97,-0.391 C 0.042,4.838 0.171,4.533 0.219,4.185 0.267,3.837 0.291,3.41 0.291,2.903 0.291,2.378 0.267,1.925 0.219,1.543 0.171,1.16 0.042,0.822 -0.169,0.529 -0.379,0.235 -0.701,0.088 -1.136,0.088 -1.569,0.088 -1.89,0.235 -2.1,0.529" /></g></g></g><g
       id="g376"><g
         clip-path="url(#clipPath382)"
         id="g378"><g
           transform="translate(484.1684,395.5477)"
           id="g384"><path
             id="path386"
             style="fill:#ffffff;fill-opacity:1;fill-rule:nonzero;stroke:none"
             d="m 0,0 v -5.191 c 0,-0.091 0.035,-0.167 0.106,-0.227 0.07,-0.061 0.156,-0.091 0.256,-0.091 l 0.247,0.091 c 0.076,0.06 0.114,0.136 0.114,0.227 V 0 h 5.31 l 0.23,0.112 0.097,0.24 -0.097,0.241 -0.23,0.112 h -5.31 v 5.19 c 0,0.092 -0.038,0.168 -0.114,0.228 l -0.247,0.09 c -0.1,0 -0.186,-0.03 -0.256,-0.09 C 0.035,6.063 0,5.987 0,5.895 v -5.19 h -5.31 c -0.1,0 -0.182,-0.038 -0.247,-0.112 L -5.654,0.352 -5.557,0.112 C -5.492,0.037 -5.41,0 -5.31,0 Z" /></g></g></g><g
       id="g388"><g
         clip-path="url(#clipPath394)"
         id="g390"><g
           transform="translate(558.2261,394.1742)"
           id="g396"><path
             id="path398"
             style="fill:#ffffff;fill-opacity:1;fill-rule:nonzero;stroke:none"
             d="M 0,0 C 0.145,0.115 0.238,0.252 0.279,0.413 L 1.512,5.216 C 2.299,6.637 3.286,7.348 4.475,7.348 4.789,7.348 5.016,7.233 5.158,7.004 5.3,6.775 5.371,6.497 5.371,6.17 5.371,5.849 5.309,5.448 5.185,4.967 L 3.1,-3.145 3.082,-3.283 c 0,-0.149 0.054,-0.268 0.16,-0.356 0.107,-0.089 0.234,-0.134 0.382,-0.134 0.177,0 0.337,0.052 0.479,0.155 0.142,0.103 0.23,0.238 0.266,0.404 L 6.48,4.933 C 6.563,5.231 6.604,5.554 6.604,5.904 6.604,6.511 6.413,6.979 6.032,7.309 5.65,7.638 5.143,7.803 4.511,7.803 3.949,7.803 3.428,7.671 2.949,7.408 2.47,7.144 2.054,6.783 1.699,6.325 1.699,6.76 1.523,7.116 1.171,7.391 0.819,7.666 0.418,7.803 -0.031,7.803 -0.416,7.803 -0.736,7.657 -0.994,7.365 -1.251,7.073 -1.44,6.749 -1.561,6.394 -1.682,6.038 -1.808,5.606 -1.938,5.096 L -1.894,4.98 -1.787,4.916 h 0.212 l 0.098,0.03 0.053,0.081 c 0.172,0.671 0.349,1.225 0.533,1.663 0.183,0.439 0.464,0.658 0.842,0.658 0.355,0 0.532,-0.253 0.532,-0.757 C 0.483,6.345 0.439,6.059 0.35,5.732 L -1.007,0.481 -1.025,0.327 c 0,-0.149 0.054,-0.27 0.16,-0.361 0.107,-0.092 0.234,-0.138 0.382,-0.138 0.177,0 0.338,0.057 0.483,0.172" /></g></g></g><g
       transform="translate(0,-3)"
       id="g400"><g
         clip-path="url(#clipPath406)"
         id="g402"><g
           transform="translate(567.3647,391.6799)"
           id="g408"><path
             id="path410"
             style="fill:#ffffff;fill-opacity:1;fill-rule:nonzero;stroke:none"
             d="M 0,0 C 0.475,0 0.928,0.168 1.36,0.504 1.791,0.841 2.175,1.255 2.512,1.748 2.849,2.24 3.114,2.719 3.308,3.183 3.733,4.208 3.946,5.179 3.946,6.096 3.946,6.508 3.889,6.919 3.776,7.327 3.662,7.736 3.473,8.08 3.209,8.36 2.945,8.64 2.598,8.781 2.168,8.781 H 2.156 C 1.685,8.781 1.23,8.61 0.79,8.27 0.35,7.93 -0.035,7.518 -0.366,7.036 -0.696,6.553 -0.96,6.072 -1.159,5.591 -1.58,4.566 -1.79,3.599 -1.79,2.691 V 2.679 c 0,-0.405 0.055,-0.813 0.167,-1.226 C -1.512,1.041 -1.324,0.696 -1.059,0.417 -0.795,0.139 -0.446,0 -0.012,0 Z m -0.629,0.888 c -0.113,0.328 -0.17,0.68 -0.17,1.055 0,0.32 0.028,0.632 0.083,0.936 0.056,0.304 0.15,0.725 0.282,1.265 H 2.447 C 2.311,3.628 2.138,3.098 1.93,2.552 1.721,2.006 1.448,1.511 1.109,1.065 0.77,0.619 0.405,0.396 0.012,0.396 c -0.314,0 -0.527,0.164 -0.641,0.492 M 0.675,7.18 c 0.409,0.803 0.899,1.204 1.468,1.204 0.318,0 0.531,-0.16 0.639,-0.48 C 2.889,7.583 2.943,7.227 2.943,6.835 2.943,6.494 2.911,6.151 2.847,5.805 2.783,5.458 2.691,5.069 2.571,4.637 h -2.875 c 0.244,0.892 0.57,1.74 0.979,2.543" /></g></g></g><g
       transform="translate(0,-3)"
       id="g412"><g
         clip-path="url(#clipPath418)"
         id="g414"><g
           transform="translate(576.6881,389.89999)"
           id="g420"><path
             id="path422"
             style="fill:#ffffff;fill-opacity:1;fill-rule:nonzero;stroke:none"
             d="m 0,0 v 0.421 c -0.934,0 -1.401,0.07 -1.401,0.211 v 5.096 l -0.044,0.09 -0.093,0.043 H -1.727 C -1.978,5.646 -2.273,5.499 -2.611,5.418 -2.949,5.338 -3.32,5.298 -3.722,5.298 V 4.877 c 0.273,0 0.532,0.017 0.775,0.052 0.243,0.034 0.47,0.095 0.683,0.184 V 0.632 c 0,-0.141 -0.466,-0.211 -1.397,-0.211 l 0,-0.421 z" /></g></g></g></g></svg>