<?xml version="1.0" encoding="UTF-8" standalone="no"?>
<svg
   xmlns:dc="http://purl.org/dc/elements/1.1/"
   xmlns:cc="http://creativecommons.org/ns#"
   xmlns:rdf="http://www.w3.org/1999/02/22-rdf-syntax-ns#"
   xmlns:svg="http://www.w3.org/2000/svg"
   xmlns="http://www.w3.org/2000/svg"
   viewBox="0 0 894.66669 397.33334"
   height="397.33334"
   width="894.66669"
   xml:space="preserve"
   id="svg2"
   version="1.1"><metadata
     id="metadata8"><rdf:RDF><cc:Work
         rdf:about=""><dc:format>image/svg+xml</dc:format><dc:type
           rdf:resource="http://purl.org/dc/dcmitype/StillImage" /></cc:Work></rdf:RDF></metadata><defs
     id="defs6"><clipPath
       id="clipPath14"
       clipPathUnits="userSpaceOnUse"><path
         id="path12"
         d="M 0,0 H 842 V 595 H 0 Z" /></clipPath><clipPath
       id="clipPath22"
       clipPathUnits="userSpaceOnUse"><path
         style="clip-rule:evenodd"
         id="path20"
         d="M 0,-0.2 H 841.8 V 595 H 0 Z" /></clipPath><clipPath
       id="clipPath34"
       clipPathUnits="userSpaceOnUse"><path
         style="clip-rule:evenodd"
         id="path32"
         d="M 0,-0.2 H 841.8 V 595 H 0 Z" /></clipPath><clipPath
       id="clipPath46"
       clipPathUnits="userSpaceOnUse"><path
         style="clip-rule:evenodd"
         id="path44"
         d="M 0,-0.2 H 841.8 V 595 H 0 Z" /></clipPath><clipPath
       id="clipPath54"
       clipPathUnits="userSpaceOnUse"><path
         id="path52"
         d="m 111.253,373.365 h 227.526 v 145.29 H 111.253 Z" /></clipPath><clipPath
       id="clipPath74"
       clipPathUnits="userSpaceOnUse"><path
         style="clip-rule:evenodd"
         id="path72"
         d="M 0,-0.2 H 841.8 V 595 H 0 Z" /></clipPath><clipPath
       id="clipPath86"
       clipPathUnits="userSpaceOnUse"><path
         style="clip-rule:evenodd"
         id="path84"
         d="M 0,-0.2 H 841.8 V 595 H 0 Z" /></clipPath><clipPath
       id="clipPath94"
       clipPathUnits="userSpaceOnUse"><path
         id="path92"
         d="M 135.676,400.684 H 295.73 v 102.38 H 135.676 Z" /></clipPath><clipPath
       id="clipPath114"
       clipPathUnits="userSpaceOnUse"><path
         style="clip-rule:evenodd"
         id="path112"
         d="M 0,-0.2 H 841.8 V 595 H 0 Z" /></clipPath><clipPath
       id="clipPath126"
       clipPathUnits="userSpaceOnUse"><path
         style="clip-rule:evenodd"
         id="path124"
         d="M 0,-0.2 H 841.8 V 595 H 0 Z" /></clipPath><clipPath
       id="clipPath134"
       clipPathUnits="userSpaceOnUse"><path
         id="path132"
         d="M 154.302,420.277 H 260.545 V 488.3 H 154.302 Z" /></clipPath><clipPath
       id="clipPath154"
       clipPathUnits="userSpaceOnUse"><path
         style="clip-rule:evenodd"
         id="path152"
         d="M 0,-0.2 H 841.8 V 595 H 0 Z" /></clipPath><clipPath
       id="clipPath166"
       clipPathUnits="userSpaceOnUse"><path
         style="clip-rule:evenodd"
         id="path164"
         d="M 0,-0.2 H 841.8 V 595 H 0 Z" /></clipPath><clipPath
       id="clipPath174"
       clipPathUnits="userSpaceOnUse"><path
         id="path172"
         d="m 173.757,445.113 h 47.741 v 30.631 h -47.741 z" /></clipPath><clipPath
       id="clipPath194"
       clipPathUnits="userSpaceOnUse"><path
         style="clip-rule:evenodd"
         id="path192"
         d="M 0,-0.2 H 841.8 V 595 H 0 Z" /></clipPath><clipPath
       id="clipPath206"
       clipPathUnits="userSpaceOnUse"><path
         style="clip-rule:evenodd"
         id="path204"
         d="M 0,-0.2 H 841.8 V 595 H 0 Z" /></clipPath><clipPath
       id="clipPath214"
       clipPathUnits="userSpaceOnUse"><path
         id="path212"
         d="m 186.313,452.564 h 23.318 v 15.315 h -23.318 z" /></clipPath><clipPath
       id="clipPath234"
       clipPathUnits="userSpaceOnUse"><path
         style="clip-rule:evenodd"
         id="path232"
         d="M 0,-0.2 H 841.8 V 595 H 0 Z" /></clipPath><clipPath
       id="clipPath246"
       clipPathUnits="userSpaceOnUse"><path
         style="clip-rule:evenodd"
         id="path244"
         d="M 0,-0.2 H 841.8 V 595 H 0 Z" /></clipPath><clipPath
       id="clipPath258"
       clipPathUnits="userSpaceOnUse"><path
         style="clip-rule:evenodd"
         id="path256"
         d="M 0,-0.2 H 841.8 V 595 H 0 Z" /></clipPath><clipPath
       id="clipPath270"
       clipPathUnits="userSpaceOnUse"><path
         style="clip-rule:evenodd"
         id="path268"
         d="M 0,-0.2 H 841.8 V 595 H 0 Z" /></clipPath><clipPath
       id="clipPath282"
       clipPathUnits="userSpaceOnUse"><path
         style="clip-rule:evenodd"
         id="path280"
         d="M 0,-0.2 H 841.8 V 595 H 0 Z" /></clipPath><clipPath
       id="clipPath294"
       clipPathUnits="userSpaceOnUse"><path
         style="clip-rule:evenodd"
         id="path292"
         d="M 0,-0.2 H 841.8 V 595 H 0 Z" /></clipPath><clipPath
       id="clipPath306"
       clipPathUnits="userSpaceOnUse"><path
         style="clip-rule:evenodd"
         id="path304"
         d="M 0,-0.2 H 841.8 V 595 H 0 Z" /></clipPath><clipPath
       id="clipPath318"
       clipPathUnits="userSpaceOnUse"><path
         style="clip-rule:evenodd"
         id="path316"
         d="M 0,-0.2 H 841.8 V 595 H 0 Z" /></clipPath><clipPath
       id="clipPath330"
       clipPathUnits="userSpaceOnUse"><path
         style="clip-rule:evenodd"
         id="path328"
         d="M 0,-0.2 H 841.8 V 595 H 0 Z" /></clipPath><clipPath
       id="clipPath338"
       clipPathUnits="userSpaceOnUse"><path
         id="path336"
         d="m 448.471,375.434 h 229.87 V 497.82 h -229.87 z" /></clipPath><clipPath
       id="clipPath358"
       clipPathUnits="userSpaceOnUse"><path
         style="clip-rule:evenodd"
         id="path356"
         d="M 0,-0.2 H 841.8 V 595 H 0 Z" /></clipPath><clipPath
       id="clipPath370"
       clipPathUnits="userSpaceOnUse"><path
         style="clip-rule:evenodd"
         id="path368"
         d="M 0,-0.2 H 841.8 V 595 H 0 Z" /></clipPath><clipPath
       id="clipPath378"
       clipPathUnits="userSpaceOnUse"><path
         id="path376"
         d="M 494.003,387.852 H 654.195 V 473.26 H 494.003 Z" /></clipPath><clipPath
       id="clipPath398"
       clipPathUnits="userSpaceOnUse"><path
         style="clip-rule:evenodd"
         id="path396"
         d="M 0,-0.2 H 841.8 V 595 H 0 Z" /></clipPath><clipPath
       id="clipPath410"
       clipPathUnits="userSpaceOnUse"><path
         style="clip-rule:evenodd"
         id="path408"
         d="M 0,-0.2 H 841.8 V 595 H 0 Z" /></clipPath><clipPath
       id="clipPath418"
       clipPathUnits="userSpaceOnUse"><path
         id="path416"
         d="m 530.567,396.821 h 111.072 v 59.33 H 530.567 Z" /></clipPath><clipPath
       id="clipPath438"
       clipPathUnits="userSpaceOnUse"><path
         style="clip-rule:evenodd"
         id="path436"
         d="M 0,-0.2 H 841.8 V 595 H 0 Z" /></clipPath><clipPath
       id="clipPath450"
       clipPathUnits="userSpaceOnUse"><path
         style="clip-rule:evenodd"
         id="path448"
         d="M 0,-0.2 H 841.8 V 595 H 0 Z" /></clipPath><clipPath
       id="clipPath458"
       clipPathUnits="userSpaceOnUse"><path
         id="path456"
         d="m 555.127,405.238 h 70.231 v 37.667 h -70.231 z" /></clipPath><clipPath
       id="clipPath478"
       clipPathUnits="userSpaceOnUse"><path
         style="clip-rule:evenodd"
         id="path476"
         d="M 0,-0.2 H 841.8 V 595 H 0 Z" /></clipPath><clipPath
       id="clipPath490"
       clipPathUnits="userSpaceOnUse"><path
         style="clip-rule:evenodd"
         id="path488"
         d="M 0,-0.2 H 841.8 V 595 H 0 Z" /></clipPath><clipPath
       id="clipPath498"
       clipPathUnits="userSpaceOnUse"><path
         id="path496"
         d="m 579.687,411.584 h 33.391 v 18.076 h -33.391 z" /></clipPath><clipPath
       id="clipPath518"
       clipPathUnits="userSpaceOnUse"><path
         style="clip-rule:evenodd"
         id="path516"
         d="M 0,-0.2 H 841.8 V 595 H 0 Z" /></clipPath><clipPath
       id="clipPath530"
       clipPathUnits="userSpaceOnUse"><path
         style="clip-rule:evenodd"
         id="path528"
         d="M 0,-0.2 H 841.8 V 595 H 0 Z" /></clipPath><clipPath
       id="clipPath542"
       clipPathUnits="userSpaceOnUse"><path
         style="clip-rule:evenodd"
         id="path540"
         d="M 0,-0.2 H 841.8 V 595 H 0 Z" /></clipPath><clipPath
       id="clipPath554"
       clipPathUnits="userSpaceOnUse"><path
         style="clip-rule:evenodd"
         id="path552"
         d="M 0,-0.2 H 841.8 V 595 H 0 Z" /></clipPath></defs><g
     clip-path="url(#clipPath14)"
     transform="matrix(1.3333333,0,0,-1.3333333,-84,745.33333)"
     id="g10"><g
       transform="matrix(1.379776,0,0,1.379776,-33.140091,-204.83044)"
       id="g16"><g
         clip-path="url(#clipPath22)"
         id="g18"><g
           transform="translate(185.7,396.6)"
           id="g24"><path
             id="path26"
             style="fill:#cfe7f5;fill-opacity:1;fill-rule:evenodd;stroke:none"
             d="M 0,0 H -97.8 V 141.7 H 97.8 V 0 Z" /></g></g></g><g
       transform="matrix(1.379776,0,0,1.379776,-33.140091,-204.83044)"
       id="g28"><g
         clip-path="url(#clipPath34)"
         id="g30"><g
           transform="translate(185.7,396.6)"
           id="g36"><path
             id="path38"
             style="fill:none;stroke:#808080;stroke-width:0.54356647;stroke-linecap:butt;stroke-linejoin:round;stroke-miterlimit:10;stroke-dasharray:none;stroke-opacity:1"
             d="M 0,0 H -97.8 V 141.7 H 97.8 V 0 Z" /></g></g></g><g
       id="g40"><g
         clip-path="url(#clipPath46)"
         id="g42"><g
           id="g48"><g
             id="g50" /><g
             id="g66"><g
               style="opacity:0.2"
               id="g64"
               clip-path="url(#clipPath54)"><g
                 id="g62"><g
                   id="g60"
                   transform="matrix(1.379776,0,0,1.379776,-33.140091,-204.83044)"><g
                     id="g58"
                     transform="translate(187.1,419.3)"><path
                       id="path56"
                       style="fill:#ff6600;fill-opacity:1;fill-rule:evenodd;stroke:none"
                       d="m 0,0 c -15.2,0 -28,2.2 -41.1,7 -13.1,4.8 -22.6,10.8 -30.1,19.2 -7.6,8.3 -11,16.5 -11,26.2 0,9.7 3.4,17.9 11,26.2 7.5,8.4 17,14.4 30.1,19.2 13.1,4.8 25.9,7 41.1,7 15.1,0 28,-2.2 41.1,-7 C 54.2,93 63.6,87 71.2,78.6 c 7.5,-8.3 11,-16.5 11,-26.2 0,-9.7 -3.5,-17.9 -11,-26.2 C 63.6,17.8 54.2,11.8 41.1,7 28,2.2 15.1,0 0,0 Z" /></g></g></g></g></g></g></g></g><g
       transform="matrix(1.379776,0,0,1.379776,-33.140091,-204.83044)"
       id="g68"><g
         clip-path="url(#clipPath74)"
         id="g70"><g
           transform="translate(187.1,419.3)"
           id="g76"><path
             id="path78"
             style="fill:none;stroke:#808080;stroke-width:0.54356647;stroke-linecap:butt;stroke-linejoin:round;stroke-miterlimit:10;stroke-dasharray:none;stroke-opacity:1"
             d="m 0,0 c -15.2,0 -28,2.2 -41.1,7 -13.1,4.8 -22.6,10.8 -30.1,19.2 -7.6,8.3 -11,16.5 -11,26.2 0,9.7 3.4,17.9 11,26.2 7.5,8.4 17,14.4 30.1,19.2 13.1,4.8 25.9,7 41.1,7 15.1,0 28,-2.2 41.1,-7 C 54.2,93 63.6,87 71.2,78.6 c 7.5,-8.3 11,-16.5 11,-26.2 0,-9.7 -3.5,-17.9 -11,-26.2 C 63.6,17.8 54.2,11.8 41.1,7 28,2.2 15.1,0 0,0 Z" /></g></g></g><g
       id="g80"><g
         clip-path="url(#clipPath86)"
         id="g82"><g
           id="g88"><g
             id="g90" /><g
             id="g106"><g
               style="opacity:0.2"
               id="g104"
               clip-path="url(#clipPath94)"><g
                 id="g102"><g
                   id="g100"
                   transform="matrix(1.379776,0,0,1.379776,-33.140091,-204.83044)"><g
                     id="g98"
                     transform="translate(180.4,439.1)"><path
                       id="path96"
                       style="fill:#ff6600;fill-opacity:1;fill-rule:evenodd;stroke:none"
                       d="m 0,0 c -10.7,0 -19.7,1.6 -28.9,4.9 -9.2,3.4 -15.8,7.7 -21.2,13.5 -5.3,5.9 -7.7,11.7 -7.7,18.4 0,6.8 2.4,12.6 7.7,18.5 5.4,5.8 12,10.1 21.2,13.5 9.2,3.3 18.2,4.9 28.8,4.9 10.7,0 19.7,-1.6 28.9,-4.9 C 38,65.4 44.6,61.1 50,55.3 55.3,49.4 57.7,43.6 57.7,36.8 57.7,30.1 55.3,24.3 50,18.4 44.6,12.6 38,8.3 28.8,4.9 19.6,1.6 10.6,0 0,0 Z" /></g></g></g></g></g></g></g></g><g
       transform="matrix(1.379776,0,0,1.379776,-33.140091,-204.83044)"
       id="g108"><g
         clip-path="url(#clipPath114)"
         id="g110"><g
           transform="translate(180.4,439.1)"
           id="g116"><path
             id="path118"
             style="fill:none;stroke:#808080;stroke-width:0.54356647;stroke-linecap:butt;stroke-linejoin:round;stroke-miterlimit:10;stroke-dasharray:none;stroke-opacity:1"
             d="m 0,0 c -10.7,0 -19.7,1.6 -28.9,4.9 -9.2,3.4 -15.8,7.7 -21.2,13.5 -5.3,5.9 -7.7,11.7 -7.7,18.4 0,6.8 2.4,12.6 7.7,18.5 5.4,5.8 12,10.1 21.2,13.5 9.2,3.3 18.2,4.9 28.8,4.9 10.7,0 19.7,-1.6 28.9,-4.9 C 38,65.4 44.6,61.1 50,55.3 55.3,49.4 57.7,43.6 57.7,36.8 57.7,30.1 55.3,24.3 50,18.4 44.6,12.6 38,8.3 28.8,4.9 19.6,1.6 10.6,0 0,0 Z" /></g></g></g><g
       id="g120"><g
         clip-path="url(#clipPath126)"
         id="g122"><g
           id="g128"><g
             id="g130" /><g
             id="g146"><g
               style="opacity:0.2"
               id="g144"
               clip-path="url(#clipPath134)"><g
                 id="g142"><g
                   id="g140"
                   transform="matrix(1.379776,0,0,1.379776,-33.140091,-204.83044)"><g
                     id="g138"
                     transform="translate(174.3,453.3)"><path
                       id="path136"
                       style="fill:#ff6600;fill-opacity:1;fill-rule:evenodd;stroke:none"
                       d="m 0,0 c -7,0 -13,1 -19.1,3.2 -6.1,2.3 -10.5,5.1 -14,9 -3.5,3.9 -5.1,7.7 -5.1,12.2 0,4.5 1.6,8.3 5.1,12.2 3.5,3.9 7.9,6.7 14,8.9 6.1,2.3 12.1,3.3 19.1,3.3 7.1,0 13.1,-1 19.2,-3.3 6.1,-2.2 10.5,-5 14,-8.9 3.5,-3.9 5.1,-7.7 5.1,-12.2 0,-4.5 -1.6,-8.3 -5.1,-12.2 C 29.7,8.3 25.3,5.5 19.2,3.2 13.1,1 7.1,0 0,0 Z" /></g></g></g></g></g></g></g></g><g
       transform="matrix(1.379776,0,0,1.379776,-33.140091,-204.83044)"
       id="g148"><g
         clip-path="url(#clipPath154)"
         id="g150"><g
           transform="translate(174.3,453.3)"
           id="g156"><path
             id="path158"
             style="fill:none;stroke:#808080;stroke-width:0.54356647;stroke-linecap:butt;stroke-linejoin:round;stroke-miterlimit:10;stroke-dasharray:none;stroke-opacity:1"
             d="m 0,0 c -7,0 -13,1 -19.1,3.2 -6.1,2.3 -10.5,5.1 -14,9 -3.5,3.9 -5.1,7.7 -5.1,12.2 0,4.5 1.6,8.3 5.1,12.2 3.5,3.9 7.9,6.7 14,8.9 6.1,2.3 12.1,3.3 19.1,3.3 7.1,0 13.1,-1 19.2,-3.3 6.1,-2.2 10.5,-5 14,-8.9 3.5,-3.9 5.1,-7.7 5.1,-12.2 0,-4.5 -1.6,-8.3 -5.1,-12.2 C 29.7,8.3 25.3,5.5 19.2,3.2 13.1,1 7.1,0 0,0 Z" /></g></g></g><g
       id="g160"><g
         clip-path="url(#clipPath166)"
         id="g162"><g
           id="g168"><g
             id="g170" /><g
             id="g186"><g
               style="opacity:0.2"
               id="g184"
               clip-path="url(#clipPath174)"><g
                 id="g182"><g
                   id="g180"
                   transform="matrix(1.379776,0,0,1.379776,-33.140091,-204.83044)"><g
                     id="g178"
                     transform="translate(167.2,471.3)"><path
                       id="path176"
                       style="fill:#ff6600;fill-opacity:1;fill-rule:evenodd;stroke:none"
                       d="m 0,0 c -3.1,0 -5.7,0.5 -8.5,1.5 -2.7,1 -4.6,2.2 -6.2,3.9 -1.6,1.8 -2.3,3.5 -2.3,5.5 0,2 0.7,3.7 2.3,5.4 1.6,1.8 3.5,3 6.2,4 2.8,1 5.4,1.4 8.5,1.4 3.2,0 5.8,-0.4 8.5,-1.4 2.8,-1 4.7,-2.2 6.3,-4 1.5,-1.7 2.3,-3.4 2.3,-5.4 0,-2 -0.8,-3.7 -2.3,-5.5 C 13.2,3.7 11.3,2.5 8.5,1.5 5.8,0.5 3.2,0 0,0 Z" /></g></g></g></g></g></g></g></g><g
       transform="matrix(1.379776,0,0,1.379776,-33.140091,-204.83044)"
       id="g188"><g
         clip-path="url(#clipPath194)"
         id="g190"><g
           transform="translate(167.2,471.3)"
           id="g196"><path
             id="path198"
             style="fill:none;stroke:#808080;stroke-width:0.54356647;stroke-linecap:butt;stroke-linejoin:round;stroke-miterlimit:10;stroke-dasharray:none;stroke-opacity:1"
             d="m 0,0 c -3.1,0 -5.7,0.5 -8.5,1.5 -2.7,1 -4.6,2.2 -6.2,3.9 -1.6,1.8 -2.3,3.5 -2.3,5.5 0,2 0.7,3.7 2.3,5.4 1.6,1.8 3.5,3 6.2,4 2.8,1 5.4,1.4 8.5,1.4 3.2,0 5.8,-0.4 8.5,-1.4 2.8,-1 4.7,-2.2 6.3,-4 1.5,-1.7 2.3,-3.4 2.3,-5.4 0,-2 -0.8,-3.7 -2.3,-5.5 C 13.2,3.7 11.3,2.5 8.5,1.5 5.8,0.5 3.2,0 0,0 Z" /></g></g></g><g
       id="g200"><g
         clip-path="url(#clipPath206)"
         id="g202"><g
           id="g208"><g
             id="g210" /><g
             id="g226"><g
               style="opacity:0.2"
               id="g224"
               clip-path="url(#clipPath214)"><g
                 id="g222"><g
                   id="g220"
                   transform="matrix(1.379776,0,0,1.379776,-33.140091,-204.83044)"><g
                     id="g218"
                     transform="translate(167.5,476.7)"><path
                       id="path216"
                       style="fill:#ff6600;fill-opacity:1;fill-rule:evenodd;stroke:none"
                       d="m 0,0 c -1.5,0 -2.8,0.3 -4.1,0.7 -1.3,0.5 -2.3,1.1 -3,2 -0.8,0.8 -1.1,1.6 -1.1,2.6 0,1 0.3,1.8 1.1,2.6 0.7,0.9 1.7,1.5 3,2 1.3,0.5 2.6,0.7 4.1,0.7 1.5,0 2.8,-0.2 4.1,-0.7 1.3,-0.5 2.3,-1.1 3,-2 C 7.9,7.1 8.2,6.3 8.2,5.3 8.2,4.3 7.9,3.5 7.1,2.7 6.4,1.8 5.4,1.2 4.1,0.7 2.8,0.3 1.5,0 0,0 Z" /></g></g></g></g></g></g></g></g><g
       transform="matrix(1.379776,0,0,1.379776,-33.140091,-204.83044)"
       id="g228"><g
         clip-path="url(#clipPath234)"
         id="g230"><g
           transform="translate(167.5,476.7)"
           id="g236"><path
             id="path238"
             style="fill:none;stroke:#808080;stroke-width:0.54356647;stroke-linecap:butt;stroke-linejoin:round;stroke-miterlimit:10;stroke-dasharray:none;stroke-opacity:1"
             d="m 0,0 c -1.5,0 -2.8,0.3 -4.1,0.7 -1.3,0.5 -2.3,1.1 -3,2 -0.8,0.8 -1.1,1.6 -1.1,2.6 0,1 0.3,1.8 1.1,2.6 0.7,0.9 1.7,1.5 3,2 1.3,0.5 2.6,0.7 4.1,0.7 1.5,0 2.8,-0.2 4.1,-0.7 1.3,-0.5 2.3,-1.1 3,-2 C 7.9,7.1 8.2,6.3 8.2,5.3 8.2,4.3 7.9,3.5 7.1,2.7 6.4,1.8 5.4,1.2 4.1,0.7 2.8,0.3 1.5,0 0,0 Z" /></g></g></g><g
       transform="matrix(1.379776,0,0,1.379776,-33.140091,-204.83044)"
       id="g240"><g
         clip-path="url(#clipPath246)"
         id="g242"><g
           transform="translate(252.3,413.6)"
           id="g248"><path
             id="path250"
             style="fill:#ff3333;fill-opacity:1;fill-rule:evenodd;stroke:none"
             d="m 0,0 c -1.1,0 -1.9,0.2 -2.9,0.7 -0.9,0.6 -1.5,1.2 -2,2.1 -0.6,0.9 -0.8,1.8 -0.8,2.9 0,1 0.2,1.9 0.8,2.8 0.5,0.9 1.1,1.5 2,2.1 1,0.5 1.8,0.7 2.9,0.7 1,0 1.9,-0.2 2.8,-0.7 C 3.7,10 4.4,9.4 4.9,8.5 5.4,7.6 5.7,6.7 5.7,5.7 5.7,4.6 5.4,3.7 4.9,2.8 4.4,1.9 3.7,1.3 2.8,0.7 1.9,0.2 1,0 0,0 Z" /></g></g></g><g
       transform="matrix(1.379776,0,0,1.379776,-33.140091,-204.83044)"
       id="g252"><g
         clip-path="url(#clipPath258)"
         id="g254"><g
           transform="translate(252.3,422.1)"
           id="g260"><path
             id="path262"
             style="fill:none;stroke:#ff3333;stroke-width:1.5;stroke-linecap:butt;stroke-linejoin:round;stroke-miterlimit:10;stroke-dasharray:none;stroke-opacity:1"
             d="M 0,0 C -56.7,65.2 -61.1,54.5 -74.1,58.2" /></g></g></g><g
       transform="matrix(1.379776,0,0,1.379776,-33.140091,-204.83044)"
       id="g264"><g
         clip-path="url(#clipPath270)"
         id="g266"><g
           transform="translate(167.2,481.6)"
           id="g272"><path
             id="path274"
             style="fill:#ff3333;fill-opacity:1;fill-rule:evenodd;stroke:none"
             d="m 0,0 11.3,-5.4 1,7.8 z" /></g></g></g><g
       transform="matrix(1.379776,0,0,1.379776,-33.140091,-204.83044)"
       id="g276"><g
         clip-path="url(#clipPath282)"
         id="g278"><g
           transform="translate(438,396.6)"
           id="g284"><path
             id="path286"
             style="fill:#cfe7f5;fill-opacity:1;fill-rule:evenodd;stroke:none"
             d="M 0,0 H -97.8 V 141.7 H 97.7 V 0 Z" /></g></g></g><g
       transform="matrix(1.379776,0,0,1.379776,-33.140091,-204.83044)"
       id="g288"><g
         clip-path="url(#clipPath294)"
         id="g290"><g
           transform="translate(438,396.6)"
           id="g296"><path
             id="path298"
             style="fill:none;stroke:#808080;stroke-width:0.54356647;stroke-linecap:butt;stroke-linejoin:round;stroke-miterlimit:10;stroke-dasharray:none;stroke-opacity:1"
             d="M 0,0 H -97.8 V 141.7 H 97.7 V 0 Z" /></g></g></g><g
       transform="matrix(1.379776,0,0,1.379776,-33.140091,-204.83044)"
       id="g300"><g
         clip-path="url(#clipPath306)"
         id="g302"><g
           transform="translate(504.6,422.1)"
           id="g308"><path
             id="path310"
             style="fill:none;stroke:#ff3333;stroke-width:1.5;stroke-linecap:butt;stroke-linejoin:round;stroke-miterlimit:10;stroke-dasharray:none;stroke-opacity:1"
             d="M 0,0 C -56.7,65.2 -61.1,54.5 -74.2,58.2" /></g></g></g><g
       transform="matrix(1.379776,0,0,1.379776,-33.140091,-204.83044)"
       id="g312"><g
         clip-path="url(#clipPath318)"
         id="g314"><g
           transform="translate(419.5,481.6)"
           id="g320"><path
             id="path322"
             style="fill:#ff3333;fill-opacity:1;fill-rule:evenodd;stroke:none"
             d="m 0,0 11.3,-5.4 1,7.8 z" /></g></g></g><g
       id="g324"><g
         clip-path="url(#clipPath330)"
         id="g326"><g
           id="g332"><g
             id="g334" /><g
             id="g350"><g
               style="opacity:0.2"
               id="g348"
               clip-path="url(#clipPath338)"><g
                 id="g346"><g
                   id="g344"
                   transform="matrix(1.379776,0,0,1.379776,-33.140091,-204.83044)"><g
                     id="g342"
                     transform="translate(432.7,420.8)"><path
                       id="path340"
                       style="fill:#ff6600;fill-opacity:1;fill-rule:evenodd;stroke:none"
                       d="m 0,0 c -5.5,6.4 -11,12.7 -18.1,18 -7.1,5.4 -14.3,9.3 -21.4,14.1 -7,4.7 -15,8.1 -20.8,14.1 -6.1,6.3 -11.8,12.4 -16.7,20.1 -6.4,9.9 5.9,13 11.3,14.8 6.7,2.1 13.8,1.7 20.8,2 6.8,0.2 13.3,-1.1 20.1,-0.7 6.7,0.4 13.4,-0.1 20.1,0 6.7,0.1 13.4,0.2 20.2,0.7 6.6,0.4 13.3,-0.3 20.1,-0.7 6.6,-0.4 13.2,0.4 20.1,1.3 6.7,1 14.1,4.5 20.1,1.4 6.9,-3.6 3.6,-13.9 2.6,-20.8 C 77.6,57.5 75.6,50.8 73.8,44.2 71.9,37.4 69.4,30.8 67.1,24.1 64.2,15.8 56.5,12.1 49.6,8.7 43.6,5.6 36.5,5.5 29.5,5.3 22.8,5.1 16.1,4.9 9.4,4.6 H 2.7 L 0,2.6 Z" /></g></g></g></g></g></g></g></g><g
       transform="matrix(1.379776,0,0,1.379776,-33.140091,-204.83044)"
       id="g352"><g
         clip-path="url(#clipPath358)"
         id="g354"><g
           transform="translate(432.7,420.8)"
           id="g360"><path
             id="path362"
             style="fill:none;stroke:#808080;stroke-width:0.54356647;stroke-linecap:butt;stroke-linejoin:round;stroke-miterlimit:10;stroke-dasharray:none;stroke-opacity:1"
             d="m 0,0 c -5.5,6.4 -11,12.7 -18.1,18 -7.1,5.4 -14.3,9.3 -21.4,14.1 -7,4.7 -15,8.1 -20.8,14.1 -6.1,6.3 -11.8,12.4 -16.7,20.1 -6.4,9.9 5.9,13 11.3,14.8 6.7,2.1 13.8,1.7 20.8,2 6.8,0.2 13.3,-1.1 20.1,-0.7 6.7,0.4 13.4,-0.1 20.1,0 6.7,0.1 13.4,0.2 20.2,0.7 6.6,0.4 13.3,-0.3 20.1,-0.7 6.6,-0.4 13.2,0.4 20.1,1.3 6.7,1 14.1,4.5 20.1,1.4 6.9,-3.6 3.6,-13.9 2.6,-20.8 C 77.6,57.5 75.6,50.8 73.8,44.2 71.9,37.4 69.4,30.8 67.1,24.1 64.2,15.8 56.5,12.1 49.6,8.7 43.6,5.6 36.5,5.5 29.5,5.3 22.8,5.1 16.1,4.9 9.4,4.6 H 2.7 L 0,2.6 Z" /></g></g></g><g
       id="g364"><g
         clip-path="url(#clipPath370)"
         id="g366"><g
           id="g372"><g
             id="g374" /><g
             id="g390"><g
               style="opacity:0.2"
               id="g388"
               clip-path="url(#clipPath378)"><g
                 id="g386"><g
                   id="g384"
                   transform="matrix(1.379776,0,0,1.379776,-33.140091,-204.83044)"><g
                     id="g382"
                     transform="translate(440.4,429.8)"><path
                       id="path380"
                       style="fill:#ff6600;fill-opacity:1;fill-rule:evenodd;stroke:none"
                       d="m 0,0 c -3.9,4.5 -7.7,8.9 -12.6,12.6 -5,3.7 -9.9,6.4 -14.9,9.8 -4.9,3.3 -10.5,5.6 -14.5,9.8 -4.3,4.4 -8.2,8.6 -11.7,14 -4.4,6.9 4.2,9 8,10.2 4.6,1.5 9.5,1.3 14.4,1.4 4.8,0.2 9.3,-0.7 14,-0.4 4.7,0.2 9.4,-0.1 14,0 4.7,0 9.3,0.1 14,0.4 4.7,0.4 9.3,-0.2 14,-0.4 4.7,-0.3 9.2,0.2 14,0.9 4.7,0.7 9.8,3.1 14,0.9 4.8,-2.4 2.5,-9.6 1.9,-14.4 C 54,40 52.6,35.4 51.3,30.8 50,26.1 48.3,21.5 46.6,16.8 44.6,11 39.3,8.5 34.5,6.1 30.3,3.9 25.4,3.8 20.5,3.7 15.8,3.6 11.2,3.4 6.5,3.3 H 1.9 L 0,1.8 Z" /></g></g></g></g></g></g></g></g><g
       transform="matrix(1.379776,0,0,1.379776,-33.140091,-204.83044)"
       id="g392"><g
         clip-path="url(#clipPath398)"
         id="g394"><g
           transform="translate(440.4,429.8)"
           id="g400"><path
             id="path402"
             style="fill:none;stroke:#808080;stroke-width:0.54356647;stroke-linecap:butt;stroke-linejoin:round;stroke-miterlimit:10;stroke-dasharray:none;stroke-opacity:1"
             d="m 0,0 c -3.9,4.5 -7.7,8.9 -12.6,12.6 -5,3.7 -9.9,6.4 -14.9,9.8 -4.9,3.3 -10.5,5.6 -14.5,9.8 -4.3,4.4 -8.2,8.6 -11.7,14 -4.4,6.9 4.2,9 8,10.2 4.6,1.5 9.5,1.3 14.4,1.4 4.8,0.2 9.3,-0.7 14,-0.4 4.7,0.2 9.4,-0.1 14,0 4.7,0 9.3,0.1 14,0.4 4.7,0.4 9.3,-0.2 14,-0.4 4.7,-0.3 9.2,0.2 14,0.9 4.7,0.7 9.8,3.1 14,0.9 4.8,-2.4 2.5,-9.6 1.9,-14.4 C 54,40 52.6,35.4 51.3,30.8 50,26.1 48.3,21.5 46.6,16.8 44.6,11 39.3,8.5 34.5,6.1 30.3,3.9 25.4,3.8 20.5,3.7 15.8,3.6 11.2,3.4 6.5,3.3 H 1.9 L 0,1.8 Z" /></g></g></g><g
       id="g404"><g
         clip-path="url(#clipPath410)"
         id="g406"><g
           id="g412"><g
             id="g414" /><g
             id="g430"><g
               style="opacity:0.2"
               id="g428"
               clip-path="url(#clipPath418)"><g
                 id="g426"><g
                   id="g424"
                   transform="matrix(1.379776,0,0,1.379776,-33.140091,-204.83044)"><g
                     id="g422"
                     transform="translate(449,436.3)"><path
                       id="path420"
                       style="fill:#ff6600;fill-opacity:1;fill-rule:evenodd;stroke:none"
                       d="m 0,0 c -2.7,3 -5.3,6.1 -8.7,8.7 -3.4,2.5 -6.9,4.4 -10.3,6.8 -3.4,2.2 -7.3,3.8 -10,6.7 -3,3.1 -5.7,6 -8.1,9.7 -3.1,4.8 2.8,6.3 5.4,7.1 3.2,1 6.7,0.9 10.1,1 3.2,0.1 6.4,-0.5 9.7,-0.3 3.2,0.1 6.4,-0.1 9.6,0 3.3,0 6.5,0.1 9.7,0.3 3.3,0.2 6.5,-0.1 9.7,-0.3 3.3,-0.2 6.4,0.2 9.7,0.6 3.3,0.5 6.8,2.2 9.7,0.7 3.3,-1.8 1.7,-6.7 1.3,-10.1 C 37.4,27.7 36.4,24.5 35.6,21.3 34.6,18 33.5,14.8 32.3,11.6 30.9,7.6 27.2,5.8 23.9,4.2 21,2.7 17.6,2.6 14.2,2.5 11,2.5 7.8,2.3 4.5,2.2 H 1.3 L 0,1.2 Z" /></g></g></g></g></g></g></g></g><g
       transform="matrix(1.379776,0,0,1.379776,-33.140091,-204.83044)"
       id="g432"><g
         clip-path="url(#clipPath438)"
         id="g434"><g
           transform="translate(449,436.3)"
           id="g440"><path
             id="path442"
             style="fill:none;stroke:#808080;stroke-width:0.54356647;stroke-linecap:butt;stroke-linejoin:round;stroke-miterlimit:10;stroke-dasharray:none;stroke-opacity:1"
             d="m 0,0 c -2.7,3 -5.3,6.1 -8.7,8.7 -3.4,2.5 -6.9,4.4 -10.3,6.8 -3.4,2.2 -7.3,3.8 -10,6.7 -3,3.1 -5.7,6 -8.1,9.7 -3.1,4.8 2.8,6.3 5.4,7.1 3.2,1 6.7,0.9 10.1,1 3.2,0.1 6.4,-0.5 9.7,-0.3 3.2,0.1 6.4,-0.1 9.6,0 3.3,0 6.5,0.1 9.7,0.3 3.3,0.2 6.5,-0.1 9.7,-0.3 3.3,-0.2 6.4,0.2 9.7,0.6 3.3,0.5 6.8,2.2 9.7,0.7 3.3,-1.8 1.7,-6.7 1.3,-10.1 C 37.4,27.7 36.4,24.5 35.6,21.3 34.6,18 33.5,14.8 32.3,11.6 30.9,7.6 27.2,5.8 23.9,4.2 21,2.7 17.6,2.6 14.2,2.5 11,2.5 7.8,2.3 4.5,2.2 H 1.3 L 0,1.2 Z" /></g></g></g><g
       id="g444"><g
         clip-path="url(#clipPath450)"
         id="g446"><g
           id="g452"><g
             id="g454" /><g
             id="g470"><g
               style="opacity:0.2"
               id="g468"
               clip-path="url(#clipPath458)"><g
                 id="g466"><g
                   id="g464"
                   transform="matrix(1.379776,0,0,1.379776,-33.140091,-204.83044)"><g
                     id="g462"
                     transform="translate(452,442.4)"><path
                       id="path460"
                       style="fill:#ff6600;fill-opacity:1;fill-rule:evenodd;stroke:none"
                       d="m 0,0 c -1.7,2 -3.4,3.9 -5.5,5.5 -2.2,1.6 -4.4,2.8 -6.5,4.3 -2.2,1.4 -4.6,2.4 -6.4,4.2 -1.8,2 -3.5,3.8 -5,6.2 -2,2.9 1.8,3.9 3.4,4.4 2,0.7 4.2,0.6 6.3,0.6 2.1,0.1 4.1,-0.3 6.1,-0.2 2.1,0.2 4.1,0 6.1,0 2.1,0.1 4.1,0.1 6.1,0.2 2,0.2 4.1,0 6.1,-0.2 2.1,-0.1 4.1,0.2 6.1,0.4 2.1,0.3 4.3,1.4 6.1,0.4 2.1,-1 1.1,-4.2 0.8,-6.3 -0.2,-2 -0.8,-4 -1.4,-6.1 -0.5,-2 -1.3,-4 -2,-6 C 19.4,4.8 17.1,3.7 15,2.7 13.2,1.7 11,1.7 8.9,1.7 6.8,1.6 4.8,1.5 2.8,1.4 H 0.7 L 0,0.8 Z" /></g></g></g></g></g></g></g></g><g
       transform="matrix(1.379776,0,0,1.379776,-33.140091,-204.83044)"
       id="g472"><g
         clip-path="url(#clipPath478)"
         id="g474"><g
           transform="translate(452,442.4)"
           id="g480"><path
             id="path482"
             style="fill:none;stroke:#808080;stroke-width:0.54356647;stroke-linecap:butt;stroke-linejoin:round;stroke-miterlimit:10;stroke-dasharray:none;stroke-opacity:1"
             d="m 0,0 c -1.7,2 -3.4,3.9 -5.5,5.5 -2.2,1.6 -4.4,2.8 -6.5,4.3 -2.2,1.4 -4.6,2.4 -6.4,4.2 -1.8,2 -3.5,3.8 -5,6.2 -2,2.9 1.8,3.9 3.4,4.4 2,0.7 4.2,0.6 6.3,0.6 2.1,0.1 4.1,-0.3 6.1,-0.2 2.1,0.2 4.1,0 6.1,0 2.1,0.1 4.1,0.1 6.1,0.2 2,0.2 4.1,0 6.1,-0.2 2.1,-0.1 4.1,0.2 6.1,0.4 2.1,0.3 4.3,1.4 6.1,0.4 2.1,-1 1.1,-4.2 0.8,-6.3 -0.2,-2 -0.8,-4 -1.4,-6.1 -0.5,-2 -1.3,-4 -2,-6 C 19.4,4.8 17.1,3.7 15,2.7 13.2,1.7 11,1.7 8.9,1.7 6.8,1.6 4.8,1.5 2.8,1.4 H 0.7 L 0,0.8 Z" /></g></g></g><g
       id="g484"><g
         clip-path="url(#clipPath490)"
         id="g486"><g
           id="g492"><g
             id="g494" /><g
             id="g510"><g
               style="opacity:0.2"
               id="g508"
               clip-path="url(#clipPath498)"><g
                 id="g506"><g
                   id="g504"
                   transform="matrix(1.379776,0,0,1.379776,-33.140091,-204.83044)"><g
                     id="g502"
                     transform="translate(456.3,447)"><path
                       id="path500"
                       style="fill:#ff6600;fill-opacity:1;fill-rule:evenodd;stroke:none"
                       d="m 0,0 c -0.8,0.9 -1.6,1.8 -2.6,2.6 -1,0.7 -2,1.3 -3,2 -1,0.7 -2.2,1.2 -3,2 -0.9,0.9 -1.7,1.8 -2.4,2.9 -0.9,1.4 0.8,1.8 1.6,2.1 1,0.3 2,0.3 3,0.3 1,0 1.9,-0.2 2.8,-0.1 1,0 2,0 2.9,0 1,0 1.9,0 2.9,0.1 0.9,0 1.9,-0.1 2.9,-0.1 0.9,-0.1 1.9,0 2.8,0.2 1,0.1 2.1,0.6 2.9,0.2 1,-0.5 0.5,-2 0.4,-3 C 11.1,8.2 10.8,7.3 10.5,6.3 10.3,5.4 9.9,4.4 9.6,3.5 9.1,2.3 8,1.8 7.1,1.3 6.2,0.8 5.2,0.8 4.2,0.8 3.3,0.7 2.3,0.7 1.3,0.7 H 0.4 L 0,0.4 Z" /></g></g></g></g></g></g></g></g><g
       transform="matrix(1.379776,0,0,1.379776,-33.140091,-204.83044)"
       id="g512"><g
         clip-path="url(#clipPath518)"
         id="g514"><g
           transform="translate(456.3,447)"
           id="g520"><path
             id="path522"
             style="fill:none;stroke:#808080;stroke-width:0.54356647;stroke-linecap:butt;stroke-linejoin:round;stroke-miterlimit:10;stroke-dasharray:none;stroke-opacity:1"
             d="m 0,0 c -0.8,0.9 -1.6,1.8 -2.6,2.6 -1,0.7 -2,1.3 -3,2 -1,0.7 -2.2,1.2 -3,2 -0.9,0.9 -1.7,1.8 -2.4,2.9 -0.9,1.4 0.8,1.8 1.6,2.1 1,0.3 2,0.3 3,0.3 1,0 1.9,-0.2 2.8,-0.1 1,0 2,0 2.9,0 1,0 1.9,0 2.9,0.1 0.9,0 1.9,-0.1 2.9,-0.1 0.9,-0.1 1.9,0 2.8,0.2 1,0.1 2.1,0.6 2.9,0.2 1,-0.5 0.5,-2 0.4,-3 C 11.1,8.2 10.8,7.3 10.5,6.3 10.3,5.4 9.9,4.4 9.6,3.5 9.1,2.3 8,1.8 7.1,1.3 6.2,0.8 5.2,0.8 4.2,0.8 3.3,0.7 2.3,0.7 1.3,0.7 H 0.4 L 0,0.4 Z" /></g></g></g><g
       transform="matrix(1.379776,0,0,1.379776,-33.140091,-204.83044)"
       id="g524"><g
         clip-path="url(#clipPath530)"
         id="g526"><g
           transform="translate(501.7,419.3)"
           id="g532"><path
             id="path534"
             style="fill:none;stroke:#3333ff;stroke-width:1.5;stroke-linecap:butt;stroke-linejoin:round;stroke-miterlimit:10;stroke-dasharray:none;stroke-opacity:1"
             d="M 0,0 C -28.3,31.1 -25.3,24.5 -32.4,29" /></g></g></g><g
       transform="matrix(1.379776,0,0,1.379776,-33.140091,-204.83044)"
       id="g536"><g
         clip-path="url(#clipPath542)"
         id="g538"><g
           transform="translate(459.2,453.3)"
           id="g544"><path
             id="path546"
             style="fill:#3333ff;fill-opacity:1;fill-rule:evenodd;stroke:none"
             d="m 0,0 8.9,-8.9 3.5,7.1 z" /></g></g></g><g
       transform="matrix(1.379776,0,0,1.379776,-33.140091,-204.83044)"
       id="g548"><g
         clip-path="url(#clipPath554)"
         id="g550"><g
           transform="translate(504.6,413.6)"
           id="g556"><path
             id="path558"
             style="fill:#ff3333;fill-opacity:1;fill-rule:evenodd;stroke:none"
             d="m 0,0 c -1.1,0 -2,0.2 -2.9,0.7 -0.9,0.6 -1.5,1.2 -2,2.1 -0.6,0.9 -0.8,1.8 -0.8,2.9 0,1 0.2,1.9 0.8,2.8 0.5,0.9 1.1,1.5 2,2.1 0.9,0.5 1.8,0.7 2.9,0.7 1,0 1.9,-0.2 2.8,-0.7 C 3.7,10 4.4,9.4 4.9,8.5 5.4,7.6 5.6,6.7 5.6,5.7 5.6,4.6 5.4,3.7 4.9,2.8 4.4,1.9 3.7,1.3 2.8,0.7 1.9,0.2 1,0 0,0 Z" /></g></g></g><text
       id="text568"
       style="font-variant:normal;font-weight:normal;font-size:22.07679939px;font-family:Arial;-inkscape-font-specification:ArialMT;writing-mode:lr-tb;fill:#FFFFFF;fill-opacity:1;fill-rule:nonzero;stroke:none"
       transform="matrix(1,0,0,-1,140.8497,310.3779)"><tspan
         id="tspan560"
         y="0"
         x="0 17.10952 24.416941 36.691643 48.833881 53.779083 66.053787 78.328484 84.399605 90.581108 102.85581 114.99805 126.14684 137.18524 149.45993 161.73463">Gradient descent</tspan><tspan
         id="tspan562"
         y="24.56044"
         x="17.247499 29.522202 41.796902 47.868023 53.93914 61.246563 73.521263 85.795967 90.741165 102.88341 115.15811 121.33961 132.37801 144.65271">on traning set</tspan><tspan
         id="tspan564"
         y="0"
         x="348.12354 365.23306 372.54047 384.81519 396.95743 401.90262 414.17734 426.45203 432.52313 438.70465 450.84689 463.12158 474.27039 485.30878 497.58347 509.85818">Gradient descent</tspan><tspan
         id="tspan566"
         y="24.69842"
         x="366.47488 378.74957 391.02429 397.0954 403.16653 415.44122 426.59 432.66113 437.60632 449.88104 462.15573 468.22684 479.26526 491.53995">on testing set</tspan></text>
</g></svg>