<?xml version="1.0" encoding="UTF-8" standalone="no"?>
<svg
   xmlns:dc="http://purl.org/dc/elements/1.1/"
   xmlns:cc="http://creativecommons.org/ns#"
   xmlns:rdf="http://www.w3.org/1999/02/22-rdf-syntax-ns#"
   xmlns:svg="http://www.w3.org/2000/svg"
   xmlns="http://www.w3.org/2000/svg"
   viewBox="0 0 1014.6667 385.33334"
   height="385.33334"
   width="1014.6667"
   xml:space="preserve"
   id="svg2"
   version="1.1"><metadata
     id="metadata8"><rdf:RDF><cc:Work
         rdf:about=""><dc:format>image/svg+xml</dc:format><dc:type
           rdf:resource="http://purl.org/dc/dcmitype/StillImage" /></cc:Work></rdf:RDF></metadata><defs
     id="defs6"><clipPath
       id="clipPath14"
       clipPathUnits="userSpaceOnUse"><path
         id="path12"
         d="M 0,0 H 842 V 595 H 0 Z" /></clipPath><clipPath
       id="clipPath24"
       clipPathUnits="userSpaceOnUse"><path
         id="path22"
         d="M 32768,32768 H -32768 V -32768 H 32768 Z" /></clipPath><clipPath
       id="clipPath34"
       clipPathUnits="userSpaceOnUse"><path
         style="clip-rule:evenodd"
         id="path32"
         d="M 0,-0.2 H 841.8 V 595 H 0 Z" /></clipPath><clipPath
       id="clipPath46"
       clipPathUnits="userSpaceOnUse"><path
         style="clip-rule:evenodd"
         id="path44"
         d="M 0,-0.2 H 841.8 V 595 H 0 Z" /></clipPath><clipPath
       id="clipPath62"
       clipPathUnits="userSpaceOnUse"><path
         style="clip-rule:evenodd"
         id="path60"
         d="M 0,-0.2 H 841.8 V 595 H 0 Z" /></clipPath><clipPath
       id="clipPath74"
       clipPathUnits="userSpaceOnUse"><path
         style="clip-rule:evenodd"
         id="path72"
         d="M 0,-0.2 H 841.8 V 595 H 0 Z" /></clipPath><clipPath
       id="clipPath90"
       clipPathUnits="userSpaceOnUse"><path
         style="clip-rule:evenodd"
         id="path88"
         d="M 0,-0.2 H 841.8 V 595 H 0 Z" /></clipPath><clipPath
       id="clipPath102"
       clipPathUnits="userSpaceOnUse"><path
         style="clip-rule:evenodd"
         id="path100"
         d="M 0,-0.2 H 841.8 V 595 H 0 Z" /></clipPath><clipPath
       id="clipPath114"
       clipPathUnits="userSpaceOnUse"><path
         style="clip-rule:evenodd"
         id="path112"
         d="M 0,-0.2 H 841.8 V 595 H 0 Z" /></clipPath><clipPath
       id="clipPath126"
       clipPathUnits="userSpaceOnUse"><path
         style="clip-rule:evenodd"
         id="path124"
         d="M 0,-0.2 H 841.8 V 595 H 0 Z" /></clipPath><clipPath
       id="clipPath138"
       clipPathUnits="userSpaceOnUse"><path
         style="clip-rule:evenodd"
         id="path136"
         d="M 0,-0.2 H 841.8 V 595 H 0 Z" /></clipPath><clipPath
       id="clipPath150"
       clipPathUnits="userSpaceOnUse"><path
         style="clip-rule:evenodd"
         id="path148"
         d="M 0,-0.2 H 841.8 V 595 H 0 Z" /></clipPath><clipPath
       id="clipPath170"
       clipPathUnits="userSpaceOnUse"><path
         style="clip-rule:evenodd"
         id="path168"
         d="M 0,-0.2 H 841.8 V 595 H 0 Z" /></clipPath><clipPath
       id="clipPath182"
       clipPathUnits="userSpaceOnUse"><path
         style="clip-rule:evenodd"
         id="path180"
         d="M 0,-0.2 H 841.8 V 595 H 0 Z" /></clipPath><clipPath
       id="clipPath194"
       clipPathUnits="userSpaceOnUse"><path
         style="clip-rule:evenodd"
         id="path192"
         d="M 0,-0.2 H 841.8 V 595 H 0 Z" /></clipPath><clipPath
       id="clipPath206"
       clipPathUnits="userSpaceOnUse"><path
         style="clip-rule:evenodd"
         id="path204"
         d="M 0,-0.2 H 841.8 V 595 H 0 Z" /></clipPath></defs><g
     clip-path="url(#clipPath14)"
     transform="matrix(1.3333333,0,0,-1.3333333,-36,745.33333)"
     id="g10"><g
       id="g16"><g
         id="g18"><g
           clip-path="url(#clipPath24)"
           id="g20"><g
             id="g26" /></g></g></g><g
       transform="matrix(1.6846924,0,0,1.6846924,-31.925415,-373.07529)"
       id="g28"><g
         clip-path="url(#clipPath34)"
         id="g30"><g
           transform="translate(174.3,538.3)"
           id="g36"><path
             id="path38"
             style="fill:#cfe7f5;fill-opacity:1;fill-rule:evenodd;stroke:none"
             d="m 0,0 c -7.1,0 -14.2,-7.1 -14.2,-14.2 v -113.4 c 0,-7 7.1,-14.2 14.2,-14.2 h 56.7 c 7.1,0 14.2,7.2 14.2,14.2 V -14.2 C 70.9,-7.1 63.8,0 56.7,0 Z" /></g></g></g><g
       transform="matrix(1.6846924,0,0,1.6846924,-31.925415,-373.07529)"
       id="g40"><g
         clip-path="url(#clipPath46)"
         id="g42"><g
           transform="translate(174.3,538.3)"
           id="g48"><path
             id="path50"
             style="fill:none;stroke:#808080;stroke-width:2.29200006;stroke-linecap:butt;stroke-linejoin:round;stroke-miterlimit:10;stroke-dasharray:none;stroke-opacity:1"
             d="m 0,0 c -7.1,0 -14.2,-7.1 -14.2,-14.2 v -113.4 c 0,-7 7.1,-14.2 14.2,-14.2 h 56.7 c 7.1,0 14.2,7.2 14.2,14.2 V -14.2 C 70.9,-7.1 63.8,0 56.7,0 Z" /></g></g></g><text
       id="text54"
       style="font-variant:normal;font-weight:normal;font-size:70.75740051px;font-family:Arial;-inkscape-font-specification:ArialMT;writing-mode:lr-tb;fill:#000000;fill-opacity:1;fill-rule:nonzero;stroke:none"
       transform="matrix(1,0,0,-1,281.934,389.7565)"><tspan
         id="tspan52"
         y="0"
         x="0">G</tspan></text>
<g
       transform="matrix(1.6846924,0,0,1.6846924,-31.925415,-373.07529)"
       id="g56"><g
         clip-path="url(#clipPath62)"
         id="g58"><g
           transform="translate(344.4,538.3)"
           id="g64"><path
             id="path66"
             style="fill:#cfe7f5;fill-opacity:1;fill-rule:evenodd;stroke:none"
             d="m 0,0 c -7.1,0 -14.2,-7.1 -14.2,-14.2 v -113.4 c 0,-7.1 7.1,-14.2 14.2,-14.2 h 56.6 c 7.1,0 14.2,7.1 14.2,14.2 V -14.2 C 70.8,-7.1 63.7,0 56.6,0 Z" /></g></g></g><g
       transform="matrix(1.6846924,0,0,1.6846924,-31.925415,-373.07529)"
       id="g68"><g
         clip-path="url(#clipPath74)"
         id="g70"><g
           transform="translate(344.4,538.3)"
           id="g76"><path
             id="path78"
             style="fill:none;stroke:#808080;stroke-width:2.29200006;stroke-linecap:butt;stroke-linejoin:round;stroke-miterlimit:10;stroke-dasharray:none;stroke-opacity:1"
             d="m 0,0 c -7.1,0 -14.2,-7.1 -14.2,-14.2 v -113.4 c 0,-7.1 7.1,-14.2 14.2,-14.2 h 56.6 c 7.1,0 14.2,7.1 14.2,14.2 V -14.2 C 70.8,-7.1 63.7,0 56.6,0 Z" /></g></g></g><text
       id="text82"
       style="font-variant:normal;font-weight:normal;font-size:70.75740051px;font-family:Arial;-inkscape-font-specification:ArialMT;writing-mode:lr-tb;fill:#000000;fill-opacity:1;fill-rule:nonzero;stroke:none"
       transform="matrix(1,0,0,-1,574.3978,389.7565)"><tspan
         id="tspan80"
         y="0"
         x="0">F</tspan></text>
<g
       transform="matrix(1.6846924,0,0,1.6846924,-31.925415,-373.07529)"
       id="g84"><g
         clip-path="url(#clipPath90)"
         id="g86"><g
           transform="translate(415.2,467.4)"
           id="g92"><path
             id="path94"
             style="fill:none;stroke:#000000;stroke-width:2.29200006;stroke-linecap:butt;stroke-linejoin:round;stroke-miterlimit:10;stroke-dasharray:none;stroke-opacity:1"
             d="M 0,0 H 39.6" /></g></g></g><g
       transform="matrix(1.6846924,0,0,1.6846924,-31.925415,-373.07529)"
       id="g96"><g
         clip-path="url(#clipPath102)"
         id="g98"><g
           transform="translate(471.9,467.4)"
           id="g104"><path
             id="path106"
             style="fill:#000000;fill-opacity:1;fill-rule:evenodd;stroke:none"
             d="M 0,0 -17.9,6 V -5.9 Z" /></g></g></g><g
       transform="matrix(1.6846924,0,0,1.6846924,-31.925415,-373.07529)"
       id="g108"><g
         clip-path="url(#clipPath114)"
         id="g110"><g
           transform="translate(245.1,478.8)"
           id="g116"><path
             id="path118"
             style="fill:none;stroke:#0000ff;stroke-width:2.29200006;stroke-linecap:butt;stroke-linejoin:round;stroke-miterlimit:10;stroke-dasharray:none;stroke-opacity:1"
             d="M 0,0 H 68" /></g></g></g><g
       transform="matrix(1.6846924,0,0,1.6846924,-31.925415,-373.07529)"
       id="g120"><g
         clip-path="url(#clipPath126)"
         id="g122"><g
           transform="translate(330.2,478.8)"
           id="g128"><path
             id="path130"
             style="fill:#0000ff;fill-opacity:1;fill-rule:evenodd;stroke:none"
             d="M 0,0 -17.9,5.9 V -6 Z" /></g></g></g><g
       transform="matrix(1.6846924,0,0,1.6846924,-31.925415,-373.07529)"
       id="g132"><g
         clip-path="url(#clipPath138)"
         id="g134"><g
           transform="translate(330.2,450.4)"
           id="g140"><path
             id="path142"
             style="fill:none;stroke:#ff3333;stroke-width:2.29200006;stroke-linecap:butt;stroke-linejoin:round;stroke-miterlimit:10;stroke-dasharray:none;stroke-opacity:1"
             d="M 0,0 H -68" /></g></g></g><g
       transform="matrix(1.6846924,0,0,1.6846924,-31.925415,-373.07529)"
       id="g144"><g
         clip-path="url(#clipPath150)"
         id="g146"><g
           transform="translate(245.1,450.4)"
           id="g152"><path
             id="path154"
             style="fill:#ff3333;fill-opacity:1;fill-rule:evenodd;stroke:none"
             d="M 0,0 18,-5.9 V 6 Z" /></g></g></g><text
       id="text158"
       style="font-variant:normal;font-weight:normal;font-size:30.3239994px;font-family:Arial;-inkscape-font-specification:ArialMT;writing-mode:lr-tb;fill:#ffffff;fill-opacity:1;fill-rule:nonzero;stroke:none"
       transform="matrix(1,0,0,-1,686.767,436.76)"><tspan
         id="tspan156"
         y="0"
         x="0 18.497641 28.595531 43.75753">F(y)</tspan></text>
<text
       id="text162"
       style="font-variant:normal;font-weight:normal;font-size:30.3239994px;font-family:Arial;-inkscape-font-specification:ArialMT;writing-mode:lr-tb;fill:#ffffff;fill-opacity:1;fill-rule:nonzero;stroke:none"
       transform="matrix(1,0,0,-1,410.475,462.367)"><tspan
         id="tspan160"
         y="0"
         x="0 15.162 32.840893 56.402641 66.500534 81.662529">y=G(x)</tspan></text>
<g
       transform="matrix(1.6846924,0,0,1.6846924,-31.925415,-373.07529)"
       id="g164"><g
         clip-path="url(#clipPath170)"
         id="g166"><g
           transform="translate(160.1,450.4)"
           id="g172"><path
             id="path174"
             style="fill:none;stroke:#ff3333;stroke-width:2.29200006;stroke-linecap:butt;stroke-linejoin:round;stroke-miterlimit:10;stroke-dasharray:none;stroke-opacity:1"
             d="M 0,0 H -39.6" /></g></g></g><g
       transform="matrix(1.6846924,0,0,1.6846924,-31.925415,-373.07529)"
       id="g176"><g
         clip-path="url(#clipPath182)"
         id="g178"><g
           transform="translate(103.4,450.4)"
           id="g184"><path
             id="path186"
             style="fill:#ff3333;fill-opacity:1;fill-rule:evenodd;stroke:none"
             d="M 0,0 17.9,-5.9 V 6 Z" /></g></g></g><g
       transform="matrix(1.6846924,0,0,1.6846924,-31.925415,-373.07529)"
       id="g188"><g
         clip-path="url(#clipPath194)"
         id="g190"><g
           transform="translate(103.4,478.8)"
           id="g196"><path
             id="path198"
             style="fill:none;stroke:#0000ff;stroke-width:2.29200006;stroke-linecap:butt;stroke-linejoin:round;stroke-miterlimit:10;stroke-dasharray:none;stroke-opacity:1"
             d="M 0,0 H 39.6" /></g></g></g><g
       transform="matrix(1.6846924,0,0,1.6846924,-31.925415,-373.07529)"
       id="g200"><g
         clip-path="url(#clipPath206)"
         id="g202"><g
           transform="translate(160.1,478.8)"
           id="g208"><path
             id="path210"
             style="fill:#0000ff;fill-opacity:1;fill-rule:evenodd;stroke:none"
             d="M 0,0 -17.9,5.9 V -6 Z" /></g></g></g><text
       id="text214"
       style="font-variant:normal;font-weight:normal;font-size:30.3239994px;font-family:Arial;-inkscape-font-specification:ArialMT;writing-mode:lr-tb;fill:#ffffff;fill-opacity:1;fill-rule:nonzero;stroke:none"
       transform="matrix(1,0,0,-1,177.314,462.199)"><tspan
         id="tspan212"
         y="0"
         x="0">x</tspan></text>
<text
       id="text218"
       style="font-variant:normal;font-weight:normal;font-size:30.3239994px;font-family:Arial;-inkscape-font-specification:ArialMT;writing-mode:lr-tb;fill:#ffffff;fill-opacity:1;fill-rule:nonzero;stroke:none"
       transform="matrix(1,0,0,-1,51.636,326.917)"><tspan
         id="tspan216"
         y="0"
         x="0 14.980056 30.142056 47.82095 62.801003 77.963005 88.060898 103.04095 126.6027 135.00244 149.9825">∂x=∂y·∂G/∂x</tspan></text>
<text
       id="text222"
       style="font-variant:normal;font-weight:normal;font-size:30.3239994px;font-family:Arial;-inkscape-font-specification:ArialMT;writing-mode:lr-tb;fill:#ffffff;fill-opacity:1;fill-rule:nonzero;stroke:none"
       transform="matrix(1,0,0,-1,440.634,328.602)"><tspan
         id="tspan220"
         y="0"
         x="0 14.980056">∂y</tspan></text>
</g></svg>