<?xml version="1.0" encoding="utf-8" standalone="no"?>
<!DOCTYPE svg PUBLIC "-//W3C//DTD SVG 1.1//EN"
  "http://www.w3.org/Graphics/SVG/1.1/DTD/svg11.dtd">
<!-- Created with matplotlib (http://matplotlib.org/) -->
<svg height="335.52pt" version="1.1" viewBox="0 0 432 335.52" width="432pt" xmlns="http://www.w3.org/2000/svg" xmlns:xlink="http://www.w3.org/1999/xlink">
 <defs>
  <style type="text/css">
*{stroke-linecap:butt;stroke-linejoin:round;}
  </style>
 </defs>
 <g id="figure_1">
  <g id="patch_1">
   <path d="M 0 335.52 
L 432 335.52 
L 432 0 
L 0 0 
z
" style="fill:#ffffff;"/>
  </g>
  <g id="axes_1">
   <g id="patch_2">
    <path d="M 60.48 69.11712 
L 410.4 69.11712 
L 410.4 16.776 
L 60.48 16.776 
z
" style="fill:#ffffff;"/>
   </g>
   <g id="matplotlib.axis_1">
    <g id="xtick_1">
     <g id="line2d_1">
      <defs>
       <path d="M 0 0 
L 0 3.5 
" id="m261d093ef9" style="stroke:#000000;stroke-width:0.8;"/>
      </defs>
      <g>
       <use style="stroke:#000000;stroke-width:0.8;" x="76.385455" xlink:href="#m261d093ef9" y="69.11712"/>
      </g>
     </g>
    </g>
    <g id="xtick_2">
     <g id="line2d_2">
      <g>
       <use style="stroke:#000000;stroke-width:0.8;" x="116.652428" xlink:href="#m261d093ef9" y="69.11712"/>
      </g>
     </g>
    </g>
    <g id="xtick_3">
     <g id="line2d_3">
      <g>
       <use style="stroke:#000000;stroke-width:0.8;" x="156.919402" xlink:href="#m261d093ef9" y="69.11712"/>
      </g>
     </g>
    </g>
    <g id="xtick_4">
     <g id="line2d_4">
      <g>
       <use style="stroke:#000000;stroke-width:0.8;" x="197.186375" xlink:href="#m261d093ef9" y="69.11712"/>
      </g>
     </g>
    </g>
    <g id="xtick_5">
     <g id="line2d_5">
      <g>
       <use style="stroke:#000000;stroke-width:0.8;" x="237.453349" xlink:href="#m261d093ef9" y="69.11712"/>
      </g>
     </g>
    </g>
    <g id="xtick_6">
     <g id="line2d_6">
      <g>
       <use style="stroke:#000000;stroke-width:0.8;" x="277.720322" xlink:href="#m261d093ef9" y="69.11712"/>
      </g>
     </g>
    </g>
    <g id="xtick_7">
     <g id="line2d_7">
      <g>
       <use style="stroke:#000000;stroke-width:0.8;" x="317.987296" xlink:href="#m261d093ef9" y="69.11712"/>
      </g>
     </g>
    </g>
    <g id="xtick_8">
     <g id="line2d_8">
      <g>
       <use style="stroke:#000000;stroke-width:0.8;" x="358.254269" xlink:href="#m261d093ef9" y="69.11712"/>
      </g>
     </g>
    </g>
    <g id="xtick_9">
     <g id="line2d_9">
      <g>
       <use style="stroke:#000000;stroke-width:0.8;" x="398.521243" xlink:href="#m261d093ef9" y="69.11712"/>
      </g>
     </g>
    </g>
   </g>
   <g id="matplotlib.axis_2">
    <g id="ytick_1">
     <g id="line2d_10">
      <defs>
       <path d="M 0 0 
L -3.5 0 
" id="mff8bf85295" style="stroke:#000000;stroke-width:0.8;"/>
      </defs>
      <g>
       <use style="stroke:#000000;stroke-width:0.8;" x="60.48" xlink:href="#mff8bf85295" y="63.07776"/>
      </g>
     </g>
     <g id="text_1">
      <!-- -0.63 -->
      <defs>
       <path d="M 26 19 
L 26 24.796875 
L 1 24.796875 
L 1 19 
z
" id="CMSS17-45"/>
       <path d="M 43.09375 32.390625 
C 43.09375 38.109375 43 48.75 38.90625 56.984375 
C 34.796875 64.890625 28.203125 67 23.5 67 
C 16.703125 67 10.90625 62.984375 7.90625 56.578125 
C 4.703125 49.859375 3.796875 42.9375 3.796875 32.390625 
C 3.796875 25.171875 4.09375 16.34375 7.703125 8.609375 
C 11.796875 0.09375 18.703125 -2 23.40625 -2 
C 29.59375 -2 35.59375 1.296875 39 8.203125 
C 42.5 15.4375 43.09375 23.359375 43.09375 32.390625 
z
M 23.40625 4.09375 
C 15.796875 4.09375 13.5 12.828125 12.796875 15.734375 
C 11.59375 20.75 11.40625 25.5625 11.40625 33.5 
C 11.40625 39.71875 11.40625 46.75 13.296875 52.265625 
C 15.59375 58.6875 19.59375 60.890625 23.40625 60.890625 
C 30.796875 60.890625 33.203125 53.46875 34 50.859375 
C 35.5 45.546875 35.5 39.3125 35.5 33.5 
C 35.5 24.15625 35.5 4.09375 23.40625 4.09375 
z
" id="CMSS17-48"/>
       <path d="M 17 8 
L 9 8 
L 9 0 
L 17 0 
z
" id="CMSS17-46"/>
       <path d="M 39 64.984375 
C 34.796875 66.6875 31.796875 67 29 67 
C 16 67 3.90625 53.25 3.90625 31.609375 
C 3.90625 4.1875 15.40625 -2 23.59375 -2 
C 28.09375 -2 32.59375 -0.609375 36.90625 4.390625 
C 41.296875 9.671875 43 14.0625 43 21.75 
C 43 34.109375 36.90625 45.09375 27.796875 45.09375 
C 21.203125 45.09375 15.5 41.59375 12 37.203125 
C 13 51.40625 19.59375 60.890625 29.09375 60.890625 
C 31.703125 60.890625 35.09375 60.484375 39 58.75 
z
M 12.09375 21.4375 
C 12.09375 22.234375 12.09375 22.734375 12.203125 24.234375 
C 12.203125 32.015625 16.703125 39 24 39 
C 28.703125 39 31.09375 36.5 32.90625 33.40625 
C 35 29.515625 35.09375 25.828125 35.09375 21.75 
C 35.09375 17.859375 35.09375 13.96875 32.796875 9.96875 
C 30.90625 6.890625 28.40625 4.1875 23.59375 4.1875 
C 14.09375 4.1875 12.5 17.453125 12.09375 21.4375 
z
" id="CMSS17-54"/>
       <path d="M 15.703125 32.1875 
L 22.5 32.1875 
C 31.90625 32.1875 34.59375 23.9375 34.59375 18.1875 
C 34.59375 10.34375 30.203125 4.1875 23 4.1875 
C 17.40625 4.1875 9.5 7.015625 5 14.46875 
C 4.296875 10.9375 4.296875 10.734375 3.90625 8.328125 
C 8.59375 1.390625 16.203125 -2 23.203125 -2 
C 34.59375 -2 43 7.515625 43 18.09375 
C 43 26.046875 37.5 32.6875 30 35.1875 
C 36 38.484375 40.40625 44.6875 40.40625 51.890625 
C 40.40625 60.296875 32.703125 67 23.296875 67 
C 14.703125 67 8 61.6875 5.203125 55.984375 
C 5.90625 54.984375 7.703125 52.09375 8.59375 50.59375 
C 10.796875 56.484375 16.5 60.890625 23.203125 60.890625 
C 28.796875 60.890625 32.5 57.1875 32.5 51.890625 
C 32.5 46.390625 29 40.390625 23.09375 39 
C 22.703125 39 16.5 38.390625 15.703125 38.296875 
z
" id="CMSS17-51"/>
      </defs>
      <g transform="translate(23.824925 68.059073)scale(0.144 -0.144)">
       <use transform="scale(0.996264)" xlink:href="#CMSS17-45"/>
       <use transform="translate(31.229113 0)scale(0.996264)" xlink:href="#CMSS17-48"/>
       <use transform="translate(78.072736 0)scale(0.996264)" xlink:href="#CMSS17-46"/>
       <use transform="translate(104.096941 0)scale(0.996264)" xlink:href="#CMSS17-54"/>
       <use transform="translate(150.940565 0)scale(0.996264)" xlink:href="#CMSS17-51"/>
      </g>
     </g>
    </g>
    <g id="ytick_2">
     <g id="line2d_11">
      <g>
       <use style="stroke:#000000;stroke-width:0.8;" x="60.48" xlink:href="#mff8bf85295" y="49.65696"/>
      </g>
     </g>
     <g id="text_2">
      <!-- -0.46 -->
      <defs>
       <path d="M 35.203125 17 
L 44.296875 17 
L 44.296875 23.09375 
L 35.203125 23.09375 
L 35.203125 66 
L 26.40625 66 
L 2.59375 23.09375 
L 2.59375 17 
L 27.296875 17 
L 27.296875 0 
L 35.203125 0 
z
M 10.296875 23.09375 
C 16.09375 33.421875 27.59375 54.28125 27.59375 61.359375 
L 27.59375 23.09375 
z
" id="CMSS17-52"/>
      </defs>
      <g transform="translate(23.824925 54.638272)scale(0.144 -0.144)">
       <use transform="scale(0.996264)" xlink:href="#CMSS17-45"/>
       <use transform="translate(31.229113 0)scale(0.996264)" xlink:href="#CMSS17-48"/>
       <use transform="translate(78.072736 0)scale(0.996264)" xlink:href="#CMSS17-46"/>
       <use transform="translate(104.096941 0)scale(0.996264)" xlink:href="#CMSS17-52"/>
       <use transform="translate(150.940565 0)scale(0.996264)" xlink:href="#CMSS17-54"/>
      </g>
     </g>
    </g>
    <g id="ytick_3">
     <g id="line2d_12">
      <g>
       <use style="stroke:#000000;stroke-width:0.8;" x="60.48" xlink:href="#mff8bf85295" y="36.23616"/>
      </g>
     </g>
     <g id="text_3">
      <!-- -0.29 -->
      <defs>
       <path d="M 25.796875 21.140625 
C 28.59375 24.03125 32.796875 27.515625 35.703125 31 
C 38.5 34.390625 42.203125 39.171875 42.203125 46.140625 
C 42.203125 57.109375 34.796875 67 22.203125 67 
C 12.296875 67 6.59375 60.796875 3.90625 51.125 
L 7.796875 45.75 
C 10 54.8125 13.09375 60.59375 20.90625 60.59375 
C 29.5 60.59375 34.296875 53.609375 34.296875 45.9375 
C 34.296875 36.78125 27.296875 29.703125 22 24.421875 
C 16.09375 18.546875 10.296875 12.578125 4.703125 6.390625 
L 4.703125 0 
L 42.203125 0 
L 42.203125 6.796875 
L 25.203125 6.796875 
C 24 6.796875 22.796875 6.6875 21.59375 6.6875 
L 11.59375 6.6875 
L 11.59375 6.796875 
z
" id="CMSS17-50"/>
       <path d="M 6.796875 2.6875 
C 9.59375 0.296875 13.203125 -2 19.296875 -2 
C 31.40625 -2 43 11.53125 43 33.375 
C 43 62.296875 30.5 67 23.796875 67 
C 17.09375 67 12.796875 63.984375 9.09375 59.203125 
C 4.703125 53.71875 3.90625 48.828125 3.90625 43.140625 
C 3.90625 36.359375 5.09375 32.171875 7.90625 27.390625 
C 11.703125 21.1875 15.203125 19.890625 19.09375 19.890625 
C 25 19.890625 30.90625 22.796875 34.90625 27.78125 
C 34.203125 14.1875 28.09375 4.1875 19.296875 4.1875 
C 15.703125 4.1875 12.796875 5.3125 9.90625 8.0625 
z
M 34.59375 43.34375 
C 34.703125 42.640625 34.703125 41.34375 34.703125 40.953125 
C 34.703125 32.578125 29.90625 26 22.90625 26 
C 18.296875 26 15.90625 28.390625 14.09375 31.484375 
C 11.90625 35.359375 11.796875 39.15625 11.796875 43.140625 
C 11.796875 47.03125 11.796875 51.3125 14.59375 55.609375 
C 16.703125 58.703125 19.296875 60.890625 23.796875 60.890625 
C 33 60.890625 34.5 47.4375 34.59375 43.34375 
z
" id="CMSS17-57"/>
      </defs>
      <g transform="translate(23.824925 41.217472)scale(0.144 -0.144)">
       <use transform="scale(0.996264)" xlink:href="#CMSS17-45"/>
       <use transform="translate(31.229113 0)scale(0.996264)" xlink:href="#CMSS17-48"/>
       <use transform="translate(78.072736 0)scale(0.996264)" xlink:href="#CMSS17-46"/>
       <use transform="translate(104.096941 0)scale(0.996264)" xlink:href="#CMSS17-50"/>
       <use transform="translate(150.940565 0)scale(0.996264)" xlink:href="#CMSS17-57"/>
      </g>
     </g>
    </g>
    <g id="ytick_4">
     <g id="line2d_13">
      <g>
       <use style="stroke:#000000;stroke-width:0.8;" x="60.48" xlink:href="#mff8bf85295" y="22.81536"/>
      </g>
     </g>
     <g id="text_4">
      <!-- -0.11 -->
      <defs>
       <path d="M 28.40625 67 
L 26.5 67 
C 21.09375 61.703125 14.796875 60.96875 8.40625 60.796875 
L 8.40625 55 
C 11.296875 55.09375 16 55.296875 20.703125 57.390625 
L 20.703125 5.796875 
L 8.90625 5.796875 
L 8.90625 0 
L 40.203125 0 
L 40.203125 5.796875 
L 28.40625 5.796875 
z
" id="CMSS17-49"/>
      </defs>
      <g transform="translate(23.824925 27.796672)scale(0.144 -0.144)">
       <use transform="scale(0.996264)" xlink:href="#CMSS17-45"/>
       <use transform="translate(31.229113 0)scale(0.996264)" xlink:href="#CMSS17-48"/>
       <use transform="translate(78.072736 0)scale(0.996264)" xlink:href="#CMSS17-46"/>
       <use transform="translate(104.096941 0)scale(0.996264)" xlink:href="#CMSS17-49"/>
       <use transform="translate(150.940565 0)scale(0.996264)" xlink:href="#CMSS17-49"/>
      </g>
     </g>
    </g>
    <g id="text_5">
     <!-- $s_{1}$ -->
     <defs>
      <path d="M 22.796875 20.15625 
C 24.5 19.859375 27.203125 19.265625 27.796875 19.171875 
C 29.09375 18.765625 33.59375 17.171875 33.59375 12.390625 
C 33.59375 9.296875 30.796875 1 19.203125 1 
C 17.09375 1 9.59375 1.296875 7.59375 6.984375 
C 11.59375 6.46875 13.59375 9.59375 13.59375 11.796875 
C 13.59375 13.890625 12.203125 15 10.203125 15 
C 8 15 5.09375 13.296875 5.09375 8.796875 
C 5.09375 2.75 11.09375 -1 19.09375 -1 
C 34.296875 -1 38.796875 10.390625 38.796875 15.59375 
C 38.796875 17.078125 38.796875 19.859375 35.59375 23.046875 
C 33.09375 25.421875 30.703125 25.921875 25.296875 27.015625 
C 22.59375 27.609375 18.296875 28.5 18.296875 32.984375 
C 18.296875 34.984375 20.09375 41.984375 29.59375 41.984375 
C 33.796875 41.984375 37.90625 40.453125 38.90625 37 
C 34.5 37 34.296875 33.1875 34.296875 33.09375 
C 34.296875 30.984375 36.203125 30.390625 37.09375 30.390625 
C 38.5 30.390625 41.296875 31.484375 41.296875 35.6875 
C 41.296875 39.78125 37.5 44 29.703125 44 
C 16.59375 44 13.09375 33.890625 13.09375 29.796875 
C 13.09375 22.25 20.5 20.65625 22.796875 20.15625 
z
" id="CMMI12-115"/>
      <path d="M 26.59375 63.796875 
C 26.59375 65.890625 26.5 66 25.09375 66 
C 21.203125 61.359375 15.296875 59.890625 9.703125 59.6875 
C 9.40625 59.6875 8.90625 59.6875 8.796875 59.5 
C 8.703125 59.296875 8.703125 59.09375 8.703125 57 
C 11.796875 57 17 57.59375 21 59.984375 
L 21 7.296875 
C 21 3.796875 20.796875 2.59375 12.203125 2.59375 
L 9.203125 2.59375 
L 9.203125 0 
C 14 0.09375 19 0.1875 23.796875 0.1875 
C 28.59375 0.1875 33.59375 0.09375 38.40625 0 
L 38.40625 2.59375 
L 35.40625 2.59375 
C 26.796875 2.59375 26.59375 3.6875 26.59375 7.296875 
z
" id="CMR17-49"/>
     </defs>
     <g transform="translate(17.035398 48.74563)rotate(-90)scale(0.144 -0.144)">
      <use transform="translate(0 14.943915)scale(0.996264)" xlink:href="#CMMI12-115"/>
      <use transform="translate(45.950048 0)scale(0.697382)" xlink:href="#CMR17-49"/>
     </g>
    </g>
   </g>
   <g id="line2d_14">
    <path clip-path="url(#p41bf58652b)" d="M 76.385455 35.069444 
L 80.412152 34.714965 
L 84.438849 33.939125 
L 88.465547 32.607581 
L 92.492244 30.991637 
L 96.518941 29.33464 
L 100.545639 27.989929 
L 104.572336 26.861768 
L 108.599033 25.925972 
L 112.625731 24.996918 
L 116.652428 24.322001 
L 120.679125 23.935189 
L 124.705823 23.511119 
L 128.73252 23.155988 
L 132.759217 22.927991 
L 136.785915 22.81536 
L 140.812612 22.819135 
L 144.83931 22.890304 
L 148.866007 22.97582 
L 152.892704 23.038204 
L 156.919402 23.070492 
L 160.946099 23.093323 
L 164.972796 23.105779 
L 168.999494 23.115596 
L 173.026191 23.15055 
L 177.052888 23.20999 
L 181.079586 23.252279 
L 185.106283 23.293206 
L 189.13298 23.355759 
L 193.159678 23.448712 
L 197.186375 23.569484 
L 201.213072 23.707111 
L 205.23977 23.867551 
L 209.266467 24.006668 
L 213.293165 24.115801 
L 217.319862 24.196916 
L 221.346559 24.30426 
L 225.373257 24.471616 
L 229.399954 24.680213 
L 233.426651 24.89963 
L 237.453349 25.155841 
L 241.480046 25.482581 
L 245.506743 25.92082 
L 249.533441 26.506852 
L 253.560138 27.096556 
L 257.586835 27.922999 
L 261.613533 29.168301 
L 265.64023 30.760775 
L 269.666928 32.663733 
L 273.693625 35.283121 
L 277.720322 39.030371 
L 281.74702 44.554836 
L 285.773717 50.976195 
L 289.800414 56.585865 
L 293.827112 60.405229 
L 297.853809 62.751449 
L 301.880506 63.07776 
L 305.907204 61.532119 
L 309.933901 58.116366 
L 313.960598 52.563189 
L 317.987296 45.496455 
L 322.013993 39.397054 
L 326.04069 35.36308 
L 330.067388 32.473294 
L 334.094085 29.491995 
L 338.120783 27.103099 
L 342.14748 25.6684 
L 346.174177 24.919464 
L 350.200875 24.381897 
L 354.227572 23.990065 
L 358.254269 23.822509 
L 362.280967 23.812679 
L 366.307664 23.876111 
L 370.334361 24.010338 
L 374.361059 24.198537 
L 378.387756 24.386534 
L 382.414453 24.520631 
L 386.441151 24.654995 
L 390.467848 24.789017 
L 394.494545 24.905176 
" style="fill:none;stroke:#1f77b4;stroke-linecap:square;stroke-width:1.5;"/>
   </g>
   <g id="line2d_15">
    <path clip-path="url(#p41bf58652b)" d="M 76.385455 34.692945 
L 80.412152 34.352435 
L 84.438849 33.64824 
L 88.465547 32.594594 
L 92.492244 31.27511 
L 96.518941 29.825726 
L 100.545639 28.397661 
L 104.572336 27.117614 
L 108.599033 26.063114 
L 112.625731 25.258975 
L 116.652428 24.688919 
L 120.679125 24.312811 
L 124.705823 24.082435 
L 128.73252 23.952522 
L 132.759217 23.886498 
L 136.785915 23.857972 
L 140.812612 23.849624 
L 144.83931 23.851026 
L 148.866007 23.856419 
L 152.892704 23.862955 
L 156.919402 23.869499 
L 160.946099 23.875921 
L 164.972796 23.882736 
L 168.999494 23.890956 
L 173.026191 23.902039 
L 177.052888 23.917845 
L 181.079586 23.940492 
L 185.106283 23.972089 
L 189.13298 24.014356 
L 193.159678 24.068226 
L 197.186375 24.133609 
L 201.213072 24.209467 
L 205.23977 24.294212 
L 209.266467 24.386327 
L 213.293165 24.485 
L 217.319862 24.59055 
L 221.346559 24.704641 
L 225.373257 24.830351 
L 229.399954 24.972356 
L 233.426651 25.137441 
L 237.453349 25.335624 
L 241.480046 25.582112 
L 245.506743 25.900364 
L 249.533441 26.326515 
L 253.560138 26.915332 
L 257.586835 27.74747 
L 261.613533 28.936949 
L 265.64023 30.635608 
L 269.666928 33.026797 
L 273.693625 36.291763 
L 277.720322 40.522336 
L 281.74702 45.565455 
L 285.773717 50.871671 
L 289.800414 55.56801 
L 293.827112 58.901442 
L 297.853809 60.668938 
L 301.880506 61.020644 
L 305.907204 59.885266 
L 309.933901 56.965401 
L 313.960598 52.350525 
L 317.987296 46.792711 
L 322.013993 41.279963 
L 326.04069 36.509562 
L 330.067388 32.745323 
L 334.094085 29.954468 
L 338.120783 27.976948 
L 342.14748 26.628944 
L 346.174177 25.747197 
L 350.200875 25.201344 
L 354.227572 24.892762 
L 358.254269 24.7489 
L 362.280967 24.716958 
L 366.307664 24.758361 
L 370.334361 24.844492 
L 374.361059 24.95368 
L 378.387756 25.069266 
L 382.414453 25.178538 
L 386.441151 25.272245 
L 390.467848 25.344412 
L 394.494545 25.392169 
" style="fill:none;stroke:#ff7f0e;stroke-linecap:square;stroke-width:1.5;"/>
   </g>
   <g id="patch_3">
    <path d="M 60.48 69.11712 
L 60.48 16.776 
" style="fill:none;stroke:#000000;stroke-linecap:square;stroke-linejoin:miter;stroke-width:0.8;"/>
   </g>
   <g id="patch_4">
    <path d="M 410.4 69.11712 
L 410.4 16.776 
" style="fill:none;stroke:#000000;stroke-linecap:square;stroke-linejoin:miter;stroke-width:0.8;"/>
   </g>
   <g id="patch_5">
    <path d="M 60.48 69.11712 
L 410.4 69.11712 
" style="fill:none;stroke:#000000;stroke-linecap:square;stroke-linejoin:miter;stroke-width:0.8;"/>
   </g>
   <g id="patch_6">
    <path d="M 60.48 16.776 
L 410.4 16.776 
" style="fill:none;stroke:#000000;stroke-linecap:square;stroke-linejoin:miter;stroke-width:0.8;"/>
   </g>
  </g>
  <g id="axes_2">
   <g id="patch_7">
    <path d="M 60.48 121.45824 
L 410.4 121.45824 
L 410.4 69.11712 
L 60.48 69.11712 
z
" style="fill:#ffffff;"/>
   </g>
   <g id="matplotlib.axis_3">
    <g id="xtick_10">
     <g id="line2d_16">
      <g>
       <use style="stroke:#000000;stroke-width:0.8;" x="76.385455" xlink:href="#m261d093ef9" y="121.45824"/>
      </g>
     </g>
    </g>
    <g id="xtick_11">
     <g id="line2d_17">
      <g>
       <use style="stroke:#000000;stroke-width:0.8;" x="116.652428" xlink:href="#m261d093ef9" y="121.45824"/>
      </g>
     </g>
    </g>
    <g id="xtick_12">
     <g id="line2d_18">
      <g>
       <use style="stroke:#000000;stroke-width:0.8;" x="156.919402" xlink:href="#m261d093ef9" y="121.45824"/>
      </g>
     </g>
    </g>
    <g id="xtick_13">
     <g id="line2d_19">
      <g>
       <use style="stroke:#000000;stroke-width:0.8;" x="197.186375" xlink:href="#m261d093ef9" y="121.45824"/>
      </g>
     </g>
    </g>
    <g id="xtick_14">
     <g id="line2d_20">
      <g>
       <use style="stroke:#000000;stroke-width:0.8;" x="237.453349" xlink:href="#m261d093ef9" y="121.45824"/>
      </g>
     </g>
    </g>
    <g id="xtick_15">
     <g id="line2d_21">
      <g>
       <use style="stroke:#000000;stroke-width:0.8;" x="277.720322" xlink:href="#m261d093ef9" y="121.45824"/>
      </g>
     </g>
    </g>
    <g id="xtick_16">
     <g id="line2d_22">
      <g>
       <use style="stroke:#000000;stroke-width:0.8;" x="317.987296" xlink:href="#m261d093ef9" y="121.45824"/>
      </g>
     </g>
    </g>
    <g id="xtick_17">
     <g id="line2d_23">
      <g>
       <use style="stroke:#000000;stroke-width:0.8;" x="358.254269" xlink:href="#m261d093ef9" y="121.45824"/>
      </g>
     </g>
    </g>
    <g id="xtick_18">
     <g id="line2d_24">
      <g>
       <use style="stroke:#000000;stroke-width:0.8;" x="398.521243" xlink:href="#m261d093ef9" y="121.45824"/>
      </g>
     </g>
    </g>
   </g>
   <g id="matplotlib.axis_4">
    <g id="ytick_5">
     <g id="line2d_25">
      <g>
       <use style="stroke:#000000;stroke-width:0.8;" x="60.48" xlink:href="#mff8bf85295" y="115.41888"/>
      </g>
     </g>
     <g id="text_6">
      <!-- 0.93 -->
      <g transform="translate(28.507302 120.400192)scale(0.144 -0.144)">
       <use transform="scale(0.996264)" xlink:href="#CMSS17-48"/>
       <use transform="translate(46.843624 0)scale(0.996264)" xlink:href="#CMSS17-46"/>
       <use transform="translate(72.867828 0)scale(0.996264)" xlink:href="#CMSS17-57"/>
       <use transform="translate(119.711452 0)scale(0.996264)" xlink:href="#CMSS17-51"/>
      </g>
     </g>
    </g>
    <g id="ytick_6">
     <g id="line2d_26">
      <g>
       <use style="stroke:#000000;stroke-width:0.8;" x="60.48" xlink:href="#mff8bf85295" y="101.99808"/>
      </g>
     </g>
     <g id="text_7">
      <!-- 2.16 -->
      <g transform="translate(28.507302 106.979392)scale(0.144 -0.144)">
       <use transform="scale(0.996264)" xlink:href="#CMSS17-50"/>
       <use transform="translate(46.843624 0)scale(0.996264)" xlink:href="#CMSS17-46"/>
       <use transform="translate(72.867828 0)scale(0.996264)" xlink:href="#CMSS17-49"/>
       <use transform="translate(119.711452 0)scale(0.996264)" xlink:href="#CMSS17-54"/>
      </g>
     </g>
    </g>
    <g id="ytick_7">
     <g id="line2d_27">
      <g>
       <use style="stroke:#000000;stroke-width:0.8;" x="60.48" xlink:href="#mff8bf85295" y="88.57728"/>
      </g>
     </g>
     <g id="text_8">
      <!-- 3.39 -->
      <g transform="translate(28.507302 93.558592)scale(0.144 -0.144)">
       <use transform="scale(0.996264)" xlink:href="#CMSS17-51"/>
       <use transform="translate(46.843624 0)scale(0.996264)" xlink:href="#CMSS17-46"/>
       <use transform="translate(72.867828 0)scale(0.996264)" xlink:href="#CMSS17-51"/>
       <use transform="translate(119.711452 0)scale(0.996264)" xlink:href="#CMSS17-57"/>
      </g>
     </g>
    </g>
    <g id="ytick_8">
     <g id="line2d_28">
      <g>
       <use style="stroke:#000000;stroke-width:0.8;" x="60.48" xlink:href="#mff8bf85295" y="75.15648"/>
      </g>
     </g>
     <g id="text_9">
      <!-- 4.62 -->
      <g transform="translate(28.507302 80.137793)scale(0.144 -0.144)">
       <use transform="scale(0.996264)" xlink:href="#CMSS17-52"/>
       <use transform="translate(46.843624 0)scale(0.996264)" xlink:href="#CMSS17-46"/>
       <use transform="translate(72.867828 0)scale(0.996264)" xlink:href="#CMSS17-54"/>
       <use transform="translate(119.711452 0)scale(0.996264)" xlink:href="#CMSS17-50"/>
      </g>
     </g>
    </g>
    <g id="text_10">
     <!-- $s_{25}$ -->
     <defs>
      <path d="M 41.703125 15.46875 
L 39.90625 15.46875 
C 38.90625 8.390625 38.09375 7.1875 37.703125 6.59375 
C 37.203125 5.796875 30 5.796875 28.59375 5.796875 
L 9.40625 5.796875 
C 13 9.6875 20 16.765625 28.5 24.9375 
C 34.59375 30.71875 41.703125 37.5 41.703125 47.390625 
C 41.703125 59.1875 32.296875 66 21.796875 66 
C 10.796875 66 4.09375 56.296875 4.09375 47.296875 
C 4.09375 43.390625 7 42.890625 8.203125 42.890625 
C 9.203125 42.890625 12.203125 43.484375 12.203125 46.984375 
C 12.203125 50.09375 9.59375 51 8.203125 51 
C 7.59375 51 7 50.890625 6.59375 50.6875 
C 8.5 59.1875 14.296875 63.390625 20.40625 63.390625 
C 29.09375 63.390625 34.796875 56.5 34.796875 47.390625 
C 34.796875 38.703125 29.703125 31.21875 24 24.734375 
L 4.09375 2.296875 
L 4.09375 0 
L 39.296875 0 
z
" id="CMR17-50"/>
      <path d="M 11.40625 58.59375 
C 12.40625 58.1875 16.5 56.890625 20.703125 56.890625 
C 30 56.890625 35.09375 61.890625 38 64.6875 
C 38 65.484375 38 66 37.40625 66 
C 37.296875 66 37.09375 66 36.296875 65.59375 
C 32.796875 64.09375 28.703125 63 23.703125 63 
C 20.703125 63 16.203125 63.359375 11.296875 65.484375 
C 10.203125 66 10 66 9.90625 66 
C 9.40625 66 9.296875 65.890625 9.296875 63.90625 
L 9.296875 34.859375 
C 9.296875 33.015625 9.296875 32.5 10.296875 32.5 
C 10.796875 32.5 11 32.703125 11.5 33.421875 
C 14.703125 38.046875 19.09375 40 24.09375 40 
C 27.59375 40 35.09375 37.734375 35.09375 20.203125 
C 35.09375 16.984375 35.09375 11.1875 32.09375 6.59375 
C 29.59375 2.484375 25.703125 0.390625 21.40625 0.390625 
C 14.796875 0.390625 8.09375 4.984375 6.296875 12.6875 
C 6.703125 12.59375 7.5 12.390625 7.90625 12.390625 
C 9.203125 12.390625 11.703125 13.09375 11.703125 16.1875 
C 11.703125 18.890625 9.796875 20 7.90625 20 
C 5.59375 20 4.09375 18.59375 4.09375 15.796875 
C 4.09375 7.09375 11 -2 21.59375 -2 
C 31.90625 -2 41.703125 6.890625 41.703125 19.796875 
C 41.703125 32.09375 33.90625 41.59375 24.203125 41.59375 
C 19.09375 41.59375 14.796875 39.6875 11.40625 36 
z
" id="CMR17-53"/>
     </defs>
     <g transform="translate(21.717775 103.577417)rotate(-90)scale(0.144 -0.144)">
      <use transform="translate(0 14.943915)scale(0.996264)" xlink:href="#CMMI12-115"/>
      <use transform="translate(45.950048 0)scale(0.697382)" xlink:href="#CMR17-50"/>
      <use transform="translate(77.93323 0)scale(0.697382)" xlink:href="#CMR17-53"/>
     </g>
    </g>
   </g>
   <g id="line2d_29">
    <path clip-path="url(#p77bef1b257)" d="M 76.385455 98.816 
L 80.412152 99.170668 
L 84.438849 99.969127 
L 88.465547 101.363179 
L 92.492244 103.129875 
L 96.518941 105.054135 
L 100.545639 106.674419 
L 104.572336 108.171451 
L 108.599033 109.536591 
L 112.625731 110.948785 
L 116.652428 112.169689 
L 120.679125 113.01022 
L 124.705823 113.728327 
L 128.73252 114.302491 
L 132.759217 114.748595 
L 136.785915 115.073998 
L 140.812612 115.274919 
L 144.83931 115.377572 
L 148.866007 115.413858 
L 152.892704 115.41888 
L 156.919402 115.41317 
L 160.946099 115.382441 
L 164.972796 115.32883 
L 168.999494 115.246422 
L 173.026191 115.115858 
L 177.052888 114.936232 
L 181.079586 114.757473 
L 185.106283 114.565615 
L 189.13298 114.34092 
L 193.159678 114.095315 
L 197.186375 113.843937 
L 201.213072 113.587463 
L 205.23977 113.320411 
L 209.266467 113.087861 
L 213.293165 112.898664 
L 217.319862 112.743565 
L 221.346559 112.565611 
L 225.373257 112.33056 
L 229.399954 112.044595 
L 233.426651 111.719832 
L 237.453349 111.314649 
L 241.480046 110.789541 
L 245.506743 110.100342 
L 249.533441 109.203088 
L 253.560138 108.290917 
L 257.586835 107.096428 
L 261.613533 105.375883 
L 265.64023 103.221126 
L 269.666928 100.806632 
L 273.693625 97.86282 
L 277.720322 93.941685 
L 281.74702 88.689588 
L 285.773717 83.372257 
L 289.800414 79.351085 
L 293.827112 76.927797 
L 297.853809 75.37353 
L 301.880506 75.15648 
L 305.907204 76.131157 
L 309.933901 78.344983 
L 313.960598 82.398024 
L 317.987296 88.43813 
L 322.013993 94.224125 
L 326.04069 98.328716 
L 330.067388 101.549699 
L 334.094085 105.009422 
L 338.120783 107.980502 
L 342.14748 110.016002 
L 346.174177 111.290875 
L 350.200875 112.321413 
L 354.227572 113.134392 
L 358.254269 113.62118 
L 362.280967 113.873048 
L 366.307664 113.993793 
L 370.334361 114.004015 
L 374.361059 113.929205 
L 378.387756 113.819803 
L 382.414453 113.750698 
L 386.441151 113.674691 
L 390.467848 113.587516 
L 394.494545 113.518483 
" style="fill:none;stroke:#1f77b4;stroke-linecap:square;stroke-width:1.5;"/>
   </g>
   <g id="line2d_30">
    <path clip-path="url(#p77bef1b257)" d="M 76.385455 99.29366 
L 80.412152 99.644758 
L 84.438849 100.384445 
L 88.465547 101.524267 
L 92.492244 103.01075 
L 96.518941 104.728042 
L 100.545639 106.523284 
L 104.572336 108.246468 
L 108.599033 109.785559 
L 112.625731 111.081767 
L 116.652428 112.124232 
L 120.679125 112.933846 
L 124.705823 113.546465 
L 128.73252 114.000848 
L 132.759217 114.332069 
L 136.785915 114.568952 
L 140.812612 114.733812 
L 144.83931 114.843216 
L 148.866007 114.909032 
L 152.892704 114.939448 
L 156.919402 114.939826 
L 160.946099 114.913404 
L 164.972796 114.861875 
L 168.999494 114.785907 
L 173.026191 114.685653 
L 177.052888 114.561283 
L 181.079586 114.413543 
L 185.106283 114.244285 
L 189.13298 114.056845 
L 193.159678 113.856142 
L 197.186375 113.648316 
L 201.213072 113.439906 
L 205.23977 113.236631 
L 209.266467 113.04211 
L 213.293165 112.8568 
L 217.319862 112.677424 
L 221.346559 112.496907 
L 225.373257 112.304589 
L 229.399954 112.086432 
L 233.426651 111.82483 
L 237.453349 111.497792 
L 241.480046 111.077289 
L 245.506743 110.526655 
L 249.533441 109.797025 
L 253.560138 108.823036 
L 257.586835 107.518749 
L 261.613533 105.776312 
L 265.64023 103.473184 
L 269.666928 100.498254 
L 273.693625 96.809977 
L 277.720322 92.528225 
L 281.74702 88.018087 
L 285.773717 83.859884 
L 289.800414 80.620255 
L 293.827112 78.551493 
L 297.853809 77.53642 
L 301.880506 77.377786 
L 305.907204 78.116764 
L 309.933901 80.026481 
L 313.960598 83.278665 
L 317.987296 87.634833 
L 322.013993 92.491042 
L 326.04069 97.195958 
L 330.067388 101.312513 
L 334.094085 104.669239 
L 338.120783 107.279699 
L 342.14748 109.244545 
L 346.174177 110.686317 
L 350.200875 111.718338 
L 354.227572 112.434678 
L 358.254269 112.910092 
L 362.280967 113.203477 
L 366.307664 113.361881 
L 370.334361 113.423908 
L 374.361059 113.422099 
L 378.387756 113.384319 
L 382.414453 113.334207 
L 386.441151 113.290926 
L 390.467848 113.268568 
L 394.494545 113.275607 
" style="fill:none;stroke:#ff7f0e;stroke-linecap:square;stroke-width:1.5;"/>
   </g>
   <g id="patch_8">
    <path d="M 60.48 121.45824 
L 60.48 69.11712 
" style="fill:none;stroke:#000000;stroke-linecap:square;stroke-linejoin:miter;stroke-width:0.8;"/>
   </g>
   <g id="patch_9">
    <path d="M 410.4 121.45824 
L 410.4 69.11712 
" style="fill:none;stroke:#000000;stroke-linecap:square;stroke-linejoin:miter;stroke-width:0.8;"/>
   </g>
   <g id="patch_10">
    <path d="M 60.48 121.45824 
L 410.4 121.45824 
" style="fill:none;stroke:#000000;stroke-linecap:square;stroke-linejoin:miter;stroke-width:0.8;"/>
   </g>
   <g id="patch_11">
    <path d="M 60.48 69.11712 
L 410.4 69.11712 
" style="fill:none;stroke:#000000;stroke-linecap:square;stroke-linejoin:miter;stroke-width:0.8;"/>
   </g>
  </g>
  <g id="axes_3">
   <g id="patch_12">
    <path d="M 60.48 173.79936 
L 410.4 173.79936 
L 410.4 121.45824 
L 60.48 121.45824 
z
" style="fill:#ffffff;"/>
   </g>
   <g id="matplotlib.axis_5">
    <g id="xtick_19">
     <g id="line2d_31">
      <g>
       <use style="stroke:#000000;stroke-width:0.8;" x="76.385455" xlink:href="#m261d093ef9" y="173.79936"/>
      </g>
     </g>
    </g>
    <g id="xtick_20">
     <g id="line2d_32">
      <g>
       <use style="stroke:#000000;stroke-width:0.8;" x="116.652428" xlink:href="#m261d093ef9" y="173.79936"/>
      </g>
     </g>
    </g>
    <g id="xtick_21">
     <g id="line2d_33">
      <g>
       <use style="stroke:#000000;stroke-width:0.8;" x="156.919402" xlink:href="#m261d093ef9" y="173.79936"/>
      </g>
     </g>
    </g>
    <g id="xtick_22">
     <g id="line2d_34">
      <g>
       <use style="stroke:#000000;stroke-width:0.8;" x="197.186375" xlink:href="#m261d093ef9" y="173.79936"/>
      </g>
     </g>
    </g>
    <g id="xtick_23">
     <g id="line2d_35">
      <g>
       <use style="stroke:#000000;stroke-width:0.8;" x="237.453349" xlink:href="#m261d093ef9" y="173.79936"/>
      </g>
     </g>
    </g>
    <g id="xtick_24">
     <g id="line2d_36">
      <g>
       <use style="stroke:#000000;stroke-width:0.8;" x="277.720322" xlink:href="#m261d093ef9" y="173.79936"/>
      </g>
     </g>
    </g>
    <g id="xtick_25">
     <g id="line2d_37">
      <g>
       <use style="stroke:#000000;stroke-width:0.8;" x="317.987296" xlink:href="#m261d093ef9" y="173.79936"/>
      </g>
     </g>
    </g>
    <g id="xtick_26">
     <g id="line2d_38">
      <g>
       <use style="stroke:#000000;stroke-width:0.8;" x="358.254269" xlink:href="#m261d093ef9" y="173.79936"/>
      </g>
     </g>
    </g>
    <g id="xtick_27">
     <g id="line2d_39">
      <g>
       <use style="stroke:#000000;stroke-width:0.8;" x="398.521243" xlink:href="#m261d093ef9" y="173.79936"/>
      </g>
     </g>
    </g>
   </g>
   <g id="matplotlib.axis_6">
    <g id="ytick_9">
     <g id="line2d_40">
      <g>
       <use style="stroke:#000000;stroke-width:0.8;" x="60.48" xlink:href="#mff8bf85295" y="167.76"/>
      </g>
     </g>
     <g id="text_11">
      <!-- 0.68 -->
      <defs>
       <path d="M 30.203125 35.09375 
C 37.796875 37.59375 41.703125 43.640625 41.703125 49.59375 
C 41.703125 58.96875 33.703125 67 23.5 67 
C 12.90625 67 5.203125 58.671875 5.203125 49.59375 
C 5.203125 43.734375 9 37.6875 16.703125 35.09375 
C 6.90625 31.296875 3.90625 23.6875 3.90625 18 
C 3.90625 7 12.796875 -2 23.40625 -2 
C 34.40625 -2 43 7.1875 43 18 
C 43 24.59375 39.09375 31.59375 30.203125 35.09375 
z
M 23.5 38.09375 
C 16.796875 38.09375 12.296875 42.625 12.296875 49.484375 
C 12.296875 56.453125 16.796875 60.890625 23.5 60.890625 
C 29.703125 60.890625 34.59375 56.859375 34.59375 49.484375 
C 34.59375 42.234375 29.796875 38.09375 23.5 38.09375 
z
M 23.5 4.1875 
C 17.796875 4.1875 11.703125 8.09375 11.703125 18.09375 
C 11.703125 28.390625 18.5 32 23.40625 32 
C 28.796875 32 35.203125 28.1875 35.203125 18.09375 
C 35.203125 7.6875 28.59375 4.1875 23.5 4.1875 
z
" id="CMSS17-56"/>
      </defs>
      <g transform="translate(28.507302 172.741312)scale(0.144 -0.144)">
       <use transform="scale(0.996264)" xlink:href="#CMSS17-48"/>
       <use transform="translate(46.843624 0)scale(0.996264)" xlink:href="#CMSS17-46"/>
       <use transform="translate(72.867828 0)scale(0.996264)" xlink:href="#CMSS17-54"/>
       <use transform="translate(119.711452 0)scale(0.996264)" xlink:href="#CMSS17-56"/>
      </g>
     </g>
    </g>
    <g id="ytick_10">
     <g id="line2d_41">
      <g>
       <use style="stroke:#000000;stroke-width:0.8;" x="60.48" xlink:href="#mff8bf85295" y="154.3392"/>
      </g>
     </g>
     <g id="text_12">
      <!-- 0.76 -->
      <defs>
       <path d="M 21.703125 59.1875 
C 22.90625 59.1875 24.09375 59.296875 25.296875 59.296875 
L 36.796875 59.296875 
C 22.5 42.421875 14.296875 21.09375 14.296875 -1 
L 22.296875 -1 
C 22.296875 20.390625 29.296875 42.109375 43 59.484375 
L 43 66 
L 3.90625 66 
L 3.90625 59.1875 
z
" id="CMSS17-55"/>
      </defs>
      <g transform="translate(28.507302 159.320512)scale(0.144 -0.144)">
       <use transform="scale(0.996264)" xlink:href="#CMSS17-48"/>
       <use transform="translate(46.843624 0)scale(0.996264)" xlink:href="#CMSS17-46"/>
       <use transform="translate(72.867828 0)scale(0.996264)" xlink:href="#CMSS17-55"/>
       <use transform="translate(119.711452 0)scale(0.996264)" xlink:href="#CMSS17-54"/>
      </g>
     </g>
    </g>
    <g id="ytick_11">
     <g id="line2d_42">
      <g>
       <use style="stroke:#000000;stroke-width:0.8;" x="60.48" xlink:href="#mff8bf85295" y="140.9184"/>
      </g>
     </g>
     <g id="text_13">
      <!-- 0.84 -->
      <g transform="translate(28.507302 145.899712)scale(0.144 -0.144)">
       <use transform="scale(0.996264)" xlink:href="#CMSS17-48"/>
       <use transform="translate(46.843624 0)scale(0.996264)" xlink:href="#CMSS17-46"/>
       <use transform="translate(72.867828 0)scale(0.996264)" xlink:href="#CMSS17-56"/>
       <use transform="translate(119.711452 0)scale(0.996264)" xlink:href="#CMSS17-52"/>
      </g>
     </g>
    </g>
    <g id="ytick_12">
     <g id="line2d_43">
      <g>
       <use style="stroke:#000000;stroke-width:0.8;" x="60.48" xlink:href="#mff8bf85295" y="127.4976"/>
      </g>
     </g>
     <g id="text_14">
      <!-- 0.92 -->
      <g transform="translate(28.507302 132.478912)scale(0.144 -0.144)">
       <use transform="scale(0.996264)" xlink:href="#CMSS17-48"/>
       <use transform="translate(46.843624 0)scale(0.996264)" xlink:href="#CMSS17-46"/>
       <use transform="translate(72.867828 0)scale(0.996264)" xlink:href="#CMSS17-57"/>
       <use transform="translate(119.711452 0)scale(0.996264)" xlink:href="#CMSS17-50"/>
      </g>
     </g>
    </g>
    <g id="text_15">
     <!-- $s_{50}$ -->
     <defs>
      <path d="M 42 31.84375 
C 42 37.96875 41.90625 48.421875 37.703125 56.453125 
C 34 63.484375 28.09375 66 22.90625 66 
C 18.09375 66 12 63.78125 8.203125 56.5625 
C 4.203125 49.015625 3.796875 39.671875 3.796875 31.84375 
C 3.796875 26.109375 3.90625 17.375 7 9.734375 
C 11.296875 -0.609375 19 -2 22.90625 -2 
C 27.5 -2 34.5 -0.109375 38.59375 9.4375 
C 41.59375 16.375 42 24.5 42 31.84375 
z
M 22.90625 -0.40625 
C 16.5 -0.40625 12.703125 5.125 11.296875 12.75 
C 10.203125 18.6875 10.203125 27.328125 10.203125 32.953125 
C 10.203125 40.6875 10.203125 47.109375 11.5 53.234375 
C 13.40625 61.78125 19 64.390625 22.90625 64.390625 
C 27 64.390625 32.296875 61.671875 34.203125 53.4375 
C 35.5 47.71875 35.59375 40.984375 35.59375 32.953125 
C 35.59375 26.421875 35.59375 18.375 34.40625 12.453125 
C 32.296875 1.5 26.40625 -0.40625 22.90625 -0.40625 
z
" id="CMR17-48"/>
     </defs>
     <g transform="translate(21.717775 155.918537)rotate(-90)scale(0.144 -0.144)">
      <use transform="translate(0 14.943915)scale(0.996264)" xlink:href="#CMMI12-115"/>
      <use transform="translate(45.950048 0)scale(0.697382)" xlink:href="#CMR17-53"/>
      <use transform="translate(77.93323 0)scale(0.697382)" xlink:href="#CMR17-48"/>
     </g>
    </g>
   </g>
   <g id="line2d_44">
    <path clip-path="url(#p85ef732407)" d="M 76.385455 132.911531 
L 80.412152 132.966838 
L 84.438849 133.078753 
L 88.465547 133.333527 
L 92.492244 133.857703 
L 96.518941 134.838927 
L 100.545639 135.63048 
L 104.572336 136.613619 
L 108.599033 138.094377 
L 112.625731 139.502599 
L 116.652428 142.403488 
L 120.679125 145.888505 
L 124.705823 149.232003 
L 128.73252 151.742514 
L 132.759217 154.015112 
L 136.785915 156.333908 
L 140.812612 158.724932 
L 144.83931 160.605804 
L 148.866007 161.524644 
L 152.892704 162.106202 
L 156.919402 162.380893 
L 160.946099 162.25305 
L 164.972796 161.756632 
L 168.999494 160.870253 
L 173.026191 159.675084 
L 177.052888 158.001152 
L 181.079586 156.453812 
L 185.106283 154.741126 
L 189.13298 152.755207 
L 193.159678 150.998656 
L 197.186375 149.476237 
L 201.213072 148.123729 
L 205.23977 146.877916 
L 209.266467 145.897317 
L 213.293165 145.166471 
L 217.319862 144.557999 
L 221.346559 143.901405 
L 225.373257 143.098985 
L 229.399954 142.158281 
L 233.426651 141.137787 
L 237.453349 140.067811 
L 241.480046 138.704069 
L 245.506743 136.978998 
L 249.533441 135.073584 
L 253.560138 133.114411 
L 257.586835 131.535156 
L 261.613533 130.138406 
L 265.64023 129.737925 
L 269.666928 129.790782 
L 273.693625 129.298314 
L 277.720322 128.597497 
L 281.74702 127.639397 
L 285.773717 127.4976 
L 289.800414 127.901941 
L 293.827112 128.191301 
L 297.853809 128.380227 
L 301.880506 128.457844 
L 305.907204 128.324215 
L 309.933901 128.068598 
L 313.960598 127.747789 
L 317.987296 128.632798 
L 322.013993 130.143229 
L 326.04069 130.66272 
L 330.067388 129.933561 
L 334.094085 130.719636 
L 338.120783 131.29104 
L 342.14748 131.988175 
L 346.174177 133.408911 
L 350.200875 135.151797 
L 354.227572 136.750593 
L 358.254269 138.243121 
L 362.280967 139.40568 
L 366.307664 140.293725 
L 370.334361 140.951391 
L 374.361059 141.44244 
L 378.387756 141.92023 
L 382.414453 142.467717 
L 386.441151 142.988122 
L 390.467848 143.636171 
L 394.494545 144.249555 
" style="fill:none;stroke:#1f77b4;stroke-linecap:square;stroke-width:1.5;"/>
   </g>
   <g id="line2d_45">
    <path clip-path="url(#p85ef732407)" d="M 76.385455 136.811676 
L 80.412152 136.907574 
L 84.438849 137.12792 
L 88.465547 137.510696 
L 92.492244 138.100719 
L 96.518941 138.948254 
L 100.545639 140.103727 
L 104.572336 141.60865 
L 108.599033 143.483924 
L 112.625731 145.718791 
L 116.652428 148.264067 
L 120.679125 151.033044 
L 124.705823 153.910154 
L 128.73252 156.765333 
L 132.759217 159.469484 
L 136.785915 161.907519 
L 140.812612 163.986706 
L 144.83931 165.640333 
L 148.866007 166.827782 
L 152.892704 167.532637 
L 156.919402 167.76 
L 160.946099 167.533848 
L 164.972796 166.8947 
L 168.999494 165.89735 
L 173.026191 164.608287 
L 177.052888 163.10252 
L 181.079586 161.459393 
L 185.106283 159.757554 
L 189.13298 158.069559 
L 193.159678 156.45669 
L 197.186375 154.964837 
L 201.213072 153.621926 
L 205.23977 152.437187 
L 209.266467 151.401926 
L 213.293165 150.49159 
L 217.319862 149.668776 
L 221.346559 148.88676 
L 225.373257 148.093748 
L 229.399954 147.237499 
L 233.426651 146.270487 
L 237.453349 145.155237 
L 241.480046 143.869667 
L 245.506743 142.411844 
L 249.533441 140.80363 
L 253.560138 139.091996 
L 257.586835 137.347136 
L 261.613533 135.656094 
L 265.64023 134.11199 
L 269.666928 132.799665 
L 273.693625 131.78072 
L 277.720322 131.08162 
L 281.74702 130.688176 
L 285.773717 130.548106 
L 289.800414 130.581412 
L 293.827112 130.696721 
L 297.853809 130.810581 
L 301.880506 130.865938 
L 305.907204 130.845375 
L 309.933901 130.775499 
L 313.960598 130.720628 
L 317.987296 130.767172 
L 322.013993 131.002544 
L 326.04069 131.494308 
L 330.067388 132.274845 
L 334.094085 133.334956 
L 338.120783 134.627075 
L 342.14748 136.076254 
L 346.174177 137.595181 
L 350.200875 139.099102 
L 354.227572 140.517645 
L 358.254269 141.801983 
L 362.280967 142.927565 
L 366.307664 143.893337 
L 370.334361 144.718513 
L 374.361059 145.438056 
L 378.387756 146.097508 
L 382.414453 146.74778 
L 386.441151 147.440111 
L 390.467848 148.221552 
L 394.494545 149.130746 
" style="fill:none;stroke:#ff7f0e;stroke-linecap:square;stroke-width:1.5;"/>
   </g>
   <g id="patch_13">
    <path d="M 60.48 173.79936 
L 60.48 121.45824 
" style="fill:none;stroke:#000000;stroke-linecap:square;stroke-linejoin:miter;stroke-width:0.8;"/>
   </g>
   <g id="patch_14">
    <path d="M 410.4 173.79936 
L 410.4 121.45824 
" style="fill:none;stroke:#000000;stroke-linecap:square;stroke-linejoin:miter;stroke-width:0.8;"/>
   </g>
   <g id="patch_15">
    <path d="M 60.48 173.79936 
L 410.4 173.79936 
" style="fill:none;stroke:#000000;stroke-linecap:square;stroke-linejoin:miter;stroke-width:0.8;"/>
   </g>
   <g id="patch_16">
    <path d="M 60.48 121.45824 
L 410.4 121.45824 
" style="fill:none;stroke:#000000;stroke-linecap:square;stroke-linejoin:miter;stroke-width:0.8;"/>
   </g>
  </g>
  <g id="axes_4">
   <g id="patch_17">
    <path d="M 60.48 226.14048 
L 410.4 226.14048 
L 410.4 173.79936 
L 60.48 173.79936 
z
" style="fill:#ffffff;"/>
   </g>
   <g id="matplotlib.axis_7">
    <g id="xtick_28">
     <g id="line2d_46">
      <g>
       <use style="stroke:#000000;stroke-width:0.8;" x="76.385455" xlink:href="#m261d093ef9" y="226.14048"/>
      </g>
     </g>
    </g>
    <g id="xtick_29">
     <g id="line2d_47">
      <g>
       <use style="stroke:#000000;stroke-width:0.8;" x="116.652428" xlink:href="#m261d093ef9" y="226.14048"/>
      </g>
     </g>
    </g>
    <g id="xtick_30">
     <g id="line2d_48">
      <g>
       <use style="stroke:#000000;stroke-width:0.8;" x="156.919402" xlink:href="#m261d093ef9" y="226.14048"/>
      </g>
     </g>
    </g>
    <g id="xtick_31">
     <g id="line2d_49">
      <g>
       <use style="stroke:#000000;stroke-width:0.8;" x="197.186375" xlink:href="#m261d093ef9" y="226.14048"/>
      </g>
     </g>
    </g>
    <g id="xtick_32">
     <g id="line2d_50">
      <g>
       <use style="stroke:#000000;stroke-width:0.8;" x="237.453349" xlink:href="#m261d093ef9" y="226.14048"/>
      </g>
     </g>
    </g>
    <g id="xtick_33">
     <g id="line2d_51">
      <g>
       <use style="stroke:#000000;stroke-width:0.8;" x="277.720322" xlink:href="#m261d093ef9" y="226.14048"/>
      </g>
     </g>
    </g>
    <g id="xtick_34">
     <g id="line2d_52">
      <g>
       <use style="stroke:#000000;stroke-width:0.8;" x="317.987296" xlink:href="#m261d093ef9" y="226.14048"/>
      </g>
     </g>
    </g>
    <g id="xtick_35">
     <g id="line2d_53">
      <g>
       <use style="stroke:#000000;stroke-width:0.8;" x="358.254269" xlink:href="#m261d093ef9" y="226.14048"/>
      </g>
     </g>
    </g>
    <g id="xtick_36">
     <g id="line2d_54">
      <g>
       <use style="stroke:#000000;stroke-width:0.8;" x="398.521243" xlink:href="#m261d093ef9" y="226.14048"/>
      </g>
     </g>
    </g>
   </g>
   <g id="matplotlib.axis_8">
    <g id="ytick_13">
     <g id="line2d_55">
      <g>
       <use style="stroke:#000000;stroke-width:0.8;" x="60.48" xlink:href="#mff8bf85295" y="220.10112"/>
      </g>
     </g>
     <g id="text_16">
      <!-- 3.45 -->
      <defs>
       <path d="M 14.59375 59.59375 
L 39.09375 59.59375 
L 39.09375 66 
L 7.296875 66 
L 7.296875 28.59375 
L 14 28.59375 
C 15.796875 32.859375 19.5 36 24.296875 36 
C 28.796875 36 33.796875 31.9375 33.796875 20.296875 
C 33.796875 7.84375 26.703125 4.1875 21.5 4.1875 
C 15.09375 4.1875 9.203125 8.140625 6.59375 13.609375 
L 3.40625 7.9375 
C 8 0.796875 15.5 -2 21.5 -2 
C 33.09375 -2 42.203125 7.9375 42.203125 20.09375 
C 42.203125 32.546875 34.09375 42.09375 24.40625 42.09375 
C 20.90625 42.09375 17.5 40.890625 14.59375 38.5 
z
" id="CMSS17-53"/>
      </defs>
      <g transform="translate(28.507302 225.082432)scale(0.144 -0.144)">
       <use transform="scale(0.996264)" xlink:href="#CMSS17-51"/>
       <use transform="translate(46.843624 0)scale(0.996264)" xlink:href="#CMSS17-46"/>
       <use transform="translate(72.867828 0)scale(0.996264)" xlink:href="#CMSS17-52"/>
       <use transform="translate(119.711452 0)scale(0.996264)" xlink:href="#CMSS17-53"/>
      </g>
     </g>
    </g>
    <g id="ytick_14">
     <g id="line2d_56">
      <g>
       <use style="stroke:#000000;stroke-width:0.8;" x="60.48" xlink:href="#mff8bf85295" y="206.68032"/>
      </g>
     </g>
     <g id="text_17">
      <!-- 4.10 -->
      <g transform="translate(28.507302 211.661632)scale(0.144 -0.144)">
       <use transform="scale(0.996264)" xlink:href="#CMSS17-52"/>
       <use transform="translate(46.843624 0)scale(0.996264)" xlink:href="#CMSS17-46"/>
       <use transform="translate(72.867828 0)scale(0.996264)" xlink:href="#CMSS17-49"/>
       <use transform="translate(119.711452 0)scale(0.996264)" xlink:href="#CMSS17-48"/>
      </g>
     </g>
    </g>
    <g id="ytick_15">
     <g id="line2d_57">
      <g>
       <use style="stroke:#000000;stroke-width:0.8;" x="60.48" xlink:href="#mff8bf85295" y="193.25952"/>
      </g>
     </g>
     <g id="text_18">
      <!-- 4.74 -->
      <g transform="translate(28.507302 198.240832)scale(0.144 -0.144)">
       <use transform="scale(0.996264)" xlink:href="#CMSS17-52"/>
       <use transform="translate(46.843624 0)scale(0.996264)" xlink:href="#CMSS17-46"/>
       <use transform="translate(72.867828 0)scale(0.996264)" xlink:href="#CMSS17-55"/>
       <use transform="translate(119.711452 0)scale(0.996264)" xlink:href="#CMSS17-52"/>
      </g>
     </g>
    </g>
    <g id="ytick_16">
     <g id="line2d_58">
      <g>
       <use style="stroke:#000000;stroke-width:0.8;" x="60.48" xlink:href="#mff8bf85295" y="179.83872"/>
      </g>
     </g>
     <g id="text_19">
      <!-- 5.39 -->
      <g transform="translate(28.507302 184.820032)scale(0.144 -0.144)">
       <use transform="scale(0.996264)" xlink:href="#CMSS17-53"/>
       <use transform="translate(46.843624 0)scale(0.996264)" xlink:href="#CMSS17-46"/>
       <use transform="translate(72.867828 0)scale(0.996264)" xlink:href="#CMSS17-51"/>
       <use transform="translate(119.711452 0)scale(0.996264)" xlink:href="#CMSS17-57"/>
      </g>
     </g>
    </g>
    <g id="text_20">
     <!-- $s_{75}$ -->
     <defs>
      <path d="M 45.09375 61.796875 
L 45.09375 64 
L 21.59375 64 
C 9.90625 64 9.703125 65.09375 9.296875 67 
L 7.5 67 
L 4.59375 48.5 
L 6.40625 48.5 
C 6.703125 50.40625 7.40625 55.5 8.59375 57.390625 
C 9.203125 58.1875 16.59375 58.1875 18.296875 58.1875 
L 40.296875 58.1875 
L 29.203125 41.71875 
C 21.796875 30.640625 16.703125 15.671875 16.703125 2.59375 
C 16.703125 1.390625 16.703125 -2 20.296875 -2 
C 23.90625 -2 23.90625 1.390625 23.90625 2.6875 
L 23.90625 7.28125 
C 23.90625 23.65625 26.703125 34.4375 31.296875 41.3125 
z
" id="CMR17-55"/>
     </defs>
     <g transform="translate(21.717775 208.259657)rotate(-90)scale(0.144 -0.144)">
      <use transform="translate(0 14.943915)scale(0.996264)" xlink:href="#CMMI12-115"/>
      <use transform="translate(45.950048 0)scale(0.697382)" xlink:href="#CMR17-55"/>
      <use transform="translate(77.93323 0)scale(0.697382)" xlink:href="#CMR17-53"/>
     </g>
    </g>
   </g>
   <g id="line2d_59">
    <path clip-path="url(#pa6e06b61dd)" d="M 76.385455 220.10112 
L 80.412152 219.830032 
L 84.438849 218.980003 
L 88.465547 218.503977 
L 92.492244 218.154642 
L 96.518941 217.140811 
L 100.545639 215.839975 
L 104.572336 214.270473 
L 108.599033 211.232874 
L 112.625731 209.286466 
L 116.652428 205.987442 
L 120.679125 202.937439 
L 124.705823 201.273081 
L 128.73252 200.665502 
L 132.759217 199.999866 
L 136.785915 199.548364 
L 140.812612 198.682131 
L 144.83931 197.769049 
L 148.866007 197.212869 
L 152.892704 196.822349 
L 156.919402 196.57981 
L 160.946099 196.39736 
L 164.972796 196.268151 
L 168.999494 196.164126 
L 173.026191 195.981349 
L 177.052888 195.83998 
L 181.079586 195.801159 
L 185.106283 195.883796 
L 189.13298 196.050805 
L 193.159678 196.069031 
L 197.186375 195.941359 
L 201.213072 195.735975 
L 205.23977 195.445001 
L 209.266467 195.169527 
L 213.293165 194.915887 
L 217.319862 194.790247 
L 221.346559 194.592177 
L 225.373257 194.199348 
L 229.399954 193.664932 
L 233.426651 193.113876 
L 237.453349 192.423601 
L 241.480046 191.642066 
L 245.506743 190.885101 
L 249.533441 190.151951 
L 253.560138 190.191873 
L 257.586835 190.386226 
L 261.613533 189.702868 
L 265.64023 189.179424 
L 269.666928 190.930473 
L 273.693625 190.886181 
L 277.720322 190.562432 
L 281.74702 189.039759 
L 285.773717 187.181563 
L 289.800414 185.279293 
L 293.827112 182.445319 
L 297.853809 180.516022 
L 301.880506 179.946412 
L 305.907204 180.233323 
L 309.933901 181.19481 
L 313.960598 182.123769 
L 317.987296 184.221363 
L 322.013993 184.624608 
L 326.04069 183.94361 
L 330.067388 181.492494 
L 334.094085 179.83872 
L 338.120783 180.575844 
L 342.14748 180.788363 
L 346.174177 180.556151 
L 350.200875 181.193928 
L 354.227572 182.048664 
L 358.254269 182.543546 
L 362.280967 182.821725 
L 366.307664 182.957098 
L 370.334361 183.113879 
L 374.361059 183.269311 
L 378.387756 183.493526 
L 382.414453 183.750655 
L 386.441151 183.923184 
L 390.467848 184.120807 
L 394.494545 184.413635 
" style="fill:none;stroke:#1f77b4;stroke-linecap:square;stroke-width:1.5;"/>
   </g>
   <g id="line2d_60">
    <path clip-path="url(#pa6e06b61dd)" d="M 76.385455 219.09885 
L 80.412152 218.802206 
L 84.438849 218.182006 
L 88.465547 217.201585 
L 92.492244 215.851347 
L 96.518941 214.15288 
L 100.545639 212.159415 
L 104.572336 209.952142 
L 108.599033 207.632405 
L 112.625731 205.310547 
L 116.652428 203.0931 
L 120.679125 201.070313 
L 124.705823 199.306469 
L 128.73252 197.834759 
L 132.759217 196.657521 
L 136.785915 195.751347 
L 140.812612 195.075264 
L 144.83931 194.580066 
L 148.866007 194.216821 
L 152.892704 193.94332 
L 156.919402 193.727867 
L 160.946099 193.550392 
L 164.972796 193.401272 
L 168.999494 193.278526 
L 173.026191 193.183896 
L 177.052888 193.11903 
L 181.079586 193.082121 
L 185.106283 193.066115 
L 189.13298 193.058563 
L 193.159678 193.043241 
L 197.186375 193.002834 
L 201.213072 192.922219 
L 205.23977 192.791117 
L 209.266467 192.605823 
L 213.293165 192.369458 
L 217.319862 192.09113 
L 221.346559 191.784238 
L 225.373257 191.464522 
L 229.399954 191.148364 
L 233.426651 190.851572 
L 237.453349 190.588626 
L 241.480046 190.372013 
L 245.506743 190.211367 
L 249.533441 190.111882 
L 253.560138 190.07197 
L 257.586835 190.080335 
L 261.613533 190.113567 
L 265.64023 190.13546 
L 269.666928 190.099453 
L 273.693625 189.955279 
L 277.720322 189.659042 
L 281.74702 189.184786 
L 285.773717 188.533748 
L 289.800414 187.737248 
L 293.827112 186.851272 
L 297.853809 185.943621 
L 301.880506 185.078201 
L 305.907204 184.30181 
L 309.933901 183.637175 
L 313.960598 183.083631 
L 317.987296 182.624161 
L 322.013993 182.235911 
L 326.04069 181.900129 
L 330.067388 181.607995 
L 334.094085 181.361085 
L 338.120783 181.167575 
L 342.14748 181.036949 
L 346.174177 180.97568 
L 350.200875 180.985065 
L 354.227572 181.061478 
L 358.254269 181.198001 
L 362.280967 181.386437 
L 366.307664 181.618907 
L 370.334361 181.888633 
L 374.361059 182.189944 
L 378.387756 182.517767 
L 382.414453 182.867057 
L 386.441151 183.232522 
L 390.467848 183.60872 
L 394.494545 183.990776 
" style="fill:none;stroke:#ff7f0e;stroke-linecap:square;stroke-width:1.5;"/>
   </g>
   <g id="patch_18">
    <path d="M 60.48 226.14048 
L 60.48 173.79936 
" style="fill:none;stroke:#000000;stroke-linecap:square;stroke-linejoin:miter;stroke-width:0.8;"/>
   </g>
   <g id="patch_19">
    <path d="M 410.4 226.14048 
L 410.4 173.79936 
" style="fill:none;stroke:#000000;stroke-linecap:square;stroke-linejoin:miter;stroke-width:0.8;"/>
   </g>
   <g id="patch_20">
    <path d="M 60.48 226.14048 
L 410.4 226.14048 
" style="fill:none;stroke:#000000;stroke-linecap:square;stroke-linejoin:miter;stroke-width:0.8;"/>
   </g>
   <g id="patch_21">
    <path d="M 60.48 173.79936 
L 410.4 173.79936 
" style="fill:none;stroke:#000000;stroke-linecap:square;stroke-linejoin:miter;stroke-width:0.8;"/>
   </g>
  </g>
  <g id="axes_5">
   <g id="patch_22">
    <path d="M 60.48 278.4816 
L 410.4 278.4816 
L 410.4 226.14048 
L 60.48 226.14048 
z
" style="fill:#ffffff;"/>
   </g>
   <g id="matplotlib.axis_9">
    <g id="xtick_37">
     <g id="line2d_61">
      <g>
       <use style="stroke:#000000;stroke-width:0.8;" x="76.385455" xlink:href="#m261d093ef9" y="278.4816"/>
      </g>
     </g>
     <g id="text_21">
      <!-- $0$ -->
      <g transform="translate(72.873668 295.444225)scale(0.144 -0.144)">
       <use transform="scale(0.996264)" xlink:href="#CMR17-48"/>
      </g>
     </g>
    </g>
    <g id="xtick_38">
     <g id="line2d_62">
      <g>
       <use style="stroke:#000000;stroke-width:0.8;" x="116.652428" xlink:href="#m261d093ef9" y="278.4816"/>
      </g>
     </g>
     <g id="text_22">
      <!-- $10$ -->
      <g transform="translate(109.628855 295.444225)scale(0.144 -0.144)">
       <use transform="scale(0.996264)" xlink:href="#CMR17-49"/>
       <use transform="translate(45.690477 0)scale(0.996264)" xlink:href="#CMR17-48"/>
      </g>
     </g>
    </g>
    <g id="xtick_39">
     <g id="line2d_63">
      <g>
       <use style="stroke:#000000;stroke-width:0.8;" x="156.919402" xlink:href="#m261d093ef9" y="278.4816"/>
      </g>
     </g>
     <g id="text_23">
      <!-- $20$ -->
      <g transform="translate(149.895829 295.444225)scale(0.144 -0.144)">
       <use transform="scale(0.996264)" xlink:href="#CMR17-50"/>
       <use transform="translate(45.690477 0)scale(0.996264)" xlink:href="#CMR17-48"/>
      </g>
     </g>
    </g>
    <g id="xtick_40">
     <g id="line2d_64">
      <g>
       <use style="stroke:#000000;stroke-width:0.8;" x="197.186375" xlink:href="#m261d093ef9" y="278.4816"/>
      </g>
     </g>
     <g id="text_24">
      <!-- $30$ -->
      <defs>
       <path d="M 22.09375 34 
C 31 34 34.90625 26.140625 34.90625 17.09375 
C 34.90625 5.03125 28.5 0.390625 22.703125 0.390625 
C 17.40625 0.390625 8.796875 3.015625 6.09375 10.796875 
C 6.59375 10.59375 7.09375 10.59375 7.59375 10.59375 
C 10 10.59375 11.796875 12.1875 11.796875 14.796875 
C 11.796875 17.6875 9.59375 19 7.59375 19 
C 5.90625 19 3.296875 18.1875 3.296875 14.484375 
C 3.296875 5.234375 12.296875 -2 22.90625 -2 
C 34 -2 42.5 6.75 42.5 16.984375 
C 42.5 26.84375 34.5 34 25 35.09375 
C 32.59375 36.671875 39.90625 43.375 39.90625 52.390625 
C 39.90625 60.25 32 66 23 66 
C 13.90625 66 5.90625 60.34375 5.90625 52.296875 
C 5.90625 48.796875 8.5 48.1875 9.796875 48.1875 
C 11.90625 48.1875 13.703125 49.484375 13.703125 52.09375 
C 13.703125 54.6875 11.90625 56 9.796875 56 
C 9.40625 56 8.90625 56 8.5 55.796875 
C 11.40625 62.484375 19.296875 63.6875 22.796875 63.6875 
C 26.296875 63.6875 32.90625 61.96875 32.90625 52.296875 
C 32.90625 49.484375 32.5 44.546875 29.09375 40.21875 
C 26.09375 36.390625 22.703125 36.1875 19.40625 35.890625 
C 18.90625 35.890625 16.59375 35.6875 16.203125 35.6875 
C 15.5 35.59375 15.09375 35.5 15.09375 34.796875 
C 15.09375 34.09375 15.203125 34 17.203125 34 
z
" id="CMR17-51"/>
      </defs>
      <g transform="translate(190.162802 295.444225)scale(0.144 -0.144)">
       <use transform="scale(0.996264)" xlink:href="#CMR17-51"/>
       <use transform="translate(45.690477 0)scale(0.996264)" xlink:href="#CMR17-48"/>
      </g>
     </g>
    </g>
    <g id="xtick_41">
     <g id="line2d_65">
      <g>
       <use style="stroke:#000000;stroke-width:0.8;" x="237.453349" xlink:href="#m261d093ef9" y="278.4816"/>
      </g>
     </g>
     <g id="text_25">
      <!-- $40$ -->
      <defs>
       <path d="M 33.59375 64.796875 
C 33.59375 66.890625 33.5 67 31.703125 67 
L 2 19.59375 
L 2 17 
L 27.796875 17 
L 27.796875 7.1875 
C 27.796875 3.59375 27.59375 2.59375 20.59375 2.59375 
L 18.703125 2.59375 
L 18.703125 0 
C 21.90625 0.1875 27.296875 0.1875 30.703125 0.1875 
C 34.09375 0.1875 39.5 0.1875 42.703125 0 
L 42.703125 2.59375 
L 40.796875 2.59375 
C 33.796875 2.59375 33.59375 3.59375 33.59375 7.1875 
L 33.59375 17 
L 43.796875 17 
L 43.796875 19.59375 
L 33.59375 19.59375 
z
M 28.09375 58.171875 
L 28.09375 19.59375 
L 4 19.59375 
z
" id="CMR17-52"/>
      </defs>
      <g transform="translate(230.429776 295.444225)scale(0.144 -0.144)">
       <use transform="scale(0.996264)" xlink:href="#CMR17-52"/>
       <use transform="translate(45.690477 0)scale(0.996264)" xlink:href="#CMR17-48"/>
      </g>
     </g>
    </g>
    <g id="xtick_42">
     <g id="line2d_66">
      <g>
       <use style="stroke:#000000;stroke-width:0.8;" x="277.720322" xlink:href="#m261d093ef9" y="278.4816"/>
      </g>
     </g>
     <g id="text_26">
      <!-- $50$ -->
      <g transform="translate(270.696749 295.444225)scale(0.144 -0.144)">
       <use transform="scale(0.996264)" xlink:href="#CMR17-53"/>
       <use transform="translate(45.690477 0)scale(0.996264)" xlink:href="#CMR17-48"/>
      </g>
     </g>
    </g>
    <g id="xtick_43">
     <g id="line2d_67">
      <g>
       <use style="stroke:#000000;stroke-width:0.8;" x="317.987296" xlink:href="#m261d093ef9" y="278.4816"/>
      </g>
     </g>
     <g id="text_27">
      <!-- $60$ -->
      <defs>
       <path d="M 10.59375 34.34375 
C 10.59375 58 21.796875 63.6875 28.296875 63.6875 
C 30.40625 63.6875 35.5 63.265625 37.5 59.09375 
C 35.90625 59.09375 32.90625 59.09375 32.90625 55.59375 
C 32.90625 52.890625 35.09375 52 36.5 52 
C 37.40625 52 40.09375 52.390625 40.09375 55.796875 
C 40.09375 62.296875 35.09375 66 28.203125 66 
C 16.296875 66 3.796875 53.296875 3.796875 31.421875 
C 3.796875 4.015625 15.09375 -2 23.09375 -2 
C 32.796875 -2 42 6.734375 42 20.234375 
C 42 32.828125 33.90625 42 23.703125 42 
C 17.59375 42 13.09375 37.96875 10.59375 30.921875 
z
M 23.09375 0.390625 
C 10.796875 0.390625 10.796875 18.9375 10.796875 22.65625 
C 10.796875 29.90625 14.203125 40.390625 23.5 40.390625 
C 25.203125 40.390625 30.09375 40.390625 33.40625 33.4375 
C 35.203125 29.515625 35.203125 25.375 35.203125 20.34375 
C 35.203125 14.90625 35.203125 10.875 33.09375 6.84375 
C 30.90625 2.703125 27.703125 0.390625 23.09375 0.390625 
z
" id="CMR17-54"/>
      </defs>
      <g transform="translate(310.963723 295.444225)scale(0.144 -0.144)">
       <use transform="scale(0.996264)" xlink:href="#CMR17-54"/>
       <use transform="translate(45.690477 0)scale(0.996264)" xlink:href="#CMR17-48"/>
      </g>
     </g>
    </g>
    <g id="xtick_44">
     <g id="line2d_68">
      <g>
       <use style="stroke:#000000;stroke-width:0.8;" x="358.254269" xlink:href="#m261d093ef9" y="278.4816"/>
      </g>
     </g>
     <g id="text_28">
      <!-- $70$ -->
      <g transform="translate(351.230696 295.444225)scale(0.144 -0.144)">
       <use transform="scale(0.996264)" xlink:href="#CMR17-55"/>
       <use transform="translate(45.690477 0)scale(0.996264)" xlink:href="#CMR17-48"/>
      </g>
     </g>
    </g>
    <g id="xtick_45">
     <g id="line2d_69">
      <g>
       <use style="stroke:#000000;stroke-width:0.8;" x="398.521243" xlink:href="#m261d093ef9" y="278.4816"/>
      </g>
     </g>
     <g id="text_29">
      <!-- $80$ -->
      <defs>
       <path d="M 27.203125 35.765625 
C 33.5 38.96875 39.90625 43.796875 39.90625 51.53125 
C 39.90625 60.6875 31.09375 66 23 66 
C 13.90625 66 5.90625 59.375 5.90625 50.234375 
C 5.90625 47.71875 6.5 43.390625 10.40625 39.578125 
C 11.40625 38.578125 15.59375 35.5625 18.296875 33.65625 
C 13.796875 31.34375 3.296875 25.8125 3.296875 14.765625 
C 3.296875 4.40625 13.09375 -2 22.796875 -2 
C 33.5 -2 42.5 5.71875 42.5 15.96875 
C 42.5 25.109375 36.40625 29.328125 32.40625 32.046875 
z
M 14.09375 44.609375 
C 13.296875 45.109375 9.296875 48.21875 9.296875 52.9375 
C 9.296875 59.078125 15.59375 63.6875 22.796875 63.6875 
C 30.703125 63.6875 36.5 58.0625 36.5 51.53125 
C 36.5 42.1875 26.09375 36.859375 25.59375 36.859375 
C 25.5 36.859375 25.40625 36.859375 24.59375 37.46875 
z
M 32.5 24 
C 34 22.90625 38.796875 19.578125 38.796875 13.453125 
C 38.796875 6.015625 31.40625 0.390625 23 0.390625 
C 13.90625 0.390625 7 6.921875 7 14.859375 
C 7 22.796875 13.09375 29.4375 20 32.546875 
z
" id="CMR17-56"/>
      </defs>
      <g transform="translate(391.49767 295.444225)scale(0.144 -0.144)">
       <use transform="scale(0.996264)" xlink:href="#CMR17-56"/>
       <use transform="translate(45.690477 0)scale(0.996264)" xlink:href="#CMR17-48"/>
      </g>
     </g>
    </g>
   </g>
   <g id="matplotlib.axis_10">
    <g id="ytick_17">
     <g id="line2d_70">
      <g>
       <use style="stroke:#000000;stroke-width:0.8;" x="60.48" xlink:href="#mff8bf85295" y="272.44224"/>
      </g>
     </g>
     <g id="text_30">
      <!-- -10.45 -->
      <g transform="translate(16.801352 277.423552)scale(0.144 -0.144)">
       <use transform="scale(0.996264)" xlink:href="#CMSS17-45"/>
       <use transform="translate(31.229113 0)scale(0.996264)" xlink:href="#CMSS17-49"/>
       <use transform="translate(78.072736 0)scale(0.996264)" xlink:href="#CMSS17-48"/>
       <use transform="translate(124.91636 0)scale(0.996264)" xlink:href="#CMSS17-46"/>
       <use transform="translate(150.940565 0)scale(0.996264)" xlink:href="#CMSS17-52"/>
       <use transform="translate(197.784188 0)scale(0.996264)" xlink:href="#CMSS17-53"/>
      </g>
     </g>
    </g>
    <g id="ytick_18">
     <g id="line2d_71">
      <g>
       <use style="stroke:#000000;stroke-width:0.8;" x="60.48" xlink:href="#mff8bf85295" y="259.02144"/>
      </g>
     </g>
     <g id="text_31">
      <!-- -9.57 -->
      <g transform="translate(23.824925 264.002752)scale(0.144 -0.144)">
       <use transform="scale(0.996264)" xlink:href="#CMSS17-45"/>
       <use transform="translate(31.229113 0)scale(0.996264)" xlink:href="#CMSS17-57"/>
       <use transform="translate(78.072736 0)scale(0.996264)" xlink:href="#CMSS17-46"/>
       <use transform="translate(104.096941 0)scale(0.996264)" xlink:href="#CMSS17-53"/>
       <use transform="translate(150.940565 0)scale(0.996264)" xlink:href="#CMSS17-55"/>
      </g>
     </g>
    </g>
    <g id="ytick_19">
     <g id="line2d_72">
      <g>
       <use style="stroke:#000000;stroke-width:0.8;" x="60.48" xlink:href="#mff8bf85295" y="245.60064"/>
      </g>
     </g>
     <g id="text_32">
      <!-- -8.69 -->
      <g transform="translate(23.824925 250.581952)scale(0.144 -0.144)">
       <use transform="scale(0.996264)" xlink:href="#CMSS17-45"/>
       <use transform="translate(31.229113 0)scale(0.996264)" xlink:href="#CMSS17-56"/>
       <use transform="translate(78.072736 0)scale(0.996264)" xlink:href="#CMSS17-46"/>
       <use transform="translate(104.096941 0)scale(0.996264)" xlink:href="#CMSS17-54"/>
       <use transform="translate(150.940565 0)scale(0.996264)" xlink:href="#CMSS17-57"/>
      </g>
     </g>
    </g>
    <g id="ytick_20">
     <g id="line2d_73">
      <g>
       <use style="stroke:#000000;stroke-width:0.8;" x="60.48" xlink:href="#mff8bf85295" y="232.17984"/>
      </g>
     </g>
     <g id="text_33">
      <!-- -7.81 -->
      <g transform="translate(23.824925 237.161152)scale(0.144 -0.144)">
       <use transform="scale(0.996264)" xlink:href="#CMSS17-45"/>
       <use transform="translate(31.229113 0)scale(0.996264)" xlink:href="#CMSS17-55"/>
       <use transform="translate(78.072736 0)scale(0.996264)" xlink:href="#CMSS17-46"/>
       <use transform="translate(104.096941 0)scale(0.996264)" xlink:href="#CMSS17-56"/>
       <use transform="translate(150.940565 0)scale(0.996264)" xlink:href="#CMSS17-49"/>
      </g>
     </g>
    </g>
    <g id="text_34">
     <!-- $s_{92}$ -->
     <defs>
      <path d="M 35.203125 29.234375 
C 35.203125 7 26.09375 0.390625 18.59375 0.390625 
C 16.296875 0.390625 10.703125 0.671875 8.40625 4.390625 
C 11 4 12.90625 5.390625 12.90625 7.890625 
C 12.90625 10.59375 10.703125 11.5 9.296875 11.5 
C 8.40625 11.5 5.703125 11.09375 5.703125 7.6875 
C 5.703125 1.0625 11.59375 -2 18.796875 -2 
C 30.296875 -2 42 10.390625 42 32.65625 
C 42 60.265625 30.796875 66 23.203125 66 
C 13.296875 66 3.796875 57.25 3.796875 43.75 
C 3.796875 31.25 11.90625 22 22.09375 22 
C 30.5 22 34.203125 29.84375 35.203125 33.15625 
z
M 22.296875 23.59375 
C 19.59375 23.59375 15.796875 24.09375 12.703125 30.140625 
C 10.59375 34.078125 10.59375 38.703125 10.59375 43.640625 
C 10.59375 49.59375 10.59375 53.71875 13.40625 58.15625 
C 14.796875 60.265625 17.40625 63.6875 23.203125 63.6875 
C 35 63.6875 35 45.453125 35 41.421875 
C 35 34.265625 31.796875 23.59375 22.296875 23.59375 
z
" id="CMR17-57"/>
     </defs>
     <g transform="translate(10.011825 260.600777)rotate(-90)scale(0.144 -0.144)">
      <use transform="translate(0 14.943915)scale(0.996264)" xlink:href="#CMMI12-115"/>
      <use transform="translate(45.950048 0)scale(0.697382)" xlink:href="#CMR17-57"/>
      <use transform="translate(77.93323 0)scale(0.697382)" xlink:href="#CMR17-50"/>
     </g>
    </g>
   </g>
   <g id="line2d_74">
    <path clip-path="url(#p4ebccf4f6a)" d="M 76.385455 267.648672 
L 80.412152 267.337503 
L 84.438849 266.383504 
L 88.465547 265.159826 
L 92.492244 263.992705 
L 96.518941 262.424278 
L 100.545639 260.993193 
L 104.572336 259.781222 
L 108.599033 257.983632 
L 112.625731 256.206794 
L 116.652428 253.477587 
L 120.679125 250.871702 
L 124.705823 247.979631 
L 128.73252 245.541001 
L 132.759217 242.64781 
L 136.785915 240.652775 
L 140.812612 238.293096 
L 144.83931 235.725414 
L 148.866007 233.829138 
L 152.892704 232.729066 
L 156.919402 232.17984 
L 160.946099 232.213666 
L 164.972796 232.788538 
L 168.999494 233.753807 
L 173.026191 235.030319 
L 177.052888 236.584871 
L 181.079586 238.187764 
L 185.106283 239.704636 
L 189.13298 241.1248 
L 193.159678 242.329558 
L 197.186375 243.312541 
L 201.213072 244.208383 
L 205.23977 245.074777 
L 209.266467 245.79589 
L 213.293165 246.302353 
L 217.319862 246.770903 
L 221.346559 247.268495 
L 225.373257 247.822265 
L 229.399954 248.313021 
L 233.426651 248.675876 
L 237.453349 248.902363 
L 241.480046 249.009092 
L 245.506743 249.342424 
L 249.533441 250.061442 
L 253.560138 251.12678 
L 257.586835 253.415563 
L 261.613533 255.079912 
L 265.64023 256.262653 
L 269.666928 258.042122 
L 273.693625 259.167347 
L 277.720322 261.133558 
L 281.74702 263.794415 
L 285.773717 266.3121 
L 289.800414 268.046487 
L 293.827112 268.096237 
L 297.853809 268.542959 
L 301.880506 268.719463 
L 305.907204 268.567114 
L 309.933901 268.408425 
L 313.960598 267.141904 
L 317.987296 265.657796 
L 322.013993 263.278383 
L 326.04069 262.056087 
L 330.067388 260.176433 
L 334.094085 256.038332 
L 338.120783 255.025028 
L 342.14748 253.933485 
L 346.174177 253.21198 
L 350.200875 252.63609 
L 354.227572 251.707832 
L 358.254269 250.763679 
L 362.280967 249.902709 
L 366.307664 248.969419 
L 370.334361 248.057361 
L 374.361059 247.180875 
L 378.387756 246.382788 
L 382.414453 245.615968 
L 386.441151 244.725361 
L 390.467848 243.802948 
L 394.494545 242.938198 
" style="fill:none;stroke:#1f77b4;stroke-linecap:square;stroke-width:1.5;"/>
   </g>
   <g id="line2d_75">
    <path clip-path="url(#p4ebccf4f6a)" d="M 76.385455 272.44224 
L 80.412152 272.281442 
L 84.438849 271.939704 
L 88.465547 271.382618 
L 92.492244 270.578496 
L 96.518941 269.49927 
L 100.545639 268.12208 
L 104.572336 266.431917 
L 108.599033 264.425596 
L 112.625731 262.116294 
L 116.652428 259.53801 
L 120.679125 256.748029 
L 124.705823 253.826393 
L 128.73252 250.871527 
L 132.759217 247.992705 
L 136.785915 245.300668 
L 140.812612 242.8979 
L 144.83931 240.870187 
L 148.866007 239.280543 
L 152.892704 238.16547 
L 156.919402 237.533824 
L 160.946099 237.367834 
L 164.972796 237.625835 
L 168.999494 238.24656 
L 173.026191 239.154502 
L 177.052888 240.266143 
L 181.079586 241.496511 
L 185.106283 242.765344 
L 189.13298 244.002503 
L 193.159678 245.152042 
L 197.186375 246.174726 
L 201.213072 247.048973 
L 205.23977 247.770624 
L 209.266467 248.351647 
L 213.293165 248.818117 
L 217.319862 249.207715 
L 221.346559 249.56657 
L 225.373257 249.945625 
L 229.399954 250.396447 
L 233.426651 250.966709 
L 237.453349 251.695514 
L 241.480046 252.609157 
L 245.506743 253.717788 
L 249.533441 255.013569 
L 253.560138 256.470758 
L 257.586835 258.047939 
L 261.613533 259.692337 
L 265.64023 261.345372 
L 269.666928 262.948628 
L 273.693625 264.448879 
L 277.720322 265.801158 
L 281.74702 266.969646 
L 285.773717 267.926932 
L 289.800414 268.652247 
L 293.827112 269.130221 
L 297.853809 269.350237 
L 301.880506 269.30642 
L 305.907204 268.997926 
L 309.933901 268.429075 
L 313.960598 267.609102 
L 317.987296 266.552286 
L 322.013993 265.278436 
L 326.04069 263.814237 
L 330.067388 262.194853 
L 334.094085 260.464785 
L 338.120783 258.677099 
L 342.14748 256.890489 
L 346.174177 255.164333 
L 350.200875 253.552802 
L 354.227572 252.099132 
L 358.254269 250.831171 
L 362.280967 249.758926 
L 366.307664 248.874179 
L 370.334361 248.152267 
L 374.361059 247.555261 
L 378.387756 247.036161 
L 382.414453 246.543586 
L 386.441151 246.026347 
L 390.467848 245.437748 
L 394.494545 244.739307 
" style="fill:none;stroke:#ff7f0e;stroke-linecap:square;stroke-width:1.5;"/>
   </g>
   <g id="patch_23">
    <path d="M 60.48 278.4816 
L 60.48 226.14048 
" style="fill:none;stroke:#000000;stroke-linecap:square;stroke-linejoin:miter;stroke-width:0.8;"/>
   </g>
   <g id="patch_24">
    <path d="M 410.4 278.4816 
L 410.4 226.14048 
" style="fill:none;stroke:#000000;stroke-linecap:square;stroke-linejoin:miter;stroke-width:0.8;"/>
   </g>
   <g id="patch_25">
    <path d="M 60.48 278.4816 
L 410.4 278.4816 
" style="fill:none;stroke:#000000;stroke-linecap:square;stroke-linejoin:miter;stroke-width:0.8;"/>
   </g>
   <g id="patch_26">
    <path d="M 60.48 226.14048 
L 410.4 226.14048 
" style="fill:none;stroke:#000000;stroke-linecap:square;stroke-linejoin:miter;stroke-width:0.8;"/>
   </g>
  </g>
  <g id="legend_1">
   <g id="patch_27">
    <path d="M 90.347769 328.32 
L 341.652231 328.32 
Q 344.532231 328.32 344.532231 325.44 
L 344.532231 306.810473 
Q 344.532231 303.930473 341.652231 303.930473 
L 90.347769 303.930473 
Q 87.467769 303.930473 87.467769 306.810473 
L 87.467769 325.44 
Q 87.467769 328.32 90.347769 328.32 
z
" style="fill:#ffffff;opacity:0.8;stroke:#cccccc;stroke-linejoin:miter;"/>
   </g>
   <g id="line2d_76">
    <path d="M 93.227769 314.730473 
L 122.027769 314.730473 
" style="fill:none;stroke:#1f77b4;stroke-linecap:square;stroke-width:1.5;"/>
   </g>
   <g id="line2d_77"/>
   <g id="text_35">
    <!-- Prediction -->
    <defs>
     <path d="M 32.90625 29 
C 44.90625 29 54.703125 38.234375 54.703125 49.046875 
C 54.703125 59.65625 45.296875 69 32.296875 69 
L 8.90625 69 
L 8.90625 0 
L 17.296875 0 
L 17.296875 29 
z
M 30.09375 63.390625 
C 41.703125 63.390625 46.796875 56.21875 46.796875 49.046875 
C 46.796875 42.359375 42.09375 34.796875 30.09375 34.796875 
L 17.09375 34.796875 
L 17.09375 63.390625 
z
" id="CMSS17-80"/>
     <path d="M 14.90625 21.390625 
C 14.90625 30.84375 21.796875 37.171875 30.59375 37.375 
L 30.59375 44 
C 24.203125 43.890625 18.203125 40.6875 14.59375 35.46875 
L 14.59375 43.484375 
L 7.5 43.484375 
L 7.5 0 
L 14.90625 0 
z
" id="CMSS17-114"/>
     <path d="M 39.09375 21.484375 
C 39.09375 24.796875 38.90625 31.265625 35.703125 36.671875 
C 32.203125 42.390625 26.5 44 22.203125 44 
C 11.796875 44 3 34.125 3 21.296875 
C 3 9.046875 12.09375 -1 23.59375 -1 
C 28.09375 -1 33.59375 0.296875 38.59375 3.890625 
C 38.59375 4.296875 38.40625 6.46875 38.296875 6.578125 
C 38.296875 6.765625 38 9.828125 38 10.234375 
C 33.203125 6.375 27.703125 5.09375 23.703125 5.09375 
C 17.296875 5.09375 10.40625 10.421875 10.09375 21.484375 
z
M 10.90625 27 
C 12.203125 32.59375 16.59375 37.890625 22.203125 37.890625 
C 23.703125 37.890625 30.703125 37.6875 32.5 27 
z
" id="CMSS17-101"/>
     <path d="M 40.796875 69 
L 33.40625 69 
L 33.40625 38.984375 
C 30.296875 41.59375 25.203125 44 19.59375 44 
C 10.5 44 3.296875 34.046875 3.296875 21.484375 
C 3.296875 8.9375 10.40625 -1 19.296875 -1 
C 26.203125 -1 30.796875 2.6875 33.203125 4.796875 
L 33.203125 -0.203125 
L 40.796875 -0.203125 
z
M 33.203125 13.296875 
C 33.203125 11.875 33.203125 10.359375 30.09375 7.625 
C 28.09375 5.90625 25.703125 5.09375 23.40625 5.09375 
C 18 5.09375 10.90625 9.140625 10.90625 21.390625 
C 10.90625 34.140625 18.90625 37.890625 24.40625 37.890625 
C 28.09375 37.890625 31.09375 36.0625 33.203125 33.03125 
z
" id="CMSS17-100"/>
     <path d="M 15.296875 66 
L 6.90625 66 
L 6.90625 57.59375 
L 15.296875 57.59375 
z
M 14.796875 43 
L 7.40625 43 
L 7.40625 0 
L 14.796875 0 
z
" id="CMSS17-105"/>
     <path d="M 38.5 39.6875 
C 38.5 40.390625 33.90625 42.390625 32.703125 42.796875 
C 29.40625 44 25.203125 44 24.09375 44 
C 11.09375 44 3.296875 32.6875 3.296875 21.296875 
C 3.296875 9.296875 12 -1 23.703125 -1 
C 30.40625 -1 35.203125 1.1875 39.09375 3.796875 
L 38.5 10.390625 
C 34.203125 7.09375 29.203125 5.296875 23.796875 5.296875 
C 16 5.296875 10.90625 12.09375 10.90625 21.390625 
C 10.90625 28.59375 14.203125 37.6875 24.203125 37.6875 
C 29.703125 37.6875 32.796875 36.59375 37.40625 33.484375 
z
" id="CMSS17-99"/>
     <path d="M 16.703125 37.1875 
L 29.703125 37.1875 
L 29.703125 43 
L 16.703125 43 
L 16.703125 55 
L 9.59375 55 
L 9.59375 43 
L 1.703125 43 
L 1.703125 37.1875 
L 9.40625 37.1875 
L 9.40625 11.734375 
C 9.40625 6 10.703125 -1 17.296875 -1 
C 22.296875 -1 26.90625 0.390625 31.296875 2.6875 
L 29.703125 8.609375 
C 27.296875 6.5 24.40625 5.296875 21.296875 5.296875 
C 16.90625 5.296875 16.703125 10.921875 16.703125 13.4375 
z
" id="CMSS17-116"/>
     <path d="M 44.203125 21.1875 
C 44.203125 33.984375 34.703125 44 23.5 44 
C 12 44 2.703125 33.6875 2.703125 21.1875 
C 2.703125 8.5 12.296875 -1 23.40625 -1 
C 34.796875 -1 44.203125 8.796875 44.203125 21.1875 
z
M 23.5 5.296875 
C 16.40625 5.296875 10.296875 11.09375 10.296875 21.984375 
C 10.296875 33.59375 17.40625 37.890625 23.40625 37.890625 
C 29.90625 37.890625 36.59375 33.1875 36.59375 21.984375 
C 36.59375 10.6875 30.09375 5.296875 23.5 5.296875 
z
" id="CMSS17-111"/>
     <path d="M 40.90625 29.34375 
C 40.90625 35.671875 39.40625 44 28.09375 44 
C 21.703125 44 17.5 40.6875 14.703125 37.28125 
L 14.703125 43.484375 
L 7.40625 43.484375 
L 7.40625 0 
L 15 0 
L 15 24.3125 
C 15 30.65625 17.40625 37.890625 24.203125 37.890625 
C 33 37.890625 33.296875 31.953125 33.296875 28.53125 
L 33.296875 0 
L 40.90625 0 
z
" id="CMSS17-110"/>
    </defs>
    <g transform="translate(133.547769 319.770473)scale(0.144 -0.144)">
     <use transform="scale(0.996264)" xlink:href="#CMSS17-80"/>
     <use transform="translate(59.735586 0)scale(0.996264)" xlink:href="#CMSS17-114"/>
     <use transform="translate(91.645359 0)scale(0.996264)" xlink:href="#CMSS17-101"/>
     <use transform="translate(133.284181 0)scale(0.996264)" xlink:href="#CMSS17-100"/>
     <use transform="translate(181.489124 0)scale(0.996264)" xlink:href="#CMSS17-105"/>
     <use transform="translate(203.669847 0)scale(0.996264)" xlink:href="#CMSS17-99"/>
     <use transform="translate(245.308669 0)scale(0.996264)" xlink:href="#CMSS17-116"/>
     <use transform="translate(279.140236 0)scale(0.996264)" xlink:href="#CMSS17-105"/>
     <use transform="translate(301.320959 0)scale(0.996264)" xlink:href="#CMSS17-111"/>
     <use transform="translate(348.164582 0)scale(0.996264)" xlink:href="#CMSS17-110"/>
    </g>
   </g>
   <g id="line2d_78">
    <path d="M 221.657903 314.730473 
L 250.457903 314.730473 
" style="fill:none;stroke:#ff7f0e;stroke-linecap:square;stroke-width:1.5;"/>
   </g>
   <g id="line2d_79"/>
   <g id="text_36">
    <!-- Ground truth -->
    <defs>
     <path d="M 56.40625 29.1875 
L 36.5 29.1875 
L 36.5 23 
L 48.796875 23 
L 48.796875 7.390625 
C 44.90625 6.296875 40.90625 5.5 36.90625 5.5 
C 22.90625 5.5 14.59375 20.484375 14.59375 34.6875 
C 14.59375 48.796875 23.296875 63.59375 36.90625 63.59375 
C 44.59375 63.59375 48.90625 61.1875 54.203125 57.1875 
L 55.5 65.1875 
C 48.90625 68.59375 44.796875 70 37.296875 70 
C 17.90625 70 6.203125 52.390625 6.203125 34.390625 
C 6.203125 17.1875 18 -1 36.703125 -1 
C 43.703125 -1 50.203125 0.796875 56.40625 3.890625 
z
" id="CMSS17-71"/>
     <path d="M 40.90625 43 
L 33.296875 43 
L 33.296875 15.25 
C 33.296875 7.8125 27.90625 4.796875 22.203125 4.796875 
C 15.59375 4.796875 15 7 15 11.125 
L 15 43 
L 7.40625 43 
L 7.40625 10.625 
C 7.40625 2.796875 10.09375 -1 17 -1 
C 20.40625 -1 28.09375 -0.203125 33.5 4.796875 
L 33.5 -0.203125 
L 40.90625 -0.203125 
z
" id="CMSS17-117"/>
     <path d="M 40.90625 29.34375 
C 40.90625 35.671875 39.40625 44 28.09375 44 
C 21.796875 44 17.703125 40.890625 14.796875 37.484375 
L 14.796875 69 
L 7.40625 69 
L 7.40625 0 
L 15 0 
L 15 24.3125 
C 15 30.65625 17.40625 37.890625 24.203125 37.890625 
C 33 37.890625 33.296875 31.953125 33.296875 28.53125 
L 33.296875 0 
L 40.90625 0 
z
" id="CMSS17-104"/>
    </defs>
    <g transform="translate(261.977903 319.770473)scale(0.144 -0.144)">
     <use transform="scale(0.996264)" xlink:href="#CMSS17-71"/>
     <use transform="translate(62.458226 0)scale(0.996264)" xlink:href="#CMSS17-114"/>
     <use transform="translate(94.367998 0)scale(0.996264)" xlink:href="#CMSS17-111"/>
     <use transform="translate(141.211622 0)scale(0.996264)" xlink:href="#CMSS17-117"/>
     <use transform="translate(189.416565 0)scale(0.996264)" xlink:href="#CMSS17-110"/>
     <use transform="translate(237.621508 0)scale(0.996264)" xlink:href="#CMSS17-100"/>
     <use transform="translate(317.055564 0)scale(0.996264)" xlink:href="#CMSS17-116"/>
     <use transform="translate(350.88713 0)scale(0.996264)" xlink:href="#CMSS17-114"/>
     <use transform="translate(382.796903 0)scale(0.996264)" xlink:href="#CMSS17-117"/>
     <use transform="translate(431.001846 0)scale(0.996264)" xlink:href="#CMSS17-116"/>
     <use transform="translate(464.833413 0)scale(0.996264)" xlink:href="#CMSS17-104"/>
    </g>
   </g>
  </g>
 </g>
 <defs>
  <clipPath id="p41bf58652b">
   <rect height="52.34112" width="349.92" x="60.48" y="16.776"/>
  </clipPath>
  <clipPath id="p77bef1b257">
   <rect height="52.34112" width="349.92" x="60.48" y="69.11712"/>
  </clipPath>
  <clipPath id="p85ef732407">
   <rect height="52.34112" width="349.92" x="60.48" y="121.45824"/>
  </clipPath>
  <clipPath id="pa6e06b61dd">
   <rect height="52.34112" width="349.92" x="60.48" y="173.79936"/>
  </clipPath>
  <clipPath id="p4ebccf4f6a">
   <rect height="52.34112" width="349.92" x="60.48" y="226.14048"/>
  </clipPath>
 </defs>
</svg>
