<?xml version="1.0" encoding="utf-8" standalone="no"?>
<!DOCTYPE svg PUBLIC "-//W3C//DTD SVG 1.1//EN"
  "http://www.w3.org/Graphics/SVG/1.1/DTD/svg11.dtd">
<!-- Created with matplotlib (http://matplotlib.org/) -->
<svg height="335.52pt" version="1.1" viewBox="0 0 432 335.52" width="432pt" xmlns="http://www.w3.org/2000/svg" xmlns:xlink="http://www.w3.org/1999/xlink">
 <defs>
  <style type="text/css">
*{stroke-linecap:butt;stroke-linejoin:round;}
  </style>
 </defs>
 <g id="figure_1">
  <g id="patch_1">
   <path d="M 0 335.52 
L 432 335.52 
L 432 0 
L 0 0 
z
" style="fill:#ffffff;"/>
  </g>
  <g id="axes_1">
   <g id="patch_2">
    <path d="M 60.48 69.11712 
L 410.4 69.11712 
L 410.4 16.776 
L 60.48 16.776 
z
" style="fill:#ffffff;"/>
   </g>
   <g id="matplotlib.axis_1">
    <g id="xtick_1">
     <g id="line2d_1">
      <defs>
       <path d="M 0 0 
L 0 3.5 
" id="m4350eeb5e5" style="stroke:#000000;stroke-width:0.8;"/>
      </defs>
      <g>
       <use style="stroke:#000000;stroke-width:0.8;" x="76.385455" xlink:href="#m4350eeb5e5" y="69.11712"/>
      </g>
     </g>
    </g>
    <g id="xtick_2">
     <g id="line2d_2">
      <g>
       <use style="stroke:#000000;stroke-width:0.8;" x="116.652428" xlink:href="#m4350eeb5e5" y="69.11712"/>
      </g>
     </g>
    </g>
    <g id="xtick_3">
     <g id="line2d_3">
      <g>
       <use style="stroke:#000000;stroke-width:0.8;" x="156.919402" xlink:href="#m4350eeb5e5" y="69.11712"/>
      </g>
     </g>
    </g>
    <g id="xtick_4">
     <g id="line2d_4">
      <g>
       <use style="stroke:#000000;stroke-width:0.8;" x="197.186375" xlink:href="#m4350eeb5e5" y="69.11712"/>
      </g>
     </g>
    </g>
    <g id="xtick_5">
     <g id="line2d_5">
      <g>
       <use style="stroke:#000000;stroke-width:0.8;" x="237.453349" xlink:href="#m4350eeb5e5" y="69.11712"/>
      </g>
     </g>
    </g>
    <g id="xtick_6">
     <g id="line2d_6">
      <g>
       <use style="stroke:#000000;stroke-width:0.8;" x="277.720322" xlink:href="#m4350eeb5e5" y="69.11712"/>
      </g>
     </g>
    </g>
    <g id="xtick_7">
     <g id="line2d_7">
      <g>
       <use style="stroke:#000000;stroke-width:0.8;" x="317.987296" xlink:href="#m4350eeb5e5" y="69.11712"/>
      </g>
     </g>
    </g>
    <g id="xtick_8">
     <g id="line2d_8">
      <g>
       <use style="stroke:#000000;stroke-width:0.8;" x="358.254269" xlink:href="#m4350eeb5e5" y="69.11712"/>
      </g>
     </g>
    </g>
    <g id="xtick_9">
     <g id="line2d_9">
      <g>
       <use style="stroke:#000000;stroke-width:0.8;" x="398.521243" xlink:href="#m4350eeb5e5" y="69.11712"/>
      </g>
     </g>
    </g>
   </g>
   <g id="matplotlib.axis_2">
    <g id="ytick_1">
     <g id="line2d_10">
      <defs>
       <path d="M 0 0 
L -3.5 0 
" id="m4d03c3c24f" style="stroke:#000000;stroke-width:0.8;"/>
      </defs>
      <g>
       <use style="stroke:#000000;stroke-width:0.8;" x="60.48" xlink:href="#m4d03c3c24f" y="63.07776"/>
      </g>
     </g>
     <g id="text_1">
      <!-- -1.41 -->
      <defs>
       <path d="M 26 19 
L 26 24.796875 
L 1 24.796875 
L 1 19 
z
" id="CMSS17-45"/>
       <path d="M 28.40625 67 
L 26.5 67 
C 21.09375 61.703125 14.796875 60.96875 8.40625 60.796875 
L 8.40625 55 
C 11.296875 55.09375 16 55.296875 20.703125 57.390625 
L 20.703125 5.796875 
L 8.90625 5.796875 
L 8.90625 0 
L 40.203125 0 
L 40.203125 5.796875 
L 28.40625 5.796875 
z
" id="CMSS17-49"/>
       <path d="M 17 8 
L 9 8 
L 9 0 
L 17 0 
z
" id="CMSS17-46"/>
       <path d="M 35.203125 17 
L 44.296875 17 
L 44.296875 23.09375 
L 35.203125 23.09375 
L 35.203125 66 
L 26.40625 66 
L 2.59375 23.09375 
L 2.59375 17 
L 27.296875 17 
L 27.296875 0 
L 35.203125 0 
z
M 10.296875 23.09375 
C 16.09375 33.421875 27.59375 54.28125 27.59375 61.359375 
L 27.59375 23.09375 
z
" id="CMSS17-52"/>
      </defs>
      <g transform="translate(23.824925 68.059072)scale(0.144 -0.144)">
       <use transform="scale(0.996264)" xlink:href="#CMSS17-45"/>
       <use transform="translate(31.229113 0)scale(0.996264)" xlink:href="#CMSS17-49"/>
       <use transform="translate(78.072736 0)scale(0.996264)" xlink:href="#CMSS17-46"/>
       <use transform="translate(104.096941 0)scale(0.996264)" xlink:href="#CMSS17-52"/>
       <use transform="translate(150.940565 0)scale(0.996264)" xlink:href="#CMSS17-49"/>
      </g>
     </g>
    </g>
    <g id="ytick_2">
     <g id="line2d_11">
      <g>
       <use style="stroke:#000000;stroke-width:0.8;" x="60.48" xlink:href="#m4d03c3c24f" y="49.65696"/>
      </g>
     </g>
     <g id="text_2">
      <!-- -1.36 -->
      <defs>
       <path d="M 15.703125 32.1875 
L 22.5 32.1875 
C 31.90625 32.1875 34.59375 23.9375 34.59375 18.1875 
C 34.59375 10.34375 30.203125 4.1875 23 4.1875 
C 17.40625 4.1875 9.5 7.015625 5 14.46875 
C 4.296875 10.9375 4.296875 10.734375 3.90625 8.328125 
C 8.59375 1.390625 16.203125 -2 23.203125 -2 
C 34.59375 -2 43 7.515625 43 18.09375 
C 43 26.046875 37.5 32.6875 30 35.1875 
C 36 38.484375 40.40625 44.6875 40.40625 51.890625 
C 40.40625 60.296875 32.703125 67 23.296875 67 
C 14.703125 67 8 61.6875 5.203125 55.984375 
C 5.90625 54.984375 7.703125 52.09375 8.59375 50.59375 
C 10.796875 56.484375 16.5 60.890625 23.203125 60.890625 
C 28.796875 60.890625 32.5 57.1875 32.5 51.890625 
C 32.5 46.390625 29 40.390625 23.09375 39 
C 22.703125 39 16.5 38.390625 15.703125 38.296875 
z
" id="CMSS17-51"/>
       <path d="M 39 64.984375 
C 34.796875 66.6875 31.796875 67 29 67 
C 16 67 3.90625 53.25 3.90625 31.609375 
C 3.90625 4.1875 15.40625 -2 23.59375 -2 
C 28.09375 -2 32.59375 -0.609375 36.90625 4.390625 
C 41.296875 9.671875 43 14.0625 43 21.75 
C 43 34.109375 36.90625 45.09375 27.796875 45.09375 
C 21.203125 45.09375 15.5 41.59375 12 37.203125 
C 13 51.40625 19.59375 60.890625 29.09375 60.890625 
C 31.703125 60.890625 35.09375 60.484375 39 58.75 
z
M 12.09375 21.4375 
C 12.09375 22.234375 12.09375 22.734375 12.203125 24.234375 
C 12.203125 32.015625 16.703125 39 24 39 
C 28.703125 39 31.09375 36.5 32.90625 33.40625 
C 35 29.515625 35.09375 25.828125 35.09375 21.75 
C 35.09375 17.859375 35.09375 13.96875 32.796875 9.96875 
C 30.90625 6.890625 28.40625 4.1875 23.59375 4.1875 
C 14.09375 4.1875 12.5 17.453125 12.09375 21.4375 
z
" id="CMSS17-54"/>
      </defs>
      <g transform="translate(23.824925 54.638272)scale(0.144 -0.144)">
       <use transform="scale(0.996264)" xlink:href="#CMSS17-45"/>
       <use transform="translate(31.229113 0)scale(0.996264)" xlink:href="#CMSS17-49"/>
       <use transform="translate(78.072736 0)scale(0.996264)" xlink:href="#CMSS17-46"/>
       <use transform="translate(104.096941 0)scale(0.996264)" xlink:href="#CMSS17-51"/>
       <use transform="translate(150.940565 0)scale(0.996264)" xlink:href="#CMSS17-54"/>
      </g>
     </g>
    </g>
    <g id="ytick_3">
     <g id="line2d_12">
      <g>
       <use style="stroke:#000000;stroke-width:0.8;" x="60.48" xlink:href="#m4d03c3c24f" y="36.23616"/>
      </g>
     </g>
     <g id="text_3">
      <!-- -1.31 -->
      <g transform="translate(23.824925 41.217472)scale(0.144 -0.144)">
       <use transform="scale(0.996264)" xlink:href="#CMSS17-45"/>
       <use transform="translate(31.229113 0)scale(0.996264)" xlink:href="#CMSS17-49"/>
       <use transform="translate(78.072736 0)scale(0.996264)" xlink:href="#CMSS17-46"/>
       <use transform="translate(104.096941 0)scale(0.996264)" xlink:href="#CMSS17-51"/>
       <use transform="translate(150.940565 0)scale(0.996264)" xlink:href="#CMSS17-49"/>
      </g>
     </g>
    </g>
    <g id="ytick_4">
     <g id="line2d_13">
      <g>
       <use style="stroke:#000000;stroke-width:0.8;" x="60.48" xlink:href="#m4d03c3c24f" y="22.81536"/>
      </g>
     </g>
     <g id="text_4">
      <!-- -1.27 -->
      <defs>
       <path d="M 25.796875 21.140625 
C 28.59375 24.03125 32.796875 27.515625 35.703125 31 
C 38.5 34.390625 42.203125 39.171875 42.203125 46.140625 
C 42.203125 57.109375 34.796875 67 22.203125 67 
C 12.296875 67 6.59375 60.796875 3.90625 51.125 
L 7.796875 45.75 
C 10 54.8125 13.09375 60.59375 20.90625 60.59375 
C 29.5 60.59375 34.296875 53.609375 34.296875 45.9375 
C 34.296875 36.78125 27.296875 29.703125 22 24.421875 
C 16.09375 18.546875 10.296875 12.578125 4.703125 6.390625 
L 4.703125 0 
L 42.203125 0 
L 42.203125 6.796875 
L 25.203125 6.796875 
C 24 6.796875 22.796875 6.6875 21.59375 6.6875 
L 11.59375 6.6875 
L 11.59375 6.796875 
z
" id="CMSS17-50"/>
       <path d="M 21.703125 59.1875 
C 22.90625 59.1875 24.09375 59.296875 25.296875 59.296875 
L 36.796875 59.296875 
C 22.5 42.421875 14.296875 21.09375 14.296875 -1 
L 22.296875 -1 
C 22.296875 20.390625 29.296875 42.109375 43 59.484375 
L 43 66 
L 3.90625 66 
L 3.90625 59.1875 
z
" id="CMSS17-55"/>
      </defs>
      <g transform="translate(23.824925 27.796672)scale(0.144 -0.144)">
       <use transform="scale(0.996264)" xlink:href="#CMSS17-45"/>
       <use transform="translate(31.229113 0)scale(0.996264)" xlink:href="#CMSS17-49"/>
       <use transform="translate(78.072736 0)scale(0.996264)" xlink:href="#CMSS17-46"/>
       <use transform="translate(104.096941 0)scale(0.996264)" xlink:href="#CMSS17-50"/>
       <use transform="translate(150.940565 0)scale(0.996264)" xlink:href="#CMSS17-55"/>
      </g>
     </g>
    </g>
    <g id="text_5">
     <!-- $s_{1}$ -->
     <defs>
      <path d="M 22.796875 20.15625 
C 24.5 19.859375 27.203125 19.265625 27.796875 19.171875 
C 29.09375 18.765625 33.59375 17.171875 33.59375 12.390625 
C 33.59375 9.296875 30.796875 1 19.203125 1 
C 17.09375 1 9.59375 1.296875 7.59375 6.984375 
C 11.59375 6.46875 13.59375 9.59375 13.59375 11.796875 
C 13.59375 13.890625 12.203125 15 10.203125 15 
C 8 15 5.09375 13.296875 5.09375 8.796875 
C 5.09375 2.75 11.09375 -1 19.09375 -1 
C 34.296875 -1 38.796875 10.390625 38.796875 15.59375 
C 38.796875 17.078125 38.796875 19.859375 35.59375 23.046875 
C 33.09375 25.421875 30.703125 25.921875 25.296875 27.015625 
C 22.59375 27.609375 18.296875 28.5 18.296875 32.984375 
C 18.296875 34.984375 20.09375 41.984375 29.59375 41.984375 
C 33.796875 41.984375 37.90625 40.453125 38.90625 37 
C 34.5 37 34.296875 33.1875 34.296875 33.09375 
C 34.296875 30.984375 36.203125 30.390625 37.09375 30.390625 
C 38.5 30.390625 41.296875 31.484375 41.296875 35.6875 
C 41.296875 39.78125 37.5 44 29.703125 44 
C 16.59375 44 13.09375 33.890625 13.09375 29.796875 
C 13.09375 22.25 20.5 20.65625 22.796875 20.15625 
z
" id="CMMI12-115"/>
      <path d="M 26.59375 63.796875 
C 26.59375 65.890625 26.5 66 25.09375 66 
C 21.203125 61.359375 15.296875 59.890625 9.703125 59.6875 
C 9.40625 59.6875 8.90625 59.6875 8.796875 59.5 
C 8.703125 59.296875 8.703125 59.09375 8.703125 57 
C 11.796875 57 17 57.59375 21 59.984375 
L 21 7.296875 
C 21 3.796875 20.796875 2.59375 12.203125 2.59375 
L 9.203125 2.59375 
L 9.203125 0 
C 14 0.09375 19 0.1875 23.796875 0.1875 
C 28.59375 0.1875 33.59375 0.09375 38.40625 0 
L 38.40625 2.59375 
L 35.40625 2.59375 
C 26.796875 2.59375 26.59375 3.6875 26.59375 7.296875 
z
" id="CMR17-49"/>
     </defs>
     <g transform="translate(17.035398 48.74563)rotate(-90)scale(0.144 -0.144)">
      <use transform="translate(0 14.943915)scale(0.996264)" xlink:href="#CMMI12-115"/>
      <use transform="translate(45.950048 0)scale(0.697382)" xlink:href="#CMR17-49"/>
     </g>
    </g>
   </g>
   <g id="line2d_14">
    <path clip-path="url(#pc940012d7e)" d="M 76.385455 52.102667 
L 80.412152 49.628165 
L 84.438849 49.628165 
L 88.465547 49.582943 
L 92.492244 49.525872 
L 96.518941 63.07776 
L 100.545639 63.066786 
L 104.572336 63.066786 
L 108.599033 63.065726 
L 112.625731 63.065726 
L 116.652428 63.065726 
L 120.679125 63.066786 
L 124.705823 63.07776 
L 128.73252 49.525872 
L 132.759217 49.582943 
L 136.785915 49.588354 
L 140.812612 49.629293 
L 144.83931 52.159797 
L 148.866007 52.159797 
L 152.892704 55.329004 
L 156.919402 55.338441 
L 160.946099 56.521923 
L 164.972796 56.801188 
L 168.999494 56.801188 
L 173.026191 56.707387 
L 177.052888 57.531639 
L 181.079586 57.575389 
L 185.106283 57.561046 
L 189.13298 57.561046 
L 193.159678 57.562439 
L 197.186375 57.562439 
L 201.213072 59.610383 
L 205.23977 59.610383 
L 209.266467 59.611332 
L 213.293165 59.611332 
L 217.319862 59.611332 
L 221.346559 59.611414 
L 225.373257 59.611414 
L 229.399954 59.611414 
L 233.426651 59.611414 
L 237.453349 57.566001 
L 241.480046 57.566001 
L 245.506743 57.566001 
L 249.533441 57.566001 
L 253.560138 57.46287 
L 257.586835 56.63862 
L 261.613533 56.63862 
L 265.64023 56.63862 
L 269.666928 56.637673 
L 273.693625 56.637673 
L 277.720322 56.487648 
L 281.74702 56.487648 
L 285.773717 56.486264 
L 289.800414 56.486264 
L 293.827112 56.55833 
L 297.853809 56.500624 
L 301.880506 56.569368 
L 305.907204 56.617627 
L 309.933901 56.559914 
L 313.960598 56.711418 
L 317.987296 56.653694 
L 322.013993 56.653694 
L 326.04069 56.653694 
L 330.067388 56.579625 
L 334.094085 56.521923 
L 338.120783 56.521923 
L 342.14748 56.521923 
L 346.174177 56.521923 
L 350.200875 56.521923 
L 354.227572 56.521923 
L 358.254269 56.801188 
L 362.280967 56.801188 
L 366.307664 56.801188 
L 370.334361 56.801188 
L 374.361059 56.791514 
L 378.387756 56.707387 
L 382.414453 56.707387 
L 386.441151 56.559914 
L 390.467848 56.648109 
L 394.494545 56.648109 
" style="fill:none;stroke:#1f77b4;stroke-linecap:square;stroke-width:1.5;"/>
   </g>
   <g id="line2d_15">
    <path clip-path="url(#pc940012d7e)" d="M 76.385455 23.759252 
L 80.412152 22.956507 
L 84.438849 22.854803 
L 88.465547 23.723542 
L 92.492244 25.635906 
L 96.518941 28.385082 
L 100.545639 31.485281 
L 104.572336 34.271419 
L 108.599033 36.072706 
L 112.625731 36.407396 
L 116.652428 35.138484 
L 120.679125 32.540291 
L 124.705823 29.245895 
L 128.73252 26.074876 
L 132.759217 23.782481 
L 136.785915 22.81536 
L 140.812612 23.177513 
L 144.83931 24.475787 
L 148.866007 26.126638 
L 152.892704 27.612543 
L 156.919402 28.651704 
L 160.946099 29.216083 
L 164.972796 29.437225 
L 168.999494 29.489 
L 173.026191 29.511242 
L 177.052888 29.585875 
L 181.079586 29.744777 
L 185.106283 29.986146 
L 189.13298 30.287982 
L 193.159678 30.617652 
L 197.186375 30.939793 
L 201.213072 31.223278 
L 205.23977 31.445962 
L 209.266467 31.595828 
L 213.293165 31.668759 
L 217.319862 31.664947 
L 221.346559 31.58642 
L 225.373257 31.437042 
L 229.399954 31.224525 
L 233.426651 30.962549 
L 237.453349 30.671063 
L 241.480046 30.373929 
L 245.506743 30.094655 
L 249.533441 29.851956 
L 253.560138 29.656834 
L 257.586835 29.512002 
L 261.613533 29.413374 
L 265.64023 29.352681 
L 269.666928 29.320157 
L 273.693625 29.306616 
L 277.720322 29.304689 
L 281.74702 29.309353 
L 285.773717 29.317992 
L 289.800414 29.330145 
L 293.827112 29.346928 
L 297.853809 29.370011 
L 301.880506 29.400126 
L 305.907204 29.435487 
L 309.933901 29.470878 
L 313.960598 29.498256 
L 317.987296 29.509145 
L 322.013993 29.498054 
L 326.04069 29.465335 
L 330.067388 29.417968 
L 334.094085 29.367729 
L 338.120783 29.327501 
L 342.14748 29.307255 
L 346.174177 29.311155 
L 350.200875 29.336664 
L 354.227572 29.375753 
L 358.254269 29.417647 
L 362.280967 29.452131 
L 366.307664 29.472258 
L 370.334361 29.475613 
L 374.361059 29.463931 
L 378.387756 29.441572 
L 382.414453 29.41371 
L 386.441151 29.384973 
L 390.467848 29.358814 
L 394.494545 29.337476 
" style="fill:none;stroke:#ff7f0e;stroke-linecap:square;stroke-width:1.5;"/>
   </g>
   <g id="patch_3">
    <path d="M 60.48 69.11712 
L 60.48 16.776 
" style="fill:none;stroke:#000000;stroke-linecap:square;stroke-linejoin:miter;stroke-width:0.8;"/>
   </g>
   <g id="patch_4">
    <path d="M 410.4 69.11712 
L 410.4 16.776 
" style="fill:none;stroke:#000000;stroke-linecap:square;stroke-linejoin:miter;stroke-width:0.8;"/>
   </g>
   <g id="patch_5">
    <path d="M 60.48 69.11712 
L 410.4 69.11712 
" style="fill:none;stroke:#000000;stroke-linecap:square;stroke-linejoin:miter;stroke-width:0.8;"/>
   </g>
   <g id="patch_6">
    <path d="M 60.48 16.776 
L 410.4 16.776 
" style="fill:none;stroke:#000000;stroke-linecap:square;stroke-linejoin:miter;stroke-width:0.8;"/>
   </g>
  </g>
  <g id="axes_2">
   <g id="patch_7">
    <path d="M 60.48 121.45824 
L 410.4 121.45824 
L 410.4 69.11712 
L 60.48 69.11712 
z
" style="fill:#ffffff;"/>
   </g>
   <g id="matplotlib.axis_3">
    <g id="xtick_10">
     <g id="line2d_16">
      <g>
       <use style="stroke:#000000;stroke-width:0.8;" x="76.385455" xlink:href="#m4350eeb5e5" y="121.45824"/>
      </g>
     </g>
    </g>
    <g id="xtick_11">
     <g id="line2d_17">
      <g>
       <use style="stroke:#000000;stroke-width:0.8;" x="116.652428" xlink:href="#m4350eeb5e5" y="121.45824"/>
      </g>
     </g>
    </g>
    <g id="xtick_12">
     <g id="line2d_18">
      <g>
       <use style="stroke:#000000;stroke-width:0.8;" x="156.919402" xlink:href="#m4350eeb5e5" y="121.45824"/>
      </g>
     </g>
    </g>
    <g id="xtick_13">
     <g id="line2d_19">
      <g>
       <use style="stroke:#000000;stroke-width:0.8;" x="197.186375" xlink:href="#m4350eeb5e5" y="121.45824"/>
      </g>
     </g>
    </g>
    <g id="xtick_14">
     <g id="line2d_20">
      <g>
       <use style="stroke:#000000;stroke-width:0.8;" x="237.453349" xlink:href="#m4350eeb5e5" y="121.45824"/>
      </g>
     </g>
    </g>
    <g id="xtick_15">
     <g id="line2d_21">
      <g>
       <use style="stroke:#000000;stroke-width:0.8;" x="277.720322" xlink:href="#m4350eeb5e5" y="121.45824"/>
      </g>
     </g>
    </g>
    <g id="xtick_16">
     <g id="line2d_22">
      <g>
       <use style="stroke:#000000;stroke-width:0.8;" x="317.987296" xlink:href="#m4350eeb5e5" y="121.45824"/>
      </g>
     </g>
    </g>
    <g id="xtick_17">
     <g id="line2d_23">
      <g>
       <use style="stroke:#000000;stroke-width:0.8;" x="358.254269" xlink:href="#m4350eeb5e5" y="121.45824"/>
      </g>
     </g>
    </g>
    <g id="xtick_18">
     <g id="line2d_24">
      <g>
       <use style="stroke:#000000;stroke-width:0.8;" x="398.521243" xlink:href="#m4350eeb5e5" y="121.45824"/>
      </g>
     </g>
    </g>
   </g>
   <g id="matplotlib.axis_4">
    <g id="ytick_5">
     <g id="line2d_25">
      <g>
       <use style="stroke:#000000;stroke-width:0.8;" x="60.48" xlink:href="#m4d03c3c24f" y="115.41888"/>
      </g>
     </g>
     <g id="text_6">
      <!-- 6.21 -->
      <g transform="translate(28.507302 120.400192)scale(0.144 -0.144)">
       <use transform="scale(0.996264)" xlink:href="#CMSS17-54"/>
       <use transform="translate(46.843624 0)scale(0.996264)" xlink:href="#CMSS17-46"/>
       <use transform="translate(72.867828 0)scale(0.996264)" xlink:href="#CMSS17-50"/>
       <use transform="translate(119.711452 0)scale(0.996264)" xlink:href="#CMSS17-49"/>
      </g>
     </g>
    </g>
    <g id="ytick_6">
     <g id="line2d_26">
      <g>
       <use style="stroke:#000000;stroke-width:0.8;" x="60.48" xlink:href="#m4d03c3c24f" y="101.99808"/>
      </g>
     </g>
     <g id="text_7">
      <!-- 7.51 -->
      <defs>
       <path d="M 14.59375 59.59375 
L 39.09375 59.59375 
L 39.09375 66 
L 7.296875 66 
L 7.296875 28.59375 
L 14 28.59375 
C 15.796875 32.859375 19.5 36 24.296875 36 
C 28.796875 36 33.796875 31.9375 33.796875 20.296875 
C 33.796875 7.84375 26.703125 4.1875 21.5 4.1875 
C 15.09375 4.1875 9.203125 8.140625 6.59375 13.609375 
L 3.40625 7.9375 
C 8 0.796875 15.5 -2 21.5 -2 
C 33.09375 -2 42.203125 7.9375 42.203125 20.09375 
C 42.203125 32.546875 34.09375 42.09375 24.40625 42.09375 
C 20.90625 42.09375 17.5 40.890625 14.59375 38.5 
z
" id="CMSS17-53"/>
      </defs>
      <g transform="translate(28.507302 106.979392)scale(0.144 -0.144)">
       <use transform="scale(0.996264)" xlink:href="#CMSS17-55"/>
       <use transform="translate(46.843624 0)scale(0.996264)" xlink:href="#CMSS17-46"/>
       <use transform="translate(72.867828 0)scale(0.996264)" xlink:href="#CMSS17-53"/>
       <use transform="translate(119.711452 0)scale(0.996264)" xlink:href="#CMSS17-49"/>
      </g>
     </g>
    </g>
    <g id="ytick_7">
     <g id="line2d_27">
      <g>
       <use style="stroke:#000000;stroke-width:0.8;" x="60.48" xlink:href="#m4d03c3c24f" y="88.57728"/>
      </g>
     </g>
     <g id="text_8">
      <!-- 8.80 -->
      <defs>
       <path d="M 30.203125 35.09375 
C 37.796875 37.59375 41.703125 43.640625 41.703125 49.59375 
C 41.703125 58.96875 33.703125 67 23.5 67 
C 12.90625 67 5.203125 58.671875 5.203125 49.59375 
C 5.203125 43.734375 9 37.6875 16.703125 35.09375 
C 6.90625 31.296875 3.90625 23.6875 3.90625 18 
C 3.90625 7 12.796875 -2 23.40625 -2 
C 34.40625 -2 43 7.1875 43 18 
C 43 24.59375 39.09375 31.59375 30.203125 35.09375 
z
M 23.5 38.09375 
C 16.796875 38.09375 12.296875 42.625 12.296875 49.484375 
C 12.296875 56.453125 16.796875 60.890625 23.5 60.890625 
C 29.703125 60.890625 34.59375 56.859375 34.59375 49.484375 
C 34.59375 42.234375 29.796875 38.09375 23.5 38.09375 
z
M 23.5 4.1875 
C 17.796875 4.1875 11.703125 8.09375 11.703125 18.09375 
C 11.703125 28.390625 18.5 32 23.40625 32 
C 28.796875 32 35.203125 28.1875 35.203125 18.09375 
C 35.203125 7.6875 28.59375 4.1875 23.5 4.1875 
z
" id="CMSS17-56"/>
       <path d="M 43.09375 32.390625 
C 43.09375 38.109375 43 48.75 38.90625 56.984375 
C 34.796875 64.890625 28.203125 67 23.5 67 
C 16.703125 67 10.90625 62.984375 7.90625 56.578125 
C 4.703125 49.859375 3.796875 42.9375 3.796875 32.390625 
C 3.796875 25.171875 4.09375 16.34375 7.703125 8.609375 
C 11.796875 0.09375 18.703125 -2 23.40625 -2 
C 29.59375 -2 35.59375 1.296875 39 8.203125 
C 42.5 15.4375 43.09375 23.359375 43.09375 32.390625 
z
M 23.40625 4.09375 
C 15.796875 4.09375 13.5 12.828125 12.796875 15.734375 
C 11.59375 20.75 11.40625 25.5625 11.40625 33.5 
C 11.40625 39.71875 11.40625 46.75 13.296875 52.265625 
C 15.59375 58.6875 19.59375 60.890625 23.40625 60.890625 
C 30.796875 60.890625 33.203125 53.46875 34 50.859375 
C 35.5 45.546875 35.5 39.3125 35.5 33.5 
C 35.5 24.15625 35.5 4.09375 23.40625 4.09375 
z
" id="CMSS17-48"/>
      </defs>
      <g transform="translate(28.507302 93.558592)scale(0.144 -0.144)">
       <use transform="scale(0.996264)" xlink:href="#CMSS17-56"/>
       <use transform="translate(46.843624 0)scale(0.996264)" xlink:href="#CMSS17-46"/>
       <use transform="translate(72.867828 0)scale(0.996264)" xlink:href="#CMSS17-56"/>
       <use transform="translate(119.711452 0)scale(0.996264)" xlink:href="#CMSS17-48"/>
      </g>
     </g>
    </g>
    <g id="ytick_8">
     <g id="line2d_28">
      <g>
       <use style="stroke:#000000;stroke-width:0.8;" x="60.48" xlink:href="#m4d03c3c24f" y="75.15648"/>
      </g>
     </g>
     <g id="text_9">
      <!-- 10.10 -->
      <g transform="translate(21.483729 80.137792)scale(0.144 -0.144)">
       <use transform="scale(0.996264)" xlink:href="#CMSS17-49"/>
       <use transform="translate(46.843624 0)scale(0.996264)" xlink:href="#CMSS17-48"/>
       <use transform="translate(93.687247 0)scale(0.996264)" xlink:href="#CMSS17-46"/>
       <use transform="translate(119.711452 0)scale(0.996264)" xlink:href="#CMSS17-49"/>
       <use transform="translate(166.555075 0)scale(0.996264)" xlink:href="#CMSS17-48"/>
      </g>
     </g>
    </g>
    <g id="text_10">
     <!-- $s_{25}$ -->
     <defs>
      <path d="M 41.703125 15.46875 
L 39.90625 15.46875 
C 38.90625 8.390625 38.09375 7.1875 37.703125 6.59375 
C 37.203125 5.796875 30 5.796875 28.59375 5.796875 
L 9.40625 5.796875 
C 13 9.6875 20 16.765625 28.5 24.9375 
C 34.59375 30.71875 41.703125 37.5 41.703125 47.390625 
C 41.703125 59.1875 32.296875 66 21.796875 66 
C 10.796875 66 4.09375 56.296875 4.09375 47.296875 
C 4.09375 43.390625 7 42.890625 8.203125 42.890625 
C 9.203125 42.890625 12.203125 43.484375 12.203125 46.984375 
C 12.203125 50.09375 9.59375 51 8.203125 51 
C 7.59375 51 7 50.890625 6.59375 50.6875 
C 8.5 59.1875 14.296875 63.390625 20.40625 63.390625 
C 29.09375 63.390625 34.796875 56.5 34.796875 47.390625 
C 34.796875 38.703125 29.703125 31.21875 24 24.734375 
L 4.09375 2.296875 
L 4.09375 0 
L 39.296875 0 
z
" id="CMR17-50"/>
      <path d="M 11.40625 58.59375 
C 12.40625 58.1875 16.5 56.890625 20.703125 56.890625 
C 30 56.890625 35.09375 61.890625 38 64.6875 
C 38 65.484375 38 66 37.40625 66 
C 37.296875 66 37.09375 66 36.296875 65.59375 
C 32.796875 64.09375 28.703125 63 23.703125 63 
C 20.703125 63 16.203125 63.359375 11.296875 65.484375 
C 10.203125 66 10 66 9.90625 66 
C 9.40625 66 9.296875 65.890625 9.296875 63.90625 
L 9.296875 34.859375 
C 9.296875 33.015625 9.296875 32.5 10.296875 32.5 
C 10.796875 32.5 11 32.703125 11.5 33.421875 
C 14.703125 38.046875 19.09375 40 24.09375 40 
C 27.59375 40 35.09375 37.734375 35.09375 20.203125 
C 35.09375 16.984375 35.09375 11.1875 32.09375 6.59375 
C 29.59375 2.484375 25.703125 0.390625 21.40625 0.390625 
C 14.796875 0.390625 8.09375 4.984375 6.296875 12.6875 
C 6.703125 12.59375 7.5 12.390625 7.90625 12.390625 
C 9.203125 12.390625 11.703125 13.09375 11.703125 16.1875 
C 11.703125 18.890625 9.796875 20 7.90625 20 
C 5.59375 20 4.09375 18.59375 4.09375 15.796875 
C 4.09375 7.09375 11 -2 21.59375 -2 
C 31.90625 -2 41.703125 6.890625 41.703125 19.796875 
C 41.703125 32.09375 33.90625 41.59375 24.203125 41.59375 
C 19.09375 41.59375 14.796875 39.6875 11.40625 36 
z
" id="CMR17-53"/>
     </defs>
     <g transform="translate(14.694202 103.577417)rotate(-90)scale(0.144 -0.144)">
      <use transform="translate(0 14.943915)scale(0.996264)" xlink:href="#CMMI12-115"/>
      <use transform="translate(45.950048 0)scale(0.697382)" xlink:href="#CMR17-50"/>
      <use transform="translate(77.93323 0)scale(0.697382)" xlink:href="#CMR17-53"/>
     </g>
    </g>
   </g>
   <g id="line2d_29">
    <path clip-path="url(#p96e8f9d7a8)" d="M 76.385455 97.071445 
L 80.412152 87.980926 
L 84.438849 87.980926 
L 88.465547 88.095531 
L 92.492244 88.663997 
L 96.518941 75.281255 
L 100.545639 75.319719 
L 104.572336 75.319719 
L 108.599033 75.15648 
L 112.625731 75.15648 
L 116.652428 75.15648 
L 120.679125 75.319719 
L 124.705823 75.281255 
L 128.73252 88.663997 
L 132.759217 88.095531 
L 136.785915 88.208939 
L 140.812612 88.130167 
L 144.83931 96.590453 
L 148.866007 96.590453 
L 152.892704 102.136191 
L 156.919402 102.159759 
L 160.946099 104.95249 
L 164.972796 107.359402 
L 168.999494 107.359402 
L 173.026191 107.942247 
L 177.052888 109.389162 
L 181.079586 109.779466 
L 185.106283 109.637899 
L 189.13298 109.637899 
L 193.159678 109.368621 
L 197.186375 109.368621 
L 201.213072 111.789142 
L 205.23977 111.789142 
L 209.266467 111.494744 
L 213.293165 111.494744 
L 217.319862 111.494744 
L 221.346559 111.222978 
L 225.373257 111.222978 
L 229.399954 111.222978 
L 233.426651 111.222978 
L 237.453349 108.441221 
L 241.480046 108.441221 
L 245.506743 108.441221 
L 249.533441 108.441221 
L 253.560138 108.415231 
L 257.586835 106.897385 
L 261.613533 106.897385 
L 265.64023 106.897385 
L 269.666928 107.236953 
L 273.693625 107.236953 
L 277.720322 106.475709 
L 281.74702 106.475709 
L 285.773717 106.796838 
L 289.800414 106.796838 
L 293.827112 106.430815 
L 297.853809 106.991226 
L 301.880506 106.903692 
L 305.907204 106.389707 
L 309.933901 106.920448 
L 313.960598 105.859564 
L 317.987296 106.360235 
L 322.013993 106.360235 
L 326.04069 106.360235 
L 330.067388 104.477739 
L 334.094085 104.95249 
L 338.120783 104.95249 
L 342.14748 104.95249 
L 346.174177 104.95249 
L 350.200875 104.95249 
L 354.227572 104.95249 
L 358.254269 107.359402 
L 362.280967 107.359402 
L 366.307664 107.359402 
L 370.334361 107.359402 
L 374.361059 107.254293 
L 378.387756 107.942247 
L 382.414453 107.942247 
L 386.441151 106.920448 
L 390.467848 108.040442 
L 394.494545 108.040442 
" style="fill:none;stroke:#1f77b4;stroke-linecap:square;stroke-width:1.5;"/>
   </g>
   <g id="line2d_30">
    <path clip-path="url(#p96e8f9d7a8)" d="M 76.385455 99.620305 
L 80.412152 97.102926 
L 84.438849 94.411942 
L 88.465547 91.658586 
L 92.492244 88.986642 
L 96.518941 86.556868 
L 100.545639 84.526589 
L 104.572336 83.031061 
L 108.599033 82.172543 
L 112.625731 82.018159 
L 116.652428 82.601411 
L 120.679125 83.919889 
L 124.705823 85.92618 
L 128.73252 88.517268 
L 132.759217 91.533061 
L 136.785915 94.771665 
L 140.812612 98.019661 
L 144.83931 101.086875 
L 148.866007 103.833209 
L 152.892704 106.180385 
L 156.919402 108.108734 
L 160.946099 109.644114 
L 164.972796 110.841088 
L 168.999494 111.767029 
L 173.026191 112.489605 
L 177.052888 113.06831 
L 181.079586 113.549731 
L 185.106283 113.96582 
L 189.13298 114.334405 
L 193.159678 114.661226 
L 197.186375 114.942906 
L 201.213072 115.170356 
L 205.23977 115.332146 
L 209.266467 115.417537 
L 213.293165 115.41888 
L 217.319862 115.333238 
L 221.346559 115.16317 
L 225.373257 114.916721 
L 229.399954 114.60673 
L 233.426651 114.24963 
L 237.453349 113.86396 
L 241.480046 113.468787 
L 245.506743 113.082254 
L 249.533441 112.720366 
L 253.560138 112.396128 
L 257.586835 112.119025 
L 261.613533 111.894805 
L 265.64023 111.725509 
L 269.666928 111.609638 
L 273.693625 111.542408 
L 277.720322 111.516044 
L 281.74702 111.52012 
L 285.773717 111.541993 
L 289.800414 111.567398 
L 293.827112 111.5813 
L 297.853809 111.569061 
L 301.880506 111.517926 
L 305.907204 111.418749 
L 309.933901 111.267753 
L 313.960598 111.067992 
L 317.987296 110.830138 
L 322.013993 110.572204 
L 326.04069 110.317977 
L 330.067388 110.094209 
L 334.094085 109.926924 
L 338.120783 109.837496 
L 342.14748 109.839297 
L 346.174177 109.93561 
L 350.200875 110.119201 
L 354.227572 110.373625 
L 358.254269 110.675853 
L 362.280967 110.999623 
L 366.307664 111.318855 
L 370.334361 111.610509 
L 374.361059 111.856568 
L 378.387756 112.045038 
L 382.414453 112.170055 
L 386.441151 112.231343 
L 390.467848 112.233265 
L 394.494545 112.183683 
" style="fill:none;stroke:#ff7f0e;stroke-linecap:square;stroke-width:1.5;"/>
   </g>
   <g id="patch_8">
    <path d="M 60.48 121.45824 
L 60.48 69.11712 
" style="fill:none;stroke:#000000;stroke-linecap:square;stroke-linejoin:miter;stroke-width:0.8;"/>
   </g>
   <g id="patch_9">
    <path d="M 410.4 121.45824 
L 410.4 69.11712 
" style="fill:none;stroke:#000000;stroke-linecap:square;stroke-linejoin:miter;stroke-width:0.8;"/>
   </g>
   <g id="patch_10">
    <path d="M 60.48 121.45824 
L 410.4 121.45824 
" style="fill:none;stroke:#000000;stroke-linecap:square;stroke-linejoin:miter;stroke-width:0.8;"/>
   </g>
   <g id="patch_11">
    <path d="M 60.48 69.11712 
L 410.4 69.11712 
" style="fill:none;stroke:#000000;stroke-linecap:square;stroke-linejoin:miter;stroke-width:0.8;"/>
   </g>
  </g>
  <g id="axes_3">
   <g id="patch_12">
    <path d="M 60.48 173.79936 
L 410.4 173.79936 
L 410.4 121.45824 
L 60.48 121.45824 
z
" style="fill:#ffffff;"/>
   </g>
   <g id="matplotlib.axis_5">
    <g id="xtick_19">
     <g id="line2d_31">
      <g>
       <use style="stroke:#000000;stroke-width:0.8;" x="76.385455" xlink:href="#m4350eeb5e5" y="173.79936"/>
      </g>
     </g>
    </g>
    <g id="xtick_20">
     <g id="line2d_32">
      <g>
       <use style="stroke:#000000;stroke-width:0.8;" x="116.652428" xlink:href="#m4350eeb5e5" y="173.79936"/>
      </g>
     </g>
    </g>
    <g id="xtick_21">
     <g id="line2d_33">
      <g>
       <use style="stroke:#000000;stroke-width:0.8;" x="156.919402" xlink:href="#m4350eeb5e5" y="173.79936"/>
      </g>
     </g>
    </g>
    <g id="xtick_22">
     <g id="line2d_34">
      <g>
       <use style="stroke:#000000;stroke-width:0.8;" x="197.186375" xlink:href="#m4350eeb5e5" y="173.79936"/>
      </g>
     </g>
    </g>
    <g id="xtick_23">
     <g id="line2d_35">
      <g>
       <use style="stroke:#000000;stroke-width:0.8;" x="237.453349" xlink:href="#m4350eeb5e5" y="173.79936"/>
      </g>
     </g>
    </g>
    <g id="xtick_24">
     <g id="line2d_36">
      <g>
       <use style="stroke:#000000;stroke-width:0.8;" x="277.720322" xlink:href="#m4350eeb5e5" y="173.79936"/>
      </g>
     </g>
    </g>
    <g id="xtick_25">
     <g id="line2d_37">
      <g>
       <use style="stroke:#000000;stroke-width:0.8;" x="317.987296" xlink:href="#m4350eeb5e5" y="173.79936"/>
      </g>
     </g>
    </g>
    <g id="xtick_26">
     <g id="line2d_38">
      <g>
       <use style="stroke:#000000;stroke-width:0.8;" x="358.254269" xlink:href="#m4350eeb5e5" y="173.79936"/>
      </g>
     </g>
    </g>
    <g id="xtick_27">
     <g id="line2d_39">
      <g>
       <use style="stroke:#000000;stroke-width:0.8;" x="398.521243" xlink:href="#m4350eeb5e5" y="173.79936"/>
      </g>
     </g>
    </g>
   </g>
   <g id="matplotlib.axis_6">
    <g id="ytick_9">
     <g id="line2d_40">
      <g>
       <use style="stroke:#000000;stroke-width:0.8;" x="60.48" xlink:href="#m4d03c3c24f" y="167.76"/>
      </g>
     </g>
     <g id="text_11">
      <!-- 0.11 -->
      <g transform="translate(28.507302 172.741312)scale(0.144 -0.144)">
       <use transform="scale(0.996264)" xlink:href="#CMSS17-48"/>
       <use transform="translate(46.843624 0)scale(0.996264)" xlink:href="#CMSS17-46"/>
       <use transform="translate(72.867828 0)scale(0.996264)" xlink:href="#CMSS17-49"/>
       <use transform="translate(119.711452 0)scale(0.996264)" xlink:href="#CMSS17-49"/>
      </g>
     </g>
    </g>
    <g id="ytick_10">
     <g id="line2d_41">
      <g>
       <use style="stroke:#000000;stroke-width:0.8;" x="60.48" xlink:href="#m4d03c3c24f" y="154.3392"/>
      </g>
     </g>
     <g id="text_12">
      <!-- 0.30 -->
      <g transform="translate(28.507302 159.320512)scale(0.144 -0.144)">
       <use transform="scale(0.996264)" xlink:href="#CMSS17-48"/>
       <use transform="translate(46.843624 0)scale(0.996264)" xlink:href="#CMSS17-46"/>
       <use transform="translate(72.867828 0)scale(0.996264)" xlink:href="#CMSS17-51"/>
       <use transform="translate(119.711452 0)scale(0.996264)" xlink:href="#CMSS17-48"/>
      </g>
     </g>
    </g>
    <g id="ytick_11">
     <g id="line2d_42">
      <g>
       <use style="stroke:#000000;stroke-width:0.8;" x="60.48" xlink:href="#m4d03c3c24f" y="140.9184"/>
      </g>
     </g>
     <g id="text_13">
      <!-- 0.49 -->
      <defs>
       <path d="M 6.796875 2.6875 
C 9.59375 0.296875 13.203125 -2 19.296875 -2 
C 31.40625 -2 43 11.53125 43 33.375 
C 43 62.296875 30.5 67 23.796875 67 
C 17.09375 67 12.796875 63.984375 9.09375 59.203125 
C 4.703125 53.71875 3.90625 48.828125 3.90625 43.140625 
C 3.90625 36.359375 5.09375 32.171875 7.90625 27.390625 
C 11.703125 21.1875 15.203125 19.890625 19.09375 19.890625 
C 25 19.890625 30.90625 22.796875 34.90625 27.78125 
C 34.203125 14.1875 28.09375 4.1875 19.296875 4.1875 
C 15.703125 4.1875 12.796875 5.3125 9.90625 8.0625 
z
M 34.59375 43.34375 
C 34.703125 42.640625 34.703125 41.34375 34.703125 40.953125 
C 34.703125 32.578125 29.90625 26 22.90625 26 
C 18.296875 26 15.90625 28.390625 14.09375 31.484375 
C 11.90625 35.359375 11.796875 39.15625 11.796875 43.140625 
C 11.796875 47.03125 11.796875 51.3125 14.59375 55.609375 
C 16.703125 58.703125 19.296875 60.890625 23.796875 60.890625 
C 33 60.890625 34.5 47.4375 34.59375 43.34375 
z
" id="CMSS17-57"/>
      </defs>
      <g transform="translate(28.507302 145.899712)scale(0.144 -0.144)">
       <use transform="scale(0.996264)" xlink:href="#CMSS17-48"/>
       <use transform="translate(46.843624 0)scale(0.996264)" xlink:href="#CMSS17-46"/>
       <use transform="translate(72.867828 0)scale(0.996264)" xlink:href="#CMSS17-52"/>
       <use transform="translate(119.711452 0)scale(0.996264)" xlink:href="#CMSS17-57"/>
      </g>
     </g>
    </g>
    <g id="ytick_12">
     <g id="line2d_43">
      <g>
       <use style="stroke:#000000;stroke-width:0.8;" x="60.48" xlink:href="#m4d03c3c24f" y="127.4976"/>
      </g>
     </g>
     <g id="text_14">
      <!-- 0.67 -->
      <g transform="translate(28.507302 132.478912)scale(0.144 -0.144)">
       <use transform="scale(0.996264)" xlink:href="#CMSS17-48"/>
       <use transform="translate(46.843624 0)scale(0.996264)" xlink:href="#CMSS17-46"/>
       <use transform="translate(72.867828 0)scale(0.996264)" xlink:href="#CMSS17-54"/>
       <use transform="translate(119.711452 0)scale(0.996264)" xlink:href="#CMSS17-55"/>
      </g>
     </g>
    </g>
    <g id="text_15">
     <!-- $s_{50}$ -->
     <defs>
      <path d="M 42 31.84375 
C 42 37.96875 41.90625 48.421875 37.703125 56.453125 
C 34 63.484375 28.09375 66 22.90625 66 
C 18.09375 66 12 63.78125 8.203125 56.5625 
C 4.203125 49.015625 3.796875 39.671875 3.796875 31.84375 
C 3.796875 26.109375 3.90625 17.375 7 9.734375 
C 11.296875 -0.609375 19 -2 22.90625 -2 
C 27.5 -2 34.5 -0.109375 38.59375 9.4375 
C 41.59375 16.375 42 24.5 42 31.84375 
z
M 22.90625 -0.40625 
C 16.5 -0.40625 12.703125 5.125 11.296875 12.75 
C 10.203125 18.6875 10.203125 27.328125 10.203125 32.953125 
C 10.203125 40.6875 10.203125 47.109375 11.5 53.234375 
C 13.40625 61.78125 19 64.390625 22.90625 64.390625 
C 27 64.390625 32.296875 61.671875 34.203125 53.4375 
C 35.5 47.71875 35.59375 40.984375 35.59375 32.953125 
C 35.59375 26.421875 35.59375 18.375 34.40625 12.453125 
C 32.296875 1.5 26.40625 -0.40625 22.90625 -0.40625 
z
" id="CMR17-48"/>
     </defs>
     <g transform="translate(21.717775 155.918537)rotate(-90)scale(0.144 -0.144)">
      <use transform="translate(0 14.943915)scale(0.996264)" xlink:href="#CMMI12-115"/>
      <use transform="translate(45.950048 0)scale(0.697382)" xlink:href="#CMR17-53"/>
      <use transform="translate(77.93323 0)scale(0.697382)" xlink:href="#CMR17-48"/>
     </g>
    </g>
   </g>
   <g id="line2d_44">
    <path clip-path="url(#p02582dfeba)" d="M 76.385455 152.424569 
L 80.412152 159.358565 
L 84.438849 159.358565 
L 88.465547 158.892637 
L 92.492244 158.388049 
L 96.518941 166.601415 
L 100.545639 165.565639 
L 104.572336 165.565639 
L 108.599033 166.143248 
L 112.625731 166.143248 
L 116.652428 166.143248 
L 120.679125 165.565639 
L 124.705823 166.601415 
L 128.73252 158.388049 
L 132.759217 158.892637 
L 136.785915 158.281647 
L 140.812612 158.698594 
L 144.83931 152.895592 
L 148.866007 152.895592 
L 152.892704 147.218822 
L 156.919402 146.507713 
L 160.946099 142.749017 
L 164.972796 138.618556 
L 168.999494 138.618556 
L 173.026191 135.5888 
L 177.052888 134.405923 
L 181.079586 132.861932 
L 185.106283 131.081097 
L 189.13298 131.081097 
L 193.159678 129.806346 
L 197.186375 129.806346 
L 201.213072 128.73334 
L 205.23977 128.73334 
L 209.266467 128.326297 
L 213.293165 128.326297 
L 217.319862 128.326297 
L 221.346559 128.237712 
L 225.373257 128.237712 
L 229.399954 128.237712 
L 233.426651 128.237712 
L 237.453349 128.390677 
L 241.480046 128.390677 
L 245.506743 128.390677 
L 249.533441 128.390677 
L 253.560138 127.4976 
L 257.586835 128.640632 
L 261.613533 128.640632 
L 265.64023 128.640632 
L 269.666928 129.13996 
L 273.693625 129.13996 
L 277.720322 130.161969 
L 281.74702 130.161969 
L 285.773717 131.544206 
L 289.800414 131.544206 
L 293.827112 133.611161 
L 297.853809 133.436737 
L 301.880506 135.004379 
L 305.907204 136.136482 
L 309.933901 135.899727 
L 313.960598 139.288629 
L 317.987296 138.988206 
L 322.013993 138.988206 
L 326.04069 138.988206 
L 330.067388 143.112199 
L 334.094085 142.749017 
L 338.120783 142.749017 
L 342.14748 142.749017 
L 346.174177 142.749017 
L 350.200875 142.749017 
L 354.227572 142.749017 
L 358.254269 138.618556 
L 362.280967 138.618556 
L 366.307664 138.618556 
L 370.334361 138.618556 
L 374.361059 137.825652 
L 378.387756 135.5888 
L 382.414453 135.5888 
L 386.441151 135.899727 
L 390.467848 133.184826 
L 394.494545 133.184826 
" style="fill:none;stroke:#1f77b4;stroke-linecap:square;stroke-width:1.5;"/>
   </g>
   <g id="line2d_45">
    <path clip-path="url(#p02582dfeba)" d="M 76.385455 155.708496 
L 80.412152 157.83104 
L 84.438849 159.888387 
L 88.465547 161.822832 
L 92.492244 163.575393 
L 96.518941 165.088198 
L 100.545639 166.306944 
L 104.572336 167.183357 
L 108.599033 167.677529 
L 112.625731 167.76 
L 116.652428 167.413472 
L 120.679125 166.634035 
L 124.705823 165.431828 
L 128.73252 163.831082 
L 132.759217 161.86953 
L 136.785915 159.597208 
L 140.812612 157.074687 
L 144.83931 154.370678 
L 148.866007 151.559125 
L 152.892704 148.715799 
L 156.919402 145.91454 
L 160.946099 143.223433 
L 164.972796 140.701272 
L 168.999494 138.394732 
L 173.026191 136.336588 
L 177.052888 134.545168 
L 181.079586 133.025034 
L 185.106283 131.768681 
L 189.13298 130.758923 
L 193.159678 129.971604 
L 197.186375 129.37828 
L 201.213072 128.948618 
L 205.23977 128.652385 
L 209.266467 128.460952 
L 213.293165 128.348352 
L 217.319862 128.29194 
L 221.346559 128.272763 
L 225.373257 128.275711 
L 229.399954 128.289526 
L 233.426651 128.306735 
L 237.453349 128.32354 
L 241.480046 128.339667 
L 245.506743 128.358208 
L 249.533441 128.385407 
L 253.560138 128.430391 
L 257.586835 128.504802 
L 261.613533 128.622304 
L 265.64023 128.797921 
L 269.666928 129.047204 
L 273.693625 129.385194 
L 277.720322 129.82522 
L 281.74702 130.377583 
L 285.773717 131.048203 
L 289.800414 131.837379 
L 293.827112 132.738786 
L 297.853809 133.738888 
L 301.880506 134.81687 
L 305.907204 135.945211 
L 309.933901 137.090841 
L 313.960598 138.216861 
L 317.987296 139.28465 
L 322.013993 140.256175 
L 326.04069 141.096306 
L 330.067388 141.774891 
L 334.094085 142.268511 
L 338.120783 142.561755 
L 342.14748 142.647956 
L 346.174177 142.529352 
L 350.200875 142.216744 
L 354.227572 141.728587 
L 358.254269 141.089689 
L 362.280967 140.329547 
L 366.307664 139.480476 
L 370.334361 138.575659 
L 374.361059 137.647278 
L 378.387756 136.724861 
L 382.414453 135.833989 
L 386.441151 134.995438 
L 390.467848 134.224759 
L 394.494545 133.532351 
" style="fill:none;stroke:#ff7f0e;stroke-linecap:square;stroke-width:1.5;"/>
   </g>
   <g id="patch_13">
    <path d="M 60.48 173.79936 
L 60.48 121.45824 
" style="fill:none;stroke:#000000;stroke-linecap:square;stroke-linejoin:miter;stroke-width:0.8;"/>
   </g>
   <g id="patch_14">
    <path d="M 410.4 173.79936 
L 410.4 121.45824 
" style="fill:none;stroke:#000000;stroke-linecap:square;stroke-linejoin:miter;stroke-width:0.8;"/>
   </g>
   <g id="patch_15">
    <path d="M 60.48 173.79936 
L 410.4 173.79936 
" style="fill:none;stroke:#000000;stroke-linecap:square;stroke-linejoin:miter;stroke-width:0.8;"/>
   </g>
   <g id="patch_16">
    <path d="M 60.48 121.45824 
L 410.4 121.45824 
" style="fill:none;stroke:#000000;stroke-linecap:square;stroke-linejoin:miter;stroke-width:0.8;"/>
   </g>
  </g>
  <g id="axes_4">
   <g id="patch_17">
    <path d="M 60.48 226.14048 
L 410.4 226.14048 
L 410.4 173.79936 
L 60.48 173.79936 
z
" style="fill:#ffffff;"/>
   </g>
   <g id="matplotlib.axis_7">
    <g id="xtick_28">
     <g id="line2d_46">
      <g>
       <use style="stroke:#000000;stroke-width:0.8;" x="76.385455" xlink:href="#m4350eeb5e5" y="226.14048"/>
      </g>
     </g>
    </g>
    <g id="xtick_29">
     <g id="line2d_47">
      <g>
       <use style="stroke:#000000;stroke-width:0.8;" x="116.652428" xlink:href="#m4350eeb5e5" y="226.14048"/>
      </g>
     </g>
    </g>
    <g id="xtick_30">
     <g id="line2d_48">
      <g>
       <use style="stroke:#000000;stroke-width:0.8;" x="156.919402" xlink:href="#m4350eeb5e5" y="226.14048"/>
      </g>
     </g>
    </g>
    <g id="xtick_31">
     <g id="line2d_49">
      <g>
       <use style="stroke:#000000;stroke-width:0.8;" x="197.186375" xlink:href="#m4350eeb5e5" y="226.14048"/>
      </g>
     </g>
    </g>
    <g id="xtick_32">
     <g id="line2d_50">
      <g>
       <use style="stroke:#000000;stroke-width:0.8;" x="237.453349" xlink:href="#m4350eeb5e5" y="226.14048"/>
      </g>
     </g>
    </g>
    <g id="xtick_33">
     <g id="line2d_51">
      <g>
       <use style="stroke:#000000;stroke-width:0.8;" x="277.720322" xlink:href="#m4350eeb5e5" y="226.14048"/>
      </g>
     </g>
    </g>
    <g id="xtick_34">
     <g id="line2d_52">
      <g>
       <use style="stroke:#000000;stroke-width:0.8;" x="317.987296" xlink:href="#m4350eeb5e5" y="226.14048"/>
      </g>
     </g>
    </g>
    <g id="xtick_35">
     <g id="line2d_53">
      <g>
       <use style="stroke:#000000;stroke-width:0.8;" x="358.254269" xlink:href="#m4350eeb5e5" y="226.14048"/>
      </g>
     </g>
    </g>
    <g id="xtick_36">
     <g id="line2d_54">
      <g>
       <use style="stroke:#000000;stroke-width:0.8;" x="398.521243" xlink:href="#m4350eeb5e5" y="226.14048"/>
      </g>
     </g>
    </g>
   </g>
   <g id="matplotlib.axis_8">
    <g id="ytick_13">
     <g id="line2d_55">
      <g>
       <use style="stroke:#000000;stroke-width:0.8;" x="60.48" xlink:href="#m4d03c3c24f" y="220.10112"/>
      </g>
     </g>
     <g id="text_16">
      <!-- -14.80 -->
      <g transform="translate(16.801352 225.082432)scale(0.144 -0.144)">
       <use transform="scale(0.996264)" xlink:href="#CMSS17-45"/>
       <use transform="translate(31.229113 0)scale(0.996264)" xlink:href="#CMSS17-49"/>
       <use transform="translate(78.072736 0)scale(0.996264)" xlink:href="#CMSS17-52"/>
       <use transform="translate(124.91636 0)scale(0.996264)" xlink:href="#CMSS17-46"/>
       <use transform="translate(150.940565 0)scale(0.996264)" xlink:href="#CMSS17-56"/>
       <use transform="translate(197.784188 0)scale(0.996264)" xlink:href="#CMSS17-48"/>
      </g>
     </g>
    </g>
    <g id="ytick_14">
     <g id="line2d_56">
      <g>
       <use style="stroke:#000000;stroke-width:0.8;" x="60.48" xlink:href="#m4d03c3c24f" y="206.68032"/>
      </g>
     </g>
     <g id="text_17">
      <!-- -11.22 -->
      <g transform="translate(16.801352 211.661632)scale(0.144 -0.144)">
       <use transform="scale(0.996264)" xlink:href="#CMSS17-45"/>
       <use transform="translate(31.229113 0)scale(0.996264)" xlink:href="#CMSS17-49"/>
       <use transform="translate(78.072736 0)scale(0.996264)" xlink:href="#CMSS17-49"/>
       <use transform="translate(124.91636 0)scale(0.996264)" xlink:href="#CMSS17-46"/>
       <use transform="translate(150.940565 0)scale(0.996264)" xlink:href="#CMSS17-50"/>
       <use transform="translate(197.784188 0)scale(0.996264)" xlink:href="#CMSS17-50"/>
      </g>
     </g>
    </g>
    <g id="ytick_15">
     <g id="line2d_57">
      <g>
       <use style="stroke:#000000;stroke-width:0.8;" x="60.48" xlink:href="#m4d03c3c24f" y="193.25952"/>
      </g>
     </g>
     <g id="text_18">
      <!-- -7.64 -->
      <g transform="translate(23.824925 198.240832)scale(0.144 -0.144)">
       <use transform="scale(0.996264)" xlink:href="#CMSS17-45"/>
       <use transform="translate(31.229113 0)scale(0.996264)" xlink:href="#CMSS17-55"/>
       <use transform="translate(78.072736 0)scale(0.996264)" xlink:href="#CMSS17-46"/>
       <use transform="translate(104.096941 0)scale(0.996264)" xlink:href="#CMSS17-54"/>
       <use transform="translate(150.940565 0)scale(0.996264)" xlink:href="#CMSS17-52"/>
      </g>
     </g>
    </g>
    <g id="ytick_16">
     <g id="line2d_58">
      <g>
       <use style="stroke:#000000;stroke-width:0.8;" x="60.48" xlink:href="#m4d03c3c24f" y="179.83872"/>
      </g>
     </g>
     <g id="text_19">
      <!-- -4.07 -->
      <g transform="translate(23.824925 184.820032)scale(0.144 -0.144)">
       <use transform="scale(0.996264)" xlink:href="#CMSS17-45"/>
       <use transform="translate(31.229113 0)scale(0.996264)" xlink:href="#CMSS17-52"/>
       <use transform="translate(78.072736 0)scale(0.996264)" xlink:href="#CMSS17-46"/>
       <use transform="translate(104.096941 0)scale(0.996264)" xlink:href="#CMSS17-48"/>
       <use transform="translate(150.940565 0)scale(0.996264)" xlink:href="#CMSS17-55"/>
      </g>
     </g>
    </g>
    <g id="text_20">
     <!-- $s_{75}$ -->
     <defs>
      <path d="M 45.09375 61.796875 
L 45.09375 64 
L 21.59375 64 
C 9.90625 64 9.703125 65.09375 9.296875 67 
L 7.5 67 
L 4.59375 48.5 
L 6.40625 48.5 
C 6.703125 50.40625 7.40625 55.5 8.59375 57.390625 
C 9.203125 58.1875 16.59375 58.1875 18.296875 58.1875 
L 40.296875 58.1875 
L 29.203125 41.71875 
C 21.796875 30.640625 16.703125 15.671875 16.703125 2.59375 
C 16.703125 1.390625 16.703125 -2 20.296875 -2 
C 23.90625 -2 23.90625 1.390625 23.90625 2.6875 
L 23.90625 7.28125 
C 23.90625 23.65625 26.703125 34.4375 31.296875 41.3125 
z
" id="CMR17-55"/>
     </defs>
     <g transform="translate(10.011825 208.259657)rotate(-90)scale(0.144 -0.144)">
      <use transform="translate(0 14.943915)scale(0.996264)" xlink:href="#CMMI12-115"/>
      <use transform="translate(45.950048 0)scale(0.697382)" xlink:href="#CMR17-55"/>
      <use transform="translate(77.93323 0)scale(0.697382)" xlink:href="#CMR17-53"/>
     </g>
    </g>
   </g>
   <g id="line2d_59">
    <path clip-path="url(#peff77dff71)" d="M 76.385455 215.82174 
L 80.412152 217.752019 
L 84.438849 217.752019 
L 88.465547 218.247215 
L 92.492244 218.697187 
L 96.518941 219.695494 
L 100.545639 218.398882 
L 104.572336 218.398882 
L 108.599033 220.10112 
L 112.625731 220.10112 
L 116.652428 220.10112 
L 120.679125 218.398882 
L 124.705823 219.695494 
L 128.73252 218.697187 
L 132.759217 218.247215 
L 136.785915 216.366172 
L 140.812612 215.851841 
L 144.83931 215.249111 
L 148.866007 215.249111 
L 152.892704 212.354519 
L 156.919402 210.155468 
L 160.946099 208.488228 
L 164.972796 205.195582 
L 168.999494 205.195582 
L 173.026191 201.070283 
L 177.052888 199.393414 
L 181.079586 197.832036 
L 185.106283 193.851557 
L 189.13298 193.851557 
L 193.159678 190.023572 
L 197.186375 190.023572 
L 201.213072 187.325468 
L 205.23977 187.325468 
L 209.266467 183.937214 
L 213.293165 183.937214 
L 217.319862 183.937214 
L 221.346559 180.788459 
L 225.373257 180.788459 
L 229.399954 180.788459 
L 233.426651 180.788459 
L 237.453349 179.83872 
L 241.480046 179.83872 
L 245.506743 179.83872 
L 249.533441 179.83872 
L 253.560138 180.340686 
L 257.586835 182.028927 
L 261.613533 182.028927 
L 265.64023 182.028927 
L 269.666928 185.439202 
L 273.693625 185.439202 
L 277.720322 188.121856 
L 281.74702 188.121856 
L 285.773717 191.998003 
L 289.800414 191.998003 
L 293.827112 195.109823 
L 297.853809 196.047443 
L 301.880506 197.702473 
L 305.907204 199.311662 
L 309.933901 200.207539 
L 313.960598 203.552156 
L 317.987296 204.392103 
L 322.013993 204.392103 
L 326.04069 204.392103 
L 330.067388 207.720156 
L 334.094085 208.488228 
L 338.120783 208.488228 
L 342.14748 208.488228 
L 346.174177 208.488228 
L 350.200875 208.488228 
L 354.227572 208.488228 
L 358.254269 205.195582 
L 362.280967 205.195582 
L 366.307664 205.195582 
L 370.334361 205.195582 
L 374.361059 202.770267 
L 378.387756 201.070283 
L 382.414453 201.070283 
L 386.441151 200.207539 
L 390.467848 196.955372 
L 394.494545 196.955372 
" style="fill:none;stroke:#1f77b4;stroke-linecap:square;stroke-width:1.5;"/>
   </g>
   <g id="line2d_60">
    <path clip-path="url(#peff77dff71)" d="M 76.385455 216.354953 
L 80.412152 217.115774 
L 84.438849 217.771564 
L 88.465547 218.317933 
L 92.492244 218.75642 
L 96.518941 219.093372 
L 100.545639 219.338135 
L 104.572336 219.500809 
L 108.599033 219.589789 
L 112.625731 219.609458 
L 116.652428 219.558332 
L 120.679125 219.427952 
L 124.705823 219.202713 
L 128.73252 218.860767 
L 132.759217 218.375961 
L 136.785915 217.720688 
L 140.812612 216.869317 
L 144.83931 215.801771 
L 148.866007 214.506752 
L 152.892704 212.984087 
L 156.919402 211.245839 
L 160.946099 209.315981 
L 164.972796 207.228732 
L 168.999494 205.025845 
L 173.026191 202.753312 
L 177.052888 200.457987 
L 181.079586 198.184575 
L 185.106283 195.973277 
L 189.13298 193.858256 
L 193.159678 191.866924 
L 197.186375 190.019938 
L 201.213072 188.331728 
L 205.23977 186.811373 
L 209.266467 185.463689 
L 213.293165 184.290322 
L 217.319862 183.290779 
L 221.346559 182.463372 
L 225.373257 181.805953 
L 229.399954 181.316464 
L 233.426651 180.993355 
L 237.453349 180.835754 
L 241.480046 180.843548 
L 245.506743 181.017208 
L 249.533441 181.357553 
L 253.560138 181.865306 
L 257.586835 182.540596 
L 261.613533 183.38228 
L 265.64023 184.387234 
L 269.666928 185.549614 
L 273.693625 186.860142 
L 277.720322 188.305504 
L 281.74702 189.867951 
L 285.773717 191.525158 
L 289.800414 193.250496 
L 293.827112 195.013649 
L 297.853809 196.781681 
L 301.880506 198.520404 
L 305.907204 200.196011 
L 309.933901 201.776685 
L 313.960598 203.234072 
L 317.987296 204.544393 
L 322.013993 205.689056 
L 326.04069 206.654751 
L 330.067388 207.433019 
L 334.094085 208.019507 
L 338.120783 208.413055 
L 342.14748 208.614816 
L 346.174177 208.627588 
L 350.200875 208.455503 
L 354.227572 208.104023 
L 358.254269 207.580274 
L 362.280967 206.893543 
L 366.307664 206.055818 
L 370.334361 205.082218 
L 374.361059 203.991168 
L 378.387756 202.80429 
L 382.414453 201.545977 
L 386.441151 200.242725 
L 390.467848 198.922279 
L 394.494545 197.612742 
" style="fill:none;stroke:#ff7f0e;stroke-linecap:square;stroke-width:1.5;"/>
   </g>
   <g id="patch_18">
    <path d="M 60.48 226.14048 
L 60.48 173.79936 
" style="fill:none;stroke:#000000;stroke-linecap:square;stroke-linejoin:miter;stroke-width:0.8;"/>
   </g>
   <g id="patch_19">
    <path d="M 410.4 226.14048 
L 410.4 173.79936 
" style="fill:none;stroke:#000000;stroke-linecap:square;stroke-linejoin:miter;stroke-width:0.8;"/>
   </g>
   <g id="patch_20">
    <path d="M 60.48 226.14048 
L 410.4 226.14048 
" style="fill:none;stroke:#000000;stroke-linecap:square;stroke-linejoin:miter;stroke-width:0.8;"/>
   </g>
   <g id="patch_21">
    <path d="M 60.48 173.79936 
L 410.4 173.79936 
" style="fill:none;stroke:#000000;stroke-linecap:square;stroke-linejoin:miter;stroke-width:0.8;"/>
   </g>
  </g>
  <g id="axes_5">
   <g id="patch_22">
    <path d="M 60.48 278.4816 
L 410.4 278.4816 
L 410.4 226.14048 
L 60.48 226.14048 
z
" style="fill:#ffffff;"/>
   </g>
   <g id="matplotlib.axis_9">
    <g id="xtick_37">
     <g id="line2d_61">
      <g>
       <use style="stroke:#000000;stroke-width:0.8;" x="76.385455" xlink:href="#m4350eeb5e5" y="278.4816"/>
      </g>
     </g>
     <g id="text_21">
      <!-- $0$ -->
      <g transform="translate(72.873668 295.444225)scale(0.144 -0.144)">
       <use transform="scale(0.996264)" xlink:href="#CMR17-48"/>
      </g>
     </g>
    </g>
    <g id="xtick_38">
     <g id="line2d_62">
      <g>
       <use style="stroke:#000000;stroke-width:0.8;" x="116.652428" xlink:href="#m4350eeb5e5" y="278.4816"/>
      </g>
     </g>
     <g id="text_22">
      <!-- $10$ -->
      <g transform="translate(109.628855 295.444225)scale(0.144 -0.144)">
       <use transform="scale(0.996264)" xlink:href="#CMR17-49"/>
       <use transform="translate(45.690477 0)scale(0.996264)" xlink:href="#CMR17-48"/>
      </g>
     </g>
    </g>
    <g id="xtick_39">
     <g id="line2d_63">
      <g>
       <use style="stroke:#000000;stroke-width:0.8;" x="156.919402" xlink:href="#m4350eeb5e5" y="278.4816"/>
      </g>
     </g>
     <g id="text_23">
      <!-- $20$ -->
      <g transform="translate(149.895829 295.444225)scale(0.144 -0.144)">
       <use transform="scale(0.996264)" xlink:href="#CMR17-50"/>
       <use transform="translate(45.690477 0)scale(0.996264)" xlink:href="#CMR17-48"/>
      </g>
     </g>
    </g>
    <g id="xtick_40">
     <g id="line2d_64">
      <g>
       <use style="stroke:#000000;stroke-width:0.8;" x="197.186375" xlink:href="#m4350eeb5e5" y="278.4816"/>
      </g>
     </g>
     <g id="text_24">
      <!-- $30$ -->
      <defs>
       <path d="M 22.09375 34 
C 31 34 34.90625 26.140625 34.90625 17.09375 
C 34.90625 5.03125 28.5 0.390625 22.703125 0.390625 
C 17.40625 0.390625 8.796875 3.015625 6.09375 10.796875 
C 6.59375 10.59375 7.09375 10.59375 7.59375 10.59375 
C 10 10.59375 11.796875 12.1875 11.796875 14.796875 
C 11.796875 17.6875 9.59375 19 7.59375 19 
C 5.90625 19 3.296875 18.1875 3.296875 14.484375 
C 3.296875 5.234375 12.296875 -2 22.90625 -2 
C 34 -2 42.5 6.75 42.5 16.984375 
C 42.5 26.84375 34.5 34 25 35.09375 
C 32.59375 36.671875 39.90625 43.375 39.90625 52.390625 
C 39.90625 60.25 32 66 23 66 
C 13.90625 66 5.90625 60.34375 5.90625 52.296875 
C 5.90625 48.796875 8.5 48.1875 9.796875 48.1875 
C 11.90625 48.1875 13.703125 49.484375 13.703125 52.09375 
C 13.703125 54.6875 11.90625 56 9.796875 56 
C 9.40625 56 8.90625 56 8.5 55.796875 
C 11.40625 62.484375 19.296875 63.6875 22.796875 63.6875 
C 26.296875 63.6875 32.90625 61.96875 32.90625 52.296875 
C 32.90625 49.484375 32.5 44.546875 29.09375 40.21875 
C 26.09375 36.390625 22.703125 36.1875 19.40625 35.890625 
C 18.90625 35.890625 16.59375 35.6875 16.203125 35.6875 
C 15.5 35.59375 15.09375 35.5 15.09375 34.796875 
C 15.09375 34.09375 15.203125 34 17.203125 34 
z
" id="CMR17-51"/>
      </defs>
      <g transform="translate(190.162802 295.444225)scale(0.144 -0.144)">
       <use transform="scale(0.996264)" xlink:href="#CMR17-51"/>
       <use transform="translate(45.690477 0)scale(0.996264)" xlink:href="#CMR17-48"/>
      </g>
     </g>
    </g>
    <g id="xtick_41">
     <g id="line2d_65">
      <g>
       <use style="stroke:#000000;stroke-width:0.8;" x="237.453349" xlink:href="#m4350eeb5e5" y="278.4816"/>
      </g>
     </g>
     <g id="text_25">
      <!-- $40$ -->
      <defs>
       <path d="M 33.59375 64.796875 
C 33.59375 66.890625 33.5 67 31.703125 67 
L 2 19.59375 
L 2 17 
L 27.796875 17 
L 27.796875 7.1875 
C 27.796875 3.59375 27.59375 2.59375 20.59375 2.59375 
L 18.703125 2.59375 
L 18.703125 0 
C 21.90625 0.1875 27.296875 0.1875 30.703125 0.1875 
C 34.09375 0.1875 39.5 0.1875 42.703125 0 
L 42.703125 2.59375 
L 40.796875 2.59375 
C 33.796875 2.59375 33.59375 3.59375 33.59375 7.1875 
L 33.59375 17 
L 43.796875 17 
L 43.796875 19.59375 
L 33.59375 19.59375 
z
M 28.09375 58.171875 
L 28.09375 19.59375 
L 4 19.59375 
z
" id="CMR17-52"/>
      </defs>
      <g transform="translate(230.429776 295.444225)scale(0.144 -0.144)">
       <use transform="scale(0.996264)" xlink:href="#CMR17-52"/>
       <use transform="translate(45.690477 0)scale(0.996264)" xlink:href="#CMR17-48"/>
      </g>
     </g>
    </g>
    <g id="xtick_42">
     <g id="line2d_66">
      <g>
       <use style="stroke:#000000;stroke-width:0.8;" x="277.720322" xlink:href="#m4350eeb5e5" y="278.4816"/>
      </g>
     </g>
     <g id="text_26">
      <!-- $50$ -->
      <g transform="translate(270.696749 295.444225)scale(0.144 -0.144)">
       <use transform="scale(0.996264)" xlink:href="#CMR17-53"/>
       <use transform="translate(45.690477 0)scale(0.996264)" xlink:href="#CMR17-48"/>
      </g>
     </g>
    </g>
    <g id="xtick_43">
     <g id="line2d_67">
      <g>
       <use style="stroke:#000000;stroke-width:0.8;" x="317.987296" xlink:href="#m4350eeb5e5" y="278.4816"/>
      </g>
     </g>
     <g id="text_27">
      <!-- $60$ -->
      <defs>
       <path d="M 10.59375 34.34375 
C 10.59375 58 21.796875 63.6875 28.296875 63.6875 
C 30.40625 63.6875 35.5 63.265625 37.5 59.09375 
C 35.90625 59.09375 32.90625 59.09375 32.90625 55.59375 
C 32.90625 52.890625 35.09375 52 36.5 52 
C 37.40625 52 40.09375 52.390625 40.09375 55.796875 
C 40.09375 62.296875 35.09375 66 28.203125 66 
C 16.296875 66 3.796875 53.296875 3.796875 31.421875 
C 3.796875 4.015625 15.09375 -2 23.09375 -2 
C 32.796875 -2 42 6.734375 42 20.234375 
C 42 32.828125 33.90625 42 23.703125 42 
C 17.59375 42 13.09375 37.96875 10.59375 30.921875 
z
M 23.09375 0.390625 
C 10.796875 0.390625 10.796875 18.9375 10.796875 22.65625 
C 10.796875 29.90625 14.203125 40.390625 23.5 40.390625 
C 25.203125 40.390625 30.09375 40.390625 33.40625 33.4375 
C 35.203125 29.515625 35.203125 25.375 35.203125 20.34375 
C 35.203125 14.90625 35.203125 10.875 33.09375 6.84375 
C 30.90625 2.703125 27.703125 0.390625 23.09375 0.390625 
z
" id="CMR17-54"/>
      </defs>
      <g transform="translate(310.963723 295.444225)scale(0.144 -0.144)">
       <use transform="scale(0.996264)" xlink:href="#CMR17-54"/>
       <use transform="translate(45.690477 0)scale(0.996264)" xlink:href="#CMR17-48"/>
      </g>
     </g>
    </g>
    <g id="xtick_44">
     <g id="line2d_68">
      <g>
       <use style="stroke:#000000;stroke-width:0.8;" x="358.254269" xlink:href="#m4350eeb5e5" y="278.4816"/>
      </g>
     </g>
     <g id="text_28">
      <!-- $70$ -->
      <g transform="translate(351.230696 295.444225)scale(0.144 -0.144)">
       <use transform="scale(0.996264)" xlink:href="#CMR17-55"/>
       <use transform="translate(45.690477 0)scale(0.996264)" xlink:href="#CMR17-48"/>
      </g>
     </g>
    </g>
    <g id="xtick_45">
     <g id="line2d_69">
      <g>
       <use style="stroke:#000000;stroke-width:0.8;" x="398.521243" xlink:href="#m4350eeb5e5" y="278.4816"/>
      </g>
     </g>
     <g id="text_29">
      <!-- $80$ -->
      <defs>
       <path d="M 27.203125 35.765625 
C 33.5 38.96875 39.90625 43.796875 39.90625 51.53125 
C 39.90625 60.6875 31.09375 66 23 66 
C 13.90625 66 5.90625 59.375 5.90625 50.234375 
C 5.90625 47.71875 6.5 43.390625 10.40625 39.578125 
C 11.40625 38.578125 15.59375 35.5625 18.296875 33.65625 
C 13.796875 31.34375 3.296875 25.8125 3.296875 14.765625 
C 3.296875 4.40625 13.09375 -2 22.796875 -2 
C 33.5 -2 42.5 5.71875 42.5 15.96875 
C 42.5 25.109375 36.40625 29.328125 32.40625 32.046875 
z
M 14.09375 44.609375 
C 13.296875 45.109375 9.296875 48.21875 9.296875 52.9375 
C 9.296875 59.078125 15.59375 63.6875 22.796875 63.6875 
C 30.703125 63.6875 36.5 58.0625 36.5 51.53125 
C 36.5 42.1875 26.09375 36.859375 25.59375 36.859375 
C 25.5 36.859375 25.40625 36.859375 24.59375 37.46875 
z
M 32.5 24 
C 34 22.90625 38.796875 19.578125 38.796875 13.453125 
C 38.796875 6.015625 31.40625 0.390625 23 0.390625 
C 13.90625 0.390625 7 6.921875 7 14.859375 
C 7 22.796875 13.09375 29.4375 20 32.546875 
z
" id="CMR17-56"/>
      </defs>
      <g transform="translate(391.49767 295.444225)scale(0.144 -0.144)">
       <use transform="scale(0.996264)" xlink:href="#CMR17-56"/>
       <use transform="translate(45.690477 0)scale(0.996264)" xlink:href="#CMR17-48"/>
      </g>
     </g>
    </g>
   </g>
   <g id="matplotlib.axis_10">
    <g id="ytick_17">
     <g id="line2d_70">
      <g>
       <use style="stroke:#000000;stroke-width:0.8;" x="60.48" xlink:href="#m4d03c3c24f" y="272.44224"/>
      </g>
     </g>
     <g id="text_30">
      <!-- -25.34 -->
      <g transform="translate(16.801352 277.423552)scale(0.144 -0.144)">
       <use transform="scale(0.996264)" xlink:href="#CMSS17-45"/>
       <use transform="translate(31.229113 0)scale(0.996264)" xlink:href="#CMSS17-50"/>
       <use transform="translate(78.072736 0)scale(0.996264)" xlink:href="#CMSS17-53"/>
       <use transform="translate(124.91636 0)scale(0.996264)" xlink:href="#CMSS17-46"/>
       <use transform="translate(150.940565 0)scale(0.996264)" xlink:href="#CMSS17-51"/>
       <use transform="translate(197.784188 0)scale(0.996264)" xlink:href="#CMSS17-52"/>
      </g>
     </g>
    </g>
    <g id="ytick_18">
     <g id="line2d_71">
      <g>
       <use style="stroke:#000000;stroke-width:0.8;" x="60.48" xlink:href="#m4d03c3c24f" y="259.02144"/>
      </g>
     </g>
     <g id="text_31">
      <!-- -22.77 -->
      <g transform="translate(16.801352 264.002752)scale(0.144 -0.144)">
       <use transform="scale(0.996264)" xlink:href="#CMSS17-45"/>
       <use transform="translate(31.229113 0)scale(0.996264)" xlink:href="#CMSS17-50"/>
       <use transform="translate(78.072736 0)scale(0.996264)" xlink:href="#CMSS17-50"/>
       <use transform="translate(124.91636 0)scale(0.996264)" xlink:href="#CMSS17-46"/>
       <use transform="translate(150.940565 0)scale(0.996264)" xlink:href="#CMSS17-55"/>
       <use transform="translate(197.784188 0)scale(0.996264)" xlink:href="#CMSS17-55"/>
      </g>
     </g>
    </g>
    <g id="ytick_19">
     <g id="line2d_72">
      <g>
       <use style="stroke:#000000;stroke-width:0.8;" x="60.48" xlink:href="#m4d03c3c24f" y="245.60064"/>
      </g>
     </g>
     <g id="text_32">
      <!-- -20.19 -->
      <g transform="translate(16.801352 250.581952)scale(0.144 -0.144)">
       <use transform="scale(0.996264)" xlink:href="#CMSS17-45"/>
       <use transform="translate(31.229113 0)scale(0.996264)" xlink:href="#CMSS17-50"/>
       <use transform="translate(78.072736 0)scale(0.996264)" xlink:href="#CMSS17-48"/>
       <use transform="translate(124.91636 0)scale(0.996264)" xlink:href="#CMSS17-46"/>
       <use transform="translate(150.940565 0)scale(0.996264)" xlink:href="#CMSS17-49"/>
       <use transform="translate(197.784188 0)scale(0.996264)" xlink:href="#CMSS17-57"/>
      </g>
     </g>
    </g>
    <g id="ytick_20">
     <g id="line2d_73">
      <g>
       <use style="stroke:#000000;stroke-width:0.8;" x="60.48" xlink:href="#m4d03c3c24f" y="232.17984"/>
      </g>
     </g>
     <g id="text_33">
      <!-- -17.61 -->
      <g transform="translate(16.801352 237.161152)scale(0.144 -0.144)">
       <use transform="scale(0.996264)" xlink:href="#CMSS17-45"/>
       <use transform="translate(31.229113 0)scale(0.996264)" xlink:href="#CMSS17-49"/>
       <use transform="translate(78.072736 0)scale(0.996264)" xlink:href="#CMSS17-55"/>
       <use transform="translate(124.91636 0)scale(0.996264)" xlink:href="#CMSS17-46"/>
       <use transform="translate(150.940565 0)scale(0.996264)" xlink:href="#CMSS17-54"/>
       <use transform="translate(197.784188 0)scale(0.996264)" xlink:href="#CMSS17-49"/>
      </g>
     </g>
    </g>
    <g id="text_34">
     <!-- $s_{92}$ -->
     <defs>
      <path d="M 35.203125 29.234375 
C 35.203125 7 26.09375 0.390625 18.59375 0.390625 
C 16.296875 0.390625 10.703125 0.671875 8.40625 4.390625 
C 11 4 12.90625 5.390625 12.90625 7.890625 
C 12.90625 10.59375 10.703125 11.5 9.296875 11.5 
C 8.40625 11.5 5.703125 11.09375 5.703125 7.6875 
C 5.703125 1.0625 11.59375 -2 18.796875 -2 
C 30.296875 -2 42 10.390625 42 32.65625 
C 42 60.265625 30.796875 66 23.203125 66 
C 13.296875 66 3.796875 57.25 3.796875 43.75 
C 3.796875 31.25 11.90625 22 22.09375 22 
C 30.5 22 34.203125 29.84375 35.203125 33.15625 
z
M 22.296875 23.59375 
C 19.59375 23.59375 15.796875 24.09375 12.703125 30.140625 
C 10.59375 34.078125 10.59375 38.703125 10.59375 43.640625 
C 10.59375 49.59375 10.59375 53.71875 13.40625 58.15625 
C 14.796875 60.265625 17.40625 63.6875 23.203125 63.6875 
C 35 63.6875 35 45.453125 35 41.421875 
C 35 34.265625 31.796875 23.59375 22.296875 23.59375 
z
" id="CMR17-57"/>
     </defs>
     <g transform="translate(10.011825 260.600777)rotate(-90)scale(0.144 -0.144)">
      <use transform="translate(0 14.943915)scale(0.996264)" xlink:href="#CMMI12-115"/>
      <use transform="translate(45.950048 0)scale(0.697382)" xlink:href="#CMR17-57"/>
      <use transform="translate(77.93323 0)scale(0.697382)" xlink:href="#CMR17-50"/>
     </g>
    </g>
   </g>
   <g id="line2d_74">
    <path clip-path="url(#p2b98d5619d)" d="M 76.385455 269.421645 
L 80.412152 269.320906 
L 84.438849 269.320906 
L 88.465547 269.306125 
L 92.492244 269.266792 
L 96.518941 268.308351 
L 100.545639 268.039443 
L 104.572336 268.039443 
L 108.599033 268.263282 
L 112.625731 268.263282 
L 116.652428 268.263282 
L 120.679125 268.039443 
L 124.705823 268.308351 
L 128.73252 269.266792 
L 132.759217 269.306125 
L 136.785915 269.024153 
L 140.812612 269.030219 
L 144.83931 269.400179 
L 148.866007 269.400179 
L 152.892704 268.536923 
L 156.919402 268.104895 
L 160.946099 266.641668 
L 164.972796 264.030286 
L 168.999494 264.030286 
L 173.026191 260.492675 
L 177.052888 260.055898 
L 181.079586 256.637651 
L 185.106283 252.067687 
L 189.13298 252.067687 
L 193.159678 247.196587 
L 197.186375 247.196587 
L 201.213072 242.624452 
L 205.23977 242.624452 
L 209.266467 237.626572 
L 213.293165 237.626572 
L 217.319862 237.626572 
L 221.346559 232.705692 
L 225.373257 232.705692 
L 229.399954 232.705692 
L 233.426651 232.705692 
L 237.453349 232.17984 
L 241.480046 232.17984 
L 245.506743 232.17984 
L 249.533441 232.17984 
L 253.560138 236.106531 
L 257.586835 236.602924 
L 261.613533 236.602924 
L 265.64023 236.602924 
L 269.666928 241.686325 
L 273.693625 241.686325 
L 277.720322 246.277179 
L 281.74702 246.277179 
L 285.773717 251.265944 
L 289.800414 251.265944 
L 293.827112 255.573778 
L 297.853809 255.966744 
L 301.880506 259.515078 
L 305.907204 259.890639 
L 309.933901 260.209941 
L 313.960598 263.579685 
L 317.987296 263.822056 
L 322.013993 263.822056 
L 326.04069 263.822056 
L 330.067388 266.476629 
L 334.094085 266.641668 
L 338.120783 266.641668 
L 342.14748 266.641668 
L 346.174177 266.641668 
L 350.200875 266.641668 
L 354.227572 266.641668 
L 358.254269 264.030286 
L 362.280967 264.030286 
L 366.307664 264.030286 
L 370.334361 264.030286 
L 374.361059 263.428619 
L 378.387756 260.492675 
L 382.414453 260.492675 
L 386.441151 260.209941 
L 390.467848 256.321071 
L 394.494545 256.321071 
" style="fill:none;stroke:#1f77b4;stroke-linecap:square;stroke-width:1.5;"/>
   </g>
   <g id="line2d_75">
    <path clip-path="url(#p2b98d5619d)" d="M 76.385455 272.44224 
L 80.412152 272.377521 
L 84.438849 272.219021 
L 88.465547 271.993406 
L 92.492244 271.731373 
L 96.518941 271.465012 
L 100.545639 271.225224 
L 104.572336 271.039326 
L 108.599033 270.928987 
L 112.625731 270.908478 
L 116.652428 270.983244 
L 120.679125 271.148755 
L 124.705823 271.389667 
L 128.73252 271.67935 
L 132.759217 271.979947 
L 136.785915 272.243195 
L 140.812612 272.412247 
L 144.83931 272.424745 
L 148.866007 272.217181 
L 152.892704 271.730358 
L 156.919402 270.9155 
L 160.946099 269.740082 
L 164.972796 268.192456 
L 168.999494 266.284306 
L 173.026191 264.050362 
L 177.052888 261.545357 
L 181.079586 258.838762 
L 185.106283 256.008348 
L 189.13298 253.133656 
L 193.159678 250.290386 
L 197.186375 247.546291 
L 201.213072 244.958785 
L 205.23977 242.574085 
L 209.266467 240.427633 
L 213.293165 238.545252 
L 217.319862 236.944704 
L 221.346559 235.637409 
L 225.373257 234.62997 
L 229.399954 233.925436 
L 233.426651 233.524346 
L 237.453349 233.425295 
L 241.480046 233.625297 
L 245.506743 234.119685 
L 249.533441 234.90183 
L 253.560138 235.962505 
L 257.586835 237.289165 
L 261.613533 238.864953 
L 265.64023 240.667792 
L 269.666928 242.669588 
L 273.693625 244.835731 
L 277.720322 247.125144 
L 281.74702 249.490987 
L 285.773717 251.882182 
L 289.800414 254.245736 
L 293.827112 256.529662 
L 297.853809 258.686213 
L 301.880506 260.674941 
L 305.907204 262.465166 
L 309.933901 264.037374 
L 313.960598 265.383403 
L 317.987296 266.505396 
L 322.013993 267.413747 
L 326.04069 268.124408 
L 330.067388 268.655945 
L 334.094085 269.026796 
L 338.120783 269.252987 
L 342.14748 269.346516 
L 346.174177 269.314514 
L 350.200875 269.159195 
L 354.227572 268.878521 
L 358.254269 268.467503 
L 362.280967 267.919965 
L 366.307664 267.230576 
L 370.334361 266.39693 
L 374.361059 265.4214 
L 378.387756 264.312571 
L 382.414453 263.086024 
L 386.441151 261.764441 
L 390.467848 260.376975 
L 394.494545 258.958054 
" style="fill:none;stroke:#ff7f0e;stroke-linecap:square;stroke-width:1.5;"/>
   </g>
   <g id="patch_23">
    <path d="M 60.48 278.4816 
L 60.48 226.14048 
" style="fill:none;stroke:#000000;stroke-linecap:square;stroke-linejoin:miter;stroke-width:0.8;"/>
   </g>
   <g id="patch_24">
    <path d="M 410.4 278.4816 
L 410.4 226.14048 
" style="fill:none;stroke:#000000;stroke-linecap:square;stroke-linejoin:miter;stroke-width:0.8;"/>
   </g>
   <g id="patch_25">
    <path d="M 60.48 278.4816 
L 410.4 278.4816 
" style="fill:none;stroke:#000000;stroke-linecap:square;stroke-linejoin:miter;stroke-width:0.8;"/>
   </g>
   <g id="patch_26">
    <path d="M 60.48 226.14048 
L 410.4 226.14048 
" style="fill:none;stroke:#000000;stroke-linecap:square;stroke-linejoin:miter;stroke-width:0.8;"/>
   </g>
  </g>
  <g id="legend_1">
   <g id="patch_27">
    <path d="M 90.347769 328.32 
L 341.652231 328.32 
Q 344.532231 328.32 344.532231 325.44 
L 344.532231 306.810473 
Q 344.532231 303.930473 341.652231 303.930473 
L 90.347769 303.930473 
Q 87.467769 303.930473 87.467769 306.810473 
L 87.467769 325.44 
Q 87.467769 328.32 90.347769 328.32 
z
" style="fill:#ffffff;opacity:0.8;stroke:#cccccc;stroke-linejoin:miter;"/>
   </g>
   <g id="line2d_76">
    <path d="M 93.227769 314.730473 
L 122.027769 314.730473 
" style="fill:none;stroke:#1f77b4;stroke-linecap:square;stroke-width:1.5;"/>
   </g>
   <g id="line2d_77"/>
   <g id="text_35">
    <!-- Prediction -->
    <defs>
     <path d="M 32.90625 29 
C 44.90625 29 54.703125 38.234375 54.703125 49.046875 
C 54.703125 59.65625 45.296875 69 32.296875 69 
L 8.90625 69 
L 8.90625 0 
L 17.296875 0 
L 17.296875 29 
z
M 30.09375 63.390625 
C 41.703125 63.390625 46.796875 56.21875 46.796875 49.046875 
C 46.796875 42.359375 42.09375 34.796875 30.09375 34.796875 
L 17.09375 34.796875 
L 17.09375 63.390625 
z
" id="CMSS17-80"/>
     <path d="M 14.90625 21.390625 
C 14.90625 30.84375 21.796875 37.171875 30.59375 37.375 
L 30.59375 44 
C 24.203125 43.890625 18.203125 40.6875 14.59375 35.46875 
L 14.59375 43.484375 
L 7.5 43.484375 
L 7.5 0 
L 14.90625 0 
z
" id="CMSS17-114"/>
     <path d="M 39.09375 21.484375 
C 39.09375 24.796875 38.90625 31.265625 35.703125 36.671875 
C 32.203125 42.390625 26.5 44 22.203125 44 
C 11.796875 44 3 34.125 3 21.296875 
C 3 9.046875 12.09375 -1 23.59375 -1 
C 28.09375 -1 33.59375 0.296875 38.59375 3.890625 
C 38.59375 4.296875 38.40625 6.46875 38.296875 6.578125 
C 38.296875 6.765625 38 9.828125 38 10.234375 
C 33.203125 6.375 27.703125 5.09375 23.703125 5.09375 
C 17.296875 5.09375 10.40625 10.421875 10.09375 21.484375 
z
M 10.90625 27 
C 12.203125 32.59375 16.59375 37.890625 22.203125 37.890625 
C 23.703125 37.890625 30.703125 37.6875 32.5 27 
z
" id="CMSS17-101"/>
     <path d="M 40.796875 69 
L 33.40625 69 
L 33.40625 38.984375 
C 30.296875 41.59375 25.203125 44 19.59375 44 
C 10.5 44 3.296875 34.046875 3.296875 21.484375 
C 3.296875 8.9375 10.40625 -1 19.296875 -1 
C 26.203125 -1 30.796875 2.6875 33.203125 4.796875 
L 33.203125 -0.203125 
L 40.796875 -0.203125 
z
M 33.203125 13.296875 
C 33.203125 11.875 33.203125 10.359375 30.09375 7.625 
C 28.09375 5.90625 25.703125 5.09375 23.40625 5.09375 
C 18 5.09375 10.90625 9.140625 10.90625 21.390625 
C 10.90625 34.140625 18.90625 37.890625 24.40625 37.890625 
C 28.09375 37.890625 31.09375 36.0625 33.203125 33.03125 
z
" id="CMSS17-100"/>
     <path d="M 15.296875 66 
L 6.90625 66 
L 6.90625 57.59375 
L 15.296875 57.59375 
z
M 14.796875 43 
L 7.40625 43 
L 7.40625 0 
L 14.796875 0 
z
" id="CMSS17-105"/>
     <path d="M 38.5 39.6875 
C 38.5 40.390625 33.90625 42.390625 32.703125 42.796875 
C 29.40625 44 25.203125 44 24.09375 44 
C 11.09375 44 3.296875 32.6875 3.296875 21.296875 
C 3.296875 9.296875 12 -1 23.703125 -1 
C 30.40625 -1 35.203125 1.1875 39.09375 3.796875 
L 38.5 10.390625 
C 34.203125 7.09375 29.203125 5.296875 23.796875 5.296875 
C 16 5.296875 10.90625 12.09375 10.90625 21.390625 
C 10.90625 28.59375 14.203125 37.6875 24.203125 37.6875 
C 29.703125 37.6875 32.796875 36.59375 37.40625 33.484375 
z
" id="CMSS17-99"/>
     <path d="M 16.703125 37.1875 
L 29.703125 37.1875 
L 29.703125 43 
L 16.703125 43 
L 16.703125 55 
L 9.59375 55 
L 9.59375 43 
L 1.703125 43 
L 1.703125 37.1875 
L 9.40625 37.1875 
L 9.40625 11.734375 
C 9.40625 6 10.703125 -1 17.296875 -1 
C 22.296875 -1 26.90625 0.390625 31.296875 2.6875 
L 29.703125 8.609375 
C 27.296875 6.5 24.40625 5.296875 21.296875 5.296875 
C 16.90625 5.296875 16.703125 10.921875 16.703125 13.4375 
z
" id="CMSS17-116"/>
     <path d="M 44.203125 21.1875 
C 44.203125 33.984375 34.703125 44 23.5 44 
C 12 44 2.703125 33.6875 2.703125 21.1875 
C 2.703125 8.5 12.296875 -1 23.40625 -1 
C 34.796875 -1 44.203125 8.796875 44.203125 21.1875 
z
M 23.5 5.296875 
C 16.40625 5.296875 10.296875 11.09375 10.296875 21.984375 
C 10.296875 33.59375 17.40625 37.890625 23.40625 37.890625 
C 29.90625 37.890625 36.59375 33.1875 36.59375 21.984375 
C 36.59375 10.6875 30.09375 5.296875 23.5 5.296875 
z
" id="CMSS17-111"/>
     <path d="M 40.90625 29.34375 
C 40.90625 35.671875 39.40625 44 28.09375 44 
C 21.703125 44 17.5 40.6875 14.703125 37.28125 
L 14.703125 43.484375 
L 7.40625 43.484375 
L 7.40625 0 
L 15 0 
L 15 24.3125 
C 15 30.65625 17.40625 37.890625 24.203125 37.890625 
C 33 37.890625 33.296875 31.953125 33.296875 28.53125 
L 33.296875 0 
L 40.90625 0 
z
" id="CMSS17-110"/>
    </defs>
    <g transform="translate(133.547769 319.770473)scale(0.144 -0.144)">
     <use transform="scale(0.996264)" xlink:href="#CMSS17-80"/>
     <use transform="translate(59.735586 0)scale(0.996264)" xlink:href="#CMSS17-114"/>
     <use transform="translate(91.645359 0)scale(0.996264)" xlink:href="#CMSS17-101"/>
     <use transform="translate(133.284181 0)scale(0.996264)" xlink:href="#CMSS17-100"/>
     <use transform="translate(181.489124 0)scale(0.996264)" xlink:href="#CMSS17-105"/>
     <use transform="translate(203.669847 0)scale(0.996264)" xlink:href="#CMSS17-99"/>
     <use transform="translate(245.308669 0)scale(0.996264)" xlink:href="#CMSS17-116"/>
     <use transform="translate(279.140236 0)scale(0.996264)" xlink:href="#CMSS17-105"/>
     <use transform="translate(301.320959 0)scale(0.996264)" xlink:href="#CMSS17-111"/>
     <use transform="translate(348.164582 0)scale(0.996264)" xlink:href="#CMSS17-110"/>
    </g>
   </g>
   <g id="line2d_78">
    <path d="M 221.657903 314.730473 
L 250.457903 314.730473 
" style="fill:none;stroke:#ff7f0e;stroke-linecap:square;stroke-width:1.5;"/>
   </g>
   <g id="line2d_79"/>
   <g id="text_36">
    <!-- Ground truth -->
    <defs>
     <path d="M 56.40625 29.1875 
L 36.5 29.1875 
L 36.5 23 
L 48.796875 23 
L 48.796875 7.390625 
C 44.90625 6.296875 40.90625 5.5 36.90625 5.5 
C 22.90625 5.5 14.59375 20.484375 14.59375 34.6875 
C 14.59375 48.796875 23.296875 63.59375 36.90625 63.59375 
C 44.59375 63.59375 48.90625 61.1875 54.203125 57.1875 
L 55.5 65.1875 
C 48.90625 68.59375 44.796875 70 37.296875 70 
C 17.90625 70 6.203125 52.390625 6.203125 34.390625 
C 6.203125 17.1875 18 -1 36.703125 -1 
C 43.703125 -1 50.203125 0.796875 56.40625 3.890625 
z
" id="CMSS17-71"/>
     <path d="M 40.90625 43 
L 33.296875 43 
L 33.296875 15.25 
C 33.296875 7.8125 27.90625 4.796875 22.203125 4.796875 
C 15.59375 4.796875 15 7 15 11.125 
L 15 43 
L 7.40625 43 
L 7.40625 10.625 
C 7.40625 2.796875 10.09375 -1 17 -1 
C 20.40625 -1 28.09375 -0.203125 33.5 4.796875 
L 33.5 -0.203125 
L 40.90625 -0.203125 
z
" id="CMSS17-117"/>
     <path d="M 40.90625 29.34375 
C 40.90625 35.671875 39.40625 44 28.09375 44 
C 21.796875 44 17.703125 40.890625 14.796875 37.484375 
L 14.796875 69 
L 7.40625 69 
L 7.40625 0 
L 15 0 
L 15 24.3125 
C 15 30.65625 17.40625 37.890625 24.203125 37.890625 
C 33 37.890625 33.296875 31.953125 33.296875 28.53125 
L 33.296875 0 
L 40.90625 0 
z
" id="CMSS17-104"/>
    </defs>
    <g transform="translate(261.977903 319.770473)scale(0.144 -0.144)">
     <use transform="scale(0.996264)" xlink:href="#CMSS17-71"/>
     <use transform="translate(62.458226 0)scale(0.996264)" xlink:href="#CMSS17-114"/>
     <use transform="translate(94.367998 0)scale(0.996264)" xlink:href="#CMSS17-111"/>
     <use transform="translate(141.211622 0)scale(0.996264)" xlink:href="#CMSS17-117"/>
     <use transform="translate(189.416565 0)scale(0.996264)" xlink:href="#CMSS17-110"/>
     <use transform="translate(237.621508 0)scale(0.996264)" xlink:href="#CMSS17-100"/>
     <use transform="translate(317.055564 0)scale(0.996264)" xlink:href="#CMSS17-116"/>
     <use transform="translate(350.88713 0)scale(0.996264)" xlink:href="#CMSS17-114"/>
     <use transform="translate(382.796903 0)scale(0.996264)" xlink:href="#CMSS17-117"/>
     <use transform="translate(431.001846 0)scale(0.996264)" xlink:href="#CMSS17-116"/>
     <use transform="translate(464.833413 0)scale(0.996264)" xlink:href="#CMSS17-104"/>
    </g>
   </g>
  </g>
 </g>
 <defs>
  <clipPath id="pc940012d7e">
   <rect height="52.34112" width="349.92" x="60.48" y="16.776"/>
  </clipPath>
  <clipPath id="p96e8f9d7a8">
   <rect height="52.34112" width="349.92" x="60.48" y="69.11712"/>
  </clipPath>
  <clipPath id="p02582dfeba">
   <rect height="52.34112" width="349.92" x="60.48" y="121.45824"/>
  </clipPath>
  <clipPath id="peff77dff71">
   <rect height="52.34112" width="349.92" x="60.48" y="173.79936"/>
  </clipPath>
  <clipPath id="p2b98d5619d">
   <rect height="52.34112" width="349.92" x="60.48" y="226.14048"/>
  </clipPath>
 </defs>
</svg>
