<?xml version="1.0" encoding="utf-8" standalone="no"?>
<!DOCTYPE svg PUBLIC "-//W3C//DTD SVG 1.1//EN"
  "http://www.w3.org/Graphics/SVG/1.1/DTD/svg11.dtd">
<!-- Created with matplotlib (http://matplotlib.org/) -->
<svg height="335.52pt" version="1.1" viewBox="0 0 432 335.52" width="432pt" xmlns="http://www.w3.org/2000/svg" xmlns:xlink="http://www.w3.org/1999/xlink">
 <defs>
  <style type="text/css">
*{stroke-linecap:butt;stroke-linejoin:round;}
  </style>
 </defs>
 <g id="figure_1">
  <g id="patch_1">
   <path d="M 0 335.52 
L 432 335.52 
L 432 0 
L 0 0 
z
" style="fill:#ffffff;"/>
  </g>
  <g id="axes_1">
   <g id="patch_2">
    <path d="M 60.48 69.11712 
L 410.4 69.11712 
L 410.4 16.776 
L 60.48 16.776 
z
" style="fill:#ffffff;"/>
   </g>
   <g id="matplotlib.axis_1">
    <g id="xtick_1">
     <g id="line2d_1">
      <defs>
       <path d="M 0 0 
L 0 3.5 
" id="mf0c1807a68" style="stroke:#000000;stroke-width:0.8;"/>
      </defs>
      <g>
       <use style="stroke:#000000;stroke-width:0.8;" x="76.385455" xlink:href="#mf0c1807a68" y="69.11712"/>
      </g>
     </g>
    </g>
    <g id="xtick_2">
     <g id="line2d_2">
      <g>
       <use style="stroke:#000000;stroke-width:0.8;" x="116.652428" xlink:href="#mf0c1807a68" y="69.11712"/>
      </g>
     </g>
    </g>
    <g id="xtick_3">
     <g id="line2d_3">
      <g>
       <use style="stroke:#000000;stroke-width:0.8;" x="156.919402" xlink:href="#mf0c1807a68" y="69.11712"/>
      </g>
     </g>
    </g>
    <g id="xtick_4">
     <g id="line2d_4">
      <g>
       <use style="stroke:#000000;stroke-width:0.8;" x="197.186375" xlink:href="#mf0c1807a68" y="69.11712"/>
      </g>
     </g>
    </g>
    <g id="xtick_5">
     <g id="line2d_5">
      <g>
       <use style="stroke:#000000;stroke-width:0.8;" x="237.453349" xlink:href="#mf0c1807a68" y="69.11712"/>
      </g>
     </g>
    </g>
    <g id="xtick_6">
     <g id="line2d_6">
      <g>
       <use style="stroke:#000000;stroke-width:0.8;" x="277.720322" xlink:href="#mf0c1807a68" y="69.11712"/>
      </g>
     </g>
    </g>
    <g id="xtick_7">
     <g id="line2d_7">
      <g>
       <use style="stroke:#000000;stroke-width:0.8;" x="317.987296" xlink:href="#mf0c1807a68" y="69.11712"/>
      </g>
     </g>
    </g>
    <g id="xtick_8">
     <g id="line2d_8">
      <g>
       <use style="stroke:#000000;stroke-width:0.8;" x="358.254269" xlink:href="#mf0c1807a68" y="69.11712"/>
      </g>
     </g>
    </g>
    <g id="xtick_9">
     <g id="line2d_9">
      <g>
       <use style="stroke:#000000;stroke-width:0.8;" x="398.521243" xlink:href="#mf0c1807a68" y="69.11712"/>
      </g>
     </g>
    </g>
   </g>
   <g id="matplotlib.axis_2">
    <g id="ytick_1">
     <g id="line2d_10">
      <defs>
       <path d="M 0 0 
L -3.5 0 
" id="mcb3ae5c8e8" style="stroke:#000000;stroke-width:0.8;"/>
      </defs>
      <g>
       <use style="stroke:#000000;stroke-width:0.8;" x="60.48" xlink:href="#mcb3ae5c8e8" y="63.07776"/>
      </g>
     </g>
     <g id="text_1">
      <!-- -0.23 -->
      <defs>
       <path d="M 26 19 
L 26 24.796875 
L 1 24.796875 
L 1 19 
z
" id="CMSS17-45"/>
       <path d="M 43.09375 32.390625 
C 43.09375 38.109375 43 48.75 38.90625 56.984375 
C 34.796875 64.890625 28.203125 67 23.5 67 
C 16.703125 67 10.90625 62.984375 7.90625 56.578125 
C 4.703125 49.859375 3.796875 42.9375 3.796875 32.390625 
C 3.796875 25.171875 4.09375 16.34375 7.703125 8.609375 
C 11.796875 0.09375 18.703125 -2 23.40625 -2 
C 29.59375 -2 35.59375 1.296875 39 8.203125 
C 42.5 15.4375 43.09375 23.359375 43.09375 32.390625 
z
M 23.40625 4.09375 
C 15.796875 4.09375 13.5 12.828125 12.796875 15.734375 
C 11.59375 20.75 11.40625 25.5625 11.40625 33.5 
C 11.40625 39.71875 11.40625 46.75 13.296875 52.265625 
C 15.59375 58.6875 19.59375 60.890625 23.40625 60.890625 
C 30.796875 60.890625 33.203125 53.46875 34 50.859375 
C 35.5 45.546875 35.5 39.3125 35.5 33.5 
C 35.5 24.15625 35.5 4.09375 23.40625 4.09375 
z
" id="CMSS17-48"/>
       <path d="M 17 8 
L 9 8 
L 9 0 
L 17 0 
z
" id="CMSS17-46"/>
       <path d="M 25.796875 21.140625 
C 28.59375 24.03125 32.796875 27.515625 35.703125 31 
C 38.5 34.390625 42.203125 39.171875 42.203125 46.140625 
C 42.203125 57.109375 34.796875 67 22.203125 67 
C 12.296875 67 6.59375 60.796875 3.90625 51.125 
L 7.796875 45.75 
C 10 54.8125 13.09375 60.59375 20.90625 60.59375 
C 29.5 60.59375 34.296875 53.609375 34.296875 45.9375 
C 34.296875 36.78125 27.296875 29.703125 22 24.421875 
C 16.09375 18.546875 10.296875 12.578125 4.703125 6.390625 
L 4.703125 0 
L 42.203125 0 
L 42.203125 6.796875 
L 25.203125 6.796875 
C 24 6.796875 22.796875 6.6875 21.59375 6.6875 
L 11.59375 6.6875 
L 11.59375 6.796875 
z
" id="CMSS17-50"/>
       <path d="M 15.703125 32.1875 
L 22.5 32.1875 
C 31.90625 32.1875 34.59375 23.9375 34.59375 18.1875 
C 34.59375 10.34375 30.203125 4.1875 23 4.1875 
C 17.40625 4.1875 9.5 7.015625 5 14.46875 
C 4.296875 10.9375 4.296875 10.734375 3.90625 8.328125 
C 8.59375 1.390625 16.203125 -2 23.203125 -2 
C 34.59375 -2 43 7.515625 43 18.09375 
C 43 26.046875 37.5 32.6875 30 35.1875 
C 36 38.484375 40.40625 44.6875 40.40625 51.890625 
C 40.40625 60.296875 32.703125 67 23.296875 67 
C 14.703125 67 8 61.6875 5.203125 55.984375 
C 5.90625 54.984375 7.703125 52.09375 8.59375 50.59375 
C 10.796875 56.484375 16.5 60.890625 23.203125 60.890625 
C 28.796875 60.890625 32.5 57.1875 32.5 51.890625 
C 32.5 46.390625 29 40.390625 23.09375 39 
C 22.703125 39 16.5 38.390625 15.703125 38.296875 
z
" id="CMSS17-51"/>
      </defs>
      <g transform="translate(23.824925 68.059072)scale(0.144 -0.144)">
       <use transform="scale(0.996264)" xlink:href="#CMSS17-45"/>
       <use transform="translate(31.229113 0)scale(0.996264)" xlink:href="#CMSS17-48"/>
       <use transform="translate(78.072736 0)scale(0.996264)" xlink:href="#CMSS17-46"/>
       <use transform="translate(104.096941 0)scale(0.996264)" xlink:href="#CMSS17-50"/>
       <use transform="translate(150.940565 0)scale(0.996264)" xlink:href="#CMSS17-51"/>
      </g>
     </g>
    </g>
    <g id="ytick_2">
     <g id="line2d_11">
      <g>
       <use style="stroke:#000000;stroke-width:0.8;" x="60.48" xlink:href="#mcb3ae5c8e8" y="49.65696"/>
      </g>
     </g>
     <g id="text_2">
      <!-- -0.20 -->
      <g transform="translate(23.824925 54.638272)scale(0.144 -0.144)">
       <use transform="scale(0.996264)" xlink:href="#CMSS17-45"/>
       <use transform="translate(31.229113 0)scale(0.996264)" xlink:href="#CMSS17-48"/>
       <use transform="translate(78.072736 0)scale(0.996264)" xlink:href="#CMSS17-46"/>
       <use transform="translate(104.096941 0)scale(0.996264)" xlink:href="#CMSS17-50"/>
       <use transform="translate(150.940565 0)scale(0.996264)" xlink:href="#CMSS17-48"/>
      </g>
     </g>
    </g>
    <g id="ytick_3">
     <g id="line2d_12">
      <g>
       <use style="stroke:#000000;stroke-width:0.8;" x="60.48" xlink:href="#mcb3ae5c8e8" y="36.23616"/>
      </g>
     </g>
     <g id="text_3">
      <!-- -0.17 -->
      <defs>
       <path d="M 28.40625 67 
L 26.5 67 
C 21.09375 61.703125 14.796875 60.96875 8.40625 60.796875 
L 8.40625 55 
C 11.296875 55.09375 16 55.296875 20.703125 57.390625 
L 20.703125 5.796875 
L 8.90625 5.796875 
L 8.90625 0 
L 40.203125 0 
L 40.203125 5.796875 
L 28.40625 5.796875 
z
" id="CMSS17-49"/>
       <path d="M 21.703125 59.1875 
C 22.90625 59.1875 24.09375 59.296875 25.296875 59.296875 
L 36.796875 59.296875 
C 22.5 42.421875 14.296875 21.09375 14.296875 -1 
L 22.296875 -1 
C 22.296875 20.390625 29.296875 42.109375 43 59.484375 
L 43 66 
L 3.90625 66 
L 3.90625 59.1875 
z
" id="CMSS17-55"/>
      </defs>
      <g transform="translate(23.824925 41.217472)scale(0.144 -0.144)">
       <use transform="scale(0.996264)" xlink:href="#CMSS17-45"/>
       <use transform="translate(31.229113 0)scale(0.996264)" xlink:href="#CMSS17-48"/>
       <use transform="translate(78.072736 0)scale(0.996264)" xlink:href="#CMSS17-46"/>
       <use transform="translate(104.096941 0)scale(0.996264)" xlink:href="#CMSS17-49"/>
       <use transform="translate(150.940565 0)scale(0.996264)" xlink:href="#CMSS17-55"/>
      </g>
     </g>
    </g>
    <g id="ytick_4">
     <g id="line2d_13">
      <g>
       <use style="stroke:#000000;stroke-width:0.8;" x="60.48" xlink:href="#mcb3ae5c8e8" y="22.81536"/>
      </g>
     </g>
     <g id="text_4">
      <!-- -0.13 -->
      <g transform="translate(23.824925 27.796672)scale(0.144 -0.144)">
       <use transform="scale(0.996264)" xlink:href="#CMSS17-45"/>
       <use transform="translate(31.229113 0)scale(0.996264)" xlink:href="#CMSS17-48"/>
       <use transform="translate(78.072736 0)scale(0.996264)" xlink:href="#CMSS17-46"/>
       <use transform="translate(104.096941 0)scale(0.996264)" xlink:href="#CMSS17-49"/>
       <use transform="translate(150.940565 0)scale(0.996264)" xlink:href="#CMSS17-51"/>
      </g>
     </g>
    </g>
    <g id="text_5">
     <!-- $s_{1}$ -->
     <defs>
      <path d="M 22.796875 20.15625 
C 24.5 19.859375 27.203125 19.265625 27.796875 19.171875 
C 29.09375 18.765625 33.59375 17.171875 33.59375 12.390625 
C 33.59375 9.296875 30.796875 1 19.203125 1 
C 17.09375 1 9.59375 1.296875 7.59375 6.984375 
C 11.59375 6.46875 13.59375 9.59375 13.59375 11.796875 
C 13.59375 13.890625 12.203125 15 10.203125 15 
C 8 15 5.09375 13.296875 5.09375 8.796875 
C 5.09375 2.75 11.09375 -1 19.09375 -1 
C 34.296875 -1 38.796875 10.390625 38.796875 15.59375 
C 38.796875 17.078125 38.796875 19.859375 35.59375 23.046875 
C 33.09375 25.421875 30.703125 25.921875 25.296875 27.015625 
C 22.59375 27.609375 18.296875 28.5 18.296875 32.984375 
C 18.296875 34.984375 20.09375 41.984375 29.59375 41.984375 
C 33.796875 41.984375 37.90625 40.453125 38.90625 37 
C 34.5 37 34.296875 33.1875 34.296875 33.09375 
C 34.296875 30.984375 36.203125 30.390625 37.09375 30.390625 
C 38.5 30.390625 41.296875 31.484375 41.296875 35.6875 
C 41.296875 39.78125 37.5 44 29.703125 44 
C 16.59375 44 13.09375 33.890625 13.09375 29.796875 
C 13.09375 22.25 20.5 20.65625 22.796875 20.15625 
z
" id="CMMI12-115"/>
      <path d="M 26.59375 63.796875 
C 26.59375 65.890625 26.5 66 25.09375 66 
C 21.203125 61.359375 15.296875 59.890625 9.703125 59.6875 
C 9.40625 59.6875 8.90625 59.6875 8.796875 59.5 
C 8.703125 59.296875 8.703125 59.09375 8.703125 57 
C 11.796875 57 17 57.59375 21 59.984375 
L 21 7.296875 
C 21 3.796875 20.796875 2.59375 12.203125 2.59375 
L 9.203125 2.59375 
L 9.203125 0 
C 14 0.09375 19 0.1875 23.796875 0.1875 
C 28.59375 0.1875 33.59375 0.09375 38.40625 0 
L 38.40625 2.59375 
L 35.40625 2.59375 
C 26.796875 2.59375 26.59375 3.6875 26.59375 7.296875 
z
" id="CMR17-49"/>
     </defs>
     <g transform="translate(17.035398 48.74563)rotate(-90)scale(0.144 -0.144)">
      <use transform="translate(0 14.943915)scale(0.996264)" xlink:href="#CMMI12-115"/>
      <use transform="translate(45.950048 0)scale(0.697382)" xlink:href="#CMR17-49"/>
     </g>
    </g>
   </g>
   <g id="line2d_14">
    <path clip-path="url(#p0ecc026515)" d="M 76.385455 63.07776 
L 80.412152 63.07776 
L 84.438849 63.07776 
L 88.465547 63.07776 
L 92.492244 63.07776 
L 96.518941 63.07776 
L 100.545639 62.977892 
L 104.572336 62.977892 
L 108.599033 62.977892 
L 112.625731 62.977892 
L 116.652428 52.362386 
L 120.679125 62.887636 
L 124.705823 52.286045 
L 128.73252 52.286045 
L 132.759217 52.256648 
L 136.785915 52.256648 
L 140.812612 52.256648 
L 144.83931 52.329487 
L 148.866007 52.329487 
L 152.892704 52.585483 
L 156.919402 45.787089 
L 160.946099 45.787089 
L 164.972796 46.343536 
L 168.999494 46.343536 
L 173.026191 47.300461 
L 177.052888 47.300461 
L 181.079586 48.746899 
L 185.106283 44.527096 
L 189.13298 44.527096 
L 193.159678 46.404545 
L 197.186375 46.404545 
L 201.213072 43.895108 
L 205.23977 48.308807 
L 209.266467 45.777335 
L 213.293165 48.940858 
L 217.319862 46.349239 
L 221.346559 44.932733 
L 225.373257 44.932733 
L 229.399954 42.187015 
L 233.426651 40.71609 
L 237.453349 40.71609 
L 241.480046 40.006861 
L 245.506743 40.006861 
L 249.533441 40.006861 
L 253.560138 23.567086 
L 257.586835 22.81536 
L 261.613533 22.81536 
L 265.64023 22.81536 
L 269.666928 22.81536 
L 273.693625 22.81536 
L 277.720322 22.81536 
L 281.74702 39.71706 
L 285.773717 39.71706 
L 289.800414 39.71706 
L 293.827112 39.71706 
L 297.853809 39.742021 
L 301.880506 39.742021 
L 305.907204 39.742021 
L 309.933901 43.928658 
L 313.960598 43.928658 
L 317.987296 43.928658 
L 322.013993 43.968687 
L 326.04069 43.398293 
L 330.067388 43.343469 
L 334.094085 43.400046 
L 338.120783 41.459508 
L 342.14748 41.417527 
L 346.174177 41.417527 
L 350.200875 39.519473 
L 354.227572 39.487221 
L 358.254269 39.487221 
L 362.280967 38.005949 
L 366.307664 37.980613 
L 370.334361 37.980613 
L 374.361059 38.07466 
L 378.387756 36.955833 
L 382.414453 37.056813 
L 386.441151 37.056813 
L 390.467848 36.336817 
L 394.494545 36.442417 
" style="fill:none;stroke:#1f77b4;stroke-linecap:square;stroke-width:1.5;"/>
   </g>
   <g id="line2d_15">
    <path clip-path="url(#p0ecc026515)" d="M 76.385455 61.198729 
L 80.412152 61.196946 
L 84.438849 61.100969 
L 88.465547 60.91111 
L 92.492244 60.628717 
L 96.518941 60.256171 
L 100.545639 59.796886 
L 104.572336 59.25531 
L 108.599033 58.63688 
L 112.625731 57.948023 
L 116.652428 57.19612 
L 120.679125 56.38948 
L 124.705823 55.537326 
L 128.73252 54.649782 
L 132.759217 53.737865 
L 136.785915 52.813469 
L 140.812612 51.889385 
L 144.83931 50.979228 
L 148.866007 50.097394 
L 152.892704 49.258917 
L 156.919402 48.479218 
L 160.946099 47.773741 
L 164.972796 47.157414 
L 168.999494 46.643886 
L 173.026191 46.244567 
L 177.052888 45.967429 
L 181.079586 45.815599 
L 185.106283 45.785865 
L 189.13298 45.867125 
L 193.159678 46.039034 
L 197.186375 46.271036 
L 201.213072 46.5221 
L 205.23977 46.741443 
L 209.266467 46.870596 
L 213.293165 46.847014 
L 217.319862 46.609325 
L 221.346559 46.104031 
L 225.373257 45.293109 
L 229.399954 44.161608 
L 233.426651 42.723995 
L 237.453349 41.027916 
L 241.480046 39.154145 
L 245.506743 37.212004 
L 249.533441 35.330292 
L 253.560138 33.644582 
L 257.586835 32.2825 
L 261.613533 31.349095 
L 265.64023 30.914535 
L 269.666928 31.00599 
L 273.693625 31.604916 
L 277.720322 32.650079 
L 281.74702 34.045651 
L 285.773717 35.672982 
L 289.800414 37.40414 
L 293.827112 39.115232 
L 297.853809 40.697728 
L 301.880506 42.066512 
L 305.907204 43.164203 
L 309.933901 43.961678 
L 313.960598 44.455557 
L 317.987296 44.663539 
L 322.013993 44.618649 
L 326.04069 44.363343 
L 330.067388 43.944165 
L 334.094085 43.407407 
L 338.120783 42.795909 
L 342.14748 42.147032 
L 346.174177 41.491613 
L 350.200875 40.853723 
L 354.227572 40.250988 
L 358.254269 39.695286 
L 362.280967 39.193634 
L 366.307664 38.74915 
L 370.334361 38.361973 
L 374.361059 38.030124 
L 378.387756 37.750224 
L 382.414453 37.518098 
L 386.441151 37.329248 
L 390.467848 37.179205 
L 394.494545 37.063784 
" style="fill:none;stroke:#ff7f0e;stroke-linecap:square;stroke-width:1.5;"/>
   </g>
   <g id="patch_3">
    <path d="M 60.48 69.11712 
L 60.48 16.776 
" style="fill:none;stroke:#000000;stroke-linecap:square;stroke-linejoin:miter;stroke-width:0.8;"/>
   </g>
   <g id="patch_4">
    <path d="M 410.4 69.11712 
L 410.4 16.776 
" style="fill:none;stroke:#000000;stroke-linecap:square;stroke-linejoin:miter;stroke-width:0.8;"/>
   </g>
   <g id="patch_5">
    <path d="M 60.48 69.11712 
L 410.4 69.11712 
" style="fill:none;stroke:#000000;stroke-linecap:square;stroke-linejoin:miter;stroke-width:0.8;"/>
   </g>
   <g id="patch_6">
    <path d="M 60.48 16.776 
L 410.4 16.776 
" style="fill:none;stroke:#000000;stroke-linecap:square;stroke-linejoin:miter;stroke-width:0.8;"/>
   </g>
  </g>
  <g id="axes_2">
   <g id="patch_7">
    <path d="M 60.48 121.45824 
L 410.4 121.45824 
L 410.4 69.11712 
L 60.48 69.11712 
z
" style="fill:#ffffff;"/>
   </g>
   <g id="matplotlib.axis_3">
    <g id="xtick_10">
     <g id="line2d_16">
      <g>
       <use style="stroke:#000000;stroke-width:0.8;" x="76.385455" xlink:href="#mf0c1807a68" y="121.45824"/>
      </g>
     </g>
    </g>
    <g id="xtick_11">
     <g id="line2d_17">
      <g>
       <use style="stroke:#000000;stroke-width:0.8;" x="116.652428" xlink:href="#mf0c1807a68" y="121.45824"/>
      </g>
     </g>
    </g>
    <g id="xtick_12">
     <g id="line2d_18">
      <g>
       <use style="stroke:#000000;stroke-width:0.8;" x="156.919402" xlink:href="#mf0c1807a68" y="121.45824"/>
      </g>
     </g>
    </g>
    <g id="xtick_13">
     <g id="line2d_19">
      <g>
       <use style="stroke:#000000;stroke-width:0.8;" x="197.186375" xlink:href="#mf0c1807a68" y="121.45824"/>
      </g>
     </g>
    </g>
    <g id="xtick_14">
     <g id="line2d_20">
      <g>
       <use style="stroke:#000000;stroke-width:0.8;" x="237.453349" xlink:href="#mf0c1807a68" y="121.45824"/>
      </g>
     </g>
    </g>
    <g id="xtick_15">
     <g id="line2d_21">
      <g>
       <use style="stroke:#000000;stroke-width:0.8;" x="277.720322" xlink:href="#mf0c1807a68" y="121.45824"/>
      </g>
     </g>
    </g>
    <g id="xtick_16">
     <g id="line2d_22">
      <g>
       <use style="stroke:#000000;stroke-width:0.8;" x="317.987296" xlink:href="#mf0c1807a68" y="121.45824"/>
      </g>
     </g>
    </g>
    <g id="xtick_17">
     <g id="line2d_23">
      <g>
       <use style="stroke:#000000;stroke-width:0.8;" x="358.254269" xlink:href="#mf0c1807a68" y="121.45824"/>
      </g>
     </g>
    </g>
    <g id="xtick_18">
     <g id="line2d_24">
      <g>
       <use style="stroke:#000000;stroke-width:0.8;" x="398.521243" xlink:href="#mf0c1807a68" y="121.45824"/>
      </g>
     </g>
    </g>
   </g>
   <g id="matplotlib.axis_4">
    <g id="ytick_5">
     <g id="line2d_25">
      <g>
       <use style="stroke:#000000;stroke-width:0.8;" x="60.48" xlink:href="#mcb3ae5c8e8" y="115.41888"/>
      </g>
     </g>
     <g id="text_6">
      <!-- 0.36 -->
      <defs>
       <path d="M 39 64.984375 
C 34.796875 66.6875 31.796875 67 29 67 
C 16 67 3.90625 53.25 3.90625 31.609375 
C 3.90625 4.1875 15.40625 -2 23.59375 -2 
C 28.09375 -2 32.59375 -0.609375 36.90625 4.390625 
C 41.296875 9.671875 43 14.0625 43 21.75 
C 43 34.109375 36.90625 45.09375 27.796875 45.09375 
C 21.203125 45.09375 15.5 41.59375 12 37.203125 
C 13 51.40625 19.59375 60.890625 29.09375 60.890625 
C 31.703125 60.890625 35.09375 60.484375 39 58.75 
z
M 12.09375 21.4375 
C 12.09375 22.234375 12.09375 22.734375 12.203125 24.234375 
C 12.203125 32.015625 16.703125 39 24 39 
C 28.703125 39 31.09375 36.5 32.90625 33.40625 
C 35 29.515625 35.09375 25.828125 35.09375 21.75 
C 35.09375 17.859375 35.09375 13.96875 32.796875 9.96875 
C 30.90625 6.890625 28.40625 4.1875 23.59375 4.1875 
C 14.09375 4.1875 12.5 17.453125 12.09375 21.4375 
z
" id="CMSS17-54"/>
      </defs>
      <g transform="translate(28.507302 120.400192)scale(0.144 -0.144)">
       <use transform="scale(0.996264)" xlink:href="#CMSS17-48"/>
       <use transform="translate(46.843624 0)scale(0.996264)" xlink:href="#CMSS17-46"/>
       <use transform="translate(72.867828 0)scale(0.996264)" xlink:href="#CMSS17-51"/>
       <use transform="translate(119.711452 0)scale(0.996264)" xlink:href="#CMSS17-54"/>
      </g>
     </g>
    </g>
    <g id="ytick_6">
     <g id="line2d_26">
      <g>
       <use style="stroke:#000000;stroke-width:0.8;" x="60.48" xlink:href="#mcb3ae5c8e8" y="101.99808"/>
      </g>
     </g>
     <g id="text_7">
      <!-- 0.84 -->
      <defs>
       <path d="M 30.203125 35.09375 
C 37.796875 37.59375 41.703125 43.640625 41.703125 49.59375 
C 41.703125 58.96875 33.703125 67 23.5 67 
C 12.90625 67 5.203125 58.671875 5.203125 49.59375 
C 5.203125 43.734375 9 37.6875 16.703125 35.09375 
C 6.90625 31.296875 3.90625 23.6875 3.90625 18 
C 3.90625 7 12.796875 -2 23.40625 -2 
C 34.40625 -2 43 7.1875 43 18 
C 43 24.59375 39.09375 31.59375 30.203125 35.09375 
z
M 23.5 38.09375 
C 16.796875 38.09375 12.296875 42.625 12.296875 49.484375 
C 12.296875 56.453125 16.796875 60.890625 23.5 60.890625 
C 29.703125 60.890625 34.59375 56.859375 34.59375 49.484375 
C 34.59375 42.234375 29.796875 38.09375 23.5 38.09375 
z
M 23.5 4.1875 
C 17.796875 4.1875 11.703125 8.09375 11.703125 18.09375 
C 11.703125 28.390625 18.5 32 23.40625 32 
C 28.796875 32 35.203125 28.1875 35.203125 18.09375 
C 35.203125 7.6875 28.59375 4.1875 23.5 4.1875 
z
" id="CMSS17-56"/>
       <path d="M 35.203125 17 
L 44.296875 17 
L 44.296875 23.09375 
L 35.203125 23.09375 
L 35.203125 66 
L 26.40625 66 
L 2.59375 23.09375 
L 2.59375 17 
L 27.296875 17 
L 27.296875 0 
L 35.203125 0 
z
M 10.296875 23.09375 
C 16.09375 33.421875 27.59375 54.28125 27.59375 61.359375 
L 27.59375 23.09375 
z
" id="CMSS17-52"/>
      </defs>
      <g transform="translate(28.507302 106.979392)scale(0.144 -0.144)">
       <use transform="scale(0.996264)" xlink:href="#CMSS17-48"/>
       <use transform="translate(46.843624 0)scale(0.996264)" xlink:href="#CMSS17-46"/>
       <use transform="translate(72.867828 0)scale(0.996264)" xlink:href="#CMSS17-56"/>
       <use transform="translate(119.711452 0)scale(0.996264)" xlink:href="#CMSS17-52"/>
      </g>
     </g>
    </g>
    <g id="ytick_7">
     <g id="line2d_27">
      <g>
       <use style="stroke:#000000;stroke-width:0.8;" x="60.48" xlink:href="#mcb3ae5c8e8" y="88.57728"/>
      </g>
     </g>
     <g id="text_8">
      <!-- 1.31 -->
      <g transform="translate(28.507302 93.558592)scale(0.144 -0.144)">
       <use transform="scale(0.996264)" xlink:href="#CMSS17-49"/>
       <use transform="translate(46.843624 0)scale(0.996264)" xlink:href="#CMSS17-46"/>
       <use transform="translate(72.867828 0)scale(0.996264)" xlink:href="#CMSS17-51"/>
       <use transform="translate(119.711452 0)scale(0.996264)" xlink:href="#CMSS17-49"/>
      </g>
     </g>
    </g>
    <g id="ytick_8">
     <g id="line2d_28">
      <g>
       <use style="stroke:#000000;stroke-width:0.8;" x="60.48" xlink:href="#mcb3ae5c8e8" y="75.15648"/>
      </g>
     </g>
     <g id="text_9">
      <!-- 1.79 -->
      <defs>
       <path d="M 6.796875 2.6875 
C 9.59375 0.296875 13.203125 -2 19.296875 -2 
C 31.40625 -2 43 11.53125 43 33.375 
C 43 62.296875 30.5 67 23.796875 67 
C 17.09375 67 12.796875 63.984375 9.09375 59.203125 
C 4.703125 53.71875 3.90625 48.828125 3.90625 43.140625 
C 3.90625 36.359375 5.09375 32.171875 7.90625 27.390625 
C 11.703125 21.1875 15.203125 19.890625 19.09375 19.890625 
C 25 19.890625 30.90625 22.796875 34.90625 27.78125 
C 34.203125 14.1875 28.09375 4.1875 19.296875 4.1875 
C 15.703125 4.1875 12.796875 5.3125 9.90625 8.0625 
z
M 34.59375 43.34375 
C 34.703125 42.640625 34.703125 41.34375 34.703125 40.953125 
C 34.703125 32.578125 29.90625 26 22.90625 26 
C 18.296875 26 15.90625 28.390625 14.09375 31.484375 
C 11.90625 35.359375 11.796875 39.15625 11.796875 43.140625 
C 11.796875 47.03125 11.796875 51.3125 14.59375 55.609375 
C 16.703125 58.703125 19.296875 60.890625 23.796875 60.890625 
C 33 60.890625 34.5 47.4375 34.59375 43.34375 
z
" id="CMSS17-57"/>
      </defs>
      <g transform="translate(28.507302 80.137792)scale(0.144 -0.144)">
       <use transform="scale(0.996264)" xlink:href="#CMSS17-49"/>
       <use transform="translate(46.843624 0)scale(0.996264)" xlink:href="#CMSS17-46"/>
       <use transform="translate(72.867828 0)scale(0.996264)" xlink:href="#CMSS17-55"/>
       <use transform="translate(119.711452 0)scale(0.996264)" xlink:href="#CMSS17-57"/>
      </g>
     </g>
    </g>
    <g id="text_10">
     <!-- $s_{25}$ -->
     <defs>
      <path d="M 41.703125 15.46875 
L 39.90625 15.46875 
C 38.90625 8.390625 38.09375 7.1875 37.703125 6.59375 
C 37.203125 5.796875 30 5.796875 28.59375 5.796875 
L 9.40625 5.796875 
C 13 9.6875 20 16.765625 28.5 24.9375 
C 34.59375 30.71875 41.703125 37.5 41.703125 47.390625 
C 41.703125 59.1875 32.296875 66 21.796875 66 
C 10.796875 66 4.09375 56.296875 4.09375 47.296875 
C 4.09375 43.390625 7 42.890625 8.203125 42.890625 
C 9.203125 42.890625 12.203125 43.484375 12.203125 46.984375 
C 12.203125 50.09375 9.59375 51 8.203125 51 
C 7.59375 51 7 50.890625 6.59375 50.6875 
C 8.5 59.1875 14.296875 63.390625 20.40625 63.390625 
C 29.09375 63.390625 34.796875 56.5 34.796875 47.390625 
C 34.796875 38.703125 29.703125 31.21875 24 24.734375 
L 4.09375 2.296875 
L 4.09375 0 
L 39.296875 0 
z
" id="CMR17-50"/>
      <path d="M 11.40625 58.59375 
C 12.40625 58.1875 16.5 56.890625 20.703125 56.890625 
C 30 56.890625 35.09375 61.890625 38 64.6875 
C 38 65.484375 38 66 37.40625 66 
C 37.296875 66 37.09375 66 36.296875 65.59375 
C 32.796875 64.09375 28.703125 63 23.703125 63 
C 20.703125 63 16.203125 63.359375 11.296875 65.484375 
C 10.203125 66 10 66 9.90625 66 
C 9.40625 66 9.296875 65.890625 9.296875 63.90625 
L 9.296875 34.859375 
C 9.296875 33.015625 9.296875 32.5 10.296875 32.5 
C 10.796875 32.5 11 32.703125 11.5 33.421875 
C 14.703125 38.046875 19.09375 40 24.09375 40 
C 27.59375 40 35.09375 37.734375 35.09375 20.203125 
C 35.09375 16.984375 35.09375 11.1875 32.09375 6.59375 
C 29.59375 2.484375 25.703125 0.390625 21.40625 0.390625 
C 14.796875 0.390625 8.09375 4.984375 6.296875 12.6875 
C 6.703125 12.59375 7.5 12.390625 7.90625 12.390625 
C 9.203125 12.390625 11.703125 13.09375 11.703125 16.1875 
C 11.703125 18.890625 9.796875 20 7.90625 20 
C 5.59375 20 4.09375 18.59375 4.09375 15.796875 
C 4.09375 7.09375 11 -2 21.59375 -2 
C 31.90625 -2 41.703125 6.890625 41.703125 19.796875 
C 41.703125 32.09375 33.90625 41.59375 24.203125 41.59375 
C 19.09375 41.59375 14.796875 39.6875 11.40625 36 
z
" id="CMR17-53"/>
     </defs>
     <g transform="translate(21.717775 103.577417)rotate(-90)scale(0.144 -0.144)">
      <use transform="translate(0 14.943915)scale(0.996264)" xlink:href="#CMMI12-115"/>
      <use transform="translate(45.950048 0)scale(0.697382)" xlink:href="#CMR17-50"/>
      <use transform="translate(77.93323 0)scale(0.697382)" xlink:href="#CMR17-53"/>
     </g>
    </g>
   </g>
   <g id="line2d_29">
    <path clip-path="url(#pa3ecfd4635)" d="M 76.385455 75.821697 
L 80.412152 75.821697 
L 84.438849 75.821697 
L 88.465547 75.821697 
L 92.492244 75.821697 
L 96.518941 75.821697 
L 100.545639 75.51586 
L 104.572336 75.51586 
L 108.599033 75.51586 
L 112.625731 75.51586 
L 116.652428 80.075705 
L 120.679125 75.15648 
L 124.705823 79.751363 
L 128.73252 79.751363 
L 132.759217 79.377642 
L 136.785915 79.377642 
L 140.812612 79.377642 
L 144.83931 78.95697 
L 148.866007 78.95697 
L 152.892704 78.500412 
L 156.919402 82.053736 
L 160.946099 82.053736 
L 164.972796 81.649948 
L 168.999494 81.649948 
L 173.026191 81.311808 
L 177.052888 81.311808 
L 181.079586 81.164051 
L 185.106283 84.00955 
L 189.13298 84.00955 
L 193.159678 84.386281 
L 197.186375 84.386281 
L 201.213072 86.616472 
L 205.23977 85.693755 
L 209.266467 88.011816 
L 213.293165 88.856509 
L 217.319862 91.28272 
L 221.346559 93.147663 
L 225.373257 93.147663 
L 229.399954 98.176974 
L 233.426651 100.144792 
L 237.453349 100.144792 
L 241.480046 101.671587 
L 245.506743 101.671587 
L 249.533441 101.671587 
L 253.560138 113.798702 
L 257.586835 115.41888 
L 261.613533 115.41888 
L 265.64023 115.41888 
L 269.666928 115.41888 
L 273.693625 115.41888 
L 277.720322 115.41888 
L 281.74702 103.803708 
L 285.773717 103.803708 
L 289.800414 103.803708 
L 293.827112 103.803708 
L 297.853809 102.865092 
L 301.880506 102.865092 
L 305.907204 102.865092 
L 309.933901 96.610963 
L 313.960598 96.610963 
L 317.987296 96.610963 
L 322.013993 95.723263 
L 326.04069 93.755437 
L 330.067388 93.089776 
L 334.094085 92.245542 
L 338.120783 92.123973 
L 342.14748 91.48775 
L 346.174177 91.48775 
L 350.200875 91.481962 
L 354.227572 90.870104 
L 358.254269 90.870104 
L 362.280967 91.339955 
L 366.307664 90.748124 
L 370.334361 90.748124 
L 374.361059 89.994727 
L 378.387756 90.866171 
L 382.414453 90.13293 
L 386.441151 90.13293 
L 390.467848 91.090078 
L 394.494545 90.373319 
" style="fill:none;stroke:#1f77b4;stroke-linecap:square;stroke-width:1.5;"/>
   </g>
   <g id="line2d_30">
    <path clip-path="url(#pa3ecfd4635)" d="M 76.385455 76.598301 
L 80.412152 76.590043 
L 84.438849 76.611662 
L 88.465547 76.663022 
L 92.492244 76.743641 
L 96.518941 76.852691 
L 100.545639 76.989012 
L 104.572336 77.151118 
L 108.599033 77.337239 
L 112.625731 77.545332 
L 116.652428 77.773136 
L 120.679125 78.018216 
L 124.705823 78.278029 
L 128.73252 78.549991 
L 132.759217 78.831567 
L 136.785915 79.120372 
L 140.812612 79.414276 
L 144.83931 79.71155 
L 148.866007 80.011005 
L 152.892704 80.312165 
L 156.919402 80.615465 
L 160.946099 80.922458 
L 164.972796 81.236042 
L 168.999494 81.560725 
L 173.026191 81.902861 
L 177.052888 82.270897 
L 181.079586 82.675589 
L 185.106283 83.130116 
L 189.13298 83.650101 
L 193.159678 84.253416 
L 197.186375 84.959733 
L 201.213072 85.78969 
L 205.23977 86.76366 
L 209.266467 87.899997 
L 213.293165 89.212839 
L 217.319862 90.709531 
L 221.346559 92.387912 
L 225.373257 94.233828 
L 229.399954 96.219288 
L 233.426651 98.30179 
L 237.453349 100.425134 
L 241.480046 102.52194 
L 245.506743 104.51775 
L 249.533441 106.336261 
L 253.560138 107.90508 
L 257.586835 109.161286 
L 261.613533 110.056195 
L 265.64023 110.55885 
L 269.666928 110.658016 
L 273.693625 110.362645 
L 277.720322 109.700797 
L 281.74702 108.717197 
L 285.773717 107.469597 
L 289.800414 106.024271 
L 293.827112 104.451005 
L 297.853809 102.818153 
L 301.880506 101.188262 
L 305.907204 99.614641 
L 309.933901 98.139278 
L 313.960598 96.792041 
L 317.987296 95.591078 
L 322.013993 94.544136 
L 326.04069 93.650404 
L 330.067388 92.902591 
L 334.094085 92.28895 
L 338.120783 91.795056 
L 342.14748 91.405277 
L 346.174177 91.103875 
L 350.200875 90.87578 
L 354.227572 90.707083 
L 358.254269 90.585305 
L 362.280967 90.499493 
L 366.307664 90.440205 
L 370.334361 90.399423 
L 374.361059 90.370413 
L 378.387756 90.347578 
L 382.414453 90.326303 
L 386.441151 90.302795 
L 390.467848 90.273958 
L 394.494545 90.23726 
" style="fill:none;stroke:#ff7f0e;stroke-linecap:square;stroke-width:1.5;"/>
   </g>
   <g id="patch_8">
    <path d="M 60.48 121.45824 
L 60.48 69.11712 
" style="fill:none;stroke:#000000;stroke-linecap:square;stroke-linejoin:miter;stroke-width:0.8;"/>
   </g>
   <g id="patch_9">
    <path d="M 410.4 121.45824 
L 410.4 69.11712 
" style="fill:none;stroke:#000000;stroke-linecap:square;stroke-linejoin:miter;stroke-width:0.8;"/>
   </g>
   <g id="patch_10">
    <path d="M 60.48 121.45824 
L 410.4 121.45824 
" style="fill:none;stroke:#000000;stroke-linecap:square;stroke-linejoin:miter;stroke-width:0.8;"/>
   </g>
   <g id="patch_11">
    <path d="M 60.48 69.11712 
L 410.4 69.11712 
" style="fill:none;stroke:#000000;stroke-linecap:square;stroke-linejoin:miter;stroke-width:0.8;"/>
   </g>
  </g>
  <g id="axes_3">
   <g id="patch_12">
    <path d="M 60.48 173.79936 
L 410.4 173.79936 
L 410.4 121.45824 
L 60.48 121.45824 
z
" style="fill:#ffffff;"/>
   </g>
   <g id="matplotlib.axis_5">
    <g id="xtick_19">
     <g id="line2d_31">
      <g>
       <use style="stroke:#000000;stroke-width:0.8;" x="76.385455" xlink:href="#mf0c1807a68" y="173.79936"/>
      </g>
     </g>
    </g>
    <g id="xtick_20">
     <g id="line2d_32">
      <g>
       <use style="stroke:#000000;stroke-width:0.8;" x="116.652428" xlink:href="#mf0c1807a68" y="173.79936"/>
      </g>
     </g>
    </g>
    <g id="xtick_21">
     <g id="line2d_33">
      <g>
       <use style="stroke:#000000;stroke-width:0.8;" x="156.919402" xlink:href="#mf0c1807a68" y="173.79936"/>
      </g>
     </g>
    </g>
    <g id="xtick_22">
     <g id="line2d_34">
      <g>
       <use style="stroke:#000000;stroke-width:0.8;" x="197.186375" xlink:href="#mf0c1807a68" y="173.79936"/>
      </g>
     </g>
    </g>
    <g id="xtick_23">
     <g id="line2d_35">
      <g>
       <use style="stroke:#000000;stroke-width:0.8;" x="237.453349" xlink:href="#mf0c1807a68" y="173.79936"/>
      </g>
     </g>
    </g>
    <g id="xtick_24">
     <g id="line2d_36">
      <g>
       <use style="stroke:#000000;stroke-width:0.8;" x="277.720322" xlink:href="#mf0c1807a68" y="173.79936"/>
      </g>
     </g>
    </g>
    <g id="xtick_25">
     <g id="line2d_37">
      <g>
       <use style="stroke:#000000;stroke-width:0.8;" x="317.987296" xlink:href="#mf0c1807a68" y="173.79936"/>
      </g>
     </g>
    </g>
    <g id="xtick_26">
     <g id="line2d_38">
      <g>
       <use style="stroke:#000000;stroke-width:0.8;" x="358.254269" xlink:href="#mf0c1807a68" y="173.79936"/>
      </g>
     </g>
    </g>
    <g id="xtick_27">
     <g id="line2d_39">
      <g>
       <use style="stroke:#000000;stroke-width:0.8;" x="398.521243" xlink:href="#mf0c1807a68" y="173.79936"/>
      </g>
     </g>
    </g>
   </g>
   <g id="matplotlib.axis_6">
    <g id="ytick_9">
     <g id="line2d_40">
      <g>
       <use style="stroke:#000000;stroke-width:0.8;" x="60.48" xlink:href="#mcb3ae5c8e8" y="167.76"/>
      </g>
     </g>
     <g id="text_11">
      <!-- 0.60 -->
      <g transform="translate(28.507302 172.741312)scale(0.144 -0.144)">
       <use transform="scale(0.996264)" xlink:href="#CMSS17-48"/>
       <use transform="translate(46.843624 0)scale(0.996264)" xlink:href="#CMSS17-46"/>
       <use transform="translate(72.867828 0)scale(0.996264)" xlink:href="#CMSS17-54"/>
       <use transform="translate(119.711452 0)scale(0.996264)" xlink:href="#CMSS17-48"/>
      </g>
     </g>
    </g>
    <g id="ytick_10">
     <g id="line2d_41">
      <g>
       <use style="stroke:#000000;stroke-width:0.8;" x="60.48" xlink:href="#mcb3ae5c8e8" y="154.3392"/>
      </g>
     </g>
     <g id="text_12">
      <!-- 0.65 -->
      <defs>
       <path d="M 14.59375 59.59375 
L 39.09375 59.59375 
L 39.09375 66 
L 7.296875 66 
L 7.296875 28.59375 
L 14 28.59375 
C 15.796875 32.859375 19.5 36 24.296875 36 
C 28.796875 36 33.796875 31.9375 33.796875 20.296875 
C 33.796875 7.84375 26.703125 4.1875 21.5 4.1875 
C 15.09375 4.1875 9.203125 8.140625 6.59375 13.609375 
L 3.40625 7.9375 
C 8 0.796875 15.5 -2 21.5 -2 
C 33.09375 -2 42.203125 7.9375 42.203125 20.09375 
C 42.203125 32.546875 34.09375 42.09375 24.40625 42.09375 
C 20.90625 42.09375 17.5 40.890625 14.59375 38.5 
z
" id="CMSS17-53"/>
      </defs>
      <g transform="translate(28.507302 159.320512)scale(0.144 -0.144)">
       <use transform="scale(0.996264)" xlink:href="#CMSS17-48"/>
       <use transform="translate(46.843624 0)scale(0.996264)" xlink:href="#CMSS17-46"/>
       <use transform="translate(72.867828 0)scale(0.996264)" xlink:href="#CMSS17-54"/>
       <use transform="translate(119.711452 0)scale(0.996264)" xlink:href="#CMSS17-53"/>
      </g>
     </g>
    </g>
    <g id="ytick_11">
     <g id="line2d_42">
      <g>
       <use style="stroke:#000000;stroke-width:0.8;" x="60.48" xlink:href="#mcb3ae5c8e8" y="140.9184"/>
      </g>
     </g>
     <g id="text_13">
      <!-- 0.70 -->
      <g transform="translate(28.507302 145.899712)scale(0.144 -0.144)">
       <use transform="scale(0.996264)" xlink:href="#CMSS17-48"/>
       <use transform="translate(46.843624 0)scale(0.996264)" xlink:href="#CMSS17-46"/>
       <use transform="translate(72.867828 0)scale(0.996264)" xlink:href="#CMSS17-55"/>
       <use transform="translate(119.711452 0)scale(0.996264)" xlink:href="#CMSS17-48"/>
      </g>
     </g>
    </g>
    <g id="ytick_12">
     <g id="line2d_43">
      <g>
       <use style="stroke:#000000;stroke-width:0.8;" x="60.48" xlink:href="#mcb3ae5c8e8" y="127.4976"/>
      </g>
     </g>
     <g id="text_14">
      <!-- 0.75 -->
      <g transform="translate(28.507302 132.478912)scale(0.144 -0.144)">
       <use transform="scale(0.996264)" xlink:href="#CMSS17-48"/>
       <use transform="translate(46.843624 0)scale(0.996264)" xlink:href="#CMSS17-46"/>
       <use transform="translate(72.867828 0)scale(0.996264)" xlink:href="#CMSS17-55"/>
       <use transform="translate(119.711452 0)scale(0.996264)" xlink:href="#CMSS17-53"/>
      </g>
     </g>
    </g>
    <g id="text_15">
     <!-- $s_{50}$ -->
     <defs>
      <path d="M 42 31.84375 
C 42 37.96875 41.90625 48.421875 37.703125 56.453125 
C 34 63.484375 28.09375 66 22.90625 66 
C 18.09375 66 12 63.78125 8.203125 56.5625 
C 4.203125 49.015625 3.796875 39.671875 3.796875 31.84375 
C 3.796875 26.109375 3.90625 17.375 7 9.734375 
C 11.296875 -0.609375 19 -2 22.90625 -2 
C 27.5 -2 34.5 -0.109375 38.59375 9.4375 
C 41.59375 16.375 42 24.5 42 31.84375 
z
M 22.90625 -0.40625 
C 16.5 -0.40625 12.703125 5.125 11.296875 12.75 
C 10.203125 18.6875 10.203125 27.328125 10.203125 32.953125 
C 10.203125 40.6875 10.203125 47.109375 11.5 53.234375 
C 13.40625 61.78125 19 64.390625 22.90625 64.390625 
C 27 64.390625 32.296875 61.671875 34.203125 53.4375 
C 35.5 47.71875 35.59375 40.984375 35.59375 32.953125 
C 35.59375 26.421875 35.59375 18.375 34.40625 12.453125 
C 32.296875 1.5 26.40625 -0.40625 22.90625 -0.40625 
z
" id="CMR17-48"/>
     </defs>
     <g transform="translate(21.717775 155.918537)rotate(-90)scale(0.144 -0.144)">
      <use transform="translate(0 14.943915)scale(0.996264)" xlink:href="#CMMI12-115"/>
      <use transform="translate(45.950048 0)scale(0.697382)" xlink:href="#CMR17-53"/>
      <use transform="translate(77.93323 0)scale(0.697382)" xlink:href="#CMR17-48"/>
     </g>
    </g>
   </g>
   <g id="line2d_44">
    <path clip-path="url(#p0b17023683)" d="M 76.385455 167.496976 
L 80.412152 167.496976 
L 84.438849 167.496976 
L 88.465547 167.496976 
L 92.492244 167.496976 
L 96.518941 167.496976 
L 100.545639 163.993173 
L 104.572336 163.993173 
L 108.599033 163.993173 
L 112.625731 163.993173 
L 116.652428 165.677284 
L 120.679125 160.39422 
L 124.705823 162.074659 
L 128.73252 162.074659 
L 132.759217 158.386647 
L 136.785915 158.386647 
L 140.812612 158.386647 
L 144.83931 154.629381 
L 148.866007 154.629381 
L 152.892704 150.822909 
L 156.919402 152.488965 
L 160.946099 152.488965 
L 164.972796 148.639901 
L 168.999494 148.639901 
L 173.026191 144.786425 
L 177.052888 144.786425 
L 181.079586 140.958109 
L 185.106283 142.580605 
L 189.13298 142.580605 
L 193.159678 138.774747 
L 197.186375 138.774747 
L 201.213072 140.389811 
L 205.23977 135.048146 
L 209.266467 136.62711 
L 213.293165 131.432677 
L 217.319862 132.963531 
L 221.346559 134.526747 
L 225.373257 134.526747 
L 229.399954 129.428134 
L 233.426651 130.941255 
L 237.453349 130.941255 
L 241.480046 132.48144 
L 245.506743 132.48144 
L 249.533441 132.48144 
L 253.560138 127.4976 
L 257.586835 128.98539 
L 261.613533 128.98539 
L 265.64023 128.98539 
L 269.666928 128.98539 
L 273.693625 128.98539 
L 277.720322 128.98539 
L 281.74702 135.583901 
L 285.773717 135.583901 
L 289.800414 135.583901 
L 293.827112 135.583901 
L 297.853809 134.033261 
L 301.880506 134.033261 
L 305.907204 134.033261 
L 309.933901 139.265441 
L 313.960598 139.265441 
L 317.987296 139.265441 
L 322.013993 137.68993 
L 326.04069 144.609372 
L 330.067388 143.03726 
L 334.094085 141.443916 
L 338.120783 148.458691 
L 342.14748 146.877786 
L 346.174177 146.877786 
L 350.200875 152.349274 
L 354.227572 150.763521 
L 358.254269 150.763521 
L 362.280967 156.257145 
L 366.307664 154.669766 
L 370.334361 154.669766 
L 374.361059 153.053079 
L 378.387756 158.571727 
L 382.414453 156.954375 
L 386.441151 156.954375 
L 390.467848 162.445686 
L 394.494545 160.83013 
" style="fill:none;stroke:#1f77b4;stroke-linecap:square;stroke-width:1.5;"/>
   </g>
   <g id="line2d_45">
    <path clip-path="url(#p0b17023683)" d="M 76.385455 167.76 
L 80.412152 167.659337 
L 84.438849 167.473432 
L 88.465547 167.202693 
L 92.492244 166.847747 
L 96.518941 166.409421 
L 100.545639 165.888792 
L 104.572336 165.287177 
L 108.599033 164.606223 
L 112.625731 163.84788 
L 116.652428 163.014492 
L 120.679125 162.108786 
L 124.705823 161.13396 
L 128.73252 160.093683 
L 132.759217 158.992143 
L 136.785915 157.834081 
L 140.812612 156.624779 
L 144.83931 155.370093 
L 148.866007 154.076429 
L 152.892704 152.750706 
L 156.919402 151.400335 
L 160.946099 150.033115 
L 164.972796 148.657185 
L 168.999494 147.280892 
L 173.026191 145.912697 
L 177.052888 144.561021 
L 181.079586 143.234143 
L 185.106283 141.94005 
L 189.13298 140.686332 
L 193.159678 139.480067 
L 197.186375 138.327748 
L 201.213072 137.235213 
L 205.23977 136.207617 
L 209.266467 135.249422 
L 213.293165 134.364398 
L 217.319862 133.555675 
L 221.346559 132.825774 
L 225.373257 132.17666 
L 229.399954 131.609819 
L 233.426651 131.126299 
L 237.453349 130.726781 
L 241.480046 130.411628 
L 245.506743 130.180934 
L 249.533441 130.034552 
L 253.560138 129.972133 
L 257.586835 129.993133 
L 261.613533 130.096831 
L 265.64023 130.282325 
L 269.666928 130.548522 
L 273.693625 130.89413 
L 277.720322 131.31764 
L 281.74702 131.817297 
L 285.773717 132.391088 
L 289.800414 133.036706 
L 293.827112 133.751538 
L 297.853809 134.532642 
L 301.880506 135.37672 
L 305.907204 136.280121 
L 309.933901 137.238816 
L 313.960598 138.2484 
L 317.987296 139.304094 
L 322.013993 140.400741 
L 326.04069 141.532838 
L 330.067388 142.694536 
L 334.094085 143.879685 
L 338.120783 145.081865 
L 342.14748 146.294438 
L 346.174177 147.510599 
L 350.200875 148.723444 
L 354.227572 149.92604 
L 358.254269 151.111491 
L 362.280967 152.27302 
L 366.307664 153.404037 
L 370.334361 154.498217 
L 374.361059 155.549542 
L 378.387756 156.55238 
L 382.414453 157.501521 
L 386.441151 158.392203 
L 390.467848 159.220157 
L 394.494545 159.981606 
" style="fill:none;stroke:#ff7f0e;stroke-linecap:square;stroke-width:1.5;"/>
   </g>
   <g id="patch_13">
    <path d="M 60.48 173.79936 
L 60.48 121.45824 
" style="fill:none;stroke:#000000;stroke-linecap:square;stroke-linejoin:miter;stroke-width:0.8;"/>
   </g>
   <g id="patch_14">
    <path d="M 410.4 173.79936 
L 410.4 121.45824 
" style="fill:none;stroke:#000000;stroke-linecap:square;stroke-linejoin:miter;stroke-width:0.8;"/>
   </g>
   <g id="patch_15">
    <path d="M 60.48 173.79936 
L 410.4 173.79936 
" style="fill:none;stroke:#000000;stroke-linecap:square;stroke-linejoin:miter;stroke-width:0.8;"/>
   </g>
   <g id="patch_16">
    <path d="M 60.48 121.45824 
L 410.4 121.45824 
" style="fill:none;stroke:#000000;stroke-linecap:square;stroke-linejoin:miter;stroke-width:0.8;"/>
   </g>
  </g>
  <g id="axes_4">
   <g id="patch_17">
    <path d="M 60.48 226.14048 
L 410.4 226.14048 
L 410.4 173.79936 
L 60.48 173.79936 
z
" style="fill:#ffffff;"/>
   </g>
   <g id="matplotlib.axis_7">
    <g id="xtick_28">
     <g id="line2d_46">
      <g>
       <use style="stroke:#000000;stroke-width:0.8;" x="76.385455" xlink:href="#mf0c1807a68" y="226.14048"/>
      </g>
     </g>
    </g>
    <g id="xtick_29">
     <g id="line2d_47">
      <g>
       <use style="stroke:#000000;stroke-width:0.8;" x="116.652428" xlink:href="#mf0c1807a68" y="226.14048"/>
      </g>
     </g>
    </g>
    <g id="xtick_30">
     <g id="line2d_48">
      <g>
       <use style="stroke:#000000;stroke-width:0.8;" x="156.919402" xlink:href="#mf0c1807a68" y="226.14048"/>
      </g>
     </g>
    </g>
    <g id="xtick_31">
     <g id="line2d_49">
      <g>
       <use style="stroke:#000000;stroke-width:0.8;" x="197.186375" xlink:href="#mf0c1807a68" y="226.14048"/>
      </g>
     </g>
    </g>
    <g id="xtick_32">
     <g id="line2d_50">
      <g>
       <use style="stroke:#000000;stroke-width:0.8;" x="237.453349" xlink:href="#mf0c1807a68" y="226.14048"/>
      </g>
     </g>
    </g>
    <g id="xtick_33">
     <g id="line2d_51">
      <g>
       <use style="stroke:#000000;stroke-width:0.8;" x="277.720322" xlink:href="#mf0c1807a68" y="226.14048"/>
      </g>
     </g>
    </g>
    <g id="xtick_34">
     <g id="line2d_52">
      <g>
       <use style="stroke:#000000;stroke-width:0.8;" x="317.987296" xlink:href="#mf0c1807a68" y="226.14048"/>
      </g>
     </g>
    </g>
    <g id="xtick_35">
     <g id="line2d_53">
      <g>
       <use style="stroke:#000000;stroke-width:0.8;" x="358.254269" xlink:href="#mf0c1807a68" y="226.14048"/>
      </g>
     </g>
    </g>
    <g id="xtick_36">
     <g id="line2d_54">
      <g>
       <use style="stroke:#000000;stroke-width:0.8;" x="398.521243" xlink:href="#mf0c1807a68" y="226.14048"/>
      </g>
     </g>
    </g>
   </g>
   <g id="matplotlib.axis_8">
    <g id="ytick_13">
     <g id="line2d_55">
      <g>
       <use style="stroke:#000000;stroke-width:0.8;" x="60.48" xlink:href="#mcb3ae5c8e8" y="220.10112"/>
      </g>
     </g>
     <g id="text_16">
      <!-- 0.88 -->
      <g transform="translate(28.507302 225.082432)scale(0.144 -0.144)">
       <use transform="scale(0.996264)" xlink:href="#CMSS17-48"/>
       <use transform="translate(46.843624 0)scale(0.996264)" xlink:href="#CMSS17-46"/>
       <use transform="translate(72.867828 0)scale(0.996264)" xlink:href="#CMSS17-56"/>
       <use transform="translate(119.711452 0)scale(0.996264)" xlink:href="#CMSS17-56"/>
      </g>
     </g>
    </g>
    <g id="ytick_14">
     <g id="line2d_56">
      <g>
       <use style="stroke:#000000;stroke-width:0.8;" x="60.48" xlink:href="#mcb3ae5c8e8" y="206.68032"/>
      </g>
     </g>
     <g id="text_17">
      <!-- 1.37 -->
      <g transform="translate(28.507302 211.661632)scale(0.144 -0.144)">
       <use transform="scale(0.996264)" xlink:href="#CMSS17-49"/>
       <use transform="translate(46.843624 0)scale(0.996264)" xlink:href="#CMSS17-46"/>
       <use transform="translate(72.867828 0)scale(0.996264)" xlink:href="#CMSS17-51"/>
       <use transform="translate(119.711452 0)scale(0.996264)" xlink:href="#CMSS17-55"/>
      </g>
     </g>
    </g>
    <g id="ytick_15">
     <g id="line2d_57">
      <g>
       <use style="stroke:#000000;stroke-width:0.8;" x="60.48" xlink:href="#mcb3ae5c8e8" y="193.25952"/>
      </g>
     </g>
     <g id="text_18">
      <!-- 1.87 -->
      <g transform="translate(28.507302 198.240832)scale(0.144 -0.144)">
       <use transform="scale(0.996264)" xlink:href="#CMSS17-49"/>
       <use transform="translate(46.843624 0)scale(0.996264)" xlink:href="#CMSS17-46"/>
       <use transform="translate(72.867828 0)scale(0.996264)" xlink:href="#CMSS17-56"/>
       <use transform="translate(119.711452 0)scale(0.996264)" xlink:href="#CMSS17-55"/>
      </g>
     </g>
    </g>
    <g id="ytick_16">
     <g id="line2d_58">
      <g>
       <use style="stroke:#000000;stroke-width:0.8;" x="60.48" xlink:href="#mcb3ae5c8e8" y="179.83872"/>
      </g>
     </g>
     <g id="text_19">
      <!-- 2.37 -->
      <g transform="translate(28.507302 184.820032)scale(0.144 -0.144)">
       <use transform="scale(0.996264)" xlink:href="#CMSS17-50"/>
       <use transform="translate(46.843624 0)scale(0.996264)" xlink:href="#CMSS17-46"/>
       <use transform="translate(72.867828 0)scale(0.996264)" xlink:href="#CMSS17-51"/>
       <use transform="translate(119.711452 0)scale(0.996264)" xlink:href="#CMSS17-55"/>
      </g>
     </g>
    </g>
    <g id="text_20">
     <!-- $s_{75}$ -->
     <defs>
      <path d="M 45.09375 61.796875 
L 45.09375 64 
L 21.59375 64 
C 9.90625 64 9.703125 65.09375 9.296875 67 
L 7.5 67 
L 4.59375 48.5 
L 6.40625 48.5 
C 6.703125 50.40625 7.40625 55.5 8.59375 57.390625 
C 9.203125 58.1875 16.59375 58.1875 18.296875 58.1875 
L 40.296875 58.1875 
L 29.203125 41.71875 
C 21.796875 30.640625 16.703125 15.671875 16.703125 2.59375 
C 16.703125 1.390625 16.703125 -2 20.296875 -2 
C 23.90625 -2 23.90625 1.390625 23.90625 2.6875 
L 23.90625 7.28125 
C 23.90625 23.65625 26.703125 34.4375 31.296875 41.3125 
z
" id="CMR17-55"/>
     </defs>
     <g transform="translate(21.717775 208.259657)rotate(-90)scale(0.144 -0.144)">
      <use transform="translate(0 14.943915)scale(0.996264)" xlink:href="#CMMI12-115"/>
      <use transform="translate(45.950048 0)scale(0.697382)" xlink:href="#CMR17-55"/>
      <use transform="translate(77.93323 0)scale(0.697382)" xlink:href="#CMR17-53"/>
     </g>
    </g>
   </g>
   <g id="line2d_59">
    <path clip-path="url(#p90240373e8)" d="M 76.385455 180.039867 
L 80.412152 180.039867 
L 84.438849 180.039867 
L 88.465547 180.039867 
L 92.492244 180.039867 
L 96.518941 180.039867 
L 100.545639 181.489873 
L 104.572336 181.489873 
L 108.599033 181.489873 
L 112.625731 181.489873 
L 116.652428 184.102672 
L 120.679125 182.884476 
L 124.705823 185.627311 
L 128.73252 185.627311 
L 132.759217 187.084848 
L 136.785915 187.084848 
L 140.812612 187.084848 
L 144.83931 188.451546 
L 148.866007 188.451546 
L 152.892704 189.701628 
L 156.919402 192.742194 
L 160.946099 192.742194 
L 164.972796 194.013809 
L 168.999494 194.013809 
L 173.026191 195.127101 
L 177.052888 195.127101 
L 181.079586 196.053106 
L 185.106283 199.442939 
L 189.13298 199.442939 
L 193.159678 200.348007 
L 197.186375 200.348007 
L 201.213072 203.741698 
L 205.23977 201.024258 
L 209.266467 204.611892 
L 213.293165 201.44296 
L 217.319862 205.24322 
L 221.346559 208.833049 
L 225.373257 208.833049 
L 229.399954 205.609293 
L 233.426651 209.408738 
L 237.453349 209.408738 
L 241.480046 213.000737 
L 245.506743 213.000737 
L 249.533441 213.000737 
L 253.560138 209.713735 
L 257.586835 213.512071 
L 261.613533 213.512071 
L 265.64023 213.512071 
L 269.666928 213.512071 
L 273.693625 213.512071 
L 277.720322 213.512071 
L 281.74702 219.65257 
L 285.773717 219.65257 
L 289.800414 219.65257 
L 293.827112 219.65257 
L 297.853809 216.40864 
L 301.880506 216.40864 
L 305.907204 216.40864 
L 309.933901 218.564669 
L 313.960598 218.564669 
L 317.987296 218.564669 
L 322.013993 215.474401 
L 326.04069 220.10112 
L 330.067388 217.27173 
L 334.094085 214.322973 
L 338.120783 218.50429 
L 342.14748 215.793869 
L 346.174177 215.793869 
L 350.200875 216.752367 
L 354.227572 214.15222 
L 358.254269 214.15222 
L 362.280967 214.866361 
L 366.307664 212.36861 
L 370.334361 212.36861 
L 374.361059 209.782975 
L 378.387756 210.465194 
L 382.414453 207.98333 
L 386.441151 207.98333 
L 390.467848 208.464061 
L 394.494545 206.07867 
" style="fill:none;stroke:#1f77b4;stroke-linecap:square;stroke-width:1.5;"/>
   </g>
   <g id="line2d_60">
    <path clip-path="url(#p90240373e8)" d="M 76.385455 179.83872 
L 80.412152 179.88221 
L 84.438849 179.987406 
L 88.465547 180.154106 
L 92.492244 180.381921 
L 96.518941 180.670277 
L 100.545639 181.018389 
L 104.572336 181.425255 
L 108.599033 181.889627 
L 112.625731 182.410006 
L 116.652428 182.984606 
L 120.679125 183.611363 
L 124.705823 184.287905 
L 128.73252 185.011561 
L 132.759217 185.779352 
L 136.785915 186.588011 
L 140.812612 187.433999 
L 144.83931 188.313536 
L 148.866007 189.22264 
L 152.892704 190.157177 
L 156.919402 191.112919 
L 160.946099 192.085619 
L 164.972796 193.071061 
L 168.999494 194.065152 
L 173.026191 195.063978 
L 177.052888 196.063876 
L 181.079586 197.061481 
L 185.106283 198.053813 
L 189.13298 199.038203 
L 193.159678 200.012422 
L 197.186375 200.974619 
L 201.213072 201.923296 
L 205.23977 202.857289 
L 209.266467 203.775701 
L 213.293165 204.67784 
L 217.319862 205.563156 
L 221.346559 206.431151 
L 225.373257 207.281306 
L 229.399954 208.113016 
L 233.426651 208.925514 
L 237.453349 209.717814 
L 241.480046 210.488673 
L 245.506743 211.236562 
L 249.533441 211.959642 
L 253.560138 212.655771 
L 257.586835 213.322511 
L 261.613533 213.957161 
L 265.64023 214.556796 
L 269.666928 215.118305 
L 273.693625 215.638463 
L 277.720322 216.113984 
L 281.74702 216.541593 
L 285.773717 216.9181 
L 289.800414 217.240457 
L 293.827112 217.505847 
L 297.853809 217.711734 
L 301.880506 217.855934 
L 305.907204 217.936671 
L 309.933901 217.952628 
L 313.960598 217.902991 
L 317.987296 217.787468 
L 322.013993 217.606334 
L 326.04069 217.360432 
L 330.067388 217.051168 
L 334.094085 216.68052 
L 338.120783 216.250996 
L 342.14748 215.765616 
L 346.174177 215.227867 
L 350.200875 214.641652 
L 354.227572 214.011224 
L 358.254269 213.341138 
L 362.280967 212.63617 
L 366.307664 211.901252 
L 370.334361 211.141396 
L 374.361059 210.361636 
L 378.387756 209.566952 
L 382.414453 208.762224 
L 386.441151 207.952158 
L 390.467848 207.141262 
L 394.494545 206.333785 
" style="fill:none;stroke:#ff7f0e;stroke-linecap:square;stroke-width:1.5;"/>
   </g>
   <g id="patch_18">
    <path d="M 60.48 226.14048 
L 60.48 173.79936 
" style="fill:none;stroke:#000000;stroke-linecap:square;stroke-linejoin:miter;stroke-width:0.8;"/>
   </g>
   <g id="patch_19">
    <path d="M 410.4 226.14048 
L 410.4 173.79936 
" style="fill:none;stroke:#000000;stroke-linecap:square;stroke-linejoin:miter;stroke-width:0.8;"/>
   </g>
   <g id="patch_20">
    <path d="M 60.48 226.14048 
L 410.4 226.14048 
" style="fill:none;stroke:#000000;stroke-linecap:square;stroke-linejoin:miter;stroke-width:0.8;"/>
   </g>
   <g id="patch_21">
    <path d="M 60.48 173.79936 
L 410.4 173.79936 
" style="fill:none;stroke:#000000;stroke-linecap:square;stroke-linejoin:miter;stroke-width:0.8;"/>
   </g>
  </g>
  <g id="axes_5">
   <g id="patch_22">
    <path d="M 60.48 278.4816 
L 410.4 278.4816 
L 410.4 226.14048 
L 60.48 226.14048 
z
" style="fill:#ffffff;"/>
   </g>
   <g id="matplotlib.axis_9">
    <g id="xtick_37">
     <g id="line2d_61">
      <g>
       <use style="stroke:#000000;stroke-width:0.8;" x="76.385455" xlink:href="#mf0c1807a68" y="278.4816"/>
      </g>
     </g>
     <g id="text_21">
      <!-- $0$ -->
      <g transform="translate(72.873668 295.444225)scale(0.144 -0.144)">
       <use transform="scale(0.996264)" xlink:href="#CMR17-48"/>
      </g>
     </g>
    </g>
    <g id="xtick_38">
     <g id="line2d_62">
      <g>
       <use style="stroke:#000000;stroke-width:0.8;" x="116.652428" xlink:href="#mf0c1807a68" y="278.4816"/>
      </g>
     </g>
     <g id="text_22">
      <!-- $10$ -->
      <g transform="translate(109.628855 295.444225)scale(0.144 -0.144)">
       <use transform="scale(0.996264)" xlink:href="#CMR17-49"/>
       <use transform="translate(45.690477 0)scale(0.996264)" xlink:href="#CMR17-48"/>
      </g>
     </g>
    </g>
    <g id="xtick_39">
     <g id="line2d_63">
      <g>
       <use style="stroke:#000000;stroke-width:0.8;" x="156.919402" xlink:href="#mf0c1807a68" y="278.4816"/>
      </g>
     </g>
     <g id="text_23">
      <!-- $20$ -->
      <g transform="translate(149.895829 295.444225)scale(0.144 -0.144)">
       <use transform="scale(0.996264)" xlink:href="#CMR17-50"/>
       <use transform="translate(45.690477 0)scale(0.996264)" xlink:href="#CMR17-48"/>
      </g>
     </g>
    </g>
    <g id="xtick_40">
     <g id="line2d_64">
      <g>
       <use style="stroke:#000000;stroke-width:0.8;" x="197.186375" xlink:href="#mf0c1807a68" y="278.4816"/>
      </g>
     </g>
     <g id="text_24">
      <!-- $30$ -->
      <defs>
       <path d="M 22.09375 34 
C 31 34 34.90625 26.140625 34.90625 17.09375 
C 34.90625 5.03125 28.5 0.390625 22.703125 0.390625 
C 17.40625 0.390625 8.796875 3.015625 6.09375 10.796875 
C 6.59375 10.59375 7.09375 10.59375 7.59375 10.59375 
C 10 10.59375 11.796875 12.1875 11.796875 14.796875 
C 11.796875 17.6875 9.59375 19 7.59375 19 
C 5.90625 19 3.296875 18.1875 3.296875 14.484375 
C 3.296875 5.234375 12.296875 -2 22.90625 -2 
C 34 -2 42.5 6.75 42.5 16.984375 
C 42.5 26.84375 34.5 34 25 35.09375 
C 32.59375 36.671875 39.90625 43.375 39.90625 52.390625 
C 39.90625 60.25 32 66 23 66 
C 13.90625 66 5.90625 60.34375 5.90625 52.296875 
C 5.90625 48.796875 8.5 48.1875 9.796875 48.1875 
C 11.90625 48.1875 13.703125 49.484375 13.703125 52.09375 
C 13.703125 54.6875 11.90625 56 9.796875 56 
C 9.40625 56 8.90625 56 8.5 55.796875 
C 11.40625 62.484375 19.296875 63.6875 22.796875 63.6875 
C 26.296875 63.6875 32.90625 61.96875 32.90625 52.296875 
C 32.90625 49.484375 32.5 44.546875 29.09375 40.21875 
C 26.09375 36.390625 22.703125 36.1875 19.40625 35.890625 
C 18.90625 35.890625 16.59375 35.6875 16.203125 35.6875 
C 15.5 35.59375 15.09375 35.5 15.09375 34.796875 
C 15.09375 34.09375 15.203125 34 17.203125 34 
z
" id="CMR17-51"/>
      </defs>
      <g transform="translate(190.162802 295.444225)scale(0.144 -0.144)">
       <use transform="scale(0.996264)" xlink:href="#CMR17-51"/>
       <use transform="translate(45.690477 0)scale(0.996264)" xlink:href="#CMR17-48"/>
      </g>
     </g>
    </g>
    <g id="xtick_41">
     <g id="line2d_65">
      <g>
       <use style="stroke:#000000;stroke-width:0.8;" x="237.453349" xlink:href="#mf0c1807a68" y="278.4816"/>
      </g>
     </g>
     <g id="text_25">
      <!-- $40$ -->
      <defs>
       <path d="M 33.59375 64.796875 
C 33.59375 66.890625 33.5 67 31.703125 67 
L 2 19.59375 
L 2 17 
L 27.796875 17 
L 27.796875 7.1875 
C 27.796875 3.59375 27.59375 2.59375 20.59375 2.59375 
L 18.703125 2.59375 
L 18.703125 0 
C 21.90625 0.1875 27.296875 0.1875 30.703125 0.1875 
C 34.09375 0.1875 39.5 0.1875 42.703125 0 
L 42.703125 2.59375 
L 40.796875 2.59375 
C 33.796875 2.59375 33.59375 3.59375 33.59375 7.1875 
L 33.59375 17 
L 43.796875 17 
L 43.796875 19.59375 
L 33.59375 19.59375 
z
M 28.09375 58.171875 
L 28.09375 19.59375 
L 4 19.59375 
z
" id="CMR17-52"/>
      </defs>
      <g transform="translate(230.429776 295.444225)scale(0.144 -0.144)">
       <use transform="scale(0.996264)" xlink:href="#CMR17-52"/>
       <use transform="translate(45.690477 0)scale(0.996264)" xlink:href="#CMR17-48"/>
      </g>
     </g>
    </g>
    <g id="xtick_42">
     <g id="line2d_66">
      <g>
       <use style="stroke:#000000;stroke-width:0.8;" x="277.720322" xlink:href="#mf0c1807a68" y="278.4816"/>
      </g>
     </g>
     <g id="text_26">
      <!-- $50$ -->
      <g transform="translate(270.696749 295.444225)scale(0.144 -0.144)">
       <use transform="scale(0.996264)" xlink:href="#CMR17-53"/>
       <use transform="translate(45.690477 0)scale(0.996264)" xlink:href="#CMR17-48"/>
      </g>
     </g>
    </g>
    <g id="xtick_43">
     <g id="line2d_67">
      <g>
       <use style="stroke:#000000;stroke-width:0.8;" x="317.987296" xlink:href="#mf0c1807a68" y="278.4816"/>
      </g>
     </g>
     <g id="text_27">
      <!-- $60$ -->
      <defs>
       <path d="M 10.59375 34.34375 
C 10.59375 58 21.796875 63.6875 28.296875 63.6875 
C 30.40625 63.6875 35.5 63.265625 37.5 59.09375 
C 35.90625 59.09375 32.90625 59.09375 32.90625 55.59375 
C 32.90625 52.890625 35.09375 52 36.5 52 
C 37.40625 52 40.09375 52.390625 40.09375 55.796875 
C 40.09375 62.296875 35.09375 66 28.203125 66 
C 16.296875 66 3.796875 53.296875 3.796875 31.421875 
C 3.796875 4.015625 15.09375 -2 23.09375 -2 
C 32.796875 -2 42 6.734375 42 20.234375 
C 42 32.828125 33.90625 42 23.703125 42 
C 17.59375 42 13.09375 37.96875 10.59375 30.921875 
z
M 23.09375 0.390625 
C 10.796875 0.390625 10.796875 18.9375 10.796875 22.65625 
C 10.796875 29.90625 14.203125 40.390625 23.5 40.390625 
C 25.203125 40.390625 30.09375 40.390625 33.40625 33.4375 
C 35.203125 29.515625 35.203125 25.375 35.203125 20.34375 
C 35.203125 14.90625 35.203125 10.875 33.09375 6.84375 
C 30.90625 2.703125 27.703125 0.390625 23.09375 0.390625 
z
" id="CMR17-54"/>
      </defs>
      <g transform="translate(310.963723 295.444225)scale(0.144 -0.144)">
       <use transform="scale(0.996264)" xlink:href="#CMR17-54"/>
       <use transform="translate(45.690477 0)scale(0.996264)" xlink:href="#CMR17-48"/>
      </g>
     </g>
    </g>
    <g id="xtick_44">
     <g id="line2d_68">
      <g>
       <use style="stroke:#000000;stroke-width:0.8;" x="358.254269" xlink:href="#mf0c1807a68" y="278.4816"/>
      </g>
     </g>
     <g id="text_28">
      <!-- $70$ -->
      <g transform="translate(351.230696 295.444225)scale(0.144 -0.144)">
       <use transform="scale(0.996264)" xlink:href="#CMR17-55"/>
       <use transform="translate(45.690477 0)scale(0.996264)" xlink:href="#CMR17-48"/>
      </g>
     </g>
    </g>
    <g id="xtick_45">
     <g id="line2d_69">
      <g>
       <use style="stroke:#000000;stroke-width:0.8;" x="398.521243" xlink:href="#mf0c1807a68" y="278.4816"/>
      </g>
     </g>
     <g id="text_29">
      <!-- $80$ -->
      <defs>
       <path d="M 27.203125 35.765625 
C 33.5 38.96875 39.90625 43.796875 39.90625 51.53125 
C 39.90625 60.6875 31.09375 66 23 66 
C 13.90625 66 5.90625 59.375 5.90625 50.234375 
C 5.90625 47.71875 6.5 43.390625 10.40625 39.578125 
C 11.40625 38.578125 15.59375 35.5625 18.296875 33.65625 
C 13.796875 31.34375 3.296875 25.8125 3.296875 14.765625 
C 3.296875 4.40625 13.09375 -2 22.796875 -2 
C 33.5 -2 42.5 5.71875 42.5 15.96875 
C 42.5 25.109375 36.40625 29.328125 32.40625 32.046875 
z
M 14.09375 44.609375 
C 13.296875 45.109375 9.296875 48.21875 9.296875 52.9375 
C 9.296875 59.078125 15.59375 63.6875 22.796875 63.6875 
C 30.703125 63.6875 36.5 58.0625 36.5 51.53125 
C 36.5 42.1875 26.09375 36.859375 25.59375 36.859375 
C 25.5 36.859375 25.40625 36.859375 24.59375 37.46875 
z
M 32.5 24 
C 34 22.90625 38.796875 19.578125 38.796875 13.453125 
C 38.796875 6.015625 31.40625 0.390625 23 0.390625 
C 13.90625 0.390625 7 6.921875 7 14.859375 
C 7 22.796875 13.09375 29.4375 20 32.546875 
z
" id="CMR17-56"/>
      </defs>
      <g transform="translate(391.49767 295.444225)scale(0.144 -0.144)">
       <use transform="scale(0.996264)" xlink:href="#CMR17-56"/>
       <use transform="translate(45.690477 0)scale(0.996264)" xlink:href="#CMR17-48"/>
      </g>
     </g>
    </g>
   </g>
   <g id="matplotlib.axis_10">
    <g id="ytick_17">
     <g id="line2d_70">
      <g>
       <use style="stroke:#000000;stroke-width:0.8;" x="60.48" xlink:href="#mcb3ae5c8e8" y="272.44224"/>
      </g>
     </g>
     <g id="text_30">
      <!-- 2.66 -->
      <g transform="translate(28.507302 277.423552)scale(0.144 -0.144)">
       <use transform="scale(0.996264)" xlink:href="#CMSS17-50"/>
       <use transform="translate(46.843624 0)scale(0.996264)" xlink:href="#CMSS17-46"/>
       <use transform="translate(72.867828 0)scale(0.996264)" xlink:href="#CMSS17-54"/>
       <use transform="translate(119.711452 0)scale(0.996264)" xlink:href="#CMSS17-54"/>
      </g>
     </g>
    </g>
    <g id="ytick_18">
     <g id="line2d_71">
      <g>
       <use style="stroke:#000000;stroke-width:0.8;" x="60.48" xlink:href="#mcb3ae5c8e8" y="259.02144"/>
      </g>
     </g>
     <g id="text_31">
      <!-- 3.38 -->
      <g transform="translate(28.507302 264.002752)scale(0.144 -0.144)">
       <use transform="scale(0.996264)" xlink:href="#CMSS17-51"/>
       <use transform="translate(46.843624 0)scale(0.996264)" xlink:href="#CMSS17-46"/>
       <use transform="translate(72.867828 0)scale(0.996264)" xlink:href="#CMSS17-51"/>
       <use transform="translate(119.711452 0)scale(0.996264)" xlink:href="#CMSS17-56"/>
      </g>
     </g>
    </g>
    <g id="ytick_19">
     <g id="line2d_72">
      <g>
       <use style="stroke:#000000;stroke-width:0.8;" x="60.48" xlink:href="#mcb3ae5c8e8" y="245.60064"/>
      </g>
     </g>
     <g id="text_32">
      <!-- 4.10 -->
      <g transform="translate(28.507302 250.581952)scale(0.144 -0.144)">
       <use transform="scale(0.996264)" xlink:href="#CMSS17-52"/>
       <use transform="translate(46.843624 0)scale(0.996264)" xlink:href="#CMSS17-46"/>
       <use transform="translate(72.867828 0)scale(0.996264)" xlink:href="#CMSS17-49"/>
       <use transform="translate(119.711452 0)scale(0.996264)" xlink:href="#CMSS17-48"/>
      </g>
     </g>
    </g>
    <g id="ytick_20">
     <g id="line2d_73">
      <g>
       <use style="stroke:#000000;stroke-width:0.8;" x="60.48" xlink:href="#mcb3ae5c8e8" y="232.17984"/>
      </g>
     </g>
     <g id="text_33">
      <!-- 4.82 -->
      <g transform="translate(28.507302 237.161152)scale(0.144 -0.144)">
       <use transform="scale(0.996264)" xlink:href="#CMSS17-52"/>
       <use transform="translate(46.843624 0)scale(0.996264)" xlink:href="#CMSS17-46"/>
       <use transform="translate(72.867828 0)scale(0.996264)" xlink:href="#CMSS17-56"/>
       <use transform="translate(119.711452 0)scale(0.996264)" xlink:href="#CMSS17-50"/>
      </g>
     </g>
    </g>
    <g id="text_34">
     <!-- $s_{92}$ -->
     <defs>
      <path d="M 35.203125 29.234375 
C 35.203125 7 26.09375 0.390625 18.59375 0.390625 
C 16.296875 0.390625 10.703125 0.671875 8.40625 4.390625 
C 11 4 12.90625 5.390625 12.90625 7.890625 
C 12.90625 10.59375 10.703125 11.5 9.296875 11.5 
C 8.40625 11.5 5.703125 11.09375 5.703125 7.6875 
C 5.703125 1.0625 11.59375 -2 18.796875 -2 
C 30.296875 -2 42 10.390625 42 32.65625 
C 42 60.265625 30.796875 66 23.203125 66 
C 13.296875 66 3.796875 57.25 3.796875 43.75 
C 3.796875 31.25 11.90625 22 22.09375 22 
C 30.5 22 34.203125 29.84375 35.203125 33.15625 
z
M 22.296875 23.59375 
C 19.59375 23.59375 15.796875 24.09375 12.703125 30.140625 
C 10.59375 34.078125 10.59375 38.703125 10.59375 43.640625 
C 10.59375 49.59375 10.59375 53.71875 13.40625 58.15625 
C 14.796875 60.265625 17.40625 63.6875 23.203125 63.6875 
C 35 63.6875 35 45.453125 35 41.421875 
C 35 34.265625 31.796875 23.59375 22.296875 23.59375 
z
" id="CMR17-57"/>
     </defs>
     <g transform="translate(21.717775 260.600777)rotate(-90)scale(0.144 -0.144)">
      <use transform="translate(0 14.943915)scale(0.996264)" xlink:href="#CMMI12-115"/>
      <use transform="translate(45.950048 0)scale(0.697382)" xlink:href="#CMR17-57"/>
      <use transform="translate(77.93323 0)scale(0.697382)" xlink:href="#CMR17-50"/>
     </g>
    </g>
   </g>
   <g id="line2d_74">
    <path clip-path="url(#p49737c44d5)" d="M 76.385455 272.120734 
L 80.412152 272.120734 
L 84.438849 272.120734 
L 88.465547 272.120734 
L 92.492244 272.120734 
L 96.518941 272.120734 
L 100.545639 268.969335 
L 104.572336 268.969335 
L 108.599033 268.969335 
L 112.625731 268.969335 
L 116.652428 267.821818 
L 120.679125 265.914647 
L 124.705823 264.77148 
L 128.73252 264.77148 
L 132.759217 261.831142 
L 136.785915 261.831142 
L 140.812612 261.831142 
L 144.83931 259.012848 
L 148.866007 259.012848 
L 152.892704 256.326828 
L 156.919402 255.140556 
L 160.946099 255.140556 
L 164.972796 252.598572 
L 168.999494 252.598572 
L 173.026191 250.201908 
L 177.052888 250.201908 
L 181.079586 247.952613 
L 185.106283 246.719544 
L 189.13298 246.719544 
L 193.159678 244.619687 
L 197.186375 244.619687 
L 201.213072 243.331383 
L 205.23977 242.660623 
L 209.266467 241.375683 
L 213.293165 240.833522 
L 217.319862 239.551917 
L 221.346559 238.212237 
L 225.373257 238.212237 
L 229.399954 237.847623 
L 233.426651 236.511205 
L 237.453349 236.511205 
L 241.480046 235.11876 
L 245.506743 235.11876 
L 249.533441 235.11876 
L 253.560138 234.913827 
L 257.586835 233.524603 
L 261.613533 233.524603 
L 265.64023 233.524603 
L 269.666928 233.524603 
L 273.693625 233.524603 
L 277.720322 233.524603 
L 281.74702 232.17984 
L 285.773717 232.17984 
L 289.800414 232.17984 
L 293.827112 232.17984 
L 297.853809 233.673552 
L 301.880506 233.673552 
L 305.907204 233.673552 
L 309.933901 233.871436 
L 313.960598 233.871436 
L 317.987296 233.871436 
L 322.013993 235.36823 
L 326.04069 234.139405 
L 330.067388 235.682544 
L 334.094085 237.182393 
L 338.120783 236.0795 
L 342.14748 237.625585 
L 346.174177 237.625585 
L 350.200875 238.160324 
L 354.227572 239.709339 
L 358.254269 239.709339 
L 362.280967 240.38691 
L 366.307664 241.938849 
L 370.334361 241.938849 
L 374.361059 243.447806 
L 378.387756 244.315486 
L 382.414453 245.827493 
L 386.441151 245.827493 
L 390.467848 246.837156 
L 394.494545 248.352236 
" style="fill:none;stroke:#1f77b4;stroke-linecap:square;stroke-width:1.5;"/>
   </g>
   <g id="line2d_75">
    <path clip-path="url(#p49737c44d5)" d="M 76.385455 272.44224 
L 80.412152 272.348809 
L 84.438849 272.155909 
L 88.465547 271.864679 
L 92.492244 271.476902 
L 96.518941 270.994974 
L 100.545639 270.421916 
L 104.572336 269.761334 
L 108.599033 269.017445 
L 112.625731 268.195006 
L 116.652428 267.299327 
L 120.679125 266.336185 
L 124.705823 265.311821 
L 128.73252 264.232851 
L 132.759217 263.106211 
L 136.785915 261.93908 
L 140.812612 260.738788 
L 144.83931 259.512732 
L 148.866007 258.268274 
L 152.892704 257.012643 
L 156.919402 255.752847 
L 160.946099 254.495559 
L 164.972796 253.247062 
L 168.999494 252.013151 
L 173.026191 250.799097 
L 177.052888 249.609588 
L 181.079586 248.448748 
L 185.106283 247.32 
L 189.13298 246.226344 
L 193.159678 245.170127 
L 197.186375 244.15322 
L 201.213072 243.177058 
L 205.23977 242.242696 
L 209.266467 241.350888 
L 213.293165 240.502145 
L 217.319862 239.696809 
L 221.346559 238.935108 
L 225.373257 238.217203 
L 229.399954 237.543234 
L 233.426651 236.913343 
L 237.453349 236.3277 
L 241.480046 235.786515 
L 245.506743 235.290034 
L 249.533441 234.838544 
L 253.560138 234.432365 
L 257.586835 234.071839 
L 261.613533 233.757324 
L 265.64023 233.489176 
L 269.666928 233.267751 
L 273.693625 233.093384 
L 277.720322 232.966393 
L 281.74702 232.887069 
L 285.773717 232.855669 
L 289.800414 232.872417 
L 293.827112 232.937495 
L 297.853809 233.051034 
L 301.880506 233.21311 
L 305.907204 233.423722 
L 309.933901 233.682778 
L 313.960598 233.990074 
L 317.987296 234.345271 
L 322.013993 234.747852 
L 326.04069 235.197102 
L 330.067388 235.692072 
L 334.094085 236.231537 
L 338.120783 236.813976 
L 342.14748 237.437538 
L 346.174177 238.100019 
L 350.200875 238.798851 
L 354.227572 239.531101 
L 358.254269 240.29346 
L 362.280967 241.082274 
L 366.307664 241.893556 
L 370.334361 242.723032 
L 374.361059 243.566164 
L 378.387756 244.418219 
L 382.414453 245.274303 
L 386.441151 246.129437 
L 390.467848 246.978601 
L 394.494545 247.816806 
" style="fill:none;stroke:#ff7f0e;stroke-linecap:square;stroke-width:1.5;"/>
   </g>
   <g id="patch_23">
    <path d="M 60.48 278.4816 
L 60.48 226.14048 
" style="fill:none;stroke:#000000;stroke-linecap:square;stroke-linejoin:miter;stroke-width:0.8;"/>
   </g>
   <g id="patch_24">
    <path d="M 410.4 278.4816 
L 410.4 226.14048 
" style="fill:none;stroke:#000000;stroke-linecap:square;stroke-linejoin:miter;stroke-width:0.8;"/>
   </g>
   <g id="patch_25">
    <path d="M 60.48 278.4816 
L 410.4 278.4816 
" style="fill:none;stroke:#000000;stroke-linecap:square;stroke-linejoin:miter;stroke-width:0.8;"/>
   </g>
   <g id="patch_26">
    <path d="M 60.48 226.14048 
L 410.4 226.14048 
" style="fill:none;stroke:#000000;stroke-linecap:square;stroke-linejoin:miter;stroke-width:0.8;"/>
   </g>
  </g>
  <g id="legend_1">
   <g id="patch_27">
    <path d="M 90.347769 328.32 
L 341.652231 328.32 
Q 344.532231 328.32 344.532231 325.44 
L 344.532231 306.810473 
Q 344.532231 303.930473 341.652231 303.930473 
L 90.347769 303.930473 
Q 87.467769 303.930473 87.467769 306.810473 
L 87.467769 325.44 
Q 87.467769 328.32 90.347769 328.32 
z
" style="fill:#ffffff;opacity:0.8;stroke:#cccccc;stroke-linejoin:miter;"/>
   </g>
   <g id="line2d_76">
    <path d="M 93.227769 314.730473 
L 122.027769 314.730473 
" style="fill:none;stroke:#1f77b4;stroke-linecap:square;stroke-width:1.5;"/>
   </g>
   <g id="line2d_77"/>
   <g id="text_35">
    <!-- Prediction -->
    <defs>
     <path d="M 32.90625 29 
C 44.90625 29 54.703125 38.234375 54.703125 49.046875 
C 54.703125 59.65625 45.296875 69 32.296875 69 
L 8.90625 69 
L 8.90625 0 
L 17.296875 0 
L 17.296875 29 
z
M 30.09375 63.390625 
C 41.703125 63.390625 46.796875 56.21875 46.796875 49.046875 
C 46.796875 42.359375 42.09375 34.796875 30.09375 34.796875 
L 17.09375 34.796875 
L 17.09375 63.390625 
z
" id="CMSS17-80"/>
     <path d="M 14.90625 21.390625 
C 14.90625 30.84375 21.796875 37.171875 30.59375 37.375 
L 30.59375 44 
C 24.203125 43.890625 18.203125 40.6875 14.59375 35.46875 
L 14.59375 43.484375 
L 7.5 43.484375 
L 7.5 0 
L 14.90625 0 
z
" id="CMSS17-114"/>
     <path d="M 39.09375 21.484375 
C 39.09375 24.796875 38.90625 31.265625 35.703125 36.671875 
C 32.203125 42.390625 26.5 44 22.203125 44 
C 11.796875 44 3 34.125 3 21.296875 
C 3 9.046875 12.09375 -1 23.59375 -1 
C 28.09375 -1 33.59375 0.296875 38.59375 3.890625 
C 38.59375 4.296875 38.40625 6.46875 38.296875 6.578125 
C 38.296875 6.765625 38 9.828125 38 10.234375 
C 33.203125 6.375 27.703125 5.09375 23.703125 5.09375 
C 17.296875 5.09375 10.40625 10.421875 10.09375 21.484375 
z
M 10.90625 27 
C 12.203125 32.59375 16.59375 37.890625 22.203125 37.890625 
C 23.703125 37.890625 30.703125 37.6875 32.5 27 
z
" id="CMSS17-101"/>
     <path d="M 40.796875 69 
L 33.40625 69 
L 33.40625 38.984375 
C 30.296875 41.59375 25.203125 44 19.59375 44 
C 10.5 44 3.296875 34.046875 3.296875 21.484375 
C 3.296875 8.9375 10.40625 -1 19.296875 -1 
C 26.203125 -1 30.796875 2.6875 33.203125 4.796875 
L 33.203125 -0.203125 
L 40.796875 -0.203125 
z
M 33.203125 13.296875 
C 33.203125 11.875 33.203125 10.359375 30.09375 7.625 
C 28.09375 5.90625 25.703125 5.09375 23.40625 5.09375 
C 18 5.09375 10.90625 9.140625 10.90625 21.390625 
C 10.90625 34.140625 18.90625 37.890625 24.40625 37.890625 
C 28.09375 37.890625 31.09375 36.0625 33.203125 33.03125 
z
" id="CMSS17-100"/>
     <path d="M 15.296875 66 
L 6.90625 66 
L 6.90625 57.59375 
L 15.296875 57.59375 
z
M 14.796875 43 
L 7.40625 43 
L 7.40625 0 
L 14.796875 0 
z
" id="CMSS17-105"/>
     <path d="M 38.5 39.6875 
C 38.5 40.390625 33.90625 42.390625 32.703125 42.796875 
C 29.40625 44 25.203125 44 24.09375 44 
C 11.09375 44 3.296875 32.6875 3.296875 21.296875 
C 3.296875 9.296875 12 -1 23.703125 -1 
C 30.40625 -1 35.203125 1.1875 39.09375 3.796875 
L 38.5 10.390625 
C 34.203125 7.09375 29.203125 5.296875 23.796875 5.296875 
C 16 5.296875 10.90625 12.09375 10.90625 21.390625 
C 10.90625 28.59375 14.203125 37.6875 24.203125 37.6875 
C 29.703125 37.6875 32.796875 36.59375 37.40625 33.484375 
z
" id="CMSS17-99"/>
     <path d="M 16.703125 37.1875 
L 29.703125 37.1875 
L 29.703125 43 
L 16.703125 43 
L 16.703125 55 
L 9.59375 55 
L 9.59375 43 
L 1.703125 43 
L 1.703125 37.1875 
L 9.40625 37.1875 
L 9.40625 11.734375 
C 9.40625 6 10.703125 -1 17.296875 -1 
C 22.296875 -1 26.90625 0.390625 31.296875 2.6875 
L 29.703125 8.609375 
C 27.296875 6.5 24.40625 5.296875 21.296875 5.296875 
C 16.90625 5.296875 16.703125 10.921875 16.703125 13.4375 
z
" id="CMSS17-116"/>
     <path d="M 44.203125 21.1875 
C 44.203125 33.984375 34.703125 44 23.5 44 
C 12 44 2.703125 33.6875 2.703125 21.1875 
C 2.703125 8.5 12.296875 -1 23.40625 -1 
C 34.796875 -1 44.203125 8.796875 44.203125 21.1875 
z
M 23.5 5.296875 
C 16.40625 5.296875 10.296875 11.09375 10.296875 21.984375 
C 10.296875 33.59375 17.40625 37.890625 23.40625 37.890625 
C 29.90625 37.890625 36.59375 33.1875 36.59375 21.984375 
C 36.59375 10.6875 30.09375 5.296875 23.5 5.296875 
z
" id="CMSS17-111"/>
     <path d="M 40.90625 29.34375 
C 40.90625 35.671875 39.40625 44 28.09375 44 
C 21.703125 44 17.5 40.6875 14.703125 37.28125 
L 14.703125 43.484375 
L 7.40625 43.484375 
L 7.40625 0 
L 15 0 
L 15 24.3125 
C 15 30.65625 17.40625 37.890625 24.203125 37.890625 
C 33 37.890625 33.296875 31.953125 33.296875 28.53125 
L 33.296875 0 
L 40.90625 0 
z
" id="CMSS17-110"/>
    </defs>
    <g transform="translate(133.547769 319.770473)scale(0.144 -0.144)">
     <use transform="scale(0.996264)" xlink:href="#CMSS17-80"/>
     <use transform="translate(59.735586 0)scale(0.996264)" xlink:href="#CMSS17-114"/>
     <use transform="translate(91.645359 0)scale(0.996264)" xlink:href="#CMSS17-101"/>
     <use transform="translate(133.284181 0)scale(0.996264)" xlink:href="#CMSS17-100"/>
     <use transform="translate(181.489124 0)scale(0.996264)" xlink:href="#CMSS17-105"/>
     <use transform="translate(203.669847 0)scale(0.996264)" xlink:href="#CMSS17-99"/>
     <use transform="translate(245.308669 0)scale(0.996264)" xlink:href="#CMSS17-116"/>
     <use transform="translate(279.140236 0)scale(0.996264)" xlink:href="#CMSS17-105"/>
     <use transform="translate(301.320959 0)scale(0.996264)" xlink:href="#CMSS17-111"/>
     <use transform="translate(348.164582 0)scale(0.996264)" xlink:href="#CMSS17-110"/>
    </g>
   </g>
   <g id="line2d_78">
    <path d="M 221.657903 314.730473 
L 250.457903 314.730473 
" style="fill:none;stroke:#ff7f0e;stroke-linecap:square;stroke-width:1.5;"/>
   </g>
   <g id="line2d_79"/>
   <g id="text_36">
    <!-- Ground truth -->
    <defs>
     <path d="M 56.40625 29.1875 
L 36.5 29.1875 
L 36.5 23 
L 48.796875 23 
L 48.796875 7.390625 
C 44.90625 6.296875 40.90625 5.5 36.90625 5.5 
C 22.90625 5.5 14.59375 20.484375 14.59375 34.6875 
C 14.59375 48.796875 23.296875 63.59375 36.90625 63.59375 
C 44.59375 63.59375 48.90625 61.1875 54.203125 57.1875 
L 55.5 65.1875 
C 48.90625 68.59375 44.796875 70 37.296875 70 
C 17.90625 70 6.203125 52.390625 6.203125 34.390625 
C 6.203125 17.1875 18 -1 36.703125 -1 
C 43.703125 -1 50.203125 0.796875 56.40625 3.890625 
z
" id="CMSS17-71"/>
     <path d="M 40.90625 43 
L 33.296875 43 
L 33.296875 15.25 
C 33.296875 7.8125 27.90625 4.796875 22.203125 4.796875 
C 15.59375 4.796875 15 7 15 11.125 
L 15 43 
L 7.40625 43 
L 7.40625 10.625 
C 7.40625 2.796875 10.09375 -1 17 -1 
C 20.40625 -1 28.09375 -0.203125 33.5 4.796875 
L 33.5 -0.203125 
L 40.90625 -0.203125 
z
" id="CMSS17-117"/>
     <path d="M 40.90625 29.34375 
C 40.90625 35.671875 39.40625 44 28.09375 44 
C 21.796875 44 17.703125 40.890625 14.796875 37.484375 
L 14.796875 69 
L 7.40625 69 
L 7.40625 0 
L 15 0 
L 15 24.3125 
C 15 30.65625 17.40625 37.890625 24.203125 37.890625 
C 33 37.890625 33.296875 31.953125 33.296875 28.53125 
L 33.296875 0 
L 40.90625 0 
z
" id="CMSS17-104"/>
    </defs>
    <g transform="translate(261.977903 319.770473)scale(0.144 -0.144)">
     <use transform="scale(0.996264)" xlink:href="#CMSS17-71"/>
     <use transform="translate(62.458226 0)scale(0.996264)" xlink:href="#CMSS17-114"/>
     <use transform="translate(94.367998 0)scale(0.996264)" xlink:href="#CMSS17-111"/>
     <use transform="translate(141.211622 0)scale(0.996264)" xlink:href="#CMSS17-117"/>
     <use transform="translate(189.416565 0)scale(0.996264)" xlink:href="#CMSS17-110"/>
     <use transform="translate(237.621508 0)scale(0.996264)" xlink:href="#CMSS17-100"/>
     <use transform="translate(317.055564 0)scale(0.996264)" xlink:href="#CMSS17-116"/>
     <use transform="translate(350.88713 0)scale(0.996264)" xlink:href="#CMSS17-114"/>
     <use transform="translate(382.796903 0)scale(0.996264)" xlink:href="#CMSS17-117"/>
     <use transform="translate(431.001846 0)scale(0.996264)" xlink:href="#CMSS17-116"/>
     <use transform="translate(464.833413 0)scale(0.996264)" xlink:href="#CMSS17-104"/>
    </g>
   </g>
  </g>
 </g>
 <defs>
  <clipPath id="p0ecc026515">
   <rect height="52.34112" width="349.92" x="60.48" y="16.776"/>
  </clipPath>
  <clipPath id="pa3ecfd4635">
   <rect height="52.34112" width="349.92" x="60.48" y="69.11712"/>
  </clipPath>
  <clipPath id="p0b17023683">
   <rect height="52.34112" width="349.92" x="60.48" y="121.45824"/>
  </clipPath>
  <clipPath id="p90240373e8">
   <rect height="52.34112" width="349.92" x="60.48" y="173.79936"/>
  </clipPath>
  <clipPath id="p49737c44d5">
   <rect height="52.34112" width="349.92" x="60.48" y="226.14048"/>
  </clipPath>
 </defs>
</svg>
