<?xml version="1.0" encoding="utf-8" standalone="no"?>
<!DOCTYPE svg PUBLIC "-//W3C//DTD SVG 1.1//EN"
  "http://www.w3.org/Graphics/SVG/1.1/DTD/svg11.dtd">
<!-- Created with matplotlib (http://matplotlib.org/) -->
<svg height="335.52pt" version="1.1" viewBox="0 0 432 335.52" width="432pt" xmlns="http://www.w3.org/2000/svg" xmlns:xlink="http://www.w3.org/1999/xlink">
 <defs>
  <style type="text/css">
*{stroke-linecap:butt;stroke-linejoin:round;}
  </style>
 </defs>
 <g id="figure_1">
  <g id="patch_1">
   <path d="M 0 335.52 
L 432 335.52 
L 432 0 
L 0 0 
z
" style="fill:#ffffff;"/>
  </g>
  <g id="axes_1">
   <g id="patch_2">
    <path d="M 60.48 69.11712 
L 410.4 69.11712 
L 410.4 16.776 
L 60.48 16.776 
z
" style="fill:#ffffff;"/>
   </g>
   <g id="matplotlib.axis_1">
    <g id="xtick_1">
     <g id="line2d_1">
      <defs>
       <path d="M 0 0 
L 0 3.5 
" id="m9a3cd52f0e" style="stroke:#000000;stroke-width:0.8;"/>
      </defs>
      <g>
       <use style="stroke:#000000;stroke-width:0.8;" x="76.385455" xlink:href="#m9a3cd52f0e" y="69.11712"/>
      </g>
     </g>
    </g>
    <g id="xtick_2">
     <g id="line2d_2">
      <g>
       <use style="stroke:#000000;stroke-width:0.8;" x="116.652428" xlink:href="#m9a3cd52f0e" y="69.11712"/>
      </g>
     </g>
    </g>
    <g id="xtick_3">
     <g id="line2d_3">
      <g>
       <use style="stroke:#000000;stroke-width:0.8;" x="156.919402" xlink:href="#m9a3cd52f0e" y="69.11712"/>
      </g>
     </g>
    </g>
    <g id="xtick_4">
     <g id="line2d_4">
      <g>
       <use style="stroke:#000000;stroke-width:0.8;" x="197.186375" xlink:href="#m9a3cd52f0e" y="69.11712"/>
      </g>
     </g>
    </g>
    <g id="xtick_5">
     <g id="line2d_5">
      <g>
       <use style="stroke:#000000;stroke-width:0.8;" x="237.453349" xlink:href="#m9a3cd52f0e" y="69.11712"/>
      </g>
     </g>
    </g>
    <g id="xtick_6">
     <g id="line2d_6">
      <g>
       <use style="stroke:#000000;stroke-width:0.8;" x="277.720322" xlink:href="#m9a3cd52f0e" y="69.11712"/>
      </g>
     </g>
    </g>
    <g id="xtick_7">
     <g id="line2d_7">
      <g>
       <use style="stroke:#000000;stroke-width:0.8;" x="317.987296" xlink:href="#m9a3cd52f0e" y="69.11712"/>
      </g>
     </g>
    </g>
    <g id="xtick_8">
     <g id="line2d_8">
      <g>
       <use style="stroke:#000000;stroke-width:0.8;" x="358.254269" xlink:href="#m9a3cd52f0e" y="69.11712"/>
      </g>
     </g>
    </g>
    <g id="xtick_9">
     <g id="line2d_9">
      <g>
       <use style="stroke:#000000;stroke-width:0.8;" x="398.521243" xlink:href="#m9a3cd52f0e" y="69.11712"/>
      </g>
     </g>
    </g>
   </g>
   <g id="matplotlib.axis_2">
    <g id="ytick_1">
     <g id="line2d_10">
      <defs>
       <path d="M 0 0 
L -3.5 0 
" id="mde2b6831bf" style="stroke:#000000;stroke-width:0.8;"/>
      </defs>
      <g>
       <use style="stroke:#000000;stroke-width:0.8;" x="60.48" xlink:href="#mde2b6831bf" y="63.07776"/>
      </g>
     </g>
     <g id="text_1">
      <!-- -9.51 -->
      <defs>
       <path d="M 26 19 
L 26 24.796875 
L 1 24.796875 
L 1 19 
z
" id="CMSS17-45"/>
       <path d="M 6.796875 2.6875 
C 9.59375 0.296875 13.203125 -2 19.296875 -2 
C 31.40625 -2 43 11.53125 43 33.375 
C 43 62.296875 30.5 67 23.796875 67 
C 17.09375 67 12.796875 63.984375 9.09375 59.203125 
C 4.703125 53.71875 3.90625 48.828125 3.90625 43.140625 
C 3.90625 36.359375 5.09375 32.171875 7.90625 27.390625 
C 11.703125 21.1875 15.203125 19.890625 19.09375 19.890625 
C 25 19.890625 30.90625 22.796875 34.90625 27.78125 
C 34.203125 14.1875 28.09375 4.1875 19.296875 4.1875 
C 15.703125 4.1875 12.796875 5.3125 9.90625 8.0625 
z
M 34.59375 43.34375 
C 34.703125 42.640625 34.703125 41.34375 34.703125 40.953125 
C 34.703125 32.578125 29.90625 26 22.90625 26 
C 18.296875 26 15.90625 28.390625 14.09375 31.484375 
C 11.90625 35.359375 11.796875 39.15625 11.796875 43.140625 
C 11.796875 47.03125 11.796875 51.3125 14.59375 55.609375 
C 16.703125 58.703125 19.296875 60.890625 23.796875 60.890625 
C 33 60.890625 34.5 47.4375 34.59375 43.34375 
z
" id="CMSS17-57"/>
       <path d="M 17 8 
L 9 8 
L 9 0 
L 17 0 
z
" id="CMSS17-46"/>
       <path d="M 14.59375 59.59375 
L 39.09375 59.59375 
L 39.09375 66 
L 7.296875 66 
L 7.296875 28.59375 
L 14 28.59375 
C 15.796875 32.859375 19.5 36 24.296875 36 
C 28.796875 36 33.796875 31.9375 33.796875 20.296875 
C 33.796875 7.84375 26.703125 4.1875 21.5 4.1875 
C 15.09375 4.1875 9.203125 8.140625 6.59375 13.609375 
L 3.40625 7.9375 
C 8 0.796875 15.5 -2 21.5 -2 
C 33.09375 -2 42.203125 7.9375 42.203125 20.09375 
C 42.203125 32.546875 34.09375 42.09375 24.40625 42.09375 
C 20.90625 42.09375 17.5 40.890625 14.59375 38.5 
z
" id="CMSS17-53"/>
       <path d="M 28.40625 67 
L 26.5 67 
C 21.09375 61.703125 14.796875 60.96875 8.40625 60.796875 
L 8.40625 55 
C 11.296875 55.09375 16 55.296875 20.703125 57.390625 
L 20.703125 5.796875 
L 8.90625 5.796875 
L 8.90625 0 
L 40.203125 0 
L 40.203125 5.796875 
L 28.40625 5.796875 
z
" id="CMSS17-49"/>
      </defs>
      <g transform="translate(23.824925 68.059072)scale(0.144 -0.144)">
       <use transform="scale(0.996264)" xlink:href="#CMSS17-45"/>
       <use transform="translate(31.229113 0)scale(0.996264)" xlink:href="#CMSS17-57"/>
       <use transform="translate(78.072736 0)scale(0.996264)" xlink:href="#CMSS17-46"/>
       <use transform="translate(104.096941 0)scale(0.996264)" xlink:href="#CMSS17-53"/>
       <use transform="translate(150.940565 0)scale(0.996264)" xlink:href="#CMSS17-49"/>
      </g>
     </g>
    </g>
    <g id="ytick_2">
     <g id="line2d_11">
      <g>
       <use style="stroke:#000000;stroke-width:0.8;" x="60.48" xlink:href="#mde2b6831bf" y="49.65696"/>
      </g>
     </g>
     <g id="text_2">
      <!-- -9.16 -->
      <defs>
       <path d="M 39 64.984375 
C 34.796875 66.6875 31.796875 67 29 67 
C 16 67 3.90625 53.25 3.90625 31.609375 
C 3.90625 4.1875 15.40625 -2 23.59375 -2 
C 28.09375 -2 32.59375 -0.609375 36.90625 4.390625 
C 41.296875 9.671875 43 14.0625 43 21.75 
C 43 34.109375 36.90625 45.09375 27.796875 45.09375 
C 21.203125 45.09375 15.5 41.59375 12 37.203125 
C 13 51.40625 19.59375 60.890625 29.09375 60.890625 
C 31.703125 60.890625 35.09375 60.484375 39 58.75 
z
M 12.09375 21.4375 
C 12.09375 22.234375 12.09375 22.734375 12.203125 24.234375 
C 12.203125 32.015625 16.703125 39 24 39 
C 28.703125 39 31.09375 36.5 32.90625 33.40625 
C 35 29.515625 35.09375 25.828125 35.09375 21.75 
C 35.09375 17.859375 35.09375 13.96875 32.796875 9.96875 
C 30.90625 6.890625 28.40625 4.1875 23.59375 4.1875 
C 14.09375 4.1875 12.5 17.453125 12.09375 21.4375 
z
" id="CMSS17-54"/>
      </defs>
      <g transform="translate(23.824925 54.638272)scale(0.144 -0.144)">
       <use transform="scale(0.996264)" xlink:href="#CMSS17-45"/>
       <use transform="translate(31.229113 0)scale(0.996264)" xlink:href="#CMSS17-57"/>
       <use transform="translate(78.072736 0)scale(0.996264)" xlink:href="#CMSS17-46"/>
       <use transform="translate(104.096941 0)scale(0.996264)" xlink:href="#CMSS17-49"/>
       <use transform="translate(150.940565 0)scale(0.996264)" xlink:href="#CMSS17-54"/>
      </g>
     </g>
    </g>
    <g id="ytick_3">
     <g id="line2d_12">
      <g>
       <use style="stroke:#000000;stroke-width:0.8;" x="60.48" xlink:href="#mde2b6831bf" y="36.23616"/>
      </g>
     </g>
     <g id="text_3">
      <!-- -8.81 -->
      <defs>
       <path d="M 30.203125 35.09375 
C 37.796875 37.59375 41.703125 43.640625 41.703125 49.59375 
C 41.703125 58.96875 33.703125 67 23.5 67 
C 12.90625 67 5.203125 58.671875 5.203125 49.59375 
C 5.203125 43.734375 9 37.6875 16.703125 35.09375 
C 6.90625 31.296875 3.90625 23.6875 3.90625 18 
C 3.90625 7 12.796875 -2 23.40625 -2 
C 34.40625 -2 43 7.1875 43 18 
C 43 24.59375 39.09375 31.59375 30.203125 35.09375 
z
M 23.5 38.09375 
C 16.796875 38.09375 12.296875 42.625 12.296875 49.484375 
C 12.296875 56.453125 16.796875 60.890625 23.5 60.890625 
C 29.703125 60.890625 34.59375 56.859375 34.59375 49.484375 
C 34.59375 42.234375 29.796875 38.09375 23.5 38.09375 
z
M 23.5 4.1875 
C 17.796875 4.1875 11.703125 8.09375 11.703125 18.09375 
C 11.703125 28.390625 18.5 32 23.40625 32 
C 28.796875 32 35.203125 28.1875 35.203125 18.09375 
C 35.203125 7.6875 28.59375 4.1875 23.5 4.1875 
z
" id="CMSS17-56"/>
      </defs>
      <g transform="translate(23.824925 41.217472)scale(0.144 -0.144)">
       <use transform="scale(0.996264)" xlink:href="#CMSS17-45"/>
       <use transform="translate(31.229113 0)scale(0.996264)" xlink:href="#CMSS17-56"/>
       <use transform="translate(78.072736 0)scale(0.996264)" xlink:href="#CMSS17-46"/>
       <use transform="translate(104.096941 0)scale(0.996264)" xlink:href="#CMSS17-56"/>
       <use transform="translate(150.940565 0)scale(0.996264)" xlink:href="#CMSS17-49"/>
      </g>
     </g>
    </g>
    <g id="ytick_4">
     <g id="line2d_13">
      <g>
       <use style="stroke:#000000;stroke-width:0.8;" x="60.48" xlink:href="#mde2b6831bf" y="22.81536"/>
      </g>
     </g>
     <g id="text_4">
      <!-- -8.47 -->
      <defs>
       <path d="M 35.203125 17 
L 44.296875 17 
L 44.296875 23.09375 
L 35.203125 23.09375 
L 35.203125 66 
L 26.40625 66 
L 2.59375 23.09375 
L 2.59375 17 
L 27.296875 17 
L 27.296875 0 
L 35.203125 0 
z
M 10.296875 23.09375 
C 16.09375 33.421875 27.59375 54.28125 27.59375 61.359375 
L 27.59375 23.09375 
z
" id="CMSS17-52"/>
       <path d="M 21.703125 59.1875 
C 22.90625 59.1875 24.09375 59.296875 25.296875 59.296875 
L 36.796875 59.296875 
C 22.5 42.421875 14.296875 21.09375 14.296875 -1 
L 22.296875 -1 
C 22.296875 20.390625 29.296875 42.109375 43 59.484375 
L 43 66 
L 3.90625 66 
L 3.90625 59.1875 
z
" id="CMSS17-55"/>
      </defs>
      <g transform="translate(23.824925 27.796672)scale(0.144 -0.144)">
       <use transform="scale(0.996264)" xlink:href="#CMSS17-45"/>
       <use transform="translate(31.229113 0)scale(0.996264)" xlink:href="#CMSS17-56"/>
       <use transform="translate(78.072736 0)scale(0.996264)" xlink:href="#CMSS17-46"/>
       <use transform="translate(104.096941 0)scale(0.996264)" xlink:href="#CMSS17-52"/>
       <use transform="translate(150.940565 0)scale(0.996264)" xlink:href="#CMSS17-55"/>
      </g>
     </g>
    </g>
    <g id="text_5">
     <!-- $s_{1}$ -->
     <defs>
      <path d="M 22.796875 20.15625 
C 24.5 19.859375 27.203125 19.265625 27.796875 19.171875 
C 29.09375 18.765625 33.59375 17.171875 33.59375 12.390625 
C 33.59375 9.296875 30.796875 1 19.203125 1 
C 17.09375 1 9.59375 1.296875 7.59375 6.984375 
C 11.59375 6.46875 13.59375 9.59375 13.59375 11.796875 
C 13.59375 13.890625 12.203125 15 10.203125 15 
C 8 15 5.09375 13.296875 5.09375 8.796875 
C 5.09375 2.75 11.09375 -1 19.09375 -1 
C 34.296875 -1 38.796875 10.390625 38.796875 15.59375 
C 38.796875 17.078125 38.796875 19.859375 35.59375 23.046875 
C 33.09375 25.421875 30.703125 25.921875 25.296875 27.015625 
C 22.59375 27.609375 18.296875 28.5 18.296875 32.984375 
C 18.296875 34.984375 20.09375 41.984375 29.59375 41.984375 
C 33.796875 41.984375 37.90625 40.453125 38.90625 37 
C 34.5 37 34.296875 33.1875 34.296875 33.09375 
C 34.296875 30.984375 36.203125 30.390625 37.09375 30.390625 
C 38.5 30.390625 41.296875 31.484375 41.296875 35.6875 
C 41.296875 39.78125 37.5 44 29.703125 44 
C 16.59375 44 13.09375 33.890625 13.09375 29.796875 
C 13.09375 22.25 20.5 20.65625 22.796875 20.15625 
z
" id="CMMI12-115"/>
      <path d="M 26.59375 63.796875 
C 26.59375 65.890625 26.5 66 25.09375 66 
C 21.203125 61.359375 15.296875 59.890625 9.703125 59.6875 
C 9.40625 59.6875 8.90625 59.6875 8.796875 59.5 
C 8.703125 59.296875 8.703125 59.09375 8.703125 57 
C 11.796875 57 17 57.59375 21 59.984375 
L 21 7.296875 
C 21 3.796875 20.796875 2.59375 12.203125 2.59375 
L 9.203125 2.59375 
L 9.203125 0 
C 14 0.09375 19 0.1875 23.796875 0.1875 
C 28.59375 0.1875 33.59375 0.09375 38.40625 0 
L 38.40625 2.59375 
L 35.40625 2.59375 
C 26.796875 2.59375 26.59375 3.6875 26.59375 7.296875 
z
" id="CMR17-49"/>
     </defs>
     <g transform="translate(17.035398 48.74563)rotate(-90)scale(0.144 -0.144)">
      <use transform="translate(0 14.943915)scale(0.996264)" xlink:href="#CMMI12-115"/>
      <use transform="translate(45.950048 0)scale(0.697382)" xlink:href="#CMR17-49"/>
     </g>
    </g>
   </g>
   <g id="line2d_14">
    <path clip-path="url(#p72f046f71b)" d="M 76.385455 22.815361 
L 80.412152 22.824338 
L 84.438849 22.815361 
L 88.465547 22.815361 
L 92.492244 22.815361 
L 96.518941 22.815361 
L 100.545639 22.815361 
L 104.572336 22.815361 
L 108.599033 22.824338 
L 112.625731 22.832997 
L 116.652428 22.81536 
L 120.679125 22.81536 
L 124.705823 22.81536 
L 128.73252 22.81536 
L 132.759217 22.81536 
L 136.785915 22.81536 
L 140.812612 22.81536 
L 144.83931 22.81536 
L 148.866007 22.81536 
L 152.892704 22.81536 
L 156.919402 22.81536 
L 160.946099 22.81536 
L 164.972796 22.832997 
L 168.999494 22.818842 
L 173.026191 22.815361 
L 177.052888 22.815361 
L 181.079586 22.818842 
L 185.106283 22.815361 
L 189.13298 22.815361 
L 193.159678 22.846593 
L 197.186375 22.815361 
L 201.213072 22.846593 
L 205.23977 22.832997 
L 209.266467 22.815361 
L 213.293165 22.818842 
L 217.319862 22.815361 
L 221.346559 22.832997 
L 225.373257 22.824338 
L 229.399954 22.818842 
L 233.426651 22.815361 
L 237.453349 22.832997 
L 241.480046 22.824338 
L 245.506743 22.818842 
L 249.533441 22.815361 
L 253.560138 22.815361 
L 257.586835 22.832997 
L 261.613533 22.832997 
L 265.64023 22.832997 
L 269.666928 22.832997 
L 273.693625 22.824338 
L 277.720322 22.818842 
L 281.74702 22.818842 
L 285.773717 22.815361 
L 289.800414 22.815361 
L 293.827112 22.815361 
L 297.853809 22.832997 
L 301.880506 22.832997 
L 305.907204 22.824338 
L 309.933901 22.846593 
L 313.960598 22.824338 
L 317.987296 22.815361 
L 322.013993 22.846593 
L 326.04069 22.815361 
L 330.067388 22.846593 
L 334.094085 22.832997 
L 338.120783 22.818842 
L 342.14748 22.846592 
L 346.174177 22.824337 
L 350.200875 22.81536 
L 354.227572 22.846623 
L 358.254269 22.824369 
L 362.280967 22.815393 
L 366.307664 22.845858 
L 370.334361 22.832273 
L 374.361059 22.823628 
L 378.387756 22.818146 
L 382.414453 22.853332 
L 386.441151 22.837558 
L 390.467848 22.837558 
L 394.494545 22.827041 
" style="fill:none;stroke:#1f77b4;stroke-linecap:square;stroke-width:1.5;"/>
   </g>
   <g id="line2d_15">
    <path clip-path="url(#p72f046f71b)" d="M 76.385455 63.051597 
L 80.412152 63.051597 
L 84.438849 63.051597 
L 88.465547 63.051597 
L 92.492244 63.051597 
L 96.518941 63.051597 
L 100.545639 63.051597 
L 104.572336 63.051597 
L 108.599033 63.051597 
L 112.625731 63.051597 
L 116.652428 63.051596 
L 120.679125 63.051596 
L 124.705823 63.051596 
L 128.73252 63.051596 
L 132.759217 63.051597 
L 136.785915 63.051597 
L 140.812612 63.051597 
L 144.83931 63.051597 
L 148.866007 63.051596 
L 152.892704 63.051596 
L 156.919402 63.051596 
L 160.946099 63.051597 
L 164.972796 63.051597 
L 168.999494 63.051597 
L 173.026191 63.051597 
L 177.052888 63.051597 
L 181.079586 63.051597 
L 185.106283 63.051597 
L 189.13298 63.051597 
L 193.159678 63.051597 
L 197.186375 63.051597 
L 201.213072 63.051597 
L 205.23977 63.051597 
L 209.266467 63.051597 
L 213.293165 63.051597 
L 217.319862 63.051597 
L 221.346559 63.051597 
L 225.373257 63.051597 
L 229.399954 63.051597 
L 233.426651 63.051597 
L 237.453349 63.051597 
L 241.480046 63.051597 
L 245.506743 63.051597 
L 249.533441 63.051597 
L 253.560138 63.051597 
L 257.586835 63.051597 
L 261.613533 63.051597 
L 265.64023 63.051597 
L 269.666928 63.051597 
L 273.693625 63.051597 
L 277.720322 63.051597 
L 281.74702 63.051597 
L 285.773717 63.051597 
L 289.800414 63.051597 
L 293.827112 63.051597 
L 297.853809 63.051597 
L 301.880506 63.051597 
L 305.907204 63.051597 
L 309.933901 63.051597 
L 313.960598 63.051597 
L 317.987296 63.051597 
L 322.013993 63.051597 
L 326.04069 63.051597 
L 330.067388 63.051597 
L 334.094085 63.051597 
L 338.120783 63.051597 
L 342.14748 63.051597 
L 346.174177 63.051596 
L 350.200875 63.051597 
L 354.227572 63.051613 
L 358.254269 63.051637 
L 362.280967 63.051518 
L 366.307664 63.050969 
L 370.334361 63.050649 
L 374.361059 63.054201 
L 378.387756 63.065952 
L 382.414453 63.07776 
L 386.441151 63.056215 
L 390.467848 62.960052 
L 394.494545 62.787899 
" style="fill:none;stroke:#ff7f0e;stroke-linecap:square;stroke-width:1.5;"/>
   </g>
   <g id="patch_3">
    <path d="M 60.48 69.11712 
L 60.48 16.776 
" style="fill:none;stroke:#000000;stroke-linecap:square;stroke-linejoin:miter;stroke-width:0.8;"/>
   </g>
   <g id="patch_4">
    <path d="M 410.4 69.11712 
L 410.4 16.776 
" style="fill:none;stroke:#000000;stroke-linecap:square;stroke-linejoin:miter;stroke-width:0.8;"/>
   </g>
   <g id="patch_5">
    <path d="M 60.48 69.11712 
L 410.4 69.11712 
" style="fill:none;stroke:#000000;stroke-linecap:square;stroke-linejoin:miter;stroke-width:0.8;"/>
   </g>
   <g id="patch_6">
    <path d="M 60.48 16.776 
L 410.4 16.776 
" style="fill:none;stroke:#000000;stroke-linecap:square;stroke-linejoin:miter;stroke-width:0.8;"/>
   </g>
  </g>
  <g id="axes_2">
   <g id="patch_7">
    <path d="M 60.48 121.45824 
L 410.4 121.45824 
L 410.4 69.11712 
L 60.48 69.11712 
z
" style="fill:#ffffff;"/>
   </g>
   <g id="matplotlib.axis_3">
    <g id="xtick_10">
     <g id="line2d_16">
      <g>
       <use style="stroke:#000000;stroke-width:0.8;" x="76.385455" xlink:href="#m9a3cd52f0e" y="121.45824"/>
      </g>
     </g>
    </g>
    <g id="xtick_11">
     <g id="line2d_17">
      <g>
       <use style="stroke:#000000;stroke-width:0.8;" x="116.652428" xlink:href="#m9a3cd52f0e" y="121.45824"/>
      </g>
     </g>
    </g>
    <g id="xtick_12">
     <g id="line2d_18">
      <g>
       <use style="stroke:#000000;stroke-width:0.8;" x="156.919402" xlink:href="#m9a3cd52f0e" y="121.45824"/>
      </g>
     </g>
    </g>
    <g id="xtick_13">
     <g id="line2d_19">
      <g>
       <use style="stroke:#000000;stroke-width:0.8;" x="197.186375" xlink:href="#m9a3cd52f0e" y="121.45824"/>
      </g>
     </g>
    </g>
    <g id="xtick_14">
     <g id="line2d_20">
      <g>
       <use style="stroke:#000000;stroke-width:0.8;" x="237.453349" xlink:href="#m9a3cd52f0e" y="121.45824"/>
      </g>
     </g>
    </g>
    <g id="xtick_15">
     <g id="line2d_21">
      <g>
       <use style="stroke:#000000;stroke-width:0.8;" x="277.720322" xlink:href="#m9a3cd52f0e" y="121.45824"/>
      </g>
     </g>
    </g>
    <g id="xtick_16">
     <g id="line2d_22">
      <g>
       <use style="stroke:#000000;stroke-width:0.8;" x="317.987296" xlink:href="#m9a3cd52f0e" y="121.45824"/>
      </g>
     </g>
    </g>
    <g id="xtick_17">
     <g id="line2d_23">
      <g>
       <use style="stroke:#000000;stroke-width:0.8;" x="358.254269" xlink:href="#m9a3cd52f0e" y="121.45824"/>
      </g>
     </g>
    </g>
    <g id="xtick_18">
     <g id="line2d_24">
      <g>
       <use style="stroke:#000000;stroke-width:0.8;" x="398.521243" xlink:href="#m9a3cd52f0e" y="121.45824"/>
      </g>
     </g>
    </g>
   </g>
   <g id="matplotlib.axis_4">
    <g id="ytick_5">
     <g id="line2d_25">
      <g>
       <use style="stroke:#000000;stroke-width:0.8;" x="60.48" xlink:href="#mde2b6831bf" y="115.41888"/>
      </g>
     </g>
     <g id="text_6">
      <!-- 40.96 -->
      <defs>
       <path d="M 43.09375 32.390625 
C 43.09375 38.109375 43 48.75 38.90625 56.984375 
C 34.796875 64.890625 28.203125 67 23.5 67 
C 16.703125 67 10.90625 62.984375 7.90625 56.578125 
C 4.703125 49.859375 3.796875 42.9375 3.796875 32.390625 
C 3.796875 25.171875 4.09375 16.34375 7.703125 8.609375 
C 11.796875 0.09375 18.703125 -2 23.40625 -2 
C 29.59375 -2 35.59375 1.296875 39 8.203125 
C 42.5 15.4375 43.09375 23.359375 43.09375 32.390625 
z
M 23.40625 4.09375 
C 15.796875 4.09375 13.5 12.828125 12.796875 15.734375 
C 11.59375 20.75 11.40625 25.5625 11.40625 33.5 
C 11.40625 39.71875 11.40625 46.75 13.296875 52.265625 
C 15.59375 58.6875 19.59375 60.890625 23.40625 60.890625 
C 30.796875 60.890625 33.203125 53.46875 34 50.859375 
C 35.5 45.546875 35.5 39.3125 35.5 33.5 
C 35.5 24.15625 35.5 4.09375 23.40625 4.09375 
z
" id="CMSS17-48"/>
      </defs>
      <g transform="translate(21.483729 120.400192)scale(0.144 -0.144)">
       <use transform="scale(0.996264)" xlink:href="#CMSS17-52"/>
       <use transform="translate(46.843624 0)scale(0.996264)" xlink:href="#CMSS17-48"/>
       <use transform="translate(93.687247 0)scale(0.996264)" xlink:href="#CMSS17-46"/>
       <use transform="translate(119.711452 0)scale(0.996264)" xlink:href="#CMSS17-57"/>
       <use transform="translate(166.555075 0)scale(0.996264)" xlink:href="#CMSS17-54"/>
      </g>
     </g>
    </g>
    <g id="ytick_6">
     <g id="line2d_26">
      <g>
       <use style="stroke:#000000;stroke-width:0.8;" x="60.48" xlink:href="#mde2b6831bf" y="101.99808"/>
      </g>
     </g>
     <g id="text_7">
      <!-- 44.06 -->
      <g transform="translate(21.483729 106.979392)scale(0.144 -0.144)">
       <use transform="scale(0.996264)" xlink:href="#CMSS17-52"/>
       <use transform="translate(46.843624 0)scale(0.996264)" xlink:href="#CMSS17-52"/>
       <use transform="translate(93.687247 0)scale(0.996264)" xlink:href="#CMSS17-46"/>
       <use transform="translate(119.711452 0)scale(0.996264)" xlink:href="#CMSS17-48"/>
       <use transform="translate(166.555075 0)scale(0.996264)" xlink:href="#CMSS17-54"/>
      </g>
     </g>
    </g>
    <g id="ytick_7">
     <g id="line2d_27">
      <g>
       <use style="stroke:#000000;stroke-width:0.8;" x="60.48" xlink:href="#mde2b6831bf" y="88.57728"/>
      </g>
     </g>
     <g id="text_8">
      <!-- 47.16 -->
      <g transform="translate(21.483729 93.558592)scale(0.144 -0.144)">
       <use transform="scale(0.996264)" xlink:href="#CMSS17-52"/>
       <use transform="translate(46.843624 0)scale(0.996264)" xlink:href="#CMSS17-55"/>
       <use transform="translate(93.687247 0)scale(0.996264)" xlink:href="#CMSS17-46"/>
       <use transform="translate(119.711452 0)scale(0.996264)" xlink:href="#CMSS17-49"/>
       <use transform="translate(166.555075 0)scale(0.996264)" xlink:href="#CMSS17-54"/>
      </g>
     </g>
    </g>
    <g id="ytick_8">
     <g id="line2d_28">
      <g>
       <use style="stroke:#000000;stroke-width:0.8;" x="60.48" xlink:href="#mde2b6831bf" y="75.15648"/>
      </g>
     </g>
     <g id="text_9">
      <!-- 50.25 -->
      <defs>
       <path d="M 25.796875 21.140625 
C 28.59375 24.03125 32.796875 27.515625 35.703125 31 
C 38.5 34.390625 42.203125 39.171875 42.203125 46.140625 
C 42.203125 57.109375 34.796875 67 22.203125 67 
C 12.296875 67 6.59375 60.796875 3.90625 51.125 
L 7.796875 45.75 
C 10 54.8125 13.09375 60.59375 20.90625 60.59375 
C 29.5 60.59375 34.296875 53.609375 34.296875 45.9375 
C 34.296875 36.78125 27.296875 29.703125 22 24.421875 
C 16.09375 18.546875 10.296875 12.578125 4.703125 6.390625 
L 4.703125 0 
L 42.203125 0 
L 42.203125 6.796875 
L 25.203125 6.796875 
C 24 6.796875 22.796875 6.6875 21.59375 6.6875 
L 11.59375 6.6875 
L 11.59375 6.796875 
z
" id="CMSS17-50"/>
      </defs>
      <g transform="translate(21.483729 80.137792)scale(0.144 -0.144)">
       <use transform="scale(0.996264)" xlink:href="#CMSS17-53"/>
       <use transform="translate(46.843624 0)scale(0.996264)" xlink:href="#CMSS17-48"/>
       <use transform="translate(93.687247 0)scale(0.996264)" xlink:href="#CMSS17-46"/>
       <use transform="translate(119.711452 0)scale(0.996264)" xlink:href="#CMSS17-50"/>
       <use transform="translate(166.555075 0)scale(0.996264)" xlink:href="#CMSS17-53"/>
      </g>
     </g>
    </g>
    <g id="text_10">
     <!-- $s_{25}$ -->
     <defs>
      <path d="M 41.703125 15.46875 
L 39.90625 15.46875 
C 38.90625 8.390625 38.09375 7.1875 37.703125 6.59375 
C 37.203125 5.796875 30 5.796875 28.59375 5.796875 
L 9.40625 5.796875 
C 13 9.6875 20 16.765625 28.5 24.9375 
C 34.59375 30.71875 41.703125 37.5 41.703125 47.390625 
C 41.703125 59.1875 32.296875 66 21.796875 66 
C 10.796875 66 4.09375 56.296875 4.09375 47.296875 
C 4.09375 43.390625 7 42.890625 8.203125 42.890625 
C 9.203125 42.890625 12.203125 43.484375 12.203125 46.984375 
C 12.203125 50.09375 9.59375 51 8.203125 51 
C 7.59375 51 7 50.890625 6.59375 50.6875 
C 8.5 59.1875 14.296875 63.390625 20.40625 63.390625 
C 29.09375 63.390625 34.796875 56.5 34.796875 47.390625 
C 34.796875 38.703125 29.703125 31.21875 24 24.734375 
L 4.09375 2.296875 
L 4.09375 0 
L 39.296875 0 
z
" id="CMR17-50"/>
      <path d="M 11.40625 58.59375 
C 12.40625 58.1875 16.5 56.890625 20.703125 56.890625 
C 30 56.890625 35.09375 61.890625 38 64.6875 
C 38 65.484375 38 66 37.40625 66 
C 37.296875 66 37.09375 66 36.296875 65.59375 
C 32.796875 64.09375 28.703125 63 23.703125 63 
C 20.703125 63 16.203125 63.359375 11.296875 65.484375 
C 10.203125 66 10 66 9.90625 66 
C 9.40625 66 9.296875 65.890625 9.296875 63.90625 
L 9.296875 34.859375 
C 9.296875 33.015625 9.296875 32.5 10.296875 32.5 
C 10.796875 32.5 11 32.703125 11.5 33.421875 
C 14.703125 38.046875 19.09375 40 24.09375 40 
C 27.59375 40 35.09375 37.734375 35.09375 20.203125 
C 35.09375 16.984375 35.09375 11.1875 32.09375 6.59375 
C 29.59375 2.484375 25.703125 0.390625 21.40625 0.390625 
C 14.796875 0.390625 8.09375 4.984375 6.296875 12.6875 
C 6.703125 12.59375 7.5 12.390625 7.90625 12.390625 
C 9.203125 12.390625 11.703125 13.09375 11.703125 16.1875 
C 11.703125 18.890625 9.796875 20 7.90625 20 
C 5.59375 20 4.09375 18.59375 4.09375 15.796875 
C 4.09375 7.09375 11 -2 21.59375 -2 
C 31.90625 -2 41.703125 6.890625 41.703125 19.796875 
C 41.703125 32.09375 33.90625 41.59375 24.203125 41.59375 
C 19.09375 41.59375 14.796875 39.6875 11.40625 36 
z
" id="CMR17-53"/>
     </defs>
     <g transform="translate(14.694202 103.577417)rotate(-90)scale(0.144 -0.144)">
      <use transform="translate(0 14.943915)scale(0.996264)" xlink:href="#CMMI12-115"/>
      <use transform="translate(45.950048 0)scale(0.697382)" xlink:href="#CMR17-50"/>
      <use transform="translate(77.93323 0)scale(0.697382)" xlink:href="#CMR17-53"/>
     </g>
    </g>
   </g>
   <g id="line2d_29">
    <path clip-path="url(#pa554e342ee)" d="M 76.385455 114.34331 
L 80.412152 114.349826 
L 84.438849 114.472213 
L 88.465547 114.4582 
L 92.492244 114.47008 
L 96.518941 114.195204 
L 100.545639 114.176427 
L 104.572336 114.182818 
L 108.599033 114.154181 
L 112.625731 114.144774 
L 116.652428 112.527247 
L 120.679125 112.527247 
L 124.705823 112.533322 
L 128.73252 112.533322 
L 132.759217 112.437734 
L 136.785915 112.437734 
L 140.812612 112.437734 
L 144.83931 112.437734 
L 148.866007 112.533322 
L 152.892704 112.533322 
L 156.919402 112.533322 
L 160.946099 112.533322 
L 164.972796 114.154353 
L 168.999494 114.166819 
L 173.026191 114.182818 
L 177.052888 114.182818 
L 181.079586 114.481082 
L 185.106283 114.471866 
L 189.13298 114.464569 
L 193.159678 114.34735 
L 197.186375 114.335621 
L 201.213072 114.210053 
L 205.23977 114.207376 
L 209.266467 114.208591 
L 213.293165 114.157098 
L 217.319862 114.15669 
L 221.346559 114.151381 
L 225.373257 114.150899 
L 229.399954 114.150439 
L 233.426651 114.150356 
L 237.453349 114.142486 
L 241.480046 114.142475 
L 245.506743 114.142636 
L 249.533441 114.142552 
L 253.560138 114.142552 
L 257.586835 114.14725 
L 261.613533 114.15552 
L 265.64023 114.15552 
L 269.666928 114.15552 
L 273.693625 114.156163 
L 277.720322 114.156429 
L 281.74702 114.156429 
L 285.773717 114.156622 
L 289.800414 114.156622 
L 293.827112 114.156622 
L 297.853809 114.235315 
L 301.880506 114.235315 
L 305.907204 114.237848 
L 309.933901 114.420913 
L 313.960598 114.443636 
L 317.987296 114.450005 
L 322.013993 114.616165 
L 326.04069 114.635121 
L 330.067388 114.125659 
L 334.094085 114.105046 
L 338.120783 114.128946 
L 342.14748 111.291971 
L 346.174177 111.143244 
L 350.200875 111.04369 
L 354.227572 104.560429 
L 358.254269 104.175301 
L 362.280967 103.979493 
L 366.307664 99.302622 
L 370.334361 99.184687 
L 374.361059 99.126334 
L 378.387756 99.099465 
L 382.414453 114.187699 
L 386.441151 114.899087 
L 390.467848 114.899087 
L 394.494545 115.41888 
" style="fill:none;stroke:#1f77b4;stroke-linecap:square;stroke-width:1.5;"/>
   </g>
   <g id="line2d_30">
    <path clip-path="url(#pa554e342ee)" d="M 76.385455 93.463873 
L 80.412152 93.467398 
L 84.438849 93.454612 
L 88.465547 93.407084 
L 92.492244 93.304699 
L 96.518941 93.128648 
L 100.545639 92.865257 
L 104.572336 92.509948 
L 108.599033 92.070241 
L 112.625731 91.566712 
L 116.652428 91.031301 
L 120.679125 90.50319 
L 124.705823 90.023313 
L 128.73252 89.629075 
L 132.759217 89.350484 
L 136.785915 89.208151 
L 140.812612 89.212745 
L 144.83931 89.364933 
L 148.866007 89.655173 
L 152.892704 90.063319 
L 156.919402 90.558833 
L 160.946099 91.102597 
L 164.972796 91.650973 
L 168.999494 92.161652 
L 173.026191 92.599941 
L 177.052888 92.943634 
L 181.079586 93.185092 
L 185.106283 93.330131 
L 189.13298 93.394434 
L 193.159678 93.398789 
L 197.186375 93.364553 
L 201.213072 93.310311 
L 205.23977 93.250109 
L 209.266467 93.193104 
L 213.293165 93.144203 
L 217.319862 93.10516 
L 221.346559 93.075729 
L 225.373257 93.05463 
L 229.399954 93.04022 
L 233.426651 93.030906 
L 237.453349 93.025343 
L 241.480046 93.0225 
L 245.506743 93.021649 
L 249.533441 93.022334 
L 253.560138 93.024322 
L 257.586835 93.02757 
L 261.613533 93.032209 
L 265.64023 93.038536 
L 269.666928 93.047023 
L 273.693625 93.058345 
L 277.720322 93.073403 
L 281.74702 93.09336 
L 285.773717 93.119653 
L 289.800414 93.15397 
L 293.827112 93.198149 
L 297.853809 93.25392 
L 301.880506 93.322411 
L 305.907204 93.403252 
L 309.933901 93.493112 
L 313.960598 93.583443 
L 317.987296 93.65726 
L 322.013993 93.684874 
L 326.04069 93.61886 
L 330.067388 93.389101 
L 334.094085 92.899833 
L 338.120783 92.032184 
L 342.14748 90.657684 
L 346.174177 88.669956 
L 350.200875 86.04068 
L 354.227572 82.897407 
L 358.254269 79.5996 
L 362.280967 76.760728 
L 366.307664 75.15648 
L 370.334361 75.510498 
L 374.361059 78.245459 
L 378.387756 83.336045 
L 382.414453 90.334675 
L 386.441151 98.52533 
L 390.467848 107.104405 
L 394.494545 115.315461 
" style="fill:none;stroke:#ff7f0e;stroke-linecap:square;stroke-width:1.5;"/>
   </g>
   <g id="patch_8">
    <path d="M 60.48 121.45824 
L 60.48 69.11712 
" style="fill:none;stroke:#000000;stroke-linecap:square;stroke-linejoin:miter;stroke-width:0.8;"/>
   </g>
   <g id="patch_9">
    <path d="M 410.4 121.45824 
L 410.4 69.11712 
" style="fill:none;stroke:#000000;stroke-linecap:square;stroke-linejoin:miter;stroke-width:0.8;"/>
   </g>
   <g id="patch_10">
    <path d="M 60.48 121.45824 
L 410.4 121.45824 
" style="fill:none;stroke:#000000;stroke-linecap:square;stroke-linejoin:miter;stroke-width:0.8;"/>
   </g>
   <g id="patch_11">
    <path d="M 60.48 69.11712 
L 410.4 69.11712 
" style="fill:none;stroke:#000000;stroke-linecap:square;stroke-linejoin:miter;stroke-width:0.8;"/>
   </g>
  </g>
  <g id="axes_3">
   <g id="patch_12">
    <path d="M 60.48 173.79936 
L 410.4 173.79936 
L 410.4 121.45824 
L 60.48 121.45824 
z
" style="fill:#ffffff;"/>
   </g>
   <g id="matplotlib.axis_5">
    <g id="xtick_19">
     <g id="line2d_31">
      <g>
       <use style="stroke:#000000;stroke-width:0.8;" x="76.385455" xlink:href="#m9a3cd52f0e" y="173.79936"/>
      </g>
     </g>
    </g>
    <g id="xtick_20">
     <g id="line2d_32">
      <g>
       <use style="stroke:#000000;stroke-width:0.8;" x="116.652428" xlink:href="#m9a3cd52f0e" y="173.79936"/>
      </g>
     </g>
    </g>
    <g id="xtick_21">
     <g id="line2d_33">
      <g>
       <use style="stroke:#000000;stroke-width:0.8;" x="156.919402" xlink:href="#m9a3cd52f0e" y="173.79936"/>
      </g>
     </g>
    </g>
    <g id="xtick_22">
     <g id="line2d_34">
      <g>
       <use style="stroke:#000000;stroke-width:0.8;" x="197.186375" xlink:href="#m9a3cd52f0e" y="173.79936"/>
      </g>
     </g>
    </g>
    <g id="xtick_23">
     <g id="line2d_35">
      <g>
       <use style="stroke:#000000;stroke-width:0.8;" x="237.453349" xlink:href="#m9a3cd52f0e" y="173.79936"/>
      </g>
     </g>
    </g>
    <g id="xtick_24">
     <g id="line2d_36">
      <g>
       <use style="stroke:#000000;stroke-width:0.8;" x="277.720322" xlink:href="#m9a3cd52f0e" y="173.79936"/>
      </g>
     </g>
    </g>
    <g id="xtick_25">
     <g id="line2d_37">
      <g>
       <use style="stroke:#000000;stroke-width:0.8;" x="317.987296" xlink:href="#m9a3cd52f0e" y="173.79936"/>
      </g>
     </g>
    </g>
    <g id="xtick_26">
     <g id="line2d_38">
      <g>
       <use style="stroke:#000000;stroke-width:0.8;" x="358.254269" xlink:href="#m9a3cd52f0e" y="173.79936"/>
      </g>
     </g>
    </g>
    <g id="xtick_27">
     <g id="line2d_39">
      <g>
       <use style="stroke:#000000;stroke-width:0.8;" x="398.521243" xlink:href="#m9a3cd52f0e" y="173.79936"/>
      </g>
     </g>
    </g>
   </g>
   <g id="matplotlib.axis_6">
    <g id="ytick_9">
     <g id="line2d_40">
      <g>
       <use style="stroke:#000000;stroke-width:0.8;" x="60.48" xlink:href="#mde2b6831bf" y="167.76"/>
      </g>
     </g>
     <g id="text_11">
      <!-- -1.77 -->
      <g transform="translate(23.824925 172.741312)scale(0.144 -0.144)">
       <use transform="scale(0.996264)" xlink:href="#CMSS17-45"/>
       <use transform="translate(31.229113 0)scale(0.996264)" xlink:href="#CMSS17-49"/>
       <use transform="translate(78.072736 0)scale(0.996264)" xlink:href="#CMSS17-46"/>
       <use transform="translate(104.096941 0)scale(0.996264)" xlink:href="#CMSS17-55"/>
       <use transform="translate(150.940565 0)scale(0.996264)" xlink:href="#CMSS17-55"/>
      </g>
     </g>
    </g>
    <g id="ytick_10">
     <g id="line2d_41">
      <g>
       <use style="stroke:#000000;stroke-width:0.8;" x="60.48" xlink:href="#mde2b6831bf" y="154.3392"/>
      </g>
     </g>
     <g id="text_12">
      <!-- -1.44 -->
      <g transform="translate(23.824925 159.320512)scale(0.144 -0.144)">
       <use transform="scale(0.996264)" xlink:href="#CMSS17-45"/>
       <use transform="translate(31.229113 0)scale(0.996264)" xlink:href="#CMSS17-49"/>
       <use transform="translate(78.072736 0)scale(0.996264)" xlink:href="#CMSS17-46"/>
       <use transform="translate(104.096941 0)scale(0.996264)" xlink:href="#CMSS17-52"/>
       <use transform="translate(150.940565 0)scale(0.996264)" xlink:href="#CMSS17-52"/>
      </g>
     </g>
    </g>
    <g id="ytick_11">
     <g id="line2d_42">
      <g>
       <use style="stroke:#000000;stroke-width:0.8;" x="60.48" xlink:href="#mde2b6831bf" y="140.9184"/>
      </g>
     </g>
     <g id="text_13">
      <!-- -1.12 -->
      <g transform="translate(23.824925 145.899712)scale(0.144 -0.144)">
       <use transform="scale(0.996264)" xlink:href="#CMSS17-45"/>
       <use transform="translate(31.229113 0)scale(0.996264)" xlink:href="#CMSS17-49"/>
       <use transform="translate(78.072736 0)scale(0.996264)" xlink:href="#CMSS17-46"/>
       <use transform="translate(104.096941 0)scale(0.996264)" xlink:href="#CMSS17-49"/>
       <use transform="translate(150.940565 0)scale(0.996264)" xlink:href="#CMSS17-50"/>
      </g>
     </g>
    </g>
    <g id="ytick_12">
     <g id="line2d_43">
      <g>
       <use style="stroke:#000000;stroke-width:0.8;" x="60.48" xlink:href="#mde2b6831bf" y="127.4976"/>
      </g>
     </g>
     <g id="text_14">
      <!-- -0.80 -->
      <g transform="translate(23.824925 132.478912)scale(0.144 -0.144)">
       <use transform="scale(0.996264)" xlink:href="#CMSS17-45"/>
       <use transform="translate(31.229113 0)scale(0.996264)" xlink:href="#CMSS17-48"/>
       <use transform="translate(78.072736 0)scale(0.996264)" xlink:href="#CMSS17-46"/>
       <use transform="translate(104.096941 0)scale(0.996264)" xlink:href="#CMSS17-56"/>
       <use transform="translate(150.940565 0)scale(0.996264)" xlink:href="#CMSS17-48"/>
      </g>
     </g>
    </g>
    <g id="text_15">
     <!-- $s_{50}$ -->
     <defs>
      <path d="M 42 31.84375 
C 42 37.96875 41.90625 48.421875 37.703125 56.453125 
C 34 63.484375 28.09375 66 22.90625 66 
C 18.09375 66 12 63.78125 8.203125 56.5625 
C 4.203125 49.015625 3.796875 39.671875 3.796875 31.84375 
C 3.796875 26.109375 3.90625 17.375 7 9.734375 
C 11.296875 -0.609375 19 -2 22.90625 -2 
C 27.5 -2 34.5 -0.109375 38.59375 9.4375 
C 41.59375 16.375 42 24.5 42 31.84375 
z
M 22.90625 -0.40625 
C 16.5 -0.40625 12.703125 5.125 11.296875 12.75 
C 10.203125 18.6875 10.203125 27.328125 10.203125 32.953125 
C 10.203125 40.6875 10.203125 47.109375 11.5 53.234375 
C 13.40625 61.78125 19 64.390625 22.90625 64.390625 
C 27 64.390625 32.296875 61.671875 34.203125 53.4375 
C 35.5 47.71875 35.59375 40.984375 35.59375 32.953125 
C 35.59375 26.421875 35.59375 18.375 34.40625 12.453125 
C 32.296875 1.5 26.40625 -0.40625 22.90625 -0.40625 
z
" id="CMR17-48"/>
     </defs>
     <g transform="translate(17.035398 155.918537)rotate(-90)scale(0.144 -0.144)">
      <use transform="translate(0 14.943915)scale(0.996264)" xlink:href="#CMMI12-115"/>
      <use transform="translate(45.950048 0)scale(0.697382)" xlink:href="#CMR17-53"/>
      <use transform="translate(77.93323 0)scale(0.697382)" xlink:href="#CMR17-48"/>
     </g>
    </g>
   </g>
   <g id="line2d_44">
    <path clip-path="url(#p406a0a2c08)" d="M 76.385455 145.056268 
L 80.412152 145.264754 
L 84.438849 142.220534 
L 88.465547 144.829747 
L 92.492244 145.562677 
L 96.518941 141.175006 
L 100.545639 142.092725 
L 104.572336 144.391979 
L 108.599033 144.924197 
L 112.625731 144.79169 
L 116.652428 141.685374 
L 120.679125 141.685374 
L 124.705823 143.617349 
L 128.73252 143.617349 
L 132.759217 144.206929 
L 136.785915 144.206929 
L 140.812612 144.206929 
L 144.83931 144.206929 
L 148.866007 143.617349 
L 152.892704 143.617349 
L 156.919402 143.617349 
L 160.946099 143.617349 
L 164.972796 144.697843 
L 168.999494 144.825528 
L 173.026191 144.391979 
L 177.052888 144.391979 
L 181.079586 148.036446 
L 185.106283 147.710253 
L 189.13298 147.183615 
L 193.159678 147.743546 
L 197.186375 150.084622 
L 201.213072 150.689281 
L 205.23977 150.851299 
L 209.266467 153.013645 
L 213.293165 156.243792 
L 217.319862 155.845271 
L 221.346559 153.689247 
L 225.373257 153.679307 
L 229.399954 153.375497 
L 233.426651 153.507002 
L 237.453349 156.308443 
L 241.480046 156.308453 
L 245.506743 156.02473 
L 249.533441 156.165137 
L 253.560138 156.165137 
L 257.586835 158.608619 
L 261.613533 153.355056 
L 265.64023 153.355056 
L 269.666928 153.355056 
L 273.693625 153.210045 
L 277.720322 153.417964 
L 281.74702 153.417964 
L 285.773717 153.542341 
L 289.800414 153.542341 
L 293.827112 153.542341 
L 297.853809 150.838976 
L 301.880506 150.838976 
L 305.907204 150.851307 
L 309.933901 147.708826 
L 313.960598 145.263465 
L 317.987296 145.452908 
L 322.013993 142.132072 
L 326.04069 142.985999 
L 330.067388 139.556067 
L 334.094085 140.013691 
L 338.120783 136.837248 
L 342.14748 137.03817 
L 346.174177 134.727268 
L 350.200875 134.432016 
L 354.227572 134.474919 
L 358.254269 132.342344 
L 362.280967 132.043252 
L 366.307664 131.478606 
L 370.334361 132.075836 
L 374.361059 132.279695 
L 378.387756 132.282379 
L 382.414453 127.4976 
L 386.441151 128.171428 
L 390.467848 128.171428 
L 394.494545 128.407854 
" style="fill:none;stroke:#1f77b4;stroke-linecap:square;stroke-width:1.5;"/>
   </g>
   <g id="line2d_45">
    <path clip-path="url(#p406a0a2c08)" d="M 76.385455 156.467081 
L 80.412152 156.480311 
L 84.438849 156.491519 
L 88.465547 156.500849 
L 92.492244 156.507488 
L 96.518941 156.509956 
L 100.545639 156.506566 
L 104.572336 156.496026 
L 108.599033 156.478058 
L 112.625731 156.453909 
L 116.652428 156.426615 
L 120.679125 156.401004 
L 124.705823 156.383344 
L 128.73252 156.380709 
L 132.759217 156.400214 
L 136.785915 156.448214 
L 140.812612 156.529655 
L 144.83931 156.647655 
L 148.866007 156.803448 
L 152.892704 156.996658 
L 156.919402 157.225846 
L 160.946099 157.489206 
L 164.972796 157.785284 
L 168.999494 158.113509 
L 173.026191 158.474447 
L 177.052888 158.869689 
L 181.079586 159.301407 
L 185.106283 159.771619 
L 189.13298 160.28137 
L 193.159678 160.829956 
L 197.186375 161.414328 
L 201.213072 162.0288 
L 205.23977 162.665125 
L 209.266467 163.312823 
L 213.293165 163.959772 
L 217.319862 164.592891 
L 221.346559 165.198868 
L 225.373257 165.764767 
L 229.399954 166.278542 
L 233.426651 166.729372 
L 237.453349 167.107848 
L 241.480046 167.40602 
L 245.506743 167.617358 
L 249.533441 167.736678 
L 253.560138 167.76 
L 257.586835 167.684467 
L 261.613533 167.508255 
L 265.64023 167.230555 
L 269.666928 166.851597 
L 273.693625 166.372686 
L 277.720322 165.796322 
L 281.74702 165.126302 
L 285.773717 164.36784 
L 289.800414 163.52766 
L 293.827112 162.614036 
L 297.853809 161.636759 
L 301.880506 160.607026 
L 305.907204 159.537168 
L 309.933901 158.440278 
L 313.960598 157.329716 
L 317.987296 156.218486 
L 322.013993 155.118531 
L 326.04069 154.039984 
L 330.067388 152.990588 
L 334.094085 151.974945 
L 338.120783 150.994257 
L 342.14748 150.046161 
L 346.174177 149.12493 
L 350.200875 148.222042 
L 354.227572 147.327089 
L 358.254269 146.428964 
L 362.280967 145.517715 
L 366.307664 144.585687 
L 370.334361 143.629477 
L 374.361059 142.651325 
L 378.387756 141.660061 
L 382.414453 140.671516 
L 386.441151 139.70813 
L 390.467848 138.797706 
L 394.494545 137.971604 
" style="fill:none;stroke:#ff7f0e;stroke-linecap:square;stroke-width:1.5;"/>
   </g>
   <g id="patch_13">
    <path d="M 60.48 173.79936 
L 60.48 121.45824 
" style="fill:none;stroke:#000000;stroke-linecap:square;stroke-linejoin:miter;stroke-width:0.8;"/>
   </g>
   <g id="patch_14">
    <path d="M 410.4 173.79936 
L 410.4 121.45824 
" style="fill:none;stroke:#000000;stroke-linecap:square;stroke-linejoin:miter;stroke-width:0.8;"/>
   </g>
   <g id="patch_15">
    <path d="M 60.48 173.79936 
L 410.4 173.79936 
" style="fill:none;stroke:#000000;stroke-linecap:square;stroke-linejoin:miter;stroke-width:0.8;"/>
   </g>
   <g id="patch_16">
    <path d="M 60.48 121.45824 
L 410.4 121.45824 
" style="fill:none;stroke:#000000;stroke-linecap:square;stroke-linejoin:miter;stroke-width:0.8;"/>
   </g>
  </g>
  <g id="axes_4">
   <g id="patch_17">
    <path d="M 60.48 226.14048 
L 410.4 226.14048 
L 410.4 173.79936 
L 60.48 173.79936 
z
" style="fill:#ffffff;"/>
   </g>
   <g id="matplotlib.axis_7">
    <g id="xtick_28">
     <g id="line2d_46">
      <g>
       <use style="stroke:#000000;stroke-width:0.8;" x="76.385455" xlink:href="#m9a3cd52f0e" y="226.14048"/>
      </g>
     </g>
    </g>
    <g id="xtick_29">
     <g id="line2d_47">
      <g>
       <use style="stroke:#000000;stroke-width:0.8;" x="116.652428" xlink:href="#m9a3cd52f0e" y="226.14048"/>
      </g>
     </g>
    </g>
    <g id="xtick_30">
     <g id="line2d_48">
      <g>
       <use style="stroke:#000000;stroke-width:0.8;" x="156.919402" xlink:href="#m9a3cd52f0e" y="226.14048"/>
      </g>
     </g>
    </g>
    <g id="xtick_31">
     <g id="line2d_49">
      <g>
       <use style="stroke:#000000;stroke-width:0.8;" x="197.186375" xlink:href="#m9a3cd52f0e" y="226.14048"/>
      </g>
     </g>
    </g>
    <g id="xtick_32">
     <g id="line2d_50">
      <g>
       <use style="stroke:#000000;stroke-width:0.8;" x="237.453349" xlink:href="#m9a3cd52f0e" y="226.14048"/>
      </g>
     </g>
    </g>
    <g id="xtick_33">
     <g id="line2d_51">
      <g>
       <use style="stroke:#000000;stroke-width:0.8;" x="277.720322" xlink:href="#m9a3cd52f0e" y="226.14048"/>
      </g>
     </g>
    </g>
    <g id="xtick_34">
     <g id="line2d_52">
      <g>
       <use style="stroke:#000000;stroke-width:0.8;" x="317.987296" xlink:href="#m9a3cd52f0e" y="226.14048"/>
      </g>
     </g>
    </g>
    <g id="xtick_35">
     <g id="line2d_53">
      <g>
       <use style="stroke:#000000;stroke-width:0.8;" x="358.254269" xlink:href="#m9a3cd52f0e" y="226.14048"/>
      </g>
     </g>
    </g>
    <g id="xtick_36">
     <g id="line2d_54">
      <g>
       <use style="stroke:#000000;stroke-width:0.8;" x="398.521243" xlink:href="#m9a3cd52f0e" y="226.14048"/>
      </g>
     </g>
    </g>
   </g>
   <g id="matplotlib.axis_8">
    <g id="ytick_13">
     <g id="line2d_55">
      <g>
       <use style="stroke:#000000;stroke-width:0.8;" x="60.48" xlink:href="#mde2b6831bf" y="220.10112"/>
      </g>
     </g>
     <g id="text_16">
      <!-- -0.49 -->
      <g transform="translate(23.824925 225.082432)scale(0.144 -0.144)">
       <use transform="scale(0.996264)" xlink:href="#CMSS17-45"/>
       <use transform="translate(31.229113 0)scale(0.996264)" xlink:href="#CMSS17-48"/>
       <use transform="translate(78.072736 0)scale(0.996264)" xlink:href="#CMSS17-46"/>
       <use transform="translate(104.096941 0)scale(0.996264)" xlink:href="#CMSS17-52"/>
       <use transform="translate(150.940565 0)scale(0.996264)" xlink:href="#CMSS17-57"/>
      </g>
     </g>
    </g>
    <g id="ytick_14">
     <g id="line2d_56">
      <g>
       <use style="stroke:#000000;stroke-width:0.8;" x="60.48" xlink:href="#mde2b6831bf" y="206.68032"/>
      </g>
     </g>
     <g id="text_17">
      <!-- 0.88 -->
      <g transform="translate(28.507302 211.661632)scale(0.144 -0.144)">
       <use transform="scale(0.996264)" xlink:href="#CMSS17-48"/>
       <use transform="translate(46.843624 0)scale(0.996264)" xlink:href="#CMSS17-46"/>
       <use transform="translate(72.867828 0)scale(0.996264)" xlink:href="#CMSS17-56"/>
       <use transform="translate(119.711452 0)scale(0.996264)" xlink:href="#CMSS17-56"/>
      </g>
     </g>
    </g>
    <g id="ytick_15">
     <g id="line2d_57">
      <g>
       <use style="stroke:#000000;stroke-width:0.8;" x="60.48" xlink:href="#mde2b6831bf" y="193.25952"/>
      </g>
     </g>
     <g id="text_18">
      <!-- 2.24 -->
      <g transform="translate(28.507302 198.240832)scale(0.144 -0.144)">
       <use transform="scale(0.996264)" xlink:href="#CMSS17-50"/>
       <use transform="translate(46.843624 0)scale(0.996264)" xlink:href="#CMSS17-46"/>
       <use transform="translate(72.867828 0)scale(0.996264)" xlink:href="#CMSS17-50"/>
       <use transform="translate(119.711452 0)scale(0.996264)" xlink:href="#CMSS17-52"/>
      </g>
     </g>
    </g>
    <g id="ytick_16">
     <g id="line2d_58">
      <g>
       <use style="stroke:#000000;stroke-width:0.8;" x="60.48" xlink:href="#mde2b6831bf" y="179.83872"/>
      </g>
     </g>
     <g id="text_19">
      <!-- 3.61 -->
      <defs>
       <path d="M 15.703125 32.1875 
L 22.5 32.1875 
C 31.90625 32.1875 34.59375 23.9375 34.59375 18.1875 
C 34.59375 10.34375 30.203125 4.1875 23 4.1875 
C 17.40625 4.1875 9.5 7.015625 5 14.46875 
C 4.296875 10.9375 4.296875 10.734375 3.90625 8.328125 
C 8.59375 1.390625 16.203125 -2 23.203125 -2 
C 34.59375 -2 43 7.515625 43 18.09375 
C 43 26.046875 37.5 32.6875 30 35.1875 
C 36 38.484375 40.40625 44.6875 40.40625 51.890625 
C 40.40625 60.296875 32.703125 67 23.296875 67 
C 14.703125 67 8 61.6875 5.203125 55.984375 
C 5.90625 54.984375 7.703125 52.09375 8.59375 50.59375 
C 10.796875 56.484375 16.5 60.890625 23.203125 60.890625 
C 28.796875 60.890625 32.5 57.1875 32.5 51.890625 
C 32.5 46.390625 29 40.390625 23.09375 39 
C 22.703125 39 16.5 38.390625 15.703125 38.296875 
z
" id="CMSS17-51"/>
      </defs>
      <g transform="translate(28.507302 184.820032)scale(0.144 -0.144)">
       <use transform="scale(0.996264)" xlink:href="#CMSS17-51"/>
       <use transform="translate(46.843624 0)scale(0.996264)" xlink:href="#CMSS17-46"/>
       <use transform="translate(72.867828 0)scale(0.996264)" xlink:href="#CMSS17-54"/>
       <use transform="translate(119.711452 0)scale(0.996264)" xlink:href="#CMSS17-49"/>
      </g>
     </g>
    </g>
    <g id="text_20">
     <!-- $s_{75}$ -->
     <defs>
      <path d="M 45.09375 61.796875 
L 45.09375 64 
L 21.59375 64 
C 9.90625 64 9.703125 65.09375 9.296875 67 
L 7.5 67 
L 4.59375 48.5 
L 6.40625 48.5 
C 6.703125 50.40625 7.40625 55.5 8.59375 57.390625 
C 9.203125 58.1875 16.59375 58.1875 18.296875 58.1875 
L 40.296875 58.1875 
L 29.203125 41.71875 
C 21.796875 30.640625 16.703125 15.671875 16.703125 2.59375 
C 16.703125 1.390625 16.703125 -2 20.296875 -2 
C 23.90625 -2 23.90625 1.390625 23.90625 2.6875 
L 23.90625 7.28125 
C 23.90625 23.65625 26.703125 34.4375 31.296875 41.3125 
z
" id="CMR17-55"/>
     </defs>
     <g transform="translate(17.035398 208.259657)rotate(-90)scale(0.144 -0.144)">
      <use transform="translate(0 14.943915)scale(0.996264)" xlink:href="#CMMI12-115"/>
      <use transform="translate(45.950048 0)scale(0.697382)" xlink:href="#CMR17-55"/>
      <use transform="translate(77.93323 0)scale(0.697382)" xlink:href="#CMR17-53"/>
     </g>
    </g>
   </g>
   <g id="line2d_59">
    <path clip-path="url(#p9ccefd12cf)" d="M 76.385455 193.212708 
L 80.412152 194.358016 
L 84.438849 195.983962 
L 88.465547 196.090842 
L 92.492244 206.484278 
L 96.518941 191.214851 
L 100.545639 200.334932 
L 104.572336 201.65302 
L 108.599033 212.363971 
L 112.625731 214.29505 
L 116.652428 207.936902 
L 120.679125 207.936902 
L 124.705823 210.630277 
L 128.73252 210.630277 
L 132.759217 220.10112 
L 136.785915 220.10112 
L 140.812612 220.10112 
L 144.83931 220.10112 
L 148.866007 210.630277 
L 152.892704 210.630277 
L 156.919402 210.630277 
L 160.946099 210.630277 
L 164.972796 210.324542 
L 168.999494 208.260874 
L 173.026191 201.65302 
L 177.052888 201.65302 
L 181.079586 212.523274 
L 185.106283 203.081727 
L 189.13298 196.360495 
L 193.159678 196.578212 
L 197.186375 191.837245 
L 201.213072 191.025424 
L 205.23977 190.949441 
L 209.266467 187.906967 
L 213.293165 187.692109 
L 217.319862 184.431807 
L 221.346559 186.842079 
L 225.373257 186.946674 
L 229.399954 184.983289 
L 233.426651 186.550293 
L 237.453349 183.171153 
L 241.480046 183.779863 
L 245.506743 182.385956 
L 249.533441 184.021843 
L 253.560138 184.021843 
L 257.586835 179.83872 
L 261.613533 182.098886 
L 265.64023 182.098886 
L 269.666928 182.098886 
L 273.693625 182.360344 
L 277.720322 184.896996 
L 281.74702 184.896996 
L 285.773717 186.60508 
L 289.800414 186.60508 
L 293.827112 186.60508 
L 297.853809 185.934924 
L 301.880506 185.934924 
L 305.907204 187.523892 
L 309.933901 184.069734 
L 313.960598 190.98012 
L 317.987296 195.346682 
L 322.013993 186.000156 
L 326.04069 200.543601 
L 330.067388 187.372139 
L 334.094085 193.039532 
L 338.120783 195.975128 
L 342.14748 188.071199 
L 346.174177 196.895478 
L 350.200875 200.285243 
L 354.227572 189.062858 
L 358.254269 198.96301 
L 362.280967 202.980402 
L 366.307664 190.379493 
L 370.334361 196.719643 
L 374.361059 201.183926 
L 378.387756 204.25945 
L 382.414453 192.021544 
L 386.441151 198.511482 
L 390.467848 198.511482 
L 394.494545 203.078631 
" style="fill:none;stroke:#1f77b4;stroke-linecap:square;stroke-width:1.5;"/>
   </g>
   <g id="line2d_60">
    <path clip-path="url(#p9ccefd12cf)" d="M 76.385455 190.962613 
L 80.412152 192.391309 
L 84.438849 193.972063 
L 88.465547 195.69261 
L 92.492244 197.533626 
L 96.518941 199.468388 
L 100.545639 201.462889 
L 104.572336 203.476502 
L 108.599033 205.463076 
L 112.625731 207.372692 
L 116.652428 209.153786 
L 120.679125 210.755584 
L 124.705823 212.130712 
L 128.73252 213.237639 
L 132.759217 214.042904 
L 136.785915 214.522866 
L 140.812612 214.664849 
L 144.83931 214.467632 
L 148.866007 213.941249 
L 152.892704 213.106147 
L 156.919402 211.991707 
L 160.946099 210.634363 
L 164.972796 209.07537 
L 168.999494 207.358511 
L 173.026191 205.52784 
L 177.052888 203.625699 
L 181.079586 201.691086 
L 185.106283 199.758608 
L 189.13298 197.857764 
L 193.159678 196.012776 
L 197.186375 194.242804 
L 201.213072 192.56235 
L 205.23977 190.981927 
L 209.266467 189.508729 
L 213.293165 188.14734 
L 217.319862 186.900361 
L 221.346559 185.768926 
L 225.373257 184.753143 
L 229.399954 183.85238 
L 233.426651 183.06547 
L 237.453349 182.390808 
L 241.480046 181.826388 
L 245.506743 181.369778 
L 249.533441 181.018031 
L 253.560138 180.767606 
L 257.586835 180.614273 
L 261.613533 180.553012 
L 265.64023 180.577943 
L 269.666928 180.682282 
L 273.693625 180.858367 
L 277.720322 181.097698 
L 281.74702 181.391077 
L 285.773717 181.728799 
L 289.800414 182.100905 
L 293.827112 182.497513 
L 297.853809 182.909189 
L 301.880506 183.327351 
L 305.907204 183.744702 
L 309.933901 184.155614 
L 313.960598 184.556481 
L 317.987296 184.945953 
L 322.013993 185.325038 
L 326.04069 185.697055 
L 330.067388 186.06733 
L 334.094085 186.442775 
L 338.120783 186.831132 
L 342.14748 187.240179 
L 346.174177 187.676783 
L 350.200875 188.145947 
L 354.227572 188.649985 
L 358.254269 189.187895 
L 362.280967 189.755075 
L 366.307664 190.343413 
L 370.334361 190.941792 
L 374.361059 191.536949 
L 378.387756 192.114591 
L 382.414453 192.660585 
L 386.441151 193.16209 
L 390.467848 193.608408 
L 394.494545 193.991516 
" style="fill:none;stroke:#ff7f0e;stroke-linecap:square;stroke-width:1.5;"/>
   </g>
   <g id="patch_18">
    <path d="M 60.48 226.14048 
L 60.48 173.79936 
" style="fill:none;stroke:#000000;stroke-linecap:square;stroke-linejoin:miter;stroke-width:0.8;"/>
   </g>
   <g id="patch_19">
    <path d="M 410.4 226.14048 
L 410.4 173.79936 
" style="fill:none;stroke:#000000;stroke-linecap:square;stroke-linejoin:miter;stroke-width:0.8;"/>
   </g>
   <g id="patch_20">
    <path d="M 60.48 226.14048 
L 410.4 226.14048 
" style="fill:none;stroke:#000000;stroke-linecap:square;stroke-linejoin:miter;stroke-width:0.8;"/>
   </g>
   <g id="patch_21">
    <path d="M 60.48 173.79936 
L 410.4 173.79936 
" style="fill:none;stroke:#000000;stroke-linecap:square;stroke-linejoin:miter;stroke-width:0.8;"/>
   </g>
  </g>
  <g id="axes_5">
   <g id="patch_22">
    <path d="M 60.48 278.4816 
L 410.4 278.4816 
L 410.4 226.14048 
L 60.48 226.14048 
z
" style="fill:#ffffff;"/>
   </g>
   <g id="matplotlib.axis_9">
    <g id="xtick_37">
     <g id="line2d_61">
      <g>
       <use style="stroke:#000000;stroke-width:0.8;" x="76.385455" xlink:href="#m9a3cd52f0e" y="278.4816"/>
      </g>
     </g>
     <g id="text_21">
      <!-- $0$ -->
      <g transform="translate(72.873668 295.444225)scale(0.144 -0.144)">
       <use transform="scale(0.996264)" xlink:href="#CMR17-48"/>
      </g>
     </g>
    </g>
    <g id="xtick_38">
     <g id="line2d_62">
      <g>
       <use style="stroke:#000000;stroke-width:0.8;" x="116.652428" xlink:href="#m9a3cd52f0e" y="278.4816"/>
      </g>
     </g>
     <g id="text_22">
      <!-- $10$ -->
      <g transform="translate(109.628855 295.444225)scale(0.144 -0.144)">
       <use transform="scale(0.996264)" xlink:href="#CMR17-49"/>
       <use transform="translate(45.690477 0)scale(0.996264)" xlink:href="#CMR17-48"/>
      </g>
     </g>
    </g>
    <g id="xtick_39">
     <g id="line2d_63">
      <g>
       <use style="stroke:#000000;stroke-width:0.8;" x="156.919402" xlink:href="#m9a3cd52f0e" y="278.4816"/>
      </g>
     </g>
     <g id="text_23">
      <!-- $20$ -->
      <g transform="translate(149.895829 295.444225)scale(0.144 -0.144)">
       <use transform="scale(0.996264)" xlink:href="#CMR17-50"/>
       <use transform="translate(45.690477 0)scale(0.996264)" xlink:href="#CMR17-48"/>
      </g>
     </g>
    </g>
    <g id="xtick_40">
     <g id="line2d_64">
      <g>
       <use style="stroke:#000000;stroke-width:0.8;" x="197.186375" xlink:href="#m9a3cd52f0e" y="278.4816"/>
      </g>
     </g>
     <g id="text_24">
      <!-- $30$ -->
      <defs>
       <path d="M 22.09375 34 
C 31 34 34.90625 26.140625 34.90625 17.09375 
C 34.90625 5.03125 28.5 0.390625 22.703125 0.390625 
C 17.40625 0.390625 8.796875 3.015625 6.09375 10.796875 
C 6.59375 10.59375 7.09375 10.59375 7.59375 10.59375 
C 10 10.59375 11.796875 12.1875 11.796875 14.796875 
C 11.796875 17.6875 9.59375 19 7.59375 19 
C 5.90625 19 3.296875 18.1875 3.296875 14.484375 
C 3.296875 5.234375 12.296875 -2 22.90625 -2 
C 34 -2 42.5 6.75 42.5 16.984375 
C 42.5 26.84375 34.5 34 25 35.09375 
C 32.59375 36.671875 39.90625 43.375 39.90625 52.390625 
C 39.90625 60.25 32 66 23 66 
C 13.90625 66 5.90625 60.34375 5.90625 52.296875 
C 5.90625 48.796875 8.5 48.1875 9.796875 48.1875 
C 11.90625 48.1875 13.703125 49.484375 13.703125 52.09375 
C 13.703125 54.6875 11.90625 56 9.796875 56 
C 9.40625 56 8.90625 56 8.5 55.796875 
C 11.40625 62.484375 19.296875 63.6875 22.796875 63.6875 
C 26.296875 63.6875 32.90625 61.96875 32.90625 52.296875 
C 32.90625 49.484375 32.5 44.546875 29.09375 40.21875 
C 26.09375 36.390625 22.703125 36.1875 19.40625 35.890625 
C 18.90625 35.890625 16.59375 35.6875 16.203125 35.6875 
C 15.5 35.59375 15.09375 35.5 15.09375 34.796875 
C 15.09375 34.09375 15.203125 34 17.203125 34 
z
" id="CMR17-51"/>
      </defs>
      <g transform="translate(190.162802 295.444225)scale(0.144 -0.144)">
       <use transform="scale(0.996264)" xlink:href="#CMR17-51"/>
       <use transform="translate(45.690477 0)scale(0.996264)" xlink:href="#CMR17-48"/>
      </g>
     </g>
    </g>
    <g id="xtick_41">
     <g id="line2d_65">
      <g>
       <use style="stroke:#000000;stroke-width:0.8;" x="237.453349" xlink:href="#m9a3cd52f0e" y="278.4816"/>
      </g>
     </g>
     <g id="text_25">
      <!-- $40$ -->
      <defs>
       <path d="M 33.59375 64.796875 
C 33.59375 66.890625 33.5 67 31.703125 67 
L 2 19.59375 
L 2 17 
L 27.796875 17 
L 27.796875 7.1875 
C 27.796875 3.59375 27.59375 2.59375 20.59375 2.59375 
L 18.703125 2.59375 
L 18.703125 0 
C 21.90625 0.1875 27.296875 0.1875 30.703125 0.1875 
C 34.09375 0.1875 39.5 0.1875 42.703125 0 
L 42.703125 2.59375 
L 40.796875 2.59375 
C 33.796875 2.59375 33.59375 3.59375 33.59375 7.1875 
L 33.59375 17 
L 43.796875 17 
L 43.796875 19.59375 
L 33.59375 19.59375 
z
M 28.09375 58.171875 
L 28.09375 19.59375 
L 4 19.59375 
z
" id="CMR17-52"/>
      </defs>
      <g transform="translate(230.429776 295.444225)scale(0.144 -0.144)">
       <use transform="scale(0.996264)" xlink:href="#CMR17-52"/>
       <use transform="translate(45.690477 0)scale(0.996264)" xlink:href="#CMR17-48"/>
      </g>
     </g>
    </g>
    <g id="xtick_42">
     <g id="line2d_66">
      <g>
       <use style="stroke:#000000;stroke-width:0.8;" x="277.720322" xlink:href="#m9a3cd52f0e" y="278.4816"/>
      </g>
     </g>
     <g id="text_26">
      <!-- $50$ -->
      <g transform="translate(270.696749 295.444225)scale(0.144 -0.144)">
       <use transform="scale(0.996264)" xlink:href="#CMR17-53"/>
       <use transform="translate(45.690477 0)scale(0.996264)" xlink:href="#CMR17-48"/>
      </g>
     </g>
    </g>
    <g id="xtick_43">
     <g id="line2d_67">
      <g>
       <use style="stroke:#000000;stroke-width:0.8;" x="317.987296" xlink:href="#m9a3cd52f0e" y="278.4816"/>
      </g>
     </g>
     <g id="text_27">
      <!-- $60$ -->
      <defs>
       <path d="M 10.59375 34.34375 
C 10.59375 58 21.796875 63.6875 28.296875 63.6875 
C 30.40625 63.6875 35.5 63.265625 37.5 59.09375 
C 35.90625 59.09375 32.90625 59.09375 32.90625 55.59375 
C 32.90625 52.890625 35.09375 52 36.5 52 
C 37.40625 52 40.09375 52.390625 40.09375 55.796875 
C 40.09375 62.296875 35.09375 66 28.203125 66 
C 16.296875 66 3.796875 53.296875 3.796875 31.421875 
C 3.796875 4.015625 15.09375 -2 23.09375 -2 
C 32.796875 -2 42 6.734375 42 20.234375 
C 42 32.828125 33.90625 42 23.703125 42 
C 17.59375 42 13.09375 37.96875 10.59375 30.921875 
z
M 23.09375 0.390625 
C 10.796875 0.390625 10.796875 18.9375 10.796875 22.65625 
C 10.796875 29.90625 14.203125 40.390625 23.5 40.390625 
C 25.203125 40.390625 30.09375 40.390625 33.40625 33.4375 
C 35.203125 29.515625 35.203125 25.375 35.203125 20.34375 
C 35.203125 14.90625 35.203125 10.875 33.09375 6.84375 
C 30.90625 2.703125 27.703125 0.390625 23.09375 0.390625 
z
" id="CMR17-54"/>
      </defs>
      <g transform="translate(310.963723 295.444225)scale(0.144 -0.144)">
       <use transform="scale(0.996264)" xlink:href="#CMR17-54"/>
       <use transform="translate(45.690477 0)scale(0.996264)" xlink:href="#CMR17-48"/>
      </g>
     </g>
    </g>
    <g id="xtick_44">
     <g id="line2d_68">
      <g>
       <use style="stroke:#000000;stroke-width:0.8;" x="358.254269" xlink:href="#m9a3cd52f0e" y="278.4816"/>
      </g>
     </g>
     <g id="text_28">
      <!-- $70$ -->
      <g transform="translate(351.230696 295.444225)scale(0.144 -0.144)">
       <use transform="scale(0.996264)" xlink:href="#CMR17-55"/>
       <use transform="translate(45.690477 0)scale(0.996264)" xlink:href="#CMR17-48"/>
      </g>
     </g>
    </g>
    <g id="xtick_45">
     <g id="line2d_69">
      <g>
       <use style="stroke:#000000;stroke-width:0.8;" x="398.521243" xlink:href="#m9a3cd52f0e" y="278.4816"/>
      </g>
     </g>
     <g id="text_29">
      <!-- $80$ -->
      <defs>
       <path d="M 27.203125 35.765625 
C 33.5 38.96875 39.90625 43.796875 39.90625 51.53125 
C 39.90625 60.6875 31.09375 66 23 66 
C 13.90625 66 5.90625 59.375 5.90625 50.234375 
C 5.90625 47.71875 6.5 43.390625 10.40625 39.578125 
C 11.40625 38.578125 15.59375 35.5625 18.296875 33.65625 
C 13.796875 31.34375 3.296875 25.8125 3.296875 14.765625 
C 3.296875 4.40625 13.09375 -2 22.796875 -2 
C 33.5 -2 42.5 5.71875 42.5 15.96875 
C 42.5 25.109375 36.40625 29.328125 32.40625 32.046875 
z
M 14.09375 44.609375 
C 13.296875 45.109375 9.296875 48.21875 9.296875 52.9375 
C 9.296875 59.078125 15.59375 63.6875 22.796875 63.6875 
C 30.703125 63.6875 36.5 58.0625 36.5 51.53125 
C 36.5 42.1875 26.09375 36.859375 25.59375 36.859375 
C 25.5 36.859375 25.40625 36.859375 24.59375 37.46875 
z
M 32.5 24 
C 34 22.90625 38.796875 19.578125 38.796875 13.453125 
C 38.796875 6.015625 31.40625 0.390625 23 0.390625 
C 13.90625 0.390625 7 6.921875 7 14.859375 
C 7 22.796875 13.09375 29.4375 20 32.546875 
z
" id="CMR17-56"/>
      </defs>
      <g transform="translate(391.49767 295.444225)scale(0.144 -0.144)">
       <use transform="scale(0.996264)" xlink:href="#CMR17-56"/>
       <use transform="translate(45.690477 0)scale(0.996264)" xlink:href="#CMR17-48"/>
      </g>
     </g>
    </g>
   </g>
   <g id="matplotlib.axis_10">
    <g id="ytick_17">
     <g id="line2d_70">
      <g>
       <use style="stroke:#000000;stroke-width:0.8;" x="60.48" xlink:href="#mde2b6831bf" y="272.44224"/>
      </g>
     </g>
     <g id="text_30">
      <!-- -8.29 -->
      <g transform="translate(23.824925 277.423552)scale(0.144 -0.144)">
       <use transform="scale(0.996264)" xlink:href="#CMSS17-45"/>
       <use transform="translate(31.229113 0)scale(0.996264)" xlink:href="#CMSS17-56"/>
       <use transform="translate(78.072736 0)scale(0.996264)" xlink:href="#CMSS17-46"/>
       <use transform="translate(104.096941 0)scale(0.996264)" xlink:href="#CMSS17-50"/>
       <use transform="translate(150.940565 0)scale(0.996264)" xlink:href="#CMSS17-57"/>
      </g>
     </g>
    </g>
    <g id="ytick_18">
     <g id="line2d_71">
      <g>
       <use style="stroke:#000000;stroke-width:0.8;" x="60.48" xlink:href="#mde2b6831bf" y="259.02144"/>
      </g>
     </g>
     <g id="text_31">
      <!-- -2.78 -->
      <g transform="translate(23.824925 264.002752)scale(0.144 -0.144)">
       <use transform="scale(0.996264)" xlink:href="#CMSS17-45"/>
       <use transform="translate(31.229113 0)scale(0.996264)" xlink:href="#CMSS17-50"/>
       <use transform="translate(78.072736 0)scale(0.996264)" xlink:href="#CMSS17-46"/>
       <use transform="translate(104.096941 0)scale(0.996264)" xlink:href="#CMSS17-55"/>
       <use transform="translate(150.940565 0)scale(0.996264)" xlink:href="#CMSS17-56"/>
      </g>
     </g>
    </g>
    <g id="ytick_19">
     <g id="line2d_72">
      <g>
       <use style="stroke:#000000;stroke-width:0.8;" x="60.48" xlink:href="#mde2b6831bf" y="245.60064"/>
      </g>
     </g>
     <g id="text_32">
      <!-- 2.72 -->
      <g transform="translate(28.507302 250.581952)scale(0.144 -0.144)">
       <use transform="scale(0.996264)" xlink:href="#CMSS17-50"/>
       <use transform="translate(46.843624 0)scale(0.996264)" xlink:href="#CMSS17-46"/>
       <use transform="translate(72.867828 0)scale(0.996264)" xlink:href="#CMSS17-55"/>
       <use transform="translate(119.711452 0)scale(0.996264)" xlink:href="#CMSS17-50"/>
      </g>
     </g>
    </g>
    <g id="ytick_20">
     <g id="line2d_73">
      <g>
       <use style="stroke:#000000;stroke-width:0.8;" x="60.48" xlink:href="#mde2b6831bf" y="232.17984"/>
      </g>
     </g>
     <g id="text_33">
      <!-- 8.23 -->
      <g transform="translate(28.507302 237.161152)scale(0.144 -0.144)">
       <use transform="scale(0.996264)" xlink:href="#CMSS17-56"/>
       <use transform="translate(46.843624 0)scale(0.996264)" xlink:href="#CMSS17-46"/>
       <use transform="translate(72.867828 0)scale(0.996264)" xlink:href="#CMSS17-50"/>
       <use transform="translate(119.711452 0)scale(0.996264)" xlink:href="#CMSS17-51"/>
      </g>
     </g>
    </g>
    <g id="text_34">
     <!-- $s_{92}$ -->
     <defs>
      <path d="M 35.203125 29.234375 
C 35.203125 7 26.09375 0.390625 18.59375 0.390625 
C 16.296875 0.390625 10.703125 0.671875 8.40625 4.390625 
C 11 4 12.90625 5.390625 12.90625 7.890625 
C 12.90625 10.59375 10.703125 11.5 9.296875 11.5 
C 8.40625 11.5 5.703125 11.09375 5.703125 7.6875 
C 5.703125 1.0625 11.59375 -2 18.796875 -2 
C 30.296875 -2 42 10.390625 42 32.65625 
C 42 60.265625 30.796875 66 23.203125 66 
C 13.296875 66 3.796875 57.25 3.796875 43.75 
C 3.796875 31.25 11.90625 22 22.09375 22 
C 30.5 22 34.203125 29.84375 35.203125 33.15625 
z
M 22.296875 23.59375 
C 19.59375 23.59375 15.796875 24.09375 12.703125 30.140625 
C 10.59375 34.078125 10.59375 38.703125 10.59375 43.640625 
C 10.59375 49.59375 10.59375 53.71875 13.40625 58.15625 
C 14.796875 60.265625 17.40625 63.6875 23.203125 63.6875 
C 35 63.6875 35 45.453125 35 41.421875 
C 35 34.265625 31.796875 23.59375 22.296875 23.59375 
z
" id="CMR17-57"/>
     </defs>
     <g transform="translate(17.035398 260.600777)rotate(-90)scale(0.144 -0.144)">
      <use transform="translate(0 14.943915)scale(0.996264)" xlink:href="#CMMI12-115"/>
      <use transform="translate(45.950048 0)scale(0.697382)" xlink:href="#CMR17-57"/>
      <use transform="translate(77.93323 0)scale(0.697382)" xlink:href="#CMR17-50"/>
     </g>
    </g>
   </g>
   <g id="line2d_74">
    <path clip-path="url(#p89408ec829)" d="M 76.385455 255.779285 
L 80.412152 257.188448 
L 84.438849 258.366956 
L 88.465547 261.170713 
L 92.492244 262.762368 
L 96.518941 262.08847 
L 100.545639 263.64835 
L 104.572336 266.404619 
L 108.599033 268.480225 
L 112.625731 269.277264 
L 116.652428 268.729662 
L 120.679125 268.729662 
L 124.705823 271.390447 
L 128.73252 271.390447 
L 132.759217 272.44224 
L 136.785915 272.44224 
L 140.812612 272.44224 
L 144.83931 272.44224 
L 148.866007 271.390447 
L 152.892704 271.390447 
L 156.919402 271.390447 
L 160.946099 271.390447 
L 164.972796 268.859039 
L 168.999494 267.579898 
L 173.026191 266.404619 
L 177.052888 266.404619 
L 181.079586 266.37756 
L 185.106283 264.936406 
L 189.13298 263.969901 
L 193.159678 262.319055 
L 197.186375 261.434862 
L 201.213072 259.590322 
L 205.23977 258.306327 
L 209.266467 258.813386 
L 213.293165 257.103951 
L 217.319862 256.12285 
L 221.346559 255.532572 
L 225.373257 254.549441 
L 229.399954 253.455238 
L 233.426651 253.262566 
L 237.453349 252.715416 
L 241.480046 251.759113 
L 245.506743 250.714574 
L 249.533441 250.518761 
L 253.560138 250.518761 
L 257.586835 249.875488 
L 261.613533 249.455318 
L 265.64023 249.455318 
L 269.666928 249.455318 
L 273.693625 248.218079 
L 277.720322 247.888789 
L 281.74702 247.888789 
L 285.773717 247.678753 
L 289.800414 247.678753 
L 293.827112 247.678753 
L 297.853809 247.177228 
L 301.880506 247.177228 
L 305.907204 246.168203 
L 309.933901 245.869072 
L 313.960598 246.219744 
L 317.987296 245.607311 
L 322.013993 245.913943 
L 326.04069 243.865624 
L 330.067388 243.595635 
L 334.094085 242.570026 
L 338.120783 242.489208 
L 342.14748 241.162948 
L 346.174177 241.122241 
L 350.200875 239.661072 
L 354.227572 238.805915 
L 358.254269 238.641293 
L 362.280967 237.173959 
L 366.307664 236.513868 
L 370.334361 235.29813 
L 374.361059 234.512584 
L 378.387756 234.009718 
L 382.414453 234.270931 
L 386.441151 232.999249 
L 390.467848 232.999249 
L 394.494545 232.17984 
" style="fill:none;stroke:#1f77b4;stroke-linecap:square;stroke-width:1.5;"/>
   </g>
   <g id="line2d_75">
    <path clip-path="url(#p89408ec829)" d="M 76.385455 255.54863 
L 80.412152 256.954052 
L 84.438849 258.326403 
L 88.465547 259.652209 
L 92.492244 260.918975 
L 96.518941 262.115415 
L 100.545639 263.231624 
L 104.572336 264.259185 
L 108.599033 265.191208 
L 112.625731 266.022317 
L 116.652428 266.748555 
L 120.679125 267.367281 
L 124.705823 267.877018 
L 128.73252 268.27728 
L 132.759217 268.56842 
L 136.785915 268.751492 
L 140.812612 268.828133 
L 144.83931 268.800483 
L 148.866007 268.671145 
L 152.892704 268.443188 
L 156.919402 268.120161 
L 160.946099 267.706143 
L 164.972796 267.2058 
L 168.999494 266.624446 
L 173.026191 265.968092 
L 177.052888 265.243472 
L 181.079586 264.458055 
L 185.106283 263.620021 
L 189.13298 262.738194 
L 193.159678 261.821954 
L 197.186375 260.881105 
L 201.213072 259.925696 
L 205.23977 258.965856 
L 209.266467 258.011549 
L 213.293165 257.072384 
L 217.319862 256.15738 
L 221.346559 255.274773 
L 225.373257 254.431827 
L 229.399954 253.634687 
L 233.426651 252.888267 
L 237.453349 252.196158 
L 241.480046 251.560593 
L 245.506743 250.982447 
L 249.533441 250.461249 
L 253.560138 249.995232 
L 257.586835 249.581438 
L 261.613533 249.215793 
L 265.64023 248.89324 
L 269.666928 248.607881 
L 273.693625 248.353124 
L 277.720322 248.121846 
L 281.74702 247.90657 
L 285.773717 247.699653 
L 289.800414 247.493449 
L 293.827112 247.280509 
L 297.853809 247.053746 
L 301.880506 246.806612 
L 305.907204 246.533244 
L 309.933901 246.228605 
L 313.960598 245.888581 
L 317.987296 245.510076 
L 322.013993 245.09107 
L 326.04069 244.63064 
L 330.067388 244.128971 
L 334.094085 243.587315 
L 338.120783 243.007972 
L 342.14748 242.394216 
L 346.174177 241.750254 
L 350.200875 241.081148 
L 354.227572 240.392794 
L 358.254269 239.691856 
L 362.280967 238.98575 
L 366.307664 238.282597 
L 370.334361 237.591171 
L 374.361059 236.920815 
L 378.387756 236.281309 
L 382.414453 235.682706 
L 386.441151 235.135133 
L 390.467848 234.648571 
L 394.494545 234.232671 
" style="fill:none;stroke:#ff7f0e;stroke-linecap:square;stroke-width:1.5;"/>
   </g>
   <g id="patch_23">
    <path d="M 60.48 278.4816 
L 60.48 226.14048 
" style="fill:none;stroke:#000000;stroke-linecap:square;stroke-linejoin:miter;stroke-width:0.8;"/>
   </g>
   <g id="patch_24">
    <path d="M 410.4 278.4816 
L 410.4 226.14048 
" style="fill:none;stroke:#000000;stroke-linecap:square;stroke-linejoin:miter;stroke-width:0.8;"/>
   </g>
   <g id="patch_25">
    <path d="M 60.48 278.4816 
L 410.4 278.4816 
" style="fill:none;stroke:#000000;stroke-linecap:square;stroke-linejoin:miter;stroke-width:0.8;"/>
   </g>
   <g id="patch_26">
    <path d="M 60.48 226.14048 
L 410.4 226.14048 
" style="fill:none;stroke:#000000;stroke-linecap:square;stroke-linejoin:miter;stroke-width:0.8;"/>
   </g>
  </g>
  <g id="legend_1">
   <g id="patch_27">
    <path d="M 90.347769 328.32 
L 341.652231 328.32 
Q 344.532231 328.32 344.532231 325.44 
L 344.532231 306.810473 
Q 344.532231 303.930473 341.652231 303.930473 
L 90.347769 303.930473 
Q 87.467769 303.930473 87.467769 306.810473 
L 87.467769 325.44 
Q 87.467769 328.32 90.347769 328.32 
z
" style="fill:#ffffff;opacity:0.8;stroke:#cccccc;stroke-linejoin:miter;"/>
   </g>
   <g id="line2d_76">
    <path d="M 93.227769 314.730473 
L 122.027769 314.730473 
" style="fill:none;stroke:#1f77b4;stroke-linecap:square;stroke-width:1.5;"/>
   </g>
   <g id="line2d_77"/>
   <g id="text_35">
    <!-- Prediction -->
    <defs>
     <path d="M 32.90625 29 
C 44.90625 29 54.703125 38.234375 54.703125 49.046875 
C 54.703125 59.65625 45.296875 69 32.296875 69 
L 8.90625 69 
L 8.90625 0 
L 17.296875 0 
L 17.296875 29 
z
M 30.09375 63.390625 
C 41.703125 63.390625 46.796875 56.21875 46.796875 49.046875 
C 46.796875 42.359375 42.09375 34.796875 30.09375 34.796875 
L 17.09375 34.796875 
L 17.09375 63.390625 
z
" id="CMSS17-80"/>
     <path d="M 14.90625 21.390625 
C 14.90625 30.84375 21.796875 37.171875 30.59375 37.375 
L 30.59375 44 
C 24.203125 43.890625 18.203125 40.6875 14.59375 35.46875 
L 14.59375 43.484375 
L 7.5 43.484375 
L 7.5 0 
L 14.90625 0 
z
" id="CMSS17-114"/>
     <path d="M 39.09375 21.484375 
C 39.09375 24.796875 38.90625 31.265625 35.703125 36.671875 
C 32.203125 42.390625 26.5 44 22.203125 44 
C 11.796875 44 3 34.125 3 21.296875 
C 3 9.046875 12.09375 -1 23.59375 -1 
C 28.09375 -1 33.59375 0.296875 38.59375 3.890625 
C 38.59375 4.296875 38.40625 6.46875 38.296875 6.578125 
C 38.296875 6.765625 38 9.828125 38 10.234375 
C 33.203125 6.375 27.703125 5.09375 23.703125 5.09375 
C 17.296875 5.09375 10.40625 10.421875 10.09375 21.484375 
z
M 10.90625 27 
C 12.203125 32.59375 16.59375 37.890625 22.203125 37.890625 
C 23.703125 37.890625 30.703125 37.6875 32.5 27 
z
" id="CMSS17-101"/>
     <path d="M 40.796875 69 
L 33.40625 69 
L 33.40625 38.984375 
C 30.296875 41.59375 25.203125 44 19.59375 44 
C 10.5 44 3.296875 34.046875 3.296875 21.484375 
C 3.296875 8.9375 10.40625 -1 19.296875 -1 
C 26.203125 -1 30.796875 2.6875 33.203125 4.796875 
L 33.203125 -0.203125 
L 40.796875 -0.203125 
z
M 33.203125 13.296875 
C 33.203125 11.875 33.203125 10.359375 30.09375 7.625 
C 28.09375 5.90625 25.703125 5.09375 23.40625 5.09375 
C 18 5.09375 10.90625 9.140625 10.90625 21.390625 
C 10.90625 34.140625 18.90625 37.890625 24.40625 37.890625 
C 28.09375 37.890625 31.09375 36.0625 33.203125 33.03125 
z
" id="CMSS17-100"/>
     <path d="M 15.296875 66 
L 6.90625 66 
L 6.90625 57.59375 
L 15.296875 57.59375 
z
M 14.796875 43 
L 7.40625 43 
L 7.40625 0 
L 14.796875 0 
z
" id="CMSS17-105"/>
     <path d="M 38.5 39.6875 
C 38.5 40.390625 33.90625 42.390625 32.703125 42.796875 
C 29.40625 44 25.203125 44 24.09375 44 
C 11.09375 44 3.296875 32.6875 3.296875 21.296875 
C 3.296875 9.296875 12 -1 23.703125 -1 
C 30.40625 -1 35.203125 1.1875 39.09375 3.796875 
L 38.5 10.390625 
C 34.203125 7.09375 29.203125 5.296875 23.796875 5.296875 
C 16 5.296875 10.90625 12.09375 10.90625 21.390625 
C 10.90625 28.59375 14.203125 37.6875 24.203125 37.6875 
C 29.703125 37.6875 32.796875 36.59375 37.40625 33.484375 
z
" id="CMSS17-99"/>
     <path d="M 16.703125 37.1875 
L 29.703125 37.1875 
L 29.703125 43 
L 16.703125 43 
L 16.703125 55 
L 9.59375 55 
L 9.59375 43 
L 1.703125 43 
L 1.703125 37.1875 
L 9.40625 37.1875 
L 9.40625 11.734375 
C 9.40625 6 10.703125 -1 17.296875 -1 
C 22.296875 -1 26.90625 0.390625 31.296875 2.6875 
L 29.703125 8.609375 
C 27.296875 6.5 24.40625 5.296875 21.296875 5.296875 
C 16.90625 5.296875 16.703125 10.921875 16.703125 13.4375 
z
" id="CMSS17-116"/>
     <path d="M 44.203125 21.1875 
C 44.203125 33.984375 34.703125 44 23.5 44 
C 12 44 2.703125 33.6875 2.703125 21.1875 
C 2.703125 8.5 12.296875 -1 23.40625 -1 
C 34.796875 -1 44.203125 8.796875 44.203125 21.1875 
z
M 23.5 5.296875 
C 16.40625 5.296875 10.296875 11.09375 10.296875 21.984375 
C 10.296875 33.59375 17.40625 37.890625 23.40625 37.890625 
C 29.90625 37.890625 36.59375 33.1875 36.59375 21.984375 
C 36.59375 10.6875 30.09375 5.296875 23.5 5.296875 
z
" id="CMSS17-111"/>
     <path d="M 40.90625 29.34375 
C 40.90625 35.671875 39.40625 44 28.09375 44 
C 21.703125 44 17.5 40.6875 14.703125 37.28125 
L 14.703125 43.484375 
L 7.40625 43.484375 
L 7.40625 0 
L 15 0 
L 15 24.3125 
C 15 30.65625 17.40625 37.890625 24.203125 37.890625 
C 33 37.890625 33.296875 31.953125 33.296875 28.53125 
L 33.296875 0 
L 40.90625 0 
z
" id="CMSS17-110"/>
    </defs>
    <g transform="translate(133.547769 319.770473)scale(0.144 -0.144)">
     <use transform="scale(0.996264)" xlink:href="#CMSS17-80"/>
     <use transform="translate(59.735586 0)scale(0.996264)" xlink:href="#CMSS17-114"/>
     <use transform="translate(91.645359 0)scale(0.996264)" xlink:href="#CMSS17-101"/>
     <use transform="translate(133.284181 0)scale(0.996264)" xlink:href="#CMSS17-100"/>
     <use transform="translate(181.489124 0)scale(0.996264)" xlink:href="#CMSS17-105"/>
     <use transform="translate(203.669847 0)scale(0.996264)" xlink:href="#CMSS17-99"/>
     <use transform="translate(245.308669 0)scale(0.996264)" xlink:href="#CMSS17-116"/>
     <use transform="translate(279.140236 0)scale(0.996264)" xlink:href="#CMSS17-105"/>
     <use transform="translate(301.320959 0)scale(0.996264)" xlink:href="#CMSS17-111"/>
     <use transform="translate(348.164582 0)scale(0.996264)" xlink:href="#CMSS17-110"/>
    </g>
   </g>
   <g id="line2d_78">
    <path d="M 221.657903 314.730473 
L 250.457903 314.730473 
" style="fill:none;stroke:#ff7f0e;stroke-linecap:square;stroke-width:1.5;"/>
   </g>
   <g id="line2d_79"/>
   <g id="text_36">
    <!-- Ground truth -->
    <defs>
     <path d="M 56.40625 29.1875 
L 36.5 29.1875 
L 36.5 23 
L 48.796875 23 
L 48.796875 7.390625 
C 44.90625 6.296875 40.90625 5.5 36.90625 5.5 
C 22.90625 5.5 14.59375 20.484375 14.59375 34.6875 
C 14.59375 48.796875 23.296875 63.59375 36.90625 63.59375 
C 44.59375 63.59375 48.90625 61.1875 54.203125 57.1875 
L 55.5 65.1875 
C 48.90625 68.59375 44.796875 70 37.296875 70 
C 17.90625 70 6.203125 52.390625 6.203125 34.390625 
C 6.203125 17.1875 18 -1 36.703125 -1 
C 43.703125 -1 50.203125 0.796875 56.40625 3.890625 
z
" id="CMSS17-71"/>
     <path d="M 40.90625 43 
L 33.296875 43 
L 33.296875 15.25 
C 33.296875 7.8125 27.90625 4.796875 22.203125 4.796875 
C 15.59375 4.796875 15 7 15 11.125 
L 15 43 
L 7.40625 43 
L 7.40625 10.625 
C 7.40625 2.796875 10.09375 -1 17 -1 
C 20.40625 -1 28.09375 -0.203125 33.5 4.796875 
L 33.5 -0.203125 
L 40.90625 -0.203125 
z
" id="CMSS17-117"/>
     <path d="M 40.90625 29.34375 
C 40.90625 35.671875 39.40625 44 28.09375 44 
C 21.796875 44 17.703125 40.890625 14.796875 37.484375 
L 14.796875 69 
L 7.40625 69 
L 7.40625 0 
L 15 0 
L 15 24.3125 
C 15 30.65625 17.40625 37.890625 24.203125 37.890625 
C 33 37.890625 33.296875 31.953125 33.296875 28.53125 
L 33.296875 0 
L 40.90625 0 
z
" id="CMSS17-104"/>
    </defs>
    <g transform="translate(261.977903 319.770473)scale(0.144 -0.144)">
     <use transform="scale(0.996264)" xlink:href="#CMSS17-71"/>
     <use transform="translate(62.458226 0)scale(0.996264)" xlink:href="#CMSS17-114"/>
     <use transform="translate(94.367998 0)scale(0.996264)" xlink:href="#CMSS17-111"/>
     <use transform="translate(141.211622 0)scale(0.996264)" xlink:href="#CMSS17-117"/>
     <use transform="translate(189.416565 0)scale(0.996264)" xlink:href="#CMSS17-110"/>
     <use transform="translate(237.621508 0)scale(0.996264)" xlink:href="#CMSS17-100"/>
     <use transform="translate(317.055564 0)scale(0.996264)" xlink:href="#CMSS17-116"/>
     <use transform="translate(350.88713 0)scale(0.996264)" xlink:href="#CMSS17-114"/>
     <use transform="translate(382.796903 0)scale(0.996264)" xlink:href="#CMSS17-117"/>
     <use transform="translate(431.001846 0)scale(0.996264)" xlink:href="#CMSS17-116"/>
     <use transform="translate(464.833413 0)scale(0.996264)" xlink:href="#CMSS17-104"/>
    </g>
   </g>
  </g>
 </g>
 <defs>
  <clipPath id="p72f046f71b">
   <rect height="52.34112" width="349.92" x="60.48" y="16.776"/>
  </clipPath>
  <clipPath id="pa554e342ee">
   <rect height="52.34112" width="349.92" x="60.48" y="69.11712"/>
  </clipPath>
  <clipPath id="p406a0a2c08">
   <rect height="52.34112" width="349.92" x="60.48" y="121.45824"/>
  </clipPath>
  <clipPath id="p9ccefd12cf">
   <rect height="52.34112" width="349.92" x="60.48" y="173.79936"/>
  </clipPath>
  <clipPath id="p89408ec829">
   <rect height="52.34112" width="349.92" x="60.48" y="226.14048"/>
  </clipPath>
 </defs>
</svg>
