<?xml version="1.0" encoding="utf-8" standalone="no"?>
<!DOCTYPE svg PUBLIC "-//W3C//DTD SVG 1.1//EN"
  "http://www.w3.org/Graphics/SVG/1.1/DTD/svg11.dtd">
<!-- Created with matplotlib (http://matplotlib.org/) -->
<svg height="335.52pt" version="1.1" viewBox="0 0 432 335.52" width="432pt" xmlns="http://www.w3.org/2000/svg" xmlns:xlink="http://www.w3.org/1999/xlink">
 <defs>
  <style type="text/css">
*{stroke-linecap:butt;stroke-linejoin:round;}
  </style>
 </defs>
 <g id="figure_1">
  <g id="patch_1">
   <path d="M 0 335.52 
L 432 335.52 
L 432 0 
L 0 0 
z
" style="fill:#ffffff;"/>
  </g>
  <g id="axes_1">
   <g id="patch_2">
    <path d="M 60.48 69.11712 
L 410.4 69.11712 
L 410.4 16.776 
L 60.48 16.776 
z
" style="fill:#ffffff;"/>
   </g>
   <g id="matplotlib.axis_1">
    <g id="xtick_1">
     <g id="line2d_1">
      <defs>
       <path d="M 0 0 
L 0 3.5 
" id="mc0c24491ad" style="stroke:#000000;stroke-width:0.8;"/>
      </defs>
      <g>
       <use style="stroke:#000000;stroke-width:0.8;" x="76.385455" xlink:href="#mc0c24491ad" y="69.11712"/>
      </g>
     </g>
    </g>
    <g id="xtick_2">
     <g id="line2d_2">
      <g>
       <use style="stroke:#000000;stroke-width:0.8;" x="116.652428" xlink:href="#mc0c24491ad" y="69.11712"/>
      </g>
     </g>
    </g>
    <g id="xtick_3">
     <g id="line2d_3">
      <g>
       <use style="stroke:#000000;stroke-width:0.8;" x="156.919402" xlink:href="#mc0c24491ad" y="69.11712"/>
      </g>
     </g>
    </g>
    <g id="xtick_4">
     <g id="line2d_4">
      <g>
       <use style="stroke:#000000;stroke-width:0.8;" x="197.186375" xlink:href="#mc0c24491ad" y="69.11712"/>
      </g>
     </g>
    </g>
    <g id="xtick_5">
     <g id="line2d_5">
      <g>
       <use style="stroke:#000000;stroke-width:0.8;" x="237.453349" xlink:href="#mc0c24491ad" y="69.11712"/>
      </g>
     </g>
    </g>
    <g id="xtick_6">
     <g id="line2d_6">
      <g>
       <use style="stroke:#000000;stroke-width:0.8;" x="277.720322" xlink:href="#mc0c24491ad" y="69.11712"/>
      </g>
     </g>
    </g>
    <g id="xtick_7">
     <g id="line2d_7">
      <g>
       <use style="stroke:#000000;stroke-width:0.8;" x="317.987296" xlink:href="#mc0c24491ad" y="69.11712"/>
      </g>
     </g>
    </g>
    <g id="xtick_8">
     <g id="line2d_8">
      <g>
       <use style="stroke:#000000;stroke-width:0.8;" x="358.254269" xlink:href="#mc0c24491ad" y="69.11712"/>
      </g>
     </g>
    </g>
    <g id="xtick_9">
     <g id="line2d_9">
      <g>
       <use style="stroke:#000000;stroke-width:0.8;" x="398.521243" xlink:href="#mc0c24491ad" y="69.11712"/>
      </g>
     </g>
    </g>
   </g>
   <g id="matplotlib.axis_2">
    <g id="ytick_1">
     <g id="line2d_10">
      <defs>
       <path d="M 0 0 
L -3.5 0 
" id="me8de8b7743" style="stroke:#000000;stroke-width:0.8;"/>
      </defs>
      <g>
       <use style="stroke:#000000;stroke-width:0.8;" x="60.48" xlink:href="#me8de8b7743" y="63.07776"/>
      </g>
     </g>
     <g id="text_1">
      <!-- -4.38 -->
      <defs>
       <path d="M 26 19 
L 26 24.796875 
L 1 24.796875 
L 1 19 
z
" id="CMSS17-45"/>
       <path d="M 35.203125 17 
L 44.296875 17 
L 44.296875 23.09375 
L 35.203125 23.09375 
L 35.203125 66 
L 26.40625 66 
L 2.59375 23.09375 
L 2.59375 17 
L 27.296875 17 
L 27.296875 0 
L 35.203125 0 
z
M 10.296875 23.09375 
C 16.09375 33.421875 27.59375 54.28125 27.59375 61.359375 
L 27.59375 23.09375 
z
" id="CMSS17-52"/>
       <path d="M 17 8 
L 9 8 
L 9 0 
L 17 0 
z
" id="CMSS17-46"/>
       <path d="M 15.703125 32.1875 
L 22.5 32.1875 
C 31.90625 32.1875 34.59375 23.9375 34.59375 18.1875 
C 34.59375 10.34375 30.203125 4.1875 23 4.1875 
C 17.40625 4.1875 9.5 7.015625 5 14.46875 
C 4.296875 10.9375 4.296875 10.734375 3.90625 8.328125 
C 8.59375 1.390625 16.203125 -2 23.203125 -2 
C 34.59375 -2 43 7.515625 43 18.09375 
C 43 26.046875 37.5 32.6875 30 35.1875 
C 36 38.484375 40.40625 44.6875 40.40625 51.890625 
C 40.40625 60.296875 32.703125 67 23.296875 67 
C 14.703125 67 8 61.6875 5.203125 55.984375 
C 5.90625 54.984375 7.703125 52.09375 8.59375 50.59375 
C 10.796875 56.484375 16.5 60.890625 23.203125 60.890625 
C 28.796875 60.890625 32.5 57.1875 32.5 51.890625 
C 32.5 46.390625 29 40.390625 23.09375 39 
C 22.703125 39 16.5 38.390625 15.703125 38.296875 
z
" id="CMSS17-51"/>
       <path d="M 30.203125 35.09375 
C 37.796875 37.59375 41.703125 43.640625 41.703125 49.59375 
C 41.703125 58.96875 33.703125 67 23.5 67 
C 12.90625 67 5.203125 58.671875 5.203125 49.59375 
C 5.203125 43.734375 9 37.6875 16.703125 35.09375 
C 6.90625 31.296875 3.90625 23.6875 3.90625 18 
C 3.90625 7 12.796875 -2 23.40625 -2 
C 34.40625 -2 43 7.1875 43 18 
C 43 24.59375 39.09375 31.59375 30.203125 35.09375 
z
M 23.5 38.09375 
C 16.796875 38.09375 12.296875 42.625 12.296875 49.484375 
C 12.296875 56.453125 16.796875 60.890625 23.5 60.890625 
C 29.703125 60.890625 34.59375 56.859375 34.59375 49.484375 
C 34.59375 42.234375 29.796875 38.09375 23.5 38.09375 
z
M 23.5 4.1875 
C 17.796875 4.1875 11.703125 8.09375 11.703125 18.09375 
C 11.703125 28.390625 18.5 32 23.40625 32 
C 28.796875 32 35.203125 28.1875 35.203125 18.09375 
C 35.203125 7.6875 28.59375 4.1875 23.5 4.1875 
z
" id="CMSS17-56"/>
      </defs>
      <g transform="translate(23.824925 68.059072)scale(0.144 -0.144)">
       <use transform="scale(0.996264)" xlink:href="#CMSS17-45"/>
       <use transform="translate(31.229113 0)scale(0.996264)" xlink:href="#CMSS17-52"/>
       <use transform="translate(78.072736 0)scale(0.996264)" xlink:href="#CMSS17-46"/>
       <use transform="translate(104.096941 0)scale(0.996264)" xlink:href="#CMSS17-51"/>
       <use transform="translate(150.940565 0)scale(0.996264)" xlink:href="#CMSS17-56"/>
      </g>
     </g>
    </g>
    <g id="ytick_2">
     <g id="line2d_11">
      <g>
       <use style="stroke:#000000;stroke-width:0.8;" x="60.48" xlink:href="#me8de8b7743" y="49.65696"/>
      </g>
     </g>
     <g id="text_2">
      <!-- -4.15 -->
      <defs>
       <path d="M 28.40625 67 
L 26.5 67 
C 21.09375 61.703125 14.796875 60.96875 8.40625 60.796875 
L 8.40625 55 
C 11.296875 55.09375 16 55.296875 20.703125 57.390625 
L 20.703125 5.796875 
L 8.90625 5.796875 
L 8.90625 0 
L 40.203125 0 
L 40.203125 5.796875 
L 28.40625 5.796875 
z
" id="CMSS17-49"/>
       <path d="M 14.59375 59.59375 
L 39.09375 59.59375 
L 39.09375 66 
L 7.296875 66 
L 7.296875 28.59375 
L 14 28.59375 
C 15.796875 32.859375 19.5 36 24.296875 36 
C 28.796875 36 33.796875 31.9375 33.796875 20.296875 
C 33.796875 7.84375 26.703125 4.1875 21.5 4.1875 
C 15.09375 4.1875 9.203125 8.140625 6.59375 13.609375 
L 3.40625 7.9375 
C 8 0.796875 15.5 -2 21.5 -2 
C 33.09375 -2 42.203125 7.9375 42.203125 20.09375 
C 42.203125 32.546875 34.09375 42.09375 24.40625 42.09375 
C 20.90625 42.09375 17.5 40.890625 14.59375 38.5 
z
" id="CMSS17-53"/>
      </defs>
      <g transform="translate(23.824925 54.638272)scale(0.144 -0.144)">
       <use transform="scale(0.996264)" xlink:href="#CMSS17-45"/>
       <use transform="translate(31.229113 0)scale(0.996264)" xlink:href="#CMSS17-52"/>
       <use transform="translate(78.072736 0)scale(0.996264)" xlink:href="#CMSS17-46"/>
       <use transform="translate(104.096941 0)scale(0.996264)" xlink:href="#CMSS17-49"/>
       <use transform="translate(150.940565 0)scale(0.996264)" xlink:href="#CMSS17-53"/>
      </g>
     </g>
    </g>
    <g id="ytick_3">
     <g id="line2d_12">
      <g>
       <use style="stroke:#000000;stroke-width:0.8;" x="60.48" xlink:href="#me8de8b7743" y="36.23616"/>
      </g>
     </g>
     <g id="text_3">
      <!-- -3.91 -->
      <defs>
       <path d="M 6.796875 2.6875 
C 9.59375 0.296875 13.203125 -2 19.296875 -2 
C 31.40625 -2 43 11.53125 43 33.375 
C 43 62.296875 30.5 67 23.796875 67 
C 17.09375 67 12.796875 63.984375 9.09375 59.203125 
C 4.703125 53.71875 3.90625 48.828125 3.90625 43.140625 
C 3.90625 36.359375 5.09375 32.171875 7.90625 27.390625 
C 11.703125 21.1875 15.203125 19.890625 19.09375 19.890625 
C 25 19.890625 30.90625 22.796875 34.90625 27.78125 
C 34.203125 14.1875 28.09375 4.1875 19.296875 4.1875 
C 15.703125 4.1875 12.796875 5.3125 9.90625 8.0625 
z
M 34.59375 43.34375 
C 34.703125 42.640625 34.703125 41.34375 34.703125 40.953125 
C 34.703125 32.578125 29.90625 26 22.90625 26 
C 18.296875 26 15.90625 28.390625 14.09375 31.484375 
C 11.90625 35.359375 11.796875 39.15625 11.796875 43.140625 
C 11.796875 47.03125 11.796875 51.3125 14.59375 55.609375 
C 16.703125 58.703125 19.296875 60.890625 23.796875 60.890625 
C 33 60.890625 34.5 47.4375 34.59375 43.34375 
z
" id="CMSS17-57"/>
      </defs>
      <g transform="translate(23.824925 41.217472)scale(0.144 -0.144)">
       <use transform="scale(0.996264)" xlink:href="#CMSS17-45"/>
       <use transform="translate(31.229113 0)scale(0.996264)" xlink:href="#CMSS17-51"/>
       <use transform="translate(78.072736 0)scale(0.996264)" xlink:href="#CMSS17-46"/>
       <use transform="translate(104.096941 0)scale(0.996264)" xlink:href="#CMSS17-57"/>
       <use transform="translate(150.940565 0)scale(0.996264)" xlink:href="#CMSS17-49"/>
      </g>
     </g>
    </g>
    <g id="ytick_4">
     <g id="line2d_13">
      <g>
       <use style="stroke:#000000;stroke-width:0.8;" x="60.48" xlink:href="#me8de8b7743" y="22.81536"/>
      </g>
     </g>
     <g id="text_4">
      <!-- -3.68 -->
      <defs>
       <path d="M 39 64.984375 
C 34.796875 66.6875 31.796875 67 29 67 
C 16 67 3.90625 53.25 3.90625 31.609375 
C 3.90625 4.1875 15.40625 -2 23.59375 -2 
C 28.09375 -2 32.59375 -0.609375 36.90625 4.390625 
C 41.296875 9.671875 43 14.0625 43 21.75 
C 43 34.109375 36.90625 45.09375 27.796875 45.09375 
C 21.203125 45.09375 15.5 41.59375 12 37.203125 
C 13 51.40625 19.59375 60.890625 29.09375 60.890625 
C 31.703125 60.890625 35.09375 60.484375 39 58.75 
z
M 12.09375 21.4375 
C 12.09375 22.234375 12.09375 22.734375 12.203125 24.234375 
C 12.203125 32.015625 16.703125 39 24 39 
C 28.703125 39 31.09375 36.5 32.90625 33.40625 
C 35 29.515625 35.09375 25.828125 35.09375 21.75 
C 35.09375 17.859375 35.09375 13.96875 32.796875 9.96875 
C 30.90625 6.890625 28.40625 4.1875 23.59375 4.1875 
C 14.09375 4.1875 12.5 17.453125 12.09375 21.4375 
z
" id="CMSS17-54"/>
      </defs>
      <g transform="translate(23.824925 27.796672)scale(0.144 -0.144)">
       <use transform="scale(0.996264)" xlink:href="#CMSS17-45"/>
       <use transform="translate(31.229113 0)scale(0.996264)" xlink:href="#CMSS17-51"/>
       <use transform="translate(78.072736 0)scale(0.996264)" xlink:href="#CMSS17-46"/>
       <use transform="translate(104.096941 0)scale(0.996264)" xlink:href="#CMSS17-54"/>
       <use transform="translate(150.940565 0)scale(0.996264)" xlink:href="#CMSS17-56"/>
      </g>
     </g>
    </g>
    <g id="text_5">
     <!-- $s_{1}$ -->
     <defs>
      <path d="M 22.796875 20.15625 
C 24.5 19.859375 27.203125 19.265625 27.796875 19.171875 
C 29.09375 18.765625 33.59375 17.171875 33.59375 12.390625 
C 33.59375 9.296875 30.796875 1 19.203125 1 
C 17.09375 1 9.59375 1.296875 7.59375 6.984375 
C 11.59375 6.46875 13.59375 9.59375 13.59375 11.796875 
C 13.59375 13.890625 12.203125 15 10.203125 15 
C 8 15 5.09375 13.296875 5.09375 8.796875 
C 5.09375 2.75 11.09375 -1 19.09375 -1 
C 34.296875 -1 38.796875 10.390625 38.796875 15.59375 
C 38.796875 17.078125 38.796875 19.859375 35.59375 23.046875 
C 33.09375 25.421875 30.703125 25.921875 25.296875 27.015625 
C 22.59375 27.609375 18.296875 28.5 18.296875 32.984375 
C 18.296875 34.984375 20.09375 41.984375 29.59375 41.984375 
C 33.796875 41.984375 37.90625 40.453125 38.90625 37 
C 34.5 37 34.296875 33.1875 34.296875 33.09375 
C 34.296875 30.984375 36.203125 30.390625 37.09375 30.390625 
C 38.5 30.390625 41.296875 31.484375 41.296875 35.6875 
C 41.296875 39.78125 37.5 44 29.703125 44 
C 16.59375 44 13.09375 33.890625 13.09375 29.796875 
C 13.09375 22.25 20.5 20.65625 22.796875 20.15625 
z
" id="CMMI12-115"/>
      <path d="M 26.59375 63.796875 
C 26.59375 65.890625 26.5 66 25.09375 66 
C 21.203125 61.359375 15.296875 59.890625 9.703125 59.6875 
C 9.40625 59.6875 8.90625 59.6875 8.796875 59.5 
C 8.703125 59.296875 8.703125 59.09375 8.703125 57 
C 11.796875 57 17 57.59375 21 59.984375 
L 21 7.296875 
C 21 3.796875 20.796875 2.59375 12.203125 2.59375 
L 9.203125 2.59375 
L 9.203125 0 
C 14 0.09375 19 0.1875 23.796875 0.1875 
C 28.59375 0.1875 33.59375 0.09375 38.40625 0 
L 38.40625 2.59375 
L 35.40625 2.59375 
C 26.796875 2.59375 26.59375 3.6875 26.59375 7.296875 
z
" id="CMR17-49"/>
     </defs>
     <g transform="translate(17.035398 48.74563)rotate(-90)scale(0.144 -0.144)">
      <use transform="translate(0 14.943915)scale(0.996264)" xlink:href="#CMMI12-115"/>
      <use transform="translate(45.950048 0)scale(0.697382)" xlink:href="#CMR17-49"/>
     </g>
    </g>
   </g>
   <g id="line2d_14">
    <path clip-path="url(#p0ca7772d40)" d="M 76.385455 36.843434 
L 80.412152 37.406656 
L 84.438849 38.043484 
L 88.465547 39.312888 
L 92.492244 40.660481 
L 96.518941 43.45018 
L 100.545639 46.382123 
L 104.572336 46.613814 
L 108.599033 46.486504 
L 112.625731 46.463657 
L 116.652428 46.230699 
L 120.679125 44.873224 
L 124.705823 43.473798 
L 128.73252 42.062261 
L 132.759217 41.291708 
L 136.785915 41.224034 
L 140.812612 41.552275 
L 144.83931 41.892669 
L 148.866007 41.665574 
L 152.892704 40.846355 
L 156.919402 40.607369 
L 160.946099 40.41961 
L 164.972796 40.389193 
L 168.999494 40.527858 
L 173.026191 40.875382 
L 177.052888 41.479274 
L 181.079586 42.437283 
L 185.106283 43.749973 
L 189.13298 45.263496 
L 193.159678 47.535075 
L 197.186375 49.501687 
L 201.213072 51.428413 
L 205.23977 53.152542 
L 209.266467 54.793679 
L 213.293165 56.501954 
L 217.319862 57.850455 
L 221.346559 59.006876 
L 225.373257 60.353726 
L 229.399954 61.35553 
L 233.426651 62.138689 
L 237.453349 62.713693 
L 241.480046 63.07776 
L 245.506743 62.756607 
L 249.533441 62.549772 
L 253.560138 62.205111 
L 257.586835 61.921339 
L 261.613533 61.214318 
L 265.64023 59.570428 
L 269.666928 57.564619 
L 273.693625 56.008236 
L 277.720322 54.206647 
L 281.74702 52.024887 
L 285.773717 50.469578 
L 289.800414 48.712912 
L 293.827112 46.763807 
L 297.853809 45.298372 
L 301.880506 45.670532 
L 305.907204 45.944835 
L 309.933901 45.374896 
L 313.960598 46.152964 
L 317.987296 46.244682 
L 322.013993 46.87595 
L 326.04069 46.096176 
L 330.067388 43.936135 
L 334.094085 40.943221 
L 338.120783 36.758033 
L 342.14748 33.290133 
L 346.174177 30.694331 
L 350.200875 29.060462 
L 354.227572 28.066393 
L 358.254269 27.551673 
L 362.280967 27.090024 
L 366.307664 27.453843 
L 370.334361 27.632862 
L 374.361059 27.773454 
L 378.387756 28.001623 
L 382.414453 28.176141 
L 386.441151 28.126924 
L 390.467848 27.957704 
L 394.494545 27.706537 
" style="fill:none;stroke:#1f77b4;stroke-linecap:square;stroke-width:1.5;"/>
   </g>
   <g id="line2d_15">
    <path clip-path="url(#p0ca7772d40)" d="M 76.385455 22.944955 
L 80.412152 22.944942 
L 84.438849 22.944942 
L 88.465547 22.944928 
L 92.492244 22.944914 
L 96.518941 22.944887 
L 100.545639 22.944845 
L 104.572336 22.944804 
L 108.599033 22.944776 
L 112.625731 22.944818 
L 116.652428 22.944997 
L 120.679125 22.945423 
L 124.705823 22.946166 
L 128.73252 22.947254 
L 132.759217 22.948437 
L 136.785915 22.949112 
L 140.812612 22.948135 
L 144.83931 22.943868 
L 148.866007 22.934413 
L 152.892704 22.918282 
L 156.919402 22.895228 
L 160.946099 22.867289 
L 164.972796 22.839363 
L 168.999494 22.81909 
L 173.026191 22.815828 
L 177.052888 22.838565 
L 181.079586 22.893646 
L 185.106283 22.982694 
L 189.13298 23.101609 
L 193.159678 23.240784 
L 197.186375 23.386592 
L 201.213072 23.523689 
L 205.23977 23.637264 
L 209.266467 23.715054 
L 213.293165 23.74876 
L 217.319862 23.73468 
L 221.346559 23.674149 
L 225.373257 23.573416 
L 229.399954 23.443187 
L 233.426651 23.297571 
L 237.453349 23.152396 
L 241.480046 23.022759 
L 245.506743 22.920567 
L 249.533441 22.852535 
L 253.560138 22.819159 
L 257.586835 22.81536 
L 261.613533 22.832289 
L 265.64023 22.859884 
L 269.666928 22.889269 
L 273.693625 22.914387 
L 277.720322 22.932376 
L 281.74702 22.943084 
L 285.773717 22.947997 
L 289.800414 22.949194 
L 293.827112 22.948506 
L 297.853809 22.947254 
L 301.880506 22.946125 
L 305.907204 22.945368 
L 309.933901 22.944955 
L 313.960598 22.944804 
L 317.987296 22.944776 
L 322.013993 22.944818 
L 326.04069 22.944859 
L 330.067388 22.9449 
L 334.094085 22.944914 
L 338.120783 22.944928 
L 342.14748 22.944928 
L 346.174177 22.944928 
L 350.200875 22.944928 
L 354.227572 22.944928 
L 358.254269 22.944928 
L 362.280967 22.944928 
L 366.307664 22.944928 
L 370.334361 22.944928 
L 374.361059 22.944928 
L 378.387756 22.944928 
L 382.414453 22.944928 
L 386.441151 22.944928 
L 390.467848 22.944928 
L 394.494545 22.944928 
" style="fill:none;stroke:#ff7f0e;stroke-linecap:square;stroke-width:1.5;"/>
   </g>
   <g id="patch_3">
    <path d="M 60.48 69.11712 
L 60.48 16.776 
" style="fill:none;stroke:#000000;stroke-linecap:square;stroke-linejoin:miter;stroke-width:0.8;"/>
   </g>
   <g id="patch_4">
    <path d="M 410.4 69.11712 
L 410.4 16.776 
" style="fill:none;stroke:#000000;stroke-linecap:square;stroke-linejoin:miter;stroke-width:0.8;"/>
   </g>
   <g id="patch_5">
    <path d="M 60.48 69.11712 
L 410.4 69.11712 
" style="fill:none;stroke:#000000;stroke-linecap:square;stroke-linejoin:miter;stroke-width:0.8;"/>
   </g>
   <g id="patch_6">
    <path d="M 60.48 16.776 
L 410.4 16.776 
" style="fill:none;stroke:#000000;stroke-linecap:square;stroke-linejoin:miter;stroke-width:0.8;"/>
   </g>
  </g>
  <g id="axes_2">
   <g id="patch_7">
    <path d="M 60.48 121.45824 
L 410.4 121.45824 
L 410.4 69.11712 
L 60.48 69.11712 
z
" style="fill:#ffffff;"/>
   </g>
   <g id="matplotlib.axis_3">
    <g id="xtick_10">
     <g id="line2d_16">
      <g>
       <use style="stroke:#000000;stroke-width:0.8;" x="76.385455" xlink:href="#mc0c24491ad" y="121.45824"/>
      </g>
     </g>
    </g>
    <g id="xtick_11">
     <g id="line2d_17">
      <g>
       <use style="stroke:#000000;stroke-width:0.8;" x="116.652428" xlink:href="#mc0c24491ad" y="121.45824"/>
      </g>
     </g>
    </g>
    <g id="xtick_12">
     <g id="line2d_18">
      <g>
       <use style="stroke:#000000;stroke-width:0.8;" x="156.919402" xlink:href="#mc0c24491ad" y="121.45824"/>
      </g>
     </g>
    </g>
    <g id="xtick_13">
     <g id="line2d_19">
      <g>
       <use style="stroke:#000000;stroke-width:0.8;" x="197.186375" xlink:href="#mc0c24491ad" y="121.45824"/>
      </g>
     </g>
    </g>
    <g id="xtick_14">
     <g id="line2d_20">
      <g>
       <use style="stroke:#000000;stroke-width:0.8;" x="237.453349" xlink:href="#mc0c24491ad" y="121.45824"/>
      </g>
     </g>
    </g>
    <g id="xtick_15">
     <g id="line2d_21">
      <g>
       <use style="stroke:#000000;stroke-width:0.8;" x="277.720322" xlink:href="#mc0c24491ad" y="121.45824"/>
      </g>
     </g>
    </g>
    <g id="xtick_16">
     <g id="line2d_22">
      <g>
       <use style="stroke:#000000;stroke-width:0.8;" x="317.987296" xlink:href="#mc0c24491ad" y="121.45824"/>
      </g>
     </g>
    </g>
    <g id="xtick_17">
     <g id="line2d_23">
      <g>
       <use style="stroke:#000000;stroke-width:0.8;" x="358.254269" xlink:href="#mc0c24491ad" y="121.45824"/>
      </g>
     </g>
    </g>
    <g id="xtick_18">
     <g id="line2d_24">
      <g>
       <use style="stroke:#000000;stroke-width:0.8;" x="398.521243" xlink:href="#mc0c24491ad" y="121.45824"/>
      </g>
     </g>
    </g>
   </g>
   <g id="matplotlib.axis_4">
    <g id="ytick_5">
     <g id="line2d_25">
      <g>
       <use style="stroke:#000000;stroke-width:0.8;" x="60.48" xlink:href="#me8de8b7743" y="115.41888"/>
      </g>
     </g>
     <g id="text_6">
      <!-- 16.57 -->
      <defs>
       <path d="M 21.703125 59.1875 
C 22.90625 59.1875 24.09375 59.296875 25.296875 59.296875 
L 36.796875 59.296875 
C 22.5 42.421875 14.296875 21.09375 14.296875 -1 
L 22.296875 -1 
C 22.296875 20.390625 29.296875 42.109375 43 59.484375 
L 43 66 
L 3.90625 66 
L 3.90625 59.1875 
z
" id="CMSS17-55"/>
      </defs>
      <g transform="translate(21.483729 120.400192)scale(0.144 -0.144)">
       <use transform="scale(0.996264)" xlink:href="#CMSS17-49"/>
       <use transform="translate(46.843624 0)scale(0.996264)" xlink:href="#CMSS17-54"/>
       <use transform="translate(93.687247 0)scale(0.996264)" xlink:href="#CMSS17-46"/>
       <use transform="translate(119.711452 0)scale(0.996264)" xlink:href="#CMSS17-53"/>
       <use transform="translate(166.555075 0)scale(0.996264)" xlink:href="#CMSS17-55"/>
      </g>
     </g>
    </g>
    <g id="ytick_6">
     <g id="line2d_26">
      <g>
       <use style="stroke:#000000;stroke-width:0.8;" x="60.48" xlink:href="#me8de8b7743" y="101.99808"/>
      </g>
     </g>
     <g id="text_7">
      <!-- 18.40 -->
      <defs>
       <path d="M 43.09375 32.390625 
C 43.09375 38.109375 43 48.75 38.90625 56.984375 
C 34.796875 64.890625 28.203125 67 23.5 67 
C 16.703125 67 10.90625 62.984375 7.90625 56.578125 
C 4.703125 49.859375 3.796875 42.9375 3.796875 32.390625 
C 3.796875 25.171875 4.09375 16.34375 7.703125 8.609375 
C 11.796875 0.09375 18.703125 -2 23.40625 -2 
C 29.59375 -2 35.59375 1.296875 39 8.203125 
C 42.5 15.4375 43.09375 23.359375 43.09375 32.390625 
z
M 23.40625 4.09375 
C 15.796875 4.09375 13.5 12.828125 12.796875 15.734375 
C 11.59375 20.75 11.40625 25.5625 11.40625 33.5 
C 11.40625 39.71875 11.40625 46.75 13.296875 52.265625 
C 15.59375 58.6875 19.59375 60.890625 23.40625 60.890625 
C 30.796875 60.890625 33.203125 53.46875 34 50.859375 
C 35.5 45.546875 35.5 39.3125 35.5 33.5 
C 35.5 24.15625 35.5 4.09375 23.40625 4.09375 
z
" id="CMSS17-48"/>
      </defs>
      <g transform="translate(21.483729 106.979392)scale(0.144 -0.144)">
       <use transform="scale(0.996264)" xlink:href="#CMSS17-49"/>
       <use transform="translate(46.843624 0)scale(0.996264)" xlink:href="#CMSS17-56"/>
       <use transform="translate(93.687247 0)scale(0.996264)" xlink:href="#CMSS17-46"/>
       <use transform="translate(119.711452 0)scale(0.996264)" xlink:href="#CMSS17-52"/>
       <use transform="translate(166.555075 0)scale(0.996264)" xlink:href="#CMSS17-48"/>
      </g>
     </g>
    </g>
    <g id="ytick_7">
     <g id="line2d_27">
      <g>
       <use style="stroke:#000000;stroke-width:0.8;" x="60.48" xlink:href="#me8de8b7743" y="88.57728"/>
      </g>
     </g>
     <g id="text_8">
      <!-- 20.23 -->
      <defs>
       <path d="M 25.796875 21.140625 
C 28.59375 24.03125 32.796875 27.515625 35.703125 31 
C 38.5 34.390625 42.203125 39.171875 42.203125 46.140625 
C 42.203125 57.109375 34.796875 67 22.203125 67 
C 12.296875 67 6.59375 60.796875 3.90625 51.125 
L 7.796875 45.75 
C 10 54.8125 13.09375 60.59375 20.90625 60.59375 
C 29.5 60.59375 34.296875 53.609375 34.296875 45.9375 
C 34.296875 36.78125 27.296875 29.703125 22 24.421875 
C 16.09375 18.546875 10.296875 12.578125 4.703125 6.390625 
L 4.703125 0 
L 42.203125 0 
L 42.203125 6.796875 
L 25.203125 6.796875 
C 24 6.796875 22.796875 6.6875 21.59375 6.6875 
L 11.59375 6.6875 
L 11.59375 6.796875 
z
" id="CMSS17-50"/>
      </defs>
      <g transform="translate(21.483729 93.558592)scale(0.144 -0.144)">
       <use transform="scale(0.996264)" xlink:href="#CMSS17-50"/>
       <use transform="translate(46.843624 0)scale(0.996264)" xlink:href="#CMSS17-48"/>
       <use transform="translate(93.687247 0)scale(0.996264)" xlink:href="#CMSS17-46"/>
       <use transform="translate(119.711452 0)scale(0.996264)" xlink:href="#CMSS17-50"/>
       <use transform="translate(166.555075 0)scale(0.996264)" xlink:href="#CMSS17-51"/>
      </g>
     </g>
    </g>
    <g id="ytick_8">
     <g id="line2d_28">
      <g>
       <use style="stroke:#000000;stroke-width:0.8;" x="60.48" xlink:href="#me8de8b7743" y="75.15648"/>
      </g>
     </g>
     <g id="text_9">
      <!-- 22.05 -->
      <g transform="translate(21.483729 80.137792)scale(0.144 -0.144)">
       <use transform="scale(0.996264)" xlink:href="#CMSS17-50"/>
       <use transform="translate(46.843624 0)scale(0.996264)" xlink:href="#CMSS17-50"/>
       <use transform="translate(93.687247 0)scale(0.996264)" xlink:href="#CMSS17-46"/>
       <use transform="translate(119.711452 0)scale(0.996264)" xlink:href="#CMSS17-48"/>
       <use transform="translate(166.555075 0)scale(0.996264)" xlink:href="#CMSS17-53"/>
      </g>
     </g>
    </g>
    <g id="text_10">
     <!-- $s_{25}$ -->
     <defs>
      <path d="M 41.703125 15.46875 
L 39.90625 15.46875 
C 38.90625 8.390625 38.09375 7.1875 37.703125 6.59375 
C 37.203125 5.796875 30 5.796875 28.59375 5.796875 
L 9.40625 5.796875 
C 13 9.6875 20 16.765625 28.5 24.9375 
C 34.59375 30.71875 41.703125 37.5 41.703125 47.390625 
C 41.703125 59.1875 32.296875 66 21.796875 66 
C 10.796875 66 4.09375 56.296875 4.09375 47.296875 
C 4.09375 43.390625 7 42.890625 8.203125 42.890625 
C 9.203125 42.890625 12.203125 43.484375 12.203125 46.984375 
C 12.203125 50.09375 9.59375 51 8.203125 51 
C 7.59375 51 7 50.890625 6.59375 50.6875 
C 8.5 59.1875 14.296875 63.390625 20.40625 63.390625 
C 29.09375 63.390625 34.796875 56.5 34.796875 47.390625 
C 34.796875 38.703125 29.703125 31.21875 24 24.734375 
L 4.09375 2.296875 
L 4.09375 0 
L 39.296875 0 
z
" id="CMR17-50"/>
      <path d="M 11.40625 58.59375 
C 12.40625 58.1875 16.5 56.890625 20.703125 56.890625 
C 30 56.890625 35.09375 61.890625 38 64.6875 
C 38 65.484375 38 66 37.40625 66 
C 37.296875 66 37.09375 66 36.296875 65.59375 
C 32.796875 64.09375 28.703125 63 23.703125 63 
C 20.703125 63 16.203125 63.359375 11.296875 65.484375 
C 10.203125 66 10 66 9.90625 66 
C 9.40625 66 9.296875 65.890625 9.296875 63.90625 
L 9.296875 34.859375 
C 9.296875 33.015625 9.296875 32.5 10.296875 32.5 
C 10.796875 32.5 11 32.703125 11.5 33.421875 
C 14.703125 38.046875 19.09375 40 24.09375 40 
C 27.59375 40 35.09375 37.734375 35.09375 20.203125 
C 35.09375 16.984375 35.09375 11.1875 32.09375 6.59375 
C 29.59375 2.484375 25.703125 0.390625 21.40625 0.390625 
C 14.796875 0.390625 8.09375 4.984375 6.296875 12.6875 
C 6.703125 12.59375 7.5 12.390625 7.90625 12.390625 
C 9.203125 12.390625 11.703125 13.09375 11.703125 16.1875 
C 11.703125 18.890625 9.796875 20 7.90625 20 
C 5.59375 20 4.09375 18.59375 4.09375 15.796875 
C 4.09375 7.09375 11 -2 21.59375 -2 
C 31.90625 -2 41.703125 6.890625 41.703125 19.796875 
C 41.703125 32.09375 33.90625 41.59375 24.203125 41.59375 
C 19.09375 41.59375 14.796875 39.6875 11.40625 36 
z
" id="CMR17-53"/>
     </defs>
     <g transform="translate(14.694202 103.577417)rotate(-90)scale(0.144 -0.144)">
      <use transform="translate(0 14.943915)scale(0.996264)" xlink:href="#CMMI12-115"/>
      <use transform="translate(45.950048 0)scale(0.697382)" xlink:href="#CMR17-50"/>
      <use transform="translate(77.93323 0)scale(0.697382)" xlink:href="#CMR17-53"/>
     </g>
    </g>
   </g>
   <g id="line2d_29">
    <path clip-path="url(#p3c7421be88)" d="M 76.385455 92.36303 
L 80.412152 91.765241 
L 84.438849 91.110614 
L 88.465547 90.085157 
L 92.492244 88.997511 
L 96.518941 86.86351 
L 100.545639 84.610582 
L 104.572336 83.956726 
L 108.599033 83.504 
L 112.625731 82.962628 
L 116.652428 82.576825 
L 120.679125 82.98515 
L 124.705823 83.538063 
L 128.73252 84.233182 
L 132.759217 84.614756 
L 136.785915 84.665473 
L 140.812612 84.598047 
L 144.83931 84.682771 
L 148.866007 85.313727 
L 152.892704 86.47702 
L 156.919402 87.388439 
L 160.946099 88.379105 
L 164.972796 89.544541 
L 168.999494 90.600183 
L 173.026191 91.540216 
L 177.052888 92.357218 
L 181.079586 92.90055 
L 185.106283 93.222695 
L 189.13298 93.40248 
L 193.159678 93.052519 
L 197.186375 92.777253 
L 201.213072 92.348828 
L 205.23977 91.856044 
L 209.266467 91.171164 
L 213.293165 90.204533 
L 217.319862 89.262847 
L 221.346559 88.152707 
L 225.373257 86.690939 
L 229.399954 85.244676 
L 233.426651 83.755553 
L 237.453349 82.276207 
L 241.480046 80.821232 
L 245.506743 79.735127 
L 249.533441 78.447738 
L 253.560138 77.198571 
L 257.586835 76.001312 
L 261.613533 75.175585 
L 265.64023 75.15648 
L 269.666928 75.777394 
L 273.693625 76.271662 
L 277.720322 77.110262 
L 281.74702 78.288192 
L 285.773717 79.151667 
L 289.800414 80.253795 
L 293.827112 81.586775 
L 297.853809 82.666073 
L 301.880506 82.626673 
L 305.907204 82.763697 
L 309.933901 83.512726 
L 313.960598 83.453941 
L 317.987296 83.853794 
L 322.013993 83.86766 
L 326.04069 84.683625 
L 330.067388 86.30379 
L 334.094085 88.374217 
L 338.120783 91.169189 
L 342.14748 93.433238 
L 346.174177 95.162555 
L 350.200875 96.29446 
L 354.227572 97.023376 
L 358.254269 97.457124 
L 362.280967 97.847409 
L 366.307664 97.731227 
L 370.334361 97.729028 
L 374.361059 97.732137 
L 378.387756 97.666434 
L 382.414453 97.618042 
L 386.441151 97.697276 
L 390.467848 97.839412 
L 394.494545 98.025051 
" style="fill:none;stroke:#1f77b4;stroke-linecap:square;stroke-width:1.5;"/>
   </g>
   <g id="line2d_30">
    <path clip-path="url(#p3c7421be88)" d="M 76.385455 100.782935 
L 80.412152 100.50956 
L 84.438849 100.21722 
L 88.465547 99.906756 
L 92.492244 99.579667 
L 96.518941 99.238474 
L 100.545639 98.887083 
L 104.572336 98.531211 
L 108.599033 98.178701 
L 112.625731 97.839846 
L 116.652428 97.527491 
L 120.679125 97.257058 
L 124.705823 97.046221 
L 128.73252 96.914505 
L 132.759217 96.882417 
L 136.785915 96.970405 
L 140.812612 97.197587 
L 144.83931 97.580295 
L 148.866007 98.130603 
L 152.892704 98.854953 
L 156.919402 99.753009 
L 160.946099 100.816816 
L 164.972796 102.030463 
L 168.999494 103.370264 
L 173.026191 104.80528 
L 177.052888 106.29852 
L 181.079586 107.8084 
L 185.106283 109.290407 
L 189.13298 110.699105 
L 193.159678 111.990094 
L 197.186375 113.121846 
L 201.213072 114.057481 
L 205.23977 114.766326 
L 209.266467 115.225103 
L 213.293165 115.41888 
L 217.319862 115.341649 
L 221.346559 114.996632 
L 225.373257 114.396126 
L 229.399954 113.561084 
L 233.426651 112.520247 
L 237.453349 111.30908 
L 241.480046 109.968228 
L 245.506743 108.541798 
L 249.533441 107.075366 
L 253.560138 105.613962 
L 257.586835 104.199969 
L 261.613533 102.871247 
L 265.64023 101.659492 
L 269.666928 100.58906 
L 273.693625 99.676227 
L 277.720322 98.929088 
L 281.74702 98.347939 
L 285.773717 97.926209 
L 289.800414 97.651671 
L 293.827112 97.507939 
L 297.853809 97.476018 
L 301.880506 97.535755 
L 305.907204 97.667176 
L 309.933901 97.851457 
L 313.960598 98.07165 
L 317.987296 98.313175 
L 322.013993 98.563958 
L 326.04069 98.814447 
L 330.067388 99.057386 
L 334.094085 99.28765 
L 338.120783 99.501834 
L 342.14748 99.69795 
L 346.174177 99.875214 
L 350.200875 100.033598 
L 354.227572 100.173759 
L 358.254269 100.29672 
L 362.280967 100.403784 
L 366.307664 100.49638 
L 370.334361 100.575964 
L 374.361059 100.643992 
L 378.387756 100.701852 
L 382.414453 100.750832 
L 386.441151 100.792165 
L 390.467848 100.826957 
L 394.494545 100.856258 
" style="fill:none;stroke:#ff7f0e;stroke-linecap:square;stroke-width:1.5;"/>
   </g>
   <g id="patch_8">
    <path d="M 60.48 121.45824 
L 60.48 69.11712 
" style="fill:none;stroke:#000000;stroke-linecap:square;stroke-linejoin:miter;stroke-width:0.8;"/>
   </g>
   <g id="patch_9">
    <path d="M 410.4 121.45824 
L 410.4 69.11712 
" style="fill:none;stroke:#000000;stroke-linecap:square;stroke-linejoin:miter;stroke-width:0.8;"/>
   </g>
   <g id="patch_10">
    <path d="M 60.48 121.45824 
L 410.4 121.45824 
" style="fill:none;stroke:#000000;stroke-linecap:square;stroke-linejoin:miter;stroke-width:0.8;"/>
   </g>
   <g id="patch_11">
    <path d="M 60.48 69.11712 
L 410.4 69.11712 
" style="fill:none;stroke:#000000;stroke-linecap:square;stroke-linejoin:miter;stroke-width:0.8;"/>
   </g>
  </g>
  <g id="axes_3">
   <g id="patch_12">
    <path d="M 60.48 173.79936 
L 410.4 173.79936 
L 410.4 121.45824 
L 60.48 121.45824 
z
" style="fill:#ffffff;"/>
   </g>
   <g id="matplotlib.axis_5">
    <g id="xtick_19">
     <g id="line2d_31">
      <g>
       <use style="stroke:#000000;stroke-width:0.8;" x="76.385455" xlink:href="#mc0c24491ad" y="173.79936"/>
      </g>
     </g>
    </g>
    <g id="xtick_20">
     <g id="line2d_32">
      <g>
       <use style="stroke:#000000;stroke-width:0.8;" x="116.652428" xlink:href="#mc0c24491ad" y="173.79936"/>
      </g>
     </g>
    </g>
    <g id="xtick_21">
     <g id="line2d_33">
      <g>
       <use style="stroke:#000000;stroke-width:0.8;" x="156.919402" xlink:href="#mc0c24491ad" y="173.79936"/>
      </g>
     </g>
    </g>
    <g id="xtick_22">
     <g id="line2d_34">
      <g>
       <use style="stroke:#000000;stroke-width:0.8;" x="197.186375" xlink:href="#mc0c24491ad" y="173.79936"/>
      </g>
     </g>
    </g>
    <g id="xtick_23">
     <g id="line2d_35">
      <g>
       <use style="stroke:#000000;stroke-width:0.8;" x="237.453349" xlink:href="#mc0c24491ad" y="173.79936"/>
      </g>
     </g>
    </g>
    <g id="xtick_24">
     <g id="line2d_36">
      <g>
       <use style="stroke:#000000;stroke-width:0.8;" x="277.720322" xlink:href="#mc0c24491ad" y="173.79936"/>
      </g>
     </g>
    </g>
    <g id="xtick_25">
     <g id="line2d_37">
      <g>
       <use style="stroke:#000000;stroke-width:0.8;" x="317.987296" xlink:href="#mc0c24491ad" y="173.79936"/>
      </g>
     </g>
    </g>
    <g id="xtick_26">
     <g id="line2d_38">
      <g>
       <use style="stroke:#000000;stroke-width:0.8;" x="358.254269" xlink:href="#mc0c24491ad" y="173.79936"/>
      </g>
     </g>
    </g>
    <g id="xtick_27">
     <g id="line2d_39">
      <g>
       <use style="stroke:#000000;stroke-width:0.8;" x="398.521243" xlink:href="#mc0c24491ad" y="173.79936"/>
      </g>
     </g>
    </g>
   </g>
   <g id="matplotlib.axis_6">
    <g id="ytick_9">
     <g id="line2d_40">
      <g>
       <use style="stroke:#000000;stroke-width:0.8;" x="60.48" xlink:href="#me8de8b7743" y="167.76"/>
      </g>
     </g>
     <g id="text_11">
      <!-- 0.01 -->
      <g transform="translate(28.507302 172.741312)scale(0.144 -0.144)">
       <use transform="scale(0.996264)" xlink:href="#CMSS17-48"/>
       <use transform="translate(46.843624 0)scale(0.996264)" xlink:href="#CMSS17-46"/>
       <use transform="translate(72.867828 0)scale(0.996264)" xlink:href="#CMSS17-48"/>
       <use transform="translate(119.711452 0)scale(0.996264)" xlink:href="#CMSS17-49"/>
      </g>
     </g>
    </g>
    <g id="ytick_10">
     <g id="line2d_41">
      <g>
       <use style="stroke:#000000;stroke-width:0.8;" x="60.48" xlink:href="#me8de8b7743" y="154.3392"/>
      </g>
     </g>
     <g id="text_12">
      <!-- 0.13 -->
      <g transform="translate(28.507302 159.320512)scale(0.144 -0.144)">
       <use transform="scale(0.996264)" xlink:href="#CMSS17-48"/>
       <use transform="translate(46.843624 0)scale(0.996264)" xlink:href="#CMSS17-46"/>
       <use transform="translate(72.867828 0)scale(0.996264)" xlink:href="#CMSS17-49"/>
       <use transform="translate(119.711452 0)scale(0.996264)" xlink:href="#CMSS17-51"/>
      </g>
     </g>
    </g>
    <g id="ytick_11">
     <g id="line2d_42">
      <g>
       <use style="stroke:#000000;stroke-width:0.8;" x="60.48" xlink:href="#me8de8b7743" y="140.9184"/>
      </g>
     </g>
     <g id="text_13">
      <!-- 0.26 -->
      <g transform="translate(28.507302 145.899712)scale(0.144 -0.144)">
       <use transform="scale(0.996264)" xlink:href="#CMSS17-48"/>
       <use transform="translate(46.843624 0)scale(0.996264)" xlink:href="#CMSS17-46"/>
       <use transform="translate(72.867828 0)scale(0.996264)" xlink:href="#CMSS17-50"/>
       <use transform="translate(119.711452 0)scale(0.996264)" xlink:href="#CMSS17-54"/>
      </g>
     </g>
    </g>
    <g id="ytick_12">
     <g id="line2d_43">
      <g>
       <use style="stroke:#000000;stroke-width:0.8;" x="60.48" xlink:href="#me8de8b7743" y="127.4976"/>
      </g>
     </g>
     <g id="text_14">
      <!-- 0.38 -->
      <g transform="translate(28.507302 132.478912)scale(0.144 -0.144)">
       <use transform="scale(0.996264)" xlink:href="#CMSS17-48"/>
       <use transform="translate(46.843624 0)scale(0.996264)" xlink:href="#CMSS17-46"/>
       <use transform="translate(72.867828 0)scale(0.996264)" xlink:href="#CMSS17-51"/>
       <use transform="translate(119.711452 0)scale(0.996264)" xlink:href="#CMSS17-56"/>
      </g>
     </g>
    </g>
    <g id="text_15">
     <!-- $s_{50}$ -->
     <defs>
      <path d="M 42 31.84375 
C 42 37.96875 41.90625 48.421875 37.703125 56.453125 
C 34 63.484375 28.09375 66 22.90625 66 
C 18.09375 66 12 63.78125 8.203125 56.5625 
C 4.203125 49.015625 3.796875 39.671875 3.796875 31.84375 
C 3.796875 26.109375 3.90625 17.375 7 9.734375 
C 11.296875 -0.609375 19 -2 22.90625 -2 
C 27.5 -2 34.5 -0.109375 38.59375 9.4375 
C 41.59375 16.375 42 24.5 42 31.84375 
z
M 22.90625 -0.40625 
C 16.5 -0.40625 12.703125 5.125 11.296875 12.75 
C 10.203125 18.6875 10.203125 27.328125 10.203125 32.953125 
C 10.203125 40.6875 10.203125 47.109375 11.5 53.234375 
C 13.40625 61.78125 19 64.390625 22.90625 64.390625 
C 27 64.390625 32.296875 61.671875 34.203125 53.4375 
C 35.5 47.71875 35.59375 40.984375 35.59375 32.953125 
C 35.59375 26.421875 35.59375 18.375 34.40625 12.453125 
C 32.296875 1.5 26.40625 -0.40625 22.90625 -0.40625 
z
" id="CMR17-48"/>
     </defs>
     <g transform="translate(21.717775 155.918537)rotate(-90)scale(0.144 -0.144)">
      <use transform="translate(0 14.943915)scale(0.996264)" xlink:href="#CMMI12-115"/>
      <use transform="translate(45.950048 0)scale(0.697382)" xlink:href="#CMR17-53"/>
      <use transform="translate(77.93323 0)scale(0.697382)" xlink:href="#CMR17-48"/>
     </g>
    </g>
   </g>
   <g id="line2d_44">
    <path clip-path="url(#paa19c9ee12)" d="M 76.385455 157.869336 
L 80.412152 156.074165 
L 84.438849 154.761605 
L 88.465547 154.149625 
L 92.492244 153.805347 
L 96.518941 154.06893 
L 100.545639 154.319004 
L 104.572336 153.124531 
L 108.599033 151.881908 
L 112.625731 150.962793 
L 116.652428 149.796103 
L 120.679125 148.466888 
L 124.705823 147.493374 
L 128.73252 146.721926 
L 132.759217 146.342365 
L 136.785915 146.290884 
L 140.812612 146.341838 
L 144.83931 146.442865 
L 148.866007 146.381755 
L 152.892704 146.211211 
L 156.919402 146.255504 
L 160.946099 146.385411 
L 164.972796 146.496995 
L 168.999494 146.679927 
L 173.026191 146.941419 
L 177.052888 147.344843 
L 181.079586 147.818841 
L 185.106283 148.414024 
L 189.13298 148.836877 
L 193.159678 149.59534 
L 197.186375 150.316075 
L 201.213072 151.259832 
L 205.23977 152.152248 
L 209.266467 152.978461 
L 213.293165 153.812353 
L 217.319862 154.621236 
L 221.346559 155.477858 
L 225.373257 156.695726 
L 229.399954 158.048633 
L 233.426651 159.598183 
L 237.453349 161.08132 
L 241.480046 162.567105 
L 245.506743 163.984084 
L 249.533441 165.383926 
L 253.560138 166.659665 
L 257.586835 167.443602 
L 261.613533 167.76 
L 265.64023 167.42156 
L 269.666928 166.758578 
L 273.693625 166.060032 
L 277.720322 165.114722 
L 281.74702 164.087998 
L 285.773717 162.957271 
L 289.800414 161.044482 
L 293.827112 159.015505 
L 297.853809 157.201872 
L 301.880506 156.045171 
L 305.907204 154.860167 
L 309.933901 153.6721 
L 313.960598 153.291677 
L 317.987296 152.748272 
L 322.013993 152.324573 
L 326.04069 150.821925 
L 330.067388 148.890852 
L 334.094085 146.478763 
L 338.120783 143.250905 
L 342.14748 140.328504 
L 346.174177 137.976377 
L 350.200875 136.344087 
L 354.227572 135.213849 
L 358.254269 134.496046 
L 362.280967 133.896081 
L 366.307664 133.693946 
L 370.334361 133.456122 
L 374.361059 133.234793 
L 378.387756 133.184735 
L 382.414453 133.183846 
L 386.441151 133.099077 
L 390.467848 133.056679 
L 394.494545 133.082063 
" style="fill:none;stroke:#1f77b4;stroke-linecap:square;stroke-width:1.5;"/>
   </g>
   <g id="line2d_45">
    <path clip-path="url(#paa19c9ee12)" d="M 76.385455 148.888459 
L 80.412152 147.081732 
L 84.438849 145.365429 
L 88.465547 143.742451 
L 92.492244 142.214591 
L 96.518941 140.78278 
L 100.545639 139.447245 
L 104.572336 138.20774 
L 108.599033 137.063735 
L 112.625731 136.014514 
L 116.652428 135.059366 
L 120.679125 134.197627 
L 124.705823 133.428813 
L 128.73252 132.752624 
L 132.759217 132.169001 
L 136.785915 131.678114 
L 140.812612 131.280341 
L 144.83931 130.976223 
L 148.866007 130.766413 
L 152.892704 130.651555 
L 156.919402 130.632189 
L 160.946099 130.708626 
L 164.972796 130.880786 
L 168.999494 131.148017 
L 173.026191 131.508956 
L 177.052888 131.961323 
L 181.079586 132.501802 
L 185.106283 133.125842 
L 189.13298 133.82758 
L 193.159678 134.599747 
L 197.186375 135.43367 
L 201.213072 136.31927 
L 205.23977 137.245171 
L 209.266467 138.198841 
L 213.293165 139.166768 
L 217.319862 140.134761 
L 221.346559 141.088179 
L 225.373257 142.012267 
L 229.399954 142.89251 
L 233.426651 143.714912 
L 237.453349 144.46635 
L 241.480046 145.134831 
L 245.506743 145.709758 
L 249.533441 146.182127 
L 253.560138 146.544658 
L 257.586835 146.791897 
L 261.613533 146.920267 
L 265.64023 146.928024 
L 269.666928 146.815246 
L 273.693625 146.583714 
L 277.720322 146.236872 
L 281.74702 145.779669 
L 285.773717 145.218534 
L 289.800414 144.5612 
L 293.827112 143.81669 
L 297.853809 142.995127 
L 301.880506 142.107635 
L 305.907204 141.166159 
L 309.933901 140.183264 
L 313.960598 139.171887 
L 317.987296 138.14507 
L 322.013993 137.115683 
L 326.04069 136.096146 
L 330.067388 135.098172 
L 334.094085 134.132553 
L 338.120783 133.209004 
L 342.14748 132.336077 
L 346.174177 131.52111 
L 350.200875 130.77026 
L 354.227572 130.088586 
L 358.254269 129.480187 
L 362.280967 128.948352 
L 366.307664 128.495762 
L 370.334361 128.124671 
L 374.361059 127.837149 
L 378.387756 127.635241 
L 382.414453 127.52119 
L 386.441151 127.4976 
L 390.467848 127.567605 
L 394.494545 127.734997 
" style="fill:none;stroke:#ff7f0e;stroke-linecap:square;stroke-width:1.5;"/>
   </g>
   <g id="patch_13">
    <path d="M 60.48 173.79936 
L 60.48 121.45824 
" style="fill:none;stroke:#000000;stroke-linecap:square;stroke-linejoin:miter;stroke-width:0.8;"/>
   </g>
   <g id="patch_14">
    <path d="M 410.4 173.79936 
L 410.4 121.45824 
" style="fill:none;stroke:#000000;stroke-linecap:square;stroke-linejoin:miter;stroke-width:0.8;"/>
   </g>
   <g id="patch_15">
    <path d="M 60.48 173.79936 
L 410.4 173.79936 
" style="fill:none;stroke:#000000;stroke-linecap:square;stroke-linejoin:miter;stroke-width:0.8;"/>
   </g>
   <g id="patch_16">
    <path d="M 60.48 121.45824 
L 410.4 121.45824 
" style="fill:none;stroke:#000000;stroke-linecap:square;stroke-linejoin:miter;stroke-width:0.8;"/>
   </g>
  </g>
  <g id="axes_4">
   <g id="patch_17">
    <path d="M 60.48 226.14048 
L 410.4 226.14048 
L 410.4 173.79936 
L 60.48 173.79936 
z
" style="fill:#ffffff;"/>
   </g>
   <g id="matplotlib.axis_7">
    <g id="xtick_28">
     <g id="line2d_46">
      <g>
       <use style="stroke:#000000;stroke-width:0.8;" x="76.385455" xlink:href="#mc0c24491ad" y="226.14048"/>
      </g>
     </g>
    </g>
    <g id="xtick_29">
     <g id="line2d_47">
      <g>
       <use style="stroke:#000000;stroke-width:0.8;" x="116.652428" xlink:href="#mc0c24491ad" y="226.14048"/>
      </g>
     </g>
    </g>
    <g id="xtick_30">
     <g id="line2d_48">
      <g>
       <use style="stroke:#000000;stroke-width:0.8;" x="156.919402" xlink:href="#mc0c24491ad" y="226.14048"/>
      </g>
     </g>
    </g>
    <g id="xtick_31">
     <g id="line2d_49">
      <g>
       <use style="stroke:#000000;stroke-width:0.8;" x="197.186375" xlink:href="#mc0c24491ad" y="226.14048"/>
      </g>
     </g>
    </g>
    <g id="xtick_32">
     <g id="line2d_50">
      <g>
       <use style="stroke:#000000;stroke-width:0.8;" x="237.453349" xlink:href="#mc0c24491ad" y="226.14048"/>
      </g>
     </g>
    </g>
    <g id="xtick_33">
     <g id="line2d_51">
      <g>
       <use style="stroke:#000000;stroke-width:0.8;" x="277.720322" xlink:href="#mc0c24491ad" y="226.14048"/>
      </g>
     </g>
    </g>
    <g id="xtick_34">
     <g id="line2d_52">
      <g>
       <use style="stroke:#000000;stroke-width:0.8;" x="317.987296" xlink:href="#mc0c24491ad" y="226.14048"/>
      </g>
     </g>
    </g>
    <g id="xtick_35">
     <g id="line2d_53">
      <g>
       <use style="stroke:#000000;stroke-width:0.8;" x="358.254269" xlink:href="#mc0c24491ad" y="226.14048"/>
      </g>
     </g>
    </g>
    <g id="xtick_36">
     <g id="line2d_54">
      <g>
       <use style="stroke:#000000;stroke-width:0.8;" x="398.521243" xlink:href="#mc0c24491ad" y="226.14048"/>
      </g>
     </g>
    </g>
   </g>
   <g id="matplotlib.axis_8">
    <g id="ytick_13">
     <g id="line2d_55">
      <g>
       <use style="stroke:#000000;stroke-width:0.8;" x="60.48" xlink:href="#me8de8b7743" y="220.10112"/>
      </g>
     </g>
     <g id="text_16">
      <!-- 6.03 -->
      <g transform="translate(28.507302 225.082432)scale(0.144 -0.144)">
       <use transform="scale(0.996264)" xlink:href="#CMSS17-54"/>
       <use transform="translate(46.843624 0)scale(0.996264)" xlink:href="#CMSS17-46"/>
       <use transform="translate(72.867828 0)scale(0.996264)" xlink:href="#CMSS17-48"/>
       <use transform="translate(119.711452 0)scale(0.996264)" xlink:href="#CMSS17-51"/>
      </g>
     </g>
    </g>
    <g id="ytick_14">
     <g id="line2d_56">
      <g>
       <use style="stroke:#000000;stroke-width:0.8;" x="60.48" xlink:href="#me8de8b7743" y="206.68032"/>
      </g>
     </g>
     <g id="text_17">
      <!-- 6.79 -->
      <g transform="translate(28.507302 211.661632)scale(0.144 -0.144)">
       <use transform="scale(0.996264)" xlink:href="#CMSS17-54"/>
       <use transform="translate(46.843624 0)scale(0.996264)" xlink:href="#CMSS17-46"/>
       <use transform="translate(72.867828 0)scale(0.996264)" xlink:href="#CMSS17-55"/>
       <use transform="translate(119.711452 0)scale(0.996264)" xlink:href="#CMSS17-57"/>
      </g>
     </g>
    </g>
    <g id="ytick_15">
     <g id="line2d_57">
      <g>
       <use style="stroke:#000000;stroke-width:0.8;" x="60.48" xlink:href="#me8de8b7743" y="193.25952"/>
      </g>
     </g>
     <g id="text_18">
      <!-- 7.55 -->
      <g transform="translate(28.507302 198.240832)scale(0.144 -0.144)">
       <use transform="scale(0.996264)" xlink:href="#CMSS17-55"/>
       <use transform="translate(46.843624 0)scale(0.996264)" xlink:href="#CMSS17-46"/>
       <use transform="translate(72.867828 0)scale(0.996264)" xlink:href="#CMSS17-53"/>
       <use transform="translate(119.711452 0)scale(0.996264)" xlink:href="#CMSS17-53"/>
      </g>
     </g>
    </g>
    <g id="ytick_16">
     <g id="line2d_58">
      <g>
       <use style="stroke:#000000;stroke-width:0.8;" x="60.48" xlink:href="#me8de8b7743" y="179.83872"/>
      </g>
     </g>
     <g id="text_19">
      <!-- 8.31 -->
      <g transform="translate(28.507302 184.820032)scale(0.144 -0.144)">
       <use transform="scale(0.996264)" xlink:href="#CMSS17-56"/>
       <use transform="translate(46.843624 0)scale(0.996264)" xlink:href="#CMSS17-46"/>
       <use transform="translate(72.867828 0)scale(0.996264)" xlink:href="#CMSS17-51"/>
       <use transform="translate(119.711452 0)scale(0.996264)" xlink:href="#CMSS17-49"/>
      </g>
     </g>
    </g>
    <g id="text_20">
     <!-- $s_{75}$ -->
     <defs>
      <path d="M 45.09375 61.796875 
L 45.09375 64 
L 21.59375 64 
C 9.90625 64 9.703125 65.09375 9.296875 67 
L 7.5 67 
L 4.59375 48.5 
L 6.40625 48.5 
C 6.703125 50.40625 7.40625 55.5 8.59375 57.390625 
C 9.203125 58.1875 16.59375 58.1875 18.296875 58.1875 
L 40.296875 58.1875 
L 29.203125 41.71875 
C 21.796875 30.640625 16.703125 15.671875 16.703125 2.59375 
C 16.703125 1.390625 16.703125 -2 20.296875 -2 
C 23.90625 -2 23.90625 1.390625 23.90625 2.6875 
L 23.90625 7.28125 
C 23.90625 23.65625 26.703125 34.4375 31.296875 41.3125 
z
" id="CMR17-55"/>
     </defs>
     <g transform="translate(21.717775 208.259657)rotate(-90)scale(0.144 -0.144)">
      <use transform="translate(0 14.943915)scale(0.996264)" xlink:href="#CMMI12-115"/>
      <use transform="translate(45.950048 0)scale(0.697382)" xlink:href="#CMR17-55"/>
      <use transform="translate(77.93323 0)scale(0.697382)" xlink:href="#CMR17-53"/>
     </g>
    </g>
   </g>
   <g id="line2d_59">
    <path clip-path="url(#p5f463bf282)" d="M 76.385455 203.259393 
L 80.412152 204.061053 
L 84.438849 204.017195 
L 88.465547 203.342287 
L 92.492244 202.700693 
L 96.518941 202.263882 
L 100.545639 202.182386 
L 104.572336 203.433915 
L 108.599033 205.001402 
L 112.625731 206.12541 
L 116.652428 207.125819 
L 120.679125 207.160481 
L 124.705823 207.121191 
L 128.73252 206.136748 
L 132.759217 205.005667 
L 136.785915 203.337221 
L 140.812612 201.351889 
L 144.83931 200.120591 
L 148.866007 199.59517 
L 152.892704 199.892349 
L 156.919402 199.74094 
L 160.946099 199.342988 
L 164.972796 198.673467 
L 168.999494 198.631826 
L 173.026191 198.703155 
L 177.052888 198.948796 
L 181.079586 199.179273 
L 185.106283 199.396877 
L 189.13298 199.719892 
L 193.159678 199.754916 
L 197.186375 200.168099 
L 201.213072 199.664865 
L 205.23977 198.810925 
L 209.266467 198.174304 
L 213.293165 197.554213 
L 217.319862 196.88368 
L 221.346559 195.922907 
L 225.373257 194.720007 
L 229.399954 193.369762 
L 233.426651 190.929277 
L 237.453349 188.505389 
L 241.480046 186.146205 
L 245.506743 183.727029 
L 249.533441 182.166344 
L 253.560138 180.611172 
L 257.586835 179.934798 
L 261.613533 179.83872 
L 265.64023 181.760924 
L 269.666928 183.760477 
L 273.693625 186.066134 
L 277.720322 188.516035 
L 281.74702 190.813255 
L 285.773717 193.454107 
L 289.800414 197.052377 
L 293.827112 199.49025 
L 297.853809 201.014292 
L 301.880506 202.616904 
L 305.907204 204.376228 
L 309.933901 205.258144 
L 313.960598 204.484217 
L 317.987296 203.960549 
L 322.013993 203.817039 
L 326.04069 205.303427 
L 330.067388 205.608857 
L 334.094085 205.572442 
L 338.120783 206.89305 
L 342.14748 209.024016 
L 346.174177 210.433427 
L 350.200875 211.365709 
L 354.227572 212.437725 
L 358.254269 212.879493 
L 362.280967 213.478064 
L 366.307664 213.969194 
L 370.334361 214.295319 
L 374.361059 214.918655 
L 378.387756 215.432148 
L 382.414453 215.744508 
L 386.441151 215.684389 
L 390.467848 215.513821 
L 394.494545 215.242318 
" style="fill:none;stroke:#1f77b4;stroke-linecap:square;stroke-width:1.5;"/>
   </g>
   <g id="line2d_60">
    <path clip-path="url(#p5f463bf282)" d="M 76.385455 202.708751 
L 80.412152 204.55263 
L 84.438849 206.313799 
L 88.465547 207.983872 
L 92.492244 209.555203 
L 96.518941 211.020812 
L 100.545639 212.37437 
L 104.572336 213.610085 
L 108.599033 214.722748 
L 112.625731 215.707688 
L 116.652428 216.560768 
L 120.679125 217.278488 
L 124.705823 217.857967 
L 128.73252 218.297045 
L 132.759217 218.594367 
L 136.785915 218.749467 
L 140.812612 218.762862 
L 144.83931 218.636143 
L 148.866007 218.372084 
L 152.892704 217.974697 
L 156.919402 217.44931 
L 160.946099 216.802599 
L 164.972796 216.042588 
L 168.999494 215.178719 
L 173.026191 214.221713 
L 177.052888 213.183583 
L 181.079586 212.077487 
L 185.106283 210.91762 
L 189.13298 209.719087 
L 193.159678 208.497685 
L 197.186375 207.269725 
L 201.213072 206.051805 
L 205.23977 204.860614 
L 209.266467 203.712649 
L 213.293165 202.624061 
L 217.319862 201.610309 
L 221.346559 200.686018 
L 225.373257 199.864759 
L 229.399954 199.158747 
L 233.426651 198.57878 
L 237.453349 198.133952 
L 241.480046 197.83154 
L 245.506743 197.676844 
L 249.533441 197.673076 
L 253.560138 197.821239 
L 257.586835 198.120086 
L 261.613533 198.566035 
L 265.64023 199.153217 
L 269.666928 199.873492 
L 273.693625 200.716524 
L 277.720322 201.669938 
L 281.74702 202.719558 
L 285.773717 203.849551 
L 289.800414 205.042874 
L 293.827112 206.281523 
L 297.853809 207.546976 
L 301.880506 208.820615 
L 305.907204 210.084164 
L 309.933901 211.320064 
L 313.960598 212.511972 
L 317.987296 213.645033 
L 322.013993 214.706251 
L 326.04069 215.684735 
L 330.067388 216.57181 
L 334.094085 217.36118 
L 338.120783 218.048867 
L 342.14748 218.633133 
L 346.174177 219.114359 
L 350.200875 219.49476 
L 354.227572 219.778165 
L 358.254269 219.969622 
L 362.280967 220.075107 
L 366.307664 220.10112 
L 370.334361 220.054337 
L 374.361059 219.941198 
L 378.387756 219.767636 
L 382.414453 219.538728 
L 386.441151 219.258409 
L 390.467848 218.929241 
L 394.494545 218.552228 
" style="fill:none;stroke:#ff7f0e;stroke-linecap:square;stroke-width:1.5;"/>
   </g>
   <g id="patch_18">
    <path d="M 60.48 226.14048 
L 60.48 173.79936 
" style="fill:none;stroke:#000000;stroke-linecap:square;stroke-linejoin:miter;stroke-width:0.8;"/>
   </g>
   <g id="patch_19">
    <path d="M 410.4 226.14048 
L 410.4 173.79936 
" style="fill:none;stroke:#000000;stroke-linecap:square;stroke-linejoin:miter;stroke-width:0.8;"/>
   </g>
   <g id="patch_20">
    <path d="M 60.48 226.14048 
L 410.4 226.14048 
" style="fill:none;stroke:#000000;stroke-linecap:square;stroke-linejoin:miter;stroke-width:0.8;"/>
   </g>
   <g id="patch_21">
    <path d="M 60.48 173.79936 
L 410.4 173.79936 
" style="fill:none;stroke:#000000;stroke-linecap:square;stroke-linejoin:miter;stroke-width:0.8;"/>
   </g>
  </g>
  <g id="axes_5">
   <g id="patch_22">
    <path d="M 60.48 278.4816 
L 410.4 278.4816 
L 410.4 226.14048 
L 60.48 226.14048 
z
" style="fill:#ffffff;"/>
   </g>
   <g id="matplotlib.axis_9">
    <g id="xtick_37">
     <g id="line2d_61">
      <g>
       <use style="stroke:#000000;stroke-width:0.8;" x="76.385455" xlink:href="#mc0c24491ad" y="278.4816"/>
      </g>
     </g>
     <g id="text_21">
      <!-- $0$ -->
      <g transform="translate(72.873668 295.444225)scale(0.144 -0.144)">
       <use transform="scale(0.996264)" xlink:href="#CMR17-48"/>
      </g>
     </g>
    </g>
    <g id="xtick_38">
     <g id="line2d_62">
      <g>
       <use style="stroke:#000000;stroke-width:0.8;" x="116.652428" xlink:href="#mc0c24491ad" y="278.4816"/>
      </g>
     </g>
     <g id="text_22">
      <!-- $10$ -->
      <g transform="translate(109.628855 295.444225)scale(0.144 -0.144)">
       <use transform="scale(0.996264)" xlink:href="#CMR17-49"/>
       <use transform="translate(45.690477 0)scale(0.996264)" xlink:href="#CMR17-48"/>
      </g>
     </g>
    </g>
    <g id="xtick_39">
     <g id="line2d_63">
      <g>
       <use style="stroke:#000000;stroke-width:0.8;" x="156.919402" xlink:href="#mc0c24491ad" y="278.4816"/>
      </g>
     </g>
     <g id="text_23">
      <!-- $20$ -->
      <g transform="translate(149.895829 295.444225)scale(0.144 -0.144)">
       <use transform="scale(0.996264)" xlink:href="#CMR17-50"/>
       <use transform="translate(45.690477 0)scale(0.996264)" xlink:href="#CMR17-48"/>
      </g>
     </g>
    </g>
    <g id="xtick_40">
     <g id="line2d_64">
      <g>
       <use style="stroke:#000000;stroke-width:0.8;" x="197.186375" xlink:href="#mc0c24491ad" y="278.4816"/>
      </g>
     </g>
     <g id="text_24">
      <!-- $30$ -->
      <defs>
       <path d="M 22.09375 34 
C 31 34 34.90625 26.140625 34.90625 17.09375 
C 34.90625 5.03125 28.5 0.390625 22.703125 0.390625 
C 17.40625 0.390625 8.796875 3.015625 6.09375 10.796875 
C 6.59375 10.59375 7.09375 10.59375 7.59375 10.59375 
C 10 10.59375 11.796875 12.1875 11.796875 14.796875 
C 11.796875 17.6875 9.59375 19 7.59375 19 
C 5.90625 19 3.296875 18.1875 3.296875 14.484375 
C 3.296875 5.234375 12.296875 -2 22.90625 -2 
C 34 -2 42.5 6.75 42.5 16.984375 
C 42.5 26.84375 34.5 34 25 35.09375 
C 32.59375 36.671875 39.90625 43.375 39.90625 52.390625 
C 39.90625 60.25 32 66 23 66 
C 13.90625 66 5.90625 60.34375 5.90625 52.296875 
C 5.90625 48.796875 8.5 48.1875 9.796875 48.1875 
C 11.90625 48.1875 13.703125 49.484375 13.703125 52.09375 
C 13.703125 54.6875 11.90625 56 9.796875 56 
C 9.40625 56 8.90625 56 8.5 55.796875 
C 11.40625 62.484375 19.296875 63.6875 22.796875 63.6875 
C 26.296875 63.6875 32.90625 61.96875 32.90625 52.296875 
C 32.90625 49.484375 32.5 44.546875 29.09375 40.21875 
C 26.09375 36.390625 22.703125 36.1875 19.40625 35.890625 
C 18.90625 35.890625 16.59375 35.6875 16.203125 35.6875 
C 15.5 35.59375 15.09375 35.5 15.09375 34.796875 
C 15.09375 34.09375 15.203125 34 17.203125 34 
z
" id="CMR17-51"/>
      </defs>
      <g transform="translate(190.162802 295.444225)scale(0.144 -0.144)">
       <use transform="scale(0.996264)" xlink:href="#CMR17-51"/>
       <use transform="translate(45.690477 0)scale(0.996264)" xlink:href="#CMR17-48"/>
      </g>
     </g>
    </g>
    <g id="xtick_41">
     <g id="line2d_65">
      <g>
       <use style="stroke:#000000;stroke-width:0.8;" x="237.453349" xlink:href="#mc0c24491ad" y="278.4816"/>
      </g>
     </g>
     <g id="text_25">
      <!-- $40$ -->
      <defs>
       <path d="M 33.59375 64.796875 
C 33.59375 66.890625 33.5 67 31.703125 67 
L 2 19.59375 
L 2 17 
L 27.796875 17 
L 27.796875 7.1875 
C 27.796875 3.59375 27.59375 2.59375 20.59375 2.59375 
L 18.703125 2.59375 
L 18.703125 0 
C 21.90625 0.1875 27.296875 0.1875 30.703125 0.1875 
C 34.09375 0.1875 39.5 0.1875 42.703125 0 
L 42.703125 2.59375 
L 40.796875 2.59375 
C 33.796875 2.59375 33.59375 3.59375 33.59375 7.1875 
L 33.59375 17 
L 43.796875 17 
L 43.796875 19.59375 
L 33.59375 19.59375 
z
M 28.09375 58.171875 
L 28.09375 19.59375 
L 4 19.59375 
z
" id="CMR17-52"/>
      </defs>
      <g transform="translate(230.429776 295.444225)scale(0.144 -0.144)">
       <use transform="scale(0.996264)" xlink:href="#CMR17-52"/>
       <use transform="translate(45.690477 0)scale(0.996264)" xlink:href="#CMR17-48"/>
      </g>
     </g>
    </g>
    <g id="xtick_42">
     <g id="line2d_66">
      <g>
       <use style="stroke:#000000;stroke-width:0.8;" x="277.720322" xlink:href="#mc0c24491ad" y="278.4816"/>
      </g>
     </g>
     <g id="text_26">
      <!-- $50$ -->
      <g transform="translate(270.696749 295.444225)scale(0.144 -0.144)">
       <use transform="scale(0.996264)" xlink:href="#CMR17-53"/>
       <use transform="translate(45.690477 0)scale(0.996264)" xlink:href="#CMR17-48"/>
      </g>
     </g>
    </g>
    <g id="xtick_43">
     <g id="line2d_67">
      <g>
       <use style="stroke:#000000;stroke-width:0.8;" x="317.987296" xlink:href="#mc0c24491ad" y="278.4816"/>
      </g>
     </g>
     <g id="text_27">
      <!-- $60$ -->
      <defs>
       <path d="M 10.59375 34.34375 
C 10.59375 58 21.796875 63.6875 28.296875 63.6875 
C 30.40625 63.6875 35.5 63.265625 37.5 59.09375 
C 35.90625 59.09375 32.90625 59.09375 32.90625 55.59375 
C 32.90625 52.890625 35.09375 52 36.5 52 
C 37.40625 52 40.09375 52.390625 40.09375 55.796875 
C 40.09375 62.296875 35.09375 66 28.203125 66 
C 16.296875 66 3.796875 53.296875 3.796875 31.421875 
C 3.796875 4.015625 15.09375 -2 23.09375 -2 
C 32.796875 -2 42 6.734375 42 20.234375 
C 42 32.828125 33.90625 42 23.703125 42 
C 17.59375 42 13.09375 37.96875 10.59375 30.921875 
z
M 23.09375 0.390625 
C 10.796875 0.390625 10.796875 18.9375 10.796875 22.65625 
C 10.796875 29.90625 14.203125 40.390625 23.5 40.390625 
C 25.203125 40.390625 30.09375 40.390625 33.40625 33.4375 
C 35.203125 29.515625 35.203125 25.375 35.203125 20.34375 
C 35.203125 14.90625 35.203125 10.875 33.09375 6.84375 
C 30.90625 2.703125 27.703125 0.390625 23.09375 0.390625 
z
" id="CMR17-54"/>
      </defs>
      <g transform="translate(310.963723 295.444225)scale(0.144 -0.144)">
       <use transform="scale(0.996264)" xlink:href="#CMR17-54"/>
       <use transform="translate(45.690477 0)scale(0.996264)" xlink:href="#CMR17-48"/>
      </g>
     </g>
    </g>
    <g id="xtick_44">
     <g id="line2d_68">
      <g>
       <use style="stroke:#000000;stroke-width:0.8;" x="358.254269" xlink:href="#mc0c24491ad" y="278.4816"/>
      </g>
     </g>
     <g id="text_28">
      <!-- $70$ -->
      <g transform="translate(351.230696 295.444225)scale(0.144 -0.144)">
       <use transform="scale(0.996264)" xlink:href="#CMR17-55"/>
       <use transform="translate(45.690477 0)scale(0.996264)" xlink:href="#CMR17-48"/>
      </g>
     </g>
    </g>
    <g id="xtick_45">
     <g id="line2d_69">
      <g>
       <use style="stroke:#000000;stroke-width:0.8;" x="398.521243" xlink:href="#mc0c24491ad" y="278.4816"/>
      </g>
     </g>
     <g id="text_29">
      <!-- $80$ -->
      <defs>
       <path d="M 27.203125 35.765625 
C 33.5 38.96875 39.90625 43.796875 39.90625 51.53125 
C 39.90625 60.6875 31.09375 66 23 66 
C 13.90625 66 5.90625 59.375 5.90625 50.234375 
C 5.90625 47.71875 6.5 43.390625 10.40625 39.578125 
C 11.40625 38.578125 15.59375 35.5625 18.296875 33.65625 
C 13.796875 31.34375 3.296875 25.8125 3.296875 14.765625 
C 3.296875 4.40625 13.09375 -2 22.796875 -2 
C 33.5 -2 42.5 5.71875 42.5 15.96875 
C 42.5 25.109375 36.40625 29.328125 32.40625 32.046875 
z
M 14.09375 44.609375 
C 13.296875 45.109375 9.296875 48.21875 9.296875 52.9375 
C 9.296875 59.078125 15.59375 63.6875 22.796875 63.6875 
C 30.703125 63.6875 36.5 58.0625 36.5 51.53125 
C 36.5 42.1875 26.09375 36.859375 25.59375 36.859375 
C 25.5 36.859375 25.40625 36.859375 24.59375 37.46875 
z
M 32.5 24 
C 34 22.90625 38.796875 19.578125 38.796875 13.453125 
C 38.796875 6.015625 31.40625 0.390625 23 0.390625 
C 13.90625 0.390625 7 6.921875 7 14.859375 
C 7 22.796875 13.09375 29.4375 20 32.546875 
z
" id="CMR17-56"/>
      </defs>
      <g transform="translate(391.49767 295.444225)scale(0.144 -0.144)">
       <use transform="scale(0.996264)" xlink:href="#CMR17-56"/>
       <use transform="translate(45.690477 0)scale(0.996264)" xlink:href="#CMR17-48"/>
      </g>
     </g>
    </g>
   </g>
   <g id="matplotlib.axis_10">
    <g id="ytick_17">
     <g id="line2d_70">
      <g>
       <use style="stroke:#000000;stroke-width:0.8;" x="60.48" xlink:href="#me8de8b7743" y="272.44224"/>
      </g>
     </g>
     <g id="text_30">
      <!-- 17.88 -->
      <g transform="translate(21.483729 277.423552)scale(0.144 -0.144)">
       <use transform="scale(0.996264)" xlink:href="#CMSS17-49"/>
       <use transform="translate(46.843624 0)scale(0.996264)" xlink:href="#CMSS17-55"/>
       <use transform="translate(93.687247 0)scale(0.996264)" xlink:href="#CMSS17-46"/>
       <use transform="translate(119.711452 0)scale(0.996264)" xlink:href="#CMSS17-56"/>
       <use transform="translate(166.555075 0)scale(0.996264)" xlink:href="#CMSS17-56"/>
      </g>
     </g>
    </g>
    <g id="ytick_18">
     <g id="line2d_71">
      <g>
       <use style="stroke:#000000;stroke-width:0.8;" x="60.48" xlink:href="#me8de8b7743" y="259.02144"/>
      </g>
     </g>
     <g id="text_31">
      <!-- 21.44 -->
      <g transform="translate(21.483729 264.002752)scale(0.144 -0.144)">
       <use transform="scale(0.996264)" xlink:href="#CMSS17-50"/>
       <use transform="translate(46.843624 0)scale(0.996264)" xlink:href="#CMSS17-49"/>
       <use transform="translate(93.687247 0)scale(0.996264)" xlink:href="#CMSS17-46"/>
       <use transform="translate(119.711452 0)scale(0.996264)" xlink:href="#CMSS17-52"/>
       <use transform="translate(166.555075 0)scale(0.996264)" xlink:href="#CMSS17-52"/>
      </g>
     </g>
    </g>
    <g id="ytick_19">
     <g id="line2d_72">
      <g>
       <use style="stroke:#000000;stroke-width:0.8;" x="60.48" xlink:href="#me8de8b7743" y="245.60064"/>
      </g>
     </g>
     <g id="text_32">
      <!-- 25.00 -->
      <g transform="translate(21.483729 250.581952)scale(0.144 -0.144)">
       <use transform="scale(0.996264)" xlink:href="#CMSS17-50"/>
       <use transform="translate(46.843624 0)scale(0.996264)" xlink:href="#CMSS17-53"/>
       <use transform="translate(93.687247 0)scale(0.996264)" xlink:href="#CMSS17-46"/>
       <use transform="translate(119.711452 0)scale(0.996264)" xlink:href="#CMSS17-48"/>
       <use transform="translate(166.555075 0)scale(0.996264)" xlink:href="#CMSS17-48"/>
      </g>
     </g>
    </g>
    <g id="ytick_20">
     <g id="line2d_73">
      <g>
       <use style="stroke:#000000;stroke-width:0.8;" x="60.48" xlink:href="#me8de8b7743" y="232.17984"/>
      </g>
     </g>
     <g id="text_33">
      <!-- 28.56 -->
      <g transform="translate(21.483729 237.161152)scale(0.144 -0.144)">
       <use transform="scale(0.996264)" xlink:href="#CMSS17-50"/>
       <use transform="translate(46.843624 0)scale(0.996264)" xlink:href="#CMSS17-56"/>
       <use transform="translate(93.687247 0)scale(0.996264)" xlink:href="#CMSS17-46"/>
       <use transform="translate(119.711452 0)scale(0.996264)" xlink:href="#CMSS17-53"/>
       <use transform="translate(166.555075 0)scale(0.996264)" xlink:href="#CMSS17-54"/>
      </g>
     </g>
    </g>
    <g id="text_34">
     <!-- $s_{92}$ -->
     <defs>
      <path d="M 35.203125 29.234375 
C 35.203125 7 26.09375 0.390625 18.59375 0.390625 
C 16.296875 0.390625 10.703125 0.671875 8.40625 4.390625 
C 11 4 12.90625 5.390625 12.90625 7.890625 
C 12.90625 10.59375 10.703125 11.5 9.296875 11.5 
C 8.40625 11.5 5.703125 11.09375 5.703125 7.6875 
C 5.703125 1.0625 11.59375 -2 18.796875 -2 
C 30.296875 -2 42 10.390625 42 32.65625 
C 42 60.265625 30.796875 66 23.203125 66 
C 13.296875 66 3.796875 57.25 3.796875 43.75 
C 3.796875 31.25 11.90625 22 22.09375 22 
C 30.5 22 34.203125 29.84375 35.203125 33.15625 
z
M 22.296875 23.59375 
C 19.59375 23.59375 15.796875 24.09375 12.703125 30.140625 
C 10.59375 34.078125 10.59375 38.703125 10.59375 43.640625 
C 10.59375 49.59375 10.59375 53.71875 13.40625 58.15625 
C 14.796875 60.265625 17.40625 63.6875 23.203125 63.6875 
C 35 63.6875 35 45.453125 35 41.421875 
C 35 34.265625 31.796875 23.59375 22.296875 23.59375 
z
" id="CMR17-57"/>
     </defs>
     <g transform="translate(14.694202 260.600777)rotate(-90)scale(0.144 -0.144)">
      <use transform="translate(0 14.943915)scale(0.996264)" xlink:href="#CMMI12-115"/>
      <use transform="translate(45.950048 0)scale(0.697382)" xlink:href="#CMR17-57"/>
      <use transform="translate(77.93323 0)scale(0.697382)" xlink:href="#CMR17-50"/>
     </g>
    </g>
   </g>
   <g id="line2d_74">
    <path clip-path="url(#p124a01afdd)" d="M 76.385455 252.50977 
L 80.412152 253.244693 
L 84.438849 253.264644 
L 88.465547 252.982488 
L 92.492244 252.493508 
L 96.518941 251.773876 
L 100.545639 251.342707 
L 104.572336 250.794571 
L 108.599033 250.312266 
L 112.625731 249.316362 
L 116.652428 248.563379 
L 120.679125 246.977719 
L 124.705823 245.113657 
L 128.73252 243.022065 
L 132.759217 240.960161 
L 136.785915 239.044165 
L 140.812612 237.337173 
L 144.83931 236.040565 
L 148.866007 234.974595 
L 152.892704 234.102144 
L 156.919402 233.491695 
L 160.946099 232.933872 
L 164.972796 232.352265 
L 168.999494 232.17984 
L 173.026191 232.253696 
L 177.052888 232.60376 
L 181.079586 233.190553 
L 185.106283 233.868514 
L 189.13298 234.858571 
L 193.159678 235.859222 
L 197.186375 236.994697 
L 201.213072 237.683058 
L 205.23977 238.317729 
L 209.266467 238.974552 
L 213.293165 239.680225 
L 217.319862 240.282625 
L 221.346559 240.753445 
L 225.373257 240.953178 
L 229.399954 240.920029 
L 233.426651 240.495735 
L 237.453349 239.991393 
L 241.480046 239.325306 
L 245.506743 238.311846 
L 249.533441 237.373752 
L 253.560138 236.407199 
L 257.586835 235.934258 
L 261.613533 235.766882 
L 265.64023 236.001418 
L 269.666928 236.128949 
L 273.693625 236.410069 
L 277.720322 236.689362 
L 281.74702 236.446785 
L 285.773717 236.756198 
L 289.800414 237.935826 
L 293.827112 239.129968 
L 297.853809 240.29816 
L 301.880506 242.17516 
L 305.907204 244.628453 
L 309.933901 246.732064 
L 313.960598 248.558633 
L 317.987296 250.08695 
L 322.013993 251.660247 
L 326.04069 253.861491 
L 330.067388 255.144082 
L 334.094085 255.952753 
L 338.120783 257.062667 
L 342.14748 258.349616 
L 346.174177 259.589435 
L 350.200875 260.641927 
L 354.227572 261.581287 
L 358.254269 262.322934 
L 362.280967 262.864885 
L 366.307664 263.528562 
L 370.334361 264.284586 
L 374.361059 265.127621 
L 378.387756 265.88361 
L 382.414453 266.517015 
L 386.441151 267.109116 
L 390.467848 267.487352 
L 394.494545 267.679245 
" style="fill:none;stroke:#1f77b4;stroke-linecap:square;stroke-width:1.5;"/>
   </g>
   <g id="line2d_75">
    <path clip-path="url(#p124a01afdd)" d="M 76.385455 248.99416 
L 80.412152 249.552609 
L 84.438849 250.061684 
L 88.465547 250.514121 
L 92.492244 250.903727 
L 96.518941 251.225446 
L 100.545639 251.475388 
L 104.572336 251.650855 
L 108.599033 251.750264 
L 112.625731 251.7732 
L 116.652428 251.72028 
L 120.679125 251.593159 
L 124.705823 251.394426 
L 128.73252 251.127597 
L 132.759217 250.796974 
L 136.785915 250.407655 
L 140.812612 249.96541 
L 144.83931 249.476617 
L 148.866007 248.948159 
L 152.892704 248.387366 
L 156.919402 247.801838 
L 160.946099 247.199359 
L 164.972796 246.587739 
L 168.999494 245.97468 
L 173.026191 245.367583 
L 177.052888 244.77344 
L 181.079586 244.19865 
L 185.106283 243.648896 
L 189.13298 243.129026 
L 193.159678 242.642988 
L 197.186375 242.193752 
L 201.213072 241.783361 
L 205.23977 241.412922 
L 209.266467 241.082716 
L 213.293165 240.792325 
L 217.319862 240.540787 
L 221.346559 240.326792 
L 225.373257 240.14888 
L 229.399954 240.005691 
L 233.426651 239.896162 
L 237.453349 239.819738 
L 241.480046 239.776585 
L 245.506743 239.76776 
L 249.533441 239.795306 
L 253.560138 239.862373 
L 257.586835 239.973233 
L 261.613533 240.133265 
L 265.64023 240.348857 
L 269.666928 240.627222 
L 273.693625 240.9762 
L 277.720322 241.403924 
L 281.74702 241.918443 
L 285.773717 242.527288 
L 289.800414 243.237045 
L 293.827112 244.052786 
L 297.853809 244.977697 
L 301.880506 246.01259 
L 305.907204 247.155624 
L 309.933901 248.402045 
L 313.960598 249.744136 
L 317.987296 251.171282 
L 322.013993 252.670162 
L 326.04069 254.225177 
L 330.067388 255.818835 
L 334.094085 257.432365 
L 338.120783 259.046248 
L 342.14748 260.640798 
L 346.174177 262.196662 
L 350.200875 263.695269 
L 354.227572 265.119163 
L 358.254269 266.452257 
L 362.280967 267.679972 
L 366.307664 268.789275 
L 370.334361 269.768687 
L 374.361059 270.608162 
L 378.387756 271.299005 
L 382.414453 271.833755 
L 386.441151 272.206007 
L 390.467848 272.410343 
L 394.494545 272.44224 
" style="fill:none;stroke:#ff7f0e;stroke-linecap:square;stroke-width:1.5;"/>
   </g>
   <g id="patch_23">
    <path d="M 60.48 278.4816 
L 60.48 226.14048 
" style="fill:none;stroke:#000000;stroke-linecap:square;stroke-linejoin:miter;stroke-width:0.8;"/>
   </g>
   <g id="patch_24">
    <path d="M 410.4 278.4816 
L 410.4 226.14048 
" style="fill:none;stroke:#000000;stroke-linecap:square;stroke-linejoin:miter;stroke-width:0.8;"/>
   </g>
   <g id="patch_25">
    <path d="M 60.48 278.4816 
L 410.4 278.4816 
" style="fill:none;stroke:#000000;stroke-linecap:square;stroke-linejoin:miter;stroke-width:0.8;"/>
   </g>
   <g id="patch_26">
    <path d="M 60.48 226.14048 
L 410.4 226.14048 
" style="fill:none;stroke:#000000;stroke-linecap:square;stroke-linejoin:miter;stroke-width:0.8;"/>
   </g>
  </g>
  <g id="legend_1">
   <g id="patch_27">
    <path d="M 90.347769 328.32 
L 341.652231 328.32 
Q 344.532231 328.32 344.532231 325.44 
L 344.532231 306.810473 
Q 344.532231 303.930473 341.652231 303.930473 
L 90.347769 303.930473 
Q 87.467769 303.930473 87.467769 306.810473 
L 87.467769 325.44 
Q 87.467769 328.32 90.347769 328.32 
z
" style="fill:#ffffff;opacity:0.8;stroke:#cccccc;stroke-linejoin:miter;"/>
   </g>
   <g id="line2d_76">
    <path d="M 93.227769 314.730473 
L 122.027769 314.730473 
" style="fill:none;stroke:#1f77b4;stroke-linecap:square;stroke-width:1.5;"/>
   </g>
   <g id="line2d_77"/>
   <g id="text_35">
    <!-- Prediction -->
    <defs>
     <path d="M 32.90625 29 
C 44.90625 29 54.703125 38.234375 54.703125 49.046875 
C 54.703125 59.65625 45.296875 69 32.296875 69 
L 8.90625 69 
L 8.90625 0 
L 17.296875 0 
L 17.296875 29 
z
M 30.09375 63.390625 
C 41.703125 63.390625 46.796875 56.21875 46.796875 49.046875 
C 46.796875 42.359375 42.09375 34.796875 30.09375 34.796875 
L 17.09375 34.796875 
L 17.09375 63.390625 
z
" id="CMSS17-80"/>
     <path d="M 14.90625 21.390625 
C 14.90625 30.84375 21.796875 37.171875 30.59375 37.375 
L 30.59375 44 
C 24.203125 43.890625 18.203125 40.6875 14.59375 35.46875 
L 14.59375 43.484375 
L 7.5 43.484375 
L 7.5 0 
L 14.90625 0 
z
" id="CMSS17-114"/>
     <path d="M 39.09375 21.484375 
C 39.09375 24.796875 38.90625 31.265625 35.703125 36.671875 
C 32.203125 42.390625 26.5 44 22.203125 44 
C 11.796875 44 3 34.125 3 21.296875 
C 3 9.046875 12.09375 -1 23.59375 -1 
C 28.09375 -1 33.59375 0.296875 38.59375 3.890625 
C 38.59375 4.296875 38.40625 6.46875 38.296875 6.578125 
C 38.296875 6.765625 38 9.828125 38 10.234375 
C 33.203125 6.375 27.703125 5.09375 23.703125 5.09375 
C 17.296875 5.09375 10.40625 10.421875 10.09375 21.484375 
z
M 10.90625 27 
C 12.203125 32.59375 16.59375 37.890625 22.203125 37.890625 
C 23.703125 37.890625 30.703125 37.6875 32.5 27 
z
" id="CMSS17-101"/>
     <path d="M 40.796875 69 
L 33.40625 69 
L 33.40625 38.984375 
C 30.296875 41.59375 25.203125 44 19.59375 44 
C 10.5 44 3.296875 34.046875 3.296875 21.484375 
C 3.296875 8.9375 10.40625 -1 19.296875 -1 
C 26.203125 -1 30.796875 2.6875 33.203125 4.796875 
L 33.203125 -0.203125 
L 40.796875 -0.203125 
z
M 33.203125 13.296875 
C 33.203125 11.875 33.203125 10.359375 30.09375 7.625 
C 28.09375 5.90625 25.703125 5.09375 23.40625 5.09375 
C 18 5.09375 10.90625 9.140625 10.90625 21.390625 
C 10.90625 34.140625 18.90625 37.890625 24.40625 37.890625 
C 28.09375 37.890625 31.09375 36.0625 33.203125 33.03125 
z
" id="CMSS17-100"/>
     <path d="M 15.296875 66 
L 6.90625 66 
L 6.90625 57.59375 
L 15.296875 57.59375 
z
M 14.796875 43 
L 7.40625 43 
L 7.40625 0 
L 14.796875 0 
z
" id="CMSS17-105"/>
     <path d="M 38.5 39.6875 
C 38.5 40.390625 33.90625 42.390625 32.703125 42.796875 
C 29.40625 44 25.203125 44 24.09375 44 
C 11.09375 44 3.296875 32.6875 3.296875 21.296875 
C 3.296875 9.296875 12 -1 23.703125 -1 
C 30.40625 -1 35.203125 1.1875 39.09375 3.796875 
L 38.5 10.390625 
C 34.203125 7.09375 29.203125 5.296875 23.796875 5.296875 
C 16 5.296875 10.90625 12.09375 10.90625 21.390625 
C 10.90625 28.59375 14.203125 37.6875 24.203125 37.6875 
C 29.703125 37.6875 32.796875 36.59375 37.40625 33.484375 
z
" id="CMSS17-99"/>
     <path d="M 16.703125 37.1875 
L 29.703125 37.1875 
L 29.703125 43 
L 16.703125 43 
L 16.703125 55 
L 9.59375 55 
L 9.59375 43 
L 1.703125 43 
L 1.703125 37.1875 
L 9.40625 37.1875 
L 9.40625 11.734375 
C 9.40625 6 10.703125 -1 17.296875 -1 
C 22.296875 -1 26.90625 0.390625 31.296875 2.6875 
L 29.703125 8.609375 
C 27.296875 6.5 24.40625 5.296875 21.296875 5.296875 
C 16.90625 5.296875 16.703125 10.921875 16.703125 13.4375 
z
" id="CMSS17-116"/>
     <path d="M 44.203125 21.1875 
C 44.203125 33.984375 34.703125 44 23.5 44 
C 12 44 2.703125 33.6875 2.703125 21.1875 
C 2.703125 8.5 12.296875 -1 23.40625 -1 
C 34.796875 -1 44.203125 8.796875 44.203125 21.1875 
z
M 23.5 5.296875 
C 16.40625 5.296875 10.296875 11.09375 10.296875 21.984375 
C 10.296875 33.59375 17.40625 37.890625 23.40625 37.890625 
C 29.90625 37.890625 36.59375 33.1875 36.59375 21.984375 
C 36.59375 10.6875 30.09375 5.296875 23.5 5.296875 
z
" id="CMSS17-111"/>
     <path d="M 40.90625 29.34375 
C 40.90625 35.671875 39.40625 44 28.09375 44 
C 21.703125 44 17.5 40.6875 14.703125 37.28125 
L 14.703125 43.484375 
L 7.40625 43.484375 
L 7.40625 0 
L 15 0 
L 15 24.3125 
C 15 30.65625 17.40625 37.890625 24.203125 37.890625 
C 33 37.890625 33.296875 31.953125 33.296875 28.53125 
L 33.296875 0 
L 40.90625 0 
z
" id="CMSS17-110"/>
    </defs>
    <g transform="translate(133.547769 319.770473)scale(0.144 -0.144)">
     <use transform="scale(0.996264)" xlink:href="#CMSS17-80"/>
     <use transform="translate(59.735586 0)scale(0.996264)" xlink:href="#CMSS17-114"/>
     <use transform="translate(91.645359 0)scale(0.996264)" xlink:href="#CMSS17-101"/>
     <use transform="translate(133.284181 0)scale(0.996264)" xlink:href="#CMSS17-100"/>
     <use transform="translate(181.489124 0)scale(0.996264)" xlink:href="#CMSS17-105"/>
     <use transform="translate(203.669847 0)scale(0.996264)" xlink:href="#CMSS17-99"/>
     <use transform="translate(245.308669 0)scale(0.996264)" xlink:href="#CMSS17-116"/>
     <use transform="translate(279.140236 0)scale(0.996264)" xlink:href="#CMSS17-105"/>
     <use transform="translate(301.320959 0)scale(0.996264)" xlink:href="#CMSS17-111"/>
     <use transform="translate(348.164582 0)scale(0.996264)" xlink:href="#CMSS17-110"/>
    </g>
   </g>
   <g id="line2d_78">
    <path d="M 221.657903 314.730473 
L 250.457903 314.730473 
" style="fill:none;stroke:#ff7f0e;stroke-linecap:square;stroke-width:1.5;"/>
   </g>
   <g id="line2d_79"/>
   <g id="text_36">
    <!-- Ground truth -->
    <defs>
     <path d="M 56.40625 29.1875 
L 36.5 29.1875 
L 36.5 23 
L 48.796875 23 
L 48.796875 7.390625 
C 44.90625 6.296875 40.90625 5.5 36.90625 5.5 
C 22.90625 5.5 14.59375 20.484375 14.59375 34.6875 
C 14.59375 48.796875 23.296875 63.59375 36.90625 63.59375 
C 44.59375 63.59375 48.90625 61.1875 54.203125 57.1875 
L 55.5 65.1875 
C 48.90625 68.59375 44.796875 70 37.296875 70 
C 17.90625 70 6.203125 52.390625 6.203125 34.390625 
C 6.203125 17.1875 18 -1 36.703125 -1 
C 43.703125 -1 50.203125 0.796875 56.40625 3.890625 
z
" id="CMSS17-71"/>
     <path d="M 40.90625 43 
L 33.296875 43 
L 33.296875 15.25 
C 33.296875 7.8125 27.90625 4.796875 22.203125 4.796875 
C 15.59375 4.796875 15 7 15 11.125 
L 15 43 
L 7.40625 43 
L 7.40625 10.625 
C 7.40625 2.796875 10.09375 -1 17 -1 
C 20.40625 -1 28.09375 -0.203125 33.5 4.796875 
L 33.5 -0.203125 
L 40.90625 -0.203125 
z
" id="CMSS17-117"/>
     <path d="M 40.90625 29.34375 
C 40.90625 35.671875 39.40625 44 28.09375 44 
C 21.796875 44 17.703125 40.890625 14.796875 37.484375 
L 14.796875 69 
L 7.40625 69 
L 7.40625 0 
L 15 0 
L 15 24.3125 
C 15 30.65625 17.40625 37.890625 24.203125 37.890625 
C 33 37.890625 33.296875 31.953125 33.296875 28.53125 
L 33.296875 0 
L 40.90625 0 
z
" id="CMSS17-104"/>
    </defs>
    <g transform="translate(261.977903 319.770473)scale(0.144 -0.144)">
     <use transform="scale(0.996264)" xlink:href="#CMSS17-71"/>
     <use transform="translate(62.458226 0)scale(0.996264)" xlink:href="#CMSS17-114"/>
     <use transform="translate(94.367998 0)scale(0.996264)" xlink:href="#CMSS17-111"/>
     <use transform="translate(141.211622 0)scale(0.996264)" xlink:href="#CMSS17-117"/>
     <use transform="translate(189.416565 0)scale(0.996264)" xlink:href="#CMSS17-110"/>
     <use transform="translate(237.621508 0)scale(0.996264)" xlink:href="#CMSS17-100"/>
     <use transform="translate(317.055564 0)scale(0.996264)" xlink:href="#CMSS17-116"/>
     <use transform="translate(350.88713 0)scale(0.996264)" xlink:href="#CMSS17-114"/>
     <use transform="translate(382.796903 0)scale(0.996264)" xlink:href="#CMSS17-117"/>
     <use transform="translate(431.001846 0)scale(0.996264)" xlink:href="#CMSS17-116"/>
     <use transform="translate(464.833413 0)scale(0.996264)" xlink:href="#CMSS17-104"/>
    </g>
   </g>
  </g>
 </g>
 <defs>
  <clipPath id="p0ca7772d40">
   <rect height="52.34112" width="349.92" x="60.48" y="16.776"/>
  </clipPath>
  <clipPath id="p3c7421be88">
   <rect height="52.34112" width="349.92" x="60.48" y="69.11712"/>
  </clipPath>
  <clipPath id="paa19c9ee12">
   <rect height="52.34112" width="349.92" x="60.48" y="121.45824"/>
  </clipPath>
  <clipPath id="p5f463bf282">
   <rect height="52.34112" width="349.92" x="60.48" y="173.79936"/>
  </clipPath>
  <clipPath id="p124a01afdd">
   <rect height="52.34112" width="349.92" x="60.48" y="226.14048"/>
  </clipPath>
 </defs>
</svg>
