<?xml version="1.0" encoding="utf-8" standalone="no"?>
<!DOCTYPE svg PUBLIC "-//W3C//DTD SVG 1.1//EN"
  "http://www.w3.org/Graphics/SVG/1.1/DTD/svg11.dtd">
<!-- Created with matplotlib (http://matplotlib.org/) -->
<svg height="299.52pt" version="1.1" viewBox="0 0 360 299.52" width="360pt" xmlns="http://www.w3.org/2000/svg" xmlns:xlink="http://www.w3.org/1999/xlink">
 <defs>
  <style type="text/css">
*{stroke-linecap:butt;stroke-linejoin:round;}
  </style>
 </defs>
 <g id="figure_1">
  <g id="patch_1">
   <path d="M 0 299.52 
L 360 299.52 
L 360 0 
L 0 0 
z
" style="fill:#ffffff;"/>
  </g>
  <g id="axes_1">
   <g id="patch_2">
    <path d="M 45 140.7744 
L 324 140.7744 
L 324 35.9424 
L 45 35.9424 
z
" style="fill:#ffffff;"/>
   </g>
   <g id="matplotlib.axis_1">
    <g id="xtick_1">
     <g id="line2d_1">
      <defs>
       <path d="M 0 0 
L 0 3.5 
" id="mab3634320f" style="stroke:#000000;stroke-width:0.8;"/>
      </defs>
      <g>
       <use style="stroke:#000000;stroke-width:0.8;" x="57.681818" xlink:href="#mab3634320f" y="140.7744"/>
      </g>
     </g>
     <g id="text_1">
      <!-- −2.0 -->
      <defs>
       <path d="M 10.59375 35.5 
L 73.1875 35.5 
L 73.1875 27.203125 
L 10.59375 27.203125 
z
" id="DejaVuSans-2212"/>
       <path d="M 19.1875 8.296875 
L 53.609375 8.296875 
L 53.609375 0 
L 7.328125 0 
L 7.328125 8.296875 
Q 12.9375 14.109375 22.625 23.890625 
Q 32.328125 33.6875 34.8125 36.53125 
Q 39.546875 41.84375 41.421875 45.53125 
Q 43.3125 49.21875 43.3125 52.78125 
Q 43.3125 58.59375 39.234375 62.25 
Q 35.15625 65.921875 28.609375 65.921875 
Q 23.96875 65.921875 18.8125 64.3125 
Q 13.671875 62.703125 7.8125 59.421875 
L 7.8125 69.390625 
Q 13.765625 71.78125 18.9375 73 
Q 24.125 74.21875 28.421875 74.21875 
Q 39.75 74.21875 46.484375 68.546875 
Q 53.21875 62.890625 53.21875 53.421875 
Q 53.21875 48.921875 51.53125 44.890625 
Q 49.859375 40.875 45.40625 35.40625 
Q 44.1875 33.984375 37.640625 27.21875 
Q 31.109375 20.453125 19.1875 8.296875 
z
" id="DejaVuSans-32"/>
       <path d="M 10.6875 12.40625 
L 21 12.40625 
L 21 0 
L 10.6875 0 
z
" id="DejaVuSans-2e"/>
       <path d="M 31.78125 66.40625 
Q 24.171875 66.40625 20.328125 58.90625 
Q 16.5 51.421875 16.5 36.375 
Q 16.5 21.390625 20.328125 13.890625 
Q 24.171875 6.390625 31.78125 6.390625 
Q 39.453125 6.390625 43.28125 13.890625 
Q 47.125 21.390625 47.125 36.375 
Q 47.125 51.421875 43.28125 58.90625 
Q 39.453125 66.40625 31.78125 66.40625 
z
M 31.78125 74.21875 
Q 44.046875 74.21875 50.515625 64.515625 
Q 56.984375 54.828125 56.984375 36.375 
Q 56.984375 17.96875 50.515625 8.265625 
Q 44.046875 -1.421875 31.78125 -1.421875 
Q 19.53125 -1.421875 13.0625 8.265625 
Q 6.59375 17.96875 6.59375 36.375 
Q 6.59375 54.828125 13.0625 64.515625 
Q 19.53125 74.21875 31.78125 74.21875 
z
" id="DejaVuSans-30"/>
      </defs>
      <g transform="translate(45.540412 155.372837)scale(0.1 -0.1)">
       <use xlink:href="#DejaVuSans-2212"/>
       <use x="83.789062" xlink:href="#DejaVuSans-32"/>
       <use x="147.412109" xlink:href="#DejaVuSans-2e"/>
       <use x="179.199219" xlink:href="#DejaVuSans-30"/>
      </g>
     </g>
    </g>
    <g id="xtick_2">
     <g id="line2d_2">
      <g>
       <use style="stroke:#000000;stroke-width:0.8;" x="89.709879" xlink:href="#mab3634320f" y="140.7744"/>
      </g>
     </g>
     <g id="text_2">
      <!-- −1.5 -->
      <defs>
       <path d="M 12.40625 8.296875 
L 28.515625 8.296875 
L 28.515625 63.921875 
L 10.984375 60.40625 
L 10.984375 69.390625 
L 28.421875 72.90625 
L 38.28125 72.90625 
L 38.28125 8.296875 
L 54.390625 8.296875 
L 54.390625 0 
L 12.40625 0 
z
" id="DejaVuSans-31"/>
       <path d="M 10.796875 72.90625 
L 49.515625 72.90625 
L 49.515625 64.59375 
L 19.828125 64.59375 
L 19.828125 46.734375 
Q 21.96875 47.46875 24.109375 47.828125 
Q 26.265625 48.1875 28.421875 48.1875 
Q 40.625 48.1875 47.75 41.5 
Q 54.890625 34.8125 54.890625 23.390625 
Q 54.890625 11.625 47.5625 5.09375 
Q 40.234375 -1.421875 26.90625 -1.421875 
Q 22.3125 -1.421875 17.546875 -0.640625 
Q 12.796875 0.140625 7.71875 1.703125 
L 7.71875 11.625 
Q 12.109375 9.234375 16.796875 8.0625 
Q 21.484375 6.890625 26.703125 6.890625 
Q 35.15625 6.890625 40.078125 11.328125 
Q 45.015625 15.765625 45.015625 23.390625 
Q 45.015625 31 40.078125 35.4375 
Q 35.15625 39.890625 26.703125 39.890625 
Q 22.75 39.890625 18.8125 39.015625 
Q 14.890625 38.140625 10.796875 36.28125 
z
" id="DejaVuSans-35"/>
      </defs>
      <g transform="translate(77.568473 155.372837)scale(0.1 -0.1)">
       <use xlink:href="#DejaVuSans-2212"/>
       <use x="83.789062" xlink:href="#DejaVuSans-31"/>
       <use x="147.412109" xlink:href="#DejaVuSans-2e"/>
       <use x="179.199219" xlink:href="#DejaVuSans-35"/>
      </g>
     </g>
    </g>
    <g id="xtick_3">
     <g id="line2d_3">
      <g>
       <use style="stroke:#000000;stroke-width:0.8;" x="121.737941" xlink:href="#mab3634320f" y="140.7744"/>
      </g>
     </g>
     <g id="text_3">
      <!-- −1.0 -->
      <g transform="translate(109.596534 155.372837)scale(0.1 -0.1)">
       <use xlink:href="#DejaVuSans-2212"/>
       <use x="83.789062" xlink:href="#DejaVuSans-31"/>
       <use x="147.412109" xlink:href="#DejaVuSans-2e"/>
       <use x="179.199219" xlink:href="#DejaVuSans-30"/>
      </g>
     </g>
    </g>
    <g id="xtick_4">
     <g id="line2d_4">
      <g>
       <use style="stroke:#000000;stroke-width:0.8;" x="153.766002" xlink:href="#mab3634320f" y="140.7744"/>
      </g>
     </g>
     <g id="text_4">
      <!-- −0.5 -->
      <g transform="translate(141.624596 155.372837)scale(0.1 -0.1)">
       <use xlink:href="#DejaVuSans-2212"/>
       <use x="83.789062" xlink:href="#DejaVuSans-30"/>
       <use x="147.412109" xlink:href="#DejaVuSans-2e"/>
       <use x="179.199219" xlink:href="#DejaVuSans-35"/>
      </g>
     </g>
    </g>
    <g id="xtick_5">
     <g id="line2d_5">
      <g>
       <use style="stroke:#000000;stroke-width:0.8;" x="185.794063" xlink:href="#mab3634320f" y="140.7744"/>
      </g>
     </g>
     <g id="text_5">
      <!-- 0.0 -->
      <g transform="translate(177.842501 155.372837)scale(0.1 -0.1)">
       <use xlink:href="#DejaVuSans-30"/>
       <use x="63.623047" xlink:href="#DejaVuSans-2e"/>
       <use x="95.410156" xlink:href="#DejaVuSans-30"/>
      </g>
     </g>
    </g>
    <g id="xtick_6">
     <g id="line2d_6">
      <g>
       <use style="stroke:#000000;stroke-width:0.8;" x="217.822124" xlink:href="#mab3634320f" y="140.7744"/>
      </g>
     </g>
     <g id="text_6">
      <!-- 0.5 -->
      <g transform="translate(209.870562 155.372837)scale(0.1 -0.1)">
       <use xlink:href="#DejaVuSans-30"/>
       <use x="63.623047" xlink:href="#DejaVuSans-2e"/>
       <use x="95.410156" xlink:href="#DejaVuSans-35"/>
      </g>
     </g>
    </g>
    <g id="xtick_7">
     <g id="line2d_7">
      <g>
       <use style="stroke:#000000;stroke-width:0.8;" x="249.850186" xlink:href="#mab3634320f" y="140.7744"/>
      </g>
     </g>
     <g id="text_7">
      <!-- 1.0 -->
      <g transform="translate(241.898623 155.372837)scale(0.1 -0.1)">
       <use xlink:href="#DejaVuSans-31"/>
       <use x="63.623047" xlink:href="#DejaVuSans-2e"/>
       <use x="95.410156" xlink:href="#DejaVuSans-30"/>
      </g>
     </g>
    </g>
    <g id="xtick_8">
     <g id="line2d_8">
      <g>
       <use style="stroke:#000000;stroke-width:0.8;" x="281.878247" xlink:href="#mab3634320f" y="140.7744"/>
      </g>
     </g>
     <g id="text_8">
      <!-- 1.5 -->
      <g transform="translate(273.926684 155.372837)scale(0.1 -0.1)">
       <use xlink:href="#DejaVuSans-31"/>
       <use x="63.623047" xlink:href="#DejaVuSans-2e"/>
       <use x="95.410156" xlink:href="#DejaVuSans-35"/>
      </g>
     </g>
    </g>
    <g id="xtick_9">
     <g id="line2d_9">
      <g>
       <use style="stroke:#000000;stroke-width:0.8;" x="313.906308" xlink:href="#mab3634320f" y="140.7744"/>
      </g>
     </g>
     <g id="text_9">
      <!-- 2.0 -->
      <g transform="translate(305.954745 155.372837)scale(0.1 -0.1)">
       <use xlink:href="#DejaVuSans-32"/>
       <use x="63.623047" xlink:href="#DejaVuSans-2e"/>
       <use x="95.410156" xlink:href="#DejaVuSans-30"/>
      </g>
     </g>
    </g>
   </g>
   <g id="matplotlib.axis_2">
    <g id="ytick_1">
     <g id="line2d_10">
      <defs>
       <path d="M 0 0 
L -3.5 0 
" id="mda379f3b47" style="stroke:#000000;stroke-width:0.8;"/>
      </defs>
      <g>
       <use style="stroke:#000000;stroke-width:0.8;" x="45" xlink:href="#mda379f3b47" y="136.394367"/>
      </g>
     </g>
     <g id="text_10">
      <!-- −50 -->
      <g transform="translate(16.895312 140.193586)scale(0.1 -0.1)">
       <use xlink:href="#DejaVuSans-2212"/>
       <use x="83.789062" xlink:href="#DejaVuSans-35"/>
       <use x="147.412109" xlink:href="#DejaVuSans-30"/>
      </g>
     </g>
    </g>
    <g id="ytick_2">
     <g id="line2d_11">
      <g>
       <use style="stroke:#000000;stroke-width:0.8;" x="45" xlink:href="#mda379f3b47" y="97.888582"/>
      </g>
     </g>
     <g id="text_11">
      <!-- 0 -->
      <g transform="translate(31.6375 101.687801)scale(0.1 -0.1)">
       <use xlink:href="#DejaVuSans-30"/>
      </g>
     </g>
    </g>
    <g id="ytick_3">
     <g id="line2d_12">
      <g>
       <use style="stroke:#000000;stroke-width:0.8;" x="45" xlink:href="#mda379f3b47" y="59.382797"/>
      </g>
     </g>
     <g id="text_12">
      <!-- 50 -->
      <g transform="translate(25.275 63.182015)scale(0.1 -0.1)">
       <use xlink:href="#DejaVuSans-35"/>
       <use x="63.623047" xlink:href="#DejaVuSans-30"/>
      </g>
     </g>
    </g>
    <g id="text_13">
     <!-- Binarized -->
     <defs>
      <path d="M 19.671875 34.8125 
L 19.671875 8.109375 
L 35.5 8.109375 
Q 43.453125 8.109375 47.28125 11.40625 
Q 51.125 14.703125 51.125 21.484375 
Q 51.125 28.328125 47.28125 31.5625 
Q 43.453125 34.8125 35.5 34.8125 
z
M 19.671875 64.796875 
L 19.671875 42.828125 
L 34.28125 42.828125 
Q 41.5 42.828125 45.03125 45.53125 
Q 48.578125 48.25 48.578125 53.8125 
Q 48.578125 59.328125 45.03125 62.0625 
Q 41.5 64.796875 34.28125 64.796875 
z
M 9.8125 72.90625 
L 35.015625 72.90625 
Q 46.296875 72.90625 52.390625 68.21875 
Q 58.5 63.53125 58.5 54.890625 
Q 58.5 48.1875 55.375 44.234375 
Q 52.25 40.28125 46.1875 39.3125 
Q 53.46875 37.75 57.5 32.78125 
Q 61.53125 27.828125 61.53125 20.40625 
Q 61.53125 10.640625 54.890625 5.3125 
Q 48.25 0 35.984375 0 
L 9.8125 0 
z
" id="DejaVuSans-42"/>
      <path d="M 9.421875 54.6875 
L 18.40625 54.6875 
L 18.40625 0 
L 9.421875 0 
z
M 9.421875 75.984375 
L 18.40625 75.984375 
L 18.40625 64.59375 
L 9.421875 64.59375 
z
" id="DejaVuSans-69"/>
      <path d="M 54.890625 33.015625 
L 54.890625 0 
L 45.90625 0 
L 45.90625 32.71875 
Q 45.90625 40.484375 42.875 44.328125 
Q 39.84375 48.1875 33.796875 48.1875 
Q 26.515625 48.1875 22.3125 43.546875 
Q 18.109375 38.921875 18.109375 30.90625 
L 18.109375 0 
L 9.078125 0 
L 9.078125 54.6875 
L 18.109375 54.6875 
L 18.109375 46.1875 
Q 21.34375 51.125 25.703125 53.5625 
Q 30.078125 56 35.796875 56 
Q 45.21875 56 50.046875 50.171875 
Q 54.890625 44.34375 54.890625 33.015625 
z
" id="DejaVuSans-6e"/>
      <path d="M 34.28125 27.484375 
Q 23.390625 27.484375 19.1875 25 
Q 14.984375 22.515625 14.984375 16.5 
Q 14.984375 11.71875 18.140625 8.90625 
Q 21.296875 6.109375 26.703125 6.109375 
Q 34.1875 6.109375 38.703125 11.40625 
Q 43.21875 16.703125 43.21875 25.484375 
L 43.21875 27.484375 
z
M 52.203125 31.203125 
L 52.203125 0 
L 43.21875 0 
L 43.21875 8.296875 
Q 40.140625 3.328125 35.546875 0.953125 
Q 30.953125 -1.421875 24.3125 -1.421875 
Q 15.921875 -1.421875 10.953125 3.296875 
Q 6 8.015625 6 15.921875 
Q 6 25.140625 12.171875 29.828125 
Q 18.359375 34.515625 30.609375 34.515625 
L 43.21875 34.515625 
L 43.21875 35.40625 
Q 43.21875 41.609375 39.140625 45 
Q 35.0625 48.390625 27.6875 48.390625 
Q 23 48.390625 18.546875 47.265625 
Q 14.109375 46.140625 10.015625 43.890625 
L 10.015625 52.203125 
Q 14.9375 54.109375 19.578125 55.046875 
Q 24.21875 56 28.609375 56 
Q 40.484375 56 46.34375 49.84375 
Q 52.203125 43.703125 52.203125 31.203125 
z
" id="DejaVuSans-61"/>
      <path d="M 41.109375 46.296875 
Q 39.59375 47.171875 37.8125 47.578125 
Q 36.03125 48 33.890625 48 
Q 26.265625 48 22.1875 43.046875 
Q 18.109375 38.09375 18.109375 28.8125 
L 18.109375 0 
L 9.078125 0 
L 9.078125 54.6875 
L 18.109375 54.6875 
L 18.109375 46.1875 
Q 20.953125 51.171875 25.484375 53.578125 
Q 30.03125 56 36.53125 56 
Q 37.453125 56 38.578125 55.875 
Q 39.703125 55.765625 41.0625 55.515625 
z
" id="DejaVuSans-72"/>
      <path d="M 5.515625 54.6875 
L 48.1875 54.6875 
L 48.1875 46.484375 
L 14.40625 7.171875 
L 48.1875 7.171875 
L 48.1875 0 
L 4.296875 0 
L 4.296875 8.203125 
L 38.09375 47.515625 
L 5.515625 47.515625 
z
" id="DejaVuSans-7a"/>
      <path d="M 56.203125 29.59375 
L 56.203125 25.203125 
L 14.890625 25.203125 
Q 15.484375 15.921875 20.484375 11.0625 
Q 25.484375 6.203125 34.421875 6.203125 
Q 39.59375 6.203125 44.453125 7.46875 
Q 49.3125 8.734375 54.109375 11.28125 
L 54.109375 2.78125 
Q 49.265625 0.734375 44.1875 -0.34375 
Q 39.109375 -1.421875 33.890625 -1.421875 
Q 20.796875 -1.421875 13.15625 6.1875 
Q 5.515625 13.8125 5.515625 26.8125 
Q 5.515625 40.234375 12.765625 48.109375 
Q 20.015625 56 32.328125 56 
Q 43.359375 56 49.78125 48.890625 
Q 56.203125 41.796875 56.203125 29.59375 
z
M 47.21875 32.234375 
Q 47.125 39.59375 43.09375 43.984375 
Q 39.0625 48.390625 32.421875 48.390625 
Q 24.90625 48.390625 20.390625 44.140625 
Q 15.875 39.890625 15.1875 32.171875 
z
" id="DejaVuSans-65"/>
      <path d="M 45.40625 46.390625 
L 45.40625 75.984375 
L 54.390625 75.984375 
L 54.390625 0 
L 45.40625 0 
L 45.40625 8.203125 
Q 42.578125 3.328125 38.25 0.953125 
Q 33.9375 -1.421875 27.875 -1.421875 
Q 17.96875 -1.421875 11.734375 6.484375 
Q 5.515625 14.40625 5.515625 27.296875 
Q 5.515625 40.1875 11.734375 48.09375 
Q 17.96875 56 27.875 56 
Q 33.9375 56 38.25 53.625 
Q 42.578125 51.265625 45.40625 46.390625 
z
M 14.796875 27.296875 
Q 14.796875 17.390625 18.875 11.75 
Q 22.953125 6.109375 30.078125 6.109375 
Q 37.203125 6.109375 41.296875 11.75 
Q 45.40625 17.390625 45.40625 27.296875 
Q 45.40625 37.203125 41.296875 42.84375 
Q 37.203125 48.484375 30.078125 48.484375 
Q 22.953125 48.484375 18.875 42.84375 
Q 14.796875 37.203125 14.796875 27.296875 
z
" id="DejaVuSans-64"/>
     </defs>
     <g transform="translate(10.815625 111.730275)rotate(-90)scale(0.1 -0.1)">
      <use xlink:href="#DejaVuSans-42"/>
      <use x="68.603516" xlink:href="#DejaVuSans-69"/>
      <use x="96.386719" xlink:href="#DejaVuSans-6e"/>
      <use x="159.765625" xlink:href="#DejaVuSans-61"/>
      <use x="221.044922" xlink:href="#DejaVuSans-72"/>
      <use x="262.158203" xlink:href="#DejaVuSans-69"/>
      <use x="289.941406" xlink:href="#DejaVuSans-7a"/>
      <use x="342.431641" xlink:href="#DejaVuSans-65"/>
      <use x="403.955078" xlink:href="#DejaVuSans-64"/>
     </g>
    </g>
   </g>
   <g id="line2d_13">
    <path clip-path="url(#pf75393fa5b)" d="M 57.681818 97.888582 
L 60.269944 97.888582 
L 62.858071 97.888582 
L 65.446197 97.888582 
L 68.034323 97.888582 
L 70.622449 97.888582 
L 73.210575 97.888582 
L 75.798701 97.888582 
L 78.386827 97.888582 
L 80.974954 97.888582 
L 83.56308 97.888582 
L 86.151206 97.888582 
L 88.739332 97.888582 
L 91.327458 97.888582 
L 93.915584 97.888582 
L 96.503711 97.888582 
L 99.091837 97.888582 
L 101.679963 97.888582 
L 104.268089 97.888582 
L 106.856215 97.888582 
L 109.444341 97.888582 
L 112.032468 97.888582 
L 114.620594 97.888582 
L 117.20872 97.888582 
L 119.796846 97.888582 
L 122.384972 97.888582 
L 124.973098 97.888582 
L 127.561224 97.888582 
L 130.149351 97.888582 
L 132.737477 97.888582 
L 135.325603 97.888582 
L 137.913729 97.888582 
L 140.501855 97.888582 
L 143.089981 97.888582 
L 145.678108 97.888582 
L 148.266234 97.888582 
L 150.85436 97.888582 
L 153.442486 97.888582 
L 156.030612 97.888582 
L 158.618738 97.888582 
L 161.206865 97.888582 
L 163.794991 97.888582 
L 166.383117 97.888582 
L 168.971243 97.888582 
L 171.559369 97.888582 
L 174.147495 97.888582 
L 176.735622 97.888582 
L 179.323748 97.888582 
L 181.911874 97.888582 
L 184.5 97.888582 
L 187.088126 97.888582 
L 189.676252 97.888582 
L 192.264378 97.888582 
L 194.852505 97.888582 
L 197.440631 97.888582 
L 200.028757 97.888582 
L 202.616883 97.888582 
L 205.205009 97.888582 
L 207.793135 97.888582 
L 210.381262 97.888582 
L 212.969388 97.888582 
L 215.557514 97.888582 
L 218.14564 97.888582 
L 220.733766 97.888582 
L 223.321892 97.888582 
L 225.910019 97.888582 
L 228.498145 97.888582 
L 231.086271 97.888582 
L 233.674397 97.888582 
L 236.262523 97.888582 
L 238.850649 97.888582 
L 241.438776 97.888582 
L 244.026902 97.888582 
L 246.615028 97.888582 
L 249.203154 97.888582 
L 251.79128 97.888582 
L 254.379406 97.888582 
L 256.967532 97.888582 
L 259.555659 97.888582 
L 262.143785 97.888582 
L 264.731911 97.888582 
L 267.320037 97.888582 
L 269.908163 97.888582 
L 272.496289 97.888582 
L 275.084416 97.888582 
L 277.672542 97.888582 
L 280.260668 97.888582 
L 282.848794 97.888582 
L 285.43692 97.888582 
L 288.025046 97.888582 
L 290.613173 97.888582 
L 293.201299 97.888582 
L 295.789425 97.888582 
L 298.377551 97.888582 
L 300.965677 97.888582 
L 303.553803 97.888582 
L 306.141929 97.888582 
L 308.730056 97.888582 
L 311.318182 97.888582 
" style="fill:none;stroke:#000000;stroke-dasharray:9.6,2.4,1.5,2.4;stroke-dashoffset:0;stroke-width:1.5;"/>
   </g>
   <g id="line2d_14">
    <path clip-path="url(#pf75393fa5b)" d="M 57.681818 97.888582 
L 60.269944 97.888582 
L 62.858071 97.888582 
L 65.446197 97.888582 
L 68.034323 97.888582 
L 70.622449 97.888582 
L 73.210575 97.888582 
L 75.798701 97.888582 
L 78.386827 97.888582 
L 80.974954 97.888582 
L 83.56308 97.888582 
L 86.151206 97.888582 
L 88.739332 97.888582 
L 91.327458 97.888582 
L 93.915584 97.888582 
L 96.503711 97.888582 
L 99.091837 97.888582 
L 101.679963 97.888582 
L 104.268089 97.888582 
L 106.856215 97.888582 
L 109.444341 97.888582 
L 112.032468 97.888582 
L 114.620594 97.888582 
L 117.20872 97.888582 
L 119.796846 40.707491 
L 122.384972 97.888582 
L 124.973098 97.888582 
L 127.561224 97.888582 
L 130.149351 97.888582 
L 132.737477 97.888582 
L 135.325603 97.888582 
L 137.913729 97.888582 
L 140.501855 97.888582 
L 143.089981 97.888582 
L 145.678108 97.888582 
L 148.266234 97.888582 
L 150.85436 97.888582 
L 153.442486 97.888582 
L 156.030612 97.888582 
L 158.618738 97.888582 
L 161.206865 97.888582 
L 163.794991 97.888582 
L 166.383117 97.888582 
L 168.971243 97.888582 
L 171.559369 97.888582 
L 174.147495 97.888582 
L 176.735622 97.888582 
L 179.323748 97.888582 
L 181.911874 97.888582 
L 184.5 136.009309 
L 187.088126 97.888582 
L 189.676252 97.888582 
L 192.264378 97.888582 
L 194.852505 97.888582 
L 197.440631 97.888582 
L 200.028757 97.888582 
L 202.616883 97.888582 
L 205.205009 97.888582 
L 207.793135 97.888582 
L 210.381262 97.888582 
L 212.969388 97.888582 
L 215.557514 97.888582 
L 218.14564 97.888582 
L 220.733766 97.888582 
L 223.321892 97.888582 
L 225.910019 97.888582 
L 228.498145 97.888582 
L 231.086271 97.888582 
L 233.674397 97.888582 
L 236.262523 97.888582 
L 238.850649 97.888582 
L 241.438776 97.888582 
L 244.026902 97.888582 
L 246.615028 97.888582 
L 249.203154 78.828218 
L 251.79128 97.888582 
L 254.379406 97.888582 
L 256.967532 97.888582 
L 259.555659 97.888582 
L 262.143785 97.888582 
L 264.731911 97.888582 
L 267.320037 97.888582 
L 269.908163 97.888582 
L 272.496289 97.888582 
L 275.084416 97.888582 
L 277.672542 97.888582 
L 280.260668 97.888582 
L 282.848794 97.888582 
L 285.43692 97.888582 
L 288.025046 97.888582 
L 290.613173 97.888582 
L 293.201299 97.888582 
L 295.789425 97.888582 
L 298.377551 97.888582 
L 300.965677 97.888582 
L 303.553803 97.888582 
L 306.141929 97.888582 
L 308.730056 97.888582 
L 311.318182 136.009309 
" style="fill:none;stroke:#ff7f0e;stroke-linecap:square;stroke-width:1.5;"/>
   </g>
   <g id="patch_3">
    <path d="M 45 140.7744 
L 45 35.9424 
" style="fill:none;stroke:#000000;stroke-linecap:square;stroke-linejoin:miter;stroke-width:0.8;"/>
   </g>
   <g id="patch_4">
    <path d="M 324 140.7744 
L 324 35.9424 
" style="fill:none;stroke:#000000;stroke-linecap:square;stroke-linejoin:miter;stroke-width:0.8;"/>
   </g>
   <g id="patch_5">
    <path d="M 45 140.7744 
L 324 140.7744 
" style="fill:none;stroke:#000000;stroke-linecap:square;stroke-linejoin:miter;stroke-width:0.8;"/>
   </g>
   <g id="patch_6">
    <path d="M 45 35.9424 
L 324 35.9424 
" style="fill:none;stroke:#000000;stroke-linecap:square;stroke-linejoin:miter;stroke-width:0.8;"/>
   </g>
  </g>
  <g id="axes_2">
   <g id="patch_7">
    <path d="M 45 266.5728 
L 324 266.5728 
L 324 161.7408 
L 45 161.7408 
z
" style="fill:#ffffff;"/>
   </g>
   <g id="matplotlib.axis_3">
    <g id="xtick_10">
     <g id="line2d_15">
      <g>
       <use style="stroke:#000000;stroke-width:0.8;" x="57.681818" xlink:href="#mab3634320f" y="266.5728"/>
      </g>
     </g>
     <g id="text_14">
      <!-- −2.0 -->
      <g transform="translate(45.540412 281.171237)scale(0.1 -0.1)">
       <use xlink:href="#DejaVuSans-2212"/>
       <use x="83.789062" xlink:href="#DejaVuSans-32"/>
       <use x="147.412109" xlink:href="#DejaVuSans-2e"/>
       <use x="179.199219" xlink:href="#DejaVuSans-30"/>
      </g>
     </g>
    </g>
    <g id="xtick_11">
     <g id="line2d_16">
      <g>
       <use style="stroke:#000000;stroke-width:0.8;" x="89.709879" xlink:href="#mab3634320f" y="266.5728"/>
      </g>
     </g>
     <g id="text_15">
      <!-- −1.5 -->
      <g transform="translate(77.568473 281.171237)scale(0.1 -0.1)">
       <use xlink:href="#DejaVuSans-2212"/>
       <use x="83.789062" xlink:href="#DejaVuSans-31"/>
       <use x="147.412109" xlink:href="#DejaVuSans-2e"/>
       <use x="179.199219" xlink:href="#DejaVuSans-35"/>
      </g>
     </g>
    </g>
    <g id="xtick_12">
     <g id="line2d_17">
      <g>
       <use style="stroke:#000000;stroke-width:0.8;" x="121.737941" xlink:href="#mab3634320f" y="266.5728"/>
      </g>
     </g>
     <g id="text_16">
      <!-- −1.0 -->
      <g transform="translate(109.596534 281.171237)scale(0.1 -0.1)">
       <use xlink:href="#DejaVuSans-2212"/>
       <use x="83.789062" xlink:href="#DejaVuSans-31"/>
       <use x="147.412109" xlink:href="#DejaVuSans-2e"/>
       <use x="179.199219" xlink:href="#DejaVuSans-30"/>
      </g>
     </g>
    </g>
    <g id="xtick_13">
     <g id="line2d_18">
      <g>
       <use style="stroke:#000000;stroke-width:0.8;" x="153.766002" xlink:href="#mab3634320f" y="266.5728"/>
      </g>
     </g>
     <g id="text_17">
      <!-- −0.5 -->
      <g transform="translate(141.624596 281.171237)scale(0.1 -0.1)">
       <use xlink:href="#DejaVuSans-2212"/>
       <use x="83.789062" xlink:href="#DejaVuSans-30"/>
       <use x="147.412109" xlink:href="#DejaVuSans-2e"/>
       <use x="179.199219" xlink:href="#DejaVuSans-35"/>
      </g>
     </g>
    </g>
    <g id="xtick_14">
     <g id="line2d_19">
      <g>
       <use style="stroke:#000000;stroke-width:0.8;" x="185.794063" xlink:href="#mab3634320f" y="266.5728"/>
      </g>
     </g>
     <g id="text_18">
      <!-- 0.0 -->
      <g transform="translate(177.842501 281.171237)scale(0.1 -0.1)">
       <use xlink:href="#DejaVuSans-30"/>
       <use x="63.623047" xlink:href="#DejaVuSans-2e"/>
       <use x="95.410156" xlink:href="#DejaVuSans-30"/>
      </g>
     </g>
    </g>
    <g id="xtick_15">
     <g id="line2d_20">
      <g>
       <use style="stroke:#000000;stroke-width:0.8;" x="217.822124" xlink:href="#mab3634320f" y="266.5728"/>
      </g>
     </g>
     <g id="text_19">
      <!-- 0.5 -->
      <g transform="translate(209.870562 281.171237)scale(0.1 -0.1)">
       <use xlink:href="#DejaVuSans-30"/>
       <use x="63.623047" xlink:href="#DejaVuSans-2e"/>
       <use x="95.410156" xlink:href="#DejaVuSans-35"/>
      </g>
     </g>
    </g>
    <g id="xtick_16">
     <g id="line2d_21">
      <g>
       <use style="stroke:#000000;stroke-width:0.8;" x="249.850186" xlink:href="#mab3634320f" y="266.5728"/>
      </g>
     </g>
     <g id="text_20">
      <!-- 1.0 -->
      <g transform="translate(241.898623 281.171237)scale(0.1 -0.1)">
       <use xlink:href="#DejaVuSans-31"/>
       <use x="63.623047" xlink:href="#DejaVuSans-2e"/>
       <use x="95.410156" xlink:href="#DejaVuSans-30"/>
      </g>
     </g>
    </g>
    <g id="xtick_17">
     <g id="line2d_22">
      <g>
       <use style="stroke:#000000;stroke-width:0.8;" x="281.878247" xlink:href="#mab3634320f" y="266.5728"/>
      </g>
     </g>
     <g id="text_21">
      <!-- 1.5 -->
      <g transform="translate(273.926684 281.171237)scale(0.1 -0.1)">
       <use xlink:href="#DejaVuSans-31"/>
       <use x="63.623047" xlink:href="#DejaVuSans-2e"/>
       <use x="95.410156" xlink:href="#DejaVuSans-35"/>
      </g>
     </g>
    </g>
    <g id="xtick_18">
     <g id="line2d_23">
      <g>
       <use style="stroke:#000000;stroke-width:0.8;" x="313.906308" xlink:href="#mab3634320f" y="266.5728"/>
      </g>
     </g>
     <g id="text_22">
      <!-- 2.0 -->
      <g transform="translate(305.954745 281.171237)scale(0.1 -0.1)">
       <use xlink:href="#DejaVuSans-32"/>
       <use x="63.623047" xlink:href="#DejaVuSans-2e"/>
       <use x="95.410156" xlink:href="#DejaVuSans-30"/>
      </g>
     </g>
    </g>
   </g>
   <g id="matplotlib.axis_4">
    <g id="ytick_4">
     <g id="line2d_24">
      <g>
       <use style="stroke:#000000;stroke-width:0.8;" x="45" xlink:href="#mda379f3b47" y="253.051688"/>
      </g>
     </g>
     <g id="text_23">
      <!-- −5 -->
      <g transform="translate(23.257812 256.850906)scale(0.1 -0.1)">
       <use xlink:href="#DejaVuSans-2212"/>
       <use x="83.789062" xlink:href="#DejaVuSans-35"/>
      </g>
     </g>
    </g>
    <g id="ytick_5">
     <g id="line2d_25">
      <g>
       <use style="stroke:#000000;stroke-width:0.8;" x="45" xlink:href="#mda379f3b47" y="222.149381"/>
      </g>
     </g>
     <g id="text_24">
      <!-- 0 -->
      <g transform="translate(31.6375 225.9486)scale(0.1 -0.1)">
       <use xlink:href="#DejaVuSans-30"/>
      </g>
     </g>
    </g>
    <g id="ytick_6">
     <g id="line2d_26">
      <g>
       <use style="stroke:#000000;stroke-width:0.8;" x="45" xlink:href="#mda379f3b47" y="191.247074"/>
      </g>
     </g>
     <g id="text_25">
      <!-- 5 -->
      <g transform="translate(31.6375 195.046293)scale(0.1 -0.1)">
       <use xlink:href="#DejaVuSans-35"/>
      </g>
     </g>
    </g>
    <g id="text_26">
     <!-- Interpolated -->
     <defs>
      <path d="M 9.8125 72.90625 
L 19.671875 72.90625 
L 19.671875 0 
L 9.8125 0 
z
" id="DejaVuSans-49"/>
      <path d="M 18.3125 70.21875 
L 18.3125 54.6875 
L 36.8125 54.6875 
L 36.8125 47.703125 
L 18.3125 47.703125 
L 18.3125 18.015625 
Q 18.3125 11.328125 20.140625 9.421875 
Q 21.96875 7.515625 27.59375 7.515625 
L 36.8125 7.515625 
L 36.8125 0 
L 27.59375 0 
Q 17.1875 0 13.234375 3.875 
Q 9.28125 7.765625 9.28125 18.015625 
L 9.28125 47.703125 
L 2.6875 47.703125 
L 2.6875 54.6875 
L 9.28125 54.6875 
L 9.28125 70.21875 
z
" id="DejaVuSans-74"/>
      <path d="M 18.109375 8.203125 
L 18.109375 -20.796875 
L 9.078125 -20.796875 
L 9.078125 54.6875 
L 18.109375 54.6875 
L 18.109375 46.390625 
Q 20.953125 51.265625 25.265625 53.625 
Q 29.59375 56 35.59375 56 
Q 45.5625 56 51.78125 48.09375 
Q 58.015625 40.1875 58.015625 27.296875 
Q 58.015625 14.40625 51.78125 6.484375 
Q 45.5625 -1.421875 35.59375 -1.421875 
Q 29.59375 -1.421875 25.265625 0.953125 
Q 20.953125 3.328125 18.109375 8.203125 
z
M 48.6875 27.296875 
Q 48.6875 37.203125 44.609375 42.84375 
Q 40.53125 48.484375 33.40625 48.484375 
Q 26.265625 48.484375 22.1875 42.84375 
Q 18.109375 37.203125 18.109375 27.296875 
Q 18.109375 17.390625 22.1875 11.75 
Q 26.265625 6.109375 33.40625 6.109375 
Q 40.53125 6.109375 44.609375 11.75 
Q 48.6875 17.390625 48.6875 27.296875 
z
" id="DejaVuSans-70"/>
      <path d="M 30.609375 48.390625 
Q 23.390625 48.390625 19.1875 42.75 
Q 14.984375 37.109375 14.984375 27.296875 
Q 14.984375 17.484375 19.15625 11.84375 
Q 23.34375 6.203125 30.609375 6.203125 
Q 37.796875 6.203125 41.984375 11.859375 
Q 46.1875 17.53125 46.1875 27.296875 
Q 46.1875 37.015625 41.984375 42.703125 
Q 37.796875 48.390625 30.609375 48.390625 
z
M 30.609375 56 
Q 42.328125 56 49.015625 48.375 
Q 55.71875 40.765625 55.71875 27.296875 
Q 55.71875 13.875 49.015625 6.21875 
Q 42.328125 -1.421875 30.609375 -1.421875 
Q 18.84375 -1.421875 12.171875 6.21875 
Q 5.515625 13.875 5.515625 27.296875 
Q 5.515625 40.765625 12.171875 48.375 
Q 18.84375 56 30.609375 56 
z
" id="DejaVuSans-6f"/>
      <path d="M 9.421875 75.984375 
L 18.40625 75.984375 
L 18.40625 0 
L 9.421875 0 
z
" id="DejaVuSans-6c"/>
     </defs>
     <g transform="translate(17.178125 244.790394)rotate(-90)scale(0.1 -0.1)">
      <use xlink:href="#DejaVuSans-49"/>
      <use x="29.492188" xlink:href="#DejaVuSans-6e"/>
      <use x="92.871094" xlink:href="#DejaVuSans-74"/>
      <use x="132.080078" xlink:href="#DejaVuSans-65"/>
      <use x="193.603516" xlink:href="#DejaVuSans-72"/>
      <use x="234.716797" xlink:href="#DejaVuSans-70"/>
      <use x="298.193359" xlink:href="#DejaVuSans-6f"/>
      <use x="359.375" xlink:href="#DejaVuSans-6c"/>
      <use x="387.158203" xlink:href="#DejaVuSans-61"/>
      <use x="448.4375" xlink:href="#DejaVuSans-74"/>
      <use x="487.646484" xlink:href="#DejaVuSans-65"/>
      <use x="549.169922" xlink:href="#DejaVuSans-64"/>
     </g>
    </g>
   </g>
   <g id="line2d_27">
    <path clip-path="url(#p5e2777655c)" d="M 57.681818 222.149381 
L 60.269944 222.149381 
L 62.858071 222.149381 
L 65.446197 222.149381 
L 68.034323 222.149381 
L 70.622449 222.149381 
L 73.210575 222.149381 
L 75.798701 222.149381 
L 78.386827 222.149381 
L 80.974954 222.149381 
L 83.56308 222.149381 
L 86.151206 222.149381 
L 88.739332 222.149381 
L 91.327458 222.149381 
L 93.915584 222.149381 
L 96.503711 222.149381 
L 99.091837 222.149381 
L 101.679963 222.149381 
L 104.268089 222.149381 
L 106.856215 222.149381 
L 109.444341 222.149381 
L 112.032468 222.149381 
L 114.620594 222.149381 
L 117.20872 222.149381 
L 119.796846 222.149381 
L 122.384972 222.149381 
L 124.973098 222.149381 
L 127.561224 222.149381 
L 130.149351 222.149381 
L 132.737477 222.149381 
L 135.325603 222.149381 
L 137.913729 222.149381 
L 140.501855 222.149381 
L 143.089981 222.149381 
L 145.678108 222.149381 
L 148.266234 222.149381 
L 150.85436 222.149381 
L 153.442486 222.149381 
L 156.030612 222.149381 
L 158.618738 222.149381 
L 161.206865 222.149381 
L 163.794991 222.149381 
L 166.383117 222.149381 
L 168.971243 222.149381 
L 171.559369 222.149381 
L 174.147495 222.149381 
L 176.735622 222.149381 
L 179.323748 222.149381 
L 181.911874 222.149381 
L 184.5 222.149381 
L 187.088126 222.149381 
L 189.676252 222.149381 
L 192.264378 222.149381 
L 194.852505 222.149381 
L 197.440631 222.149381 
L 200.028757 222.149381 
L 202.616883 222.149381 
L 205.205009 222.149381 
L 207.793135 222.149381 
L 210.381262 222.149381 
L 212.969388 222.149381 
L 215.557514 222.149381 
L 218.14564 222.149381 
L 220.733766 222.149381 
L 223.321892 222.149381 
L 225.910019 222.149381 
L 228.498145 222.149381 
L 231.086271 222.149381 
L 233.674397 222.149381 
L 236.262523 222.149381 
L 238.850649 222.149381 
L 241.438776 222.149381 
L 244.026902 222.149381 
L 246.615028 222.149381 
L 249.203154 222.149381 
L 251.79128 222.149381 
L 254.379406 222.149381 
L 256.967532 222.149381 
L 259.555659 222.149381 
L 262.143785 222.149381 
L 264.731911 222.149381 
L 267.320037 222.149381 
L 269.908163 222.149381 
L 272.496289 222.149381 
L 275.084416 222.149381 
L 277.672542 222.149381 
L 280.260668 222.149381 
L 282.848794 222.149381 
L 285.43692 222.149381 
L 288.025046 222.149381 
L 290.613173 222.149381 
L 293.201299 222.149381 
L 295.789425 222.149381 
L 298.377551 222.149381 
L 300.965677 222.149381 
L 303.553803 222.149381 
L 306.141929 222.149381 
L 308.730056 222.149381 
L 311.318182 222.149381 
" style="fill:none;stroke:#000000;stroke-dasharray:9.6,2.4,1.5,2.4;stroke-dashoffset:0;stroke-width:1.5;"/>
   </g>
   <g id="line2d_28">
    <path clip-path="url(#p5e2777655c)" d="M 57.681818 166.505891 
L 60.269944 170.510169 
L 62.858071 174.398418 
L 65.446197 178.170637 
L 68.034323 181.826826 
L 70.622449 185.366987 
L 73.210575 188.791117 
L 75.798701 192.099218 
L 78.386827 195.29129 
L 80.974954 198.367332 
L 83.56308 201.327345 
L 86.151206 204.171329 
L 88.739332 206.899282 
L 91.327458 209.511207 
L 93.915584 212.007102 
L 96.503711 214.386967 
L 99.091837 216.650803 
L 101.679963 218.79861 
L 104.268089 220.830387 
L 106.856215 222.746134 
L 109.444341 224.545852 
L 112.032468 226.229541 
L 114.620594 227.7972 
L 117.20872 229.248829 
L 119.796846 230.58443 
L 122.384972 231.804 
L 124.973098 232.907542 
L 127.561224 233.895053 
L 130.149351 234.766535 
L 132.737477 235.521988 
L 135.325603 236.161412 
L 137.913729 236.684805 
L 140.501855 237.09217 
L 143.089981 237.383505 
L 145.678108 237.55881 
L 148.266234 237.618086 
L 150.85436 237.561332 
L 153.442486 237.388549 
L 156.030612 237.099737 
L 158.618738 236.694895 
L 161.206865 236.174023 
L 163.794991 235.537123 
L 166.383117 234.784192 
L 168.971243 233.915232 
L 171.559369 232.930243 
L 174.147495 231.829224 
L 176.735622 230.612176 
L 179.323748 229.279098 
L 181.911874 227.829991 
L 184.5 226.269268 
L 187.088126 224.698456 
L 189.676252 223.21908 
L 192.264378 221.835555 
L 194.852505 220.54788 
L 197.440631 219.356056 
L 200.028757 218.260081 
L 202.616883 217.259958 
L 205.205009 216.355685 
L 207.793135 215.547262 
L 210.381262 214.83469 
L 212.969388 214.217968 
L 215.557514 213.697096 
L 218.14564 213.272075 
L 220.733766 212.942905 
L 223.321892 212.709585 
L 225.910019 212.572115 
L 228.498145 212.530496 
L 231.086271 212.584727 
L 233.674397 212.734808 
L 236.262523 212.98074 
L 238.850649 213.322523 
L 241.438776 213.760156 
L 244.026902 214.293639 
L 246.615028 214.922973 
L 249.203154 215.648157 
L 251.79128 216.469192 
L 254.379406 217.386077 
L 256.967532 218.398812 
L 259.555659 219.507398 
L 262.143785 220.711835 
L 264.731911 222.012122 
L 267.320037 223.408259 
L 269.908163 224.900247 
L 272.496289 226.488085 
L 275.084416 228.171773 
L 277.672542 229.951312 
L 280.260668 231.826702 
L 282.848794 233.797942 
L 285.43692 235.865032 
L 288.025046 238.027973 
L 290.613173 240.286764 
L 293.201299 242.641405 
L 295.789425 245.091898 
L 298.377551 247.63824 
L 300.965677 250.280433 
L 303.553803 253.018476 
L 306.141929 255.85237 
L 308.730056 258.782114 
L 311.318182 261.807709 
" style="fill:none;stroke:#ff7f0e;stroke-linecap:square;stroke-width:1.5;"/>
   </g>
   <g id="patch_8">
    <path d="M 45 266.5728 
L 45 161.7408 
" style="fill:none;stroke:#000000;stroke-linecap:square;stroke-linejoin:miter;stroke-width:0.8;"/>
   </g>
   <g id="patch_9">
    <path d="M 324 266.5728 
L 324 161.7408 
" style="fill:none;stroke:#000000;stroke-linecap:square;stroke-linejoin:miter;stroke-width:0.8;"/>
   </g>
   <g id="patch_10">
    <path d="M 45 266.5728 
L 324 266.5728 
" style="fill:none;stroke:#000000;stroke-linecap:square;stroke-linejoin:miter;stroke-width:0.8;"/>
   </g>
   <g id="patch_11">
    <path d="M 45 161.7408 
L 324 161.7408 
" style="fill:none;stroke:#000000;stroke-linecap:square;stroke-linejoin:miter;stroke-width:0.8;"/>
   </g>
  </g>
 </g>
 <defs>
  <clipPath id="pf75393fa5b">
   <rect height="104.832" width="279" x="45" y="35.9424"/>
  </clipPath>
  <clipPath id="p5e2777655c">
   <rect height="104.832" width="279" x="45" y="161.7408"/>
  </clipPath>
 </defs>
</svg>
