<?xml version="1.0" encoding="UTF-8" standalone="no"?>
<svg
   xmlns:dc="http://purl.org/dc/elements/1.1/"
   xmlns:cc="http://creativecommons.org/ns#"
   xmlns:rdf="http://www.w3.org/1999/02/22-rdf-syntax-ns#"
   xmlns:svg="http://www.w3.org/2000/svg"
   xmlns="http://www.w3.org/2000/svg"
   viewBox="0 0 330.66666 289.33334"
   height="289.33334"
   width="330.66666"
   xml:space="preserve"
   id="svg2"
   version="1.1"><metadata
     id="metadata8"><rdf:RDF><cc:Work
         rdf:about=""><dc:format>image/svg+xml</dc:format><dc:type
           rdf:resource="http://purl.org/dc/dcmitype/StillImage" /></cc:Work></rdf:RDF></metadata><defs
     id="defs6"><clipPath
       id="clipPath14"
       clipPathUnits="userSpaceOnUse"><path
         id="path12"
         d="M 0,0 H 842 V 595 H 0 Z" /></clipPath><clipPath
       id="clipPath24"
       clipPathUnits="userSpaceOnUse"><path
         id="path22"
         d="m 93.5,356.9 h 221.099 v 105 H 93.5 Z" /></clipPath><clipPath
       id="clipPath36"
       clipPathUnits="userSpaceOnUse"><path
         style="clip-rule:evenodd"
         id="path34"
         d="M 0,-0.2 H 841.8 V 595 H 0 Z" /></clipPath><clipPath
       id="clipPath48"
       clipPathUnits="userSpaceOnUse"><path
         id="path46"
         d="M 116.2,376.7 H 241 v 65.299 H 116.2 Z" /></clipPath><clipPath
       id="clipPath60"
       clipPathUnits="userSpaceOnUse"><path
         style="clip-rule:evenodd"
         id="path58"
         d="M 0,-0.2 H 841.8 V 595 H 0 Z" /></clipPath><clipPath
       id="clipPath72"
       clipPathUnits="userSpaceOnUse"><path
         id="path70"
         d="m 175.7,286 h 59.6 v 127.7 h -59.6 z" /></clipPath><clipPath
       id="clipPath92"
       clipPathUnits="userSpaceOnUse"><path
         style="clip-rule:evenodd"
         id="path90"
         d="m 168.6,294.5 h 75.1 v 24.2 h -75.1 z" /></clipPath><clipPath
       id="clipPath124"
       clipPathUnits="userSpaceOnUse"><path
         style="clip-rule:evenodd"
         id="path122"
         d="M 0,-0.2 H 841.8 V 595 H 0 Z" /></clipPath></defs><g
     clip-path="url(#clipPath14)"
     transform="matrix(1.3333333,0,0,-1.3333333,-108,649.33333)"
     id="g10"><path
       id="path16"
       style="fill:#ffffff;fill-opacity:1;fill-rule:nonzero;stroke:none"
       d="M 81,270 H 328.999 V 487 H 81 Z" /><g
       id="g18"><g
         clip-path="url(#clipPath24)"
         id="g20"><g
           transform="translate(204.1,461.8)"
           id="g26"><path
             id="path28"
             style="fill:#ffe57f;fill-opacity:1;fill-rule:nonzero;stroke:none"
             d="m 0,0 c -20.4,0 -37.6,-2.2 -55.3,-7.1 -17.6,-4.8 -30.3,-10.8 -40.4,-19.1 -10.2,-8.4 -14.9,-16.6 -14.9,-26.3 0,-9.6 4.7,-17.8 14.9,-26.2 10.1,-8.4 22.8,-14.4 40.4,-19.2 9.02,-2.446 17.911,-4.217 27.16,-5.366 0.392,6.338 1.227,12.271 2.526,18.166 -11.45,0.009 -21.119,1.41 -31.086,4.4 -9.9,3 -17.1,6.7 -22.8,11.9 -5.8,5.2 -8.4,10.3 -8.4,16.3 0,6 2.6,11.1 8.4,16.3 5.7,5.2 12.9,9 22.8,12 10,3 19.7,4.3 31.2,4.3 11.5,0 21.2,-1.3 31.2,-4.3 9.9,-3 17.1,-6.8 22.8,-12 5.7,-5.2 8.3,-10.3 8.3,-16.3 0,-6 -2.6,-11.1 -8.3,-16.3 -1.214,-1.108 -2.497,-2.147 -3.859,-3.127 0.927,-2.505 1.777,-5.217 2.559,-8.173 1.974,-7.458 3.2,-14.809 3.716,-22.796 8.262,1.146 16.281,2.798 24.384,4.996 17.6,4.8 30.3,10.8 40.4,19.2 10.2,8.4 14.8,16.6 14.8,26.2 0,9.7 -4.6,17.9 -14.8,26.3 C 85.6,-17.9 72.9,-11.9 55.3,-7.1 37.6,-2.2 20.3,0 0,0" /></g></g></g><g
       id="g30"><g
         clip-path="url(#clipPath36)"
         id="g32"><g
           transform="translate(262.8859,406.0767)"
           id="g38"><path
             id="path40"
             style="fill:#000000;fill-opacity:1;fill-rule:nonzero;stroke:none"
             d="m 0,0 c -0.558,-1.638 -0.738,-1.819 -1.873,-1.855 -0.252,0 -0.306,-0.036 -0.36,-0.216 l -0.036,-0.144 v -0.108 c 0.018,-0.108 0.054,-0.144 0.216,-0.144 l 0.415,0.018 c 0.846,0.072 0.99,0.072 1.638,0.072 0.702,0 1.098,-0.018 2.035,-0.072 0.126,-0.018 0.288,-0.018 0.324,-0.018 0.162,0 0.252,0.054 0.306,0.198 l 0.054,0.108 0.036,0.144 c 0,0.108 -0.054,0.126 -0.36,0.144 -0.775,0.054 -1.081,0.253 -1.081,0.667 0,0.27 0.072,0.63 0.252,1.206 l 0.685,2.359 0.162,0.594 c 0.036,0.126 0.072,0.216 0.126,0.288 0.054,0.072 0.252,0.306 0.612,0.684 l 4.627,4.646 c 0.829,0.828 0.937,0.9 1.621,0.954 0.468,0.018 0.558,0.054 0.558,0.252 v 0.216 c 0,0.108 -0.018,0.126 -0.144,0.126 -0.972,-0.054 -1.945,-0.09 -2.089,-0.09 -0.144,0 -0.432,0.018 -0.81,0.036 C 6.32,10.101 5.96,10.119 5.798,10.119 5.6,10.119 5.528,10.065 5.51,9.939 L 5.474,9.777 5.456,9.651 C 5.456,9.579 5.528,9.525 5.654,9.525 6.698,9.471 6.914,9.399 6.914,9.129 6.914,8.859 6.5,8.228 5.978,7.706 L 3.079,4.789 C 2.467,4.159 2.467,4.159 2.413,4.159 2.341,4.159 2.305,4.231 2.089,4.843 L 0.594,8.354 C 0.36,9.003 0.36,9.003 0.36,9.093 c 0,0.252 0.27,0.36 0.972,0.396 0.27,0.018 0.415,0.036 0.487,0.054 0.072,0.018 0.108,0.054 0.126,0.162 l 0.018,0.198 v 0.054 c 0.018,0.108 -0.072,0.162 -0.216,0.162 -0.091,0 -0.235,0 -0.397,-0.018 -0.27,-0.018 -1.26,-0.072 -1.386,-0.072 -0.036,0 -0.414,0.018 -0.936,0.036 -1.315,0.054 -1.315,0.054 -1.495,0.054 -0.162,0 -0.216,-0.036 -0.252,-0.162 L -2.755,9.759 -2.773,9.651 c 0,-0.108 0.072,-0.144 0.27,-0.144 0.955,-0.018 1.063,-0.108 1.675,-1.513 L 0.486,5.023 c 0.27,-0.612 0.45,-1.26 0.45,-1.674 0,-0.324 -0.108,-0.81 -0.342,-1.53 z" /></g></g></g><g
       id="g42"><g
         clip-path="url(#clipPath48)"
         id="g44"><g
           transform="translate(178.6001,441.9)"
           id="g50"><path
             id="path52"
             style="fill:#ff8c59;fill-opacity:1;fill-rule:nonzero;stroke:none"
             d="m 0,0 c -11.5,0 -21.2,-1.3 -31.2,-4.3 -9.9,-3 -17.1,-6.8 -22.8,-12 -5.8,-5.2 -8.4,-10.3 -8.4,-16.3 0,-6 2.6,-11.1 8.4,-16.3 5.7,-5.2 12.9,-8.9 22.8,-11.9 9.967,-2.99 19.636,-4.391 31.086,-4.4 0.368,1.667 0.772,3.331 1.214,5 2.8,10.2 6.2,17.5 10.9,23.4 4.8,5.8 9.4,8.5 14.9,8.5 5.5,0 10.2,-2.7 14.9,-8.5 3.338,-4.19 6.071,-9.087 8.341,-15.227 1.362,0.98 2.645,2.019 3.859,3.127 5.7,5.2 8.3,10.3 8.3,16.3 0,6 -2.6,11.1 -8.3,16.3 -5.7,5.2 -12.9,9 -22.8,12 C 21.2,-1.3 11.5,0 0,0" /></g></g></g><g
       id="g54"><g
         clip-path="url(#clipPath60)"
         id="g56"><g
           transform="translate(178.5659,409.9299)"
           id="g62"><path
             id="path64"
             style="fill:#000000;fill-opacity:1;fill-rule:nonzero;stroke:none"
             d="M 0,0 -4.141,-4.285 C -4.843,-5.023 -5.69,-5.618 -6.14,-5.708 -6.248,-5.744 -6.374,-5.762 -6.5,-5.798 L -6.59,-5.852 C -6.608,-5.87 -6.626,-5.906 -6.626,-5.996 L -6.644,-6.14 c 0,-0.126 0.018,-0.18 0.126,-0.18 0.072,0 0.234,0 0.396,0.018 1.099,0.072 1.189,0.072 1.351,0.072 0.108,0 0.396,-0.018 0.81,-0.036 0.954,-0.054 0.954,-0.054 1.08,-0.054 0.18,0 0.234,0.036 0.27,0.198 l 0.036,0.126 0.036,0.126 c 0.018,0.108 -0.108,0.144 -0.468,0.144 -0.576,0.018 -0.828,0.144 -0.828,0.468 0,0.235 0,0.235 0.72,1.009 L 0.27,-0.738 1.62,-4.015 C 2.053,-5.078 2.053,-5.078 2.053,-5.258 2.053,-5.546 1.747,-5.69 1.17,-5.708 0.774,-5.726 0.756,-5.726 0.702,-5.762 0.648,-5.78 0.63,-5.816 0.612,-5.924 L 0.576,-6.068 0.558,-6.158 c 0,-0.108 0.072,-0.162 0.234,-0.162 0.126,0 0.288,0 0.486,0.018 0.288,0.018 1.585,0.072 1.747,0.072 0.252,0 0.54,-0.018 0.936,-0.036 0.846,-0.054 0.864,-0.054 1.044,-0.054 0.145,0 0.181,0.036 0.235,0.162 l 0.054,0.216 0.018,0.108 -0.108,0.09 C 4.051,-5.69 3.835,-5.528 3.277,-4.159 l -1.819,4.537 3.98,4.123 c 0.828,0.847 1.08,1.009 1.998,1.225 0.162,0.036 0.198,0.072 0.198,0.198 v 0.18 l 0.018,0.072 c 0,0.054 -0.072,0.09 -0.18,0.09 -0.108,0 -0.252,0 -0.396,-0.018 C 6.194,6.176 6.104,6.176 5.852,6.176 5.744,6.176 5.438,6.194 5.005,6.212 3.979,6.266 3.979,6.266 3.835,6.266 3.709,6.266 3.673,6.23 3.637,6.122 L 3.601,5.96 V 5.852 c 0,-0.144 0.036,-0.144 0.45,-0.162 0.522,0 0.81,-0.144 0.81,-0.414 0,-0.253 -0.162,-0.487 -0.864,-1.243 L 1.188,1.044 -0.072,4.285 c -0.18,0.45 -0.27,0.793 -0.27,0.973 0,0.27 0.324,0.414 1.062,0.45 0.144,0 0.198,0.054 0.216,0.18 L 0.954,6.086 C 0.972,6.23 0.936,6.266 0.81,6.266 0.666,6.266 0.144,6.248 -0.396,6.212 -0.792,6.194 -1.116,6.176 -1.314,6.176 c -0.252,0 -0.559,0.018 -0.955,0.036 -0.702,0.036 -0.972,0.054 -1.206,0.054 -0.108,0 -0.144,-0.018 -0.162,-0.108 L -3.691,5.924 -3.709,5.798 c 0,-0.09 0.018,-0.09 0.486,-0.126 0.864,0 1.134,-0.306 1.819,-2.035 z" /></g></g></g><g
       id="g66"><g
         clip-path="url(#clipPath72)"
         id="g68"><g
           transform="translate(235.0163,358.904)"
           id="g74"><path
             id="path76"
             style="fill:#ccffe5;fill-opacity:1;fill-rule:nonzero;stroke:none"
             d="m 0,0 c -9.784,-1.357 -19.91,-2.004 -30.916,-2.004 -10.005,0 -19.238,0.529 -28.14,1.634 -0.174,-2.82 -0.26,-5.72 -0.26,-8.734 0,-11.7 1.3,-21.7 4,-31.9 2.8,-10.2 6.2,-17.4 10.9,-23.3 4.8,-5.9 9.4,-8.6 14.9,-8.6 5.5,0 10.2,2.7 14.9,8.6 4.7,5.9 8.2,13.1 10.9,23.3 2.7,10.2 4,20.2 4,31.9 C 0.284,-5.959 0.19,-2.936 0,0" /></g><g
           transform="translate(228.7415,389.8732)"
           id="g78"><path
             id="path80"
             style="fill:#ccf2a6;fill-opacity:1;fill-rule:nonzero;stroke:none"
             d="m 0,0 c -5.032,-3.618 -11.15,-6.412 -18.942,-8.773 -10,-3 -19.7,-4.4 -31.199,-4.4 -0.038,0 -0.076,0 -0.114,0 -1.299,-5.895 -2.135,-11.828 -2.526,-18.166 8.902,-1.105 18.135,-1.634 28.14,-1.634 11.006,0 21.131,0.647 30.916,2.004 C 5.758,-22.982 4.533,-15.631 2.559,-8.173 1.776,-5.217 0.927,-2.505 0,0" /></g><g
           transform="translate(205.4999,413.6001)"
           id="g82"><path
             id="path84"
             style="fill:#ccc693;fill-opacity:1;fill-rule:nonzero;stroke:none"
             d="m 0,0 c -5.5,0 -10.1,-2.7 -14.9,-8.5 -4.7,-5.9 -8.1,-13.2 -10.9,-23.4 -0.442,-1.669 -0.846,-3.333 -1.213,-5 0.037,0 0.075,0 0.113,0 11.5,0 21.2,1.4 31.2,4.4 7.791,2.361 13.91,5.155 18.942,8.773 C 20.971,-17.587 18.238,-12.69 14.9,-8.5 10.2,-2.7 5.5,0 0,0" /></g></g></g><g
       id="g86"><g
         clip-path="url(#clipPath92)"
         id="g88"><g
           transform="translate(176.6648,299.6459)"
           id="g94"><path
             id="path96"
             style="fill:#000000;fill-opacity:1;fill-rule:nonzero;stroke:none"
             d="m 0,0 c 0.75,-0.381 1.556,-0.571 2.417,-0.571 h 0.157 l 0.1,0.043 0.048,0.095 v 0.165 l -0.048,0.116 -0.1,0.039 c -0.63,0 -1.193,0.166 -1.688,0.497 C 0.39,0.716 0.143,1.176 0.143,1.764 v 4.323 c 0,0.565 -0.211,1.036 -0.632,1.414 -0.421,0.377 -0.931,0.638 -1.529,0.782 0.378,0.092 0.731,0.236 1.059,0.432 0.328,0.196 0.593,0.444 0.797,0.743 0.203,0.3 0.305,0.639 0.305,1.02 v 4.319 c 0,0.397 0.119,0.737 0.358,1.019 0.239,0.282 0.547,0.495 0.923,0.639 0.376,0.144 0.759,0.216 1.15,0.216 0.099,0 0.148,0.052 0.148,0.156 v 0.164 l -0.048,0.099 -0.1,0.039 H 2.417 c -0.535,0 -1.075,-0.078 -1.619,-0.233 -0.543,-0.156 -1,-0.405 -1.369,-0.748 -0.37,-0.343 -0.555,-0.782 -0.555,-1.318 V 10.509 C -1.126,9.915 -1.371,9.434 -1.863,9.066 -2.354,8.697 -2.916,8.512 -3.547,8.512 L -3.67,8.466 -3.714,8.368 V 8.215 c 0,-0.107 0.055,-0.161 0.167,-0.161 0.631,0 1.193,-0.184 1.684,-0.553 0.492,-0.369 0.737,-0.851 0.737,-1.445 V 1.73 C -1.126,0.957 -0.75,0.381 0,0" /></g><g
           transform="translate(182.3701,300.9634)"
           id="g98"><path
             id="path100"
             style="fill:#000000;fill-opacity:1;fill-rule:nonzero;stroke:none"
             d="m 0,0 0.036,-0.013 c 0.279,0 0.523,0.101 0.731,0.303 0.208,0.201 0.312,0.437 0.312,0.708 0,0.19 -0.066,0.345 -0.2,0.463 C 0.745,1.579 0.58,1.638 0.384,1.638 0.056,1.638 -0.205,1.52 -0.401,1.283 -0.598,1.047 -0.696,0.768 -0.696,0.445 c 0,-0.317 0.095,-0.593 0.286,-0.83 0.19,-0.236 0.44,-0.413 0.749,-0.531 0.309,-0.118 0.621,-0.177 0.937,-0.177 0.654,0 1.283,0.168 1.886,0.505 0.604,0.337 1.12,0.783 1.548,1.336 0.428,0.553 0.723,1.132 0.883,1.737 l 1.811,7.044 0.018,0.138 c 0,0.15 -0.055,0.271 -0.165,0.363 -0.11,0.092 -0.239,0.138 -0.388,0.138 C 6.697,10.168 6.536,10.112 6.387,10 6.239,9.887 6.143,9.754 6.102,9.598 L 4.719,4.151 C 4.118,3.259 3.44,2.813 2.685,2.813 2.311,2.813 2.037,2.948 1.864,3.219 1.692,3.489 1.606,3.82 1.606,4.212 c 0,0.305 0.032,0.61 0.098,0.915 0.065,0.305 0.148,0.615 0.25,0.932 0.101,0.317 0.246,0.717 0.437,1.2 0.19,0.483 0.312,0.797 0.366,0.941 0.101,0.242 0.151,0.472 0.151,0.691 0,0.425 -0.15,0.776 -0.45,1.053 -0.301,0.276 -0.668,0.414 -1.102,0.414 -0.619,0 -1.13,-0.272 -1.534,-0.816 C -0.583,8.998 -0.883,8.375 -1.079,7.673 V 7.621 c 0,-0.109 0.05,-0.164 0.151,-0.164 h 0.214 l 0.152,0.112 c 0.149,0.593 0.379,1.13 0.691,1.61 C 0.442,9.66 0.839,9.9 1.32,9.9 1.588,9.9 1.722,9.724 1.722,9.373 1.722,9.096 1.641,8.742 1.481,8.31 1.338,7.941 1.17,7.507 0.977,7.009 0.784,6.511 0.633,6.058 0.526,5.652 0.419,5.246 0.366,4.85 0.366,4.464 0.366,4.009 0.459,3.621 0.647,3.301 0.834,2.982 1.097,2.741 1.436,2.58 1.775,2.419 2.186,2.338 2.667,2.338 3.298,2.338 3.884,2.588 4.425,3.09 4.282,2.506 4.081,1.936 3.823,1.379 3.564,0.822 3.223,0.346 2.801,-0.046 2.379,-0.439 1.879,-0.635 1.302,-0.635 c -0.636,0 -1.082,0.213 -1.338,0.639 z" /></g><g
           transform="translate(192.1514,312.4984)"
           id="g102"><path
             id="path104"
             style="fill:#000000;fill-opacity:1;fill-rule:nonzero;stroke:none"
             d="M 0,0 1.783,1.144 1.588,-0.769 1.576,-0.805 c 0,-0.109 0.044,-0.198 0.131,-0.267 0.088,-0.068 0.187,-0.103 0.296,-0.103 0.113,0 0.212,0.035 0.298,0.103 0.085,0.069 0.128,0.158 0.128,0.267 v 0.036 L 2.222,1.144 4.011,0 4.2,-0.061 c 0.117,0 0.217,0.045 0.301,0.134 0.084,0.088 0.126,0.185 0.126,0.29 0,0.17 -0.074,0.285 -0.22,0.345 l -1.94,0.794 1.94,0.781 c 0.146,0.06 0.22,0.175 0.22,0.345 0,0.105 -0.042,0.202 -0.126,0.29 C 4.417,3.007 4.317,3.052 4.2,3.052 L 4.011,2.991 2.222,1.847 2.429,3.772 V 3.796 C 2.429,3.905 2.386,3.994 2.301,4.063 2.215,4.131 2.116,4.166 2.003,4.166 1.894,4.166 1.795,4.131 1.707,4.063 1.62,3.994 1.576,3.905 1.576,3.796 L 1.588,3.772 1.783,1.847 0,2.991 -0.195,3.052 c -0.108,0 -0.207,-0.045 -0.295,-0.134 -0.088,-0.088 -0.131,-0.185 -0.131,-0.29 0,-0.166 0.073,-0.281 0.219,-0.345 L 1.538,1.502 -0.402,0.708 C -0.548,0.644 -0.621,0.529 -0.621,0.363 c 0,-0.105 0.043,-0.202 0.131,-0.29 0.088,-0.089 0.187,-0.134 0.295,-0.134 z" /></g><g
           transform="translate(216.456,305.8508)"
           id="g106"><path
             id="path108"
             style="fill:#000000;fill-opacity:1;fill-rule:nonzero;stroke:none"
             d="M 0,0 0.232,0.112 0.33,0.354 c 0,0.098 -0.032,0.182 -0.098,0.251 L 0,0.709 h -11.481 c -0.101,0 -0.185,-0.035 -0.25,-0.104 -0.066,-0.069 -0.098,-0.153 -0.098,-0.251 l 0.098,-0.242 C -11.666,0.037 -11.582,0 -11.481,0 Z M 0,3.44 0.232,3.543 C 0.298,3.613 0.33,3.696 0.33,3.794 L 0.232,4.036 0,4.148 h -11.481 c -0.101,0 -0.185,-0.037 -0.25,-0.112 l -0.098,-0.242 c 0,-0.098 0.032,-0.181 0.098,-0.251 0.065,-0.069 0.149,-0.103 0.25,-0.103 z" /></g><g
           transform="translate(225.2466,307.8638)"
           id="g110"><path
             id="path112"
             style="fill:#000000;fill-opacity:1;fill-rule:nonzero;stroke:none"
             d="M 0,0 C 0.27,0.82 0.673,1.525 1.208,2.115 1.743,2.705 2.367,3 3.08,3 3.371,3 3.652,2.952 3.922,2.857 4.193,2.762 4.399,2.614 4.542,2.413 H 4.506 C 4.225,2.413 3.98,2.315 3.771,2.119 3.562,1.923 3.457,1.687 3.457,1.411 c 0,-0.19 0.067,-0.343 0.202,-0.462 0.134,-0.118 0.3,-0.176 0.497,-0.176 0.329,0 0.591,0.113 0.785,0.341 0.194,0.227 0.291,0.502 0.291,0.824 0,0.501 -0.218,0.879 -0.655,1.136 C 4.14,3.33 3.647,3.458 3.1,3.458 2.262,3.458 1.462,3.211 0.701,2.719 -0.061,2.226 -0.67,1.588 -1.128,0.804 -1.586,0.021 -1.815,-0.769 -1.815,-1.564 c 0,-0.564 0.122,-1.071 0.366,-1.521 0.243,-0.449 0.588,-0.808 1.034,-1.076 0.446,-0.268 0.961,-0.402 1.544,-0.402 0.808,0 1.591,0.175 2.346,0.525 0.755,0.35 1.356,0.828 1.802,1.435 L 5.313,-2.499 5.219,-2.313 5.036,-2.214 4.893,-2.266 C 4.471,-2.836 3.925,-3.282 3.256,-3.604 2.587,-3.926 1.89,-4.087 1.164,-4.087 0.659,-4.087 0.271,-3.909 0,-3.552 -0.27,-3.195 -0.406,-2.761 -0.406,-2.249 -0.406,-1.57 -0.27,-0.82 0,0" /></g><g
           transform="translate(231.9168,299.075)"
           id="g114"><path
             id="path116"
             style="fill:#000000;fill-opacity:1;fill-rule:nonzero;stroke:none"
             d="m 0,0 h 0.157 c 0.863,0 1.668,0.189 2.414,0.567 0.746,0.377 1.12,0.956 1.12,1.734 v 4.326 c 0,0.594 0.247,1.075 0.743,1.445 0.495,0.369 1.058,0.553 1.688,0.553 L 6.227,8.672 6.27,8.786 v 0.153 l -0.048,0.102 -0.1,0.042 c -0.63,0 -1.193,0.185 -1.688,0.553 -0.496,0.369 -0.743,0.85 -0.743,1.444 v 4.321 c 0,0.53 -0.184,0.968 -0.551,1.314 C 2.772,17.06 2.316,17.311 1.771,17.467 1.226,17.622 0.688,17.7 0.157,17.7 H 0 c -0.111,0 -0.166,-0.046 -0.166,-0.138 v -0.165 c 0,-0.103 0.055,-0.155 0.167,-0.155 0.391,0 0.773,-0.072 1.145,-0.216 0.371,-0.144 0.677,-0.357 0.917,-0.639 0.24,-0.283 0.359,-0.622 0.359,-1.02 V 11.048 C 2.422,10.484 2.631,10.016 3.05,9.645 3.468,9.273 3.979,9.01 4.583,8.854 3.99,8.71 3.482,8.449 3.058,8.072 2.634,7.694 2.422,7.223 2.422,6.658 V 2.334 C 2.422,1.937 2.303,1.597 2.063,1.314 1.823,1.032 1.516,0.818 1.141,0.674 0.767,0.53 0.387,0.458 0.001,0.458 L -0.118,0.415 -0.166,0.302 V 0.138 C -0.166,0.046 -0.111,0 0,0" /></g></g></g><g
       id="g118"><g
         clip-path="url(#clipPath124)"
         id="g120"><g
           transform="translate(212.6,320)"
           id="g126"><path
             id="path128"
             style="fill:#00cccc;fill-opacity:1;fill-rule:evenodd;stroke:none"
             d="m 0,0 c -2.6,0 -4.8,0.6 -7.1,1.9 -2.3,1.3 -3.9,3 -5.2,5.2 -1.3,2.3 -1.9,4.5 -1.9,7.1 0,2.6 0.6,4.8 1.9,7.1 1.3,2.3 2.9,3.9 5.2,5.2 2.3,1.3 4.5,1.9 7.1,1.9 2.6,0 4.8,-0.6 7.1,-1.9 2.3,-1.3 3.9,-2.9 5.2,-5.2 1.3,-2.3 1.9,-4.5 1.9,-7.1 0,-2.6 -0.6,-4.8 -1.9,-7.1 C 11,4.9 9.4,3.2 7.1,1.9 4.8,0.6 2.6,0 0,0" /></g><g
           transform="translate(212.9,319.25)"
           id="g130"><path
             id="path132"
             style="fill:#ff6600;fill-opacity:1;fill-rule:nonzero;stroke:none"
             d="m 0,0 c -0.1,0 -0.2,0 -0.3,0 -1.05,0 -2.1,0.104 -3.063,0.318 l 0.326,1.464 C -2.2,1.596 -1.25,1.5 -0.3,1.5 c 0.1,0 0.2,0 0.3,0 z" /></g><g
           transform="translate(206.4646,320.6292)"
           id="g134"><path
             id="path136"
             style="fill:#ff6600;fill-opacity:1;fill-rule:nonzero;stroke:none"
             d="m 0,0 c -0.401,0.2 -0.775,0.387 -1.243,0.574 l -0.172,0.097 c -0.33,0.252 -0.73,0.452 -1.2,0.8 l 0.9,1.2 c 0.331,-0.252 0.731,-0.452 1.2,-0.8 l -0.45,-0.6 0.279,0.696 C -0.154,1.754 0.271,1.541 0.671,1.342 Z" /></g><g
           transform="translate(201.5697,324.1696)"
           id="g138"><path
             id="path140"
             style="fill:#ff6600;fill-opacity:1;fill-rule:nonzero;stroke:none"
             d="m 0,0 c -0.777,0.778 -1.315,1.648 -1.825,2.566 l 1.311,0.729 C -0.025,2.413 0.438,1.683 1.061,1.061 Z" /></g><g
           transform="translate(198.3885,329.5628)"
           id="g142"><path
             id="path144"
             style="fill:#ff6600;fill-opacity:1;fill-rule:nonzero;stroke:none"
             d="M 0,0 C -0.321,0.963 -0.53,2.013 -0.635,3.063 L 0.858,3.212 C 0.953,2.261 1.144,1.311 1.423,0.474 Z" /></g><g
           transform="translate(197.7537,335.6746)"
           id="g146"><path
             id="path148"
             style="fill:#ff6600;fill-opacity:1;fill-rule:nonzero;stroke:none"
             d="M 0,0 C 0.105,1.049 0.314,2.099 0.635,3.063 L 2.058,2.588 C 1.779,1.751 1.587,0.801 1.493,-0.149 Z" /></g><g
           transform="translate(199.55,341.2)"
           id="g150"><path
             id="path152"
             style="fill:#ff6600;fill-opacity:1;fill-rule:nonzero;stroke:none"
             d="M 0,0 V 0.1 C 0,0.239 0.04,0.38 0.114,0.497 0.638,1.335 1.258,2.161 1.881,2.888 L 3.019,1.912 C 2.442,1.239 1.862,0.465 1.386,-0.298 L 0.75,0.1 H 1.5 V 0 Z" /></g><g
           transform="translate(203.75,346.2)"
           id="g154"><path
             id="path156"
             style="fill:#ff6600;fill-opacity:1;fill-rule:nonzero;stroke:none"
             d="m 0,0 c 0.4,0.299 0.826,0.62 1.364,0.943 l 0.051,0.028 c 0.4,0.2 0.8,0.4 1.2,0.6 l 0.67,-1.342 c -0.4,-0.2 -0.8,-0.4 -1.2,-0.6 L 1.75,0.3 2.136,-0.343 C 1.674,-0.62 1.3,-0.9 0.9,-1.2 Z" /></g><g
           transform="translate(209.3373,348.8321)"
           id="g158"><path
             id="path160"
             style="fill:#ff6600;fill-opacity:1;fill-rule:nonzero;stroke:none"
             d="m 0,0 c 0.963,0.214 2.013,0.318 3.063,0.318 v -1.5 c -0.95,0 -1.901,-0.096 -2.738,-0.282 z" /></g><g
           transform="translate(215.5627,348.8321)"
           id="g162"><path
             id="path164"
             style="fill:#ff6600;fill-opacity:1;fill-rule:nonzero;stroke:none"
             d="M 0,0 C 0.939,-0.209 1.958,-0.515 2.874,-0.821 L 2.4,-2.244 c -0.884,0.295 -1.865,0.589 -2.725,0.78 z" /></g><g
           transform="translate(221.25,346.4)"
           id="g166"><path
             id="path168"
             style="fill:#ff6600;fill-opacity:1;fill-rule:nonzero;stroke:none"
             d="M 0,0 C 0.824,-0.618 1.555,-1.244 2.28,-1.97 L 1.22,-3.03 c -0.675,0.674 -1.344,1.248 -2.12,1.83 z" /></g><g
           transform="translate(225.55,341.5)"
           id="g170"><path
             id="path172"
             style="fill:#ff6600;fill-opacity:1;fill-rule:nonzero;stroke:none"
             d="M 0,0 V -0.018 L -0.527,-0.029 -0.013,0.082 0,-0.018 -0.527,-0.029 -0.013,0.082 -0.624,-0.05 -0.136,0.344 C -0.108,0.317 -0.03,0.185 -0.013,0.082 l -0.611,-0.132 0.488,0.394 -0.315,-0.254 0.3,0.271 0.015,-0.017 -0.315,-0.254 0.3,0.271 -0.071,-0.064 0.07,0.066 0.001,-0.002 -0.071,-0.064 0.07,0.066 0.032,-0.033 0.106,-0.133 c 0.549,-0.878 0.871,-1.746 1.176,-2.66 l -1.423,-0.474 c -0.296,0.886 -0.574,1.618 -1.025,2.339 L -0.65,-0.2 -1.18,-0.73 c -0.044,0.052 -0.111,0.083 -0.228,0.295 -0.054,0.103 -0.081,0.229 -0.087,0.301 L -1.5,0 Z" /></g><g
           transform="translate(227.45,335.9)"
           id="g174"><path
             id="path176"
             style="fill:#ff6600;fill-opacity:1;fill-rule:nonzero;stroke:none"
             d="M 0,0 C -0.004,-0.405 0.097,-1.02 0.1,-1.7 0.093,-2.224 -0.007,-2.624 0,-2.9 h -1.5 c 0.007,0.524 0.107,0.924 0.1,1.2 0.003,0.52 -0.096,1.105 -0.1,1.7 z" /></g><g
           transform="translate(226.9115,329.8628)"
           id="g178"><path
             id="path180"
             style="fill:#ff6600;fill-opacity:1;fill-rule:nonzero;stroke:none"
             d="m 0,0 c -0.316,-0.948 -0.735,-1.89 -1.256,-2.827 l -1.311,0.728 c 0.479,0.863 0.86,1.721 1.144,2.573 z" /></g><g
           transform="translate(223.8694,324.4119)"
           id="g182"><path
             id="path184"
             style="fill:#ff6600;fill-opacity:1;fill-rule:nonzero;stroke:none"
             d="m 0,0 c -0.627,-0.731 -1.364,-1.47 -2.219,-2.112 l -0.9,1.2 c 0.744,0.558 1.407,1.219 1.98,1.888 z" /></g><g
           transform="translate(218.9642,320.7444)"
           id="g186"><path
             id="path188"
             style="fill:#ff6600;fill-opacity:1;fill-rule:nonzero;stroke:none"
             d="m 0,0 c -0.974,-0.542 -1.95,-0.865 -2.902,-1.077 l -0.325,1.465 c 0.849,0.189 1.673,0.465 2.499,0.923 z" /></g><g
           transform="translate(209.5263,334.5238)"
           id="g190"><path
             id="path192"
             style="fill:#000000;fill-opacity:1;fill-rule:nonzero;stroke:none"
             d="M 0,0 C 0.396,0.648 0.666,0.9 0.972,0.9 1.458,0.9 2.017,-0.306 2.395,-2.125 1.278,-4.033 0.486,-5.042 0.09,-5.042 l -0.198,0.073 c -0.252,0.198 -0.342,0.234 -0.504,0.234 -0.306,0 -0.504,-0.27 -0.504,-0.685 0,-0.468 0.216,-0.756 0.576,-0.756 0.414,0 0.774,0.216 1.26,0.774 0.522,0.577 1.333,1.711 1.855,2.593 l 0.072,-0.288 c 0.36,-1.458 0.468,-1.854 0.612,-2.143 0.324,-0.666 0.738,-0.99 1.278,-0.99 0.649,0 1.207,0.396 1.729,1.207 0.198,0.288 0.36,0.594 0.45,0.828 l 0.108,0.27 -0.396,0.198 -0.18,-0.342 C 5.942,-4.627 5.474,-5.042 5.096,-5.042 c -0.289,0 -0.523,0.163 -0.757,0.577 -0.378,0.612 -0.702,1.656 -0.882,2.736 0.324,0.541 0.81,1.243 1.188,1.765 C 5.168,0.72 5.438,0.954 5.708,0.954 5.87,0.954 5.942,0.846 5.996,0.558 6.05,0.27 6.176,0.162 6.464,0.162 6.824,0.162 7.04,0.486 7.04,1.008 7.04,1.62 6.734,2.035 6.266,2.035 5.618,2.035 5.005,1.584 4.411,0.684 L 3.475,-0.738 3.295,-0.972 C 3.205,-0.684 3.169,-0.576 2.989,0.198 2.701,1.44 2.215,2.035 1.476,2.035 0.774,2.035 0.414,1.674 -0.36,0.18 Z" /></g><g
           transform="translate(280.6,320)"
           id="g194"><path
             id="path196"
             style="fill:#00cccc;fill-opacity:1;fill-rule:evenodd;stroke:none"
             d="m 0,0 c -2.6,0 -4.8,0.6 -7.1,1.9 -2.2,1.3 -3.8,3 -5.1,5.2 -1.3,2.3 -1.9,4.5 -1.9,7.1 0,2.6 0.6,4.8 1.9,7.1 1.3,2.3 2.9,3.9 5.1,5.2 2.3,1.3 4.5,1.9 7.1,1.9 2.6,0 4.8,-0.6 7.1,-1.9 2.3,-1.3 3.9,-2.9 5.2,-5.2 1.3,-2.3 1.9,-4.5 1.9,-7.1 0,-2.6 -0.6,-4.8 -1.9,-7.1 C 11,4.9 9.4,3.2 7.1,1.9 4.8,0.6 2.6,0 0,0" /></g><g
           transform="translate(280.6,320)"
           id="g198"><path
             id="path200"
             style="fill:#ff6600;fill-opacity:1;fill-rule:nonzero;stroke:none"
             d="m 0,0 v -0.75 c -2.716,-0.004 -5.08,0.642 -7.469,1.997 l -0.013,0.007 c -2.312,1.363 -4.016,3.178 -5.364,5.464 l -0.007,0.013 c -1.355,2.389 -2.001,4.753 -1.997,7.469 -0.004,2.716 0.642,5.08 1.997,7.469 1.352,2.402 3.075,4.125 5.371,5.477 l 0.013,0.007 C -5.08,28.508 -2.716,29.154 0,29.15 2.716,29.154 5.08,28.508 7.469,27.153 9.871,25.801 11.601,24.071 12.953,21.669 14.308,19.28 14.954,16.916 14.95,14.2 14.954,11.484 14.308,9.12 12.953,6.731 L 12.946,6.718 C 11.599,4.432 9.886,2.609 7.469,1.247 5.08,-0.108 2.716,-0.754 0,-0.75 V 0 0.75 c 2.484,0.004 4.52,0.558 6.731,1.803 2.183,1.238 3.67,2.815 4.923,4.929 L 12.3,7.1 11.647,7.469 c 1.245,2.211 1.799,4.247 1.803,6.731 -0.004,2.484 -0.558,4.52 -1.803,6.731 -1.248,2.198 -2.718,3.668 -4.916,4.916 C 4.52,27.092 2.484,27.646 0,27.65 -2.484,27.646 -4.52,27.092 -6.731,25.847 L -7.1,26.5 -6.718,25.854 c -2.104,-1.248 -3.581,-2.725 -4.829,-4.923 -1.245,-2.211 -1.799,-4.247 -1.803,-6.731 0.004,-2.484 0.558,-4.52 1.803,-6.731 L -12.2,7.1 l 0.646,0.382 c 1.252,-2.114 2.748,-3.699 4.836,-4.936 L -7.1,1.9 -6.731,2.553 C -4.52,1.308 -2.484,0.754 0,0.75 Z" /></g><g
           transform="translate(277.5263,334.5238)"
           id="g202"><path
             id="path204"
             style="fill:#000000;fill-opacity:1;fill-rule:nonzero;stroke:none"
             d="M 0,0 C 0.396,0.648 0.666,0.9 0.972,0.9 1.458,0.9 2.017,-0.306 2.395,-2.125 1.278,-4.033 0.486,-5.042 0.09,-5.042 l -0.198,0.073 c -0.252,0.198 -0.342,0.234 -0.504,0.234 -0.306,0 -0.504,-0.27 -0.504,-0.685 0,-0.468 0.216,-0.756 0.576,-0.756 0.414,0 0.774,0.216 1.26,0.774 0.522,0.577 1.333,1.711 1.855,2.593 l 0.072,-0.288 c 0.36,-1.458 0.468,-1.854 0.612,-2.143 0.324,-0.666 0.738,-0.99 1.278,-0.99 0.649,0 1.207,0.396 1.729,1.207 0.198,0.288 0.36,0.594 0.45,0.828 l 0.108,0.27 -0.396,0.198 -0.18,-0.342 C 5.942,-4.627 5.474,-5.042 5.096,-5.042 c -0.289,0 -0.523,0.163 -0.757,0.577 -0.378,0.612 -0.702,1.656 -0.882,2.736 0.324,0.541 0.81,1.243 1.188,1.765 C 5.168,0.72 5.438,0.954 5.708,0.954 5.87,0.954 5.942,0.846 5.996,0.558 6.05,0.27 6.176,0.162 6.464,0.162 6.824,0.162 7.04,0.486 7.04,1.008 7.04,1.62 6.734,2.035 6.266,2.035 5.618,2.035 5.005,1.584 4.411,0.684 L 3.475,-0.738 3.295,-0.972 C 3.205,-0.684 3.169,-0.576 2.989,0.198 2.701,1.44 2.215,2.035 1.476,2.035 0.774,2.035 0.414,1.674 -0.36,0.18 Z" /></g><g
           transform="translate(284.9004,462.2623)"
           id="g206"><path
             id="path208"
             style="fill:#000000;fill-opacity:1;fill-rule:nonzero;stroke:none"
             d="M 0,0 C -0.346,0 -0.596,0.016 -0.751,0.048 -0.907,0.08 -1.025,0.13 -1.107,0.198 -1.19,0.265 -1.257,0.362 -1.31,0.488 -1.362,0.614 -1.421,0.823 -1.485,1.116 h -0.862 l 0.264,-2.478 h 4.052 v 1.265 C 1.43,0.835 1.022,1.775 0.747,2.725 0.472,3.674 0.334,4.676 0.334,5.73 c 0,0.891 0.11,1.659 0.33,2.303 0.219,0.645 0.539,1.134 0.958,1.468 0.418,0.334 0.924,0.501 1.516,0.501 0.603,0 1.123,-0.148 1.56,-0.444 C 5.134,9.262 5.474,8.792 5.717,8.147 5.96,7.503 6.082,6.683 6.082,5.687 6.082,4.72 5.946,3.751 5.673,2.782 5.401,1.812 4.989,0.853 4.438,-0.097 v -1.265 h 4.07 L 8.771,1.125 H 7.91 C 7.857,0.891 7.802,0.7 7.743,0.554 7.685,0.407 7.601,0.293 7.493,0.211 7.384,0.129 7.241,0.073 7.062,0.044 6.883,0.015 6.65,0 6.363,0 h -0.8 V 0.167 C 5.845,0.495 6.122,0.869 6.394,1.288 6.667,1.706 6.911,2.161 7.128,2.65 7.345,3.139 7.519,3.658 7.651,4.206 7.783,4.753 7.849,5.323 7.849,5.915 7.849,6.935 7.673,7.813 7.321,8.552 6.97,9.29 6.456,9.845 5.779,10.217 5.102,10.589 4.283,10.775 3.322,10.775 2.396,10.775 1.57,10.561 0.844,10.134 0.117,9.706 -0.444,9.101 -0.839,8.319 -1.235,7.537 -1.433,6.647 -1.433,5.651 -1.433,4.737 -1.252,3.823 -0.892,2.909 -0.532,1.995 0.02,1.096 0.765,0.211 V 0 Z" /></g></g></g></g></svg>