<?xml version="1.0" encoding="UTF-8" standalone="no"?>
<!DOCTYPE svg PUBLIC "-//W3C//DTD SVG 1.1//EN"
"http://www.w3.org/Graphics/SVG/1.1/DTD/svg11.dtd">


<!-- Page 1 -->
<svg x="0" y="0" width="2746" height="856" viewBox="0 0 2746 856" version="1.1" xmlns="http://www.w3.org/2000/svg" xmlns:xlink="http://www.w3.org/1999/xlink"
style="display: block;margin-left: auto;margin-right: auto;">
<defs>
<clipPath id="c_1"><path d="M0,0H2746V856H0Z"/></clipPath>
<style type="text/css"><![CDATA[

.g0{
  fill: #FFF
}

]]></style>

</defs>
<g clip-path="url(#c_1)">
<path d="M0,0H2747V7.6H0Z" class="g0"/>
<path d="M71.2,90.2h-.4c-3.8,0,-5.3,-2,-10.1,-13.3L39.4,26.7H36.7L15.5,79C11.9,87.9,10.7,89.4,6.1,90.2v2.4H25.6V90.2c-5.7,-.3,-7.9,-1.4,-7.9,-3.9c0,-1.2,.8,-3.6,2.8,-8.8l1.4,-3.7H43.4c3.3,7.4,4.4,10.9,4.4,13c0,2,-1.2,3,-4.6,3.1c-.4,0,-1.7,.1,-3,.3v2.4h31ZM23.4,70.1L32.3,46.8L42,70.1ZM94,28H75.8v2.3c3.4,.3,4.9,2,4.9,5.5V84.6c0,3.5,-1.6,5.4,-4.9,5.7v2.3H98.7V90.3C95.5,90.2,94,88.4,94,84.6Zm52.9,26.6V49.5H134.5C130.3,48,127.6,47.4,123.8,47.4c-11.4,0,-19.4,6.3,-19.4,15.4c0,3.2,1.3,6.4,3.5,9.1c2.1,2.3,3.9,3.5,8.4,5.4c-7.6,2.6,-11.4,6.2,-11.4,11.2c0,3.9,1.7,5.7,7.8,7.9c-6,.8,-9.1,3.2,-9.1,7.1c0,5.6,7.1,8.8,19.2,8.8c15.8,0,24.2,-4.9,24.2,-14.4c0,-7.4,-5.9,-11.8,-15.6,-11.8h-6.2c-7.7,0,-9.6,-.6,-9.6,-3.3c0,-2.9,2.7,-5,6.5,-5l4.3,.1c4.5,0,6.9,-.6,10.1,-2.5C140.8,72.9,143,69,143,63.9c0,-3.8,-1.1,-6.7,-3.8,-9.3Zm-15.1,43c5.2,0,7.7,1.6,7.7,4.8c0,4.4,-5.3,6.9,-14.7,6.9c-8.4,0,-12.8,-2.2,-12.8,-6.4c0,-2.1,.6,-3.1,3.3,-5.3Zm-8,-47.2c4.5,0,6.3,3.6,6.3,12.5c0,8.9,-1.8,12.3,-6.3,12.3c-4.6,0,-6.3,-3.4,-6.3,-12.3c0,-9,1.8,-12.5,6.3,-12.5m48.9,-3c-12.2,0,-21.6,10,-21.6,23c0,13.7,9,23.6,21.6,23.6C185,94,194.2,84,194.2,70.7C194.2,57.3,185,47.4,172.7,47.4m.1,3c5.5,0,7.3,5.2,7.3,20.9C180.1,86,178.2,91,172.7,91c-5.7,0,-7.6,-4.9,-7.6,-18.8c0,-16.9,1.7,-21.8,7.7,-21.8m44.5,-1.8H199.2v2.3c4.1,.5,5.2,1.8,5.2,5.6V84.6c0,3.9,-1,5,-5.2,5.7v2.3h25.5V90.3c-5.9,-.4,-7,-1.6,-7,-7.5V64.7c0,-5,2.7,-9.1,5.8,-9.1c.8,0,1.6,.7,2.7,2.2c1.8,2.6,3.2,3.5,5.7,3.5c3.6,0,6,-2.7,6,-6.4c0,-4.3,-3.2,-7.5,-7.7,-7.5c-4.8,0,-8.4,2.6,-12.9,9Zm41.5,0H240.4v2.3c4.2,.8,5.1,1.7,5.1,5.6V84.6c0,3.9,-.7,4.7,-5.1,5.7v2.3h22.9V90.3c-3.4,-.4,-4.5,-1.8,-4.5,-5.4Zm-6.7,-22c-4.1,0,-7.5,3.3,-7.5,7.3c0,4.3,3.2,7.5,7.4,7.5c4.2,0,7.5,-3.2,7.5,-7.4c0,-4.1,-3.3,-7.4,-7.4,-7.4m42.5,22h-8.9V32.4h-2.4c-5.9,8.2,-9.7,12.5,-15.9,17.8v2.6h5V83.7c0,6.2,4.1,10.1,10.7,10.1c6.4,0,10.2,-2.9,14.1,-10.7L294.8,82c-1.9,3.6,-3.4,5,-5.4,5c-2.7,0,-3.7,-1.6,-3.7,-5.5V52.8h8.9ZM317.2,28H298.8v2.3c4.4,.9,5.1,1.6,5.1,5.5V84.6c0,4,-.8,4.9,-5.1,5.7v2.3h23.1V90.3c-3.6,-.4,-4.7,-1.9,-4.7,-5.4V59.4c0,-.4,.7,-1.4,1.6,-2.2c2.1,-2.2,4.4,-3.4,6.6,-3.4c3.4,0,5,2.6,5,7.9V84.9c0,3.5,-1.3,5,-4.5,5.4v2.3h22.4V90.3c-3.4,-.3,-4.6,-1.7,-4.6,-5.7V60.9c0,-8.2,-5.1,-13.5,-12.9,-13.5c-5.1,0,-8.6,1.9,-13.6,7.5Zm53,20.6H352v2.3c4.2,.5,5.2,1.7,5.2,5.6V84.6c0,3.9,-1,5,-5.2,5.7v2.3h22.9V90.3c-3.3,-.4,-4.4,-1.8,-4.4,-5.4V59.4c0,-.6,1.6,-2.4,2.8,-3.4c2,-1.5,3.6,-2.2,5.3,-2.2c3.7,0,5.1,2.2,5.1,7.9V84.9c0,3.9,-1,5.1,-4.6,5.4v2.3h22.4V90.3C398.2,89.9,397,88.5,397,84.9V59.4c0,-.5,1.5,-2.3,2.8,-3.3c2.1,-1.6,3.7,-2.3,5.3,-2.3c3.7,0,5.1,2.3,5.1,7.9V84.9c0,4,-1.1,5.1,-4.7,5.4v2.3h22.8V90.3c-3.8,-.2,-4.8,-1.3,-4.8,-5.4v-24c0,-8.2,-5.1,-13.5,-12.9,-13.5c-5.5,0,-9.1,2.2,-14.1,8.3c-2.8,-6,-6.2,-8.3,-12.2,-8.3c-6,0,-10.4,2.6,-14.1,8.3ZM484.3,26.9L460.2,37.3v2.5l1.9,-.8c2.6,-1,5,-1.6,6.2,-1.6c2.4,0,3.4,2.1,3.4,6.6V80.8c0,7.8,-1.9,9.4,-11.3,9.5v2.3h35.8V90.3c-8.7,-.2,-10.3,-1.6,-10.3,-9V26.9Z" class="g0"/>
<path d="M593.4,58.8H569v1.7c4.2,.3,5.3,.6,6.4,1.3c1.5,.9,2.1,3.1,2.1,7.2V84.5c0,3.1,-5.9,5.6,-12.8,5.6c-15.5,0,-25.1,-10.9,-25.1,-28.6c0,-9,2.7,-17.7,6.9,-22.4c4.2,-4.7,10.1,-7.3,16.6,-7.3c5.4,0,10.1,1.8,13.8,5.3c2.8,2.7,4.4,5.2,6.8,11.1h2.2L585.1,28H583c-.6,1.8,-2.3,3.2,-4.3,3.2c-1,0,-2.5,-.3,-4.2,-1C570.2,28.8,565.8,28,561.5,28c-19.1,0,-32.8,14.1,-32.8,33.6c0,9.3,2.6,16.5,7.9,22.1C543,90.3,552.2,94,562.7,94c8.2,0,20.2,-3.4,24,-6.7V67.9c0,-5.7,1.2,-6.9,6.7,-7.4Zm40.3,18.1C629.1,84.2,625,87,618.8,87c-5.4,0,-9.5,-2.8,-12.3,-8.2C604.8,75.1,604.1,72,603.9,66.1h29.5c-.8,-6.2,-1.8,-8.9,-4.1,-12C626.4,50.7,622,48.7,617,48.7c-4.8,0,-9.3,1.7,-12.9,4.9C599.6,57.5,597,64.3,597,72.2c0,13.2,6.9,21.4,17.9,21.4c9.1,0,16.3,-5.7,20.3,-16ZM604.1,63.1c1.1,-7.5,4.3,-11,10.1,-11c5.9,0,8.2,2.7,9.4,11Zm34.5,-8.5c.6,-.3,1.5,-.4,2.6,-.4c2.7,0,3.5,1.4,3.5,6.1V84c0,5.5,-1,6.8,-5.9,7.2v1.4h20.3V91.2c-4.9,-.4,-6.3,-1.5,-6.3,-5V59.4c4.6,-4.3,6.7,-5.5,9.8,-5.5c4.7,0,7,3,7,9.3v20c0,6,-1.2,7.6,-6,8v1.4h19.9V91.2c-4.7,-.5,-5.9,-1.6,-5.9,-6.3V63c0,-9,-4.2,-14.3,-11.3,-14.3c-4.4,0,-7.3,1.6,-13.8,7.7V48.8l-.7,-.1c-4.7,1.7,-7.9,2.7,-13.2,4.3Zm85.3,22.3C719.3,84.2,715.2,87,709.1,87c-5.5,0,-9.6,-2.8,-12.4,-8.2C695,75.1,694.3,72,694.2,66.1h29.4c-.8,-6.2,-1.7,-8.9,-4.1,-12c-2.9,-3.4,-7.3,-5.4,-12.2,-5.4c-4.8,0,-9.3,1.7,-13,4.9c-4.4,3.9,-7,10.7,-7,18.6c0,13.2,6.9,21.4,17.9,21.4c9,0,16.2,-5.7,20.2,-16ZM694.3,63.1c1.1,-7.5,4.4,-11,10.2,-11c5.8,0,8.1,2.7,9.4,11ZM728,55.3c1.3,-.2,2.2,-.3,3.3,-.3c2.4,0,3.3,1.5,3.3,5.7V84.6c0,4.8,-.7,5.4,-6.8,6.6v1.4h23V91.2c-6.6,-.3,-8.2,-1.7,-8.2,-7.2V62.5c0,-3,4.1,-7.8,6.7,-7.8c.6,0,1.5,.4,2.5,1.4c1.5,1.3,2.6,1.9,3.8,1.9c2.3,0,3.7,-1.6,3.7,-4.3c0,-3.1,-2,-5,-5.2,-5c-4,0,-6.8,2.1,-11.5,8.9V48.8l-.5,-.1c-5,2.1,-8.5,3.3,-14.1,5.1Zm47.9,-6.6l-14.8,5.2v1.4l.7,-.1c1.2,-.1,2.4,-.2,3.3,-.2c2.3,0,3.1,1.5,3.1,5.7V82.9c0,6.9,-.9,7.9,-7.5,8.3v1.4h22.6V91.2c-6.3,-.5,-7,-1.4,-7,-8.3v-34ZM771.4,27.3c-2.6,0,-4.8,2.2,-4.8,4.9c0,2.7,2.1,4.9,4.8,4.9c2.8,0,5,-2.1,5,-4.9c0,-2.7,-2.2,-4.9,-5,-4.9m52.4,50.4c-4.6,6.7,-8.1,9,-13.5,9c-8.7,0,-14.8,-7.7,-14.8,-18.6c0,-9.9,5.2,-16.7,13,-16.7c3.4,0,4.7,1.1,5.6,4.6l.6,2.1c.8,2.7,2.5,4.4,4.5,4.4c2.5,0,4.6,-1.8,4.6,-4c0,-5.4,-6.7,-9.8,-14.7,-9.8c-4.7,0,-9.6,1.9,-13.5,5.3c-4.8,4.2,-7.5,10.7,-7.5,18.3c0,12.4,7.6,21.3,18.2,21.3c4.3,0,8.1,-1.6,11.6,-4.5c2.5,-2.3,4.3,-4.9,7.2,-10.5Zm95.8,13.1c-4.3,-.3,-5.3,-1.2,-8.6,-8.3L887.2,28.2h-2L865.4,75.1c-6.2,14,-7.3,15.5,-11.9,15.7v1.8h18.9V90.8c-4.6,0,-6.5,-1.2,-6.5,-3.9c0,-1.2,.3,-2.5,.8,-3.7L871.1,72h25l4,9.2c1.1,2.5,1.8,5,1.8,6.4c0,2.3,-1.7,3.1,-6.7,3.2v1.8h24.4ZM872.7,68.1l11,-26.3l11.1,26.3ZM954,93.6l14,-5V87.1c-1.7,.1,-1.9,.1,-2.2,.1c-3.4,0,-4.2,-1.1,-4.2,-5.5V27.5l-.5,-.2c-4.6,1.7,-7.9,2.6,-14,4.2v1.6l2.1,-.1c3.5,0,4.4,.9,4.4,4.8v15C950,49.7,947.4,48.7,943.5,48.7c-10.9,0,-19.8,10.8,-19.8,24.3c0,12.3,7.1,20.6,17.7,20.6c5.3,0,8.9,-1.9,12.2,-6.4v6.1Zm-.4,-10.7c0,.6,-.7,1.8,-1.6,2.8c-1.8,2,-4.2,2.9,-6.9,2.9c-8,0,-13.2,-7.6,-13.2,-19.4c0,-10.8,4.7,-17.9,11.9,-17.9c5.1,0,9.8,4.5,9.8,9.6Zm57.5,3.4c-1.6,1.4,-2.7,1.8,-4.2,1.8c-2.2,0,-2.8,-1.3,-2.8,-5.5V63.9c0,-4.9,-.5,-7.7,-2,-10c-2.1,-3.4,-6.2,-5.2,-11.8,-5.2c-9,0,-16.1,4.6,-16.1,10.7c0,2.2,1.9,4.1,4.1,4.1c2.3,0,4.3,-1.9,4.3,-4l-.1,-1.6l-.3,-2.3c0,-2.6,3,-4.7,6.8,-4.7c4.7,0,7.3,2.8,7.3,8v5.8C981.6,70.6,980,71.4,975.9,75c-2.2,1.9,-3.5,5.2,-3.5,8.4c0,6,4.2,10.2,10.1,10.2c4.2,0,8.1,-2,13.9,-7c.5,5,2.2,7,6.1,7c3.3,0,5.3,-1.2,8.6,-4.8ZM996.3,80.9c0,2.9,-.5,3.8,-2.5,4.9c-2.3,1.4,-4.9,2.2,-7,2.2c-3.3,0,-6,-3.2,-6,-7.3v-.4c0,-5.6,3.9,-9.1,15.5,-13.3Zm15.9,-25.8l2.4,-.1c3.2,0,3.9,.9,3.9,5.4v44.8c0,4.9,-1.1,6,-6.7,6.5v1.7h23.1v-1.8c-7.1,0,-8.4,-1.1,-8.4,-7.1v-15c3.4,3.1,5.7,4.1,9.7,4.1c11.3,0,20.1,-10.7,20.1,-24.6c0,-11.8,-6.7,-20.3,-16,-20.3c-5.4,0,-9.6,2.3,-13.8,7.5V48.8l-.6,-.1c-5.1,2,-8.5,3.2,-13.7,4.8Zm14.3,5.6c0,-2.9,5.4,-6.3,9.8,-6.3c7,0,11.7,7.3,11.7,18.3c0,10.7,-4.7,17.8,-11.5,17.8c-4.5,0,-10,-3.4,-10,-6.3Zm57,-11.1h-9.7V38.5c0,-.9,-.1,-1.2,-.6,-1.2c-.7,.8,-1.3,1.7,-2,2.6c-3.6,5.3,-7.7,9.9,-9.2,10.3c-1.1,.6,-1.6,1.3,-1.6,1.8l.3,.7h5.1V81.4c0,8.1,2.9,12.2,8.5,12.2c4.7,0,8.3,-2.3,11.5,-7.3l-1.3,-1c-2,2.4,-3.6,3.3,-5.7,3.3c-3.5,0,-5,-2.6,-5,-8.6V52.7h9.7Zm18.9,-.9l-14.8,5.2v1.4l.8,-.1c1.1,-.1,2.4,-.2,3.2,-.2c2.3,0,3.2,1.5,3.2,5.7V82.9c0,6.9,-1,7.9,-7.6,8.3v1.4h22.7V91.2c-6.3,-.5,-7.1,-1.4,-7.1,-8.3v-34Zm-4.5,-21.4c-2.6,0,-4.8,2.2,-4.8,4.9c0,2.7,2.1,4.9,4.8,4.9c2.8,0,5,-2.1,5,-4.9c0,-2.7,-2.2,-4.9,-5,-4.9m57.6,22.3h-13.3V51c3,.3,4.5,1.3,4.5,3.1c0,1,-.2,1.9,-.6,2.9l-9.5,24.7l-9.7,-24.4c-.6,-1.4,-.9,-2.7,-.9,-3.6c0,-1.7,1.1,-2.4,4.4,-2.7V49.6h-18.7V51c3.6,.2,4.3,1.2,8.7,11l11.5,27.5l.7,2c.6,1.7,1.2,2.5,1.7,2.5c.6,0,1.3,-1.3,2.7,-4.8l12.2,-30.7c2.8,-6.5,3.4,-7.2,6.3,-7.5Zm39.7,27.3c-4.6,7.3,-8.7,10.1,-14.8,10.1c-5.4,0,-9.5,-2.8,-12.3,-8.2c-1.7,-3.7,-2.4,-6.8,-2.6,-12.7h29.4c-.7,-6.2,-1.7,-8.9,-4.1,-12c-2.8,-3.4,-7.2,-5.4,-12.2,-5.4c-4.8,0,-9.3,1.7,-12.9,4.9c-4.5,3.9,-7.1,10.7,-7.1,18.6c0,13.2,6.9,21.4,17.9,21.4c9.1,0,16.2,-5.7,20.3,-16ZM1165.7,63.1c1,-7.5,4.3,-11,10.1,-11c5.9,0,8.1,2.7,9.4,11ZM1287,37.8V81.2c0,7.9,-1.2,9.1,-8.7,9.6v1.8h26.8V90.8c-7,-.5,-8.4,-1.8,-8.4,-8.6V39.8c0,-6.8,1.3,-8.1,8.4,-8.6V29.3H1286l-21.1,48.3L1242.8,29.3h-18.9v1.9c7.8,.4,9.1,1.6,9.1,8.6V78.6c0,9.8,-1.4,11.6,-9.3,12.2v1.8h22.5V90.8c-7.4,-.4,-9,-2.6,-9,-12.2V40l24,52.6h1.3Zm59.5,39.1C1342,84.2,1337.8,87,1331.7,87c-5.4,0,-9.5,-2.8,-12.3,-8.2c-1.7,-3.7,-2.4,-6.8,-2.6,-12.7h29.5c-.8,-6.2,-1.8,-8.9,-4.2,-12c-2.8,-3.4,-7.2,-5.4,-12.2,-5.4c-4.8,0,-9.3,1.7,-12.9,4.9c-4.5,3.9,-7.1,10.7,-7.1,18.6c0,13.2,6.9,21.4,17.9,21.4c9.1,0,16.3,-5.7,20.3,-16ZM1317,63.1c1.1,-7.5,4.3,-11,10.1,-11c5.9,0,8.2,2.7,9.4,11Zm57.4,-13.5h-9.7V38.5c0,-.9,-.1,-1.2,-.7,-1.2c-.6,.8,-1.2,1.7,-1.9,2.6c-3.6,5.3,-7.7,9.9,-9.3,10.3c-1,.6,-1.6,1.3,-1.6,1.8l.4,.7h5.1V81.4c0,8.1,2.8,12.2,8.5,12.2c4.7,0,8.3,-2.3,11.4,-7.3l-1.2,-1c-2,2.4,-3.6,3.3,-5.7,3.3c-3.6,0,-5,-2.6,-5,-8.6V52.7h9.7Zm17.2,10.2c4,-4.4,6.8,-6,10.6,-6c4.8,0,7.1,3.5,7.1,10.1v19c0,6.5,-.9,7.7,-6.5,8.3v1.4h20.3V91.2c-5.1,-1,-5.7,-1.7,-5.7,-8.3V63.8c0,-10,-4,-15.1,-11.8,-15.1c-5.6,0,-9.6,2.2,-14,8V27.6l-.5,-.3c-3.3,1.2,-5.7,1.9,-11,3.5l-2.6,.7v1.6l1.2,-.1c4.1,0,4.8,.7,4.8,4.8V82.9c0,6.7,-.5,7.5,-6.1,8.3v1.4h20.7V91.2c-5.6,-.6,-6.5,-1.7,-6.5,-8.3Zm56.7,-11.1c-12.5,0,-21.2,9.1,-21.2,22.3c0,12.9,8.9,22.6,21,22.6c12,0,21.2,-10.1,21.2,-23.3c0,-12.6,-8.8,-21.6,-21,-21.6m-1.3,2.6c8,0,13.7,9.2,13.7,22.3c0,10.8,-4.3,17.3,-11.5,17.3c-3.7,0,-7.3,-2.3,-9.3,-6.1c-2.6,-5,-4.2,-11.7,-4.2,-18.5c0,-9,4.5,-15,11.3,-15m58,42.3l14.1,-5V87.1c-1.7,.1,-1.9,.1,-2.2,.1c-3.5,0,-4.2,-1.1,-4.2,-5.5V27.5l-.5,-.2c-4.6,1.7,-7.9,2.6,-14.1,4.2v1.6l2.2,-.1c3.5,0,4.3,.9,4.3,4.8v15c-3.6,-3.1,-6.2,-4.1,-10,-4.1c-11,0,-19.9,10.8,-19.9,24.3c0,12.3,7.2,20.6,17.7,20.6c5.4,0,9,-1.9,12.2,-6.4v6.1Zm-.4,-10.7c0,.6,-.6,1.8,-1.6,2.8c-1.7,2,-4.1,2.9,-6.9,2.9c-7.9,0,-13.2,-7.6,-13.2,-19.4c0,-10.8,4.7,-17.9,12,-17.9c5.1,0,9.7,4.5,9.7,9.6Zm82,-54.9h-2c-.4,2.2,-1.5,3.2,-3.1,3.2c-1,0,-2.6,-.3,-4.2,-1.1c-3.5,-1.3,-7.1,-2.1,-10.1,-2.1c-4.2,0,-8.4,1.6,-11.5,4.4c-3.4,3,-5.1,7,-5.1,11.9c0,7.7,4.2,13.1,14.9,18.7c6.9,3.6,11.9,7.5,14.3,11.2c.8,1.2,1.3,3.2,1.3,5.5c0,6.4,-4.8,10.8,-11.7,10.8c-8.6,0,-14.6,-5.2,-19.4,-16.9h-2.2l2.9,20.3h2.1c.1,-1.9,1.3,-3.2,2.7,-3.2c1.1,0,2.7,.4,4.5,1.1c3.6,1.4,7.4,2.2,11.3,2.2c11,0,19.5,-7.6,19.5,-17.4c0,-7.9,-5.3,-14.1,-17.9,-20.9c-10,-5.5,-14.1,-9.7,-14.1,-14.9c0,-5.2,4.1,-8.9,10,-8.9c4.3,0,8.3,1.8,11.6,5.3c3,3,4.3,5.5,5.9,11.2h2.4ZM1636,76.9c-4.6,7.3,-8.7,10.1,-14.8,10.1c-5.5,0,-9.6,-2.8,-12.4,-8.2c-1.7,-3.7,-2.4,-6.8,-2.6,-12.7h29.5c-.8,-6.2,-1.7,-8.9,-4.1,-12c-2.9,-3.4,-7.3,-5.4,-12.3,-5.4c-4.7,0,-9.2,1.7,-12.9,4.9c-4.5,3.9,-7,10.7,-7,18.6c0,13.2,6.8,21.4,17.8,21.4c9.1,0,16.3,-5.7,20.3,-16ZM1606.4,63.1c1.1,-7.5,4.3,-11,10.2,-11c5.8,0,8.1,2.7,9.3,11Zm57.4,-13.5h-9.7V38.5c0,-.9,-.1,-1.2,-.6,-1.2c-.7,.8,-1.3,1.7,-1.9,2.6c-3.7,5.3,-7.8,9.9,-9.3,10.3c-1.1,.6,-1.6,1.3,-1.6,1.8l.3,.7h5.1V81.4c0,8.1,2.9,12.2,8.5,12.2c4.7,0,8.3,-2.3,11.5,-7.3l-1.3,-1c-2,2.4,-3.6,3.3,-5.7,3.3c-3.5,0,-5,-2.6,-5,-8.6V52.7h9.7Zm48,38.2h-.5c-4.4,0,-5.4,-1,-5.4,-5.4V49.6h-15.1v1.6c5.9,.3,7,1.3,7,6.1V79.7c0,2.7,-.5,4,-1.8,5.1c-2.6,2.1,-5.5,3.2,-8.4,3.2c-3.7,0,-6.8,-3.2,-6.8,-7.2V49.6h-13.9v1.3c4.5,.3,5.9,1.8,5.9,6.2V81.2c0,7.5,4.6,12.4,11.5,12.4c3.6,0,7.3,-1.6,9.9,-4.1l4.1,-4.1v7.9l.4,.2c4.8,-1.9,8.2,-3,13.1,-4.3Zm2.8,-32.7L1717,55c3.3,0,4,.9,4,5.4v44.8c0,4.9,-1.1,6,-6.7,6.5v1.7h23.1v-1.8c-7.2,0,-8.4,-1.1,-8.4,-7.1v-15c3.3,3.1,5.6,4.1,9.6,4.1c11.3,0,20.1,-10.7,20.1,-24.6c0,-11.8,-6.7,-20.3,-15.9,-20.3c-5.4,0,-9.6,2.3,-13.8,7.5V48.8l-.6,-.1c-5.2,2,-8.5,3.2,-13.8,4.8Zm14.4,5.6c0,-2.9,5.3,-6.3,9.7,-6.3c7.1,0,11.8,7.3,11.8,18.3c0,10.7,-4.7,17.8,-11.6,17.8c-4.5,0,-9.9,-3.4,-9.9,-6.3Z" class="g0"/>
<path d="M0,132.4H2747v3.8H0Z" class="g0"/>
<path d="M101,222.8c0,4.4,-1.5,5.6,-8,6.2v2.1h30.2V229c-6.6,-.5,-8.2,-1.7,-8.2,-6.2V181.2c0,-4.5,1.8,-5.9,8.2,-6.1v-2.2H93v2.2c6.2,.4,8,1.7,8,6.1Zm42,-31.4H126.6v2.1c3.8,.6,4.5,1.5,4.5,5.1v25.3c0,3.6,-.6,4.4,-4.5,5.1v2.1h20.7V229c-3.2,-.4,-4.2,-1.7,-4.2,-4.9V201.2l1.5,-2c1.9,-2,3.9,-3,5.9,-3c3,0,4.5,2.3,4.5,7.1v20.8c0,3.2,-1.1,4.6,-4.1,4.9v2.1h20.3V229c-3.4,-.2,-4.3,-1.3,-4.3,-4.9V202.5c0,-7.4,-4.5,-12.1,-11.6,-12.1c-5.1,0,-9.1,2.4,-12.3,7.5Zm47.8,0H174.4v2.1c3.8,.6,4.7,1.5,4.7,5.1v43.1c0,3.5,-.7,4.3,-4.9,5v2.1h23.5v-1.9c-5.2,-.2,-6.7,-1.9,-6.7,-7.7V227.1c4.2,4,6.4,5.1,10.2,5.1c9.6,0,16.5,-8.9,16.5,-21.7c0,-11.9,-6.4,-20.1,-16,-20.1c-5.1,0,-8.2,2,-10.9,7Zm.2,9.9c0,-.6,.8,-2,1.8,-3.1c1.8,-1.9,3.7,-2.9,5.6,-2.9c4.5,0,6.6,5.2,6.6,16.4c0,10.7,-2.4,15.8,-7.4,15.8c-2.8,0,-5.3,-2,-6.6,-5.3Zm59,30.9c3.7,-1.3,5.7,-1.6,11.3,-2.2l5.4,-.6v-2c-3.8,-.2,-4.9,-1.3,-4.9,-5v-31H244.5v2.1c4.3,.3,5.4,1.4,5.4,5.1v24.3c-2.9,2.9,-4.7,3.8,-7.1,3.8c-3.5,0,-4.8,-1.7,-4.8,-6.1V191.4H221.8v2.1c3.5,.7,4.2,1.5,4.2,5.1v21.7c0,7.5,4.3,12,11.5,12c4.4,0,7.5,-1.4,12.5,-5.7Zm44.5,-40.8h-8.1V176.9h-2.1c-5.3,7.4,-8.7,11.3,-14.3,16v2.3h4.5v27.9c0,5.6,3.7,9,9.6,9c5.8,0,9.2,-2.5,12.7,-9.6l-2.1,-1c-1.7,3.3,-3.1,4.5,-4.9,4.5c-2.4,0,-3.4,-1.4,-3.4,-4.9V195.2h8.1Zm16.7,26.3c-4,0,-7.2,3.3,-7.2,7.2c0,4.1,3.1,7.3,7.1,7.3c4.1,0,7.4,-3.2,7.4,-7.1c0,-4.1,-3.3,-7.4,-7.3,-7.4m0,-27.2c-4,0,-7.2,3.2,-7.2,7.1c0,4.2,3.1,7.4,7.2,7.4c4,0,7.3,-3.2,7.3,-7.2c0,-4.1,-3.3,-7.3,-7.3,-7.3Z" class="g0"/>
<path d="M394.6,196.3c-3.2,.6,-4.2,3.4,-4.2,4.7c0,1.6,1.2,3.1,3.4,3.1c2.4,0,4.7,-2.1,4.7,-5.1c0,-4,-4.3,-5.9,-8.3,-5.9c-5.2,0,-8.2,4.5,-9.2,6.3c-1.7,-4.2,-5.5,-6.3,-9.6,-6.3c-9.2,0,-14.2,11,-14.2,13.2l1.2,1l1.2,-.9c2.7,-8.5,8.4,-11.2,11.7,-11.2c2.4,0,4.7,1.6,4.7,5.7c0,3.1,-3.7,16.9,-4.8,21c-.7,2.7,-3.3,8,-8,8c-1.8,0,-3.6,-.6,-4.4,-1.1c2.3,-.4,4,-2.4,4,-4.7c0,-2.1,-1.6,-3.1,-3.3,-3.1c-2.5,0,-4.7,2.2,-4.7,5.1c0,4.2,4.7,5.9,8.3,5.9c5,0,7.9,-4.1,9.2,-6.4c2.1,5.7,7.2,6.4,9.5,6.4c9.3,0,14.2,-11.1,14.2,-13.2l-1.1,-1c-.9,0,-1,.3,-1.4,1.6c-1.9,6.2,-6.9,10.5,-11.4,10.5c-2.5,0,-4.8,-1.5,-4.8,-5.7c0,-1.9,1.2,-6.6,2,-9.9c.3,-1.5,2.6,-10.8,2.8,-11.4c1,-3.1,3.6,-7.7,8,-7.7c1.5,0,3.2,.3,4.5,1.1Z" class="g0"/>
<path d="M422.9,204.2c0,-1.7,-.2,-1.7,-1.9,-1.7c-3.8,3.7,-9.7,3.7,-11.7,3.7v2.2c1.5,0,5.3,0,8.7,-1.6v29c0,1.9,0,2.6,-5.9,2.6h-2.5v2.3c3.2,-.3,7.7,-.3,10.9,-.3c3.2,0,7.7,0,10.8,.3v-2.3h-2.5c-5.9,0,-5.9,-.7,-5.9,-2.6Z" class="g0"/>
<path d="M515,211.4c1.5,0,3.2,0,3.2,-1.8c0,-1.9,-1.6,-1.9,-3.2,-1.9H477.9c.9,-10.7,10.2,-20.4,23.5,-20.4H515c1.5,0,3.2,0,3.2,-1.8c0,-1.9,-1.6,-1.9,-3.2,-1.9H501.1c-15.1,0,-27,11.9,-27,25.9c0,14.4,12.1,26,27,26H515c1.5,0,3.2,0,3.2,-1.8c0,-1.9,-1.6,-1.9,-3.2,-1.9H501.4c-13.4,0,-22.6,-9.7,-23.5,-20.4ZM623.3,175.6c0,-2.9,-3.2,-3.3,-6.9,-3.3H581.9c-1.4,0,-8.2,-.7,-14.1,5.2l-1.1,2l.7,.6c2.5,0,5.2,-2.1,6.1,-2.9c1,-.1,3.6,-.1,6.3,-.1H587c-2.1,11.1,-5.7,23.1,-10.7,34.8c-2.4,5.9,-6.8,15.3,-8.3,17.1c-5.9,0,-7.7,-3.9,-8.7,-5.7l-.8,-.5c-2,0,-6.8,2.6,-6.8,4.2l.6,1.4c1.8,3.5,5.6,5.5,9.5,5.5c5.2,0,9.6,-3,13.1,-7c1.7,-2,8.8,-17.1,10.3,-21.9h17.1l.8,.8c2.2,0,5.8,-2.2,6.5,-3.7l.4,-1.4c0,-.3,-.1,-.5,-1.5,-.5H587.1c1.8,-4.5,5.9,-18.9,6.7,-23.1H611c1.5,0,4.8,.2,4.8,2.3c0,.7,-.4,1.2,.8,1.2c1,0,6.7,-2.1,6.7,-5Z" class="g0"/>
<path d="M629.3,243.2c5.8,-2.8,9.6,-8,9.6,-13.2c0,-4.3,-3,-7.7,-6.9,-7.7c-3,0,-5,2,-5,4.9c0,2.8,1.9,4.4,5,4.4l1.7,-.1l.7,-.2l1.2,1.2c0,2.7,-2.4,5.9,-7.1,9.1Zm63,-39.1l-.4,-11.7H691l-.2,.1l-1.2,.7c-.5,0,-1.4,-.1,-2.3,-.6c-1.9,-.7,-3.8,-1,-6,-1c-6.8,0,-11.8,4.4,-11.8,10.6c0,4.8,2.8,8.3,10.1,12.4l5,2.8c3,1.7,4.5,3.8,4.5,6.5c0,3.8,-2.8,6.2,-7.2,6.2c-2.9,0,-5.5,-1.1,-7.2,-3c-1.8,-2.2,-2.6,-4.2,-3.7,-9.1h-1.4v13.5h1.2c.6,-.9,.9,-1.1,1.9,-1.1c.8,0,2,.2,4,.7c2.4,.5,4.7,.9,6.3,.9c6.6,0,12.1,-5,12.1,-11.1c0,-4.3,-2.1,-7.1,-7.2,-10.2l-9.3,-5.5c-2.4,-1.4,-3.7,-3.5,-3.7,-5.9c0,-3.4,2.6,-5.8,6.6,-5.8c4.9,0,7.5,2.9,9.5,10.6Zm28.3,-11.7h-8.7v-10l-.6,-1.1l-1.7,2.4c-3.3,4.7,-7,8.8,-8.4,9.2c-.9,.6,-1.5,1.2,-1.5,1.6l.4,.6h4.5V221c0,7.3,2.6,11,7.7,11c4.2,0,7.5,-2.1,10.3,-6.6l-1.1,-.9c-1.8,2.1,-3.3,3,-5.2,3c-3.1,0,-4.4,-2.3,-4.4,-7.8V195.1h8.7ZM757.7,217c-4.2,6.5,-7.9,9,-13.4,9c-4.9,0,-8.6,-2.5,-11.1,-7.4c-1.5,-3.2,-2.1,-6.1,-2.3,-11.3h26.5c-.7,-5.6,-1.6,-8.1,-3.7,-10.9c-2.6,-3.1,-6.5,-4.9,-11,-4.9c-4.3,0,-8.4,1.6,-11.6,4.5c-4.1,3.5,-6.4,9.6,-6.4,16.7c0,11.9,6.2,19.3,16.1,19.3c8.2,0,14.6,-5.1,18.2,-14.4ZM731.1,204.5c.9,-6.7,3.8,-9.9,9.1,-9.9c5.2,0,7.3,2.4,8.4,9.9Zm30.4,-7.2l2.2,-.1c2.9,0,3.5,.9,3.5,4.9v40.3c0,4.5,-1,5.4,-6,5.9v1.5H782v-1.6c-6.5,-.1,-7.6,-1,-7.6,-6.4V228.3c3,2.8,5.1,3.7,8.7,3.7c10.2,0,18.1,-9.7,18.1,-22.2c0,-10.6,-6,-18.3,-14.4,-18.3c-4.8,0,-8.6,2.2,-12.4,6.8v-6.6l-.5,-.2c-4.6,1.8,-7.7,2.9,-12.4,4.4Zm12.9,5.1c0,-2.6,4.8,-5.7,8.8,-5.7c6.4,0,10.6,6.5,10.6,16.5c0,9.6,-4.2,16,-10.4,16c-4.1,0,-9,-3.1,-9,-5.7Zm78,1.7L852,192.4h-.9l-.2,.1l-1.2,.7c-.5,0,-1.4,-.1,-2.3,-.6c-1.9,-.7,-3.8,-1,-6.1,-1c-6.8,0,-11.7,4.4,-11.7,10.6c0,4.8,2.8,8.3,10.1,12.4l5,2.8c3,1.7,4.5,3.8,4.5,6.5c0,3.8,-2.8,6.2,-7.2,6.2c-2.9,0,-5.6,-1.1,-7.2,-3c-1.8,-2.2,-2.6,-4.2,-3.7,-9.1h-1.4v13.5h1.1c.6,-.9,1,-1.1,2,-1.1c.8,0,2,.2,4,.7c2.4,.5,4.7,.9,6.3,.9c6.6,0,12.1,-5,12.1,-11.1c0,-4.3,-2.1,-7.1,-7.2,-10.2l-9.3,-5.5c-2.4,-1.4,-3.7,-3.5,-3.7,-5.9c0,-3.4,2.6,-5.8,6.6,-5.8c4.9,0,7.5,2.9,9.5,10.6Zm21.4,-12.6l-13.4,4.7v1.3h.7c1.1,-.2,2.2,-.3,2.9,-.3c2.1,0,2.9,1.4,2.9,5.2v19.9c0,6.2,-.9,7.2,-6.8,7.5v1.3h20.4v-1.3c-5.7,-.4,-6.4,-1.3,-6.4,-7.5V191.8Zm-4.1,-19.2c-2.3,0,-4.3,2,-4.3,4.4c0,2.4,1.9,4.4,4.3,4.4c2.5,0,4.5,-1.9,4.5,-4.4c0,-2.4,-2,-4.4,-4.5,-4.4m48.9,47.2l-1.6,-.4c-.8,4.3,-1.3,5.7,-2.4,7.2c-1.2,1.4,-4.2,2.2,-8.6,2.2H894.2l23.1,-34.8v-1.3H887.4l-.2,10.1h1.5c.8,-6.3,2.1,-7.5,7.3,-7.5h11.8l-22.9,34.8v1.3h32.5ZM955.9,217c-4.1,6.5,-7.8,9,-13.3,9c-4.9,0,-8.6,-2.5,-11.1,-7.4c-1.6,-3.2,-2.2,-6.1,-2.3,-11.3h26.5c-.7,-5.6,-1.6,-8.1,-3.7,-10.9c-2.6,-3.1,-6.6,-4.9,-11,-4.9c-4.3,0,-8.4,1.6,-11.7,4.5c-4,3.5,-6.3,9.6,-6.3,16.7c0,11.9,6.2,19.3,16.1,19.3c8.1,0,14.6,-5.1,18.2,-14.4ZM929.3,204.5c1,-6.7,3.9,-9.9,9.2,-9.9c5.2,0,7.3,2.4,8.4,9.9Z" class="g0"/>
<path d="M1005.7,181.5c0,-5.1,0,-7.1,2.8,-9.7c1.7,-1.5,4.3,-2.8,8.3,-3.1c.9,-.1,1.6,-.1,1.6,-1c0,-1.2,-.8,-1.2,-1.9,-1.2c-8.4,0,-16.9,4.1,-17,10.9v22c0,3,-2.5,8.6,-11.6,9.1l-1.1,1.1c0,1,.9,1.1,1.6,1.1c6,.3,10.1,3.7,11,7.8c.1,.7,.1,.9,.1,3.9v17.1c0,3.3,0,7.5,6.1,10.6c4.5,2.4,10,2.5,10.9,2.5c1.1,0,1.9,0,1.9,-1.1c0,-.9,-.9,-1,-1.3,-1c-7.9,-.5,-10.6,-4.8,-11.2,-7.2c-.2,-1,-.2,-1.2,-.2,-4.3V226.1c0,-2.5,0,-6.7,-.1,-7.5c-.9,-4.8,-5.1,-7.6,-9.9,-9c10,-2.9,10,-8.8,10,-12.6Z" class="g0"/>
<path d="M1067,210.9c0,-12.8,-7.8,-17.8,-15.1,-17.8c-11.7,0,-23.5,11.8,-23.5,24.2c0,8.9,6.1,14.8,14.4,14.8c9.3,0,16.4,-5.6,18.6,-7.3c1.1,4.3,4,7.3,8.2,7.3c4.6,0,7.5,-4.6,7.5,-6.2c0,-.9,-1,-.9,-1.2,-.9c-1,0,-1.1,.3,-1.3,1.1c-1,2.5,-3.2,3.8,-4.8,3.8c-2.7,0,-2.7,-7.7,-2.7,-9.4c0,-1.1,0,-1.3,.8,-2.2c1.4,-1.8,3.7,-4.8,6,-9.2c2.6,-5.1,3.9,-10.4,3.9,-10.9c0,-.1,0,-.9,-1.1,-.9c-1,0,-1,.2,-1.4,1.6c-.9,3,-2.9,9.6,-8.3,16.8Zm-6,11.4c-2.2,1.8,-9.2,7.6,-17.9,7.6c-4.9,0,-8,-3.2,-8,-9.4c0,-3.7,1.6,-12.2,5,-17.7c2.3,-3.5,6.8,-7.6,11.8,-7.6c5.8,0,7.7,5.2,8.5,10.3c.7,4.7,.1,13,.6,16.8Z" class="g0"/>
<path d="M1096.8,218.2h6.3c1.1,0,1.9,0,1.9,-1.4c0,-.9,-.7,-.9,-1.7,-.9h-5.9l2,-7.9l.2,-1.3c0,-1.3,-1.1,-1.9,-2,-1.9c-.7,0,-2.2,.4,-2.7,2.2l-2.2,8.9h-6.2c-1.2,0,-1.3,.1,-1.5,.3l-.5,1.2c.2,.8,.7,.8,1.8,.8h5.8l-3.4,13.6c-.3,1.3,-.8,3.2,-.8,3.9c0,3.4,3,5.5,6.5,5.5c6.6,0,10.5,-7.8,10.5,-8.8c0,-.2,-.1,-.8,-1.1,-.8l-1.1,1c-2,4.3,-5.2,6.7,-8,6.7c-2.2,0,-2.2,-2.1,-2.2,-2.8c0,-.8,0,-.9,.3,-2Z" class="g0"/>
<path d="M1197.6,211.6c1,-.5,1.8,-.9,1.8,-2.1c0,-1.1,-1,-1.6,-1.8,-2l-48.5,-23.3c-1.2,-.6,-1.6,-.6,-1.8,-.6c-1.1,0,-1.8,.9,-1.8,1.8c0,1,.5,1.5,1.7,2.1l46,22l-46,22.1c-1.2,.6,-1.7,1.1,-1.7,2.1c0,.6,.5,1.8,1.9,1.8c.1,0,.5,0,1.5,-.5Z" class="g0"/>
<path d="M1272.1,203.6c0,-5.8,-.2,-13.2,-3.3,-19.7c-3.7,-8.1,-10.3,-10.1,-15.3,-10.1c-5.1,0,-11.7,2,-15.5,10.3c-2.7,5.9,-3.2,12.9,-3.2,19.5c0,5.6,.2,13.9,3.9,20.7c4.1,7.3,10.8,8.7,14.7,8.7c5.6,0,12,-2.4,15.6,-10.3c2.6,-5.8,3.1,-12.3,3.1,-19.1m-18.6,27.2c-2.6,0,-8.8,-1.2,-10.4,-10.9c-.9,-5.1,-.9,-12.5,-.9,-17.4c0,-5.8,0,-12.6,1.1,-17.4c1.7,-7.6,7.2,-9.2,10.1,-9.2c3.3,0,8.7,1.7,10.4,9.8c.9,4.7,.9,11.4,.9,16.8c0,5.4,0,12.6,-.8,17.7c-1.9,9.8,-8.2,10.6,-10.4,10.6Z" class="g0"/>
<path d="M1300.7,219.7c.1,-2.9,2.6,-8.6,11.7,-9l1.1,-1.1c0,-1,-.9,-1.1,-1.6,-1.1c-6,-.3,-10.1,-3.7,-11,-7.8c-.2,-.8,-.2,-.9,-.2,-3.9V179.7c0,-3.3,0,-7.6,-6,-10.7c-4.6,-2.3,-10,-2.5,-10.9,-2.5c-1.1,0,-1.9,0,-1.9,1.2c0,.9,.8,1,1.3,1c7.9,.5,10.6,4.8,11.2,7.1c.2,1.1,.2,1.2,.2,4.3v13c0,2.5,0,6.7,.1,7.4c.9,4.9,5.1,7.7,9.9,9.1c-10,2.8,-10,8.8,-10,12.6v15.4c0,5.2,0,7.2,-2.8,9.8c-1.7,1.4,-4.3,2.8,-8.3,3.1c-.9,.1,-1.6,.1,-1.6,1c0,1.1,.8,1.1,1.9,1.1c8.4,0,16.9,-4,16.9,-10.8Z" class="g0"/>
<path d="M1335.3,223.8h6.2c1.2,0,2,0,2,-1.4c0,-.9,-.8,-.9,-1.8,-.9h-5.9l2,-7.9l.3,-1.3c0,-1.4,-1.1,-1.9,-2,-1.9c-.7,0,-2.2,.4,-2.7,2.2l-2.3,8.9h-6.2c-1.2,0,-1.2,.1,-1.5,.2l-.5,1.3c.2,.8,.7,.8,1.8,.8h5.9l-3.4,13.5c-.4,1.4,-.8,3.3,-.8,4c0,3.3,2.9,5.5,6.4,5.5c6.6,0,10.5,-7.9,10.5,-8.8c0,-.2,-.1,-.8,-1,-.8l-1.2,.9c-1.9,4.4,-5.2,6.8,-8,6.8c-2.2,0,-2.2,-2.1,-2.2,-2.9c0,-.8,0,-.9,.3,-2Z" class="g0"/>
<path d="M1349.7,160c.4,-1.8,.5,-1.9,2.9,-1.9h5.3c6.1,0,7,1.7,7,5.1c0,.8,-.1,2.3,-.4,4.1l-.2,1l1.1,.9c1,0,1.1,-.6,1.2,-1.4l1.5,-11.1c0,-.9,-.6,-.9,-1.7,-.9h-37.3c-1.5,0,-1.7,0,-2.1,1.2l-3.7,10.4l-.2,.9c0,.2,0,.9,1,.9c.8,0,.9,-.2,1.4,-1.7c2.6,-7,4.4,-9.4,11.8,-9.4h5.2c1.1,0,1.2,0,1.9,.1l-7.8,31.4c-.4,1.6,-.7,2.2,-2.3,2.4c-1.6,.3,-4.9,.3,-5,.3c-1.4,0,-1.6,0,-1.8,.1l-.5,1.4c0,0,.1,.8,1.1,.8c1.5,0,3.3,-.2,4.8,-.2c2.3,0,3.8,-.1,5.3,-.1c1.8,0,3.5,.1,5.2,.1c1.7,0,3.5,.2,5.2,.2l1.1,-.4l.3,-1.1c-.2,-.8,-.6,-.8,-2.3,-.8c-1.3,0,-2.5,-.1,-3.8,-.1c-1.3,-.2,-2,-.2,-2,-1.1Z" class="g0"/>
<path d="M1394.1,226.8c.8,0,2.1,0,2.1,-1.5c0,-1.5,-1.5,-1.5,-2.4,-1.5h-39.7c-.9,0,-2.4,0,-2.4,1.5c0,1.5,1.3,1.5,2.1,1.5Zm-.3,13.2c.9,0,2.4,0,2.4,-1.5c0,-1.5,-1.3,-1.5,-2.1,-1.5h-40.3c-.8,0,-2.1,0,-2.1,1.5c0,1.5,1.5,1.5,2.4,1.5Zm27.6,-30.2c0,-1.7,-.2,-1.7,-1.9,-1.7c-3.8,3.6,-9.7,3.6,-11.8,3.6V214c1.5,0,5.3,0,8.8,-1.6v29c0,1.9,0,2.6,-5.9,2.6h-2.5v2.2c3.1,-.2,7.6,-.2,10.8,-.2c3.2,0,7.7,0,10.9,.2V244h-2.5c-5.9,0,-5.9,-.7,-5.9,-2.6Z" class="g0"/>
<path d="M1447.8,243.2c5.7,-2.8,9.6,-8,9.6,-13.2c0,-4.3,-3,-7.7,-6.9,-7.7c-3,0,-5.1,2,-5.1,4.9c0,2.8,2,4.4,5.1,4.4l1.7,-.1l.6,-.2l1.2,1.2c0,2.7,-2.4,5.9,-7,9.1Zm62.9,-39.1l-.3,-11.7h-.9l-.2,.1l-1.2,.7c-.5,0,-1.4,-.1,-2.4,-.6c-1.8,-.7,-3.7,-1,-6,-1c-6.8,0,-11.7,4.4,-11.7,10.6c0,4.8,2.8,8.3,10.1,12.4l5,2.8c3,1.7,4.5,3.8,4.5,6.5c0,3.8,-2.8,6.2,-7.2,6.2c-2.9,0,-5.6,-1.1,-7.2,-3c-1.8,-2.2,-2.6,-4.2,-3.7,-9.1h-1.4v13.5h1.1c.6,-.9,1,-1.1,2,-1.1c.8,0,2,.2,4,.7c2.4,.5,4.7,.9,6.3,.9c6.6,0,12.1,-5,12.1,-11.1c0,-4.3,-2.1,-7.1,-7.2,-10.2l-9.3,-5.5c-2.5,-1.4,-3.7,-3.5,-3.7,-5.9c0,-3.4,2.6,-5.8,6.6,-5.8c4.9,0,7.5,2.9,9.5,10.6Zm41.5,12.9c-4.1,6.5,-7.8,9,-13.3,9c-4.9,0,-8.6,-2.5,-11.1,-7.4c-1.6,-3.2,-2.2,-6.1,-2.4,-11.3H1552c-.7,-5.6,-1.6,-8.1,-3.7,-10.9c-2.6,-3.1,-6.6,-4.9,-11.1,-4.9c-4.3,0,-8.3,1.6,-11.6,4.5c-4,3.5,-6.4,9.6,-6.4,16.7c0,11.9,6.2,19.3,16.1,19.3c8.2,0,14.7,-5.1,18.3,-14.4Zm-26.6,-12.5c1,-6.7,3.9,-9.9,9.1,-9.9c5.3,0,7.4,2.4,8.5,9.9Zm60.7,-10c-4,-2.3,-6.6,-3.1,-9.9,-3.1c-10.8,0,-19.1,9.7,-19.1,22.1c0,10.8,5.7,18.5,13.8,18.5c5,0,9.8,-2.3,13.5,-6.4v16.2c0,4.8,-1.5,6.1,-7.6,6.5v1.5h20.3v-1.2c-4.7,-1,-5.4,-1.7,-5.4,-5.4V191.8h-1Zm-1.7,25.7c0,2,-.3,3.2,-1.2,3.8c-1.9,1.7,-4.7,2.7,-7.4,2.7c-2.6,0,-5,-.8,-6.7,-2.6c-2.7,-2.5,-4.5,-8.1,-4.5,-13.7c0,-10.2,4.5,-16.6,11.8,-16.6c5.4,0,8,2.9,8,8.6Zm54.9,6.6h-.4c-4,0,-4.9,-.9,-4.9,-4.9V192.4h-13.6v1.4c5.3,.3,6.4,1.2,6.4,5.5v20.2c0,2.4,-.5,3.6,-1.7,4.5c-2.3,1.9,-5,3,-7.5,3c-3.4,0,-6.2,-3,-6.2,-6.6v-28h-12.5v1.2c4.1,.2,5.3,1.5,5.3,5.5v21.7c0,6.8,4.1,11.2,10.4,11.2c3.2,0,6.6,-1.4,8.9,-3.7l3.7,-3.7v7.1l.3,.2c4.3,-1.7,7.4,-2.7,11.8,-3.9Zm36.9,-9.8c-4.1,6.5,-7.8,9,-13.3,9c-4.9,0,-8.6,-2.5,-11.1,-7.4c-1.6,-3.2,-2.2,-6.1,-2.3,-11.3h26.5c-.7,-5.6,-1.6,-8.1,-3.7,-10.9c-2.6,-3.1,-6.6,-4.9,-11,-4.9c-4.4,0,-8.4,1.6,-11.7,4.5c-4,3.5,-6.3,9.6,-6.3,16.7c0,11.9,6.2,19.3,16.1,19.3c8.1,0,14.6,-5.1,18.2,-14.4Zm-26.6,-12.5c1,-6.7,3.9,-9.9,9.1,-9.9c5.3,0,7.4,2.4,8.5,9.9Zm31.1,-7.7c.5,-.2,1.4,-.3,2.3,-.3c2.4,0,3.2,1.3,3.2,5.5v21.4c0,4.9,-1,6.1,-5.4,6.4v1.3h18.3v-1.3c-4.4,-.3,-5.7,-1.4,-5.7,-4.5V201.2c4.1,-3.9,6,-5,8.9,-5c4.2,0,6.3,2.7,6.3,8.4v18c0,5.4,-1.2,6.9,-5.5,7.2v1.3h17.9v-1.3c-4.2,-.4,-5.2,-1.4,-5.2,-5.7V204.4c0,-8.1,-3.8,-12.9,-10.2,-12.9c-3.9,0,-6.6,1.5,-12.4,7v-6.8l-.6,-.2c-4.3,1.6,-7.2,2.5,-11.9,3.9Zm75.9,20.9c-4.2,6,-7.3,8.1,-12.2,8.1c-7.8,0,-13.3,-6.9,-13.3,-16.8c0,-8.9,4.7,-15,11.7,-15c3.1,0,4.2,1,5.1,4.1l.5,1.9c.7,2.4,2.2,4,4,4c2.3,0,4.2,-1.6,4.2,-3.6c0,-4.8,-6.1,-8.9,-13.3,-8.9c-4.2,0,-8.6,1.7,-12.1,4.8c-4.3,3.8,-6.7,9.7,-6.7,16.5c0,11.2,6.8,19.2,16.3,19.2c3.9,0,7.3,-1.4,10.4,-4.1c2.4,-2,4,-4.4,6.6,-9.4Zm39,-.7c-4.1,6.5,-7.8,9,-13.3,9c-4.9,0,-8.6,-2.5,-11.1,-7.4c-1.6,-3.2,-2.2,-6.1,-2.3,-11.3h26.5c-.7,-5.6,-1.6,-8.1,-3.7,-10.9c-2.6,-3.1,-6.6,-4.9,-11.1,-4.9c-4.3,0,-8.3,1.6,-11.6,4.5c-4,3.5,-6.3,9.6,-6.3,16.7c0,11.9,6.2,19.3,16.1,19.3c8.1,0,14.6,-5.1,18.2,-14.4Zm-26.6,-12.5c1,-6.7,3.9,-9.9,9.1,-9.9c5.3,0,7.4,2.4,8.5,9.9Zm72.7,-13c-11.2,0,-19,8.3,-19,20.2c0,11.6,8,20.3,18.8,20.3c10.9,0,19.2,-9.2,19.2,-21c0,-11.3,-8,-19.5,-19,-19.5m-1.1,2.4c7.2,0,12.3,8.3,12.3,20.1c0,9.7,-3.9,15.6,-10.3,15.6c-3.4,0,-6.6,-2.1,-8.4,-5.6c-2.4,-4.4,-3.8,-10.5,-3.8,-16.6c0,-8.1,4.1,-13.5,10.2,-13.5m49.2,-1.5h-10.6v-10c0,-5,1.7,-7.7,4.9,-7.7c1.8,0,3,.9,4.6,3.4c1.4,2.2,2.4,3.1,3.9,3.1c1.9,0,3.6,-1.6,3.6,-3.6c0,-3.1,-3.8,-5.3,-9,-5.3c-5.3,0,-9.9,2.3,-12.1,6.3c-2.2,3.8,-2.9,6.9,-3,13.8h-7.1v2.7h7.1v27.1c0,6.2,-1,7.3,-7.2,7.6v1.3h22.4v-1.3c-7,-.2,-8,-1.2,-8,-7.6V195.1H1890Zm50.2,0h-10.6v-10c0,-5,1.6,-7.7,4.9,-7.7c1.8,0,3,.9,4.5,3.4c1.4,2.2,2.5,3.1,3.9,3.1c2,0,3.6,-1.6,3.6,-3.6c0,-3.1,-3.8,-5.3,-8.9,-5.3c-5.4,0,-9.9,2.3,-12.2,6.3c-2.2,3.8,-2.9,6.9,-3,13.8h-7v2.7h7v27.1c0,6.2,-.9,7.3,-7.1,7.6v1.3h22.4v-1.3c-7.1,-.2,-8,-1.2,-8,-7.6V195.1h10.5Zm43.2,34.4h-.4c-3.9,0,-4.9,-.9,-4.9,-4.9V192.4h-13.6v1.4c5.3,.3,6.4,1.2,6.4,5.5v20.2c0,2.4,-.5,3.6,-1.7,4.5c-2.3,1.9,-5,3,-7.5,3c-3.4,0,-6.1,-3,-6.1,-6.6v-28H1943v1.2c4.1,.2,5.3,1.5,5.3,5.5v21.7c0,6.8,4.2,11.2,10.4,11.2c3.2,0,6.6,-1.4,8.9,-3.7l3.7,-3.7v7.1l.3,.2c4.4,-1.7,7.5,-2.7,11.8,-3.9Zm3.2,-30c.5,-.2,1.4,-.3,2.3,-.3c2.4,0,3.2,1.3,3.2,5.5v21.4c0,4.9,-.9,6.1,-5.3,6.4v1.3H2005v-1.3c-4.4,-.3,-5.7,-1.4,-5.7,-4.5V201.2c4.2,-3.9,6.1,-5,8.9,-5c4.2,0,6.3,2.7,6.3,8.4v18c0,5.4,-1.1,6.9,-5.4,7.2v1.3H2027v-1.3c-4.2,-.4,-5.3,-1.4,-5.3,-5.7V204.4c0,-8.1,-3.8,-12.9,-10.1,-12.9c-4,0,-6.7,1.5,-12.5,7v-6.8l-.6,-.2c-4.2,1.6,-7.2,2.5,-11.9,3.9Zm75.9,20.9c-4.1,6,-7.2,8.1,-12.1,8.1c-7.9,0,-13.4,-6.9,-13.4,-16.8c0,-8.9,4.7,-15,11.7,-15c3.1,0,4.2,1,5.1,4.1l.5,1.9c.7,2.4,2.3,4,4.1,4c2.2,0,4.1,-1.6,4.1,-3.6c0,-4.8,-6,-8.9,-13.3,-8.9c-4.2,0,-8.6,1.7,-12.1,4.8c-4.3,3.8,-6.7,9.7,-6.7,16.5c0,11.2,6.8,19.2,16.3,19.2c3.9,0,7.4,-1.4,10.5,-4.1c2.3,-2,3.9,-4.4,6.5,-9.4Zm25.9,-25.3h-8.7v-10l-.6,-1.1l-1.7,2.4c-3.3,4.7,-7,8.8,-8.4,9.2c-.9,.6,-1.5,1.2,-1.5,1.6l.4,.6h4.6V221c0,7.3,2.5,11,7.6,11c4.2,0,7.5,-2.1,10.3,-6.6l-1.1,-.9c-1.8,2.1,-3.2,3,-5.1,3c-3.2,0,-4.5,-2.3,-4.5,-7.8V195.1h8.7Zm17,-.9l-13.3,4.7v1.3h.7c1,-.2,2.1,-.3,2.9,-.3c2,0,2.8,1.4,2.8,5.2v19.9c0,6.2,-.8,7.2,-6.8,7.5v1.3h20.4v-1.3c-5.7,-.4,-6.4,-1.3,-6.4,-7.5V191.8Zm-4,-19.2c-2.4,0,-4.3,2,-4.3,4.4c0,2.4,1.8,4.4,4.3,4.4c2.5,0,4.4,-1.9,4.4,-4.4c0,-2.4,-1.9,-4.4,-4.4,-4.4m34.4,19.2c-11.2,0,-19.1,8.3,-19.1,20.2c0,11.6,8.1,20.3,18.9,20.3c10.9,0,19.1,-9.2,19.1,-21c0,-11.3,-7.9,-19.5,-18.9,-19.5m-1.2,2.4c7.3,0,12.4,8.3,12.4,20.1c0,9.7,-3.9,15.6,-10.4,15.6c-3.3,0,-6.5,-2.1,-8.3,-5.6c-2.4,-4.4,-3.8,-10.5,-3.8,-16.6c0,-8.1,4,-13.5,10.1,-13.5m24,2.9c.6,-.2,1.4,-.3,2.4,-.3c2.4,0,3.2,1.3,3.2,5.5v21.4c0,4.9,-1,6.1,-5.4,6.4v1.3h18.3v-1.3c-4.4,-.3,-5.7,-1.4,-5.7,-4.5V201.2c4.1,-3.9,6,-5,8.9,-5c4.2,0,6.2,2.7,6.2,8.4v18c0,5.4,-1.1,6.9,-5.4,7.2v1.3H2199v-1.3c-4.2,-.4,-5.2,-1.4,-5.2,-5.7V204.4c0,-8.1,-3.8,-12.9,-10.2,-12.9c-4,0,-6.6,1.5,-12.5,7v-6.8l-.6,-.2c-4.2,1.6,-7.1,2.5,-11.9,3.9Zm68.8,7.3l-.4,-11.7h-.9l-.2,.1l-1.2,.7c-.5,0,-1.4,-.1,-2.3,-.6c-1.9,-.7,-3.8,-1,-6,-1c-6.8,0,-11.7,4.4,-11.7,10.6c0,4.8,2.7,8.3,10,12.4l5,2.8c3,1.7,4.5,3.8,4.5,6.5c0,3.8,-2.8,6.2,-7.1,6.2c-3,0,-5.6,-1.1,-7.3,-3c-1.8,-2.2,-2.6,-4.2,-3.7,-9.1h-1.3v13.5h1.1c.6,-.9,.9,-1.1,2,-1.1c.7,0,1.9,.2,3.9,.7c2.4,.5,4.7,.9,6.3,.9c6.6,0,12.1,-5,12.1,-11.1c0,-4.3,-2,-7.1,-7.2,-10.2l-9.3,-5.5c-2.4,-1.4,-3.7,-3.5,-3.7,-5.9c0,-3.4,2.7,-5.8,6.6,-5.8c4.9,0,7.5,2.9,9.5,10.6Z" class="g0"/>
<path d="M2280.4,181.5c0,-5.1,0,-7.1,2.8,-9.7c1.8,-1.5,4.4,-2.8,8.3,-3.1c1,-.1,1.6,-.1,1.6,-1c0,-1.2,-.7,-1.2,-1.9,-1.2c-8.4,0,-16.8,4.1,-16.9,10.9v22c-.1,3,-2.6,8.6,-11.6,9.1l-1.1,1.1c0,1,.8,1.1,1.5,1.1c6,.3,10.2,3.7,11,7.8c.2,.7,.2,.9,.2,3.9v17.1c0,3.3,0,7.5,6,10.6c4.6,2.4,10,2.5,10.9,2.5c1.2,0,1.9,0,1.9,-1.1c0,-.9,-.8,-1,-1.2,-1c-8,-.5,-10.6,-4.8,-11.2,-7.2c-.3,-1,-.3,-1.2,-.3,-4.3V226.1c0,-2.5,0,-6.7,-.1,-7.5c-.8,-4.8,-5.1,-7.6,-9.9,-9c10,-2.9,10,-8.8,10,-12.6Z" class="g0"/>
<path d="M2338,173.7l.2,-1.3l-1.2,-1c-.9,0,-.9,.2,-1.4,1.8l-5,19.8c-14.9,.6,-26.8,12.4,-26.8,23.4c0,7.9,5.9,15,17,15.7c-.7,2.7,-1.3,5.5,-2,8.1c-1.2,4.8,-1.8,7.3,-1.8,7.6c0,.4,.1,1,1.2,1c.9,0,1,-.3,1.5,-2.3l3.6,-14.4c14.8,-.6,26.9,-12.4,26.9,-23.5c0,-6.8,-5,-14.8,-17.1,-15.6ZM2321.3,230c-6.2,-.4,-11.7,-4.1,-11.7,-11.9c0,-9.5,7.1,-21.8,20.5,-23Zm11.2,-34.9c6.2,.5,11.7,3.8,11.7,11.9c0,11,-8.2,22,-20.4,23Z" class="g0"/>
<path d="M2367.5,218.2h6.3c1.1,0,1.9,0,1.9,-1.4c0,-.9,-.7,-.9,-1.7,-.9h-5.9l2,-7.9l.3,-1.3c0,-1.3,-1.1,-1.9,-2.1,-1.9c-.6,0,-2.1,.4,-2.6,2.2l-2.3,8.9h-6.2c-1.2,0,-1.2,.1,-1.5,.3l-.5,1.2c.2,.8,.7,.8,1.8,.8h5.8l-3.3,13.6c-.4,1.3,-.9,3.2,-.9,3.9c0,3.4,3,5.5,6.5,5.5c6.6,0,10.5,-7.8,10.5,-8.8c0,-.2,-.1,-.8,-1.1,-.8l-1.1,1c-2,4.3,-5.2,6.7,-8,6.7c-2.2,0,-2.2,-2.1,-2.2,-2.8c0,-.8,0,-.9,.3,-2Z" class="g0"/>
<path d="M2399.9,229.7c0,2.9,0,9.9,-6.4,16l-.5,1l1.1,1c1,0,7.9,-6.7,7.9,-16.8c0,-5.3,-1.8,-9.1,-5.6,-9.1c-2.9,0,-4.6,2.3,-4.6,4.7c0,2.4,1.7,4.6,4.6,4.6c1.3,0,2.6,-.4,3.5,-1.4m66.4,-57.4c0,-.1,0,-.9,-1.1,-.9c-1.1,0,-1.2,.4,-1.5,1.8l-14.1,56.5c-6.2,-.7,-10.1,-3.6,-10.1,-9.5c0,-1.8,.3,-4.4,4.4,-15.1c.7,-1.9,1.2,-3.2,1.2,-4.8c0,-4.2,-3.2,-7.2,-7.4,-7.2c-8.3,0,-11.7,12.2,-11.7,13.2l1.2,1c.9,0,1,-.5,1.4,-1.6c1.8,-6.3,5.2,-10.5,8.8,-10.5c1.8,0,2.1,1.1,2.1,2.9c0,1.9,-.6,3.7,-1.3,5.6c-4.2,10.8,-4.7,13.7,-4.7,15.9c0,6.2,4.2,11.5,15.5,12.3l-3.9,15.9c0,.1,0,1,1.1,1c1,0,1.1,-.3,1.6,-2.2c1.2,-4.8,2.5,-9.6,3.6,-14.5c3.1,0,12,0,20.6,-10.8c4.2,-5.2,5.6,-9.5,7.2,-17.3c.4,-2.5,.4,-3.8,.4,-4.7c0,-6,-3.2,-6.3,-3.9,-6.3c-2.2,0,-4.4,2.3,-4.4,4.3c0,1.3,.7,2,1.3,2.5c2.4,2.1,3.1,4.9,3.1,7.1c0,3.6,-2.4,10.3,-8.1,15.9c-6.8,6.8,-12.5,7.1,-15.6,7.1Z" class="g0"/>
<path d="M2496.6,218.2h6.3c1.1,0,1.9,0,1.9,-1.4c0,-.9,-.7,-.9,-1.7,-.9h-5.9l2,-7.9l.3,-1.3c0,-1.3,-1.1,-1.9,-2.1,-1.9c-.6,0,-2.1,.4,-2.6,2.2l-2.3,8.9h-6.2c-1.2,0,-1.2,.1,-1.5,.3l-.5,1.2c.2,.8,.7,.8,1.8,.8h5.8l-3.3,13.6c-.4,1.3,-.9,3.2,-.9,3.9c0,3.4,3,5.5,6.5,5.5c6.6,0,10.5,-7.8,10.5,-8.8c0,-.2,-.1,-.8,-1.1,-.8l-1.1,1c-2,4.3,-5.2,6.7,-8,6.7c-2.2,0,-2.2,-2.1,-2.2,-2.8c0,-.8,0,-.9,.3,-2Z" class="g0"/>
<path d="M2538.5,219.7c.1,-2.9,2.6,-8.6,11.6,-9l1.1,-1.1c0,-1,-.9,-1.1,-1.5,-1.1c-6.1,-.3,-10.2,-3.7,-11.1,-7.8c-.1,-.8,-.1,-.9,-.1,-3.9V179.7c0,-3.3,0,-7.6,-6.1,-10.7c-4.5,-2.3,-9.9,-2.5,-10.9,-2.5c-1,0,-1.9,0,-1.9,1.2c0,.9,.9,1,1.3,1c7.9,.5,10.6,4.8,11.2,7.1c.3,1.1,.3,1.2,.3,4.3v13c0,2.5,0,6.7,0,7.4c.9,4.9,5.1,7.7,9.9,9.1c-9.9,2.8,-9.9,8.8,-9.9,12.6v15.4c0,5.2,0,7.2,-2.9,9.8c-1.7,1.4,-4.3,2.8,-8.2,3.1c-1,.1,-1.7,.1,-1.7,1c0,1.1,.9,1.1,1.9,1.1c8.5,0,16.9,-4,17,-10.8Z" class="g0"/>
<path d="M2573,223.8h6.2c1.2,0,2,0,2,-1.4c0,-.9,-.8,-.9,-1.8,-.9h-5.9l2.1,-7.9l.2,-1.3c0,-1.4,-1.1,-1.9,-2,-1.9c-.7,0,-2.2,.4,-2.7,2.2l-2.3,8.9h-6.2c-1.2,0,-1.2,.1,-1.4,.2l-.6,1.3c.2,.8,.7,.8,1.9,.8h5.8l-3.4,13.5c-.4,1.4,-.8,3.3,-.8,4c0,3.3,3,5.5,6.5,5.5c6.6,0,10.5,-7.9,10.5,-8.8c0,-.2,-.2,-.8,-1.1,-.8l-1.2,.9c-1.9,4.4,-5.2,6.8,-8,6.8c-2.1,0,-2.2,-2.1,-2.2,-2.9c0,-.8,0,-.9,.3,-2Z" class="g0"/>
<path d="M2587.4,160c.4,-1.8,.6,-1.9,2.9,-1.9h5.3c6.1,0,7,1.7,7,5.1c0,.8,-.1,2.3,-.4,4.1l-.1,1l1.1,.9c.9,0,1,-.6,1.1,-1.4l1.6,-11.1c0,-.9,-.7,-.9,-1.8,-.9h-37.3c-1.5,0,-1.6,0,-2,1.2l-3.8,10.4l-.2,.9c0,.2,.1,.9,1,.9c.8,0,.9,-.2,1.4,-1.7c2.6,-7,4.4,-9.4,11.8,-9.4h5.2c1.1,0,1.2,0,1.9,.1l-7.8,31.4c-.4,1.6,-.6,2.2,-2.2,2.4c-1.7,.3,-5,.3,-5,.3c-1.5,0,-1.6,0,-1.9,.1l-.5,1.4c0,0,.1,.8,1.1,.8c1.5,0,3.3,-.2,4.8,-.2c2.3,0,3.8,-.1,5.4,-.1c1.7,0,3.4,.1,5.1,.1c1.7,0,3.5,.2,5.2,.2l1.1,-.4l.3,-1.1c-.2,-.8,-.6,-.8,-2.3,-.8c-1.3,0,-2.5,-.1,-3.8,-.1c-1.3,-.2,-2,-.2,-2,-1.1Z" class="g0"/>
<path d="M2631.8,226.8c.8,0,2.2,0,2.2,-1.5c0,-1.5,-1.6,-1.5,-2.5,-1.5h-39.7c-.8,0,-2.4,0,-2.4,1.5c0,1.5,1.3,1.5,2.1,1.5Zm-.3,13.2c.9,0,2.5,0,2.5,-1.5c0,-1.5,-1.4,-1.5,-2.2,-1.5h-40.3c-.8,0,-2.1,0,-2.1,1.5c0,1.5,1.6,1.5,2.4,1.5Zm27.6,-30.2c0,-1.7,-.2,-1.7,-1.9,-1.7c-3.8,3.6,-9.7,3.6,-11.7,3.6V214c1.5,0,5.3,0,8.7,-1.6v29c0,1.9,0,2.6,-5.9,2.6h-2.5v2.2c3.2,-.2,7.6,-.2,10.9,-.2c3.2,0,7.6,0,10.8,.2V244H2665c-5.9,0,-5.9,-.7,-5.9,-2.6Z" class="g0"/>
<path d="M97.4,290.8v28.7c0,3.7,-.9,4.7,-4.9,5.1v2.1h23.9v-2.1c-6,-.2,-7,-1.2,-7,-6.8v-27h7.5V287h-7.5V276.5c0,-4.7,1.3,-6.6,4.3,-6.6c1.5,0,2.5,.6,2.5,1.6l-.8,1.8c-.8,1.3,-1.1,2.3,-1.1,3.1c0,2.7,2.2,4.7,5.2,4.7c3.1,0,5.3,-2.1,5.3,-5.3c0,-5.1,-5.1,-8.6,-12.3,-8.6c-5.8,0,-10.3,2.1,-12.6,5.9c-1.9,3,-2.5,6.5,-2.5,13.9H92.5v3.8Zm42,-4.8c-10.9,0,-19.4,9,-19.4,20.7c0,12.3,8.1,21.2,19.4,21.2c11.1,0,19.4,-9,19.4,-20.9c0,-12.1,-8.3,-21,-19.4,-21m.1,2.6c5,0,6.6,4.8,6.6,18.9c0,13.2,-1.7,17.7,-6.7,17.7c-5.1,0,-6.8,-4.4,-6.8,-16.9c0,-15.2,1.6,-19.7,6.9,-19.7M179.6,287H163.3v2.1c3.7,.5,4.7,1.6,4.7,5v25.4c0,3.5,-.9,4.4,-4.7,5.1v2.1h22.9v-2.1c-5.2,-.3,-6.3,-1.4,-6.3,-6.8V301.6c0,-4.5,2.4,-8.2,5.3,-8.2c.7,0,1.4,.6,2.4,2c1.6,2.3,2.9,3.1,5.1,3.1c3.2,0,5.5,-2.5,5.5,-5.8c0,-3.9,-3,-6.7,-7,-6.7c-4.3,0,-7.6,2.3,-11.6,8.1Z" class="g0"/>
<path d="M238.9,292.3H247c1.6,0,2.6,0,2.6,-1.6c0,-1.1,-.8,-1.1,-2.4,-1.1h-7.7l3.6,-14.3c0,-1.4,-1.1,-2.5,-2.7,-2.5c-2.8,0,-3.4,2.5,-3.6,3.4l-3.4,13.4h-8.1c-1.7,0,-2.7,0,-2.7,1.5c0,1.2,.9,1.2,2.5,1.2h7.6l-5.8,23.4c-.7,2.6,-.7,2.7,-.7,3.9c0,5.1,3.9,8,8.4,8c8.9,0,14,-12.4,14,-13.2l-1.1,-1.1c-.9,0,-1,.3,-1.6,1.8c-2.6,6.2,-7,10.4,-11.2,10.4c-1.7,0,-2.7,-1.1,-2.7,-4c0,-1.9,.2,-2.9,.6,-4.2Z" class="g0"/>
<path d="M337.9,298.2c1.3,0,2.9,0,2.9,-1.8c0,-1.9,-1.9,-1.9,-3.2,-1.9H285.1c-1.3,0,-3.2,0,-3.2,1.9c0,1.8,1.7,1.8,2.8,1.8Zm-.3,17.6c1.3,0,3.2,0,3.2,-1.9c0,-1.8,-1.6,-1.8,-2.9,-1.8H284.7c-1.1,0,-2.8,0,-2.8,1.8c0,1.9,1.9,1.9,3.2,1.9Zm58.9,-44.1c0,-2.2,-.1,-2.3,-2.3,-2.3c-5.3,5.5,-13.2,5.5,-15.9,5.5v2.6c1.6,0,6.9,0,11.5,-2.2v44.5c0,3.2,-.2,4.2,-8.2,4.2h-2.8v2.7c3.1,-.3,10.8,-.3,14.3,-.3c3.5,0,11.3,0,14.4,.3V324h-2.8c-8,0,-8.2,-1,-8.2,-4.2Z" class="g0"/>
<path d="M462.3,287h-8.1V272.5h-2.1c-5.3,7.4,-8.7,11.2,-14.3,16v2.3h4.4v27.9c0,5.6,3.7,9,9.7,9c5.8,0,9.2,-2.6,12.7,-9.6l-2.1,-1c-1.7,3.3,-3.1,4.5,-4.9,4.5c-2.4,0,-3.4,-1.5,-3.4,-4.9V290.8h8.1Zm24,-1c-10.9,0,-19.5,9,-19.5,20.7c0,12.3,8.2,21.2,19.5,21.2c11.1,0,19.4,-9,19.4,-20.9c0,-12.1,-8.3,-21,-19.4,-21m.1,2.6c5,0,6.6,4.8,6.6,18.9c0,13.2,-1.7,17.7,-6.7,17.7c-5.1,0,-6.8,-4.4,-6.8,-16.9c0,-15.2,1.5,-19.7,6.9,-19.7Z" class="g0"/>
<path d="M567,274.3c.5,-1.9,.7,-2.8,2.1,-3.1c.7,-.1,3.5,-.1,5.3,-.1c9.9,0,12.8,.6,12.8,7.3c0,1.1,0,2.4,-.7,7.5l-.1,.7l1.2,1.2c1,0,1.2,-.8,1.3,-2.1l2.3,-14.9l.2,-1.2c0,-1.2,-.9,-1.2,-2.5,-1.2h-49c-2.1,0,-2.2,.1,-2.8,1.7l-5.3,15.2c-.4,1.1,-.4,1.3,-.4,1.4l1.2,1.1c.9,0,1.1,-.5,1.6,-2.1c4.7,-13.4,7.4,-14.6,19.9,-14.6h3.3c2.4,0,2.4,.2,2.4,.9l-.3,1.8L548,319.9c-.8,3.1,-1.1,4.1,-10.2,4.1c-2.7,0,-3.5,0,-3.5,1.6c0,1.1,1.1,1.1,1.4,1.1c2.3,0,4.8,-.2,7.1,-.2c2.4,0,4.9,-.1,7.3,-.1c3.8,0,4,0,7.2,.1c1.1,0,6.8,.2,7.5,.2c.7,0,1.8,0,1.8,-1.6c0,-1.1,-.8,-1.1,-3,-1.1c-2.1,0,-3.1,0,-5.5,-.2c-1.9,-.2,-3,-.3,-3,-1.8l.4,-1.7Z" class="g0"/>
<path d="M643.8,327.8c3.9,-1.1,6.1,-1.5,11.4,-2.1l5.3,-.7v-2c-3.9,-.3,-5,-1.4,-5,-5V268.5H637v2.1c5.7,.4,6.5,1,6.5,5v15.7c-3.7,-4,-6.3,-5.3,-10.2,-5.3c-9.5,0,-16.6,9.2,-16.6,21.7c0,11.7,6.6,20.2,15.6,20.2c4.6,0,7.4,-1.4,11.5,-5.7ZM643.5,317c0,.6,-.9,2,-1.9,3.1c-1.7,2,-3.5,3,-5.4,3c-4.6,0,-6.7,-5.2,-6.7,-16.1c0,-11.1,2.3,-16.2,7.3,-16.2c2.8,0,5.5,2.1,6.7,5.3ZM684,286c-10.9,0,-19.4,9,-19.4,20.7c0,12.3,8.1,21.2,19.4,21.2c11.1,0,19.4,-9,19.4,-20.9c0,-12.1,-8.3,-21,-19.4,-21m.1,2.6c5,0,6.6,4.8,6.6,18.9c0,13.2,-1.7,17.7,-6.7,17.7c-5.1,0,-6.8,-4.4,-6.8,-16.9c0,-15.2,1.6,-19.7,6.9,-19.7Z" class="g0"/>
<path d="M237.9,388.4c0,-1.3,-1.1,-2.5,-2.7,-2.5c-1.4,0,-3.2,1.1,-3.7,3.5c-1.9,-3.3,-4.6,-5.2,-8.2,-5.2c-10.4,0,-21,12.2,-21,24.3c0,8.1,5.1,13.8,12,13.8c3.9,0,7.3,-2.2,10.2,-4.8c-1.2,4.8,-2.5,10.5,-3.2,12.1c-.4,.9,-3.5,8.2,-12.2,8.2c-1.8,0,-4.5,-.1,-6.7,-.7c1.7,-.7,3.1,-2.6,3.1,-4.4c0,-1.9,-1.4,-3.1,-3.2,-3.1c-2,0,-4.8,1.5,-4.8,5.1c0,4.2,4.8,5.2,11.7,5.2c11.1,0,17.5,-6.4,18.9,-11.9Zm-11.8,22.7c-.3,1.5,-.4,1.7,-1.8,3.3c-4.4,5,-8,5.7,-9.7,5.7c-4.3,0,-5.8,-4.1,-5.8,-8c0,-3.3,2.1,-13,4.6,-18c2.3,-4,6.1,-7.7,10,-7.7c5.5,0,7,6.5,7,7.3l-.2,1.3Z" class="g0"/>
<path d="M253.6,409.4h6.2c1.2,0,2,0,2,-1.5c0,-.8,-.8,-.8,-1.8,-.8h-5.8l2,-7.9l.2,-1.3c0,-1.4,-1.1,-1.9,-2,-1.9c-.7,0,-2.2,.4,-2.7,2.2l-2.3,8.9h-6.2c-1.2,0,-1.2,.1,-1.4,.2l-.6,1.3c.2,.8,.7,.8,1.9,.8h5.8l-3.4,13.5c-.4,1.4,-.8,3.3,-.8,4c0,3.3,3,5.5,6.5,5.5c6.6,0,10.5,-7.9,10.5,-8.8c0,-.2,-.2,-.8,-1.1,-.8l-1.2,.9c-1.9,4.3,-5.2,6.8,-8,6.8c-2.1,0,-2.2,-2.1,-2.2,-2.9c0,-.8,0,-.9,.3,-2Z" class="g0"/>
<path d="M355.8,393.8c1.2,0,2.8,0,2.8,-1.8c0,-1.9,-1.9,-1.9,-3.2,-1.9H302.9c-1.3,0,-3.2,0,-3.2,1.9c0,1.8,1.8,1.8,2.9,1.8Zm-.4,17.5c1.3,0,3.2,0,3.2,-1.9c0,-1.8,-1.6,-1.8,-2.8,-1.8H302.6c-1.1,0,-2.9,0,-2.9,1.8c0,1.9,1.9,1.9,3.2,1.9Z" class="g0"/>
<path d="M457.1,365.5l.4,-1.3c0,-.7,-.6,-.7,-2.1,-.7H394.5c-1.5,0,-2.1,0,-2.1,.7l.4,1.3L422.4,423c1,1.8,1.1,2.1,2.5,2.1c1.5,0,1.7,-.4,2.4,-1.8Zm-53.6,4.4h48.3l-24.1,46.9Z" class="g0"/>
<path d="M494,387.8h7.8c1.7,0,2.5,0,2.5,-1.5c0,-1.1,-.8,-1.1,-2.5,-1.1h-7.3c1,-5.2,2.2,-12.3,3.3,-16.9c.8,-3.4,2.8,-4.6,4.6,-4.6c.5,0,2.5,.2,3.9,1.2c-1.7,.4,-4.2,1.9,-4.2,4.8c0,2.1,1.6,3.1,3.3,3.1c2.3,0,4.7,-1.9,4.7,-5.2c0,-3.9,-3.8,-6,-7.8,-6c-3.9,0,-7.8,2.7,-9.6,6.3c-1.9,3.7,-2.5,7,-4.3,17.3h-6.2c-1.6,0,-2.6,0,-2.6,1.5c0,1.1,.9,1.1,2.5,1.1h5.8c-2.4,12.5,-5.4,29.7,-7.3,38.7c-1,4.7,-2.4,11.3,-6.6,11.3c-1.2,0,-3,-.6,-3.8,-1.2c2.1,-.4,4.3,-2.2,4.3,-4.8c0,-2.1,-1.7,-3.1,-3.3,-3.1c-2.3,0,-4.7,1.9,-4.7,5.2c0,4,3.9,6,7.5,6c8.8,0,12.9,-14.3,14.3,-21.7Z" class="g0"/>
<path d="M520.2,409.4h6.2c1.2,0,2,0,2,-1.5c0,-.8,-.8,-.8,-1.8,-.8h-5.8l2,-7.9l.2,-1.3c0,-1.4,-1.1,-1.9,-2,-1.9c-.7,0,-2.2,.4,-2.7,2.2l-2.3,8.9h-6.2c-1.2,0,-1.2,.1,-1.4,.2l-.6,1.3c.2,.8,.7,.8,1.9,.8h5.8l-3.4,13.5c-.4,1.4,-.8,3.3,-.8,4c0,3.3,3,5.5,6.5,5.5c6.6,0,10.5,-7.9,10.5,-8.8c0,-.2,-.1,-.8,-1.1,-.8l-1.2,.9c-1.9,4.3,-5.2,6.8,-8,6.8c-2.1,0,-2.2,-2.1,-2.2,-2.9c0,-.8,0,-.9,.3,-2Z" class="g0"/>
<path d="M566.2,442.8l-.8,-1.3C554.3,431.3,551,415.8,551,400.8c0,-13.4,2.6,-29.6,14.7,-41.1l.5,-1l-1,-1c-1,0,-8.8,6.2,-13.4,15.6c-4.2,8.3,-6.2,17.1,-6.2,27.4c0,6.2,.7,16,5.5,26.1c5,10.6,13.1,16.9,14.1,16.9Z" class="g0"/>
<path d="M613.6,387.5c-3.2,.6,-4.1,3.4,-4.1,4.6c0,1.7,1.2,3.1,3.3,3.1c2.4,0,4.8,-2,4.8,-5c0,-4,-4.3,-6,-8.4,-6c-5.2,0,-8.2,4.6,-9.2,6.4c-1.6,-4.2,-5.4,-6.4,-9.6,-6.4c-9.2,0,-14.2,11,-14.2,13.3l1.2,1l1.2,-.9c2.7,-8.6,8.4,-11.2,11.7,-11.2c2.5,0,4.7,1.6,4.7,5.7c0,3.1,-3.7,16.8,-4.8,21c-.7,2.6,-3.3,8,-8,8c-1.7,0,-3.6,-.6,-4.4,-1.1c2.3,-.5,4,-2.5,4,-4.7c0,-2.2,-1.6,-3.1,-3.2,-3.1c-2.5,0,-4.8,2.1,-4.8,5.1c0,4.2,4.7,5.9,8.3,5.9c5,0,7.9,-4.1,9.2,-6.4c2.2,5.6,7.2,6.4,9.6,6.4c9.3,0,14.2,-11.2,14.2,-13.2l-1.2,-1.1c-.9,0,-1,.4,-1.4,1.7c-1.9,6.2,-6.9,10.5,-11.4,10.5c-2.5,0,-4.8,-1.6,-4.8,-5.7c0,-1.9,1.2,-6.6,2,-9.9c.3,-1.6,2.6,-10.9,2.8,-11.5c1.1,-3.1,3.6,-7.6,8,-7.6c1.6,0,3.2,.2,4.5,1.1Z" class="g0"/>
<path d="M636.8,409.4h6.3c1.1,0,1.9,0,1.9,-1.5c0,-.8,-.7,-.8,-1.8,-.8h-5.8l2,-7.9l.2,-1.3c0,-1.4,-1.1,-1.9,-2,-1.9c-.7,0,-2.2,.4,-2.7,2.2l-2.2,8.9h-6.2c-1.2,0,-1.3,.1,-1.5,.2l-.5,1.3c.1,.8,.6,.8,1.8,.8h5.8l-3.4,13.5c-.3,1.4,-.8,3.3,-.8,4c0,3.3,3,5.5,6.5,5.5c6.6,0,10.5,-7.9,10.5,-8.8c0,-.2,-.1,-.8,-1.1,-.8l-1.2,.9c-1.9,4.3,-5.2,6.8,-8,6.8c-2.1,0,-2.2,-2.1,-2.2,-2.9c0,-.8,0,-.9,.3,-2Z" class="g0"/>
<path d="M679.1,400.7c0,-7.1,-1,-16.6,-5.5,-26.1c-5,-10.6,-13.1,-16.9,-14.1,-16.9l-1,1l.8,1.2c5,4.5,14.4,16.2,14.4,40.8c0,12.3,-2.2,29.4,-14.7,41l-.5,1.1l1,.9c1,0,8.8,-6.2,13.4,-15.6c4.2,-8.2,6.2,-17.1,6.2,-27.4Z" class="g0"/>
<path d="M212.2,504.3c1,-4,2.6,-10.3,2.7,-11c.2,-.5,2.3,-4.6,5.4,-7.6c2.5,-2.4,5.8,-3.7,9.2,-3.7c4.6,0,4.6,4.5,4.6,6c0,1,0,2.2,-1,6.4l-2,7.7c-2.8,11.1,-3.5,13.8,-3.5,14.2c0,1.1,.8,2.5,2.7,2.5c1.2,0,2.5,-.8,3.1,-1.8c.3,-.5,1,-3.3,1.4,-5l2,-7.7c.9,-4,2.6,-10.3,2.6,-11c.2,-.5,2.4,-4.6,5.5,-7.6c2.5,-2.4,5.7,-3.7,9.1,-3.7c4.6,0,4.6,4.5,4.6,6c0,5.2,-4,15.7,-4.9,18.4c-1.1,2.7,-1.4,3.5,-1.4,5.2c0,4.6,3.5,7.2,7.4,7.2c8.2,0,11.6,-12.3,11.6,-13.2l-1.1,-1.1c-1,0,-1.1,.4,-1.4,1.6c-2.2,7.3,-5.8,10.6,-8.9,10.6c-.6,0,-2.1,0,-2.1,-2.8c0,-2.1,.8,-4.4,1.5,-6.3c1.7,-4.4,5.2,-13.5,5.2,-18.3c0,-7.7,-5.7,-9.5,-10.3,-9.5c-8.1,0,-12.6,6.1,-14.2,8.3c-.8,-7.2,-6.7,-8.3,-10.3,-8.3c-8,0,-12.2,5.7,-13.6,7.5c-.5,-4.6,-4,-7.5,-8.3,-7.5c-3.6,0,-5.5,2.7,-6.7,5c-1.4,3,-2.6,7.9,-2.6,8.3l1.2,1c.9,0,1.1,-.4,1.5,-2.2c1.7,-6.8,3.5,-9.9,6.4,-9.9c2.6,0,2.6,2.7,2.6,4c0,1.8,-.7,4.5,-1.2,6.7c-.6,2.3,-1.5,6,-1.8,7l-3.5,14.1c-.6,2.1,-.6,2.2,-.6,2.5c0,1.1,.8,2.5,2.7,2.5c1.2,0,2.5,-.8,3.1,-1.8c.2,-.5,.9,-3.3,1.4,-5Z" class="g0"/>
<path d="M289.3,505h6.3c1.1,0,1.9,0,1.9,-1.5c0,-.8,-.7,-.8,-1.8,-.8h-5.8l2,-7.9l.2,-1.3c0,-1.4,-1.1,-2,-2,-2c-.7,0,-2.2,.4,-2.7,2.3l-2.2,8.9H279c-1.2,0,-1.3,0,-1.5,.2l-.5,1.3c.1,.8,.7,.8,1.8,.8h5.8l-3.4,13.5c-.3,1.3,-.8,3.3,-.8,4c0,3.3,3,5.5,6.5,5.5c6.6,0,10.5,-7.9,10.5,-8.9c0,-.1,-.1,-.7,-1.1,-.7l-1.1,.9c-2,4.3,-5.3,6.8,-8.1,6.8c-2.1,0,-2.2,-2.1,-2.2,-2.9c0,-.8,0,-.9,.3,-2Z" class="g0"/>
<path d="M391.5,489.4c1.2,0,2.8,0,2.8,-1.8c0,-1.9,-1.8,-1.9,-3.1,-1.9H338.7c-1.3,0,-3.2,0,-3.2,1.9c0,1.8,1.7,1.8,2.8,1.8Zm-.3,17.5c1.3,0,3.1,0,3.1,-1.9c0,-1.8,-1.6,-1.8,-2.8,-1.8H338.3c-1.1,0,-2.8,0,-2.8,1.8c0,1.9,1.9,1.9,3.2,1.9Z" class="g0"/>
<path d="M462.4,460.4l.2,-1.3l-1.2,-1c-.9,0,-.9,.3,-1.4,1.8l-5,19.8c-14.9,.6,-26.8,12.4,-26.8,23.4c0,8,5.9,15.1,17,15.8c-.7,2.7,-1.3,5.4,-2,8.1c-1.2,4.7,-1.8,7.2,-1.8,7.6c0,.3,.1,.9,1.2,.9c.9,0,1,-.3,1.5,-2.2l3.6,-14.4c14.8,-.6,26.9,-12.4,26.9,-23.5c0,-6.9,-5,-14.8,-17.1,-15.7Zm-16.7,56.3c-6.2,-.3,-11.7,-4,-11.7,-11.8c0,-9.6,7.1,-21.8,20.5,-23Zm11.2,-34.8c6.2,.4,11.7,3.8,11.7,11.9c0,11,-8.2,21.9,-20.4,22.9Z" class="g0"/>
<path d="M491.9,505h6.3c1.2,0,1.9,0,1.9,-1.5c0,-.8,-.7,-.8,-1.7,-.8h-5.9l2,-7.9l.3,-1.3c0,-1.4,-1.1,-2,-2.1,-2c-.6,0,-2.1,.4,-2.6,2.3l-2.3,8.9h-6.2q-1.2,0,-1.5,.2l-.5,1.3c.2,.8,.7,.8,1.8,.8h5.8l-3.3,13.5c-.4,1.3,-.8,3.3,-.8,4c0,3.3,2.9,5.5,6.4,5.5c6.6,0,10.5,-7.9,10.5,-8.9c0,-.1,-.1,-.7,-1.1,-.7l-1.1,.9c-2,4.3,-5.2,6.8,-8,6.8c-2.2,0,-2.2,-2.1,-2.2,-2.9c0,-.8,0,-.9,.3,-2Z" class="g0"/>
<path d="M538,538.3l-.8,-1.2C526.1,526.9,522.7,511.4,522.7,496.3c0,-13.3,2.6,-29.5,14.8,-41l.5,-1.1l-1.1,-.9c-1,0,-8.7,6.2,-13.4,15.6c-4.1,8.2,-6.2,17.1,-6.2,27.4c0,6.2,.8,16,5.5,26.1c5.1,10.6,13.1,16.9,14.1,16.9Z" class="g0"/>
<path d="M584.9,484c0,-1.4,-1.1,-2.5,-2.6,-2.5c-1.5,0,-3.3,1.1,-3.7,3.5c-1.9,-3.3,-4.7,-5.2,-8.2,-5.2c-10.4,0,-21,12.2,-21,24.3c0,8.1,5.1,13.8,12,13.8c3.8,0,7.3,-2.2,10.1,-4.8c-1.1,4.8,-2.5,10.5,-3.2,12.1c-.4,.9,-3.5,8.2,-12.2,8.2c-1.7,0,-4.5,-.1,-6.6,-.7c1.6,-.7,3.1,-2.6,3.1,-4.4c0,-1.9,-1.5,-3.1,-3.3,-3.1c-2,0,-4.7,1.5,-4.7,5.1c0,4.2,4.8,5.2,11.7,5.2c11.1,0,17.4,-6.4,18.8,-11.9Zm-11.8,22.7c-.3,1.5,-.4,1.7,-1.8,3.3c-4.4,5,-8,5.7,-9.7,5.7c-4.2,0,-5.8,-4.1,-5.8,-8c0,-3.4,2.1,-13,4.7,-18c2.2,-4,6,-7.7,10,-7.7c5.5,0,6.9,6.5,6.9,7.3l-.2,1.3Z" class="g0"/>
<path d="M605.8,491c0,-1.7,-.3,-1.7,-2,-1.7c-3.8,3.6,-9.6,3.6,-11.7,3.6v2.3c1.5,0,5.3,0,8.7,-1.6v28.9c0,1.9,0,2.7,-5.9,2.7h-2.4v2.2c3.1,-.2,7.6,-.2,10.8,-.2c3.2,0,7.7,0,10.8,.2v-2.2h-2.4c-5.9,0,-5.9,-.8,-5.9,-2.7Z" class="g0"/>
<path d="M640.7,516.5c0,2.8,0,9.9,-6.4,16l-.5,.9l1.1,1.1c.9,0,7.9,-6.7,7.9,-16.8c0,-5.4,-1.9,-9.1,-5.6,-9.1c-2.9,0,-4.6,2.2,-4.6,4.6c0,2.4,1.7,4.7,4.6,4.7c1.3,0,2.6,-.5,3.5,-1.4m40.4,-3.3c0,-2.5,-1.9,-4.6,-4.6,-4.6c-2.7,0,-4.7,2.1,-4.7,4.6c0,2.5,2,4.7,4.7,4.7c2.7,0,4.6,-2.2,4.6,-4.7m39.4,0c0,-2.5,-2,-4.6,-4.7,-4.6c-2.6,0,-4.6,2.1,-4.6,4.6c0,2.5,2,4.7,4.6,4.7c2.7,0,4.7,-2.2,4.7,-4.7m39.3,0c0,-2.5,-2,-4.6,-4.7,-4.6c-2.7,0,-4.6,2.1,-4.6,4.6c0,2.5,1.9,4.7,4.6,4.7c2.7,0,4.7,-2.2,4.7,-4.7m38,3.3c0,2.8,0,9.9,-6.3,16l-.6,.9l1.2,1.1c.9,0,7.9,-6.7,7.9,-16.8c0,-5.4,-1.9,-9.1,-5.6,-9.1c-2.9,0,-4.7,2.2,-4.7,4.6c0,2.4,1.8,4.7,4.7,4.7c1.3,0,2.6,-.5,3.4,-1.4M863.4,484c0,-1.3,-1.2,-2.5,-2.7,-2.5c-1.5,0,-3.3,1.1,-3.7,3.5c-1.9,-3.3,-4.7,-5.2,-8.2,-5.2c-10.4,0,-21,12.2,-21,24.3c0,8.1,5.1,13.8,12,13.8c3.8,0,7.3,-2.2,10.1,-4.8c-1.1,4.8,-2.5,10.5,-3.2,12.1c-.4,.9,-3.5,8.2,-12.2,8.2c-1.7,0,-4.5,-.1,-6.6,-.7c1.6,-.7,3.1,-2.6,3.1,-4.4c0,-1.9,-1.5,-3.1,-3.3,-3.1c-2,0,-4.7,1.5,-4.7,5.1c0,4.2,4.8,5.2,11.7,5.2c11.1,0,17.5,-6.4,18.8,-11.9Zm-11.8,22.7c-.4,1.5,-.5,1.7,-1.9,3.3c-4.3,5,-8,5.7,-9.7,5.7c-4.2,0,-5.7,-4.1,-5.7,-8c0,-3.4,2,-13,4.6,-18c2.2,-4,6,-7.7,10,-7.7c5.5,0,7,6.5,7,7.3l-.3,1.3Z" class="g0"/>
<path d="M879.1,505h6.2c1.2,0,2,0,2,-1.5c0,-.8,-.8,-.8,-1.8,-.8h-5.9l2.1,-7.9l.2,-1.3c0,-1.4,-1.1,-2,-2,-2c-.7,0,-2.2,.4,-2.7,2.3l-2.3,8.9h-6.2q-1.2,0,-1.5,.2l-.5,1.3c.2,.8,.7,.8,1.9,.8h5.8L871,518.5c-.4,1.3,-.8,3.3,-.8,4c0,3.3,3,5.5,6.5,5.5c6.6,0,10.5,-7.9,10.5,-8.9c0,-.1,-.2,-.7,-1.1,-.7l-1.2,.9c-1.9,4.3,-5.2,6.8,-8,6.8c-2.1,0,-2.2,-2.1,-2.2,-2.9c0,-.8,0,-.9,.3,-2Z" class="g0"/>
<path d="M921.4,496.3c0,-7.1,-1,-16.6,-5.5,-26.1c-5.1,-10.6,-13.1,-16.9,-14.1,-16.9l-1,.9l.7,1.3c5,4.5,14.5,16.2,14.5,40.8c0,12.3,-2.3,29.4,-14.7,41l-.5,1l1,1c1,0,8.8,-6.2,13.4,-15.6c4.2,-8.2,6.2,-17.1,6.2,-27.4Z" class="g0"/>
<path d="M989.7,512.2c-1.5,1.2,-2.5,1.6,-3.8,1.6c-2,0,-2.6,-1.2,-2.6,-5V492c0,-4.4,-.4,-6.9,-1.7,-9c-1.9,-3.1,-5.6,-4.7,-10.7,-4.7c-8.1,0,-14.4,4.2,-14.4,9.6c0,2,1.7,3.7,3.7,3.7c2,0,3.8,-1.7,3.8,-3.6l-.1,-1.4l-.3,-2.1c0,-2.3,2.8,-4.2,6.2,-4.2c4.2,0,6.6,2.5,6.6,7.2v5.2c-13.3,5.4,-14.8,6,-18.5,9.3c-1.9,1.7,-3.1,4.7,-3.1,7.5c0,5.4,3.8,9.2,9.1,9.2c3.8,0,7.3,-1.8,12.5,-6.3c.5,4.5,2,6.3,5.6,6.3c2.9,0,4.7,-1,7.7,-4.3Zm-13.3,-4.9c0,2.6,-.5,3.4,-2.3,4.4c-2,1.3,-4.5,2,-6.3,2c-3,0,-5.4,-2.9,-5.4,-6.6v-.3c0,-5.1,3.5,-8.2,14,-12Zm14.8,-23.7c.5,-.3,1.4,-.3,2.3,-.3c2.5,0,3.2,1.2,3.2,5.5v21.3c0,4.9,-.9,6.1,-5.3,6.5v1.3h18.2v-1.3c-4.4,-.4,-5.6,-1.4,-5.6,-4.5V487.9c4.1,-3.9,6,-4.9,8.8,-4.9c4.2,0,6.3,2.7,6.3,8.3v18c0,5.5,-1.1,6.9,-5.4,7.3v1.3h17.9v-1.3c-4.2,-.5,-5.3,-1.5,-5.3,-5.7V491.2c0,-8.1,-3.7,-12.9,-10.1,-12.9c-4,0,-6.6,1.4,-12.5,6.9v-6.8l-.6,-.1c-4.2,1.5,-7.1,2.5,-11.9,3.8Zm71.3,35.1l12.6,-4.5v-1.3c-1.5,.1,-1.7,.1,-2,.1c-3.1,0,-3.8,-1,-3.8,-5V459.2l-.4,-.1c-4.1,1.4,-7.1,2.3,-12.6,3.8v1.3l1.9,-.1c3.1,0,3.9,.9,3.9,4.4V482c-3.2,-2.8,-5.6,-3.7,-9,-3.7c-9.9,0,-17.9,9.7,-17.9,21.9c0,11,6.4,18.5,15.9,18.5c4.8,0,8.1,-1.7,11,-5.7v5.5Zm-.4,-9.6c0,.6,-.6,1.6,-1.4,2.6c-1.6,1.7,-3.7,2.5,-6.2,2.5c-7.2,0,-11.9,-6.8,-11.9,-17.4c0,-9.8,4.2,-16.1,10.7,-16.1c4.6,0,8.8,4,8.8,8.6Z" class="g0"/>
<path d="M1153,469.2c3.5,-5.5,6.5,-7.1,10.5,-7.5c1,-.1,1.8,-.1,1.8,-1.5l-1.1,-1.1c-.4,0,-2.5,.2,-7.1,.2c-2.7,0,-5.7,-.2,-8.3,-.2c-.6,0,-1.6,.1,-1.6,1.5c0,1,1,1.1,1.2,1.1c.9,.1,4,.3,4,2.8l-.6,2l-.9,1.6L1124,509.9l-6.6,-45.6c0,-.8,.6,-2.6,6,-2.6c1,0,2,0,2,-1.5c0,-1,-.8,-1.1,-1.3,-1.1c-1.6,0,-3.4,.1,-5,.1c-1.7,0,-3.6,.1,-5.5,.1c-1.5,0,-3.9,0,-4.7,-.1l-4.9,-.1c-.3,0,-1.5,0,-1.5,1.5c0,1.1,.9,1.1,1.9,1.1c4.9,0,4.9,.8,5.3,3l7.6,52.8c.2,1.7,.3,2.3,1.8,2.3c1.3,0,1.9,-.7,2.5,-1.8Z" class="g0"/>
<path d="M1164.4,505h6.2c1.2,0,2,0,2,-1.5c0,-.8,-.8,-.8,-1.8,-.8h-5.9l2.1,-7.9l.2,-1.3c0,-1.4,-1.1,-2,-2,-2c-.7,0,-2.2,.4,-2.7,2.3l-2.3,8.9H1154q-1.2,0,-1.4,.2l-.6,1.3c.2,.8,.7,.8,1.9,.8h5.8l-3.4,13.5c-.4,1.3,-.8,3.3,-.8,4c0,3.3,3,5.5,6.5,5.5c6.6,0,10.5,-7.9,10.5,-8.9c0,-.1,-.2,-.7,-1.1,-.7l-1.2,.9c-1.9,4.3,-5.2,6.8,-8,6.8c-2.1,0,-2.2,-2.1,-2.2,-2.9c0,-.8,0,-.9,.3,-2Z" class="g0"/>
<path d="M1266.6,489.4c1.2,0,2.8,0,2.8,-1.8c0,-1.9,-1.9,-1.9,-3.2,-1.9h-52.5c-1.3,0,-3.2,0,-3.2,1.9c0,1.8,1.8,1.8,2.9,1.8Zm-.4,17.5c1.3,0,3.2,0,3.2,-1.9c0,-1.8,-1.6,-1.8,-2.8,-1.8h-53.2c-1.1,0,-2.9,0,-2.9,1.8c0,1.9,1.9,1.9,3.2,1.9Z" class="g0"/>
<path d="M1341.7,459.1c0,-.1,0,-1,-1.1,-1c-1,0,-1.1,.4,-1.4,1.8L1325,516.5c-6.2,-.8,-10,-3.6,-10,-9.6c0,-1.8,.2,-4.4,4.3,-15c.7,-1.9,1.3,-3.2,1.3,-4.9c0,-4.2,-3.2,-7.2,-7.4,-7.2c-8.3,0,-11.8,12.2,-11.8,13.3l1.3,1c.9,0,1,-.5,1.3,-1.6c1.8,-6.3,5.3,-10.5,8.9,-10.5c1.7,0,2.1,1.1,2.1,2.8c0,2,-.6,3.8,-1.3,5.7c-4.3,10.7,-4.8,13.7,-4.8,15.8c0,6.2,4.3,11.6,15.5,12.3l-3.8,16c0,0,0,.9,1.1,.9c1,0,1.1,-.3,1.5,-2.1c1.2,-4.9,2.5,-9.7,3.6,-14.6c3.1,0,12.1,0,20.7,-10.8c4.1,-5.1,5.6,-9.4,7.1,-17.3c.5,-2.4,.5,-3.7,.5,-4.6c0,-6,-3.2,-6.4,-4,-6.4c-2.1,0,-4.4,2.4,-4.4,4.3c0,1.3,.8,2,1.4,2.5c2.3,2.2,3.1,4.9,3.1,7.2c0,3.6,-2.4,10.2,-8.2,15.9c-6.8,6.8,-12.5,7.1,-15.6,7.1Z" class="g0"/>
<path d="M1372.1,505h6.2c1.2,0,2,0,2,-1.5c0,-.8,-.8,-.8,-1.8,-.8h-5.9l2,-7.9l.3,-1.3c0,-1.4,-1.1,-2,-2,-2c-.7,0,-2.2,.4,-2.7,2.3l-2.3,8.9h-6.2q-1.2,0,-1.5,.2l-.5,1.3c.2,.8,.7,.8,1.9,.8h5.8l-3.4,13.5c-.4,1.3,-.8,3.3,-.8,4c0,3.3,3,5.5,6.5,5.5c6.6,0,10.5,-7.9,10.5,-8.9c0,-.1,-.2,-.7,-1.1,-.7l-1.2,.9c-1.9,4.3,-5.2,6.8,-8,6.8c-2.1,0,-2.2,-2.1,-2.2,-2.9c0,-.8,0,-.9,.3,-2Z" class="g0"/>
<path d="M1418.1,538.3l-.8,-1.2c-11.1,-10.2,-14.4,-25.7,-14.4,-40.8c0,-13.3,2.6,-29.5,14.7,-41l.5,-1.1l-1,-.9c-1,0,-8.8,6.2,-13.4,15.6c-4.2,8.2,-6.2,17.1,-6.2,27.4c0,6.2,.7,16,5.5,26.1c5,10.6,13.1,16.9,14.1,16.9Z" class="g0"/>
<path d="M1465.1,484c0,-1.4,-1.2,-2.5,-2.7,-2.5c-1.5,0,-3.3,1.1,-3.7,3.5c-1.9,-3.3,-4.6,-5.2,-8.2,-5.2c-10.4,0,-21,12.2,-21,24.3c0,8.1,5.1,13.8,12,13.8c3.8,0,7.3,-2.2,10.1,-4.8c-1.1,4.8,-2.5,10.5,-3.2,12.1c-.4,.9,-3.5,8.2,-12.2,8.2c-1.7,0,-4.4,-.1,-6.6,-.7c1.6,-.7,3.1,-2.6,3.1,-4.4c0,-1.9,-1.5,-3.1,-3.3,-3.1c-2,0,-4.7,1.5,-4.7,5.1c0,4.2,4.8,5.2,11.7,5.2c11.1,0,17.5,-6.4,18.9,-11.9Zm-11.8,22.7c-.4,1.5,-.5,1.7,-1.8,3.3c-4.4,5,-8,5.7,-9.8,5.7c-4.2,0,-5.7,-4.1,-5.7,-8c0,-3.4,2,-13,4.6,-18c2.3,-4,6,-7.7,10,-7.7c5.5,0,7,6.5,7,7.3l-.3,1.3Z" class="g0"/>
<path d="M1485.9,491c0,-1.7,-.2,-1.7,-1.9,-1.7c-3.8,3.6,-9.7,3.6,-11.8,3.6v2.3c1.5,0,5.3,0,8.8,-1.6v28.9c0,1.9,0,2.7,-5.9,2.7h-2.5v2.2c3.1,-.2,7.6,-.2,10.8,-.2c3.3,0,7.7,0,10.9,.2v-2.2h-2.5c-5.9,0,-5.9,-.8,-5.9,-2.7Z" class="g0"/>
<path d="M1520.8,516.5c0,2.8,0,9.9,-6.4,16l-.5,.9l1.1,1.1c1,0,7.9,-6.7,7.9,-16.8c0,-5.4,-1.8,-9.1,-5.5,-9.1c-3,0,-4.7,2.2,-4.7,4.6c0,2.4,1.7,4.7,4.7,4.7c1.2,0,2.5,-.5,3.4,-1.4m40.5,-3.3c0,-2.5,-2,-4.6,-4.7,-4.6c-2.6,0,-4.6,2.1,-4.6,4.6c0,2.5,2,4.7,4.6,4.7c2.7,0,4.7,-2.2,4.7,-4.7m39.3,0c0,-2.5,-2,-4.6,-4.6,-4.6c-2.7,0,-4.7,2.1,-4.7,4.6c0,2.5,2,4.7,4.7,4.7c2.6,0,4.6,-2.2,4.6,-4.7m39.3,0c0,-2.5,-2,-4.6,-4.7,-4.6c-2.6,0,-4.6,2.1,-4.6,4.6c0,2.5,2,4.7,4.6,4.7c2.7,0,4.7,-2.2,4.7,-4.7m38.1,3.3c0,2.8,0,9.9,-6.4,16l-.5,.9l1.1,1.1c.9,0,7.9,-6.7,7.9,-16.8c0,-5.4,-1.9,-9.1,-5.6,-9.1c-2.9,0,-4.6,2.2,-4.6,4.6c0,2.4,1.7,4.7,4.6,4.7c1.3,0,2.6,-.5,3.5,-1.4M1743.5,484c0,-1.3,-1.1,-2.5,-2.7,-2.5c-1.4,0,-3.3,1.1,-3.7,3.5c-1.9,-3.3,-4.6,-5.2,-8.2,-5.2c-10.4,0,-21,12.2,-21,24.3c0,8.1,5.1,13.8,12,13.8c3.9,0,7.3,-2.2,10.2,-4.8c-1.2,4.8,-2.5,10.5,-3.2,12.1c-.5,.9,-3.6,8.2,-12.3,8.2c-1.7,0,-4.4,-.1,-6.6,-.7c1.7,-.7,3.1,-2.6,3.1,-4.4c0,-1.9,-1.4,-3.1,-3.3,-3.1c-1.9,0,-4.7,1.5,-4.7,5.1c0,4.2,4.8,5.2,11.7,5.2c11.1,0,17.5,-6.4,18.9,-11.9Zm-11.8,22.7c-.3,1.5,-.4,1.7,-1.8,3.3c-4.4,5,-8,5.7,-9.7,5.7c-4.3,0,-5.8,-4.1,-5.8,-8c0,-3.4,2.1,-13,4.6,-18c2.3,-4,6.1,-7.7,10,-7.7c5.5,0,7,6.5,7,7.3l-.3,1.3Z" class="g0"/>
<path d="M1759.2,505h6.3c1.1,0,1.9,0,1.9,-1.5c0,-.8,-.7,-.8,-1.8,-.8h-5.8l2,-7.9l.2,-1.3c0,-1.4,-1.1,-2,-2,-2c-.7,0,-2.2,.4,-2.7,2.3l-2.2,8.9h-6.2c-1.2,0,-1.3,0,-1.5,.2l-.5,1.3c.1,.8,.7,.8,1.8,.8h5.8l-3.4,13.5c-.3,1.3,-.8,3.3,-.8,4c0,3.3,3,5.5,6.5,5.5c6.6,0,10.5,-7.9,10.5,-8.9c0,-.1,-.1,-.7,-1.1,-.7l-1.1,.9c-2,4.3,-5.3,6.8,-8.1,6.8c-2.1,0,-2.2,-2.1,-2.2,-2.9c0,-.8,0,-.9,.3,-2Z" class="g0"/>
<path d="M1801.5,496.3c0,-7.1,-1,-16.6,-5.5,-26.1c-5.1,-10.6,-13.1,-16.9,-14.1,-16.9l-1,.9l.7,1.3c5,4.5,14.5,16.2,14.5,40.8c0,12.3,-2.2,29.4,-14.7,41l-.5,1l1,1c1,0,8.8,-6.2,13.4,-15.6c4.2,-8.2,6.2,-17.1,6.2,-27.4Z" class="g0"/>
<path d="M991.8,552.5h83.7v3.7H991.8Z" class="g0"/>
<path d="M238.3,589.5c-3.2,.6,-4.1,3.3,-4.1,4.6c0,1.7,1.2,3.1,3.3,3.1c2.5,0,4.8,-2,4.8,-5c0,-4,-4.3,-6,-8.4,-6c-5.1,0,-8.1,4.6,-9.2,6.4c-1.6,-4.2,-5.4,-6.4,-9.5,-6.4c-9.2,0,-14.2,11,-14.2,13.3l1.2,1l1.2,-.9C206,591,211.7,588.4,215,588.4c2.5,0,4.7,1.6,4.7,5.7c0,3.1,-3.7,16.8,-4.8,21c-.7,2.6,-3.3,8,-8,8c-1.7,0,-3.5,-.6,-4.4,-1.2c2.3,-.4,4.1,-2.4,4.1,-4.6c0,-2.2,-1.7,-3.1,-3.3,-3.1c-2.5,0,-4.7,2.1,-4.7,5.1c0,4.2,4.6,5.9,8.2,5.9c5,0,7.9,-4.1,9.2,-6.4c2.2,5.6,7.3,6.4,9.6,6.4c9.3,0,14.2,-11.2,14.2,-13.2l-1.1,-1.1c-1,0,-1.1,.4,-1.5,1.7c-1.9,6.2,-6.9,10.5,-11.4,10.5c-2.5,0,-4.8,-1.6,-4.8,-5.7c0,-1.9,1.2,-6.6,2,-9.9c.3,-1.6,2.7,-10.9,2.8,-11.5c1.1,-3.1,3.7,-7.6,8,-7.6c1.6,0,3.2,.2,4.5,1.1Z" class="g0"/>
<path d="M223.5,564.5l-11.9,11.6l1.6,1.9l10.3,-8.7l10.3,8.7l1.5,-1.9Z" class="g0"/>
<path d="M261.5,611.4h6.3c1.1,0,1.9,0,1.9,-1.5c0,-.8,-.7,-.8,-1.7,-.8h-5.9l2,-7.9l.2,-1.3c0,-1.4,-1.1,-1.9,-2,-1.9c-.7,0,-2.2,.4,-2.7,2.2l-2.2,8.9h-6.2c-1.2,0,-1.3,0,-1.5,.2l-.5,1.3c.2,.8,.7,.8,1.8,.8h5.8l-3.4,13.5c-.3,1.3,-.8,3.3,-.8,4c0,3.3,3,5.5,6.5,5.5c6.6,0,10.5,-7.9,10.5,-8.8c0,-.2,-.1,-.8,-1.1,-.8l-1.1,.9c-2,4.3,-5.2,6.8,-8,6.8c-2.2,0,-2.2,-2.1,-2.2,-2.9c0,-.8,0,-.9,.3,-2Z" class="g0"/>
<path d="M301.7,621h18.6c.8,0,2.2,0,2.2,-1.5c0,-1.5,-1.4,-1.5,-2.2,-1.5H301.7V599.4c0,-.8,0,-2.2,-1.5,-2.2c-1.5,0,-1.5,1.4,-1.5,2.2V618H280.2c-.8,0,-2.2,0,-2.2,1.5c0,1.5,1.4,1.5,2.2,1.5h18.5v18.6c0,.8,0,2.2,1.5,2.2c1.5,0,1.5,-1.4,1.5,-2.2Zm46,-23.6c0,-1.7,-.3,-1.7,-2,-1.7c-3.8,3.6,-9.6,3.6,-11.7,3.6v2.3c1.5,0,5.3,0,8.7,-1.6v28.9c0,1.9,0,2.7,-5.9,2.7h-2.4v2.2c3.1,-.2,7.6,-.2,10.8,-.2c3.2,0,7.7,0,10.9,.2v-2.2h-2.5c-5.9,0,-5.9,-.8,-5.9,-2.7Z" class="g0"/>
<path d="M452.4,595.8c1.2,0,2.8,0,2.8,-1.8c0,-1.9,-1.9,-1.9,-3.1,-1.9H399.5c-1.2,0,-3.1,0,-3.1,1.9c0,1.8,1.7,1.8,2.8,1.8Zm-.3,17.5c1.2,0,3.1,0,3.1,-1.9c0,-1.8,-1.6,-1.8,-2.8,-1.8H399.2c-1.1,0,-2.8,0,-2.8,1.8c0,1.9,1.9,1.9,3.1,1.9Z" class="g0"/>
<path d="M527.1,589.5c-3.2,.6,-4.1,3.3,-4.1,4.6c0,1.7,1.2,3.1,3.4,3.1c2.4,0,4.7,-2,4.7,-5c0,-4,-4.3,-6,-8.4,-6c-5.1,0,-8.1,4.6,-9.2,6.4c-1.6,-4.2,-5.4,-6.4,-9.5,-6.4c-9.2,0,-14.2,11,-14.2,13.3l1.2,1l1.2,-.9c2.6,-8.6,8.3,-11.2,11.6,-11.2c2.5,0,4.7,1.6,4.7,5.7c0,3.1,-3.7,16.8,-4.8,21c-.7,2.6,-3.3,8,-8,8c-1.7,0,-3.5,-.6,-4.4,-1.2c2.3,-.4,4.1,-2.4,4.1,-4.6c0,-2.2,-1.7,-3.1,-3.3,-3.1c-2.5,0,-4.7,2.1,-4.7,5.1c0,4.2,4.6,5.9,8.2,5.9c5,0,7.9,-4.1,9.2,-6.4c2.2,5.6,7.3,6.4,9.6,6.4c9.3,0,14.2,-11.2,14.2,-13.2l-1.1,-1.1c-1,0,-1.1,.4,-1.5,1.7c-1.9,6.2,-6.9,10.5,-11.4,10.5c-2.4,0,-4.8,-1.6,-4.8,-5.7c0,-1.9,1.2,-6.6,2,-9.9c.4,-1.6,2.7,-10.9,2.8,-11.5c1.1,-3.1,3.7,-7.6,8,-7.6c1.6,0,3.2,.2,4.5,1.1Z" class="g0"/>
<path d="M550.3,611.4h6.3c1.1,0,1.9,0,1.9,-1.5c0,-.8,-.7,-.8,-1.7,-.8h-5.9l2,-7.9l.2,-1.3c0,-1.4,-1,-1.9,-2,-1.9c-.7,0,-2.1,.4,-2.7,2.2l-2.2,8.9H540c-1.2,0,-1.3,0,-1.5,.2l-.5,1.3c.2,.8,.7,.8,1.8,.8h5.8l-3.4,13.5c-.3,1.3,-.8,3.3,-.8,4c0,3.3,3,5.5,6.5,5.5c6.6,0,10.5,-7.9,10.5,-8.8c0,-.2,-.1,-.8,-1.1,-.8l-1.1,.9c-2,4.3,-5.2,6.8,-8,6.8c-2.2,0,-2.2,-2.1,-2.2,-2.9c0,-.8,0,-.9,.3,-2Z" class="g0"/>
<path d="M644.8,604.6c1.5,0,3.2,0,3.2,-1.9c0,-1.8,-1.8,-1.8,-3.2,-1.8H597.3c-1.5,0,-3.2,0,-3.2,1.8c0,1.9,1.6,1.9,3.2,1.9Z" class="g0"/>
<path d="M717.4,604c0,-12.8,-7.8,-17.8,-15.1,-17.8c-11.7,0,-23.5,11.9,-23.5,24.3c0,8.9,6,14.7,14.4,14.7c9.3,0,16.3,-5.5,18.6,-7.2c1.1,4.3,3.9,7.2,8.1,7.2c4.7,0,7.5,-4.5,7.5,-6.1c0,-.9,-.9,-.9,-1.2,-.9c-.9,0,-1,.3,-1.3,1.1c-.9,2.5,-3.2,3.8,-4.7,3.8c-2.8,0,-2.8,-7.7,-2.8,-9.4c0,-1.1,0,-1.3,.8,-2.3c1.5,-1.8,3.8,-4.8,6,-9.2c2.6,-5,4,-10.3,4,-10.8c0,-.1,0,-1,-1.1,-1c-1.1,0,-1.1,.3,-1.5,1.7c-.8,3,-2.8,9.5,-8.2,16.8Zm-6.1,11.5c-2.1,1.8,-9.1,7.6,-17.9,7.6c-4.8,0,-8,-3.2,-8,-9.4c0,-3.7,1.7,-12.2,5.1,-17.7c2.2,-3.6,6.8,-7.6,11.8,-7.6c5.8,0,7.6,5.1,8.4,10.3c.7,4.6,.2,12.9,.6,16.8Z" class="g0"/>
<path d="M747.2,611.4h6.2c1.2,0,2,0,2,-1.5c0,-.8,-.7,-.8,-1.8,-.8h-5.8l2,-7.9l.2,-1.3c0,-1.4,-1.1,-1.9,-2,-1.9c-.7,0,-2.2,.4,-2.7,2.2l-2.2,8.9h-6.2c-1.2,0,-1.3,0,-1.5,.2l-.6,1.3c.2,.8,.7,.8,1.9,.8h5.8l-3.4,13.5c-.3,1.3,-.8,3.3,-.8,4c0,3.3,3,5.5,6.5,5.5c6.6,0,10.5,-7.9,10.5,-8.8c0,-.2,-.1,-.8,-1.1,-.8l-1.2,.9c-1.9,4.3,-5.2,6.8,-8,6.8c-2.1,0,-2.2,-2.1,-2.2,-2.9c0,-.8,0,-.9,.3,-2Z" class="g0"/>
<path d="M780.1,610.8c1,-4.1,2.6,-10.4,2.7,-11.1c.2,-.5,2.3,-4.6,5.4,-7.6c2.5,-2.3,5.8,-3.7,9.2,-3.7c4.6,0,4.6,4.5,4.6,6c0,1,0,2.2,-1,6.5l-2,7.6c-2.8,11.1,-3.5,13.8,-3.5,14.2c0,1.1,.8,2.5,2.7,2.5c1.2,0,2.5,-.8,3.1,-1.8c.3,-.5,1,-3.3,1.4,-5l2,-7.6c.9,-4.1,2.6,-10.4,2.6,-11.1c.2,-.5,2.4,-4.6,5.5,-7.6c2.5,-2.3,5.7,-3.7,9.1,-3.7c4.6,0,4.6,4.5,4.6,6c0,5.3,-4,15.7,-5,18.4c-1,2.7,-1.3,3.5,-1.3,5.2c0,4.6,3.5,7.2,7.4,7.2c8.2,0,11.6,-12.3,11.6,-13.2l-1.1,-1.1c-1,0,-1.1,.5,-1.4,1.6c-2.2,7.3,-5.8,10.6,-8.9,10.6c-.6,0,-2.1,0,-2.1,-2.8c0,-2.1,.8,-4.4,1.5,-6.3c1.7,-4.4,5.2,-13.5,5.2,-18.3c0,-7.7,-5.7,-9.5,-10.3,-9.5c-8.1,0,-12.6,6.1,-14.2,8.3c-.8,-7.2,-6.7,-8.3,-10.3,-8.3c-8,0,-12.2,5.7,-13.6,7.5c-.5,-4.6,-4,-7.5,-8.3,-7.5c-3.6,0,-5.5,2.7,-6.7,5c-1.4,3,-2.6,7.9,-2.6,8.3l1.2,1c.9,0,1.1,-.4,1.5,-2.1c1.7,-6.8,3.5,-10,6.4,-10c2.6,0,2.6,2.7,2.6,4c0,1.8,-.7,4.5,-1.2,6.7c-.6,2.3,-1.5,6,-1.8,7l-3.5,14.1c-.6,2.1,-.6,2.3,-.6,2.5c0,1.1,.8,2.5,2.7,2.5c1.2,0,2.5,-.8,3.1,-1.8c.2,-.5,.9,-3.3,1.4,-5Z" class="g0"/>
<path d="M857.2,611.4h6.3c1.1,0,1.9,0,1.9,-1.5c0,-.8,-.7,-.8,-1.8,-.8h-5.8l2,-7.9l.2,-1.3c0,-1.4,-1.1,-1.9,-2,-1.9c-.7,0,-2.2,.4,-2.7,2.2l-2.2,8.9h-6.2c-1.2,0,-1.3,0,-1.5,.2l-.5,1.3c.1,.8,.7,.8,1.8,.8h5.8l-3.4,13.5c-.3,1.3,-.8,3.3,-.8,4c0,3.3,3,5.5,6.5,5.5c6.6,0,10.5,-7.9,10.5,-8.8c0,-.2,-.1,-.8,-1.1,-.8l-1.1,.9c-2,4.3,-5.3,6.8,-8.1,6.8c-2.1,0,-2.2,-2.1,-2.2,-2.9c0,-.8,0,-.9,.3,-2Z" class="g0"/>
<path d="M912.6,563.2c.5,-1.3,.5,-1.4,.5,-1.6c0,-1.1,-.8,-1.9,-1.8,-1.9c-1.2,0,-1.5,.7,-1.6,.9l-30.4,81.7c-.5,1.3,-.5,1.4,-.5,1.6c0,1.1,.9,1.9,1.8,1.9c.9,0,1.6,-.4,2.2,-2.1Z" class="g0"/>
<path d="M952.5,629.4L936.9,595.9c-.6,-1.3,-1,-1.4,-1.4,-1.4l-1.3,.7l-8.6,6.3l-1.1,1.4l1,1.1c.5,0,1,-.5,2.9,-1.9c.8,-.5,1.9,-1.4,2.9,-2.1l17.4,37.2c.6,1.5,1.1,1.5,1.9,1.5c1.2,0,1.6,-.4,2.3,-1.8L993,556.1l.6,-1.7c0,-1.1,-.9,-1.9,-1.8,-1.9c-.8,0,-1.4,.3,-2.2,1.9Z" class="g0"/>
<path d="M1047.4,575.6c3.5,-5.5,6.5,-7.1,10.5,-7.5c1,-.1,1.8,-.1,1.8,-1.5l-1.1,-1.1c-.4,0,-2.5,.2,-7.1,.2c-2.7,0,-5.7,-.2,-8.3,-.2c-.6,0,-1.6,.1,-1.6,1.5c0,1,1,1.1,1.2,1.1c.9,.1,4,.3,4,2.8l-.6,2l-.9,1.6l-26.9,41.8l-6.6,-45.6c0,-.8,.6,-2.6,6,-2.6c1,0,2,0,2,-1.5c0,-1,-.8,-1.1,-1.3,-1.1c-1.6,0,-3.4,.1,-5,.1c-1.7,0,-3.6,.1,-5.4,.1c-1.6,0,-4,0,-4.8,-.1l-4.9,-.1c-.3,0,-1.5,0,-1.5,1.5c0,1.1,.9,1.1,1.9,1.1c4.9,0,4.9,.8,5.3,3l7.6,52.8c.2,1.7,.3,2.3,1.8,2.3c1.4,0,1.9,-.7,2.5,-1.8Z" class="g0"/>
<path d="M1058.8,611.4h6.2c1.2,0,2,0,2,-1.5c0,-.8,-.8,-.8,-1.8,-.8h-5.8l2,-7.9l.2,-1.3c0,-1.4,-1.1,-1.9,-2,-1.9c-.7,0,-2.2,.4,-2.7,2.2l-2.3,8.9h-6.2q-1.2,0,-1.4,.2l-.6,1.3c.2,.8,.7,.8,1.9,.8h5.8l-3.4,13.5c-.4,1.3,-.8,3.3,-.8,4c0,3.3,3,5.5,6.5,5.5c6.6,0,10.5,-7.9,10.5,-8.8c0,-.2,-.1,-.8,-1.1,-.8l-1.2,.9c-1.9,4.3,-5.2,6.8,-8,6.8c-2.1,0,-2.2,-2.1,-2.2,-2.9c0,-.8,0,-.9,.3,-2Z" class="g0"/>
<path d="M686.5,693.2h56.7v2.9H686.5Z" class="g0"/>
<path d="M238.3,685.1c-3.2,.6,-4.1,3.3,-4.1,4.6c0,1.7,1.2,3.1,3.3,3.1c2.5,0,4.8,-2.1,4.8,-5.1c0,-3.9,-4.3,-5.9,-8.4,-5.9c-5.1,0,-8.1,4.6,-9.2,6.4c-1.6,-4.3,-5.4,-6.4,-9.5,-6.4c-9.2,0,-14.2,11,-14.2,13.3l1.2,1l1.2,-1c2.6,-8.5,8.3,-11.2,11.6,-11.2c2.5,0,4.7,1.7,4.7,5.7c0,3.1,-3.7,16.9,-4.8,21c-.7,2.7,-3.3,8,-8,8c-1.7,0,-3.5,-.6,-4.4,-1.1c2.3,-.4,4.1,-2.4,4.1,-4.6c0,-2.2,-1.7,-3.1,-3.3,-3.1c-2.5,0,-4.7,2.1,-4.7,5c0,4.3,4.6,6,8.2,6c5,0,7.9,-4.1,9.2,-6.5c2.2,5.7,7.3,6.5,9.6,6.5c9.3,0,14.2,-11.2,14.2,-13.3l-1.1,-1c-1,0,-1.1,.3,-1.5,1.6c-1.9,6.2,-6.9,10.5,-11.4,10.5c-2.5,0,-4.8,-1.5,-4.8,-5.6c0,-1.9,1.2,-6.7,2,-9.9c.3,-1.6,2.7,-10.9,2.8,-11.5c1.1,-3.1,3.7,-7.7,8,-7.7c1.6,0,3.2,.3,4.5,1.2Z" class="g0"/>
<path d="M261.5,707h6.3c1.1,0,1.9,0,1.9,-1.5c0,-.8,-.7,-.8,-1.7,-.8h-5.9l2,-8l.2,-1.2c0,-1.4,-1.1,-2,-2,-2c-.7,0,-2.2,.4,-2.7,2.3l-2.2,8.9h-6.2c-1.2,0,-1.3,0,-1.5,.2l-.5,1.3c.2,.8,.7,.8,1.8,.8h5.8l-3.4,13.5c-.3,1.3,-.8,3.3,-.8,4c0,3.3,3,5.5,6.5,5.5c6.6,0,10.5,-7.9,10.5,-8.9c0,-.1,-.1,-.8,-1.1,-.8l-1.1,1c-2,4.3,-5.2,6.8,-8,6.8c-2.2,0,-2.2,-2.1,-2.2,-2.9c0,-.8,0,-.9,.3,-2Z" class="g0"/>
<path d="M301.7,716.5h18.6c.8,0,2.2,0,2.2,-1.5c0,-1.4,-1.4,-1.4,-2.2,-1.4H301.7V695c0,-.8,0,-2.3,-1.5,-2.3c-1.5,0,-1.5,1.5,-1.5,2.3v18.6H280.2c-.8,0,-2.2,0,-2.2,1.4c0,1.5,1.4,1.5,2.2,1.5h18.5v18.6c0,.8,0,2.3,1.5,2.3c1.5,0,1.5,-1.5,1.5,-2.3Zm46,-23.5c0,-1.8,-.3,-1.8,-2,-1.8c-3.8,3.7,-9.6,3.7,-11.7,3.7v2.2c1.5,0,5.3,0,8.7,-1.6v29c0,1.9,0,2.7,-5.9,2.7h-2.4v2.2c3.1,-.2,7.6,-.2,10.8,-.2c3.2,0,7.7,0,10.9,.2v-2.2h-2.5c-5.9,0,-5.9,-.8,-5.9,-2.7Z" class="g0"/>
<path d="M452.4,691.4c1.2,0,2.8,0,2.8,-1.9c0,-1.9,-1.9,-1.9,-3.1,-1.9H399.5c-1.2,0,-3.1,0,-3.1,1.9c0,1.9,1.7,1.9,2.8,1.9Zm-.3,17.5c1.2,0,3.1,0,3.1,-1.9c0,-1.8,-1.6,-1.8,-2.8,-1.8H399.2c-1.1,0,-2.8,0,-2.8,1.8c0,1.9,1.9,1.9,3.1,1.9ZM504.5,664h26.7v49c0,3.2,-.2,4.2,-6.8,4.2h-2v2.6c3.9,-.2,8.7,-.2,12.7,-.2c4,0,8.8,0,12.6,.2v-2.6h-1.9c-6.7,0,-6.8,-1,-6.8,-4.2V668.1c0,-3.2,.1,-4.1,6.8,-4.1h1.9v-2.7H488V664h2c6.6,0,6.8,.9,6.8,4.1V713c0,3.2,-.2,4.2,-6.8,4.2h-2v2.6c3.9,-.2,8.7,-.2,12.7,-.2c3.9,0,8.7,0,12.6,.2v-2.6h-2c-6.6,0,-6.8,-1,-6.8,-4.2Z" class="g0"/>
<path d="M606.7,707.8c0,-2.2,-3,-2.4,-4.5,-2.4h-28c-5,0,-8.6,2.2,-9.7,4l-.6,1.2l.8,.5c1.4,0,2.8,-.9,3.9,-1.8l2.3,-.2h8.3l-.9,4.4c-2.4,9.5,-6,18.6,-10.7,27.1l-1.5,2.3c-2.4,0,-4.7,-.8,-6.2,-2.7l-1.1,-1.4l-1.9,.4c-.8,.4,-3.2,1.7,-3.2,2.8l.2,.5c1.7,2.8,4.5,4.2,7.7,4.2c4.7,0,9.1,-3.7,11.2,-7.7c2,-3.7,4.2,-7.5,5.6,-11.5h13.1l.6,.6c2,0,5.1,-1.9,5.1,-3.7l-.6,-.6H579.9c1.9,-4.6,3.2,-9.7,4.3,-14.7h13.7c2.1,0,3.3,.7,3.3,1.1l-.1,.5l.7,.5c1.5,0,4.9,-1.8,4.9,-3.4Z" class="g0"/>
<path d="M620.6,743.9c0,5.4,-2.9,8.6,-4.3,9.8l-.8,1.1l1,1c.8,0,6,-4.6,6,-11.7c0,-3.6,-1.5,-6.4,-4.3,-6.4c-2.2,0,-3.4,1.8,-3.4,3.5c0,1.7,1.2,3.5,3.5,3.5Z" class="g0"/>
<path d="M656.6,744.2L644.7,722l-1,-1l-1,.4l-6.3,4l-.9,1.1l.9,1c.3,0,.4,0,4.3,-2.6l13.2,24.7l1.3,.9c1.1,0,1.3,-.2,1.9,-1.2l30.5,-53.4l.4,-1.3l-1.5,-1.4l-1.5,1Z" class="g0"/>
<path d="M730.3,712.4l1.1,-1.4c2.4,-2.8,4.4,-3.1,6.7,-3.2l.9,-1.5l-.9,-.8c-1.5,0,-3.2,.2,-4.8,.2c-1.4,0,-4.8,-.2,-6.2,-.2c-1,0,-1.3,.7,-1.3,1.4l1.3,.9c.4,0,2.3,.1,2.3,1.5l-1.1,2.3L709,739.3L703.1,710l-.1,-.9c0,-.7,1.2,-1.3,3.8,-1.3c.7,0,1.6,0,1.6,-1.5c0,-.1,-.1,-.8,-1,-.8c-1.2,0,-2.6,.1,-3.8,.1c-1.3,0,-2.5,.1,-3.7,.1l-3.4,-.1c-1.1,0,-2.3,-.1,-3.3,-.1c-.6,0,-1.3,.3,-1.3,1.4l1.6,.9c3.4,0,3.5,.4,3.7,1.7l6.9,34.9c.2,1,.3,1.5,1.6,1.5c1.2,0,1.4,-.4,2,-1.2Z" class="g0"/>
<path d="M758.2,736.9h5.6c1,0,1.1,-.1,1.3,-.3l.4,-1.1l-1.5,-.8h-5.3l1,-3.9c.3,-1.3,.9,-3.4,.9,-3.7c0,-.8,-.6,-1.7,-1.8,-1.7c-.8,0,-1.9,.6,-2.3,1.8c-.3,.9,.3,-1.4,-1.9,7.5h-5.7c-1,0,-1.7,0,-1.7,1.4l1.5,.8H754l-2.8,11.2c-.2,1,-.6,2.5,-.6,3.1c0,2.7,2.5,4.6,5.9,4.6c5.7,0,9.3,-6.4,9.3,-7.4l-1,-.6l-1.1,.8c-1.6,3.4,-4.6,5.6,-7,5.6c-1.6,0,-2,-1.1,-2,-2.5l.1,-1.4Z" class="g0"/>
<path d="M809.1,740.3l-.8,-1.3C797.2,728.9,793.8,713.4,793.8,698.3c0,-13.3,2.6,-29.5,14.7,-41l.6,-1.1l-1.1,-.9c-1,0,-8.8,6.2,-13.4,15.6c-4.1,8.2,-6.2,17.1,-6.2,27.3c0,6.2,.8,16,5.5,26.2C799,735,807,741.3,808,741.3Z" class="g0"/>
<path d="M856.4,685.1c-3.1,.6,-4.1,3.3,-4.1,4.6c0,1.7,1.2,3.1,3.4,3.1c2.4,0,4.7,-2.1,4.7,-5.1c0,-3.9,-4.3,-5.9,-8.4,-5.9c-5.1,0,-8.1,4.6,-9.2,6.4c-1.6,-4.3,-5.4,-6.4,-9.5,-6.4c-9.2,0,-14.2,11,-14.2,13.3l1.2,1l1.2,-1c2.7,-8.5,8.3,-11.2,11.6,-11.2c2.5,0,4.7,1.7,4.7,5.7c0,3.1,-3.7,16.9,-4.8,21c-.7,2.7,-3.2,8,-8,8c-1.7,0,-3.5,-.6,-4.4,-1.1c2.4,-.4,4.1,-2.4,4.1,-4.6c0,-2.2,-1.7,-3.1,-3.3,-3.1c-2.5,0,-4.7,2.1,-4.7,5c0,4.3,4.6,6,8.2,6c5,0,8,-4.1,9.2,-6.5c2.2,5.7,7.3,6.5,9.6,6.5c9.3,0,14.2,-11.2,14.2,-13.3l-1.1,-1c-1,0,-1.1,.3,-1.5,1.6c-1.9,6.2,-6.9,10.5,-11.3,10.5c-2.5,0,-4.9,-1.5,-4.9,-5.6c0,-1.9,1.2,-6.7,2,-9.9c.4,-1.6,2.7,-10.9,2.9,-11.5c1,-3.1,3.6,-7.7,8,-7.7c1.5,0,3.1,.3,4.4,1.2Z" class="g0"/>
<path d="M841.7,660.1l-11.9,11.6l1.5,1.8l10.4,-8.7l10.2,8.7l1.5,-1.8Z" class="g0"/>
<path d="M879.6,707h6.3c1.1,0,1.9,0,1.9,-1.5c0,-.8,-.7,-.8,-1.7,-.8h-5.9l2,-8l.2,-1.2c0,-1.4,-1,-2,-2,-2c-.6,0,-2.1,.4,-2.7,2.3l-2.2,8.9h-6.2c-1.2,0,-1.3,0,-1.5,.2l-.5,1.3c.2,.8,.7,.8,1.8,.8h5.8l-3.4,13.5c-.3,1.3,-.8,3.3,-.8,4c0,3.3,3,5.5,6.5,5.5c6.6,0,10.5,-7.9,10.5,-8.9c0,-.1,-.1,-.8,-1.1,-.8l-1.1,1c-2,4.3,-5.2,6.8,-8,6.8c-2.2,0,-2.2,-2.1,-2.2,-2.9c0,-.8,0,-.9,.3,-2Z" class="g0"/>
<path d="M919.8,716.5h18.6c.8,0,2.2,0,2.2,-1.5c0,-1.4,-1.4,-1.4,-2.2,-1.4H919.8V695c0,-.8,0,-2.3,-1.5,-2.3c-1.4,0,-1.4,1.5,-1.4,2.3v18.6H898.3c-.8,0,-2.2,0,-2.2,1.4c0,1.5,1.4,1.5,2.2,1.5h18.6v18.6c0,.8,0,2.3,1.4,2.3c1.5,0,1.5,-1.5,1.5,-2.3Zm46,-23.5c0,-1.8,-.2,-1.8,-2,-1.8c-3.8,3.7,-9.6,3.7,-11.7,3.7v2.2c1.5,0,5.3,0,8.8,-1.6v29c0,1.9,0,2.7,-6,2.7h-2.4v2.2c3.1,-.2,7.6,-.2,10.8,-.2c3.2,0,7.7,0,10.9,.2v-2.2h-2.5c-5.9,0,-5.9,-.8,-5.9,-2.7Z" class="g0"/>
<path d="M1010.7,698.2c0,-7,-1.1,-16.5,-5.6,-26c-5,-10.6,-13,-16.9,-14.1,-16.9l-1,.9l.8,1.3c5,4.5,14.4,16.2,14.4,40.7c0,12.3,-2.2,29.5,-14.7,41.1l-.5,1l1,1c1.1,0,8.8,-6.2,13.5,-15.6c4.1,-8.3,6.2,-17.1,6.2,-27.5Z" class="g0"/>
<path d="M125.9,804.7c-3.4,4.2,-6.1,5.7,-9.8,5.7c-3.4,0,-5.9,-1.5,-7.7,-4.5c-1.5,-2.8,-2.2,-5.6,-2.5,-11.6h21.6c-.5,-7.2,-1.8,-11.2,-4.5,-14.5c-2.9,-3.4,-6.8,-5.1,-11.5,-5.1c-10.8,0,-18,8.5,-18,21.1c0,12.6,7,20.8,17.7,20.8c7,0,11.2,-2.7,16.8,-10.7ZM105.4,791.2c.3,-10.4,1.8,-13.8,6.1,-13.8c2.4,0,4,1.4,4.7,4c.4,1.7,.6,4.1,.8,8.5v1.3Zm42.3,-15.5H131.3v2.1c3.8,.6,4.6,1.5,4.6,5.1v25.3c0,3.6,-.7,4.4,-4.6,5.2v2h20.8v-2c-3.2,-.5,-4.3,-1.8,-4.3,-4.9v-23l1.5,-2c1.9,-2,4,-3,5.9,-3c3.1,0,4.5,2.3,4.5,7.1v20.9c0,3.1,-1.1,4.5,-4,4.9v2h20.2v-2c-3.4,-.3,-4.2,-1.3,-4.2,-4.9V786.9c0,-7.5,-4.6,-12.2,-11.6,-12.2c-5.2,0,-9.2,2.4,-12.4,7.5Zm58.8,40.8c4,-1.1,6.1,-1.5,11.5,-2.1l5.3,-.7v-2c-4,-.2,-5.1,-1.3,-5.1,-5V757.2H199.7v2.1c5.8,.4,6.6,1,6.6,5v15.8c-3.7,-4,-6.3,-5.4,-10.3,-5.4c-9.5,0,-16.5,9.2,-16.5,21.7c0,11.7,6.5,20.2,15.6,20.2c4.5,0,7.4,-1.3,11.4,-5.6Zm-.2,-10.7c0,.5,-.9,2,-1.9,3.1c-1.8,2,-3.6,2.9,-5.5,2.9c-4.5,0,-6.7,-5.2,-6.7,-16.1c0,-11.1,2.3,-16.2,7.3,-16.2c2.9,0,5.5,2.1,6.8,5.4Zm46.5,-26.3v28.7c0,3.7,-1,4.7,-4.9,5.2v2h23.9v-2c-6,-.2,-7.1,-1.2,-7.1,-6.8V779.5h7.5v-3.8h-7.5V765.2c0,-4.7,1.3,-6.6,4.3,-6.6c1.6,0,2.5,.6,2.5,1.7l-.7,1.8c-.8,1.2,-1.2,2.2,-1.2,3.1c0,2.6,2.3,4.7,5.2,4.7c3.2,0,5.3,-2.2,5.3,-5.3c0,-5.1,-5,-8.6,-12.3,-8.6c-5.7,0,-10.2,2,-12.5,5.8c-1.9,3,-2.5,6.5,-2.5,13.9h-4.9v3.8Zm42,-4.8c-11,0,-19.5,9.1,-19.5,20.8c0,12.3,8.2,21.1,19.5,21.1c11.1,0,19.3,-8.9,19.3,-20.9c0,-12,-8.2,-21,-19.3,-21m0,2.7c5,0,6.7,4.7,6.7,18.8c0,13.3,-1.7,17.8,-6.7,17.8c-5.1,0,-6.8,-4.4,-6.8,-17c0,-15.1,1.5,-19.6,6.8,-19.6m40.1,-1.7H318.7v2.1c3.7,.5,4.6,1.6,4.6,5.1v25.3c0,3.5,-.8,4.5,-4.6,5.2v2h22.9v-2c-5.3,-.4,-6.3,-1.5,-6.3,-6.8V790.3c0,-4.5,2.4,-8.2,5.2,-8.2c.7,0,1.5,.6,2.4,2c1.7,2.3,3,3.1,5.2,3.1c3.2,0,5.4,-2.4,5.4,-5.8c0,-3.8,-2.9,-6.7,-6.9,-6.7c-4.3,0,-7.6,2.3,-11.7,8.1Z" class="g0"/>
<path d="M0,853H2747v3.8H0Z" class="g0"/>

</g>
</svg>
